<?xml version="1.0" standalone="no"?>
 <!DOCTYPE svg PUBLIC "-//W3C//DTD SVG 1.1//EN" 
 "http://www.w3.org/Graphics/SVG/1.1/DTD/svg11.dtd"> 
<svg xmlns="http://www.w3.org/2000/svg" version="1.1" 
    width="29.7002cm" height="21.0007cm" viewBox="0 0 116930 82680 ">
<title>SVG Picture created as KokiriEmerald-brd.svg date 2020/06/15 20:52:15 </title>
  <desc>Picture generated by PCBNEW </desc>
<g style="fill:#000000; fill-opacity:1;stroke:#000000; stroke-opacity:1;
stroke-linecap:round; stroke-linejoin:round; "
 transform="translate(0 0) scale(1 1)">
</g>
<g style="fill:#000000; fill-opacity:0.0; 
stroke:#000000; stroke-width:-0.000393701; stroke-opacity:1; 
stroke-linecap:round; stroke-linejoin:round;">
</g>
<g style="fill:#000000; fill-opacity:0.0; 
stroke:#000000; stroke-width:39.3701; stroke-opacity:1; 
stroke-linecap:round; stroke-linejoin:round;">
</g>
<g style="fill:#000000; fill-opacity:0.0; 
stroke:#000000; stroke-width:59.0551; stroke-opacity:1; 
stroke-linecap:round; stroke-linejoin:round;">
<rect x="69685.9" y="65357.2" width="42519.7" height="12598.4" rx="0" />
</g>
<g style="fill:#000000; fill-opacity:0.0; 
stroke:#000000; stroke-width:39.3701; stroke-opacity:1; 
stroke-linecap:round; stroke-linejoin:round;">
</g>
<g style="fill:#000000; fill-opacity:0.0; 
stroke:#000000; stroke-width:59.0551; stroke-opacity:1; 
stroke-linecap:round; stroke-linejoin:round;">
<rect x="3937.01" y="3937.01" width="109056" height="74806" rx="0" />
</g>
<g style="fill:#000000; fill-opacity:0.0; 
stroke:#000000; stroke-width:39.3701; stroke-opacity:1; 
stroke-linecap:round; stroke-linejoin:round;">
</g>
<g style="fill:#000000; fill-opacity:0.0; 
stroke:#000000; stroke-width:59.0551; stroke-opacity:1; 
stroke-linecap:round; stroke-linejoin:round;">
<rect x="4724.41" y="4724.41" width="107481" height="73231.2" rx="0" />
</g>
<g style="fill:#000000; fill-opacity:0.0; 
stroke:#000000; stroke-width:39.3701; stroke-opacity:1; 
stroke-linecap:round; stroke-linejoin:round;">
</g>
<g style="fill:#000000; fill-opacity:0.0; 
stroke:#000000; stroke-width:59.0551; stroke-opacity:1; 
stroke-linecap:round; stroke-linejoin:round;">
<path d="M23622 4724
L23622 3937
" />
</g>
<g style="fill:#000000; fill-opacity:0.0; 
stroke:#000000; stroke-width:39.3701; stroke-opacity:1; 
stroke-linecap:round; stroke-linejoin:round;">
</g>
<g style="fill:#000000; fill-opacity:0.0; 
stroke:#000000; stroke-width:59.0551; stroke-opacity:1; 
stroke-linecap:round; stroke-linejoin:round;">
<path d="M43307 4724
L43307 3937
" />
</g>
<g style="fill:#000000; fill-opacity:0.0; 
stroke:#000000; stroke-width:39.3701; stroke-opacity:1; 
stroke-linecap:round; stroke-linejoin:round;">
</g>
<g style="fill:#000000; fill-opacity:0.0; 
stroke:#000000; stroke-width:59.0551; stroke-opacity:1; 
stroke-linecap:round; stroke-linejoin:round;">
<path d="M62992 4724
L62992 3937
" />
</g>
<g style="fill:#000000; fill-opacity:0.0; 
stroke:#000000; stroke-width:39.3701; stroke-opacity:1; 
stroke-linecap:round; stroke-linejoin:round;">
</g>
<g style="fill:#000000; fill-opacity:0.0; 
stroke:#000000; stroke-width:59.0551; stroke-opacity:1; 
stroke-linecap:round; stroke-linejoin:round;">
<path d="M82677 4724
L82677 3937
" />
</g>
<g style="fill:#000000; fill-opacity:0.0; 
stroke:#000000; stroke-width:39.3701; stroke-opacity:1; 
stroke-linecap:round; stroke-linejoin:round;">
</g>
<g style="fill:#000000; fill-opacity:0.0; 
stroke:#000000; stroke-width:59.0551; stroke-opacity:1; 
stroke-linecap:round; stroke-linejoin:round;">
<path d="M102362 4724
L102362 3937
" />
</g>
<g style="fill:#000000; fill-opacity:0.0; 
stroke:#000000; stroke-width:39.3701; stroke-opacity:1; 
stroke-linecap:round; stroke-linejoin:round;">
</g>
<g style="fill:#000000; fill-opacity:0.0; 
stroke:#000000; stroke-width:59.0551; stroke-opacity:1; 
stroke-linecap:round; stroke-linejoin:round;">
<text x="13779.5" y="4586.61"
textLength="546.494" font-size="682.415" lengthAdjust="spacingAndGlyphs"
text-anchor="start" opacity="0">1</text>
<path d="M14199 4562
L13906 4562
" />
<path d="M14052 4562
L14052 4050
L14004 4123
L13955 4172
L13906 4196
" />
</g>
<g style="fill:#000000; fill-opacity:0.0; 
stroke:#000000; stroke-width:39.3701; stroke-opacity:1; 
stroke-linecap:round; stroke-linejoin:round;">
</g>
<g style="fill:#000000; fill-opacity:0.0; 
stroke:#000000; stroke-width:59.0551; stroke-opacity:1; 
stroke-linecap:round; stroke-linejoin:round;">
<text x="33464.6" y="4586.61"
textLength="546.494" font-size="682.415" lengthAdjust="spacingAndGlyphs"
text-anchor="start" opacity="0">2</text>
<path d="M33591 4099
L33615 4074
L33664 4050
L33786 4050
L33835 4074
L33859 4099
L33884 4147
L33884 4196
L33859 4269
L33567 4562
L33884 4562
" />
</g>
<g style="fill:#000000; fill-opacity:0.0; 
stroke:#000000; stroke-width:39.3701; stroke-opacity:1; 
stroke-linecap:round; stroke-linejoin:round;">
</g>
<g style="fill:#000000; fill-opacity:0.0; 
stroke:#000000; stroke-width:59.0551; stroke-opacity:1; 
stroke-linecap:round; stroke-linejoin:round;">
<text x="53149.6" y="4586.61"
textLength="546.494" font-size="682.415" lengthAdjust="spacingAndGlyphs"
text-anchor="start" opacity="0">3</text>
<path d="M53252 4050
L53569 4050
L53398 4245
L53471 4245
L53520 4269
L53544 4294
L53569 4342
L53569 4464
L53544 4513
L53520 4537
L53471 4562
L53325 4562
L53276 4537
L53252 4513
" />
</g>
<g style="fill:#000000; fill-opacity:0.0; 
stroke:#000000; stroke-width:39.3701; stroke-opacity:1; 
stroke-linecap:round; stroke-linejoin:round;">
</g>
<g style="fill:#000000; fill-opacity:0.0; 
stroke:#000000; stroke-width:59.0551; stroke-opacity:1; 
stroke-linecap:round; stroke-linejoin:round;">
<text x="72834.6" y="4586.61"
textLength="546.494" font-size="682.415" lengthAdjust="spacingAndGlyphs"
text-anchor="start" opacity="0">4</text>
<path d="M73205 4221
L73205 4562
" />
<path d="M73083 4026
L72961 4391
L73278 4391
" />
</g>
<g style="fill:#000000; fill-opacity:0.0; 
stroke:#000000; stroke-width:39.3701; stroke-opacity:1; 
stroke-linecap:round; stroke-linejoin:round;">
</g>
<g style="fill:#000000; fill-opacity:0.0; 
stroke:#000000; stroke-width:59.0551; stroke-opacity:1; 
stroke-linecap:round; stroke-linejoin:round;">
<text x="92519.7" y="4586.61"
textLength="546.494" font-size="682.415" lengthAdjust="spacingAndGlyphs"
text-anchor="start" opacity="0">5</text>
<path d="M92914 4050
L92671 4050
L92646 4294
L92671 4269
L92719 4245
L92841 4245
L92890 4269
L92914 4294
L92939 4342
L92939 4464
L92914 4513
L92890 4537
L92841 4562
L92719 4562
L92671 4537
L92646 4513
" />
</g>
<g style="fill:#000000; fill-opacity:0.0; 
stroke:#000000; stroke-width:39.3701; stroke-opacity:1; 
stroke-linecap:round; stroke-linejoin:round;">
</g>
<g style="fill:#000000; fill-opacity:0.0; 
stroke:#000000; stroke-width:59.0551; stroke-opacity:1; 
stroke-linecap:round; stroke-linejoin:round;">
<text x="112205" y="4586.61"
textLength="546.494" font-size="682.415" lengthAdjust="spacingAndGlyphs"
text-anchor="start" opacity="0">6</text>
<path d="M112575 4050
L112477 4050
L112429 4074
L112404 4099
L112356 4172
L112331 4269
L112331 4464
L112356 4513
L112380 4537
L112429 4562
L112526 4562
L112575 4537
L112599 4513
L112624 4464
L112624 4342
L112599 4294
L112575 4269
L112526 4245
L112429 4245
L112380 4269
L112356 4294
L112331 4342
" />
</g>
<g style="fill:#000000; fill-opacity:0.0; 
stroke:#000000; stroke-width:39.3701; stroke-opacity:1; 
stroke-linecap:round; stroke-linejoin:round;">
</g>
<g style="fill:#000000; fill-opacity:0.0; 
stroke:#000000; stroke-width:59.0551; stroke-opacity:1; 
stroke-linecap:round; stroke-linejoin:round;">
<path d="M23622 77955
L23622 78742
" />
</g>
<g style="fill:#000000; fill-opacity:0.0; 
stroke:#000000; stroke-width:39.3701; stroke-opacity:1; 
stroke-linecap:round; stroke-linejoin:round;">
</g>
<g style="fill:#000000; fill-opacity:0.0; 
stroke:#000000; stroke-width:59.0551; stroke-opacity:1; 
stroke-linecap:round; stroke-linejoin:round;">
<path d="M43307 77955
L43307 78742
" />
</g>
<g style="fill:#000000; fill-opacity:0.0; 
stroke:#000000; stroke-width:39.3701; stroke-opacity:1; 
stroke-linecap:round; stroke-linejoin:round;">
</g>
<g style="fill:#000000; fill-opacity:0.0; 
stroke:#000000; stroke-width:59.0551; stroke-opacity:1; 
stroke-linecap:round; stroke-linejoin:round;">
<path d="M62992 77955
L62992 78742
" />
</g>
<g style="fill:#000000; fill-opacity:0.0; 
stroke:#000000; stroke-width:39.3701; stroke-opacity:1; 
stroke-linecap:round; stroke-linejoin:round;">
</g>
<g style="fill:#000000; fill-opacity:0.0; 
stroke:#000000; stroke-width:59.0551; stroke-opacity:1; 
stroke-linecap:round; stroke-linejoin:round;">
<path d="M82677 77955
L82677 78742
" />
</g>
<g style="fill:#000000; fill-opacity:0.0; 
stroke:#000000; stroke-width:39.3701; stroke-opacity:1; 
stroke-linecap:round; stroke-linejoin:round;">
</g>
<g style="fill:#000000; fill-opacity:0.0; 
stroke:#000000; stroke-width:59.0551; stroke-opacity:1; 
stroke-linecap:round; stroke-linejoin:round;">
<path d="M102362 77955
L102362 78742
" />
</g>
<g style="fill:#000000; fill-opacity:0.0; 
stroke:#000000; stroke-width:39.3701; stroke-opacity:1; 
stroke-linecap:round; stroke-linejoin:round;">
</g>
<g style="fill:#000000; fill-opacity:0.0; 
stroke:#000000; stroke-width:59.0551; stroke-opacity:1; 
stroke-linecap:round; stroke-linejoin:round;">
<text x="13779.5" y="78605.2"
textLength="546.494" font-size="682.415" lengthAdjust="spacingAndGlyphs"
text-anchor="start" opacity="0">1</text>
<path d="M14199 78580
L13906 78580
" />
<path d="M14052 78580
L14052 78069
L14004 78142
L13955 78190
L13906 78215
" />
</g>
<g style="fill:#000000; fill-opacity:0.0; 
stroke:#000000; stroke-width:39.3701; stroke-opacity:1; 
stroke-linecap:round; stroke-linejoin:round;">
</g>
<g style="fill:#000000; fill-opacity:0.0; 
stroke:#000000; stroke-width:59.0551; stroke-opacity:1; 
stroke-linecap:round; stroke-linejoin:round;">
<text x="33464.6" y="78605.2"
textLength="546.494" font-size="682.415" lengthAdjust="spacingAndGlyphs"
text-anchor="start" opacity="0">2</text>
<path d="M33591 78117
L33615 78093
L33664 78069
L33786 78069
L33835 78093
L33859 78117
L33884 78166
L33884 78215
L33859 78288
L33567 78580
L33884 78580
" />
</g>
<g style="fill:#000000; fill-opacity:0.0; 
stroke:#000000; stroke-width:39.3701; stroke-opacity:1; 
stroke-linecap:round; stroke-linejoin:round;">
</g>
<g style="fill:#000000; fill-opacity:0.0; 
stroke:#000000; stroke-width:59.0551; stroke-opacity:1; 
stroke-linecap:round; stroke-linejoin:round;">
<text x="53149.6" y="78605.2"
textLength="546.494" font-size="682.415" lengthAdjust="spacingAndGlyphs"
text-anchor="start" opacity="0">3</text>
<path d="M53252 78069
L53569 78069
L53398 78263
L53471 78263
L53520 78288
L53544 78312
L53569 78361
L53569 78483
L53544 78532
L53520 78556
L53471 78580
L53325 78580
L53276 78556
L53252 78532
" />
</g>
<g style="fill:#000000; fill-opacity:0.0; 
stroke:#000000; stroke-width:39.3701; stroke-opacity:1; 
stroke-linecap:round; stroke-linejoin:round;">
</g>
<g style="fill:#000000; fill-opacity:0.0; 
stroke:#000000; stroke-width:59.0551; stroke-opacity:1; 
stroke-linecap:round; stroke-linejoin:round;">
<text x="72834.6" y="78605.2"
textLength="546.494" font-size="682.415" lengthAdjust="spacingAndGlyphs"
text-anchor="start" opacity="0">4</text>
<path d="M73205 78239
L73205 78580
" />
<path d="M73083 78044
L72961 78410
L73278 78410
" />
</g>
<g style="fill:#000000; fill-opacity:0.0; 
stroke:#000000; stroke-width:39.3701; stroke-opacity:1; 
stroke-linecap:round; stroke-linejoin:round;">
</g>
<g style="fill:#000000; fill-opacity:0.0; 
stroke:#000000; stroke-width:59.0551; stroke-opacity:1; 
stroke-linecap:round; stroke-linejoin:round;">
<text x="92519.7" y="78605.2"
textLength="546.494" font-size="682.415" lengthAdjust="spacingAndGlyphs"
text-anchor="start" opacity="0">5</text>
<path d="M92914 78069
L92671 78069
L92646 78312
L92671 78288
L92719 78263
L92841 78263
L92890 78288
L92914 78312
L92939 78361
L92939 78483
L92914 78532
L92890 78556
L92841 78580
L92719 78580
L92671 78556
L92646 78532
" />
</g>
<g style="fill:#000000; fill-opacity:0.0; 
stroke:#000000; stroke-width:39.3701; stroke-opacity:1; 
stroke-linecap:round; stroke-linejoin:round;">
</g>
<g style="fill:#000000; fill-opacity:0.0; 
stroke:#000000; stroke-width:59.0551; stroke-opacity:1; 
stroke-linecap:round; stroke-linejoin:round;">
<text x="112205" y="78605.2"
textLength="546.494" font-size="682.415" lengthAdjust="spacingAndGlyphs"
text-anchor="start" opacity="0">6</text>
<path d="M112575 78069
L112477 78069
L112429 78093
L112404 78117
L112356 78190
L112331 78288
L112331 78483
L112356 78532
L112380 78556
L112429 78580
L112526 78580
L112575 78556
L112599 78532
L112624 78483
L112624 78361
L112599 78312
L112575 78288
L112526 78263
L112429 78263
L112380 78288
L112356 78312
L112331 78361
" />
</g>
<g style="fill:#000000; fill-opacity:0.0; 
stroke:#000000; stroke-width:39.3701; stroke-opacity:1; 
stroke-linecap:round; stroke-linejoin:round;">
</g>
<g style="fill:#000000; fill-opacity:0.0; 
stroke:#000000; stroke-width:59.0551; stroke-opacity:1; 
stroke-linecap:round; stroke-linejoin:round;">
<path d="M3937 23622
L4724 23622
" />
</g>
<g style="fill:#000000; fill-opacity:0.0; 
stroke:#000000; stroke-width:39.3701; stroke-opacity:1; 
stroke-linecap:round; stroke-linejoin:round;">
</g>
<g style="fill:#000000; fill-opacity:0.0; 
stroke:#000000; stroke-width:59.0551; stroke-opacity:1; 
stroke-linecap:round; stroke-linejoin:round;">
<path d="M3937 43307
L4724 43307
" />
</g>
<g style="fill:#000000; fill-opacity:0.0; 
stroke:#000000; stroke-width:39.3701; stroke-opacity:1; 
stroke-linecap:round; stroke-linejoin:round;">
</g>
<g style="fill:#000000; fill-opacity:0.0; 
stroke:#000000; stroke-width:59.0551; stroke-opacity:1; 
stroke-linecap:round; stroke-linejoin:round;">
<path d="M3937 62992
L4724 62992
" />
</g>
<g style="fill:#000000; fill-opacity:0.0; 
stroke:#000000; stroke-width:39.3701; stroke-opacity:1; 
stroke-linecap:round; stroke-linejoin:round;">
</g>
<g style="fill:#000000; fill-opacity:0.0; 
stroke:#000000; stroke-width:59.0551; stroke-opacity:1; 
stroke-linecap:round; stroke-linejoin:round;">
<text x="4330.71" y="14035.4"
textLength="497.75" font-size="682.415" lengthAdjust="spacingAndGlyphs"
text-anchor="middle" opacity="0">A</text>
<path d="M4208 13864
L4452 13864
" />
<path d="M4160 14011
L4330 13499
L4501 14011
" />
</g>
<g style="fill:#000000; fill-opacity:0.0; 
stroke:#000000; stroke-width:39.3701; stroke-opacity:1; 
stroke-linecap:round; stroke-linejoin:round;">
</g>
<g style="fill:#000000; fill-opacity:0.0; 
stroke:#000000; stroke-width:59.0551; stroke-opacity:1; 
stroke-linecap:round; stroke-linejoin:round;">
<text x="4330.71" y="33720.5"
textLength="570.866" font-size="682.415" lengthAdjust="spacingAndGlyphs"
text-anchor="middle" opacity="0">B</text>
<path d="M4367 33428
L4440 33452
L4464 33476
L4489 33525
L4489 33598
L4464 33647
L4440 33671
L4391 33696
L4196 33696
L4196 33184
L4367 33184
L4416 33208
L4440 33233
L4464 33281
L4464 33330
L4440 33379
L4416 33403
L4367 33428
L4196 33428
" />
</g>
<g style="fill:#000000; fill-opacity:0.0; 
stroke:#000000; stroke-width:39.3701; stroke-opacity:1; 
stroke-linecap:round; stroke-linejoin:round;">
</g>
<g style="fill:#000000; fill-opacity:0.0; 
stroke:#000000; stroke-width:59.0551; stroke-opacity:1; 
stroke-linecap:round; stroke-linejoin:round;">
<text x="4330.71" y="53405.5"
textLength="570.866" font-size="682.415" lengthAdjust="spacingAndGlyphs"
text-anchor="middle" opacity="0">C</text>
<path d="M4489 53332
L4464 53356
L4391 53381
L4342 53381
L4269 53356
L4221 53308
L4196 53259
L4172 53161
L4172 53088
L4196 52991
L4221 52942
L4269 52893
L4342 52869
L4391 52869
L4464 52893
L4489 52918
" />
</g>
<g style="fill:#000000; fill-opacity:0.0; 
stroke:#000000; stroke-width:39.3701; stroke-opacity:1; 
stroke-linecap:round; stroke-linejoin:round;">
</g>
<g style="fill:#000000; fill-opacity:0.0; 
stroke:#000000; stroke-width:59.0551; stroke-opacity:1; 
stroke-linecap:round; stroke-linejoin:round;">
<text x="4330.71" y="73090.6"
textLength="570.866" font-size="682.415" lengthAdjust="spacingAndGlyphs"
text-anchor="middle" opacity="0">D</text>
<path d="M4196 73066
L4196 72554
L4318 72554
L4391 72578
L4440 72627
L4464 72676
L4489 72773
L4489 72846
L4464 72944
L4440 72993
L4391 73041
L4318 73066
L4196 73066
" />
</g>
<g style="fill:#000000; fill-opacity:0.0; 
stroke:#000000; stroke-width:39.3701; stroke-opacity:1; 
stroke-linecap:round; stroke-linejoin:round;">
</g>
<g style="fill:#000000; fill-opacity:0.0; 
stroke:#000000; stroke-width:59.0551; stroke-opacity:1; 
stroke-linecap:round; stroke-linejoin:round;">
<path d="M112992 23622
L112205 23622
" />
</g>
<g style="fill:#000000; fill-opacity:0.0; 
stroke:#000000; stroke-width:39.3701; stroke-opacity:1; 
stroke-linecap:round; stroke-linejoin:round;">
</g>
<g style="fill:#000000; fill-opacity:0.0; 
stroke:#000000; stroke-width:59.0551; stroke-opacity:1; 
stroke-linecap:round; stroke-linejoin:round;">
<path d="M112992 43307
L112205 43307
" />
</g>
<g style="fill:#000000; fill-opacity:0.0; 
stroke:#000000; stroke-width:39.3701; stroke-opacity:1; 
stroke-linecap:round; stroke-linejoin:round;">
</g>
<g style="fill:#000000; fill-opacity:0.0; 
stroke:#000000; stroke-width:59.0551; stroke-opacity:1; 
stroke-linecap:round; stroke-linejoin:round;">
<path d="M112992 62992
L112205 62992
" />
</g>
<g style="fill:#000000; fill-opacity:0.0; 
stroke:#000000; stroke-width:39.3701; stroke-opacity:1; 
stroke-linecap:round; stroke-linejoin:round;">
</g>
<g style="fill:#000000; fill-opacity:0.0; 
stroke:#000000; stroke-width:59.0551; stroke-opacity:1; 
stroke-linecap:round; stroke-linejoin:round;">
<text x="112599" y="14035.4"
textLength="497.75" font-size="682.415" lengthAdjust="spacingAndGlyphs"
text-anchor="middle" opacity="0">A</text>
<path d="M112477 13864
L112721 13864
" />
<path d="M112428 14011
L112599 13499
L112769 14011
" />
</g>
<g style="fill:#000000; fill-opacity:0.0; 
stroke:#000000; stroke-width:39.3701; stroke-opacity:1; 
stroke-linecap:round; stroke-linejoin:round;">
</g>
<g style="fill:#000000; fill-opacity:0.0; 
stroke:#000000; stroke-width:59.0551; stroke-opacity:1; 
stroke-linecap:round; stroke-linejoin:round;">
<text x="112599" y="33720.5"
textLength="570.866" font-size="682.415" lengthAdjust="spacingAndGlyphs"
text-anchor="middle" opacity="0">B</text>
<path d="M112635 33428
L112708 33452
L112733 33476
L112757 33525
L112757 33598
L112733 33647
L112708 33671
L112660 33696
L112465 33696
L112465 33184
L112635 33184
L112684 33208
L112708 33233
L112733 33281
L112733 33330
L112708 33379
L112684 33403
L112635 33428
L112465 33428
" />
</g>
<g style="fill:#000000; fill-opacity:0.0; 
stroke:#000000; stroke-width:39.3701; stroke-opacity:1; 
stroke-linecap:round; stroke-linejoin:round;">
</g>
<g style="fill:#000000; fill-opacity:0.0; 
stroke:#000000; stroke-width:59.0551; stroke-opacity:1; 
stroke-linecap:round; stroke-linejoin:round;">
<text x="112599" y="53405.5"
textLength="570.866" font-size="682.415" lengthAdjust="spacingAndGlyphs"
text-anchor="middle" opacity="0">C</text>
<path d="M112757 53332
L112733 53356
L112660 53381
L112611 53381
L112538 53356
L112489 53308
L112465 53259
L112440 53161
L112440 53088
L112465 52991
L112489 52942
L112538 52893
L112611 52869
L112660 52869
L112733 52893
L112757 52918
" />
</g>
<g style="fill:#000000; fill-opacity:0.0; 
stroke:#000000; stroke-width:39.3701; stroke-opacity:1; 
stroke-linecap:round; stroke-linejoin:round;">
</g>
<g style="fill:#000000; fill-opacity:0.0; 
stroke:#000000; stroke-width:59.0551; stroke-opacity:1; 
stroke-linecap:round; stroke-linejoin:round;">
<text x="112599" y="73090.6"
textLength="570.866" font-size="682.415" lengthAdjust="spacingAndGlyphs"
text-anchor="middle" opacity="0">D</text>
<path d="M112465 73066
L112465 72554
L112587 72554
L112660 72578
L112708 72627
L112733 72676
L112757 72773
L112757 72846
L112733 72944
L112708 72993
L112660 73041
L112587 73066
L112465 73066
" />
</g>
<g style="fill:#000000; fill-opacity:0.0; 
stroke:#000000; stroke-width:39.3701; stroke-opacity:1; 
stroke-linecap:round; stroke-linejoin:round;">
</g>
<g style="fill:#000000; fill-opacity:0.0; 
stroke:#000000; stroke-width:59.0551; stroke-opacity:1; 
stroke-linecap:round; stroke-linejoin:round;">
<text x="78741" y="76321.7"
textLength="2758.72" font-size="787.402" lengthAdjust="spacingAndGlyphs"
text-anchor="start" opacity="0">Date: </text>
<path d="M78911 76293
L78911 75703
L79051 75703
L79136 75731
L79192 75787
L79220 75843
L79248 75956
L79248 76040
L79220 76153
L79192 76209
L79136 76265
L79051 76293
L78911 76293
" />
<path d="M79754 76293
L79754 75984
L79726 75928
L79670 75899
L79557 75899
L79501 75928
" />
<path d="M79754 76265
L79698 76293
L79557 76293
L79501 76265
L79473 76209
L79473 76153
L79501 76096
L79557 76068
L79698 76068
L79754 76040
" />
<path d="M79951 75899
L80176 75899
" />
<path d="M80036 75703
L80036 76209
L80064 76265
L80120 76293
L80176 76293
" />
<path d="M80598 76265
L80542 76293
L80429 76293
L80373 76265
L80345 76209
L80345 75984
L80373 75928
L80429 75899
L80542 75899
L80598 75928
L80626 75984
L80626 76040
L80345 76096
" />
<path d="M80879 76237
L80907 76265
L80879 76293
L80851 76265
L80879 76237
L80879 76293
" />
<path d="M80879 75928
L80907 75956
L80879 75984
L80851 75956
L80879 75928
L80879 75984
" />
</g>
<g style="fill:#000000; fill-opacity:0.0; 
stroke:#000000; stroke-width:39.3701; stroke-opacity:1; 
stroke-linecap:round; stroke-linejoin:round;">
</g>
<g style="fill:#000000; fill-opacity:0.0; 
stroke:#000000; stroke-width:59.0551; stroke-opacity:1; 
stroke-linecap:round; stroke-linejoin:round;">
<path d="M69685 76577
L112205 76577
" />
</g>
<g style="fill:#000000; fill-opacity:0.0; 
stroke:#000000; stroke-width:39.3701; stroke-opacity:1; 
stroke-linecap:round; stroke-linejoin:round;">
</g>
<g style="fill:#000000; fill-opacity:0.0; 
stroke:#000000; stroke-width:59.0551; stroke-opacity:1; 
stroke-linecap:round; stroke-linejoin:round;">
<text x="70079.6" y="77424.1"
textLength="12348.1" font-size="787.402" lengthAdjust="spacingAndGlyphs"
text-anchor="start" opacity="0">KiCad E.D.A.  pcbnew 5.1.5</text>
<path d="M70249 77395
L70249 76805
" />
<path d="M70587 77395
L70334 77058
" />
<path d="M70587 76805
L70249 77142
" />
<path d="M70840 77395
L70840 77002
" />
<path d="M70840 76805
L70812 76833
L70840 76861
L70868 76833
L70840 76805
L70840 76861
" />
<path d="M71458 77339
L71430 77367
L71346 77395
L71290 77395
L71205 77367
L71149 77311
L71121 77255
L71093 77142
L71093 77058
L71121 76946
L71149 76889
L71205 76833
L71290 76805
L71346 76805
L71430 76833
L71458 76861
" />
<path d="M71965 77395
L71965 77086
L71937 77030
L71880 77002
L71768 77002
L71712 77030
" />
<path d="M71965 77367
L71908 77395
L71768 77395
L71712 77367
L71683 77311
L71683 77255
L71712 77199
L71768 77171
L71908 77171
L71965 77142
" />
<path d="M72499 77395
L72499 76805
" />
<path d="M72499 77367
L72443 77395
L72330 77395
L72274 77367
L72246 77339
L72218 77283
L72218 77114
L72246 77058
L72274 77030
L72330 77002
L72443 77002
L72499 77030
" />
<path d="M73230 77086
L73427 77086
" />
<path d="M73511 77395
L73230 77395
L73230 76805
L73511 76805
" />
<path d="M73764 77339
L73793 77367
L73764 77395
L73736 77367
L73764 77339
L73764 77395
" />
<path d="M74046 77395
L74046 76805
L74186 76805
L74271 76833
L74327 76889
L74355 76946
L74383 77058
L74383 77142
L74355 77255
L74327 77311
L74271 77367
L74186 77395
L74046 77395
" />
<path d="M74636 77339
L74664 77367
L74636 77395
L74608 77367
L74636 77339
L74636 77395
" />
<path d="M74889 77227
L75171 77227
" />
<path d="M74833 77395
L75030 76805
L75227 77395
" />
<path d="M75424 77339
L75452 77367
L75424 77395
L75395 77367
L75424 77339
L75424 77395
" />
<path d="M76605 77002
L76605 77592
" />
<path d="M76605 77030
L76661 77002
L76773 77002
L76830 77030
L76858 77058
L76886 77114
L76886 77283
L76858 77339
L76830 77367
L76773 77395
L76661 77395
L76605 77367
" />
<path d="M77392 77367
L77336 77395
L77223 77395
L77167 77367
L77139 77339
L77111 77283
L77111 77114
L77139 77058
L77167 77030
L77223 77002
L77336 77002
L77392 77030
" />
<path d="M77645 77395
L77645 76805
" />
<path d="M77645 77030
L77701 77002
L77814 77002
L77870 77030
L77898 77058
L77926 77114
L77926 77283
L77898 77339
L77870 77367
L77814 77395
L77701 77395
L77645 77367
" />
<path d="M78180 77002
L78180 77395
" />
<path d="M78180 77058
L78208 77030
L78264 77002
L78348 77002
L78404 77030
L78433 77086
L78433 77395
" />
<path d="M78939 77367
L78883 77395
L78770 77395
L78714 77367
L78686 77311
L78686 77086
L78714 77030
L78770 77002
L78883 77002
L78939 77030
L78967 77086
L78967 77142
L78686 77199
" />
<path d="M79164 77002
L79276 77395
L79389 77114
L79501 77395
L79614 77002
" />
<path d="M80570 76805
L80289 76805
L80260 77086
L80289 77058
L80345 77030
L80485 77030
L80542 77058
L80570 77086
L80598 77142
L80598 77283
L80570 77339
L80542 77367
L80485 77395
L80345 77395
L80289 77367
L80260 77339
" />
<path d="M80851 77339
L80879 77367
L80851 77395
L80823 77367
L80851 77339
L80851 77395
" />
<path d="M81442 77395
L81104 77395
" />
<path d="M81273 77395
L81273 76805
L81217 76889
L81160 76946
L81104 76974
" />
<path d="M81695 77339
L81723 77367
L81695 77395
L81667 77367
L81695 77339
L81695 77395
" />
<path d="M82257 76805
L81976 76805
L81948 77086
L81976 77058
L82032 77030
L82173 77030
L82229 77058
L82257 77086
L82285 77142
L82285 77283
L82257 77339
L82229 77367
L82173 77395
L82032 77395
L81976 77367
L81948 77339
" />
</g>
<g style="fill:#000000; fill-opacity:0.0; 
stroke:#000000; stroke-width:39.3701; stroke-opacity:1; 
stroke-linecap:round; stroke-linejoin:round;">
</g>
<g style="fill:#000000; fill-opacity:0.0; 
stroke:#000000; stroke-width:59.0551; stroke-opacity:1; 
stroke-linecap:round; stroke-linejoin:round;">
<path d="M69685 75396
L112205 75396
" />
</g>
<g style="fill:#000000; fill-opacity:0.0; 
stroke:#000000; stroke-width:39.3701; stroke-opacity:1; 
stroke-linecap:round; stroke-linejoin:round;">
</g>
<g style="fill:#000000; fill-opacity:0.0; 
stroke:#000000; stroke-width:118.11; stroke-opacity:1; 
stroke-linecap:round; stroke-linejoin:round;">
<text x="103544" y="76321.7"
textLength="2336.9" font-size="787.402" lengthAdjust="spacingAndGlyphs"
text-anchor="start" opacity="0">Rev: </text>
<path d="M104099 76293
L103902 76012
" />
<path d="M103761 76293
L103761 75703
L103986 75703
L104042 75731
L104070 75759
L104099 75815
L104099 75899
L104070 75956
L104042 75984
L103986 76012
L103761 76012
" />
<path d="M104577 76265
L104520 76293
L104408 76293
L104352 76265
L104323 76209
L104323 75984
L104352 75928
L104408 75899
L104520 75899
L104577 75928
L104605 75984
L104605 76040
L104323 76096
" />
<path d="M104802 75899
L104942 76293
L105083 75899
" />
<path d="M105308 76237
L105336 76265
L105308 76293
L105280 76265
L105308 76237
L105308 76293
" />
<path d="M105308 75928
L105336 75956
L105308 75984
L105280 75956
L105308 75928
L105308 75984
" />
</g>
<g style="fill:#000000; fill-opacity:0.0; 
stroke:#000000; stroke-width:39.3701; stroke-opacity:1; 
stroke-linecap:round; stroke-linejoin:round;">
</g>
<g style="fill:#000000; fill-opacity:0.0; 
stroke:#000000; stroke-width:59.0551; stroke-opacity:1; 
stroke-linecap:round; stroke-linejoin:round;">
<text x="70079.6" y="76321.7"
textLength="3781.21" font-size="787.402" lengthAdjust="spacingAndGlyphs"
text-anchor="start" opacity="0">Size: A4</text>
<path d="M70221 76265
L70305 76293
L70446 76293
L70502 76265
L70530 76237
L70559 76181
L70559 76124
L70530 76068
L70502 76040
L70446 76012
L70334 75984
L70277 75956
L70249 75928
L70221 75871
L70221 75815
L70249 75759
L70277 75731
L70334 75703
L70474 75703
L70559 75731
" />
<path d="M70812 76293
L70812 75899
" />
<path d="M70812 75703
L70784 75731
L70812 75759
L70840 75731
L70812 75703
L70812 75759
" />
<path d="M71037 75899
L71346 75899
L71037 76293
L71346 76293
" />
<path d="M71796 76265
L71740 76293
L71627 76293
L71571 76265
L71543 76209
L71543 75984
L71571 75928
L71627 75899
L71740 75899
L71796 75928
L71824 75984
L71824 76040
L71543 76096
" />
<path d="M72077 76237
L72105 76265
L72077 76293
L72049 76265
L72077 76237
L72077 76293
" />
<path d="M72077 75928
L72105 75956
L72077 75984
L72049 75956
L72077 75928
L72077 75984
" />
<path d="M72780 76124
L73061 76124
" />
<path d="M72724 76293
L72921 75703
L73118 76293
" />
<path d="M73568 75899
L73568 76293
" />
<path d="M73427 75674
L73286 76096
L73652 76096
" />
</g>
<g style="fill:#000000; fill-opacity:0.0; 
stroke:#000000; stroke-width:39.3701; stroke-opacity:1; 
stroke-linecap:round; stroke-linejoin:round;">
</g>
<g style="fill:#000000; fill-opacity:0.0; 
stroke:#000000; stroke-width:59.0551; stroke-opacity:1; 
stroke-linecap:round; stroke-linejoin:round;">
<text x="103544" y="77424.1"
textLength="3349.27" font-size="787.402" lengthAdjust="spacingAndGlyphs"
text-anchor="start" opacity="0">Id: 1/1</text>
<path d="M103714 77395
L103714 76805
" />
<path d="M104248 77395
L104248 76805
" />
<path d="M104248 77367
L104192 77395
L104079 77395
L104023 77367
L103995 77339
L103967 77283
L103967 77114
L103995 77058
L104023 77030
L104079 77002
L104192 77002
L104248 77030
" />
<path d="M104529 77339
L104557 77367
L104529 77395
L104501 77367
L104529 77339
L104529 77395
" />
<path d="M104529 77030
L104557 77058
L104529 77086
L104501 77058
L104529 77030
L104529 77086
" />
<path d="M105570 77395
L105232 77395
" />
<path d="M105401 77395
L105401 76805
L105345 76889
L105289 76946
L105232 76974
" />
<path d="M106245 76777
L105739 77536
" />
<path d="M106751 77395
L106413 77395
" />
<path d="M106582 77395
L106582 76805
L106526 76889
L106470 76946
L106413 76974
" />
</g>
<g style="fill:#000000; fill-opacity:0.0; 
stroke:#000000; stroke-width:39.3701; stroke-opacity:1; 
stroke-linecap:round; stroke-linejoin:round;">
</g>
<g style="fill:#000000; fill-opacity:0.0; 
stroke:#000000; stroke-width:59.0551; stroke-opacity:1; 
stroke-linecap:round; stroke-linejoin:round;">
<path d="M69685 73821
L112205 73821
" />
</g>
<g style="fill:#000000; fill-opacity:0.0; 
stroke:#000000; stroke-width:39.3701; stroke-opacity:1; 
stroke-linecap:round; stroke-linejoin:round;">
</g>
<g style="fill:#000000; fill-opacity:0.0; 
stroke:#000000; stroke-width:157.48; stroke-opacity:1; 
stroke-linecap:round; stroke-linejoin:round;">
<text x="70079.6" y="74924.1"
textLength="3701.14" font-size="1049.87" lengthAdjust="spacingAndGlyphs"
text-anchor="start" opacity="0">Title: </text>
<path d="M70360 74099
L70810 74099
" />
<path d="M70486 74886
L70585 74099
" />
<path d="M70974 74886
L71039 74361
" />
<path d="M71072 74099
L71030 74136
L71063 74174
L71105 74136
L71072 74099
L71063 74174
" />
<path d="M71302 74361
L71602 74361
" />
<path d="M71447 74099
L71363 74774
L71391 74849
L71461 74886
L71536 74886
" />
<path d="M71911 74886
L71841 74849
L71813 74774
L71897 74099
" />
<path d="M72516 74849
L72436 74886
L72286 74886
L72216 74849
L72187 74774
L72225 74474
L72272 74399
L72352 74361
L72501 74361
L72572 74399
L72600 74474
L72591 74549
L72206 74624
" />
<path d="M72895 74811
L72928 74849
L72886 74886
L72853 74849
L72895 74811
L72886 74886
" />
<path d="M72947 74399
L72980 74436
L72937 74474
L72905 74436
L72947 74399
L72937 74474
" />
</g>
<g style="fill:#000000; fill-opacity:0.0; 
stroke:#000000; stroke-width:39.3701; stroke-opacity:1; 
stroke-linecap:round; stroke-linejoin:round;">
</g>
<g style="fill:#000000; fill-opacity:0.0; 
stroke:#000000; stroke-width:59.0551; stroke-opacity:1; 
stroke-linecap:round; stroke-linejoin:round;">
<text x="70079.6" y="73408.3"
textLength="13281.2" font-size="787.402" lengthAdjust="spacingAndGlyphs"
text-anchor="start" opacity="0">File: KokiriEmerald.kicad_pcb</text>
<path d="M70446 73070
L70249 73070
" />
<path d="M70249 73380
L70249 72789
L70530 72789
" />
<path d="M70755 73380
L70755 72986
" />
<path d="M70755 72789
L70727 72817
L70755 72845
L70784 72817
L70755 72789
L70755 72845
" />
<path d="M71121 73380
L71065 73352
L71037 73295
L71037 72789
" />
<path d="M71571 73352
L71515 73380
L71402 73380
L71346 73352
L71318 73295
L71318 73070
L71346 73014
L71402 72986
L71515 72986
L71571 73014
L71599 73070
L71599 73127
L71318 73183
" />
<path d="M71852 73323
L71880 73352
L71852 73380
L71824 73352
L71852 73323
L71852 73380
" />
<path d="M71852 73014
L71880 73042
L71852 73070
L71824 73042
L71852 73014
L71852 73070
" />
<path d="M72583 73380
L72583 72789
" />
<path d="M72921 73380
L72668 73042
" />
<path d="M72921 72789
L72583 73127
" />
<path d="M73258 73380
L73202 73352
L73174 73323
L73146 73267
L73146 73099
L73174 73042
L73202 73014
L73258 72986
L73343 72986
L73399 73014
L73427 73042
L73455 73099
L73455 73267
L73427 73323
L73399 73352
L73343 73380
L73258 73380
" />
<path d="M73708 73380
L73708 72789
" />
<path d="M73764 73155
L73933 73380
" />
<path d="M73933 72986
L73708 73211
" />
<path d="M74186 73380
L74186 72986
" />
<path d="M74186 72789
L74158 72817
L74186 72845
L74214 72817
L74186 72789
L74186 72845
" />
<path d="M74467 73380
L74467 72986
" />
<path d="M74467 73099
L74496 73042
L74524 73014
L74580 72986
L74636 72986
" />
<path d="M74833 73380
L74833 72986
" />
<path d="M74833 72789
L74805 72817
L74833 72845
L74861 72817
L74833 72789
L74833 72845
" />
<path d="M75114 73070
L75311 73070
" />
<path d="M75395 73380
L75114 73380
L75114 72789
L75395 72789
" />
<path d="M75649 73380
L75649 72986
" />
<path d="M75649 73042
L75677 73014
L75733 72986
L75817 72986
L75874 73014
L75902 73070
L75902 73380
" />
<path d="M75902 73070
L75930 73014
L75986 72986
L76070 72986
L76127 73014
L76155 73070
L76155 73380
" />
<path d="M76661 73352
L76605 73380
L76492 73380
L76436 73352
L76408 73295
L76408 73070
L76436 73014
L76492 72986
L76605 72986
L76661 73014
L76689 73070
L76689 73127
L76408 73183
" />
<path d="M76942 73380
L76942 72986
" />
<path d="M76942 73099
L76970 73042
L76998 73014
L77055 72986
L77111 72986
" />
<path d="M77561 73380
L77561 73070
L77533 73014
L77476 72986
L77364 72986
L77308 73014
" />
<path d="M77561 73352
L77505 73380
L77364 73380
L77308 73352
L77280 73295
L77280 73239
L77308 73183
L77364 73155
L77505 73155
L77561 73127
" />
<path d="M77926 73380
L77870 73352
L77842 73295
L77842 72789
" />
<path d="M78404 73380
L78404 72789
" />
<path d="M78404 73352
L78348 73380
L78236 73380
L78180 73352
L78151 73323
L78123 73267
L78123 73099
L78151 73042
L78180 73014
L78236 72986
L78348 72986
L78404 73014
" />
<path d="M78686 73323
L78714 73352
L78686 73380
L78658 73352
L78686 73323
L78686 73380
" />
<path d="M78967 73380
L78967 72789
" />
<path d="M79023 73155
L79192 73380
" />
<path d="M79192 72986
L78967 73211
" />
<path d="M79445 73380
L79445 72986
" />
<path d="M79445 72789
L79417 72817
L79445 72845
L79473 72817
L79445 72789
L79445 72845
" />
<path d="M79979 73352
L79923 73380
L79811 73380
L79754 73352
L79726 73323
L79698 73267
L79698 73099
L79726 73042
L79754 73014
L79811 72986
L79923 72986
L79979 73014
" />
<path d="M80485 73380
L80485 73070
L80457 73014
L80401 72986
L80289 72986
L80232 73014
" />
<path d="M80485 73352
L80429 73380
L80289 73380
L80232 73352
L80204 73295
L80204 73239
L80232 73183
L80289 73155
L80429 73155
L80485 73127
" />
<path d="M81020 73380
L81020 72789
" />
<path d="M81020 73352
L80964 73380
L80851 73380
L80795 73352
L80767 73323
L80739 73267
L80739 73099
L80767 73042
L80795 73014
L80851 72986
L80964 72986
L81020 73014
" />
<path d="M81160 73436
L81610 73436
" />
<path d="M81751 72986
L81751 73577
" />
<path d="M81751 73014
L81807 72986
L81920 72986
L81976 73014
L82004 73042
L82032 73099
L82032 73267
L82004 73323
L81976 73352
L81920 73380
L81807 73380
L81751 73352
" />
<path d="M82538 73352
L82482 73380
L82370 73380
L82313 73352
L82285 73323
L82257 73267
L82257 73099
L82285 73042
L82313 73014
L82370 72986
L82482 72986
L82538 73014
" />
<path d="M82791 73380
L82791 72789
" />
<path d="M82791 73014
L82848 72986
L82960 72986
L83016 73014
L83045 73042
L83073 73099
L83073 73267
L83045 73323
L83016 73352
L82960 73380
L82848 73380
L82791 73352
" />
</g>
<g style="fill:#000000; fill-opacity:0.0; 
stroke:#000000; stroke-width:39.3701; stroke-opacity:1; 
stroke-linecap:round; stroke-linejoin:round;">
</g>
<g style="fill:#000000; fill-opacity:0.0; 
stroke:#000000; stroke-width:59.0551; stroke-opacity:1; 
stroke-linecap:round; stroke-linejoin:round;">
<path d="M69685 71459
L112205 71459
" />
</g>
<g style="fill:#000000; fill-opacity:0.0; 
stroke:#000000; stroke-width:39.3701; stroke-opacity:1; 
stroke-linecap:round; stroke-linejoin:round;">
</g>
<g style="fill:#000000; fill-opacity:0.0; 
stroke:#000000; stroke-width:59.0551; stroke-opacity:1; 
stroke-linecap:round; stroke-linejoin:round;">
<text x="70079.6" y="72345.4"
textLength="3236.78" font-size="787.402" lengthAdjust="spacingAndGlyphs"
text-anchor="start" opacity="0">Sheet: </text>
<path d="M70221 72289
L70305 72317
L70446 72317
L70502 72289
L70530 72260
L70559 72204
L70559 72148
L70530 72092
L70502 72064
L70446 72036
L70334 72007
L70277 71979
L70249 71951
L70221 71895
L70221 71839
L70249 71782
L70277 71754
L70334 71726
L70474 71726
L70559 71754
" />
<path d="M70812 72317
L70812 71726
" />
<path d="M71065 72317
L71065 72007
L71037 71951
L70980 71923
L70896 71923
L70840 71951
L70812 71979
" />
<path d="M71571 72289
L71515 72317
L71402 72317
L71346 72289
L71318 72232
L71318 72007
L71346 71951
L71402 71923
L71515 71923
L71571 71951
L71599 72007
L71599 72064
L71318 72120
" />
<path d="M72077 72289
L72021 72317
L71908 72317
L71852 72289
L71824 72232
L71824 72007
L71852 71951
L71908 71923
L72021 71923
L72077 71951
L72105 72007
L72105 72064
L71824 72120
" />
<path d="M72274 71923
L72499 71923
" />
<path d="M72358 71726
L72358 72232
L72386 72289
L72443 72317
L72499 72317
" />
<path d="M72696 72260
L72724 72289
L72696 72317
L72668 72289
L72696 72260
L72696 72317
" />
<path d="M72696 71951
L72724 71979
L72696 72007
L72668 71979
L72696 71951
L72696 72007
" />
</g>
<g style="fill:#000000; fill-opacity:0.0; 
stroke:#000000; stroke-width:39.3701; stroke-opacity:1; 
stroke-linecap:round; stroke-linejoin:round;">
</g>
<g style="fill:#000000; fill-opacity:0.0; 
stroke:#000000; stroke-width:59.0551; stroke-opacity:1; 
stroke-linecap:round; stroke-linejoin:round;">
<path d="M77559 75396
L77559 76577
" />
</g>
<g style="fill:#000000; fill-opacity:0.0; 
stroke:#000000; stroke-width:39.3701; stroke-opacity:1; 
stroke-linecap:round; stroke-linejoin:round;">
</g>
<g style="fill:#000000; fill-opacity:0.0; 
stroke:#000000; stroke-width:59.0551; stroke-opacity:1; 
stroke-linecap:round; stroke-linejoin:round;">
<path d="M102756 75396
L102756 77955
" />
</g>
<g style="fill:#008400; fill-opacity:0.0; 
stroke:#008400; stroke-width:59.0551; stroke-opacity:1; 
stroke-linecap:round; stroke-linejoin:round;">
</g>
<g style="fill:#008400; fill-opacity:1.0; 
stroke:#008400; stroke-width:3.93701; stroke-opacity:1; 
stroke-linecap:round; stroke-linejoin:round;">
<path style="fill:#008400; fill-opacity:1.0; 
stroke:#008400; stroke-width:3.93701; stroke-opacity:1; 
stroke-linecap:round; stroke-linejoin:round;fill-rule:evenodd;"
d="M 47921.5,39420.9
47849.4,39457.3
47795.9,39509.9
47793,39514.3
47777.8,39542
47769.4,39571.3
47766.8,39611
47769.4,39669.5
47773.7,39724
47779,39806
47783.4,39907.5
47786.4,40014.9
47787.4,40102
47787.1,40193.3
47785.2,40257.9
47780.8,40302.2
47773.2,40332.9
47761.3,40356.5
47752.9,40368.7
47719.1,40402.1
47674.3,40417.7
47645.7,40421
47548.1,40413.4
47458.4,40375.2
47374.3,40305
47352.7,40281
47311.5,40236.3
47276,40204
47253.5,40190.7
47252.7,40190.7
47230.8,40203.7
47201.9,40236.7
47189.2,40255.3
47131.2,40330.4
47072.1,40375.3
47014.1,40389.4
46959.2,40372
46922.1,40338.7
46890.3,40295.8
46862.6,40245.5
46836.2,40180.8
46808.1,40095.1
46785,40015.7
46761.6,39932.7
46737.1,39846.3
46716,39772.2
46711.7,39757.3
46680.5,39648.8
46512,39584.5
46426.2,39553.5
46367.7,39536.9
46334.3,39533.9
46325.9,39537.6
46313.9,39560.8
46326.9,39584.3
46367.2,39610.1
46437.3,39640.2
46456.7,39647.5
46519.6,39672
46571.1,39694.4
46602.6,39710.9
46606.9,39714.1
46618,39736.2
46635.2,39784.2
46656.5,39851.4
46679.6,39931.6
46686.1,39955.4
46729.6,40105.8
46771.4,40225.8
46813.1,40318.5
46856.2,40386.8
46902.6,40433.5
46953.7,40461.7
46974,40467.9
47042.4,40469
47114.7,40442.8
47182.6,40392.9
47203.7,40370.5
47263.2,40301
47330.1,40370.6
47402.7,40436.2
47474.9,40476.7
47558.7,40497.9
47603.8,40502.8
47665.8,40505.3
47708.7,40499.2
47746.4,40481.7
47762.9,40471.1
47813.4,40420.7
47849.3,40347
47871,40248.6
47878.6,40123.8
47872.2,39971.4
47854.7,39808.3
47843.3,39709.4
47840.5,39637.2
47847.6,39585.8
47866.1,39549.2
47897.6,39521.6
47931.6,39502.8
47988.7,39485.1
48043.2,39492.4
48101.4,39526.5
48147,39566.8
48184.6,39600.4
48209.2,39612.5
48229.8,39606.7
48234.8,39603.3
48253.5,39585.7
48251,39566.4
48236,39543.1
48192.9,39498.5
48132.9,39456.4
48068,39423.9
48010.3,39408
47999.6,39407.3
Z" /> 
<g >
</g>
<g style="fill:#008400; fill-opacity:1.0; 
stroke:#008400; stroke-width:0; stroke-opacity:1; 
stroke-linecap:round; stroke-linejoin:round;">
<path style="fill:#008400; fill-opacity:1.0; 
stroke:#008400; stroke-width:0; stroke-opacity:1; 
stroke-linecap:round; stroke-linejoin:round;fill-rule:evenodd;"
d="M 47999.4,37552.3
48007.8,37553.4
48016,37555.4
48024,37558.2
48031.6,37561.7
48038.9,37565.9
48045.8,37570.9
48052.1,37576.5
48057.9,37582.7
48187.6,37737.3
48192.7,37744
48197.1,37751.2
48200.8,37758.8
48203.7,37766.7
48205.9,37774.9
48207.2,37783.3
48207.7,37791.7
48207.4,37800.1
48206.2,37808.5
48204.3,37816.7
48201.5,37824.7
48198,37832.4
48193.7,37839.7
48188.7,37846.5
48183.1,37852.9
48176.9,37858.6
48045,37969.3
48038.3,37974.4
48031.1,37978.9
48023.5,37982.6
48015.5,37985.5
48007.4,37987.6
47999,37989
47990.6,37989.5
47982.1,37989.1
47973.8,37988
47965.5,37986
47957.5,37983.3
47949.9,37979.7
47942.6,37975.5
47935.7,37970.5
47929.4,37964.9
47923.7,37958.7
47794,37804.1
47788.9,37797.4
47784.4,37790.2
47780.7,37782.6
47777.8,37774.7
47775.7,37766.5
47774.3,37758.2
47773.8,37749.7
47774.1,37741.3
47775.3,37732.9
47777.3,37724.7
47780,37716.7
47783.5,37709
47787.8,37701.7
47792.8,37694.9
47798.4,37688.6
47804.6,37682.8
47936.5,37572.1
47943.3,37567
47950.5,37562.6
47958.1,37558.9
47966,37555.9
47974.2,37553.8
47982.5,37552.5
47990.9,37552
Z" /> 
<path style="fill:#008400; fill-opacity:1.0; 
stroke:#008400; stroke-width:0; stroke-opacity:1; 
stroke-linecap:round; stroke-linejoin:round;fill-rule:evenodd;"
d="M 47524.4,37950.9
47532.8,37952
47541,37954
47549,37956.7
47556.6,37960.3
47563.9,37964.5
47570.8,37969.5
47577.1,37975.1
47582.8,37981.3
47712.5,38135.9
47717.7,38142.6
47722.1,38149.8
47725.8,38157.4
47728.7,38165.3
47730.8,38173.5
47732.2,38181.8
47732.7,38190.3
47732.4,38198.7
47731.2,38207.1
47729.3,38215.3
47726.5,38223.3
47723,38231
47718.7,38238.3
47713.7,38245.1
47708.1,38251.4
47701.9,38257.2
47570,38367.9
47563.2,38373
47556,38377.4
47548.4,38381.1
47540.5,38384.1
47532.3,38386.2
47524,38387.5
47515.6,38388
47507.1,38387.7
47498.7,38386.6
47490.5,38384.6
47482.5,38381.9
47474.9,38378.3
47467.6,38374.1
47460.7,38369.1
47454.4,38363.5
47448.6,38357.3
47319,38202.7
47313.8,38196
47309.4,38188.8
47305.7,38181.2
47302.8,38173.3
47300.6,38165.1
47299.3,38156.7
47298.8,38148.3
47299.1,38139.9
47300.3,38131.5
47302.2,38123.3
47305,38115.3
47308.5,38107.6
47312.8,38100.3
47317.8,38093.5
47323.4,38087.1
47329.6,38081.4
47461.5,37970.7
47468.2,37965.6
47475.4,37961.1
47483,37957.4
47491,37954.5
47499.2,37952.4
47507.5,37951
47515.9,37950.5
Z" /> 
</g>
<g >
</g>
<g style="fill:#008400; fill-opacity:1.0; 
stroke:#008400; stroke-width:0; stroke-opacity:1; 
stroke-linecap:round; stroke-linejoin:round;">
<path style="fill:#008400; fill-opacity:1.0; 
stroke:#008400; stroke-width:0; stroke-opacity:1; 
stroke-linecap:round; stroke-linejoin:round;fill-rule:evenodd;"
d="M 40963.7,38111.6
41125,38224.5
40944.3,38482.5
40783.1,38369.6
Z" /> 
<path style="fill:#008400; fill-opacity:1.0; 
stroke:#008400; stroke-width:0; stroke-opacity:1; 
stroke-linecap:round; stroke-linejoin:round;fill-rule:evenodd;"
d="M 41495.9,38484.2
41624.9,38574.5
41444.2,38832.5
41315.2,38742.2
Z" /> 
<path style="fill:#008400; fill-opacity:1.0; 
stroke:#008400; stroke-width:0; stroke-opacity:1; 
stroke-linecap:round; stroke-linejoin:round;fill-rule:evenodd;"
d="M 41237.9,38303.5
41366.9,38393.9
41186.2,38651.9
41057.2,38561.5
Z" /> 
<path style="fill:#008400; fill-opacity:1.0; 
stroke:#008400; stroke-width:0; stroke-opacity:1; 
stroke-linecap:round; stroke-linejoin:round;fill-rule:evenodd;"
d="M 41737.7,38653.5
41899,38766.5
41718.3,39024.5
41557.1,38911.5
Z" /> 
<path style="fill:#008400; fill-opacity:1.0; 
stroke:#008400; stroke-width:0; stroke-opacity:1; 
stroke-linecap:round; stroke-linejoin:round;fill-rule:evenodd;"
d="M 40831.4,38884
40960.4,38974.4
40779.7,39232.4
40650.7,39142
Z" /> 
<path style="fill:#008400; fill-opacity:1.0; 
stroke:#008400; stroke-width:0; stroke-opacity:1; 
stroke-linecap:round; stroke-linejoin:round;fill-rule:evenodd;"
d="M 40557.3,38692.1
40718.5,38805
40537.9,39063
40376.6,38950.1
Z" /> 
<path style="fill:#008400; fill-opacity:1.0; 
stroke:#008400; stroke-width:0; stroke-opacity:1; 
stroke-linecap:round; stroke-linejoin:round;fill-rule:evenodd;"
d="M 41089.4,39064.7
41218.4,39155
41037.7,39413
40908.7,39322.7
Z" /> 
<path style="fill:#008400; fill-opacity:1.0; 
stroke:#008400; stroke-width:0; stroke-opacity:1; 
stroke-linecap:round; stroke-linejoin:round;fill-rule:evenodd;"
d="M 41331.3,39234
41492.5,39347
41311.9,39605
41150.6,39492
Z" /> 
</g>
<g >
</g>
<g >
</g>
<g style="fill:#008400; fill-opacity:1.0; 
stroke:#008400; stroke-width:0; stroke-opacity:1; 
stroke-linecap:round; stroke-linejoin:round;">
<path style="fill:#008400; fill-opacity:1.0; 
stroke:#008400; stroke-width:0; stroke-opacity:1; 
stroke-linecap:round; stroke-linejoin:round;fill-rule:evenodd;"
d="M 45370.1,41190.9
45763.8,41190.9
45763.8,42431.1
45370.1,42431.1
Z" /> 
<path style="fill:#008400; fill-opacity:1.0; 
stroke:#008400; stroke-width:0; stroke-opacity:1; 
stroke-linecap:round; stroke-linejoin:round;fill-rule:evenodd;"
d="M 45370.1,39202.8
45763.8,39202.8
45763.8,40442.9
45370.1,40442.9
Z" /> 
<path style="fill:#008400; fill-opacity:1.0; 
stroke:#008400; stroke-width:0; stroke-opacity:1; 
stroke-linecap:round; stroke-linejoin:round;fill-rule:evenodd;"
d="M 44370.1,41190.9
44763.8,41190.9
44763.8,42431.1
44370.1,42431.1
Z" /> 
<path style="fill:#008400; fill-opacity:1.0; 
stroke:#008400; stroke-width:0; stroke-opacity:1; 
stroke-linecap:round; stroke-linejoin:round;fill-rule:evenodd;"
d="M 44370.1,39202.8
44763.8,39202.8
44763.8,40442.9
44370.1,40442.9
Z" /> 
<path style="fill:#008400; fill-opacity:1.0; 
stroke:#008400; stroke-width:0; stroke-opacity:1; 
stroke-linecap:round; stroke-linejoin:round;fill-rule:evenodd;"
d="M 43370.1,41190.9
43763.8,41190.9
43763.8,42431.1
43370.1,42431.1
Z" /> 
<path style="fill:#008400; fill-opacity:1.0; 
stroke:#008400; stroke-width:0; stroke-opacity:1; 
stroke-linecap:round; stroke-linejoin:round;fill-rule:evenodd;"
d="M 43370.1,39202.8
43763.8,39202.8
43763.8,40442.9
43370.1,40442.9
Z" /> 
</g>
<g >
</g>
<g style="fill:#008400; fill-opacity:1.0; 
stroke:#008400; stroke-width:0; stroke-opacity:1; 
stroke-linecap:round; stroke-linejoin:round;">
<path style="fill:#008400; fill-opacity:1.0; 
stroke:#008400; stroke-width:0; stroke-opacity:1; 
stroke-linecap:round; stroke-linejoin:round;fill-rule:evenodd;"
d="M 43034.8,38749.8
43043.1,38751.4
43051.2,38753.8
43059,38757
43215.1,38829.8
43222.6,38833.7
43229.7,38838.4
43236.2,38843.7
43242.2,38849.6
43247.6,38856.1
43252.4,38863.1
43256.4,38870.6
43259.7,38878.4
43262.2,38886.4
43263.9,38894.7
43264.7,38903.1
43264.8,38911.6
43264,38920
43262.4,38928.3
43260,38936.4
43256.8,38944.2
43171.5,39127.1
43167.6,39134.5
43162.9,39141.6
43157.6,39148.2
43151.6,39154.2
43145.1,39159.6
43138.1,39164.3
43130.7,39168.3
43122.9,39171.6
43114.8,39174.1
43106.6,39175.8
43098.2,39176.7
43089.7,39176.7
43081.3,39175.9
43073,39174.3
43064.9,39171.9
43057.1,39168.7
42901,39095.9
42893.5,39092
42886.4,39087.3
42879.9,39082
42873.9,39076.1
42868.5,39069.6
42863.7,39062.6
42859.7,39055.1
42856.4,39047.3
42853.9,39039.3
42852.2,39031
42851.4,39022.6
42851.3,39014.1
42852.1,39005.7
42853.7,38997.4
42856.1,38989.3
42859.3,38981.5
42944.6,38798.6
42948.5,38791.1
42953.2,38784.1
42958.5,38777.5
42964.4,38771.5
42970.9,38766.1
42977.9,38761.4
42985.4,38757.4
42993.2,38754.1
43001.2,38751.6
43009.5,38749.9
43017.9,38749
43026.4,38749
Z" /> 
<path style="fill:#008400; fill-opacity:1.0; 
stroke:#008400; stroke-width:0; stroke-opacity:1; 
stroke-linecap:round; stroke-linejoin:round;fill-rule:evenodd;"
d="M 42472.8,38487.7
42481.1,38489.3
42489.2,38491.7
42497,38494.9
42653.1,38567.7
42660.6,38571.6
42667.7,38576.3
42674.2,38581.6
42680.2,38587.6
42685.6,38594.1
42690.4,38601.1
42694.4,38608.5
42697.7,38616.3
42700.2,38624.4
42701.9,38632.6
42702.7,38641.1
42702.8,38649.5
42702,38657.9
42700.4,38666.2
42698,38674.3
42694.8,38682.1
42609.5,38865
42605.6,38872.5
42600.9,38879.5
42595.6,38886.1
42589.7,38892.1
42583.2,38897.5
42576.2,38902.2
42568.7,38906.3
42560.9,38909.5
42552.9,38912
42544.6,38913.7
42536.2,38914.6
42527.7,38914.7
42519.3,38913.9
42511,38912.3
42502.9,38909.9
42495.1,38906.7
42339,38833.9
42331.5,38829.9
42324.4,38825.3
42317.9,38820
42311.9,38814
42306.5,38807.5
42301.7,38800.5
42297.7,38793.1
42294.4,38785.3
42291.9,38777.2
42290.3,38768.9
42289.4,38760.5
42289.3,38752.1
42290.1,38743.7
42291.7,38735.4
42294.1,38727.3
42297.3,38719.4
42382.6,38536.6
42386.5,38529.1
42391.2,38522
42396.5,38515.5
42402.5,38509.5
42409,38504.1
42416,38499.3
42423.4,38495.3
42431.2,38492
42439.3,38489.5
42447.5,38487.8
42456,38487
42464.4,38486.9
Z" /> 
</g>
<g >
</g>
<g >
</g>
<g >
</g>
<g style="fill:#008400; fill-opacity:1.0; 
stroke:#008400; stroke-width:0; stroke-opacity:1; 
stroke-linecap:round; stroke-linejoin:round;">
<path style="fill:#008400; fill-opacity:1.0; 
stroke:#008400; stroke-width:0; stroke-opacity:1; 
stroke-linecap:round; stroke-linejoin:round;fill-rule:evenodd;"
d="M 40723.2,36393.8
40731.5,36395.4
40739.6,36397.8
40747.4,36401
40754.9,36404.9
40761.9,36409.6
40768.5,36414.9
40774.5,36420.9
40779.9,36427.4
40784.6,36434.4
40788.7,36441.8
40791.9,36449.6
40850.9,36611.5
40853.4,36619.5
40855,36627.8
40855.9,36636.2
40856,36644.7
40855.2,36653.1
40853.6,36661.4
40851.2,36669.5
40848,36677.3
40844,36684.8
40839.4,36691.8
40834.1,36698.4
40828.1,36704.4
40821.6,36709.8
40814.6,36714.5
40807.2,36718.6
40799.4,36721.8
40609.8,36790.8
40601.7,36793.3
40593.4,36795
40585,36795.9
40576.6,36796
40568.2,36795.2
40559.9,36793.6
40551.8,36791.2
40543.9,36788
40536.5,36784
40529.4,36779.4
40522.8,36774
40516.8,36768.1
40511.4,36761.6
40506.7,36754.6
40502.7,36747.2
40499.4,36739.4
40440.5,36577.5
40438,36569.4
40436.3,36561.2
40435.4,36552.8
40435.4,36544.3
40436.2,36535.9
40437.8,36527.6
40440.2,36519.5
40443.4,36511.7
40447.3,36504.2
40452,36497.1
40457.3,36490.6
40463.2,36484.6
40469.7,36479.2
40476.7,36474.4
40484.2,36470.4
40492,36467.1
40681.6,36398.1
40689.6,36395.6
40697.9,36393.9
40706.3,36393.1
40714.8,36393
Z" /> 
<path style="fill:#008400; fill-opacity:1.0; 
stroke:#008400; stroke-width:0; stroke-opacity:1; 
stroke-linecap:round; stroke-linejoin:round;fill-rule:evenodd;"
d="M 40511.1,35811.1
40519.4,35812.7
40527.5,35815.1
40535.3,35818.3
40542.8,35822.3
40549.9,35826.9
40556.4,35832.2
40562.4,35838.2
40567.8,35844.7
40572.6,35851.7
40576.6,35859.1
40579.9,35866.9
40638.8,36028.8
40641.3,36036.8
40643,36045.1
40643.8,36053.5
40643.9,36062
40643.1,36070.4
40641.5,36078.7
40639.1,36086.8
40635.9,36094.6
40632,36102.1
40627.3,36109.2
40622,36115.7
40616,36121.7
40609.5,36127.1
40602.5,36131.9
40595.1,36135.9
40587.3,36139.2
40397.7,36208.2
40389.6,36210.7
40381.3,36212.4
40372.9,36213.2
40364.5,36213.3
40356.1,36212.5
40347.8,36210.9
40339.7,36208.5
40331.8,36205.3
40324.4,36201.3
40317.3,36196.7
40310.8,36191.4
40304.7,36185.4
40299.4,36178.9
40294.6,36171.9
40290.6,36164.5
40287.3,36156.7
40228.4,35994.8
40225.9,35986.8
40224.2,35978.5
40223.3,35970.1
40223.3,35961.6
40224.1,35953.2
40225.7,35944.9
40228.1,35936.8
40231.3,35929
40235.2,35921.5
40239.9,35914.5
40245.2,35907.9
40251.1,35901.9
40257.7,35896.5
40264.7,35891.8
40272.1,35887.7
40279.9,35884.5
40469.5,35815.4
40477.6,35812.9
40485.8,35811.3
40494.2,35810.4
40502.7,35810.3
Z" /> 
</g>
<g >
</g>
<g >
</g>
<g >
</g>
<g style="fill:#C2C2C2; fill-opacity:1.0; 
stroke:#C2C2C2; stroke-width:0; stroke-opacity:1; 
stroke-linecap:round; stroke-linejoin:round;">
<circle cx="48468.5" cy="38503.9" r="118.11" /> 
</g>
<g style="fill:#C2C2C2; fill-opacity:1.0; 
stroke:#C2C2C2; stroke-width:39.3701; stroke-opacity:1; 
stroke-linecap:round; stroke-linejoin:round;">
</g>
<g style="fill:#C2C2C2; fill-opacity:1.0; 
stroke:#C2C2C2; stroke-width:0; stroke-opacity:1; 
stroke-linecap:round; stroke-linejoin:round;">
<circle cx="39795.3" cy="36500" r="118.11" /> 
</g>
<g style="fill:#C2C2C2; fill-opacity:1.0; 
stroke:#C2C2C2; stroke-width:39.3701; stroke-opacity:1; 
stroke-linecap:round; stroke-linejoin:round;">
</g>
<g style="fill:#C2C2C2; fill-opacity:1.0; 
stroke:#C2C2C2; stroke-width:0; stroke-opacity:1; 
stroke-linecap:round; stroke-linejoin:round;">
<circle cx="42858.3" cy="39720.5" r="118.11" /> 
</g>
<g style="fill:#C2C2C2; fill-opacity:1.0; 
stroke:#C2C2C2; stroke-width:39.3701; stroke-opacity:1; 
stroke-linecap:round; stroke-linejoin:round;">
</g>
<g >
</g>
<g style="fill:#008400; fill-opacity:1.0; 
stroke:#008400; stroke-width:39.3701; stroke-opacity:1; 
stroke-linecap:round; stroke-linejoin:round;">
</g>
<g style="fill:#008400; fill-opacity:1.0; 
stroke:#008400; stroke-width:98.4252; stroke-opacity:1; 
stroke-linecap:round; stroke-linejoin:round;">
</g>
<g style="fill:#008400; fill-opacity:0.0; 
stroke:#008400; stroke-width:98.4252; stroke-opacity:1; 
stroke-linecap:round; stroke-linejoin:round;">
<path d="M41212 38477
L41352 38336
" />
<path d="M41352 38336
L41129 37417
" />
<path d="M41129 37417
L40606 36614
" />
<path d="M45866 40783
L46149 40500
" />
<path d="M43312 40783
L45866 40783
" />
<path d="M46149 40500
L46149 39283
" />
<path d="M47208 38224
L47452 38224
" />
<path d="M42846 40370
L43312 40783
" />
<path d="M41329 38974
L42846 40370
" />
<path d="M46149 39283
L47208 38224
" />
<path d="M41470 38658
L41329 38799
" />
<path d="M41329 38799
L41329 38974
" />
<path d="M43539 41850
L43119 41430
" />
<path d="M41488 39586
L41342 39476
" />
<path d="M43119 41430
L43119 40977
" />
<path d="M43086 40859
L41488 39586
" />
<path d="M43119 40977
L43086 40859
" />
<path d="M41342 39476
L40523 38893
" />
<path d="M41728 38838
L42357 38838
" />
<path d="M42357 38838
L42476 38720
" />
</g>
<g >
</g>
<g style="fill:#008400; fill-opacity:0.0; 
stroke:#008400; stroke-width:98.4252; stroke-opacity:1; 
stroke-linecap:round; stroke-linejoin:round;">
</g>
<g style="fill:#008400; fill-opacity:1.0; 
stroke:#008400; stroke-width:100; stroke-opacity:1; 
stroke-linecap:round; stroke-linejoin:round;">
<path style="fill:#008400; fill-opacity:1.0; 
stroke:#008400; stroke-width:100; stroke-opacity:1; 
stroke-linecap:round; stroke-linejoin:round;fill-rule:evenodd;"
d="M 43127.8,38931.5
43124.5,38938.7
43131.6,38942
43089.4,39032.6
43082.2,39029.3
42945.1,39323.4
42975.3,39406.5
43029,39432.8
43075.4,39449.1
43119.5,39455.4
43120.1,39710.3
43182.6,39772.8
43516.9,39772.8
43516.9,39765
43616.9,39765
43616.9,39772.8
43951.3,39772.8
44013.8,39710.3
44014.8,39262.7
44118.9,39309.5
44118.9,40442.9
44122.9,40484.3
44010.9,40484.3
44015,40442.9
44013.8,39935.3
43951.3,39872.8
43616.9,39872.8
43616.9,39880.7
43516.9,39880.7
43516.9,39872.8
43182.6,39872.8
43120.1,39935.3
43119.4,40212.2
43047,40148
41948.9,39138.2
42343.2,39138.2
42357.9,39139.7
42372.5,39138.2
42372.6,39138.2
42393.9,39136.1
42451.3,39156.3
42516.8,39165.6
42582.8,39162
42593.5,39159.3
42608.1,39189.9
42637.7,39229.3
42674.4,39262.1
42716.7,39287.2
42771.4,39311.4
42854.5,39281.1
42991.6,38987
42984.5,38983.7
43026.7,38893.1
43033.9,38896.4
43037.2,38889.3
Z" /> 
<path style="fill:#008400; fill-opacity:1.0; 
stroke:#008400; stroke-width:100; stroke-opacity:1; 
stroke-linecap:round; stroke-linejoin:round;fill-rule:evenodd;"
d="M 48568.6,39751.4
48130.3,40113.2
48124,39960.9
48123.1,39954.4
48123.1,39947.9
48122.7,39944.4
48111.9,39843.8
48113.7,39844.5
48128.6,39851.3
48136.7,39853.1
48144.4,39856
48160.6,39858.7
48176.6,39862.4
48184.8,39862.6
48192.9,39864
48209.3,39863.4
48225.7,39864
48233.8,39862.6
48242,39862.3
48258,39858.6
48274.2,39856
48277.6,39855
48298.2,39849.2
48311.7,39843.9
48325.7,39839.7
48334.6,39835
48344,39831.3
48356.3,39823.5
48363.4,39819.7
48365.7,39818.6
48366.2,39818.2
48369.1,39816.7
48372,39814.7
48377.1,39811.3
48382.3,39806.9
48385.4,39804.9
48390.7,39799.8
48390.7,39799.8
48405,39789.1
48407.6,39786.7
48426.3,39769.1
48438.4,39755.2
48451.3,39741.8
48454.6,39736.7
48458.6,39732.1
48467.8,39716
48477.8,39700.5
48480.1,39694.7
48483.1,39689.4
48489.1,39671.9
48495.8,39654.7
48496.9,39648.7
48498.9,39642.9
48501.3,39624.5
48504.6,39606.3
48504.5,39600.2
48505.3,39594.1
48504.2,39575.6
48503.9,39557.2
48503.4,39553.7
48501,39534.4
48499.8,39529.4
48499.5,39524.3
48494.3,39505.5
48490,39486.4
48487.9,39481.8
48486.6,39476.8
48477.9,39459.4
48469.9,39441.6
48466.9,39437.4
48464.7,39432.8
48462.8,39429.8
48447.8,39406.5
48433.6,39388.7
48419.8,39370.7
48417.3,39368.1
48374.2,39323.5
48357.2,39308.9
48340.3,39294.1
48337.4,39292
48277.4,39250
48262.8,39241.8
48248.8,39232.7
48245.6,39231.1
48180.7,39198.6
48159.6,39190.5
48138.6,39182.1
48135.2,39181.1
48077.5,39165.1
48077,39165
48076.6,39164.9
48052.8,39160.8
48029.1,39156.7
48028.6,39156.7
48028.1,39156.6
48024.6,39156.4
48014,39155.8
48011.5,39155.9
48009.1,39155.6
47987,39156.9
47964.9,39157.8
47962.5,39158.4
47960,39158.5
47956.5,39159.1
47878.4,39172.6
47868,39175.5
47857.3,39177.3
47844.3,39182.1
47831,39185.7
47821.3,39190.6
47811.2,39194.4
47808,39195.9
47735.9,39232.3
47725.2,39239.1
47713.9,39244.9
47704.5,39252.2
47694.4,39258.6
47685.2,39267.4
47675.2,39275.2
47672.7,39277.7
47619.1,39330.4
47619,39330.5
47618.9,39330.6
47605.8,39346.3
47602.2,39349.8
47598.1,39355.5
47587.6,39368.1
47587.6,39368.3
47587.5,39368.4
47585.5,39371.3
47582.6,39375.7
47578.7,39383.1
47573.9,39390
47572.1,39393.1
47557,39420.7
47556.4,39422.1
47555.5,39423.4
47546.7,39444.7
47537.6,39465.9
47537.3,39467.4
47536.7,39468.8
47535.7,39472.2
47527.3,39501.6
47527.1,39502.4
47526.8,39503.2
47522.6,39526.6
47518.3,39549.9
47518.3,39550.8
47518.2,39551.7
47517.9,39555.2
47515.4,39594.8
47515.8,39606.7
47515,39618.6
47515.1,39622.1
47517.7,39680.6
47518,39683
47517.9,39685.5
47518.2,39689.1
47522.3,39742
47527.4,39819.7
47531.6,39916.4
47534.4,40019.9
47535.4,40103.1
47535.4,40107.5
47496.8,40065.6
47489.8,40059.4
47483.6,40052.3
47481.1,40050
47445.5,40017.7
47426.3,40003.3
47407.2,39988.9
47406.2,39988.3
47406.1,39988.3
47406.1,39988.2
47404.1,39987.1
47381.7,39973.8
47373.8,39970.2
47366.5,39965.5
47363.4,39964.3
47363.3,39964.3
47362.1,39963.8
47351.6,39959.8
47337.1,39953
47328.7,39951
47320.6,39947.9
47318.1,39947.4
47317.2,39947.1
47304.5,39945
47289.3,39941.3
47280.7,39940.9
47272.2,39939.5
47268.7,39939.2
47267.9,39939.2
47253.5,39939.7
47240.2,39939.1
47230.9,39940.5
47219.6,39940.9
47219.2,39941
47218.8,39941
47203,39944.8
47191.6,39946.5
47184,39949.2
47171.7,39952.1
47171.3,39952.3
47170.9,39952.4
47154.6,39959.8
47145.3,39963.2
47139.4,39966.7
47126.9,39972.4
47126.2,39972.8
47126.2,39972.8
47126.1,39972.8
47123.8,39974.2
47101.9,39987.2
47091.4,39995
47080.1,40001.8
47071.6,40009.5
47062.3,40016.4
47053.5,40026
47051.3,40028
47048.9,40020.7
47027.3,39946.3
47004.1,39864.3
47004.1,39864.3
47004,39863.9
46979.5,39777.5
46979.5,39777.5
46979.4,39777.2
46958.3,39703.1
46958.3,39703.1
46958.2,39702.7
46953.9,39687.8
46953.9,39687.7
46953.9,39687.6
46922.7,39579.2
46916.7,39564
46911.6,39548.4
46907.6,39541.2
46904.6,39533.5
46895.7,39519.7
46887.7,39505.4
46882.4,39499.1
46877.9,39492.2
46866.5,39480.4
46855.9,39467.9
46849.4,39462.8
46843.7,39456.8
46830.2,39447.5
46817.4,39437.3
46810.1,39433.5
46803.3,39428.8
46788.3,39422.2
46773.7,39414.7
46770.4,39413.4
46601.9,39349.1
46601.3,39348.9
46600.8,39348.7
46597.5,39347.5
46532.3,39323.9
47297.3,38558.9
47303.5,38565
47358.9,38601.1
47420.2,38625.8
47485.2,38638
47551.3,38637.3
47616.1,38623.7
47676.9,38597.7
47731.5,38560.3
47863.4,38449.6
47909.6,38402.4
47945.8,38347
47970.4,38285.6
47972.5,38274.8
48006.4,38274.4
48054.6,38264.3
48099.8,38244.9
48140.5,38217.1
48185.5,38177.8
48193.2,38089.7
47984.6,37841.2
47978.6,37846.2
47920.4,37776.9
48061.2,37776.9
48269.8,38025.5
48357.8,38033.2
48404.4,37995.7
48438.8,37960.5
48465.7,37919.2
48484.1,37873.5
48493.2,37825.1
48492.6,37775.9
48482.5,37727.7
48463.2,37682.4
48435.3,37641.8
48386.5,37585.5
48298.5,37577.8
48061.2,37776.9
47920.4,37776.9
47914.3,37769.6
47920.3,37764.5
47915.3,37758.5
47991.9,37694.2
47996.9,37700.3
48234.2,37501.2
48241.9,37413.1
48213.7,37378.4
49052.7,34749.5
49741,34725.5
Z" /> 
<path style="fill:#008400; fill-opacity:1.0; 
stroke:#008400; stroke-width:100; stroke-opacity:1; 
stroke-linecap:round; stroke-linejoin:round;fill-rule:evenodd;"
d="M 41594.5,31064.3
41585.9,31069
41578.4,31075.3
41572.3,31083
41568.8,31089.2
40045.2,34368.7
40042,34377.9
40040.6,34387.7
40041.1,34397.4
40044,34407.9
40486.4,35544.3
40464.5,35549.9
40394.9,35576.5
40357.5,35656.7
40463.5,35947.7
40470.9,35945
40505.1,36039
40497.7,36041.7
40500.4,36049.1
40406.4,36083.3
40403.7,36075.9
40098.8,36186.9
40061.4,36267
40080.7,36323.5
40102,36367.9
40131.6,36407.3
40168.2,36440.2
40197.4,36457.5
40193.7,36467.9
40184.4,36533.4
40188,36599.4
40204.4,36663.4
40263.3,36825.3
40291.9,36884.9
40331.6,36937.8
40380.9,36982
40437.8,37015.6
40500.1,37037.6
40527.7,37041.5
40851.2,37537.7
40930.2,37863.4
40920.1,37864.2
40872.7,37877.5
40828.8,37899.7
40790,37930.1
40758,37967.5
40577.3,38225.5
40553.1,38268.4
40537.8,38315.2
40531.9,38364.1
40535.7,38413.2
40543.8,38442.4
40513.6,38444.7
40466.2,38458
40422.3,38480.2
40383.5,38510.6
40351.5,38548
40284.1,38644.3
39258.9,35903
39948,35903
39950.7,35952.1
39962.9,35999.8
39984.5,36055.6
40064.6,36092.9
40369.5,35981.9
40263.6,35690.9
40183.5,35653.5
40113,35677.8
40068.6,35699.1
40029.2,35728.7
39996.4,35765.4
39971.3,35807.7
39954.9,35854.2
39948,35903
39258.9,35903
38928.8,35020.2
41381.6,30871
42881.8,30512.3
Z" /> 
</g>
</g>
<g style="fill:#FFFFFF; fill-opacity:1.0; 
stroke:#FFFFFF; stroke-width:100; stroke-opacity:1; 
stroke-linecap:round; stroke-linejoin:round;">
</g>
<g style="fill:#FFFFFF; fill-opacity:1.0; 
stroke:#FFFFFF; stroke-width:0; stroke-opacity:1; 
stroke-linecap:round; stroke-linejoin:round;">
<circle cx="48468.5" cy="38503.9" r="78.7402" /> 
</g>
<g style="fill:#FFFFFF; fill-opacity:1.0; 
stroke:#FFFFFF; stroke-width:39.3701; stroke-opacity:1; 
stroke-linecap:round; stroke-linejoin:round;">
</g>
<g style="fill:#FFFFFF; fill-opacity:1.0; 
stroke:#FFFFFF; stroke-width:0; stroke-opacity:1; 
stroke-linecap:round; stroke-linejoin:round;">
<circle cx="39795.3" cy="36500" r="78.7402" /> 
</g>
<g style="fill:#FFFFFF; fill-opacity:1.0; 
stroke:#FFFFFF; stroke-width:39.3701; stroke-opacity:1; 
stroke-linecap:round; stroke-linejoin:round;">
</g>
<g style="fill:#FFFFFF; fill-opacity:1.0; 
stroke:#FFFFFF; stroke-width:0; stroke-opacity:1; 
stroke-linecap:round; stroke-linejoin:round;">
<circle cx="42858.3" cy="39720.5" r="78.7402" /> 
</g>
<g style="fill:#FFFFFF; fill-opacity:1.0; 
stroke:#FFFFFF; stroke-width:39.3701; stroke-opacity:1; 
stroke-linecap:round; stroke-linejoin:round;">
</g>
<g style="fill:#000000; fill-opacity:1.0; 
stroke:#000000; stroke-width:39.3701; stroke-opacity:1; 
stroke-linecap:round; stroke-linejoin:round;">
</g>
<g style="fill:#C2C200; fill-opacity:1.0; 
stroke:#C2C200; stroke-width:39.3701; stroke-opacity:1; 
stroke-linecap:round; stroke-linejoin:round;">
</g>
<g style="fill:#C2C200; fill-opacity:0.0; 
stroke:#C2C200; stroke-width:39.3701; stroke-opacity:1; 
stroke-linecap:round; stroke-linejoin:round;">
<path d="M42960 40958
L40302 39463
" />
<path d="M38631 34993
L41207 30635
" />
<path d="M42960 40958
L42960 40958
" />
<path d="M45029 43022
L39220 43887
" />
<path d="M48810 39901
L45029 43022
" />
<path d="M39220 43887
L40265 41941
" />
<path d="M48323 31200
L50039 34633
" />
<path d="M44873 29758
L48323 31200
" />
<path d="M41207 30635
L44873 29758
" />
<path d="M40302 39463
L38631 34993
" />
<path d="M40265 41941
L42960 40958
" />
<path d="M50039 34633
L48810 39901
" />
<g >
</g>
<g >
</g>
<g >
</g>
<g >
</g>
<g >
</g>
<g >
</g>
<g >
</g>
<g >
</g>
<g >
</g>
<g >
</g>
<g >
</g>
</g> 
</svg>
