%TF.GenerationSoftware,KiCad,Pcbnew,8.0.0*%
%TF.CreationDate,2024-07-15T05:39:07-05:00*%
%TF.ProjectId,MilkTastic,4d696c6b-5461-4737-9469-632e6b696361,rev?*%
%TF.SameCoordinates,Original*%
%TF.FileFunction,Profile,NP*%
%FSLAX46Y46*%
G04 Gerber Fmt 4.6, Leading zero omitted, Abs format (unit mm)*
G04 Created by KiCad (PCBNEW 8.0.0) date 2024-07-15 05:39:07*
%MOMM*%
%LPD*%
G01*
G04 APERTURE LIST*
%TA.AperFunction,Profile*%
%ADD10C,0.349999*%
%TD*%
%TA.AperFunction,Profile*%
%ADD11C,0.120000*%
%TD*%
G04 APERTURE END LIST*
D10*
X158000000Y-25400000D02*
X158105579Y-25403019D01*
X158209761Y-25411275D01*
X158312417Y-25424641D01*
X158413420Y-25442987D01*
X158512642Y-25466186D01*
X158609953Y-25494108D01*
X158705227Y-25526624D01*
X158798334Y-25563607D01*
X158889147Y-25604927D01*
X158977537Y-25650457D01*
X159063377Y-25700066D01*
X159146537Y-25753628D01*
X159226891Y-25811012D01*
X159304309Y-25872092D01*
X159378663Y-25936737D01*
X159449826Y-26004819D01*
X159517670Y-26076210D01*
X159582065Y-26150781D01*
X159642884Y-26228403D01*
X159699998Y-26308949D01*
X159753280Y-26392289D01*
X159802602Y-26478294D01*
X159847834Y-26566836D01*
X159888849Y-26657787D01*
X159925519Y-26751018D01*
X159957716Y-26846399D01*
X159985311Y-26943804D01*
X160008176Y-27043102D01*
X160026183Y-27144166D01*
X160039204Y-27246867D01*
X160047110Y-27351075D01*
X160049774Y-27456664D01*
X160047110Y-27562252D01*
X160039204Y-27666460D01*
X160026183Y-27769161D01*
X160008176Y-27870225D01*
X159985311Y-27969523D01*
X159957717Y-28066928D01*
X159925520Y-28162310D01*
X159888851Y-28255541D01*
X159847836Y-28346492D01*
X159802603Y-28435034D01*
X159753282Y-28521040D01*
X159700001Y-28604380D01*
X159642887Y-28684925D01*
X159582068Y-28762548D01*
X159517673Y-28837120D01*
X159449830Y-28908511D01*
X159378668Y-28976593D01*
X159304313Y-29041239D01*
X159226895Y-29102318D01*
X159146542Y-29159703D01*
X159063382Y-29213265D01*
X158977543Y-29262875D01*
X158889153Y-29308405D01*
X158798340Y-29349726D01*
X158705233Y-29386709D01*
X158609960Y-29419226D01*
X158512649Y-29447148D01*
X158413428Y-29470347D01*
X158312425Y-29488694D01*
X158209769Y-29502060D01*
X158105587Y-29510317D01*
X158000008Y-29513337D01*
X150224076Y-29513300D01*
X150118555Y-29510205D01*
X150014433Y-29501878D01*
X149911838Y-29488448D01*
X149810897Y-29470044D01*
X149711740Y-29446793D01*
X149614493Y-29418825D01*
X149519284Y-29386268D01*
X149426242Y-29349250D01*
X149335495Y-29307900D01*
X149247170Y-29262346D01*
X149161396Y-29212716D01*
X149078299Y-29159140D01*
X148998009Y-29101746D01*
X148920654Y-29040662D01*
X148846360Y-28976016D01*
X148775256Y-28907938D01*
X148707471Y-28836555D01*
X148643131Y-28761996D01*
X148582366Y-28684389D01*
X148525302Y-28603864D01*
X148472068Y-28520548D01*
X148422792Y-28434570D01*
X148377602Y-28346058D01*
X148336625Y-28255142D01*
X148299990Y-28161948D01*
X148267825Y-28066607D01*
X148240257Y-27969246D01*
X148217414Y-27869993D01*
X148199425Y-27768978D01*
X148186418Y-27666329D01*
X148178519Y-27562173D01*
X148175858Y-27456641D01*
X148178518Y-27351108D01*
X148186416Y-27246953D01*
X148199423Y-27144303D01*
X148217412Y-27043288D01*
X148240254Y-26944035D01*
X148267821Y-26846674D01*
X148299986Y-26751332D01*
X148336621Y-26658139D01*
X148377597Y-26567222D01*
X148422787Y-26478710D01*
X148472063Y-26392732D01*
X148525296Y-26309416D01*
X148582360Y-26228890D01*
X148643125Y-26151284D01*
X148707464Y-26076724D01*
X148775250Y-26005341D01*
X148846353Y-25937262D01*
X148920647Y-25872617D01*
X148998002Y-25811532D01*
X149078292Y-25754137D01*
X149161388Y-25700561D01*
X149247163Y-25650931D01*
X149335488Y-25605377D01*
X149426235Y-25564026D01*
X149519277Y-25527008D01*
X149614485Y-25494450D01*
X149711732Y-25466482D01*
X149810890Y-25443231D01*
X149911830Y-25424826D01*
X150014425Y-25411396D01*
X150118547Y-25403069D01*
X150224068Y-25399973D01*
X158000000Y-25400000D01*
X200249665Y-26915406D02*
X200249665Y-30192877D01*
X230249664Y-30192877D01*
X230745538Y-30205167D01*
X231238045Y-30241811D01*
X231726367Y-30302468D01*
X232209683Y-30386800D01*
X232687175Y-30494468D01*
X233158023Y-30625130D01*
X233621406Y-30778449D01*
X234076506Y-30954084D01*
X234522502Y-31151696D01*
X234958576Y-31370946D01*
X235383907Y-31611493D01*
X235797676Y-31872999D01*
X236199064Y-32155124D01*
X236587250Y-32457528D01*
X236961415Y-32779873D01*
X237320740Y-33121817D01*
X237662684Y-33481142D01*
X237985028Y-33855308D01*
X238287432Y-34243495D01*
X238569557Y-34644883D01*
X238831062Y-35058654D01*
X239071610Y-35483986D01*
X239290859Y-35920061D01*
X239488470Y-36366058D01*
X239664105Y-36821159D01*
X239817423Y-37284543D01*
X239948084Y-37755391D01*
X240055750Y-38232884D01*
X240140080Y-38716200D01*
X240200736Y-39204521D01*
X240237377Y-39697028D01*
X240249664Y-40192900D01*
X240249664Y-71712653D01*
X240251088Y-71797093D01*
X240255351Y-71881267D01*
X240262434Y-71965106D01*
X240272319Y-72048541D01*
X240284987Y-72131505D01*
X240300419Y-72213927D01*
X240318596Y-72295741D01*
X240339499Y-72376877D01*
X240363108Y-72457267D01*
X240389407Y-72536841D01*
X240418374Y-72615532D01*
X240449991Y-72693272D01*
X240484240Y-72769990D01*
X240521101Y-72845619D01*
X240560556Y-72920090D01*
X240602585Y-72993334D01*
X252778244Y-93407336D01*
X252876616Y-93581902D01*
X252965363Y-93759312D01*
X253044562Y-93939244D01*
X253114285Y-94121376D01*
X253174609Y-94305387D01*
X253225606Y-94490956D01*
X253267354Y-94677761D01*
X253299925Y-94865483D01*
X253323394Y-95053798D01*
X253337837Y-95242386D01*
X253343327Y-95430925D01*
X253339940Y-95619095D01*
X253327750Y-95806574D01*
X253306832Y-95993041D01*
X253277260Y-96178174D01*
X253239109Y-96361652D01*
X253192454Y-96543154D01*
X253137369Y-96722359D01*
X253073930Y-96898945D01*
X253002210Y-97072592D01*
X252922284Y-97242977D01*
X252834227Y-97409780D01*
X252738114Y-97572679D01*
X252634019Y-97731354D01*
X252522017Y-97885482D01*
X252402182Y-98034743D01*
X252274590Y-98178815D01*
X252139314Y-98317377D01*
X251996430Y-98450107D01*
X251846012Y-98576685D01*
X251688135Y-98696790D01*
X251522873Y-98810099D01*
X236752610Y-108410738D01*
X236517462Y-108552390D01*
X236275243Y-108676615D01*
X236026869Y-108783380D01*
X235773252Y-108872650D01*
X235515307Y-108944390D01*
X235253948Y-108998565D01*
X234990089Y-109035140D01*
X234724644Y-109054081D01*
X234458527Y-109055353D01*
X234192652Y-109038921D01*
X233927933Y-109004751D01*
X233665284Y-108952806D01*
X233405619Y-108883054D01*
X233149853Y-108795459D01*
X232898899Y-108689985D01*
X232653672Y-108566599D01*
X216148438Y-99541712D01*
X216048861Y-99488716D01*
X215948205Y-99438024D01*
X215846510Y-99389650D01*
X215743816Y-99343606D01*
X215640163Y-99299906D01*
X215535594Y-99258565D01*
X215430147Y-99219595D01*
X215323864Y-99183010D01*
X215216786Y-99148823D01*
X215108952Y-99117048D01*
X215000403Y-99087698D01*
X214891181Y-99060787D01*
X214781326Y-99036328D01*
X214670877Y-99014335D01*
X214559877Y-98994822D01*
X214448365Y-98977801D01*
X200749664Y-97044627D01*
X200731278Y-97044627D01*
X200582515Y-97040941D01*
X200434762Y-97029949D01*
X200288265Y-97011753D01*
X200143269Y-96986454D01*
X200000020Y-96954155D01*
X199858764Y-96914956D01*
X199719747Y-96868961D01*
X199583216Y-96816270D01*
X199449416Y-96756986D01*
X199318592Y-96691211D01*
X199190991Y-96619046D01*
X199066860Y-96540593D01*
X198946443Y-96455955D01*
X198829986Y-96365232D01*
X198717737Y-96268527D01*
X198609940Y-96165942D01*
X198507354Y-96058145D01*
X198410649Y-95945895D01*
X198319927Y-95829439D01*
X198235288Y-95709022D01*
X198156835Y-95584890D01*
X198084671Y-95457289D01*
X198018896Y-95326466D01*
X197959612Y-95192666D01*
X197906922Y-95056134D01*
X197860927Y-94917118D01*
X197821729Y-94775862D01*
X197789431Y-94632613D01*
X197764133Y-94487617D01*
X197745937Y-94341119D01*
X197734947Y-94193366D01*
X197731262Y-94044604D01*
X197731278Y-92876536D01*
X197730048Y-92826940D01*
X197726383Y-92777682D01*
X197720317Y-92728843D01*
X197711882Y-92680505D01*
X197701114Y-92632751D01*
X197688046Y-92585662D01*
X197672713Y-92539320D01*
X197655148Y-92493807D01*
X197635385Y-92449205D01*
X197613459Y-92405596D01*
X197589403Y-92363061D01*
X197563251Y-92321683D01*
X197535038Y-92281544D01*
X197504798Y-92242725D01*
X197472563Y-92205308D01*
X197438370Y-92169375D01*
X197402433Y-92135180D01*
X197365012Y-92102946D01*
X197326190Y-92072705D01*
X197286048Y-92044493D01*
X197244667Y-92018343D01*
X197202131Y-91994288D01*
X197158521Y-91972364D01*
X197113918Y-91952604D01*
X197068406Y-91935041D01*
X197022065Y-91919711D01*
X196974978Y-91906646D01*
X196927227Y-91895881D01*
X196878893Y-91887449D01*
X196830059Y-91881386D01*
X196780806Y-91877724D01*
X196731217Y-91876498D01*
X186567429Y-91876536D01*
X186515971Y-91877839D01*
X186465189Y-91881702D01*
X186415146Y-91888063D01*
X186365903Y-91896858D01*
X186317525Y-91908025D01*
X186270074Y-91921502D01*
X186223612Y-91937223D01*
X186178203Y-91955129D01*
X186133909Y-91975155D01*
X186090793Y-91997238D01*
X186048919Y-92021316D01*
X186008348Y-92047326D01*
X185969143Y-92075206D01*
X185931369Y-92104891D01*
X185895086Y-92136320D01*
X185860359Y-92169430D01*
X185827249Y-92204158D01*
X185795820Y-92240440D01*
X185766135Y-92278216D01*
X185738255Y-92317420D01*
X185712245Y-92357991D01*
X185688168Y-92399865D01*
X185666084Y-92442981D01*
X185646059Y-92487275D01*
X185628154Y-92532684D01*
X185612432Y-92579145D01*
X185598956Y-92626596D01*
X185587789Y-92674974D01*
X185578994Y-92724216D01*
X185572633Y-92774259D01*
X185568770Y-92825041D01*
X185567467Y-92876498D01*
X185567429Y-94044627D01*
X185563525Y-94199002D01*
X185551940Y-94351351D01*
X185532863Y-94501485D01*
X185506481Y-94649215D01*
X185472983Y-94794354D01*
X185432558Y-94936712D01*
X185385394Y-95076101D01*
X185331680Y-95212333D01*
X185271604Y-95345219D01*
X185205354Y-95474571D01*
X185133120Y-95600200D01*
X185055089Y-95721917D01*
X184971450Y-95839535D01*
X184882392Y-95952864D01*
X184788102Y-96061716D01*
X184688770Y-96165904D01*
X184584585Y-96265237D01*
X184475733Y-96359528D01*
X184362405Y-96448588D01*
X184244788Y-96532229D01*
X184123071Y-96610262D01*
X183997443Y-96682499D01*
X183868092Y-96748751D01*
X183735205Y-96808830D01*
X183598973Y-96862547D01*
X183459583Y-96909714D01*
X183317224Y-96950142D01*
X183172085Y-96983642D01*
X183024353Y-97010028D01*
X182874218Y-97029108D01*
X182721867Y-97040697D01*
X182567490Y-97044604D01*
X116069664Y-97044627D01*
X102370987Y-98977786D01*
X102259474Y-98994806D01*
X102148472Y-99014320D01*
X102038022Y-99036312D01*
X101928164Y-99060770D01*
X101818940Y-99087681D01*
X101710388Y-99117031D01*
X101602552Y-99148805D01*
X101495470Y-99182992D01*
X101389183Y-99219578D01*
X101283733Y-99258548D01*
X101179160Y-99299890D01*
X101075503Y-99343591D01*
X100972805Y-99389635D01*
X100871105Y-99438012D01*
X100770445Y-99488706D01*
X100670864Y-99541705D01*
X84165680Y-108566576D01*
X83920453Y-108689958D01*
X83669500Y-108795428D01*
X83413735Y-108883020D01*
X83154072Y-108952770D01*
X82891426Y-109004712D01*
X82626709Y-109038882D01*
X82360837Y-109055312D01*
X82094722Y-109054039D01*
X81829279Y-109035098D01*
X81565422Y-108998522D01*
X81304065Y-108944347D01*
X81046122Y-108872608D01*
X80792506Y-108783339D01*
X80544132Y-108676575D01*
X80301914Y-108552350D01*
X80066765Y-108410700D01*
X65296479Y-98810084D01*
X65131215Y-98696775D01*
X64973335Y-98576671D01*
X64822915Y-98450094D01*
X64680029Y-98317363D01*
X64544751Y-98178801D01*
X64417157Y-98034729D01*
X64297320Y-97885469D01*
X64185316Y-97731340D01*
X64081219Y-97572666D01*
X63985104Y-97409766D01*
X63897045Y-97242962D01*
X63817117Y-97072577D01*
X63745396Y-96898930D01*
X63681954Y-96722342D01*
X63626868Y-96543137D01*
X63580211Y-96361634D01*
X63542059Y-96178155D01*
X63512485Y-95993020D01*
X63491566Y-95806553D01*
X63479374Y-95619073D01*
X63475986Y-95430902D01*
X63481475Y-95242361D01*
X63495917Y-95053772D01*
X63519385Y-94865456D01*
X63551955Y-94677733D01*
X63593702Y-94490926D01*
X63644699Y-94305356D01*
X63705022Y-94121343D01*
X63774745Y-93939210D01*
X63853943Y-93759277D01*
X63942690Y-93581866D01*
X64041062Y-93407298D01*
X76216767Y-72993262D01*
X76258789Y-72920022D01*
X76298238Y-72845555D01*
X76335093Y-72769931D01*
X76369338Y-72693217D01*
X76400951Y-72615484D01*
X76429915Y-72536798D01*
X76456210Y-72457230D01*
X76479819Y-72376847D01*
X76500720Y-72295718D01*
X76518897Y-72213912D01*
X76534329Y-72131497D01*
X76546998Y-72048543D01*
X76556885Y-71965117D01*
X76563971Y-71881288D01*
X76568237Y-71797126D01*
X76569664Y-71712698D01*
X76569664Y-40192877D01*
X76582676Y-39678282D01*
X76621293Y-39170441D01*
X76684886Y-38669984D01*
X76772828Y-38177539D01*
X76884490Y-37693734D01*
X77019243Y-37219198D01*
X77176460Y-36754559D01*
X77355512Y-36300445D01*
X77555771Y-35857484D01*
X77776608Y-35426305D01*
X78017394Y-35007537D01*
X78277503Y-34601807D01*
X78556306Y-34209744D01*
X78853173Y-33831975D01*
X79167477Y-33469131D01*
X79498590Y-33121838D01*
X79845883Y-32790725D01*
X80208727Y-32476421D01*
X80586496Y-32179553D01*
X80978559Y-31900750D01*
X81384289Y-31640641D01*
X81803059Y-31399853D01*
X82234238Y-31179015D01*
X82677199Y-30978756D01*
X83131314Y-30799704D01*
X83595954Y-30642486D01*
X84070491Y-30507731D01*
X84554297Y-30396069D01*
X85046743Y-30308126D01*
X85547202Y-30244531D01*
X86055044Y-30205913D01*
X86569641Y-30192900D01*
X86569664Y-30192877D01*
X116569664Y-30192877D01*
X116569664Y-26915406D01*
X128569664Y-23417296D01*
X188249665Y-23417296D01*
X200249665Y-26915406D01*
D11*
%TO.C,J5*%
X226400000Y-75500000D02*
G75*
G02*
X219400000Y-75500000I-3500000J0D01*
G01*
X219400000Y-75500000D02*
G75*
G02*
X226400000Y-75500000I3500000J0D01*
G01*
%TO.C,J8*%
X98500000Y-75600000D02*
G75*
G02*
X91500000Y-75600000I-3500000J0D01*
G01*
X91500000Y-75600000D02*
G75*
G02*
X98500000Y-75600000I3500000J0D01*
G01*
%TD*%
M02*
