M48
; DRILL file {KiCad 8.0.0} date 2024-07-15T05:39:10-0500
; FORMAT={-:-/ absolute / inch / decimal}
; #@! TF.CreationDate,2024-07-15T05:39:10-05:00
; #@! TF.GenerationSoftware,Kicad,Pcbnew,8.0.0
; #@! TF.FileFunction,Plated,1,2,PTH
FMAT,2
INCH
; #@! TA.AperFunction,Plated,PTH,ViaDrill
T1C0.0118
; #@! TA.AperFunction,Plated,PTH,ComponentDrill
T2C0.0374
; #@! TA.AperFunction,Plated,PTH,ComponentDrill
T3C0.0394
%
G90
G05
T1
X3.4961Y-1.5591
X3.5354Y-2.0945
X3.6063Y-1.9528
X3.7244Y-2.2913
X3.748Y-1.7717
X3.8031Y-1.7402
X3.9291Y-3.1102
X3.937Y-3.252
X3.9449Y-2.6772
X3.9685Y-2.8898
X4.0157Y-1.6378
X4.0551Y-2.7795
X4.1168Y-2.1307
X4.1673Y-2.7028
X4.2283Y-2.1181
X4.2664Y-1.9626
X4.2717Y-2.6181
X4.2717Y-2.6772
X4.3025Y-1.9988
X4.3543Y-2.2283
X4.4016Y-1.8976
X4.4882Y-2.0236
X4.5039Y-2.3307
X4.6614Y-1.9213
X4.6929Y-2.3228
X4.7087Y-2.1102
X5.263Y-1.7146
X5.6063Y-2.0
X5.6063Y-2.0709
X5.6063Y-2.1732
X5.6063Y-2.3071
X5.6063Y-2.4803
X5.6142Y-1.9528
X5.7402Y-1.9449
X5.748Y-2.6378
X5.7953Y-3.3386
X5.8268Y-2.2835
X5.9606Y-3.3465
X6.0079Y-2.0551
X6.1014Y-1.7094
X6.3228Y-2.3858
X6.4409Y-3.126
X6.5512Y-3.1024
X6.5906Y-1.126
X6.5906Y-2.5984
X6.5906Y-2.6378
X6.6299Y-3.0709
X6.7638Y-1.9291
X6.8048Y-3.4154
X6.9291Y-1.8583
X6.9921Y-3.3701
X7.0236Y-2.3543
X7.0315Y-2.8189
X7.0472Y-1.8976
X7.063Y-3.0866
X7.252Y-1.8976
X7.2756Y-2.8976
X7.2835Y-3.3701
X7.2992Y-2.3386
X7.4016Y-2.5984
X7.4016Y-2.6378
X7.4173Y-2.3386
X7.4882Y-3.3701
X7.5945Y-3.3701
X7.6378Y-2.3228
X7.6634Y-2.3844
X7.7953Y-2.8661
X7.8031Y-1.8976
X7.8031Y-2.3543
X7.8031Y-3.3071
X8.0394Y-1.874
X8.0394Y-3.4567
X8.0531Y-2.8929
X8.063Y-2.3465
X8.063Y-2.7008
X8.0787Y-2.9764
X8.0945Y-3.0472
X8.3189Y-1.9882
X8.374Y-1.9724
X8.4567Y-3.1575
X8.4803Y-2.0787
X8.5906Y-2.6772
X8.5906Y-3.252
X8.748Y-1.9685
X8.7496Y-2.0882
X8.7688Y-1.9255
X8.7795Y-1.874
X8.7857Y-1.5065
X8.8031Y-1.4803
X8.811Y-1.5906
X8.8504Y-2.0709
X8.8504Y-2.2096
X8.882Y-1.9921
X8.937Y-2.6378
X8.9528Y-1.5827
X8.9685Y-3.2598
X9.063Y-2.7559
X9.1339Y-2.1654
X9.2677Y-1.5984
X9.2913Y-2.2441
X9.3622Y-2.4016
T2
X5.1889Y-1.3239
X5.6672Y-1.3239
T3
X5.3386Y-1.022
X5.3386Y-1.122
X5.4386Y-1.022
X5.4386Y-1.122
X5.5386Y-1.022
X5.5386Y-1.122
X6.9213Y-2.4882
X6.9291Y-3.252
X7.3409Y-1.1417
X7.4409Y-1.1417
X7.5409Y-1.1417
X7.6409Y-1.1417
X7.7409Y-1.1417
X9.2913Y-1.6898
X9.2913Y-1.7898
X9.2913Y-1.8898
X9.2913Y-1.9898
M30
