%TF.GenerationSoftware,KiCad,Pcbnew,8.0.0*%
%TF.CreationDate,2024-07-15T05:39:07-05:00*%
%TF.ProjectId,MilkTastic,4d696c6b-5461-4737-9469-632e6b696361,rev?*%
%TF.SameCoordinates,Original*%
%TF.FileFunction,Legend,Bot*%
%TF.FilePolarity,Positive*%
%FSLAX46Y46*%
G04 Gerber Fmt 4.6, Leading zero omitted, Abs format (unit mm)*
G04 Created by KiCad (PCBNEW 8.0.0) date 2024-07-15 05:39:07*
%MOMM*%
%LPD*%
G01*
G04 APERTURE LIST*
%ADD10C,0.150000*%
%ADD11C,0.000000*%
G04 APERTURE END LIST*
D10*
X144222625Y-29613033D02*
X142698816Y-29613033D01*
X132222625Y-29613033D02*
X130698816Y-29613033D01*
X131460720Y-30374938D02*
X131460720Y-28851128D01*
%TO.C,BT1*%
X125797500Y-78627500D02*
X175797500Y-78627500D01*
X175797500Y-31627500D01*
X125797500Y-31627500D01*
X125797500Y-78627500D01*
D11*
%TO.C,kibuzzard-6692EF0B*%
G36*
X233564241Y-45521692D02*
G01*
X233347182Y-45521692D01*
X233252466Y-45486173D01*
X233207081Y-45377643D01*
X233249506Y-45275034D01*
X233351129Y-45233595D01*
X233564241Y-45233595D01*
X233564241Y-45521692D01*
G37*
G36*
X230927830Y-50907758D02*
G01*
X230772585Y-50907758D01*
X230651359Y-50884519D01*
X230548341Y-50814802D01*
X230477905Y-50712024D01*
X230454427Y-50589600D01*
X230477905Y-50466937D01*
X230548341Y-50363440D01*
X230651838Y-50293004D01*
X230774501Y-50269526D01*
X230927830Y-50269526D01*
X230927830Y-50907758D01*
G37*
G36*
X234382507Y-51446486D02*
G01*
X233965244Y-51446486D01*
X233252683Y-51446486D01*
X232390207Y-51446486D01*
X231104159Y-51446486D01*
X230034756Y-51446486D01*
X229617493Y-51446486D01*
X229617493Y-50581934D01*
X230103687Y-50581934D01*
X230116025Y-50716756D01*
X230153039Y-50841395D01*
X230214730Y-50955853D01*
X230301098Y-51060129D01*
X230404954Y-51146916D01*
X230519113Y-51208906D01*
X230643573Y-51246100D01*
X230778335Y-51258498D01*
X231104159Y-51258498D01*
X231200948Y-51245082D01*
X231253655Y-51203875D01*
X231273779Y-51150210D01*
X231278301Y-51086003D01*
X231385901Y-51086003D01*
X231388776Y-51152126D01*
X231406984Y-51203875D01*
X231460649Y-51246999D01*
X231562230Y-51260415D01*
X231660935Y-51249874D01*
X231717475Y-51208667D01*
X232213878Y-50553185D01*
X232213878Y-51086003D01*
X232216753Y-51152126D01*
X232234961Y-51203875D01*
X232288626Y-51246999D01*
X232390207Y-51260415D01*
X232488912Y-51246999D01*
X232540661Y-51203875D01*
X232558869Y-51151168D01*
X232562702Y-51084087D01*
X232562702Y-50997839D01*
X232702615Y-50997839D01*
X232748613Y-51108044D01*
X232873193Y-51204833D01*
X232979246Y-51246360D01*
X233105742Y-51271276D01*
X233252683Y-51279581D01*
X233385887Y-51266524D01*
X233509509Y-51227353D01*
X233623548Y-51162069D01*
X233728003Y-51070670D01*
X233815209Y-50961064D01*
X233877499Y-50841156D01*
X233914873Y-50710946D01*
X233927331Y-50570434D01*
X233914693Y-50436451D01*
X233876780Y-50312410D01*
X233813592Y-50198312D01*
X233725128Y-50094156D01*
X233618936Y-50007369D01*
X233502561Y-49945379D01*
X233376005Y-49908184D01*
X233374109Y-49908012D01*
X233239267Y-49895786D01*
X233139842Y-49902734D01*
X233033231Y-49923577D01*
X232932369Y-49956878D01*
X232850194Y-50001200D01*
X232796529Y-50039532D01*
X232761071Y-50079781D01*
X232742864Y-50135363D01*
X232786946Y-50242693D01*
X232857860Y-50318879D01*
X232928775Y-50344274D01*
X233032272Y-50300192D01*
X233130499Y-50259943D01*
X233248850Y-50246526D01*
X233374867Y-50270245D01*
X233480760Y-50341399D01*
X233552633Y-50447052D01*
X233576590Y-50574267D01*
X233551675Y-50705555D01*
X233476927Y-50819594D01*
X233369117Y-50898654D01*
X233245016Y-50925008D01*
X233134811Y-50918779D01*
X233053355Y-50900092D01*
X233053355Y-50735263D01*
X233195184Y-50735263D01*
X233246933Y-50732388D01*
X233287182Y-50717055D01*
X233319764Y-50672015D01*
X233329347Y-50585767D01*
X233318806Y-50501436D01*
X233283349Y-50456396D01*
X233241183Y-50441063D01*
X233189435Y-50438188D01*
X232854027Y-50438188D01*
X232780238Y-50451604D01*
X232735197Y-50476520D01*
X232712198Y-50514852D01*
X232703573Y-50557018D01*
X232702615Y-50604933D01*
X232702615Y-50997839D01*
X232562702Y-50997839D01*
X232562702Y-50089364D01*
X232558869Y-50025158D01*
X232539703Y-49974367D01*
X232486996Y-49933160D01*
X232386373Y-49920702D01*
X232299168Y-49932202D01*
X232250294Y-49956160D01*
X232215795Y-49995450D01*
X231736641Y-50639432D01*
X231736641Y-50089364D01*
X231732808Y-50026116D01*
X231713642Y-49975326D01*
X231659977Y-49934118D01*
X231635703Y-49930851D01*
X231560313Y-49920702D01*
X231460649Y-49934118D01*
X231406984Y-49978201D01*
X231388776Y-50030907D01*
X231385901Y-50097031D01*
X231385901Y-51086003D01*
X231278301Y-51086003D01*
X231278571Y-51082170D01*
X231278571Y-50091281D01*
X231275696Y-50027074D01*
X231257488Y-49974367D01*
X231203823Y-49931244D01*
X231102242Y-49918786D01*
X230772585Y-49918786D01*
X230640338Y-49931004D01*
X230519448Y-49967129D01*
X230517675Y-49967659D01*
X230404595Y-50028751D01*
X230301098Y-50114280D01*
X230214730Y-50216819D01*
X230153039Y-50328941D01*
X230116025Y-50450646D01*
X230103687Y-50581934D01*
X229617493Y-50581934D01*
X229617493Y-47568985D01*
X231425694Y-47568985D01*
X231491808Y-47693434D01*
X231841823Y-48076506D01*
X231493753Y-48459577D01*
X231426666Y-48584999D01*
X231503475Y-48708477D01*
X231635703Y-48777507D01*
X231754319Y-48696809D01*
X232079055Y-48339017D01*
X232405735Y-48696809D01*
X232524351Y-48777507D01*
X232656579Y-48708477D01*
X232733388Y-48584999D01*
X232666301Y-48459577D01*
X232318231Y-48076506D01*
X232668246Y-47693434D01*
X232733388Y-47568985D01*
X232718415Y-47543706D01*
X232779084Y-47543706D01*
X232790751Y-47629265D01*
X232828669Y-47674961D01*
X232873393Y-47690518D01*
X232928812Y-47693434D01*
X233197157Y-47693434D01*
X233197157Y-48584027D01*
X233200074Y-48649169D01*
X233218547Y-48700699D01*
X233272993Y-48743478D01*
X233374109Y-48757090D01*
X233474252Y-48743478D01*
X233526754Y-48699726D01*
X233544255Y-48647224D01*
X233547171Y-48582082D01*
X233547171Y-47693434D01*
X233817460Y-47693434D01*
X233872879Y-47690518D01*
X233916631Y-47674961D01*
X233953577Y-47629265D01*
X233965244Y-47541761D01*
X233953577Y-47457174D01*
X233915659Y-47412450D01*
X233870935Y-47396894D01*
X233815516Y-47393977D01*
X233059086Y-47393977D01*
X232871449Y-47396894D01*
X232827697Y-47412450D01*
X232790751Y-47458147D01*
X232779084Y-47543706D01*
X232718415Y-47543706D01*
X232658523Y-47442591D01*
X232526296Y-47373560D01*
X232407679Y-47454258D01*
X232079055Y-47813995D01*
X231752374Y-47454258D01*
X231671883Y-47399497D01*
X231633758Y-47373560D01*
X231501531Y-47442591D01*
X231425694Y-47568985D01*
X229617493Y-47568985D01*
X229617493Y-45048109D01*
X231458770Y-45048109D01*
X231525861Y-45174397D01*
X231881048Y-45563130D01*
X231527834Y-45951863D01*
X231459757Y-46079138D01*
X231537701Y-46204440D01*
X231671883Y-46274491D01*
X231792252Y-46192601D01*
X232121786Y-45829520D01*
X232453294Y-46192601D01*
X232573663Y-46274491D01*
X232707845Y-46204440D01*
X232780265Y-46088018D01*
X232824268Y-46088018D01*
X232918984Y-46204440D01*
X233059086Y-46258705D01*
X233169589Y-46166948D01*
X233380728Y-45880825D01*
X233564241Y-45880825D01*
X233564241Y-46072232D01*
X233567201Y-46140309D01*
X233585947Y-46193587D01*
X233641198Y-46237986D01*
X233745781Y-46251799D01*
X233848391Y-46237986D01*
X233903642Y-46192601D01*
X233922388Y-46138336D01*
X233925348Y-46070258D01*
X233925348Y-45052055D01*
X233922388Y-44985951D01*
X233903642Y-44931686D01*
X233848391Y-44886301D01*
X233743808Y-44872488D01*
X233347182Y-44872488D01*
X233267018Y-44880381D01*
X233261365Y-44882001D01*
X233184388Y-44904060D01*
X233102004Y-44942539D01*
X233022581Y-44994831D01*
X232951790Y-45064635D01*
X232895305Y-45155651D01*
X232858307Y-45262454D01*
X232845974Y-45379617D01*
X232865268Y-45527392D01*
X232923150Y-45654996D01*
X233019621Y-45762430D01*
X232877546Y-45951863D01*
X232824268Y-46088018D01*
X232780265Y-46088018D01*
X232785789Y-46079138D01*
X232717712Y-45951863D01*
X232364498Y-45563130D01*
X232719685Y-45174397D01*
X232785789Y-45048109D01*
X232709819Y-44919847D01*
X232575637Y-44849796D01*
X232455268Y-44931686D01*
X232121786Y-45296740D01*
X231790278Y-44931686D01*
X231783253Y-44926907D01*
X231669909Y-44849796D01*
X231535727Y-44919847D01*
X231458770Y-45048109D01*
X229617493Y-45048109D01*
X229617493Y-42586799D01*
X230034756Y-42586799D01*
X230078819Y-42698960D01*
X230153926Y-42780075D01*
X230223025Y-42807114D01*
X230331179Y-42761048D01*
X230344198Y-42752035D01*
X230361222Y-42741020D01*
X230380249Y-42730004D01*
X230407288Y-42719990D01*
X230439334Y-42711978D01*
X230479391Y-42704968D01*
X230527459Y-42702965D01*
X230641623Y-42722994D01*
X230754784Y-42782078D01*
X230843912Y-42891234D01*
X230869448Y-42966342D01*
X230877960Y-43051463D01*
X230862688Y-43160869D01*
X230816873Y-43252751D01*
X230752030Y-43323101D01*
X230679677Y-43367915D01*
X230527459Y-43399961D01*
X230421809Y-43383437D01*
X230321165Y-43333867D01*
X230221022Y-43293809D01*
X230152924Y-43322350D01*
X230080821Y-43407972D01*
X230036758Y-43524138D01*
X230064799Y-43597243D01*
X230146916Y-43658330D01*
X230265752Y-43720641D01*
X230389930Y-43758028D01*
X230519448Y-43770490D01*
X230604319Y-43764482D01*
X230694698Y-43746456D01*
X230789334Y-43714160D01*
X230886973Y-43665340D01*
X230980857Y-43602250D01*
X231064226Y-43527143D01*
X231135578Y-43434761D01*
X231193411Y-43319847D01*
X231231716Y-43187157D01*
X231244484Y-43041449D01*
X231231966Y-42901249D01*
X231194412Y-42773065D01*
X231137331Y-42661656D01*
X231078112Y-42586799D01*
X231298561Y-42586799D01*
X231342624Y-42698960D01*
X231417731Y-42780075D01*
X231486830Y-42807114D01*
X231594985Y-42761048D01*
X231608003Y-42752035D01*
X231625027Y-42741020D01*
X231644055Y-42730004D01*
X231671093Y-42719990D01*
X231703139Y-42711978D01*
X231743196Y-42704968D01*
X231791265Y-42702965D01*
X231905428Y-42722994D01*
X232018590Y-42782078D01*
X232107717Y-42891234D01*
X232133253Y-42966342D01*
X232141766Y-43051463D01*
X232126494Y-43160869D01*
X232080678Y-43252751D01*
X232015836Y-43323101D01*
X231943482Y-43367915D01*
X231791265Y-43399961D01*
X231685614Y-43383437D01*
X231584970Y-43333867D01*
X231484827Y-43293809D01*
X231416730Y-43322350D01*
X231344627Y-43407972D01*
X231300564Y-43524138D01*
X231328604Y-43597243D01*
X231410721Y-43658330D01*
X231529558Y-43720641D01*
X231653735Y-43758028D01*
X231783253Y-43770490D01*
X231868125Y-43764482D01*
X231958504Y-43746456D01*
X232053139Y-43714160D01*
X232150779Y-43665340D01*
X232244663Y-43602250D01*
X232328032Y-43527143D01*
X232399384Y-43434761D01*
X232457216Y-43319847D01*
X232495521Y-43187157D01*
X232508289Y-43041449D01*
X232495771Y-42901249D01*
X232458218Y-42773065D01*
X232401136Y-42661656D01*
X232330035Y-42571778D01*
X232246665Y-42498673D01*
X232197415Y-42466628D01*
X232591408Y-42466628D01*
X232614441Y-42604825D01*
X233089119Y-43648316D01*
X233158218Y-43721420D01*
X233261365Y-43748459D01*
X233373525Y-43723423D01*
X233441623Y-43648316D01*
X233916301Y-42604825D01*
X233936329Y-42465626D01*
X233824169Y-42370490D01*
X233673954Y-42340447D01*
X233581823Y-42454610D01*
X233265371Y-43233724D01*
X232948919Y-42454610D01*
X232854784Y-42341449D01*
X232706572Y-42370490D01*
X232591408Y-42466628D01*
X232197415Y-42466628D01*
X232152781Y-42437586D01*
X232054641Y-42390269D01*
X231958504Y-42358473D01*
X231865621Y-42340447D01*
X231777245Y-42334439D01*
X231657963Y-42346901D01*
X231535121Y-42384288D01*
X231408718Y-42446599D01*
X231354641Y-42484653D01*
X231317588Y-42526713D01*
X231298561Y-42586799D01*
X231078112Y-42586799D01*
X231066229Y-42571778D01*
X230982860Y-42498673D01*
X230888976Y-42437586D01*
X230790836Y-42390269D01*
X230694698Y-42358473D01*
X230601816Y-42340447D01*
X230513439Y-42334439D01*
X230394158Y-42346901D01*
X230271316Y-42384288D01*
X230144913Y-42446599D01*
X230090836Y-42484653D01*
X230053783Y-42526713D01*
X230034756Y-42586799D01*
X229617493Y-42586799D01*
X229617493Y-42153514D01*
X230034756Y-42153514D01*
X233965244Y-42153514D01*
X234382507Y-42153514D01*
X234382507Y-51446486D01*
G37*
%TD*%
M02*
