<?xml version="1.0" encoding="UTF-8" standalone="no"?>
<!-- Created with Inkscape (http://www.inkscape.org/) -->

<svg
   width="210mm"
   height="297mm"
   viewBox="0 0 210 297"
   version="1.1"
   id="svg1"
   inkscape:version="1.3.2 (091e20ef0f, 2023-11-25, custom)"
   sodipodi:docname="LLTB_Edge.svg"
   xmlns:inkscape="http://www.inkscape.org/namespaces/inkscape"
   xmlns:sodipodi="http://sodipodi.sourceforge.net/DTD/sodipodi-0.dtd"
   xmlns="http://www.w3.org/2000/svg"
   xmlns:svg="http://www.w3.org/2000/svg">
  <sodipodi:namedview
     id="namedview1"
     pagecolor="#ffffff"
     bordercolor="#666666"
     borderopacity="1.0"
     inkscape:showpageshadow="2"
     inkscape:pageopacity="0.0"
     inkscape:pagecheckerboard="0"
     inkscape:deskcolor="#d1d1d1"
     inkscape:document-units="mm"
     inkscape:zoom="0.71891835"
     inkscape:cx="397.12437"
     inkscape:cy="561.25984"
     inkscape:window-width="1390"
     inkscape:window-height="743"
     inkscape:window-x="4197"
     inkscape:window-y="146"
     inkscape:window-maximized="0"
     inkscape:current-layer="layer1" />
  <defs
     id="defs1" />
  <g
     inkscape:label="Layer 1"
     inkscape:groupmode="layer"
     id="layer1">
    <path
       style="fill:none;stroke:#000000;stroke-width:0.21;stroke-dasharray:none;stroke-opacity:1"
       d="m 30.193533,162.7211 c -1.90289,-0.0885 -2.90996,-0.36765 -4.26952,-1.18357 -1.67407,-1.00467 -3.20541,-3.06768 -3.56584,-4.8039 -0.0969,-0.46671 -0.12727,-5.13388 -0.10314,-15.84597 l 0.0342,-15.1844 0.32928,-1.19128 c 0.31366,-1.13479 0.9876,-2.65876 1.49098,-3.37157 0.12834,-0.18172 0.23334,-0.3823 0.23334,-0.4457 0,-0.0634 -0.24876,-0.29394 -0.55281,-0.51228 -1.23969,-0.89028 -2.6411,-3.6988 -2.7676,-5.54647 -0.0867,-1.26649 0.20605,-3.0314 0.69644,-4.19855 0.79728,-1.8976 2.73625,-4.23164 4.4764,-5.3885 2.91451,-1.93756 7.07114,-3.4903 12.54784,-4.68733 4.69389,-1.025936 12.20851,-1.323616 18.83673,-0.746186 4.54756,0.396176 7.03087,0.908516 12.19934,2.516936 0.89609,0.27887 3.65394,1.53734 4.65066,2.12219 1.61698,0.94883 2.97542,2.13834 4.16572,3.64766 1.60319,2.03288 2.41076,4.92797 2.02032,7.24273 -0.11191,0.66348 -0.29121,1.1263 -0.69893,1.80415 -0.30164,0.50148 -0.54936,0.97508 -0.5505,1.05244 -0.002,0.11699 -1.05087,1.4099 -2.02113,2.49072 -0.23772,0.26482 -0.23609,0.27043 0.30858,1.06602 0.30116,0.43988 0.72944,1.23666 0.95173,1.77062 0.85138,2.04512 0.80534,1.12823 0.85044,16.93788 0.0239,8.36178 -0.008,14.84217 -0.0767,15.58339 -0.10793,1.16497 -0.16419,1.35443 -0.6869,2.31336 -0.79123,1.45152 -1.9313,2.58201 -3.45104,3.42203 -2.2219,1.22811 -0.28139,1.13013 -23.2633,1.17471 -11.05722,0.0214 -20.86027,0.004 -21.78456,-0.0392 z"
       id="path9"
       sodipodi:nodetypes="sssscsssssssssssssscssssssssss" />
  </g>
</svg>
