%TF.GenerationSoftware,KiCad,Pcbnew,7.0.8*%
%TF.CreationDate,2024-04-10T09:50:00-05:00*%
%TF.ProjectId,Z_PCBnut,5a5f5043-426e-4757-942e-6b696361645f,rev?*%
%TF.SameCoordinates,Original*%
%TF.FileFunction,Legend,Top*%
%TF.FilePolarity,Positive*%
%FSLAX46Y46*%
G04 Gerber Fmt 4.6, Leading zero omitted, Abs format (unit mm)*
G04 Created by KiCad (PCBNEW 7.0.8) date 2024-04-10 09:50:00*
%MOMM*%
%LPD*%
G01*
G04 APERTURE LIST*
%ADD10C,0.150000*%
G04 APERTURE END LIST*
D10*
X117261905Y-174354819D02*
X117261905Y-173354819D01*
X117261905Y-173831009D02*
X117833333Y-173831009D01*
X117833333Y-174354819D02*
X117833333Y-173354819D01*
X118833333Y-174354819D02*
X118261905Y-174354819D01*
X118547619Y-174354819D02*
X118547619Y-173354819D01*
X118547619Y-173354819D02*
X118452381Y-173497676D01*
X118452381Y-173497676D02*
X118357143Y-173592914D01*
X118357143Y-173592914D02*
X118261905Y-173640533D01*
X119452381Y-173354819D02*
X119547619Y-173354819D01*
X119547619Y-173354819D02*
X119642857Y-173402438D01*
X119642857Y-173402438D02*
X119690476Y-173450057D01*
X119690476Y-173450057D02*
X119738095Y-173545295D01*
X119738095Y-173545295D02*
X119785714Y-173735771D01*
X119785714Y-173735771D02*
X119785714Y-173973866D01*
X119785714Y-173973866D02*
X119738095Y-174164342D01*
X119738095Y-174164342D02*
X119690476Y-174259580D01*
X119690476Y-174259580D02*
X119642857Y-174307200D01*
X119642857Y-174307200D02*
X119547619Y-174354819D01*
X119547619Y-174354819D02*
X119452381Y-174354819D01*
X119452381Y-174354819D02*
X119357143Y-174307200D01*
X119357143Y-174307200D02*
X119309524Y-174259580D01*
X119309524Y-174259580D02*
X119261905Y-174164342D01*
X119261905Y-174164342D02*
X119214286Y-173973866D01*
X119214286Y-173973866D02*
X119214286Y-173735771D01*
X119214286Y-173735771D02*
X119261905Y-173545295D01*
X119261905Y-173545295D02*
X119309524Y-173450057D01*
X119309524Y-173450057D02*
X119357143Y-173402438D01*
X119357143Y-173402438D02*
X119452381Y-173354819D01*
X117738095Y-159354819D02*
X117738095Y-158354819D01*
X117738095Y-158831009D02*
X118309523Y-158831009D01*
X118309523Y-159354819D02*
X118309523Y-158354819D01*
X118833333Y-159354819D02*
X119023809Y-159354819D01*
X119023809Y-159354819D02*
X119119047Y-159307200D01*
X119119047Y-159307200D02*
X119166666Y-159259580D01*
X119166666Y-159259580D02*
X119261904Y-159116723D01*
X119261904Y-159116723D02*
X119309523Y-158926247D01*
X119309523Y-158926247D02*
X119309523Y-158545295D01*
X119309523Y-158545295D02*
X119261904Y-158450057D01*
X119261904Y-158450057D02*
X119214285Y-158402438D01*
X119214285Y-158402438D02*
X119119047Y-158354819D01*
X119119047Y-158354819D02*
X118928571Y-158354819D01*
X118928571Y-158354819D02*
X118833333Y-158402438D01*
X118833333Y-158402438D02*
X118785714Y-158450057D01*
X118785714Y-158450057D02*
X118738095Y-158545295D01*
X118738095Y-158545295D02*
X118738095Y-158783390D01*
X118738095Y-158783390D02*
X118785714Y-158878628D01*
X118785714Y-158878628D02*
X118833333Y-158926247D01*
X118833333Y-158926247D02*
X118928571Y-158973866D01*
X118928571Y-158973866D02*
X119119047Y-158973866D01*
X119119047Y-158973866D02*
X119214285Y-158926247D01*
X119214285Y-158926247D02*
X119261904Y-158878628D01*
X119261904Y-158878628D02*
X119309523Y-158783390D01*
X117738095Y-144354819D02*
X117738095Y-143354819D01*
X117738095Y-143831009D02*
X118309523Y-143831009D01*
X118309523Y-144354819D02*
X118309523Y-143354819D01*
X118928571Y-143783390D02*
X118833333Y-143735771D01*
X118833333Y-143735771D02*
X118785714Y-143688152D01*
X118785714Y-143688152D02*
X118738095Y-143592914D01*
X118738095Y-143592914D02*
X118738095Y-143545295D01*
X118738095Y-143545295D02*
X118785714Y-143450057D01*
X118785714Y-143450057D02*
X118833333Y-143402438D01*
X118833333Y-143402438D02*
X118928571Y-143354819D01*
X118928571Y-143354819D02*
X119119047Y-143354819D01*
X119119047Y-143354819D02*
X119214285Y-143402438D01*
X119214285Y-143402438D02*
X119261904Y-143450057D01*
X119261904Y-143450057D02*
X119309523Y-143545295D01*
X119309523Y-143545295D02*
X119309523Y-143592914D01*
X119309523Y-143592914D02*
X119261904Y-143688152D01*
X119261904Y-143688152D02*
X119214285Y-143735771D01*
X119214285Y-143735771D02*
X119119047Y-143783390D01*
X119119047Y-143783390D02*
X118928571Y-143783390D01*
X118928571Y-143783390D02*
X118833333Y-143831009D01*
X118833333Y-143831009D02*
X118785714Y-143878628D01*
X118785714Y-143878628D02*
X118738095Y-143973866D01*
X118738095Y-143973866D02*
X118738095Y-144164342D01*
X118738095Y-144164342D02*
X118785714Y-144259580D01*
X118785714Y-144259580D02*
X118833333Y-144307200D01*
X118833333Y-144307200D02*
X118928571Y-144354819D01*
X118928571Y-144354819D02*
X119119047Y-144354819D01*
X119119047Y-144354819D02*
X119214285Y-144307200D01*
X119214285Y-144307200D02*
X119261904Y-144259580D01*
X119261904Y-144259580D02*
X119309523Y-144164342D01*
X119309523Y-144164342D02*
X119309523Y-143973866D01*
X119309523Y-143973866D02*
X119261904Y-143878628D01*
X119261904Y-143878628D02*
X119214285Y-143831009D01*
X119214285Y-143831009D02*
X119119047Y-143783390D01*
X117738095Y-129354819D02*
X117738095Y-128354819D01*
X117738095Y-128831009D02*
X118309523Y-128831009D01*
X118309523Y-129354819D02*
X118309523Y-128354819D01*
X118690476Y-128354819D02*
X119357142Y-128354819D01*
X119357142Y-128354819D02*
X118928571Y-129354819D01*
X117738095Y-114354819D02*
X117738095Y-113354819D01*
X117738095Y-113831009D02*
X118309523Y-113831009D01*
X118309523Y-114354819D02*
X118309523Y-113354819D01*
X119214285Y-113354819D02*
X119023809Y-113354819D01*
X119023809Y-113354819D02*
X118928571Y-113402438D01*
X118928571Y-113402438D02*
X118880952Y-113450057D01*
X118880952Y-113450057D02*
X118785714Y-113592914D01*
X118785714Y-113592914D02*
X118738095Y-113783390D01*
X118738095Y-113783390D02*
X118738095Y-114164342D01*
X118738095Y-114164342D02*
X118785714Y-114259580D01*
X118785714Y-114259580D02*
X118833333Y-114307200D01*
X118833333Y-114307200D02*
X118928571Y-114354819D01*
X118928571Y-114354819D02*
X119119047Y-114354819D01*
X119119047Y-114354819D02*
X119214285Y-114307200D01*
X119214285Y-114307200D02*
X119261904Y-114259580D01*
X119261904Y-114259580D02*
X119309523Y-114164342D01*
X119309523Y-114164342D02*
X119309523Y-113926247D01*
X119309523Y-113926247D02*
X119261904Y-113831009D01*
X119261904Y-113831009D02*
X119214285Y-113783390D01*
X119214285Y-113783390D02*
X119119047Y-113735771D01*
X119119047Y-113735771D02*
X118928571Y-113735771D01*
X118928571Y-113735771D02*
X118833333Y-113783390D01*
X118833333Y-113783390D02*
X118785714Y-113831009D01*
X118785714Y-113831009D02*
X118738095Y-113926247D01*
X117738095Y-99354819D02*
X117738095Y-98354819D01*
X117738095Y-98831009D02*
X118309523Y-98831009D01*
X118309523Y-99354819D02*
X118309523Y-98354819D01*
X119261904Y-98354819D02*
X118785714Y-98354819D01*
X118785714Y-98354819D02*
X118738095Y-98831009D01*
X118738095Y-98831009D02*
X118785714Y-98783390D01*
X118785714Y-98783390D02*
X118880952Y-98735771D01*
X118880952Y-98735771D02*
X119119047Y-98735771D01*
X119119047Y-98735771D02*
X119214285Y-98783390D01*
X119214285Y-98783390D02*
X119261904Y-98831009D01*
X119261904Y-98831009D02*
X119309523Y-98926247D01*
X119309523Y-98926247D02*
X119309523Y-99164342D01*
X119309523Y-99164342D02*
X119261904Y-99259580D01*
X119261904Y-99259580D02*
X119214285Y-99307200D01*
X119214285Y-99307200D02*
X119119047Y-99354819D01*
X119119047Y-99354819D02*
X118880952Y-99354819D01*
X118880952Y-99354819D02*
X118785714Y-99307200D01*
X118785714Y-99307200D02*
X118738095Y-99259580D01*
X117738095Y-84354819D02*
X117738095Y-83354819D01*
X117738095Y-83831009D02*
X118309523Y-83831009D01*
X118309523Y-84354819D02*
X118309523Y-83354819D01*
X119214285Y-83688152D02*
X119214285Y-84354819D01*
X118976190Y-83307200D02*
X118738095Y-84021485D01*
X118738095Y-84021485D02*
X119357142Y-84021485D01*
X117738095Y-69354819D02*
X117738095Y-68354819D01*
X117738095Y-68831009D02*
X118309523Y-68831009D01*
X118309523Y-69354819D02*
X118309523Y-68354819D01*
X118690476Y-68354819D02*
X119309523Y-68354819D01*
X119309523Y-68354819D02*
X118976190Y-68735771D01*
X118976190Y-68735771D02*
X119119047Y-68735771D01*
X119119047Y-68735771D02*
X119214285Y-68783390D01*
X119214285Y-68783390D02*
X119261904Y-68831009D01*
X119261904Y-68831009D02*
X119309523Y-68926247D01*
X119309523Y-68926247D02*
X119309523Y-69164342D01*
X119309523Y-69164342D02*
X119261904Y-69259580D01*
X119261904Y-69259580D02*
X119214285Y-69307200D01*
X119214285Y-69307200D02*
X119119047Y-69354819D01*
X119119047Y-69354819D02*
X118833333Y-69354819D01*
X118833333Y-69354819D02*
X118738095Y-69307200D01*
X118738095Y-69307200D02*
X118690476Y-69259580D01*
X117738095Y-54354819D02*
X117738095Y-53354819D01*
X117738095Y-53831009D02*
X118309523Y-53831009D01*
X118309523Y-54354819D02*
X118309523Y-53354819D01*
X118738095Y-53450057D02*
X118785714Y-53402438D01*
X118785714Y-53402438D02*
X118880952Y-53354819D01*
X118880952Y-53354819D02*
X119119047Y-53354819D01*
X119119047Y-53354819D02*
X119214285Y-53402438D01*
X119214285Y-53402438D02*
X119261904Y-53450057D01*
X119261904Y-53450057D02*
X119309523Y-53545295D01*
X119309523Y-53545295D02*
X119309523Y-53640533D01*
X119309523Y-53640533D02*
X119261904Y-53783390D01*
X119261904Y-53783390D02*
X118690476Y-54354819D01*
X118690476Y-54354819D02*
X119309523Y-54354819D01*
X117738095Y-39354819D02*
X117738095Y-38354819D01*
X117738095Y-38831009D02*
X118309523Y-38831009D01*
X118309523Y-39354819D02*
X118309523Y-38354819D01*
X119309523Y-39354819D02*
X118738095Y-39354819D01*
X119023809Y-39354819D02*
X119023809Y-38354819D01*
X119023809Y-38354819D02*
X118928571Y-38497676D01*
X118928571Y-38497676D02*
X118833333Y-38592914D01*
X118833333Y-38592914D02*
X118738095Y-38640533D01*
M02*
