%TF.GenerationSoftware,KiCad,Pcbnew,9.0.7*%
%TF.CreationDate,2026-04-01T15:32:21-05:00*%
%TF.ProjectId,BsidesDSM26,42736964-6573-4445-934d-32362e6b6963,rev?*%
%TF.SameCoordinates,Original*%
%TF.FileFunction,Legend,Top*%
%TF.FilePolarity,Positive*%
%FSLAX46Y46*%
G04 Gerber Fmt 4.6, Leading zero omitted, Abs format (unit mm)*
G04 Created by KiCad (PCBNEW 9.0.7) date 2026-04-01 15:32:21*
%MOMM*%
%LPD*%
G01*
G04 APERTURE LIST*
%ADD10C,0.150000*%
%ADD11C,0.000000*%
%ADD12C,0.120000*%
G04 APERTURE END LIST*
D10*
X136766666Y-125134819D02*
X136766666Y-125849104D01*
X136766666Y-125849104D02*
X136719047Y-125991961D01*
X136719047Y-125991961D02*
X136623809Y-126087200D01*
X136623809Y-126087200D02*
X136480952Y-126134819D01*
X136480952Y-126134819D02*
X136385714Y-126134819D01*
X137147619Y-125134819D02*
X137814285Y-125134819D01*
X137814285Y-125134819D02*
X137385714Y-126134819D01*
X147166666Y-109094819D02*
X147166666Y-109809104D01*
X147166666Y-109809104D02*
X147119047Y-109951961D01*
X147119047Y-109951961D02*
X147023809Y-110047200D01*
X147023809Y-110047200D02*
X146880952Y-110094819D01*
X146880952Y-110094819D02*
X146785714Y-110094819D01*
X148119047Y-109094819D02*
X147642857Y-109094819D01*
X147642857Y-109094819D02*
X147595238Y-109571009D01*
X147595238Y-109571009D02*
X147642857Y-109523390D01*
X147642857Y-109523390D02*
X147738095Y-109475771D01*
X147738095Y-109475771D02*
X147976190Y-109475771D01*
X147976190Y-109475771D02*
X148071428Y-109523390D01*
X148071428Y-109523390D02*
X148119047Y-109571009D01*
X148119047Y-109571009D02*
X148166666Y-109666247D01*
X148166666Y-109666247D02*
X148166666Y-109904342D01*
X148166666Y-109904342D02*
X148119047Y-109999580D01*
X148119047Y-109999580D02*
X148071428Y-110047200D01*
X148071428Y-110047200D02*
X147976190Y-110094819D01*
X147976190Y-110094819D02*
X147738095Y-110094819D01*
X147738095Y-110094819D02*
X147642857Y-110047200D01*
X147642857Y-110047200D02*
X147595238Y-109999580D01*
X148066666Y-116564819D02*
X148066666Y-117279104D01*
X148066666Y-117279104D02*
X148019047Y-117421961D01*
X148019047Y-117421961D02*
X147923809Y-117517200D01*
X147923809Y-117517200D02*
X147780952Y-117564819D01*
X147780952Y-117564819D02*
X147685714Y-117564819D01*
X148971428Y-116898152D02*
X148971428Y-117564819D01*
X148733333Y-116517200D02*
X148495238Y-117231485D01*
X148495238Y-117231485D02*
X149114285Y-117231485D01*
X166416666Y-108564819D02*
X166416666Y-109279104D01*
X166416666Y-109279104D02*
X166369047Y-109421961D01*
X166369047Y-109421961D02*
X166273809Y-109517200D01*
X166273809Y-109517200D02*
X166130952Y-109564819D01*
X166130952Y-109564819D02*
X166035714Y-109564819D01*
X166797619Y-108564819D02*
X167416666Y-108564819D01*
X167416666Y-108564819D02*
X167083333Y-108945771D01*
X167083333Y-108945771D02*
X167226190Y-108945771D01*
X167226190Y-108945771D02*
X167321428Y-108993390D01*
X167321428Y-108993390D02*
X167369047Y-109041009D01*
X167369047Y-109041009D02*
X167416666Y-109136247D01*
X167416666Y-109136247D02*
X167416666Y-109374342D01*
X167416666Y-109374342D02*
X167369047Y-109469580D01*
X167369047Y-109469580D02*
X167321428Y-109517200D01*
X167321428Y-109517200D02*
X167226190Y-109564819D01*
X167226190Y-109564819D02*
X166940476Y-109564819D01*
X166940476Y-109564819D02*
X166845238Y-109517200D01*
X166845238Y-109517200D02*
X166797619Y-109469580D01*
X166416667Y-114407200D02*
X166559524Y-114454819D01*
X166559524Y-114454819D02*
X166797619Y-114454819D01*
X166797619Y-114454819D02*
X166892857Y-114407200D01*
X166892857Y-114407200D02*
X166940476Y-114359580D01*
X166940476Y-114359580D02*
X166988095Y-114264342D01*
X166988095Y-114264342D02*
X166988095Y-114169104D01*
X166988095Y-114169104D02*
X166940476Y-114073866D01*
X166940476Y-114073866D02*
X166892857Y-114026247D01*
X166892857Y-114026247D02*
X166797619Y-113978628D01*
X166797619Y-113978628D02*
X166607143Y-113931009D01*
X166607143Y-113931009D02*
X166511905Y-113883390D01*
X166511905Y-113883390D02*
X166464286Y-113835771D01*
X166464286Y-113835771D02*
X166416667Y-113740533D01*
X166416667Y-113740533D02*
X166416667Y-113645295D01*
X166416667Y-113645295D02*
X166464286Y-113550057D01*
X166464286Y-113550057D02*
X166511905Y-113502438D01*
X166511905Y-113502438D02*
X166607143Y-113454819D01*
X166607143Y-113454819D02*
X166845238Y-113454819D01*
X166845238Y-113454819D02*
X166988095Y-113502438D01*
X167321429Y-113454819D02*
X167559524Y-114454819D01*
X167559524Y-114454819D02*
X167750000Y-113740533D01*
X167750000Y-113740533D02*
X167940476Y-114454819D01*
X167940476Y-114454819D02*
X168178572Y-113454819D01*
X168464286Y-113454819D02*
X169083333Y-113454819D01*
X169083333Y-113454819D02*
X168750000Y-113835771D01*
X168750000Y-113835771D02*
X168892857Y-113835771D01*
X168892857Y-113835771D02*
X168988095Y-113883390D01*
X168988095Y-113883390D02*
X169035714Y-113931009D01*
X169035714Y-113931009D02*
X169083333Y-114026247D01*
X169083333Y-114026247D02*
X169083333Y-114264342D01*
X169083333Y-114264342D02*
X169035714Y-114359580D01*
X169035714Y-114359580D02*
X168988095Y-114407200D01*
X168988095Y-114407200D02*
X168892857Y-114454819D01*
X168892857Y-114454819D02*
X168607143Y-114454819D01*
X168607143Y-114454819D02*
X168511905Y-114407200D01*
X168511905Y-114407200D02*
X168464286Y-114359580D01*
X145964285Y-131101009D02*
X146107142Y-131148628D01*
X146107142Y-131148628D02*
X146154761Y-131196247D01*
X146154761Y-131196247D02*
X146202380Y-131291485D01*
X146202380Y-131291485D02*
X146202380Y-131434342D01*
X146202380Y-131434342D02*
X146154761Y-131529580D01*
X146154761Y-131529580D02*
X146107142Y-131577200D01*
X146107142Y-131577200D02*
X146011904Y-131624819D01*
X146011904Y-131624819D02*
X145630952Y-131624819D01*
X145630952Y-131624819D02*
X145630952Y-130624819D01*
X145630952Y-130624819D02*
X145964285Y-130624819D01*
X145964285Y-130624819D02*
X146059523Y-130672438D01*
X146059523Y-130672438D02*
X146107142Y-130720057D01*
X146107142Y-130720057D02*
X146154761Y-130815295D01*
X146154761Y-130815295D02*
X146154761Y-130910533D01*
X146154761Y-130910533D02*
X146107142Y-131005771D01*
X146107142Y-131005771D02*
X146059523Y-131053390D01*
X146059523Y-131053390D02*
X145964285Y-131101009D01*
X145964285Y-131101009D02*
X145630952Y-131101009D01*
X146488095Y-130624819D02*
X147059523Y-130624819D01*
X146773809Y-131624819D02*
X146773809Y-130624819D01*
X147916666Y-131624819D02*
X147345238Y-131624819D01*
X147630952Y-131624819D02*
X147630952Y-130624819D01*
X147630952Y-130624819D02*
X147535714Y-130767676D01*
X147535714Y-130767676D02*
X147440476Y-130862914D01*
X147440476Y-130862914D02*
X147345238Y-130910533D01*
X125109580Y-129392857D02*
X125157200Y-129440476D01*
X125157200Y-129440476D02*
X125204819Y-129583333D01*
X125204819Y-129583333D02*
X125204819Y-129678571D01*
X125204819Y-129678571D02*
X125157200Y-129821428D01*
X125157200Y-129821428D02*
X125061961Y-129916666D01*
X125061961Y-129916666D02*
X124966723Y-129964285D01*
X124966723Y-129964285D02*
X124776247Y-130011904D01*
X124776247Y-130011904D02*
X124633390Y-130011904D01*
X124633390Y-130011904D02*
X124442914Y-129964285D01*
X124442914Y-129964285D02*
X124347676Y-129916666D01*
X124347676Y-129916666D02*
X124252438Y-129821428D01*
X124252438Y-129821428D02*
X124204819Y-129678571D01*
X124204819Y-129678571D02*
X124204819Y-129583333D01*
X124204819Y-129583333D02*
X124252438Y-129440476D01*
X124252438Y-129440476D02*
X124300057Y-129392857D01*
X124300057Y-129011904D02*
X124252438Y-128964285D01*
X124252438Y-128964285D02*
X124204819Y-128869047D01*
X124204819Y-128869047D02*
X124204819Y-128630952D01*
X124204819Y-128630952D02*
X124252438Y-128535714D01*
X124252438Y-128535714D02*
X124300057Y-128488095D01*
X124300057Y-128488095D02*
X124395295Y-128440476D01*
X124395295Y-128440476D02*
X124490533Y-128440476D01*
X124490533Y-128440476D02*
X124633390Y-128488095D01*
X124633390Y-128488095D02*
X125204819Y-129059523D01*
X125204819Y-129059523D02*
X125204819Y-128440476D01*
X124538152Y-127583333D02*
X125204819Y-127583333D01*
X124157200Y-127821428D02*
X124871485Y-128059523D01*
X124871485Y-128059523D02*
X124871485Y-127440476D01*
X137859580Y-133142857D02*
X137907200Y-133190476D01*
X137907200Y-133190476D02*
X137954819Y-133333333D01*
X137954819Y-133333333D02*
X137954819Y-133428571D01*
X137954819Y-133428571D02*
X137907200Y-133571428D01*
X137907200Y-133571428D02*
X137811961Y-133666666D01*
X137811961Y-133666666D02*
X137716723Y-133714285D01*
X137716723Y-133714285D02*
X137526247Y-133761904D01*
X137526247Y-133761904D02*
X137383390Y-133761904D01*
X137383390Y-133761904D02*
X137192914Y-133714285D01*
X137192914Y-133714285D02*
X137097676Y-133666666D01*
X137097676Y-133666666D02*
X137002438Y-133571428D01*
X137002438Y-133571428D02*
X136954819Y-133428571D01*
X136954819Y-133428571D02*
X136954819Y-133333333D01*
X136954819Y-133333333D02*
X137002438Y-133190476D01*
X137002438Y-133190476D02*
X137050057Y-133142857D01*
X137050057Y-132761904D02*
X137002438Y-132714285D01*
X137002438Y-132714285D02*
X136954819Y-132619047D01*
X136954819Y-132619047D02*
X136954819Y-132380952D01*
X136954819Y-132380952D02*
X137002438Y-132285714D01*
X137002438Y-132285714D02*
X137050057Y-132238095D01*
X137050057Y-132238095D02*
X137145295Y-132190476D01*
X137145295Y-132190476D02*
X137240533Y-132190476D01*
X137240533Y-132190476D02*
X137383390Y-132238095D01*
X137383390Y-132238095D02*
X137954819Y-132809523D01*
X137954819Y-132809523D02*
X137954819Y-132190476D01*
X136954819Y-131857142D02*
X136954819Y-131238095D01*
X136954819Y-131238095D02*
X137335771Y-131571428D01*
X137335771Y-131571428D02*
X137335771Y-131428571D01*
X137335771Y-131428571D02*
X137383390Y-131333333D01*
X137383390Y-131333333D02*
X137431009Y-131285714D01*
X137431009Y-131285714D02*
X137526247Y-131238095D01*
X137526247Y-131238095D02*
X137764342Y-131238095D01*
X137764342Y-131238095D02*
X137859580Y-131285714D01*
X137859580Y-131285714D02*
X137907200Y-131333333D01*
X137907200Y-131333333D02*
X137954819Y-131428571D01*
X137954819Y-131428571D02*
X137954819Y-131714285D01*
X137954819Y-131714285D02*
X137907200Y-131809523D01*
X137907200Y-131809523D02*
X137859580Y-131857142D01*
X127454819Y-126761904D02*
X128264342Y-126761904D01*
X128264342Y-126761904D02*
X128359580Y-126714285D01*
X128359580Y-126714285D02*
X128407200Y-126666666D01*
X128407200Y-126666666D02*
X128454819Y-126571428D01*
X128454819Y-126571428D02*
X128454819Y-126380952D01*
X128454819Y-126380952D02*
X128407200Y-126285714D01*
X128407200Y-126285714D02*
X128359580Y-126238095D01*
X128359580Y-126238095D02*
X128264342Y-126190476D01*
X128264342Y-126190476D02*
X127454819Y-126190476D01*
X127454819Y-125285714D02*
X127454819Y-125476190D01*
X127454819Y-125476190D02*
X127502438Y-125571428D01*
X127502438Y-125571428D02*
X127550057Y-125619047D01*
X127550057Y-125619047D02*
X127692914Y-125714285D01*
X127692914Y-125714285D02*
X127883390Y-125761904D01*
X127883390Y-125761904D02*
X128264342Y-125761904D01*
X128264342Y-125761904D02*
X128359580Y-125714285D01*
X128359580Y-125714285D02*
X128407200Y-125666666D01*
X128407200Y-125666666D02*
X128454819Y-125571428D01*
X128454819Y-125571428D02*
X128454819Y-125380952D01*
X128454819Y-125380952D02*
X128407200Y-125285714D01*
X128407200Y-125285714D02*
X128359580Y-125238095D01*
X128359580Y-125238095D02*
X128264342Y-125190476D01*
X128264342Y-125190476D02*
X128026247Y-125190476D01*
X128026247Y-125190476D02*
X127931009Y-125238095D01*
X127931009Y-125238095D02*
X127883390Y-125285714D01*
X127883390Y-125285714D02*
X127835771Y-125380952D01*
X127835771Y-125380952D02*
X127835771Y-125571428D01*
X127835771Y-125571428D02*
X127883390Y-125666666D01*
X127883390Y-125666666D02*
X127931009Y-125714285D01*
X127931009Y-125714285D02*
X128026247Y-125761904D01*
X172954819Y-107590476D02*
X172478628Y-107923809D01*
X172954819Y-108161904D02*
X171954819Y-108161904D01*
X171954819Y-108161904D02*
X171954819Y-107780952D01*
X171954819Y-107780952D02*
X172002438Y-107685714D01*
X172002438Y-107685714D02*
X172050057Y-107638095D01*
X172050057Y-107638095D02*
X172145295Y-107590476D01*
X172145295Y-107590476D02*
X172288152Y-107590476D01*
X172288152Y-107590476D02*
X172383390Y-107638095D01*
X172383390Y-107638095D02*
X172431009Y-107685714D01*
X172431009Y-107685714D02*
X172478628Y-107780952D01*
X172478628Y-107780952D02*
X172478628Y-108161904D01*
X172954819Y-107161904D02*
X171954819Y-107161904D01*
X171954819Y-107161904D02*
X172954819Y-106590476D01*
X172954819Y-106590476D02*
X171954819Y-106590476D01*
X171954819Y-106209523D02*
X171954819Y-105590476D01*
X171954819Y-105590476D02*
X172335771Y-105923809D01*
X172335771Y-105923809D02*
X172335771Y-105780952D01*
X172335771Y-105780952D02*
X172383390Y-105685714D01*
X172383390Y-105685714D02*
X172431009Y-105638095D01*
X172431009Y-105638095D02*
X172526247Y-105590476D01*
X172526247Y-105590476D02*
X172764342Y-105590476D01*
X172764342Y-105590476D02*
X172859580Y-105638095D01*
X172859580Y-105638095D02*
X172907200Y-105685714D01*
X172907200Y-105685714D02*
X172954819Y-105780952D01*
X172954819Y-105780952D02*
X172954819Y-106066666D01*
X172954819Y-106066666D02*
X172907200Y-106161904D01*
X172907200Y-106161904D02*
X172859580Y-106209523D01*
X167869047Y-119681009D02*
X168011904Y-119728628D01*
X168011904Y-119728628D02*
X168059523Y-119776247D01*
X168059523Y-119776247D02*
X168107142Y-119871485D01*
X168107142Y-119871485D02*
X168107142Y-120014342D01*
X168107142Y-120014342D02*
X168059523Y-120109580D01*
X168059523Y-120109580D02*
X168011904Y-120157200D01*
X168011904Y-120157200D02*
X167916666Y-120204819D01*
X167916666Y-120204819D02*
X167535714Y-120204819D01*
X167535714Y-120204819D02*
X167535714Y-119204819D01*
X167535714Y-119204819D02*
X167869047Y-119204819D01*
X167869047Y-119204819D02*
X167964285Y-119252438D01*
X167964285Y-119252438D02*
X168011904Y-119300057D01*
X168011904Y-119300057D02*
X168059523Y-119395295D01*
X168059523Y-119395295D02*
X168059523Y-119490533D01*
X168059523Y-119490533D02*
X168011904Y-119585771D01*
X168011904Y-119585771D02*
X167964285Y-119633390D01*
X167964285Y-119633390D02*
X167869047Y-119681009D01*
X167869047Y-119681009D02*
X167535714Y-119681009D01*
X168440476Y-119204819D02*
X169107142Y-119204819D01*
X169107142Y-119204819D02*
X168440476Y-120204819D01*
X168440476Y-120204819D02*
X169107142Y-120204819D01*
X170011904Y-120204819D02*
X169440476Y-120204819D01*
X169726190Y-120204819D02*
X169726190Y-119204819D01*
X169726190Y-119204819D02*
X169630952Y-119347676D01*
X169630952Y-119347676D02*
X169535714Y-119442914D01*
X169535714Y-119442914D02*
X169440476Y-119490533D01*
X158683333Y-139879104D02*
X159159523Y-139879104D01*
X158588095Y-140164819D02*
X158921428Y-139164819D01*
X158921428Y-139164819D02*
X159254761Y-140164819D01*
X159588095Y-139641009D02*
X159921428Y-139641009D01*
X160064285Y-140164819D02*
X159588095Y-140164819D01*
X159588095Y-140164819D02*
X159588095Y-139164819D01*
X159588095Y-139164819D02*
X160064285Y-139164819D01*
X160445238Y-139260057D02*
X160492857Y-139212438D01*
X160492857Y-139212438D02*
X160588095Y-139164819D01*
X160588095Y-139164819D02*
X160826190Y-139164819D01*
X160826190Y-139164819D02*
X160921428Y-139212438D01*
X160921428Y-139212438D02*
X160969047Y-139260057D01*
X160969047Y-139260057D02*
X161016666Y-139355295D01*
X161016666Y-139355295D02*
X161016666Y-139450533D01*
X161016666Y-139450533D02*
X160969047Y-139593390D01*
X160969047Y-139593390D02*
X160397619Y-140164819D01*
X160397619Y-140164819D02*
X161016666Y-140164819D01*
X152488095Y-117329819D02*
X152488095Y-118139342D01*
X152488095Y-118139342D02*
X152535714Y-118234580D01*
X152535714Y-118234580D02*
X152583333Y-118282200D01*
X152583333Y-118282200D02*
X152678571Y-118329819D01*
X152678571Y-118329819D02*
X152869047Y-118329819D01*
X152869047Y-118329819D02*
X152964285Y-118282200D01*
X152964285Y-118282200D02*
X153011904Y-118234580D01*
X153011904Y-118234580D02*
X153059523Y-118139342D01*
X153059523Y-118139342D02*
X153059523Y-117329819D01*
X154011904Y-117329819D02*
X153535714Y-117329819D01*
X153535714Y-117329819D02*
X153488095Y-117806009D01*
X153488095Y-117806009D02*
X153535714Y-117758390D01*
X153535714Y-117758390D02*
X153630952Y-117710771D01*
X153630952Y-117710771D02*
X153869047Y-117710771D01*
X153869047Y-117710771D02*
X153964285Y-117758390D01*
X153964285Y-117758390D02*
X154011904Y-117806009D01*
X154011904Y-117806009D02*
X154059523Y-117901247D01*
X154059523Y-117901247D02*
X154059523Y-118139342D01*
X154059523Y-118139342D02*
X154011904Y-118234580D01*
X154011904Y-118234580D02*
X153964285Y-118282200D01*
X153964285Y-118282200D02*
X153869047Y-118329819D01*
X153869047Y-118329819D02*
X153630952Y-118329819D01*
X153630952Y-118329819D02*
X153535714Y-118282200D01*
X153535714Y-118282200D02*
X153488095Y-118234580D01*
X174859104Y-79741666D02*
X174859104Y-79265476D01*
X175144819Y-79836904D02*
X174144819Y-79503571D01*
X174144819Y-79503571D02*
X175144819Y-79170238D01*
X174621009Y-78836904D02*
X174621009Y-78503571D01*
X175144819Y-78360714D02*
X175144819Y-78836904D01*
X175144819Y-78836904D02*
X174144819Y-78836904D01*
X174144819Y-78836904D02*
X174144819Y-78360714D01*
X175144819Y-77408333D02*
X175144819Y-77979761D01*
X175144819Y-77694047D02*
X174144819Y-77694047D01*
X174144819Y-77694047D02*
X174287676Y-77789285D01*
X174287676Y-77789285D02*
X174382914Y-77884523D01*
X174382914Y-77884523D02*
X174430533Y-77979761D01*
X141607142Y-103859580D02*
X141559523Y-103907200D01*
X141559523Y-103907200D02*
X141416666Y-103954819D01*
X141416666Y-103954819D02*
X141321428Y-103954819D01*
X141321428Y-103954819D02*
X141178571Y-103907200D01*
X141178571Y-103907200D02*
X141083333Y-103811961D01*
X141083333Y-103811961D02*
X141035714Y-103716723D01*
X141035714Y-103716723D02*
X140988095Y-103526247D01*
X140988095Y-103526247D02*
X140988095Y-103383390D01*
X140988095Y-103383390D02*
X141035714Y-103192914D01*
X141035714Y-103192914D02*
X141083333Y-103097676D01*
X141083333Y-103097676D02*
X141178571Y-103002438D01*
X141178571Y-103002438D02*
X141321428Y-102954819D01*
X141321428Y-102954819D02*
X141416666Y-102954819D01*
X141416666Y-102954819D02*
X141559523Y-103002438D01*
X141559523Y-103002438D02*
X141607142Y-103050057D01*
X142559523Y-103954819D02*
X141988095Y-103954819D01*
X142273809Y-103954819D02*
X142273809Y-102954819D01*
X142273809Y-102954819D02*
X142178571Y-103097676D01*
X142178571Y-103097676D02*
X142083333Y-103192914D01*
X142083333Y-103192914D02*
X141988095Y-103240533D01*
X143178571Y-102954819D02*
X143273809Y-102954819D01*
X143273809Y-102954819D02*
X143369047Y-103002438D01*
X143369047Y-103002438D02*
X143416666Y-103050057D01*
X143416666Y-103050057D02*
X143464285Y-103145295D01*
X143464285Y-103145295D02*
X143511904Y-103335771D01*
X143511904Y-103335771D02*
X143511904Y-103573866D01*
X143511904Y-103573866D02*
X143464285Y-103764342D01*
X143464285Y-103764342D02*
X143416666Y-103859580D01*
X143416666Y-103859580D02*
X143369047Y-103907200D01*
X143369047Y-103907200D02*
X143273809Y-103954819D01*
X143273809Y-103954819D02*
X143178571Y-103954819D01*
X143178571Y-103954819D02*
X143083333Y-103907200D01*
X143083333Y-103907200D02*
X143035714Y-103859580D01*
X143035714Y-103859580D02*
X142988095Y-103764342D01*
X142988095Y-103764342D02*
X142940476Y-103573866D01*
X142940476Y-103573866D02*
X142940476Y-103335771D01*
X142940476Y-103335771D02*
X142988095Y-103145295D01*
X142988095Y-103145295D02*
X143035714Y-103050057D01*
X143035714Y-103050057D02*
X143083333Y-103002438D01*
X143083333Y-103002438D02*
X143178571Y-102954819D01*
X156633333Y-104809580D02*
X156585714Y-104857200D01*
X156585714Y-104857200D02*
X156442857Y-104904819D01*
X156442857Y-104904819D02*
X156347619Y-104904819D01*
X156347619Y-104904819D02*
X156204762Y-104857200D01*
X156204762Y-104857200D02*
X156109524Y-104761961D01*
X156109524Y-104761961D02*
X156061905Y-104666723D01*
X156061905Y-104666723D02*
X156014286Y-104476247D01*
X156014286Y-104476247D02*
X156014286Y-104333390D01*
X156014286Y-104333390D02*
X156061905Y-104142914D01*
X156061905Y-104142914D02*
X156109524Y-104047676D01*
X156109524Y-104047676D02*
X156204762Y-103952438D01*
X156204762Y-103952438D02*
X156347619Y-103904819D01*
X156347619Y-103904819D02*
X156442857Y-103904819D01*
X156442857Y-103904819D02*
X156585714Y-103952438D01*
X156585714Y-103952438D02*
X156633333Y-104000057D01*
X157538095Y-103904819D02*
X157061905Y-103904819D01*
X157061905Y-103904819D02*
X157014286Y-104381009D01*
X157014286Y-104381009D02*
X157061905Y-104333390D01*
X157061905Y-104333390D02*
X157157143Y-104285771D01*
X157157143Y-104285771D02*
X157395238Y-104285771D01*
X157395238Y-104285771D02*
X157490476Y-104333390D01*
X157490476Y-104333390D02*
X157538095Y-104381009D01*
X157538095Y-104381009D02*
X157585714Y-104476247D01*
X157585714Y-104476247D02*
X157585714Y-104714342D01*
X157585714Y-104714342D02*
X157538095Y-104809580D01*
X157538095Y-104809580D02*
X157490476Y-104857200D01*
X157490476Y-104857200D02*
X157395238Y-104904819D01*
X157395238Y-104904819D02*
X157157143Y-104904819D01*
X157157143Y-104904819D02*
X157061905Y-104857200D01*
X157061905Y-104857200D02*
X157014286Y-104809580D01*
X141400057Y-128282738D02*
X141352438Y-128377976D01*
X141352438Y-128377976D02*
X141257200Y-128473214D01*
X141257200Y-128473214D02*
X141114342Y-128616071D01*
X141114342Y-128616071D02*
X141066723Y-128711309D01*
X141066723Y-128711309D02*
X141066723Y-128806547D01*
X141304819Y-128758928D02*
X141257200Y-128854166D01*
X141257200Y-128854166D02*
X141161961Y-128949404D01*
X141161961Y-128949404D02*
X140971485Y-128997023D01*
X140971485Y-128997023D02*
X140638152Y-128997023D01*
X140638152Y-128997023D02*
X140447676Y-128949404D01*
X140447676Y-128949404D02*
X140352438Y-128854166D01*
X140352438Y-128854166D02*
X140304819Y-128758928D01*
X140304819Y-128758928D02*
X140304819Y-128568452D01*
X140304819Y-128568452D02*
X140352438Y-128473214D01*
X140352438Y-128473214D02*
X140447676Y-128377976D01*
X140447676Y-128377976D02*
X140638152Y-128330357D01*
X140638152Y-128330357D02*
X140971485Y-128330357D01*
X140971485Y-128330357D02*
X141161961Y-128377976D01*
X141161961Y-128377976D02*
X141257200Y-128473214D01*
X141257200Y-128473214D02*
X141304819Y-128568452D01*
X141304819Y-128568452D02*
X141304819Y-128758928D01*
X141304819Y-127377976D02*
X141304819Y-127949404D01*
X141304819Y-127663690D02*
X140304819Y-127663690D01*
X140304819Y-127663690D02*
X140447676Y-127758928D01*
X140447676Y-127758928D02*
X140542914Y-127854166D01*
X140542914Y-127854166D02*
X140590533Y-127949404D01*
X145557142Y-100009580D02*
X145509523Y-100057200D01*
X145509523Y-100057200D02*
X145366666Y-100104819D01*
X145366666Y-100104819D02*
X145271428Y-100104819D01*
X145271428Y-100104819D02*
X145128571Y-100057200D01*
X145128571Y-100057200D02*
X145033333Y-99961961D01*
X145033333Y-99961961D02*
X144985714Y-99866723D01*
X144985714Y-99866723D02*
X144938095Y-99676247D01*
X144938095Y-99676247D02*
X144938095Y-99533390D01*
X144938095Y-99533390D02*
X144985714Y-99342914D01*
X144985714Y-99342914D02*
X145033333Y-99247676D01*
X145033333Y-99247676D02*
X145128571Y-99152438D01*
X145128571Y-99152438D02*
X145271428Y-99104819D01*
X145271428Y-99104819D02*
X145366666Y-99104819D01*
X145366666Y-99104819D02*
X145509523Y-99152438D01*
X145509523Y-99152438D02*
X145557142Y-99200057D01*
X146509523Y-100104819D02*
X145938095Y-100104819D01*
X146223809Y-100104819D02*
X146223809Y-99104819D01*
X146223809Y-99104819D02*
X146128571Y-99247676D01*
X146128571Y-99247676D02*
X146033333Y-99342914D01*
X146033333Y-99342914D02*
X145938095Y-99390533D01*
X146890476Y-99200057D02*
X146938095Y-99152438D01*
X146938095Y-99152438D02*
X147033333Y-99104819D01*
X147033333Y-99104819D02*
X147271428Y-99104819D01*
X147271428Y-99104819D02*
X147366666Y-99152438D01*
X147366666Y-99152438D02*
X147414285Y-99200057D01*
X147414285Y-99200057D02*
X147461904Y-99295295D01*
X147461904Y-99295295D02*
X147461904Y-99390533D01*
X147461904Y-99390533D02*
X147414285Y-99533390D01*
X147414285Y-99533390D02*
X146842857Y-100104819D01*
X146842857Y-100104819D02*
X147461904Y-100104819D01*
X182511905Y-97760599D02*
X182511905Y-96760599D01*
X182511905Y-96760599D02*
X182750000Y-96760599D01*
X182750000Y-96760599D02*
X182892857Y-96808218D01*
X182892857Y-96808218D02*
X182988095Y-96903456D01*
X182988095Y-96903456D02*
X183035714Y-96998694D01*
X183035714Y-96998694D02*
X183083333Y-97189170D01*
X183083333Y-97189170D02*
X183083333Y-97332027D01*
X183083333Y-97332027D02*
X183035714Y-97522503D01*
X183035714Y-97522503D02*
X182988095Y-97617741D01*
X182988095Y-97617741D02*
X182892857Y-97712980D01*
X182892857Y-97712980D02*
X182750000Y-97760599D01*
X182750000Y-97760599D02*
X182511905Y-97760599D01*
X183940476Y-97093932D02*
X183940476Y-97760599D01*
X183702381Y-96712980D02*
X183464286Y-97427265D01*
X183464286Y-97427265D02*
X184083333Y-97427265D01*
X158607142Y-120359580D02*
X158559523Y-120407200D01*
X158559523Y-120407200D02*
X158416666Y-120454819D01*
X158416666Y-120454819D02*
X158321428Y-120454819D01*
X158321428Y-120454819D02*
X158178571Y-120407200D01*
X158178571Y-120407200D02*
X158083333Y-120311961D01*
X158083333Y-120311961D02*
X158035714Y-120216723D01*
X158035714Y-120216723D02*
X157988095Y-120026247D01*
X157988095Y-120026247D02*
X157988095Y-119883390D01*
X157988095Y-119883390D02*
X158035714Y-119692914D01*
X158035714Y-119692914D02*
X158083333Y-119597676D01*
X158083333Y-119597676D02*
X158178571Y-119502438D01*
X158178571Y-119502438D02*
X158321428Y-119454819D01*
X158321428Y-119454819D02*
X158416666Y-119454819D01*
X158416666Y-119454819D02*
X158559523Y-119502438D01*
X158559523Y-119502438D02*
X158607142Y-119550057D01*
X158988095Y-119550057D02*
X159035714Y-119502438D01*
X159035714Y-119502438D02*
X159130952Y-119454819D01*
X159130952Y-119454819D02*
X159369047Y-119454819D01*
X159369047Y-119454819D02*
X159464285Y-119502438D01*
X159464285Y-119502438D02*
X159511904Y-119550057D01*
X159511904Y-119550057D02*
X159559523Y-119645295D01*
X159559523Y-119645295D02*
X159559523Y-119740533D01*
X159559523Y-119740533D02*
X159511904Y-119883390D01*
X159511904Y-119883390D02*
X158940476Y-120454819D01*
X158940476Y-120454819D02*
X159559523Y-120454819D01*
X160511904Y-120454819D02*
X159940476Y-120454819D01*
X160226190Y-120454819D02*
X160226190Y-119454819D01*
X160226190Y-119454819D02*
X160130952Y-119597676D01*
X160130952Y-119597676D02*
X160035714Y-119692914D01*
X160035714Y-119692914D02*
X159940476Y-119740533D01*
X157184819Y-129166666D02*
X156708628Y-129499999D01*
X157184819Y-129738094D02*
X156184819Y-129738094D01*
X156184819Y-129738094D02*
X156184819Y-129357142D01*
X156184819Y-129357142D02*
X156232438Y-129261904D01*
X156232438Y-129261904D02*
X156280057Y-129214285D01*
X156280057Y-129214285D02*
X156375295Y-129166666D01*
X156375295Y-129166666D02*
X156518152Y-129166666D01*
X156518152Y-129166666D02*
X156613390Y-129214285D01*
X156613390Y-129214285D02*
X156661009Y-129261904D01*
X156661009Y-129261904D02*
X156708628Y-129357142D01*
X156708628Y-129357142D02*
X156708628Y-129738094D01*
X156184819Y-128833332D02*
X156184819Y-128166666D01*
X156184819Y-128166666D02*
X157184819Y-128595237D01*
X158607142Y-125359580D02*
X158559523Y-125407200D01*
X158559523Y-125407200D02*
X158416666Y-125454819D01*
X158416666Y-125454819D02*
X158321428Y-125454819D01*
X158321428Y-125454819D02*
X158178571Y-125407200D01*
X158178571Y-125407200D02*
X158083333Y-125311961D01*
X158083333Y-125311961D02*
X158035714Y-125216723D01*
X158035714Y-125216723D02*
X157988095Y-125026247D01*
X157988095Y-125026247D02*
X157988095Y-124883390D01*
X157988095Y-124883390D02*
X158035714Y-124692914D01*
X158035714Y-124692914D02*
X158083333Y-124597676D01*
X158083333Y-124597676D02*
X158178571Y-124502438D01*
X158178571Y-124502438D02*
X158321428Y-124454819D01*
X158321428Y-124454819D02*
X158416666Y-124454819D01*
X158416666Y-124454819D02*
X158559523Y-124502438D01*
X158559523Y-124502438D02*
X158607142Y-124550057D01*
X158988095Y-124550057D02*
X159035714Y-124502438D01*
X159035714Y-124502438D02*
X159130952Y-124454819D01*
X159130952Y-124454819D02*
X159369047Y-124454819D01*
X159369047Y-124454819D02*
X159464285Y-124502438D01*
X159464285Y-124502438D02*
X159511904Y-124550057D01*
X159511904Y-124550057D02*
X159559523Y-124645295D01*
X159559523Y-124645295D02*
X159559523Y-124740533D01*
X159559523Y-124740533D02*
X159511904Y-124883390D01*
X159511904Y-124883390D02*
X158940476Y-125454819D01*
X158940476Y-125454819D02*
X159559523Y-125454819D01*
X159940476Y-124550057D02*
X159988095Y-124502438D01*
X159988095Y-124502438D02*
X160083333Y-124454819D01*
X160083333Y-124454819D02*
X160321428Y-124454819D01*
X160321428Y-124454819D02*
X160416666Y-124502438D01*
X160416666Y-124502438D02*
X160464285Y-124550057D01*
X160464285Y-124550057D02*
X160511904Y-124645295D01*
X160511904Y-124645295D02*
X160511904Y-124740533D01*
X160511904Y-124740533D02*
X160464285Y-124883390D01*
X160464285Y-124883390D02*
X159892857Y-125454819D01*
X159892857Y-125454819D02*
X160511904Y-125454819D01*
X157857142Y-115929580D02*
X157809523Y-115977200D01*
X157809523Y-115977200D02*
X157666666Y-116024819D01*
X157666666Y-116024819D02*
X157571428Y-116024819D01*
X157571428Y-116024819D02*
X157428571Y-115977200D01*
X157428571Y-115977200D02*
X157333333Y-115881961D01*
X157333333Y-115881961D02*
X157285714Y-115786723D01*
X157285714Y-115786723D02*
X157238095Y-115596247D01*
X157238095Y-115596247D02*
X157238095Y-115453390D01*
X157238095Y-115453390D02*
X157285714Y-115262914D01*
X157285714Y-115262914D02*
X157333333Y-115167676D01*
X157333333Y-115167676D02*
X157428571Y-115072438D01*
X157428571Y-115072438D02*
X157571428Y-115024819D01*
X157571428Y-115024819D02*
X157666666Y-115024819D01*
X157666666Y-115024819D02*
X157809523Y-115072438D01*
X157809523Y-115072438D02*
X157857142Y-115120057D01*
X158809523Y-116024819D02*
X158238095Y-116024819D01*
X158523809Y-116024819D02*
X158523809Y-115024819D01*
X158523809Y-115024819D02*
X158428571Y-115167676D01*
X158428571Y-115167676D02*
X158333333Y-115262914D01*
X158333333Y-115262914D02*
X158238095Y-115310533D01*
X159285714Y-116024819D02*
X159476190Y-116024819D01*
X159476190Y-116024819D02*
X159571428Y-115977200D01*
X159571428Y-115977200D02*
X159619047Y-115929580D01*
X159619047Y-115929580D02*
X159714285Y-115786723D01*
X159714285Y-115786723D02*
X159761904Y-115596247D01*
X159761904Y-115596247D02*
X159761904Y-115215295D01*
X159761904Y-115215295D02*
X159714285Y-115120057D01*
X159714285Y-115120057D02*
X159666666Y-115072438D01*
X159666666Y-115072438D02*
X159571428Y-115024819D01*
X159571428Y-115024819D02*
X159380952Y-115024819D01*
X159380952Y-115024819D02*
X159285714Y-115072438D01*
X159285714Y-115072438D02*
X159238095Y-115120057D01*
X159238095Y-115120057D02*
X159190476Y-115215295D01*
X159190476Y-115215295D02*
X159190476Y-115453390D01*
X159190476Y-115453390D02*
X159238095Y-115548628D01*
X159238095Y-115548628D02*
X159285714Y-115596247D01*
X159285714Y-115596247D02*
X159380952Y-115643866D01*
X159380952Y-115643866D02*
X159571428Y-115643866D01*
X159571428Y-115643866D02*
X159666666Y-115596247D01*
X159666666Y-115596247D02*
X159714285Y-115548628D01*
X159714285Y-115548628D02*
X159761904Y-115453390D01*
X139213095Y-96703041D02*
X139213095Y-97512564D01*
X139213095Y-97512564D02*
X139260714Y-97607802D01*
X139260714Y-97607802D02*
X139308333Y-97655422D01*
X139308333Y-97655422D02*
X139403571Y-97703041D01*
X139403571Y-97703041D02*
X139594047Y-97703041D01*
X139594047Y-97703041D02*
X139689285Y-97655422D01*
X139689285Y-97655422D02*
X139736904Y-97607802D01*
X139736904Y-97607802D02*
X139784523Y-97512564D01*
X139784523Y-97512564D02*
X139784523Y-96703041D01*
X140213095Y-96798279D02*
X140260714Y-96750660D01*
X140260714Y-96750660D02*
X140355952Y-96703041D01*
X140355952Y-96703041D02*
X140594047Y-96703041D01*
X140594047Y-96703041D02*
X140689285Y-96750660D01*
X140689285Y-96750660D02*
X140736904Y-96798279D01*
X140736904Y-96798279D02*
X140784523Y-96893517D01*
X140784523Y-96893517D02*
X140784523Y-96988755D01*
X140784523Y-96988755D02*
X140736904Y-97131612D01*
X140736904Y-97131612D02*
X140165476Y-97703041D01*
X140165476Y-97703041D02*
X140784523Y-97703041D01*
X153792591Y-106378293D02*
X153455874Y-106715011D01*
X153455874Y-106715011D02*
X152748767Y-106007904D01*
X154398683Y-105772201D02*
X153994622Y-106176262D01*
X154196652Y-105974232D02*
X153489546Y-105267125D01*
X153489546Y-105267125D02*
X153523217Y-105435484D01*
X153523217Y-105435484D02*
X153523217Y-105570171D01*
X153523217Y-105570171D02*
X153489546Y-105671186D01*
X140454819Y-123988094D02*
X139454819Y-123988094D01*
X139454819Y-123988094D02*
X139454819Y-123749999D01*
X139454819Y-123749999D02*
X139502438Y-123607142D01*
X139502438Y-123607142D02*
X139597676Y-123511904D01*
X139597676Y-123511904D02*
X139692914Y-123464285D01*
X139692914Y-123464285D02*
X139883390Y-123416666D01*
X139883390Y-123416666D02*
X140026247Y-123416666D01*
X140026247Y-123416666D02*
X140216723Y-123464285D01*
X140216723Y-123464285D02*
X140311961Y-123511904D01*
X140311961Y-123511904D02*
X140407200Y-123607142D01*
X140407200Y-123607142D02*
X140454819Y-123749999D01*
X140454819Y-123749999D02*
X140454819Y-123988094D01*
X140454819Y-122464285D02*
X140454819Y-123035713D01*
X140454819Y-122749999D02*
X139454819Y-122749999D01*
X139454819Y-122749999D02*
X139597676Y-122845237D01*
X139597676Y-122845237D02*
X139692914Y-122940475D01*
X139692914Y-122940475D02*
X139740533Y-123035713D01*
X123911905Y-101254819D02*
X123911905Y-100254819D01*
X123911905Y-100254819D02*
X124150000Y-100254819D01*
X124150000Y-100254819D02*
X124292857Y-100302438D01*
X124292857Y-100302438D02*
X124388095Y-100397676D01*
X124388095Y-100397676D02*
X124435714Y-100492914D01*
X124435714Y-100492914D02*
X124483333Y-100683390D01*
X124483333Y-100683390D02*
X124483333Y-100826247D01*
X124483333Y-100826247D02*
X124435714Y-101016723D01*
X124435714Y-101016723D02*
X124388095Y-101111961D01*
X124388095Y-101111961D02*
X124292857Y-101207200D01*
X124292857Y-101207200D02*
X124150000Y-101254819D01*
X124150000Y-101254819D02*
X123911905Y-101254819D01*
X124864286Y-100350057D02*
X124911905Y-100302438D01*
X124911905Y-100302438D02*
X125007143Y-100254819D01*
X125007143Y-100254819D02*
X125245238Y-100254819D01*
X125245238Y-100254819D02*
X125340476Y-100302438D01*
X125340476Y-100302438D02*
X125388095Y-100350057D01*
X125388095Y-100350057D02*
X125435714Y-100445295D01*
X125435714Y-100445295D02*
X125435714Y-100540533D01*
X125435714Y-100540533D02*
X125388095Y-100683390D01*
X125388095Y-100683390D02*
X124816667Y-101254819D01*
X124816667Y-101254819D02*
X125435714Y-101254819D01*
X128454819Y-105890476D02*
X127978628Y-106223809D01*
X128454819Y-106461904D02*
X127454819Y-106461904D01*
X127454819Y-106461904D02*
X127454819Y-106080952D01*
X127454819Y-106080952D02*
X127502438Y-105985714D01*
X127502438Y-105985714D02*
X127550057Y-105938095D01*
X127550057Y-105938095D02*
X127645295Y-105890476D01*
X127645295Y-105890476D02*
X127788152Y-105890476D01*
X127788152Y-105890476D02*
X127883390Y-105938095D01*
X127883390Y-105938095D02*
X127931009Y-105985714D01*
X127931009Y-105985714D02*
X127978628Y-106080952D01*
X127978628Y-106080952D02*
X127978628Y-106461904D01*
X128454819Y-105461904D02*
X127454819Y-105461904D01*
X127454819Y-105461904D02*
X128454819Y-104890476D01*
X128454819Y-104890476D02*
X127454819Y-104890476D01*
X128454819Y-103890476D02*
X128454819Y-104461904D01*
X128454819Y-104176190D02*
X127454819Y-104176190D01*
X127454819Y-104176190D02*
X127597676Y-104271428D01*
X127597676Y-104271428D02*
X127692914Y-104366666D01*
X127692914Y-104366666D02*
X127740533Y-104461904D01*
X149560543Y-106453754D02*
X149223825Y-106117037D01*
X149223825Y-106117037D02*
X149930932Y-105409930D01*
X150402337Y-106016022D02*
X150469680Y-106016022D01*
X150469680Y-106016022D02*
X150570696Y-106049693D01*
X150570696Y-106049693D02*
X150739054Y-106218052D01*
X150739054Y-106218052D02*
X150772726Y-106319067D01*
X150772726Y-106319067D02*
X150772726Y-106386411D01*
X150772726Y-106386411D02*
X150739054Y-106487426D01*
X150739054Y-106487426D02*
X150671711Y-106554770D01*
X150671711Y-106554770D02*
X150537024Y-106622113D01*
X150537024Y-106622113D02*
X149728902Y-106622113D01*
X149728902Y-106622113D02*
X150166635Y-107059846D01*
X156657142Y-98209580D02*
X156609523Y-98257200D01*
X156609523Y-98257200D02*
X156466666Y-98304819D01*
X156466666Y-98304819D02*
X156371428Y-98304819D01*
X156371428Y-98304819D02*
X156228571Y-98257200D01*
X156228571Y-98257200D02*
X156133333Y-98161961D01*
X156133333Y-98161961D02*
X156085714Y-98066723D01*
X156085714Y-98066723D02*
X156038095Y-97876247D01*
X156038095Y-97876247D02*
X156038095Y-97733390D01*
X156038095Y-97733390D02*
X156085714Y-97542914D01*
X156085714Y-97542914D02*
X156133333Y-97447676D01*
X156133333Y-97447676D02*
X156228571Y-97352438D01*
X156228571Y-97352438D02*
X156371428Y-97304819D01*
X156371428Y-97304819D02*
X156466666Y-97304819D01*
X156466666Y-97304819D02*
X156609523Y-97352438D01*
X156609523Y-97352438D02*
X156657142Y-97400057D01*
X157609523Y-98304819D02*
X157038095Y-98304819D01*
X157323809Y-98304819D02*
X157323809Y-97304819D01*
X157323809Y-97304819D02*
X157228571Y-97447676D01*
X157228571Y-97447676D02*
X157133333Y-97542914D01*
X157133333Y-97542914D02*
X157038095Y-97590533D01*
X157942857Y-97304819D02*
X158561904Y-97304819D01*
X158561904Y-97304819D02*
X158228571Y-97685771D01*
X158228571Y-97685771D02*
X158371428Y-97685771D01*
X158371428Y-97685771D02*
X158466666Y-97733390D01*
X158466666Y-97733390D02*
X158514285Y-97781009D01*
X158514285Y-97781009D02*
X158561904Y-97876247D01*
X158561904Y-97876247D02*
X158561904Y-98114342D01*
X158561904Y-98114342D02*
X158514285Y-98209580D01*
X158514285Y-98209580D02*
X158466666Y-98257200D01*
X158466666Y-98257200D02*
X158371428Y-98304819D01*
X158371428Y-98304819D02*
X158085714Y-98304819D01*
X158085714Y-98304819D02*
X157990476Y-98257200D01*
X157990476Y-98257200D02*
X157942857Y-98209580D01*
X182511905Y-101254819D02*
X182511905Y-100254819D01*
X182511905Y-100254819D02*
X182750000Y-100254819D01*
X182750000Y-100254819D02*
X182892857Y-100302438D01*
X182892857Y-100302438D02*
X182988095Y-100397676D01*
X182988095Y-100397676D02*
X183035714Y-100492914D01*
X183035714Y-100492914D02*
X183083333Y-100683390D01*
X183083333Y-100683390D02*
X183083333Y-100826247D01*
X183083333Y-100826247D02*
X183035714Y-101016723D01*
X183035714Y-101016723D02*
X182988095Y-101111961D01*
X182988095Y-101111961D02*
X182892857Y-101207200D01*
X182892857Y-101207200D02*
X182750000Y-101254819D01*
X182750000Y-101254819D02*
X182511905Y-101254819D01*
X183988095Y-100254819D02*
X183511905Y-100254819D01*
X183511905Y-100254819D02*
X183464286Y-100731009D01*
X183464286Y-100731009D02*
X183511905Y-100683390D01*
X183511905Y-100683390D02*
X183607143Y-100635771D01*
X183607143Y-100635771D02*
X183845238Y-100635771D01*
X183845238Y-100635771D02*
X183940476Y-100683390D01*
X183940476Y-100683390D02*
X183988095Y-100731009D01*
X183988095Y-100731009D02*
X184035714Y-100826247D01*
X184035714Y-100826247D02*
X184035714Y-101064342D01*
X184035714Y-101064342D02*
X183988095Y-101159580D01*
X183988095Y-101159580D02*
X183940476Y-101207200D01*
X183940476Y-101207200D02*
X183845238Y-101254819D01*
X183845238Y-101254819D02*
X183607143Y-101254819D01*
X183607143Y-101254819D02*
X183511905Y-101207200D01*
X183511905Y-101207200D02*
X183464286Y-101159580D01*
X128333333Y-102109580D02*
X128285714Y-102157200D01*
X128285714Y-102157200D02*
X128142857Y-102204819D01*
X128142857Y-102204819D02*
X128047619Y-102204819D01*
X128047619Y-102204819D02*
X127904762Y-102157200D01*
X127904762Y-102157200D02*
X127809524Y-102061961D01*
X127809524Y-102061961D02*
X127761905Y-101966723D01*
X127761905Y-101966723D02*
X127714286Y-101776247D01*
X127714286Y-101776247D02*
X127714286Y-101633390D01*
X127714286Y-101633390D02*
X127761905Y-101442914D01*
X127761905Y-101442914D02*
X127809524Y-101347676D01*
X127809524Y-101347676D02*
X127904762Y-101252438D01*
X127904762Y-101252438D02*
X128047619Y-101204819D01*
X128047619Y-101204819D02*
X128142857Y-101204819D01*
X128142857Y-101204819D02*
X128285714Y-101252438D01*
X128285714Y-101252438D02*
X128333333Y-101300057D01*
X129285714Y-102204819D02*
X128714286Y-102204819D01*
X129000000Y-102204819D02*
X129000000Y-101204819D01*
X129000000Y-101204819D02*
X128904762Y-101347676D01*
X128904762Y-101347676D02*
X128809524Y-101442914D01*
X128809524Y-101442914D02*
X128714286Y-101490533D01*
X161857142Y-109179580D02*
X161809523Y-109227200D01*
X161809523Y-109227200D02*
X161666666Y-109274819D01*
X161666666Y-109274819D02*
X161571428Y-109274819D01*
X161571428Y-109274819D02*
X161428571Y-109227200D01*
X161428571Y-109227200D02*
X161333333Y-109131961D01*
X161333333Y-109131961D02*
X161285714Y-109036723D01*
X161285714Y-109036723D02*
X161238095Y-108846247D01*
X161238095Y-108846247D02*
X161238095Y-108703390D01*
X161238095Y-108703390D02*
X161285714Y-108512914D01*
X161285714Y-108512914D02*
X161333333Y-108417676D01*
X161333333Y-108417676D02*
X161428571Y-108322438D01*
X161428571Y-108322438D02*
X161571428Y-108274819D01*
X161571428Y-108274819D02*
X161666666Y-108274819D01*
X161666666Y-108274819D02*
X161809523Y-108322438D01*
X161809523Y-108322438D02*
X161857142Y-108370057D01*
X162809523Y-109274819D02*
X162238095Y-109274819D01*
X162523809Y-109274819D02*
X162523809Y-108274819D01*
X162523809Y-108274819D02*
X162428571Y-108417676D01*
X162428571Y-108417676D02*
X162333333Y-108512914D01*
X162333333Y-108512914D02*
X162238095Y-108560533D01*
X163380952Y-108703390D02*
X163285714Y-108655771D01*
X163285714Y-108655771D02*
X163238095Y-108608152D01*
X163238095Y-108608152D02*
X163190476Y-108512914D01*
X163190476Y-108512914D02*
X163190476Y-108465295D01*
X163190476Y-108465295D02*
X163238095Y-108370057D01*
X163238095Y-108370057D02*
X163285714Y-108322438D01*
X163285714Y-108322438D02*
X163380952Y-108274819D01*
X163380952Y-108274819D02*
X163571428Y-108274819D01*
X163571428Y-108274819D02*
X163666666Y-108322438D01*
X163666666Y-108322438D02*
X163714285Y-108370057D01*
X163714285Y-108370057D02*
X163761904Y-108465295D01*
X163761904Y-108465295D02*
X163761904Y-108512914D01*
X163761904Y-108512914D02*
X163714285Y-108608152D01*
X163714285Y-108608152D02*
X163666666Y-108655771D01*
X163666666Y-108655771D02*
X163571428Y-108703390D01*
X163571428Y-108703390D02*
X163380952Y-108703390D01*
X163380952Y-108703390D02*
X163285714Y-108751009D01*
X163285714Y-108751009D02*
X163238095Y-108798628D01*
X163238095Y-108798628D02*
X163190476Y-108893866D01*
X163190476Y-108893866D02*
X163190476Y-109084342D01*
X163190476Y-109084342D02*
X163238095Y-109179580D01*
X163238095Y-109179580D02*
X163285714Y-109227200D01*
X163285714Y-109227200D02*
X163380952Y-109274819D01*
X163380952Y-109274819D02*
X163571428Y-109274819D01*
X163571428Y-109274819D02*
X163666666Y-109227200D01*
X163666666Y-109227200D02*
X163714285Y-109179580D01*
X163714285Y-109179580D02*
X163761904Y-109084342D01*
X163761904Y-109084342D02*
X163761904Y-108893866D01*
X163761904Y-108893866D02*
X163714285Y-108798628D01*
X163714285Y-108798628D02*
X163666666Y-108751009D01*
X163666666Y-108751009D02*
X163571428Y-108703390D01*
X136704819Y-105840476D02*
X136228628Y-106173809D01*
X136704819Y-106411904D02*
X135704819Y-106411904D01*
X135704819Y-106411904D02*
X135704819Y-106030952D01*
X135704819Y-106030952D02*
X135752438Y-105935714D01*
X135752438Y-105935714D02*
X135800057Y-105888095D01*
X135800057Y-105888095D02*
X135895295Y-105840476D01*
X135895295Y-105840476D02*
X136038152Y-105840476D01*
X136038152Y-105840476D02*
X136133390Y-105888095D01*
X136133390Y-105888095D02*
X136181009Y-105935714D01*
X136181009Y-105935714D02*
X136228628Y-106030952D01*
X136228628Y-106030952D02*
X136228628Y-106411904D01*
X136704819Y-105411904D02*
X135704819Y-105411904D01*
X135704819Y-105411904D02*
X136704819Y-104840476D01*
X136704819Y-104840476D02*
X135704819Y-104840476D01*
X135800057Y-104411904D02*
X135752438Y-104364285D01*
X135752438Y-104364285D02*
X135704819Y-104269047D01*
X135704819Y-104269047D02*
X135704819Y-104030952D01*
X135704819Y-104030952D02*
X135752438Y-103935714D01*
X135752438Y-103935714D02*
X135800057Y-103888095D01*
X135800057Y-103888095D02*
X135895295Y-103840476D01*
X135895295Y-103840476D02*
X135990533Y-103840476D01*
X135990533Y-103840476D02*
X136133390Y-103888095D01*
X136133390Y-103888095D02*
X136704819Y-104459523D01*
X136704819Y-104459523D02*
X136704819Y-103840476D01*
X154129580Y-102216666D02*
X154177200Y-102264285D01*
X154177200Y-102264285D02*
X154224819Y-102407142D01*
X154224819Y-102407142D02*
X154224819Y-102502380D01*
X154224819Y-102502380D02*
X154177200Y-102645237D01*
X154177200Y-102645237D02*
X154081961Y-102740475D01*
X154081961Y-102740475D02*
X153986723Y-102788094D01*
X153986723Y-102788094D02*
X153796247Y-102835713D01*
X153796247Y-102835713D02*
X153653390Y-102835713D01*
X153653390Y-102835713D02*
X153462914Y-102788094D01*
X153462914Y-102788094D02*
X153367676Y-102740475D01*
X153367676Y-102740475D02*
X153272438Y-102645237D01*
X153272438Y-102645237D02*
X153224819Y-102502380D01*
X153224819Y-102502380D02*
X153224819Y-102407142D01*
X153224819Y-102407142D02*
X153272438Y-102264285D01*
X153272438Y-102264285D02*
X153320057Y-102216666D01*
X153653390Y-101645237D02*
X153605771Y-101740475D01*
X153605771Y-101740475D02*
X153558152Y-101788094D01*
X153558152Y-101788094D02*
X153462914Y-101835713D01*
X153462914Y-101835713D02*
X153415295Y-101835713D01*
X153415295Y-101835713D02*
X153320057Y-101788094D01*
X153320057Y-101788094D02*
X153272438Y-101740475D01*
X153272438Y-101740475D02*
X153224819Y-101645237D01*
X153224819Y-101645237D02*
X153224819Y-101454761D01*
X153224819Y-101454761D02*
X153272438Y-101359523D01*
X153272438Y-101359523D02*
X153320057Y-101311904D01*
X153320057Y-101311904D02*
X153415295Y-101264285D01*
X153415295Y-101264285D02*
X153462914Y-101264285D01*
X153462914Y-101264285D02*
X153558152Y-101311904D01*
X153558152Y-101311904D02*
X153605771Y-101359523D01*
X153605771Y-101359523D02*
X153653390Y-101454761D01*
X153653390Y-101454761D02*
X153653390Y-101645237D01*
X153653390Y-101645237D02*
X153701009Y-101740475D01*
X153701009Y-101740475D02*
X153748628Y-101788094D01*
X153748628Y-101788094D02*
X153843866Y-101835713D01*
X153843866Y-101835713D02*
X154034342Y-101835713D01*
X154034342Y-101835713D02*
X154129580Y-101788094D01*
X154129580Y-101788094D02*
X154177200Y-101740475D01*
X154177200Y-101740475D02*
X154224819Y-101645237D01*
X154224819Y-101645237D02*
X154224819Y-101454761D01*
X154224819Y-101454761D02*
X154177200Y-101359523D01*
X154177200Y-101359523D02*
X154129580Y-101311904D01*
X154129580Y-101311904D02*
X154034342Y-101264285D01*
X154034342Y-101264285D02*
X153843866Y-101264285D01*
X153843866Y-101264285D02*
X153748628Y-101311904D01*
X153748628Y-101311904D02*
X153701009Y-101359523D01*
X153701009Y-101359523D02*
X153653390Y-101454761D01*
X171107142Y-102109580D02*
X171059523Y-102157200D01*
X171059523Y-102157200D02*
X170916666Y-102204819D01*
X170916666Y-102204819D02*
X170821428Y-102204819D01*
X170821428Y-102204819D02*
X170678571Y-102157200D01*
X170678571Y-102157200D02*
X170583333Y-102061961D01*
X170583333Y-102061961D02*
X170535714Y-101966723D01*
X170535714Y-101966723D02*
X170488095Y-101776247D01*
X170488095Y-101776247D02*
X170488095Y-101633390D01*
X170488095Y-101633390D02*
X170535714Y-101442914D01*
X170535714Y-101442914D02*
X170583333Y-101347676D01*
X170583333Y-101347676D02*
X170678571Y-101252438D01*
X170678571Y-101252438D02*
X170821428Y-101204819D01*
X170821428Y-101204819D02*
X170916666Y-101204819D01*
X170916666Y-101204819D02*
X171059523Y-101252438D01*
X171059523Y-101252438D02*
X171107142Y-101300057D01*
X172059523Y-102204819D02*
X171488095Y-102204819D01*
X171773809Y-102204819D02*
X171773809Y-101204819D01*
X171773809Y-101204819D02*
X171678571Y-101347676D01*
X171678571Y-101347676D02*
X171583333Y-101442914D01*
X171583333Y-101442914D02*
X171488095Y-101490533D01*
X172964285Y-101204819D02*
X172488095Y-101204819D01*
X172488095Y-101204819D02*
X172440476Y-101681009D01*
X172440476Y-101681009D02*
X172488095Y-101633390D01*
X172488095Y-101633390D02*
X172583333Y-101585771D01*
X172583333Y-101585771D02*
X172821428Y-101585771D01*
X172821428Y-101585771D02*
X172916666Y-101633390D01*
X172916666Y-101633390D02*
X172964285Y-101681009D01*
X172964285Y-101681009D02*
X173011904Y-101776247D01*
X173011904Y-101776247D02*
X173011904Y-102014342D01*
X173011904Y-102014342D02*
X172964285Y-102109580D01*
X172964285Y-102109580D02*
X172916666Y-102157200D01*
X172916666Y-102157200D02*
X172821428Y-102204819D01*
X172821428Y-102204819D02*
X172583333Y-102204819D01*
X172583333Y-102204819D02*
X172488095Y-102157200D01*
X172488095Y-102157200D02*
X172440476Y-102109580D01*
X147424819Y-95516666D02*
X146948628Y-95849999D01*
X147424819Y-96088094D02*
X146424819Y-96088094D01*
X146424819Y-96088094D02*
X146424819Y-95707142D01*
X146424819Y-95707142D02*
X146472438Y-95611904D01*
X146472438Y-95611904D02*
X146520057Y-95564285D01*
X146520057Y-95564285D02*
X146615295Y-95516666D01*
X146615295Y-95516666D02*
X146758152Y-95516666D01*
X146758152Y-95516666D02*
X146853390Y-95564285D01*
X146853390Y-95564285D02*
X146901009Y-95611904D01*
X146901009Y-95611904D02*
X146948628Y-95707142D01*
X146948628Y-95707142D02*
X146948628Y-96088094D01*
X146758152Y-94659523D02*
X147424819Y-94659523D01*
X146377200Y-94897618D02*
X147091485Y-95135713D01*
X147091485Y-95135713D02*
X147091485Y-94516666D01*
X162773809Y-113228628D02*
X162773809Y-113704819D01*
X162440476Y-112704819D02*
X162773809Y-113228628D01*
X162773809Y-113228628D02*
X163107142Y-112704819D01*
X163964285Y-113704819D02*
X163392857Y-113704819D01*
X163678571Y-113704819D02*
X163678571Y-112704819D01*
X163678571Y-112704819D02*
X163583333Y-112847676D01*
X163583333Y-112847676D02*
X163488095Y-112942914D01*
X163488095Y-112942914D02*
X163392857Y-112990533D01*
X146054819Y-92883333D02*
X146769104Y-92883333D01*
X146769104Y-92883333D02*
X146911961Y-92930952D01*
X146911961Y-92930952D02*
X147007200Y-93026190D01*
X147007200Y-93026190D02*
X147054819Y-93169047D01*
X147054819Y-93169047D02*
X147054819Y-93264285D01*
X147054819Y-92407142D02*
X146054819Y-92407142D01*
X146054819Y-92407142D02*
X146054819Y-92026190D01*
X146054819Y-92026190D02*
X146102438Y-91930952D01*
X146102438Y-91930952D02*
X146150057Y-91883333D01*
X146150057Y-91883333D02*
X146245295Y-91835714D01*
X146245295Y-91835714D02*
X146388152Y-91835714D01*
X146388152Y-91835714D02*
X146483390Y-91883333D01*
X146483390Y-91883333D02*
X146531009Y-91930952D01*
X146531009Y-91930952D02*
X146578628Y-92026190D01*
X146578628Y-92026190D02*
X146578628Y-92407142D01*
X146150057Y-91454761D02*
X146102438Y-91407142D01*
X146102438Y-91407142D02*
X146054819Y-91311904D01*
X146054819Y-91311904D02*
X146054819Y-91073809D01*
X146054819Y-91073809D02*
X146102438Y-90978571D01*
X146102438Y-90978571D02*
X146150057Y-90930952D01*
X146150057Y-90930952D02*
X146245295Y-90883333D01*
X146245295Y-90883333D02*
X146340533Y-90883333D01*
X146340533Y-90883333D02*
X146483390Y-90930952D01*
X146483390Y-90930952D02*
X147054819Y-91502380D01*
X147054819Y-91502380D02*
X147054819Y-90883333D01*
X161308333Y-100109580D02*
X161260714Y-100157200D01*
X161260714Y-100157200D02*
X161117857Y-100204819D01*
X161117857Y-100204819D02*
X161022619Y-100204819D01*
X161022619Y-100204819D02*
X160879762Y-100157200D01*
X160879762Y-100157200D02*
X160784524Y-100061961D01*
X160784524Y-100061961D02*
X160736905Y-99966723D01*
X160736905Y-99966723D02*
X160689286Y-99776247D01*
X160689286Y-99776247D02*
X160689286Y-99633390D01*
X160689286Y-99633390D02*
X160736905Y-99442914D01*
X160736905Y-99442914D02*
X160784524Y-99347676D01*
X160784524Y-99347676D02*
X160879762Y-99252438D01*
X160879762Y-99252438D02*
X161022619Y-99204819D01*
X161022619Y-99204819D02*
X161117857Y-99204819D01*
X161117857Y-99204819D02*
X161260714Y-99252438D01*
X161260714Y-99252438D02*
X161308333Y-99300057D01*
X161641667Y-99204819D02*
X162308333Y-99204819D01*
X162308333Y-99204819D02*
X161879762Y-100204819D01*
X157957142Y-107179580D02*
X157909523Y-107227200D01*
X157909523Y-107227200D02*
X157766666Y-107274819D01*
X157766666Y-107274819D02*
X157671428Y-107274819D01*
X157671428Y-107274819D02*
X157528571Y-107227200D01*
X157528571Y-107227200D02*
X157433333Y-107131961D01*
X157433333Y-107131961D02*
X157385714Y-107036723D01*
X157385714Y-107036723D02*
X157338095Y-106846247D01*
X157338095Y-106846247D02*
X157338095Y-106703390D01*
X157338095Y-106703390D02*
X157385714Y-106512914D01*
X157385714Y-106512914D02*
X157433333Y-106417676D01*
X157433333Y-106417676D02*
X157528571Y-106322438D01*
X157528571Y-106322438D02*
X157671428Y-106274819D01*
X157671428Y-106274819D02*
X157766666Y-106274819D01*
X157766666Y-106274819D02*
X157909523Y-106322438D01*
X157909523Y-106322438D02*
X157957142Y-106370057D01*
X158909523Y-107274819D02*
X158338095Y-107274819D01*
X158623809Y-107274819D02*
X158623809Y-106274819D01*
X158623809Y-106274819D02*
X158528571Y-106417676D01*
X158528571Y-106417676D02*
X158433333Y-106512914D01*
X158433333Y-106512914D02*
X158338095Y-106560533D01*
X159242857Y-106274819D02*
X159909523Y-106274819D01*
X159909523Y-106274819D02*
X159480952Y-107274819D01*
X156833333Y-127204819D02*
X156500000Y-126728628D01*
X156261905Y-127204819D02*
X156261905Y-126204819D01*
X156261905Y-126204819D02*
X156642857Y-126204819D01*
X156642857Y-126204819D02*
X156738095Y-126252438D01*
X156738095Y-126252438D02*
X156785714Y-126300057D01*
X156785714Y-126300057D02*
X156833333Y-126395295D01*
X156833333Y-126395295D02*
X156833333Y-126538152D01*
X156833333Y-126538152D02*
X156785714Y-126633390D01*
X156785714Y-126633390D02*
X156738095Y-126681009D01*
X156738095Y-126681009D02*
X156642857Y-126728628D01*
X156642857Y-126728628D02*
X156261905Y-126728628D01*
X157690476Y-126204819D02*
X157500000Y-126204819D01*
X157500000Y-126204819D02*
X157404762Y-126252438D01*
X157404762Y-126252438D02*
X157357143Y-126300057D01*
X157357143Y-126300057D02*
X157261905Y-126442914D01*
X157261905Y-126442914D02*
X157214286Y-126633390D01*
X157214286Y-126633390D02*
X157214286Y-127014342D01*
X157214286Y-127014342D02*
X157261905Y-127109580D01*
X157261905Y-127109580D02*
X157309524Y-127157200D01*
X157309524Y-127157200D02*
X157404762Y-127204819D01*
X157404762Y-127204819D02*
X157595238Y-127204819D01*
X157595238Y-127204819D02*
X157690476Y-127157200D01*
X157690476Y-127157200D02*
X157738095Y-127109580D01*
X157738095Y-127109580D02*
X157785714Y-127014342D01*
X157785714Y-127014342D02*
X157785714Y-126776247D01*
X157785714Y-126776247D02*
X157738095Y-126681009D01*
X157738095Y-126681009D02*
X157690476Y-126633390D01*
X157690476Y-126633390D02*
X157595238Y-126585771D01*
X157595238Y-126585771D02*
X157404762Y-126585771D01*
X157404762Y-126585771D02*
X157309524Y-126633390D01*
X157309524Y-126633390D02*
X157261905Y-126681009D01*
X157261905Y-126681009D02*
X157214286Y-126776247D01*
X154124819Y-95541666D02*
X153648628Y-95874999D01*
X154124819Y-96113094D02*
X153124819Y-96113094D01*
X153124819Y-96113094D02*
X153124819Y-95732142D01*
X153124819Y-95732142D02*
X153172438Y-95636904D01*
X153172438Y-95636904D02*
X153220057Y-95589285D01*
X153220057Y-95589285D02*
X153315295Y-95541666D01*
X153315295Y-95541666D02*
X153458152Y-95541666D01*
X153458152Y-95541666D02*
X153553390Y-95589285D01*
X153553390Y-95589285D02*
X153601009Y-95636904D01*
X153601009Y-95636904D02*
X153648628Y-95732142D01*
X153648628Y-95732142D02*
X153648628Y-96113094D01*
X153124819Y-95208332D02*
X153124819Y-94589285D01*
X153124819Y-94589285D02*
X153505771Y-94922618D01*
X153505771Y-94922618D02*
X153505771Y-94779761D01*
X153505771Y-94779761D02*
X153553390Y-94684523D01*
X153553390Y-94684523D02*
X153601009Y-94636904D01*
X153601009Y-94636904D02*
X153696247Y-94589285D01*
X153696247Y-94589285D02*
X153934342Y-94589285D01*
X153934342Y-94589285D02*
X154029580Y-94636904D01*
X154029580Y-94636904D02*
X154077200Y-94684523D01*
X154077200Y-94684523D02*
X154124819Y-94779761D01*
X154124819Y-94779761D02*
X154124819Y-95065475D01*
X154124819Y-95065475D02*
X154077200Y-95160713D01*
X154077200Y-95160713D02*
X154029580Y-95208332D01*
X153609580Y-123392857D02*
X153657200Y-123440476D01*
X153657200Y-123440476D02*
X153704819Y-123583333D01*
X153704819Y-123583333D02*
X153704819Y-123678571D01*
X153704819Y-123678571D02*
X153657200Y-123821428D01*
X153657200Y-123821428D02*
X153561961Y-123916666D01*
X153561961Y-123916666D02*
X153466723Y-123964285D01*
X153466723Y-123964285D02*
X153276247Y-124011904D01*
X153276247Y-124011904D02*
X153133390Y-124011904D01*
X153133390Y-124011904D02*
X152942914Y-123964285D01*
X152942914Y-123964285D02*
X152847676Y-123916666D01*
X152847676Y-123916666D02*
X152752438Y-123821428D01*
X152752438Y-123821428D02*
X152704819Y-123678571D01*
X152704819Y-123678571D02*
X152704819Y-123583333D01*
X152704819Y-123583333D02*
X152752438Y-123440476D01*
X152752438Y-123440476D02*
X152800057Y-123392857D01*
X152800057Y-123011904D02*
X152752438Y-122964285D01*
X152752438Y-122964285D02*
X152704819Y-122869047D01*
X152704819Y-122869047D02*
X152704819Y-122630952D01*
X152704819Y-122630952D02*
X152752438Y-122535714D01*
X152752438Y-122535714D02*
X152800057Y-122488095D01*
X152800057Y-122488095D02*
X152895295Y-122440476D01*
X152895295Y-122440476D02*
X152990533Y-122440476D01*
X152990533Y-122440476D02*
X153133390Y-122488095D01*
X153133390Y-122488095D02*
X153704819Y-123059523D01*
X153704819Y-123059523D02*
X153704819Y-122440476D01*
X152704819Y-121821428D02*
X152704819Y-121726190D01*
X152704819Y-121726190D02*
X152752438Y-121630952D01*
X152752438Y-121630952D02*
X152800057Y-121583333D01*
X152800057Y-121583333D02*
X152895295Y-121535714D01*
X152895295Y-121535714D02*
X153085771Y-121488095D01*
X153085771Y-121488095D02*
X153323866Y-121488095D01*
X153323866Y-121488095D02*
X153514342Y-121535714D01*
X153514342Y-121535714D02*
X153609580Y-121583333D01*
X153609580Y-121583333D02*
X153657200Y-121630952D01*
X153657200Y-121630952D02*
X153704819Y-121726190D01*
X153704819Y-121726190D02*
X153704819Y-121821428D01*
X153704819Y-121821428D02*
X153657200Y-121916666D01*
X153657200Y-121916666D02*
X153609580Y-121964285D01*
X153609580Y-121964285D02*
X153514342Y-122011904D01*
X153514342Y-122011904D02*
X153323866Y-122059523D01*
X153323866Y-122059523D02*
X153085771Y-122059523D01*
X153085771Y-122059523D02*
X152895295Y-122011904D01*
X152895295Y-122011904D02*
X152800057Y-121964285D01*
X152800057Y-121964285D02*
X152752438Y-121916666D01*
X152752438Y-121916666D02*
X152704819Y-121821428D01*
X177338095Y-96703041D02*
X177338095Y-97512564D01*
X177338095Y-97512564D02*
X177385714Y-97607802D01*
X177385714Y-97607802D02*
X177433333Y-97655422D01*
X177433333Y-97655422D02*
X177528571Y-97703041D01*
X177528571Y-97703041D02*
X177719047Y-97703041D01*
X177719047Y-97703041D02*
X177814285Y-97655422D01*
X177814285Y-97655422D02*
X177861904Y-97607802D01*
X177861904Y-97607802D02*
X177909523Y-97512564D01*
X177909523Y-97512564D02*
X177909523Y-96703041D01*
X178814285Y-97036374D02*
X178814285Y-97703041D01*
X178576190Y-96655422D02*
X178338095Y-97369707D01*
X178338095Y-97369707D02*
X178957142Y-97369707D01*
X157833333Y-103134819D02*
X157500000Y-102658628D01*
X157261905Y-103134819D02*
X157261905Y-102134819D01*
X157261905Y-102134819D02*
X157642857Y-102134819D01*
X157642857Y-102134819D02*
X157738095Y-102182438D01*
X157738095Y-102182438D02*
X157785714Y-102230057D01*
X157785714Y-102230057D02*
X157833333Y-102325295D01*
X157833333Y-102325295D02*
X157833333Y-102468152D01*
X157833333Y-102468152D02*
X157785714Y-102563390D01*
X157785714Y-102563390D02*
X157738095Y-102611009D01*
X157738095Y-102611009D02*
X157642857Y-102658628D01*
X157642857Y-102658628D02*
X157261905Y-102658628D01*
X158214286Y-102230057D02*
X158261905Y-102182438D01*
X158261905Y-102182438D02*
X158357143Y-102134819D01*
X158357143Y-102134819D02*
X158595238Y-102134819D01*
X158595238Y-102134819D02*
X158690476Y-102182438D01*
X158690476Y-102182438D02*
X158738095Y-102230057D01*
X158738095Y-102230057D02*
X158785714Y-102325295D01*
X158785714Y-102325295D02*
X158785714Y-102420533D01*
X158785714Y-102420533D02*
X158738095Y-102563390D01*
X158738095Y-102563390D02*
X158166667Y-103134819D01*
X158166667Y-103134819D02*
X158785714Y-103134819D01*
X150259580Y-102216666D02*
X150307200Y-102264285D01*
X150307200Y-102264285D02*
X150354819Y-102407142D01*
X150354819Y-102407142D02*
X150354819Y-102502380D01*
X150354819Y-102502380D02*
X150307200Y-102645237D01*
X150307200Y-102645237D02*
X150211961Y-102740475D01*
X150211961Y-102740475D02*
X150116723Y-102788094D01*
X150116723Y-102788094D02*
X149926247Y-102835713D01*
X149926247Y-102835713D02*
X149783390Y-102835713D01*
X149783390Y-102835713D02*
X149592914Y-102788094D01*
X149592914Y-102788094D02*
X149497676Y-102740475D01*
X149497676Y-102740475D02*
X149402438Y-102645237D01*
X149402438Y-102645237D02*
X149354819Y-102502380D01*
X149354819Y-102502380D02*
X149354819Y-102407142D01*
X149354819Y-102407142D02*
X149402438Y-102264285D01*
X149402438Y-102264285D02*
X149450057Y-102216666D01*
X150354819Y-101740475D02*
X150354819Y-101549999D01*
X150354819Y-101549999D02*
X150307200Y-101454761D01*
X150307200Y-101454761D02*
X150259580Y-101407142D01*
X150259580Y-101407142D02*
X150116723Y-101311904D01*
X150116723Y-101311904D02*
X149926247Y-101264285D01*
X149926247Y-101264285D02*
X149545295Y-101264285D01*
X149545295Y-101264285D02*
X149450057Y-101311904D01*
X149450057Y-101311904D02*
X149402438Y-101359523D01*
X149402438Y-101359523D02*
X149354819Y-101454761D01*
X149354819Y-101454761D02*
X149354819Y-101645237D01*
X149354819Y-101645237D02*
X149402438Y-101740475D01*
X149402438Y-101740475D02*
X149450057Y-101788094D01*
X149450057Y-101788094D02*
X149545295Y-101835713D01*
X149545295Y-101835713D02*
X149783390Y-101835713D01*
X149783390Y-101835713D02*
X149878628Y-101788094D01*
X149878628Y-101788094D02*
X149926247Y-101740475D01*
X149926247Y-101740475D02*
X149973866Y-101645237D01*
X149973866Y-101645237D02*
X149973866Y-101454761D01*
X149973866Y-101454761D02*
X149926247Y-101359523D01*
X149926247Y-101359523D02*
X149878628Y-101311904D01*
X149878628Y-101311904D02*
X149783390Y-101264285D01*
X159109580Y-104416666D02*
X159157200Y-104464285D01*
X159157200Y-104464285D02*
X159204819Y-104607142D01*
X159204819Y-104607142D02*
X159204819Y-104702380D01*
X159204819Y-104702380D02*
X159157200Y-104845237D01*
X159157200Y-104845237D02*
X159061961Y-104940475D01*
X159061961Y-104940475D02*
X158966723Y-104988094D01*
X158966723Y-104988094D02*
X158776247Y-105035713D01*
X158776247Y-105035713D02*
X158633390Y-105035713D01*
X158633390Y-105035713D02*
X158442914Y-104988094D01*
X158442914Y-104988094D02*
X158347676Y-104940475D01*
X158347676Y-104940475D02*
X158252438Y-104845237D01*
X158252438Y-104845237D02*
X158204819Y-104702380D01*
X158204819Y-104702380D02*
X158204819Y-104607142D01*
X158204819Y-104607142D02*
X158252438Y-104464285D01*
X158252438Y-104464285D02*
X158300057Y-104416666D01*
X158538152Y-103559523D02*
X159204819Y-103559523D01*
X158157200Y-103797618D02*
X158871485Y-104035713D01*
X158871485Y-104035713D02*
X158871485Y-103416666D01*
X157384819Y-122666666D02*
X157384819Y-123142856D01*
X157384819Y-123142856D02*
X156384819Y-123142856D01*
X156718152Y-121904761D02*
X157384819Y-121904761D01*
X156337200Y-122142856D02*
X157051485Y-122380951D01*
X157051485Y-122380951D02*
X157051485Y-121761904D01*
X145557142Y-98209580D02*
X145509523Y-98257200D01*
X145509523Y-98257200D02*
X145366666Y-98304819D01*
X145366666Y-98304819D02*
X145271428Y-98304819D01*
X145271428Y-98304819D02*
X145128571Y-98257200D01*
X145128571Y-98257200D02*
X145033333Y-98161961D01*
X145033333Y-98161961D02*
X144985714Y-98066723D01*
X144985714Y-98066723D02*
X144938095Y-97876247D01*
X144938095Y-97876247D02*
X144938095Y-97733390D01*
X144938095Y-97733390D02*
X144985714Y-97542914D01*
X144985714Y-97542914D02*
X145033333Y-97447676D01*
X145033333Y-97447676D02*
X145128571Y-97352438D01*
X145128571Y-97352438D02*
X145271428Y-97304819D01*
X145271428Y-97304819D02*
X145366666Y-97304819D01*
X145366666Y-97304819D02*
X145509523Y-97352438D01*
X145509523Y-97352438D02*
X145557142Y-97400057D01*
X146509523Y-98304819D02*
X145938095Y-98304819D01*
X146223809Y-98304819D02*
X146223809Y-97304819D01*
X146223809Y-97304819D02*
X146128571Y-97447676D01*
X146128571Y-97447676D02*
X146033333Y-97542914D01*
X146033333Y-97542914D02*
X145938095Y-97590533D01*
X147366666Y-97638152D02*
X147366666Y-98304819D01*
X147128571Y-97257200D02*
X146890476Y-97971485D01*
X146890476Y-97971485D02*
X147509523Y-97971485D01*
X141904761Y-122800057D02*
X141809523Y-122752438D01*
X141809523Y-122752438D02*
X141714285Y-122657200D01*
X141714285Y-122657200D02*
X141571428Y-122514342D01*
X141571428Y-122514342D02*
X141476190Y-122466723D01*
X141476190Y-122466723D02*
X141380952Y-122466723D01*
X141428571Y-122704819D02*
X141333333Y-122657200D01*
X141333333Y-122657200D02*
X141238095Y-122561961D01*
X141238095Y-122561961D02*
X141190476Y-122371485D01*
X141190476Y-122371485D02*
X141190476Y-122038152D01*
X141190476Y-122038152D02*
X141238095Y-121847676D01*
X141238095Y-121847676D02*
X141333333Y-121752438D01*
X141333333Y-121752438D02*
X141428571Y-121704819D01*
X141428571Y-121704819D02*
X141619047Y-121704819D01*
X141619047Y-121704819D02*
X141714285Y-121752438D01*
X141714285Y-121752438D02*
X141809523Y-121847676D01*
X141809523Y-121847676D02*
X141857142Y-122038152D01*
X141857142Y-122038152D02*
X141857142Y-122371485D01*
X141857142Y-122371485D02*
X141809523Y-122561961D01*
X141809523Y-122561961D02*
X141714285Y-122657200D01*
X141714285Y-122657200D02*
X141619047Y-122704819D01*
X141619047Y-122704819D02*
X141428571Y-122704819D01*
X142238095Y-121800057D02*
X142285714Y-121752438D01*
X142285714Y-121752438D02*
X142380952Y-121704819D01*
X142380952Y-121704819D02*
X142619047Y-121704819D01*
X142619047Y-121704819D02*
X142714285Y-121752438D01*
X142714285Y-121752438D02*
X142761904Y-121800057D01*
X142761904Y-121800057D02*
X142809523Y-121895295D01*
X142809523Y-121895295D02*
X142809523Y-121990533D01*
X142809523Y-121990533D02*
X142761904Y-122133390D01*
X142761904Y-122133390D02*
X142190476Y-122704819D01*
X142190476Y-122704819D02*
X142809523Y-122704819D01*
X135359580Y-111416666D02*
X135407200Y-111464285D01*
X135407200Y-111464285D02*
X135454819Y-111607142D01*
X135454819Y-111607142D02*
X135454819Y-111702380D01*
X135454819Y-111702380D02*
X135407200Y-111845237D01*
X135407200Y-111845237D02*
X135311961Y-111940475D01*
X135311961Y-111940475D02*
X135216723Y-111988094D01*
X135216723Y-111988094D02*
X135026247Y-112035713D01*
X135026247Y-112035713D02*
X134883390Y-112035713D01*
X134883390Y-112035713D02*
X134692914Y-111988094D01*
X134692914Y-111988094D02*
X134597676Y-111940475D01*
X134597676Y-111940475D02*
X134502438Y-111845237D01*
X134502438Y-111845237D02*
X134454819Y-111702380D01*
X134454819Y-111702380D02*
X134454819Y-111607142D01*
X134454819Y-111607142D02*
X134502438Y-111464285D01*
X134502438Y-111464285D02*
X134550057Y-111416666D01*
X134454819Y-111083332D02*
X134454819Y-110464285D01*
X134454819Y-110464285D02*
X134835771Y-110797618D01*
X134835771Y-110797618D02*
X134835771Y-110654761D01*
X134835771Y-110654761D02*
X134883390Y-110559523D01*
X134883390Y-110559523D02*
X134931009Y-110511904D01*
X134931009Y-110511904D02*
X135026247Y-110464285D01*
X135026247Y-110464285D02*
X135264342Y-110464285D01*
X135264342Y-110464285D02*
X135359580Y-110511904D01*
X135359580Y-110511904D02*
X135407200Y-110559523D01*
X135407200Y-110559523D02*
X135454819Y-110654761D01*
X135454819Y-110654761D02*
X135454819Y-110940475D01*
X135454819Y-110940475D02*
X135407200Y-111035713D01*
X135407200Y-111035713D02*
X135359580Y-111083332D01*
X134261905Y-101254819D02*
X134261905Y-100254819D01*
X134261905Y-100254819D02*
X134500000Y-100254819D01*
X134500000Y-100254819D02*
X134642857Y-100302438D01*
X134642857Y-100302438D02*
X134738095Y-100397676D01*
X134738095Y-100397676D02*
X134785714Y-100492914D01*
X134785714Y-100492914D02*
X134833333Y-100683390D01*
X134833333Y-100683390D02*
X134833333Y-100826247D01*
X134833333Y-100826247D02*
X134785714Y-101016723D01*
X134785714Y-101016723D02*
X134738095Y-101111961D01*
X134738095Y-101111961D02*
X134642857Y-101207200D01*
X134642857Y-101207200D02*
X134500000Y-101254819D01*
X134500000Y-101254819D02*
X134261905Y-101254819D01*
X135166667Y-100254819D02*
X135785714Y-100254819D01*
X135785714Y-100254819D02*
X135452381Y-100635771D01*
X135452381Y-100635771D02*
X135595238Y-100635771D01*
X135595238Y-100635771D02*
X135690476Y-100683390D01*
X135690476Y-100683390D02*
X135738095Y-100731009D01*
X135738095Y-100731009D02*
X135785714Y-100826247D01*
X135785714Y-100826247D02*
X135785714Y-101064342D01*
X135785714Y-101064342D02*
X135738095Y-101159580D01*
X135738095Y-101159580D02*
X135690476Y-101207200D01*
X135690476Y-101207200D02*
X135595238Y-101254819D01*
X135595238Y-101254819D02*
X135309524Y-101254819D01*
X135309524Y-101254819D02*
X135214286Y-101207200D01*
X135214286Y-101207200D02*
X135166667Y-101159580D01*
X122216666Y-118424819D02*
X122216666Y-119139104D01*
X122216666Y-119139104D02*
X122169047Y-119281961D01*
X122169047Y-119281961D02*
X122073809Y-119377200D01*
X122073809Y-119377200D02*
X121930952Y-119424819D01*
X121930952Y-119424819D02*
X121835714Y-119424819D01*
X123216666Y-119424819D02*
X122645238Y-119424819D01*
X122930952Y-119424819D02*
X122930952Y-118424819D01*
X122930952Y-118424819D02*
X122835714Y-118567676D01*
X122835714Y-118567676D02*
X122740476Y-118662914D01*
X122740476Y-118662914D02*
X122645238Y-118710533D01*
X146633333Y-104809580D02*
X146585714Y-104857200D01*
X146585714Y-104857200D02*
X146442857Y-104904819D01*
X146442857Y-104904819D02*
X146347619Y-104904819D01*
X146347619Y-104904819D02*
X146204762Y-104857200D01*
X146204762Y-104857200D02*
X146109524Y-104761961D01*
X146109524Y-104761961D02*
X146061905Y-104666723D01*
X146061905Y-104666723D02*
X146014286Y-104476247D01*
X146014286Y-104476247D02*
X146014286Y-104333390D01*
X146014286Y-104333390D02*
X146061905Y-104142914D01*
X146061905Y-104142914D02*
X146109524Y-104047676D01*
X146109524Y-104047676D02*
X146204762Y-103952438D01*
X146204762Y-103952438D02*
X146347619Y-103904819D01*
X146347619Y-103904819D02*
X146442857Y-103904819D01*
X146442857Y-103904819D02*
X146585714Y-103952438D01*
X146585714Y-103952438D02*
X146633333Y-104000057D01*
X147490476Y-103904819D02*
X147300000Y-103904819D01*
X147300000Y-103904819D02*
X147204762Y-103952438D01*
X147204762Y-103952438D02*
X147157143Y-104000057D01*
X147157143Y-104000057D02*
X147061905Y-104142914D01*
X147061905Y-104142914D02*
X147014286Y-104333390D01*
X147014286Y-104333390D02*
X147014286Y-104714342D01*
X147014286Y-104714342D02*
X147061905Y-104809580D01*
X147061905Y-104809580D02*
X147109524Y-104857200D01*
X147109524Y-104857200D02*
X147204762Y-104904819D01*
X147204762Y-104904819D02*
X147395238Y-104904819D01*
X147395238Y-104904819D02*
X147490476Y-104857200D01*
X147490476Y-104857200D02*
X147538095Y-104809580D01*
X147538095Y-104809580D02*
X147585714Y-104714342D01*
X147585714Y-104714342D02*
X147585714Y-104476247D01*
X147585714Y-104476247D02*
X147538095Y-104381009D01*
X147538095Y-104381009D02*
X147490476Y-104333390D01*
X147490476Y-104333390D02*
X147395238Y-104285771D01*
X147395238Y-104285771D02*
X147204762Y-104285771D01*
X147204762Y-104285771D02*
X147109524Y-104333390D01*
X147109524Y-104333390D02*
X147061905Y-104381009D01*
X147061905Y-104381009D02*
X147014286Y-104476247D01*
X156657142Y-100009580D02*
X156609523Y-100057200D01*
X156609523Y-100057200D02*
X156466666Y-100104819D01*
X156466666Y-100104819D02*
X156371428Y-100104819D01*
X156371428Y-100104819D02*
X156228571Y-100057200D01*
X156228571Y-100057200D02*
X156133333Y-99961961D01*
X156133333Y-99961961D02*
X156085714Y-99866723D01*
X156085714Y-99866723D02*
X156038095Y-99676247D01*
X156038095Y-99676247D02*
X156038095Y-99533390D01*
X156038095Y-99533390D02*
X156085714Y-99342914D01*
X156085714Y-99342914D02*
X156133333Y-99247676D01*
X156133333Y-99247676D02*
X156228571Y-99152438D01*
X156228571Y-99152438D02*
X156371428Y-99104819D01*
X156371428Y-99104819D02*
X156466666Y-99104819D01*
X156466666Y-99104819D02*
X156609523Y-99152438D01*
X156609523Y-99152438D02*
X156657142Y-99200057D01*
X157609523Y-100104819D02*
X157038095Y-100104819D01*
X157323809Y-100104819D02*
X157323809Y-99104819D01*
X157323809Y-99104819D02*
X157228571Y-99247676D01*
X157228571Y-99247676D02*
X157133333Y-99342914D01*
X157133333Y-99342914D02*
X157038095Y-99390533D01*
X158561904Y-100104819D02*
X157990476Y-100104819D01*
X158276190Y-100104819D02*
X158276190Y-99104819D01*
X158276190Y-99104819D02*
X158180952Y-99247676D01*
X158180952Y-99247676D02*
X158085714Y-99342914D01*
X158085714Y-99342914D02*
X157990476Y-99390533D01*
X156083333Y-110954819D02*
X155607143Y-110954819D01*
X155607143Y-110954819D02*
X155607143Y-109954819D01*
X156321429Y-109954819D02*
X156940476Y-109954819D01*
X156940476Y-109954819D02*
X156607143Y-110335771D01*
X156607143Y-110335771D02*
X156750000Y-110335771D01*
X156750000Y-110335771D02*
X156845238Y-110383390D01*
X156845238Y-110383390D02*
X156892857Y-110431009D01*
X156892857Y-110431009D02*
X156940476Y-110526247D01*
X156940476Y-110526247D02*
X156940476Y-110764342D01*
X156940476Y-110764342D02*
X156892857Y-110859580D01*
X156892857Y-110859580D02*
X156845238Y-110907200D01*
X156845238Y-110907200D02*
X156750000Y-110954819D01*
X156750000Y-110954819D02*
X156464286Y-110954819D01*
X156464286Y-110954819D02*
X156369048Y-110907200D01*
X156369048Y-110907200D02*
X156321429Y-110859580D01*
X149423809Y-122228628D02*
X149423809Y-122704819D01*
X149090476Y-121704819D02*
X149423809Y-122228628D01*
X149423809Y-122228628D02*
X149757142Y-121704819D01*
X150042857Y-121800057D02*
X150090476Y-121752438D01*
X150090476Y-121752438D02*
X150185714Y-121704819D01*
X150185714Y-121704819D02*
X150423809Y-121704819D01*
X150423809Y-121704819D02*
X150519047Y-121752438D01*
X150519047Y-121752438D02*
X150566666Y-121800057D01*
X150566666Y-121800057D02*
X150614285Y-121895295D01*
X150614285Y-121895295D02*
X150614285Y-121990533D01*
X150614285Y-121990533D02*
X150566666Y-122133390D01*
X150566666Y-122133390D02*
X149995238Y-122704819D01*
X149995238Y-122704819D02*
X150614285Y-122704819D01*
X152754819Y-92883333D02*
X153469104Y-92883333D01*
X153469104Y-92883333D02*
X153611961Y-92930952D01*
X153611961Y-92930952D02*
X153707200Y-93026190D01*
X153707200Y-93026190D02*
X153754819Y-93169047D01*
X153754819Y-93169047D02*
X153754819Y-93264285D01*
X153754819Y-92407142D02*
X152754819Y-92407142D01*
X152754819Y-92407142D02*
X152754819Y-92026190D01*
X152754819Y-92026190D02*
X152802438Y-91930952D01*
X152802438Y-91930952D02*
X152850057Y-91883333D01*
X152850057Y-91883333D02*
X152945295Y-91835714D01*
X152945295Y-91835714D02*
X153088152Y-91835714D01*
X153088152Y-91835714D02*
X153183390Y-91883333D01*
X153183390Y-91883333D02*
X153231009Y-91930952D01*
X153231009Y-91930952D02*
X153278628Y-92026190D01*
X153278628Y-92026190D02*
X153278628Y-92407142D01*
X153754819Y-90883333D02*
X153754819Y-91454761D01*
X153754819Y-91169047D02*
X152754819Y-91169047D01*
X152754819Y-91169047D02*
X152897676Y-91264285D01*
X152897676Y-91264285D02*
X152992914Y-91359523D01*
X152992914Y-91359523D02*
X153040533Y-91454761D01*
X128963095Y-96703041D02*
X128963095Y-97512564D01*
X128963095Y-97512564D02*
X129010714Y-97607802D01*
X129010714Y-97607802D02*
X129058333Y-97655422D01*
X129058333Y-97655422D02*
X129153571Y-97703041D01*
X129153571Y-97703041D02*
X129344047Y-97703041D01*
X129344047Y-97703041D02*
X129439285Y-97655422D01*
X129439285Y-97655422D02*
X129486904Y-97607802D01*
X129486904Y-97607802D02*
X129534523Y-97512564D01*
X129534523Y-97512564D02*
X129534523Y-96703041D01*
X130534523Y-97703041D02*
X129963095Y-97703041D01*
X130248809Y-97703041D02*
X130248809Y-96703041D01*
X130248809Y-96703041D02*
X130153571Y-96845898D01*
X130153571Y-96845898D02*
X130058333Y-96941136D01*
X130058333Y-96941136D02*
X129963095Y-96988755D01*
X164084819Y-104116666D02*
X163608628Y-104449999D01*
X164084819Y-104688094D02*
X163084819Y-104688094D01*
X163084819Y-104688094D02*
X163084819Y-104307142D01*
X163084819Y-104307142D02*
X163132438Y-104211904D01*
X163132438Y-104211904D02*
X163180057Y-104164285D01*
X163180057Y-104164285D02*
X163275295Y-104116666D01*
X163275295Y-104116666D02*
X163418152Y-104116666D01*
X163418152Y-104116666D02*
X163513390Y-104164285D01*
X163513390Y-104164285D02*
X163561009Y-104211904D01*
X163561009Y-104211904D02*
X163608628Y-104307142D01*
X163608628Y-104307142D02*
X163608628Y-104688094D01*
X164084819Y-103164285D02*
X164084819Y-103735713D01*
X164084819Y-103449999D02*
X163084819Y-103449999D01*
X163084819Y-103449999D02*
X163227676Y-103545237D01*
X163227676Y-103545237D02*
X163322914Y-103640475D01*
X163322914Y-103640475D02*
X163370533Y-103735713D01*
X175107142Y-102109580D02*
X175059523Y-102157200D01*
X175059523Y-102157200D02*
X174916666Y-102204819D01*
X174916666Y-102204819D02*
X174821428Y-102204819D01*
X174821428Y-102204819D02*
X174678571Y-102157200D01*
X174678571Y-102157200D02*
X174583333Y-102061961D01*
X174583333Y-102061961D02*
X174535714Y-101966723D01*
X174535714Y-101966723D02*
X174488095Y-101776247D01*
X174488095Y-101776247D02*
X174488095Y-101633390D01*
X174488095Y-101633390D02*
X174535714Y-101442914D01*
X174535714Y-101442914D02*
X174583333Y-101347676D01*
X174583333Y-101347676D02*
X174678571Y-101252438D01*
X174678571Y-101252438D02*
X174821428Y-101204819D01*
X174821428Y-101204819D02*
X174916666Y-101204819D01*
X174916666Y-101204819D02*
X175059523Y-101252438D01*
X175059523Y-101252438D02*
X175107142Y-101300057D01*
X176059523Y-102204819D02*
X175488095Y-102204819D01*
X175773809Y-102204819D02*
X175773809Y-101204819D01*
X175773809Y-101204819D02*
X175678571Y-101347676D01*
X175678571Y-101347676D02*
X175583333Y-101442914D01*
X175583333Y-101442914D02*
X175488095Y-101490533D01*
X176916666Y-101204819D02*
X176726190Y-101204819D01*
X176726190Y-101204819D02*
X176630952Y-101252438D01*
X176630952Y-101252438D02*
X176583333Y-101300057D01*
X176583333Y-101300057D02*
X176488095Y-101442914D01*
X176488095Y-101442914D02*
X176440476Y-101633390D01*
X176440476Y-101633390D02*
X176440476Y-102014342D01*
X176440476Y-102014342D02*
X176488095Y-102109580D01*
X176488095Y-102109580D02*
X176535714Y-102157200D01*
X176535714Y-102157200D02*
X176630952Y-102204819D01*
X176630952Y-102204819D02*
X176821428Y-102204819D01*
X176821428Y-102204819D02*
X176916666Y-102157200D01*
X176916666Y-102157200D02*
X176964285Y-102109580D01*
X176964285Y-102109580D02*
X177011904Y-102014342D01*
X177011904Y-102014342D02*
X177011904Y-101776247D01*
X177011904Y-101776247D02*
X176964285Y-101681009D01*
X176964285Y-101681009D02*
X176916666Y-101633390D01*
X176916666Y-101633390D02*
X176821428Y-101585771D01*
X176821428Y-101585771D02*
X176630952Y-101585771D01*
X176630952Y-101585771D02*
X176535714Y-101633390D01*
X176535714Y-101633390D02*
X176488095Y-101681009D01*
X176488095Y-101681009D02*
X176440476Y-101776247D01*
X167188095Y-96703041D02*
X167188095Y-97512564D01*
X167188095Y-97512564D02*
X167235714Y-97607802D01*
X167235714Y-97607802D02*
X167283333Y-97655422D01*
X167283333Y-97655422D02*
X167378571Y-97703041D01*
X167378571Y-97703041D02*
X167569047Y-97703041D01*
X167569047Y-97703041D02*
X167664285Y-97655422D01*
X167664285Y-97655422D02*
X167711904Y-97607802D01*
X167711904Y-97607802D02*
X167759523Y-97512564D01*
X167759523Y-97512564D02*
X167759523Y-96703041D01*
X168140476Y-96703041D02*
X168759523Y-96703041D01*
X168759523Y-96703041D02*
X168426190Y-97083993D01*
X168426190Y-97083993D02*
X168569047Y-97083993D01*
X168569047Y-97083993D02*
X168664285Y-97131612D01*
X168664285Y-97131612D02*
X168711904Y-97179231D01*
X168711904Y-97179231D02*
X168759523Y-97274469D01*
X168759523Y-97274469D02*
X168759523Y-97512564D01*
X168759523Y-97512564D02*
X168711904Y-97607802D01*
X168711904Y-97607802D02*
X168664285Y-97655422D01*
X168664285Y-97655422D02*
X168569047Y-97703041D01*
X168569047Y-97703041D02*
X168283333Y-97703041D01*
X168283333Y-97703041D02*
X168188095Y-97655422D01*
X168188095Y-97655422D02*
X168140476Y-97607802D01*
X150066666Y-129279819D02*
X150066666Y-129994104D01*
X150066666Y-129994104D02*
X150019047Y-130136961D01*
X150019047Y-130136961D02*
X149923809Y-130232200D01*
X149923809Y-130232200D02*
X149780952Y-130279819D01*
X149780952Y-130279819D02*
X149685714Y-130279819D01*
X150495238Y-129375057D02*
X150542857Y-129327438D01*
X150542857Y-129327438D02*
X150638095Y-129279819D01*
X150638095Y-129279819D02*
X150876190Y-129279819D01*
X150876190Y-129279819D02*
X150971428Y-129327438D01*
X150971428Y-129327438D02*
X151019047Y-129375057D01*
X151019047Y-129375057D02*
X151066666Y-129470295D01*
X151066666Y-129470295D02*
X151066666Y-129565533D01*
X151066666Y-129565533D02*
X151019047Y-129708390D01*
X151019047Y-129708390D02*
X150447619Y-130279819D01*
X150447619Y-130279819D02*
X151066666Y-130279819D01*
X135389580Y-115691666D02*
X135437200Y-115739285D01*
X135437200Y-115739285D02*
X135484819Y-115882142D01*
X135484819Y-115882142D02*
X135484819Y-115977380D01*
X135484819Y-115977380D02*
X135437200Y-116120237D01*
X135437200Y-116120237D02*
X135341961Y-116215475D01*
X135341961Y-116215475D02*
X135246723Y-116263094D01*
X135246723Y-116263094D02*
X135056247Y-116310713D01*
X135056247Y-116310713D02*
X134913390Y-116310713D01*
X134913390Y-116310713D02*
X134722914Y-116263094D01*
X134722914Y-116263094D02*
X134627676Y-116215475D01*
X134627676Y-116215475D02*
X134532438Y-116120237D01*
X134532438Y-116120237D02*
X134484819Y-115977380D01*
X134484819Y-115977380D02*
X134484819Y-115882142D01*
X134484819Y-115882142D02*
X134532438Y-115739285D01*
X134532438Y-115739285D02*
X134580057Y-115691666D01*
X134580057Y-115310713D02*
X134532438Y-115263094D01*
X134532438Y-115263094D02*
X134484819Y-115167856D01*
X134484819Y-115167856D02*
X134484819Y-114929761D01*
X134484819Y-114929761D02*
X134532438Y-114834523D01*
X134532438Y-114834523D02*
X134580057Y-114786904D01*
X134580057Y-114786904D02*
X134675295Y-114739285D01*
X134675295Y-114739285D02*
X134770533Y-114739285D01*
X134770533Y-114739285D02*
X134913390Y-114786904D01*
X134913390Y-114786904D02*
X135484819Y-115358332D01*
X135484819Y-115358332D02*
X135484819Y-114739285D01*
X140583333Y-132204819D02*
X140250000Y-131728628D01*
X140011905Y-132204819D02*
X140011905Y-131204819D01*
X140011905Y-131204819D02*
X140392857Y-131204819D01*
X140392857Y-131204819D02*
X140488095Y-131252438D01*
X140488095Y-131252438D02*
X140535714Y-131300057D01*
X140535714Y-131300057D02*
X140583333Y-131395295D01*
X140583333Y-131395295D02*
X140583333Y-131538152D01*
X140583333Y-131538152D02*
X140535714Y-131633390D01*
X140535714Y-131633390D02*
X140488095Y-131681009D01*
X140488095Y-131681009D02*
X140392857Y-131728628D01*
X140392857Y-131728628D02*
X140011905Y-131728628D01*
X141488095Y-131204819D02*
X141011905Y-131204819D01*
X141011905Y-131204819D02*
X140964286Y-131681009D01*
X140964286Y-131681009D02*
X141011905Y-131633390D01*
X141011905Y-131633390D02*
X141107143Y-131585771D01*
X141107143Y-131585771D02*
X141345238Y-131585771D01*
X141345238Y-131585771D02*
X141440476Y-131633390D01*
X141440476Y-131633390D02*
X141488095Y-131681009D01*
X141488095Y-131681009D02*
X141535714Y-131776247D01*
X141535714Y-131776247D02*
X141535714Y-132014342D01*
X141535714Y-132014342D02*
X141488095Y-132109580D01*
X141488095Y-132109580D02*
X141440476Y-132157200D01*
X141440476Y-132157200D02*
X141345238Y-132204819D01*
X141345238Y-132204819D02*
X141107143Y-132204819D01*
X141107143Y-132204819D02*
X141011905Y-132157200D01*
X141011905Y-132157200D02*
X140964286Y-132109580D01*
D11*
%TO.C,kibuzzard-69CD7953*%
G36*
X126560151Y-141201939D02*
G01*
X126055305Y-141201939D01*
X124182122Y-141201939D01*
X123762898Y-141201939D01*
X123258051Y-141201939D01*
X123258051Y-139500000D01*
X123762898Y-139500000D01*
X123790765Y-139635703D01*
X123830749Y-139805331D01*
X123862790Y-139932283D01*
X123897524Y-140064351D01*
X123934950Y-140201535D01*
X123974530Y-140341411D01*
X124015725Y-140481556D01*
X124058536Y-140621971D01*
X124122147Y-140821890D01*
X124182122Y-141000000D01*
X124489877Y-141000000D01*
X124536188Y-140870894D01*
X124581422Y-140738826D01*
X124625580Y-140603796D01*
X124667987Y-140468094D01*
X124707971Y-140334006D01*
X124745531Y-140201535D01*
X124797025Y-140008582D01*
X124842462Y-139824717D01*
X124845233Y-139812601D01*
X125059344Y-139812601D01*
X125156274Y-140059774D01*
X125304093Y-140000404D01*
X125459182Y-139914378D01*
X125459182Y-140752827D01*
X125144158Y-140752827D01*
X125144158Y-141000000D01*
X126055305Y-141000000D01*
X126055305Y-140752827D01*
X125757244Y-140752827D01*
X125757244Y-139500000D01*
X125553689Y-139500000D01*
X125449489Y-139594507D01*
X125321056Y-139681745D01*
X125185353Y-139756866D01*
X125059344Y-139812601D01*
X124845233Y-139812601D01*
X124881537Y-139653877D01*
X124913948Y-139500000D01*
X124601347Y-139500000D01*
X124579538Y-139626010D01*
X124552882Y-139771405D01*
X124522591Y-139928615D01*
X124489877Y-140090065D01*
X124454740Y-140252423D01*
X124417179Y-140412359D01*
X124378407Y-140562298D01*
X124339635Y-140694669D01*
X124300559Y-140560481D01*
X124260878Y-140409935D01*
X124222106Y-140250000D01*
X124185757Y-140087641D01*
X124152135Y-139926494D01*
X124121541Y-139770194D01*
X124096097Y-139625707D01*
X124077922Y-139500000D01*
X123762898Y-139500000D01*
X123258051Y-139500000D01*
X123258051Y-139298061D01*
X123762898Y-139298061D01*
X126055305Y-139298061D01*
X126560151Y-139298061D01*
X127131315Y-139298061D01*
X126560151Y-141201939D01*
G37*
%TO.C,kibuzzard-69CD7944*%
G36*
X140995531Y-139058562D02*
G01*
X140490685Y-139058562D01*
X140056921Y-139058562D01*
X138753205Y-139058562D01*
X137611848Y-139058562D01*
X136422026Y-139058562D01*
X135193431Y-139058562D01*
X133860636Y-139058562D01*
X132879215Y-139058562D01*
X131417987Y-139058562D01*
X129033496Y-139058562D01*
X127930911Y-139058562D01*
X126610232Y-139058562D01*
X126011686Y-139058562D01*
X124414756Y-139058562D01*
X123762898Y-139058562D01*
X123258051Y-139058562D01*
X123258051Y-138073910D01*
X123762898Y-138073910D01*
X123773348Y-138250959D01*
X123804699Y-138406502D01*
X123856951Y-138540539D01*
X123930103Y-138653069D01*
X124058267Y-138766155D01*
X124219818Y-138834006D01*
X124414756Y-138856624D01*
X124547127Y-138848445D01*
X124657414Y-138825121D01*
X125018148Y-138825121D01*
X125316210Y-138825121D01*
X125316210Y-138163570D01*
X125713625Y-138163570D01*
X125713625Y-138825121D01*
X126011686Y-138825121D01*
X126011686Y-138779079D01*
X126205547Y-138779079D01*
X126274610Y-138805735D01*
X126375176Y-138831179D01*
X126491492Y-138849354D01*
X126610232Y-138856624D01*
X126748964Y-138847536D01*
X126869522Y-138820275D01*
X126971904Y-138776656D01*
X127056113Y-138718498D01*
X127167583Y-138564620D01*
X127189301Y-138449515D01*
X127424449Y-138449515D01*
X127460798Y-138620355D01*
X127563786Y-138748788D01*
X127723722Y-138828756D01*
X127822167Y-138849657D01*
X127930911Y-138856624D01*
X128064796Y-138846931D01*
X128175660Y-138817851D01*
X128239323Y-138779079D01*
X128628811Y-138779079D01*
X128697874Y-138805735D01*
X128798439Y-138831179D01*
X128914756Y-138849354D01*
X129033496Y-138856624D01*
X129172228Y-138847536D01*
X129292785Y-138820275D01*
X129395168Y-138776656D01*
X129479376Y-138718498D01*
X129590846Y-138564620D01*
X129627195Y-138371971D01*
X129610771Y-138231422D01*
X129561498Y-138113489D01*
X129479376Y-138018174D01*
X129363867Y-137946015D01*
X129214433Y-137897550D01*
X129031072Y-137872779D01*
X129043189Y-137734653D01*
X129055305Y-137572294D01*
X129571460Y-137572294D01*
X129571460Y-137344507D01*
X131098116Y-137344507D01*
X131098116Y-138808158D01*
X131261686Y-138836026D01*
X131417987Y-138844507D01*
X131564291Y-138833905D01*
X131697874Y-138802100D01*
X131816311Y-138747274D01*
X131917179Y-138667609D01*
X131999267Y-138561894D01*
X132061363Y-138428918D01*
X132100438Y-138266862D01*
X132100540Y-138265347D01*
X132254013Y-138265347D01*
X132264917Y-138401656D01*
X132297631Y-138519790D01*
X132350640Y-138620053D01*
X132422429Y-138702746D01*
X132512090Y-138767569D01*
X132618714Y-138814216D01*
X132741392Y-138842387D01*
X132879215Y-138851777D01*
X133075499Y-138833603D01*
X133240281Y-138788772D01*
X133199085Y-138534330D01*
X133062171Y-138573102D01*
X132891331Y-138592488D01*
X132759263Y-138576434D01*
X132653851Y-138528271D01*
X132584788Y-138452242D01*
X132561767Y-138352585D01*
X133300862Y-138352585D01*
X133304497Y-138301696D01*
X133305709Y-138241115D01*
X133291169Y-138065697D01*
X133247551Y-137920705D01*
X133174853Y-137806139D01*
X133074153Y-137723344D01*
X132978692Y-137686187D01*
X133424449Y-137686187D01*
X133476019Y-137854831D01*
X133528952Y-138016660D01*
X133583248Y-138171673D01*
X133638908Y-138319871D01*
X133713625Y-138504712D01*
X133787534Y-138673129D01*
X133860636Y-138825121D01*
X134110232Y-138825121D01*
X134184546Y-138673129D01*
X134262090Y-138504712D01*
X134342866Y-138319871D01*
X134403296Y-138171673D01*
X134461000Y-138016660D01*
X134515978Y-137854831D01*
X134568229Y-137686187D01*
X134265321Y-137686187D01*
X134240180Y-137781300D01*
X134208375Y-137882472D01*
X134172631Y-137986975D01*
X134135677Y-138092084D01*
X134097813Y-138195981D01*
X134059344Y-138296850D01*
X133989069Y-138478595D01*
X133922429Y-138296850D01*
X133887595Y-138195981D01*
X133853366Y-138092084D01*
X133820349Y-137986975D01*
X133789150Y-137882472D01*
X133760980Y-137781300D01*
X133737050Y-137686187D01*
X133424449Y-137686187D01*
X132978692Y-137686187D01*
X132946527Y-137673667D01*
X132791977Y-137657108D01*
X132691412Y-137666801D01*
X132593270Y-137695880D01*
X132501791Y-137744043D01*
X132421218Y-137810985D01*
X132353366Y-137896708D01*
X132300055Y-138001212D01*
X132265523Y-138124192D01*
X132254013Y-138265347D01*
X132100540Y-138265347D01*
X132113463Y-138073910D01*
X132101650Y-137885198D01*
X132066210Y-137726171D01*
X132009566Y-137594709D01*
X131934142Y-137488691D01*
X131839938Y-137407815D01*
X131726953Y-137351777D01*
X131598217Y-137319063D01*
X131456759Y-137308158D01*
X131289554Y-137315428D01*
X131098116Y-137344507D01*
X129571460Y-137344507D01*
X129571460Y-137325121D01*
X128805709Y-137325121D01*
X128796622Y-137510198D01*
X128783900Y-137701939D01*
X128766937Y-137899132D01*
X128745127Y-138100565D01*
X128911727Y-138105715D01*
X129043189Y-138121163D01*
X129218875Y-138179321D01*
X129301266Y-138268982D01*
X129321864Y-138384087D01*
X129309748Y-138464055D01*
X129264917Y-138533118D01*
X129175257Y-138582795D01*
X129031072Y-138602181D01*
X128917785Y-138596729D01*
X128825095Y-138580372D01*
X128689392Y-138531906D01*
X128628811Y-138779079D01*
X128239323Y-138779079D01*
X128336807Y-138719709D01*
X128426468Y-138585218D01*
X128454336Y-138437399D01*
X128440099Y-138328352D01*
X128397389Y-138228998D01*
X128320148Y-138138126D01*
X128202316Y-138054523D01*
X128296824Y-137978494D01*
X128362252Y-137886107D01*
X128400418Y-137784632D01*
X128413140Y-137681341D01*
X128381335Y-137520194D01*
X128285919Y-137395396D01*
X128136585Y-137315428D01*
X127943027Y-137288772D01*
X127818229Y-137299071D01*
X127715240Y-137329968D01*
X127567421Y-137434168D01*
X127486242Y-137575929D01*
X127460798Y-137727383D01*
X127499570Y-137901858D01*
X127555305Y-137981826D01*
X127644966Y-138056947D01*
X127546218Y-138140246D01*
X127477761Y-138235057D01*
X127437777Y-138338954D01*
X127424449Y-138449515D01*
X127189301Y-138449515D01*
X127203932Y-138371971D01*
X127187508Y-138231422D01*
X127138235Y-138113489D01*
X127056113Y-138018174D01*
X126940604Y-137946015D01*
X126791169Y-137897550D01*
X126607809Y-137872779D01*
X126619925Y-137734653D01*
X126632042Y-137572294D01*
X127148197Y-137572294D01*
X127148197Y-137325121D01*
X126382446Y-137325121D01*
X126373358Y-137510198D01*
X126360636Y-137701939D01*
X126343673Y-137899132D01*
X126321864Y-138100565D01*
X126488463Y-138105715D01*
X126619925Y-138121163D01*
X126795612Y-138179321D01*
X126878003Y-138268982D01*
X126898601Y-138384087D01*
X126886484Y-138464055D01*
X126841654Y-138533118D01*
X126751993Y-138582795D01*
X126607809Y-138602181D01*
X126494522Y-138596729D01*
X126401832Y-138580372D01*
X126266129Y-138531906D01*
X126205547Y-138779079D01*
X126011686Y-138779079D01*
X126011686Y-137325121D01*
X125713625Y-137325121D01*
X125713625Y-137916397D01*
X125316210Y-137916397D01*
X125316210Y-137325121D01*
X125018148Y-137325121D01*
X125018148Y-138825121D01*
X124657414Y-138825121D01*
X124663140Y-138823910D01*
X124833980Y-138752423D01*
X124758859Y-138517367D01*
X124636484Y-138570679D01*
X124443835Y-138597334D01*
X124270875Y-138563106D01*
X124154255Y-138460420D01*
X124105117Y-138355816D01*
X124075634Y-138224556D01*
X124065806Y-138066640D01*
X124073984Y-137930937D01*
X124098520Y-137819467D01*
X124183334Y-137660743D01*
X124302074Y-137575929D01*
X124438988Y-137550485D01*
X124619522Y-137575929D01*
X124754013Y-137637722D01*
X124831557Y-137400242D01*
X124781880Y-137371163D01*
X124700701Y-137334814D01*
X124588019Y-137304523D01*
X124443835Y-137291195D01*
X124301771Y-137304221D01*
X124171218Y-137343296D01*
X124054901Y-137407512D01*
X123955547Y-137495961D01*
X123874671Y-137607734D01*
X123813786Y-137741922D01*
X123775620Y-137897617D01*
X123762898Y-138073910D01*
X123258051Y-138073910D01*
X123258051Y-137194265D01*
X134752397Y-137194265D01*
X134752397Y-138791195D01*
X134844481Y-138815428D01*
X134955951Y-138834814D01*
X135075903Y-138847536D01*
X135193431Y-138851777D01*
X135317018Y-138841175D01*
X135426064Y-138809370D01*
X135519966Y-138758179D01*
X135598116Y-138689418D01*
X135659909Y-138603695D01*
X135704740Y-138501616D01*
X135732001Y-138384996D01*
X135741089Y-138255654D01*
X135740951Y-138253231D01*
X135884061Y-138253231D01*
X135893754Y-138382573D01*
X135922833Y-138499192D01*
X135969784Y-138601878D01*
X136033092Y-138689418D01*
X136111242Y-138760299D01*
X136202720Y-138813005D01*
X136306618Y-138845719D01*
X136422026Y-138856624D01*
X136537434Y-138845719D01*
X136641331Y-138813005D01*
X136732506Y-138760299D01*
X136809748Y-138689418D01*
X136872147Y-138601878D01*
X136918795Y-138499192D01*
X136924535Y-138476171D01*
X137132042Y-138476171D01*
X137165967Y-138651858D01*
X137262898Y-138768174D01*
X137414352Y-138832391D01*
X137611848Y-138851777D01*
X137763908Y-138846931D01*
X137900216Y-138832391D01*
X138094077Y-138798465D01*
X138094077Y-138119952D01*
X138069845Y-137927302D01*
X137989877Y-137781906D01*
X137956542Y-137761309D01*
X138452720Y-137761309D01*
X138452720Y-138825121D01*
X138753205Y-138825121D01*
X138753205Y-138262924D01*
X139516533Y-138262924D01*
X139531746Y-138432553D01*
X139577384Y-138576333D01*
X139653447Y-138694265D01*
X139759128Y-138781772D01*
X139893620Y-138834276D01*
X140056921Y-138851777D01*
X140172026Y-138847536D01*
X140289554Y-138834814D01*
X140399207Y-138815428D01*
X140490685Y-138791195D01*
X140490685Y-137143376D01*
X140192623Y-137194265D01*
X140192623Y-137712843D01*
X140090846Y-137675283D01*
X139972106Y-137661955D01*
X139834115Y-137679860D01*
X139720625Y-137733576D01*
X139631638Y-137823102D01*
X139567691Y-137943592D01*
X139529322Y-138090199D01*
X139516533Y-138262924D01*
X138753205Y-138262924D01*
X138753205Y-137979402D01*
X138876791Y-137956381D01*
X139000378Y-137950323D01*
X139065806Y-137952746D01*
X139145774Y-137961228D01*
X139226953Y-137974556D01*
X139296016Y-137989095D01*
X139349328Y-137712843D01*
X139256032Y-137689822D01*
X139153043Y-137675283D01*
X139057324Y-137666801D01*
X138988261Y-137664378D01*
X138831658Y-137671042D01*
X138696258Y-137691034D01*
X138572975Y-137721931D01*
X138452720Y-137761309D01*
X137956542Y-137761309D01*
X137840846Y-137689822D01*
X137735737Y-137665287D01*
X137607001Y-137657108D01*
X137499772Y-137661046D01*
X137396177Y-137672859D01*
X137238665Y-137707997D01*
X137279861Y-137947900D01*
X137407082Y-137918821D01*
X137570652Y-137906704D01*
X137682123Y-137920941D01*
X137754820Y-137963651D01*
X137808132Y-138105412D01*
X137808132Y-138141761D01*
X137711807Y-138127221D01*
X137602155Y-138122375D01*
X137425257Y-138140549D01*
X137275014Y-138199919D01*
X137170814Y-138308966D01*
X137132042Y-138476171D01*
X136924535Y-138476171D01*
X136947874Y-138382573D01*
X136957567Y-138253231D01*
X136947874Y-138125707D01*
X136918795Y-138009693D01*
X136871844Y-137907310D01*
X136808536Y-137820679D01*
X136730386Y-137751010D01*
X136638908Y-137699515D01*
X136535616Y-137667710D01*
X136422026Y-137657108D01*
X136309950Y-137667710D01*
X136206355Y-137699515D01*
X136113968Y-137751010D01*
X136035515Y-137820679D01*
X135971904Y-137907310D01*
X135924045Y-138009693D01*
X135894057Y-138125707D01*
X135884061Y-138253231D01*
X135740951Y-138253231D01*
X135733819Y-138128433D01*
X135712009Y-138013328D01*
X135675963Y-137911854D01*
X135625984Y-137825525D01*
X135484223Y-137704362D01*
X135392744Y-137672557D01*
X135287938Y-137661955D01*
X135171622Y-137672859D01*
X135050459Y-137712843D01*
X135050459Y-137143376D01*
X134752397Y-137194265D01*
X123258051Y-137194265D01*
X123258051Y-136941438D01*
X123762898Y-136941438D01*
X140490685Y-136941438D01*
X140995531Y-136941438D01*
X141630669Y-136941438D01*
X140995531Y-139058562D01*
G37*
G36*
X131645774Y-137609855D02*
G01*
X131745127Y-137722536D01*
X131796016Y-137884895D01*
X131810555Y-138073910D01*
X131806012Y-138180836D01*
X131792381Y-138278675D01*
X131731799Y-138439822D01*
X131620329Y-138546446D01*
X131449489Y-138585218D01*
X131422833Y-138585218D01*
X131396177Y-138582795D01*
X131396177Y-137574717D01*
X131439796Y-137568659D01*
X131483415Y-137567447D01*
X131645774Y-137609855D01*
G37*
G36*
X136526529Y-137939721D02*
G01*
X136597712Y-138009693D01*
X136638605Y-138117831D01*
X136652236Y-138255654D01*
X136637393Y-138393780D01*
X136592866Y-138502827D01*
X136519259Y-138573708D01*
X136417179Y-138597334D01*
X136312676Y-138573708D01*
X136241492Y-138502827D01*
X136200600Y-138393780D01*
X136186969Y-138255654D01*
X136201812Y-138117831D01*
X136246339Y-138009693D01*
X136319946Y-137939721D01*
X136422026Y-137916397D01*
X136526529Y-137939721D01*
G37*
G36*
X135320349Y-137940024D02*
G01*
X135386081Y-138003635D01*
X135425156Y-138107229D01*
X135438181Y-138248384D01*
X135421218Y-138409834D01*
X135370329Y-138516155D01*
X135290362Y-138575222D01*
X135186161Y-138594911D01*
X135121945Y-138592488D01*
X135050459Y-138582795D01*
X135050459Y-137964863D01*
X135131638Y-137932149D01*
X135227357Y-137918821D01*
X135320349Y-137940024D01*
G37*
G36*
X140115079Y-137932149D02*
G01*
X140192623Y-137964863D01*
X140192623Y-138585218D01*
X140127195Y-138592488D01*
X140059344Y-138594911D01*
X139950600Y-138570679D01*
X139876387Y-138497981D01*
X139833677Y-138387116D01*
X139819441Y-138248384D01*
X139831557Y-138107229D01*
X139867906Y-138003635D01*
X139930911Y-137940024D01*
X140022995Y-137918821D01*
X140115079Y-137932149D01*
G37*
G36*
X127993916Y-138220517D02*
G01*
X128096904Y-138281099D01*
X128155063Y-138347738D01*
X128173237Y-138432553D01*
X128109021Y-138557351D01*
X127935757Y-138609451D01*
X127772187Y-138559774D01*
X127703124Y-138413166D01*
X127739473Y-138281099D01*
X127843673Y-138156300D01*
X127993916Y-138220517D01*
G37*
G36*
X128075095Y-137578352D02*
G01*
X128132042Y-137705574D01*
X128100539Y-137835218D01*
X127993916Y-137957593D01*
X127874570Y-137900646D01*
X127797631Y-137846123D01*
X127741896Y-137707997D01*
X127801266Y-137579564D01*
X127938181Y-137535945D01*
X128075095Y-137578352D01*
G37*
G36*
X132898601Y-137927302D02*
G01*
X132966452Y-137981826D01*
X133005224Y-138058158D01*
X133017341Y-138146607D01*
X132561767Y-138146607D01*
X132582365Y-138056947D01*
X132625984Y-137979402D01*
X132696258Y-137926090D01*
X132796824Y-137906704D01*
X132898601Y-137927302D01*
G37*
G36*
X137737858Y-138334410D02*
G01*
X137808132Y-138342892D01*
X137808132Y-138604604D01*
X137728165Y-138610662D01*
X137633657Y-138611874D01*
X137483415Y-138579160D01*
X137425257Y-138468901D01*
X137444643Y-138398627D01*
X137496743Y-138357431D01*
X137573076Y-138336834D01*
X137662736Y-138330775D01*
X137737858Y-138334410D01*
G37*
%TO.C,kibuzzard-69CD792A*%
G36*
X138895100Y-136661416D02*
G01*
X138221971Y-136661416D01*
X135814863Y-136661416D01*
X134050727Y-136661416D01*
X132567690Y-136661416D01*
X131152504Y-136661416D01*
X129414216Y-136661416D01*
X128066882Y-136661416D01*
X126105654Y-136661416D01*
X124486914Y-136661416D01*
X123931179Y-136661416D01*
X123258051Y-136661416D01*
X123258051Y-134376010D01*
X123931179Y-134376010D01*
X123931179Y-136317851D01*
X124070921Y-136343296D01*
X124212278Y-136361470D01*
X124352019Y-136372375D01*
X124486914Y-136376010D01*
X124646446Y-136368336D01*
X124795477Y-136345315D01*
X124929564Y-136304120D01*
X125011493Y-136259693D01*
X125546688Y-136259693D01*
X125769628Y-136340468D01*
X125923102Y-136374394D01*
X126105654Y-136385703D01*
X126284168Y-136376817D01*
X126431987Y-136350162D01*
X126646850Y-136253231D01*
X126764782Y-136107835D01*
X126800323Y-135930129D01*
X126751858Y-135728191D01*
X126627464Y-135592488D01*
X126457835Y-135503635D01*
X126276898Y-135439015D01*
X126162197Y-135398627D01*
X126068498Y-135355008D01*
X126003877Y-135304927D01*
X125979645Y-135241922D01*
X126032956Y-135162763D01*
X126238126Y-135125606D01*
X126499838Y-135162763D01*
X126671082Y-135216074D01*
X126732472Y-134880048D01*
X126566478Y-134831583D01*
X127104039Y-134831583D01*
X127104039Y-135161147D01*
X127524071Y-135161147D01*
X127524071Y-135720113D01*
X127530533Y-135869548D01*
X127549919Y-136001212D01*
X127638772Y-136209612D01*
X127806785Y-136340468D01*
X127924313Y-136374394D01*
X128066882Y-136385703D01*
X128265590Y-136364701D01*
X128496607Y-136285541D01*
X128444911Y-135965670D01*
X128270436Y-136025444D01*
X128137964Y-136039984D01*
X127971567Y-135973748D01*
X127921486Y-135771809D01*
X127921486Y-135600565D01*
X128693700Y-135600565D01*
X128713983Y-135826737D01*
X128774834Y-136018444D01*
X128876252Y-136175687D01*
X129017160Y-136292362D01*
X129196482Y-136362368D01*
X129414216Y-136385703D01*
X129567690Y-136380048D01*
X129724394Y-136363086D01*
X129870598Y-136337237D01*
X129992569Y-136304927D01*
X129992569Y-135603796D01*
X130318901Y-135603796D01*
X130333441Y-135785541D01*
X130377060Y-135943053D01*
X130447738Y-136076737D01*
X130543457Y-136186995D01*
X130663005Y-136273425D01*
X130805170Y-136335622D01*
X130968740Y-136373183D01*
X131152504Y-136385703D01*
X131414216Y-136361470D01*
X131633926Y-136301696D01*
X131627125Y-136259693D01*
X132008724Y-136259693D01*
X132231664Y-136340468D01*
X132385137Y-136374394D01*
X132567690Y-136385703D01*
X132746204Y-136376817D01*
X132894023Y-136350162D01*
X133108885Y-136253231D01*
X133226817Y-136107835D01*
X133262359Y-135930129D01*
X133213893Y-135728191D01*
X133089499Y-135592488D01*
X132919871Y-135503635D01*
X132738934Y-135439015D01*
X132624233Y-135398627D01*
X132530533Y-135355008D01*
X132465913Y-135304927D01*
X132441680Y-135241922D01*
X132494992Y-135162763D01*
X132700162Y-135125606D01*
X132961874Y-135162763D01*
X133133118Y-135216074D01*
X133194507Y-134880048D01*
X132973183Y-134815428D01*
X132840307Y-134798465D01*
X132696931Y-134792811D01*
X132537803Y-134802100D01*
X132402908Y-134829968D01*
X132200969Y-134933360D01*
X132084653Y-135085218D01*
X132047496Y-135267771D01*
X132095961Y-135466478D01*
X132218740Y-135597334D01*
X132383522Y-135682956D01*
X132561228Y-135742730D01*
X132679160Y-135781502D01*
X132779321Y-135821890D01*
X132847173Y-135871971D01*
X132871405Y-135943053D01*
X132793861Y-136028675D01*
X132570921Y-136049677D01*
X132310824Y-136010905D01*
X132070113Y-135926898D01*
X132008724Y-136259693D01*
X131627125Y-136259693D01*
X131578998Y-135962439D01*
X131396446Y-136014136D01*
X131168659Y-136039984D01*
X130992569Y-136018578D01*
X130852019Y-135954362D01*
X130759935Y-135852989D01*
X130729241Y-135720113D01*
X131714701Y-135720113D01*
X131719548Y-135652262D01*
X131721163Y-135571486D01*
X131701777Y-135337596D01*
X131643619Y-135144274D01*
X131546688Y-134991519D01*
X131412421Y-134881125D01*
X131242255Y-134814890D01*
X131036187Y-134792811D01*
X130902100Y-134805735D01*
X130771244Y-134844507D01*
X130649273Y-134908724D01*
X130541842Y-134997981D01*
X130451373Y-135112278D01*
X130380291Y-135251616D01*
X130334249Y-135415590D01*
X130318901Y-135603796D01*
X129992569Y-135603796D01*
X129992569Y-134376010D01*
X133624233Y-134376010D01*
X133624233Y-136327544D01*
X133842326Y-136364701D01*
X134050727Y-136376010D01*
X134245800Y-136361874D01*
X134423910Y-136319467D01*
X134581826Y-136246365D01*
X134589496Y-136240307D01*
X135194507Y-136240307D01*
X135417447Y-136338853D01*
X135591115Y-136378837D01*
X135814863Y-136392165D01*
X136041572Y-136375112D01*
X136131654Y-136350162D01*
X136755089Y-136350162D01*
X137120194Y-136350162D01*
X137104039Y-134796042D01*
X137339903Y-135642569D01*
X137630695Y-135642569D01*
X137876252Y-134796042D01*
X137856866Y-136350162D01*
X138221971Y-136350162D01*
X138214701Y-136094507D01*
X138205816Y-135844507D01*
X138194911Y-135598142D01*
X138181583Y-135353393D01*
X138165428Y-135108239D01*
X138146042Y-134860662D01*
X138124637Y-134608643D01*
X138102423Y-134350162D01*
X137772859Y-134350162D01*
X137714701Y-134521405D01*
X137643619Y-134742730D01*
X137562843Y-134988288D01*
X137482068Y-135235460D01*
X137407754Y-135002827D01*
X137330210Y-134754039D01*
X137257512Y-134524637D01*
X137200969Y-134350162D01*
X136871405Y-134350162D01*
X136850000Y-134569063D01*
X136831018Y-134805735D01*
X136814459Y-135055331D01*
X136800323Y-135313005D01*
X136787803Y-135575525D01*
X136776090Y-135839661D01*
X136765186Y-136099758D01*
X136755089Y-136350162D01*
X136131654Y-136350162D01*
X136226279Y-136323954D01*
X136368982Y-136238691D01*
X136505897Y-136053312D01*
X136551535Y-135804120D01*
X136537803Y-135653473D01*
X136496607Y-135531099D01*
X136356058Y-135350162D01*
X136168659Y-135233845D01*
X135973183Y-135154685D01*
X135848788Y-135106220D01*
X135735703Y-135046446D01*
X135653312Y-134968901D01*
X135621002Y-134867124D01*
X135656184Y-134739679D01*
X135761730Y-134663211D01*
X135937641Y-134637722D01*
X136165428Y-134670032D01*
X136344750Y-134747577D01*
X136461066Y-134440630D01*
X136230048Y-134346931D01*
X136081018Y-134315428D01*
X135908562Y-134304927D01*
X135710573Y-134322518D01*
X135543098Y-134375292D01*
X135406139Y-134463247D01*
X135269225Y-134652262D01*
X135223586Y-134902666D01*
X135275283Y-135140145D01*
X135406139Y-135300081D01*
X135582229Y-135406704D01*
X135769628Y-135481018D01*
X135905331Y-135537561D01*
X136028110Y-135605412D01*
X136118578Y-135691034D01*
X136154120Y-135800889D01*
X136139580Y-135896204D01*
X136086268Y-135980210D01*
X135981260Y-136038368D01*
X135814863Y-136059370D01*
X135653716Y-136048061D01*
X135519225Y-136014136D01*
X135310824Y-135917205D01*
X135194507Y-136240307D01*
X134589496Y-136240307D01*
X134716317Y-136140145D01*
X134825767Y-135999192D01*
X134908562Y-135821890D01*
X134960662Y-135605816D01*
X134978029Y-135348546D01*
X134962278Y-135096931D01*
X134915024Y-134884895D01*
X134839499Y-134709612D01*
X134738934Y-134568255D01*
X134613328Y-134460420D01*
X134462682Y-134385703D01*
X134291034Y-134342084D01*
X134102423Y-134327544D01*
X133879483Y-134337237D01*
X133624233Y-134376010D01*
X129992569Y-134376010D01*
X129992569Y-134107835D01*
X129595153Y-134175687D01*
X129595153Y-134867124D01*
X129459451Y-134817044D01*
X129301131Y-134799273D01*
X129117142Y-134823147D01*
X128965823Y-134894768D01*
X128847173Y-135014136D01*
X128761910Y-135174789D01*
X128710752Y-135370266D01*
X128693700Y-135600565D01*
X127921486Y-135600565D01*
X127921486Y-134831583D01*
X127653312Y-134831583D01*
X127104039Y-134831583D01*
X126566478Y-134831583D01*
X126511147Y-134815428D01*
X126378271Y-134798465D01*
X126234895Y-134792811D01*
X126075767Y-134802100D01*
X125940872Y-134829968D01*
X125738934Y-134933360D01*
X125622617Y-135085218D01*
X125585460Y-135267771D01*
X125633926Y-135466478D01*
X125756704Y-135597334D01*
X125921486Y-135682956D01*
X126099192Y-135742730D01*
X126217124Y-135781502D01*
X126317286Y-135821890D01*
X126385137Y-135871971D01*
X126409370Y-135943053D01*
X126331826Y-136028675D01*
X126108885Y-136049677D01*
X125848788Y-136010905D01*
X125608078Y-135926898D01*
X125546688Y-136259693D01*
X125011493Y-136259693D01*
X125044265Y-136241922D01*
X125210662Y-136048061D01*
X125256704Y-135911955D01*
X125272052Y-135745961D01*
X125253877Y-135610258D01*
X125199354Y-135481018D01*
X125093942Y-135367932D01*
X124923102Y-135280695D01*
X125108885Y-135106220D01*
X125160985Y-134988288D01*
X125178352Y-134854200D01*
X125149273Y-134666801D01*
X125039418Y-134497173D01*
X124854613Y-134395396D01*
X127404523Y-134395396D01*
X127477221Y-134579564D01*
X127653312Y-134647415D01*
X127831018Y-134579564D01*
X127905331Y-134395396D01*
X127831018Y-134207997D01*
X127653312Y-134140145D01*
X127477221Y-134207997D01*
X127404523Y-134395396D01*
X124854613Y-134395396D01*
X124816478Y-134374394D01*
X124653312Y-134339257D01*
X124448142Y-134327544D01*
X124179968Y-134342084D01*
X123931179Y-134376010D01*
X123258051Y-134376010D01*
X123258051Y-133838584D01*
X123931179Y-133838584D01*
X138221971Y-133838584D01*
X138895100Y-133838584D01*
X139741949Y-133838584D01*
X138895100Y-136661416D01*
G37*
G36*
X134354443Y-134729806D02*
G01*
X134486914Y-134880048D01*
X134554766Y-135096527D01*
X134574152Y-135348546D01*
X134568094Y-135491115D01*
X134549919Y-135621567D01*
X134469144Y-135836430D01*
X134320517Y-135978595D01*
X134092730Y-136030291D01*
X134057189Y-136030291D01*
X134021648Y-136027060D01*
X134021648Y-134682956D01*
X134079806Y-134674879D01*
X134137964Y-134673263D01*
X134354443Y-134729806D01*
G37*
G36*
X129491761Y-135159532D02*
G01*
X129595153Y-135203150D01*
X129595153Y-136030291D01*
X129507916Y-136039984D01*
X129417447Y-136043215D01*
X129272456Y-136010905D01*
X129173506Y-135913974D01*
X129116559Y-135766155D01*
X129097577Y-135581179D01*
X129113732Y-135392973D01*
X129162197Y-135254847D01*
X129246204Y-135170032D01*
X129368982Y-135141761D01*
X129491761Y-135159532D01*
G37*
G36*
X124789015Y-135537561D02*
G01*
X124881099Y-135745961D01*
X124848788Y-135889742D01*
X124766397Y-135976979D01*
X124651696Y-136018982D01*
X124519225Y-136030291D01*
X124420679Y-136027060D01*
X124328595Y-136017367D01*
X124328595Y-135474556D01*
X124541842Y-135474556D01*
X124789015Y-135537561D01*
G37*
G36*
X131178352Y-135153069D02*
G01*
X131268821Y-135225767D01*
X131320517Y-135327544D01*
X131336672Y-135445477D01*
X130729241Y-135445477D01*
X130756704Y-135325929D01*
X130814863Y-135222536D01*
X130908562Y-135151454D01*
X131042649Y-135125606D01*
X131178352Y-135153069D01*
G37*
G36*
X124616155Y-134681341D02*
G01*
X124706624Y-134713651D01*
X124768013Y-134781502D01*
X124790630Y-134896204D01*
X124713086Y-135078756D01*
X124483683Y-135144992D01*
X124328595Y-135144992D01*
X124328595Y-134686187D01*
X124415832Y-134676494D01*
X124509532Y-134673263D01*
X124616155Y-134681341D01*
G37*
%TO.C,kibuzzard-69CD7919*%
G36*
X175452089Y-117338665D02*
G01*
X175014556Y-117338665D01*
X174497916Y-117338665D01*
X173607447Y-117338665D01*
X172427157Y-117338665D01*
X171421179Y-117338665D01*
X170982246Y-117338665D01*
X170544712Y-117338665D01*
X170544712Y-116665913D01*
X170982246Y-116665913D01*
X170987496Y-116774071D01*
X171003247Y-116871729D01*
X171031599Y-116957310D01*
X171074653Y-117029241D01*
X171210113Y-117128998D01*
X171305408Y-117154988D01*
X171421179Y-117163651D01*
X171538788Y-117154988D01*
X171635396Y-117128998D01*
X171713102Y-117086733D01*
X171722836Y-117077544D01*
X172063829Y-117077544D01*
X172208740Y-117130048D01*
X172308498Y-117152100D01*
X172427157Y-117159451D01*
X172543191Y-117153675D01*
X172639273Y-117136349D01*
X172778934Y-117073344D01*
X172855590Y-116978837D01*
X172878691Y-116863328D01*
X172847189Y-116732068D01*
X172773071Y-116651212D01*
X173065606Y-116651212D01*
X173075057Y-116769346D01*
X173103409Y-116871729D01*
X173149350Y-116958623D01*
X173211567Y-117030291D01*
X173289273Y-117086470D01*
X173381680Y-117126898D01*
X173488001Y-117151313D01*
X173607447Y-117159451D01*
X173777561Y-117143700D01*
X173920372Y-117104847D01*
X173884669Y-116884330D01*
X173766010Y-116917932D01*
X173617948Y-116934733D01*
X173503489Y-116920820D01*
X173412132Y-116879079D01*
X173352278Y-116813187D01*
X173332326Y-116726817D01*
X173972876Y-116726817D01*
X173976026Y-116682714D01*
X173977076Y-116630210D01*
X173964475Y-116478182D01*
X173926672Y-116352522D01*
X173863667Y-116253231D01*
X173816412Y-116214378D01*
X174237496Y-116214378D01*
X174237496Y-117136349D01*
X174497916Y-117136349D01*
X174497916Y-116403393D01*
X174605024Y-116383441D01*
X174712132Y-116378191D01*
X174768837Y-116380291D01*
X174838142Y-116387641D01*
X174908498Y-116399192D01*
X174968352Y-116411793D01*
X175014556Y-116172375D01*
X174933700Y-116152423D01*
X174844443Y-116139822D01*
X174761486Y-116132472D01*
X174701632Y-116130372D01*
X174565909Y-116136147D01*
X174448562Y-116153473D01*
X174341716Y-116180250D01*
X174237496Y-116214378D01*
X173816412Y-116214378D01*
X173776394Y-116181475D01*
X173665785Y-116138422D01*
X173531842Y-116124071D01*
X173444685Y-116132472D01*
X173359628Y-116157674D01*
X173280347Y-116199414D01*
X173210517Y-116257431D01*
X173151712Y-116331725D01*
X173105509Y-116422294D01*
X173075582Y-116528877D01*
X173065606Y-116651212D01*
X172773071Y-116651212D01*
X172766333Y-116643861D01*
X172656074Y-116586107D01*
X172538465Y-116544103D01*
X172463910Y-116517851D01*
X172403005Y-116489499D01*
X172361002Y-116456947D01*
X172345250Y-116415994D01*
X172379903Y-116364540D01*
X172513263Y-116340388D01*
X172683376Y-116364540D01*
X172794685Y-116399192D01*
X172834588Y-116180775D01*
X172690727Y-116138772D01*
X172604358Y-116127746D01*
X172511163Y-116124071D01*
X172407730Y-116130109D01*
X172320048Y-116148223D01*
X172188788Y-116215428D01*
X172113183Y-116314136D01*
X172089031Y-116432795D01*
X172120533Y-116561955D01*
X172200339Y-116647011D01*
X172307447Y-116702666D01*
X172422956Y-116741519D01*
X172499612Y-116766721D01*
X172564717Y-116792973D01*
X172608821Y-116825525D01*
X172624572Y-116871729D01*
X172574168Y-116927383D01*
X172429257Y-116941034D01*
X172260194Y-116915832D01*
X172103732Y-116861228D01*
X172063829Y-117077544D01*
X171722836Y-117077544D01*
X171774006Y-117029241D01*
X171818635Y-116957310D01*
X171847512Y-116871729D01*
X171863263Y-116774071D01*
X171868514Y-116665913D01*
X171868514Y-115836349D01*
X171610194Y-115836349D01*
X171610194Y-116647011D01*
X171601793Y-116784572D01*
X171572391Y-116874879D01*
X171515687Y-116924233D01*
X171425380Y-116938934D01*
X171335073Y-116924233D01*
X171279418Y-116875929D01*
X171251066Y-116786672D01*
X171242666Y-116649111D01*
X171242666Y-115836349D01*
X170982246Y-115836349D01*
X170982246Y-116665913D01*
X170544712Y-116665913D01*
X170544712Y-115661335D01*
X170982246Y-115661335D01*
X175014556Y-115661335D01*
X175452089Y-115661335D01*
X175955288Y-115661335D01*
X175452089Y-117338665D01*
G37*
G36*
X173624249Y-116358239D02*
G01*
X173683053Y-116405493D01*
X173716656Y-116471648D01*
X173727157Y-116548304D01*
X173332326Y-116548304D01*
X173350178Y-116470598D01*
X173387981Y-116403393D01*
X173448885Y-116357189D01*
X173536042Y-116340388D01*
X173624249Y-116358239D01*
G37*
%TO.C,kibuzzard-69CD7907*%
G36*
X145973454Y-113593915D02*
G01*
X145535921Y-113593915D01*
X145220897Y-113593915D01*
X144101511Y-113593915D01*
X142921220Y-113593915D01*
X142001349Y-113593915D01*
X141371300Y-113593915D01*
X140457730Y-113593915D01*
X140020197Y-113593915D01*
X140020197Y-112114701D01*
X140457730Y-112114701D01*
X140457730Y-113395800D01*
X140716050Y-113395800D01*
X140716050Y-112916963D01*
X140850460Y-112916963D01*
X140921603Y-113035884D01*
X140988021Y-113153231D01*
X141048138Y-113272153D01*
X141100380Y-113395800D01*
X141371300Y-113395800D01*
X141311446Y-113258239D01*
X141238990Y-113113328D01*
X141161284Y-112974717D01*
X141121180Y-112910662D01*
X141459507Y-112910662D01*
X141468958Y-113028796D01*
X141497310Y-113131179D01*
X141543251Y-113218074D01*
X141605468Y-113289742D01*
X141683174Y-113345921D01*
X141775582Y-113386349D01*
X141881902Y-113410763D01*
X142001349Y-113418901D01*
X142171462Y-113403150D01*
X142314273Y-113364297D01*
X142309853Y-113336995D01*
X142557892Y-113336995D01*
X142702803Y-113389499D01*
X142802561Y-113411551D01*
X142921220Y-113418901D01*
X143037254Y-113413126D01*
X143133336Y-113395800D01*
X143272997Y-113332795D01*
X143349653Y-113238288D01*
X143372754Y-113122779D01*
X143341252Y-112991519D01*
X143267133Y-112910662D01*
X143559669Y-112910662D01*
X143569120Y-113028796D01*
X143597472Y-113131179D01*
X143643413Y-113218074D01*
X143705630Y-113289742D01*
X143783336Y-113345921D01*
X143875743Y-113386349D01*
X143982064Y-113410763D01*
X144101511Y-113418901D01*
X144271624Y-113403150D01*
X144414435Y-113364297D01*
X144378732Y-113143780D01*
X144260073Y-113177383D01*
X144112011Y-113194184D01*
X143997553Y-113180271D01*
X143906195Y-113138530D01*
X143846341Y-113072637D01*
X143826389Y-112986268D01*
X144466939Y-112986268D01*
X144470089Y-112942165D01*
X144471139Y-112889661D01*
X144458538Y-112737632D01*
X144420735Y-112611973D01*
X144357730Y-112512682D01*
X144270457Y-112440926D01*
X144187726Y-112408724D01*
X144620250Y-112408724D01*
X144620250Y-112622940D01*
X144844968Y-112622940D01*
X144844968Y-113028271D01*
X144851268Y-113140368D01*
X144870170Y-113228837D01*
X144943675Y-113347496D01*
X145061284Y-113404200D01*
X145220897Y-113418901D01*
X145381559Y-113406300D01*
X145535921Y-113364297D01*
X145500218Y-113141680D01*
X145434063Y-113168982D01*
X145375258Y-113184733D01*
X145316454Y-113192084D01*
X145250299Y-113194184D01*
X145189394Y-113187884D01*
X145143191Y-113162682D01*
X145113788Y-113110178D01*
X145103288Y-113021971D01*
X145103288Y-112622940D01*
X145517019Y-112622940D01*
X145517019Y-112408724D01*
X145103288Y-112408724D01*
X145103288Y-112118901D01*
X144844968Y-112160905D01*
X144844968Y-112408724D01*
X144620250Y-112408724D01*
X144187726Y-112408724D01*
X144159848Y-112397873D01*
X144025905Y-112383522D01*
X143938748Y-112391922D01*
X143853691Y-112417124D01*
X143774410Y-112458865D01*
X143704580Y-112516882D01*
X143645775Y-112591175D01*
X143599572Y-112681745D01*
X143569645Y-112788328D01*
X143559669Y-112910662D01*
X143267133Y-112910662D01*
X143260396Y-112903312D01*
X143150137Y-112845557D01*
X143032528Y-112803554D01*
X142957973Y-112777302D01*
X142897068Y-112748950D01*
X142855065Y-112716397D01*
X142839313Y-112675444D01*
X142873966Y-112623990D01*
X143007326Y-112599838D01*
X143177439Y-112623990D01*
X143288748Y-112658643D01*
X143328651Y-112440226D01*
X143184790Y-112398223D01*
X143098421Y-112387197D01*
X143005226Y-112383522D01*
X142901793Y-112389560D01*
X142814111Y-112407674D01*
X142682851Y-112474879D01*
X142607246Y-112573586D01*
X142583094Y-112692246D01*
X142614596Y-112821405D01*
X142694402Y-112906462D01*
X142801511Y-112962116D01*
X142917019Y-113000969D01*
X142993675Y-113026171D01*
X143058780Y-113052423D01*
X143102884Y-113084976D01*
X143118635Y-113131179D01*
X143068231Y-113186834D01*
X142923320Y-113200485D01*
X142754257Y-113175283D01*
X142597795Y-113120679D01*
X142557892Y-113336995D01*
X142309853Y-113336995D01*
X142278570Y-113143780D01*
X142159911Y-113177383D01*
X142011850Y-113194184D01*
X141897391Y-113180271D01*
X141806034Y-113138530D01*
X141746179Y-113072637D01*
X141726228Y-112986268D01*
X142366777Y-112986268D01*
X142369927Y-112942165D01*
X142370977Y-112889661D01*
X142358376Y-112737632D01*
X142320574Y-112611973D01*
X142257569Y-112512682D01*
X142170295Y-112440926D01*
X142059687Y-112397873D01*
X141925743Y-112383522D01*
X141838586Y-112391922D01*
X141753530Y-112417124D01*
X141674249Y-112458865D01*
X141604418Y-112516882D01*
X141545614Y-112591175D01*
X141499410Y-112681745D01*
X141469483Y-112788328D01*
X141459507Y-112910662D01*
X141121180Y-112910662D01*
X141085679Y-112853958D01*
X141177561Y-112794628D01*
X141238990Y-112713247D01*
X141273643Y-112615590D01*
X141285194Y-112507431D01*
X141276531Y-112405311D01*
X141250541Y-112317367D01*
X141150784Y-112184006D01*
X141079378Y-112138328D01*
X140995372Y-112106300D01*
X140899814Y-112087399D01*
X140793756Y-112081099D01*
X140720250Y-112083199D01*
X140632044Y-112088449D01*
X140540687Y-112098950D01*
X140457730Y-112114701D01*
X140020197Y-112114701D01*
X140020197Y-111906085D01*
X140457730Y-111906085D01*
X145535921Y-111906085D01*
X145973454Y-111906085D01*
X146479803Y-111906085D01*
X145973454Y-113593915D01*
G37*
G36*
X140886688Y-112317892D02*
G01*
X140959669Y-112354120D01*
X141006922Y-112416074D01*
X141022674Y-112505331D01*
X140963869Y-112651292D01*
X140886688Y-112689883D01*
X140772754Y-112702746D01*
X140716050Y-112702746D01*
X140716050Y-112312116D01*
X140758053Y-112306866D01*
X140793756Y-112305816D01*
X140886688Y-112317892D01*
G37*
G36*
X142018150Y-112617690D02*
G01*
X142076955Y-112664943D01*
X142110557Y-112731099D01*
X142121058Y-112807754D01*
X141726228Y-112807754D01*
X141744079Y-112730048D01*
X141781882Y-112662843D01*
X141842787Y-112616640D01*
X141929943Y-112599838D01*
X142018150Y-112617690D01*
G37*
G36*
X144118312Y-112617690D02*
G01*
X144177116Y-112664943D01*
X144210719Y-112731099D01*
X144221220Y-112807754D01*
X143826389Y-112807754D01*
X143844241Y-112730048D01*
X143882044Y-112662843D01*
X143942948Y-112616640D01*
X144030105Y-112599838D01*
X144118312Y-112617690D01*
G37*
%TO.C,kibuzzard-69CD78FD*%
G36*
X145947784Y-119846015D02*
G01*
X145510250Y-119846015D01*
X145195226Y-119846015D01*
X143996034Y-119846015D01*
X142945953Y-119846015D01*
X141843368Y-119846015D01*
X141482141Y-119846015D01*
X141044607Y-119846015D01*
X141044607Y-118360501D01*
X141482141Y-118360501D01*
X141482141Y-119622698D01*
X141572973Y-119639237D01*
X141664855Y-119651050D01*
X141755687Y-119658138D01*
X141843368Y-119660501D01*
X141947064Y-119655513D01*
X142043934Y-119640549D01*
X142131090Y-119613772D01*
X142205646Y-119573344D01*
X142313805Y-119447334D01*
X142343732Y-119358865D01*
X142353708Y-119250969D01*
X142341894Y-119162763D01*
X142335692Y-119148061D01*
X142479717Y-119148061D01*
X142488118Y-119260158D01*
X142513320Y-119361228D01*
X142554011Y-119450222D01*
X142608877Y-119526090D01*
X142676607Y-119587520D01*
X142755889Y-119633199D01*
X142845933Y-119661551D01*
X142945953Y-119671002D01*
X143045973Y-119661551D01*
X143136018Y-119633199D01*
X143215036Y-119587520D01*
X143281979Y-119526090D01*
X143336058Y-119450222D01*
X143376486Y-119361228D01*
X143401688Y-119260158D01*
X143410089Y-119148061D01*
X143529798Y-119148061D01*
X143538199Y-119260158D01*
X143563401Y-119361228D01*
X143604091Y-119450222D01*
X143658958Y-119526090D01*
X143726688Y-119587520D01*
X143805969Y-119633199D01*
X143896014Y-119661551D01*
X143996034Y-119671002D01*
X144096054Y-119661551D01*
X144186099Y-119633199D01*
X144265117Y-119587520D01*
X144332060Y-119526090D01*
X144386139Y-119450222D01*
X144426567Y-119361228D01*
X144451769Y-119260158D01*
X144460170Y-119148061D01*
X144451769Y-119037540D01*
X144426567Y-118936995D01*
X144385876Y-118848263D01*
X144331010Y-118773183D01*
X144263279Y-118712803D01*
X144183998Y-118668174D01*
X144146487Y-118656624D01*
X144594580Y-118656624D01*
X144594580Y-118870840D01*
X144819297Y-118870840D01*
X144819297Y-119276171D01*
X144825598Y-119388267D01*
X144844499Y-119476737D01*
X144918005Y-119595396D01*
X145035614Y-119652100D01*
X145195226Y-119666801D01*
X145355889Y-119654200D01*
X145510250Y-119612197D01*
X145474548Y-119389580D01*
X145408393Y-119416882D01*
X145349588Y-119432633D01*
X145290784Y-119439984D01*
X145224628Y-119442084D01*
X145163724Y-119435784D01*
X145117520Y-119410582D01*
X145088118Y-119358078D01*
X145077617Y-119269871D01*
X145077617Y-118870840D01*
X145491349Y-118870840D01*
X145491349Y-118656624D01*
X145077617Y-118656624D01*
X145077617Y-118366801D01*
X144819297Y-118408805D01*
X144819297Y-118656624D01*
X144594580Y-118656624D01*
X144146487Y-118656624D01*
X144094479Y-118640610D01*
X143996034Y-118631422D01*
X143898901Y-118640610D01*
X143809120Y-118668174D01*
X143729051Y-118712803D01*
X143661058Y-118773183D01*
X143605929Y-118848263D01*
X143564451Y-118936995D01*
X143538461Y-119037540D01*
X143529798Y-119148061D01*
X143410089Y-119148061D01*
X143401688Y-119037540D01*
X143376486Y-118936995D01*
X143335796Y-118848263D01*
X143280929Y-118773183D01*
X143213199Y-118712803D01*
X143133918Y-118668174D01*
X143044398Y-118640610D01*
X142945953Y-118631422D01*
X142848821Y-118640610D01*
X142759039Y-118668174D01*
X142678970Y-118712803D01*
X142610977Y-118773183D01*
X142555848Y-118848263D01*
X142514370Y-118936995D01*
X142488380Y-119037540D01*
X142479717Y-119148061D01*
X142335692Y-119148061D01*
X142306454Y-119078756D01*
X142237936Y-119005250D01*
X142126890Y-118948546D01*
X142247649Y-118835137D01*
X142281515Y-118758481D01*
X142292803Y-118671325D01*
X142273901Y-118549515D01*
X142202496Y-118439257D01*
X142057585Y-118359451D01*
X141951527Y-118336611D01*
X141818166Y-118328998D01*
X141643853Y-118338449D01*
X141482141Y-118360501D01*
X141044607Y-118360501D01*
X141044607Y-118153985D01*
X141482141Y-118153985D01*
X145510250Y-118153985D01*
X145947784Y-118153985D01*
X146455393Y-118153985D01*
X145947784Y-119846015D01*
G37*
G36*
X143036523Y-118876353D02*
G01*
X143098215Y-118936995D01*
X143133655Y-119030715D01*
X143145468Y-119150162D01*
X143132605Y-119269871D01*
X143094015Y-119364378D01*
X143030222Y-119425808D01*
X142941753Y-119446284D01*
X142851183Y-119425808D01*
X142789491Y-119364378D01*
X142754051Y-119269871D01*
X142742237Y-119150162D01*
X142755101Y-119030715D01*
X142793691Y-118936995D01*
X142857484Y-118876353D01*
X142945953Y-118856139D01*
X143036523Y-118876353D01*
G37*
G36*
X144086603Y-118876353D02*
G01*
X144148296Y-118936995D01*
X144183736Y-119030715D01*
X144195549Y-119150162D01*
X144182686Y-119269871D01*
X144144095Y-119364378D01*
X144080303Y-119425808D01*
X143991834Y-119446284D01*
X143901264Y-119425808D01*
X143839572Y-119364378D01*
X143804132Y-119269871D01*
X143792318Y-119150162D01*
X143805182Y-119030715D01*
X143843772Y-118936995D01*
X143907565Y-118876353D01*
X143996034Y-118856139D01*
X144086603Y-118876353D01*
G37*
G36*
X142039733Y-119115509D02*
G01*
X142099588Y-119250969D01*
X142078586Y-119344426D01*
X142025032Y-119401131D01*
X141950477Y-119428433D01*
X141864370Y-119435784D01*
X141800315Y-119433683D01*
X141740460Y-119427383D01*
X141740460Y-119074556D01*
X141879071Y-119074556D01*
X142039733Y-119115509D01*
G37*
G36*
X141927375Y-118558966D02*
G01*
X141986179Y-118579968D01*
X142026082Y-118624071D01*
X142040784Y-118698627D01*
X141990380Y-118817286D01*
X141841268Y-118860339D01*
X141740460Y-118860339D01*
X141740460Y-118562116D01*
X141797165Y-118555816D01*
X141858069Y-118553716D01*
X141927375Y-118558966D01*
G37*
D12*
%TO.C,J7*%
X138480000Y-124680000D02*
X137100000Y-124680000D01*
X138480000Y-123300000D02*
X138480000Y-124680000D01*
X138480000Y-122030000D02*
X138480000Y-114300000D01*
X138480000Y-122030000D02*
X135720000Y-122030000D01*
X138480000Y-114300000D02*
X135720000Y-114300000D01*
X135720000Y-122030000D02*
X135720000Y-114300000D01*
%TO.C,J6*%
X148455000Y-108965000D02*
X149200000Y-108965000D01*
X148455000Y-109700000D02*
X148455000Y-108965000D01*
X148455000Y-110435000D02*
X148455000Y-111310000D01*
X148455000Y-110435000D02*
X148514435Y-110435000D01*
X148455000Y-111310000D02*
X148789970Y-111310000D01*
X149610030Y-111310000D02*
X149945000Y-111310000D01*
X149885565Y-110435000D02*
X149945000Y-110435000D01*
X149945000Y-110435000D02*
X149945000Y-111310000D01*
%TO.C,J5*%
X146755000Y-110515000D02*
X147500000Y-110515000D01*
X146755000Y-111250000D02*
X146755000Y-110515000D01*
X146755000Y-111985000D02*
X146755000Y-112860000D01*
X146755000Y-111985000D02*
X146814435Y-111985000D01*
X146755000Y-112860000D02*
X147089970Y-112860000D01*
X147910030Y-112860000D02*
X148245000Y-112860000D01*
X148185565Y-111985000D02*
X148245000Y-111985000D01*
X148245000Y-111985000D02*
X148245000Y-112860000D01*
%TO.C,J4*%
X149145000Y-116235000D02*
X148400000Y-116235000D01*
X149145000Y-115500000D02*
X149145000Y-116235000D01*
X149145000Y-114765000D02*
X149145000Y-113890000D01*
X149145000Y-114765000D02*
X149085565Y-114765000D01*
X149145000Y-113890000D02*
X148810030Y-113890000D01*
X147989970Y-113890000D02*
X147655000Y-113890000D01*
X147714435Y-114765000D02*
X147655000Y-114765000D01*
X147655000Y-114765000D02*
X147655000Y-113890000D01*
D11*
%TO.C,kibuzzard-69CD6EDC*%
G36*
X170871465Y-108325148D02*
G01*
X170602213Y-108325148D01*
X170602213Y-108207108D01*
X170602213Y-108075283D01*
X170443247Y-108075283D01*
X170443247Y-107407108D01*
X170334685Y-107407108D01*
X170279111Y-107457512D01*
X170210614Y-107504039D01*
X170138239Y-107544103D01*
X170071034Y-107573829D01*
X170122730Y-107705654D01*
X170201567Y-107673990D01*
X170284281Y-107628110D01*
X170284281Y-108075283D01*
X170116268Y-108075283D01*
X170116268Y-108207108D01*
X170602213Y-108207108D01*
X170602213Y-108325148D01*
X169603183Y-108325148D01*
X169176688Y-108325148D01*
X168702375Y-108325148D01*
X168102698Y-108325148D01*
X167833446Y-108325148D01*
X167833446Y-107418740D01*
X168140178Y-107418740D01*
X168140178Y-108207108D01*
X168299144Y-108207108D01*
X168299144Y-107912439D01*
X168381858Y-107912439D01*
X168425638Y-107985622D01*
X168466511Y-108057835D01*
X168503506Y-108131018D01*
X168535654Y-108207108D01*
X168702375Y-108207108D01*
X168730808Y-108207108D01*
X168902698Y-108207108D01*
X168932423Y-108137157D01*
X168967318Y-108059128D01*
X169004798Y-107978514D01*
X169042278Y-107900808D01*
X169080242Y-107980937D01*
X169116591Y-108061066D01*
X169149386Y-108137641D01*
X169176688Y-108207108D01*
X169348578Y-108207108D01*
X169313683Y-108122456D01*
X169289935Y-108070759D01*
X169262633Y-108015186D01*
X169232423Y-107956866D01*
X169199952Y-107896931D01*
X169166026Y-107837480D01*
X169131454Y-107780614D01*
X169330002Y-107417447D01*
X169432585Y-107417447D01*
X169432585Y-108198061D01*
X169519822Y-108212924D01*
X169603183Y-108217447D01*
X169681212Y-108211793D01*
X169752456Y-108194830D01*
X169815622Y-108165590D01*
X169869418Y-108123102D01*
X169913199Y-108066721D01*
X169946317Y-107995800D01*
X169967157Y-107909370D01*
X169974103Y-107806462D01*
X169967803Y-107705816D01*
X169948901Y-107621002D01*
X169918691Y-107550889D01*
X169878465Y-107494346D01*
X169828223Y-107451212D01*
X169767964Y-107421325D01*
X169699305Y-107403877D01*
X169623861Y-107398061D01*
X169603183Y-107398960D01*
X169534685Y-107401939D01*
X169432585Y-107417447D01*
X169330002Y-107417447D01*
X169335654Y-107407108D01*
X169176688Y-107407108D01*
X169175396Y-107407108D01*
X169042278Y-107663005D01*
X168915622Y-107407108D01*
X168743732Y-107407108D01*
X168953102Y-107784491D01*
X168921438Y-107841195D01*
X168888481Y-107900162D01*
X168855687Y-107959451D01*
X168824507Y-108017124D01*
X168795428Y-108072052D01*
X168768934Y-108123102D01*
X168730808Y-108207108D01*
X168702375Y-108207108D01*
X168665541Y-108122456D01*
X168620953Y-108033279D01*
X168573134Y-107947981D01*
X168526607Y-107873667D01*
X168583150Y-107837157D01*
X168620953Y-107787076D01*
X168642278Y-107726979D01*
X168649386Y-107660420D01*
X168644055Y-107597577D01*
X168628061Y-107543457D01*
X168566672Y-107461389D01*
X168522730Y-107433279D01*
X168473619Y-107414556D01*
X168471034Y-107413570D01*
X168412229Y-107401939D01*
X168346963Y-107398061D01*
X168301729Y-107399354D01*
X168247447Y-107402585D01*
X168191228Y-107409047D01*
X168140178Y-107418740D01*
X167833446Y-107418740D01*
X167833446Y-105923425D01*
X168102698Y-105923425D01*
X168313360Y-105923425D01*
X168313360Y-106591599D01*
X168473619Y-106591599D01*
X168730808Y-106591599D01*
X168902698Y-106591599D01*
X168932423Y-106521648D01*
X168967318Y-106443619D01*
X169004798Y-106363005D01*
X169042278Y-106285299D01*
X169080242Y-106365428D01*
X169116591Y-106445557D01*
X169149386Y-106522132D01*
X169176688Y-106591599D01*
X169348578Y-106591599D01*
X169313683Y-106506947D01*
X169289935Y-106455250D01*
X169262633Y-106399677D01*
X169232423Y-106341357D01*
X169199952Y-106281422D01*
X169166026Y-106221971D01*
X169131454Y-106165105D01*
X169330001Y-105801939D01*
X169432585Y-105801939D01*
X169432585Y-106582553D01*
X169519822Y-106597415D01*
X169603183Y-106601939D01*
X169681212Y-106596284D01*
X169752456Y-106579321D01*
X169815622Y-106550081D01*
X169869418Y-106507593D01*
X169913199Y-106451212D01*
X169946317Y-106380291D01*
X169967157Y-106293861D01*
X169974103Y-106190953D01*
X169967803Y-106090307D01*
X169948901Y-106005493D01*
X169928575Y-105958320D01*
X170071034Y-105958320D01*
X170122730Y-106090145D01*
X170201567Y-106058481D01*
X170284281Y-106012601D01*
X170284281Y-106459774D01*
X170116268Y-106459774D01*
X170116268Y-106591599D01*
X170602213Y-106591599D01*
X170602213Y-106459774D01*
X170443247Y-106459774D01*
X170443247Y-105791599D01*
X170334685Y-105791599D01*
X170279111Y-105842003D01*
X170210614Y-105888530D01*
X170138239Y-105928595D01*
X170071034Y-105958320D01*
X169928575Y-105958320D01*
X169918691Y-105935380D01*
X169878465Y-105878837D01*
X169828223Y-105835703D01*
X169767964Y-105805816D01*
X169699305Y-105788368D01*
X169623861Y-105782553D01*
X169534685Y-105786430D01*
X169432585Y-105801939D01*
X169330001Y-105801939D01*
X169335654Y-105791599D01*
X169175396Y-105791599D01*
X169042278Y-106047496D01*
X168915622Y-105791599D01*
X168743732Y-105791599D01*
X168953102Y-106168982D01*
X168921438Y-106225687D01*
X168888481Y-106284653D01*
X168855687Y-106343942D01*
X168824507Y-106401616D01*
X168795428Y-106456543D01*
X168768934Y-106507593D01*
X168730808Y-106591599D01*
X168473619Y-106591599D01*
X168473619Y-105923425D01*
X168684281Y-105923425D01*
X168684281Y-105791599D01*
X168102698Y-105791599D01*
X168102698Y-105923425D01*
X167833446Y-105923425D01*
X167833446Y-105674852D01*
X168102698Y-105674852D01*
X170602213Y-105674852D01*
X170871465Y-105674852D01*
X171666554Y-105674852D01*
X170871465Y-108325148D01*
G37*
G36*
X169724669Y-105943457D02*
G01*
X169777658Y-106003554D01*
X169804798Y-106090145D01*
X169812553Y-106190953D01*
X169810129Y-106247981D01*
X169802859Y-106300162D01*
X169770549Y-106386107D01*
X169711099Y-106442973D01*
X169619984Y-106463651D01*
X169605767Y-106463651D01*
X169591551Y-106462359D01*
X169591551Y-105924717D01*
X169614814Y-105921486D01*
X169638078Y-105920840D01*
X169724669Y-105943457D01*
G37*
G36*
X169724669Y-107558966D02*
G01*
X169777658Y-107619063D01*
X169804798Y-107705654D01*
X169812553Y-107806462D01*
X169810129Y-107863489D01*
X169802859Y-107915670D01*
X169770549Y-108001616D01*
X169711099Y-108058481D01*
X169619984Y-108079160D01*
X169605767Y-108079160D01*
X169591551Y-108077868D01*
X169591551Y-107540226D01*
X169614814Y-107536995D01*
X169638078Y-107536349D01*
X169724669Y-107558966D01*
G37*
G36*
X168404152Y-107543780D02*
G01*
X168449063Y-107566074D01*
X168478142Y-107604200D01*
X168487835Y-107659128D01*
X168451648Y-107748950D01*
X168404152Y-107772698D01*
X168334039Y-107780614D01*
X168299144Y-107780614D01*
X168299144Y-107540226D01*
X168324992Y-107536995D01*
X168346963Y-107536349D01*
X168404152Y-107543780D01*
G37*
D12*
%TO.C,J3*%
X167495000Y-108235000D02*
X166750000Y-108235000D01*
X167495000Y-107500000D02*
X167495000Y-108235000D01*
X167495000Y-106765000D02*
X167495000Y-105890000D01*
X167495000Y-106765000D02*
X167435565Y-106765000D01*
X167495000Y-105890000D02*
X167160030Y-105890000D01*
X166339970Y-105890000D02*
X166005000Y-105890000D01*
X166064435Y-106765000D02*
X166005000Y-106765000D01*
X166005000Y-106765000D02*
X166005000Y-105890000D01*
D10*
%TO.C,SW3*%
X169550000Y-118100000D02*
X168350000Y-118100000D01*
X169550000Y-116100000D02*
X169550000Y-116900000D01*
X168350000Y-114900000D02*
X169550000Y-114900000D01*
X167150000Y-118100000D02*
X165950000Y-118100000D01*
X165950000Y-116900000D02*
X165950000Y-116100000D01*
X165950000Y-114900000D02*
X167150000Y-114900000D01*
D12*
%TO.C,BT1*%
X148130000Y-130170000D02*
X146750000Y-130170000D01*
X148130000Y-128790000D02*
X148130000Y-130170000D01*
X148130000Y-127520000D02*
X148130000Y-124870000D01*
X148130000Y-127520000D02*
X145370000Y-127520000D01*
X148130000Y-124870000D02*
X145370000Y-124870000D01*
X145370000Y-127520000D02*
X145370000Y-124870000D01*
%TO.C,C24*%
X127235000Y-128488748D02*
X127235000Y-129011252D01*
X125765000Y-128488748D02*
X125765000Y-129011252D01*
%TO.C,C23*%
X136765000Y-129561252D02*
X136765000Y-129038748D01*
X138235000Y-129561252D02*
X138235000Y-129038748D01*
%TO.C,U6*%
X128840000Y-128850000D02*
X128840000Y-125090000D01*
X135660000Y-128850000D02*
X135660000Y-125090000D01*
X128840000Y-125090000D02*
X130100000Y-125090000D01*
X135660000Y-125090000D02*
X134400000Y-125090000D01*
X128940000Y-130130000D02*
X128610000Y-130370000D01*
X128610000Y-129890000D01*
X128940000Y-130130000D01*
G36*
X128940000Y-130130000D02*
G01*
X128610000Y-130370000D01*
X128610000Y-129890000D01*
X128940000Y-130130000D01*
G37*
%TO.C,RN3*%
X173620000Y-106400000D02*
X173620000Y-107400000D01*
X176980000Y-106400000D02*
X176980000Y-107400000D01*
%TO.C,BZ1*%
X164150000Y-120650000D02*
X164150000Y-122850000D01*
X164150000Y-120650000D02*
X173350000Y-120650000D01*
X164150000Y-122850000D02*
X163750000Y-122850000D01*
X164150000Y-127650000D02*
X164150000Y-129850000D01*
X173350000Y-120650000D02*
X173350000Y-122850000D01*
X173350000Y-127650000D02*
X173350000Y-129850000D01*
X173350000Y-129850000D02*
X164150000Y-129850000D01*
%TO.C,U5*%
X155432403Y-111425000D02*
X155210000Y-111425000D01*
X155182500Y-116705000D02*
X155857500Y-116705000D01*
X151315000Y-116710000D02*
X150640000Y-116710000D01*
X150640000Y-111440000D02*
X151315000Y-111440000D01*
X154850000Y-110995000D02*
X154510000Y-110525000D01*
X155190000Y-110525000D01*
X154850000Y-110995000D01*
G36*
X154850000Y-110995000D02*
G01*
X154510000Y-110525000D01*
X155190000Y-110525000D01*
X154850000Y-110995000D01*
G37*
%TO.C,C10*%
X141188748Y-101015000D02*
X141711252Y-101015000D01*
X141188748Y-102485000D02*
X141711252Y-102485000D01*
%TO.C,C5*%
X154540580Y-103940000D02*
X154259420Y-103940000D01*
X154540580Y-104960000D02*
X154259420Y-104960000D01*
%TO.C,Q1*%
X141690000Y-128947500D02*
X141690000Y-127427500D01*
X141740000Y-128947500D02*
X141690000Y-128947500D01*
X143640000Y-128947500D02*
X142860000Y-128947500D01*
X144810000Y-128947500D02*
X144760000Y-128947500D01*
X141690000Y-127427500D02*
X142690000Y-127427500D01*
X143810000Y-127427500D02*
X144810000Y-127427500D01*
X144810000Y-127427500D02*
X144810000Y-128947500D01*
X143200000Y-129727500D02*
X142870000Y-129487500D01*
X143200000Y-129247500D01*
X143200000Y-129727500D01*
G36*
X143200000Y-129727500D02*
G01*
X142870000Y-129487500D01*
X143200000Y-129247500D01*
X143200000Y-129727500D01*
G37*
%TO.C,TP2*%
X151500000Y-108950000D02*
G75*
G02*
X150100000Y-108950000I-700000J0D01*
G01*
X150100000Y-108950000D02*
G75*
G02*
X151500000Y-108950000I700000J0D01*
G01*
%TO.C,C12*%
X149315580Y-99140000D02*
X149034420Y-99140000D01*
X149315580Y-100160000D02*
X149034420Y-100160000D01*
%TO.C,D4*%
X171050000Y-99000000D02*
X171050000Y-99650000D01*
X171050000Y-99650000D02*
X171750000Y-99650000D01*
X172250000Y-98350000D02*
G75*
G02*
X174250000Y-98350000I1000000J-400000D01*
G01*
%TO.C,C21*%
X156159420Y-119590000D02*
X156440580Y-119590000D01*
X156159420Y-120610000D02*
X156440580Y-120610000D01*
%TO.C,R7*%
X155822500Y-128762742D02*
X155822500Y-129237258D01*
X154777500Y-128762742D02*
X154777500Y-129237258D01*
%TO.C,C22*%
X156141920Y-124390000D02*
X156423080Y-124390000D01*
X156141920Y-125410000D02*
X156423080Y-125410000D01*
%TO.C,C19*%
X158359420Y-116490000D02*
X158640580Y-116490000D01*
X158359420Y-117510000D02*
X158640580Y-117510000D01*
D10*
%TO.C,U2*%
X137675000Y-97848222D02*
X142475000Y-97848222D01*
X137675000Y-99748222D02*
X137675000Y-97848222D01*
X141775000Y-99748222D02*
X137675000Y-99748222D01*
X142475000Y-97848222D02*
X142475000Y-99048222D01*
X142475000Y-99048222D02*
X141775000Y-99748222D01*
D12*
%TO.C,L1*%
X154124273Y-106704478D02*
X154354478Y-106474273D01*
X154845522Y-107425727D02*
X155075727Y-107195522D01*
%TO.C,D1*%
X140960000Y-124315000D02*
X139040000Y-124315000D01*
X139040000Y-124315000D02*
X139040000Y-127000000D01*
X140960000Y-127000000D02*
X140960000Y-124315000D01*
%TO.C,D2*%
X122450000Y-99000000D02*
X122450000Y-99650000D01*
X122450000Y-99650000D02*
X123150000Y-99650000D01*
X123650000Y-98350000D02*
G75*
G02*
X125650000Y-98350000I1000000J-400000D01*
G01*
%TO.C,RN1*%
X129120000Y-104700000D02*
X129120000Y-105700000D01*
X132480000Y-104700000D02*
X132480000Y-105700000D01*
%TO.C,TP3*%
X156200000Y-118300000D02*
G75*
G02*
X154800000Y-118300000I-700000J0D01*
G01*
X154800000Y-118300000D02*
G75*
G02*
X156200000Y-118300000I700000J0D01*
G01*
%TO.C,L2*%
X148754478Y-107425727D02*
X148524273Y-107195522D01*
X149475727Y-106704478D02*
X149245522Y-106474273D01*
%TO.C,C13*%
X154515580Y-97340000D02*
X154234420Y-97340000D01*
X154515580Y-98360000D02*
X154234420Y-98360000D01*
%TO.C,D5*%
X181050000Y-99000000D02*
X181050000Y-99650000D01*
X181050000Y-99650000D02*
X181750000Y-99650000D01*
X182250000Y-98350000D02*
G75*
G02*
X184250000Y-98350000I1000000J-400000D01*
G01*
%TO.C,C1*%
X130688748Y-101015000D02*
X131211252Y-101015000D01*
X130688748Y-102485000D02*
X131211252Y-102485000D01*
%TO.C,C18*%
X162238748Y-109765000D02*
X162761252Y-109765000D01*
X162238748Y-111235000D02*
X162761252Y-111235000D01*
%TO.C,RN2*%
X137370000Y-104650000D02*
X137370000Y-105650000D01*
X140730000Y-104650000D02*
X140730000Y-105650000D01*
%TO.C,C8*%
X154690000Y-102190580D02*
X154690000Y-101909420D01*
X155710000Y-102190580D02*
X155710000Y-101909420D01*
%TO.C,C15*%
X168438748Y-101015000D02*
X168961252Y-101015000D01*
X168438748Y-102485000D02*
X168961252Y-102485000D01*
%TO.C,R4*%
X147877500Y-95587258D02*
X147877500Y-95112742D01*
X148922500Y-95587258D02*
X148922500Y-95112742D01*
%TO.C,TP4*%
X156000000Y-131600000D02*
G75*
G02*
X154600000Y-131600000I-700000J0D01*
G01*
X154600000Y-131600000D02*
G75*
G02*
X156000000Y-131600000I700000J0D01*
G01*
%TO.C,Y1*%
X160925000Y-114125000D02*
X159575000Y-114125000D01*
X160925000Y-112375000D02*
X159575000Y-112375000D01*
%TO.C,JP2*%
X147400000Y-92750000D02*
X147400000Y-91350000D01*
X148100000Y-90650000D02*
X148700000Y-90650000D01*
X148700000Y-93450000D02*
X148100000Y-93450000D01*
X149400000Y-91350000D02*
X149400000Y-92750000D01*
X147400000Y-91350000D02*
G75*
G02*
X148100000Y-90650000I700000J0D01*
G01*
X148100000Y-93450000D02*
G75*
G02*
X147400000Y-92750000I-1J699999D01*
G01*
X148700000Y-90650000D02*
G75*
G02*
X149400000Y-91350000I0J-700000D01*
G01*
X149400000Y-92750000D02*
G75*
G02*
X148700000Y-93450000I-699999J-1D01*
G01*
%TO.C,C7*%
X161615580Y-100740000D02*
X161334420Y-100740000D01*
X161615580Y-101760000D02*
X161334420Y-101760000D01*
%TO.C,C17*%
X158338748Y-107765000D02*
X158861252Y-107765000D01*
X158338748Y-109235000D02*
X158861252Y-109235000D01*
%TO.C,TP1*%
X153500000Y-108950000D02*
G75*
G02*
X152100000Y-108950000I-700000J0D01*
G01*
X152100000Y-108950000D02*
G75*
G02*
X153500000Y-108950000I700000J0D01*
G01*
%TO.C,R6*%
X154812258Y-126077500D02*
X154337742Y-126077500D01*
X154812258Y-127122500D02*
X154337742Y-127122500D01*
%TO.C,R3*%
X154577500Y-95612258D02*
X154577500Y-95137742D01*
X155622500Y-95612258D02*
X155622500Y-95137742D01*
D10*
%TO.C,SW1*%
X142000000Y-114650000D02*
X143200000Y-114650000D01*
X142000000Y-116650000D02*
X142000000Y-115850000D01*
X143200000Y-117850000D02*
X142000000Y-117850000D01*
X144400000Y-114650000D02*
X145600000Y-114650000D01*
X145600000Y-115850000D02*
X145600000Y-116650000D01*
X145600000Y-117850000D02*
X144400000Y-117850000D01*
D12*
%TO.C,C20*%
X153760000Y-119609420D02*
X153760000Y-119890580D01*
X152740000Y-119609420D02*
X152740000Y-119890580D01*
D10*
%TO.C,SW2*%
X142000000Y-108400000D02*
X143200000Y-108400000D01*
X142000000Y-110400000D02*
X142000000Y-109600000D01*
X143200000Y-111600000D02*
X142000000Y-111600000D01*
X144400000Y-108400000D02*
X145600000Y-108400000D01*
X145600000Y-109600000D02*
X145600000Y-110400000D01*
X145600000Y-111600000D02*
X144400000Y-111600000D01*
%TO.C,U4*%
X175800000Y-97848222D02*
X180600000Y-97848222D01*
X175800000Y-99748222D02*
X175800000Y-97848222D01*
X179900000Y-99748222D02*
X175800000Y-99748222D01*
X180600000Y-97848222D02*
X180600000Y-99048222D01*
X180600000Y-99048222D02*
X179900000Y-99748222D01*
D12*
%TO.C,R2*%
X158237258Y-100727500D02*
X157762742Y-100727500D01*
X158237258Y-101772500D02*
X157762742Y-101772500D01*
%TO.C,C9*%
X147890000Y-102165580D02*
X147890000Y-101884420D01*
X148910000Y-102165580D02*
X148910000Y-101884420D01*
%TO.C,C4*%
X159590000Y-104090580D02*
X159590000Y-103809420D01*
X160610000Y-104090580D02*
X160610000Y-103809420D01*
%TO.C,L4*%
X156010000Y-122337221D02*
X156010000Y-122662779D01*
X154990000Y-122337221D02*
X154990000Y-122662779D01*
%TO.C,C14*%
X149340580Y-97340000D02*
X149059420Y-97340000D01*
X149340580Y-98360000D02*
X149059420Y-98360000D01*
%TO.C,Q2*%
X141690000Y-124697500D02*
X141690000Y-123177500D01*
X141740000Y-124697500D02*
X141690000Y-124697500D01*
X143640000Y-124697500D02*
X142860000Y-124697500D01*
X144810000Y-124697500D02*
X144760000Y-124697500D01*
X141690000Y-123177500D02*
X142690000Y-123177500D01*
X143810000Y-123177500D02*
X144810000Y-123177500D01*
X144810000Y-123177500D02*
X144810000Y-124697500D01*
X143200000Y-125477500D02*
X142870000Y-125237500D01*
X143200000Y-124997500D01*
X143200000Y-125477500D01*
G36*
X143200000Y-125477500D02*
G01*
X142870000Y-125237500D01*
X143200000Y-124997500D01*
X143200000Y-125477500D01*
G37*
%TO.C,C3*%
X132515000Y-111486252D02*
X132515000Y-110963748D01*
X133985000Y-111486252D02*
X133985000Y-110963748D01*
%TO.C,D3*%
X132800000Y-99000000D02*
X132800000Y-99650000D01*
X132800000Y-99650000D02*
X133500000Y-99650000D01*
X134000000Y-98350000D02*
G75*
G02*
X136000000Y-98350000I1000000J-400000D01*
G01*
%TO.C,C6*%
X149340580Y-103940000D02*
X149059420Y-103940000D01*
X149340580Y-104960000D02*
X149059420Y-104960000D01*
%TO.C,C11*%
X154515580Y-99140000D02*
X154234420Y-99140000D01*
X154515580Y-100160000D02*
X154234420Y-100160000D01*
%TO.C,L3*%
X159049622Y-111060000D02*
X158250378Y-111060000D01*
X159049622Y-109940000D02*
X158250378Y-109940000D01*
%TO.C,Y2*%
X147840000Y-118190000D02*
X147840000Y-121610000D01*
X147840000Y-121610000D02*
X151960000Y-121610000D01*
%TO.C,JP1*%
X154100000Y-92750000D02*
X154100000Y-91350000D01*
X154800000Y-90650000D02*
X155400000Y-90650000D01*
X155400000Y-93450000D02*
X154800000Y-93450000D01*
X156100000Y-91350000D02*
X156100000Y-92750000D01*
X154100000Y-91350000D02*
G75*
G02*
X154800000Y-90650000I700000J0D01*
G01*
X154800000Y-93450000D02*
G75*
G02*
X154100000Y-92750000I-1J699999D01*
G01*
X155400000Y-90650000D02*
G75*
G02*
X156100000Y-91350000I0J-700000D01*
G01*
X156100000Y-92750000D02*
G75*
G02*
X155400000Y-93450000I-699999J-1D01*
G01*
D10*
%TO.C,U1*%
X127425000Y-97848222D02*
X132225000Y-97848222D01*
X127425000Y-99748222D02*
X127425000Y-97848222D01*
X131525000Y-99748222D02*
X127425000Y-99748222D01*
X132225000Y-97848222D02*
X132225000Y-99048222D01*
X132225000Y-99048222D02*
X131525000Y-99748222D01*
D12*
%TO.C,R1*%
X161677500Y-103712742D02*
X161677500Y-104187258D01*
X162722500Y-103712742D02*
X162722500Y-104187258D01*
%TO.C,C16*%
X178688748Y-101015000D02*
X179211252Y-101015000D01*
X178688748Y-102485000D02*
X179211252Y-102485000D01*
D10*
%TO.C,U3*%
X165650000Y-97848222D02*
X170450000Y-97848222D01*
X165650000Y-99748222D02*
X165650000Y-97848222D01*
X169750000Y-99748222D02*
X165650000Y-99748222D01*
X170450000Y-97848222D02*
X170450000Y-99048222D01*
X170450000Y-99048222D02*
X169750000Y-99748222D01*
D12*
%TO.C,J2*%
X151760000Y-128025000D02*
X151760000Y-127385000D01*
X151760000Y-127385000D02*
X152390000Y-127385000D01*
X151760000Y-125225000D02*
X151760000Y-125865000D01*
X149040000Y-127975000D02*
X149040000Y-125275000D01*
%TO.C,C2*%
X134085000Y-115263748D02*
X134085000Y-115786252D01*
X132615000Y-115263748D02*
X132615000Y-115786252D01*
%TO.C,R5*%
X143110436Y-131015000D02*
X143564564Y-131015000D01*
X143110436Y-132485000D02*
X143564564Y-132485000D01*
%TD*%
M02*
