%TF.GenerationSoftware,KiCad,Pcbnew,9.0.7*%
%TF.CreationDate,2026-05-07T14:12:12-05:00*%
%TF.ProjectId,BsidesDSM26,42736964-6573-4445-934d-32362e6b6963,rev?*%
%TF.SameCoordinates,Original*%
%TF.FileFunction,Legend,Bot*%
%TF.FilePolarity,Positive*%
%FSLAX46Y46*%
G04 Gerber Fmt 4.6, Leading zero omitted, Abs format (unit mm)*
G04 Created by KiCad (PCBNEW 9.0.7) date 2026-05-07 14:12:12*
%MOMM*%
%LPD*%
G01*
G04 APERTURE LIST*
%ADD10C,0.150000*%
%ADD11C,0.304800*%
%ADD12C,0.000000*%
G04 APERTURE END LIST*
D10*
X184268990Y-109985714D02*
X184221371Y-109842857D01*
X184221371Y-109842857D02*
X184173752Y-109795238D01*
X184173752Y-109795238D02*
X184078514Y-109747619D01*
X184078514Y-109747619D02*
X183935657Y-109747619D01*
X183935657Y-109747619D02*
X183840419Y-109795238D01*
X183840419Y-109795238D02*
X183792800Y-109842857D01*
X183792800Y-109842857D02*
X183745180Y-109938095D01*
X183745180Y-109938095D02*
X183745180Y-110319047D01*
X183745180Y-110319047D02*
X184745180Y-110319047D01*
X184745180Y-110319047D02*
X184745180Y-109985714D01*
X184745180Y-109985714D02*
X184697561Y-109890476D01*
X184697561Y-109890476D02*
X184649942Y-109842857D01*
X184649942Y-109842857D02*
X184554704Y-109795238D01*
X184554704Y-109795238D02*
X184459466Y-109795238D01*
X184459466Y-109795238D02*
X184364228Y-109842857D01*
X184364228Y-109842857D02*
X184316609Y-109890476D01*
X184316609Y-109890476D02*
X184268990Y-109985714D01*
X184268990Y-109985714D02*
X184268990Y-110319047D01*
X184745180Y-109461904D02*
X184745180Y-108890476D01*
X183745180Y-109176190D02*
X184745180Y-109176190D01*
X183745180Y-108033333D02*
X183745180Y-108604761D01*
X183745180Y-108319047D02*
X184745180Y-108319047D01*
X184745180Y-108319047D02*
X184602323Y-108414285D01*
X184602323Y-108414285D02*
X184507085Y-108509523D01*
X184507085Y-108509523D02*
X184459466Y-108604761D01*
X122988095Y-126395180D02*
X122988095Y-127395180D01*
X122988095Y-126918990D02*
X123559523Y-126918990D01*
X123559523Y-126395180D02*
X123559523Y-127395180D01*
X124464285Y-127061847D02*
X124464285Y-126395180D01*
X124226190Y-127442800D02*
X123988095Y-126728514D01*
X123988095Y-126728514D02*
X124607142Y-126728514D01*
X122738095Y-96395180D02*
X122738095Y-97395180D01*
X122738095Y-96918990D02*
X123309523Y-96918990D01*
X123309523Y-96395180D02*
X123309523Y-97395180D01*
X124309523Y-96395180D02*
X123738095Y-96395180D01*
X124023809Y-96395180D02*
X124023809Y-97395180D01*
X124023809Y-97395180D02*
X123928571Y-97252323D01*
X123928571Y-97252323D02*
X123833333Y-97157085D01*
X123833333Y-97157085D02*
X123738095Y-97109466D01*
X182988095Y-127395180D02*
X182988095Y-128395180D01*
X182988095Y-127918990D02*
X183559523Y-127918990D01*
X183559523Y-127395180D02*
X183559523Y-128395180D01*
X183940476Y-128395180D02*
X184559523Y-128395180D01*
X184559523Y-128395180D02*
X184226190Y-128014228D01*
X184226190Y-128014228D02*
X184369047Y-128014228D01*
X184369047Y-128014228D02*
X184464285Y-127966609D01*
X184464285Y-127966609D02*
X184511904Y-127918990D01*
X184511904Y-127918990D02*
X184559523Y-127823752D01*
X184559523Y-127823752D02*
X184559523Y-127585657D01*
X184559523Y-127585657D02*
X184511904Y-127490419D01*
X184511904Y-127490419D02*
X184464285Y-127442800D01*
X184464285Y-127442800D02*
X184369047Y-127395180D01*
X184369047Y-127395180D02*
X184083333Y-127395180D01*
X184083333Y-127395180D02*
X183988095Y-127442800D01*
X183988095Y-127442800D02*
X183940476Y-127490419D01*
X183238095Y-96395180D02*
X183238095Y-97395180D01*
X183238095Y-96918990D02*
X183809523Y-96918990D01*
X183809523Y-96395180D02*
X183809523Y-97395180D01*
X184238095Y-97299942D02*
X184285714Y-97347561D01*
X184285714Y-97347561D02*
X184380952Y-97395180D01*
X184380952Y-97395180D02*
X184619047Y-97395180D01*
X184619047Y-97395180D02*
X184714285Y-97347561D01*
X184714285Y-97347561D02*
X184761904Y-97299942D01*
X184761904Y-97299942D02*
X184809523Y-97204704D01*
X184809523Y-97204704D02*
X184809523Y-97109466D01*
X184809523Y-97109466D02*
X184761904Y-96966609D01*
X184761904Y-96966609D02*
X184190476Y-96395180D01*
X184190476Y-96395180D02*
X184809523Y-96395180D01*
D11*
%TO.C,BT1*%
X180300000Y-117235000D02*
X180300000Y-115235000D01*
X181300000Y-116235000D02*
X179300000Y-116235000D01*
X180300000Y-103235000D02*
X180300000Y-101235000D01*
X185300000Y-123335000D02*
X131300000Y-123335000D01*
X131300000Y-95135000D01*
X185300000Y-95135000D01*
X185300000Y-123335000D01*
D12*
%TO.C,kibuzzard-69CD7A0E*%
G36*
X144852617Y-110690226D02*
G01*
X144912068Y-110747092D01*
X144944378Y-110833037D01*
X144951648Y-110885218D01*
X144954071Y-110942246D01*
X144946317Y-111043053D01*
X144919176Y-111129645D01*
X144866187Y-111189742D01*
X144779596Y-111212359D01*
X144756333Y-111211712D01*
X144733069Y-111208481D01*
X144733069Y-110670840D01*
X144747286Y-110669548D01*
X144761502Y-110669548D01*
X144852617Y-110690226D01*
G37*
G36*
X144852617Y-112305735D02*
G01*
X144912068Y-112362601D01*
X144944378Y-112448546D01*
X144951648Y-112500727D01*
X144954071Y-112557754D01*
X144946317Y-112658562D01*
X144919176Y-112745153D01*
X144866187Y-112805250D01*
X144779596Y-112827868D01*
X144756333Y-112827221D01*
X144733069Y-112823990D01*
X144733069Y-112286349D01*
X144747286Y-112285057D01*
X144761502Y-112285057D01*
X144852617Y-112305735D01*
G37*
G36*
X144178627Y-110417097D02*
G01*
X144744701Y-110417097D01*
X145747609Y-110417097D01*
X146188320Y-110417097D01*
X146391228Y-110417097D01*
X146660479Y-110417097D01*
X146660479Y-113082903D01*
X146391228Y-113082903D01*
X143908514Y-113082903D01*
X143639262Y-113082903D01*
X143448373Y-112446607D01*
X143908514Y-112446607D01*
X143908514Y-112957108D01*
X144068772Y-112957108D01*
X144068772Y-112456947D01*
X144073942Y-112372294D01*
X144091389Y-112317367D01*
X144125638Y-112287641D01*
X144181212Y-112278595D01*
X144236785Y-112287641D01*
X144271680Y-112318013D01*
X144289774Y-112373586D01*
X144294943Y-112458239D01*
X144294943Y-112957108D01*
X144453910Y-112957108D01*
X144453910Y-112446607D01*
X144450679Y-112380048D01*
X144440985Y-112319952D01*
X144423215Y-112267286D01*
X144395751Y-112223021D01*
X144358271Y-112187641D01*
X144318768Y-112166155D01*
X144574103Y-112166155D01*
X144574103Y-112946769D01*
X144676204Y-112962278D01*
X144765380Y-112966155D01*
X144840824Y-112960339D01*
X144909483Y-112942892D01*
X144969742Y-112913005D01*
X145019984Y-112869871D01*
X145020444Y-112869225D01*
X145206090Y-112869225D01*
X145261826Y-112916397D01*
X145325638Y-112949354D01*
X145393328Y-112968740D01*
X145460695Y-112975202D01*
X145555040Y-112960985D01*
X145635170Y-112918336D01*
X145690743Y-112846607D01*
X145711422Y-112746446D01*
X145695913Y-112666963D01*
X145654556Y-112592649D01*
X145596397Y-112522859D01*
X145530485Y-112458239D01*
X145491712Y-112421405D01*
X145481373Y-112410420D01*
X145942763Y-112410420D01*
X145942763Y-112566801D01*
X146296882Y-112566801D01*
X146296882Y-112410420D01*
X145942763Y-112410420D01*
X145481373Y-112410420D01*
X145450355Y-112377464D01*
X145417399Y-112331583D01*
X145403829Y-112288934D01*
X145747609Y-112288934D01*
X145747609Y-112157108D01*
X145225477Y-112157108D01*
X145222246Y-112189418D01*
X145222892Y-112216559D01*
X145228869Y-112278595D01*
X145246801Y-112335460D01*
X145273942Y-112387641D01*
X145307544Y-112435622D01*
X145345670Y-112479887D01*
X145386381Y-112520921D01*
X145427092Y-112559532D01*
X145465218Y-112596527D01*
X145525961Y-112666317D01*
X145549871Y-112734814D01*
X145520145Y-112810420D01*
X145445186Y-112836914D01*
X145366349Y-112818821D01*
X145284927Y-112758078D01*
X145206090Y-112869225D01*
X145020444Y-112869225D01*
X145060210Y-112813328D01*
X145090420Y-112743215D01*
X145109321Y-112658401D01*
X145115622Y-112557754D01*
X145108675Y-112454847D01*
X145087835Y-112368417D01*
X145054717Y-112297496D01*
X145010937Y-112241115D01*
X144957141Y-112198627D01*
X144893974Y-112169386D01*
X144822730Y-112152423D01*
X144744701Y-112146769D01*
X144661341Y-112151292D01*
X144574103Y-112166155D01*
X144318768Y-112166155D01*
X144310452Y-112161632D01*
X144251002Y-112145638D01*
X144178627Y-112140307D01*
X144107383Y-112145638D01*
X144048740Y-112161632D01*
X143965380Y-112223021D01*
X143938885Y-112267286D01*
X143921438Y-112319952D01*
X143911745Y-112380048D01*
X143908514Y-112446607D01*
X143448373Y-112446607D01*
X142963721Y-110831099D01*
X143908514Y-110831099D01*
X143908514Y-111341599D01*
X144068772Y-111341599D01*
X144068772Y-110841438D01*
X144073942Y-110756785D01*
X144091389Y-110701858D01*
X144125638Y-110672132D01*
X144178627Y-110663506D01*
X144181212Y-110663086D01*
X144236785Y-110672132D01*
X144271680Y-110702504D01*
X144289774Y-110758078D01*
X144294943Y-110842730D01*
X144294943Y-111341599D01*
X144453910Y-111341599D01*
X144453910Y-110831099D01*
X144450679Y-110764540D01*
X144440985Y-110704443D01*
X144423215Y-110651777D01*
X144395751Y-110607512D01*
X144358271Y-110572132D01*
X144318768Y-110550646D01*
X144574103Y-110550646D01*
X144574103Y-111331260D01*
X144676204Y-111346769D01*
X144744701Y-111349747D01*
X144765380Y-111350646D01*
X144840824Y-111344830D01*
X144909483Y-111327383D01*
X144969742Y-111297496D01*
X145019984Y-111254362D01*
X145020444Y-111253716D01*
X145206090Y-111253716D01*
X145261826Y-111300889D01*
X145325638Y-111333845D01*
X145393328Y-111353231D01*
X145460695Y-111359693D01*
X145555040Y-111345477D01*
X145635170Y-111302827D01*
X145690743Y-111231099D01*
X145711422Y-111130937D01*
X145695913Y-111051454D01*
X145654556Y-110977141D01*
X145596397Y-110907351D01*
X145530485Y-110842730D01*
X145501916Y-110815590D01*
X145848417Y-110815590D01*
X145848417Y-110946123D01*
X146051325Y-110946123D01*
X146051325Y-111171002D01*
X146188320Y-111171002D01*
X146188320Y-110946123D01*
X146296882Y-110946123D01*
X146391228Y-110946123D01*
X146391228Y-110815590D01*
X146188320Y-110815590D01*
X146188320Y-110590711D01*
X146051325Y-110590711D01*
X146051325Y-110815590D01*
X145848417Y-110815590D01*
X145501916Y-110815590D01*
X145491712Y-110805897D01*
X145450355Y-110761955D01*
X145417399Y-110716074D01*
X145403829Y-110673425D01*
X145747609Y-110673425D01*
X145747609Y-110541599D01*
X145225477Y-110541599D01*
X145222246Y-110573910D01*
X145222892Y-110601050D01*
X145228869Y-110663086D01*
X145246801Y-110719952D01*
X145273942Y-110772132D01*
X145307544Y-110820113D01*
X145345670Y-110864378D01*
X145386381Y-110905412D01*
X145427092Y-110944023D01*
X145465218Y-110981018D01*
X145525961Y-111050808D01*
X145549871Y-111119305D01*
X145520145Y-111194911D01*
X145445186Y-111221405D01*
X145366349Y-111203312D01*
X145284927Y-111142569D01*
X145206090Y-111253716D01*
X145020444Y-111253716D01*
X145060210Y-111197819D01*
X145090420Y-111127706D01*
X145109321Y-111042892D01*
X145115622Y-110942246D01*
X145108675Y-110839338D01*
X145087835Y-110752908D01*
X145054717Y-110681987D01*
X145010937Y-110625606D01*
X144957141Y-110583118D01*
X144893974Y-110553877D01*
X144822730Y-110536914D01*
X144744701Y-110531260D01*
X144661341Y-110535784D01*
X144574103Y-110550646D01*
X144318768Y-110550646D01*
X144310452Y-110546123D01*
X144251002Y-110530129D01*
X144178627Y-110524798D01*
X144107383Y-110530129D01*
X144048740Y-110546123D01*
X143965380Y-110607512D01*
X143938885Y-110651777D01*
X143921438Y-110704443D01*
X143911745Y-110764540D01*
X143908514Y-110831099D01*
X142963721Y-110831099D01*
X142839521Y-110417097D01*
X143639262Y-110417097D01*
X143908514Y-110417097D01*
X144178627Y-110417097D01*
G37*
%TO.C,kibuzzard-69CD79CB*%
G36*
X150778885Y-110800565D02*
G01*
X150817011Y-110860662D01*
X150835105Y-110949192D01*
X150838498Y-111001535D01*
X150839628Y-111057754D01*
X150838498Y-111114136D01*
X150835105Y-111166963D01*
X150817011Y-111255493D01*
X150778885Y-111314943D01*
X150712973Y-111336914D01*
X150647706Y-111314943D01*
X150608934Y-111254847D01*
X150590840Y-111166317D01*
X150587447Y-111113974D01*
X150586317Y-111057754D01*
X150587447Y-111001373D01*
X150590840Y-110948546D01*
X150608934Y-110860016D01*
X150647060Y-110800565D01*
X150712973Y-110778595D01*
X150778885Y-110800565D01*
G37*
G36*
X153365164Y-111582903D02*
G01*
X152565423Y-111582903D01*
X152296171Y-111582903D01*
X151925250Y-111582903D01*
X151612488Y-111582903D01*
X150711680Y-111582903D01*
X150404087Y-111582903D01*
X150134836Y-111582903D01*
X150134836Y-111057754D01*
X150424766Y-111057754D01*
X150429451Y-111154806D01*
X150443506Y-111239176D01*
X150466931Y-111310864D01*
X150499725Y-111369871D01*
X150556591Y-111428388D01*
X150627243Y-111463498D01*
X150711680Y-111475202D01*
X150798200Y-111463498D01*
X150869928Y-111428388D01*
X150926866Y-111369871D01*
X150959378Y-111310864D01*
X150982601Y-111239176D01*
X150996535Y-111154806D01*
X151001179Y-111057754D01*
X150996414Y-110960703D01*
X150982116Y-110876333D01*
X150958288Y-110804645D01*
X150924927Y-110745638D01*
X150867487Y-110687121D01*
X150809695Y-110658401D01*
X151104572Y-110658401D01*
X151104572Y-110790226D01*
X151277754Y-110790226D01*
X151277754Y-111326575D01*
X151104572Y-111326575D01*
X151104572Y-111458401D01*
X151612488Y-111458401D01*
X151612488Y-111326575D01*
X151438013Y-111326575D01*
X151438013Y-110790226D01*
X151612488Y-110790226D01*
X151612488Y-110658401D01*
X151714588Y-110658401D01*
X151714588Y-110790226D01*
X151925250Y-110790226D01*
X151925250Y-111458401D01*
X152085509Y-111458401D01*
X152085509Y-110790226D01*
X152296171Y-110790226D01*
X152296171Y-110658401D01*
X151925250Y-110658401D01*
X151714588Y-110658401D01*
X151612488Y-110658401D01*
X151299725Y-110658401D01*
X151104572Y-110658401D01*
X150809695Y-110658401D01*
X150796835Y-110652010D01*
X150712973Y-110640307D01*
X150626525Y-110652010D01*
X150583732Y-110673020D01*
X150555012Y-110687121D01*
X150498433Y-110745638D01*
X150466204Y-110804645D01*
X150443183Y-110876333D01*
X150429370Y-110960703D01*
X150424766Y-111057754D01*
X150134836Y-111057754D01*
X150134836Y-109842892D01*
X150404087Y-109842892D01*
X150583732Y-109842892D01*
X150624443Y-109745315D01*
X150652391Y-109693619D01*
X150683247Y-109643215D01*
X150716365Y-109595073D01*
X150751099Y-109550162D01*
X150818950Y-109477141D01*
X150818950Y-109842892D01*
X150977916Y-109842892D01*
X150977916Y-109804120D01*
X151076139Y-109804120D01*
X151167254Y-109842246D01*
X151229128Y-109855331D01*
X151299725Y-109859693D01*
X151403692Y-109847631D01*
X151489853Y-109811443D01*
X151558207Y-109751131D01*
X151597221Y-109691115D01*
X151625089Y-109619628D01*
X151641809Y-109536672D01*
X151647383Y-109442246D01*
X151640598Y-109348223D01*
X151620242Y-109265186D01*
X151587771Y-109193619D01*
X151574094Y-109174717D01*
X151714588Y-109174717D01*
X151925250Y-109174717D01*
X151925250Y-109842892D01*
X152085509Y-109842892D01*
X152085509Y-109174717D01*
X152296171Y-109174717D01*
X152296171Y-109042892D01*
X151714588Y-109042892D01*
X151714588Y-109174717D01*
X151574094Y-109174717D01*
X151544637Y-109134006D01*
X151491648Y-109086834D01*
X151429612Y-109052585D01*
X151359984Y-109031745D01*
X151284216Y-109024798D01*
X151207318Y-109031906D01*
X151147221Y-109048061D01*
X151103926Y-109067447D01*
X151077431Y-109082956D01*
X151118788Y-109209612D01*
X151190517Y-109176656D01*
X151286801Y-109163086D01*
X151359822Y-109176656D01*
X151423150Y-109221890D01*
X151468384Y-109306543D01*
X151481470Y-109365994D01*
X151485832Y-109438368D01*
X151480591Y-109522590D01*
X151464866Y-109592596D01*
X151438659Y-109648384D01*
X151376462Y-109703150D01*
X151284216Y-109721405D01*
X151181470Y-109707189D01*
X151116204Y-109678756D01*
X151076139Y-109804120D01*
X150977916Y-109804120D01*
X150977916Y-109042892D01*
X150818950Y-109042892D01*
X150818950Y-109375040D01*
X150759499Y-109294911D01*
X150700695Y-109207027D01*
X150649645Y-109120436D01*
X150610872Y-109042892D01*
X150431228Y-109042892D01*
X150474523Y-109122375D01*
X150501502Y-109167932D01*
X150532036Y-109215428D01*
X150565477Y-109264378D01*
X150601179Y-109314297D01*
X150638821Y-109363732D01*
X150678078Y-109411228D01*
X150637690Y-109452908D01*
X150596656Y-109500404D01*
X150556430Y-109552585D01*
X150518465Y-109608320D01*
X150483409Y-109666478D01*
X150451906Y-109725929D01*
X150425089Y-109785218D01*
X150404087Y-109842892D01*
X150134836Y-109842892D01*
X150134836Y-108917097D01*
X150404087Y-108917097D01*
X152296171Y-108917097D01*
X152565423Y-108917097D01*
X153365164Y-111582903D01*
G37*
%TO.C,kibuzzard-69CD7A3A*%
G36*
X145197690Y-115841519D02*
G01*
X145245186Y-115865267D01*
X145281373Y-115955089D01*
X145271680Y-116010016D01*
X145242601Y-116048142D01*
X145197690Y-116070436D01*
X145140501Y-116077868D01*
X145118530Y-116077221D01*
X145092682Y-116073990D01*
X145092682Y-115833603D01*
X145127577Y-115833603D01*
X145197690Y-115841519D01*
G37*
G36*
X146504637Y-113940226D02*
G01*
X146564087Y-113997092D01*
X146596397Y-114083037D01*
X146603667Y-114135218D01*
X146606090Y-114192246D01*
X146598336Y-114293053D01*
X146571195Y-114379645D01*
X146518207Y-114439742D01*
X146431616Y-114462359D01*
X146408352Y-114461712D01*
X146385089Y-114458481D01*
X146385089Y-113920840D01*
X146399305Y-113919548D01*
X146413522Y-113919548D01*
X146504637Y-113940226D01*
G37*
G36*
X146504637Y-115555735D02*
G01*
X146564087Y-115612601D01*
X146596397Y-115698546D01*
X146603667Y-115750727D01*
X146606090Y-115807754D01*
X146598336Y-115908562D01*
X146571195Y-115995153D01*
X146518207Y-116055250D01*
X146431616Y-116077868D01*
X146408352Y-116077221D01*
X146385089Y-116073990D01*
X146385089Y-115536349D01*
X146399305Y-115535057D01*
X146413522Y-115535057D01*
X146504637Y-115555735D01*
G37*
G36*
X147126931Y-113912193D02*
G01*
X147183635Y-113929725D01*
X147225800Y-113983522D01*
X147244827Y-114038736D01*
X147256243Y-114108742D01*
X147260048Y-114193538D01*
X147256243Y-114277616D01*
X147244827Y-114347191D01*
X147225800Y-114402262D01*
X147183635Y-114456058D01*
X147125638Y-114473990D01*
X147068449Y-114456058D01*
X147026123Y-114402262D01*
X147006737Y-114347191D01*
X146995105Y-114277616D01*
X146991824Y-114206462D01*
X147054556Y-114206462D01*
X147073942Y-114267205D01*
X147126931Y-114293053D01*
X147177981Y-114267205D01*
X147198013Y-114206462D01*
X147177981Y-114146365D01*
X147126931Y-114121163D01*
X147073942Y-114146365D01*
X147054556Y-114206462D01*
X146991824Y-114206462D01*
X146991228Y-114193538D01*
X146995105Y-114108742D01*
X147006737Y-114038736D01*
X147026123Y-113983522D01*
X147068449Y-113929725D01*
X147125638Y-113911793D01*
X147126931Y-113912193D01*
G37*
G36*
X147126931Y-115527702D02*
G01*
X147183635Y-115545234D01*
X147225800Y-115599031D01*
X147244827Y-115654245D01*
X147256243Y-115724251D01*
X147260048Y-115809047D01*
X147256243Y-115893125D01*
X147244827Y-115962700D01*
X147225800Y-116017771D01*
X147183635Y-116071567D01*
X147125638Y-116089499D01*
X147068449Y-116071567D01*
X147026123Y-116017771D01*
X147006737Y-115962700D01*
X146995105Y-115893125D01*
X146991824Y-115821971D01*
X147054556Y-115821971D01*
X147073942Y-115882714D01*
X147126931Y-115908562D01*
X147177981Y-115882714D01*
X147198013Y-115821971D01*
X147177981Y-115761874D01*
X147126931Y-115736672D01*
X147073942Y-115761874D01*
X147054556Y-115821971D01*
X146991824Y-115821971D01*
X146991228Y-115809047D01*
X146995105Y-115724251D01*
X147006737Y-115654245D01*
X147026123Y-115599031D01*
X147068449Y-115545234D01*
X147125638Y-115527302D01*
X147126931Y-115527702D01*
G37*
G36*
X145267157Y-113667097D02*
G01*
X145495913Y-113667097D01*
X145970226Y-113667097D01*
X146396721Y-113667097D01*
X147125638Y-113667097D01*
X147403506Y-113667097D01*
X147672757Y-113667097D01*
X147672757Y-116332903D01*
X147403506Y-116332903D01*
X144896236Y-116332903D01*
X144626984Y-116332903D01*
X144585756Y-116195477D01*
X144933716Y-116195477D01*
X144984766Y-116205170D01*
X145040985Y-116211632D01*
X145095267Y-116214863D01*
X145140501Y-116216155D01*
X145205767Y-116212278D01*
X145264572Y-116200646D01*
X145316268Y-116180937D01*
X145360210Y-116152827D01*
X145421599Y-116070759D01*
X145437593Y-116016640D01*
X145442924Y-115953796D01*
X145435816Y-115887237D01*
X145414491Y-115827141D01*
X145376688Y-115777060D01*
X145320145Y-115740549D01*
X145366672Y-115666236D01*
X145414491Y-115580937D01*
X145459079Y-115491761D01*
X145495913Y-115407108D01*
X145524346Y-115407108D01*
X145562472Y-115491115D01*
X145588966Y-115542165D01*
X145618045Y-115597092D01*
X145649225Y-115654766D01*
X145682019Y-115714055D01*
X145714976Y-115773021D01*
X145746640Y-115829725D01*
X145537270Y-116207108D01*
X145709160Y-116207108D01*
X145835816Y-115951212D01*
X145968934Y-116207108D01*
X146129192Y-116207108D01*
X145924992Y-115833603D01*
X145959564Y-115776737D01*
X145993489Y-115717286D01*
X146025961Y-115657351D01*
X146056171Y-115599031D01*
X146083473Y-115543457D01*
X146107221Y-115491761D01*
X146138387Y-115416155D01*
X146226123Y-115416155D01*
X146226123Y-116196769D01*
X146328223Y-116212278D01*
X146417399Y-116216155D01*
X146492843Y-116210339D01*
X146561502Y-116192892D01*
X146621761Y-116163005D01*
X146672003Y-116119871D01*
X146712229Y-116063328D01*
X146742439Y-115993215D01*
X146761341Y-115908401D01*
X146767560Y-115809047D01*
X146847771Y-115809047D01*
X146852294Y-115907108D01*
X146865864Y-115991922D01*
X146888481Y-116063489D01*
X146920145Y-116121809D01*
X146975144Y-116179250D01*
X147043642Y-116213714D01*
X147125638Y-116225202D01*
X147208927Y-116213786D01*
X147277855Y-116179537D01*
X147332423Y-116122456D01*
X147363522Y-116064338D01*
X147385735Y-115992730D01*
X147399063Y-115907633D01*
X147403506Y-115809047D01*
X147399063Y-115709855D01*
X147385735Y-115624233D01*
X147363522Y-115552181D01*
X147332423Y-115493700D01*
X147277855Y-115436259D01*
X147208927Y-115401795D01*
X147125638Y-115390307D01*
X147042350Y-115401795D01*
X146973421Y-115436259D01*
X146918853Y-115493700D01*
X146887754Y-115552181D01*
X146865541Y-115624233D01*
X146852213Y-115709855D01*
X146847771Y-115809047D01*
X146767560Y-115809047D01*
X146767641Y-115807754D01*
X146760695Y-115704847D01*
X146739855Y-115618417D01*
X146706737Y-115547496D01*
X146662956Y-115491115D01*
X146609160Y-115448627D01*
X146545994Y-115419386D01*
X146474750Y-115402423D01*
X146396721Y-115396769D01*
X146313360Y-115401292D01*
X146226123Y-115416155D01*
X146138387Y-115416155D01*
X146142116Y-115407108D01*
X145970226Y-115407108D01*
X145942924Y-115476575D01*
X145910129Y-115553150D01*
X145873780Y-115633279D01*
X145835816Y-115713409D01*
X145798336Y-115635703D01*
X145760856Y-115555089D01*
X145725961Y-115477060D01*
X145696236Y-115407108D01*
X145524346Y-115407108D01*
X145495913Y-115407108D01*
X145329192Y-115407108D01*
X145297044Y-115483199D01*
X145260048Y-115556381D01*
X145219176Y-115628595D01*
X145175396Y-115701777D01*
X145092682Y-115701777D01*
X145092682Y-115407108D01*
X144933716Y-115407108D01*
X144933716Y-116195477D01*
X144585756Y-116195477D01*
X144065046Y-114459774D01*
X144896236Y-114459774D01*
X144896236Y-114591599D01*
X145477819Y-114591599D01*
X145477819Y-114459774D01*
X145267157Y-114459774D01*
X145267157Y-113791599D01*
X145524346Y-113791599D01*
X145562472Y-113875606D01*
X145588966Y-113926656D01*
X145618045Y-113981583D01*
X145649225Y-114039257D01*
X145682019Y-114098546D01*
X145714976Y-114157512D01*
X145746640Y-114214216D01*
X145537270Y-114591599D01*
X145709160Y-114591599D01*
X145835816Y-114335703D01*
X145968934Y-114591599D01*
X145970226Y-114591599D01*
X146129192Y-114591599D01*
X145924992Y-114218094D01*
X145959564Y-114161228D01*
X145993489Y-114101777D01*
X146025961Y-114041842D01*
X146056171Y-113983522D01*
X146083473Y-113927948D01*
X146107221Y-113876252D01*
X146138387Y-113800646D01*
X146226123Y-113800646D01*
X146226123Y-114581260D01*
X146328223Y-114596769D01*
X146396721Y-114599747D01*
X146417399Y-114600646D01*
X146492843Y-114594830D01*
X146561502Y-114577383D01*
X146621761Y-114547496D01*
X146672003Y-114504362D01*
X146712229Y-114447819D01*
X146742439Y-114377706D01*
X146761341Y-114292892D01*
X146767560Y-114193538D01*
X146847771Y-114193538D01*
X146852294Y-114291599D01*
X146865864Y-114376414D01*
X146888481Y-114447981D01*
X146920145Y-114506300D01*
X146975144Y-114563741D01*
X147043642Y-114598205D01*
X147125638Y-114609693D01*
X147208927Y-114598277D01*
X147277855Y-114564028D01*
X147332423Y-114506947D01*
X147363522Y-114448829D01*
X147385735Y-114377221D01*
X147399063Y-114292124D01*
X147403506Y-114193538D01*
X147399063Y-114094346D01*
X147385735Y-114008724D01*
X147363522Y-113936672D01*
X147332423Y-113878191D01*
X147277855Y-113820750D01*
X147208927Y-113786286D01*
X147125638Y-113774798D01*
X147042350Y-113786286D01*
X146973421Y-113820750D01*
X146918853Y-113878191D01*
X146887754Y-113936672D01*
X146865541Y-114008724D01*
X146852213Y-114094346D01*
X146847771Y-114193538D01*
X146767560Y-114193538D01*
X146767641Y-114192246D01*
X146760695Y-114089338D01*
X146739855Y-114002908D01*
X146706737Y-113931987D01*
X146662956Y-113875606D01*
X146609160Y-113833118D01*
X146545994Y-113803877D01*
X146474750Y-113786914D01*
X146396721Y-113781260D01*
X146313360Y-113785784D01*
X146226123Y-113800646D01*
X146138387Y-113800646D01*
X146142116Y-113791599D01*
X145970226Y-113791599D01*
X145942924Y-113861066D01*
X145910129Y-113937641D01*
X145873780Y-114017771D01*
X145835816Y-114097900D01*
X145798336Y-114020194D01*
X145760856Y-113939580D01*
X145725961Y-113861551D01*
X145696236Y-113791599D01*
X145524346Y-113791599D01*
X145267157Y-113791599D01*
X145106898Y-113791599D01*
X145106898Y-114459774D01*
X144896236Y-114459774D01*
X144065046Y-114459774D01*
X143827243Y-113667097D01*
X144626984Y-113667097D01*
X144896236Y-113667097D01*
X145267157Y-113667097D01*
G37*
%TD*%
M02*
