M48
; DRILL file {KiCad 9.0.7} date 2026-05-07T14:12:15-0500
; FORMAT={-:-/ absolute / metric / decimal}
; #@! TF.CreationDate,2026-05-07T14:12:15-05:00
; #@! TF.GenerationSoftware,Kicad,Pcbnew,9.0.7
; #@! TF.FileFunction,Plated,1,2,PTH
FMAT,2
METRIC
; #@! TA.AperFunction,Plated,PTH,ViaDrill
T1C0.300
; #@! TA.AperFunction,Plated,PTH,ComponentDrill
T2C0.300
; #@! TA.AperFunction,Plated,PTH,ComponentDrill
T3C0.400
; #@! TA.AperFunction,Plated,PTH,ComponentDrill
T4C0.500
; #@! TA.AperFunction,Plated,PTH,ComponentDrill
T5C0.600
; #@! TA.AperFunction,Plated,PTH,ComponentDrill
T6C1.000
; #@! TA.AperFunction,Plated,PTH,ComponentDrill
T7C3.000
%
G90
G05
T1
X121.5Y-101.0
X122.0Y-97.5
X123.5Y-132.0
X123.75Y-102.0
X126.15Y-115.0
X126.25Y-104.75
X126.5Y-111.75
X126.5Y-132.0
X127.25Y-93.25
X127.25Y-95.75
X127.5Y-101.75
X128.25Y-121.25
X128.5Y-107.5
X128.75Y-103.0
X129.4Y-99.8
X129.604Y-114.156
X130.0Y-132.0
X130.75Y-93.25
X130.75Y-95.75
X130.775Y-112.825
X131.5Y-100.1
X133.5Y-106.25
X133.75Y-103.5
X134.0Y-93.25
X134.0Y-95.75
X134.0Y-102.0
X134.0Y-127.25
X134.25Y-132.0
X137.25Y-93.25
X137.25Y-95.75
X137.75Y-132.0
X138.5Y-101.0
X138.75Y-125.25
X139.0Y-127.25
X139.4Y-100.2
X140.5Y-93.25
X140.5Y-95.75
X140.75Y-132.0
X140.9Y-97.4
X143.5Y-93.25
X143.5Y-95.75
X143.529Y-110.899
X143.75Y-98.5
X143.75Y-101.0
X144.0Y-103.25
X144.0Y-106.0
X145.2Y-125.0
X145.75Y-132.0
X146.0Y-93.25
X146.25Y-95.75
X146.25Y-98.5
X146.25Y-101.0
X146.25Y-103.5
X146.25Y-106.0
X146.542Y-121.042
X146.75Y-107.75
X147.25Y-109.5
X147.25Y-115.0
X147.25Y-130.75
X148.5Y-132.0
X148.654Y-116.826
X149.4Y-114.5
X149.5Y-130.25
X149.539Y-115.739
X149.872Y-116.85
X151.05Y-116.772
X151.5Y-132.0
X151.75Y-93.25
X151.75Y-95.75
X151.75Y-98.5
X151.75Y-101.0
X151.75Y-103.5
X151.75Y-106.0
X151.75Y-107.75
X152.0Y-112.75
X152.0Y-114.5
X152.0Y-130.25
X153.0Y-112.75
X153.0Y-115.5
X153.5Y-130.5
X153.5Y-132.0
X153.75Y-122.25
X153.75Y-123.65
X153.75Y-128.5
X154.0Y-115.25
X154.25Y-119.0
X154.25Y-120.033
X155.05Y-82.045
X155.1Y-90.3
X156.55Y-116.8
X156.75Y-105.0
X156.81Y-111.415
X157.0Y-98.75
X157.25Y-93.25
X157.25Y-95.75
X157.25Y-103.25
X157.25Y-118.5
X157.25Y-121.75
X157.5Y-126.75
X157.5Y-128.5
X157.5Y-130.5
X157.5Y-132.0
X157.75Y-123.25
X158.5Y-109.5
X158.75Y-97.75
X158.75Y-120.0
X158.75Y-124.95
X159.0Y-93.25
X159.0Y-95.75
X159.5Y-119.0
X160.4Y-122.9
X160.4Y-126.6
X160.5Y-129.25
X160.5Y-132.0
X160.75Y-98.75
X160.75Y-117.0
X161.2Y-119.6
X161.75Y-93.25
X161.75Y-96.0
X161.85Y-118.45
X162.1Y-124.95
X163.0Y-129.25
X163.0Y-132.0
X164.0Y-99.5
X164.0Y-102.75
X164.75Y-93.25
X164.75Y-96.0
X165.25Y-109.0
X165.3Y-117.3
X165.3Y-119.6
X165.75Y-111.25
X165.75Y-129.25
X165.75Y-132.0
X167.5Y-93.25
X167.5Y-95.75
X167.5Y-103.0
X168.2Y-119.7
X168.34Y-109.84
X168.5Y-117.3
X168.75Y-129.25
X168.75Y-132.0
X169.4Y-99.7
X169.75Y-105.0
X170.0Y-107.0
X170.1Y-119.9
X170.75Y-95.75
X171.25Y-93.25
X171.4Y-98.7
X171.75Y-129.25
X171.75Y-132.0
X172.4Y-117.3
X173.75Y-93.25
X173.75Y-95.75
X174.0Y-129.25
X174.0Y-132.0
X174.1Y-98.8
X175.4Y-117.6
X176.25Y-93.25
X176.25Y-95.75
X176.5Y-129.25
X176.5Y-132.0
X177.5Y-117.6
X178.1Y-121.25
X178.4Y-123.05
X179.0Y-93.25
X179.0Y-95.75
X179.0Y-129.25
X179.0Y-132.0
X181.5Y-129.25
X181.5Y-132.0
X183.75Y-129.25
X183.75Y-132.0
X185.75Y-129.25
X185.75Y-132.0
T2
X153.2Y-133.3
T4
X147.5Y-111.25
X147.5Y-112.25
X148.4Y-114.5
X148.4Y-115.5
X149.2Y-109.7
X149.2Y-110.7
X166.75Y-106.5
X166.75Y-107.5
T6
X137.1Y-115.6
X137.1Y-118.14
X137.1Y-120.68
T7
X123.5Y-93.75
X123.75Y-123.75
X183.75Y-124.75
X184.0Y-93.75
T3
G00X183.3Y-103.935
M15
G01X183.3Y-100.335
M16
G05
G00X183.3Y-118.135
M15
G01X183.3Y-114.535
M16
G05
T5
G00X123.5Y-109.075
M15
G01X122.7Y-109.075
M16
G05
G00X123.5Y-117.715
M15
G01X122.7Y-117.715
M16
G05
G00X127.8Y-109.075
M15
G01X126.7Y-109.075
M16
G05
G00X127.8Y-117.715
M15
G01X126.7Y-117.715
M16
G05
M30
