%TF.GenerationSoftware,KiCad,Pcbnew,9.0.7*%
%TF.CreationDate,2026-04-01T15:32:21-05:00*%
%TF.ProjectId,BsidesDSM26,42736964-6573-4445-934d-32362e6b6963,rev?*%
%TF.SameCoordinates,Original*%
%TF.FileFunction,Copper,L2,Bot*%
%TF.FilePolarity,Positive*%
%FSLAX46Y46*%
G04 Gerber Fmt 4.6, Leading zero omitted, Abs format (unit mm)*
G04 Created by KiCad (PCBNEW 9.0.7) date 2026-04-01 15:32:21*
%MOMM*%
%LPD*%
G01*
G04 APERTURE LIST*
%TA.AperFunction,ComponentPad*%
%ADD10R,1.700000X1.700000*%
%TD*%
%TA.AperFunction,ComponentPad*%
%ADD11C,1.700000*%
%TD*%
%TA.AperFunction,ComponentPad*%
%ADD12R,0.850000X0.850000*%
%TD*%
%TA.AperFunction,ComponentPad*%
%ADD13C,0.850000*%
%TD*%
%TA.AperFunction,ComponentPad*%
%ADD14R,0.900000X0.500000*%
%TD*%
%TA.AperFunction,ComponentPad*%
%ADD15C,4.500000*%
%TD*%
%TA.AperFunction,ComponentPad*%
%ADD16O,1.800000X1.000000*%
%TD*%
%TA.AperFunction,ComponentPad*%
%ADD17O,2.100000X1.000000*%
%TD*%
%TA.AperFunction,ViaPad*%
%ADD18C,0.600000*%
%TD*%
%TA.AperFunction,Conductor*%
%ADD19C,0.200000*%
%TD*%
%TA.AperFunction,Conductor*%
%ADD20C,0.120000*%
%TD*%
%TA.AperFunction,Conductor*%
%ADD21C,0.800000*%
%TD*%
G04 APERTURE END LIST*
D10*
%TO.P,J7,1,Pin_1*%
%TO.N,/PB0*%
X137100000Y-123300000D03*
D11*
%TO.P,J7,2,Pin_2*%
%TO.N,/PB1*%
X137100000Y-120760000D03*
%TO.P,J7,3,Pin_3*%
%TO.N,/PB2*%
X137100000Y-118220000D03*
%TO.P,J7,4,Pin_4*%
%TO.N,/PB3*%
X137100000Y-115680000D03*
%TD*%
D12*
%TO.P,J6,1,Pin_1*%
%TO.N,/TCK*%
X149200000Y-109700000D03*
D13*
%TO.P,J6,2,Pin_2*%
%TO.N,/TIO*%
X149200000Y-110700000D03*
%TD*%
D12*
%TO.P,J5,1,Pin_1*%
%TO.N,/UD2+*%
X147500000Y-111250000D03*
D13*
%TO.P,J5,2,Pin_2*%
%TO.N,/UD2-*%
X147500000Y-112250000D03*
%TD*%
D12*
%TO.P,J4,1,Pin_1*%
%TO.N,/UART0-RX*%
X148400000Y-115500000D03*
D13*
%TO.P,J4,2,Pin_2*%
%TO.N,/UART0-TX*%
X148400000Y-114500000D03*
%TD*%
D12*
%TO.P,J3,1,Pin_1*%
%TO.N,/RXD1*%
X166750000Y-107500000D03*
D13*
%TO.P,J3,2,Pin_2*%
%TO.N,/TXD1*%
X166750000Y-106500000D03*
%TD*%
D10*
%TO.P,BT1,1,+*%
%TO.N,BattPos*%
X146750000Y-128790000D03*
D11*
%TO.P,BT1,2,-*%
%TO.N,VSS*%
X146750000Y-126250000D03*
%TD*%
D14*
%TO.P,AE2,2*%
%TO.N,VSS*%
X153200000Y-133300000D03*
%TD*%
D15*
%TO.P,H4,1*%
%TO.N,N/C*%
X123750000Y-123750000D03*
%TD*%
%TO.P,H1,1*%
%TO.N,N/C*%
X123500000Y-93750000D03*
%TD*%
%TO.P,H3,1*%
%TO.N,N/C*%
X183750000Y-124750000D03*
%TD*%
D16*
%TO.P,J1,S1,SHIELD*%
%TO.N,VSS*%
X123100000Y-117715000D03*
D17*
X127250000Y-117715000D03*
D16*
X123100000Y-109075000D03*
D17*
X127250000Y-109075000D03*
%TD*%
D15*
%TO.P,H2,1*%
%TO.N,N/C*%
X184000000Y-93750000D03*
%TD*%
D18*
%TO.N,VSS*%
X178400000Y-119100000D03*
X178700000Y-124100000D03*
X179000000Y-127500000D03*
X174400000Y-118400000D03*
X175000000Y-121700000D03*
X174600000Y-127000000D03*
X169700000Y-126000000D03*
X170100000Y-122800000D03*
X170500000Y-119400000D03*
X167100000Y-124200000D03*
X167500000Y-121800000D03*
X167300000Y-127000000D03*
X162100000Y-124700000D03*
X161700000Y-119600000D03*
X160400000Y-122900000D03*
X160400000Y-126600000D03*
X154250000Y-119000000D03*
X154250000Y-120500000D03*
X153000000Y-115500000D03*
X152000000Y-114500000D03*
X152000000Y-112750000D03*
X153000000Y-112750000D03*
X154000000Y-115250000D03*
X123500000Y-132000000D03*
X126500000Y-132000000D03*
X130000000Y-132000000D03*
X134250000Y-132000000D03*
X137750000Y-132000000D03*
X140750000Y-132000000D03*
X152000000Y-130250000D03*
X149500000Y-130250000D03*
X147250000Y-130750000D03*
X145750000Y-132000000D03*
X148500000Y-132000000D03*
X151500000Y-132000000D03*
X160500000Y-129250000D03*
X163000000Y-129250000D03*
X165750000Y-129250000D03*
X168750000Y-129250000D03*
X171750000Y-129250000D03*
X174000000Y-129250000D03*
X176500000Y-129250000D03*
X179000000Y-129250000D03*
X181500000Y-129250000D03*
X183750000Y-129250000D03*
X185750000Y-129250000D03*
X185750000Y-132000000D03*
X183750000Y-132000000D03*
X181500000Y-132000000D03*
X179000000Y-132000000D03*
X176500000Y-132000000D03*
X174000000Y-132000000D03*
X171750000Y-132000000D03*
X168750000Y-132000000D03*
X165750000Y-132000000D03*
X163000000Y-132000000D03*
X160500000Y-132000000D03*
X159500000Y-119000000D03*
X160750000Y-117000000D03*
X158750000Y-120000000D03*
X157250000Y-118500000D03*
X157250000Y-121750000D03*
X157750000Y-123250000D03*
X158750000Y-124750000D03*
X157500000Y-126750000D03*
X157500000Y-128500000D03*
X157500000Y-130500000D03*
X157500000Y-132000000D03*
X153500000Y-132000000D03*
X153500000Y-130500000D03*
X153750000Y-128500000D03*
X153750000Y-124250000D03*
X153750000Y-122250000D03*
X169750000Y-105000000D03*
X170000000Y-107000000D03*
X168500000Y-110000000D03*
X165750000Y-111250000D03*
X165250000Y-109000000D03*
X156750000Y-105000000D03*
X147250000Y-109500000D03*
X146750000Y-107750000D03*
X144000000Y-106000000D03*
X144000000Y-103250000D03*
X143750000Y-101000000D03*
X143750000Y-98500000D03*
X138500000Y-101000000D03*
X134000000Y-102000000D03*
X127500000Y-101750000D03*
X123750000Y-102000000D03*
X121500000Y-101000000D03*
X122000000Y-97500000D03*
X127250000Y-95750000D03*
X130750000Y-95750000D03*
X134000000Y-95750000D03*
X137250000Y-95750000D03*
X140500000Y-95750000D03*
X143500000Y-95750000D03*
X158750000Y-97750000D03*
X157250000Y-95750000D03*
X157250000Y-93250000D03*
X159000000Y-95750000D03*
X161750000Y-96000000D03*
X164750000Y-96000000D03*
X167500000Y-95750000D03*
X170750000Y-95750000D03*
X173750000Y-95750000D03*
X176250000Y-95750000D03*
X179000000Y-95750000D03*
X179000000Y-93250000D03*
X176250000Y-93250000D03*
X173750000Y-93250000D03*
X171250000Y-93250000D03*
X167500000Y-93250000D03*
X164750000Y-93250000D03*
X161750000Y-93250000D03*
X159000000Y-93250000D03*
X127250000Y-93250000D03*
X130750000Y-93250000D03*
X134000000Y-93250000D03*
X137250000Y-93250000D03*
X140500000Y-93250000D03*
X143500000Y-93250000D03*
X146000000Y-93250000D03*
X146250000Y-95750000D03*
X146250000Y-98500000D03*
X146250000Y-101000000D03*
X146250000Y-103500000D03*
X146250000Y-106000000D03*
X164000000Y-102750000D03*
X164000000Y-99500000D03*
X160750000Y-98750000D03*
X157000000Y-98750000D03*
X157250000Y-103250000D03*
X151750000Y-107750000D03*
X151750000Y-106000000D03*
X151750000Y-103500000D03*
X151750000Y-101000000D03*
X151750000Y-98500000D03*
X151750000Y-95750000D03*
X151750000Y-93250000D03*
%TO.N,+3V3*%
X134000000Y-127250000D03*
X139000000Y-127250000D03*
%TO.N,VCC*%
X138750000Y-125250000D03*
X128250000Y-121250000D03*
%TO.N,VSS*%
X128500000Y-107500000D03*
X133500000Y-106250000D03*
X133750000Y-103500000D03*
X126250000Y-104750000D03*
X128750000Y-103000000D03*
%TO.N,+5V*%
X126150000Y-115000000D03*
X126500000Y-111750000D03*
%TO.N,/PB0*%
X150619971Y-116901371D03*
%TO.N,/PB1*%
X149871730Y-116850001D03*
%TO.N,/PB2*%
X148654496Y-116826000D03*
%TO.N,/PB3*%
X149538909Y-115738909D03*
%TO.N,/SK6812*%
X128500000Y-100600000D03*
X149400000Y-114500000D03*
%TO.N,R3*%
X170750000Y-110750000D03*
X156750000Y-113000000D03*
%TO.N,B3*%
X171750000Y-110750000D03*
X157950000Y-113190063D03*
%TO.N,G3*%
X172750000Y-110750000D03*
X157949998Y-113940065D03*
%TO.N,R4*%
X182000000Y-107000000D03*
X157601898Y-114609801D03*
%TO.N,VCC*%
X167500000Y-103000000D03*
X158500000Y-109500000D03*
X146542202Y-121042200D03*
%TO.N,Net-(U2-Dout)*%
X166250000Y-100500000D03*
X141000000Y-100000000D03*
%TO.N,/~{RST}*%
X147250000Y-115000000D03*
X143529062Y-110898793D03*
%TO.N,/UD+*%
X130775000Y-112825000D03*
X129604265Y-114155663D03*
%TO.N,Net-(U5-VDCIA)*%
X156810088Y-111415442D03*
X156550000Y-116800000D03*
%TO.N,Net-(JP1-B)*%
X155049991Y-82045134D03*
X155100000Y-90300000D03*
%TD*%
D19*
%TO.N,R4*%
X182000000Y-107499999D02*
X182000000Y-107000000D01*
X176526666Y-112973333D02*
X182000000Y-107499999D01*
X157601898Y-114609801D02*
X157623235Y-114588463D01*
X172678910Y-114567126D02*
G75*
G03*
X176526656Y-112973323I-10J5441526D01*
G01*
X157623235Y-114588463D02*
G75*
G02*
X157674748Y-114567167I51465J-51537D01*
G01*
X157674748Y-114567126D02*
X172678910Y-114567126D01*
%TO.N,Net-(U2-Dout)*%
X161620494Y-107879505D02*
X165277728Y-104222271D01*
X155742891Y-111012134D02*
X157526939Y-109228084D01*
X155738602Y-111013911D02*
X155742891Y-111012134D01*
X155734312Y-111020713D02*
X155736089Y-111016424D01*
X158439727Y-108849997D02*
X159277513Y-108850000D01*
X154192983Y-112562042D02*
X155734312Y-111020713D01*
X150210660Y-113750000D02*
X151325000Y-113750000D01*
X147345070Y-112950000D02*
X148279289Y-112950000D01*
X147174196Y-112878912D02*
X147174196Y-112879222D01*
X146897797Y-112602513D02*
X147174196Y-112878912D01*
X146897487Y-112602513D02*
X146897797Y-112602513D01*
X146550000Y-111755025D02*
X146550000Y-111763605D01*
X144937652Y-109642677D02*
X146196446Y-110901471D01*
X142593792Y-107843792D02*
X144007322Y-109257322D01*
X165277728Y-104222271D02*
G75*
G03*
X166250012Y-101875000I-2347228J2347271D01*
G01*
X159277513Y-108850000D02*
G75*
G03*
X161620493Y-107879504I-13J3313500D01*
G01*
X157526939Y-109228084D02*
G75*
G02*
X158439727Y-108850022I912761J-912816D01*
G01*
X155736089Y-111016424D02*
G75*
G02*
X155738602Y-111013889I2511J24D01*
G01*
X141000000Y-100000000D02*
X141000000Y-103996036D01*
X151325000Y-113750000D02*
G75*
G03*
X154192975Y-112562034I0J4055900D01*
G01*
X149244975Y-113350000D02*
G75*
G03*
X150210660Y-113750024I965725J965700D01*
G01*
X147174196Y-112879222D02*
G75*
G03*
X147345070Y-112950007I170904J170922D01*
G01*
X146196446Y-110901471D02*
G75*
G02*
X146549984Y-111755025I-853546J-853529D01*
G01*
X146550000Y-111763605D02*
G75*
G03*
X146897489Y-112602511I1186400J5D01*
G01*
X144472487Y-109450000D02*
G75*
G02*
X144937649Y-109642680I13J-657800D01*
G01*
X144007322Y-109257322D02*
G75*
G03*
X144472487Y-109450021I465178J465122D01*
G01*
X148279289Y-112950000D02*
G75*
G02*
X149244983Y-113349992I11J-1365700D01*
G01*
X141000000Y-103996036D02*
G75*
G03*
X142593800Y-107843784I5441600J36D01*
G01*
X166250000Y-101875000D02*
X166250000Y-100500000D01*
%TO.N,/SK6812*%
X149062000Y-114162000D02*
X149400000Y-114500000D01*
X149029673Y-114130227D02*
X149062000Y-114162000D01*
X148852995Y-113996986D02*
X148887403Y-114018071D01*
X148680009Y-113824000D02*
X148852995Y-113996986D01*
X148017234Y-113815346D02*
X148121309Y-113823537D01*
X147914122Y-113799015D02*
X148017234Y-113815346D01*
X148960741Y-114071354D02*
X149029673Y-114130227D01*
X147812609Y-113774645D02*
X147914122Y-113799015D01*
X147713321Y-113742385D02*
X147812609Y-113774645D01*
X147523851Y-113655039D02*
X147616870Y-113702434D01*
X147434838Y-113600492D02*
X147523851Y-113655039D01*
X147270994Y-113471328D02*
X147350378Y-113539129D01*
X146934743Y-113434743D02*
X147233759Y-113434743D01*
X147616870Y-113702434D02*
X147713321Y-113742385D01*
X135992808Y-102492808D02*
X146934743Y-113434743D01*
X135992808Y-102193792D02*
X135992808Y-102492808D01*
X135920556Y-102122134D02*
X135992808Y-102193792D01*
X135771363Y-101983706D02*
X135920556Y-102122134D01*
X135294224Y-101603211D02*
X135457978Y-101724063D01*
X134953739Y-101380288D02*
X135126066Y-101488566D01*
X135617098Y-101850954D02*
X135771363Y-101983706D01*
X147350378Y-113539129D02*
X147434838Y-113600492D01*
X134777484Y-101278530D02*
X134953739Y-101380288D01*
X134414181Y-101095131D02*
X134597548Y-101183433D01*
X134227641Y-101013747D02*
X134414181Y-101095131D01*
X134038188Y-100939394D02*
X134227641Y-101013747D01*
X133846088Y-100872178D02*
X134038188Y-100939394D01*
X135457978Y-101724063D02*
X135617098Y-101850954D01*
X133256604Y-100714233D02*
X133455022Y-100759518D01*
X132653142Y-100623281D02*
X132855383Y-100646067D01*
X134597548Y-101183433D02*
X134777484Y-101278530D01*
X132450191Y-100608074D02*
X132653142Y-100623281D01*
X133455022Y-100759518D02*
X133651608Y-100812191D01*
X148121309Y-113823537D02*
X148173508Y-113824000D01*
X132246812Y-100600466D02*
X132450191Y-100608074D01*
X132145052Y-100600000D02*
X132246812Y-100600466D01*
X133651608Y-100812191D02*
X133846088Y-100872178D01*
X128500000Y-100600000D02*
X132145052Y-100600000D01*
X147233759Y-113434743D02*
X147270994Y-113471328D01*
%TO.N,/~{RST}*%
X143825448Y-111195180D02*
X143529062Y-110898793D01*
%TO.N,/SK6812*%
X133056631Y-100676398D02*
X133256604Y-100714233D01*
X148173508Y-113824000D02*
X148680009Y-113824000D01*
X135126066Y-101488566D02*
X135294224Y-101603211D01*
%TO.N,/~{RST}*%
X144048107Y-111798107D02*
G75*
G02*
X143825489Y-111260560I537593J537507D01*
G01*
%TO.N,/SK6812*%
X148887403Y-114018071D02*
X148960741Y-114071354D01*
%TO.N,/~{RST}*%
X147250000Y-115000000D02*
X144048107Y-111798107D01*
%TO.N,/SK6812*%
X132855383Y-100646067D02*
X133056631Y-100676398D01*
%TO.N,/~{RST}*%
X143825448Y-111260560D02*
X143825448Y-111195180D01*
%TO.N,/PB3*%
X139428000Y-115928000D02*
G75*
G03*
X140026724Y-116175990I598700J598700D01*
G01*
X148792747Y-116176000D02*
G75*
G03*
X149320348Y-115957439I-47J746200D01*
G01*
X139428000Y-115928000D02*
G75*
G03*
X138829275Y-115680010I-598700J-598700D01*
G01*
%TO.N,/PB0*%
X139899999Y-119299999D02*
G75*
G02*
X142555634Y-118200013I2655601J-2655601D01*
G01*
X138800000Y-121150000D02*
G75*
G02*
X139330322Y-119869661I1810700J0D01*
G01*
X148403072Y-118200000D02*
G75*
G03*
X149970671Y-117550700I28J2216900D01*
G01*
X137506065Y-123193933D02*
G75*
G02*
X137250000Y-123300008I-256065J256033D01*
G01*
X138269669Y-122430330D02*
G75*
G03*
X138799988Y-121150000I-1280369J1280330D01*
G01*
D20*
%TO.N,/PB1*%
X137297989Y-120002010D02*
G75*
G03*
X137100005Y-120480000I478011J-477990D01*
G01*
X141709188Y-117500000D02*
G75*
G03*
X138450003Y-118850003I12J-4609200D01*
G01*
X148762112Y-117500000D02*
G75*
G03*
X149546721Y-117174991I-12J1109600D01*
G01*
D19*
%TO.N,/PB2*%
X137797000Y-117523000D02*
G75*
G02*
X139479706Y-116826003I1682700J-1682700D01*
G01*
%TO.N,Net-(U5-VDCIA)*%
X156251256Y-116625000D02*
G75*
G02*
X156462513Y-116712487I44J-298700D01*
G01*
X155437500Y-116187500D02*
G75*
G02*
X155000008Y-115131281I1056200J1056200D01*
G01*
X156206352Y-111793647D02*
G75*
G02*
X156398854Y-111713934I192448J-192453D01*
G01*
X156591355Y-111634174D02*
G75*
G02*
X156398854Y-111713886I-192455J192474D01*
G01*
X156125000Y-116625000D02*
G75*
G02*
X155698213Y-116448233I0J603600D01*
G01*
X155000000Y-113909402D02*
G75*
G02*
X155643042Y-112356953I2195500J2D01*
G01*
D21*
%TO.N,Net-(JP1-B)*%
X155100000Y-82130504D02*
G75*
G03*
X155075003Y-82070130I-85400J4D01*
G01*
D19*
%TO.N,G3*%
X171212561Y-112287438D02*
G75*
G02*
X167500856Y-113824836I-3711661J3711738D01*
G01*
X158146636Y-113824877D02*
G75*
G03*
X158007577Y-113882456I-36J-196623D01*
G01*
%TO.N,R3*%
X156930468Y-112819531D02*
G75*
G02*
X157366158Y-112639026I435732J-435669D01*
G01*
X159328444Y-112750000D02*
G75*
G02*
X159194505Y-112694557I-44J189400D01*
G01*
X159060618Y-112639063D02*
G75*
G02*
X159194512Y-112694550I-18J-189337D01*
G01*
X167335786Y-112750000D02*
G75*
G03*
X169750004Y-111750004I14J3414200D01*
G01*
%TO.N,B3*%
X157979968Y-113220031D02*
G75*
G03*
X158052318Y-113249992I72332J72331D01*
G01*
X170500000Y-112000000D02*
G75*
G02*
X167482233Y-113250014I-3017800J3017800D01*
G01*
%TO.N,+5V*%
X125000000Y-113550000D02*
G75*
G02*
X125212125Y-113037860I724300J0D01*
G01*
X125000000Y-113550000D02*
G75*
G03*
X125212125Y-114062139I724300J0D01*
G01*
%TO.N,VCC*%
X156018986Y-111427311D02*
G75*
G03*
X156000027Y-111473149I45814J-45789D01*
G01*
X155981013Y-111518986D02*
G75*
G03*
X156000041Y-111473149I-45813J45886D01*
G01*
X157750534Y-109695763D02*
G75*
G02*
X158223149Y-109500041I472566J-472637D01*
G01*
X147050001Y-121042200D02*
G75*
G03*
X147916861Y-120683124I-1J1225900D01*
G01*
X151600000Y-116450000D02*
G75*
G02*
X151211088Y-117388905I-1327800J0D01*
G01*
X161883883Y-108616116D02*
G75*
G02*
X159750000Y-109499990I-2133883J2133916D01*
G01*
X151600000Y-116450000D02*
G75*
G02*
X151988912Y-115511095I1327800J0D01*
G01*
X130656207Y-123656207D02*
G75*
G03*
X134503963Y-125250011I3847793J3847807D01*
G01*
%TO.N,+3V3*%
X134000000Y-127250000D02*
X139000000Y-127250000D01*
%TO.N,VCC*%
X138750000Y-125250000D02*
X134503963Y-125250000D01*
X130656207Y-123656207D02*
X128250000Y-121250000D01*
%TO.N,+5V*%
X126150000Y-115000000D02*
X125212132Y-114062132D01*
X126500000Y-111750000D02*
X125212132Y-113037867D01*
%TO.N,/PB0*%
X137250000Y-123300000D02*
X137100000Y-123300000D01*
X138269669Y-122430330D02*
X137506065Y-123193933D01*
X139899999Y-119299999D02*
X139330330Y-119869669D01*
X148403072Y-118200000D02*
X142555634Y-118200000D01*
X150619971Y-116901371D02*
X149970656Y-117550685D01*
%TO.N,VCC*%
X147050001Y-121042200D02*
X146542202Y-121042200D01*
X147916868Y-120683131D02*
X151211091Y-117388908D01*
X155981013Y-111518986D02*
X151988908Y-115511091D01*
X157750534Y-109695763D02*
X156018986Y-111427311D01*
X158223149Y-109500000D02*
X158500000Y-109500000D01*
D20*
%TO.N,/PB1*%
X137297989Y-120002010D02*
X138450000Y-118850000D01*
X148762112Y-117500000D02*
X141709188Y-117500000D01*
X137100000Y-120480000D02*
X137100000Y-120760000D01*
X149871730Y-116850001D02*
X149546730Y-117175000D01*
D19*
%TO.N,/PB3*%
X138829275Y-115680000D02*
X137100000Y-115680000D01*
X148792747Y-116176000D02*
X140026724Y-116176000D01*
X149320363Y-115957454D02*
X149538909Y-115738909D01*
%TO.N,/PB2*%
X139479706Y-116826000D02*
X148654496Y-116826000D01*
X137797000Y-117523000D02*
X137100000Y-118220000D01*
%TO.N,R3*%
X169750000Y-111750000D02*
X170750000Y-110750000D01*
X159328444Y-112750000D02*
X167335786Y-112750000D01*
X159060618Y-112639063D02*
X157366158Y-112639063D01*
X156750000Y-113000000D02*
X156930468Y-112819531D01*
%TO.N,Net-(U5-VDCIA)*%
X155000000Y-113909402D02*
X155000000Y-115131281D01*
X156251256Y-116625000D02*
X156125000Y-116625000D01*
X155437500Y-116187500D02*
X155698223Y-116448223D01*
X156206352Y-111793647D02*
X155643044Y-112356955D01*
X156591355Y-111634174D02*
X156810088Y-111415442D01*
X156462500Y-116712500D02*
X156550000Y-116800000D01*
%TO.N,B3*%
X158052318Y-113250000D02*
X167482233Y-113250000D01*
X157979968Y-113220031D02*
X157950000Y-113190063D01*
X170500000Y-112000000D02*
X171750000Y-110750000D01*
%TO.N,G3*%
X157949998Y-113940065D02*
X158007592Y-113882471D01*
X171212561Y-112287438D02*
X172750000Y-110750000D01*
X158146636Y-113824877D02*
X167500856Y-113824877D01*
%TO.N,VCC*%
X167500000Y-103000000D02*
X161883883Y-108616116D01*
X158500000Y-109500000D02*
X159750000Y-109500000D01*
%TO.N,/UD+*%
X130775000Y-112825000D02*
X129604265Y-113995735D01*
D21*
%TO.N,Net-(JP1-B)*%
X155049991Y-82045134D02*
X155074995Y-82070138D01*
X155100000Y-90300000D02*
X155100000Y-82130504D01*
%TD*%
%TA.AperFunction,Conductor*%
%TO.N,VSS*%
G36*
X152103954Y-114304980D02*
G01*
X152158183Y-114349035D01*
X152179986Y-114415416D01*
X152162439Y-114483047D01*
X152143729Y-114507033D01*
X151503221Y-115147542D01*
X151503171Y-115147598D01*
X151474935Y-115175836D01*
X151474924Y-115175848D01*
X151321047Y-115376381D01*
X151319224Y-115379539D01*
X151194654Y-115595296D01*
X151149722Y-115703769D01*
X151097918Y-115828835D01*
X151097918Y-115828837D01*
X151037062Y-116055947D01*
X151000697Y-116115607D01*
X150937850Y-116146135D01*
X150869838Y-116138414D01*
X150853472Y-116131635D01*
X150853460Y-116131632D01*
X150698816Y-116100871D01*
X150698813Y-116100871D01*
X150541129Y-116100871D01*
X150454474Y-116118107D01*
X150384883Y-116111878D01*
X150329706Y-116069015D01*
X150306462Y-116003125D01*
X150308666Y-115972302D01*
X150337204Y-115828837D01*
X150339409Y-115817753D01*
X150339409Y-115660064D01*
X150339408Y-115660062D01*
X150338660Y-115656303D01*
X150308646Y-115505412D01*
X150299200Y-115482607D01*
X150248306Y-115359736D01*
X150248299Y-115359723D01*
X150160698Y-115228620D01*
X150160695Y-115228616D01*
X150061935Y-115129856D01*
X150028450Y-115068533D01*
X150033434Y-114998841D01*
X150046512Y-114973287D01*
X150109394Y-114879179D01*
X150115244Y-114865057D01*
X150124260Y-114843290D01*
X150169737Y-114733497D01*
X150200500Y-114578842D01*
X150200500Y-114474500D01*
X150220185Y-114407461D01*
X150272989Y-114361706D01*
X150324500Y-114350500D01*
X151252086Y-114350500D01*
X151273627Y-114350500D01*
X151273664Y-114350511D01*
X151325000Y-114350511D01*
X151528306Y-114350511D01*
X151528306Y-114350510D01*
X151933368Y-114315072D01*
X152034517Y-114297236D01*
X152103954Y-114304980D01*
G37*
%TD.AperFunction*%
%TA.AperFunction,Conductor*%
G36*
X181693874Y-92019685D02*
G01*
X181739629Y-92072489D01*
X181749573Y-92141647D01*
X181731829Y-92189972D01*
X181588903Y-92417437D01*
X181454868Y-92695763D01*
X181454862Y-92695777D01*
X181352835Y-92987352D01*
X181352831Y-92987364D01*
X181284089Y-93288544D01*
X181284086Y-93288562D01*
X181249500Y-93595528D01*
X181249500Y-93904471D01*
X181284086Y-94211437D01*
X181284089Y-94211455D01*
X181352831Y-94512635D01*
X181352835Y-94512647D01*
X181454862Y-94804222D01*
X181454868Y-94804236D01*
X181588903Y-95082562D01*
X181588905Y-95082565D01*
X181753265Y-95344143D01*
X181945880Y-95585674D01*
X182164326Y-95804120D01*
X182405857Y-95996735D01*
X182667435Y-96161095D01*
X182945771Y-96295135D01*
X182945777Y-96295137D01*
X183237352Y-96397164D01*
X183237364Y-96397168D01*
X183538548Y-96465911D01*
X183538554Y-96465911D01*
X183538562Y-96465913D01*
X183743206Y-96488970D01*
X183845529Y-96500499D01*
X183845532Y-96500500D01*
X183845535Y-96500500D01*
X184154468Y-96500500D01*
X184154469Y-96500499D01*
X184311356Y-96482822D01*
X184461437Y-96465913D01*
X184461442Y-96465912D01*
X184461452Y-96465911D01*
X184762636Y-96397168D01*
X185054229Y-96295135D01*
X185332565Y-96161095D01*
X185594143Y-95996735D01*
X185835674Y-95804120D01*
X186054120Y-95585674D01*
X186246735Y-95344143D01*
X186411095Y-95082565D01*
X186411098Y-95082559D01*
X186487060Y-94924823D01*
X186533882Y-94872963D01*
X186601309Y-94854650D01*
X186667933Y-94875698D01*
X186712602Y-94929424D01*
X186722780Y-94978547D01*
X186741073Y-124522583D01*
X186721430Y-124589635D01*
X186668654Y-124635422D01*
X186599502Y-124645409D01*
X186535928Y-124616423D01*
X186498118Y-124557668D01*
X186493853Y-124536543D01*
X186491159Y-124512636D01*
X186480858Y-124421203D01*
X186465913Y-124288561D01*
X186465910Y-124288544D01*
X186397168Y-123987364D01*
X186397164Y-123987352D01*
X186295137Y-123695777D01*
X186295135Y-123695771D01*
X186161095Y-123417435D01*
X185996735Y-123155857D01*
X185804120Y-122914326D01*
X185585674Y-122695880D01*
X185585537Y-122695771D01*
X185350351Y-122508216D01*
X185344143Y-122503265D01*
X185154809Y-122384299D01*
X185082562Y-122338903D01*
X184804236Y-122204868D01*
X184804222Y-122204862D01*
X184512647Y-122102835D01*
X184512635Y-122102831D01*
X184211455Y-122034089D01*
X184211437Y-122034086D01*
X183904471Y-121999500D01*
X183904465Y-121999500D01*
X183595535Y-121999500D01*
X183595528Y-121999500D01*
X183288562Y-122034086D01*
X183288544Y-122034089D01*
X182987364Y-122102831D01*
X182987352Y-122102835D01*
X182695777Y-122204862D01*
X182695763Y-122204868D01*
X182417437Y-122338903D01*
X182155858Y-122503264D01*
X181914326Y-122695879D01*
X181695879Y-122914326D01*
X181503264Y-123155858D01*
X181338903Y-123417437D01*
X181204868Y-123695763D01*
X181204862Y-123695777D01*
X181102835Y-123987352D01*
X181102831Y-123987364D01*
X181034089Y-124288544D01*
X181034086Y-124288562D01*
X180999500Y-124595528D01*
X180999500Y-124904471D01*
X181034086Y-125211437D01*
X181034089Y-125211455D01*
X181102831Y-125512635D01*
X181102835Y-125512647D01*
X181204862Y-125804222D01*
X181204868Y-125804236D01*
X181338903Y-126082562D01*
X181338905Y-126082565D01*
X181503265Y-126344143D01*
X181695880Y-126585674D01*
X181914326Y-126804120D01*
X182155857Y-126996735D01*
X182417435Y-127161095D01*
X182695771Y-127295135D01*
X182695777Y-127295137D01*
X182987352Y-127397164D01*
X182987364Y-127397168D01*
X183288548Y-127465911D01*
X183288554Y-127465911D01*
X183288562Y-127465913D01*
X183493206Y-127488970D01*
X183595529Y-127500499D01*
X183595532Y-127500500D01*
X183595535Y-127500500D01*
X183904468Y-127500500D01*
X183904469Y-127500499D01*
X184061356Y-127482822D01*
X184211437Y-127465913D01*
X184211442Y-127465912D01*
X184211452Y-127465911D01*
X184512636Y-127397168D01*
X184804229Y-127295135D01*
X185082565Y-127161095D01*
X185344143Y-126996735D01*
X185585674Y-126804120D01*
X185804120Y-126585674D01*
X185996735Y-126344143D01*
X186161095Y-126082565D01*
X186295135Y-125804229D01*
X186397168Y-125512636D01*
X186465911Y-125211452D01*
X186470452Y-125171155D01*
X186486965Y-125024593D01*
X186494133Y-124960969D01*
X186521199Y-124896557D01*
X186578794Y-124857002D01*
X186648631Y-124854864D01*
X186708537Y-124890822D01*
X186739493Y-124953460D01*
X186741353Y-124974777D01*
X186746246Y-132875923D01*
X186726603Y-132942975D01*
X186673827Y-132988762D01*
X186622246Y-133000000D01*
X121222040Y-133000000D01*
X121155001Y-132980315D01*
X121109246Y-132927511D01*
X121098040Y-132876056D01*
X121095441Y-127171153D01*
X133199500Y-127171153D01*
X133199500Y-127328846D01*
X133230261Y-127483489D01*
X133230264Y-127483501D01*
X133290602Y-127629172D01*
X133290609Y-127629185D01*
X133378210Y-127760288D01*
X133378213Y-127760292D01*
X133489707Y-127871786D01*
X133489711Y-127871789D01*
X133620814Y-127959390D01*
X133620827Y-127959397D01*
X133766498Y-128019735D01*
X133766503Y-128019737D01*
X133921153Y-128050499D01*
X133921156Y-128050500D01*
X133921158Y-128050500D01*
X134078844Y-128050500D01*
X134078845Y-128050499D01*
X134233497Y-128019737D01*
X134379179Y-127959394D01*
X134379185Y-127959390D01*
X134510875Y-127871398D01*
X134577553Y-127850520D01*
X134579766Y-127850500D01*
X138420234Y-127850500D01*
X138487273Y-127870185D01*
X138489125Y-127871398D01*
X138620814Y-127959390D01*
X138620827Y-127959397D01*
X138766498Y-128019735D01*
X138766503Y-128019737D01*
X138921153Y-128050499D01*
X138921156Y-128050500D01*
X138921158Y-128050500D01*
X139078844Y-128050500D01*
X139078845Y-128050499D01*
X139233497Y-128019737D01*
X139379179Y-127959394D01*
X139479839Y-127892135D01*
X145399500Y-127892135D01*
X145399500Y-129687870D01*
X145399501Y-129687876D01*
X145405908Y-129747483D01*
X145456202Y-129882328D01*
X145456206Y-129882335D01*
X145542452Y-129997544D01*
X145542455Y-129997547D01*
X145657664Y-130083793D01*
X145657671Y-130083797D01*
X145792517Y-130134091D01*
X145792516Y-130134091D01*
X145799444Y-130134835D01*
X145852127Y-130140500D01*
X147647872Y-130140499D01*
X147707483Y-130134091D01*
X147842331Y-130083796D01*
X147957546Y-129997546D01*
X148043796Y-129882331D01*
X148094091Y-129747483D01*
X148100500Y-129687873D01*
X148100499Y-127892128D01*
X148094091Y-127832517D01*
X148067151Y-127760288D01*
X148043797Y-127697671D01*
X148043793Y-127697664D01*
X147957547Y-127582455D01*
X147957544Y-127582452D01*
X147947589Y-127575000D01*
X149300000Y-127575000D01*
X151390000Y-127575000D01*
X151390000Y-125675000D01*
X149300000Y-125675000D01*
X149300000Y-127575000D01*
X147947589Y-127575000D01*
X147842335Y-127496206D01*
X147842328Y-127496202D01*
X147707482Y-127445908D01*
X147707483Y-127445908D01*
X147647883Y-127439501D01*
X147647881Y-127439500D01*
X147647873Y-127439500D01*
X147647865Y-127439500D01*
X147637309Y-127439500D01*
X147570270Y-127419815D01*
X147549628Y-127403181D01*
X146879408Y-126732962D01*
X146942993Y-126715925D01*
X147057007Y-126650099D01*
X147150099Y-126557007D01*
X147215925Y-126442993D01*
X147232962Y-126379409D01*
X147865270Y-127011717D01*
X147865270Y-127011716D01*
X147904622Y-126957554D01*
X148001095Y-126768217D01*
X148066757Y-126566130D01*
X148066757Y-126566127D01*
X148100000Y-126356246D01*
X148100000Y-126143753D01*
X148066757Y-125933872D01*
X148066757Y-125933869D01*
X148001094Y-125731779D01*
X147974677Y-125679932D01*
X147974676Y-125679930D01*
X147904629Y-125542457D01*
X147904626Y-125542452D01*
X147865270Y-125488282D01*
X147865269Y-125488282D01*
X147232962Y-126120590D01*
X147215925Y-126057007D01*
X147150099Y-125942993D01*
X147057007Y-125849901D01*
X146942993Y-125784075D01*
X146879409Y-125767037D01*
X147511716Y-125134728D01*
X147457550Y-125095375D01*
X147268217Y-124998904D01*
X147066129Y-124933242D01*
X146856246Y-124900000D01*
X146643754Y-124900000D01*
X146433872Y-124933242D01*
X146433869Y-124933242D01*
X146231782Y-124998904D01*
X146042439Y-125095380D01*
X145988282Y-125134727D01*
X145988282Y-125134728D01*
X146620591Y-125767037D01*
X146557007Y-125784075D01*
X146442993Y-125849901D01*
X146349901Y-125942993D01*
X146284075Y-126057007D01*
X146267037Y-126120591D01*
X145634728Y-125488282D01*
X145634727Y-125488282D01*
X145595380Y-125542439D01*
X145498904Y-125731782D01*
X145433242Y-125933869D01*
X145433242Y-125933872D01*
X145400000Y-126143753D01*
X145400000Y-126356246D01*
X145433242Y-126566127D01*
X145433242Y-126566130D01*
X145498904Y-126768217D01*
X145595375Y-126957550D01*
X145634728Y-127011716D01*
X146267037Y-126379408D01*
X146284075Y-126442993D01*
X146349901Y-126557007D01*
X146442993Y-126650099D01*
X146557007Y-126715925D01*
X146620590Y-126732962D01*
X145950370Y-127403181D01*
X145889047Y-127436666D01*
X145862698Y-127439500D01*
X145852134Y-127439500D01*
X145852123Y-127439501D01*
X145792516Y-127445908D01*
X145657671Y-127496202D01*
X145657664Y-127496206D01*
X145542455Y-127582452D01*
X145542452Y-127582455D01*
X145456206Y-127697664D01*
X145456202Y-127697671D01*
X145405908Y-127832517D01*
X145399501Y-127892116D01*
X145399501Y-127892123D01*
X145399500Y-127892135D01*
X139479839Y-127892135D01*
X139510289Y-127871789D01*
X139531578Y-127850500D01*
X139580954Y-127801125D01*
X139621786Y-127760292D01*
X139621789Y-127760289D01*
X139709394Y-127629179D01*
X139769737Y-127483497D01*
X139800500Y-127328842D01*
X139800500Y-127171158D01*
X139800500Y-127171155D01*
X139800499Y-127171153D01*
X139799299Y-127165122D01*
X139769737Y-127016503D01*
X139745318Y-126957550D01*
X139709397Y-126870827D01*
X139709390Y-126870814D01*
X139621789Y-126739711D01*
X139621786Y-126739707D01*
X139510292Y-126628213D01*
X139510288Y-126628210D01*
X139379185Y-126540609D01*
X139379172Y-126540602D01*
X139233501Y-126480264D01*
X139233489Y-126480261D01*
X139078845Y-126449500D01*
X139078842Y-126449500D01*
X138921158Y-126449500D01*
X138921155Y-126449500D01*
X138766510Y-126480261D01*
X138766498Y-126480264D01*
X138620827Y-126540602D01*
X138620814Y-126540609D01*
X138489125Y-126628602D01*
X138422447Y-126649480D01*
X138420234Y-126649500D01*
X134579766Y-126649500D01*
X134512727Y-126629815D01*
X134510875Y-126628602D01*
X134379185Y-126540609D01*
X134379172Y-126540602D01*
X134233501Y-126480264D01*
X134233489Y-126480261D01*
X134078845Y-126449500D01*
X134078842Y-126449500D01*
X133921158Y-126449500D01*
X133921155Y-126449500D01*
X133766510Y-126480261D01*
X133766498Y-126480264D01*
X133620827Y-126540602D01*
X133620814Y-126540609D01*
X133489711Y-126628210D01*
X133489707Y-126628213D01*
X133378213Y-126739707D01*
X133378210Y-126739711D01*
X133290609Y-126870814D01*
X133290602Y-126870827D01*
X133230264Y-127016498D01*
X133230261Y-127016510D01*
X133199500Y-127171153D01*
X121095441Y-127171153D01*
X121095438Y-127165122D01*
X121094718Y-125585673D01*
X121094505Y-125118399D01*
X121114159Y-125051351D01*
X121166942Y-125005572D01*
X121236096Y-124995597D01*
X121299665Y-125024593D01*
X121330225Y-125064542D01*
X121338901Y-125082559D01*
X121416569Y-125206167D01*
X121503265Y-125344143D01*
X121614400Y-125483501D01*
X121661415Y-125542457D01*
X121695880Y-125585674D01*
X121914326Y-125804120D01*
X122155857Y-125996735D01*
X122417435Y-126161095D01*
X122695771Y-126295135D01*
X122695777Y-126295137D01*
X122987352Y-126397164D01*
X122987364Y-126397168D01*
X123288548Y-126465911D01*
X123288554Y-126465911D01*
X123288562Y-126465913D01*
X123493206Y-126488970D01*
X123595529Y-126500499D01*
X123595532Y-126500500D01*
X123595535Y-126500500D01*
X123904468Y-126500500D01*
X123904469Y-126500499D01*
X124061356Y-126482822D01*
X124211437Y-126465913D01*
X124211442Y-126465912D01*
X124211452Y-126465911D01*
X124512636Y-126397168D01*
X124804229Y-126295135D01*
X125082565Y-126161095D01*
X125344143Y-125996735D01*
X125585674Y-125804120D01*
X125804120Y-125585674D01*
X125996735Y-125344143D01*
X126161095Y-125082565D01*
X126295135Y-124804229D01*
X126397168Y-124512636D01*
X126465911Y-124211452D01*
X126467442Y-124197870D01*
X126482822Y-124061356D01*
X126500500Y-123904465D01*
X126500500Y-123595535D01*
X126465911Y-123288548D01*
X126397168Y-122987364D01*
X126368872Y-122906500D01*
X126295137Y-122695777D01*
X126295135Y-122695771D01*
X126161095Y-122417435D01*
X125996735Y-122155857D01*
X125804120Y-121914326D01*
X125585674Y-121695880D01*
X125344143Y-121503265D01*
X125082565Y-121338905D01*
X125082562Y-121338903D01*
X124953575Y-121276786D01*
X124804236Y-121204868D01*
X124804222Y-121204862D01*
X124707888Y-121171153D01*
X127449500Y-121171153D01*
X127449500Y-121328846D01*
X127480261Y-121483489D01*
X127480264Y-121483501D01*
X127540602Y-121629172D01*
X127540609Y-121629185D01*
X127628210Y-121760288D01*
X127628213Y-121760292D01*
X127739707Y-121871786D01*
X127739711Y-121871789D01*
X127870814Y-121959390D01*
X127870827Y-121959397D01*
X127983831Y-122006204D01*
X128016503Y-122019737D01*
X128081147Y-122032595D01*
X128171849Y-122050638D01*
X128233760Y-122083023D01*
X128235339Y-122084574D01*
X130293141Y-124142378D01*
X130293280Y-124142500D01*
X130384179Y-124233398D01*
X130384189Y-124233408D01*
X130710357Y-124516033D01*
X131055851Y-124774667D01*
X131055875Y-124774683D01*
X131302598Y-124933242D01*
X131418927Y-125008002D01*
X131797719Y-125214838D01*
X132190300Y-125394126D01*
X132594672Y-125544950D01*
X132837858Y-125616356D01*
X133008775Y-125666543D01*
X133430487Y-125758283D01*
X133430491Y-125758283D01*
X133430493Y-125758284D01*
X133857683Y-125819707D01*
X134257375Y-125848295D01*
X134288166Y-125850498D01*
X134288167Y-125850498D01*
X134414909Y-125850498D01*
X134414917Y-125850500D01*
X134424906Y-125850500D01*
X134503959Y-125850500D01*
X134576873Y-125850500D01*
X138170234Y-125850500D01*
X138237273Y-125870185D01*
X138239125Y-125871398D01*
X138370814Y-125959390D01*
X138370827Y-125959397D01*
X138516498Y-126019735D01*
X138516503Y-126019737D01*
X138671153Y-126050499D01*
X138671156Y-126050500D01*
X138671158Y-126050500D01*
X138828844Y-126050500D01*
X138828845Y-126050499D01*
X138983497Y-126019737D01*
X139129179Y-125959394D01*
X139260289Y-125871789D01*
X139371789Y-125760289D01*
X139459394Y-125629179D01*
X139519737Y-125483497D01*
X139550500Y-125328842D01*
X139550500Y-125171158D01*
X139550500Y-125171155D01*
X139550499Y-125171153D01*
X139519737Y-125016503D01*
X139493624Y-124953460D01*
X139459397Y-124870827D01*
X139459390Y-124870814D01*
X139371789Y-124739711D01*
X139371786Y-124739707D01*
X139260292Y-124628213D01*
X139260288Y-124628210D01*
X139129185Y-124540609D01*
X139129172Y-124540602D01*
X138983501Y-124480264D01*
X138983489Y-124480261D01*
X138828845Y-124449500D01*
X138828842Y-124449500D01*
X138671158Y-124449500D01*
X138566611Y-124470295D01*
X138497020Y-124464066D01*
X138441843Y-124421203D01*
X138418599Y-124355313D01*
X138426239Y-124305345D01*
X138444091Y-124257483D01*
X138450500Y-124197873D01*
X138450499Y-123150094D01*
X138459145Y-123120648D01*
X138465667Y-123090668D01*
X138469419Y-123085654D01*
X138470183Y-123083056D01*
X138486813Y-123062419D01*
X138632525Y-122916708D01*
X138632530Y-122916704D01*
X138642734Y-122906499D01*
X138642736Y-122906499D01*
X138657965Y-122891269D01*
X138658005Y-122891247D01*
X138694301Y-122854949D01*
X138694302Y-122854950D01*
X138790048Y-122759201D01*
X138958895Y-122547467D01*
X139102975Y-122318160D01*
X139220475Y-122074163D01*
X139309918Y-121818545D01*
X139370179Y-121554520D01*
X139370408Y-121552492D01*
X139394472Y-121338905D01*
X139400500Y-121285407D01*
X139400500Y-121154875D01*
X139400882Y-121145147D01*
X139409622Y-121034086D01*
X139414633Y-120970409D01*
X139417675Y-120951202D01*
X139457453Y-120785513D01*
X139463461Y-120767024D01*
X139528668Y-120609596D01*
X139537492Y-120592279D01*
X139626524Y-120446987D01*
X139637945Y-120431266D01*
X139751703Y-120298067D01*
X139758290Y-120290942D01*
X140301814Y-119747418D01*
X140322496Y-119726736D01*
X140326829Y-119722611D01*
X140549537Y-119520761D01*
X140558915Y-119513064D01*
X140797839Y-119335868D01*
X140807955Y-119329109D01*
X140946059Y-119246333D01*
X141063091Y-119176186D01*
X141073802Y-119170461D01*
X141342724Y-119043271D01*
X141353930Y-119038629D01*
X141634034Y-118938408D01*
X141645634Y-118934890D01*
X141934190Y-118862612D01*
X141946112Y-118860241D01*
X142240348Y-118816597D01*
X142252448Y-118815405D01*
X142552884Y-118800648D01*
X142558959Y-118800500D01*
X148486096Y-118800500D01*
X148486399Y-118800480D01*
X148541474Y-118800481D01*
X148652087Y-118789587D01*
X148654076Y-118789457D01*
X148686270Y-118796655D01*
X148718703Y-118802806D01*
X148720222Y-118804245D01*
X148722262Y-118804702D01*
X148745454Y-118828162D01*
X148769413Y-118850872D01*
X148769912Y-118852903D01*
X148771382Y-118854390D01*
X148778207Y-118886660D01*
X148786087Y-118918723D01*
X148785408Y-118920702D01*
X148785841Y-118922748D01*
X148774131Y-118953598D01*
X148763430Y-118984817D01*
X148761343Y-118987290D01*
X148761048Y-118988070D01*
X148760087Y-118988780D01*
X148749891Y-119000871D01*
X147546242Y-120204520D01*
X147546204Y-120204556D01*
X147496547Y-120254215D01*
X147487534Y-120262384D01*
X147472328Y-120274865D01*
X147406911Y-120328554D01*
X147386699Y-120342059D01*
X147300109Y-120388344D01*
X147277653Y-120397646D01*
X147225920Y-120413339D01*
X147183703Y-120426146D01*
X147159863Y-120430888D01*
X147124106Y-120434410D01*
X147055460Y-120421392D01*
X147043060Y-120414109D01*
X146921387Y-120332809D01*
X146921374Y-120332802D01*
X146775703Y-120272464D01*
X146775691Y-120272461D01*
X146621047Y-120241700D01*
X146621044Y-120241700D01*
X146463360Y-120241700D01*
X146463357Y-120241700D01*
X146308712Y-120272461D01*
X146308700Y-120272464D01*
X146163029Y-120332802D01*
X146163016Y-120332809D01*
X146031913Y-120420410D01*
X146031909Y-120420413D01*
X145920415Y-120531907D01*
X145920412Y-120531911D01*
X145832811Y-120663014D01*
X145832804Y-120663027D01*
X145772466Y-120808698D01*
X145772463Y-120808710D01*
X145741702Y-120963353D01*
X145741702Y-121121046D01*
X145772463Y-121275689D01*
X145772466Y-121275701D01*
X145832804Y-121421372D01*
X145832811Y-121421385D01*
X145920412Y-121552488D01*
X145920415Y-121552492D01*
X146031909Y-121663986D01*
X146031913Y-121663989D01*
X146163016Y-121751590D01*
X146163029Y-121751597D01*
X146255995Y-121790104D01*
X146308705Y-121811937D01*
X146463355Y-121842699D01*
X146463358Y-121842700D01*
X146463360Y-121842700D01*
X146621046Y-121842700D01*
X146621047Y-121842699D01*
X146775699Y-121811937D01*
X146921381Y-121751594D01*
X146921387Y-121751590D01*
X147053062Y-121663608D01*
X147119740Y-121642730D01*
X147121953Y-121642710D01*
X147169707Y-121642710D01*
X147169714Y-121642710D01*
X147407090Y-121611458D01*
X147638356Y-121549488D01*
X147859555Y-121457862D01*
X148066901Y-121338146D01*
X148256847Y-121192391D01*
X148328192Y-121121042D01*
X148341494Y-121107739D01*
X148341495Y-121107740D01*
X148354384Y-121094850D01*
X151691610Y-117757624D01*
X151691611Y-117757621D01*
X151698081Y-117751152D01*
X151698117Y-117751110D01*
X151725068Y-117724160D01*
X151725068Y-117724159D01*
X151725072Y-117724156D01*
X151878955Y-117523615D01*
X152005346Y-117304704D01*
X152102080Y-117071168D01*
X152167505Y-116827004D01*
X152200499Y-116576389D01*
X152200499Y-116522916D01*
X152200500Y-116522914D01*
X152200500Y-116456089D01*
X152201097Y-116443938D01*
X152203374Y-116420821D01*
X152213278Y-116320259D01*
X152218018Y-116296428D01*
X152252322Y-116183344D01*
X152261614Y-116160912D01*
X152317321Y-116056693D01*
X152330818Y-116036494D01*
X152409712Y-115940364D01*
X152417865Y-115931368D01*
X152465080Y-115884155D01*
X152465081Y-115884152D01*
X154187820Y-114161412D01*
X154249142Y-114127929D01*
X154318834Y-114132913D01*
X154374767Y-114174785D01*
X154399184Y-114240249D01*
X154399500Y-114249095D01*
X154399500Y-115217893D01*
X154399506Y-115217990D01*
X154399506Y-115248889D01*
X154425837Y-115482607D01*
X154425841Y-115482629D01*
X154478177Y-115711939D01*
X154478179Y-115711944D01*
X154555865Y-115933964D01*
X154657915Y-116145877D01*
X154657919Y-116145885D01*
X154657921Y-116145888D01*
X154783064Y-116345054D01*
X154795593Y-116360765D01*
X154912321Y-116507138D01*
X154929720Y-116528955D01*
X154956980Y-116556215D01*
X154956981Y-116556216D01*
X155012882Y-116612117D01*
X155012882Y-116612118D01*
X155025854Y-116625089D01*
X155216922Y-116816157D01*
X155216962Y-116816202D01*
X155222067Y-116821307D01*
X155222068Y-116821308D01*
X155229568Y-116828807D01*
X155237298Y-116836537D01*
X155237320Y-116836578D01*
X155340622Y-116939871D01*
X155340627Y-116939875D01*
X155493947Y-117051258D01*
X155493946Y-117051258D01*
X155493951Y-117051260D01*
X155493953Y-117051262D01*
X155662816Y-117137295D01*
X155813263Y-117186175D01*
X155870937Y-117225609D01*
X155878040Y-117235203D01*
X155882133Y-117241328D01*
X155928212Y-117310291D01*
X156039707Y-117421786D01*
X156039711Y-117421789D01*
X156170814Y-117509390D01*
X156170827Y-117509397D01*
X156297667Y-117561935D01*
X156316503Y-117569737D01*
X156444393Y-117595176D01*
X156471153Y-117600499D01*
X156471156Y-117600500D01*
X156471158Y-117600500D01*
X156628844Y-117600500D01*
X156628845Y-117600499D01*
X156783497Y-117569737D01*
X156922443Y-117512184D01*
X156929172Y-117509397D01*
X156929172Y-117509396D01*
X156929179Y-117509394D01*
X157060289Y-117421789D01*
X157171789Y-117310289D01*
X157259394Y-117179179D01*
X157319737Y-117033497D01*
X157350500Y-116878842D01*
X157350500Y-116721158D01*
X157350500Y-116721155D01*
X157350499Y-116721153D01*
X157334030Y-116638358D01*
X157319737Y-116566503D01*
X157295663Y-116508383D01*
X157259397Y-116420827D01*
X157259390Y-116420814D01*
X157171789Y-116289711D01*
X157171786Y-116289707D01*
X157060292Y-116178213D01*
X157060288Y-116178210D01*
X156929185Y-116090609D01*
X156929172Y-116090602D01*
X156783501Y-116030264D01*
X156783489Y-116030261D01*
X156628845Y-115999500D01*
X156628842Y-115999500D01*
X156471158Y-115999500D01*
X156364732Y-116020668D01*
X156357446Y-116022118D01*
X156333256Y-116024500D01*
X156326958Y-116024500D01*
X156326678Y-116024489D01*
X156251168Y-116024500D01*
X156175097Y-116024500D01*
X156108058Y-116004815D01*
X156087416Y-115988181D01*
X155876718Y-115777483D01*
X155865563Y-115766327D01*
X155858958Y-115759182D01*
X155818613Y-115711944D01*
X155777427Y-115663721D01*
X155765993Y-115647984D01*
X155702954Y-115545112D01*
X155694121Y-115527775D01*
X155647955Y-115416319D01*
X155641944Y-115397817D01*
X155638293Y-115382611D01*
X155613780Y-115280505D01*
X155610737Y-115261287D01*
X155609761Y-115248889D01*
X155602244Y-115153354D01*
X155600882Y-115136039D01*
X155600500Y-115126312D01*
X155600500Y-113913467D01*
X155600765Y-113905358D01*
X155603045Y-113870575D01*
X155613614Y-113709304D01*
X155615729Y-113693248D01*
X155653264Y-113504546D01*
X155657457Y-113488899D01*
X155719303Y-113306705D01*
X155725497Y-113291750D01*
X155756034Y-113229825D01*
X155803337Y-113178410D01*
X155870932Y-113160728D01*
X155937356Y-113182398D01*
X155981521Y-113236539D01*
X155981805Y-113237221D01*
X156040602Y-113379172D01*
X156040609Y-113379185D01*
X156128210Y-113510288D01*
X156128213Y-113510292D01*
X156239707Y-113621786D01*
X156239711Y-113621789D01*
X156370814Y-113709390D01*
X156370827Y-113709397D01*
X156496431Y-113761423D01*
X156516503Y-113769737D01*
X156671153Y-113800499D01*
X156671156Y-113800500D01*
X156671158Y-113800500D01*
X156828844Y-113800500D01*
X156828845Y-113800499D01*
X156874831Y-113791352D01*
X156989472Y-113768549D01*
X156989880Y-113770603D01*
X157050220Y-113770052D01*
X157109341Y-113807287D01*
X157138946Y-113870575D01*
X157129634Y-113939822D01*
X157095042Y-113985193D01*
X157091611Y-113988008D01*
X156980111Y-114099508D01*
X156980108Y-114099512D01*
X156892507Y-114230615D01*
X156892500Y-114230628D01*
X156832162Y-114376299D01*
X156832159Y-114376311D01*
X156801398Y-114530954D01*
X156801398Y-114688647D01*
X156832159Y-114843290D01*
X156832162Y-114843302D01*
X156892500Y-114988973D01*
X156892507Y-114988986D01*
X156980108Y-115120089D01*
X156980111Y-115120093D01*
X157091605Y-115231587D01*
X157091609Y-115231590D01*
X157222712Y-115319191D01*
X157222725Y-115319198D01*
X157320594Y-115359736D01*
X157368401Y-115379538D01*
X157507994Y-115407305D01*
X157523051Y-115410300D01*
X157523054Y-115410301D01*
X157523056Y-115410301D01*
X157680742Y-115410301D01*
X157680743Y-115410300D01*
X157835395Y-115379538D01*
X157981077Y-115319195D01*
X158112187Y-115231590D01*
X158125884Y-115217893D01*
X158139833Y-115203945D01*
X158201156Y-115170460D01*
X158227514Y-115167626D01*
X172605997Y-115167626D01*
X172627536Y-115167626D01*
X172627580Y-115167638D01*
X172678911Y-115167638D01*
X172678911Y-115167639D01*
X172894704Y-115167638D01*
X173325189Y-115136848D01*
X173752382Y-115075427D01*
X173752387Y-115075426D01*
X174174100Y-114983686D01*
X174267837Y-114956162D01*
X174588206Y-114862093D01*
X174992579Y-114711268D01*
X175385163Y-114531980D01*
X175763955Y-114325142D01*
X176127027Y-114091808D01*
X176472528Y-113833167D01*
X176798697Y-113550537D01*
X176877940Y-113471291D01*
X176877943Y-113471290D01*
X176895381Y-113453852D01*
X176895382Y-113453852D01*
X182368713Y-107980520D01*
X182368716Y-107980519D01*
X182480520Y-107868715D01*
X182530639Y-107781903D01*
X182559577Y-107731784D01*
X182600500Y-107579056D01*
X182600500Y-107579047D01*
X182601561Y-107570996D01*
X182603018Y-107571187D01*
X182620185Y-107512726D01*
X182621398Y-107510874D01*
X182709390Y-107379185D01*
X182709390Y-107379184D01*
X182709394Y-107379179D01*
X182769737Y-107233497D01*
X182800500Y-107078842D01*
X182800500Y-106921158D01*
X182800500Y-106921155D01*
X182800499Y-106921153D01*
X182782070Y-106828507D01*
X182769737Y-106766503D01*
X182769735Y-106766498D01*
X182709397Y-106620827D01*
X182709390Y-106620814D01*
X182621789Y-106489711D01*
X182621786Y-106489707D01*
X182510292Y-106378213D01*
X182510288Y-106378210D01*
X182379185Y-106290609D01*
X182379172Y-106290602D01*
X182233501Y-106230264D01*
X182233489Y-106230261D01*
X182078845Y-106199500D01*
X182078842Y-106199500D01*
X181921158Y-106199500D01*
X181921155Y-106199500D01*
X181766510Y-106230261D01*
X181766498Y-106230264D01*
X181620827Y-106290602D01*
X181620814Y-106290609D01*
X181489711Y-106378210D01*
X181489707Y-106378213D01*
X181378213Y-106489707D01*
X181378210Y-106489711D01*
X181290609Y-106620814D01*
X181290602Y-106620827D01*
X181230264Y-106766498D01*
X181230261Y-106766510D01*
X181199500Y-106921153D01*
X181199500Y-107078846D01*
X181230260Y-107233488D01*
X181230263Y-107233498D01*
X181253328Y-107289181D01*
X181260797Y-107358650D01*
X181229522Y-107421129D01*
X181226448Y-107424314D01*
X176153605Y-112497159D01*
X176153604Y-112497160D01*
X176103785Y-112546978D01*
X176100276Y-112550352D01*
X175826489Y-112803439D01*
X175819086Y-112809762D01*
X175528231Y-113039055D01*
X175520354Y-113044778D01*
X175212397Y-113250551D01*
X175204095Y-113255638D01*
X174880959Y-113436604D01*
X174872284Y-113441025D01*
X174535924Y-113596090D01*
X174526929Y-113599816D01*
X174179437Y-113728014D01*
X174170177Y-113731022D01*
X173813718Y-113831555D01*
X173804250Y-113833828D01*
X173440993Y-113906085D01*
X173431377Y-113907608D01*
X173063572Y-113951142D01*
X173053866Y-113951906D01*
X172717648Y-113965116D01*
X172681682Y-113966530D01*
X172676815Y-113966626D01*
X170322040Y-113966626D01*
X170255001Y-113946941D01*
X170209246Y-113894137D01*
X170199302Y-113824979D01*
X170228327Y-113761423D01*
X170265746Y-113732141D01*
X170361292Y-113683458D01*
X170361312Y-113683448D01*
X170753242Y-113443278D01*
X171125121Y-113173098D01*
X171474656Y-112874573D01*
X171574203Y-112775027D01*
X171574218Y-112775015D01*
X171581275Y-112767957D01*
X171581277Y-112767957D01*
X172764662Y-111584572D01*
X172825983Y-111551089D01*
X172828150Y-111550638D01*
X172886085Y-111539113D01*
X172983497Y-111519737D01*
X173129179Y-111459394D01*
X173260289Y-111371789D01*
X173371789Y-111260289D01*
X173459394Y-111129179D01*
X173519737Y-110983497D01*
X173550500Y-110828842D01*
X173550500Y-110671158D01*
X173550500Y-110671155D01*
X173550499Y-110671153D01*
X173549333Y-110665291D01*
X173519737Y-110516503D01*
X173508198Y-110488645D01*
X173459397Y-110370827D01*
X173459390Y-110370814D01*
X173371789Y-110239711D01*
X173371786Y-110239707D01*
X173260292Y-110128213D01*
X173260288Y-110128210D01*
X173129185Y-110040609D01*
X173129172Y-110040602D01*
X172983501Y-109980264D01*
X172983489Y-109980261D01*
X172828845Y-109949500D01*
X172828842Y-109949500D01*
X172671158Y-109949500D01*
X172671155Y-109949500D01*
X172516510Y-109980261D01*
X172516498Y-109980264D01*
X172370827Y-110040602D01*
X172370814Y-110040609D01*
X172318891Y-110075304D01*
X172252214Y-110096182D01*
X172184833Y-110077698D01*
X172181109Y-110075304D01*
X172129185Y-110040609D01*
X172129172Y-110040602D01*
X171983501Y-109980264D01*
X171983489Y-109980261D01*
X171828845Y-109949500D01*
X171828842Y-109949500D01*
X171671158Y-109949500D01*
X171671155Y-109949500D01*
X171516510Y-109980261D01*
X171516498Y-109980264D01*
X171370827Y-110040602D01*
X171370814Y-110040609D01*
X171318891Y-110075304D01*
X171252214Y-110096182D01*
X171184833Y-110077698D01*
X171181109Y-110075304D01*
X171129185Y-110040609D01*
X171129172Y-110040602D01*
X170983501Y-109980264D01*
X170983489Y-109980261D01*
X170828845Y-109949500D01*
X170828842Y-109949500D01*
X170671158Y-109949500D01*
X170671155Y-109949500D01*
X170516510Y-109980261D01*
X170516498Y-109980264D01*
X170370827Y-110040602D01*
X170370814Y-110040609D01*
X170239711Y-110128210D01*
X170239707Y-110128213D01*
X170128213Y-110239707D01*
X170128210Y-110239711D01*
X170040609Y-110370814D01*
X170040602Y-110370827D01*
X169980264Y-110516498D01*
X169980261Y-110516508D01*
X169949362Y-110671848D01*
X169916977Y-110733759D01*
X169915426Y-110735337D01*
X169363565Y-111287199D01*
X169363564Y-111287201D01*
X169329458Y-111321306D01*
X169327535Y-111323229D01*
X169323129Y-111327423D01*
X169125304Y-111506721D01*
X169115898Y-111514441D01*
X168903890Y-111671677D01*
X168893772Y-111678437D01*
X168667392Y-111814124D01*
X168656660Y-111819861D01*
X168418056Y-111932712D01*
X168406813Y-111937369D01*
X168158296Y-112026288D01*
X168146651Y-112029820D01*
X167890625Y-112093950D01*
X167878690Y-112096324D01*
X167617608Y-112135051D01*
X167605498Y-112136244D01*
X167338698Y-112149351D01*
X167332614Y-112149500D01*
X159503864Y-112149500D01*
X159440499Y-112130893D01*
X159440230Y-112131397D01*
X159437815Y-112130105D01*
X159436825Y-112129815D01*
X159434952Y-112128588D01*
X159434854Y-112128523D01*
X159291098Y-112068949D01*
X159291094Y-112068947D01*
X159156915Y-112042239D01*
X159156908Y-112042238D01*
X159143240Y-112039518D01*
X159139675Y-112038563D01*
X159060675Y-112038563D01*
X159058382Y-112038562D01*
X159058361Y-112038562D01*
X158980222Y-112038556D01*
X158980108Y-112038563D01*
X157588473Y-112038563D01*
X157521434Y-112018878D01*
X157475679Y-111966074D01*
X157465735Y-111896916D01*
X157485371Y-111845672D01*
X157494082Y-111832633D01*
X157519482Y-111794621D01*
X157579825Y-111648939D01*
X157610588Y-111494284D01*
X157610588Y-111336600D01*
X157610588Y-111336597D01*
X157610587Y-111336595D01*
X157595409Y-111260292D01*
X157579825Y-111181945D01*
X157576286Y-111173401D01*
X157519485Y-111036269D01*
X157519483Y-111036265D01*
X157519482Y-111036263D01*
X157471791Y-110964889D01*
X157450914Y-110898213D01*
X157469398Y-110830833D01*
X157487209Y-110808322D01*
X158037711Y-110257820D01*
X158099032Y-110224337D01*
X158168724Y-110229321D01*
X158172842Y-110230942D01*
X158194013Y-110239711D01*
X158266503Y-110269737D01*
X158412320Y-110298742D01*
X158421153Y-110300499D01*
X158421156Y-110300500D01*
X158421158Y-110300500D01*
X158578844Y-110300500D01*
X158578845Y-110300499D01*
X158733497Y-110269737D01*
X158879179Y-110209394D01*
X158933832Y-110172876D01*
X159010875Y-110121398D01*
X159077553Y-110100520D01*
X159079766Y-110100500D01*
X159837110Y-110100500D01*
X159837277Y-110100489D01*
X159927750Y-110100489D01*
X159927753Y-110100489D01*
X160281548Y-110065644D01*
X160630224Y-109996289D01*
X160970423Y-109893092D01*
X161298869Y-109757046D01*
X161612399Y-109589463D01*
X161907994Y-109391956D01*
X162182806Y-109166426D01*
X162240678Y-109108552D01*
X162240685Y-109108548D01*
X162252597Y-109096635D01*
X162252599Y-109096635D01*
X164758078Y-106591156D01*
X165824499Y-106591156D01*
X165860065Y-106769952D01*
X165860068Y-106769962D01*
X165864826Y-106781448D01*
X165872295Y-106850917D01*
X165866447Y-106872233D01*
X165830908Y-106967517D01*
X165824501Y-107027116D01*
X165824501Y-107027123D01*
X165824500Y-107027135D01*
X165824500Y-107972870D01*
X165824501Y-107972876D01*
X165830908Y-108032483D01*
X165881202Y-108167328D01*
X165881206Y-108167335D01*
X165967452Y-108282544D01*
X165967455Y-108282547D01*
X166082664Y-108368793D01*
X166082671Y-108368797D01*
X166217517Y-108419091D01*
X166217516Y-108419091D01*
X166224444Y-108419835D01*
X166277127Y-108425500D01*
X167222872Y-108425499D01*
X167282483Y-108419091D01*
X167417331Y-108368796D01*
X167532546Y-108282546D01*
X167618796Y-108167331D01*
X167669091Y-108032483D01*
X167675500Y-107972873D01*
X167675499Y-107027128D01*
X167669091Y-106967517D01*
X167633551Y-106872231D01*
X167628568Y-106802542D01*
X167635173Y-106781447D01*
X167639933Y-106769958D01*
X167675500Y-106591154D01*
X167675500Y-106408846D01*
X167675500Y-106408843D01*
X167639934Y-106230047D01*
X167639933Y-106230046D01*
X167639933Y-106230042D01*
X167623102Y-106189408D01*
X167570168Y-106061612D01*
X167570166Y-106061608D01*
X167468886Y-105910032D01*
X167468880Y-105910024D01*
X167339975Y-105781119D01*
X167339967Y-105781113D01*
X167188391Y-105679833D01*
X167188387Y-105679831D01*
X167019962Y-105610068D01*
X167019952Y-105610065D01*
X166841156Y-105574500D01*
X166841154Y-105574500D01*
X166658846Y-105574500D01*
X166658844Y-105574500D01*
X166480047Y-105610065D01*
X166480037Y-105610068D01*
X166311612Y-105679831D01*
X166311608Y-105679833D01*
X166160032Y-105781113D01*
X166160024Y-105781119D01*
X166031119Y-105910024D01*
X166031113Y-105910032D01*
X165929833Y-106061608D01*
X165929831Y-106061612D01*
X165860068Y-106230037D01*
X165860065Y-106230047D01*
X165824500Y-106408843D01*
X165824500Y-106408846D01*
X165824500Y-106591154D01*
X165824500Y-106591156D01*
X165824499Y-106591156D01*
X164758078Y-106591156D01*
X167514662Y-103834572D01*
X167575983Y-103801089D01*
X167578150Y-103800638D01*
X167636085Y-103789113D01*
X167733497Y-103769737D01*
X167879179Y-103709394D01*
X168010289Y-103621789D01*
X168121789Y-103510289D01*
X168209394Y-103379179D01*
X168269737Y-103233497D01*
X168300500Y-103078842D01*
X168300500Y-102921158D01*
X168300500Y-102921155D01*
X168300499Y-102921153D01*
X168288638Y-102861524D01*
X168269737Y-102766503D01*
X168269673Y-102766349D01*
X168209397Y-102620827D01*
X168209390Y-102620814D01*
X168121789Y-102489711D01*
X168121786Y-102489707D01*
X168010292Y-102378213D01*
X168010288Y-102378210D01*
X167879185Y-102290609D01*
X167879172Y-102290602D01*
X167733501Y-102230264D01*
X167733489Y-102230261D01*
X167578845Y-102199500D01*
X167578842Y-102199500D01*
X167421158Y-102199500D01*
X167421155Y-102199500D01*
X167266510Y-102230261D01*
X167266498Y-102230264D01*
X167120827Y-102290602D01*
X167120814Y-102290609D01*
X167025952Y-102353995D01*
X166959274Y-102374873D01*
X166891894Y-102356389D01*
X166845204Y-102304410D01*
X166833533Y-102240086D01*
X166837728Y-102192134D01*
X166850500Y-102046153D01*
X166850500Y-101875000D01*
X166850500Y-101802086D01*
X166850500Y-101079765D01*
X166870185Y-101012726D01*
X166871398Y-101010874D01*
X166959390Y-100879185D01*
X166959390Y-100879184D01*
X166959394Y-100879179D01*
X167019737Y-100733497D01*
X167050500Y-100578842D01*
X167050500Y-100421158D01*
X167050500Y-100421155D01*
X167050499Y-100421153D01*
X167036648Y-100351520D01*
X167019737Y-100266503D01*
X167016343Y-100258309D01*
X166959397Y-100120827D01*
X166959390Y-100120814D01*
X166871789Y-99989711D01*
X166871786Y-99989707D01*
X166760292Y-99878213D01*
X166760288Y-99878210D01*
X166629185Y-99790609D01*
X166629172Y-99790602D01*
X166483501Y-99730264D01*
X166483489Y-99730261D01*
X166328845Y-99699500D01*
X166328842Y-99699500D01*
X166171158Y-99699500D01*
X166171155Y-99699500D01*
X166016510Y-99730261D01*
X166016498Y-99730264D01*
X165870827Y-99790602D01*
X165870814Y-99790609D01*
X165739711Y-99878210D01*
X165739707Y-99878213D01*
X165628213Y-99989707D01*
X165628210Y-99989711D01*
X165540609Y-100120814D01*
X165540602Y-100120827D01*
X165480264Y-100266498D01*
X165480261Y-100266510D01*
X165449500Y-100421153D01*
X165449500Y-100578846D01*
X165480261Y-100733489D01*
X165480264Y-100733501D01*
X165540602Y-100879172D01*
X165540609Y-100879185D01*
X165628602Y-101010874D01*
X165649480Y-101077551D01*
X165649500Y-101079765D01*
X165649500Y-101871519D01*
X165649305Y-101878472D01*
X165632793Y-102172482D01*
X165631236Y-102186300D01*
X165582493Y-102473172D01*
X165579399Y-102486728D01*
X165498842Y-102766349D01*
X165494249Y-102779475D01*
X165382892Y-103048311D01*
X165376858Y-103060840D01*
X165236103Y-103315513D01*
X165228705Y-103327287D01*
X165060313Y-103564608D01*
X165051643Y-103575480D01*
X164855284Y-103795203D01*
X164850507Y-103800255D01*
X164816189Y-103834574D01*
X164801556Y-103849207D01*
X164801554Y-103849209D01*
X161231589Y-107419175D01*
X161206617Y-107444146D01*
X161198343Y-107452420D01*
X161193291Y-107457196D01*
X160974217Y-107652972D01*
X160963345Y-107661642D01*
X160726580Y-107829634D01*
X160714807Y-107837031D01*
X160460722Y-107977460D01*
X160448193Y-107983494D01*
X160179987Y-108094588D01*
X160166862Y-108099181D01*
X159887893Y-108179551D01*
X159874336Y-108182645D01*
X159588133Y-108231274D01*
X159574315Y-108232831D01*
X159281005Y-108249303D01*
X159274052Y-108249498D01*
X158449494Y-108249497D01*
X158439740Y-108249497D01*
X158360672Y-108249497D01*
X158353022Y-108249497D01*
X158352643Y-108249521D01*
X158315774Y-108249521D01*
X158199796Y-108264786D01*
X158069964Y-108281876D01*
X158069963Y-108281876D01*
X158069962Y-108281877D01*
X158008847Y-108298251D01*
X157830476Y-108346040D01*
X157830465Y-108346044D01*
X157601423Y-108440910D01*
X157601412Y-108440915D01*
X157386702Y-108564870D01*
X157386697Y-108564874D01*
X157189995Y-108715800D01*
X157158234Y-108747558D01*
X157158223Y-108747565D01*
X157102334Y-108803454D01*
X157058239Y-108847547D01*
X157047152Y-108858633D01*
X157047137Y-108858649D01*
X155358346Y-110547441D01*
X155346943Y-110557524D01*
X155346508Y-110557862D01*
X155310283Y-110585666D01*
X155309401Y-110586813D01*
X155308180Y-110587767D01*
X155307851Y-110588096D01*
X155285489Y-110617233D01*
X155284462Y-110618552D01*
X155278593Y-110625989D01*
X155268948Y-110636840D01*
X155262371Y-110643418D01*
X155262369Y-110643420D01*
X153819921Y-112085869D01*
X153819919Y-112085871D01*
X153770514Y-112135274D01*
X153766109Y-112139468D01*
X153521618Y-112361065D01*
X153512211Y-112368785D01*
X153249633Y-112563528D01*
X153239515Y-112570289D01*
X152959104Y-112738363D01*
X152948372Y-112744099D01*
X152652849Y-112883873D01*
X152641607Y-112888530D01*
X152333802Y-112998665D01*
X152322157Y-113002198D01*
X152005031Y-113081634D01*
X151993096Y-113084008D01*
X151669720Y-113131977D01*
X151657610Y-113133170D01*
X151347321Y-113148414D01*
X151328255Y-113149351D01*
X151322173Y-113149500D01*
X150216776Y-113149500D01*
X150204618Y-113148903D01*
X150073550Y-113135990D01*
X150049709Y-113131247D01*
X150023385Y-113123261D01*
X149985950Y-113111904D01*
X149929539Y-113094790D01*
X149907083Y-113085487D01*
X149796337Y-113026290D01*
X149776126Y-113012785D01*
X149758921Y-112998665D01*
X149674220Y-112929150D01*
X149665209Y-112920983D01*
X149591515Y-112847291D01*
X149500903Y-112775032D01*
X149418857Y-112709604D01*
X149231867Y-112592114D01*
X149032899Y-112496298D01*
X149032896Y-112496297D01*
X149032892Y-112496295D01*
X148824459Y-112423363D01*
X148824448Y-112423360D01*
X148609159Y-112374224D01*
X148609138Y-112374221D01*
X148535616Y-112365937D01*
X148471202Y-112338870D01*
X148431647Y-112281275D01*
X148425500Y-112242717D01*
X148425500Y-112158843D01*
X148389934Y-111980046D01*
X148389933Y-111980043D01*
X148389933Y-111980042D01*
X148385174Y-111968555D01*
X148377703Y-111899088D01*
X148383548Y-111877776D01*
X148419091Y-111782483D01*
X148425500Y-111722873D01*
X148425499Y-111527570D01*
X148445183Y-111460533D01*
X148497987Y-111414778D01*
X148567145Y-111404834D01*
X148618389Y-111424469D01*
X148761611Y-111520167D01*
X148761612Y-111520167D01*
X148761613Y-111520168D01*
X148876277Y-111567663D01*
X148930042Y-111589933D01*
X148930046Y-111589933D01*
X148930047Y-111589934D01*
X149108843Y-111625500D01*
X149108846Y-111625500D01*
X149291156Y-111625500D01*
X149411445Y-111601572D01*
X149469958Y-111589933D01*
X149582245Y-111543422D01*
X149638387Y-111520168D01*
X149638391Y-111520166D01*
X149781610Y-111424470D01*
X149789972Y-111418883D01*
X149918883Y-111289972D01*
X150020167Y-111138389D01*
X150023980Y-111129185D01*
X150053107Y-111058865D01*
X150089933Y-110969958D01*
X150117607Y-110830833D01*
X150125500Y-110791156D01*
X150125500Y-110608843D01*
X150089934Y-110430046D01*
X150089933Y-110430043D01*
X150089598Y-110429234D01*
X150085174Y-110418555D01*
X150077703Y-110349088D01*
X150083548Y-110327776D01*
X150119091Y-110232483D01*
X150125500Y-110172873D01*
X150125499Y-109227128D01*
X150119091Y-109167517D01*
X150118685Y-109166429D01*
X150068797Y-109032671D01*
X150068793Y-109032664D01*
X149982547Y-108917455D01*
X149982544Y-108917452D01*
X149867335Y-108831206D01*
X149867328Y-108831202D01*
X149732482Y-108780908D01*
X149732483Y-108780908D01*
X149672883Y-108774501D01*
X149672881Y-108774500D01*
X149672873Y-108774500D01*
X149672864Y-108774500D01*
X148727129Y-108774500D01*
X148727123Y-108774501D01*
X148667516Y-108780908D01*
X148532671Y-108831202D01*
X148532664Y-108831206D01*
X148417455Y-108917452D01*
X148417452Y-108917455D01*
X148331206Y-109032664D01*
X148331202Y-109032671D01*
X148280908Y-109167517D01*
X148274501Y-109227116D01*
X148274501Y-109227123D01*
X148274500Y-109227135D01*
X148274500Y-110172870D01*
X148274501Y-110172876D01*
X148280853Y-110231963D01*
X148268446Y-110300722D01*
X148220835Y-110351859D01*
X148153136Y-110369137D01*
X148114230Y-110361398D01*
X148032482Y-110330908D01*
X148032483Y-110330908D01*
X147972883Y-110324501D01*
X147972881Y-110324500D01*
X147972873Y-110324500D01*
X147972864Y-110324500D01*
X147027129Y-110324500D01*
X147027123Y-110324501D01*
X146967516Y-110330908D01*
X146832671Y-110381202D01*
X146832669Y-110381203D01*
X146763075Y-110433301D01*
X146758447Y-110436767D01*
X146742970Y-110448353D01*
X146677506Y-110472770D01*
X146609233Y-110457919D01*
X146580978Y-110436767D01*
X145300991Y-109156781D01*
X145300991Y-109156780D01*
X145300977Y-109156769D01*
X145292253Y-109148044D01*
X145292254Y-109148044D01*
X145132017Y-109031620D01*
X145132012Y-109031617D01*
X145132010Y-109031616D01*
X145045333Y-108987450D01*
X144955531Y-108941692D01*
X144955524Y-108941689D01*
X144767150Y-108880482D01*
X144767145Y-108880481D01*
X144571518Y-108849498D01*
X144500098Y-108849498D01*
X144470665Y-108840855D01*
X144440676Y-108834333D01*
X144435657Y-108830576D01*
X144433059Y-108829813D01*
X144412420Y-108813183D01*
X144380410Y-108781169D01*
X144380394Y-108781159D01*
X143043383Y-107444148D01*
X143020134Y-107420898D01*
X143016761Y-107417390D01*
X142969006Y-107365729D01*
X142763690Y-107143618D01*
X142757372Y-107136220D01*
X142528075Y-106845357D01*
X142522352Y-106837481D01*
X142484907Y-106781440D01*
X142316575Y-106529512D01*
X142311498Y-106521228D01*
X142130525Y-106198079D01*
X142126106Y-106189408D01*
X142067189Y-106061608D01*
X141971042Y-105853048D01*
X141967317Y-105844053D01*
X141839118Y-105496561D01*
X141836114Y-105487318D01*
X141735572Y-105130826D01*
X141733308Y-105121395D01*
X141661041Y-104758094D01*
X141659525Y-104748520D01*
X141615986Y-104380678D01*
X141615225Y-104371006D01*
X141600596Y-103998728D01*
X141600500Y-103993859D01*
X141600500Y-100579765D01*
X141620185Y-100512726D01*
X141621398Y-100510874D01*
X141637052Y-100487447D01*
X141709394Y-100379179D01*
X141710266Y-100377075D01*
X141723291Y-100345628D01*
X141769737Y-100233497D01*
X141800500Y-100078842D01*
X141800500Y-99921158D01*
X141800500Y-99921155D01*
X141800499Y-99921153D01*
X141782419Y-99830261D01*
X141769737Y-99766503D01*
X141769735Y-99766498D01*
X141709397Y-99620827D01*
X141709390Y-99620814D01*
X141621789Y-99489711D01*
X141621786Y-99489707D01*
X141510292Y-99378213D01*
X141510288Y-99378210D01*
X141379185Y-99290609D01*
X141379172Y-99290602D01*
X141233501Y-99230264D01*
X141233489Y-99230261D01*
X141078845Y-99199500D01*
X141078842Y-99199500D01*
X140921158Y-99199500D01*
X140921155Y-99199500D01*
X140766510Y-99230261D01*
X140766498Y-99230264D01*
X140620827Y-99290602D01*
X140620814Y-99290609D01*
X140489711Y-99378210D01*
X140489707Y-99378213D01*
X140378213Y-99489707D01*
X140378210Y-99489711D01*
X140290609Y-99620814D01*
X140290602Y-99620827D01*
X140230264Y-99766498D01*
X140230261Y-99766510D01*
X140199500Y-99921153D01*
X140199500Y-100078846D01*
X140230261Y-100233489D01*
X140230264Y-100233501D01*
X140290602Y-100379172D01*
X140290609Y-100379185D01*
X140378602Y-100510874D01*
X140399480Y-100577551D01*
X140399500Y-100579765D01*
X140399500Y-103944667D01*
X140399490Y-103944701D01*
X140399491Y-104211832D01*
X140430283Y-104642316D01*
X140491706Y-105069512D01*
X140583446Y-105491225D01*
X140705039Y-105905327D01*
X140773804Y-106089691D01*
X140778788Y-106159383D01*
X140745303Y-106220706D01*
X140683980Y-106254191D01*
X140614289Y-106249207D01*
X140569941Y-106220706D01*
X136629629Y-102280394D01*
X136615026Y-102253651D01*
X136598454Y-102228059D01*
X136597494Y-102221544D01*
X136596144Y-102219071D01*
X136593311Y-102193141D01*
X136593309Y-102192562D01*
X136593308Y-102192134D01*
X136593308Y-102114698D01*
X136593163Y-102113631D01*
X136593163Y-102113630D01*
X136592977Y-102112263D01*
X136592977Y-102112257D01*
X136572579Y-102037370D01*
X136572445Y-102036874D01*
X136552388Y-101962017D01*
X136552386Y-101962012D01*
X136552385Y-101962008D01*
X136552382Y-101962003D01*
X136551780Y-101960551D01*
X136551779Y-101960550D01*
X136551770Y-101960527D01*
X136551436Y-101959722D01*
X136551424Y-101959702D01*
X136551424Y-101959700D01*
X136512143Y-101892307D01*
X136473328Y-101825076D01*
X136472437Y-101824185D01*
X136471803Y-101823097D01*
X136416737Y-101768484D01*
X136416375Y-101768123D01*
X136401886Y-101753634D01*
X136392399Y-101741737D01*
X136392131Y-101741960D01*
X136386950Y-101735707D01*
X136386948Y-101735704D01*
X136337846Y-101690145D01*
X136334869Y-101687290D01*
X136287280Y-101640092D01*
X136280813Y-101635172D01*
X136281012Y-101634909D01*
X136268046Y-101625381D01*
X136239639Y-101599023D01*
X136228497Y-101586076D01*
X136228396Y-101586167D01*
X136222979Y-101580106D01*
X136173323Y-101537374D01*
X136171571Y-101535866D01*
X136121849Y-101489732D01*
X136111770Y-101484405D01*
X136101181Y-101475293D01*
X136101181Y-101475292D01*
X136101180Y-101475292D01*
X136070663Y-101449030D01*
X136059048Y-101436512D01*
X136058950Y-101436607D01*
X136053309Y-101430751D01*
X136015373Y-101400499D01*
X136000283Y-101388465D01*
X135948867Y-101344219D01*
X135938597Y-101339273D01*
X135927675Y-101330563D01*
X135927674Y-101330561D01*
X135896195Y-101305458D01*
X135884115Y-101293378D01*
X135884020Y-101293477D01*
X135878167Y-101287839D01*
X135825477Y-101248954D01*
X135821797Y-101246130D01*
X135770571Y-101205279D01*
X135763608Y-101201084D01*
X135763677Y-101200968D01*
X135748884Y-101192426D01*
X135716484Y-101168515D01*
X135703962Y-101156897D01*
X135703871Y-101157000D01*
X135697810Y-101151583D01*
X135682620Y-101141227D01*
X135643662Y-101114667D01*
X135639954Y-101112036D01*
X135587196Y-101073100D01*
X135587194Y-101073099D01*
X135587191Y-101073097D01*
X135580079Y-101069166D01*
X135580144Y-101069047D01*
X135565042Y-101061064D01*
X135531783Y-101038389D01*
X135518829Y-101027242D01*
X135518742Y-101027348D01*
X135512483Y-101022162D01*
X135482627Y-101003403D01*
X135455038Y-100986068D01*
X135399013Y-100947872D01*
X135388259Y-100944109D01*
X135376429Y-100936676D01*
X135376427Y-100936675D01*
X135342336Y-100915255D01*
X135328976Y-100904601D01*
X135328893Y-100904710D01*
X135322444Y-100899761D01*
X135265732Y-100867019D01*
X135261763Y-100864628D01*
X135245480Y-100854397D01*
X135206280Y-100829767D01*
X135206277Y-100829766D01*
X135198888Y-100826376D01*
X135198944Y-100826252D01*
X135183288Y-100819421D01*
X135148422Y-100799292D01*
X135134682Y-100789151D01*
X135134604Y-100789263D01*
X135127971Y-100784557D01*
X135070061Y-100753950D01*
X135066006Y-100751710D01*
X135034062Y-100733267D01*
X135009262Y-100718950D01*
X135009261Y-100718949D01*
X135009258Y-100718948D01*
X135001758Y-100715842D01*
X135001809Y-100715717D01*
X134985902Y-100709472D01*
X134950310Y-100690662D01*
X134936194Y-100681038D01*
X134936119Y-100681153D01*
X134929320Y-100676701D01*
X134929317Y-100676699D01*
X134868207Y-100647270D01*
X134808242Y-100615579D01*
X134797129Y-100613042D01*
X134748266Y-100589511D01*
X134733804Y-100580424D01*
X134733734Y-100580542D01*
X134726769Y-100576345D01*
X134666730Y-100550151D01*
X134662516Y-100548218D01*
X134603494Y-100519795D01*
X134595776Y-100517256D01*
X134595818Y-100517126D01*
X134579489Y-100512089D01*
X134542585Y-100495988D01*
X134527791Y-100487447D01*
X134527725Y-100487567D01*
X134520614Y-100483637D01*
X134459622Y-100459699D01*
X134459622Y-100459698D01*
X134457444Y-100458843D01*
X134395309Y-100431735D01*
X134384041Y-100430036D01*
X134371040Y-100424934D01*
X134371036Y-100424933D01*
X134333549Y-100410221D01*
X134318447Y-100402239D01*
X134318386Y-100402361D01*
X134311134Y-100398700D01*
X134249332Y-100377075D01*
X134244987Y-100375463D01*
X134210901Y-100362086D01*
X134183978Y-100351520D01*
X134183975Y-100351519D01*
X134183971Y-100351518D01*
X134176086Y-100349562D01*
X134176118Y-100349431D01*
X134159459Y-100345628D01*
X134121462Y-100332332D01*
X134106065Y-100324919D01*
X134106009Y-100325043D01*
X134098623Y-100321654D01*
X134036010Y-100302341D01*
X134036010Y-100302340D01*
X134033768Y-100301648D01*
X133969793Y-100279264D01*
X133958433Y-100278412D01*
X133945082Y-100274294D01*
X133906606Y-100262427D01*
X133890946Y-100255595D01*
X133890894Y-100255722D01*
X133883383Y-100252610D01*
X133820121Y-100235659D01*
X133815670Y-100234377D01*
X133753060Y-100215066D01*
X133745043Y-100213704D01*
X133745065Y-100213570D01*
X133728174Y-100211023D01*
X133689284Y-100200603D01*
X133673379Y-100194362D01*
X133673332Y-100194490D01*
X133665711Y-100191662D01*
X133601867Y-100177091D01*
X133597368Y-100175976D01*
X133534070Y-100159016D01*
X133526013Y-100157956D01*
X133526030Y-100157821D01*
X133509052Y-100155908D01*
X133469807Y-100146951D01*
X133453681Y-100141308D01*
X133453639Y-100141439D01*
X133445916Y-100138897D01*
X133381569Y-100126722D01*
X133377034Y-100125776D01*
X133313149Y-100111196D01*
X133305057Y-100110438D01*
X133305069Y-100110302D01*
X133288033Y-100109025D01*
X133248474Y-100101541D01*
X133232146Y-100096504D01*
X133232109Y-100096636D01*
X133224296Y-100094385D01*
X133159512Y-100084621D01*
X133157207Y-100084273D01*
X133090587Y-100071669D01*
X133079221Y-100072520D01*
X133065407Y-100070438D01*
X133054648Y-100068816D01*
X133025593Y-100064437D01*
X133009099Y-100060018D01*
X133009067Y-100060151D01*
X133001176Y-100058194D01*
X133001175Y-100058194D01*
X132936079Y-100050859D01*
X132931486Y-100050254D01*
X132866703Y-100040491D01*
X132858575Y-100040339D01*
X132858577Y-100040203D01*
X132841493Y-100040202D01*
X132801490Y-100035695D01*
X132784832Y-100031894D01*
X132784805Y-100032027D01*
X132776846Y-100030366D01*
X132711538Y-100025473D01*
X132706920Y-100025040D01*
X132641811Y-100017704D01*
X132633685Y-100017856D01*
X132633682Y-100017722D01*
X132616607Y-100018359D01*
X132576463Y-100015351D01*
X132559677Y-100012176D01*
X132559655Y-100012310D01*
X132551642Y-100010949D01*
X132486157Y-100008498D01*
X132486157Y-100008497D01*
X132483810Y-100008409D01*
X132416224Y-100003346D01*
X132405032Y-100005463D01*
X132391069Y-100004941D01*
X132391068Y-100004940D01*
X132391067Y-100004941D01*
X132352509Y-100003498D01*
X132336715Y-100001083D01*
X132336668Y-100001431D01*
X132328623Y-100000334D01*
X132261428Y-100000026D01*
X132261309Y-100000025D01*
X132259335Y-100000014D01*
X132190258Y-99997430D01*
X132181189Y-99999500D01*
X132146838Y-99999500D01*
X132146271Y-99999499D01*
X132064064Y-99999122D01*
X132058098Y-99999500D01*
X129079766Y-99999500D01*
X129012727Y-99979815D01*
X129010875Y-99978602D01*
X128879185Y-99890609D01*
X128879172Y-99890602D01*
X128733501Y-99830264D01*
X128733489Y-99830261D01*
X128578845Y-99799500D01*
X128578842Y-99799500D01*
X128421158Y-99799500D01*
X128421155Y-99799500D01*
X128266510Y-99830261D01*
X128266498Y-99830264D01*
X128120827Y-99890602D01*
X128120814Y-99890609D01*
X127989711Y-99978210D01*
X127989707Y-99978213D01*
X127878213Y-100089707D01*
X127878210Y-100089711D01*
X127790609Y-100220814D01*
X127790602Y-100220827D01*
X127730264Y-100366498D01*
X127730261Y-100366510D01*
X127699500Y-100521153D01*
X127699500Y-100678846D01*
X127730261Y-100833489D01*
X127730264Y-100833501D01*
X127790602Y-100979172D01*
X127790609Y-100979185D01*
X127878210Y-101110288D01*
X127878213Y-101110292D01*
X127989707Y-101221786D01*
X127989711Y-101221789D01*
X128120814Y-101309390D01*
X128120827Y-101309397D01*
X128266498Y-101369735D01*
X128266503Y-101369737D01*
X128367899Y-101389906D01*
X128421153Y-101400499D01*
X128421156Y-101400500D01*
X128421158Y-101400500D01*
X128578844Y-101400500D01*
X128578845Y-101400499D01*
X128733497Y-101369737D01*
X128879179Y-101309394D01*
X128898101Y-101296751D01*
X129010875Y-101221398D01*
X129077553Y-101200520D01*
X129079766Y-101200500D01*
X132143262Y-101200500D01*
X132143827Y-101200501D01*
X132144781Y-101200505D01*
X132232241Y-101200904D01*
X132236218Y-101200989D01*
X132414242Y-101207649D01*
X132418830Y-101207906D01*
X132594785Y-101221091D01*
X132599339Y-101221518D01*
X132774701Y-101241276D01*
X132779267Y-101241877D01*
X132953771Y-101268176D01*
X132958303Y-101268946D01*
X133131688Y-101301751D01*
X133136145Y-101302681D01*
X133296473Y-101339273D01*
X133308185Y-101341946D01*
X133312688Y-101343062D01*
X133483140Y-101388733D01*
X133487527Y-101389998D01*
X133656173Y-101442016D01*
X133660554Y-101443457D01*
X133827075Y-101501723D01*
X133831381Y-101503320D01*
X133995679Y-101567801D01*
X133999918Y-101569557D01*
X134161642Y-101640115D01*
X134165818Y-101642031D01*
X134262798Y-101688732D01*
X134324802Y-101718590D01*
X134328934Y-101720675D01*
X134484933Y-101803122D01*
X134488984Y-101805361D01*
X134640101Y-101892606D01*
X134641761Y-101893564D01*
X134645724Y-101895953D01*
X134795120Y-101989823D01*
X134798985Y-101992353D01*
X134944772Y-102091747D01*
X134948553Y-102094430D01*
X135090490Y-102199181D01*
X135094169Y-102202004D01*
X135232098Y-102311995D01*
X135235661Y-102314946D01*
X135349189Y-102412643D01*
X135387164Y-102471291D01*
X135392307Y-102506632D01*
X135392307Y-102571862D01*
X135392306Y-102571862D01*
X135405427Y-102620827D01*
X135433231Y-102724593D01*
X135461202Y-102773039D01*
X135512287Y-102861522D01*
X135512289Y-102861525D01*
X135631157Y-102980393D01*
X135631163Y-102980398D01*
X142888184Y-110237419D01*
X142921669Y-110298742D01*
X142916685Y-110368434D01*
X142903606Y-110393990D01*
X142819670Y-110519609D01*
X142819664Y-110519620D01*
X142759326Y-110665291D01*
X142759323Y-110665303D01*
X142728562Y-110819946D01*
X142728562Y-110977639D01*
X142759323Y-111132282D01*
X142759326Y-111132294D01*
X142819664Y-111277965D01*
X142819671Y-111277978D01*
X142907272Y-111409081D01*
X142907275Y-111409085D01*
X143018769Y-111520579D01*
X143018773Y-111520582D01*
X143149879Y-111608185D01*
X143149881Y-111608185D01*
X143149883Y-111608187D01*
X143231560Y-111642018D01*
X143285964Y-111685858D01*
X143298672Y-111709134D01*
X143362655Y-111863633D01*
X143362658Y-111863638D01*
X143429854Y-111980043D01*
X143451828Y-112018109D01*
X143490831Y-112068947D01*
X143560393Y-112159617D01*
X143560394Y-112159619D01*
X143560399Y-112159624D01*
X143567575Y-112166801D01*
X143567588Y-112166823D01*
X143614538Y-112213773D01*
X143680344Y-112279588D01*
X143680422Y-112279657D01*
X146415425Y-115014660D01*
X146448910Y-115075983D01*
X146449361Y-115078149D01*
X146480261Y-115233491D01*
X146480264Y-115233501D01*
X146540602Y-115379172D01*
X146540611Y-115379188D01*
X146542898Y-115382611D01*
X146563775Y-115449289D01*
X146545289Y-115516668D01*
X146493310Y-115563358D01*
X146439795Y-115575500D01*
X140107236Y-115575500D01*
X140099628Y-115575499D01*
X140099621Y-115575498D01*
X140053676Y-115575499D01*
X140034833Y-115575499D01*
X140034831Y-115575498D01*
X140018655Y-115574439D01*
X139979168Y-115569242D01*
X139947900Y-115560864D01*
X139918682Y-115548763D01*
X139890649Y-115532578D01*
X139859185Y-115508435D01*
X139846997Y-115497747D01*
X139785550Y-115436301D01*
X139711574Y-115379538D01*
X139635044Y-115320815D01*
X139635034Y-115320808D01*
X139470739Y-115225954D01*
X139470737Y-115225953D01*
X139295462Y-115153354D01*
X139161325Y-115117415D01*
X139112206Y-115104255D01*
X139022104Y-115092395D01*
X138924115Y-115079498D01*
X138924110Y-115079498D01*
X138829257Y-115079500D01*
X138385719Y-115079500D01*
X138318680Y-115059815D01*
X138275235Y-115011795D01*
X138255052Y-114972185D01*
X138255051Y-114972184D01*
X138130109Y-114800213D01*
X137979786Y-114649890D01*
X137807820Y-114524951D01*
X137618414Y-114428444D01*
X137618413Y-114428443D01*
X137618412Y-114428443D01*
X137416243Y-114362754D01*
X137416241Y-114362753D01*
X137416240Y-114362753D01*
X137254957Y-114337208D01*
X137206287Y-114329500D01*
X136993713Y-114329500D01*
X136945042Y-114337208D01*
X136783760Y-114362753D01*
X136581585Y-114428444D01*
X136392179Y-114524951D01*
X136220213Y-114649890D01*
X136069890Y-114800213D01*
X135944951Y-114972179D01*
X135848444Y-115161585D01*
X135782753Y-115363760D01*
X135750208Y-115569242D01*
X135749500Y-115573713D01*
X135749500Y-115786287D01*
X135754484Y-115817753D01*
X135778978Y-115972406D01*
X135782754Y-115996243D01*
X135841879Y-116178211D01*
X135848444Y-116198414D01*
X135944951Y-116387820D01*
X136069890Y-116559786D01*
X136220213Y-116710109D01*
X136392182Y-116835050D01*
X136400946Y-116839516D01*
X136451742Y-116887491D01*
X136468536Y-116955312D01*
X136445998Y-117021447D01*
X136400946Y-117060484D01*
X136392182Y-117064949D01*
X136220213Y-117189890D01*
X136069890Y-117340213D01*
X135944951Y-117512179D01*
X135848444Y-117701585D01*
X135782753Y-117903760D01*
X135749500Y-118113713D01*
X135749500Y-118326286D01*
X135776441Y-118496388D01*
X135782754Y-118536243D01*
X135846851Y-118733513D01*
X135848444Y-118738414D01*
X135944951Y-118927820D01*
X136069890Y-119099786D01*
X136220213Y-119250109D01*
X136392182Y-119375050D01*
X136400946Y-119379516D01*
X136451742Y-119427491D01*
X136468536Y-119495312D01*
X136445998Y-119561447D01*
X136400946Y-119600484D01*
X136392182Y-119604949D01*
X136220213Y-119729890D01*
X136069890Y-119880213D01*
X135944951Y-120052179D01*
X135848444Y-120241585D01*
X135782753Y-120443760D01*
X135767414Y-120540609D01*
X135749500Y-120653713D01*
X135749500Y-120866287D01*
X135782754Y-121076243D01*
X135847558Y-121275689D01*
X135848444Y-121278414D01*
X135944951Y-121467820D01*
X136069890Y-121639786D01*
X136183430Y-121753326D01*
X136216915Y-121814649D01*
X136211931Y-121884341D01*
X136170059Y-121940274D01*
X136139083Y-121957189D01*
X136007669Y-122006203D01*
X136007664Y-122006206D01*
X135892455Y-122092452D01*
X135892452Y-122092455D01*
X135806206Y-122207664D01*
X135806202Y-122207671D01*
X135755908Y-122342517D01*
X135749501Y-122402116D01*
X135749500Y-122402135D01*
X135749500Y-124197870D01*
X135749501Y-124197876D01*
X135755908Y-124257483D01*
X135806202Y-124392328D01*
X135806204Y-124392331D01*
X135850265Y-124451189D01*
X135874683Y-124516652D01*
X135859832Y-124584925D01*
X135810427Y-124634331D01*
X135750999Y-124649500D01*
X134506393Y-124649500D01*
X134501524Y-124649404D01*
X134129010Y-124634765D01*
X134119304Y-124634001D01*
X133751502Y-124590467D01*
X133741885Y-124588944D01*
X133378624Y-124516685D01*
X133369157Y-124514412D01*
X133012700Y-124413880D01*
X133003440Y-124410872D01*
X132655949Y-124282674D01*
X132646954Y-124278948D01*
X132310595Y-124123883D01*
X132301920Y-124119462D01*
X131978784Y-123938497D01*
X131970482Y-123933410D01*
X131662523Y-123727638D01*
X131654646Y-123721915D01*
X131363784Y-123492618D01*
X131356381Y-123486295D01*
X131281888Y-123417435D01*
X131082415Y-123233045D01*
X131078912Y-123229676D01*
X129084573Y-121235337D01*
X129051088Y-121174014D01*
X129050637Y-121171847D01*
X129037885Y-121107739D01*
X129019737Y-121016503D01*
X128997722Y-120963353D01*
X128959397Y-120870827D01*
X128959390Y-120870814D01*
X128871789Y-120739711D01*
X128871786Y-120739707D01*
X128760292Y-120628213D01*
X128760288Y-120628210D01*
X128629185Y-120540609D01*
X128629172Y-120540602D01*
X128483501Y-120480264D01*
X128483489Y-120480261D01*
X128328845Y-120449500D01*
X128328842Y-120449500D01*
X128171158Y-120449500D01*
X128171155Y-120449500D01*
X128016510Y-120480261D01*
X128016498Y-120480264D01*
X127870827Y-120540602D01*
X127870814Y-120540609D01*
X127739711Y-120628210D01*
X127739707Y-120628213D01*
X127628213Y-120739707D01*
X127628210Y-120739711D01*
X127540609Y-120870814D01*
X127540602Y-120870827D01*
X127480264Y-121016498D01*
X127480261Y-121016510D01*
X127449500Y-121171153D01*
X124707888Y-121171153D01*
X124512647Y-121102835D01*
X124512635Y-121102831D01*
X124211455Y-121034089D01*
X124211437Y-121034086D01*
X123904471Y-120999500D01*
X123904465Y-120999500D01*
X123595535Y-120999500D01*
X123595528Y-120999500D01*
X123288562Y-121034086D01*
X123288544Y-121034089D01*
X122987364Y-121102831D01*
X122987352Y-121102835D01*
X122695777Y-121204862D01*
X122695763Y-121204868D01*
X122417437Y-121338903D01*
X122155858Y-121503264D01*
X121914326Y-121695879D01*
X121695879Y-121914326D01*
X121503264Y-122155858D01*
X121338901Y-122417440D01*
X121338900Y-122417443D01*
X121328977Y-122438047D01*
X121282153Y-122489905D01*
X121214725Y-122508216D01*
X121148102Y-122487166D01*
X121103436Y-122433438D01*
X121093259Y-122384302D01*
X121091018Y-117465000D01*
X121730138Y-117465000D01*
X122533012Y-117465000D01*
X122515795Y-117474940D01*
X122459940Y-117530795D01*
X122420444Y-117599204D01*
X122400000Y-117675504D01*
X122400000Y-117754496D01*
X122420444Y-117830796D01*
X122459940Y-117899205D01*
X122515795Y-117955060D01*
X122533012Y-117965000D01*
X121730138Y-117965000D01*
X121738430Y-118006690D01*
X121738430Y-118006692D01*
X121813807Y-118188671D01*
X121813814Y-118188684D01*
X121923248Y-118352462D01*
X121923251Y-118352466D01*
X122062533Y-118491748D01*
X122062537Y-118491751D01*
X122226315Y-118601185D01*
X122226328Y-118601192D01*
X122408306Y-118676569D01*
X122408318Y-118676572D01*
X122601504Y-118714999D01*
X122601508Y-118715000D01*
X122850000Y-118715000D01*
X122850000Y-118015000D01*
X123350000Y-118015000D01*
X123350000Y-118715000D01*
X123598492Y-118715000D01*
X123598495Y-118714999D01*
X123791681Y-118676572D01*
X123791693Y-118676569D01*
X123973671Y-118601192D01*
X123973684Y-118601185D01*
X124137462Y-118491751D01*
X124137466Y-118491748D01*
X124276748Y-118352466D01*
X124276751Y-118352462D01*
X124386185Y-118188684D01*
X124386192Y-118188671D01*
X124461569Y-118006692D01*
X124461569Y-118006690D01*
X124469862Y-117965000D01*
X123666988Y-117965000D01*
X123684205Y-117955060D01*
X123740060Y-117899205D01*
X123779556Y-117830796D01*
X123800000Y-117754496D01*
X123800000Y-117675504D01*
X123779556Y-117599204D01*
X123740060Y-117530795D01*
X123684205Y-117474940D01*
X123666988Y-117465000D01*
X124469862Y-117465000D01*
X124461569Y-117423309D01*
X124461569Y-117423307D01*
X124386192Y-117241328D01*
X124386185Y-117241315D01*
X124276751Y-117077537D01*
X124276748Y-117077533D01*
X124137466Y-116938251D01*
X124137462Y-116938248D01*
X123973684Y-116828814D01*
X123973671Y-116828807D01*
X123791693Y-116753430D01*
X123791681Y-116753427D01*
X123598495Y-116715000D01*
X123350000Y-116715000D01*
X123350000Y-117415000D01*
X122850000Y-117415000D01*
X122850000Y-116715000D01*
X122601504Y-116715000D01*
X122408318Y-116753427D01*
X122408306Y-116753430D01*
X122226328Y-116828807D01*
X122226315Y-116828814D01*
X122062537Y-116938248D01*
X122062533Y-116938251D01*
X121923251Y-117077533D01*
X121923248Y-117077537D01*
X121813814Y-117241315D01*
X121813807Y-117241328D01*
X121738430Y-117423307D01*
X121738430Y-117423309D01*
X121730138Y-117465000D01*
X121091018Y-117465000D01*
X121089195Y-113463178D01*
X124399499Y-113463178D01*
X124399500Y-113550000D01*
X124399500Y-113630255D01*
X124399510Y-113630422D01*
X124399510Y-113636827D01*
X124422175Y-113808992D01*
X124422179Y-113809010D01*
X124467116Y-113976729D01*
X124533568Y-114137166D01*
X124533570Y-114137171D01*
X124620391Y-114287558D01*
X124620393Y-114287561D01*
X124620395Y-114287564D01*
X124726105Y-114425336D01*
X124731607Y-114430839D01*
X124731613Y-114430848D01*
X124770060Y-114469295D01*
X124770061Y-114469297D01*
X124844884Y-114544123D01*
X124844915Y-114544150D01*
X125315425Y-115014660D01*
X125348910Y-115075983D01*
X125349361Y-115078149D01*
X125380261Y-115233491D01*
X125380264Y-115233501D01*
X125440602Y-115379172D01*
X125440609Y-115379185D01*
X125528210Y-115510288D01*
X125528213Y-115510292D01*
X125639707Y-115621786D01*
X125639711Y-115621789D01*
X125770814Y-115709390D01*
X125770827Y-115709397D01*
X125899953Y-115762882D01*
X125916503Y-115769737D01*
X126071153Y-115800499D01*
X126071156Y-115800500D01*
X126150421Y-115800500D01*
X126217460Y-115820185D01*
X126263215Y-115872989D01*
X126273159Y-115942147D01*
X126257808Y-115986500D01*
X126213720Y-116062861D01*
X126213720Y-116062862D01*
X126213720Y-116062863D01*
X126213719Y-116062865D01*
X126182812Y-116178213D01*
X126174500Y-116209234D01*
X126174500Y-116360765D01*
X126213719Y-116507136D01*
X126242055Y-116556215D01*
X126289485Y-116638365D01*
X126289486Y-116638366D01*
X126293549Y-116645403D01*
X126291346Y-116646674D01*
X126311959Y-116699983D01*
X126297923Y-116768428D01*
X126249112Y-116818420D01*
X126235845Y-116824866D01*
X126226324Y-116828809D01*
X126226315Y-116828814D01*
X126062537Y-116938248D01*
X126062533Y-116938251D01*
X125923251Y-117077533D01*
X125923248Y-117077537D01*
X125813814Y-117241315D01*
X125813807Y-117241328D01*
X125738430Y-117423307D01*
X125738430Y-117423309D01*
X125730138Y-117465000D01*
X126533012Y-117465000D01*
X126515795Y-117474940D01*
X126459940Y-117530795D01*
X126420444Y-117599204D01*
X126400000Y-117675504D01*
X126400000Y-117754496D01*
X126420444Y-117830796D01*
X126459940Y-117899205D01*
X126515795Y-117955060D01*
X126533012Y-117965000D01*
X125730138Y-117965000D01*
X125738430Y-118006690D01*
X125738430Y-118006692D01*
X125813807Y-118188671D01*
X125813814Y-118188684D01*
X125923248Y-118352462D01*
X125923251Y-118352466D01*
X126062533Y-118491748D01*
X126062537Y-118491751D01*
X126226315Y-118601185D01*
X126226328Y-118601192D01*
X126408306Y-118676569D01*
X126408318Y-118676572D01*
X126601504Y-118714999D01*
X126601508Y-118715000D01*
X127000000Y-118715000D01*
X127000000Y-118015000D01*
X127500000Y-118015000D01*
X127500000Y-118715000D01*
X127898492Y-118715000D01*
X127898495Y-118714999D01*
X128091681Y-118676572D01*
X128091693Y-118676569D01*
X128273671Y-118601192D01*
X128273684Y-118601185D01*
X128437462Y-118491751D01*
X128437466Y-118491748D01*
X128576748Y-118352466D01*
X128576751Y-118352462D01*
X128686185Y-118188684D01*
X128686192Y-118188671D01*
X128761569Y-118006692D01*
X128761569Y-118006690D01*
X128769862Y-117965000D01*
X127966988Y-117965000D01*
X127984205Y-117955060D01*
X128040060Y-117899205D01*
X128079556Y-117830796D01*
X128100000Y-117754496D01*
X128100000Y-117675504D01*
X128079556Y-117599204D01*
X128040060Y-117530795D01*
X127984205Y-117474940D01*
X127966988Y-117465000D01*
X128769862Y-117465000D01*
X128761569Y-117423309D01*
X128761569Y-117423307D01*
X128686192Y-117241328D01*
X128686185Y-117241315D01*
X128576751Y-117077537D01*
X128576748Y-117077533D01*
X128437466Y-116938251D01*
X128437462Y-116938248D01*
X128273684Y-116828814D01*
X128273671Y-116828807D01*
X128091693Y-116753430D01*
X128091681Y-116753427D01*
X127898495Y-116715000D01*
X127500000Y-116715000D01*
X127500000Y-117415000D01*
X127000000Y-117415000D01*
X127000000Y-116876784D01*
X127019685Y-116809745D01*
X127062000Y-116769397D01*
X127103365Y-116745515D01*
X127210515Y-116638365D01*
X127225669Y-116612118D01*
X127231721Y-116601637D01*
X127286279Y-116507138D01*
X127286281Y-116507135D01*
X127325500Y-116360766D01*
X127325500Y-116209234D01*
X127286281Y-116062865D01*
X127210515Y-115931635D01*
X127103365Y-115824485D01*
X127037203Y-115786286D01*
X126972136Y-115748719D01*
X126834887Y-115711944D01*
X126833266Y-115711509D01*
X126773606Y-115675145D01*
X126743077Y-115612298D01*
X126751372Y-115542923D01*
X126769507Y-115513069D01*
X126771778Y-115510299D01*
X126771789Y-115510289D01*
X126859394Y-115379179D01*
X126867448Y-115359736D01*
X126919735Y-115233501D01*
X126919737Y-115233497D01*
X126950500Y-115078842D01*
X126950500Y-114921158D01*
X126950500Y-114921155D01*
X126950499Y-114921153D01*
X126935013Y-114843302D01*
X126919737Y-114766503D01*
X126896858Y-114711268D01*
X126859397Y-114620827D01*
X126859390Y-114620814D01*
X126771789Y-114489711D01*
X126771786Y-114489707D01*
X126660292Y-114378213D01*
X126660288Y-114378210D01*
X126529185Y-114290609D01*
X126529172Y-114290602D01*
X126383501Y-114230264D01*
X126383491Y-114230261D01*
X126228151Y-114199362D01*
X126211394Y-114190596D01*
X126192916Y-114186577D01*
X126167877Y-114167832D01*
X126166241Y-114166977D01*
X126164662Y-114165426D01*
X126157646Y-114158410D01*
X126076052Y-114076816D01*
X128803765Y-114076816D01*
X128803765Y-114234509D01*
X128834526Y-114389152D01*
X128834529Y-114389164D01*
X128894867Y-114534835D01*
X128894874Y-114534848D01*
X128982475Y-114665951D01*
X128982478Y-114665955D01*
X129093972Y-114777449D01*
X129093976Y-114777452D01*
X129225079Y-114865053D01*
X129225092Y-114865060D01*
X129360527Y-114921158D01*
X129370768Y-114925400D01*
X129525418Y-114956162D01*
X129525421Y-114956163D01*
X129525423Y-114956163D01*
X129683109Y-114956163D01*
X129683110Y-114956162D01*
X129837762Y-114925400D01*
X129983444Y-114865057D01*
X130114554Y-114777452D01*
X130226054Y-114665952D01*
X130313659Y-114534842D01*
X130314845Y-114531980D01*
X130357730Y-114428444D01*
X130374002Y-114389160D01*
X130404765Y-114234505D01*
X130404765Y-114095831D01*
X130424450Y-114028792D01*
X130441084Y-114008150D01*
X130588011Y-113861223D01*
X130789662Y-113659572D01*
X130850983Y-113626089D01*
X130853150Y-113625638D01*
X130911085Y-113614113D01*
X131008497Y-113594737D01*
X131154179Y-113534394D01*
X131285289Y-113446789D01*
X131396789Y-113335289D01*
X131484394Y-113204179D01*
X131544737Y-113058497D01*
X131575500Y-112903842D01*
X131575500Y-112746158D01*
X131575500Y-112746155D01*
X131575499Y-112746153D01*
X131561277Y-112674655D01*
X131544737Y-112591503D01*
X131535950Y-112570289D01*
X131484397Y-112445827D01*
X131484390Y-112445814D01*
X131396789Y-112314711D01*
X131396786Y-112314707D01*
X131285292Y-112203213D01*
X131285288Y-112203210D01*
X131154185Y-112115609D01*
X131154172Y-112115602D01*
X131008501Y-112055264D01*
X131008489Y-112055261D01*
X130853845Y-112024500D01*
X130853842Y-112024500D01*
X130696158Y-112024500D01*
X130696155Y-112024500D01*
X130541510Y-112055261D01*
X130541498Y-112055264D01*
X130395827Y-112115602D01*
X130395814Y-112115609D01*
X130264711Y-112203210D01*
X130264707Y-112203213D01*
X130153213Y-112314707D01*
X130153210Y-112314711D01*
X130065609Y-112445814D01*
X130065602Y-112445827D01*
X130005264Y-112591498D01*
X130005261Y-112591508D01*
X129974361Y-112746850D01*
X129941976Y-112808761D01*
X129940425Y-112810339D01*
X129378087Y-113372676D01*
X129337859Y-113399556D01*
X129225089Y-113446267D01*
X129225079Y-113446272D01*
X129093976Y-113533873D01*
X129093972Y-113533876D01*
X128982478Y-113645370D01*
X128982475Y-113645374D01*
X128894874Y-113776477D01*
X128894867Y-113776490D01*
X128834529Y-113922161D01*
X128834526Y-113922173D01*
X128803765Y-114076816D01*
X126076052Y-114076816D01*
X125643881Y-113644646D01*
X125642518Y-113643283D01*
X125631821Y-113631086D01*
X125631183Y-113630255D01*
X125627514Y-113625473D01*
X125617476Y-113599504D01*
X125604423Y-113574910D01*
X125605052Y-113567365D01*
X125602323Y-113560304D01*
X125607917Y-113533030D01*
X125610233Y-113505282D01*
X125615552Y-113495808D01*
X125616363Y-113491859D01*
X125627510Y-113474514D01*
X125631765Y-113468968D01*
X125642450Y-113456783D01*
X126514662Y-112584572D01*
X126575983Y-112551089D01*
X126578150Y-112550638D01*
X126636085Y-112539113D01*
X126733497Y-112519737D01*
X126879179Y-112459394D01*
X127010289Y-112371789D01*
X127121789Y-112260289D01*
X127209394Y-112129179D01*
X127269737Y-111983497D01*
X127300500Y-111828842D01*
X127300500Y-111671158D01*
X127300500Y-111671155D01*
X127300499Y-111671153D01*
X127279913Y-111567663D01*
X127269737Y-111516503D01*
X127260535Y-111494288D01*
X127209397Y-111370827D01*
X127209390Y-111370814D01*
X127121789Y-111239711D01*
X127121786Y-111239707D01*
X127055480Y-111173401D01*
X127021995Y-111112078D01*
X127026979Y-111042386D01*
X127068851Y-110986453D01*
X127081150Y-110978340D01*
X127103365Y-110965515D01*
X127210515Y-110858365D01*
X127286281Y-110727135D01*
X127325500Y-110580766D01*
X127325500Y-110429234D01*
X127286281Y-110282865D01*
X127210515Y-110151635D01*
X127103365Y-110044485D01*
X127089654Y-110036569D01*
X127061998Y-110020601D01*
X127013784Y-109970033D01*
X127000000Y-109913215D01*
X127000000Y-109375000D01*
X127500000Y-109375000D01*
X127500000Y-110075000D01*
X127898492Y-110075000D01*
X127898495Y-110074999D01*
X128091681Y-110036572D01*
X128091693Y-110036569D01*
X128273671Y-109961192D01*
X128273684Y-109961185D01*
X128437462Y-109851751D01*
X128437466Y-109851748D01*
X128576748Y-109712466D01*
X128576751Y-109712462D01*
X128686185Y-109548684D01*
X128686192Y-109548671D01*
X128761569Y-109366692D01*
X128761569Y-109366690D01*
X128769862Y-109325000D01*
X127966988Y-109325000D01*
X127984205Y-109315060D01*
X128040060Y-109259205D01*
X128079556Y-109190796D01*
X128100000Y-109114496D01*
X128100000Y-109035504D01*
X128079556Y-108959204D01*
X128040060Y-108890795D01*
X127984205Y-108834940D01*
X127966988Y-108825000D01*
X128769862Y-108825000D01*
X128761569Y-108783309D01*
X128761569Y-108783307D01*
X128686192Y-108601328D01*
X128686185Y-108601315D01*
X128576751Y-108437537D01*
X128576748Y-108437533D01*
X128437466Y-108298251D01*
X128437462Y-108298248D01*
X128273684Y-108188814D01*
X128273671Y-108188807D01*
X128091693Y-108113430D01*
X128091681Y-108113427D01*
X127898495Y-108075000D01*
X127500000Y-108075000D01*
X127500000Y-108775000D01*
X127000000Y-108775000D01*
X127000000Y-108075000D01*
X126601504Y-108075000D01*
X126408318Y-108113427D01*
X126408306Y-108113430D01*
X126226328Y-108188807D01*
X126226315Y-108188814D01*
X126062537Y-108298248D01*
X126062533Y-108298251D01*
X125923251Y-108437533D01*
X125923248Y-108437537D01*
X125813814Y-108601315D01*
X125813807Y-108601328D01*
X125738430Y-108783307D01*
X125738430Y-108783309D01*
X125730138Y-108825000D01*
X126533012Y-108825000D01*
X126515795Y-108834940D01*
X126459940Y-108890795D01*
X126420444Y-108959204D01*
X126400000Y-109035504D01*
X126400000Y-109114496D01*
X126420444Y-109190796D01*
X126459940Y-109259205D01*
X126515795Y-109315060D01*
X126533012Y-109325000D01*
X125730138Y-109325000D01*
X125738430Y-109366690D01*
X125738430Y-109366692D01*
X125813807Y-109548671D01*
X125813814Y-109548684D01*
X125923248Y-109712462D01*
X125923251Y-109712466D01*
X126062533Y-109851748D01*
X126062537Y-109851751D01*
X126226315Y-109961185D01*
X126226328Y-109961192D01*
X126235838Y-109965131D01*
X126290243Y-110008970D01*
X126312310Y-110075264D01*
X126295033Y-110142963D01*
X126291350Y-110148405D01*
X126213719Y-110282863D01*
X126190150Y-110370827D01*
X126174500Y-110429234D01*
X126174500Y-110580766D01*
X126182023Y-110608843D01*
X126213719Y-110727136D01*
X126271147Y-110826602D01*
X126287620Y-110894503D01*
X126264768Y-110960530D01*
X126211213Y-111003164D01*
X126120824Y-111040604D01*
X126120814Y-111040609D01*
X125989711Y-111128210D01*
X125989707Y-111128213D01*
X125878213Y-111239707D01*
X125878210Y-111239711D01*
X125790609Y-111370814D01*
X125790602Y-111370827D01*
X125730264Y-111516498D01*
X125730261Y-111516508D01*
X125699362Y-111671848D01*
X125666977Y-111733759D01*
X125665426Y-111735337D01*
X124842695Y-112558067D01*
X124842690Y-112558072D01*
X124839063Y-112561700D01*
X124839056Y-112561705D01*
X124829219Y-112571542D01*
X124823818Y-112576943D01*
X124823789Y-112576958D01*
X124726103Y-112674648D01*
X124620388Y-112812426D01*
X124620386Y-112812429D01*
X124552999Y-112929153D01*
X124533557Y-112962829D01*
X124533556Y-112962832D01*
X124467106Y-113123266D01*
X124422166Y-113290993D01*
X124422166Y-113290994D01*
X124399500Y-113463162D01*
X124399499Y-113463178D01*
X121089195Y-113463178D01*
X121087082Y-108825000D01*
X121730138Y-108825000D01*
X122533012Y-108825000D01*
X122515795Y-108834940D01*
X122459940Y-108890795D01*
X122420444Y-108959204D01*
X122400000Y-109035504D01*
X122400000Y-109114496D01*
X122420444Y-109190796D01*
X122459940Y-109259205D01*
X122515795Y-109315060D01*
X122533012Y-109325000D01*
X121730138Y-109325000D01*
X121738430Y-109366690D01*
X121738430Y-109366692D01*
X121813807Y-109548671D01*
X121813814Y-109548684D01*
X121923248Y-109712462D01*
X121923251Y-109712466D01*
X122062533Y-109851748D01*
X122062537Y-109851751D01*
X122226315Y-109961185D01*
X122226328Y-109961192D01*
X122408306Y-110036569D01*
X122408318Y-110036572D01*
X122601504Y-110074999D01*
X122601508Y-110075000D01*
X122850000Y-110075000D01*
X122850000Y-109375000D01*
X123350000Y-109375000D01*
X123350000Y-110075000D01*
X123598492Y-110075000D01*
X123598495Y-110074999D01*
X123791681Y-110036572D01*
X123791693Y-110036569D01*
X123973671Y-109961192D01*
X123973684Y-109961185D01*
X124137462Y-109851751D01*
X124137466Y-109851748D01*
X124276748Y-109712466D01*
X124276751Y-109712462D01*
X124386185Y-109548684D01*
X124386192Y-109548671D01*
X124461569Y-109366692D01*
X124461569Y-109366690D01*
X124469862Y-109325000D01*
X123666988Y-109325000D01*
X123684205Y-109315060D01*
X123740060Y-109259205D01*
X123779556Y-109190796D01*
X123800000Y-109114496D01*
X123800000Y-109035504D01*
X123779556Y-108959204D01*
X123740060Y-108890795D01*
X123684205Y-108834940D01*
X123666988Y-108825000D01*
X124469862Y-108825000D01*
X124461569Y-108783309D01*
X124461569Y-108783307D01*
X124386192Y-108601328D01*
X124386185Y-108601315D01*
X124276751Y-108437537D01*
X124276748Y-108437533D01*
X124137466Y-108298251D01*
X124137462Y-108298248D01*
X123973684Y-108188814D01*
X123973671Y-108188807D01*
X123791693Y-108113430D01*
X123791681Y-108113427D01*
X123598495Y-108075000D01*
X123350000Y-108075000D01*
X123350000Y-108775000D01*
X122850000Y-108775000D01*
X122850000Y-108075000D01*
X122601504Y-108075000D01*
X122408318Y-108113427D01*
X122408306Y-108113430D01*
X122226328Y-108188807D01*
X122226315Y-108188814D01*
X122062537Y-108298248D01*
X122062533Y-108298251D01*
X121923251Y-108437533D01*
X121923248Y-108437537D01*
X121813814Y-108601315D01*
X121813807Y-108601328D01*
X121738430Y-108783307D01*
X121738430Y-108783309D01*
X121730138Y-108825000D01*
X121087082Y-108825000D01*
X121081003Y-95482557D01*
X121100657Y-95415513D01*
X121153440Y-95369734D01*
X121222594Y-95359759D01*
X121286163Y-95388755D01*
X121301950Y-95405192D01*
X121445880Y-95585674D01*
X121664326Y-95804120D01*
X121905857Y-95996735D01*
X122167435Y-96161095D01*
X122445771Y-96295135D01*
X122445777Y-96295137D01*
X122737352Y-96397164D01*
X122737364Y-96397168D01*
X123038548Y-96465911D01*
X123038554Y-96465911D01*
X123038562Y-96465913D01*
X123243206Y-96488970D01*
X123345529Y-96500499D01*
X123345532Y-96500500D01*
X123345535Y-96500500D01*
X123654468Y-96500500D01*
X123654469Y-96500499D01*
X123811356Y-96482822D01*
X123961437Y-96465913D01*
X123961442Y-96465912D01*
X123961452Y-96465911D01*
X124262636Y-96397168D01*
X124554229Y-96295135D01*
X124832565Y-96161095D01*
X125094143Y-95996735D01*
X125335674Y-95804120D01*
X125554120Y-95585674D01*
X125746735Y-95344143D01*
X125911095Y-95082565D01*
X126045135Y-94804229D01*
X126147168Y-94512636D01*
X126215911Y-94211452D01*
X126250500Y-93904465D01*
X126250500Y-93595535D01*
X126215911Y-93288548D01*
X126147168Y-92987364D01*
X126045135Y-92695771D01*
X125911095Y-92417435D01*
X125768171Y-92189972D01*
X125749171Y-92122735D01*
X125769539Y-92055900D01*
X125822807Y-92010686D01*
X125873165Y-92000000D01*
X181626835Y-92000000D01*
X181693874Y-92019685D01*
G37*
%TD.AperFunction*%
%TD*%
M02*
