%TF.GenerationSoftware,KiCad,Pcbnew,9.0.7*%
%TF.CreationDate,2026-04-01T15:32:21-05:00*%
%TF.ProjectId,BsidesDSM26,42736964-6573-4445-934d-32362e6b6963,rev?*%
%TF.SameCoordinates,Original*%
%TF.FileFunction,Soldermask,Top*%
%TF.FilePolarity,Negative*%
%FSLAX46Y46*%
G04 Gerber Fmt 4.6, Leading zero omitted, Abs format (unit mm)*
G04 Created by KiCad (PCBNEW 9.0.7) date 2026-04-01 15:32:21*
%MOMM*%
%LPD*%
G01*
G04 APERTURE LIST*
G04 Aperture macros list*
%AMRoundRect*
0 Rectangle with rounded corners*
0 $1 Rounding radius*
0 $2 $3 $4 $5 $6 $7 $8 $9 X,Y pos of 4 corners*
0 Add a 4 corners polygon primitive as box body*
4,1,4,$2,$3,$4,$5,$6,$7,$8,$9,$2,$3,0*
0 Add four circle primitives for the rounded corners*
1,1,$1+$1,$2,$3*
1,1,$1+$1,$4,$5*
1,1,$1+$1,$6,$7*
1,1,$1+$1,$8,$9*
0 Add four rect primitives between the rounded corners*
20,1,$1+$1,$2,$3,$4,$5,0*
20,1,$1+$1,$4,$5,$6,$7,0*
20,1,$1+$1,$6,$7,$8,$9,0*
20,1,$1+$1,$8,$9,$2,$3,0*%
%AMFreePoly0*
4,1,23,0.500000,-0.750000,0.000000,-0.750000,0.000000,-0.745722,-0.065263,-0.745722,-0.191342,-0.711940,-0.304381,-0.646677,-0.396677,-0.554381,-0.461940,-0.441342,-0.495722,-0.315263,-0.495722,-0.250000,-0.500000,-0.250000,-0.500000,0.250000,-0.495722,0.250000,-0.495722,0.315263,-0.461940,0.441342,-0.396677,0.554381,-0.304381,0.646677,-0.191342,0.711940,-0.065263,0.745722,0.000000,0.745722,
0.000000,0.750000,0.500000,0.750000,0.500000,-0.750000,0.500000,-0.750000,$1*%
%AMFreePoly1*
4,1,23,0.000000,0.745722,0.065263,0.745722,0.191342,0.711940,0.304381,0.646677,0.396677,0.554381,0.461940,0.441342,0.495722,0.315263,0.495722,0.250000,0.500000,0.250000,0.500000,-0.250000,0.495722,-0.250000,0.495722,-0.315263,0.461940,-0.441342,0.396677,-0.554381,0.304381,-0.646677,0.191342,-0.711940,0.065263,-0.745722,0.000000,-0.745722,0.000000,-0.750000,-0.500000,-0.750000,
-0.500000,0.750000,0.000000,0.750000,0.000000,0.745722,0.000000,0.745722,$1*%
G04 Aperture macros list end*
%ADD10R,1.700000X1.700000*%
%ADD11C,1.700000*%
%ADD12R,0.850000X0.850000*%
%ADD13C,0.850000*%
%ADD14R,1.000000X0.500000*%
%ADD15R,1.500000X0.800000*%
%ADD16RoundRect,0.250000X-0.475000X0.250000X-0.475000X-0.250000X0.475000X-0.250000X0.475000X0.250000X0*%
%ADD17RoundRect,0.250000X0.475000X-0.250000X0.475000X0.250000X-0.475000X0.250000X-0.475000X-0.250000X0*%
%ADD18RoundRect,0.375000X0.375000X-0.625000X0.375000X0.625000X-0.375000X0.625000X-0.375000X-0.625000X0*%
%ADD19RoundRect,0.500000X1.400000X-0.500000X1.400000X0.500000X-1.400000X0.500000X-1.400000X-0.500000X0*%
%ADD20R,0.500000X0.800000*%
%ADD21R,0.400000X0.800000*%
%ADD22R,2.000000X4.200000*%
%ADD23RoundRect,0.050000X0.050000X0.350000X-0.050000X0.350000X-0.050000X-0.350000X0.050000X-0.350000X0*%
%ADD24RoundRect,0.050000X0.350000X0.050000X-0.350000X0.050000X-0.350000X-0.050000X0.350000X-0.050000X0*%
%ADD25R,3.700000X3.700000*%
%ADD26RoundRect,0.250000X-0.250000X-0.475000X0.250000X-0.475000X0.250000X0.475000X-0.250000X0.475000X0*%
%ADD27RoundRect,0.225000X0.225000X0.250000X-0.225000X0.250000X-0.225000X-0.250000X0.225000X-0.250000X0*%
%ADD28RoundRect,0.150000X0.150000X-0.587500X0.150000X0.587500X-0.150000X0.587500X-0.150000X-0.587500X0*%
%ADD29C,4.500000*%
%ADD30C,1.000000*%
%ADD31R,1.000000X0.900000*%
%ADD32RoundRect,0.225000X-0.225000X-0.250000X0.225000X-0.250000X0.225000X0.250000X-0.225000X0.250000X0*%
%ADD33RoundRect,0.200000X-0.275000X0.200000X-0.275000X-0.200000X0.275000X-0.200000X0.275000X0.200000X0*%
%ADD34R,1.000000X0.550000*%
%ADD35R,0.550000X1.200000*%
%ADD36R,0.700000X1.200000*%
%ADD37R,0.450000X1.200000*%
%ADD38RoundRect,0.218750X0.026517X-0.335876X0.335876X-0.026517X-0.026517X0.335876X-0.335876X0.026517X0*%
%ADD39RoundRect,0.243750X-0.456250X0.243750X-0.456250X-0.243750X0.456250X-0.243750X0.456250X0.243750X0*%
%ADD40RoundRect,0.218750X0.335876X0.026517X0.026517X0.335876X-0.335876X-0.026517X-0.026517X-0.335876X0*%
%ADD41RoundRect,0.225000X0.250000X-0.225000X0.250000X0.225000X-0.250000X0.225000X-0.250000X-0.225000X0*%
%ADD42RoundRect,0.200000X0.275000X-0.200000X0.275000X0.200000X-0.275000X0.200000X-0.275000X-0.200000X0*%
%ADD43R,1.000000X1.800000*%
%ADD44FreePoly0,90.000000*%
%ADD45FreePoly1,90.000000*%
%ADD46RoundRect,0.200000X0.200000X0.275000X-0.200000X0.275000X-0.200000X-0.275000X0.200000X-0.275000X0*%
%ADD47RoundRect,0.225000X-0.250000X0.225000X-0.250000X-0.225000X0.250000X-0.225000X0.250000X0.225000X0*%
%ADD48RoundRect,0.218750X-0.256250X0.218750X-0.256250X-0.218750X0.256250X-0.218750X0.256250X0.218750X0*%
%ADD49O,1.800000X1.000000*%
%ADD50O,2.100000X1.000000*%
%ADD51R,1.400000X0.250000*%
%ADD52R,1.600000X0.220000*%
%ADD53C,0.650000*%
%ADD54RoundRect,0.218750X0.218750X0.381250X-0.218750X0.381250X-0.218750X-0.381250X0.218750X-0.381250X0*%
%ADD55RoundRect,0.250000X-0.450000X-0.350000X0.450000X-0.350000X0.450000X0.350000X-0.450000X0.350000X0*%
%ADD56RoundRect,0.250000X0.275000X0.250000X-0.275000X0.250000X-0.275000X-0.250000X0.275000X-0.250000X0*%
%ADD57RoundRect,0.250000X0.850000X0.275000X-0.850000X0.275000X-0.850000X-0.275000X0.850000X-0.275000X0*%
%ADD58RoundRect,0.250000X-0.262500X-0.450000X0.262500X-0.450000X0.262500X0.450000X-0.262500X0.450000X0*%
G04 APERTURE END LIST*
%TO.C,JP2*%
G36*
X147650000Y-92200000D02*
G01*
X149150000Y-92200000D01*
X149150000Y-91900000D01*
X147650000Y-91900000D01*
X147650000Y-92200000D01*
G37*
%TO.C,JP1*%
G36*
X154350000Y-92200000D02*
G01*
X155850000Y-92200000D01*
X155850000Y-91900000D01*
X154350000Y-91900000D01*
X154350000Y-92200000D01*
G37*
%TO.C,J2*%
G36*
X151390000Y-127565000D02*
G01*
X149300000Y-127565000D01*
X149300000Y-125685000D01*
X151390000Y-125685000D01*
X151390000Y-127565000D01*
G37*
%TD*%
D10*
%TO.C,J7*%
X137100000Y-123300000D03*
D11*
X137100000Y-120760000D03*
X137100000Y-118220000D03*
X137100000Y-115680000D03*
%TD*%
D12*
%TO.C,J6*%
X149200000Y-109700000D03*
D13*
X149200000Y-110700000D03*
%TD*%
D12*
%TO.C,J5*%
X147500000Y-111250000D03*
D13*
X147500000Y-112250000D03*
%TD*%
D12*
%TO.C,J4*%
X148400000Y-115500000D03*
D13*
X148400000Y-114500000D03*
%TD*%
D12*
%TO.C,J3*%
X166750000Y-107500000D03*
D13*
X166750000Y-106500000D03*
%TD*%
D14*
%TO.C,SW3*%
X167750000Y-118100000D03*
X167750000Y-114900000D03*
D15*
X169500000Y-117500000D03*
X166000000Y-117500000D03*
X169500000Y-115500000D03*
X166000000Y-115500000D03*
%TD*%
D10*
%TO.C,BT1*%
X146750000Y-128790000D03*
D11*
X146750000Y-126250000D03*
%TD*%
D16*
%TO.C,C24*%
X126500000Y-127800000D03*
X126500000Y-129700000D03*
%TD*%
D17*
%TO.C,C23*%
X137500000Y-130250000D03*
X137500000Y-128350000D03*
%TD*%
D18*
%TO.C,U6*%
X129950000Y-130150000D03*
X132250000Y-130150000D03*
D19*
X132250000Y-123850000D03*
D18*
X134550000Y-130150000D03*
%TD*%
D20*
%TO.C,RN3*%
X174100000Y-107800000D03*
D21*
X174900000Y-107800000D03*
X175700000Y-107800000D03*
D20*
X176500000Y-107800000D03*
X176500000Y-106000000D03*
D21*
X175700000Y-106000000D03*
X174900000Y-106000000D03*
D20*
X174100000Y-106000000D03*
%TD*%
D22*
%TO.C,BZ1*%
X164750000Y-125250000D03*
X172750000Y-125250000D03*
%TD*%
D23*
%TO.C,U5*%
X154825000Y-111625000D03*
X154475000Y-111625000D03*
X154125000Y-111625000D03*
X153775000Y-111625000D03*
X153425000Y-111625000D03*
X153075000Y-111625000D03*
X152725000Y-111625000D03*
X152375000Y-111625000D03*
X152025000Y-111625000D03*
X151675000Y-111625000D03*
D24*
X150800000Y-111800000D03*
X150800000Y-112150000D03*
X150800000Y-112500000D03*
X150800000Y-112850000D03*
X150800000Y-113200000D03*
X150800000Y-113550000D03*
X150800000Y-113900000D03*
X150800000Y-114250000D03*
X150800000Y-114600000D03*
X150800000Y-114950000D03*
X150800000Y-115300000D03*
X150800000Y-115650000D03*
X150800000Y-116000000D03*
X150800000Y-116350000D03*
D23*
X151675000Y-116525000D03*
X152025000Y-116525000D03*
X152375000Y-116525000D03*
X152725000Y-116525000D03*
X153075000Y-116525000D03*
X153425000Y-116525000D03*
X153775000Y-116525000D03*
X154125000Y-116525000D03*
X154475000Y-116525000D03*
X154825000Y-116525000D03*
D24*
X155700000Y-116350000D03*
X155700000Y-116000000D03*
X155700000Y-115650000D03*
X155700000Y-115300000D03*
X155700000Y-114950000D03*
X155700000Y-114600000D03*
X155700000Y-114250000D03*
X155700000Y-113900000D03*
X155700000Y-113550000D03*
X155700000Y-113200000D03*
X155700000Y-112850000D03*
X155700000Y-112500000D03*
X155700000Y-112150000D03*
X155700000Y-111800000D03*
D25*
X153250000Y-114075000D03*
%TD*%
D26*
%TO.C,C10*%
X140500000Y-101750000D03*
X142400000Y-101750000D03*
%TD*%
D27*
%TO.C,C5*%
X155175000Y-104450000D03*
X153625000Y-104450000D03*
%TD*%
D28*
%TO.C,Q1*%
X142300000Y-129125000D03*
X144200000Y-129125000D03*
X143250000Y-127250000D03*
%TD*%
D29*
%TO.C,H4*%
X123750000Y-123750000D03*
%TD*%
D30*
%TO.C,TP2*%
X150800000Y-108950000D03*
%TD*%
D27*
%TO.C,C12*%
X149950000Y-99650000D03*
X148400000Y-99650000D03*
%TD*%
D31*
%TO.C,D4*%
X171750000Y-99000000D03*
X174750000Y-99000000D03*
D21*
X173650000Y-99450000D03*
X172850000Y-99450000D03*
%TD*%
D32*
%TO.C,C21*%
X155525000Y-120100000D03*
X157075000Y-120100000D03*
%TD*%
D33*
%TO.C,R7*%
X155300000Y-128175000D03*
X155300000Y-129825000D03*
%TD*%
D32*
%TO.C,C22*%
X155507500Y-124900000D03*
X157057500Y-124900000D03*
%TD*%
%TO.C,C19*%
X157725000Y-117000000D03*
X159275000Y-117000000D03*
%TD*%
D34*
%TO.C,U2*%
X138275000Y-98463222D03*
D35*
X138500000Y-98538222D03*
D36*
X139625000Y-98538222D03*
D37*
X140650000Y-98538222D03*
D35*
X141650000Y-98538222D03*
D34*
X141875000Y-98473222D03*
%TD*%
D38*
%TO.C,L1*%
X154043153Y-107506847D03*
X155156847Y-106393153D03*
%TD*%
D39*
%TO.C,D1*%
X140000000Y-125062500D03*
X140000000Y-126937500D03*
%TD*%
D31*
%TO.C,D2*%
X123150000Y-99000000D03*
X126150000Y-99000000D03*
D21*
X125050000Y-99450000D03*
X124250000Y-99450000D03*
%TD*%
D20*
%TO.C,RN1*%
X129600000Y-106100000D03*
D21*
X130400000Y-106100000D03*
X131200000Y-106100000D03*
D20*
X132000000Y-106100000D03*
X132000000Y-104300000D03*
D21*
X131200000Y-104300000D03*
X130400000Y-104300000D03*
D20*
X129600000Y-104300000D03*
%TD*%
D30*
%TO.C,TP3*%
X155500000Y-118300000D03*
%TD*%
D40*
%TO.C,L2*%
X149556847Y-107506847D03*
X148443153Y-106393153D03*
%TD*%
D27*
%TO.C,C13*%
X155150000Y-97850000D03*
X153600000Y-97850000D03*
%TD*%
D31*
%TO.C,D5*%
X181750000Y-99000000D03*
X184750000Y-99000000D03*
D21*
X183650000Y-99450000D03*
X182850000Y-99450000D03*
%TD*%
D26*
%TO.C,C1*%
X130000000Y-101750000D03*
X131900000Y-101750000D03*
%TD*%
%TO.C,C18*%
X161550000Y-110500000D03*
X163450000Y-110500000D03*
%TD*%
D29*
%TO.C,H1*%
X123500000Y-93750000D03*
%TD*%
D20*
%TO.C,RN2*%
X137850000Y-106050000D03*
D21*
X138650000Y-106050000D03*
X139450000Y-106050000D03*
D20*
X140250000Y-106050000D03*
X140250000Y-104250000D03*
D21*
X139450000Y-104250000D03*
X138650000Y-104250000D03*
D20*
X137850000Y-104250000D03*
%TD*%
D41*
%TO.C,C8*%
X155200000Y-102825000D03*
X155200000Y-101275000D03*
%TD*%
D29*
%TO.C,H3*%
X183750000Y-124750000D03*
%TD*%
D26*
%TO.C,C15*%
X167750000Y-101750000D03*
X169650000Y-101750000D03*
%TD*%
D42*
%TO.C,R4*%
X148400000Y-96175000D03*
X148400000Y-94525000D03*
%TD*%
D30*
%TO.C,TP4*%
X155300000Y-131600000D03*
%TD*%
D43*
%TO.C,Y1*%
X159000000Y-113250000D03*
X161500000Y-113250000D03*
%TD*%
D44*
%TO.C,JP2*%
X148400000Y-92700000D03*
D45*
X148400000Y-91400000D03*
%TD*%
D27*
%TO.C,C7*%
X162250000Y-101250000D03*
X160700000Y-101250000D03*
%TD*%
D26*
%TO.C,C17*%
X157650000Y-108500000D03*
X159550000Y-108500000D03*
%TD*%
D30*
%TO.C,TP1*%
X152800000Y-108950000D03*
%TD*%
D46*
%TO.C,R6*%
X153750000Y-126600000D03*
X155400000Y-126600000D03*
%TD*%
D42*
%TO.C,R3*%
X155100000Y-96200000D03*
X155100000Y-94550000D03*
%TD*%
D14*
%TO.C,SW1*%
X143800000Y-114650000D03*
X143800000Y-117850000D03*
D15*
X142050000Y-115250000D03*
X145550000Y-115250000D03*
X142050000Y-117250000D03*
X145550000Y-117250000D03*
%TD*%
D47*
%TO.C,C20*%
X153250000Y-118975000D03*
X153250000Y-120525000D03*
%TD*%
D14*
%TO.C,SW2*%
X143800000Y-108400000D03*
X143800000Y-111600000D03*
D15*
X142050000Y-109000000D03*
X145550000Y-109000000D03*
X142050000Y-111000000D03*
X145550000Y-111000000D03*
%TD*%
D34*
%TO.C,U4*%
X176400000Y-98463222D03*
D35*
X176625000Y-98538222D03*
D36*
X177750000Y-98538222D03*
D37*
X178775000Y-98538222D03*
D35*
X179775000Y-98538222D03*
D34*
X180000000Y-98473222D03*
%TD*%
D46*
%TO.C,R2*%
X158825000Y-101250000D03*
X157175000Y-101250000D03*
%TD*%
D41*
%TO.C,C9*%
X148400000Y-102800000D03*
X148400000Y-101250000D03*
%TD*%
%TO.C,C4*%
X160100000Y-104725000D03*
X160100000Y-103175000D03*
%TD*%
D48*
%TO.C,L4*%
X155500000Y-121712500D03*
X155500000Y-123287500D03*
%TD*%
D27*
%TO.C,C14*%
X149975000Y-97850000D03*
X148425000Y-97850000D03*
%TD*%
D28*
%TO.C,Q2*%
X142300000Y-124875000D03*
X144200000Y-124875000D03*
X143250000Y-123000000D03*
%TD*%
D17*
%TO.C,C3*%
X133250000Y-112175000D03*
X133250000Y-110275000D03*
%TD*%
D31*
%TO.C,D3*%
X133500000Y-99000000D03*
X136500000Y-99000000D03*
D21*
X135400000Y-99450000D03*
X134600000Y-99450000D03*
%TD*%
D49*
%TO.C,J1*%
X123100000Y-117715000D03*
D50*
X127250000Y-117715000D03*
D49*
X123100000Y-109075000D03*
D50*
X127250000Y-109075000D03*
D51*
X127950000Y-110320000D03*
X127950000Y-111120000D03*
D52*
X128050000Y-114645000D03*
X128050000Y-112645000D03*
X128050000Y-114145000D03*
X128050000Y-115145000D03*
D51*
X127950000Y-115670000D03*
X127950000Y-116470000D03*
X127950000Y-116720000D03*
X127950000Y-115920000D03*
D52*
X128050000Y-111645000D03*
X128050000Y-113645000D03*
X128050000Y-113145000D03*
X128050000Y-112145000D03*
D51*
X127950000Y-110870000D03*
X127950000Y-110070000D03*
D53*
X126750000Y-116285000D03*
X126750000Y-110505000D03*
%TD*%
D27*
%TO.C,C6*%
X149975000Y-104450000D03*
X148425000Y-104450000D03*
%TD*%
%TO.C,C11*%
X155150000Y-99650000D03*
X153600000Y-99650000D03*
%TD*%
D54*
%TO.C,L3*%
X159712500Y-110500000D03*
X157587500Y-110500000D03*
%TD*%
D55*
%TO.C,Y2*%
X148800000Y-120750000D03*
X151000000Y-120750000D03*
X151000000Y-119050000D03*
X148800000Y-119050000D03*
%TD*%
D44*
%TO.C,JP1*%
X155100000Y-92700000D03*
D45*
X155100000Y-91400000D03*
%TD*%
D34*
%TO.C,U1*%
X128025000Y-98463222D03*
D35*
X128250000Y-98538222D03*
D36*
X129375000Y-98538222D03*
D37*
X130400000Y-98538222D03*
D35*
X131400000Y-98538222D03*
D34*
X131625000Y-98473222D03*
%TD*%
D33*
%TO.C,R1*%
X162200000Y-103125000D03*
X162200000Y-104775000D03*
%TD*%
D26*
%TO.C,C16*%
X178000000Y-101750000D03*
X179900000Y-101750000D03*
%TD*%
D29*
%TO.C,H2*%
X184000000Y-93750000D03*
%TD*%
D34*
%TO.C,U3*%
X166250000Y-98463222D03*
D35*
X166475000Y-98538222D03*
D36*
X167600000Y-98538222D03*
D37*
X168625000Y-98538222D03*
D35*
X169625000Y-98538222D03*
D34*
X169850000Y-98473222D03*
%TD*%
D56*
%TO.C,J2*%
X151925000Y-126625000D03*
D57*
X150400000Y-128100000D03*
X150400000Y-125150000D03*
%TD*%
D16*
%TO.C,C2*%
X133350000Y-114575000D03*
X133350000Y-116475000D03*
%TD*%
D58*
%TO.C,R5*%
X142425000Y-131750000D03*
X144250000Y-131750000D03*
%TD*%
M02*
