M48
; DRILL file {KiCad 9.0.2} date 2025-07-07T16:25:30-0500
; FORMAT={-:-/ absolute / metric / decimal}
; #@! TF.CreationDate,2025-07-07T16:25:30-05:00
; #@! TF.GenerationSoftware,Kicad,Pcbnew,9.0.2
; #@! TF.FileFunction,Plated,1,2,PTH
FMAT,2
METRIC
; #@! TA.AperFunction,Plated,PTH,ViaDrill
T1C0.300
; #@! TA.AperFunction,Plated,PTH,ComponentDrill
T2C0.350
; #@! TA.AperFunction,Plated,PTH,ComponentDrill
T3C0.500
; #@! TA.AperFunction,Plated,PTH,ComponentDrill
T4C0.600
; #@! TA.AperFunction,Plated,PTH,ComponentDrill
T5C1.000
; #@! TA.AperFunction,Plated,PTH,ComponentDrill
T6C3.200
; #@! TA.AperFunction,Plated,PTH,ComponentDrill
T7C4.220
%
G90
G05
T1
X68.4Y-109.8
X70.2Y-107.2
X70.329Y-111.6
X72.8Y-110.2
X74.9Y-97.7
X77.647Y-116.119
X78.1Y-115.4
X78.3Y-94.9
X78.7Y-97.1
X81.1Y-94.9
X81.3Y-117.1
X82.2Y-99.8
X82.9Y-99.8
X85.0Y-113.8
X91.9Y-94.7
X92.2Y-95.65
X94.2Y-113.6
X94.7Y-96.1
X96.1Y-96.4
X96.112Y-97.899
X96.8Y-114.8
X97.195Y-95.65
X99.2Y-115.25
X100.65Y-100.95
X102.0Y-112.35
X104.55Y-99.9
X105.4Y-96.75
X107.5Y-92.15
X109.05Y-109.4
X110.4Y-90.4
X110.9Y-117.05
X111.4Y-89.8
X112.2Y-101.0
X113.2Y-103.1
X113.25Y-95.9
X113.5Y-114.3
X113.8Y-100.1
X113.95Y-92.0
X115.0Y-117.0
X115.8Y-100.8
X116.1Y-114.9
X116.8Y-97.4
X119.0Y-117.0
X119.65Y-101.4
X120.05Y-104.9
X122.1Y-98.4
X122.8Y-105.4
X122.8Y-114.4
X123.1Y-99.2
X123.1Y-100.5
X123.1Y-101.9
X123.1Y-102.7
X123.5Y-104.5
X124.2Y-107.5
X124.3Y-103.7
X124.5Y-108.7
X125.15Y-94.1
X125.2Y-102.8
X125.2Y-106.4
X126.25Y-95.45
X126.3Y-105.3
X126.5Y-106.5
X127.9Y-103.3
X127.9Y-104.3
X128.4Y-106.9
X128.85Y-120.6
X129.1Y-107.5
X130.35Y-94.0
X130.35Y-95.5
X130.5Y-104.3
X130.5Y-105.35
X131.05Y-104.85
X131.278Y-100.281
X131.6Y-104.3
X131.6Y-105.35
X132.0Y-93.4
X132.05Y-87.35
X132.15Y-104.85
X132.219Y-101.169
X132.5Y-112.4
X132.6Y-115.6
X132.7Y-95.0
X132.75Y-104.3
X132.75Y-105.35
X132.95Y-100.5
X133.8Y-101.4
X133.9Y-114.3
X134.05Y-92.35
X134.85Y-117.1
X135.2Y-96.8
X135.7Y-93.3
X135.75Y-114.65
X136.9Y-99.05
X137.05Y-107.2
X138.05Y-110.05
X138.1Y-105.7
X138.3Y-117.1
X138.65Y-107.2
X138.7Y-115.2
X138.8Y-105.7
X139.1Y-94.7
X139.6Y-103.6
X140.25Y-107.2
X140.35Y-91.55
X140.5Y-99.2
X140.5Y-103.6
X140.6Y-101.4
X141.55Y-94.9
X142.7Y-100.9
X142.8Y-98.5
X142.85Y-107.2
X147.3Y-87.9
X147.9Y-91.55
X148.7Y-94.9
X150.0Y-98.2
X150.05Y-100.85
X151.5Y-93.5
X151.85Y-107.35
X154.0Y-96.0
X155.8Y-92.05
X155.9Y-93.6
X160.15Y-95.6
X162.0Y-105.7
X165.3Y-91.5
X165.6Y-90.0
X169.6Y-99.35
X170.4Y-82.5
X171.8Y-105.85
X176.1Y-115.7
X176.65Y-92.3
X176.756Y-91.506
X177.75Y-76.8
X178.65Y-129.95
X179.4Y-125.0
X179.4Y-125.8
X179.681Y-90.344
X179.95Y-91.15
X180.7Y-86.4
X181.2Y-74.25
X182.0Y-120.4
X182.2Y-83.3
X182.75Y-77.05
X183.4Y-122.4
X184.0Y-121.2
X184.3Y-72.8
X185.4Y-71.6
X185.4Y-81.6
X185.45Y-86.85
X186.7Y-70.6
X186.8Y-132.2
X187.05Y-79.9
X187.65Y-106.85
X187.8Y-103.75
X189.2Y-95.6
X189.3Y-130.1
X189.45Y-113.4
X189.8Y-134.4
X190.1Y-68.3
X190.35Y-106.3
X190.8Y-114.4
X190.9Y-103.4
X191.1Y-68.8
X191.3Y-80.2
X191.3Y-92.1
X191.6Y-128.0
X191.7Y-67.9
X191.7Y-78.35
X191.75Y-86.8
X192.0Y-72.5
X192.1Y-73.8
X192.3Y-132.2
X192.7Y-95.75
X193.15Y-87.5
X193.75Y-89.6
X193.75Y-104.85
X193.775Y-122.9
X193.85Y-88.0
X194.1Y-113.3
X194.1Y-118.188
X194.112Y-106.1
X194.2Y-130.4
X194.2Y-134.3
X194.4Y-90.2
X194.55Y-81.5
X194.6Y-112.8
X194.725Y-99.875
X194.85Y-80.15
X195.0Y-70.1
X195.1Y-88.1
X195.462Y-120.688
X195.6Y-93.25
X195.75Y-104.85
X196.4Y-125.9
X196.9Y-88.085
X197.475Y-73.76
X197.9Y-133.4
X198.0Y-129.0
X198.201Y-83.99
X198.25Y-72.4
X198.25Y-90.75
X198.55Y-118.3
X198.7Y-98.3
X198.825Y-87.425
X198.95Y-102.05
X199.15Y-94.45
X199.6Y-131.5
X199.75Y-122.0
X199.8Y-125.6
X199.8Y-136.4
X200.291Y-73.522
X202.0Y-127.8
X202.6Y-95.2
X202.6Y-95.9
X202.75Y-83.7
X202.875Y-91.475
X202.95Y-90.25
X203.1Y-121.5
X203.4Y-117.05
X203.65Y-119.25
X203.8Y-125.7
X203.95Y-89.45
X204.575Y-93.025
X205.5Y-94.2
X205.5Y-128.5
X215.8Y-95.1
X216.9Y-82.08
X217.6Y-80.04
X219.3Y-74.7
X223.6Y-99.6
X224.1Y-107.9
X224.25Y-124.55
X225.1Y-92.7
X225.5Y-102.8
X226.7Y-110.7
X227.0Y-96.0
X228.1Y-100.9
X228.1Y-123.15
X228.25Y-104.6
X228.3Y-107.3
X228.8Y-100.3
X229.7Y-101.0
X229.9Y-107.5
X230.3Y-106.1
X231.5Y-105.6
X233.7Y-95.0
X233.75Y-110.45
X234.1Y-121.95
X234.2Y-96.4
X234.7Y-104.65
X234.85Y-102.05
X235.2Y-95.5
X235.2Y-97.4
X235.35Y-89.05
X237.1Y-89.4
X239.1Y-102.3
X239.1Y-109.4
T2
X199.1Y-75.7
X199.1Y-77.1
X199.8Y-75.0
X199.8Y-76.4
X199.8Y-77.8
X200.5Y-75.7
X200.5Y-77.1
X201.2Y-75.0
X201.2Y-76.4
X201.2Y-77.8
X201.9Y-75.7
X201.9Y-77.1
T3
X215.3Y-75.5
X215.3Y-76.5
X215.3Y-77.5
X215.3Y-78.5
X215.3Y-79.5
X215.3Y-80.5
X215.3Y-81.5
X215.3Y-82.5
T5
X75.46Y-103.161
X75.46Y-105.701
X75.46Y-108.241
X78.0Y-103.161
X78.0Y-105.701
X78.0Y-108.241
X115.78Y-103.161
X115.78Y-105.701
X115.78Y-108.241
X118.32Y-103.161
X118.32Y-105.701
X118.32Y-108.241
X165.6Y-103.161
X165.6Y-105.701
X165.6Y-108.241
X168.14Y-103.161
X168.14Y-105.701
X168.14Y-108.241
X219.3Y-79.2
X219.3Y-81.74
X219.3Y-84.28
X219.3Y-86.82
X219.3Y-89.36
X241.9Y-103.26
X241.9Y-105.8
X241.9Y-108.34
T6
X248.8Y-94.4
X248.8Y-116.8
T7
X84.4Y-105.525
X179.75Y-105.7
T4
G00X176.198Y-79.015
M15
G01X175.768Y-78.34
M16
G05
G00X178.508Y-82.641
M15
G01X177.917Y-81.714
M16
G05
G00X183.485Y-74.372
M15
G01X183.055Y-73.698
M16
G05
G00X185.795Y-77.999
M15
G01X185.204Y-77.071
M16
G05
M30
