%TF.GenerationSoftware,KiCad,Pcbnew,9.0.2*%
%TF.CreationDate,2025-06-18T16:04:02-05:00*%
%TF.ProjectId,NeoSword,4e656f53-776f-4726-942e-6b696361645f,rev?*%
%TF.SameCoordinates,Original*%
%TF.FileFunction,Paste,Top*%
%TF.FilePolarity,Positive*%
%FSLAX46Y46*%
G04 Gerber Fmt 4.6, Leading zero omitted, Abs format (unit mm)*
G04 Created by KiCad (PCBNEW 9.0.2) date 2025-06-18 16:04:02*
%MOMM*%
%LPD*%
G01*
G04 APERTURE LIST*
G04 Aperture macros list*
%AMRoundRect*
0 Rectangle with rounded corners*
0 $1 Rounding radius*
0 $2 $3 $4 $5 $6 $7 $8 $9 X,Y pos of 4 corners*
0 Add a 4 corners polygon primitive as box body*
4,1,4,$2,$3,$4,$5,$6,$7,$8,$9,$2,$3,0*
0 Add four circle primitives for the rounded corners*
1,1,$1+$1,$2,$3*
1,1,$1+$1,$4,$5*
1,1,$1+$1,$6,$7*
1,1,$1+$1,$8,$9*
0 Add four rect primitives between the rounded corners*
20,1,$1+$1,$2,$3,$4,$5,0*
20,1,$1+$1,$4,$5,$6,$7,0*
20,1,$1+$1,$6,$7,$8,$9,0*
20,1,$1+$1,$8,$9,$2,$3,0*%
%AMRotRect*
0 Rectangle, with rotation*
0 The origin of the aperture is its center*
0 $1 length*
0 $2 width*
0 $3 Rotation angle, in degrees counterclockwise*
0 Add horizontal line*
21,1,$1,$2,0,0,$3*%
G04 Aperture macros list end*
%ADD10R,0.900000X0.900000*%
%ADD11R,1.500000X0.900000*%
%ADD12R,0.900000X1.500000*%
%ADD13RoundRect,0.250000X-0.250000X-0.475000X0.250000X-0.475000X0.250000X0.475000X-0.250000X0.475000X0*%
%ADD14RoundRect,0.250000X-0.450000X0.262500X-0.450000X-0.262500X0.450000X-0.262500X0.450000X0.262500X0*%
%ADD15RotRect,0.250000X1.400000X212.500000*%
%ADD16RotRect,0.220000X1.600000X212.500000*%
%ADD17R,0.600000X0.700000*%
%ADD18R,0.440000X0.900000*%
%ADD19RoundRect,0.243750X-0.243750X-0.456250X0.243750X-0.456250X0.243750X0.456250X-0.243750X0.456250X0*%
%ADD20R,0.500000X1.000000*%
%ADD21R,0.800000X1.500000*%
%ADD22RoundRect,0.202500X-0.472500X0.497500X-0.472500X-0.497500X0.472500X-0.497500X0.472500X0.497500X0*%
%ADD23RoundRect,0.250000X-0.475000X0.250000X-0.475000X-0.250000X0.475000X-0.250000X0.475000X0.250000X0*%
%ADD24RoundRect,0.250000X0.475000X-0.250000X0.475000X0.250000X-0.475000X0.250000X-0.475000X-0.250000X0*%
%ADD25RoundRect,0.125000X-0.125000X-0.125000X0.125000X-0.125000X0.125000X0.125000X-0.125000X0.125000X0*%
%ADD26RoundRect,0.062500X-0.512500X-0.062500X0.512500X-0.062500X0.512500X0.062500X-0.512500X0.062500X0*%
%ADD27RoundRect,0.062500X-0.062500X-0.512500X0.062500X-0.512500X0.062500X0.512500X-0.062500X0.512500X0*%
%ADD28RoundRect,0.062500X-0.062500X-0.487500X0.062500X-0.487500X0.062500X0.487500X-0.062500X0.487500X0*%
%ADD29R,0.800000X0.500000*%
%ADD30R,0.800000X0.400000*%
%ADD31RoundRect,0.150000X-0.587500X-0.150000X0.587500X-0.150000X0.587500X0.150000X-0.587500X0.150000X0*%
%ADD32RoundRect,0.200000X0.600000X-0.200000X0.600000X0.200000X-0.600000X0.200000X-0.600000X-0.200000X0*%
%ADD33RoundRect,0.250001X1.249999X-0.799999X1.249999X0.799999X-1.249999X0.799999X-1.249999X-0.799999X0*%
%ADD34RoundRect,0.250000X-0.262500X-0.450000X0.262500X-0.450000X0.262500X0.450000X-0.262500X0.450000X0*%
%ADD35RoundRect,0.250000X0.262500X0.450000X-0.262500X0.450000X-0.262500X-0.450000X0.262500X-0.450000X0*%
%ADD36R,6.400000X6.400000*%
%ADD37RotRect,0.600000X0.700000X243.000000*%
%ADD38RotRect,0.440000X0.900000X243.000000*%
%ADD39RoundRect,0.250000X0.250000X0.475000X-0.250000X0.475000X-0.250000X-0.475000X0.250000X-0.475000X0*%
%ADD40R,0.375000X0.700000*%
%ADD41R,0.700000X0.350000*%
%ADD42R,0.350000X0.700000*%
%ADD43RotRect,0.600000X0.700000X332.000000*%
%ADD44RotRect,0.440000X0.900000X332.000000*%
%ADD45RotRect,1.000000X0.600000X315.000000*%
%ADD46RoundRect,0.087500X-0.250000X-0.087500X0.250000X-0.087500X0.250000X0.087500X-0.250000X0.087500X0*%
%ADD47R,0.900000X1.250000*%
%ADD48R,0.800000X0.900000*%
%ADD49RotRect,0.600000X0.700000X208.000000*%
%ADD50RotRect,0.440000X0.900000X208.000000*%
%ADD51RoundRect,0.250000X0.335000X-0.335000X0.335000X0.335000X-0.335000X0.335000X-0.335000X-0.335000X0*%
%ADD52RoundRect,0.050000X0.050000X-0.450000X0.050000X0.450000X-0.050000X0.450000X-0.050000X-0.450000X0*%
%ADD53RoundRect,0.050000X0.450000X-0.050000X0.450000X0.050000X-0.450000X0.050000X-0.450000X-0.050000X0*%
%ADD54R,1.150000X3.600000*%
%ADD55RotRect,0.600000X0.700000X297.000000*%
%ADD56RotRect,0.440000X0.900000X297.000000*%
G04 APERTURE END LIST*
D10*
%TO.C,U1*%
X199100000Y-75000000D03*
X199100000Y-76400000D03*
X199100000Y-77800000D03*
X200500000Y-75000000D03*
X200500000Y-76400000D03*
X200500000Y-77800000D03*
X201900000Y-75000000D03*
X201900000Y-76400000D03*
X201900000Y-77800000D03*
D11*
X193250000Y-68680000D03*
X193250000Y-69950000D03*
X193250000Y-71220000D03*
X193250000Y-72490000D03*
X193250000Y-73760000D03*
X193250000Y-75030000D03*
X193250000Y-76300000D03*
X193250000Y-77570000D03*
X193250000Y-78840000D03*
X193250000Y-80110000D03*
X193250000Y-81380000D03*
X193250000Y-82650000D03*
X193250000Y-83920000D03*
X193250000Y-85190000D03*
D12*
X195015000Y-86440000D03*
X196285000Y-86440000D03*
X197555000Y-86440000D03*
X198825000Y-86440000D03*
X200095000Y-86440000D03*
X201365000Y-86440000D03*
X202635000Y-86440000D03*
X203905000Y-86440000D03*
X205175000Y-86440000D03*
X206445000Y-86440000D03*
X207715000Y-86440000D03*
X208985000Y-86440000D03*
D11*
X210750000Y-85190000D03*
X210750000Y-83920000D03*
X210750000Y-82650000D03*
X210750000Y-81380000D03*
X210750000Y-80110000D03*
X210750000Y-78840000D03*
X210750000Y-77570000D03*
X210750000Y-76300000D03*
X210750000Y-75030000D03*
X210750000Y-73760000D03*
X210750000Y-72490000D03*
X210750000Y-71220000D03*
X210750000Y-69950000D03*
X210750000Y-68680000D03*
%TD*%
D13*
%TO.C,C19*%
X197162500Y-105100000D03*
X199062500Y-105100000D03*
%TD*%
D14*
%TO.C,R5*%
X213600000Y-69187500D03*
X213600000Y-71012500D03*
%TD*%
D15*
%TO.C,J11*%
X185036685Y-78660152D03*
X184361972Y-79089992D03*
D16*
X183340379Y-79859387D03*
X182496986Y-80396688D03*
X182075291Y-80665337D03*
X183762073Y-79590739D03*
D15*
X180102845Y-81803354D03*
X179428133Y-82233194D03*
X179638979Y-82098870D03*
X180313693Y-81669030D03*
D16*
X180810204Y-81471287D03*
X181653593Y-80933988D03*
X182918683Y-80128038D03*
X181231900Y-81202636D03*
D15*
X184151125Y-79224318D03*
X184825837Y-78794477D03*
%TD*%
D13*
%TO.C,C8*%
X126050000Y-108400000D03*
X127950000Y-108400000D03*
%TD*%
D17*
%TO.C,D12*%
X134230000Y-95000000D03*
D18*
X135300000Y-95100000D03*
X136200000Y-95100000D03*
D17*
X137150000Y-95000000D03*
%TD*%
D19*
%TO.C,D1*%
X197862500Y-123350000D03*
X199737500Y-123350000D03*
%TD*%
D20*
%TO.C,SW4*%
X155703331Y-106008449D03*
X158903331Y-106008449D03*
D21*
X156303331Y-107758449D03*
X156303331Y-104258449D03*
X158303331Y-107758449D03*
X158303331Y-104258449D03*
%TD*%
D22*
%TO.C,J12*%
X221100000Y-108500000D03*
X211700000Y-108500000D03*
%TD*%
D23*
%TO.C,C21*%
X190500000Y-118150000D03*
X190500000Y-120050000D03*
%TD*%
D17*
%TO.C,D3*%
X136826666Y-115900000D03*
D18*
X135756666Y-115800000D03*
X134856666Y-115800000D03*
D17*
X133906666Y-115900000D03*
%TD*%
D24*
%TO.C,C22*%
X179400000Y-123750000D03*
X179400000Y-121850000D03*
%TD*%
D25*
%TO.C,U2*%
X232180000Y-98950000D03*
X232180000Y-99570000D03*
X232800000Y-98950000D03*
X232800000Y-99570000D03*
D26*
X230940000Y-98510000D03*
X230940000Y-99010000D03*
X230940000Y-99510000D03*
X230940000Y-100010000D03*
D27*
X231740000Y-100810000D03*
X232240000Y-100810000D03*
X232740000Y-100810000D03*
X233240000Y-100810000D03*
D26*
X234040000Y-100010000D03*
X234040000Y-99510000D03*
X234040000Y-99010000D03*
X234040000Y-98510000D03*
D28*
X233240000Y-97710000D03*
X232740000Y-97710000D03*
X232240000Y-97710000D03*
X231740000Y-97710000D03*
%TD*%
D24*
%TO.C,C4*%
X126970000Y-101280000D03*
X126970000Y-99380000D03*
%TD*%
D29*
%TO.C,RN1*%
X171800000Y-81600000D03*
D30*
X171800000Y-82400000D03*
X171800000Y-83200000D03*
D29*
X171800000Y-84000000D03*
X173600000Y-84000000D03*
D30*
X173600000Y-83200000D03*
X173600000Y-82400000D03*
D29*
X173600000Y-81600000D03*
%TD*%
D31*
%TO.C,Q2*%
X199900000Y-118300000D03*
X199900000Y-120200000D03*
X201775000Y-119250000D03*
%TD*%
D17*
%TO.C,D8*%
X94480000Y-95350000D03*
D18*
X95550000Y-95450000D03*
X96450000Y-95450000D03*
D17*
X97400000Y-95350000D03*
%TD*%
D32*
%TO.C,J6*%
X225925000Y-89025000D03*
X225925000Y-87775000D03*
X225925000Y-86525000D03*
X225925000Y-85275000D03*
D33*
X228825000Y-91575000D03*
X228825000Y-82725000D03*
%TD*%
D34*
%TO.C,R1*%
X202337500Y-123400000D03*
X204162500Y-123400000D03*
%TD*%
D13*
%TO.C,C7*%
X136250000Y-102750000D03*
X138150000Y-102750000D03*
%TD*%
D35*
%TO.C,R4*%
X195812500Y-136900000D03*
X193987500Y-136900000D03*
%TD*%
D34*
%TO.C,R7*%
X205775000Y-103350000D03*
X207600000Y-103350000D03*
%TD*%
D24*
%TO.C,C23*%
X181600000Y-123750000D03*
X181600000Y-121850000D03*
%TD*%
D36*
%TO.C,J1*%
X255400000Y-112936482D03*
X255400000Y-98436482D03*
%TD*%
D32*
%TO.C,J3*%
X246800000Y-106325000D03*
X246800000Y-105075000D03*
D33*
X249700000Y-108875000D03*
X249700000Y-102525000D03*
%TD*%
D29*
%TO.C,RN4*%
X203750000Y-90925000D03*
D30*
X203750000Y-91725000D03*
X203750000Y-92525000D03*
D29*
X203750000Y-93325000D03*
X205550000Y-93325000D03*
D30*
X205550000Y-92525000D03*
X205550000Y-91725000D03*
D29*
X205550000Y-90925000D03*
%TD*%
D13*
%TO.C,C15*%
X188050000Y-83000000D03*
X189950000Y-83000000D03*
%TD*%
D37*
%TO.C,D10*%
X68621787Y-104513227D03*
D38*
X69196657Y-103605250D03*
X69605250Y-102803343D03*
D37*
X69947439Y-101911488D03*
%TD*%
D39*
%TO.C,C14*%
X185550000Y-119500000D03*
X183650000Y-119500000D03*
%TD*%
D17*
%TO.C,D4*%
X116653333Y-115900000D03*
D18*
X115583333Y-115800000D03*
X114683333Y-115800000D03*
D17*
X113733333Y-115900000D03*
%TD*%
D13*
%TO.C,C13*%
X188300000Y-73300000D03*
X190200000Y-73300000D03*
%TD*%
D32*
%TO.C,J8*%
X225800000Y-125575000D03*
X225800000Y-124325000D03*
X225800000Y-123075000D03*
X225800000Y-121825000D03*
D33*
X228700000Y-128125000D03*
X228700000Y-119275000D03*
%TD*%
D40*
%TO.C,U4*%
X194287500Y-101775000D03*
D41*
X194125000Y-102450000D03*
X194125000Y-102950000D03*
D40*
X194287500Y-103625000D03*
D42*
X194800000Y-103625000D03*
X195300000Y-103625000D03*
D40*
X195812500Y-103625000D03*
D41*
X195975000Y-102950000D03*
X195975000Y-102450000D03*
D40*
X195812500Y-101775000D03*
D42*
X195300000Y-101775000D03*
X194800000Y-101775000D03*
%TD*%
D43*
%TO.C,D5*%
X80046947Y-114911705D03*
D44*
X79149141Y-114321076D03*
X78354488Y-113898551D03*
D43*
X77468740Y-113540848D03*
%TD*%
D13*
%TO.C,C17*%
X197162500Y-100350000D03*
X199062500Y-100350000D03*
%TD*%
%TO.C,C3*%
X231300000Y-107100000D03*
X233200000Y-107100000D03*
%TD*%
D17*
%TO.C,D2*%
X157000000Y-115900000D03*
D18*
X155930000Y-115800000D03*
X155030000Y-115800000D03*
D17*
X154080000Y-115900000D03*
%TD*%
D45*
%TO.C,D14*%
X215797182Y-71126472D03*
X217211396Y-72540686D03*
%TD*%
D20*
%TO.C,SW1*%
X184500000Y-98100000D03*
X187700000Y-98100000D03*
D21*
X185100000Y-99850000D03*
X185100000Y-96350000D03*
X187100000Y-99850000D03*
X187100000Y-96350000D03*
%TD*%
D17*
%TO.C,D7*%
X97000000Y-116000000D03*
D18*
X95930000Y-115900000D03*
X95030000Y-115900000D03*
D17*
X94080000Y-116000000D03*
%TD*%
D34*
%TO.C,R6*%
X205775000Y-100400000D03*
X207600000Y-100400000D03*
%TD*%
D13*
%TO.C,C1*%
X188200000Y-76700000D03*
X190100000Y-76700000D03*
%TD*%
D14*
%TO.C,R2*%
X192600000Y-118187500D03*
X192600000Y-120012500D03*
%TD*%
D23*
%TO.C,C20*%
X189300000Y-123750000D03*
X189300000Y-125650000D03*
%TD*%
D20*
%TO.C,SW3*%
X144903331Y-106008449D03*
X148103331Y-106008449D03*
D21*
X145503331Y-107758449D03*
X145503331Y-104258449D03*
X147503331Y-107758449D03*
X147503331Y-104258449D03*
%TD*%
D46*
%TO.C,U6*%
X185450000Y-121300000D03*
X185450000Y-121800000D03*
X185450000Y-122300000D03*
X186875000Y-122300000D03*
X186875000Y-121800000D03*
X186875000Y-121300000D03*
%TD*%
D47*
%TO.C,SW5*%
X203055000Y-140050000D03*
X201555000Y-140050000D03*
X198555000Y-140050000D03*
D48*
X204605000Y-143325000D03*
X204605000Y-141025000D03*
X197005000Y-143325000D03*
X196995000Y-141025000D03*
%TD*%
D39*
%TO.C,C9*%
X185550000Y-117300000D03*
X183650000Y-117300000D03*
%TD*%
D49*
%TO.C,D9*%
X77246510Y-96898370D03*
D50*
X78238211Y-96484331D03*
X79032864Y-96061806D03*
D49*
X79824718Y-95527513D03*
%TD*%
D13*
%TO.C,C2*%
X231300000Y-103800000D03*
X233200000Y-103800000D03*
%TD*%
D51*
%TO.C,U3*%
X130875000Y-105625000D03*
X132325000Y-105625000D03*
X130875000Y-104175000D03*
X132325000Y-104175000D03*
D52*
X130200000Y-107050000D03*
X130600000Y-107050000D03*
X131000000Y-107050000D03*
X131400000Y-107050000D03*
X131800000Y-107050000D03*
X132200000Y-107050000D03*
X132600000Y-107050000D03*
X133000000Y-107050000D03*
D53*
X133750000Y-106300000D03*
X133750000Y-105900000D03*
X133750000Y-105500000D03*
X133750000Y-105100000D03*
X133750000Y-104700000D03*
X133750000Y-104300000D03*
X133750000Y-103900000D03*
X133750000Y-103500000D03*
D52*
X133000000Y-102750000D03*
X132600000Y-102750000D03*
X132200000Y-102750000D03*
X131800000Y-102750000D03*
X131400000Y-102750000D03*
X131000000Y-102750000D03*
X130600000Y-102750000D03*
X130200000Y-102750000D03*
D53*
X129450000Y-103500000D03*
X129450000Y-103900000D03*
X129450000Y-104300000D03*
X129450000Y-104700000D03*
X129450000Y-105100000D03*
X129450000Y-105500000D03*
X129450000Y-105900000D03*
X129450000Y-106300000D03*
%TD*%
D13*
%TO.C,C16*%
X188050000Y-86100000D03*
X189950000Y-86100000D03*
%TD*%
D24*
%TO.C,C5*%
X124720000Y-101280000D03*
X124720000Y-99380000D03*
%TD*%
D54*
%TO.C,L1*%
X186575000Y-125200000D03*
X183625000Y-125200000D03*
%TD*%
D14*
%TO.C,R3*%
X188400000Y-118187500D03*
X188400000Y-120012500D03*
%TD*%
D17*
%TO.C,D11*%
X114380000Y-95000000D03*
D18*
X115450000Y-95100000D03*
X116350000Y-95100000D03*
D17*
X117300000Y-95000000D03*
%TD*%
D13*
%TO.C,C18*%
X197162500Y-107250000D03*
X199062500Y-107250000D03*
%TD*%
D31*
%TO.C,Q1*%
X205362500Y-118287500D03*
X205362500Y-120187500D03*
X207237500Y-119237500D03*
%TD*%
D13*
%TO.C,C6*%
X136250000Y-100600000D03*
X138150000Y-100600000D03*
%TD*%
D55*
%TO.C,D6*%
X69678600Y-109195433D03*
D56*
X69281932Y-108196657D03*
X68873339Y-107394750D03*
D55*
X68352948Y-106593695D03*
%TD*%
D17*
%TO.C,D13*%
X154080000Y-95000000D03*
D18*
X155150000Y-95100000D03*
X156050000Y-95100000D03*
D17*
X157000000Y-95000000D03*
%TD*%
D13*
%TO.C,C12*%
X188300000Y-70290000D03*
X190200000Y-70290000D03*
%TD*%
M02*
