%TF.GenerationSoftware,KiCad,Pcbnew,9.0.2*%
%TF.CreationDate,2025-07-07T16:25:28-05:00*%
%TF.ProjectId,Neoswordkicad,4e656f73-776f-4726-946b-696361642e6b,rev?*%
%TF.SameCoordinates,Original*%
%TF.FileFunction,Legend,Top*%
%TF.FilePolarity,Positive*%
%FSLAX46Y46*%
G04 Gerber Fmt 4.6, Leading zero omitted, Abs format (unit mm)*
G04 Created by KiCad (PCBNEW 9.0.2) date 2025-07-07 16:25:28*
%MOMM*%
%LPD*%
G01*
G04 APERTURE LIST*
%ADD10C,0.100000*%
%ADD11C,0.300000*%
%ADD12C,0.150000*%
%ADD13C,0.120000*%
%ADD14C,0.000000*%
G04 APERTURE END LIST*
D10*
X250898609Y-107962782D02*
X250946228Y-107819925D01*
X250946228Y-107819925D02*
X250993847Y-107772306D01*
X250993847Y-107772306D02*
X251089085Y-107724687D01*
X251089085Y-107724687D02*
X251231942Y-107724687D01*
X251231942Y-107724687D02*
X251327180Y-107772306D01*
X251327180Y-107772306D02*
X251374800Y-107819925D01*
X251374800Y-107819925D02*
X251422419Y-107915163D01*
X251422419Y-107915163D02*
X251422419Y-108296115D01*
X251422419Y-108296115D02*
X250422419Y-108296115D01*
X250422419Y-108296115D02*
X250422419Y-107962782D01*
X250422419Y-107962782D02*
X250470038Y-107867544D01*
X250470038Y-107867544D02*
X250517657Y-107819925D01*
X250517657Y-107819925D02*
X250612895Y-107772306D01*
X250612895Y-107772306D02*
X250708133Y-107772306D01*
X250708133Y-107772306D02*
X250803371Y-107819925D01*
X250803371Y-107819925D02*
X250850990Y-107867544D01*
X250850990Y-107867544D02*
X250898609Y-107962782D01*
X250898609Y-107962782D02*
X250898609Y-108296115D01*
X251422419Y-106867544D02*
X250898609Y-106867544D01*
X250898609Y-106867544D02*
X250803371Y-106915163D01*
X250803371Y-106915163D02*
X250755752Y-107010401D01*
X250755752Y-107010401D02*
X250755752Y-107200877D01*
X250755752Y-107200877D02*
X250803371Y-107296115D01*
X251374800Y-106867544D02*
X251422419Y-106962782D01*
X251422419Y-106962782D02*
X251422419Y-107200877D01*
X251422419Y-107200877D02*
X251374800Y-107296115D01*
X251374800Y-107296115D02*
X251279561Y-107343734D01*
X251279561Y-107343734D02*
X251184323Y-107343734D01*
X251184323Y-107343734D02*
X251089085Y-107296115D01*
X251089085Y-107296115D02*
X251041466Y-107200877D01*
X251041466Y-107200877D02*
X251041466Y-106962782D01*
X251041466Y-106962782D02*
X250993847Y-106867544D01*
X250755752Y-106534210D02*
X250755752Y-106153258D01*
X250422419Y-106391353D02*
X251279561Y-106391353D01*
X251279561Y-106391353D02*
X251374800Y-106343734D01*
X251374800Y-106343734D02*
X251422419Y-106248496D01*
X251422419Y-106248496D02*
X251422419Y-106153258D01*
X250755752Y-105962781D02*
X250755752Y-105581829D01*
X250422419Y-105819924D02*
X251279561Y-105819924D01*
X251279561Y-105819924D02*
X251374800Y-105772305D01*
X251374800Y-105772305D02*
X251422419Y-105677067D01*
X251422419Y-105677067D02*
X251422419Y-105581829D01*
X251374800Y-104867543D02*
X251422419Y-104962781D01*
X251422419Y-104962781D02*
X251422419Y-105153257D01*
X251422419Y-105153257D02*
X251374800Y-105248495D01*
X251374800Y-105248495D02*
X251279561Y-105296114D01*
X251279561Y-105296114D02*
X250898609Y-105296114D01*
X250898609Y-105296114D02*
X250803371Y-105248495D01*
X250803371Y-105248495D02*
X250755752Y-105153257D01*
X250755752Y-105153257D02*
X250755752Y-104962781D01*
X250755752Y-104962781D02*
X250803371Y-104867543D01*
X250803371Y-104867543D02*
X250898609Y-104819924D01*
X250898609Y-104819924D02*
X250993847Y-104819924D01*
X250993847Y-104819924D02*
X251089085Y-105296114D01*
X251422419Y-104391352D02*
X250755752Y-104391352D01*
X250946228Y-104391352D02*
X250850990Y-104343733D01*
X250850990Y-104343733D02*
X250803371Y-104296114D01*
X250803371Y-104296114D02*
X250755752Y-104200876D01*
X250755752Y-104200876D02*
X250755752Y-104105638D01*
X250755752Y-103867542D02*
X251422419Y-103629447D01*
X250755752Y-103391352D02*
X251422419Y-103629447D01*
X251422419Y-103629447D02*
X251660514Y-103724685D01*
X251660514Y-103724685D02*
X251708133Y-103772304D01*
X251708133Y-103772304D02*
X251755752Y-103867542D01*
X236724800Y-99043734D02*
X236772419Y-98900877D01*
X236772419Y-98900877D02*
X236772419Y-98662782D01*
X236772419Y-98662782D02*
X236724800Y-98567544D01*
X236724800Y-98567544D02*
X236677180Y-98519925D01*
X236677180Y-98519925D02*
X236581942Y-98472306D01*
X236581942Y-98472306D02*
X236486704Y-98472306D01*
X236486704Y-98472306D02*
X236391466Y-98519925D01*
X236391466Y-98519925D02*
X236343847Y-98567544D01*
X236343847Y-98567544D02*
X236296228Y-98662782D01*
X236296228Y-98662782D02*
X236248609Y-98853258D01*
X236248609Y-98853258D02*
X236200990Y-98948496D01*
X236200990Y-98948496D02*
X236153371Y-98996115D01*
X236153371Y-98996115D02*
X236058133Y-99043734D01*
X236058133Y-99043734D02*
X235962895Y-99043734D01*
X235962895Y-99043734D02*
X235867657Y-98996115D01*
X235867657Y-98996115D02*
X235820038Y-98948496D01*
X235820038Y-98948496D02*
X235772419Y-98853258D01*
X235772419Y-98853258D02*
X235772419Y-98615163D01*
X235772419Y-98615163D02*
X235820038Y-98472306D01*
X236105752Y-98043734D02*
X237105752Y-98043734D01*
X236153371Y-98043734D02*
X236105752Y-97948496D01*
X236105752Y-97948496D02*
X236105752Y-97758020D01*
X236105752Y-97758020D02*
X236153371Y-97662782D01*
X236153371Y-97662782D02*
X236200990Y-97615163D01*
X236200990Y-97615163D02*
X236296228Y-97567544D01*
X236296228Y-97567544D02*
X236581942Y-97567544D01*
X236581942Y-97567544D02*
X236677180Y-97615163D01*
X236677180Y-97615163D02*
X236724800Y-97662782D01*
X236724800Y-97662782D02*
X236772419Y-97758020D01*
X236772419Y-97758020D02*
X236772419Y-97948496D01*
X236772419Y-97948496D02*
X236724800Y-98043734D01*
X236724800Y-96758020D02*
X236772419Y-96853258D01*
X236772419Y-96853258D02*
X236772419Y-97043734D01*
X236772419Y-97043734D02*
X236724800Y-97138972D01*
X236724800Y-97138972D02*
X236629561Y-97186591D01*
X236629561Y-97186591D02*
X236248609Y-97186591D01*
X236248609Y-97186591D02*
X236153371Y-97138972D01*
X236153371Y-97138972D02*
X236105752Y-97043734D01*
X236105752Y-97043734D02*
X236105752Y-96853258D01*
X236105752Y-96853258D02*
X236153371Y-96758020D01*
X236153371Y-96758020D02*
X236248609Y-96710401D01*
X236248609Y-96710401D02*
X236343847Y-96710401D01*
X236343847Y-96710401D02*
X236439085Y-97186591D01*
X236772419Y-95853258D02*
X236248609Y-95853258D01*
X236248609Y-95853258D02*
X236153371Y-95900877D01*
X236153371Y-95900877D02*
X236105752Y-95996115D01*
X236105752Y-95996115D02*
X236105752Y-96186591D01*
X236105752Y-96186591D02*
X236153371Y-96281829D01*
X236724800Y-95853258D02*
X236772419Y-95948496D01*
X236772419Y-95948496D02*
X236772419Y-96186591D01*
X236772419Y-96186591D02*
X236724800Y-96281829D01*
X236724800Y-96281829D02*
X236629561Y-96329448D01*
X236629561Y-96329448D02*
X236534323Y-96329448D01*
X236534323Y-96329448D02*
X236439085Y-96281829D01*
X236439085Y-96281829D02*
X236391466Y-96186591D01*
X236391466Y-96186591D02*
X236391466Y-95948496D01*
X236391466Y-95948496D02*
X236343847Y-95853258D01*
X236772419Y-95377067D02*
X235772419Y-95377067D01*
X236391466Y-95281829D02*
X236772419Y-94996115D01*
X236105752Y-94996115D02*
X236486704Y-95377067D01*
X236724800Y-94186591D02*
X236772419Y-94281829D01*
X236772419Y-94281829D02*
X236772419Y-94472305D01*
X236772419Y-94472305D02*
X236724800Y-94567543D01*
X236724800Y-94567543D02*
X236629561Y-94615162D01*
X236629561Y-94615162D02*
X236248609Y-94615162D01*
X236248609Y-94615162D02*
X236153371Y-94567543D01*
X236153371Y-94567543D02*
X236105752Y-94472305D01*
X236105752Y-94472305D02*
X236105752Y-94281829D01*
X236105752Y-94281829D02*
X236153371Y-94186591D01*
X236153371Y-94186591D02*
X236248609Y-94138972D01*
X236248609Y-94138972D02*
X236343847Y-94138972D01*
X236343847Y-94138972D02*
X236439085Y-94615162D01*
X236772419Y-93710400D02*
X236105752Y-93710400D01*
X236296228Y-93710400D02*
X236200990Y-93662781D01*
X236200990Y-93662781D02*
X236153371Y-93615162D01*
X236153371Y-93615162D02*
X236105752Y-93519924D01*
X236105752Y-93519924D02*
X236105752Y-93424686D01*
D11*
X254261653Y-93474400D02*
X256547368Y-93474400D01*
X237268796Y-104270996D02*
X236554510Y-104270996D01*
X236554510Y-104270996D02*
X236554510Y-102770996D01*
X237768796Y-103485282D02*
X238268796Y-103485282D01*
X238483082Y-104270996D02*
X237768796Y-104270996D01*
X237768796Y-104270996D02*
X237768796Y-102770996D01*
X237768796Y-102770996D02*
X238483082Y-102770996D01*
X239125939Y-104270996D02*
X239125939Y-102770996D01*
X239125939Y-102770996D02*
X239483082Y-102770996D01*
X239483082Y-102770996D02*
X239697368Y-102842425D01*
X239697368Y-102842425D02*
X239840225Y-102985282D01*
X239840225Y-102985282D02*
X239911654Y-103128139D01*
X239911654Y-103128139D02*
X239983082Y-103413853D01*
X239983082Y-103413853D02*
X239983082Y-103628139D01*
X239983082Y-103628139D02*
X239911654Y-103913853D01*
X239911654Y-103913853D02*
X239840225Y-104056710D01*
X239840225Y-104056710D02*
X239697368Y-104199568D01*
X239697368Y-104199568D02*
X239483082Y-104270996D01*
X239483082Y-104270996D02*
X239125939Y-104270996D01*
X236411653Y-105185912D02*
X237340225Y-105185912D01*
X237340225Y-105185912D02*
X236840225Y-105757341D01*
X236840225Y-105757341D02*
X237054510Y-105757341D01*
X237054510Y-105757341D02*
X237197368Y-105828769D01*
X237197368Y-105828769D02*
X237268796Y-105900198D01*
X237268796Y-105900198D02*
X237340225Y-106043055D01*
X237340225Y-106043055D02*
X237340225Y-106400198D01*
X237340225Y-106400198D02*
X237268796Y-106543055D01*
X237268796Y-106543055D02*
X237197368Y-106614484D01*
X237197368Y-106614484D02*
X237054510Y-106685912D01*
X237054510Y-106685912D02*
X236625939Y-106685912D01*
X236625939Y-106685912D02*
X236483082Y-106614484D01*
X236483082Y-106614484D02*
X236411653Y-106543055D01*
X237840224Y-105685912D02*
X238197367Y-106685912D01*
X238197367Y-106685912D02*
X238554510Y-105685912D01*
X238983081Y-105185912D02*
X239911653Y-105185912D01*
X239911653Y-105185912D02*
X239411653Y-105757341D01*
X239411653Y-105757341D02*
X239625938Y-105757341D01*
X239625938Y-105757341D02*
X239768796Y-105828769D01*
X239768796Y-105828769D02*
X239840224Y-105900198D01*
X239840224Y-105900198D02*
X239911653Y-106043055D01*
X239911653Y-106043055D02*
X239911653Y-106400198D01*
X239911653Y-106400198D02*
X239840224Y-106543055D01*
X239840224Y-106543055D02*
X239768796Y-106614484D01*
X239768796Y-106614484D02*
X239625938Y-106685912D01*
X239625938Y-106685912D02*
X239197367Y-106685912D01*
X239197367Y-106685912D02*
X239054510Y-106614484D01*
X239054510Y-106614484D02*
X238983081Y-106543055D01*
X236340225Y-107600828D02*
X236840225Y-109100828D01*
X236840225Y-109100828D02*
X237340225Y-107600828D01*
X237768796Y-109029400D02*
X237983082Y-109100828D01*
X237983082Y-109100828D02*
X238340224Y-109100828D01*
X238340224Y-109100828D02*
X238483082Y-109029400D01*
X238483082Y-109029400D02*
X238554510Y-108957971D01*
X238554510Y-108957971D02*
X238625939Y-108815114D01*
X238625939Y-108815114D02*
X238625939Y-108672257D01*
X238625939Y-108672257D02*
X238554510Y-108529400D01*
X238554510Y-108529400D02*
X238483082Y-108457971D01*
X238483082Y-108457971D02*
X238340224Y-108386542D01*
X238340224Y-108386542D02*
X238054510Y-108315114D01*
X238054510Y-108315114D02*
X237911653Y-108243685D01*
X237911653Y-108243685D02*
X237840224Y-108172257D01*
X237840224Y-108172257D02*
X237768796Y-108029400D01*
X237768796Y-108029400D02*
X237768796Y-107886542D01*
X237768796Y-107886542D02*
X237840224Y-107743685D01*
X237840224Y-107743685D02*
X237911653Y-107672257D01*
X237911653Y-107672257D02*
X238054510Y-107600828D01*
X238054510Y-107600828D02*
X238411653Y-107600828D01*
X238411653Y-107600828D02*
X238625939Y-107672257D01*
X239197367Y-109029400D02*
X239411653Y-109100828D01*
X239411653Y-109100828D02*
X239768795Y-109100828D01*
X239768795Y-109100828D02*
X239911653Y-109029400D01*
X239911653Y-109029400D02*
X239983081Y-108957971D01*
X239983081Y-108957971D02*
X240054510Y-108815114D01*
X240054510Y-108815114D02*
X240054510Y-108672257D01*
X240054510Y-108672257D02*
X239983081Y-108529400D01*
X239983081Y-108529400D02*
X239911653Y-108457971D01*
X239911653Y-108457971D02*
X239768795Y-108386542D01*
X239768795Y-108386542D02*
X239483081Y-108315114D01*
X239483081Y-108315114D02*
X239340224Y-108243685D01*
X239340224Y-108243685D02*
X239268795Y-108172257D01*
X239268795Y-108172257D02*
X239197367Y-108029400D01*
X239197367Y-108029400D02*
X239197367Y-107886542D01*
X239197367Y-107886542D02*
X239268795Y-107743685D01*
X239268795Y-107743685D02*
X239340224Y-107672257D01*
X239340224Y-107672257D02*
X239483081Y-107600828D01*
X239483081Y-107600828D02*
X239840224Y-107600828D01*
X239840224Y-107600828D02*
X240054510Y-107672257D01*
X254261653Y-117874400D02*
X256547368Y-117874400D01*
X255404510Y-119017257D02*
X255404510Y-116731542D01*
D12*
X174653928Y-77912134D02*
X174051505Y-78295919D01*
X174051505Y-78295919D02*
X173905435Y-78332515D01*
X173905435Y-78332515D02*
X173773941Y-78303363D01*
X173773941Y-78303363D02*
X173657022Y-78208464D01*
X173657022Y-78208464D02*
X173605851Y-78128141D01*
X174347836Y-79292825D02*
X174040808Y-78810887D01*
X174194322Y-79051856D02*
X175037713Y-78514556D01*
X175037713Y-78514556D02*
X174866057Y-78510991D01*
X174866057Y-78510991D02*
X174734563Y-78481839D01*
X174734563Y-78481839D02*
X174643230Y-78427102D01*
X174859550Y-80096055D02*
X174552522Y-79614117D01*
X174706036Y-79855086D02*
X175549427Y-79317786D01*
X175549427Y-79317786D02*
X175377771Y-79314221D01*
X175377771Y-79314221D02*
X175246277Y-79285069D01*
X175246277Y-79285069D02*
X175154944Y-79230332D01*
X83638095Y-105479819D02*
X83638095Y-104479819D01*
X83638095Y-104956009D02*
X84209523Y-104956009D01*
X84209523Y-105479819D02*
X84209523Y-104479819D01*
X85114285Y-104813152D02*
X85114285Y-105479819D01*
X84876190Y-104432200D02*
X84638095Y-105146485D01*
X84638095Y-105146485D02*
X85257142Y-105146485D01*
X242354819Y-106659523D02*
X243069104Y-106659523D01*
X243069104Y-106659523D02*
X243211961Y-106707142D01*
X243211961Y-106707142D02*
X243307200Y-106802380D01*
X243307200Y-106802380D02*
X243354819Y-106945237D01*
X243354819Y-106945237D02*
X243354819Y-107040475D01*
X243354819Y-105659523D02*
X243354819Y-106230951D01*
X243354819Y-105945237D02*
X242354819Y-105945237D01*
X242354819Y-105945237D02*
X242497676Y-106040475D01*
X242497676Y-106040475D02*
X242592914Y-106135713D01*
X242592914Y-106135713D02*
X242640533Y-106230951D01*
X242450057Y-105278570D02*
X242402438Y-105230951D01*
X242402438Y-105230951D02*
X242354819Y-105135713D01*
X242354819Y-105135713D02*
X242354819Y-104897618D01*
X242354819Y-104897618D02*
X242402438Y-104802380D01*
X242402438Y-104802380D02*
X242450057Y-104754761D01*
X242450057Y-104754761D02*
X242545295Y-104707142D01*
X242545295Y-104707142D02*
X242640533Y-104707142D01*
X242640533Y-104707142D02*
X242783390Y-104754761D01*
X242783390Y-104754761D02*
X243354819Y-105326189D01*
X243354819Y-105326189D02*
X243354819Y-104707142D01*
X189020833Y-78954819D02*
X188687500Y-78478628D01*
X188449405Y-78954819D02*
X188449405Y-77954819D01*
X188449405Y-77954819D02*
X188830357Y-77954819D01*
X188830357Y-77954819D02*
X188925595Y-78002438D01*
X188925595Y-78002438D02*
X188973214Y-78050057D01*
X188973214Y-78050057D02*
X189020833Y-78145295D01*
X189020833Y-78145295D02*
X189020833Y-78288152D01*
X189020833Y-78288152D02*
X188973214Y-78383390D01*
X188973214Y-78383390D02*
X188925595Y-78431009D01*
X188925595Y-78431009D02*
X188830357Y-78478628D01*
X188830357Y-78478628D02*
X188449405Y-78478628D01*
X189592262Y-78383390D02*
X189497024Y-78335771D01*
X189497024Y-78335771D02*
X189449405Y-78288152D01*
X189449405Y-78288152D02*
X189401786Y-78192914D01*
X189401786Y-78192914D02*
X189401786Y-78145295D01*
X189401786Y-78145295D02*
X189449405Y-78050057D01*
X189449405Y-78050057D02*
X189497024Y-78002438D01*
X189497024Y-78002438D02*
X189592262Y-77954819D01*
X189592262Y-77954819D02*
X189782738Y-77954819D01*
X189782738Y-77954819D02*
X189877976Y-78002438D01*
X189877976Y-78002438D02*
X189925595Y-78050057D01*
X189925595Y-78050057D02*
X189973214Y-78145295D01*
X189973214Y-78145295D02*
X189973214Y-78192914D01*
X189973214Y-78192914D02*
X189925595Y-78288152D01*
X189925595Y-78288152D02*
X189877976Y-78335771D01*
X189877976Y-78335771D02*
X189782738Y-78383390D01*
X189782738Y-78383390D02*
X189592262Y-78383390D01*
X189592262Y-78383390D02*
X189497024Y-78431009D01*
X189497024Y-78431009D02*
X189449405Y-78478628D01*
X189449405Y-78478628D02*
X189401786Y-78573866D01*
X189401786Y-78573866D02*
X189401786Y-78764342D01*
X189401786Y-78764342D02*
X189449405Y-78859580D01*
X189449405Y-78859580D02*
X189497024Y-78907200D01*
X189497024Y-78907200D02*
X189592262Y-78954819D01*
X189592262Y-78954819D02*
X189782738Y-78954819D01*
X189782738Y-78954819D02*
X189877976Y-78907200D01*
X189877976Y-78907200D02*
X189925595Y-78859580D01*
X189925595Y-78859580D02*
X189973214Y-78764342D01*
X189973214Y-78764342D02*
X189973214Y-78573866D01*
X189973214Y-78573866D02*
X189925595Y-78478628D01*
X189925595Y-78478628D02*
X189877976Y-78431009D01*
X189877976Y-78431009D02*
X189782738Y-78383390D01*
X190954819Y-86101904D02*
X191764342Y-86101904D01*
X191764342Y-86101904D02*
X191859580Y-86054285D01*
X191859580Y-86054285D02*
X191907200Y-86006666D01*
X191907200Y-86006666D02*
X191954819Y-85911428D01*
X191954819Y-85911428D02*
X191954819Y-85720952D01*
X191954819Y-85720952D02*
X191907200Y-85625714D01*
X191907200Y-85625714D02*
X191859580Y-85578095D01*
X191859580Y-85578095D02*
X191764342Y-85530476D01*
X191764342Y-85530476D02*
X190954819Y-85530476D01*
X191954819Y-84530476D02*
X191954819Y-85101904D01*
X191954819Y-84816190D02*
X190954819Y-84816190D01*
X190954819Y-84816190D02*
X191097676Y-84911428D01*
X191097676Y-84911428D02*
X191192914Y-85006666D01*
X191192914Y-85006666D02*
X191240533Y-85101904D01*
X200557142Y-105559580D02*
X200509523Y-105607200D01*
X200509523Y-105607200D02*
X200366666Y-105654819D01*
X200366666Y-105654819D02*
X200271428Y-105654819D01*
X200271428Y-105654819D02*
X200128571Y-105607200D01*
X200128571Y-105607200D02*
X200033333Y-105511961D01*
X200033333Y-105511961D02*
X199985714Y-105416723D01*
X199985714Y-105416723D02*
X199938095Y-105226247D01*
X199938095Y-105226247D02*
X199938095Y-105083390D01*
X199938095Y-105083390D02*
X199985714Y-104892914D01*
X199985714Y-104892914D02*
X200033333Y-104797676D01*
X200033333Y-104797676D02*
X200128571Y-104702438D01*
X200128571Y-104702438D02*
X200271428Y-104654819D01*
X200271428Y-104654819D02*
X200366666Y-104654819D01*
X200366666Y-104654819D02*
X200509523Y-104702438D01*
X200509523Y-104702438D02*
X200557142Y-104750057D01*
X201509523Y-105654819D02*
X200938095Y-105654819D01*
X201223809Y-105654819D02*
X201223809Y-104654819D01*
X201223809Y-104654819D02*
X201128571Y-104797676D01*
X201128571Y-104797676D02*
X201033333Y-104892914D01*
X201033333Y-104892914D02*
X200938095Y-104940533D01*
X201985714Y-105654819D02*
X202176190Y-105654819D01*
X202176190Y-105654819D02*
X202271428Y-105607200D01*
X202271428Y-105607200D02*
X202319047Y-105559580D01*
X202319047Y-105559580D02*
X202414285Y-105416723D01*
X202414285Y-105416723D02*
X202461904Y-105226247D01*
X202461904Y-105226247D02*
X202461904Y-104845295D01*
X202461904Y-104845295D02*
X202414285Y-104750057D01*
X202414285Y-104750057D02*
X202366666Y-104702438D01*
X202366666Y-104702438D02*
X202271428Y-104654819D01*
X202271428Y-104654819D02*
X202080952Y-104654819D01*
X202080952Y-104654819D02*
X201985714Y-104702438D01*
X201985714Y-104702438D02*
X201938095Y-104750057D01*
X201938095Y-104750057D02*
X201890476Y-104845295D01*
X201890476Y-104845295D02*
X201890476Y-105083390D01*
X201890476Y-105083390D02*
X201938095Y-105178628D01*
X201938095Y-105178628D02*
X201985714Y-105226247D01*
X201985714Y-105226247D02*
X202080952Y-105273866D01*
X202080952Y-105273866D02*
X202271428Y-105273866D01*
X202271428Y-105273866D02*
X202366666Y-105226247D01*
X202366666Y-105226247D02*
X202414285Y-105178628D01*
X202414285Y-105178628D02*
X202461904Y-105083390D01*
X218490476Y-76324819D02*
X218490476Y-77039104D01*
X218490476Y-77039104D02*
X218442857Y-77181961D01*
X218442857Y-77181961D02*
X218347619Y-77277200D01*
X218347619Y-77277200D02*
X218204762Y-77324819D01*
X218204762Y-77324819D02*
X218109524Y-77324819D01*
X219490476Y-77324819D02*
X218919048Y-77324819D01*
X219204762Y-77324819D02*
X219204762Y-76324819D01*
X219204762Y-76324819D02*
X219109524Y-76467676D01*
X219109524Y-76467676D02*
X219014286Y-76562914D01*
X219014286Y-76562914D02*
X218919048Y-76610533D01*
X220109524Y-76324819D02*
X220204762Y-76324819D01*
X220204762Y-76324819D02*
X220300000Y-76372438D01*
X220300000Y-76372438D02*
X220347619Y-76420057D01*
X220347619Y-76420057D02*
X220395238Y-76515295D01*
X220395238Y-76515295D02*
X220442857Y-76705771D01*
X220442857Y-76705771D02*
X220442857Y-76943866D01*
X220442857Y-76943866D02*
X220395238Y-77134342D01*
X220395238Y-77134342D02*
X220347619Y-77229580D01*
X220347619Y-77229580D02*
X220300000Y-77277200D01*
X220300000Y-77277200D02*
X220204762Y-77324819D01*
X220204762Y-77324819D02*
X220109524Y-77324819D01*
X220109524Y-77324819D02*
X220014286Y-77277200D01*
X220014286Y-77277200D02*
X219966667Y-77229580D01*
X219966667Y-77229580D02*
X219919048Y-77134342D01*
X219919048Y-77134342D02*
X219871429Y-76943866D01*
X219871429Y-76943866D02*
X219871429Y-76705771D01*
X219871429Y-76705771D02*
X219919048Y-76515295D01*
X219919048Y-76515295D02*
X219966667Y-76420057D01*
X219966667Y-76420057D02*
X220014286Y-76372438D01*
X220014286Y-76372438D02*
X220109524Y-76324819D01*
X213433333Y-73092319D02*
X213100000Y-72616128D01*
X212861905Y-73092319D02*
X212861905Y-72092319D01*
X212861905Y-72092319D02*
X213242857Y-72092319D01*
X213242857Y-72092319D02*
X213338095Y-72139938D01*
X213338095Y-72139938D02*
X213385714Y-72187557D01*
X213385714Y-72187557D02*
X213433333Y-72282795D01*
X213433333Y-72282795D02*
X213433333Y-72425652D01*
X213433333Y-72425652D02*
X213385714Y-72520890D01*
X213385714Y-72520890D02*
X213338095Y-72568509D01*
X213338095Y-72568509D02*
X213242857Y-72616128D01*
X213242857Y-72616128D02*
X212861905Y-72616128D01*
X214338095Y-72092319D02*
X213861905Y-72092319D01*
X213861905Y-72092319D02*
X213814286Y-72568509D01*
X213814286Y-72568509D02*
X213861905Y-72520890D01*
X213861905Y-72520890D02*
X213957143Y-72473271D01*
X213957143Y-72473271D02*
X214195238Y-72473271D01*
X214195238Y-72473271D02*
X214290476Y-72520890D01*
X214290476Y-72520890D02*
X214338095Y-72568509D01*
X214338095Y-72568509D02*
X214385714Y-72663747D01*
X214385714Y-72663747D02*
X214385714Y-72901842D01*
X214385714Y-72901842D02*
X214338095Y-72997080D01*
X214338095Y-72997080D02*
X214290476Y-73044700D01*
X214290476Y-73044700D02*
X214195238Y-73092319D01*
X214195238Y-73092319D02*
X213957143Y-73092319D01*
X213957143Y-73092319D02*
X213861905Y-73044700D01*
X213861905Y-73044700D02*
X213814286Y-72997080D01*
X166536666Y-100286301D02*
X166536666Y-101000586D01*
X166536666Y-101000586D02*
X166489047Y-101143443D01*
X166489047Y-101143443D02*
X166393809Y-101238682D01*
X166393809Y-101238682D02*
X166250952Y-101286301D01*
X166250952Y-101286301D02*
X166155714Y-101286301D01*
X166917619Y-100286301D02*
X167584285Y-100286301D01*
X167584285Y-100286301D02*
X167155714Y-101286301D01*
X126833333Y-110259580D02*
X126785714Y-110307200D01*
X126785714Y-110307200D02*
X126642857Y-110354819D01*
X126642857Y-110354819D02*
X126547619Y-110354819D01*
X126547619Y-110354819D02*
X126404762Y-110307200D01*
X126404762Y-110307200D02*
X126309524Y-110211961D01*
X126309524Y-110211961D02*
X126261905Y-110116723D01*
X126261905Y-110116723D02*
X126214286Y-109926247D01*
X126214286Y-109926247D02*
X126214286Y-109783390D01*
X126214286Y-109783390D02*
X126261905Y-109592914D01*
X126261905Y-109592914D02*
X126309524Y-109497676D01*
X126309524Y-109497676D02*
X126404762Y-109402438D01*
X126404762Y-109402438D02*
X126547619Y-109354819D01*
X126547619Y-109354819D02*
X126642857Y-109354819D01*
X126642857Y-109354819D02*
X126785714Y-109402438D01*
X126785714Y-109402438D02*
X126833333Y-109450057D01*
X127404762Y-109783390D02*
X127309524Y-109735771D01*
X127309524Y-109735771D02*
X127261905Y-109688152D01*
X127261905Y-109688152D02*
X127214286Y-109592914D01*
X127214286Y-109592914D02*
X127214286Y-109545295D01*
X127214286Y-109545295D02*
X127261905Y-109450057D01*
X127261905Y-109450057D02*
X127309524Y-109402438D01*
X127309524Y-109402438D02*
X127404762Y-109354819D01*
X127404762Y-109354819D02*
X127595238Y-109354819D01*
X127595238Y-109354819D02*
X127690476Y-109402438D01*
X127690476Y-109402438D02*
X127738095Y-109450057D01*
X127738095Y-109450057D02*
X127785714Y-109545295D01*
X127785714Y-109545295D02*
X127785714Y-109592914D01*
X127785714Y-109592914D02*
X127738095Y-109688152D01*
X127738095Y-109688152D02*
X127690476Y-109735771D01*
X127690476Y-109735771D02*
X127595238Y-109783390D01*
X127595238Y-109783390D02*
X127404762Y-109783390D01*
X127404762Y-109783390D02*
X127309524Y-109831009D01*
X127309524Y-109831009D02*
X127261905Y-109878628D01*
X127261905Y-109878628D02*
X127214286Y-109973866D01*
X127214286Y-109973866D02*
X127214286Y-110164342D01*
X127214286Y-110164342D02*
X127261905Y-110259580D01*
X127261905Y-110259580D02*
X127309524Y-110307200D01*
X127309524Y-110307200D02*
X127404762Y-110354819D01*
X127404762Y-110354819D02*
X127595238Y-110354819D01*
X127595238Y-110354819D02*
X127690476Y-110307200D01*
X127690476Y-110307200D02*
X127738095Y-110259580D01*
X127738095Y-110259580D02*
X127785714Y-110164342D01*
X127785714Y-110164342D02*
X127785714Y-109973866D01*
X127785714Y-109973866D02*
X127738095Y-109878628D01*
X127738095Y-109878628D02*
X127690476Y-109831009D01*
X127690476Y-109831009D02*
X127595238Y-109783390D01*
D10*
X136964285Y-95742580D02*
X136964285Y-96742580D01*
X136964285Y-96742580D02*
X136726190Y-96742580D01*
X136726190Y-96742580D02*
X136583333Y-96694961D01*
X136583333Y-96694961D02*
X136488095Y-96599723D01*
X136488095Y-96599723D02*
X136440476Y-96504485D01*
X136440476Y-96504485D02*
X136392857Y-96314009D01*
X136392857Y-96314009D02*
X136392857Y-96171152D01*
X136392857Y-96171152D02*
X136440476Y-95980676D01*
X136440476Y-95980676D02*
X136488095Y-95885438D01*
X136488095Y-95885438D02*
X136583333Y-95790200D01*
X136583333Y-95790200D02*
X136726190Y-95742580D01*
X136726190Y-95742580D02*
X136964285Y-95742580D01*
X135440476Y-95742580D02*
X136011904Y-95742580D01*
X135726190Y-95742580D02*
X135726190Y-96742580D01*
X135726190Y-96742580D02*
X135821428Y-96599723D01*
X135821428Y-96599723D02*
X135916666Y-96504485D01*
X135916666Y-96504485D02*
X136011904Y-96456866D01*
X135059523Y-96647342D02*
X135011904Y-96694961D01*
X135011904Y-96694961D02*
X134916666Y-96742580D01*
X134916666Y-96742580D02*
X134678571Y-96742580D01*
X134678571Y-96742580D02*
X134583333Y-96694961D01*
X134583333Y-96694961D02*
X134535714Y-96647342D01*
X134535714Y-96647342D02*
X134488095Y-96552104D01*
X134488095Y-96552104D02*
X134488095Y-96456866D01*
X134488095Y-96456866D02*
X134535714Y-96314009D01*
X134535714Y-96314009D02*
X135107142Y-95742580D01*
X135107142Y-95742580D02*
X134488095Y-95742580D01*
D12*
X198061905Y-122154819D02*
X198061905Y-121154819D01*
X198061905Y-121154819D02*
X198300000Y-121154819D01*
X198300000Y-121154819D02*
X198442857Y-121202438D01*
X198442857Y-121202438D02*
X198538095Y-121297676D01*
X198538095Y-121297676D02*
X198585714Y-121392914D01*
X198585714Y-121392914D02*
X198633333Y-121583390D01*
X198633333Y-121583390D02*
X198633333Y-121726247D01*
X198633333Y-121726247D02*
X198585714Y-121916723D01*
X198585714Y-121916723D02*
X198538095Y-122011961D01*
X198538095Y-122011961D02*
X198442857Y-122107200D01*
X198442857Y-122107200D02*
X198300000Y-122154819D01*
X198300000Y-122154819D02*
X198061905Y-122154819D01*
X199585714Y-122154819D02*
X199014286Y-122154819D01*
X199300000Y-122154819D02*
X199300000Y-121154819D01*
X199300000Y-121154819D02*
X199204762Y-121297676D01*
X199204762Y-121297676D02*
X199109524Y-121392914D01*
X199109524Y-121392914D02*
X199014286Y-121440533D01*
X156266667Y-102807200D02*
X156409524Y-102854819D01*
X156409524Y-102854819D02*
X156647619Y-102854819D01*
X156647619Y-102854819D02*
X156742857Y-102807200D01*
X156742857Y-102807200D02*
X156790476Y-102759580D01*
X156790476Y-102759580D02*
X156838095Y-102664342D01*
X156838095Y-102664342D02*
X156838095Y-102569104D01*
X156838095Y-102569104D02*
X156790476Y-102473866D01*
X156790476Y-102473866D02*
X156742857Y-102426247D01*
X156742857Y-102426247D02*
X156647619Y-102378628D01*
X156647619Y-102378628D02*
X156457143Y-102331009D01*
X156457143Y-102331009D02*
X156361905Y-102283390D01*
X156361905Y-102283390D02*
X156314286Y-102235771D01*
X156314286Y-102235771D02*
X156266667Y-102140533D01*
X156266667Y-102140533D02*
X156266667Y-102045295D01*
X156266667Y-102045295D02*
X156314286Y-101950057D01*
X156314286Y-101950057D02*
X156361905Y-101902438D01*
X156361905Y-101902438D02*
X156457143Y-101854819D01*
X156457143Y-101854819D02*
X156695238Y-101854819D01*
X156695238Y-101854819D02*
X156838095Y-101902438D01*
X157171429Y-101854819D02*
X157409524Y-102854819D01*
X157409524Y-102854819D02*
X157600000Y-102140533D01*
X157600000Y-102140533D02*
X157790476Y-102854819D01*
X157790476Y-102854819D02*
X158028572Y-101854819D01*
X158838095Y-102188152D02*
X158838095Y-102854819D01*
X158600000Y-101807200D02*
X158361905Y-102521485D01*
X158361905Y-102521485D02*
X158980952Y-102521485D01*
X190859580Y-116592857D02*
X190907200Y-116640476D01*
X190907200Y-116640476D02*
X190954819Y-116783333D01*
X190954819Y-116783333D02*
X190954819Y-116878571D01*
X190954819Y-116878571D02*
X190907200Y-117021428D01*
X190907200Y-117021428D02*
X190811961Y-117116666D01*
X190811961Y-117116666D02*
X190716723Y-117164285D01*
X190716723Y-117164285D02*
X190526247Y-117211904D01*
X190526247Y-117211904D02*
X190383390Y-117211904D01*
X190383390Y-117211904D02*
X190192914Y-117164285D01*
X190192914Y-117164285D02*
X190097676Y-117116666D01*
X190097676Y-117116666D02*
X190002438Y-117021428D01*
X190002438Y-117021428D02*
X189954819Y-116878571D01*
X189954819Y-116878571D02*
X189954819Y-116783333D01*
X189954819Y-116783333D02*
X190002438Y-116640476D01*
X190002438Y-116640476D02*
X190050057Y-116592857D01*
X190050057Y-116211904D02*
X190002438Y-116164285D01*
X190002438Y-116164285D02*
X189954819Y-116069047D01*
X189954819Y-116069047D02*
X189954819Y-115830952D01*
X189954819Y-115830952D02*
X190002438Y-115735714D01*
X190002438Y-115735714D02*
X190050057Y-115688095D01*
X190050057Y-115688095D02*
X190145295Y-115640476D01*
X190145295Y-115640476D02*
X190240533Y-115640476D01*
X190240533Y-115640476D02*
X190383390Y-115688095D01*
X190383390Y-115688095D02*
X190954819Y-116259523D01*
X190954819Y-116259523D02*
X190954819Y-115640476D01*
X190954819Y-114688095D02*
X190954819Y-115259523D01*
X190954819Y-114973809D02*
X189954819Y-114973809D01*
X189954819Y-114973809D02*
X190097676Y-115069047D01*
X190097676Y-115069047D02*
X190192914Y-115164285D01*
X190192914Y-115164285D02*
X190240533Y-115259523D01*
X254638095Y-101941301D02*
X254638095Y-100941301D01*
X254638095Y-101417491D02*
X255209523Y-101417491D01*
X255209523Y-101941301D02*
X255209523Y-100941301D01*
X255590476Y-100941301D02*
X256209523Y-100941301D01*
X256209523Y-100941301D02*
X255876190Y-101322253D01*
X255876190Y-101322253D02*
X256019047Y-101322253D01*
X256019047Y-101322253D02*
X256114285Y-101369872D01*
X256114285Y-101369872D02*
X256161904Y-101417491D01*
X256161904Y-101417491D02*
X256209523Y-101512729D01*
X256209523Y-101512729D02*
X256209523Y-101750824D01*
X256209523Y-101750824D02*
X256161904Y-101846062D01*
X256161904Y-101846062D02*
X256114285Y-101893682D01*
X256114285Y-101893682D02*
X256019047Y-101941301D01*
X256019047Y-101941301D02*
X255733333Y-101941301D01*
X255733333Y-101941301D02*
X255638095Y-101893682D01*
X255638095Y-101893682D02*
X255590476Y-101846062D01*
D10*
X134568571Y-115157419D02*
X134568571Y-114157419D01*
X134568571Y-114157419D02*
X134806666Y-114157419D01*
X134806666Y-114157419D02*
X134949523Y-114205038D01*
X134949523Y-114205038D02*
X135044761Y-114300276D01*
X135044761Y-114300276D02*
X135092380Y-114395514D01*
X135092380Y-114395514D02*
X135139999Y-114585990D01*
X135139999Y-114585990D02*
X135139999Y-114728847D01*
X135139999Y-114728847D02*
X135092380Y-114919323D01*
X135092380Y-114919323D02*
X135044761Y-115014561D01*
X135044761Y-115014561D02*
X134949523Y-115109800D01*
X134949523Y-115109800D02*
X134806666Y-115157419D01*
X134806666Y-115157419D02*
X134568571Y-115157419D01*
X135473333Y-114157419D02*
X136092380Y-114157419D01*
X136092380Y-114157419D02*
X135759047Y-114538371D01*
X135759047Y-114538371D02*
X135901904Y-114538371D01*
X135901904Y-114538371D02*
X135997142Y-114585990D01*
X135997142Y-114585990D02*
X136044761Y-114633609D01*
X136044761Y-114633609D02*
X136092380Y-114728847D01*
X136092380Y-114728847D02*
X136092380Y-114966942D01*
X136092380Y-114966942D02*
X136044761Y-115062180D01*
X136044761Y-115062180D02*
X135997142Y-115109800D01*
X135997142Y-115109800D02*
X135901904Y-115157419D01*
X135901904Y-115157419D02*
X135616190Y-115157419D01*
X135616190Y-115157419D02*
X135520952Y-115109800D01*
X135520952Y-115109800D02*
X135473333Y-115062180D01*
D12*
X179759580Y-126742857D02*
X179807200Y-126790476D01*
X179807200Y-126790476D02*
X179854819Y-126933333D01*
X179854819Y-126933333D02*
X179854819Y-127028571D01*
X179854819Y-127028571D02*
X179807200Y-127171428D01*
X179807200Y-127171428D02*
X179711961Y-127266666D01*
X179711961Y-127266666D02*
X179616723Y-127314285D01*
X179616723Y-127314285D02*
X179426247Y-127361904D01*
X179426247Y-127361904D02*
X179283390Y-127361904D01*
X179283390Y-127361904D02*
X179092914Y-127314285D01*
X179092914Y-127314285D02*
X178997676Y-127266666D01*
X178997676Y-127266666D02*
X178902438Y-127171428D01*
X178902438Y-127171428D02*
X178854819Y-127028571D01*
X178854819Y-127028571D02*
X178854819Y-126933333D01*
X178854819Y-126933333D02*
X178902438Y-126790476D01*
X178902438Y-126790476D02*
X178950057Y-126742857D01*
X178950057Y-126361904D02*
X178902438Y-126314285D01*
X178902438Y-126314285D02*
X178854819Y-126219047D01*
X178854819Y-126219047D02*
X178854819Y-125980952D01*
X178854819Y-125980952D02*
X178902438Y-125885714D01*
X178902438Y-125885714D02*
X178950057Y-125838095D01*
X178950057Y-125838095D02*
X179045295Y-125790476D01*
X179045295Y-125790476D02*
X179140533Y-125790476D01*
X179140533Y-125790476D02*
X179283390Y-125838095D01*
X179283390Y-125838095D02*
X179854819Y-126409523D01*
X179854819Y-126409523D02*
X179854819Y-125790476D01*
X178950057Y-125409523D02*
X178902438Y-125361904D01*
X178902438Y-125361904D02*
X178854819Y-125266666D01*
X178854819Y-125266666D02*
X178854819Y-125028571D01*
X178854819Y-125028571D02*
X178902438Y-124933333D01*
X178902438Y-124933333D02*
X178950057Y-124885714D01*
X178950057Y-124885714D02*
X179045295Y-124838095D01*
X179045295Y-124838095D02*
X179140533Y-124838095D01*
X179140533Y-124838095D02*
X179283390Y-124885714D01*
X179283390Y-124885714D02*
X179854819Y-125457142D01*
X179854819Y-125457142D02*
X179854819Y-124838095D01*
X231728095Y-95914819D02*
X231728095Y-96724342D01*
X231728095Y-96724342D02*
X231775714Y-96819580D01*
X231775714Y-96819580D02*
X231823333Y-96867200D01*
X231823333Y-96867200D02*
X231918571Y-96914819D01*
X231918571Y-96914819D02*
X232109047Y-96914819D01*
X232109047Y-96914819D02*
X232204285Y-96867200D01*
X232204285Y-96867200D02*
X232251904Y-96819580D01*
X232251904Y-96819580D02*
X232299523Y-96724342D01*
X232299523Y-96724342D02*
X232299523Y-95914819D01*
X232728095Y-96010057D02*
X232775714Y-95962438D01*
X232775714Y-95962438D02*
X232870952Y-95914819D01*
X232870952Y-95914819D02*
X233109047Y-95914819D01*
X233109047Y-95914819D02*
X233204285Y-95962438D01*
X233204285Y-95962438D02*
X233251904Y-96010057D01*
X233251904Y-96010057D02*
X233299523Y-96105295D01*
X233299523Y-96105295D02*
X233299523Y-96200533D01*
X233299523Y-96200533D02*
X233251904Y-96343390D01*
X233251904Y-96343390D02*
X232680476Y-96914819D01*
X232680476Y-96914819D02*
X233299523Y-96914819D01*
X127359580Y-97766666D02*
X127407200Y-97814285D01*
X127407200Y-97814285D02*
X127454819Y-97957142D01*
X127454819Y-97957142D02*
X127454819Y-98052380D01*
X127454819Y-98052380D02*
X127407200Y-98195237D01*
X127407200Y-98195237D02*
X127311961Y-98290475D01*
X127311961Y-98290475D02*
X127216723Y-98338094D01*
X127216723Y-98338094D02*
X127026247Y-98385713D01*
X127026247Y-98385713D02*
X126883390Y-98385713D01*
X126883390Y-98385713D02*
X126692914Y-98338094D01*
X126692914Y-98338094D02*
X126597676Y-98290475D01*
X126597676Y-98290475D02*
X126502438Y-98195237D01*
X126502438Y-98195237D02*
X126454819Y-98052380D01*
X126454819Y-98052380D02*
X126454819Y-97957142D01*
X126454819Y-97957142D02*
X126502438Y-97814285D01*
X126502438Y-97814285D02*
X126550057Y-97766666D01*
X126788152Y-96909523D02*
X127454819Y-96909523D01*
X126407200Y-97147618D02*
X127121485Y-97385713D01*
X127121485Y-97385713D02*
X127121485Y-96766666D01*
X172009523Y-80454819D02*
X171676190Y-79978628D01*
X171438095Y-80454819D02*
X171438095Y-79454819D01*
X171438095Y-79454819D02*
X171819047Y-79454819D01*
X171819047Y-79454819D02*
X171914285Y-79502438D01*
X171914285Y-79502438D02*
X171961904Y-79550057D01*
X171961904Y-79550057D02*
X172009523Y-79645295D01*
X172009523Y-79645295D02*
X172009523Y-79788152D01*
X172009523Y-79788152D02*
X171961904Y-79883390D01*
X171961904Y-79883390D02*
X171914285Y-79931009D01*
X171914285Y-79931009D02*
X171819047Y-79978628D01*
X171819047Y-79978628D02*
X171438095Y-79978628D01*
X172438095Y-80454819D02*
X172438095Y-79454819D01*
X172438095Y-79454819D02*
X173009523Y-80454819D01*
X173009523Y-80454819D02*
X173009523Y-79454819D01*
X174009523Y-80454819D02*
X173438095Y-80454819D01*
X173723809Y-80454819D02*
X173723809Y-79454819D01*
X173723809Y-79454819D02*
X173628571Y-79597676D01*
X173628571Y-79597676D02*
X173533333Y-79692914D01*
X173533333Y-79692914D02*
X173438095Y-79740533D01*
X200742261Y-117400057D02*
X200647023Y-117352438D01*
X200647023Y-117352438D02*
X200551785Y-117257200D01*
X200551785Y-117257200D02*
X200408928Y-117114342D01*
X200408928Y-117114342D02*
X200313690Y-117066723D01*
X200313690Y-117066723D02*
X200218452Y-117066723D01*
X200266071Y-117304819D02*
X200170833Y-117257200D01*
X200170833Y-117257200D02*
X200075595Y-117161961D01*
X200075595Y-117161961D02*
X200027976Y-116971485D01*
X200027976Y-116971485D02*
X200027976Y-116638152D01*
X200027976Y-116638152D02*
X200075595Y-116447676D01*
X200075595Y-116447676D02*
X200170833Y-116352438D01*
X200170833Y-116352438D02*
X200266071Y-116304819D01*
X200266071Y-116304819D02*
X200456547Y-116304819D01*
X200456547Y-116304819D02*
X200551785Y-116352438D01*
X200551785Y-116352438D02*
X200647023Y-116447676D01*
X200647023Y-116447676D02*
X200694642Y-116638152D01*
X200694642Y-116638152D02*
X200694642Y-116971485D01*
X200694642Y-116971485D02*
X200647023Y-117161961D01*
X200647023Y-117161961D02*
X200551785Y-117257200D01*
X200551785Y-117257200D02*
X200456547Y-117304819D01*
X200456547Y-117304819D02*
X200266071Y-117304819D01*
X201075595Y-116400057D02*
X201123214Y-116352438D01*
X201123214Y-116352438D02*
X201218452Y-116304819D01*
X201218452Y-116304819D02*
X201456547Y-116304819D01*
X201456547Y-116304819D02*
X201551785Y-116352438D01*
X201551785Y-116352438D02*
X201599404Y-116400057D01*
X201599404Y-116400057D02*
X201647023Y-116495295D01*
X201647023Y-116495295D02*
X201647023Y-116590533D01*
X201647023Y-116590533D02*
X201599404Y-116733390D01*
X201599404Y-116733390D02*
X201027976Y-117304819D01*
X201027976Y-117304819D02*
X201647023Y-117304819D01*
D10*
X96738094Y-96092580D02*
X96738094Y-97092580D01*
X96738094Y-97092580D02*
X96499999Y-97092580D01*
X96499999Y-97092580D02*
X96357142Y-97044961D01*
X96357142Y-97044961D02*
X96261904Y-96949723D01*
X96261904Y-96949723D02*
X96214285Y-96854485D01*
X96214285Y-96854485D02*
X96166666Y-96664009D01*
X96166666Y-96664009D02*
X96166666Y-96521152D01*
X96166666Y-96521152D02*
X96214285Y-96330676D01*
X96214285Y-96330676D02*
X96261904Y-96235438D01*
X96261904Y-96235438D02*
X96357142Y-96140200D01*
X96357142Y-96140200D02*
X96499999Y-96092580D01*
X96499999Y-96092580D02*
X96738094Y-96092580D01*
X95595237Y-96664009D02*
X95690475Y-96711628D01*
X95690475Y-96711628D02*
X95738094Y-96759247D01*
X95738094Y-96759247D02*
X95785713Y-96854485D01*
X95785713Y-96854485D02*
X95785713Y-96902104D01*
X95785713Y-96902104D02*
X95738094Y-96997342D01*
X95738094Y-96997342D02*
X95690475Y-97044961D01*
X95690475Y-97044961D02*
X95595237Y-97092580D01*
X95595237Y-97092580D02*
X95404761Y-97092580D01*
X95404761Y-97092580D02*
X95309523Y-97044961D01*
X95309523Y-97044961D02*
X95261904Y-96997342D01*
X95261904Y-96997342D02*
X95214285Y-96902104D01*
X95214285Y-96902104D02*
X95214285Y-96854485D01*
X95214285Y-96854485D02*
X95261904Y-96759247D01*
X95261904Y-96759247D02*
X95309523Y-96711628D01*
X95309523Y-96711628D02*
X95404761Y-96664009D01*
X95404761Y-96664009D02*
X95595237Y-96664009D01*
X95595237Y-96664009D02*
X95690475Y-96616390D01*
X95690475Y-96616390D02*
X95738094Y-96568771D01*
X95738094Y-96568771D02*
X95785713Y-96473533D01*
X95785713Y-96473533D02*
X95785713Y-96283057D01*
X95785713Y-96283057D02*
X95738094Y-96187819D01*
X95738094Y-96187819D02*
X95690475Y-96140200D01*
X95690475Y-96140200D02*
X95595237Y-96092580D01*
X95595237Y-96092580D02*
X95404761Y-96092580D01*
X95404761Y-96092580D02*
X95309523Y-96140200D01*
X95309523Y-96140200D02*
X95261904Y-96187819D01*
X95261904Y-96187819D02*
X95214285Y-96283057D01*
X95214285Y-96283057D02*
X95214285Y-96473533D01*
X95214285Y-96473533D02*
X95261904Y-96568771D01*
X95261904Y-96568771D02*
X95309523Y-96616390D01*
X95309523Y-96616390D02*
X95404761Y-96664009D01*
D12*
X225154819Y-91333333D02*
X225869104Y-91333333D01*
X225869104Y-91333333D02*
X226011961Y-91380952D01*
X226011961Y-91380952D02*
X226107200Y-91476190D01*
X226107200Y-91476190D02*
X226154819Y-91619047D01*
X226154819Y-91619047D02*
X226154819Y-91714285D01*
X225154819Y-90428571D02*
X225154819Y-90619047D01*
X225154819Y-90619047D02*
X225202438Y-90714285D01*
X225202438Y-90714285D02*
X225250057Y-90761904D01*
X225250057Y-90761904D02*
X225392914Y-90857142D01*
X225392914Y-90857142D02*
X225583390Y-90904761D01*
X225583390Y-90904761D02*
X225964342Y-90904761D01*
X225964342Y-90904761D02*
X226059580Y-90857142D01*
X226059580Y-90857142D02*
X226107200Y-90809523D01*
X226107200Y-90809523D02*
X226154819Y-90714285D01*
X226154819Y-90714285D02*
X226154819Y-90523809D01*
X226154819Y-90523809D02*
X226107200Y-90428571D01*
X226107200Y-90428571D02*
X226059580Y-90380952D01*
X226059580Y-90380952D02*
X225964342Y-90333333D01*
X225964342Y-90333333D02*
X225726247Y-90333333D01*
X225726247Y-90333333D02*
X225631009Y-90380952D01*
X225631009Y-90380952D02*
X225583390Y-90428571D01*
X225583390Y-90428571D02*
X225535771Y-90523809D01*
X225535771Y-90523809D02*
X225535771Y-90714285D01*
X225535771Y-90714285D02*
X225583390Y-90809523D01*
X225583390Y-90809523D02*
X225631009Y-90857142D01*
X225631009Y-90857142D02*
X225726247Y-90904761D01*
X203083333Y-122204819D02*
X202750000Y-121728628D01*
X202511905Y-122204819D02*
X202511905Y-121204819D01*
X202511905Y-121204819D02*
X202892857Y-121204819D01*
X202892857Y-121204819D02*
X202988095Y-121252438D01*
X202988095Y-121252438D02*
X203035714Y-121300057D01*
X203035714Y-121300057D02*
X203083333Y-121395295D01*
X203083333Y-121395295D02*
X203083333Y-121538152D01*
X203083333Y-121538152D02*
X203035714Y-121633390D01*
X203035714Y-121633390D02*
X202988095Y-121681009D01*
X202988095Y-121681009D02*
X202892857Y-121728628D01*
X202892857Y-121728628D02*
X202511905Y-121728628D01*
X204035714Y-122204819D02*
X203464286Y-122204819D01*
X203750000Y-122204819D02*
X203750000Y-121204819D01*
X203750000Y-121204819D02*
X203654762Y-121347676D01*
X203654762Y-121347676D02*
X203559524Y-121442914D01*
X203559524Y-121442914D02*
X203464286Y-121490533D01*
X139833333Y-103159580D02*
X139785714Y-103207200D01*
X139785714Y-103207200D02*
X139642857Y-103254819D01*
X139642857Y-103254819D02*
X139547619Y-103254819D01*
X139547619Y-103254819D02*
X139404762Y-103207200D01*
X139404762Y-103207200D02*
X139309524Y-103111961D01*
X139309524Y-103111961D02*
X139261905Y-103016723D01*
X139261905Y-103016723D02*
X139214286Y-102826247D01*
X139214286Y-102826247D02*
X139214286Y-102683390D01*
X139214286Y-102683390D02*
X139261905Y-102492914D01*
X139261905Y-102492914D02*
X139309524Y-102397676D01*
X139309524Y-102397676D02*
X139404762Y-102302438D01*
X139404762Y-102302438D02*
X139547619Y-102254819D01*
X139547619Y-102254819D02*
X139642857Y-102254819D01*
X139642857Y-102254819D02*
X139785714Y-102302438D01*
X139785714Y-102302438D02*
X139833333Y-102350057D01*
X140166667Y-102254819D02*
X140833333Y-102254819D01*
X140833333Y-102254819D02*
X140404762Y-103254819D01*
X194733333Y-139004819D02*
X194400000Y-138528628D01*
X194161905Y-139004819D02*
X194161905Y-138004819D01*
X194161905Y-138004819D02*
X194542857Y-138004819D01*
X194542857Y-138004819D02*
X194638095Y-138052438D01*
X194638095Y-138052438D02*
X194685714Y-138100057D01*
X194685714Y-138100057D02*
X194733333Y-138195295D01*
X194733333Y-138195295D02*
X194733333Y-138338152D01*
X194733333Y-138338152D02*
X194685714Y-138433390D01*
X194685714Y-138433390D02*
X194638095Y-138481009D01*
X194638095Y-138481009D02*
X194542857Y-138528628D01*
X194542857Y-138528628D02*
X194161905Y-138528628D01*
X195590476Y-138338152D02*
X195590476Y-139004819D01*
X195352381Y-137957200D02*
X195114286Y-138671485D01*
X195114286Y-138671485D02*
X195733333Y-138671485D01*
X206520833Y-102454819D02*
X206187500Y-101978628D01*
X205949405Y-102454819D02*
X205949405Y-101454819D01*
X205949405Y-101454819D02*
X206330357Y-101454819D01*
X206330357Y-101454819D02*
X206425595Y-101502438D01*
X206425595Y-101502438D02*
X206473214Y-101550057D01*
X206473214Y-101550057D02*
X206520833Y-101645295D01*
X206520833Y-101645295D02*
X206520833Y-101788152D01*
X206520833Y-101788152D02*
X206473214Y-101883390D01*
X206473214Y-101883390D02*
X206425595Y-101931009D01*
X206425595Y-101931009D02*
X206330357Y-101978628D01*
X206330357Y-101978628D02*
X205949405Y-101978628D01*
X206854167Y-101454819D02*
X207520833Y-101454819D01*
X207520833Y-101454819D02*
X207092262Y-102454819D01*
X181959580Y-126692857D02*
X182007200Y-126740476D01*
X182007200Y-126740476D02*
X182054819Y-126883333D01*
X182054819Y-126883333D02*
X182054819Y-126978571D01*
X182054819Y-126978571D02*
X182007200Y-127121428D01*
X182007200Y-127121428D02*
X181911961Y-127216666D01*
X181911961Y-127216666D02*
X181816723Y-127264285D01*
X181816723Y-127264285D02*
X181626247Y-127311904D01*
X181626247Y-127311904D02*
X181483390Y-127311904D01*
X181483390Y-127311904D02*
X181292914Y-127264285D01*
X181292914Y-127264285D02*
X181197676Y-127216666D01*
X181197676Y-127216666D02*
X181102438Y-127121428D01*
X181102438Y-127121428D02*
X181054819Y-126978571D01*
X181054819Y-126978571D02*
X181054819Y-126883333D01*
X181054819Y-126883333D02*
X181102438Y-126740476D01*
X181102438Y-126740476D02*
X181150057Y-126692857D01*
X181150057Y-126311904D02*
X181102438Y-126264285D01*
X181102438Y-126264285D02*
X181054819Y-126169047D01*
X181054819Y-126169047D02*
X181054819Y-125930952D01*
X181054819Y-125930952D02*
X181102438Y-125835714D01*
X181102438Y-125835714D02*
X181150057Y-125788095D01*
X181150057Y-125788095D02*
X181245295Y-125740476D01*
X181245295Y-125740476D02*
X181340533Y-125740476D01*
X181340533Y-125740476D02*
X181483390Y-125788095D01*
X181483390Y-125788095D02*
X182054819Y-126359523D01*
X182054819Y-126359523D02*
X182054819Y-125740476D01*
X181054819Y-125407142D02*
X181054819Y-124788095D01*
X181054819Y-124788095D02*
X181435771Y-125121428D01*
X181435771Y-125121428D02*
X181435771Y-124978571D01*
X181435771Y-124978571D02*
X181483390Y-124883333D01*
X181483390Y-124883333D02*
X181531009Y-124835714D01*
X181531009Y-124835714D02*
X181626247Y-124788095D01*
X181626247Y-124788095D02*
X181864342Y-124788095D01*
X181864342Y-124788095D02*
X181959580Y-124835714D01*
X181959580Y-124835714D02*
X182007200Y-124883333D01*
X182007200Y-124883333D02*
X182054819Y-124978571D01*
X182054819Y-124978571D02*
X182054819Y-125264285D01*
X182054819Y-125264285D02*
X182007200Y-125359523D01*
X182007200Y-125359523D02*
X181959580Y-125407142D01*
X254354819Y-106019815D02*
X255069104Y-106019815D01*
X255069104Y-106019815D02*
X255211961Y-106067434D01*
X255211961Y-106067434D02*
X255307200Y-106162672D01*
X255307200Y-106162672D02*
X255354819Y-106305529D01*
X255354819Y-106305529D02*
X255354819Y-106400767D01*
X255354819Y-105019815D02*
X255354819Y-105591243D01*
X255354819Y-105305529D02*
X254354819Y-105305529D01*
X254354819Y-105305529D02*
X254497676Y-105400767D01*
X254497676Y-105400767D02*
X254592914Y-105496005D01*
X254592914Y-105496005D02*
X254640533Y-105591243D01*
X214966666Y-83514819D02*
X214966666Y-84229104D01*
X214966666Y-84229104D02*
X214919047Y-84371961D01*
X214919047Y-84371961D02*
X214823809Y-84467200D01*
X214823809Y-84467200D02*
X214680952Y-84514819D01*
X214680952Y-84514819D02*
X214585714Y-84514819D01*
X215919047Y-83514819D02*
X215442857Y-83514819D01*
X215442857Y-83514819D02*
X215395238Y-83991009D01*
X215395238Y-83991009D02*
X215442857Y-83943390D01*
X215442857Y-83943390D02*
X215538095Y-83895771D01*
X215538095Y-83895771D02*
X215776190Y-83895771D01*
X215776190Y-83895771D02*
X215871428Y-83943390D01*
X215871428Y-83943390D02*
X215919047Y-83991009D01*
X215919047Y-83991009D02*
X215966666Y-84086247D01*
X215966666Y-84086247D02*
X215966666Y-84324342D01*
X215966666Y-84324342D02*
X215919047Y-84419580D01*
X215919047Y-84419580D02*
X215871428Y-84467200D01*
X215871428Y-84467200D02*
X215776190Y-84514819D01*
X215776190Y-84514819D02*
X215538095Y-84514819D01*
X215538095Y-84514819D02*
X215442857Y-84467200D01*
X215442857Y-84467200D02*
X215395238Y-84419580D01*
X242354819Y-93908333D02*
X243069104Y-93908333D01*
X243069104Y-93908333D02*
X243211961Y-93955952D01*
X243211961Y-93955952D02*
X243307200Y-94051190D01*
X243307200Y-94051190D02*
X243354819Y-94194047D01*
X243354819Y-94194047D02*
X243354819Y-94289285D01*
X242354819Y-93527380D02*
X242354819Y-92908333D01*
X242354819Y-92908333D02*
X242735771Y-93241666D01*
X242735771Y-93241666D02*
X242735771Y-93098809D01*
X242735771Y-93098809D02*
X242783390Y-93003571D01*
X242783390Y-93003571D02*
X242831009Y-92955952D01*
X242831009Y-92955952D02*
X242926247Y-92908333D01*
X242926247Y-92908333D02*
X243164342Y-92908333D01*
X243164342Y-92908333D02*
X243259580Y-92955952D01*
X243259580Y-92955952D02*
X243307200Y-93003571D01*
X243307200Y-93003571D02*
X243354819Y-93098809D01*
X243354819Y-93098809D02*
X243354819Y-93384523D01*
X243354819Y-93384523D02*
X243307200Y-93479761D01*
X243307200Y-93479761D02*
X243259580Y-93527380D01*
X203959523Y-89779819D02*
X203626190Y-89303628D01*
X203388095Y-89779819D02*
X203388095Y-88779819D01*
X203388095Y-88779819D02*
X203769047Y-88779819D01*
X203769047Y-88779819D02*
X203864285Y-88827438D01*
X203864285Y-88827438D02*
X203911904Y-88875057D01*
X203911904Y-88875057D02*
X203959523Y-88970295D01*
X203959523Y-88970295D02*
X203959523Y-89113152D01*
X203959523Y-89113152D02*
X203911904Y-89208390D01*
X203911904Y-89208390D02*
X203864285Y-89256009D01*
X203864285Y-89256009D02*
X203769047Y-89303628D01*
X203769047Y-89303628D02*
X203388095Y-89303628D01*
X204388095Y-89779819D02*
X204388095Y-88779819D01*
X204388095Y-88779819D02*
X204959523Y-89779819D01*
X204959523Y-89779819D02*
X204959523Y-88779819D01*
X205864285Y-89113152D02*
X205864285Y-89779819D01*
X205626190Y-88732200D02*
X205388095Y-89446485D01*
X205388095Y-89446485D02*
X206007142Y-89446485D01*
X188357142Y-81679580D02*
X188309523Y-81727200D01*
X188309523Y-81727200D02*
X188166666Y-81774819D01*
X188166666Y-81774819D02*
X188071428Y-81774819D01*
X188071428Y-81774819D02*
X187928571Y-81727200D01*
X187928571Y-81727200D02*
X187833333Y-81631961D01*
X187833333Y-81631961D02*
X187785714Y-81536723D01*
X187785714Y-81536723D02*
X187738095Y-81346247D01*
X187738095Y-81346247D02*
X187738095Y-81203390D01*
X187738095Y-81203390D02*
X187785714Y-81012914D01*
X187785714Y-81012914D02*
X187833333Y-80917676D01*
X187833333Y-80917676D02*
X187928571Y-80822438D01*
X187928571Y-80822438D02*
X188071428Y-80774819D01*
X188071428Y-80774819D02*
X188166666Y-80774819D01*
X188166666Y-80774819D02*
X188309523Y-80822438D01*
X188309523Y-80822438D02*
X188357142Y-80870057D01*
X189309523Y-81774819D02*
X188738095Y-81774819D01*
X189023809Y-81774819D02*
X189023809Y-80774819D01*
X189023809Y-80774819D02*
X188928571Y-80917676D01*
X188928571Y-80917676D02*
X188833333Y-81012914D01*
X188833333Y-81012914D02*
X188738095Y-81060533D01*
X190214285Y-80774819D02*
X189738095Y-80774819D01*
X189738095Y-80774819D02*
X189690476Y-81251009D01*
X189690476Y-81251009D02*
X189738095Y-81203390D01*
X189738095Y-81203390D02*
X189833333Y-81155771D01*
X189833333Y-81155771D02*
X190071428Y-81155771D01*
X190071428Y-81155771D02*
X190166666Y-81203390D01*
X190166666Y-81203390D02*
X190214285Y-81251009D01*
X190214285Y-81251009D02*
X190261904Y-81346247D01*
X190261904Y-81346247D02*
X190261904Y-81584342D01*
X190261904Y-81584342D02*
X190214285Y-81679580D01*
X190214285Y-81679580D02*
X190166666Y-81727200D01*
X190166666Y-81727200D02*
X190071428Y-81774819D01*
X190071428Y-81774819D02*
X189833333Y-81774819D01*
X189833333Y-81774819D02*
X189738095Y-81727200D01*
X189738095Y-81727200D02*
X189690476Y-81679580D01*
D10*
X70524771Y-102414084D02*
X71415778Y-102868075D01*
X71415778Y-102868075D02*
X71307685Y-103080219D01*
X71307685Y-103080219D02*
X71200400Y-103185887D01*
X71200400Y-103185887D02*
X71072305Y-103227508D01*
X71072305Y-103227508D02*
X70965829Y-103226699D01*
X70965829Y-103226699D02*
X70774495Y-103182654D01*
X70774495Y-103182654D02*
X70647208Y-103117798D01*
X70647208Y-103117798D02*
X70499111Y-102988895D01*
X70499111Y-102988895D02*
X70435872Y-102903229D01*
X70435872Y-102903229D02*
X70394251Y-102775134D01*
X70394251Y-102775134D02*
X70416678Y-102626228D01*
X70416678Y-102626228D02*
X70524771Y-102414084D01*
X69832976Y-103771808D02*
X70092399Y-103262662D01*
X69962688Y-103517235D02*
X70853694Y-103971225D01*
X70853694Y-103971225D02*
X70769645Y-103821512D01*
X70769645Y-103821512D02*
X70728024Y-103693417D01*
X70728024Y-103693417D02*
X70728833Y-103586941D01*
X70442941Y-104777374D02*
X70399704Y-104862232D01*
X70399704Y-104862232D02*
X70314038Y-104925471D01*
X70314038Y-104925471D02*
X70249990Y-104946282D01*
X70249990Y-104946282D02*
X70143514Y-104945473D01*
X70143514Y-104945473D02*
X69952180Y-104901428D01*
X69952180Y-104901428D02*
X69740035Y-104793335D01*
X69740035Y-104793335D02*
X69591938Y-104664431D01*
X69591938Y-104664431D02*
X69528699Y-104578765D01*
X69528699Y-104578765D02*
X69507889Y-104514718D01*
X69507889Y-104514718D02*
X69508697Y-104408242D01*
X69508697Y-104408242D02*
X69551935Y-104323384D01*
X69551935Y-104323384D02*
X69637601Y-104260145D01*
X69637601Y-104260145D02*
X69701648Y-104239334D01*
X69701648Y-104239334D02*
X69808124Y-104240143D01*
X69808124Y-104240143D02*
X69999459Y-104284188D01*
X69999459Y-104284188D02*
X70211603Y-104392281D01*
X70211603Y-104392281D02*
X70359700Y-104521184D01*
X70359700Y-104521184D02*
X70422939Y-104606850D01*
X70422939Y-104606850D02*
X70443749Y-104670898D01*
X70443749Y-104670898D02*
X70442941Y-104777374D01*
D12*
X180657142Y-119859580D02*
X180609523Y-119907200D01*
X180609523Y-119907200D02*
X180466666Y-119954819D01*
X180466666Y-119954819D02*
X180371428Y-119954819D01*
X180371428Y-119954819D02*
X180228571Y-119907200D01*
X180228571Y-119907200D02*
X180133333Y-119811961D01*
X180133333Y-119811961D02*
X180085714Y-119716723D01*
X180085714Y-119716723D02*
X180038095Y-119526247D01*
X180038095Y-119526247D02*
X180038095Y-119383390D01*
X180038095Y-119383390D02*
X180085714Y-119192914D01*
X180085714Y-119192914D02*
X180133333Y-119097676D01*
X180133333Y-119097676D02*
X180228571Y-119002438D01*
X180228571Y-119002438D02*
X180371428Y-118954819D01*
X180371428Y-118954819D02*
X180466666Y-118954819D01*
X180466666Y-118954819D02*
X180609523Y-119002438D01*
X180609523Y-119002438D02*
X180657142Y-119050057D01*
X181609523Y-119954819D02*
X181038095Y-119954819D01*
X181323809Y-119954819D02*
X181323809Y-118954819D01*
X181323809Y-118954819D02*
X181228571Y-119097676D01*
X181228571Y-119097676D02*
X181133333Y-119192914D01*
X181133333Y-119192914D02*
X181038095Y-119240533D01*
X182466666Y-119288152D02*
X182466666Y-119954819D01*
X182228571Y-118907200D02*
X181990476Y-119621485D01*
X181990476Y-119621485D02*
X182609523Y-119621485D01*
D10*
X114395238Y-115157419D02*
X114395238Y-114157419D01*
X114395238Y-114157419D02*
X114633333Y-114157419D01*
X114633333Y-114157419D02*
X114776190Y-114205038D01*
X114776190Y-114205038D02*
X114871428Y-114300276D01*
X114871428Y-114300276D02*
X114919047Y-114395514D01*
X114919047Y-114395514D02*
X114966666Y-114585990D01*
X114966666Y-114585990D02*
X114966666Y-114728847D01*
X114966666Y-114728847D02*
X114919047Y-114919323D01*
X114919047Y-114919323D02*
X114871428Y-115014561D01*
X114871428Y-115014561D02*
X114776190Y-115109800D01*
X114776190Y-115109800D02*
X114633333Y-115157419D01*
X114633333Y-115157419D02*
X114395238Y-115157419D01*
X115823809Y-114490752D02*
X115823809Y-115157419D01*
X115585714Y-114109800D02*
X115347619Y-114824085D01*
X115347619Y-114824085D02*
X115966666Y-114824085D01*
D12*
X188557142Y-72209580D02*
X188509523Y-72257200D01*
X188509523Y-72257200D02*
X188366666Y-72304819D01*
X188366666Y-72304819D02*
X188271428Y-72304819D01*
X188271428Y-72304819D02*
X188128571Y-72257200D01*
X188128571Y-72257200D02*
X188033333Y-72161961D01*
X188033333Y-72161961D02*
X187985714Y-72066723D01*
X187985714Y-72066723D02*
X187938095Y-71876247D01*
X187938095Y-71876247D02*
X187938095Y-71733390D01*
X187938095Y-71733390D02*
X187985714Y-71542914D01*
X187985714Y-71542914D02*
X188033333Y-71447676D01*
X188033333Y-71447676D02*
X188128571Y-71352438D01*
X188128571Y-71352438D02*
X188271428Y-71304819D01*
X188271428Y-71304819D02*
X188366666Y-71304819D01*
X188366666Y-71304819D02*
X188509523Y-71352438D01*
X188509523Y-71352438D02*
X188557142Y-71400057D01*
X189509523Y-72304819D02*
X188938095Y-72304819D01*
X189223809Y-72304819D02*
X189223809Y-71304819D01*
X189223809Y-71304819D02*
X189128571Y-71447676D01*
X189128571Y-71447676D02*
X189033333Y-71542914D01*
X189033333Y-71542914D02*
X188938095Y-71590533D01*
X189842857Y-71304819D02*
X190461904Y-71304819D01*
X190461904Y-71304819D02*
X190128571Y-71685771D01*
X190128571Y-71685771D02*
X190271428Y-71685771D01*
X190271428Y-71685771D02*
X190366666Y-71733390D01*
X190366666Y-71733390D02*
X190414285Y-71781009D01*
X190414285Y-71781009D02*
X190461904Y-71876247D01*
X190461904Y-71876247D02*
X190461904Y-72114342D01*
X190461904Y-72114342D02*
X190414285Y-72209580D01*
X190414285Y-72209580D02*
X190366666Y-72257200D01*
X190366666Y-72257200D02*
X190271428Y-72304819D01*
X190271428Y-72304819D02*
X189985714Y-72304819D01*
X189985714Y-72304819D02*
X189890476Y-72257200D01*
X189890476Y-72257200D02*
X189842857Y-72209580D01*
X223254819Y-124033333D02*
X223969104Y-124033333D01*
X223969104Y-124033333D02*
X224111961Y-124080952D01*
X224111961Y-124080952D02*
X224207200Y-124176190D01*
X224207200Y-124176190D02*
X224254819Y-124319047D01*
X224254819Y-124319047D02*
X224254819Y-124414285D01*
X223683390Y-123414285D02*
X223635771Y-123509523D01*
X223635771Y-123509523D02*
X223588152Y-123557142D01*
X223588152Y-123557142D02*
X223492914Y-123604761D01*
X223492914Y-123604761D02*
X223445295Y-123604761D01*
X223445295Y-123604761D02*
X223350057Y-123557142D01*
X223350057Y-123557142D02*
X223302438Y-123509523D01*
X223302438Y-123509523D02*
X223254819Y-123414285D01*
X223254819Y-123414285D02*
X223254819Y-123223809D01*
X223254819Y-123223809D02*
X223302438Y-123128571D01*
X223302438Y-123128571D02*
X223350057Y-123080952D01*
X223350057Y-123080952D02*
X223445295Y-123033333D01*
X223445295Y-123033333D02*
X223492914Y-123033333D01*
X223492914Y-123033333D02*
X223588152Y-123080952D01*
X223588152Y-123080952D02*
X223635771Y-123128571D01*
X223635771Y-123128571D02*
X223683390Y-123223809D01*
X223683390Y-123223809D02*
X223683390Y-123414285D01*
X223683390Y-123414285D02*
X223731009Y-123509523D01*
X223731009Y-123509523D02*
X223778628Y-123557142D01*
X223778628Y-123557142D02*
X223873866Y-123604761D01*
X223873866Y-123604761D02*
X224064342Y-123604761D01*
X224064342Y-123604761D02*
X224159580Y-123557142D01*
X224159580Y-123557142D02*
X224207200Y-123509523D01*
X224207200Y-123509523D02*
X224254819Y-123414285D01*
X224254819Y-123414285D02*
X224254819Y-123223809D01*
X224254819Y-123223809D02*
X224207200Y-123128571D01*
X224207200Y-123128571D02*
X224159580Y-123080952D01*
X224159580Y-123080952D02*
X224064342Y-123033333D01*
X224064342Y-123033333D02*
X223873866Y-123033333D01*
X223873866Y-123033333D02*
X223778628Y-123080952D01*
X223778628Y-123080952D02*
X223731009Y-123128571D01*
X223731009Y-123128571D02*
X223683390Y-123223809D01*
X194288095Y-100079819D02*
X194288095Y-100889342D01*
X194288095Y-100889342D02*
X194335714Y-100984580D01*
X194335714Y-100984580D02*
X194383333Y-101032200D01*
X194383333Y-101032200D02*
X194478571Y-101079819D01*
X194478571Y-101079819D02*
X194669047Y-101079819D01*
X194669047Y-101079819D02*
X194764285Y-101032200D01*
X194764285Y-101032200D02*
X194811904Y-100984580D01*
X194811904Y-100984580D02*
X194859523Y-100889342D01*
X194859523Y-100889342D02*
X194859523Y-100079819D01*
X195764285Y-100413152D02*
X195764285Y-101079819D01*
X195526190Y-100032200D02*
X195288095Y-100746485D01*
X195288095Y-100746485D02*
X195907142Y-100746485D01*
D10*
X78401788Y-113195933D02*
X78871260Y-112312985D01*
X78871260Y-112312985D02*
X79081485Y-112424764D01*
X79081485Y-112424764D02*
X79185265Y-112533877D01*
X79185265Y-112533877D02*
X79224644Y-112662679D01*
X79224644Y-112662679D02*
X79221977Y-112769125D01*
X79221977Y-112769125D02*
X79174599Y-112959661D01*
X79174599Y-112959661D02*
X79107532Y-113085796D01*
X79107532Y-113085796D02*
X78976064Y-113231621D01*
X78976064Y-113231621D02*
X78889307Y-113293356D01*
X78889307Y-113293356D02*
X78760505Y-113332734D01*
X78760505Y-113332734D02*
X78612014Y-113307712D01*
X78612014Y-113307712D02*
X78401788Y-113195933D01*
X80174659Y-113006015D02*
X79754207Y-112782457D01*
X79754207Y-112782457D02*
X79488604Y-113180552D01*
X79488604Y-113180552D02*
X79553005Y-113160863D01*
X79553005Y-113160863D02*
X79659451Y-113163530D01*
X79659451Y-113163530D02*
X79869677Y-113275309D01*
X79869677Y-113275309D02*
X79931411Y-113362065D01*
X79931411Y-113362065D02*
X79951101Y-113426466D01*
X79951101Y-113426466D02*
X79948434Y-113532912D01*
X79948434Y-113532912D02*
X79836655Y-113743138D01*
X79836655Y-113743138D02*
X79749899Y-113804872D01*
X79749899Y-113804872D02*
X79685498Y-113824562D01*
X79685498Y-113824562D02*
X79579052Y-113821895D01*
X79579052Y-113821895D02*
X79368826Y-113710116D01*
X79368826Y-113710116D02*
X79307092Y-113623359D01*
X79307092Y-113623359D02*
X79287402Y-113558959D01*
D12*
X76396666Y-100286301D02*
X76396666Y-101000586D01*
X76396666Y-101000586D02*
X76349047Y-101143443D01*
X76349047Y-101143443D02*
X76253809Y-101238682D01*
X76253809Y-101238682D02*
X76110952Y-101286301D01*
X76110952Y-101286301D02*
X76015714Y-101286301D01*
X76825238Y-100381539D02*
X76872857Y-100333920D01*
X76872857Y-100333920D02*
X76968095Y-100286301D01*
X76968095Y-100286301D02*
X77206190Y-100286301D01*
X77206190Y-100286301D02*
X77301428Y-100333920D01*
X77301428Y-100333920D02*
X77349047Y-100381539D01*
X77349047Y-100381539D02*
X77396666Y-100476777D01*
X77396666Y-100476777D02*
X77396666Y-100572015D01*
X77396666Y-100572015D02*
X77349047Y-100714872D01*
X77349047Y-100714872D02*
X76777619Y-101286301D01*
X76777619Y-101286301D02*
X77396666Y-101286301D01*
X116716666Y-100286301D02*
X116716666Y-101000586D01*
X116716666Y-101000586D02*
X116669047Y-101143443D01*
X116669047Y-101143443D02*
X116573809Y-101238682D01*
X116573809Y-101238682D02*
X116430952Y-101286301D01*
X116430952Y-101286301D02*
X116335714Y-101286301D01*
X117621428Y-100619634D02*
X117621428Y-101286301D01*
X117383333Y-100238682D02*
X117145238Y-100952967D01*
X117145238Y-100952967D02*
X117764285Y-100952967D01*
X197444642Y-99229580D02*
X197397023Y-99277200D01*
X197397023Y-99277200D02*
X197254166Y-99324819D01*
X197254166Y-99324819D02*
X197158928Y-99324819D01*
X197158928Y-99324819D02*
X197016071Y-99277200D01*
X197016071Y-99277200D02*
X196920833Y-99181961D01*
X196920833Y-99181961D02*
X196873214Y-99086723D01*
X196873214Y-99086723D02*
X196825595Y-98896247D01*
X196825595Y-98896247D02*
X196825595Y-98753390D01*
X196825595Y-98753390D02*
X196873214Y-98562914D01*
X196873214Y-98562914D02*
X196920833Y-98467676D01*
X196920833Y-98467676D02*
X197016071Y-98372438D01*
X197016071Y-98372438D02*
X197158928Y-98324819D01*
X197158928Y-98324819D02*
X197254166Y-98324819D01*
X197254166Y-98324819D02*
X197397023Y-98372438D01*
X197397023Y-98372438D02*
X197444642Y-98420057D01*
X198397023Y-99324819D02*
X197825595Y-99324819D01*
X198111309Y-99324819D02*
X198111309Y-98324819D01*
X198111309Y-98324819D02*
X198016071Y-98467676D01*
X198016071Y-98467676D02*
X197920833Y-98562914D01*
X197920833Y-98562914D02*
X197825595Y-98610533D01*
X198730357Y-98324819D02*
X199397023Y-98324819D01*
X199397023Y-98324819D02*
X198968452Y-99324819D01*
X224916666Y-101954819D02*
X224916666Y-102669104D01*
X224916666Y-102669104D02*
X224869047Y-102811961D01*
X224869047Y-102811961D02*
X224773809Y-102907200D01*
X224773809Y-102907200D02*
X224630952Y-102954819D01*
X224630952Y-102954819D02*
X224535714Y-102954819D01*
X225392857Y-102954819D02*
X225392857Y-101954819D01*
X225392857Y-101954819D02*
X225773809Y-101954819D01*
X225773809Y-101954819D02*
X225869047Y-102002438D01*
X225869047Y-102002438D02*
X225916666Y-102050057D01*
X225916666Y-102050057D02*
X225964285Y-102145295D01*
X225964285Y-102145295D02*
X225964285Y-102288152D01*
X225964285Y-102288152D02*
X225916666Y-102383390D01*
X225916666Y-102383390D02*
X225869047Y-102431009D01*
X225869047Y-102431009D02*
X225773809Y-102478628D01*
X225773809Y-102478628D02*
X225392857Y-102478628D01*
X226916666Y-102954819D02*
X226345238Y-102954819D01*
X226630952Y-102954819D02*
X226630952Y-101954819D01*
X226630952Y-101954819D02*
X226535714Y-102097676D01*
X226535714Y-102097676D02*
X226440476Y-102192914D01*
X226440476Y-102192914D02*
X226345238Y-102240533D01*
X224916666Y-95754819D02*
X224916666Y-96469104D01*
X224916666Y-96469104D02*
X224869047Y-96611961D01*
X224869047Y-96611961D02*
X224773809Y-96707200D01*
X224773809Y-96707200D02*
X224630952Y-96754819D01*
X224630952Y-96754819D02*
X224535714Y-96754819D01*
X225392857Y-96754819D02*
X225392857Y-95754819D01*
X225392857Y-95754819D02*
X225773809Y-95754819D01*
X225773809Y-95754819D02*
X225869047Y-95802438D01*
X225869047Y-95802438D02*
X225916666Y-95850057D01*
X225916666Y-95850057D02*
X225964285Y-95945295D01*
X225964285Y-95945295D02*
X225964285Y-96088152D01*
X225964285Y-96088152D02*
X225916666Y-96183390D01*
X225916666Y-96183390D02*
X225869047Y-96231009D01*
X225869047Y-96231009D02*
X225773809Y-96278628D01*
X225773809Y-96278628D02*
X225392857Y-96278628D01*
X226821428Y-96088152D02*
X226821428Y-96754819D01*
X226583333Y-95707200D02*
X226345238Y-96421485D01*
X226345238Y-96421485D02*
X226964285Y-96421485D01*
X232083333Y-105779580D02*
X232035714Y-105827200D01*
X232035714Y-105827200D02*
X231892857Y-105874819D01*
X231892857Y-105874819D02*
X231797619Y-105874819D01*
X231797619Y-105874819D02*
X231654762Y-105827200D01*
X231654762Y-105827200D02*
X231559524Y-105731961D01*
X231559524Y-105731961D02*
X231511905Y-105636723D01*
X231511905Y-105636723D02*
X231464286Y-105446247D01*
X231464286Y-105446247D02*
X231464286Y-105303390D01*
X231464286Y-105303390D02*
X231511905Y-105112914D01*
X231511905Y-105112914D02*
X231559524Y-105017676D01*
X231559524Y-105017676D02*
X231654762Y-104922438D01*
X231654762Y-104922438D02*
X231797619Y-104874819D01*
X231797619Y-104874819D02*
X231892857Y-104874819D01*
X231892857Y-104874819D02*
X232035714Y-104922438D01*
X232035714Y-104922438D02*
X232083333Y-104970057D01*
X232416667Y-104874819D02*
X233035714Y-104874819D01*
X233035714Y-104874819D02*
X232702381Y-105255771D01*
X232702381Y-105255771D02*
X232845238Y-105255771D01*
X232845238Y-105255771D02*
X232940476Y-105303390D01*
X232940476Y-105303390D02*
X232988095Y-105351009D01*
X232988095Y-105351009D02*
X233035714Y-105446247D01*
X233035714Y-105446247D02*
X233035714Y-105684342D01*
X233035714Y-105684342D02*
X232988095Y-105779580D01*
X232988095Y-105779580D02*
X232940476Y-105827200D01*
X232940476Y-105827200D02*
X232845238Y-105874819D01*
X232845238Y-105874819D02*
X232559524Y-105874819D01*
X232559524Y-105874819D02*
X232464286Y-105827200D01*
X232464286Y-105827200D02*
X232416667Y-105779580D01*
D10*
X154741905Y-115157419D02*
X154741905Y-114157419D01*
X154741905Y-114157419D02*
X154980000Y-114157419D01*
X154980000Y-114157419D02*
X155122857Y-114205038D01*
X155122857Y-114205038D02*
X155218095Y-114300276D01*
X155218095Y-114300276D02*
X155265714Y-114395514D01*
X155265714Y-114395514D02*
X155313333Y-114585990D01*
X155313333Y-114585990D02*
X155313333Y-114728847D01*
X155313333Y-114728847D02*
X155265714Y-114919323D01*
X155265714Y-114919323D02*
X155218095Y-115014561D01*
X155218095Y-115014561D02*
X155122857Y-115109800D01*
X155122857Y-115109800D02*
X154980000Y-115157419D01*
X154980000Y-115157419D02*
X154741905Y-115157419D01*
X155694286Y-114252657D02*
X155741905Y-114205038D01*
X155741905Y-114205038D02*
X155837143Y-114157419D01*
X155837143Y-114157419D02*
X156075238Y-114157419D01*
X156075238Y-114157419D02*
X156170476Y-114205038D01*
X156170476Y-114205038D02*
X156218095Y-114252657D01*
X156218095Y-114252657D02*
X156265714Y-114347895D01*
X156265714Y-114347895D02*
X156265714Y-114443133D01*
X156265714Y-114443133D02*
X156218095Y-114585990D01*
X156218095Y-114585990D02*
X155646667Y-115157419D01*
X155646667Y-115157419D02*
X156265714Y-115157419D01*
X215172214Y-72848393D02*
X215879320Y-72141286D01*
X215879320Y-72141286D02*
X216047679Y-72309645D01*
X216047679Y-72309645D02*
X216115023Y-72444332D01*
X216115023Y-72444332D02*
X216115023Y-72579019D01*
X216115023Y-72579019D02*
X216081351Y-72680034D01*
X216081351Y-72680034D02*
X215980336Y-72848393D01*
X215980336Y-72848393D02*
X215879320Y-72949408D01*
X215879320Y-72949408D02*
X215710962Y-73050423D01*
X215710962Y-73050423D02*
X215609946Y-73084095D01*
X215609946Y-73084095D02*
X215475259Y-73084095D01*
X215475259Y-73084095D02*
X215340572Y-73016752D01*
X215340572Y-73016752D02*
X215172214Y-72848393D01*
X216249710Y-73925889D02*
X215845649Y-73521828D01*
X216047679Y-73723858D02*
X216754786Y-73016752D01*
X216754786Y-73016752D02*
X216586427Y-73050423D01*
X216586427Y-73050423D02*
X216451740Y-73050423D01*
X216451740Y-73050423D02*
X216350725Y-73016752D01*
X217327206Y-74060576D02*
X216855801Y-74531981D01*
X217428221Y-73622843D02*
X216754786Y-73959561D01*
X216754786Y-73959561D02*
X217192519Y-74397294D01*
X94741905Y-115257419D02*
X94741905Y-114257419D01*
X94741905Y-114257419D02*
X94980000Y-114257419D01*
X94980000Y-114257419D02*
X95122857Y-114305038D01*
X95122857Y-114305038D02*
X95218095Y-114400276D01*
X95218095Y-114400276D02*
X95265714Y-114495514D01*
X95265714Y-114495514D02*
X95313333Y-114685990D01*
X95313333Y-114685990D02*
X95313333Y-114828847D01*
X95313333Y-114828847D02*
X95265714Y-115019323D01*
X95265714Y-115019323D02*
X95218095Y-115114561D01*
X95218095Y-115114561D02*
X95122857Y-115209800D01*
X95122857Y-115209800D02*
X94980000Y-115257419D01*
X94980000Y-115257419D02*
X94741905Y-115257419D01*
X95646667Y-114257419D02*
X96313333Y-114257419D01*
X96313333Y-114257419D02*
X95884762Y-115257419D01*
D12*
X206520833Y-99204819D02*
X206187500Y-98728628D01*
X205949405Y-99204819D02*
X205949405Y-98204819D01*
X205949405Y-98204819D02*
X206330357Y-98204819D01*
X206330357Y-98204819D02*
X206425595Y-98252438D01*
X206425595Y-98252438D02*
X206473214Y-98300057D01*
X206473214Y-98300057D02*
X206520833Y-98395295D01*
X206520833Y-98395295D02*
X206520833Y-98538152D01*
X206520833Y-98538152D02*
X206473214Y-98633390D01*
X206473214Y-98633390D02*
X206425595Y-98681009D01*
X206425595Y-98681009D02*
X206330357Y-98728628D01*
X206330357Y-98728628D02*
X205949405Y-98728628D01*
X207377976Y-98204819D02*
X207187500Y-98204819D01*
X207187500Y-98204819D02*
X207092262Y-98252438D01*
X207092262Y-98252438D02*
X207044643Y-98300057D01*
X207044643Y-98300057D02*
X206949405Y-98442914D01*
X206949405Y-98442914D02*
X206901786Y-98633390D01*
X206901786Y-98633390D02*
X206901786Y-99014342D01*
X206901786Y-99014342D02*
X206949405Y-99109580D01*
X206949405Y-99109580D02*
X206997024Y-99157200D01*
X206997024Y-99157200D02*
X207092262Y-99204819D01*
X207092262Y-99204819D02*
X207282738Y-99204819D01*
X207282738Y-99204819D02*
X207377976Y-99157200D01*
X207377976Y-99157200D02*
X207425595Y-99109580D01*
X207425595Y-99109580D02*
X207473214Y-99014342D01*
X207473214Y-99014342D02*
X207473214Y-98776247D01*
X207473214Y-98776247D02*
X207425595Y-98681009D01*
X207425595Y-98681009D02*
X207377976Y-98633390D01*
X207377976Y-98633390D02*
X207282738Y-98585771D01*
X207282738Y-98585771D02*
X207092262Y-98585771D01*
X207092262Y-98585771D02*
X206997024Y-98633390D01*
X206997024Y-98633390D02*
X206949405Y-98681009D01*
X206949405Y-98681009D02*
X206901786Y-98776247D01*
X188983333Y-75379580D02*
X188935714Y-75427200D01*
X188935714Y-75427200D02*
X188792857Y-75474819D01*
X188792857Y-75474819D02*
X188697619Y-75474819D01*
X188697619Y-75474819D02*
X188554762Y-75427200D01*
X188554762Y-75427200D02*
X188459524Y-75331961D01*
X188459524Y-75331961D02*
X188411905Y-75236723D01*
X188411905Y-75236723D02*
X188364286Y-75046247D01*
X188364286Y-75046247D02*
X188364286Y-74903390D01*
X188364286Y-74903390D02*
X188411905Y-74712914D01*
X188411905Y-74712914D02*
X188459524Y-74617676D01*
X188459524Y-74617676D02*
X188554762Y-74522438D01*
X188554762Y-74522438D02*
X188697619Y-74474819D01*
X188697619Y-74474819D02*
X188792857Y-74474819D01*
X188792857Y-74474819D02*
X188935714Y-74522438D01*
X188935714Y-74522438D02*
X188983333Y-74570057D01*
X189935714Y-75474819D02*
X189364286Y-75474819D01*
X189650000Y-75474819D02*
X189650000Y-74474819D01*
X189650000Y-74474819D02*
X189554762Y-74617676D01*
X189554762Y-74617676D02*
X189459524Y-74712914D01*
X189459524Y-74712914D02*
X189364286Y-74760533D01*
X193054819Y-116316666D02*
X192578628Y-116649999D01*
X193054819Y-116888094D02*
X192054819Y-116888094D01*
X192054819Y-116888094D02*
X192054819Y-116507142D01*
X192054819Y-116507142D02*
X192102438Y-116411904D01*
X192102438Y-116411904D02*
X192150057Y-116364285D01*
X192150057Y-116364285D02*
X192245295Y-116316666D01*
X192245295Y-116316666D02*
X192388152Y-116316666D01*
X192388152Y-116316666D02*
X192483390Y-116364285D01*
X192483390Y-116364285D02*
X192531009Y-116411904D01*
X192531009Y-116411904D02*
X192578628Y-116507142D01*
X192578628Y-116507142D02*
X192578628Y-116888094D01*
X192150057Y-115935713D02*
X192102438Y-115888094D01*
X192102438Y-115888094D02*
X192054819Y-115792856D01*
X192054819Y-115792856D02*
X192054819Y-115554761D01*
X192054819Y-115554761D02*
X192102438Y-115459523D01*
X192102438Y-115459523D02*
X192150057Y-115411904D01*
X192150057Y-115411904D02*
X192245295Y-115364285D01*
X192245295Y-115364285D02*
X192340533Y-115364285D01*
X192340533Y-115364285D02*
X192483390Y-115411904D01*
X192483390Y-115411904D02*
X193054819Y-115983332D01*
X193054819Y-115983332D02*
X193054819Y-115364285D01*
X189684580Y-128492857D02*
X189732200Y-128540476D01*
X189732200Y-128540476D02*
X189779819Y-128683333D01*
X189779819Y-128683333D02*
X189779819Y-128778571D01*
X189779819Y-128778571D02*
X189732200Y-128921428D01*
X189732200Y-128921428D02*
X189636961Y-129016666D01*
X189636961Y-129016666D02*
X189541723Y-129064285D01*
X189541723Y-129064285D02*
X189351247Y-129111904D01*
X189351247Y-129111904D02*
X189208390Y-129111904D01*
X189208390Y-129111904D02*
X189017914Y-129064285D01*
X189017914Y-129064285D02*
X188922676Y-129016666D01*
X188922676Y-129016666D02*
X188827438Y-128921428D01*
X188827438Y-128921428D02*
X188779819Y-128778571D01*
X188779819Y-128778571D02*
X188779819Y-128683333D01*
X188779819Y-128683333D02*
X188827438Y-128540476D01*
X188827438Y-128540476D02*
X188875057Y-128492857D01*
X188875057Y-128111904D02*
X188827438Y-128064285D01*
X188827438Y-128064285D02*
X188779819Y-127969047D01*
X188779819Y-127969047D02*
X188779819Y-127730952D01*
X188779819Y-127730952D02*
X188827438Y-127635714D01*
X188827438Y-127635714D02*
X188875057Y-127588095D01*
X188875057Y-127588095D02*
X188970295Y-127540476D01*
X188970295Y-127540476D02*
X189065533Y-127540476D01*
X189065533Y-127540476D02*
X189208390Y-127588095D01*
X189208390Y-127588095D02*
X189779819Y-128159523D01*
X189779819Y-128159523D02*
X189779819Y-127540476D01*
X188779819Y-126921428D02*
X188779819Y-126826190D01*
X188779819Y-126826190D02*
X188827438Y-126730952D01*
X188827438Y-126730952D02*
X188875057Y-126683333D01*
X188875057Y-126683333D02*
X188970295Y-126635714D01*
X188970295Y-126635714D02*
X189160771Y-126588095D01*
X189160771Y-126588095D02*
X189398866Y-126588095D01*
X189398866Y-126588095D02*
X189589342Y-126635714D01*
X189589342Y-126635714D02*
X189684580Y-126683333D01*
X189684580Y-126683333D02*
X189732200Y-126730952D01*
X189732200Y-126730952D02*
X189779819Y-126826190D01*
X189779819Y-126826190D02*
X189779819Y-126921428D01*
X189779819Y-126921428D02*
X189732200Y-127016666D01*
X189732200Y-127016666D02*
X189684580Y-127064285D01*
X189684580Y-127064285D02*
X189589342Y-127111904D01*
X189589342Y-127111904D02*
X189398866Y-127159523D01*
X189398866Y-127159523D02*
X189160771Y-127159523D01*
X189160771Y-127159523D02*
X188970295Y-127111904D01*
X188970295Y-127111904D02*
X188875057Y-127064285D01*
X188875057Y-127064285D02*
X188827438Y-127016666D01*
X188827438Y-127016666D02*
X188779819Y-126921428D01*
X145366667Y-102807200D02*
X145509524Y-102854819D01*
X145509524Y-102854819D02*
X145747619Y-102854819D01*
X145747619Y-102854819D02*
X145842857Y-102807200D01*
X145842857Y-102807200D02*
X145890476Y-102759580D01*
X145890476Y-102759580D02*
X145938095Y-102664342D01*
X145938095Y-102664342D02*
X145938095Y-102569104D01*
X145938095Y-102569104D02*
X145890476Y-102473866D01*
X145890476Y-102473866D02*
X145842857Y-102426247D01*
X145842857Y-102426247D02*
X145747619Y-102378628D01*
X145747619Y-102378628D02*
X145557143Y-102331009D01*
X145557143Y-102331009D02*
X145461905Y-102283390D01*
X145461905Y-102283390D02*
X145414286Y-102235771D01*
X145414286Y-102235771D02*
X145366667Y-102140533D01*
X145366667Y-102140533D02*
X145366667Y-102045295D01*
X145366667Y-102045295D02*
X145414286Y-101950057D01*
X145414286Y-101950057D02*
X145461905Y-101902438D01*
X145461905Y-101902438D02*
X145557143Y-101854819D01*
X145557143Y-101854819D02*
X145795238Y-101854819D01*
X145795238Y-101854819D02*
X145938095Y-101902438D01*
X146271429Y-101854819D02*
X146509524Y-102854819D01*
X146509524Y-102854819D02*
X146700000Y-102140533D01*
X146700000Y-102140533D02*
X146890476Y-102854819D01*
X146890476Y-102854819D02*
X147128572Y-101854819D01*
X147414286Y-101854819D02*
X148033333Y-101854819D01*
X148033333Y-101854819D02*
X147700000Y-102235771D01*
X147700000Y-102235771D02*
X147842857Y-102235771D01*
X147842857Y-102235771D02*
X147938095Y-102283390D01*
X147938095Y-102283390D02*
X147985714Y-102331009D01*
X147985714Y-102331009D02*
X148033333Y-102426247D01*
X148033333Y-102426247D02*
X148033333Y-102664342D01*
X148033333Y-102664342D02*
X147985714Y-102759580D01*
X147985714Y-102759580D02*
X147938095Y-102807200D01*
X147938095Y-102807200D02*
X147842857Y-102854819D01*
X147842857Y-102854819D02*
X147557143Y-102854819D01*
X147557143Y-102854819D02*
X147461905Y-102807200D01*
X147461905Y-102807200D02*
X147414286Y-102759580D01*
X187638095Y-121454819D02*
X187638095Y-122264342D01*
X187638095Y-122264342D02*
X187685714Y-122359580D01*
X187685714Y-122359580D02*
X187733333Y-122407200D01*
X187733333Y-122407200D02*
X187828571Y-122454819D01*
X187828571Y-122454819D02*
X188019047Y-122454819D01*
X188019047Y-122454819D02*
X188114285Y-122407200D01*
X188114285Y-122407200D02*
X188161904Y-122359580D01*
X188161904Y-122359580D02*
X188209523Y-122264342D01*
X188209523Y-122264342D02*
X188209523Y-121454819D01*
X189114285Y-121454819D02*
X188923809Y-121454819D01*
X188923809Y-121454819D02*
X188828571Y-121502438D01*
X188828571Y-121502438D02*
X188780952Y-121550057D01*
X188780952Y-121550057D02*
X188685714Y-121692914D01*
X188685714Y-121692914D02*
X188638095Y-121883390D01*
X188638095Y-121883390D02*
X188638095Y-122264342D01*
X188638095Y-122264342D02*
X188685714Y-122359580D01*
X188685714Y-122359580D02*
X188733333Y-122407200D01*
X188733333Y-122407200D02*
X188828571Y-122454819D01*
X188828571Y-122454819D02*
X189019047Y-122454819D01*
X189019047Y-122454819D02*
X189114285Y-122407200D01*
X189114285Y-122407200D02*
X189161904Y-122359580D01*
X189161904Y-122359580D02*
X189209523Y-122264342D01*
X189209523Y-122264342D02*
X189209523Y-122026247D01*
X189209523Y-122026247D02*
X189161904Y-121931009D01*
X189161904Y-121931009D02*
X189114285Y-121883390D01*
X189114285Y-121883390D02*
X189019047Y-121835771D01*
X189019047Y-121835771D02*
X188828571Y-121835771D01*
X188828571Y-121835771D02*
X188733333Y-121883390D01*
X188733333Y-121883390D02*
X188685714Y-121931009D01*
X188685714Y-121931009D02*
X188638095Y-122026247D01*
X206116667Y-141657200D02*
X206259524Y-141704819D01*
X206259524Y-141704819D02*
X206497619Y-141704819D01*
X206497619Y-141704819D02*
X206592857Y-141657200D01*
X206592857Y-141657200D02*
X206640476Y-141609580D01*
X206640476Y-141609580D02*
X206688095Y-141514342D01*
X206688095Y-141514342D02*
X206688095Y-141419104D01*
X206688095Y-141419104D02*
X206640476Y-141323866D01*
X206640476Y-141323866D02*
X206592857Y-141276247D01*
X206592857Y-141276247D02*
X206497619Y-141228628D01*
X206497619Y-141228628D02*
X206307143Y-141181009D01*
X206307143Y-141181009D02*
X206211905Y-141133390D01*
X206211905Y-141133390D02*
X206164286Y-141085771D01*
X206164286Y-141085771D02*
X206116667Y-140990533D01*
X206116667Y-140990533D02*
X206116667Y-140895295D01*
X206116667Y-140895295D02*
X206164286Y-140800057D01*
X206164286Y-140800057D02*
X206211905Y-140752438D01*
X206211905Y-140752438D02*
X206307143Y-140704819D01*
X206307143Y-140704819D02*
X206545238Y-140704819D01*
X206545238Y-140704819D02*
X206688095Y-140752438D01*
X207021429Y-140704819D02*
X207259524Y-141704819D01*
X207259524Y-141704819D02*
X207450000Y-140990533D01*
X207450000Y-140990533D02*
X207640476Y-141704819D01*
X207640476Y-141704819D02*
X207878572Y-140704819D01*
X208735714Y-140704819D02*
X208259524Y-140704819D01*
X208259524Y-140704819D02*
X208211905Y-141181009D01*
X208211905Y-141181009D02*
X208259524Y-141133390D01*
X208259524Y-141133390D02*
X208354762Y-141085771D01*
X208354762Y-141085771D02*
X208592857Y-141085771D01*
X208592857Y-141085771D02*
X208688095Y-141133390D01*
X208688095Y-141133390D02*
X208735714Y-141181009D01*
X208735714Y-141181009D02*
X208783333Y-141276247D01*
X208783333Y-141276247D02*
X208783333Y-141514342D01*
X208783333Y-141514342D02*
X208735714Y-141609580D01*
X208735714Y-141609580D02*
X208688095Y-141657200D01*
X208688095Y-141657200D02*
X208592857Y-141704819D01*
X208592857Y-141704819D02*
X208354762Y-141704819D01*
X208354762Y-141704819D02*
X208259524Y-141657200D01*
X208259524Y-141657200D02*
X208211905Y-141609580D01*
X181533333Y-117659580D02*
X181485714Y-117707200D01*
X181485714Y-117707200D02*
X181342857Y-117754819D01*
X181342857Y-117754819D02*
X181247619Y-117754819D01*
X181247619Y-117754819D02*
X181104762Y-117707200D01*
X181104762Y-117707200D02*
X181009524Y-117611961D01*
X181009524Y-117611961D02*
X180961905Y-117516723D01*
X180961905Y-117516723D02*
X180914286Y-117326247D01*
X180914286Y-117326247D02*
X180914286Y-117183390D01*
X180914286Y-117183390D02*
X180961905Y-116992914D01*
X180961905Y-116992914D02*
X181009524Y-116897676D01*
X181009524Y-116897676D02*
X181104762Y-116802438D01*
X181104762Y-116802438D02*
X181247619Y-116754819D01*
X181247619Y-116754819D02*
X181342857Y-116754819D01*
X181342857Y-116754819D02*
X181485714Y-116802438D01*
X181485714Y-116802438D02*
X181533333Y-116850057D01*
X182009524Y-117754819D02*
X182200000Y-117754819D01*
X182200000Y-117754819D02*
X182295238Y-117707200D01*
X182295238Y-117707200D02*
X182342857Y-117659580D01*
X182342857Y-117659580D02*
X182438095Y-117516723D01*
X182438095Y-117516723D02*
X182485714Y-117326247D01*
X182485714Y-117326247D02*
X182485714Y-116945295D01*
X182485714Y-116945295D02*
X182438095Y-116850057D01*
X182438095Y-116850057D02*
X182390476Y-116802438D01*
X182390476Y-116802438D02*
X182295238Y-116754819D01*
X182295238Y-116754819D02*
X182104762Y-116754819D01*
X182104762Y-116754819D02*
X182009524Y-116802438D01*
X182009524Y-116802438D02*
X181961905Y-116850057D01*
X181961905Y-116850057D02*
X181914286Y-116945295D01*
X181914286Y-116945295D02*
X181914286Y-117183390D01*
X181914286Y-117183390D02*
X181961905Y-117278628D01*
X181961905Y-117278628D02*
X182009524Y-117326247D01*
X182009524Y-117326247D02*
X182104762Y-117373866D01*
X182104762Y-117373866D02*
X182295238Y-117373866D01*
X182295238Y-117373866D02*
X182390476Y-117326247D01*
X182390476Y-117326247D02*
X182438095Y-117278628D01*
X182438095Y-117278628D02*
X182485714Y-117183390D01*
D10*
X79588908Y-96493918D02*
X80058380Y-97376866D01*
X80058380Y-97376866D02*
X79848154Y-97488644D01*
X79848154Y-97488644D02*
X79699663Y-97513667D01*
X79699663Y-97513667D02*
X79570861Y-97474288D01*
X79570861Y-97474288D02*
X79484105Y-97412554D01*
X79484105Y-97412554D02*
X79352636Y-97266729D01*
X79352636Y-97266729D02*
X79285569Y-97140594D01*
X79285569Y-97140594D02*
X79238191Y-96950057D01*
X79238191Y-96950057D02*
X79235524Y-96843611D01*
X79235524Y-96843611D02*
X79274903Y-96714809D01*
X79274903Y-96714809D02*
X79378683Y-96605697D01*
X79378683Y-96605697D02*
X79588908Y-96493918D01*
X78663916Y-96985745D02*
X78495735Y-97075168D01*
X78495735Y-97075168D02*
X78434001Y-97161925D01*
X78434001Y-97161925D02*
X78414311Y-97226326D01*
X78414311Y-97226326D02*
X78397288Y-97397173D01*
X78397288Y-97397173D02*
X78444666Y-97587709D01*
X78444666Y-97587709D02*
X78623513Y-97924070D01*
X78623513Y-97924070D02*
X78710269Y-97985805D01*
X78710269Y-97985805D02*
X78774670Y-98005494D01*
X78774670Y-98005494D02*
X78881116Y-98002828D01*
X78881116Y-98002828D02*
X79049297Y-97913404D01*
X79049297Y-97913404D02*
X79111031Y-97826648D01*
X79111031Y-97826648D02*
X79130721Y-97762247D01*
X79130721Y-97762247D02*
X79128054Y-97655801D01*
X79128054Y-97655801D02*
X79016275Y-97445575D01*
X79016275Y-97445575D02*
X78929519Y-97383841D01*
X78929519Y-97383841D02*
X78865118Y-97364151D01*
X78865118Y-97364151D02*
X78758672Y-97366818D01*
X78758672Y-97366818D02*
X78590491Y-97456241D01*
X78590491Y-97456241D02*
X78528757Y-97542998D01*
X78528757Y-97542998D02*
X78509067Y-97607399D01*
X78509067Y-97607399D02*
X78511734Y-97713845D01*
D12*
X232083333Y-102479580D02*
X232035714Y-102527200D01*
X232035714Y-102527200D02*
X231892857Y-102574819D01*
X231892857Y-102574819D02*
X231797619Y-102574819D01*
X231797619Y-102574819D02*
X231654762Y-102527200D01*
X231654762Y-102527200D02*
X231559524Y-102431961D01*
X231559524Y-102431961D02*
X231511905Y-102336723D01*
X231511905Y-102336723D02*
X231464286Y-102146247D01*
X231464286Y-102146247D02*
X231464286Y-102003390D01*
X231464286Y-102003390D02*
X231511905Y-101812914D01*
X231511905Y-101812914D02*
X231559524Y-101717676D01*
X231559524Y-101717676D02*
X231654762Y-101622438D01*
X231654762Y-101622438D02*
X231797619Y-101574819D01*
X231797619Y-101574819D02*
X231892857Y-101574819D01*
X231892857Y-101574819D02*
X232035714Y-101622438D01*
X232035714Y-101622438D02*
X232083333Y-101670057D01*
X232464286Y-101670057D02*
X232511905Y-101622438D01*
X232511905Y-101622438D02*
X232607143Y-101574819D01*
X232607143Y-101574819D02*
X232845238Y-101574819D01*
X232845238Y-101574819D02*
X232940476Y-101622438D01*
X232940476Y-101622438D02*
X232988095Y-101670057D01*
X232988095Y-101670057D02*
X233035714Y-101765295D01*
X233035714Y-101765295D02*
X233035714Y-101860533D01*
X233035714Y-101860533D02*
X232988095Y-102003390D01*
X232988095Y-102003390D02*
X232416667Y-102574819D01*
X232416667Y-102574819D02*
X233035714Y-102574819D01*
X127754819Y-105661904D02*
X128564342Y-105661904D01*
X128564342Y-105661904D02*
X128659580Y-105614285D01*
X128659580Y-105614285D02*
X128707200Y-105566666D01*
X128707200Y-105566666D02*
X128754819Y-105471428D01*
X128754819Y-105471428D02*
X128754819Y-105280952D01*
X128754819Y-105280952D02*
X128707200Y-105185714D01*
X128707200Y-105185714D02*
X128659580Y-105138095D01*
X128659580Y-105138095D02*
X128564342Y-105090476D01*
X128564342Y-105090476D02*
X127754819Y-105090476D01*
X127754819Y-104709523D02*
X127754819Y-104090476D01*
X127754819Y-104090476D02*
X128135771Y-104423809D01*
X128135771Y-104423809D02*
X128135771Y-104280952D01*
X128135771Y-104280952D02*
X128183390Y-104185714D01*
X128183390Y-104185714D02*
X128231009Y-104138095D01*
X128231009Y-104138095D02*
X128326247Y-104090476D01*
X128326247Y-104090476D02*
X128564342Y-104090476D01*
X128564342Y-104090476D02*
X128659580Y-104138095D01*
X128659580Y-104138095D02*
X128707200Y-104185714D01*
X128707200Y-104185714D02*
X128754819Y-104280952D01*
X128754819Y-104280952D02*
X128754819Y-104566666D01*
X128754819Y-104566666D02*
X128707200Y-104661904D01*
X128707200Y-104661904D02*
X128659580Y-104709523D01*
X188357142Y-84779580D02*
X188309523Y-84827200D01*
X188309523Y-84827200D02*
X188166666Y-84874819D01*
X188166666Y-84874819D02*
X188071428Y-84874819D01*
X188071428Y-84874819D02*
X187928571Y-84827200D01*
X187928571Y-84827200D02*
X187833333Y-84731961D01*
X187833333Y-84731961D02*
X187785714Y-84636723D01*
X187785714Y-84636723D02*
X187738095Y-84446247D01*
X187738095Y-84446247D02*
X187738095Y-84303390D01*
X187738095Y-84303390D02*
X187785714Y-84112914D01*
X187785714Y-84112914D02*
X187833333Y-84017676D01*
X187833333Y-84017676D02*
X187928571Y-83922438D01*
X187928571Y-83922438D02*
X188071428Y-83874819D01*
X188071428Y-83874819D02*
X188166666Y-83874819D01*
X188166666Y-83874819D02*
X188309523Y-83922438D01*
X188309523Y-83922438D02*
X188357142Y-83970057D01*
X189309523Y-84874819D02*
X188738095Y-84874819D01*
X189023809Y-84874819D02*
X189023809Y-83874819D01*
X189023809Y-83874819D02*
X188928571Y-84017676D01*
X188928571Y-84017676D02*
X188833333Y-84112914D01*
X188833333Y-84112914D02*
X188738095Y-84160533D01*
X190166666Y-83874819D02*
X189976190Y-83874819D01*
X189976190Y-83874819D02*
X189880952Y-83922438D01*
X189880952Y-83922438D02*
X189833333Y-83970057D01*
X189833333Y-83970057D02*
X189738095Y-84112914D01*
X189738095Y-84112914D02*
X189690476Y-84303390D01*
X189690476Y-84303390D02*
X189690476Y-84684342D01*
X189690476Y-84684342D02*
X189738095Y-84779580D01*
X189738095Y-84779580D02*
X189785714Y-84827200D01*
X189785714Y-84827200D02*
X189880952Y-84874819D01*
X189880952Y-84874819D02*
X190071428Y-84874819D01*
X190071428Y-84874819D02*
X190166666Y-84827200D01*
X190166666Y-84827200D02*
X190214285Y-84779580D01*
X190214285Y-84779580D02*
X190261904Y-84684342D01*
X190261904Y-84684342D02*
X190261904Y-84446247D01*
X190261904Y-84446247D02*
X190214285Y-84351009D01*
X190214285Y-84351009D02*
X190166666Y-84303390D01*
X190166666Y-84303390D02*
X190071428Y-84255771D01*
X190071428Y-84255771D02*
X189880952Y-84255771D01*
X189880952Y-84255771D02*
X189785714Y-84303390D01*
X189785714Y-84303390D02*
X189738095Y-84351009D01*
X189738095Y-84351009D02*
X189690476Y-84446247D01*
X125159580Y-97766666D02*
X125207200Y-97814285D01*
X125207200Y-97814285D02*
X125254819Y-97957142D01*
X125254819Y-97957142D02*
X125254819Y-98052380D01*
X125254819Y-98052380D02*
X125207200Y-98195237D01*
X125207200Y-98195237D02*
X125111961Y-98290475D01*
X125111961Y-98290475D02*
X125016723Y-98338094D01*
X125016723Y-98338094D02*
X124826247Y-98385713D01*
X124826247Y-98385713D02*
X124683390Y-98385713D01*
X124683390Y-98385713D02*
X124492914Y-98338094D01*
X124492914Y-98338094D02*
X124397676Y-98290475D01*
X124397676Y-98290475D02*
X124302438Y-98195237D01*
X124302438Y-98195237D02*
X124254819Y-98052380D01*
X124254819Y-98052380D02*
X124254819Y-97957142D01*
X124254819Y-97957142D02*
X124302438Y-97814285D01*
X124302438Y-97814285D02*
X124350057Y-97766666D01*
X124254819Y-96861904D02*
X124254819Y-97338094D01*
X124254819Y-97338094D02*
X124731009Y-97385713D01*
X124731009Y-97385713D02*
X124683390Y-97338094D01*
X124683390Y-97338094D02*
X124635771Y-97242856D01*
X124635771Y-97242856D02*
X124635771Y-97004761D01*
X124635771Y-97004761D02*
X124683390Y-96909523D01*
X124683390Y-96909523D02*
X124731009Y-96861904D01*
X124731009Y-96861904D02*
X124826247Y-96814285D01*
X124826247Y-96814285D02*
X125064342Y-96814285D01*
X125064342Y-96814285D02*
X125159580Y-96861904D01*
X125159580Y-96861904D02*
X125207200Y-96909523D01*
X125207200Y-96909523D02*
X125254819Y-97004761D01*
X125254819Y-97004761D02*
X125254819Y-97242856D01*
X125254819Y-97242856D02*
X125207200Y-97338094D01*
X125207200Y-97338094D02*
X125159580Y-97385713D01*
X184933333Y-128554819D02*
X184457143Y-128554819D01*
X184457143Y-128554819D02*
X184457143Y-127554819D01*
X185790476Y-128554819D02*
X185219048Y-128554819D01*
X185504762Y-128554819D02*
X185504762Y-127554819D01*
X185504762Y-127554819D02*
X185409524Y-127697676D01*
X185409524Y-127697676D02*
X185314286Y-127792914D01*
X185314286Y-127792914D02*
X185219048Y-127840533D01*
X188854819Y-116316666D02*
X188378628Y-116649999D01*
X188854819Y-116888094D02*
X187854819Y-116888094D01*
X187854819Y-116888094D02*
X187854819Y-116507142D01*
X187854819Y-116507142D02*
X187902438Y-116411904D01*
X187902438Y-116411904D02*
X187950057Y-116364285D01*
X187950057Y-116364285D02*
X188045295Y-116316666D01*
X188045295Y-116316666D02*
X188188152Y-116316666D01*
X188188152Y-116316666D02*
X188283390Y-116364285D01*
X188283390Y-116364285D02*
X188331009Y-116411904D01*
X188331009Y-116411904D02*
X188378628Y-116507142D01*
X188378628Y-116507142D02*
X188378628Y-116888094D01*
X187854819Y-115983332D02*
X187854819Y-115364285D01*
X187854819Y-115364285D02*
X188235771Y-115697618D01*
X188235771Y-115697618D02*
X188235771Y-115554761D01*
X188235771Y-115554761D02*
X188283390Y-115459523D01*
X188283390Y-115459523D02*
X188331009Y-115411904D01*
X188331009Y-115411904D02*
X188426247Y-115364285D01*
X188426247Y-115364285D02*
X188664342Y-115364285D01*
X188664342Y-115364285D02*
X188759580Y-115411904D01*
X188759580Y-115411904D02*
X188807200Y-115459523D01*
X188807200Y-115459523D02*
X188854819Y-115554761D01*
X188854819Y-115554761D02*
X188854819Y-115840475D01*
X188854819Y-115840475D02*
X188807200Y-115935713D01*
X188807200Y-115935713D02*
X188759580Y-115983332D01*
D10*
X117114285Y-95742580D02*
X117114285Y-96742580D01*
X117114285Y-96742580D02*
X116876190Y-96742580D01*
X116876190Y-96742580D02*
X116733333Y-96694961D01*
X116733333Y-96694961D02*
X116638095Y-96599723D01*
X116638095Y-96599723D02*
X116590476Y-96504485D01*
X116590476Y-96504485D02*
X116542857Y-96314009D01*
X116542857Y-96314009D02*
X116542857Y-96171152D01*
X116542857Y-96171152D02*
X116590476Y-95980676D01*
X116590476Y-95980676D02*
X116638095Y-95885438D01*
X116638095Y-95885438D02*
X116733333Y-95790200D01*
X116733333Y-95790200D02*
X116876190Y-95742580D01*
X116876190Y-95742580D02*
X117114285Y-95742580D01*
X115590476Y-95742580D02*
X116161904Y-95742580D01*
X115876190Y-95742580D02*
X115876190Y-96742580D01*
X115876190Y-96742580D02*
X115971428Y-96599723D01*
X115971428Y-96599723D02*
X116066666Y-96504485D01*
X116066666Y-96504485D02*
X116161904Y-96456866D01*
X114638095Y-95742580D02*
X115209523Y-95742580D01*
X114923809Y-95742580D02*
X114923809Y-96742580D01*
X114923809Y-96742580D02*
X115019047Y-96599723D01*
X115019047Y-96599723D02*
X115114285Y-96504485D01*
X115114285Y-96504485D02*
X115209523Y-96456866D01*
D12*
X200557142Y-107559580D02*
X200509523Y-107607200D01*
X200509523Y-107607200D02*
X200366666Y-107654819D01*
X200366666Y-107654819D02*
X200271428Y-107654819D01*
X200271428Y-107654819D02*
X200128571Y-107607200D01*
X200128571Y-107607200D02*
X200033333Y-107511961D01*
X200033333Y-107511961D02*
X199985714Y-107416723D01*
X199985714Y-107416723D02*
X199938095Y-107226247D01*
X199938095Y-107226247D02*
X199938095Y-107083390D01*
X199938095Y-107083390D02*
X199985714Y-106892914D01*
X199985714Y-106892914D02*
X200033333Y-106797676D01*
X200033333Y-106797676D02*
X200128571Y-106702438D01*
X200128571Y-106702438D02*
X200271428Y-106654819D01*
X200271428Y-106654819D02*
X200366666Y-106654819D01*
X200366666Y-106654819D02*
X200509523Y-106702438D01*
X200509523Y-106702438D02*
X200557142Y-106750057D01*
X201509523Y-107654819D02*
X200938095Y-107654819D01*
X201223809Y-107654819D02*
X201223809Y-106654819D01*
X201223809Y-106654819D02*
X201128571Y-106797676D01*
X201128571Y-106797676D02*
X201033333Y-106892914D01*
X201033333Y-106892914D02*
X200938095Y-106940533D01*
X202080952Y-107083390D02*
X201985714Y-107035771D01*
X201985714Y-107035771D02*
X201938095Y-106988152D01*
X201938095Y-106988152D02*
X201890476Y-106892914D01*
X201890476Y-106892914D02*
X201890476Y-106845295D01*
X201890476Y-106845295D02*
X201938095Y-106750057D01*
X201938095Y-106750057D02*
X201985714Y-106702438D01*
X201985714Y-106702438D02*
X202080952Y-106654819D01*
X202080952Y-106654819D02*
X202271428Y-106654819D01*
X202271428Y-106654819D02*
X202366666Y-106702438D01*
X202366666Y-106702438D02*
X202414285Y-106750057D01*
X202414285Y-106750057D02*
X202461904Y-106845295D01*
X202461904Y-106845295D02*
X202461904Y-106892914D01*
X202461904Y-106892914D02*
X202414285Y-106988152D01*
X202414285Y-106988152D02*
X202366666Y-107035771D01*
X202366666Y-107035771D02*
X202271428Y-107083390D01*
X202271428Y-107083390D02*
X202080952Y-107083390D01*
X202080952Y-107083390D02*
X201985714Y-107131009D01*
X201985714Y-107131009D02*
X201938095Y-107178628D01*
X201938095Y-107178628D02*
X201890476Y-107273866D01*
X201890476Y-107273866D02*
X201890476Y-107464342D01*
X201890476Y-107464342D02*
X201938095Y-107559580D01*
X201938095Y-107559580D02*
X201985714Y-107607200D01*
X201985714Y-107607200D02*
X202080952Y-107654819D01*
X202080952Y-107654819D02*
X202271428Y-107654819D01*
X202271428Y-107654819D02*
X202366666Y-107607200D01*
X202366666Y-107607200D02*
X202414285Y-107559580D01*
X202414285Y-107559580D02*
X202461904Y-107464342D01*
X202461904Y-107464342D02*
X202461904Y-107273866D01*
X202461904Y-107273866D02*
X202414285Y-107178628D01*
X202414285Y-107178628D02*
X202366666Y-107131009D01*
X202366666Y-107131009D02*
X202271428Y-107083390D01*
X206204761Y-117387557D02*
X206109523Y-117339938D01*
X206109523Y-117339938D02*
X206014285Y-117244700D01*
X206014285Y-117244700D02*
X205871428Y-117101842D01*
X205871428Y-117101842D02*
X205776190Y-117054223D01*
X205776190Y-117054223D02*
X205680952Y-117054223D01*
X205728571Y-117292319D02*
X205633333Y-117244700D01*
X205633333Y-117244700D02*
X205538095Y-117149461D01*
X205538095Y-117149461D02*
X205490476Y-116958985D01*
X205490476Y-116958985D02*
X205490476Y-116625652D01*
X205490476Y-116625652D02*
X205538095Y-116435176D01*
X205538095Y-116435176D02*
X205633333Y-116339938D01*
X205633333Y-116339938D02*
X205728571Y-116292319D01*
X205728571Y-116292319D02*
X205919047Y-116292319D01*
X205919047Y-116292319D02*
X206014285Y-116339938D01*
X206014285Y-116339938D02*
X206109523Y-116435176D01*
X206109523Y-116435176D02*
X206157142Y-116625652D01*
X206157142Y-116625652D02*
X206157142Y-116958985D01*
X206157142Y-116958985D02*
X206109523Y-117149461D01*
X206109523Y-117149461D02*
X206014285Y-117244700D01*
X206014285Y-117244700D02*
X205919047Y-117292319D01*
X205919047Y-117292319D02*
X205728571Y-117292319D01*
X207109523Y-117292319D02*
X206538095Y-117292319D01*
X206823809Y-117292319D02*
X206823809Y-116292319D01*
X206823809Y-116292319D02*
X206728571Y-116435176D01*
X206728571Y-116435176D02*
X206633333Y-116530414D01*
X206633333Y-116530414D02*
X206538095Y-116578033D01*
X243854819Y-103233333D02*
X244569104Y-103233333D01*
X244569104Y-103233333D02*
X244711961Y-103280952D01*
X244711961Y-103280952D02*
X244807200Y-103376190D01*
X244807200Y-103376190D02*
X244854819Y-103519047D01*
X244854819Y-103519047D02*
X244854819Y-103614285D01*
X244854819Y-102709523D02*
X244854819Y-102519047D01*
X244854819Y-102519047D02*
X244807200Y-102423809D01*
X244807200Y-102423809D02*
X244759580Y-102376190D01*
X244759580Y-102376190D02*
X244616723Y-102280952D01*
X244616723Y-102280952D02*
X244426247Y-102233333D01*
X244426247Y-102233333D02*
X244045295Y-102233333D01*
X244045295Y-102233333D02*
X243950057Y-102280952D01*
X243950057Y-102280952D02*
X243902438Y-102328571D01*
X243902438Y-102328571D02*
X243854819Y-102423809D01*
X243854819Y-102423809D02*
X243854819Y-102614285D01*
X243854819Y-102614285D02*
X243902438Y-102709523D01*
X243902438Y-102709523D02*
X243950057Y-102757142D01*
X243950057Y-102757142D02*
X244045295Y-102804761D01*
X244045295Y-102804761D02*
X244283390Y-102804761D01*
X244283390Y-102804761D02*
X244378628Y-102757142D01*
X244378628Y-102757142D02*
X244426247Y-102709523D01*
X244426247Y-102709523D02*
X244473866Y-102614285D01*
X244473866Y-102614285D02*
X244473866Y-102423809D01*
X244473866Y-102423809D02*
X244426247Y-102328571D01*
X244426247Y-102328571D02*
X244378628Y-102280952D01*
X244378628Y-102280952D02*
X244283390Y-102233333D01*
X139833333Y-100959580D02*
X139785714Y-101007200D01*
X139785714Y-101007200D02*
X139642857Y-101054819D01*
X139642857Y-101054819D02*
X139547619Y-101054819D01*
X139547619Y-101054819D02*
X139404762Y-101007200D01*
X139404762Y-101007200D02*
X139309524Y-100911961D01*
X139309524Y-100911961D02*
X139261905Y-100816723D01*
X139261905Y-100816723D02*
X139214286Y-100626247D01*
X139214286Y-100626247D02*
X139214286Y-100483390D01*
X139214286Y-100483390D02*
X139261905Y-100292914D01*
X139261905Y-100292914D02*
X139309524Y-100197676D01*
X139309524Y-100197676D02*
X139404762Y-100102438D01*
X139404762Y-100102438D02*
X139547619Y-100054819D01*
X139547619Y-100054819D02*
X139642857Y-100054819D01*
X139642857Y-100054819D02*
X139785714Y-100102438D01*
X139785714Y-100102438D02*
X139833333Y-100150057D01*
X140690476Y-100054819D02*
X140500000Y-100054819D01*
X140500000Y-100054819D02*
X140404762Y-100102438D01*
X140404762Y-100102438D02*
X140357143Y-100150057D01*
X140357143Y-100150057D02*
X140261905Y-100292914D01*
X140261905Y-100292914D02*
X140214286Y-100483390D01*
X140214286Y-100483390D02*
X140214286Y-100864342D01*
X140214286Y-100864342D02*
X140261905Y-100959580D01*
X140261905Y-100959580D02*
X140309524Y-101007200D01*
X140309524Y-101007200D02*
X140404762Y-101054819D01*
X140404762Y-101054819D02*
X140595238Y-101054819D01*
X140595238Y-101054819D02*
X140690476Y-101007200D01*
X140690476Y-101007200D02*
X140738095Y-100959580D01*
X140738095Y-100959580D02*
X140785714Y-100864342D01*
X140785714Y-100864342D02*
X140785714Y-100626247D01*
X140785714Y-100626247D02*
X140738095Y-100531009D01*
X140738095Y-100531009D02*
X140690476Y-100483390D01*
X140690476Y-100483390D02*
X140595238Y-100435771D01*
X140595238Y-100435771D02*
X140404762Y-100435771D01*
X140404762Y-100435771D02*
X140309524Y-100483390D01*
X140309524Y-100483390D02*
X140261905Y-100531009D01*
X140261905Y-100531009D02*
X140214286Y-100626247D01*
D10*
X69315091Y-106846331D02*
X70206098Y-106392341D01*
X70206098Y-106392341D02*
X70314191Y-106604485D01*
X70314191Y-106604485D02*
X70336618Y-106753390D01*
X70336618Y-106753390D02*
X70294997Y-106881485D01*
X70294997Y-106881485D02*
X70231758Y-106967151D01*
X70231758Y-106967151D02*
X70083661Y-107096055D01*
X70083661Y-107096055D02*
X69956374Y-107160910D01*
X69956374Y-107160910D02*
X69765040Y-107204956D01*
X69765040Y-107204956D02*
X69658564Y-107205764D01*
X69658564Y-107205764D02*
X69530469Y-107164144D01*
X69530469Y-107164144D02*
X69423184Y-107058476D01*
X69423184Y-107058476D02*
X69315091Y-106846331D01*
X70854656Y-107665207D02*
X70768181Y-107495492D01*
X70768181Y-107495492D02*
X70682515Y-107432252D01*
X70682515Y-107432252D02*
X70618468Y-107411442D01*
X70618468Y-107411442D02*
X70447944Y-107391440D01*
X70447944Y-107391440D02*
X70256610Y-107435486D01*
X70256610Y-107435486D02*
X69917179Y-107608434D01*
X69917179Y-107608434D02*
X69853939Y-107694100D01*
X69853939Y-107694100D02*
X69833129Y-107758148D01*
X69833129Y-107758148D02*
X69833937Y-107864624D01*
X69833937Y-107864624D02*
X69920412Y-108034340D01*
X69920412Y-108034340D02*
X70006078Y-108097579D01*
X70006078Y-108097579D02*
X70070125Y-108118389D01*
X70070125Y-108118389D02*
X70176602Y-108117581D01*
X70176602Y-108117581D02*
X70388746Y-108009488D01*
X70388746Y-108009488D02*
X70451985Y-107923822D01*
X70451985Y-107923822D02*
X70472796Y-107859774D01*
X70472796Y-107859774D02*
X70471987Y-107753298D01*
X70471987Y-107753298D02*
X70385513Y-107583583D01*
X70385513Y-107583583D02*
X70299847Y-107520343D01*
X70299847Y-107520343D02*
X70235799Y-107499533D01*
X70235799Y-107499533D02*
X70129323Y-107500341D01*
X156814285Y-95742580D02*
X156814285Y-96742580D01*
X156814285Y-96742580D02*
X156576190Y-96742580D01*
X156576190Y-96742580D02*
X156433333Y-96694961D01*
X156433333Y-96694961D02*
X156338095Y-96599723D01*
X156338095Y-96599723D02*
X156290476Y-96504485D01*
X156290476Y-96504485D02*
X156242857Y-96314009D01*
X156242857Y-96314009D02*
X156242857Y-96171152D01*
X156242857Y-96171152D02*
X156290476Y-95980676D01*
X156290476Y-95980676D02*
X156338095Y-95885438D01*
X156338095Y-95885438D02*
X156433333Y-95790200D01*
X156433333Y-95790200D02*
X156576190Y-95742580D01*
X156576190Y-95742580D02*
X156814285Y-95742580D01*
X155290476Y-95742580D02*
X155861904Y-95742580D01*
X155576190Y-95742580D02*
X155576190Y-96742580D01*
X155576190Y-96742580D02*
X155671428Y-96599723D01*
X155671428Y-96599723D02*
X155766666Y-96504485D01*
X155766666Y-96504485D02*
X155861904Y-96456866D01*
X154957142Y-96742580D02*
X154338095Y-96742580D01*
X154338095Y-96742580D02*
X154671428Y-96361628D01*
X154671428Y-96361628D02*
X154528571Y-96361628D01*
X154528571Y-96361628D02*
X154433333Y-96314009D01*
X154433333Y-96314009D02*
X154385714Y-96266390D01*
X154385714Y-96266390D02*
X154338095Y-96171152D01*
X154338095Y-96171152D02*
X154338095Y-95933057D01*
X154338095Y-95933057D02*
X154385714Y-95837819D01*
X154385714Y-95837819D02*
X154433333Y-95790200D01*
X154433333Y-95790200D02*
X154528571Y-95742580D01*
X154528571Y-95742580D02*
X154814285Y-95742580D01*
X154814285Y-95742580D02*
X154909523Y-95790200D01*
X154909523Y-95790200D02*
X154957142Y-95837819D01*
D12*
X189307142Y-69309580D02*
X189259523Y-69357200D01*
X189259523Y-69357200D02*
X189116666Y-69404819D01*
X189116666Y-69404819D02*
X189021428Y-69404819D01*
X189021428Y-69404819D02*
X188878571Y-69357200D01*
X188878571Y-69357200D02*
X188783333Y-69261961D01*
X188783333Y-69261961D02*
X188735714Y-69166723D01*
X188735714Y-69166723D02*
X188688095Y-68976247D01*
X188688095Y-68976247D02*
X188688095Y-68833390D01*
X188688095Y-68833390D02*
X188735714Y-68642914D01*
X188735714Y-68642914D02*
X188783333Y-68547676D01*
X188783333Y-68547676D02*
X188878571Y-68452438D01*
X188878571Y-68452438D02*
X189021428Y-68404819D01*
X189021428Y-68404819D02*
X189116666Y-68404819D01*
X189116666Y-68404819D02*
X189259523Y-68452438D01*
X189259523Y-68452438D02*
X189307142Y-68500057D01*
X190259523Y-69404819D02*
X189688095Y-69404819D01*
X189973809Y-69404819D02*
X189973809Y-68404819D01*
X189973809Y-68404819D02*
X189878571Y-68547676D01*
X189878571Y-68547676D02*
X189783333Y-68642914D01*
X189783333Y-68642914D02*
X189688095Y-68690533D01*
X190640476Y-68500057D02*
X190688095Y-68452438D01*
X190688095Y-68452438D02*
X190783333Y-68404819D01*
X190783333Y-68404819D02*
X191021428Y-68404819D01*
X191021428Y-68404819D02*
X191116666Y-68452438D01*
X191116666Y-68452438D02*
X191164285Y-68500057D01*
X191164285Y-68500057D02*
X191211904Y-68595295D01*
X191211904Y-68595295D02*
X191211904Y-68690533D01*
X191211904Y-68690533D02*
X191164285Y-68833390D01*
X191164285Y-68833390D02*
X190592857Y-69404819D01*
X190592857Y-69404819D02*
X191211904Y-69404819D01*
X178988095Y-105654819D02*
X178988095Y-104654819D01*
X178988095Y-105131009D02*
X179559523Y-105131009D01*
X179559523Y-105654819D02*
X179559523Y-104654819D01*
X180511904Y-104654819D02*
X180035714Y-104654819D01*
X180035714Y-104654819D02*
X179988095Y-105131009D01*
X179988095Y-105131009D02*
X180035714Y-105083390D01*
X180035714Y-105083390D02*
X180130952Y-105035771D01*
X180130952Y-105035771D02*
X180369047Y-105035771D01*
X180369047Y-105035771D02*
X180464285Y-105083390D01*
X180464285Y-105083390D02*
X180511904Y-105131009D01*
X180511904Y-105131009D02*
X180559523Y-105226247D01*
X180559523Y-105226247D02*
X180559523Y-105464342D01*
X180559523Y-105464342D02*
X180511904Y-105559580D01*
X180511904Y-105559580D02*
X180464285Y-105607200D01*
X180464285Y-105607200D02*
X180369047Y-105654819D01*
X180369047Y-105654819D02*
X180130952Y-105654819D01*
X180130952Y-105654819D02*
X180035714Y-105607200D01*
X180035714Y-105607200D02*
X179988095Y-105559580D01*
D13*
%TO.C,J12*%
X245590000Y-108085000D02*
X245590000Y-107135000D01*
X246040000Y-108085000D02*
X245590000Y-108085000D01*
X249560000Y-108085000D02*
X250010000Y-108085000D01*
X250010000Y-108085000D02*
X250010000Y-103615000D01*
X245590000Y-107135000D02*
X244100000Y-107135000D01*
X245590000Y-103615000D02*
X245590000Y-104565000D01*
X246040000Y-103615000D02*
X245590000Y-103615000D01*
X250010000Y-103615000D02*
X249560000Y-103615000D01*
%TO.C,R8*%
X188960436Y-79415000D02*
X189414564Y-79415000D01*
X188960436Y-80885000D02*
X189414564Y-80885000D01*
%TO.C,U1*%
X192800000Y-61040000D02*
X192800000Y-67240000D01*
X192800000Y-61040000D02*
X211200000Y-61040000D01*
X192800000Y-85890000D02*
X192800000Y-86890000D01*
X192800000Y-86890000D02*
X194300000Y-86890000D01*
X211200000Y-61040000D02*
X211200000Y-67240000D01*
X211200000Y-86890000D02*
X209700000Y-86890000D01*
X211200000Y-86890000D02*
X211200000Y-85890000D01*
X192800000Y-67915000D02*
X192300000Y-67915000D01*
X192800000Y-67415000D01*
X192800000Y-67915000D01*
G36*
X192800000Y-67915000D02*
G01*
X192300000Y-67915000D01*
X192800000Y-67415000D01*
X192800000Y-67915000D01*
G37*
D14*
%TO.C,kibuzzard-6850B9A9*%
G36*
X201499201Y-137815342D02*
G01*
X201525502Y-137891575D01*
X201535365Y-138006849D01*
X201242763Y-138006849D01*
X201256735Y-137888493D01*
X201285502Y-137812877D01*
X201331119Y-137772192D01*
X201395639Y-137758630D01*
X201499201Y-137815342D01*
G37*
G36*
X198982283Y-137441781D02*
G01*
X199044132Y-137487397D01*
X199080502Y-137567123D01*
X199092626Y-137684658D01*
X199080502Y-137811027D01*
X199044132Y-137894247D01*
X198982283Y-137940479D01*
X198893721Y-137955890D01*
X198798379Y-137944384D01*
X198798379Y-137439726D01*
X198893721Y-137426575D01*
X198982283Y-137441781D01*
G37*
G36*
X199819817Y-137779795D02*
G01*
X199869338Y-137828493D01*
X199897078Y-137921986D01*
X199906324Y-138072603D01*
X199897078Y-138223219D01*
X199869338Y-138316712D01*
X199819817Y-138365411D01*
X199745228Y-138381644D01*
X199670639Y-138365411D01*
X199621119Y-138316712D01*
X199593379Y-138223219D01*
X199584132Y-138072603D01*
X199593379Y-137921986D01*
X199621119Y-137828493D01*
X199670639Y-137779795D01*
X199745228Y-137763562D01*
X199819817Y-137779795D01*
G37*
G36*
X203411134Y-137013877D02*
G01*
X203497569Y-137026698D01*
X203582331Y-137047930D01*
X203664604Y-137077368D01*
X203743595Y-137114728D01*
X203818544Y-137159650D01*
X203888729Y-137211703D01*
X203953474Y-137270384D01*
X204012155Y-137335129D01*
X204064208Y-137405314D01*
X204109131Y-137480263D01*
X204146491Y-137559254D01*
X204175929Y-137641527D01*
X204197160Y-137726289D01*
X204209982Y-137812724D01*
X204214269Y-137900000D01*
X204209982Y-137987276D01*
X204197160Y-138073711D01*
X204175929Y-138158473D01*
X204146491Y-138240746D01*
X204109131Y-138319737D01*
X204064208Y-138394686D01*
X204012155Y-138464871D01*
X203953474Y-138529616D01*
X203888729Y-138588297D01*
X203818544Y-138640350D01*
X203743595Y-138685272D01*
X203664604Y-138722632D01*
X203582331Y-138752070D01*
X203497569Y-138773302D01*
X203411134Y-138786123D01*
X203323858Y-138790411D01*
X202501941Y-138790411D01*
X202140297Y-138790411D01*
X201433447Y-138790411D01*
X200846598Y-138790411D01*
X199745228Y-138790411D01*
X198798379Y-138790411D01*
X198614269Y-138790411D01*
X197929338Y-138790411D01*
X197335731Y-137900000D01*
X197724772Y-137316438D01*
X198614269Y-137316438D01*
X198614269Y-138500000D01*
X198798379Y-138500000D01*
X198798379Y-138089041D01*
X198893721Y-138097260D01*
X199010890Y-138086301D01*
X199050501Y-138072603D01*
X199400023Y-138072603D01*
X199409521Y-138213973D01*
X199438014Y-138326849D01*
X199485502Y-138411233D01*
X199552352Y-138469680D01*
X199638927Y-138504749D01*
X199745228Y-138516438D01*
X199851530Y-138504749D01*
X199938105Y-138469680D01*
X200004954Y-138411233D01*
X200052443Y-138326849D01*
X200080936Y-138213973D01*
X200090434Y-138072603D01*
X200080936Y-137931233D01*
X200052443Y-137818356D01*
X200004954Y-137733973D01*
X199938105Y-137675525D01*
X199863252Y-137645205D01*
X200180845Y-137645205D01*
X200287694Y-138500000D01*
X200457009Y-138500000D01*
X200555639Y-137827671D01*
X200558927Y-137827671D01*
X200646050Y-138500000D01*
X200846598Y-138500000D01*
X200900022Y-138072603D01*
X201055365Y-138072603D01*
X201063081Y-138190355D01*
X201086229Y-138289992D01*
X201124809Y-138371512D01*
X201178821Y-138434918D01*
X201248264Y-138480207D01*
X201333140Y-138507380D01*
X201433447Y-138516438D01*
X201548105Y-138506164D01*
X201668516Y-138475342D01*
X201668516Y-138338904D01*
X201555913Y-138372192D01*
X201454817Y-138383288D01*
X201366667Y-138369110D01*
X201302763Y-138326575D01*
X201261872Y-138250342D01*
X201242763Y-138135068D01*
X201709612Y-138135068D01*
X201712900Y-138069315D01*
X201704315Y-137928950D01*
X201678562Y-137816895D01*
X201635639Y-137733151D01*
X201615931Y-137714247D01*
X201959475Y-137714247D01*
X201959475Y-138500000D01*
X202140297Y-138500000D01*
X202138653Y-137812877D01*
X202255000Y-137786393D01*
X202376096Y-137770502D01*
X202501941Y-137765205D01*
X202501941Y-137628767D01*
X202389765Y-137632186D01*
X202279431Y-137642444D01*
X202170938Y-137659540D01*
X202064286Y-137683474D01*
X201959475Y-137714247D01*
X201615931Y-137714247D01*
X201575183Y-137675160D01*
X201496826Y-137640365D01*
X201400571Y-137628767D01*
X201295091Y-137641096D01*
X201208790Y-137678082D01*
X201141667Y-137739726D01*
X201093721Y-137826027D01*
X201064954Y-137936986D01*
X201055365Y-138072603D01*
X200900022Y-138072603D01*
X200953447Y-137645205D01*
X200803858Y-137645205D01*
X200744680Y-138352055D01*
X200739749Y-138352055D01*
X200646050Y-137645205D01*
X200506324Y-137645205D01*
X200406050Y-138294521D01*
X200402763Y-138294521D01*
X200350160Y-137645205D01*
X200180845Y-137645205D01*
X199863252Y-137645205D01*
X199851530Y-137640457D01*
X199745228Y-137628767D01*
X199638927Y-137640457D01*
X199552352Y-137675525D01*
X199485502Y-137733973D01*
X199438014Y-137818356D01*
X199409521Y-137931233D01*
X199400023Y-138072603D01*
X199050501Y-138072603D01*
X199105959Y-138053425D01*
X199178927Y-137998630D01*
X199230525Y-137919909D01*
X199261484Y-137815251D01*
X199271804Y-137684658D01*
X199261758Y-137556347D01*
X199231621Y-137454155D01*
X199181393Y-137378082D01*
X199109247Y-137325571D01*
X199013356Y-137294064D01*
X198893721Y-137283562D01*
X198799110Y-137287215D01*
X198705959Y-137298174D01*
X198614269Y-137316438D01*
X197724772Y-137316438D01*
X197929338Y-137009589D01*
X198614269Y-137009589D01*
X202501941Y-137009589D01*
X203323858Y-137009589D01*
X203411134Y-137013877D01*
G37*
D13*
%TO.C,C19*%
X197851248Y-104365000D02*
X198373752Y-104365000D01*
X197851248Y-105835000D02*
X198373752Y-105835000D01*
%TO.C,J10*%
X217970000Y-77870000D02*
X219300000Y-77870000D01*
X217970000Y-79200000D02*
X217970000Y-77870000D01*
X217970000Y-80470000D02*
X217970000Y-90690000D01*
X217970000Y-80470000D02*
X220630000Y-80470000D01*
X217970000Y-90690000D02*
X220630000Y-90690000D01*
X220630000Y-80470000D02*
X220630000Y-90690000D01*
%TO.C,R5*%
X212865000Y-69872936D02*
X212865000Y-70327064D01*
X214335000Y-69872936D02*
X214335000Y-70327064D01*
%TO.C,J7*%
X164270000Y-101831482D02*
X165600000Y-101831482D01*
X164270000Y-103161482D02*
X164270000Y-101831482D01*
X164270000Y-104431482D02*
X164270000Y-109571482D01*
X164270000Y-104431482D02*
X166870000Y-104431482D01*
X164270000Y-109571482D02*
X169470000Y-109571482D01*
X166870000Y-101831482D02*
X169470000Y-101831482D01*
X166870000Y-104431482D02*
X166870000Y-101831482D01*
X169470000Y-101831482D02*
X169470000Y-109571482D01*
%TO.C,C8*%
X126738748Y-107665000D02*
X127261252Y-107665000D01*
X126738748Y-109135000D02*
X127261252Y-109135000D01*
D10*
%TO.C,D12*%
X133850000Y-94900000D02*
X133900000Y-94900000D01*
X133850000Y-95300000D02*
X133850000Y-94900000D01*
X133900000Y-94900000D02*
X133900000Y-95250000D01*
X133900000Y-95250000D02*
X134250000Y-95250000D01*
X133950000Y-94200000D02*
X133950000Y-95200000D01*
X134250000Y-95250000D02*
X134250000Y-95300000D01*
X134250000Y-95300000D02*
X133850000Y-95300000D01*
X135025000Y-95200000D02*
X133950000Y-95200000D01*
X135925000Y-95200000D02*
X135575000Y-95200000D01*
X137450000Y-94200000D02*
X133950000Y-94200000D01*
X137450000Y-95200000D02*
X136475000Y-95200000D01*
X137450000Y-95200000D02*
X137450000Y-94200000D01*
D13*
%TO.C,D1*%
X197115000Y-122390000D02*
X197115000Y-124310000D01*
X197115000Y-124310000D02*
X199800000Y-124310000D01*
X199800000Y-122390000D02*
X197115000Y-122390000D01*
D12*
%TO.C,SW4*%
X155703331Y-105408449D02*
X155703331Y-104208449D01*
X155703331Y-107808449D02*
X155703331Y-106608449D01*
X156903331Y-104208449D02*
X157703331Y-104208449D01*
X157703331Y-107808449D02*
X156903331Y-107808449D01*
X158903331Y-104208449D02*
X158903331Y-105408449D01*
X158903331Y-106608449D02*
X158903331Y-107808449D01*
D14*
%TO.C,kibuzzard-684F57A2*%
G36*
X154296438Y-104285616D02*
G01*
X154278767Y-104361644D01*
X154225753Y-104415479D01*
X154129178Y-104447534D01*
X153980822Y-104458219D01*
X153836370Y-104449384D01*
X153741644Y-104422877D01*
X153689247Y-104378288D01*
X153671781Y-104315205D01*
X153685753Y-104238356D01*
X153727671Y-104178767D01*
X154275068Y-104178767D01*
X154296438Y-104285616D01*
G37*
G36*
X154131438Y-106615959D02*
G01*
X154224932Y-106643699D01*
X154273630Y-106693219D01*
X154289863Y-106767808D01*
X154273630Y-106842397D01*
X154224932Y-106891918D01*
X154131438Y-106919658D01*
X153980822Y-106928904D01*
X153830205Y-106919658D01*
X153736712Y-106891918D01*
X153688014Y-106842397D01*
X153671781Y-106767808D01*
X153688014Y-106693219D01*
X153736712Y-106643699D01*
X153830205Y-106615959D01*
X153980822Y-106606712D01*
X154131438Y-106615959D01*
G37*
G36*
X155109589Y-104811644D02*
G01*
X155109589Y-105929452D01*
X155109589Y-106767808D01*
X155109589Y-107614384D01*
X155109589Y-107902055D01*
X155109589Y-108586986D01*
X155103283Y-108715348D01*
X155084426Y-108842474D01*
X155053199Y-108967140D01*
X155009903Y-109088144D01*
X154954954Y-109204322D01*
X154888883Y-109314555D01*
X154812326Y-109417781D01*
X154726019Y-109513006D01*
X154630794Y-109599312D01*
X154527569Y-109675870D01*
X154417336Y-109741941D01*
X154301158Y-109796889D01*
X154180154Y-109840185D01*
X154055488Y-109871412D01*
X153928362Y-109890269D01*
X153800000Y-109896575D01*
X153671638Y-109890269D01*
X153544512Y-109871412D01*
X153419846Y-109840185D01*
X153298842Y-109796889D01*
X153182664Y-109741941D01*
X153072431Y-109675870D01*
X152969206Y-109599312D01*
X152873981Y-109513006D01*
X152787674Y-109417781D01*
X152711117Y-109314555D01*
X152645046Y-109204322D01*
X152590097Y-109088144D01*
X152546801Y-108967140D01*
X152515574Y-108842474D01*
X152496717Y-108715348D01*
X152490411Y-108586986D01*
X152490411Y-107902055D01*
X152490411Y-107570000D01*
X153191781Y-107570000D01*
X153200913Y-107668174D01*
X153228311Y-107750091D01*
X153273973Y-107815753D01*
X153372603Y-107880479D01*
X153504110Y-107902055D01*
X153620822Y-107885000D01*
X153717808Y-107833836D01*
X153774795Y-107777306D01*
X153829589Y-107698676D01*
X153882192Y-107597945D01*
X153924521Y-107527466D01*
X153972603Y-107480411D01*
X154030959Y-107453904D01*
X154104110Y-107445068D01*
X154180753Y-107456575D01*
X154236438Y-107491096D01*
X154270342Y-107546164D01*
X154281644Y-107619315D01*
X154269772Y-107715571D01*
X154234155Y-107807078D01*
X154174795Y-107893836D01*
X154345753Y-107893836D01*
X154389589Y-107809452D01*
X154415890Y-107716301D01*
X154424658Y-107614384D01*
X154411507Y-107487151D01*
X154372055Y-107388192D01*
X154306301Y-107317507D01*
X154214247Y-107275096D01*
X154095890Y-107260959D01*
X153968904Y-107278630D01*
X153867397Y-107331644D01*
X153808767Y-107391735D01*
X153751233Y-107477763D01*
X153694795Y-107589726D01*
X153645662Y-107662785D01*
X153579361Y-107706621D01*
X153495890Y-107721233D01*
X153428493Y-107709726D01*
X153377534Y-107675205D01*
X153345479Y-107620548D01*
X153334795Y-107548630D01*
X153352466Y-107420822D01*
X153405479Y-107293836D01*
X153241096Y-107293836D01*
X153213699Y-107382237D01*
X153197260Y-107474292D01*
X153191781Y-107570000D01*
X152490411Y-107570000D01*
X152490411Y-106767808D01*
X153536986Y-106767808D01*
X153548676Y-106874110D01*
X153583744Y-106960685D01*
X153642192Y-107027534D01*
X153726575Y-107075023D01*
X153839452Y-107103516D01*
X153980822Y-107113014D01*
X154122192Y-107103516D01*
X154235068Y-107075023D01*
X154319452Y-107027534D01*
X154377900Y-106960685D01*
X154412968Y-106874110D01*
X154424658Y-106767808D01*
X154412968Y-106661507D01*
X154377900Y-106574932D01*
X154319452Y-106508082D01*
X154235068Y-106460594D01*
X154122192Y-106432100D01*
X153980822Y-106422603D01*
X153839452Y-106432100D01*
X153726575Y-106460594D01*
X153642192Y-106508082D01*
X153583744Y-106574932D01*
X153548676Y-106661507D01*
X153536986Y-106767808D01*
X152490411Y-106767808D01*
X152490411Y-105641781D01*
X153553425Y-105641781D01*
X153553425Y-105822603D01*
X154256986Y-105820959D01*
X154289863Y-105932740D01*
X154257808Y-106043699D01*
X154136986Y-106074110D01*
X153553425Y-106074110D01*
X153553425Y-106250000D01*
X154136986Y-106250000D01*
X154276712Y-106233151D01*
X154363836Y-106182603D01*
X154397626Y-106124521D01*
X154417900Y-106040137D01*
X154424658Y-105929452D01*
X154416986Y-105823699D01*
X154393973Y-105727808D01*
X154355616Y-105641781D01*
X153553425Y-105641781D01*
X152490411Y-105641781D01*
X152490411Y-105148630D01*
X153536986Y-105148630D01*
X153544658Y-105254384D01*
X153567671Y-105350274D01*
X153606027Y-105436301D01*
X154408219Y-105436301D01*
X154408219Y-105255479D01*
X153707945Y-105255479D01*
X153671781Y-105143699D01*
X153704658Y-105022055D01*
X153824658Y-104989178D01*
X154408219Y-104989178D01*
X154408219Y-104811644D01*
X153832877Y-104811644D01*
X153686986Y-104828699D01*
X153597808Y-104879863D01*
X153564018Y-104940046D01*
X153543744Y-105029635D01*
X153536986Y-105148630D01*
X152490411Y-105148630D01*
X152490411Y-103997945D01*
X153175342Y-103997945D01*
X153175342Y-104178767D01*
X153573151Y-104178767D01*
X153546027Y-104254795D01*
X153536986Y-104334932D01*
X153548493Y-104429087D01*
X153583014Y-104505525D01*
X153640548Y-104564247D01*
X153724384Y-104605799D01*
X153837808Y-104630731D01*
X153980822Y-104639041D01*
X154126301Y-104629361D01*
X154240548Y-104600320D01*
X154323562Y-104551918D01*
X154379726Y-104482694D01*
X154413425Y-104391187D01*
X154424658Y-104277397D01*
X154418813Y-104175479D01*
X154401279Y-104082329D01*
X154372055Y-103997945D01*
X153175342Y-103997945D01*
X152490411Y-103997945D01*
X152490411Y-103313014D01*
X152496717Y-103184652D01*
X152515574Y-103057526D01*
X152546801Y-102932860D01*
X152590097Y-102811856D01*
X152645046Y-102695678D01*
X152711117Y-102585445D01*
X152787674Y-102482219D01*
X152873981Y-102386994D01*
X152969206Y-102300688D01*
X153072431Y-102224130D01*
X153182664Y-102158059D01*
X153298842Y-102103111D01*
X153419846Y-102059815D01*
X153544512Y-102028588D01*
X153671638Y-102009731D01*
X153800000Y-102003425D01*
X153928362Y-102009731D01*
X154055488Y-102028588D01*
X154180154Y-102059815D01*
X154301158Y-102103111D01*
X154417336Y-102158059D01*
X154527569Y-102224130D01*
X154630794Y-102300688D01*
X154726019Y-102386994D01*
X154812326Y-102482219D01*
X154888883Y-102585445D01*
X154954954Y-102695678D01*
X155009903Y-102811856D01*
X155053199Y-102932860D01*
X155084426Y-103057526D01*
X155103283Y-103184652D01*
X155109589Y-103313014D01*
X155109589Y-103997945D01*
X155109589Y-104277397D01*
X155109589Y-104811644D01*
G37*
D13*
%TO.C,C21*%
X189765000Y-118838748D02*
X189765000Y-119361252D01*
X191235000Y-118838748D02*
X191235000Y-119361252D01*
D10*
%TO.C,D3*%
X133606666Y-115700000D02*
X133606666Y-116700000D01*
X133606666Y-115700000D02*
X134581666Y-115700000D01*
X133606666Y-116700000D02*
X137106666Y-116700000D01*
X135131666Y-115700000D02*
X135481666Y-115700000D01*
X136031666Y-115700000D02*
X137106666Y-115700000D01*
X136806666Y-115600000D02*
X137206666Y-115600000D01*
X136806666Y-115650000D02*
X136806666Y-115600000D01*
X137106666Y-116700000D02*
X137106666Y-115700000D01*
X137156666Y-115650000D02*
X136806666Y-115650000D01*
X137156666Y-116000000D02*
X137156666Y-115650000D01*
X137206666Y-115600000D02*
X137206666Y-116000000D01*
X137206666Y-116000000D02*
X137156666Y-116000000D01*
D13*
%TO.C,C22*%
X178665000Y-123061252D02*
X178665000Y-122538748D01*
X180135000Y-123061252D02*
X180135000Y-122538748D01*
%TO.C,U2*%
X230880000Y-98125000D02*
X230880000Y-97890000D01*
X230880000Y-100870000D02*
X230880000Y-100395000D01*
X231355000Y-97650000D02*
X231180000Y-97650000D01*
X231355000Y-100870000D02*
X230880000Y-100870000D01*
X233625000Y-97650000D02*
X234100000Y-97650000D01*
X233625000Y-100870000D02*
X234100000Y-100870000D01*
X234100000Y-97650000D02*
X234100000Y-98125000D01*
X234100000Y-100870000D02*
X234100000Y-100395000D01*
X230880000Y-97650000D02*
X230640000Y-97320000D01*
X231120000Y-97320000D01*
X230880000Y-97650000D01*
G36*
X230880000Y-97650000D02*
G01*
X230640000Y-97320000D01*
X231120000Y-97320000D01*
X230880000Y-97650000D01*
G37*
%TO.C,C4*%
X126235000Y-100591252D02*
X126235000Y-100068748D01*
X127705000Y-100591252D02*
X127705000Y-100068748D01*
%TO.C,RN1*%
X173200000Y-81120000D02*
X172200000Y-81120000D01*
X173200000Y-84480000D02*
X172200000Y-84480000D01*
%TO.C,Q2*%
X200837500Y-117690000D02*
X200187500Y-117690000D01*
X200837500Y-117690000D02*
X201487500Y-117690000D01*
X200837500Y-120810000D02*
X200187500Y-120810000D01*
X200837500Y-120810000D02*
X201487500Y-120810000D01*
X199675000Y-117740000D02*
X199435000Y-117410000D01*
X199915000Y-117410000D01*
X199675000Y-117740000D01*
G36*
X199675000Y-117740000D02*
G01*
X199435000Y-117410000D01*
X199915000Y-117410000D01*
X199675000Y-117740000D01*
G37*
D10*
%TO.C,D8*%
X94100000Y-95250000D02*
X94150000Y-95250000D01*
X94100000Y-95650000D02*
X94100000Y-95250000D01*
X94150000Y-95250000D02*
X94150000Y-95600000D01*
X94150000Y-95600000D02*
X94500000Y-95600000D01*
X94200000Y-94550000D02*
X94200000Y-95550000D01*
X94500000Y-95600000D02*
X94500000Y-95650000D01*
X94500000Y-95650000D02*
X94100000Y-95650000D01*
X95275000Y-95550000D02*
X94200000Y-95550000D01*
X96175000Y-95550000D02*
X95825000Y-95550000D01*
X97700000Y-94550000D02*
X94200000Y-94550000D01*
X97700000Y-95550000D02*
X96725000Y-95550000D01*
X97700000Y-95550000D02*
X97700000Y-94550000D01*
D13*
%TO.C,J6*%
X226615000Y-83665000D02*
X226615000Y-84615000D01*
X226615000Y-89685000D02*
X225125000Y-89685000D01*
X226615000Y-90635000D02*
X226615000Y-89685000D01*
X227065000Y-83665000D02*
X226615000Y-83665000D01*
X227065000Y-90635000D02*
X226615000Y-90635000D01*
X230585000Y-90635000D02*
X231035000Y-90635000D01*
X231035000Y-83665000D02*
X230585000Y-83665000D01*
X231035000Y-90635000D02*
X231035000Y-83665000D01*
%TO.C,R1*%
X203022936Y-122665000D02*
X203477064Y-122665000D01*
X203022936Y-124135000D02*
X203477064Y-124135000D01*
%TO.C,C7*%
X136938748Y-102015000D02*
X137461252Y-102015000D01*
X136938748Y-103485000D02*
X137461252Y-103485000D01*
%TO.C,R4*%
X195127064Y-136165000D02*
X194672936Y-136165000D01*
X195127064Y-137635000D02*
X194672936Y-137635000D01*
%TO.C,R7*%
X206460436Y-102615000D02*
X206914564Y-102615000D01*
X206460436Y-104085000D02*
X206914564Y-104085000D01*
%TO.C,C23*%
X180865000Y-123061252D02*
X180865000Y-122538748D01*
X182335000Y-123061252D02*
X182335000Y-122538748D01*
%TO.C,J5*%
X214605000Y-81815000D02*
X214605000Y-74940000D01*
X214691724Y-81815000D02*
X214605000Y-81815000D01*
X214905507Y-74940000D02*
X214605000Y-74940000D01*
X215995000Y-74940000D02*
X215694493Y-74940000D01*
X215995000Y-81815000D02*
X215908276Y-81815000D01*
X215995000Y-81815000D02*
X215995000Y-74940000D01*
X215995000Y-82500000D02*
X215995000Y-83185000D01*
X215995000Y-83185000D02*
X215300000Y-83185000D01*
%TO.C,J3*%
X237490000Y-94040000D02*
X237490000Y-98510000D01*
X237490000Y-98510000D02*
X237940000Y-98510000D01*
X237940000Y-94040000D02*
X237490000Y-94040000D01*
X241460000Y-94040000D02*
X241910000Y-94040000D01*
X241460000Y-98510000D02*
X241910000Y-98510000D01*
X241910000Y-94040000D02*
X241910000Y-94990000D01*
X241910000Y-94990000D02*
X243400000Y-94990000D01*
X241910000Y-98510000D02*
X241910000Y-97560000D01*
%TO.C,RN4*%
X205150000Y-90445000D02*
X204150000Y-90445000D01*
X205150000Y-93805000D02*
X204150000Y-93805000D01*
%TO.C,C15*%
X188738748Y-82265000D02*
X189261252Y-82265000D01*
X188738748Y-83735000D02*
X189261252Y-83735000D01*
D10*
%TO.C,D10*%
X67781864Y-104399516D02*
X68672871Y-104853507D01*
X68360170Y-104806411D02*
X68382868Y-104761859D01*
X68382868Y-104761859D02*
X68694722Y-104920755D01*
X68694722Y-104920755D02*
X68853619Y-104608905D01*
X68716572Y-104988006D02*
X68360170Y-104806411D01*
X68853619Y-104608905D02*
X68898168Y-104631605D01*
X68898168Y-104631605D02*
X68716572Y-104988006D01*
X69160910Y-103895675D02*
X68672871Y-104853507D01*
X69370831Y-101280993D02*
X67781864Y-104399516D01*
X69569503Y-103093769D02*
X69410606Y-103405620D01*
X70261837Y-101734984D02*
X69370831Y-101280993D01*
X70261837Y-101734984D02*
X69819196Y-102603715D01*
D13*
%TO.C,C14*%
X184861252Y-118765000D02*
X184338748Y-118765000D01*
X184861252Y-120235000D02*
X184338748Y-120235000D01*
D10*
%TO.C,D4*%
X113433333Y-115700000D02*
X113433333Y-116700000D01*
X113433333Y-115700000D02*
X114408333Y-115700000D01*
X113433333Y-116700000D02*
X116933333Y-116700000D01*
X114958333Y-115700000D02*
X115308333Y-115700000D01*
X115858333Y-115700000D02*
X116933333Y-115700000D01*
X116633333Y-115600000D02*
X117033333Y-115600000D01*
X116633333Y-115650000D02*
X116633333Y-115600000D01*
X116933333Y-116700000D02*
X116933333Y-115700000D01*
X116983333Y-115650000D02*
X116633333Y-115650000D01*
X116983333Y-116000000D02*
X116983333Y-115650000D01*
X117033333Y-115600000D02*
X117033333Y-116000000D01*
X117033333Y-116000000D02*
X116983333Y-116000000D01*
D14*
%TO.C,kibuzzard-684F5906*%
G36*
X221321279Y-81580030D02*
G01*
X221392237Y-81645875D01*
X221415890Y-81755616D01*
X221400548Y-81856541D01*
X221354521Y-81925342D01*
X221275890Y-81964897D01*
X221162740Y-81978082D01*
X221107123Y-81978082D01*
X221107123Y-81573425D01*
X221203014Y-81558082D01*
X221321279Y-81580030D01*
G37*
G36*
X221310890Y-88766884D02*
G01*
X221383288Y-88812192D01*
X221426438Y-88890103D01*
X221440822Y-89003014D01*
X221425479Y-89120959D01*
X221379452Y-89198630D01*
X221296986Y-89241781D01*
X221172329Y-89256164D01*
X221097534Y-89256164D01*
X221097534Y-88767123D01*
X221208767Y-88751781D01*
X221310890Y-88766884D01*
G37*
G36*
X221305616Y-82156918D02*
G01*
X221387123Y-82204384D01*
X221434589Y-82286370D01*
X221450411Y-82405753D01*
X221435788Y-82523459D01*
X221391918Y-82604247D01*
X221318322Y-82650993D01*
X221214521Y-82666575D01*
X221107123Y-82651233D01*
X221107123Y-82141096D01*
X221187671Y-82141096D01*
X221305616Y-82156918D01*
G37*
G36*
X222298801Y-81972089D02*
G01*
X222356575Y-82028904D01*
X222388938Y-82137979D01*
X222399726Y-82313699D01*
X222388938Y-82489418D01*
X222356575Y-82598493D01*
X222298801Y-82655308D01*
X222211781Y-82674247D01*
X222124760Y-82655308D01*
X222066986Y-82598493D01*
X222034623Y-82489418D01*
X222023836Y-82313699D01*
X222034623Y-82137979D01*
X222066986Y-82028904D01*
X222124760Y-81972089D01*
X222211781Y-81953151D01*
X222298801Y-81972089D01*
G37*
G36*
X223257705Y-81972089D02*
G01*
X223315479Y-82028904D01*
X223347842Y-82137979D01*
X223358630Y-82313699D01*
X223347842Y-82489418D01*
X223315479Y-82598493D01*
X223257705Y-82655308D01*
X223170685Y-82674247D01*
X223083664Y-82655308D01*
X223025890Y-82598493D01*
X222993527Y-82489418D01*
X222982740Y-82313699D01*
X222993527Y-82137979D01*
X223025890Y-82028904D01*
X223083664Y-81972089D01*
X223170685Y-81953151D01*
X223257705Y-81972089D01*
G37*
G36*
X224484543Y-90803196D02*
G01*
X224484384Y-90803196D01*
X224263836Y-90803196D01*
X223141918Y-90803196D01*
X222618356Y-90803196D01*
X222618356Y-90004110D01*
X222346027Y-89290685D01*
X222614521Y-88604110D01*
X222392055Y-88604110D01*
X222215616Y-89141096D01*
X222211781Y-89141096D01*
X222037260Y-88604110D01*
X221809041Y-88604110D01*
X222077534Y-89290685D01*
X221803288Y-90004110D01*
X222029589Y-90004110D01*
X222204110Y-89444110D01*
X222207945Y-89444110D01*
X222384384Y-90004110D01*
X222618356Y-90004110D01*
X222618356Y-90803196D01*
X221688219Y-90803196D01*
X220815616Y-90803196D01*
X220815457Y-90803196D01*
X220815457Y-88623288D01*
X220882740Y-88623288D01*
X220882740Y-90004110D01*
X221097534Y-90004110D01*
X221097534Y-89423014D01*
X221172329Y-89423014D01*
X221288356Y-89460411D01*
X221325034Y-89514349D01*
X221356438Y-89601370D01*
X221467671Y-90004110D01*
X221688219Y-90004110D01*
X221569315Y-89612877D01*
X221507945Y-89462329D01*
X221435068Y-89367397D01*
X221435068Y-89363562D01*
X221529041Y-89308664D01*
X221596164Y-89230274D01*
X221636438Y-89128390D01*
X221649863Y-89003014D01*
X221638037Y-88871431D01*
X221602557Y-88765632D01*
X221543425Y-88685616D01*
X221458935Y-88629680D01*
X221360274Y-88599997D01*
X221347382Y-88596119D01*
X221208767Y-88584932D01*
X221098387Y-88589193D01*
X220989711Y-88601979D01*
X220882740Y-88623288D01*
X220815457Y-88623288D01*
X220815457Y-86206849D01*
X220859726Y-86206849D01*
X220859726Y-86373699D01*
X221145479Y-86373699D01*
X221145479Y-87606849D01*
X221360274Y-87606849D01*
X221803288Y-87606849D01*
X222029589Y-87606849D01*
X222204110Y-87046849D01*
X222207945Y-87046849D01*
X222384384Y-87606849D01*
X222618356Y-87606849D01*
X222346027Y-86893425D01*
X222614521Y-86206849D01*
X222392055Y-86206849D01*
X222215616Y-86743836D01*
X222211781Y-86743836D01*
X222183014Y-86655321D01*
X222037260Y-86206849D01*
X221809041Y-86206849D01*
X222077534Y-86893425D01*
X221803288Y-87606849D01*
X221360274Y-87606849D01*
X221360274Y-86373699D01*
X221646027Y-86373699D01*
X221646027Y-86206849D01*
X221375616Y-86206849D01*
X220859726Y-86206849D01*
X220815457Y-86206849D01*
X220815457Y-83809589D01*
X220815616Y-83809589D01*
X221126301Y-85209589D01*
X221375616Y-85209589D01*
X221611139Y-84154795D01*
X221847397Y-84154795D01*
X221867295Y-84290959D01*
X221926986Y-84404110D01*
X221992938Y-84470594D01*
X222084673Y-84534521D01*
X222202192Y-84595890D01*
X222284418Y-84645274D01*
X222339315Y-84701370D01*
X222370240Y-84769452D01*
X222380548Y-84854795D01*
X222367123Y-84944212D01*
X222326849Y-85009178D01*
X222262603Y-85048733D01*
X222177260Y-85061918D01*
X222064962Y-85048067D01*
X221958204Y-85006514D01*
X221856986Y-84937260D01*
X221856986Y-85136712D01*
X221955434Y-85187854D01*
X222064110Y-85218539D01*
X222183014Y-85228767D01*
X222331452Y-85213425D01*
X222446904Y-85167397D01*
X222529370Y-85090685D01*
X222578849Y-84983288D01*
X222595342Y-84845205D01*
X222574726Y-84697055D01*
X222512877Y-84578630D01*
X222442770Y-84510228D01*
X222342405Y-84443105D01*
X222211781Y-84377260D01*
X222126545Y-84319939D01*
X222075403Y-84242588D01*
X222060035Y-84154795D01*
X222806301Y-84154795D01*
X222826199Y-84290959D01*
X222885890Y-84404110D01*
X222951842Y-84470594D01*
X223043577Y-84534521D01*
X223161096Y-84595890D01*
X223243322Y-84645274D01*
X223298219Y-84701370D01*
X223329144Y-84769452D01*
X223339452Y-84854795D01*
X223326027Y-84944212D01*
X223285753Y-85009178D01*
X223221507Y-85048733D01*
X223136164Y-85061918D01*
X223023866Y-85048067D01*
X222917108Y-85006514D01*
X222815890Y-84937260D01*
X222815890Y-85136712D01*
X222914338Y-85187854D01*
X223023014Y-85218539D01*
X223141918Y-85228767D01*
X223290356Y-85213425D01*
X223405808Y-85167397D01*
X223488274Y-85090685D01*
X223537753Y-84983288D01*
X223554247Y-84845205D01*
X223533630Y-84697055D01*
X223471781Y-84578630D01*
X223401674Y-84510228D01*
X223301309Y-84443105D01*
X223170685Y-84377260D01*
X223085449Y-84319939D01*
X223034307Y-84242588D01*
X223017260Y-84145205D01*
X223030685Y-84066575D01*
X223070959Y-84007123D01*
X223134726Y-83969726D01*
X223218630Y-83957260D01*
X223367740Y-83977877D01*
X223515890Y-84039726D01*
X223515890Y-83847945D01*
X223412755Y-83815982D01*
X223305358Y-83796804D01*
X223193699Y-83790411D01*
X223170685Y-83792552D01*
X223079163Y-83801065D01*
X222983592Y-83833029D01*
X222906986Y-83886301D01*
X222831473Y-84001370D01*
X222806301Y-84154795D01*
X222060035Y-84154795D01*
X222058356Y-84145205D01*
X222071781Y-84066575D01*
X222112055Y-84007123D01*
X222175822Y-83969726D01*
X222259726Y-83957260D01*
X222408836Y-83977877D01*
X222556986Y-84039726D01*
X222556986Y-83847945D01*
X222453851Y-83815982D01*
X222346454Y-83796804D01*
X222234795Y-83790411D01*
X222211781Y-83792552D01*
X222120259Y-83801065D01*
X222024688Y-83833029D01*
X221948082Y-83886301D01*
X221872568Y-84001370D01*
X221847397Y-84154795D01*
X221611139Y-84154795D01*
X221688219Y-83809589D01*
X221475342Y-83809589D01*
X221256712Y-85017808D01*
X221254795Y-85017808D01*
X221214521Y-84795242D01*
X221036164Y-83809589D01*
X220815616Y-83809589D01*
X220815457Y-83809589D01*
X220815457Y-81431507D01*
X220892329Y-81431507D01*
X220892329Y-82793151D01*
X220998021Y-82814460D01*
X221105419Y-82827245D01*
X221214521Y-82831507D01*
X221350472Y-82819787D01*
X221461705Y-82784627D01*
X221548219Y-82726027D01*
X221610015Y-82643988D01*
X221647093Y-82538508D01*
X221659452Y-82409589D01*
X221645677Y-82313699D01*
X221809041Y-82313699D01*
X221820122Y-82478630D01*
X221853364Y-82610320D01*
X221908767Y-82708767D01*
X221986758Y-82776956D01*
X222087763Y-82817869D01*
X222211781Y-82831507D01*
X222335799Y-82817869D01*
X222436804Y-82776956D01*
X222514795Y-82708767D01*
X222570198Y-82610320D01*
X222603440Y-82478630D01*
X222614521Y-82313699D01*
X222767945Y-82313699D01*
X222779026Y-82478630D01*
X222812268Y-82610320D01*
X222867671Y-82708767D01*
X222945662Y-82776956D01*
X223046667Y-82817869D01*
X223170685Y-82831507D01*
X223294703Y-82817869D01*
X223395708Y-82776956D01*
X223473699Y-82708767D01*
X223529102Y-82610320D01*
X223562344Y-82478630D01*
X223573425Y-82313699D01*
X223562344Y-82148767D01*
X223529102Y-82017078D01*
X223473699Y-81918630D01*
X223399121Y-81853425D01*
X223755616Y-81853425D01*
X223755616Y-82008767D01*
X223953151Y-82008767D01*
X223953151Y-82524658D01*
X223970171Y-82673288D01*
X224021233Y-82766301D01*
X224115925Y-82815205D01*
X224263836Y-82831507D01*
X224369795Y-82825753D01*
X224465205Y-82808493D01*
X224465205Y-82633973D01*
X224383219Y-82655548D01*
X224302192Y-82662740D01*
X224187123Y-82631096D01*
X224162192Y-82486301D01*
X224162192Y-82008767D01*
X224484384Y-82008767D01*
X224484384Y-81853425D01*
X224162192Y-81853425D01*
X224162192Y-81489041D01*
X223953151Y-81489041D01*
X223953151Y-81853425D01*
X223755616Y-81853425D01*
X223399121Y-81853425D01*
X223395708Y-81850441D01*
X223294703Y-81809528D01*
X223262740Y-81806013D01*
X223170685Y-81795890D01*
X223046667Y-81809528D01*
X222945662Y-81850441D01*
X222867671Y-81918630D01*
X222812268Y-82017078D01*
X222779026Y-82148767D01*
X222767945Y-82313699D01*
X222614521Y-82313699D01*
X222603440Y-82148767D01*
X222570198Y-82017078D01*
X222514795Y-81918630D01*
X222436804Y-81850441D01*
X222335799Y-81809528D01*
X222303836Y-81806013D01*
X222211781Y-81795890D01*
X222087763Y-81809528D01*
X221986758Y-81850441D01*
X221908767Y-81918630D01*
X221853364Y-82017078D01*
X221820122Y-82148767D01*
X221809041Y-82313699D01*
X221645677Y-82313699D01*
X221640993Y-82281096D01*
X221585616Y-82171781D01*
X221502432Y-82091712D01*
X221400548Y-82050959D01*
X221400548Y-82049041D01*
X221490445Y-82009726D01*
X221560685Y-81941644D01*
X221605993Y-81850548D01*
X221621096Y-81742192D01*
X221604373Y-81616537D01*
X221554203Y-81518805D01*
X221470586Y-81448997D01*
X221375616Y-81415017D01*
X221353523Y-81407112D01*
X221203014Y-81393151D01*
X221044795Y-81402740D01*
X220892329Y-81431507D01*
X220815457Y-81431507D01*
X220815457Y-79015068D01*
X220815616Y-79015068D01*
X221126301Y-80415068D01*
X221375616Y-80415068D01*
X221536200Y-79695890D01*
X221818630Y-79695890D01*
X221826211Y-79868943D01*
X221848955Y-80018921D01*
X221886862Y-80145826D01*
X221939932Y-80249658D01*
X222008164Y-80330415D01*
X222091558Y-80388099D01*
X222190116Y-80422710D01*
X222303836Y-80434247D01*
X222431849Y-80422260D01*
X222547397Y-80386301D01*
X222547397Y-80209863D01*
X222438082Y-80254452D01*
X222336438Y-80269315D01*
X222242679Y-80253387D01*
X222165967Y-80205601D01*
X222106301Y-80125959D01*
X222063683Y-80014460D01*
X222038113Y-79871104D01*
X222029589Y-79695890D01*
X222777534Y-79695890D01*
X222785116Y-79868943D01*
X222807860Y-80018921D01*
X222845766Y-80145826D01*
X222898836Y-80249658D01*
X222967068Y-80330415D01*
X223050462Y-80388099D01*
X223149020Y-80422710D01*
X223262740Y-80434247D01*
X223390753Y-80422260D01*
X223506301Y-80386301D01*
X223506301Y-80209863D01*
X223396986Y-80254452D01*
X223295342Y-80269315D01*
X223201583Y-80253387D01*
X223124871Y-80205601D01*
X223065205Y-80125959D01*
X223022588Y-80014460D01*
X222997017Y-79871104D01*
X222988493Y-79695890D01*
X222996218Y-79533569D01*
X223019391Y-79400761D01*
X223058014Y-79297466D01*
X223112085Y-79223683D01*
X223181606Y-79179414D01*
X223266575Y-79164658D01*
X223310685Y-79172329D01*
X223310685Y-79471507D01*
X223515890Y-79471507D01*
X223515890Y-79038082D01*
X223393630Y-79006438D01*
X223256986Y-78995890D01*
X223144615Y-79006828D01*
X223047226Y-79039640D01*
X222964820Y-79094328D01*
X222897397Y-79170890D01*
X222844957Y-79269328D01*
X222807500Y-79389640D01*
X222785026Y-79531828D01*
X222777534Y-79695890D01*
X222029589Y-79695890D01*
X222037314Y-79533569D01*
X222060487Y-79400761D01*
X222099110Y-79297466D01*
X222153181Y-79223683D01*
X222222702Y-79179414D01*
X222307671Y-79164658D01*
X222351781Y-79172329D01*
X222351781Y-79471507D01*
X222556986Y-79471507D01*
X222556986Y-79038082D01*
X222434726Y-79006438D01*
X222298082Y-78995890D01*
X222185711Y-79006828D01*
X222088322Y-79039640D01*
X222005916Y-79094328D01*
X221938493Y-79170890D01*
X221886053Y-79269328D01*
X221848596Y-79389640D01*
X221826122Y-79531828D01*
X221818630Y-79695890D01*
X221536200Y-79695890D01*
X221688219Y-79015068D01*
X221475342Y-79015068D01*
X221256712Y-80223288D01*
X221254795Y-80223288D01*
X221036164Y-79015068D01*
X220815616Y-79015068D01*
X220815457Y-79015068D01*
X220815457Y-78196804D01*
X220815616Y-78196804D01*
X224484384Y-78196804D01*
X224484543Y-78196804D01*
X224484543Y-90803196D01*
G37*
D13*
%TO.C,C13*%
X188988748Y-72565000D02*
X189511252Y-72565000D01*
X188988748Y-74035000D02*
X189511252Y-74035000D01*
%TO.C,J8*%
X226490000Y-120215000D02*
X226490000Y-121165000D01*
X226490000Y-126235000D02*
X225000000Y-126235000D01*
X226490000Y-127185000D02*
X226490000Y-126235000D01*
X226940000Y-120215000D02*
X226490000Y-120215000D01*
X226940000Y-127185000D02*
X226490000Y-127185000D01*
X230460000Y-127185000D02*
X230910000Y-127185000D01*
X230910000Y-120215000D02*
X230460000Y-120215000D01*
X230910000Y-127185000D02*
X230910000Y-120215000D01*
%TO.C,U4*%
X193950000Y-101600000D02*
X193950000Y-101600000D01*
X193950000Y-102100000D02*
X193950000Y-101800000D01*
X193950000Y-103300000D02*
X193950000Y-103300000D01*
X193950000Y-103800000D02*
X193950000Y-103300000D01*
X194450000Y-101600000D02*
X194150000Y-101600000D01*
X194450000Y-103800000D02*
X193950000Y-103800000D01*
X195650000Y-101600000D02*
X196150000Y-101600000D01*
X195650000Y-103800000D02*
X195650000Y-103800000D01*
X196150000Y-101600000D02*
X196150000Y-102100000D01*
X196150000Y-102100000D02*
X196150000Y-102100000D01*
X196150000Y-103300000D02*
X196150000Y-103800000D01*
X196150000Y-103800000D02*
X195650000Y-103800000D01*
X193950000Y-101600000D02*
X193590000Y-101600000D01*
X193950000Y-101240000D01*
X193950000Y-101600000D01*
G36*
X193950000Y-101600000D02*
G01*
X193590000Y-101600000D01*
X193950000Y-101240000D01*
X193950000Y-101600000D01*
G37*
D10*
%TO.C,D5*%
X76828279Y-114106365D02*
X79918595Y-115749515D01*
X77297750Y-113223417D02*
X76828279Y-114106365D01*
X77297750Y-113223417D02*
X78158624Y-113681152D01*
X78644246Y-113939361D02*
X78953277Y-114103676D01*
X79438898Y-114361886D02*
X80388067Y-114866568D01*
X79918595Y-115749515D02*
X80388067Y-114866568D01*
X80146656Y-114681579D02*
X80170130Y-114637431D01*
X80170130Y-114637431D02*
X80523309Y-114825220D01*
X80291373Y-115154925D02*
X80455688Y-114845894D01*
X80335520Y-115178399D02*
X80291373Y-115154925D01*
X80455688Y-114845894D02*
X80146656Y-114681579D01*
X80523309Y-114825220D02*
X80335520Y-115178399D01*
D13*
%TO.C,J2*%
X74130000Y-101831482D02*
X75460000Y-101831482D01*
X74130000Y-103161482D02*
X74130000Y-101831482D01*
X74130000Y-104431482D02*
X74130000Y-109571482D01*
X74130000Y-104431482D02*
X76730000Y-104431482D01*
X74130000Y-109571482D02*
X79330000Y-109571482D01*
X76730000Y-101831482D02*
X79330000Y-101831482D01*
X76730000Y-104431482D02*
X76730000Y-101831482D01*
X79330000Y-101831482D02*
X79330000Y-109571482D01*
%TO.C,J4*%
X114450000Y-101831482D02*
X115780000Y-101831482D01*
X114450000Y-103161482D02*
X114450000Y-101831482D01*
X114450000Y-104431482D02*
X114450000Y-109571482D01*
X114450000Y-104431482D02*
X117050000Y-104431482D01*
X114450000Y-109571482D02*
X119650000Y-109571482D01*
X117050000Y-101831482D02*
X119650000Y-101831482D01*
X117050000Y-104431482D02*
X117050000Y-101831482D01*
X119650000Y-101831482D02*
X119650000Y-109571482D01*
%TO.C,C17*%
X197851248Y-99615000D02*
X198373752Y-99615000D01*
X197851248Y-101085000D02*
X198373752Y-101085000D01*
%TO.C,JP1*%
X224350000Y-99700000D02*
X227150000Y-99700000D01*
X224350000Y-101700000D02*
X224350000Y-99700000D01*
X227150000Y-99700000D02*
X227150000Y-101700000D01*
X227150000Y-101700000D02*
X224350000Y-101700000D01*
%TO.C,JP4*%
X224350000Y-98400000D02*
X224350000Y-97800000D01*
X225050000Y-97100000D02*
X226450000Y-97100000D01*
X226450000Y-99100000D02*
X225050000Y-99100000D01*
X227150000Y-97800000D02*
X227150000Y-98400000D01*
X224350000Y-97800000D02*
G75*
G02*
X225050000Y-97100000I699999J1D01*
G01*
X225050000Y-99100000D02*
G75*
G02*
X224350000Y-98400000I-1J699999D01*
G01*
X226450000Y-97100000D02*
G75*
G02*
X227150000Y-97800000I0J-700000D01*
G01*
X227150000Y-98400000D02*
G75*
G02*
X226450000Y-99100000I-700000J0D01*
G01*
%TO.C,C3*%
X231988748Y-106365000D02*
X232511252Y-106365000D01*
X231988748Y-107835000D02*
X232511252Y-107835000D01*
D10*
%TO.C,D2*%
X153780000Y-115700000D02*
X153780000Y-116700000D01*
X153780000Y-115700000D02*
X154755000Y-115700000D01*
X153780000Y-116700000D02*
X157280000Y-116700000D01*
X155305000Y-115700000D02*
X155655000Y-115700000D01*
X156205000Y-115700000D02*
X157280000Y-115700000D01*
X156980000Y-115600000D02*
X157380000Y-115600000D01*
X156980000Y-115650000D02*
X156980000Y-115600000D01*
X157280000Y-116700000D02*
X157280000Y-115700000D01*
X157330000Y-115650000D02*
X156980000Y-115650000D01*
X157330000Y-116000000D02*
X157330000Y-115650000D01*
X157380000Y-115600000D02*
X157380000Y-116000000D01*
X157380000Y-116000000D02*
X157330000Y-116000000D01*
%TO.C,D14*%
X216645710Y-72682107D02*
X217352817Y-73389214D01*
X216716421Y-72611396D02*
X216645710Y-72682107D01*
X217352817Y-73247793D02*
X216716421Y-72611396D01*
X217352817Y-73247793D02*
X217282106Y-73318503D01*
X217352817Y-73389214D02*
X217918503Y-72823528D01*
X217847792Y-72752818D02*
X217352817Y-73247793D01*
X217847792Y-72752818D02*
X217352817Y-73247793D01*
X217918503Y-72823528D02*
X217847792Y-72752818D01*
D14*
%TO.C,kibuzzard-684F57B2*%
G36*
X143069589Y-106579041D02*
G01*
X143051712Y-106647363D01*
X142998082Y-106696164D01*
X142908699Y-106725445D01*
X142783562Y-106735205D01*
X142650411Y-106723904D01*
X142563288Y-106690000D01*
X142515205Y-106631438D01*
X142499178Y-106546164D01*
X142509041Y-106455753D01*
X143031781Y-106455753D01*
X143069589Y-106579041D01*
G37*
G36*
X144298630Y-104828356D02*
G01*
X144298630Y-105444795D01*
X144298630Y-106809178D01*
X144298630Y-107261233D01*
X144298630Y-107918767D01*
X144298630Y-108485890D01*
X144298630Y-109170822D01*
X144296825Y-109244356D01*
X144291414Y-109317713D01*
X144282410Y-109390717D01*
X144269834Y-109463190D01*
X144253718Y-109534959D01*
X144234100Y-109605851D01*
X144211026Y-109675695D01*
X144184554Y-109744323D01*
X144154746Y-109811569D01*
X144121674Y-109877271D01*
X144085418Y-109941272D01*
X144046065Y-110003416D01*
X144003711Y-110063555D01*
X143958457Y-110121543D01*
X143910412Y-110177240D01*
X143859692Y-110230513D01*
X143806418Y-110281234D01*
X143750721Y-110329279D01*
X143692733Y-110374533D01*
X143632594Y-110416887D01*
X143570450Y-110456240D01*
X143506449Y-110492496D01*
X143440747Y-110525568D01*
X143373501Y-110555376D01*
X143304873Y-110581848D01*
X143235029Y-110604922D01*
X143164137Y-110624540D01*
X143092368Y-110640656D01*
X143019895Y-110653232D01*
X142946891Y-110662236D01*
X142873534Y-110667647D01*
X142800000Y-110669452D01*
X142726466Y-110667647D01*
X142653109Y-110662236D01*
X142580105Y-110653232D01*
X142507632Y-110640656D01*
X142435863Y-110624540D01*
X142364971Y-110604922D01*
X142295127Y-110581848D01*
X142226499Y-110555376D01*
X142159253Y-110525568D01*
X142093551Y-110492496D01*
X142029550Y-110456240D01*
X141967406Y-110416887D01*
X141907267Y-110374533D01*
X141849279Y-110329279D01*
X141793582Y-110281234D01*
X141740308Y-110230513D01*
X141689588Y-110177240D01*
X141641543Y-110121543D01*
X141596289Y-110063555D01*
X141553935Y-110003416D01*
X141514582Y-109941272D01*
X141478326Y-109877271D01*
X141445254Y-109811569D01*
X141415446Y-109744323D01*
X141388974Y-109675695D01*
X141365900Y-109605851D01*
X141346282Y-109534959D01*
X141330166Y-109463190D01*
X141317590Y-109390717D01*
X141308586Y-109317713D01*
X141303175Y-109244356D01*
X141301370Y-109170822D01*
X141301370Y-108485890D01*
X141301370Y-108301781D01*
X142035616Y-108301781D01*
X142035616Y-108485890D01*
X143235616Y-108485890D01*
X143235616Y-107918767D01*
X143092603Y-107918767D01*
X143092603Y-108301781D01*
X142035616Y-108301781D01*
X141301370Y-108301781D01*
X141301370Y-107663973D01*
X142380822Y-107663973D01*
X142513973Y-107663973D01*
X142513973Y-107445342D01*
X143235616Y-107445342D01*
X143235616Y-107261233D01*
X142380822Y-107261233D01*
X142380822Y-107478219D01*
X142380822Y-107663973D01*
X141301370Y-107663973D01*
X141301370Y-107261233D01*
X141986301Y-107261233D01*
X141986301Y-107478219D01*
X142191781Y-107478219D01*
X142191781Y-107261233D01*
X141986301Y-107261233D01*
X141301370Y-107261233D01*
X141301370Y-106537945D01*
X142364384Y-106537945D01*
X142375160Y-106659224D01*
X142407489Y-106755662D01*
X142461370Y-106827260D01*
X142540274Y-106876575D01*
X142647671Y-106906164D01*
X142783562Y-106916027D01*
X142911644Y-106907260D01*
X143016438Y-106880959D01*
X143097945Y-106837123D01*
X143156164Y-106775753D01*
X143191096Y-106696849D01*
X143202740Y-106600411D01*
X143194521Y-106525616D01*
X143169863Y-106455753D01*
X143194521Y-106455753D01*
X143312877Y-106478562D01*
X143401644Y-106546986D01*
X143442740Y-106616667D01*
X143467397Y-106704064D01*
X143475616Y-106809178D01*
X143613699Y-106809178D01*
X143606301Y-106689640D01*
X143584110Y-106584178D01*
X143547123Y-106492791D01*
X143495342Y-106415479D01*
X143406575Y-106337397D01*
X143298082Y-106290548D01*
X143169863Y-106274932D01*
X142400548Y-106274932D01*
X142373425Y-106399863D01*
X142364384Y-106537945D01*
X141301370Y-106537945D01*
X141301370Y-105888630D01*
X142002740Y-105888630D01*
X142002740Y-106069452D01*
X143235616Y-106069452D01*
X143235616Y-105888630D01*
X142564932Y-105888630D01*
X142515616Y-105821644D01*
X142499178Y-105745616D01*
X142540274Y-105645342D01*
X142603151Y-105625616D01*
X142709589Y-105619041D01*
X143235616Y-105620685D01*
X143235616Y-105444795D01*
X142663562Y-105444795D01*
X142526507Y-105460000D01*
X142434247Y-105505616D01*
X142381849Y-105584521D01*
X142364384Y-105699589D01*
X142376712Y-105796164D01*
X142413699Y-105888630D01*
X142002740Y-105888630D01*
X141301370Y-105888630D01*
X141301370Y-104915479D01*
X142101370Y-104915479D01*
X142101370Y-105094658D01*
X142413699Y-105094658D01*
X142413699Y-105263973D01*
X142546849Y-105263973D01*
X142546849Y-105094658D01*
X142989041Y-105094658D01*
X143116438Y-105080069D01*
X143196164Y-105036301D01*
X143238082Y-104955137D01*
X143252055Y-104828356D01*
X143247123Y-104737534D01*
X143232329Y-104655753D01*
X143082740Y-104655753D01*
X143101233Y-104726027D01*
X143107397Y-104795479D01*
X143080274Y-104894110D01*
X142956164Y-104915479D01*
X142546849Y-104915479D01*
X142546849Y-104639315D01*
X142413699Y-104639315D01*
X142413699Y-104915479D01*
X142101370Y-104915479D01*
X141301370Y-104915479D01*
X141301370Y-104114932D01*
X142364384Y-104114932D01*
X142379795Y-104248904D01*
X142426027Y-104345069D01*
X142501027Y-104403014D01*
X142602740Y-104422329D01*
X142697466Y-104405890D01*
X142771233Y-104356575D01*
X142828562Y-104268219D01*
X142873973Y-104134658D01*
X142923288Y-104026164D01*
X143005479Y-103996575D01*
X143091781Y-104034384D01*
X143118904Y-104159315D01*
X143102877Y-104283014D01*
X143054795Y-104414110D01*
X143199452Y-104414110D01*
X143228676Y-104326438D01*
X143246210Y-104232192D01*
X143252055Y-104131370D01*
X143236027Y-103997192D01*
X143187945Y-103897123D01*
X143110274Y-103834863D01*
X143005479Y-103814110D01*
X142900274Y-103829932D01*
X142824658Y-103877397D01*
X142768767Y-103968425D01*
X142722740Y-104114932D01*
X142676712Y-104212740D01*
X142602740Y-104241507D01*
X142522603Y-104205753D01*
X142495890Y-104098493D01*
X142506164Y-103973562D01*
X142536986Y-103842055D01*
X142400548Y-103842055D01*
X142380457Y-103927900D01*
X142368402Y-104018858D01*
X142364384Y-104114932D01*
X141301370Y-104114932D01*
X141301370Y-103814110D01*
X141301370Y-103129178D01*
X141303175Y-103055644D01*
X141308586Y-102982287D01*
X141317590Y-102909283D01*
X141330166Y-102836810D01*
X141346282Y-102765041D01*
X141365900Y-102694149D01*
X141388974Y-102624305D01*
X141415446Y-102555677D01*
X141445254Y-102488431D01*
X141478326Y-102422729D01*
X141514582Y-102358728D01*
X141553935Y-102296584D01*
X141596289Y-102236445D01*
X141641543Y-102178457D01*
X141689588Y-102122760D01*
X141740308Y-102069487D01*
X141793582Y-102018766D01*
X141849279Y-101970721D01*
X141907267Y-101925467D01*
X141967406Y-101883113D01*
X142029550Y-101843760D01*
X142093551Y-101807504D01*
X142159253Y-101774432D01*
X142226499Y-101744624D01*
X142295127Y-101718152D01*
X142364971Y-101695078D01*
X142435863Y-101675460D01*
X142507632Y-101659344D01*
X142580105Y-101646768D01*
X142653109Y-101637764D01*
X142726466Y-101632353D01*
X142800000Y-101630548D01*
X142873534Y-101632353D01*
X142946891Y-101637764D01*
X143019895Y-101646768D01*
X143092368Y-101659344D01*
X143164137Y-101675460D01*
X143235029Y-101695078D01*
X143304873Y-101718152D01*
X143373501Y-101744624D01*
X143440747Y-101774432D01*
X143506449Y-101807504D01*
X143570450Y-101843760D01*
X143632594Y-101883113D01*
X143692733Y-101925467D01*
X143750721Y-101970721D01*
X143806418Y-102018766D01*
X143859692Y-102069487D01*
X143910412Y-102122760D01*
X143958457Y-102178457D01*
X144003711Y-102236445D01*
X144046065Y-102296584D01*
X144085418Y-102358728D01*
X144121674Y-102422729D01*
X144154746Y-102488431D01*
X144184554Y-102555677D01*
X144211026Y-102624305D01*
X144234100Y-102694149D01*
X144253718Y-102765041D01*
X144269834Y-102836810D01*
X144282410Y-102909283D01*
X144291414Y-102982287D01*
X144296825Y-103055644D01*
X144298630Y-103129178D01*
X144298630Y-103814110D01*
X144298630Y-104131370D01*
X144298630Y-104828356D01*
G37*
D10*
%TO.C,D7*%
X93780000Y-115800000D02*
X93780000Y-116800000D01*
X93780000Y-115800000D02*
X94755000Y-115800000D01*
X93780000Y-116800000D02*
X97280000Y-116800000D01*
X95305000Y-115800000D02*
X95655000Y-115800000D01*
X96205000Y-115800000D02*
X97280000Y-115800000D01*
X96980000Y-115700000D02*
X97380000Y-115700000D01*
X96980000Y-115750000D02*
X96980000Y-115700000D01*
X97280000Y-116800000D02*
X97280000Y-115800000D01*
X97330000Y-115750000D02*
X96980000Y-115750000D01*
X97330000Y-116100000D02*
X97330000Y-115750000D01*
X97380000Y-115700000D02*
X97380000Y-116100000D01*
X97380000Y-116100000D02*
X97330000Y-116100000D01*
D13*
%TO.C,R6*%
X206460436Y-99665000D02*
X206914564Y-99665000D01*
X206460436Y-101135000D02*
X206914564Y-101135000D01*
%TO.C,C1*%
X188888748Y-75965000D02*
X189411252Y-75965000D01*
X188888748Y-77435000D02*
X189411252Y-77435000D01*
%TO.C,R2*%
X191865000Y-118872936D02*
X191865000Y-119327064D01*
X193335000Y-118872936D02*
X193335000Y-119327064D01*
%TO.C,C20*%
X188565000Y-124438748D02*
X188565000Y-124961252D01*
X190035000Y-124438748D02*
X190035000Y-124961252D01*
D12*
%TO.C,SW3*%
X144903331Y-105408449D02*
X144903331Y-104208449D01*
X144903331Y-107808449D02*
X144903331Y-106608449D01*
X146103331Y-104208449D02*
X146903331Y-104208449D01*
X146903331Y-107808449D02*
X146103331Y-107808449D01*
X148103331Y-104208449D02*
X148103331Y-105408449D01*
X148103331Y-106608449D02*
X148103331Y-107808449D01*
D13*
%TO.C,U6*%
X186162500Y-120865000D02*
X185562500Y-120865000D01*
X186162500Y-120865000D02*
X186762500Y-120865000D01*
X186162500Y-122735000D02*
X185562500Y-122735000D01*
X186162500Y-122735000D02*
X186762500Y-122735000D01*
X184852500Y-121300000D02*
X184522500Y-121540000D01*
X184522500Y-121060000D01*
X184852500Y-121300000D01*
G36*
X184852500Y-121300000D02*
G01*
X184522500Y-121540000D01*
X184522500Y-121060000D01*
X184852500Y-121300000D01*
G37*
%TO.C,C9*%
X184861252Y-116565000D02*
X184338748Y-116565000D01*
X184861252Y-118035000D02*
X184338748Y-118035000D01*
D10*
%TO.C,D9*%
X76623707Y-96323464D02*
X77093179Y-97206412D01*
X76864042Y-96988475D02*
X76908190Y-96965001D01*
X76908190Y-96965001D02*
X77072505Y-97274033D01*
X77051831Y-97341654D02*
X76864042Y-96988475D01*
X77072505Y-97274033D02*
X77381537Y-97109718D01*
X77381537Y-97109718D02*
X77405010Y-97153865D01*
X77405010Y-97153865D02*
X77051831Y-97341654D01*
X78042347Y-96701730D02*
X77093179Y-97206412D01*
X78837000Y-96279206D02*
X78527969Y-96443521D01*
X79714024Y-94680314D02*
X76623707Y-96323464D01*
X80183495Y-95563262D02*
X79322621Y-96020996D01*
X80183495Y-95563262D02*
X79714024Y-94680314D01*
D13*
%TO.C,C2*%
X231988748Y-103065000D02*
X232511252Y-103065000D01*
X231988748Y-104535000D02*
X232511252Y-104535000D01*
%TO.C,U3*%
X129490000Y-102790000D02*
X129840000Y-102790000D01*
X129490000Y-103140000D02*
X129490000Y-102790000D01*
X129840000Y-107010000D02*
X129730000Y-107010000D01*
X133710000Y-102790000D02*
X133360000Y-102790000D01*
X133710000Y-103140000D02*
X133710000Y-102790000D01*
X133710000Y-106660000D02*
X133710000Y-107010000D01*
X133710000Y-107010000D02*
X133360000Y-107010000D01*
X129490000Y-107010000D02*
X129160000Y-107250000D01*
X129160000Y-106770000D01*
X129490000Y-107010000D01*
G36*
X129490000Y-107010000D02*
G01*
X129160000Y-107250000D01*
X129160000Y-106770000D01*
X129490000Y-107010000D01*
G37*
%TO.C,C16*%
X188738748Y-85365000D02*
X189261252Y-85365000D01*
X188738748Y-86835000D02*
X189261252Y-86835000D01*
%TO.C,C5*%
X123985000Y-100591252D02*
X123985000Y-100068748D01*
X125455000Y-100591252D02*
X125455000Y-100068748D01*
%TO.C,L1*%
X183100000Y-123090000D02*
X187100000Y-123090000D01*
X187100000Y-127310000D02*
X183100000Y-127310000D01*
%TO.C,R3*%
X187665000Y-118872936D02*
X187665000Y-119327064D01*
X189135000Y-118872936D02*
X189135000Y-119327064D01*
D10*
%TO.C,D11*%
X114000000Y-94900000D02*
X114050000Y-94900000D01*
X114000000Y-95300000D02*
X114000000Y-94900000D01*
X114050000Y-94900000D02*
X114050000Y-95250000D01*
X114050000Y-95250000D02*
X114400000Y-95250000D01*
X114100000Y-94200000D02*
X114100000Y-95200000D01*
X114400000Y-95250000D02*
X114400000Y-95300000D01*
X114400000Y-95300000D02*
X114000000Y-95300000D01*
X115175000Y-95200000D02*
X114100000Y-95200000D01*
X116075000Y-95200000D02*
X115725000Y-95200000D01*
X117600000Y-94200000D02*
X114100000Y-94200000D01*
X117600000Y-95200000D02*
X116625000Y-95200000D01*
X117600000Y-95200000D02*
X117600000Y-94200000D01*
D13*
%TO.C,C18*%
X197851248Y-106515000D02*
X198373752Y-106515000D01*
X197851248Y-107985000D02*
X198373752Y-107985000D01*
%TO.C,Q1*%
X206300000Y-117677500D02*
X205650000Y-117677500D01*
X206300000Y-117677500D02*
X206950000Y-117677500D01*
X206300000Y-120797500D02*
X205650000Y-120797500D01*
X206300000Y-120797500D02*
X206950000Y-120797500D01*
X205137500Y-117727500D02*
X204897500Y-117397500D01*
X205377500Y-117397500D01*
X205137500Y-117727500D01*
G36*
X205137500Y-117727500D02*
G01*
X204897500Y-117397500D01*
X205377500Y-117397500D01*
X205137500Y-117727500D01*
G37*
%TO.C,J9*%
X240570000Y-101930000D02*
X241900000Y-101930000D01*
X240570000Y-103260000D02*
X240570000Y-101930000D01*
X240570000Y-104530000D02*
X240570000Y-109670000D01*
X240570000Y-104530000D02*
X243230000Y-104530000D01*
X240570000Y-109670000D02*
X243230000Y-109670000D01*
X243230000Y-104530000D02*
X243230000Y-109670000D01*
%TO.C,C6*%
X136938748Y-99865000D02*
X137461252Y-99865000D01*
X136938748Y-101335000D02*
X137461252Y-101335000D01*
D10*
%TO.C,D6*%
X67503944Y-106689585D02*
X69092912Y-109808107D01*
X68394952Y-106235594D02*
X67503944Y-106689585D01*
X68394952Y-106235594D02*
X68837592Y-107104325D01*
X69087288Y-107594380D02*
X69246185Y-107906231D01*
X69092912Y-109808107D02*
X69983918Y-109354117D01*
X69495878Y-108396285D02*
X69983918Y-109354117D01*
X69739316Y-109534864D02*
X70051168Y-109375968D01*
X69762015Y-109579414D02*
X69739316Y-109534864D01*
X69892271Y-109064116D02*
X69936823Y-109041416D01*
X69936823Y-109041416D02*
X70118418Y-109397818D01*
X70051168Y-109375968D02*
X69892271Y-109064116D01*
X70118418Y-109397818D02*
X69762015Y-109579414D01*
%TO.C,D13*%
X153700000Y-94900000D02*
X153750000Y-94900000D01*
X153700000Y-95300000D02*
X153700000Y-94900000D01*
X153750000Y-94900000D02*
X153750000Y-95250000D01*
X153750000Y-95250000D02*
X154100000Y-95250000D01*
X153800000Y-94200000D02*
X153800000Y-95200000D01*
X154100000Y-95250000D02*
X154100000Y-95300000D01*
X154100000Y-95300000D02*
X153700000Y-95300000D01*
X154875000Y-95200000D02*
X153800000Y-95200000D01*
X155775000Y-95200000D02*
X155425000Y-95200000D01*
X157300000Y-94200000D02*
X153800000Y-94200000D01*
X157300000Y-95200000D02*
X156325000Y-95200000D01*
X157300000Y-95200000D02*
X157300000Y-94200000D01*
D13*
%TO.C,C12*%
X188988748Y-69555000D02*
X189511252Y-69555000D01*
X188988748Y-71025000D02*
X189511252Y-71025000D01*
%TD*%
M02*
