%TF.GenerationSoftware,KiCad,Pcbnew,9.0.2*%
%TF.CreationDate,2025-07-07T16:25:28-05:00*%
%TF.ProjectId,Neoswordkicad,4e656f73-776f-4726-946b-696361642e6b,rev?*%
%TF.SameCoordinates,Original*%
%TF.FileFunction,Profile,NP*%
%FSLAX46Y46*%
G04 Gerber Fmt 4.6, Leading zero omitted, Abs format (unit mm)*
G04 Created by KiCad (PCBNEW 9.0.2) date 2025-07-07 16:25:28*
%MOMM*%
%LPD*%
G01*
G04 APERTURE LIST*
%TA.AperFunction,Profile*%
%ADD10C,0.150000*%
%TD*%
G04 APERTURE END LIST*
D10*
X211564143Y-67132414D02*
X211827865Y-67139365D01*
X212089561Y-67160074D01*
X212348744Y-67194324D01*
X212604928Y-67241902D01*
X212857628Y-67302591D01*
X213106357Y-67376177D01*
X213350628Y-67462443D01*
X213589957Y-67561174D01*
X213823857Y-67672155D01*
X214051842Y-67795170D01*
X214273425Y-67930004D01*
X214488120Y-68076441D01*
X214695442Y-68234267D01*
X214894905Y-68403265D01*
X215086021Y-68583220D01*
X215268306Y-68773917D01*
X220115886Y-74120436D01*
X220845030Y-74883229D01*
X221609500Y-75603054D01*
X222407352Y-76279050D01*
X223236642Y-76910356D01*
X224095423Y-77496109D01*
X224981754Y-78035448D01*
X225893687Y-78527511D01*
X226829280Y-78971437D01*
X227786587Y-79366363D01*
X228763664Y-79711428D01*
X229758566Y-80005770D01*
X230769350Y-80248527D01*
X231794069Y-80438838D01*
X232830780Y-80575841D01*
X233877538Y-80658675D01*
X234932399Y-80686476D01*
X239085231Y-80686476D01*
X239085231Y-90686480D01*
X259085231Y-90686480D01*
X259085231Y-120686480D01*
X239085231Y-120686480D01*
X239085231Y-130686480D01*
X234932399Y-130686480D01*
X233877533Y-130714283D01*
X232830770Y-130797117D01*
X231794055Y-130934121D01*
X230769332Y-131124432D01*
X229758546Y-131367189D01*
X228763641Y-131661531D01*
X227786562Y-132006595D01*
X226829253Y-132401521D01*
X225893659Y-132845445D01*
X224981725Y-133337507D01*
X224095394Y-133876845D01*
X223236611Y-134462596D01*
X222407322Y-135093900D01*
X221609470Y-135769895D01*
X220844999Y-136489718D01*
X220115855Y-137252508D01*
X215268275Y-142599032D01*
X215085991Y-142789732D01*
X214894874Y-142969691D01*
X214695412Y-143138692D01*
X214488090Y-143296521D01*
X214273395Y-143442961D01*
X214051812Y-143577798D01*
X213823829Y-143700817D01*
X213589931Y-143811800D01*
X213350603Y-143910534D01*
X213106334Y-143996803D01*
X212857607Y-144070391D01*
X212604910Y-144131083D01*
X212348730Y-144178663D01*
X212089551Y-144212916D01*
X211827860Y-144233627D01*
X211564143Y-144240580D01*
X191564143Y-144240542D01*
X191386848Y-144237398D01*
X191210167Y-144227998D01*
X191034257Y-144212386D01*
X190859278Y-144190610D01*
X190685386Y-144162713D01*
X190512741Y-144128744D01*
X190341501Y-144088747D01*
X190171823Y-144042768D01*
X190003865Y-143990853D01*
X189837787Y-143933048D01*
X189673746Y-143869398D01*
X189511899Y-143799950D01*
X189352406Y-143724750D01*
X189195425Y-143643842D01*
X189041113Y-143557274D01*
X188889629Y-143465090D01*
X170898204Y-132074778D01*
X170292264Y-131706044D01*
X169675013Y-131359771D01*
X169047085Y-131036141D01*
X168409110Y-130735339D01*
X167761722Y-130457548D01*
X167105552Y-130202950D01*
X166441234Y-129971730D01*
X165769399Y-129764070D01*
X165090680Y-129580155D01*
X164405709Y-129420166D01*
X163715119Y-129284289D01*
X163019541Y-129172705D01*
X162319609Y-129085599D01*
X161615954Y-129023154D01*
X160909210Y-128985553D01*
X160200007Y-128972979D01*
X98691875Y-128972960D01*
X96674340Y-128941658D01*
X94662153Y-128847988D01*
X92656708Y-128692301D01*
X90659400Y-128474950D01*
X88671627Y-128196287D01*
X86694783Y-127856665D01*
X84730264Y-127456434D01*
X82779466Y-126995949D01*
X80843785Y-126475560D01*
X78924616Y-125895621D01*
X77023356Y-125256482D01*
X75141399Y-124558497D01*
X73280143Y-123802018D01*
X71440982Y-122987397D01*
X69625312Y-122114986D01*
X67834529Y-121185137D01*
X43435634Y-108031782D01*
X43355742Y-107986935D01*
X43277791Y-107939600D01*
X43201821Y-107889842D01*
X43127870Y-107837727D01*
X43055978Y-107783319D01*
X42986183Y-107726685D01*
X42918525Y-107667889D01*
X42853042Y-107606996D01*
X42789773Y-107544073D01*
X42728758Y-107479184D01*
X42670035Y-107412396D01*
X42613643Y-107343772D01*
X42559622Y-107273378D01*
X42508010Y-107201280D01*
X42458847Y-107127544D01*
X42412171Y-107052233D01*
X42368022Y-106975414D01*
X42326438Y-106897152D01*
X42287459Y-106817513D01*
X42251122Y-106736561D01*
X42217469Y-106654362D01*
X42186536Y-106570982D01*
X42158364Y-106486484D01*
X42132992Y-106400936D01*
X42110458Y-106314402D01*
X42090801Y-106226948D01*
X42074061Y-106138638D01*
X42060277Y-106049538D01*
X42049486Y-105959715D01*
X42041730Y-105869231D01*
X42037045Y-105778154D01*
X42035472Y-105686549D01*
X42041712Y-105503865D01*
X42060242Y-105323556D01*
X42090750Y-105146145D01*
X42132924Y-104972152D01*
X42186452Y-104802102D01*
X42251022Y-104636516D01*
X42326322Y-104475917D01*
X42412040Y-104320829D01*
X42507864Y-104171773D01*
X42613483Y-104029271D01*
X42728584Y-103893847D01*
X42852855Y-103766024D01*
X42985985Y-103646323D01*
X43127661Y-103535267D01*
X43277572Y-103433379D01*
X43435405Y-103341181D01*
X69635371Y-89216910D01*
X71202872Y-88402996D01*
X72792157Y-87639358D01*
X74402004Y-86926303D01*
X76031192Y-86264141D01*
X77678499Y-85653178D01*
X79342705Y-85093724D01*
X81022586Y-84586087D01*
X82716922Y-84130575D01*
X84424491Y-83727496D01*
X86144073Y-83377159D01*
X87874444Y-83079872D01*
X89614384Y-82835944D01*
X91362672Y-82645682D01*
X93118086Y-82509394D01*
X94879403Y-82427390D01*
X96645404Y-82399977D01*
X160200000Y-82400000D01*
X160909204Y-82387424D01*
X161615950Y-82349821D01*
X162319606Y-82287374D01*
X163019540Y-82200267D01*
X163715119Y-82088681D01*
X164405711Y-81952802D01*
X165090683Y-81792812D01*
X165769404Y-81608894D01*
X166441239Y-81401233D01*
X167105558Y-81170011D01*
X167761728Y-80915411D01*
X168409116Y-80637617D01*
X169047090Y-80336813D01*
X169675018Y-80013182D01*
X170292266Y-79666906D01*
X170898204Y-79298170D01*
X188889598Y-67907874D01*
X189041079Y-67815688D01*
X189195389Y-67729118D01*
X189352368Y-67648209D01*
X189511858Y-67573006D01*
X189673702Y-67503556D01*
X189837742Y-67439904D01*
X190003819Y-67382097D01*
X190171775Y-67330180D01*
X190341452Y-67284198D01*
X190512693Y-67244198D01*
X190685339Y-67210226D01*
X190859232Y-67182327D01*
X191034214Y-67160548D01*
X191210127Y-67144934D01*
X191386812Y-67135530D01*
X191564113Y-67132384D01*
X211564143Y-67132414D01*
M02*
