%TF.GenerationSoftware,KiCad,Pcbnew,9.0.2*%
%TF.CreationDate,2025-07-07T16:25:28-05:00*%
%TF.ProjectId,Neoswordkicad,4e656f73-776f-4726-946b-696361642e6b,rev?*%
%TF.SameCoordinates,Original*%
%TF.FileFunction,Soldermask,Bot*%
%TF.FilePolarity,Negative*%
%FSLAX46Y46*%
G04 Gerber Fmt 4.6, Leading zero omitted, Abs format (unit mm)*
G04 Created by KiCad (PCBNEW 9.0.2) date 2025-07-07 16:25:28*
%MOMM*%
%LPD*%
G01*
G04 APERTURE LIST*
G04 Aperture macros list*
%AMHorizOval*
0 Thick line with rounded ends*
0 $1 width*
0 $2 $3 position (X,Y) of the first rounded end (center of the circle)*
0 $4 $5 position (X,Y) of the second rounded end (center of the circle)*
0 Add line between two ends*
20,1,$1,$2,$3,$4,$5,0*
0 Add two circle primitives to create the rounded ends*
1,1,$1,$2,$3*
1,1,$1,$4,$5*%
G04 Aperture macros list end*
%ADD10C,0.650000*%
%ADD11HorizOval,1.000000X-0.295515X0.463865X0.295515X-0.463865X0*%
%ADD12HorizOval,1.000000X-0.214920X0.337357X0.214920X-0.337357X0*%
%ADD13C,6.200000*%
%ADD14R,1.700000X1.700000*%
%ADD15O,1.700000X1.700000*%
%ADD16C,5.600000*%
%ADD17C,3.200000*%
%ADD18R,0.850000X0.850000*%
%ADD19O,0.850000X0.850000*%
%ADD20C,0.900000*%
G04 APERTURE END LIST*
D10*
%TO.C,J11*%
X184025050Y-77881807D03*
X179150248Y-80987399D03*
D11*
X185499750Y-77535165D03*
D12*
X183269956Y-74035092D03*
X175983055Y-78677358D03*
D11*
X178212848Y-82177433D03*
%TD*%
D13*
%TO.C,H4*%
X84400000Y-105525000D03*
%TD*%
D14*
%TO.C,J10*%
X219300000Y-79200000D03*
D15*
X219300000Y-81740000D03*
X219300000Y-84280000D03*
X219300000Y-86820000D03*
X219300000Y-89360000D03*
%TD*%
D14*
%TO.C,J7*%
X165600000Y-103161482D03*
D15*
X168140000Y-103161482D03*
X165600000Y-105701482D03*
X168140000Y-105701482D03*
X165600000Y-108241482D03*
X168140000Y-108241482D03*
%TD*%
D16*
%TO.C,H1*%
X248800000Y-94400000D03*
%TD*%
D17*
%TO.C,H3*%
X255400000Y-105686482D03*
%TD*%
D18*
%TO.C,J5*%
X215300000Y-82500000D03*
D19*
X215300000Y-81500000D03*
X215300000Y-80500000D03*
X215300000Y-79500000D03*
X215300000Y-78500000D03*
X215300000Y-77500000D03*
X215300000Y-76500000D03*
X215300000Y-75500000D03*
%TD*%
D14*
%TO.C,J2*%
X75460000Y-103161482D03*
D15*
X78000000Y-103161482D03*
X75460000Y-105701482D03*
X78000000Y-105701482D03*
X75460000Y-108241482D03*
X78000000Y-108241482D03*
%TD*%
D14*
%TO.C,J4*%
X115780000Y-103161482D03*
D15*
X118320000Y-103161482D03*
X115780000Y-105701482D03*
X118320000Y-105701482D03*
X115780000Y-108241482D03*
X118320000Y-108241482D03*
%TD*%
D16*
%TO.C,H2*%
X248800000Y-116800000D03*
%TD*%
D20*
%TO.C,SW5*%
X202305000Y-142175000D03*
X199305000Y-142175000D03*
%TD*%
D14*
%TO.C,J9*%
X241900000Y-103260000D03*
D15*
X241900000Y-105800000D03*
X241900000Y-108340000D03*
%TD*%
D13*
%TO.C,H5*%
X179750000Y-105700000D03*
%TD*%
M02*
