<?xml version="1.0" encoding="UTF-8" standalone="no"?>
<!-- Created with Inkscape (http://www.inkscape.org/) -->

<svg
   xmlns:dc="http://purl.org/dc/elements/1.1/"
   xmlns:cc="http://creativecommons.org/ns#"
   xmlns:rdf="http://www.w3.org/1999/02/22-rdf-syntax-ns#"
   xmlns:svg="http://www.w3.org/2000/svg"
   xmlns="http://www.w3.org/2000/svg"
   xmlns:sodipodi="http://sodipodi.sourceforge.net/DTD/sodipodi-0.dtd"
   xmlns:inkscape="http://www.inkscape.org/namespaces/inkscape"
   version="1.1"
   id="svg936"
   width="50.0mm"
   height="50.0mm"
   viewBox="0 0 50.0 50.0"
   sodipodi:docname="dumpsterFire.svg"
   inkscape:version="0.92.4 5da689c313, 2019-01-14">
  <metadata
     id="metadata942">
    <rdf:RDF>
      <cc:Work
         rdf:about="">
        <dc:format>image/svg+xml</dc:format>
        <dc:type
           rdf:resource="http://purl.org/dc/dcmitype/StillImage" />
        <dc:title />
      </cc:Work>
    </rdf:RDF>
  </metadata>
  <defs
     id="defs940" />
  <sodipodi:namedview
     pagecolor="#ffffff"
     bordercolor="#666666"
     borderopacity="1"
     objecttolerance="5"
     gridtolerance="10"
     guidetolerance="10"
     inkscape:pageopacity="0"
     inkscape:pageshadow="2"
     inkscape:window-width="1920"
     inkscape:window-height="1019"
     id="namedview938"
     showgrid="false"
     inkscape:zoom="4.6516293"
     inkscape:cx="60.232985"
     inkscape:cy="98.253083"
     inkscape:window-x="0"
     inkscape:window-y="0"
     inkscape:window-maximized="1"
     inkscape:current-layer="g1621"
     borderlayer="true"
     inkscape:document-units="mm">
    <inkscape:grid
       spacingx="2.54"
       spacingy="2.54"
       empspacing="1"
       type="xygrid"
       units="mm"
       id="grid1603" />
  </sodipodi:namedview>
  <g
     id="g1609"
     sodipodi:insensitive="true"
     inkscape:groupmode="layer"
     inkscape:label="[fixed] BG">
    <rect
       id="rect1607"
       style="stroke:none;fill-opacity:1;fill:#FFFFFF"
       height="50.0"
       width="50.0"
       y="0"
       x="0" />
  </g>
  <g
     id="g1611"
     inkscape:groupmode="layer"
     inkscape:label="Edge.Cuts">
    <path
       sodipodi:nodetypes="ccccccccccccccccccscccccscccccccccccccc"
       inkscape:connector-curvature="0"
       id="path1640"
       d="M25.446561 46.580107L6.8540052 41.8662L6.8072401 37.898797L7.0938077 37.843497L6.9279002 34.987872L5.2989889 34.605782L5.349264 30.453065L6.8567717 29.820002L6.8567717 24.050689L11.372213 19.302062L10.768913 18.658542L11.743362 17.695777L18.003491 18.382029L18.6541907031 17.3217586562L19.325496375 16.30270025L20.68315 14.294668L20.7797127969 13.9913192656L20.829829875 13.6844870625L20.8409010156 13.3747263906L20.820326 13.06259225L20.7755046094 12.7486396406L20.713836625 12.4334235625L20.56956 11.801421L20.8240596426 11.8033531777L21.0778197031 11.8208149844L21.583270375 11.899194125L22.0862106094 12.0302917031L22.586939 12.207841L22.6488412773 11.9294997937L22.6806817969 11.6686261857L22.6854990898 11.4236202548L22.6663316875 11.1928820797L22.6262181211 10.9748117391L22.5681969219 10.7678093119L22.4953066211 10.5702748768L22.41058575 10.3806085125L22.2178064219 10.0184803115L22.0141671875 9.66862533906L21.8239762969 9.3182442252L21.671542 8.9545376L22.0006622676 8.85945340176L22.3432905156 8.78688252656L22.7018022871 8.74078421621L23.078573125 8.7251177125L23.4759785723 8.74384225723L23.8963941719 8.80091709219L24.3421954668 8.90030145918L24.815758 9.0459546L25.0901864358 8.42877596855L25.3983212207 7.85163411719L25.7364455085 7.3127316416L26.1008424531 6.8102711375L26.4877952083 6.34245520059L26.8935869277 5.90748642656L27.3145007654 5.50356741113L27.746819875 5.12890075L28.1868274104 4.78168903887L28.6308065254 4.46013487344L29.0750403738 4.16244084941L29.5158121094 3.8868095625L30.3721018574 3.39454558281L31.169941 2.9689637L31.86854 2.61301546094L32.1748643359 2.47308471816L32.45807925 2.3630203875L32.7223402578 2.28620058965L32.971802875 2.24600344531L33.2106226172 2.2458070752L33.442955 2.2889896L33.2465354517 2.71738775361L33.0958067383 3.13028366328L32.9865181323 3.52911953975L32.9144189062 3.91533759375L32.8752583325 4.29038003604L32.8647856836 4.65568907734L32.8787502319 5.01270692842L32.91290125 5.3628758L33.0247597852 6.04843544766L33.1663554687 6.72390570625L33.3036824805 7.40082426172L33.3601184155 7.74343217764L33.402735 8.0907288L33.5888243438 7.96988637188L33.759354 7.84665015L33.8617661133 7.7876700832L33.9878669063 7.73233442813L34.1468492461 7.68205747148L34.347906 7.6382535L34.4955210049 8.11587009583L34.6645901641 8.57816230566L34.8532077568 9.02649135681L35.0594680625 9.46221847656L35.2814653604 9.88670489221L35.5172939297 10.3013118311L36.022822 11.1063321875L36.5608065078 11.8881693643L37.1160016875 12.6577131797L37.6731617734 13.4258534521L38.217041 14.20348L38.3374851504 14.1104371113L38.4454532031 14.0116360156L38.659955625 13.813372125L38.7844872988 13.722215791L38.9325374844 13.6419141719L39.113104834 13.576620498L39.335188 13.530488L39.641321125 14.7121472188L39.8186528828 15.3046927695L40.01533375 15.90059375L40.2337429609 16.5015087617L40.47625975 17.1090964062L40.7452633516 17.7250152852L41.043133 18.350924L41.2342939526 18.7639420183L41.4021927617 19.1845155527L41.5470192915 19.61228926L41.6689634063 20.0469077969L41.7682149702 20.4880158201L41.8449638477 20.9352579863L41.8993999028 21.3882789524L41.931713 21.846723375L41.9420930034 22.3102359109L41.9307297773 22.7784612168L41.897813186 23.2510439495L41.8435330937 23.7276287656L41.7680793647 24.207860322L41.6716418633 24.6913832754L41.5544104536 25.1778422825L41.416575 25.666882L41.5889634531 25.7663092969L41.735563625 25.889376125L41.8609262344 26.0319108906L41.969602 26.189742L41.9887118438 26.4319946563L41.97905075 26.64958375L41.9445552813 26.8458934688L41.889162 27.024308L44.543684 29.266575L44.221924 29.859819L43.729228 29.960371L43.859943 31.579227L44.443135 32.202636L44.302363 35.068314L43.588459 35.912935L43.487909 37.803275L43.678954 37.9541L43.585404 41.028043L25.446561 46.580107"
       style="fill:none;stroke:#ce0000;stroke-width:0.10583333;stroke-linecap:butt;stroke-linejoin:miter;stroke-miterlimit:4;stroke-dasharray:none;stroke-opacity:1" />
  </g>
  <g
     id="g1613"
     inkscape:groupmode="layer"
     inkscape:label="B.Cu-disabled" />
  <g
     id="g1615"
     inkscape:groupmode="layer"
     inkscape:label="B.Mask"
     style="display:none">
    <path
       sodipodi:nodetypes="ccccccscccccscccccccc"
       inkscape:connector-curvature="0"
       id="path1642"
       d="m 18.003491,18.382029 c 0.848665,-1.451563 1.783463,-2.73086 2.679659,-4.087361 0.326006,-0.803792 0.07766,-1.650661 -0.11359,-2.493247 0.679685,-0.01625 1.351083,0.141505 2.017379,0.40642 0.415712,-1.533911 -0.580855,-2.2542745 -0.915397,-3.2533034 0.861755,-0.2800563 1.842256,-0.3622024 3.144216,0.091417 1.367127,-3.4015795 4.330977,-5.0182338 6.354183,-6.0769909 1.018947,-0.533222 1.658417,-0.8559688 2.273014,-0.6799741 -1.17697,2.3286934 -0.2231,3.9344234 -0.04022,5.8017392 0.291178,-0.1544988 0.344749,-0.3455525 0.945171,-0.4524753 0.726681,2.5905735 2.45005,4.4692275 3.869135,6.5652265 0.345818,-0.236745 0.462572,-0.579212 1.118147,-0.672992 0.371384,1.576918 0.873023,3.136552 1.707945,4.820436 1.081895,2.181983 1.163171,4.701496 0.373442,7.315958 0.249066,0.114956 0.417228,0.304075 0.553027,0.52286 0.04641,0.34095 0.0056,0.607106 -0.08044,0.834566 -0.313606,0.841556 -0.774962,1.510735 -1.246525,2.168007 l -0.45712,0.01815 -14.331384,1.003468 -9.245257,-8.269852 z"
       style="fill:#000000;fill-opacity:1;stroke:none;stroke-width:0.10583333;stroke-linecap:butt;stroke-linejoin:miter;stroke-miterlimit:4;stroke-dasharray:none;stroke-opacity:1" />
  </g>
  <g
     id="g1617"
     inkscape:groupmode="layer"
     inkscape:label="B.Silk-disabled" />
  <g
     id="g1619"
     inkscape:groupmode="layer"
     inkscape:label="F.Cu"
     style="display:inline">
    <path
       style="fill:#000000;fill-opacity:1;stroke:none;stroke-width:0.26458332px;stroke-linecap:butt;stroke-linejoin:miter;stroke-opacity:1"
       d="M 25.68119,46.274378 25.62431,31.343454 43.683618,29.665504 43.4561,40.899246 Z"
       id="path1684"
       inkscape:connector-curvature="0" />
    <path
       style="fill:#e90000;fill-opacity:1;stroke:none;stroke-width:0.26458332px;stroke-linecap:butt;stroke-linejoin:miter;stroke-opacity:1"
       d="M 5.6026515,30.660897 22.183087,33.334245 24.287637,32.566369 6.9108848,29.978342 Z"
       id="path1687"
       inkscape:connector-curvature="0"
       sodipodi:nodetypes="ccccc" />
    <path
       style="fill:#e90000;fill-opacity:1;stroke:none;stroke-width:0.26458332px;stroke-linecap:butt;stroke-linejoin:miter;stroke-opacity:1"
       d="m 12.366436,18.141983 5.486683,0.581285 -1.182707,2.706391 -0.07965,0.491732 z"
       id="path1690"
       inkscape:connector-curvature="0" />
  </g>
  <g
     id="g1621"
     inkscape:groupmode="layer"
     inkscape:label="F.Mask"
     style="display:inline">
    <path
       style="fill:#000000;fill-opacity:1;stroke:none;stroke-width:0.39999998;stroke-linecap:butt;stroke-linejoin:miter;stroke-miterlimit:4;stroke-dasharray:none;stroke-opacity:1"
       d="m 125.8457,8.5488281 c 0.2441,0.070006 0.39693,0.1714814 0.44141,0.3417969 0.04,-0.081304 0.07,-0.1584619 0.11133,-0.2402344 -0.18258,-0.052284 -0.36834,-0.072041 -0.55274,-0.1015625 z m -0.61328,2.8808599 c -0.021,0.05517 -0.0441,0.117601 -0.0625,0.173828 0.019,-0.0571 0.0429,-0.116502 0.0625,-0.173828 z m -4.5957,2.439453 -0.24805,0.06641 c -0.57702,0.1544 -3.01964,1.312503 -4.51367,2.140625 -4.40603,2.442213 -7.94627,5.088914 -9.50781,7.107422 -0.28383,0.366873 -0.56121,0.608147 -0.74414,0.648437 -0.20655,0.04552 -0.52208,0.366876 -1.08008,1.09961 -2.76258,3.627673 -4.3221,6.411549 -5.031251,8.982421 -0.522323,1.89357 -0.863454,4.764531 -0.867188,7.306641 l -0.002,1.087891 h -0.451172 c -0.552597,0 -0.818359,-0.08138 -0.818359,-0.251953 0,-0.07104 -0.205378,-0.293032 -0.458985,-0.494141 -0.253587,-0.201128 -0.460937,-0.408931 -0.460937,-0.460938 0,-0.138757 -1.740729,-1.50093 -2.570313,-2.011718 -0.932333,-0.574065 -1.97984,-1.035202 -3.193359,-1.408203 -1.101698,-0.338638 -2.174474,-0.579031 -2.257812,-0.50586 -0.03046,0.02674 0.124487,0.747464 0.345703,1.603516 0.856577,3.315628 0.905645,3.696819 0.839844,6.615234 -0.08146,3.611955 -0.451955,5.484922 -1.328126,6.705078 -0.299176,0.416758 -0.32751,0.42951 -0.914062,0.429688 -0.459659,1.13e-4 -0.603516,-0.03576 -0.603516,-0.150391 0,-0.08296 -0.105618,-0.207838 -0.232422,-0.277344 -0.126803,-0.06954 -0.230468,-0.18198 -0.230468,-0.248046 0,-0.06607 -0.130587,-0.208942 -0.289063,-0.31836 -0.158475,-0.109455 -0.287109,-0.249469 -0.287109,-0.310547 0,-0.06108 -0.103666,-0.168738 -0.230469,-0.238281 -0.126841,-0.06954 -0.230469,-0.180027 -0.230469,-0.246094 0,-0.06607 -0.128633,-0.208942 -0.287109,-0.318359 -0.158476,-0.109455 -0.289063,-0.246294 -0.289063,-0.304687 0,-0.05839 -0.0902,-0.166647 -0.201171,-0.240235 -0.110967,-0.07359 -0.258254,-0.220975 -0.326172,-0.328125 -0.349709,-0.551595 -0.552797,-0.138158 -0.814453,1.652344 -0.172252,1.178838 -0.235268,1.356876 -0.986328,2.835937 -0.440754,0.867988 -1.00689,1.999746 -1.257813,2.515625 -0.25093,0.515876 -0.989604,1.722752 -1.642578,2.681641 -6.559282,9.632317 -10.63389,18.823505 -12.283203,27.632813 l 3.630859,3.248046 c 0.254177,-2.958937 0.872312,-5.986072 1.9375,-9.390625 0.404746,-1.293645 0.853582,-2.30603 3.882813,-8.783203 1.395707,-2.984337 2.636949,-5.394724 2.859375,-5.550781 0.03968,-0.02785 0.462009,-0.750765 0.9375,-1.607422 0.475479,-0.856652 0.916708,-1.608353 0.980468,-1.669922 0.196736,-0.189966 2.537548,-4.506049 3.009766,-5.548828 0.428334,-0.945883 0.4592,-0.984744 0.798828,-0.986328 0.194536,-0.0011 0.619227,0.06787 0.943359,0.152344 0.918463,0.239425 1.376836,0.772613 2.181641,2.546875 l 0.667969,1.474609 1.162109,-2.078125 c 1.152892,-2.058179 2.133085,-4.337612 2.529297,-5.884766 0.521575,-2.037925 0.713221,-4.404305 0.527344,-6.523437 -0.07053,-0.80118 -0.112711,-1.467618 -0.0957,-1.480469 0.01717,-0.0127 0.549612,0.03875 1.183593,0.113282 0.633982,0.07453 1.190773,0.136559 1.238282,0.138671 0.04758,0.0021 0.08789,0.133107 0.08789,0.291016 0,0.269114 0.133855,0.350011 2.132813,1.283203 1.982286,0.925425 2.130859,1.014188 2.130859,1.275391 0,0.223181 0.08621,0.31773 0.416018,0.455078 0.22835,0.09511 0.60463,0.395276 0.83594,0.667969 l 0.41992,0.496093 0.0801,-0.689453 c 0.0436,-0.379098 0.132,-1.873365 0.19531,-3.320312 0.1028,-2.348659 0.15705,-2.836595 0.5293,-4.552735 0.86456,-3.98575 1.76917,-6.978666 2.78711,-9.242187 0.51634,-1.148153 1.48639,-2.948961 1.64453,-3.050781 0.0432,-0.02783 0.14713,-0.200009 0.23047,-0.38086 0.0833,-0.18085 0.19816,-0.328125 0.2539,-0.328125 0.0557,0 0.10157,-0.06885 0.10157,-0.152344 0,-0.08345 0.045,-0.152343 0.10156,-0.152343 0.0565,0 0.13598,-0.112829 0.17578,-0.251953 0.0398,-0.139125 0.12334,-0.253907 0.18555,-0.253907 0.0622,0 0.11133,-0.06885 0.11133,-0.152343 0,-0.08349 0.0538,-0.150391 0.11718,-0.150391 0.0634,0 0.11524,-0.06311 0.11524,-0.140625 0,-0.07752 0.0768,-0.167093 0.17187,-0.199219 0.0951,-0.03201 0.17383,-0.127662 0.17383,-0.21289 0,-0.08523 0.0499,-0.15625 0.11328,-0.15625 0.0633,0 0.11719,-0.06311 0.11719,-0.140625 0,-0.07752 0.0768,-0.167093 0.17187,-0.199219 0.0951,-0.03205 0.17383,-0.121915 0.17383,-0.201172 0,-0.07926 0.0768,-0.170999 0.17188,-0.203125 0.0951,-0.03201 0.17383,-0.117604 0.17383,-0.189453 0,-0.07185 0.10366,-0.188307 0.23046,-0.257813 0.12681,-0.06954 0.23047,-0.17365 0.23047,-0.232422 0,-0.05877 0.15552,-0.222796 0.34571,-0.363281 0.19018,-0.140485 0.3457,-0.297187 0.3457,-0.349609 0,-0.05241 0.18045,-0.235227 0.40234,-0.40625 0.22188,-0.171019 0.41085,-0.363936 0.41992,-0.427734 0.009,-0.0638 0.9386,-0.903614 2.06446,-1.867188 l 2.04687,-1.751953 0.44336,0.07031 c 0.24416,0.03875 0.45552,0.07706 0.46875,0.08594 0.0133,0.0089 0.0842,0.356434 0.15821,0.771484 0.14808,0.830511 0.0918,2.223794 -0.18946,4.722657 -0.27737,2.464429 -0.25698,3.330915 0.11133,4.734374 0.44552,1.697598 1.10104,3.368265 2.69531,6.88086 0.75777,1.669557 1.58528,3.605133 1.8418,4.300781 0.44682,1.21183 1.0631,3.407591 1.06641,3.806641 0.004,0.397719 0.16485,0.476287 0.58593,0.285156 0.50937,-0.231224 1.14034,-0.676637 1.14063,-0.804688 2.3e-4,-0.119055 0.967,-0.707283 1.38281,-0.841796 0.1585,-0.05125 0.55558,-0.126709 0.88281,-0.166016 l 0.59571,-0.07031 0.13672,0.589843 c 0.33949,1.458297 2.67676,7.067875 3.25976,7.824219 0.19313,0.250549 1.44474,1.787788 2.78125,3.416016 1.33652,1.628231 2.91008,3.632676 3.49805,4.453125 1.22887,1.714741 2.69644,4.260578 3.32422,5.767578 l 0.43164,1.037109 0.26953,-0.220703 c 0.14721,-0.121436 0.26562,-0.261035 0.26562,-0.310547 0,-0.04951 0.15552,-0.205218 0.34571,-0.345703 0.19022,-0.140485 0.34765,-0.298132 0.34765,-0.349609 0,-0.05146 0.16894,-0.231484 0.375,-0.400391 0.36871,-0.302287 0.38826,-0.306819 1.29102,-0.248047 0.50449,0.03288 0.92169,0.06836 0.92773,0.08008 0.006,0.01166 0.26372,0.842017 0.57032,1.84375 0.30658,1.001726 1.02015,3.210829 1.58789,4.908203 1.83253,5.478633 2.12372,6.530187 2.32812,8.398438 0.27283,2.491691 0.40851,4.946664 0.41016,7.451172 0.002,2.466402 -0.0871,3.04566 -0.875,5.703125 -0.67976,2.292861 -2.20619,6.09356 -4.17774,10.396488 -0.13387,0.29216 -0.22334,0.53125 -0.19726,0.53125 0.026,0 0.6516,-0.23258 1.39062,-0.51563 0.73902,-0.28306 1.36984,-0.49161 1.40235,-0.46289 0.0324,0.0285 -0.0221,0.30257 -0.12305,0.60742 -0.19582,0.59134 -0.24614,1.38282 -0.0879,1.38282 0.26118,0 1.59411,-1.23361 2.2168,-2.05078 1.27387,-1.67177 2.24402,-3.64431 3.61914,-7.359381 0.84066,-2.27119 1.03982,-3.240845 1.37695,-6.683594 0.50073,-5.113485 0.27443,-9.842826 -0.67383,-14.099609 -0.25782,-1.157364 -0.44495,-1.604662 -2.18359,-5.191407 -2.67987,-5.528473 -3.91198,-8.390677 -4.34766,-10.099609 -0.0778,-0.305163 -0.17709,-0.554688 -0.2207,-0.554688 -0.0436,0 -0.35678,0.535546 -0.69531,1.189454 -0.3385,0.653907 -0.64979,1.225676 -0.69336,1.271484 -0.2365,0.248749 -2.03901,-0.643015 -2.06055,-1.019531 -0.004,-0.06958 -0.0597,-0.126953 -0.12305,-0.126953 -0.0634,-10e-7 -0.11523,-0.06885 -0.11523,-0.152344 0,-0.08349 -0.0511,-0.150391 -0.11328,-0.150391 -0.0622,0 -0.14575,-0.114782 -0.18555,-0.253906 -0.0398,-0.139125 -0.11431,-0.251953 -0.16602,-0.251953 -0.14922,0 -0.97628,-1.952027 -1.4375,-3.390625 -0.68683,-2.142323 -0.99947,-2.984375 -1.10742,-2.984375 -0.056,0 -0.10156,-0.06885 -0.10156,-0.152344 0,-0.08349 -0.0519,-0.152344 -0.11523,-0.152344 -0.0634,0 -0.11524,-0.0669 -0.11524,-0.15039 0,-0.08349 -0.0519,-0.152344 -0.11523,-0.152344 -0.0634,0 -0.11524,-0.0669 -0.11524,-0.150391 0,-0.08349 -0.0538,-0.152343 -0.11719,-0.152343 -0.0635,-10e-7 -0.11328,-0.06885 -0.11328,-0.152344 0,-0.08349 -0.0519,-0.152344 -0.11523,-0.152344 -0.0634,0 -0.11719,-0.06907 -0.11719,-0.154297 0,-0.08519 -0.0768,-0.181142 -0.17187,-0.212891 -0.0951,-0.03197 -0.17383,-0.1217 -0.17383,-0.199218 0,-0.07752 -0.0499,-0.140625 -0.11328,-0.140625 -0.0634,0 -0.11719,-0.06885 -0.11719,-0.152344 0,-0.08349 -0.0519,-0.152344 -0.11523,-0.152344 -0.0634,0 -0.11524,-0.06907 -0.11524,-0.154297 0,-0.08519 -0.0787,-0.181142 -0.17383,-0.21289 -0.0951,-0.03198 -0.17187,-0.121701 -0.17187,-0.199219 0,-0.07752 -0.0519,-0.140625 -0.11524,-0.140625 -0.0634,0 -0.11523,-0.07102 -0.11523,-0.15625 0,-0.08527 -0.0768,-0.181143 -0.17188,-0.212891 -0.0951,-0.03201 -0.17382,-0.123868 -0.17382,-0.203125 0,-0.07929 -0.0768,-0.169423 -0.17188,-0.201172 -0.0951,-0.03201 -0.17383,-0.1217 -0.17383,-0.199218 0,-0.07752 -0.0519,-0.140625 -0.11523,-0.140625 -0.0634,0 -0.11524,-0.07102 -0.11524,-0.15625 0,-0.08519 -0.0787,-0.181143 -0.17382,-0.212891 -0.0951,-0.03205 -0.17188,-0.121915 -0.17188,-0.201172 0,-0.07929 -0.0768,-0.171377 -0.17187,-0.203125 -0.0951,-0.03205 -0.17383,-0.123868 -0.17383,-0.203125 0,-0.07926 -0.0768,-0.169424 -0.17188,-0.201172 -0.0951,-0.03205 -0.17383,-0.123868 -0.17383,-0.203125 0,-0.07926 -0.0768,-0.169423 -0.17187,-0.201171 -0.0951,-0.03197 -0.17383,-0.123869 -0.17383,-0.203126 0,-0.07926 -0.0768,-0.171376 -0.17187,-0.203124 -0.0951,-0.03197 -0.17383,-0.120202 -0.17383,-0.197266 0,-0.07706 -0.10562,-0.196082 -0.23242,-0.265625 -0.12677,-0.06947 -0.22852,-0.185964 -0.22852,-0.257813 0,-0.07185 -0.0787,-0.157705 -0.17383,-0.189453 -0.0951,-0.03201 -0.17187,-0.123868 -0.17187,-0.203125 0,-0.07929 -0.0787,-0.169424 -0.17383,-0.201172 -0.0951,-0.03205 -0.17187,-0.123868 -0.17187,-0.203125 0,-0.07929 -0.0787,-0.169423 -0.17383,-0.201171 -0.0951,-0.03201 -0.17188,-0.123869 -0.17188,-0.203126 0,-0.07926 -0.0787,-0.171376 -0.17383,-0.203124 -0.0951,-0.03205 -0.17382,-0.121916 -0.17382,-0.201172 0,-0.0793 -0.0768,-0.171377 -0.17188,-0.203125 -0.0951,-0.03201 -0.17383,-0.118601 -0.17383,-0.19336 0,-0.07476 -0.0712,-0.174227 -0.1582,-0.21875 -0.13569,-0.06944 -0.80082,-1.291271 -3.5625,-6.539062 l -0.4707,-0.894531 -0.37696,0.652343 c -0.39306,0.684405 -0.89984,1.143985 -1.38086,1.25 -0.15654,0.03439 -0.30147,0.04618 -0.32226,0.02539 -0.14663,-0.143547 -3.70638,-7.326453 -3.83008,-7.728516 -0.28977,-0.941903 -0.73463,-3.097592 -0.95898,-4.638672 -0.367,-2.520752 -0.5029,-5.284848 -0.43555,-8.898437 z m 4.13672,8.746093 c 0.10356,0.914983 0.22966,1.844082 0.39258,2.796875 0.2581,1.509461 0.80484,3.998749 1.02929,4.757813 -0.29414,-2.578966 -0.9427,-5.0385 -1.42187,-7.554688 z m -11.31836,1.240235 -0.64453,0.652343 c -1.63052,1.649401 -2.99138,3.428595 -4.20117,5.494141 -2.15487,3.679098 -3.39626,7.635012 -3.99219,12.712891 -0.16562,1.411177 -0.20567,7.249575 -0.0625,9.09375 l 0.0879,1.15039 -0.62696,-0.04492 c -1.04034,-0.07573 -1.69788,-0.506176 -4.621089,-3.02539 -1.459483,-1.257778 -2.766016,-2.339415 -2.902343,-2.402344 -0.24,-0.110801 -0.248994,-0.08943 -0.326172,0.619141 -0.23599,2.167408 -1.002908,5.224713 -1.833985,7.316406 -0.915416,2.303958 -2.452903,5.170019 -4.324219,8.064453 l -0.835937,1.294922 -0.539063,-0.0625 c -0.295702,-0.03522 -0.804232,-0.176702 -1.130859,-0.3125 -0.487771,-0.202813 -0.629705,-0.322748 -0.791015,-0.673828 -0.159731,-0.347581 -0.344693,-1.823526 -0.398438,-3.185547 -0.0029,-0.07094 -0.149645,-0.125 -0.335938,-0.125 -0.315322,0 -0.38284,0.0897 -1.316406,1.746094 -0.541069,0.959992 -1.436145,2.426942 -1.988281,3.261719 -1.090386,1.648569 -1.668469,2.784354 -3.736328,7.335937 -1.597274,3.515777 -2.936456,6.711884 -3.900391,9.308594 -0.753895,2.030876 -0.995028,3.188773 -1.359375,6.527343 -0.109256,1.001174 -0.130366,2.490187 -0.113281,3.97461 l 8.824219,7.898436 c -0.03879,-0.662994 -0.08351,-1.260727 -0.109375,-2.058592 -0.113057,-3.489442 -0.100058,-3.612979 0.642578,-6.117188 0.771401,-2.601229 1.859908,-5.256673 3.27539,-7.996094 0.690482,-1.336308 1.837004,-3.366836 1.94336,-3.441406 0.03967,-0.02785 0.250444,-0.381684 0.46875,-0.785156 0.218268,-0.403461 0.432304,-0.734375 0.476562,-0.734375 0.04433,0 0.113528,-0.110333 0.152344,-0.246094 0.05737,-0.200768 0.167501,-0.259121 0.587891,-0.314453 0.284232,-0.03764 0.649451,-0.03786 0.8125,-0.002 0.473862,0.104398 1.233274,0.792656 2.130859,1.933594 0.974427,1.238615 1.680927,1.96875 1.904297,1.96875 0.295918,0 3.857422,-2.726505 3.857422,-2.953125 0,-0.05246 0.153564,-0.211078 0.34375,-0.351563 0.190186,-0.140489 0.345703,-0.314152 0.345703,-0.386719 0,-0.07257 0.07873,-0.157705 0.173828,-0.189453 0.09509,-0.03201 0.171875,-0.123868 0.171875,-0.203125 0,-0.07926 0.07873,-0.169424 0.173828,-0.201172 0.09509,-0.03197 0.171875,-0.129615 0.171875,-0.214843 0,-0.08519 0.05185,-0.154297 0.115234,-0.154297 0.0634,0 0.11523,-0.06885 0.11523,-0.152344 1e-5,-0.08349 0.0519,-0.150391 0.11524,-0.150391 0.0634,0 0.11523,-0.06501 0.11523,-0.144531 0,-0.07948 0.0659,-0.205747 0.14649,-0.279297 0.44053,-0.402104 1.97726,-3.907656 2.2207,-5.066406 0.0467,-0.222127 0.14677,-0.378906 0.24024,-0.378906 0.4038,0 2.83317,0.512002 3.53125,0.74414 0.87182,0.289879 1.90851,0.81527 3.20898,1.626953 l 0.87695,0.546876 0.0703,-2.091797 c 0.14876,-4.302819 0.72425,-7.734386 1.64843,-9.857422 0.16461,-0.378078 0.37006,-0.752031 0.45899,-0.830078 0.0889,-0.07809 0.16406,-0.190397 0.16406,-0.25 0,-0.05964 0.0499,-0.109375 0.11328,-0.109375 0.0634,0 0.11719,-0.06069 0.11719,-0.134766 0,-0.171931 0.29149,-0.311875 0.63086,-0.339844 0.11312,-0.0091 0.23111,-0.0072 0.3457,0.01172 0.93276,0.1536 1.62711,1.012296 2.91016,3.591797 1.22237,2.457547 1.89528,3.344414 2.83593,3.74414 0.65401,0.277985 1.23117,0.280695 1.3125,0.0078 0.0332,-0.111345 0.10606,-0.203125 0.16211,-0.203125 0.056,0 0.10157,-0.0669 0.10157,-0.150391 0,-0.08349 0.0518,-0.152343 0.11523,-0.152343 0.0634,0 0.11524,-0.06885 0.11524,-0.152344 0,-0.08349 0.0519,-0.150391 0.11523,-0.150391 0.0634,0 0.11523,-0.04813 0.11523,-0.105469 0,-0.116794 0.67155,-0.661517 1.14844,-0.93164 0.30547,-0.173027 0.3222,-0.171743 0.83594,0.126953 1.12489,0.654051 2.83441,2.444793 4.83203,5.058594 1.07985,1.412942 4.11901,5.644987 4.40039,6.128906 0.34792,0.598288 1.32424,2.833621 1.80274,4.128906 1.66207,4.499105 2.22445,9.429952 1.56835,13.722657 -0.0893,0.584341 -0.19758,1.301554 -0.24218,1.59375 -0.0782,0.511952 -0.0728,0.530883 0.1914,0.53125 0.15081,1.88e-4 0.44242,0.09089 0.64844,0.201171 0.32085,0.171701 0.375,0.2576 0.375,0.59961 0,0.551792 -0.59324,2.509418 -1.08008,3.564448 -0.55322,1.1989 -1.00248,1.96948 -2.80273,4.80469 -1.53214,2.41293 -1.57406,2.46718 -3.51367,4.45312 -0.15442,0.15811 -0.24549,0.25598 -0.35352,0.36914 l 7.27344,-0.50976 c 0.57177,-0.28008 1.11214,-0.55549 1.54687,-0.81055 0.99984,-0.58658 2.50196,-1.71162 2.50196,-1.87304 0,-0.0684 0.10562,-0.18245 0.23242,-0.25196 0.1268,-0.0695 0.23047,-0.19431 0.23047,-0.27734 0,-0.083 0.0519,-0.15235 0.11523,-0.15235 0.0634,1e-5 0.11524,-0.0669 0.11524,-0.15039 0,-0.0835 0.0384,-0.1519 0.0859,-0.15234 0.0476,0 0.14354,-0.10882 0.21289,-0.24023 l 0.12696,-0.23828 -1.6836,-0.0488 c -1.7656,-0.05 -2.33713,-0.17889 -2.97851,-0.67188 -0.27009,-0.20758 -0.34337,-0.41992 -0.14453,-0.41992 0.0634,0 0.11523,-0.0669 0.11523,-0.15039 0,-0.0835 0.0519,-0.15234 0.11524,-0.15234 0.0634,0 0.11523,-0.0631 0.11523,-0.14063 0,-0.0775 0.0787,-0.16747 0.17383,-0.19922 0.0951,-0.032 0.17187,-0.12387 0.17187,-0.20312 0,-0.0793 0.0787,-0.16943 0.17383,-0.20117 0.0951,-0.032 0.17383,-0.12387 0.17383,-0.20313 0,-0.0793 0.0768,-0.17138 0.17187,-0.20313 0.0951,-0.032 0.17383,-0.11565 0.17383,-0.1875 0,-0.0718 0.10171,-0.1883 0.22852,-0.25781 0.1268,-0.0695 0.23047,-0.17358 0.23047,-0.23047 0,-0.0569 0.1824,-0.24304 0.40429,-0.41406 0.22189,-0.17103 0.40235,-0.34968 0.40235,-0.39844 0,-0.0487 0.23425,-0.27696 0.51953,-0.50781 0.2853,-0.23086 0.51758,-0.46507 0.51758,-0.51953 0,-0.0544 0.13003,-0.1884 0.28711,-0.29688 0.32419,-0.22385 0.48811,-0.5208 1.49804,-2.714836 2.25983,-4.909379 3.23811,-8.717889 3.36914,-13.117187 0.0756,-2.536581 -0.0603,-4.353229 -0.49804,-6.640625 -0.46567,-2.433317 -1.55684,-6.067824 -2.53516,-8.445313 -0.21115,-0.513108 -0.49238,-1.489606 -0.625,-2.171875 -0.13262,-0.682261 -0.26097,-1.259706 -0.28516,-1.28125 -0.0244,-0.02139 -0.27868,0.0602 -0.56445,0.181641 -0.36841,0.156555 -0.6913,0.424523 -1.11133,0.921875 l -0.59375,0.703125 h -0.77734 -0.77734 l -0.14258,-0.429688 c -0.54511,-1.633647 -3.12032,-7.059746 -3.52344,-7.423828 -0.068,-0.06141 -0.22594,-0.311992 -0.34961,-0.55664 -0.12363,-0.244645 -0.2907,-0.504576 -0.37109,-0.578125 -0.0804,-0.07355 -0.14453,-0.197823 -0.14453,-0.277344 0,-0.07948 -0.0483,-0.144531 -0.10743,-0.144531 -0.0592,0 -0.14515,-0.100011 -0.18945,-0.222657 -0.0443,-0.122645 -0.15154,-0.28517 -0.23828,-0.361328 -0.0867,-0.07616 -0.1582,-0.205635 -0.1582,-0.285156 0,-0.07952 -0.0499,-0.142578 -0.11328,-0.142578 -0.0634,0 -0.11719,-0.06885 -0.11719,-0.152344 0,-0.08349 -0.0511,-0.152344 -0.11328,-0.152344 -0.0622,0 -0.1438,-0.112828 -0.1836,-0.251953 -0.0398,-0.139124 -0.1192,-0.253906 -0.17578,-0.253906 -0.0565,0 -0.10351,-0.06885 -0.10351,-0.152344 0,-0.08349 -0.0519,-0.15039 -0.11524,-0.15039 -0.0634,0 -0.11523,-0.06885 -0.11523,-0.152344 0,-0.08349 -0.0519,-0.152344 -0.11524,-0.152344 -0.0635,0 -0.11523,-0.06907 -0.11523,-0.154297 0,-0.08519 -0.0768,-0.181142 -0.17188,-0.21289 -0.0951,-0.03197 -0.17382,-0.121701 -0.17382,-0.199219 -1e-5,-0.07752 -0.0519,-0.140621 -0.11524,-0.140625 -0.0634,0 -0.11523,-0.06885 -0.11523,-0.152344 0,-0.08349 -0.0519,-0.152344 -0.11524,-0.152344 -0.0635,0 -0.11523,-0.06907 -0.11523,-0.154297 0,-0.08527 -0.0768,-0.181142 -0.17188,-0.21289 -0.0951,-0.03201 -0.17383,-0.121701 -0.17383,-0.199219 0,-0.07752 -0.0519,-0.142578 -0.11523,-0.142578 -0.0634,0 -0.11523,-0.06907 -0.11523,-0.154297 0,-0.08519 -0.0787,-0.181142 -0.17383,-0.21289 -0.0951,-0.03197 -0.17188,-0.121701 -0.17188,-0.199219 0,-0.07752 -0.0519,-0.140625 -0.11523,-0.140625 -0.0634,0 -0.11524,-0.07102 -0.11524,-0.15625 0,-0.08527 -0.0768,-0.17919 -0.17187,-0.210938 -0.0951,-0.03201 -0.17383,-0.123868 -0.17383,-0.203125 0,-0.07926 -0.0768,-0.171377 -0.17187,-0.203125 -0.0951,-0.03198 -0.17383,-0.121915 -0.17383,-0.201172 0,-0.07926 -0.0787,-0.171377 -0.17383,-0.203125 -0.0951,-0.03201 -0.17188,-0.123868 -0.17188,-0.203125 0,-0.07929 -0.0787,-0.169423 -0.17382,-0.201172 -0.0951,-0.03205 -0.17188,-0.123868 -0.17188,-0.203124 0,-0.0793 -0.0787,-0.169424 -0.17383,-0.201172 -0.0951,-0.03205 -0.17187,-0.123869 -0.17187,-0.203125 0,-0.07926 -0.0787,-0.171377 -0.17383,-0.203125 -0.0951,-0.03205 -0.17187,-0.121916 -0.17187,-0.201172 0,-0.0793 -0.0694,-0.167344 -0.15235,-0.195313 -0.0829,-0.02796 -0.74336,-1.368629 -1.46875,-2.978515 l -1.31836,-2.925782 -0.35351,-0.0059 c -0.20924,-0.0021 -0.63072,0.146929 -1.03711,0.365234 -1.09681,0.589123 -1.23813,0.642053 -1.69141,0.642579 -0.23642,3.02e-4 -0.75861,-0.09273 -1.16211,-0.208985 l -0.73437,-0.212891 -0.13868,-0.673828 c -0.42684,-2.071528 -1.42687,-4.969827 -2.4375,-7.064453 -1.54333,-3.198682 -2.52978,-5.864196 -3.09961,-8.380859 -0.40117,-1.771744 -0.69424,-3.892468 -0.70898,-5.111328 -0.006,-0.473042 -0.0459,-1.086141 -0.0879,-1.361328 z m 16.36328,5.013672 c -0.027,0.0048 -0.0459,0.01073 -0.0723,0.01563 0.0326,0.0099 0.0669,0.02079 0.0898,0.04102 -0.005,-0.01919 -0.0122,-0.03743 -0.0176,-0.05664 z m -2.49805,0.986328 c -0.29492,0.215067 -0.58637,0.4306 -0.93945,0.636719 0.213,-0.0092 0.78032,-0.356624 0.89844,-0.580079 0.0102,-0.01924 0.0288,-0.03746 0.041,-0.05664 z m -31.480466,0.109375 c -0.747883,1.316399 -1.43658,2.708483 -2.03711,4.199218 0.004,4.32e-4 0.06777,0.02014 0.06836,0.01953 0.0098,-0.01071 0.444942,-0.952892 0.966797,-2.09375 0.335745,-0.733993 0.673328,-1.44402 1.001953,-2.125 z m -8.613282,3.011718 c -1.948685,-0.0044 -3.689845,0.337948 -5.318359,0.867188 l 1.478516,-0.316406 c 2.113402,-0.452485 3.204808,-0.565574 4.757812,-0.494141 0.378682,0.01742 0.746438,0.04559 1.111328,0.08594 -0.698643,-0.08424 -1.380323,-0.14112 -2.029297,-0.142579 z m 2.029297,0.142579 c 0.633613,0.07006 1.263553,0.18442 1.923829,0.335937 -0.663042,-0.148292 -1.304991,-0.261319 -1.923829,-0.335937 z m 2.263672,0.412109 c 0.374163,0.09283 0.760195,0.197758 1.167969,0.320312 0.03608,0.01084 0.03108,0.009 0.06641,0.01953 -0.41948,-0.126122 -0.832461,-0.242999 -1.234375,-0.339844 z m -8.976562,1.794922 c 0.538865,1.069182 1.19236,2.103944 1.779297,3.195312 -0.451239,-1.038544 -0.930044,-2.025513 -1.087891,-2.164062 -0.08406,-0.07375 -0.183954,-0.243675 -0.222656,-0.378906 -0.0387,-0.135232 -0.117249,-0.246094 -0.173828,-0.246094 -0.05654,0 -0.101563,-0.06617 -0.101563,-0.146484 0,-0.07512 -0.0871,-0.185791 -0.193359,-0.259766 z m 3.195312,7.927734 c 0.02074,0.877216 -0.08478,1.830276 -0.371093,2.886719 l 0.199218,-0.423828 c 0.263024,-0.561228 0.304377,-1.418085 0.171875,-2.462891 z m -7.99414,1.34961 1.427734,0.0625 c 0.434647,0.01877 0.859178,0.05645 1.285156,0.111328 -0.900956,-0.13154 -1.804635,-0.195543 -2.71289,-0.173828 z m 2.814453,0.1875 c 0.331154,0.04501 0.66776,0.110113 1.005859,0.179687 -0.335052,-0.07012 -0.669899,-0.128639 -1.005859,-0.179687 z m 2.863281,0.664062 c 0.145037,0.04575 0.307349,0.105989 0.457031,0.15625 -0.152338,-0.05018 -0.304532,-0.10943 -0.457031,-0.15625 z m 65.246095,5.683594 c -0.0512,0.0073 -0.0892,0.02119 -0.13867,0.0293 0.0726,0.01671 0.126,0.04802 0.16992,0.09766 -0.01,-0.04236 -0.0213,-0.08459 -0.0312,-0.126953 z m -70.314454,2.320312 c -0.06026,0.189519 -0.105265,0.380049 -0.181641,0.56836 -0.0744,0.11262 -0.150069,0.221636 -0.224609,0.333984 0.02771,-0.04854 0.06278,-0.09705 0.103515,-0.132812 0.110588,-0.09708 0.211163,-0.399878 0.302735,-0.769532 z m -0.41211,0.910157 c -0.07505,0.113098 -0.15139,0.223093 -0.226562,0.335937 0.02323,-0.02232 0.04547,-0.05078 0.06641,-0.05078 0.06221,0 0.113281,-0.06501 0.113281,-0.144531 0,-0.03925 0.0194,-0.09025 0.04687,-0.140625 z m -0.296875,0.439453 c -0.08225,0.123324 -0.165662,0.244135 -0.248047,0.367187 0.009,-0.0038 0.01556,-0.01563 0.02539,-0.01563 0.05658,0 0.135983,-0.114782 0.175781,-0.253906 0.01095,-0.03833 0.03067,-0.06508 0.04687,-0.09766 z m -0.316406,0.466797 c -0.04343,0.0648 -0.0874,0.128627 -0.130859,0.193359 0.0025,-3.36e-4 0.0054,-0.0059 0.0078,-0.0059 0.06225,0 0.113281,-0.06885 0.113281,-0.152344 0,-0.01368 0.0074,-0.02254 0.0098,-0.03516 z m -0.330078,0.488281 c -0.04008,0.05954 -0.08099,0.118245 -0.121094,0.177734 0.04316,-0.02631 0.0873,-0.08752 0.121094,-0.177734 z m -0.267578,0.396484 c -0.02022,0.02994 -0.04033,0.05991 -0.06055,0.08984 0.03037,-0.01761 0.05088,-0.04691 0.06055,-0.08984 z m 36.406251,7.398438 0.0664,4.628906 c 0.0576,4.062047 0.23036,7.284466 0.4961,9.220703 l 0.0742,0.544922 -0.44727,-0.06836 c -1.54134,-0.238602 -2.81111,-0.868521 -5,-2.476563 -1.28361,-0.942996 -2.6827,-1.833984 -2.88086,-1.833984 -0.0532,0 -0.23919,0.376812 -0.41211,0.835937 -1.19503,3.172781 -3.28117,5.60545 -7.800778,9.095703 l -1.814453,1.402344 -0.607422,-0.0078 c -0.333165,-0.0042 -0.778392,-0.06351 -0.990235,-0.13086 -0.45948,-0.146029 -1.50145,-0.871518 -1.509765,-1.050781 -0.0029,-0.06958 -0.05966,-0.126953 -0.123047,-0.126953 -0.06338,0 -0.115234,-0.0669 -0.115234,-0.150391 0,-0.08349 -0.05185,-0.152344 -0.115235,-0.152344 -0.06338,10e-7 -0.115234,-0.06885 -0.115234,-0.152343 0,-0.08345 -0.05185,-0.152344 -0.115235,-0.152344 -0.06342,0 -0.115234,-0.0669 -0.115234,-0.150391 0,-0.08349 -0.05185,-0.152343 -0.115234,-0.152343 -0.06342,0 -0.115235,-0.06885 -0.115235,-0.152344 0,-0.08349 -0.05185,-0.150391 -0.115234,-0.150391 -0.06342,0 -0.115234,-0.06691 -0.115234,-0.148437 0,-0.08152 -0.09889,-0.194731 -0.220703,-0.251953 -0.265573,-0.124763 -0.574257,0.18272 -1.519532,1.517578 -1.887235,2.66505 -3.297223,6.274925 -4.148437,10.61914 -0.500939,2.556681 -0.514678,3.014449 -0.171875,5.951175 0.146857,1.2582 0.286105,2.2772 0.425781,3.20703 l 12.201172,10.92187 28.517583,-1.99609 c 0.13529,-0.12626 0.41796,-0.37559 0.41796,-0.39063 0,-0.0433 0.26114,-0.29247 0.57813,-0.55273 0.31695,-0.26027 0.57617,-0.51478 0.57617,-0.56641 0,-0.0516 0.15552,-0.20912 0.3457,-0.34961 0.19019,-0.14048 0.34571,-0.30275 0.34571,-0.35937 0,-0.0566 0.13058,-0.19137 0.28906,-0.30078 0.15847,-0.10946 0.28711,-0.2523 0.28711,-0.31836 0,-0.0661 0.10366,-0.17854 0.23047,-0.24805 0.1268,-0.0695 0.23047,-0.18233 0.23047,-0.25195 0,-0.0696 0.10366,-0.1844 0.23046,-0.25391 0.12681,-0.0695 0.23047,-0.18856 0.23047,-0.26562 0,-0.077 0.0787,-0.16747 0.17383,-0.19922 0.0951,-0.032 0.17188,-0.1277 0.17188,-0.21289 0,-0.0852 0.0519,-0.1543 0.11523,-0.1543 0.0634,0 0.11524,-0.0631 0.11524,-0.14062 0,-0.0775 0.0787,-0.16748 0.17382,-0.19922 0.0951,-0.032 0.17188,-0.1277 0.17188,-0.21289 0,-0.0852 0.0519,-0.15625 0.11523,-0.15625 0.0634,0 0.11719,-0.0669 0.11719,-0.15039 0,-0.0835 0.0499,-0.15235 0.11328,-0.15235 0.0634,0 0.11524,-0.0688 0.11524,-0.15234 0,-0.0835 0.0538,-0.15039 0.11718,-0.15039 0.0634,0 0.11524,-0.0689 0.11524,-0.15235 0,-0.0835 0.0499,-0.15234 0.11328,-0.15234 0.0633,0 0.11719,-0.0688 0.11719,-0.15234 0,-0.0835 0.0519,-0.15039 0.11523,-0.15039 0.0634,0 0.11524,-0.065 0.11524,-0.14454 0,-0.0794 0.0695,-0.20708 0.15625,-0.2832 0.0867,-0.0761 0.19406,-0.23906 0.23828,-0.36133 0.0443,-0.1223 0.14375,-0.27972 0.2207,-0.34961 0.21298,-0.19341 0.8781,-1.5399 1.23633,-2.5039 0.35987,-0.96836 0.38332,-0.92511 -0.60742,-1.11719 l -0.65625,-0.12695 -0.0801,-0.55664 c -0.0896,-0.629373 8.7e-4,-1.811542 0.19336,-2.527347 0.0709,-0.263799 0.39033,-1.253134 0.70898,-2.199218 l 0.57813,-1.720703 -0.0742,-1.667969 c -0.15986,-3.507583 -0.7851,-7.096171 -1.91797,-11.035156 -0.19503,-0.678123 -0.42731,-1.297949 -0.51953,-1.378907 -0.0922,-0.08094 -0.19958,-0.257346 -0.23828,-0.392578 -0.0387,-0.135231 -0.10939,-0.248047 -0.15625,-0.248047 -0.0468,0 -0.18327,-0.191173 -0.30274,-0.427734 -0.11947,-0.236527 -0.28289,-0.490904 -0.36328,-0.564453 -0.0804,-0.07355 -0.14648,-0.199776 -0.14648,-0.279297 0,-0.07952 -0.0481,-0.144531 -0.10742,-0.144531 -0.0593,0 -0.17367,-0.158757 -0.25391,-0.353516 -0.0802,-0.194797 -0.1876,-0.353515 -0.23828,-0.353515 -0.0507,0 -0.0918,-0.06885 -0.0918,-0.152344 0,-0.08349 -0.0483,-0.152344 -0.10742,-0.152344 -0.0591,0 -0.14321,-0.100011 -0.1875,-0.222656 -0.0443,-0.122646 -0.15154,-0.285209 -0.23828,-0.361328 -0.0867,-0.07612 -0.15821,-0.203682 -0.15821,-0.283204 0,-0.07952 -0.0519,-0.144531 -0.11523,-0.144531 -0.0634,0 -0.11523,-0.0669 -0.11523,-0.15039 0,-0.08349 -0.0519,-0.152344 -0.11524,-0.152344 -0.0635,0 -0.11523,-0.06885 -0.11523,-0.152344 0,-0.08349 -0.0519,-0.150391 -0.11524,-0.150391 -0.0634,0 -0.11523,-0.07081 -0.11523,-0.154296 0,-0.08349 -0.0511,-0.150391 -0.11328,-0.150391 -0.0622,0 -0.14575,-0.114782 -0.18555,-0.253906 -0.0398,-0.139087 -0.11928,-0.251953 -0.17578,-0.251953 -0.0565,0 -0.10156,-0.06885 -0.10156,-0.152344 0,-0.08349 -0.0519,-0.152344 -0.11524,-0.152344 -0.0634,0 -0.11523,-0.0669 -0.11523,-0.15039 0,-0.08349 -0.0538,-0.152344 -0.11719,-0.152344 -0.0634,0 -0.11328,-0.06885 -0.11328,-0.152344 0,-0.08349 -0.0519,-0.150391 -0.11524,-0.150391 -0.0634,0 -0.11718,-0.06885 -0.11718,-0.152343 0,-0.08349 -0.0499,-0.152344 -0.11328,-0.152344 -0.0634,0 -0.11524,-0.0669 -0.11524,-0.150391 0,-0.08349 -0.0538,-0.152343 -0.11719,-0.152343 -0.0634,-10e-7 -0.11328,-0.06885 -0.11328,-0.152344 0,-0.08349 -0.0519,-0.152344 -0.11523,-0.152344 -0.0634,0 -0.11719,-0.0669 -0.11719,-0.150391 0,-0.08349 -0.0519,-0.152343 -0.11523,-0.152343 -0.0635,0 -0.11329,-0.06885 -0.11329,-0.152344 0,-0.08349 -0.0538,-0.150391 -0.11718,-0.150391 -0.0634,0 -0.11524,-0.06885 -0.11524,-0.152343 0,-0.08349 -0.0499,-0.152344 -0.11328,-0.152344 -0.0634,0 -0.11719,-0.0669 -0.11719,-0.150391 0,-0.08349 -0.0519,-0.154297 -0.11523,-0.154297 -0.0634,0 -0.11328,-0.0669 -0.11328,-0.15039 0,-0.08349 -0.0538,-0.152344 -0.11719,-0.152344 -0.0634,0 -0.11523,-0.06885 -0.11523,-0.152344 0,-0.08349 -0.0519,-0.15039 -0.11524,-0.15039 -0.0634,-10e-7 -0.11523,-0.06885 -0.11523,-0.152344 0,-0.08349 -0.0519,-0.152344 -0.11524,-0.152344 -0.0634,0 -0.11523,-0.0669 -0.11523,-0.150391 0,-0.08349 -0.0519,-0.152343 -0.11524,-0.152343 -0.0634,0 -0.11523,-0.06885 -0.11523,-0.152344 0,-0.08349 -0.0519,-0.150391 -0.11523,-0.150391 -0.0634,0 -0.11524,-0.04977 -0.11524,-0.109375 0,-0.197903 -0.34019,-0.411788 -0.60351,-0.378906 -0.21456,0.02674 -0.32154,0.186682 -0.60743,0.927734 l -0.3457,0.896485 -0.7168,-0.04883 c -1.24228,-0.08619 -2.71088,-0.825109 -4.36132,-2.195313 -0.34518,-0.286594 -0.62696,-0.55893 -0.62696,-0.607422 0,-0.04849 -0.11962,-0.172033 -0.26562,-0.273437 -0.14604,-0.101443 -0.29962,-0.26393 -0.3418,-0.361328 -0.0422,-0.09744 -0.12993,-0.177735 -0.19531,-0.177735 -0.0654,0 -0.11914,-0.06907 -0.11914,-0.154297 0,-0.08519 -0.0787,-0.181142 -0.17383,-0.21289 -0.0951,-0.03198 -0.17383,-0.121701 -0.17383,-0.199219 0,-0.07752 -0.0499,-0.140625 -0.11328,-0.140625 -0.0634,0 -0.11523,-0.06885 -0.11523,-0.152344 0,-0.08349 -0.0511,-0.152343 -0.11328,-0.152343 -0.0622,0 -0.14575,-0.112829 -0.18555,-0.251954 -0.0398,-0.139124 -0.11085,-0.253906 -0.15821,-0.253906 -0.11591,0 -0.99795,-1.686545 -1.09765,-2.099609 -0.0685,-0.284032 -0.12574,-0.328125 -0.42969,-0.328125 z m 41.36914,4.5 c 1.63724,3.974359 2.61146,6.824289 3.46484,10.003906 -0.53884,-3.021221 -1.475,-5.936687 -2.84765,-8.705078 -0.21657,-0.436778 -0.41224,-0.866301 -0.61719,-1.298828 z m 3.96289,14.318359 v 1.292969 2.560547 c 0.0658,-1.298494 0.0655,-2.583514 0,-3.853516 z m -0.1582,5.878906 -0.36914,1.933594 c -0.28936,1.51923 -0.69944,3.559295 -0.91211,4.533203 -0.21427,0.981199 -0.31914,1.471945 -0.35938,1.810547 0.81576,-2.796622 1.36591,-5.561571 1.64063,-8.277344 z m 0.24414,10.625 c 0.0406,0.135689 0.0726,0.27838 0.0957,0.427735 -0.0105,-0.109689 -0.01,-0.210198 -0.0254,-0.324219 -0.0222,-0.03577 -0.0476,-0.06818 -0.0703,-0.103516 z m 0.13281,0.896485 c 0.002,0.0492 0.01,0.09411 0.01,0.144531 -6.8e-4,-0.04622 -0.008,-0.0975 -0.01,-0.144531 z m -0.002,0.398436 c -0.0178,0.37363 -0.0675,0.77148 -0.16797,1.20508 -0.0551,0.2379 -0.12681,0.48643 -0.20508,0.74023 0.003,0.002 0.007,0.005 0.01,0.008 0.21473,-0.57047 0.34542,-1.21404 0.36328,-1.95313 z m -6.95899,3.57031 c -0.0254,-0.0224 -0.60808,0.26957 -1.29297,0.64844 -1.44564,0.7997 -3.80929,1.88835 -4.48632,2.06641 -0.44475,0.11697 -0.50776,0.18755 -1.25586,1.40234 -1.0444,1.69591 -1.66062,2.52022 -2.38868,3.20899 l 4.17774,-0.29102 c 1.39882,-1.28479 2.59817,-2.57365 3.67383,-3.9668 1.34894,-1.74715 1.67476,-2.27699 1.64453,-2.67187 -0.015,-0.19573 -0.0469,-0.37381 -0.0723,-0.39649 z"
       transform="scale(0.26458333)"
       id="path1646"
       inkscape:connector-curvature="0" />
  </g>
  <g
     id="g1623"
     inkscape:groupmode="layer"
     inkscape:label="F.Silk"
     style="display:inline">
    <path
       id="path1577"
       style="fill:#000000;stroke-width:0.02857444"
       d="m 32.966347,2.2315253 c -0.174789,0.010119 -0.380269,0.059909 -0.701706,0.1654577 -0.301588,0.099031 -0.511095,0.1986626 -1.169511,0.5549826 -1.428962,0.7733264 -2.403154,1.3685982 -3.104831,1.8974588 -0.311894,0.2350746 -1.15897,0.9602558 -1.15897,0.9922074 0,0.010676 -0.04813,0.056424 -0.106837,0.1016732 -0.05871,0.045247 -0.106837,0.093838 -0.106837,0.1079437 0,0.014106 -0.03442,0.049548 -0.07635,0.078504 -0.04193,0.028956 -0.07606,0.066116 -0.07606,0.082865 0,0.016749 -0.02043,0.037595 -0.04558,0.046067 -0.02516,0.0085 -0.04587,0.03195 -0.04587,0.05234 0,0.02039 -0.02742,0.05221 -0.06097,0.0706 -0.03355,0.01839 -0.06097,0.04887 -0.06097,0.06787 0,0.01901 -0.02043,0.04168 -0.04558,0.05016 -0.02516,0.0085 -0.04587,0.0321 -0.04587,0.05261 0,0.02051 -0.01371,0.03734 -0.03049,0.03734 -0.01677,0 -0.03077,0.01834 -0.03077,0.04089 0,0.02255 -0.02042,0.04795 -0.04558,0.05642 -0.02516,0.0085 -0.04587,0.03114 -0.04587,0.05043 0,0.01928 -0.01173,0.03925 -0.02649,0.04416 -0.06598,0.02195 -0.488869,0.834955 -0.8886,1.708831 -0.138074,0.301852 -0.253235,0.551058 -0.25584,0.553891 -0.0027,0.0028 -0.143533,-0.03654 -0.313104,-0.0875 -0.447432,-0.134473 -0.801504,-0.198268 -1.202275,-0.216704 -0.410899,-0.0189 -0.699227,0.01112 -1.258398,0.13084 l -0.391453,0.08368 0.02108,0.122663 c 0.0244,0.142834 0.06368,0.215965 0.14188,0.26468 0.03089,0.01924 0.05613,0.05234 0.05613,0.0736 0,0.02125 0.01211,0.03871 0.02707,0.03871 0.01497,0 0.03563,0.0291 0.04587,0.06488 0.01024,0.03578 0.03674,0.08107 0.05898,0.100583 0.06969,0.06117 0.379084,0.7446773 0.488888,1.0799783 0.206974,0.632025 0.252502,1.130621 0.127919,1.39645 l -0.05242,0.111759 -0.127065,-0.0477 C 21.86542,11.937406 21.428611,11.838547 20.947613,11.81777 l -0.37806,-0.01635 0.01909,0.180723 c 0.01056,0.09932 0.06374,0.387296 0.118232,0.640029 0.08174,0.379103 0.09925,0.525162 0.09972,0.83438 5.83e-4,0.394445 -0.07366,0.819212 -0.15584,0.891351 -0.02261,0.01985 -0.04103,0.05338 -0.04103,0.07441 0,0.02104 -0.01345,0.03817 -0.02991,0.03817 -0.01646,0 -0.03848,0.02997 -0.049,0.06678 -0.01053,0.03681 -0.03147,0.06705 -0.04644,0.06705 -0.01497,0 -0.02735,0.01798 -0.02735,0.04007 0,0.02209 -0.01344,0.04034 -0.02991,0.04034 -0.01646,0 -0.03848,0.02998 -0.049,0.06678 -0.01053,0.03681 -0.03147,0.06705 -0.04644,0.06705 -0.01497,0 -0.02707,0.01798 -0.02707,0.04007 0,0.02209 -0.01346,0.04007 -0.02991,0.04007 -0.01646,0 -0.03848,0.03024 -0.04901,0.06705 -0.01053,0.03681 -0.03119,0.06679 -0.04615,0.06679 -0.01497,0 -0.02735,0.01825 -0.02735,0.04034 2e-6,0.02209 -0.01283,0.04007 -0.02849,0.04007 -0.01565,0 -0.03785,0.02643 -0.04957,0.05888 -0.01173,0.03244 -0.04058,0.07553 -0.06353,0.09568 -0.02295,0.02015 -0.04131,0.05392 -0.04131,0.07496 0,0.02104 -0.01399,0.03817 -0.03077,0.03817 -0.01677,0 -0.03049,0.01825 -0.03049,0.04034 0,0.02209 -0.01283,0.04007 -0.02849,0.04007 -0.01565,0 -0.03785,0.02643 -0.04957,0.05888 -0.01173,0.03245 -0.04001,0.07553 -0.06297,0.09567 -0.02295,0.02015 -0.04188,0.05393 -0.04188,0.07496 0,0.02104 -0.01371,0.03817 -0.03049,0.03817 -0.01677,0 -0.03049,0.01799 -0.03049,0.04007 0,0.02209 -0.01283,0.04034 -0.02849,0.04034 -0.01565,0 -0.03813,0.02643 -0.04986,0.05888 -0.01173,0.03245 -0.04002,0.07554 -0.06297,0.09568 -0.02295,0.02014 -0.04189,0.05392 -0.04189,0.07496 0,0.02104 -0.01256,0.03817 -0.0282,0.03817 -0.01565,0 -0.03813,0.02643 -0.04986,0.05888 -0.01173,0.03245 -0.04002,0.07553 -0.06297,0.09568 -0.02295,0.02014 -0.04187,0.05393 -0.04187,0.07496 0,0.02104 -0.01285,0.03817 -0.02849,0.03817 -0.01564,0 -0.03784,0.02643 -0.04957,0.05888 -0.01175,0.03245 -0.04002,0.07553 -0.06297,0.09568 -0.02295,0.02014 -0.04187,0.05392 -0.04187,0.07496 0,0.02104 -0.01345,0.03817 -0.02991,0.03817 -0.01646,0 -0.03848,0.03024 -0.049,0.06705 -0.01053,0.03681 -0.03058,0.06678 -0.04444,0.06678 -0.01386,0 -0.04259,0.04224 -0.06381,0.09377 -0.02123,0.05154 -0.04864,0.09376 -0.06097,0.09376 -0.01231,0 -0.03974,0.04196 -0.06097,0.0935 -0.02123,0.05154 -0.04864,0.09377 -0.06097,0.09377 -0.01231,0 -0.04003,0.04223 -0.06126,0.09377 -0.02123,0.05154 -0.04702,0.09377 -0.05755,0.09377 -0.01055,0 -0.05216,0.06308 -0.09259,0.140381 -0.04043,0.07731 -0.08218,0.146641 -0.09288,0.154009 -0.01071,0.0074 -0.112276,0.176023 -0.225641,0.374804 -0.193441,0.339193 -0.455488,0.920066 -1.224496,2.71494 l -0.320226,0.747152 -0.116524,0.725074 0.516522,0.574882 0.64729,0.576242 c 0.394418,-2.428621 1.492395,-4.967282 3.307965,-7.63345 0.172766,-0.253706 0.368365,-0.573043 0.434757,-0.709535 0.06639,-0.136493 0.216146,-0.435998 0.332762,-0.665653 0.198718,-0.391335 0.215108,-0.438522 0.260683,-0.750423 0.06923,-0.473737 0.123141,-0.583169 0.215668,-0.437226 0.01797,0.02835 0.05668,0.06749 0.08604,0.08696 0.02936,0.01947 0.05327,0.04806 0.05327,0.06351 0,0.01545 0.03442,0.05173 0.07635,0.08069 0.04193,0.02895 0.07635,0.06702 0.07635,0.0845 0,0.01748 0.02741,0.04675 0.06097,0.06515 0.03355,0.0184 0.06097,0.0468 0.06097,0.06296 0,0.01616 0.03413,0.05309 0.07606,0.08205 0.04193,0.02895 0.07635,0.06675 0.07635,0.08423 0,0.01748 0.02742,0.04703 0.06097,0.06543 0.03355,0.01839 0.06126,0.05137 0.06126,0.07332 0,0.03033 0.03821,0.03982 0.159828,0.03979 0.155192,-4.7e-5 0.162722,-0.0034 0.241879,-0.113667 0.23182,-0.322833 0.329727,-0.818044 0.35128,-1.773707 0.01741,-0.772164 0.0047,-0.873002 -0.221936,-1.750262 -0.05853,-0.226497 -0.0998,-0.417611 -0.09174,-0.424686 0.02205,-0.01936 0.305943,0.04424 0.597434,0.133838 0.321077,0.09869 0.598331,0.221008 0.845011,0.372896 0.219494,0.135146 0.680055,0.495643 0.680055,0.532356 0,0.01376 0.05484,0.06863 0.121935,0.121845 0.0671,0.05321 0.121653,0.112044 0.121653,0.130841 0,0.04513 0.07003,0.06678 0.216238,0.06678 h 0.119373 l 6.02e-4,-0.287837 c 9.88e-4,-0.6726 0.09143,-1.432432 0.229628,-1.933439 0.18763,-0.68021 0.599832,-1.416569 1.330765,-2.376391 0.147638,-0.193869 0.231106,-0.279075 0.285755,-0.291119 0.0484,-0.01066 0.122055,-0.07466 0.19715,-0.1717286 0.413158,-0.5340635 1.349612,-1.2341179 2.515373,-1.8802869 0.395295,-0.2191072 1.041628,-0.525578 1.194298,-0.5664296 l 0.06552,-0.017719 -0.01624,0.8777224 c -0.01782,0.9560954 0.018,1.6873617 0.1151,2.3543107 0.05936,0.407744 0.177177,0.978235 0.253845,1.227447 0.03273,0.106379 0.974306,2.006675 1.013101,2.044655 0.0055,0.0055 0.04405,0.0023 0.08547,-0.0068 0.127269,-0.02805 0.261529,-0.149563 0.365526,-0.330645 l 0.09943,-0.172818 0.1245,0.236603 c 0.730695,1.388478 0.907116,1.712264 0.943017,1.730637 0.02301,0.01178 0.0416,0.03774 0.0416,0.05752 0,0.01978 0.0207,0.04278 0.04587,0.05125 0.02516,0.0084 0.04587,0.03272 0.04587,0.0537 0,0.02097 0.0207,0.04495 0.04587,0.05343 0.02516,0.0084 0.04587,0.03272 0.04587,0.05369 0,0.02097 0.02043,0.04496 0.04558,0.05343 0.02516,0.0084 0.04587,0.03272 0.04587,0.0537 0,0.02097 0.02043,0.04495 0.04558,0.05343 0.02516,0.0084 0.04587,0.03245 0.04587,0.05343 0,0.02097 0.02042,0.04523 0.04558,0.0537 0.02516,0.0084 0.04587,0.03087 0.04587,0.04988 0,0.01901 0.02714,0.04976 0.06068,0.06814 0.03355,0.0184 0.06126,0.04994 0.06126,0.07033 0,0.02039 0.0207,0.04414 0.04587,0.0526 0.02516,0.0084 0.04558,0.03246 0.04558,0.05343 0,0.02097 0.02071,0.04523 0.04587,0.05369 0.02516,0.0084 0.04558,0.03246 0.04558,0.05343 0,0.02097 0.0207,0.04495 0.04587,0.05343 0.02516,0.0084 0.04558,0.03272 0.04558,0.05369 0,0.02097 0.02071,0.04495 0.04587,0.05343 0.02516,0.0084 0.04558,0.03272 0.04558,0.0537 0,0.02097 0.02071,0.04495 0.04587,0.05343 0.02516,0.0084 0.04558,0.03388 0.04558,0.05642 0,0.02255 0.01399,0.04116 0.03077,0.04116 0.01677,0 0.03048,0.01656 0.03048,0.03707 0,0.02051 0.02071,0.04441 0.04587,0.05288 0.02516,0.0084 0.04558,0.03245 0.04558,0.05343 0,0.02097 0.0207,0.04523 0.04587,0.0537 0.02516,0.0084 0.04558,0.0336 0.04558,0.05616 0,0.02255 0.01371,0.04116 0.03048,0.04116 0.01677,0 0.03048,0.01683 0.03048,0.03734 0,0.02051 0.02042,0.04414 0.04558,0.0526 0.02516,0.0084 0.04587,0.03388 0.04587,0.05642 0,0.02255 0.01371,0.04088 0.03048,0.04088 0.01677,0 0.03049,0.01825 0.03049,0.04034 -10e-7,0.02209 0.01399,0.04007 0.03077,0.04007 0.01677,0 0.0302,0.01683 0.0302,0.03734 0,0.02051 0.0207,0.04414 0.04586,0.0526 0.02516,0.0084 0.04559,0.03388 0.04559,0.05642 0,0.02255 0.01399,0.04116 0.03077,0.04116 0.01677,0 0.03049,0.01798 0.03049,0.04007 0,0.02209 0.01341,0.04007 0.0302,0.04007 0.01677,0 0.03077,0.01825 0.03077,0.04034 0,0.02209 0.01371,0.04007 0.03049,0.04007 0.01677,0 0.03048,0.01798 0.03048,0.04007 0,0.02209 0.01371,0.04007 0.03048,0.04007 0.01677,0 0.03049,0.01825 0.03049,0.04034 0,0.02209 0.01225,0.04007 0.02707,0.04007 0.02856,0 0.11115,0.222853 0.292876,0.789676 0.12203,0.380629 0.341145,0.897074 0.380626,0.897074 0.01368,0 0.03335,0.02998 0.04387,0.06679 0.01053,0.03681 0.03255,0.06705 0.04901,0.06705 0.01646,0 0.02991,0.01798 0.02991,0.04007 0,0.02209 0.01399,0.04007 0.03077,0.04007 0.01677,0 0.03111,0.01512 0.03219,0.03353 0.0057,0.09962 0.482725,0.335401 0.545297,0.269586 0.01153,-0.01212 0.0942,-0.163355 0.183759,-0.336368 0.08957,-0.173013 0.172224,-0.314564 0.18376,-0.314564 0.01154,0 0.03782,0.06591 0.0584,0.146651 0.115273,0.452155 0.441376,1.209401 1.150423,2.672143 0.460015,0.948993 0.509561,1.067333 0.577776,1.373552 0.250894,1.126274 0.310831,2.377646 0.178346,3.730589 -0.0892,0.910894 -0.142245,1.167335 -0.364671,1.768254 -0.363834,0.982946 -0.6205,1.505021 -0.957546,1.947342 -0.164751,0.216211 -0.517504,0.542442 -0.586608,0.542442 -0.04187,0 -0.02845,-0.209349 0.02336,-0.365807 0.02672,-0.08066 0.04135,-0.153016 0.03277,-0.160553 -0.0086,-0.0076 -0.175691,0.04777 -0.371223,0.122664 -0.195532,0.07489 -0.360938,0.13602 -0.367806,0.13602 -0.0069,0 0.01643,-0.06308 0.05185,-0.140382 0.521638,-1.138482 0.925841,-2.144267 1.105694,-2.75092 0.208454,-0.703121 0.232088,-0.856186 0.231622,-1.508755 -4.37e-4,-0.662651 -0.03636,-1.312341 -0.108546,-1.971601 -0.05408,-0.494308 -0.131333,-0.772577 -0.616191,-2.222132 -0.150214,-0.449097 -0.33911,-1.033278 -0.420226,-1.298318 -0.08112,-0.265042 -0.149128,-0.484569 -0.150711,-0.487653 -0.0016,-0.0031 -0.112104,-0.01257 -0.245583,-0.02127 -0.238855,-0.01555 -0.24404,-0.01455 -0.341594,0.06543 -0.05452,0.04469 -0.09915,0.09242 -0.09915,0.106036 0,0.01362 -0.04141,0.05524 -0.09174,0.09241 -0.05032,0.03717 -0.09145,0.07821 -0.09145,0.09131 0,0.0131 -0.0317,0.0502 -0.07065,0.08233 l -0.07094,0.05833 L 36.975215,17.2918 C 36.809116,16.893073 36.420833,16.219582 36.095693,15.76589 35.940126,15.548813 35.523676,15.018583 35.170056,14.58778 34.816437,14.156978 34.485258,13.750181 34.43416,13.68389 34.279907,13.483774 33.661595,11.999454 33.571771,11.613613 l -0.03647,-0.155917 -0.157263,0.01881 c -0.08658,0.0104 -0.19168,0.03005 -0.233617,0.04361 -0.110018,0.03559 -0.365751,0.191473 -0.365812,0.222973 -7.6e-5,0.03388 -0.167221,0.151439 -0.301992,0.212617 -0.111412,0.05057 -0.154339,0.02972 -0.15527,-0.07551 -8.75e-4,-0.105582 -0.163545,-0.686567 -0.281765,-1.007197 C 31.971712,10.688942 31.752328,10.176967 31.551835,9.73523 31.130016,8.805856 30.956893,8.363797 30.839017,7.914641 30.741567,7.543309 30.736289,7.314163 30.809677,6.662116 c 0.07442,-0.6611573 0.08932,-1.0297868 0.05014,-1.2495261 -0.01958,-0.1098153 -0.03865,-0.2015488 -0.04216,-0.2038934 -0.0035,-0.00235 -0.05933,-0.012645 -0.123931,-0.022897 l -0.117378,-0.018537 -0.541595,0.4633943 c -0.297883,0.2549455 -0.543794,0.4773143 -0.546151,0.4941945 -0.0024,0.01688 -0.05212,0.067874 -0.110826,0.1131227 -0.05871,0.04525 -0.106837,0.09353 -0.106837,0.107398 0,0.01387 -0.04113,0.05551 -0.09145,0.09268 -0.05032,0.03717 -0.09146,0.0804 -0.09146,0.09595 0,0.01555 -0.02742,0.04321 -0.06097,0.06161 -0.03355,0.01839 -0.06097,0.04914 -0.06097,0.06815 0,0.01901 -0.02071,0.04141 -0.04587,0.04988 -0.02516,0.0085 -0.04558,0.03273 -0.04558,0.0537 0,0.02097 -0.0207,0.04495 -0.04587,0.05343 -0.02516,0.0085 -0.04558,0.0321 -0.04558,0.05261 0,0.02051 -0.01401,0.03734 -0.03077,0.03734 -0.01677,0 -0.0302,0.01861 -0.0302,0.04116 0,0.02255 -0.0207,0.04795 -0.04587,0.05642 -0.02516,0.0085 -0.04558,0.0321 -0.04558,0.05261 0,0.02051 -0.01371,0.03734 -0.03048,0.03734 -0.01677,0 -0.03077,0.01798 -0.03077,0.04007 0,0.02209 -0.01346,0.04007 -0.02991,0.04007 -0.01646,0 -0.03848,0.03024 -0.04901,0.06705 -0.01053,0.03681 -0.03119,0.06678 -0.04615,0.06678 -0.01497,0 -0.02707,0.01826 -0.02707,0.04034 0,0.02209 -0.01233,0.04007 -0.02707,0.04007 -0.01475,0 -0.0449,0.0391 -0.06695,0.08695 -0.02205,0.04785 -0.04954,0.09322 -0.06097,0.100584 -0.04184,0.02694 -0.298711,0.503612 -0.435327,0.807394 -0.26933,0.59889 -0.508285,1.390791 -0.737034,2.445354 -0.09849,0.454062 -0.113256,0.583134 -0.140454,1.20455 -0.01675,0.382838 -0.04002,0.778237 -0.05157,0.87854 l -0.02108,0.182358 -0.111112,-0.131113 c -0.0612,-0.07215 -0.160664,-0.151742 -0.22108,-0.176907 -0.08726,-0.03634 -0.109987,-0.06116 -0.109987,-0.12021 0,-0.06911 -0.03962,-0.09288 -0.5641,-0.337732 -0.528891,-0.246907 -0.564386,-0.268164 -0.564386,-0.339367 0,-0.04178 -0.01049,-0.07631 -0.02308,-0.07687 -0.01257,-5.59e-4 -0.159892,-0.01708 -0.327633,-0.0368 -0.167741,-0.01972 -0.308563,-0.03307 -0.313105,-0.02971 -0.0045,0.0034 0.0067,0.179451 0.02536,0.39143 0.04918,0.560687 -0.0016,1.187075 -0.1396,1.726276 -0.104831,0.409351 -0.363908,1.012441 -0.668944,1.557001 l -0.307691,0.54953 -0.176923,-0.390068 c -0.212938,-0.46944 -0.33391,-0.610753 -0.57692,-0.674101 -0.08576,-0.02235 -0.198101,-0.04062 -0.249572,-0.04034 -0.08986,4.19e-4 -0.09835,0.01087 -0.21168,0.261135 -0.124941,0.275902 -0.74424,1.417879 -0.796293,1.468141 -0.01687,0.01629 -0.133738,0.215202 -0.259542,0.441858 -0.125807,0.226657 -0.237364,0.418134 -0.247863,0.425503 -0.05885,0.04129 -0.387411,0.678806 -0.756692,1.468412 -0.801484,1.713752 -0.919973,1.981777 -1.027062,2.324054 -0.323051,1.032535 -0.499362,1.935454 -0.542163,2.828334 l 0.760396,0.677099 c -0.0182,-0.49935 -0.01188,-1.072214 0.02621,-1.421253 0.0964,-0.88333 0.160361,-1.189758 0.359829,-1.727094 0.255041,-0.687046 0.609293,-1.532585 1.031905,-2.462801 0.547121,-1.204273 0.700101,-1.504887 0.988599,-1.941071 0.146086,-0.220868 0.382766,-0.609276 0.525924,-0.863274 0.247006,-0.438253 0.265002,-0.462031 0.348431,-0.462031 0.04929,0 0.08812,0.01476 0.08889,0.03353 0.01422,0.360368 0.06315,0.750868 0.105412,0.842832 0.04268,0.09289 0.08006,0.124609 0.209116,0.17827 0.08642,0.03593 0.22119,0.073 0.299428,0.08232 l 0.142165,0.0169 0.221651,-0.342638 c 0.495119,-0.765819 0.901667,-1.524474 1.143871,-2.134063 0.219889,-0.553427 0.422744,-1.362433 0.485183,-1.935893 0.02042,-0.187477 0.02311,-0.192866 0.08661,-0.16355 0.03607,0.01665 0.381648,0.302606 0.767803,0.635393 0.773431,0.666542 0.947244,0.780543 1.222502,0.800581 l 0.166097,0.01199 -0.02365,-0.304477 c -0.03788,-0.487938 -0.02729,-2.032728 0.01653,-2.406102 0.157675,-1.343522 0.486549,-2.390262 1.056691,-3.36369 0.320091,-0.546509 0.679697,-1.017287 1.111104,-1.453691 l 0.17094,-0.172547 0.01994,0.132203 c 0.01111,0.07281 0.02152,0.234925 0.02308,0.360084 0.0039,0.32249 0.08189,0.883244 0.188033,1.352018 0.150767,0.665867 0.411315,1.371155 0.819655,2.217473 0.267396,0.554203 0.532362,1.321291 0.645297,1.869383 l 0.03647,0.178271 0.194301,0.05616 c 0.106759,0.03076 0.24514,0.05569 0.307692,0.05561 0.119929,-1.39e-4 0.15738,-0.01422 0.447576,-0.170092 0.107524,-0.05776 0.218998,-0.09705 0.274359,-0.0965 l 0.09316,0.0011 0.349001,0.774412 c 0.191925,0.425949 0.36694,0.780645 0.388887,0.788042 0.02195,0.0074 0.03989,0.03054 0.03989,0.05152 0,0.02097 0.0207,0.04495 0.04587,0.05343 0.02516,0.0084 0.04558,0.03273 0.04558,0.0537 0,0.02097 0.02071,0.04495 0.04587,0.05343 0.02516,0.0084 0.04558,0.03272 0.04558,0.0537 0,0.02097 0.0207,0.04495 0.04587,0.05343 0.02516,0.0084 0.04558,0.03245 0.04558,0.05343 0,0.02097 0.02071,0.04523 0.04587,0.0537 0.02516,0.0084 0.04558,0.03246 0.04558,0.05343 0,0.02097 0.02099,0.04523 0.04615,0.05369 0.02516,0.0084 0.04558,0.03246 0.04558,0.05343 0,0.02097 0.0207,0.04523 0.04587,0.0537 0.02516,0.0084 0.04558,0.0336 0.04558,0.05616 0,0.02255 0.01371,0.04116 0.03048,0.04116 0.01677,0 0.03048,0.01683 0.03048,0.03734 0,0.02051 0.02043,0.04414 0.04558,0.0526 0.02516,0.0084 0.04587,0.03388 0.04587,0.05642 0,0.02255 0.01371,0.04089 0.03048,0.04089 0.01677,0 0.03077,0.01683 0.03077,0.03734 0,0.02051 0.02042,0.04441 0.04558,0.05288 0.02516,0.0084 0.04587,0.0336 0.04587,0.05616 0,0.02255 0.01341,0.04116 0.0302,0.04116 0.01677,0 0.03048,0.01798 0.03048,0.04007 0,0.02209 0.01399,0.04034 0.03077,0.04034 0.01677,1e-6 0.03049,0.01656 0.03049,0.03707 0,0.02051 0.0207,0.04442 0.04587,0.05288 0.02516,0.0084 0.04558,0.03388 0.04558,0.05642 0,0.02255 0.01341,0.04089 0.0302,0.04089 0.01677,0 0.03077,0.01798 0.03077,0.04007 0,0.02209 0.01371,0.04034 0.03049,0.04034 0.01677,0 0.03049,0.01798 0.03049,0.04007 0,0.02209 0.01211,0.04007 0.02707,0.04007 0.01497,0 0.03591,0.03024 0.04644,0.06705 0.01053,0.03681 0.03255,0.06678 0.049,0.06678 0.01646,0 0.02991,0.01825 0.02991,0.04034 0,0.02209 0.01399,0.04007 0.03077,0.04007 0.01677,0 0.0302,0.01713 0.0302,0.03817 0,0.02104 0.01894,0.05481 0.04188,0.07496 0.02295,0.02015 0.05124,0.06323 0.06297,0.09568 0.01172,0.03245 0.03421,0.05888 0.04986,0.05888 0.01564,0 0.02849,0.0174 0.02849,0.03843 0,0.02104 0.0172,0.05414 0.03846,0.0736 0.02127,0.01946 0.0653,0.08819 0.09801,0.152919 0.03272,0.06473 0.0746,0.130947 0.09259,0.147196 0.106658,0.09633 0.787963,1.531733 0.93219,1.963969 l 0.03789,0.113668 h 0.205411 0.205984 l 0.156694,-0.18563 c 0.111131,-0.131591 0.196825,-0.202541 0.294301,-0.243963 0.07561,-0.03213 0.142837,-0.05364 0.149287,-0.04798 0.0064,0.0057 0.04041,0.158034 0.0755,0.338549 0.03509,0.180517 0.109375,0.43912 0.165242,0.57488 0.258847,0.629044 0.547731,1.590833 0.670938,2.234648 0.115818,0.605207 0.151618,1.085669 0.131622,1.756806 -0.03467,1.163981 -0.29325,2.171602 -0.891163,3.470542 -0.267211,0.580505 -0.310805,0.659304 -0.39658,0.718532 -0.04156,0.0287 -0.07579,0.06383 -0.07579,0.07823 0,0.01441 -0.06155,0.0763 -0.137036,0.137382 -0.07548,0.06108 -0.137321,0.121489 -0.137321,0.134385 0,0.0129 -0.04813,0.06051 -0.106838,0.105763 -0.05871,0.04525 -0.106552,0.09453 -0.106552,0.109578 0,0.01505 -0.02742,0.0424 -0.06097,0.06079 -0.03355,0.01839 -0.06097,0.04914 -0.06097,0.06814 0,0.01901 -0.0207,0.04141 -0.04587,0.04989 -0.02516,0.0084 -0.04558,0.03246 -0.04558,0.05343 0,0.02097 -0.0207,0.04523 -0.04587,0.0537 -0.02516,0.0084 -0.04587,0.03246 -0.04587,0.05343 0,0.02097 -0.02042,0.04523 -0.04558,0.0537 -0.02516,0.0084 -0.04587,0.0321 -0.04587,0.0526 0,0.02051 -0.01371,0.03734 -0.03049,0.03734 -0.01677,0 -0.03048,0.01798 -0.03048,0.04007 0,0.02209 -0.01371,0.04007 -0.03048,0.04007 -0.05261,0 -0.03328,0.05629 0.03818,0.111214 0.169699,0.130436 0.320881,0.164495 0.788031,0.177725 l 0.445298,0.01254 -0.03333,0.06324 c -0.01835,0.03477 -0.04383,0.06351 -0.05641,0.06351 -0.01257,1.15e-4 -0.02279,0.01825 -0.02279,0.04034 0,0.02209 -0.01371,0.04007 -0.03048,0.04007 -0.01677,0 -0.03049,0.01811 -0.03049,0.04007 0,0.02197 -0.02742,0.05493 -0.06097,0.07332 -0.03355,0.01839 -0.06126,0.0484 -0.06126,0.06651 0,0.04271 -0.397849,0.340629 -0.662389,0.49583 -0.181274,0.106351 -0.420551,0.226231 -0.676921,0.342912 l 1.545863,-0.116666 c 0.03402,-0.02836 0.06774,-0.0578 0.102564,-0.08996 0.20158,-0.18607 0.365454,-0.405144 0.65128,-0.869272 0.197937,-0.321414 0.214518,-0.340039 0.332191,-0.370987 0.179132,-0.04711 0.804682,-0.335215 1.187174,-0.546803 0.18121,-0.100244 0.335152,-0.177374 0.341881,-0.171458 0.0067,0.006 0.0154,0.05316 0.01937,0.104947 0.008,0.104478 -0.07842,0.244816 -0.435327,0.707083 -0.31315,0.40558 -0.662191,0.777875 -1.082047,1.151941 l 1.982329,-0.149921 c 0.04274,-0.05431 0.08454,-0.107551 0.130199,-0.172274 0.647943,-0.918499 1.047189,-1.68423 1.18233,-2.267628 0.12559,-0.542164 0.006,-0.91059 -0.348431,-1.072619 -0.196067,-0.08964 -0.191435,-0.01959 -0.04529,-0.688821 0.05627,-0.25768 0.165035,-0.797408 0.241595,-1.199371 l 0.139314,-0.730796 v -0.994043 -0.994115 l -0.110541,-0.416782 c -0.302803,-1.144471 -0.65287,-2.095492 -1.412529,-3.83635 -0.224316,-0.514053 -0.303438,-0.736106 -0.414813,-1.16448 -0.144229,-0.554739 -0.491139,-1.75361 -0.586892,-2.028572 -0.0559,-0.160506 -0.05611,-0.160768 -0.184046,-0.169002 -0.18664,-0.01201 -0.440715,0.116363 -0.698287,0.352451 -0.114831,0.105252 -0.230453,0.22095 -0.256694,0.257047 l -0.04729,0.06542 -0.08604,-0.132475 C 37.819506,13.590866 37.538211,13.184383 36.94724,12.358908 36.076926,11.143242 35.778519,10.706168 35.503086,10.245835 34.958303,9.33534 34.655279,8.653104 34.394544,7.747601 34.363274,7.639001 34.356714,7.633633 34.248675,7.63475 34.030002,7.63705 33.749978,7.773714 33.675743,7.914148 33.640453,7.980908 33.446306,8.096793 33.415916,8.069249 33.386306,8.042409 33.196058,7.1872 33.11677,6.7235 32.904584,5.4825601 32.882723,4.3619685 33.05067,3.3701685 33.09969,3.0806965 33.12443,3.0098751 33.262634,2.763669 33.496437,2.3471511 33.476251,2.2645353 33.134145,2.2340366 c -0.05458,-0.00487 -0.109543,-0.00582 -0.167806,-0.00245 z M 30.109093,16.182116 c -0.08979,0.0074 -0.166951,0.04447 -0.166951,0.08996 0,0.0196 -0.01399,0.0357 -0.03077,0.0357 -0.01677,0 -0.0302,0.01284 -0.0302,0.02862 0,0.01577 -0.01949,0.04558 -0.04302,0.06624 -0.02353,0.02065 -0.0781,0.119397 -0.121651,0.21943 -0.244523,0.56172 -0.396534,1.469905 -0.435895,2.608359 l -0.01908,0.553345 -0.231623,-0.144469 c -0.344082,-0.214758 -0.618615,-0.353987 -0.849285,-0.430684 -0.184699,-0.06142 -0.827628,-0.196807 -0.934469,-0.196807 -0.02473,0 -0.0509,0.04154 -0.06325,0.100311 -0.06441,0.306586 -0.470906,1.234179 -0.587463,1.340569 -0.02132,0.01946 -0.03874,0.05257 -0.03874,0.0736 0,0.02104 -0.01371,0.03816 -0.03049,0.03816 -0.01677,0 -0.03048,0.01798 -0.03048,0.04007 0,0.02209 -0.01371,0.04034 -0.03048,0.04034 -0.01677,0 -0.03049,0.01834 -0.03049,0.04088 0,0.02255 -0.02071,0.04796 -0.04587,0.05642 -0.02516,0.0084 -0.04558,0.03246 -0.04558,0.05343 0,0.02097 -0.02071,0.04523 -0.04587,0.0537 -0.02516,0.0084 -0.04558,0.03095 -0.04558,0.05015 0,0.0192 -0.04113,0.06532 -0.09145,0.102491 -0.05032,0.03717 -0.09145,0.07907 -0.09145,0.09295 0,0.05996 -0.94193,0.7815 -1.020225,0.7815 -0.0591,0 -0.246169,-0.193464 -0.503986,-0.521181 -0.237486,-0.301873 -0.43844,-0.484019 -0.563816,-0.511641 -0.04314,-0.0095 -0.139896,-0.0094 -0.215099,5.58e-4 -0.111228,0.01464 -0.140374,0.03029 -0.155554,0.08341 -0.01027,0.03592 -0.02816,0.06515 -0.03989,0.06515 -0.01171,0 -0.06846,0.08733 -0.12621,0.194079 -0.05776,0.106752 -0.113719,0.200341 -0.124216,0.20771 -0.02814,0.01973 -0.331553,0.556866 -0.514243,0.910431 -0.374513,0.724805 -0.662278,1.427831 -0.866378,2.116073 -0.196489,0.662572 -0.199998,0.695084 -0.170085,1.618332 0.01154,0.355915 0.02771,0.653739 0.04928,0.918336 l 0.872645,0.776866 c -0.06025,-0.331376 -0.116489,-0.730991 -0.178062,-1.258522 -0.0907,-0.777008 -0.08696,-0.897991 0.04558,-1.574446 0.225217,-1.149407 0.598386,-2.104671 1.097717,-2.809799 0.250104,-0.353181 0.331726,-0.434799 0.401992,-0.401789 0.03223,0.01514 0.0584,0.04521 0.0584,0.06678 0,0.02157 0.01371,0.03926 0.03049,0.03926 0.01677,0 0.03048,0.01798 0.03048,0.04007 0,0.02209 0.01399,0.04007 0.03077,0.04007 0.01677,0 0.0302,0.01825 0.0302,0.04034 0,0.02209 0.01371,0.04007 0.03049,0.04007 0.01677,0 0.03077,0.01799 0.03077,0.04007 0,0.02209 0.01343,0.04034 0.0302,0.04034 0.01677,0 0.03077,0.01798 0.03077,0.04007 0,0.02209 0.01371,0.04007 0.03048,0.04007 0.01677,0 0.03141,0.01512 0.03219,0.03353 0.0022,0.04743 0.278142,0.2394 0.399713,0.278037 0.05605,0.01782 0.173673,0.0335 0.261823,0.03461 l 0.160683,0.0019 0.480054,-0.370714 c 1.195814,-0.923463 1.74791,-1.567456 2.064096,-2.406921 0.04575,-0.121477 0.09476,-0.220793 0.108831,-0.220793 0.05243,0 0.422767,0.235699 0.76239,0.4852 0.579143,0.425461 0.915256,0.59189 1.32307,0.65502 l 0.118234,0.01826 -0.01966,-0.144196 c -0.07031,-0.512296 -0.116099,-1.365154 -0.131338,-2.439904 l -0.01766,-1.224719 h 0.09345 c 0.08042,0 0.09555,0.01181 0.113674,0.08696 0.02638,0.10929 0.259644,0.555527 0.290313,0.555527 0.01253,0 0.03107,0.03024 0.0416,0.06705 0.01053,0.03681 0.03255,0.06678 0.049,0.06678 0.01646,0 0.0302,0.01798 0.0302,0.04007 0,0.02209 0.01371,0.04034 0.03048,0.04034 0.01677,0 0.0302,0.01683 0.0302,0.03734 0,0.02051 0.02071,0.04414 0.04587,0.0526 0.02516,0.0084 0.04587,0.03388 0.04587,0.05642 0,0.02255 0.01403,0.04089 0.03134,0.04089 0.0173,0 0.04069,0.02111 0.05185,0.04689 0.01116,0.02577 0.05196,0.06884 0.0906,0.09568 0.03863,0.02683 0.07009,0.0594 0.07009,0.07223 0,0.01283 0.07477,0.08527 0.166097,0.161098 0.436681,0.362533 0.824867,0.557801 1.153556,0.580605 l 0.190028,0.01308 0.09145,-0.237148 c 0.07564,-0.19607 0.10363,-0.238524 0.160399,-0.2456 0.06967,-0.0087 0.159828,0.04795 0.159828,0.100312 0,0.01577 0.01371,0.02862 0.03048,0.02862 0.01677,0 0.03077,0.01798 0.03077,0.04007 0,0.02209 0.01371,0.04034 0.03048,0.04034 0.01677,0 0.0302,0.01798 0.0302,0.04007 0,0.02209 0.01399,0.04007 0.03077,0.04007 0.01677,0 0.03049,0.01825 0.03049,0.04034 0,0.02209 0.01342,0.04007 0.0302,0.04007 0.01677,0 0.03077,0.01798 0.03077,0.04007 0,0.02209 0.01371,0.04034 0.03049,0.04034 0.01677,0 0.03077,0.01798 0.03077,0.04007 0,0.02209 0.01343,0.04007 0.0302,0.04007 0.01677,0 0.03049,0.01825 0.03049,0.04034 0,0.02209 0.01399,0.04007 0.03077,0.04007 0.01677,0 0.0302,0.01798 0.0302,0.04007 0,0.02209 0.01371,0.04034 0.03049,0.04034 0.01677,0 0.03077,0.01798 0.03077,0.04007 0,0.02209 0.01341,0.04007 0.0302,0.04007 0.01677,0 0.03049,0.01825 0.03049,0.04034 0,0.02209 0.01399,0.04007 0.03077,0.04007 0.01677,0 0.03048,0.01798 0.03048,0.04007 0,0.02209 0.01343,0.04034 0.0302,0.04034 0.01677,0 0.03077,0.01798 0.03077,0.04007 0,0.02209 0.01371,0.04007 0.03048,0.04007 0.01677,0 0.0302,0.01825 0.0302,0.04034 0,0.02209 0.01399,0.04007 0.03077,0.04007 0.01677,0 0.03048,0.01798 0.03048,0.04007 0,0.02209 0.01343,0.04034 0.0302,0.04034 0.01677,0 0.03077,0.01798 0.03077,0.04007 0,0.02209 0.01371,0.04007 0.03048,0.04007 0.01677,0 0.03049,0.01825 0.03049,0.04034 0,0.02209 0.01211,0.04007 0.02707,0.04007 0.01495,0 0.03591,0.02998 0.04644,0.06678 0.01053,0.03681 0.03255,0.06705 0.049,0.06705 0.01646,0 0.02991,0.01798 0.02991,0.04007 0,0.02209 0.01371,0.04034 0.03048,0.04034 0.01677,0 0.03077,0.01798 0.03077,0.04007 0,0.02209 0.01341,0.04007 0.0302,0.04007 0.01677,0 0.03077,0.01825 0.03077,0.04034 0,0.02209 0.01371,0.04007 0.03049,0.04007 0.01677,0 0.0302,0.01713 0.0302,0.03817 0,0.02104 0.01894,0.05482 0.04188,0.07496 0.02295,0.02014 0.05124,0.06323 0.06297,0.09568 0.01172,0.03245 0.03421,0.05887 0.04986,0.05887 0.01565,0 0.02849,0.01798 0.02849,0.04007 0,0.02209 0.0108,0.04034 0.02422,0.04034 0.01341,0 0.04174,0.04196 0.06297,0.0935 0.02123,0.05153 0.05155,0.09377 0.06723,0.09377 0.01569,0 0.02849,0.01713 0.02849,0.03817 0,0.02104 0.0172,0.05441 0.03846,0.07387 0.02127,0.01946 0.06469,0.08652 0.0963,0.149101 0.03161,0.06259 0.06766,0.113669 0.08005,0.113669 0.0124,0 0.03108,0.02937 0.04131,0.06515 0.01024,0.03578 0.03857,0.08244 0.06297,0.103856 0.0244,0.02142 0.08629,0.185842 0.137891,0.365262 0.299738,1.04219 0.464823,1.99133 0.50712,2.919378 l 0.01994,0.441585 -0.153275,0.455216 c -0.08431,0.250318 -0.168702,0.51217 -0.187465,0.581967 -0.05093,0.18939 -0.0747,0.501857 -0.05099,0.668378 l 0.02108,0.147195 0.173504,0.0338 c 0.262133,0.05082 0.256184,0.03927 0.160967,0.295482 -0.09478,0.255058 -0.270998,0.611479 -0.327349,0.662652 -0.02036,0.01849 -0.04669,0.06032 -0.0584,0.09268 -0.0117,0.03235 -0.04002,0.07526 -0.06297,0.0954 -0.02295,0.02014 -0.0416,0.05366 -0.0416,0.07468 0,0.02104 -0.01371,0.03843 -0.03048,0.03843 -0.01677,0 -0.03048,0.01798 -0.03048,0.04007 0,0.02209 -0.01401,0.04007 -0.03077,0.04007 -0.01677,0 -0.0302,0.01825 -0.0302,0.04034 0,0.02209 -0.01371,0.04007 -0.03048,0.04007 -0.01677,0 -0.03077,0.01798 -0.03077,0.04007 0,0.02209 -0.01371,0.04034 -0.03048,0.04034 -0.01677,0 -0.0302,0.01798 -0.0302,0.04007 0,0.02209 -0.01399,0.04007 -0.03077,0.04007 -0.01677,0 -0.03048,0.01861 -0.03048,0.04116 0,0.02254 -0.02042,0.04796 -0.04558,0.05642 -0.02516,0.0084 -0.04587,0.0321 -0.04587,0.0526 0,0.02051 -0.01371,0.03734 -0.03048,0.03734 -0.01677,0 -0.03048,0.01834 -0.03048,0.04088 0,0.02254 -0.02042,0.04796 -0.04558,0.05643 -0.02516,0.0084 -0.04587,0.03222 -0.04587,0.0526 0,0.02039 -0.02742,0.05193 -0.06097,0.07033 -0.03355,0.01839 -0.06097,0.04864 -0.06097,0.06705 0,0.01842 -0.02771,0.04839 -0.06126,0.06678 -0.03355,0.01839 -0.06068,0.04795 -0.06068,0.06543 0,0.01748 -0.03442,0.05527 -0.07635,0.08423 -0.04193,0.02895 -0.07606,0.06489 -0.07606,0.07986 0,0.01498 -0.04142,0.05769 -0.09174,0.09486 -0.05032,0.03717 -0.09146,0.07875 -0.09146,0.09241 0,0.01366 -0.06856,0.08133 -0.152421,0.150193 -0.08387,0.06886 -0.152705,0.134375 -0.152705,0.145832 0,0.0092 -0.114299,0.112603 -0.256696,0.238239 l 0.949855,-0.07196 c 0.08042,-0.0832 0.122401,-0.129037 0.216808,-0.2257 0.513188,-0.525448 0.524248,-0.539414 0.929626,-1.177836 0.476317,-0.750148 0.595218,-0.954126 0.741592,-1.271334 0.128808,-0.279144 0.285755,-0.797146 0.285755,-0.943141 0,-0.09049 -0.01426,-0.113487 -0.09915,-0.158916 -0.05451,-0.02918 -0.131892,-0.0531 -0.171794,-0.05315 -0.06991,-9.7e-5 -0.07139,-0.0052 -0.05071,-0.140654 0.0118,-0.07731 0.04047,-0.267081 0.0641,-0.421688 C 36.293272,24.2206 36.14434,22.916217 35.704582,21.725829 35.57798,21.383118 35.32,20.79188 35.227946,20.633583 35.153496,20.505546 34.349275,19.385547 34.063564,19.011706 33.535028,18.320138 33.08285,17.846641 32.785222,17.67359 c -0.135928,-0.07903 -0.140545,-0.07958 -0.221367,-0.0338 -0.126178,0.07147 -0.303989,0.215787 -0.303989,0.246689 0,0.01517 -0.01342,0.02753 -0.0302,0.02753 -0.01677,0 -0.03077,0.01798 -0.03077,0.04007 0,0.02209 -0.01371,0.04007 -0.03049,0.04007 -0.01677,0 -0.0302,0.01825 -0.0302,0.04034 0,0.02209 -0.01224,0.04007 -0.02707,0.04007 -0.01483,0 -0.03425,0.02397 -0.04302,0.05343 -0.02152,0.0722 -0.174255,0.07135 -0.347293,-0.0022 -0.248881,-0.105761 -0.426433,-0.340346 -0.749853,-0.990572 -0.339474,-0.682493 -0.523291,-0.909314 -0.770083,-0.949954 -0.03032,-0.005 -0.06181,-0.0057 -0.09174,-0.0033 z m -18.365738,1.51366 -0.401138,0.388514 c -0.44943,0.435241 -0.512312,0.789862 -0.175783,0.992005 0.123992,0.07448 0.194861,0.193111 0.157549,0.263483 -0.03731,0.07038 -1.057644,1.159006 -2.267512,2.419383 l -2.199707,2.291527 v 2.884657 2.884657 l -0.52165,0.222748 c -0.286956,0.12254 -0.59875,0.191125 -0.692875,0.152109 -0.09413,-0.03902 -0.123025,-0.03252 -0.0641,0.0146 0.05892,0.04712 0.0044,0.139864 -0.121082,0.206265 -0.194028,0.102688 -0.225471,0.418487 -0.211395,2.111633 0.0091,1.09488 0.0469,2.026221 0.08405,2.069719 0.03714,0.0435 0.396084,0.13606 0.797718,0.205795 0.401632,0.06973 0.757677,0.159045 0.791165,0.198261 0.03349,0.03922 0.100073,0.699293 0.148147,1.467169 0.07553,1.206428 0.05737,1.396295 -0.134187,1.396295 -0.185312,0 -0.224473,0.212266 -0.239031,1.293397 -0.03057,2.269987 0.0039,2.539148 0.349572,2.734434 0.350043,0.197766 2.124785,0.687402 3.752121,1.034859 0.601707,0.128472 1.848882,0.424309 2.771499,0.657412 0.922617,0.233106 3.515428,0.868752 5.7618,1.412778 2.246374,0.544027 4.215596,1.047277 4.376051,1.118215 0.160456,0.07093 0.52148,0.213313 0.802277,0.316226 0.280796,0.102914 0.693554,0.188883 0.917376,0.191196 0.403661,0.0042 1.433775,-0.317367 1.854123,-0.578767 0.120341,-0.07484 2.844432,-0.928673 6.053536,-1.897596 3.209104,-0.968926 6.195758,-1.881062 6.63701,-2.026866 0.441252,-0.145808 1.214724,-0.35231 1.718798,-0.458917 0.504075,-0.106608 1.137239,-0.292753 1.407116,-0.413473 l 0.490596,-0.219452 0.105698,-1.529096 c 0.07538,-1.091467 0.05805,-1.570597 -0.06068,-1.674143 -0.28407,-0.247733 -0.03647,-1.825546 0.380909,-2.427623 0.302774,-0.436747 0.368961,-0.717364 0.439315,-1.862276 0.07911,-1.287461 0.06775,-1.363622 -0.253276,-1.689919 -0.25477,-0.258958 -0.35297,-0.531566 -0.405696,-1.12622 -0.0642,-0.724019 -0.04668,-0.788832 0.229345,-0.841073 0.16451,-0.03114 0.340803,-0.176887 0.391736,-0.323761 0.07346,-0.211832 -0.04042,-0.38969 -0.55071,-0.860853 -0.289017,-0.266858 -1.566441,-1.353367 -2.229906,-1.884882 l -0.204558,0.278789 c 0.331002,0.247161 0.676207,0.504537 1.355266,1.014139 0.0355,0.05239 0.05837,0.08918 0.09117,0.138452 L 43.81503,28.966687 25.854133,30.213933 12.366436,18.141979 c -0.09016,0.195759 -0.404272,0.228115 -0.404272,0.04168 0,-0.09194 0.104027,-0.167178 0.231053,-0.167178 0.127027,0 0.204976,0.05654 0.173219,0.125502 l 0.780624,0.08265 c 0.01294,-0.07682 0.04264,-0.0875 0.08177,-0.01672 0.0048,0.0086 0.0067,0.0177 0.01026,0.0266 l 1.160679,0.12291 c 0.132631,-0.01611 0.288373,-0.01284 0.373218,0.01201 0.03874,0.01134 0.04331,0.02151 0.02137,0.02966 l 1.743297,0.184838 c 0.0082,-0.02362 0.03581,-0.03956 0.08376,-0.03956 0.06296,0 0.11703,0.0262 0.141025,0.06334 l 1.406833,0.149048 0.187748,-0.339538 c -1.205393,-0.121058 -3.090061,-0.354789 -3.915083,-0.487403 -0.361024,-0.05803 -1.115893,-0.134199 -1.677486,-0.169533 z m -0.357549,0.97411 c 0.05716,-0.01789 0.537362,0.325051 1.11709,0.80034 0.618375,0.506974 1.717858,1.399584 2.443295,1.983776 1.474743,1.187604 2.916693,2.419727 5.184595,4.429765 0.84239,0.746608 1.960367,1.716534 2.48432,2.155663 0.523953,0.439129 1.114721,0.946608 1.312816,1.127632 0.198095,0.181025 0.770939,0.688725 1.273214,1.128104 0.502277,0.439379 0.860491,0.822464 0.795724,0.851433 -0.06476,0.02897 -0.54152,-0.334993 -1.059255,-0.808814 -0.517737,-0.473822 -1.367972,-1.223007 -1.889452,-1.664959 -0.521479,-0.441953 -2.3266,-2.00834 -4.01138,-3.480614 -1.68478,-1.472274 -4.096407,-3.510836 -5.359238,-4.530307 -1.262829,-1.019473 -2.296697,-1.912064 -2.297427,-1.983542 -4.6e-5,-0.0044 0.0019,-0.0073 0.0057,-0.0084 z m 0.397435,0.835896 c 0.01692,0.0016 0.0051,0.03848 -0.02165,0.09772 -0.04126,0.09125 0.150822,0.284191 0.466379,0.468806 0.471918,0.276093 0.501905,0.282405 0.249572,0.05275 -0.281686,-0.256378 -0.281809,-0.257431 -0.0017,-0.07346 0.156889,0.103046 0.286018,0.267622 0.286893,0.365909 8.76e-4,0.09829 0.150543,0.232501 0.332478,0.298333 0.181932,0.06583 0.378855,0.158331 0.437605,0.205323 0.05875,0.04699 0.02479,0.05119 -0.0755,0.0094 -0.359262,-0.149635 -0.172742,0.05475 0.354699,0.388515 0.295421,0.186941 0.594119,0.327188 0.66353,0.311753 0.0694,-0.01543 0.106485,0.05569 0.08262,0.158231 -0.02438,0.104739 0.03659,0.174943 0.139031,0.160114 0.100284,-0.01451 0.182335,0.03751 0.182335,0.115613 0,0.149645 0.547466,0.556803 0.70826,0.526731 0.05174,-0.0097 0.121272,0.0022 0.154699,0.02637 0.03343,0.02419 -0.01962,0.04404 -0.117947,0.04404 -0.09833,0 -0.135503,0.05062 -0.08262,0.11255 0.05288,0.06193 0.133086,0.08577 0.178062,0.05321 0.04498,-0.03255 0.153065,0.03012 0.240454,0.138924 0.343632,0.427834 1.432475,1.400407 1.628769,1.454926 0.114213,0.03172 0.207692,0.10683 0.207692,0.166706 0,0.05988 0.246153,0.304711 0.547006,0.544156 0.300853,0.239445 0.708963,0.585565 0.906835,0.769258 0.19787,0.18369 0.411202,0.310913 0.474071,0.282792 0.06287,-0.02812 0.114245,0.01146 0.114245,0.08806 0,0.07661 0.278974,0.349471 0.619941,0.606316 0.340967,0.256847 0.521479,0.426418 0.401138,0.376741 -0.137512,-0.05676 -0.115666,-0.0052 0.05898,0.138923 0.152833,0.126115 0.366165,0.229342 0.474072,0.229342 0.107906,0 0.196298,0.05035 0.196295,0.111846 0,0.0615 -0.08205,0.07761 -0.182335,0.03579 -0.100284,-0.04182 -0.0186,0.06241 0.181481,0.23146 0.632822,0.534666 1.148048,0.867012 1.240167,0.800339 0.04898,-0.03545 0.05031,0.0082 0.0032,0.09725 -0.05003,0.09435 0.04844,0.247139 0.236181,0.36638 0.198776,0.126253 0.274851,0.143925 0.198859,0.04616 -0.07794,-0.100288 -0.0069,-0.08475 0.193733,0.04262 0.350025,0.222203 0.417232,0.327961 0.134471,0.211447 -0.100284,-0.04133 0.128358,0.144126 0.507975,0.412294 0.445545,0.314743 0.65971,0.545316 0.604271,0.649878 -0.04723,0.08908 -0.0259,0.161763 0.04758,0.161763 0.07348,0 0.258703,0.06634 0.411393,0.147164 0.244461,0.129375 0.252836,0.170334 0.07122,0.34307 -0.173105,0.16465 -0.173325,0.174804 -0.0017,0.06404 0.275631,-0.177895 0.437889,-0.166257 0.437889,0.03155 0,0.137987 0.142751,0.152576 0.911678,0.09183 1.088922,-0.08603 1.266054,-0.149753 0.416807,-0.149753 -0.339015,0 -0.580033,-0.04263 -0.53561,-0.09465 0.09486,-0.111093 0.611801,-0.164334 7.740425,-0.800574 0.882503,-0.07877 1.899935,-0.172175 2.260959,-0.207206 2.133658,-0.207034 3.030547,-0.289314 4.667788,-0.429015 2.208979,-0.188487 2.082854,-0.186769 1.952698,-0.02567 -0.05864,0.07258 0.03637,0.04124 0.211111,-0.0697 0.174738,-0.110937 0.360965,-0.17045 0.413959,-0.132095 0.05299,0.03836 0.01981,0.0697 -0.07379,0.0697 -0.0959,0 -0.170085,0.154921 -0.170085,0.354842 0,0.195128 -0.04185,0.575202 -0.09288,0.844606 -0.07899,0.417071 -0.141237,0.489762 -0.419656,0.489762 -0.179841,0 -0.408671,0.07136 -0.508545,0.158467 -0.135055,0.117786 -0.137399,0.158231 -0.0094,0.158231 0.126006,0 0.166614,0.459497 0.151567,1.715582 -0.0113,0.943578 -0.01524,1.775096 -0.0086,1.847678 0.0067,0.07258 0.170787,0.131859 0.364671,0.131859 0.193883,0 0.391626,-0.05928 0.439315,-0.131859 0.04768,-0.07258 0.04648,-0.0133 -0.0026,0.131859 -0.04904,0.145166 -0.131622,0.786531 -0.18376,1.425259 -0.08978,1.099866 -0.112241,1.163258 -0.423074,1.19521 -0.370107,0.03804 -0.355445,-0.02696 -0.350426,1.549818 0.0045,1.430928 -0.04698,1.636468 -0.409684,1.636468 -0.154192,0 -0.314751,0.04026 -0.35698,0.08971 -0.04223,0.04945 -0.390655,0.175288 -0.774355,0.279494 -0.383702,0.10421 -0.960282,0.271876 -1.281193,0.372503 -0.320911,0.100628 -0.944497,0.288095 -1.385749,0.416535 -0.441252,0.128436 -1.142741,0.347776 -1.558968,0.487643 -0.416228,0.139869 -0.82295,0.254299 -0.9037,0.254299 -0.08075,0 -0.644257,0.164238 -1.252131,0.364733 -0.607874,0.200498 -1.152943,0.374162 -1.211391,0.385925 -0.172151,0.03464 -1.090146,0.31276 -1.590022,0.481756 -0.254507,0.08605 -0.54989,0.16908 -0.656408,0.184603 -0.106516,0.01552 -0.521936,0.135549 -0.923074,0.266544 -0.401137,0.130996 -0.794982,0.249784 -0.87521,0.263954 -0.08022,0.01417 -0.462976,0.127955 -0.850709,0.253122 -0.853066,0.275385 -0.959249,0.279185 -1.207117,0.04285 -0.174109,-0.166003 -0.194403,-0.150582 -0.198575,0.15211 -0.0026,0.185288 -0.05379,0.357938 -0.11396,0.383569 -0.06017,0.02563 -0.322733,0.07984 -0.583473,0.120323 l -0.474072,0.07346 v -1.69133 c 0,-0.930247 0.04923,-1.712555 0.109401,-1.738187 0.06017,-0.02563 0.307129,-0.07724 0.548716,-0.114672 0.411985,-0.06383 0.439151,-0.04837 0.437605,0.248886 -0.0025,0.483141 0.283883,0.434848 0.333616,-0.05628 0.05967,-0.589169 -0.202171,-0.742159 -0.905979,-0.52932 l -0.523359,0.158231 V 40.551454 38.81468 h 0.364671 c 0.200568,0 0.36467,-0.05057 0.36467,-0.112552 0,-0.06199 0.122498,-0.08458 0.272364,-0.05015 0.23453,0.05387 0.281924,-0.0075 0.34074,-0.441494 0.06777,-0.500068 0.06864,-1.079299 0.004,-3.394905 l -0.03362,-1.201332 -0.656408,0.05345 -0.656408,0.05345 -0.0017,-0.54133 c -8.75e-4,-0.297716 -0.04216,-0.719757 -0.09202,-0.938085 -0.08177,-0.358052 -0.110009,-0.378806 -0.285754,-0.211209 -0.145722,0.138969 -0.195958,0.148123 -0.199429,0.03626 -0.0058,-0.188215 -0.189104,-0.06337 -0.262677,0.178952 -0.03034,0.09993 -0.04711,1.360301 -0.03732,2.800597 l 0.01766,2.618583 -0.553845,-0.0664 c -0.304747,-0.03644 -0.823587,-0.161601 -1.153016,-0.278266 l -0.599143,-0.212152 -0.09374,-0.957628 c -0.05164,-0.526725 -0.094,-1.356752 -0.094,-1.84466 v -0.887226 l 0.619941,-0.19402 c 0.982894,-0.307454 1.285187,-0.356699 1.204839,-0.196847 -0.117274,0.233311 -0.522605,2.33068 -0.459259,2.376528 0.03264,0.02362 0.129125,-0.232751 0.214245,-0.569585 0.143132,-0.566391 0.64675,-2.304414 0.827633,-2.855932 0.04284,-0.13065 0.01612,-0.237581 -0.05926,-0.237581 -0.07538,0 -0.180185,0.142733 -0.233048,0.316933 -0.05286,0.174199 -0.127897,0.316697 -0.166666,0.316697 -0.07442,0 -5.389541,-0.666775 -7.126752,-0.894054 -1.094969,-0.143251 -4.26581,-0.657115 -6.053532,-0.980937 l -1.094012,-0.19826 -0.07294,-0.467864 c -0.07147,-0.458464 -0.08397,-0.468014 -0.619946,-0.478696 -0.300854,-0.006 -0.547007,0.02957 -0.547007,0.07912 0,0.04955 0.06564,0.09018 0.145869,0.09018 0.08023,0 0.145868,0.171297 0.145868,0.380742 0,0.319703 -0.04096,0.369339 -0.25527,0.308927 C 8.794981,30.174354 8.335496,30.091319 7.914301,30.029567 L 7.148492,29.917488 v -2.892192 c 0,-2.473319 0.03168,-2.900971 0.218803,-2.952941 0.120341,-0.03342 0.218802,-0.104857 0.218802,-0.158937 0,-0.09906 0.772046,-0.932884 2.900843,-3.133307 0.936548,-0.968059 1.245541,-1.279247 1.296291,-1.274325 z m 1.289168,0.975286 c 0.01744,0.0021 0.03664,0.0075 0.05669,0.01648 0.08023,0.03588 0.145868,0.08624 0.145868,0.111844 0,0.02561 -0.06564,0.04639 -0.145868,0.04639 -0.08023,0 -0.145868,-0.05012 -0.145868,-0.111609 0,-0.04612 0.03687,-0.06947 0.08917,-0.06311 z m 0.567234,0.544391 0.328204,0.201086 c 0.180512,0.110615 0.328204,0.217312 0.328204,0.237346 0,0.08449 -0.117495,0.02238 -0.378631,-0.200851 z m 1.38575,1.10856 c 0.0075,-0.0055 0.06666,0.02641 0.182335,0.09207 0.140399,0.07969 0.25527,0.162914 0.25527,0.184839 0,0.08689 -0.119697,0.03082 -0.310256,-0.145046 -0.09072,-0.08373 -0.134879,-0.12641 -0.127349,-0.131859 z m 6.883734,5.920011 c 0.0116,-0.0084 0.0757,0.03439 0.201708,0.121498 0.144994,0.100234 0.223539,0.211377 0.174644,0.246766 -0.0489,0.03539 -0.167433,-0.04663 -0.263532,-0.182249 -0.08351,-0.117866 -0.124423,-0.177619 -0.11282,-0.186015 z m 21.70447,1.095372 c 0.07227,-8.38e-4 0.115488,4.19e-4 0.121938,0.0049 0.08578,0.06009 -0.752159,0.154008 -3.329048,0.372738 -1.403982,0.119173 -3.668589,0.317964 -5.032458,0.441964 -1.363869,0.124001 -2.939248,0.229261 -3.500841,0.233579 -0.561593,0.0044 -1.061526,0.04792 -1.111104,0.09701 -0.04958,0.04909 -0.902911,0.154906 -1.89629,0.235227 -2.269681,0.183525 -2.413805,0.183861 -2.510531,0.0014 -0.09303,-0.175466 -0.03616,-0.181941 4.423913,-0.484348 3.220166,-0.218338 5.069656,-0.351057 7.366352,-0.52932 0.722048,-0.05604 1.67384,-0.1268 2.115091,-0.157055 0.441252,-0.03025 1.393043,-0.09758 2.115092,-0.149519 0.541535,-0.03895 1.021069,-0.06402 1.237886,-0.06664 z M 9.582679,29.567115 c 0.06914,0.005 0.150147,0.143613 0.159259,0.375563 0.0069,0.17627 -0.0048,0.320464 -0.02621,0.320464 -0.137479,0 -0.233332,-0.183137 -0.233332,-0.445965 0,-0.176977 0.04651,-0.253962 0.100283,-0.250062 z m 30.082785,0.574059 c -0.323479,0.0057 -1.072587,0.06177 -2.654688,0.189546 -0.463588,0.03744 -0.872452,0.102917 -0.908828,0.145517 -0.07937,0.09295 1.10882,0.01702 1.824777,-0.116553 0.280797,-0.05239 0.818522,-0.09552 1.194868,-0.09583 0.376346,-4.19e-4 0.715936,-0.03772 0.754698,-0.08312 0.02413,-0.02826 -0.01673,-0.04296 -0.210827,-0.03956 z m -32.42551,0.03438 c 0.201937,-8.38e-4 0.455878,0.04408 0.934754,0.133979 0.547145,0.102712 1.060119,0.157542 1.140166,0.121735 0.08005,-0.03581 0.298375,-0.0205 0.484898,0.03391 0.186524,0.0544 0.962618,0.201445 1.72478,0.326821 2.850039,0.468833 4.027653,0.657395 4.594853,0.735823 0.320911,0.04437 1.07578,0.154648 1.677486,0.245116 0.601707,0.09047 1.389397,0.193659 1.750421,0.229341 0.361025,0.03568 1.405582,0.165842 2.32136,0.289149 1.236355,0.16647 1.58375,0.245917 1.349282,0.308693 -0.375284,0.100478 -0.429079,0.318401 -0.0604,0.244645 0.140397,-0.02808 0.05834,0.01896 -0.182336,0.10431 -0.495838,0.175844 -1.048357,0.188515 -1.896289,0.0438 -0.32091,-0.05477 -0.698344,-0.07817 -0.838743,-0.05204 -0.140398,0.02613 -0.25527,0.0087 -0.25527,-0.03885 0,-0.04753 -0.246153,-0.116393 -0.547006,-0.153052 -0.300853,-0.03666 -0.776749,-0.09472 -1.057545,-0.129035 -0.280798,-0.03431 -0.688953,-0.06293 -0.90712,-0.06357 -0.218168,-5.59e-4 -0.362046,-0.04172 -0.319657,-0.09136 0.04239,-0.04964 -0.08793,-0.09018 -0.289457,-0.09018 -0.201529,0 -0.517134,-0.04409 -0.701422,-0.09795 -0.184286,-0.05387 -1.385293,-0.273661 -2.668934,-0.488366 -1.283642,-0.214707 -3.482607,-0.590201 -4.88659,-0.834482 l -2.552697,-0.444083 0.562676,-0.19355 c 0.270857,-0.09315 0.420853,-0.139932 0.62279,-0.140808 z m 26.456589,0.523667 c -0.0661,0 -0.132193,0.0073 -0.182335,0.0219 -0.100285,0.02929 -0.01824,0.05321 0.182335,0.05321 0.200569,0 0.28262,-0.02393 0.182336,-0.05321 -0.05014,-0.01465 -0.11624,-0.0219 -0.182336,-0.0219 z m -1.023073,0.11208 c -0.18653,-0.0027 -0.578961,0.02338 -1.019084,0.08006 -0.492231,0.06339 -0.546956,0.08626 -0.218802,0.09159 0.240682,0.004 0.700168,-0.03225 1.021078,-0.08029 0.383965,-0.05748 0.403338,-0.0887 0.216808,-0.09136 z m -27.129521,0.01389 1.13048,0.183661 c 0.621764,0.101113 2.04945,0.352501 3.172637,0.558517 1.971141,0.361551 4.149593,0.738537 7.366352,1.274798 0.84239,0.140433 2.296797,0.359391 3.231897,0.486467 l 1.699993,0.230989 0.06239,0.436783 c 0.03426,0.240312 0.07708,1.137661 0.09516,1.994137 0.02591,1.227801 -0.0074,1.555496 -0.157834,1.548875 -0.104935,-0.0046 -0.650372,-0.09977 -1.211965,-0.211445 C 20.371469,37.216297 19.419677,37.031021 18.81797,36.916149 17.872669,36.735675 15.244843,36.205423 8.753053,34.88504 7.910663,34.713703 6.844001,34.500496 6.382692,34.411289 L 5.543949,34.24906 v -1.712052 z m 24.94349,0.190026 c -0.09253,0 -0.18507,0.0065 -0.255269,0.01978 -0.140399,0.02656 -0.02553,0.04827 0.255269,0.04827 0.280797,0 0.395668,-0.02171 0.25527,-0.04827 -0.0702,-0.01327 -0.162735,-0.01978 -0.25527,-0.01978 z m -1.937883,0.164587 c -0.02813,-0.0011 -0.06087,-9.46e-4 -0.09716,2.8e-4 -0.04838,0.0017 -0.103036,0.0057 -0.162394,0.01201 -0.237428,0.02522 -0.460259,0.07898 -0.495154,0.11985 -0.03489,0.04086 0.130664,0.05371 0.36809,0.02849 0.237428,-0.02522 0.46026,-0.07922 0.495155,-0.120085 0.01963,-0.02299 -0.02415,-0.03704 -0.108547,-0.0405 z m 13.107355,0.09465 c -0.0749,0.0011 -0.134407,0.01105 -0.160114,0.02966 -0.09221,0.06678 -0.485347,0.105165 -1.275209,0.12456 -0.22207,0.0054 -0.365949,0.05434 -0.319656,0.108548 0.1087,0.127296 0.382117,0.119009 1.4527,-0.0438 0.641927,-0.09762 0.790082,-0.149749 0.555554,-0.195199 -0.08793,-0.01704 -0.178376,-0.02482 -0.253275,-0.02378 z m 1.738454,0.255713 c 0.277131,0 0.365774,0.383913 0.279772,1.212399 -0.04229,0.407409 -0.08958,1.072749 -0.104844,1.478471 -0.02319,0.616425 -0.07057,0.74354 -0.289458,0.773967 -0.243496,0.03385 -0.260636,-0.07713 -0.241024,-1.574541 0.02229,-1.702014 0.05777,-1.890296 0.355554,-1.890296 z m -4.086308,0.0026 c -0.188409,-0.0051 -0.361253,0.02562 -0.361253,0.09631 0,0.05441 -0.213332,0.084 -0.474072,0.06593 -0.26074,-0.01807 -0.342791,-0.0075 -0.182336,0.02307 0.267603,0.051 0.26157,0.06273 -0.07293,0.142691 -0.260317,0.06223 -0.197704,0.07014 0.218802,0.02778 0.320911,-0.03263 0.60521,-0.102762 0.631907,-0.155877 0.0267,-0.05312 0.21718,-0.06589 0.423075,-0.02849 0.262086,0.04761 0.343258,0.03172 0.270941,-0.05298 -0.06179,-0.07236 -0.265721,-0.113347 -0.45413,-0.118439 z m 2.118509,0.325647 c -0.120341,-0.0041 -0.547007,0.05861 -0.948144,0.139395 -0.401138,0.08078 -0.630881,0.150152 -0.51054,0.154227 0.120341,0.0041 0.547007,-0.05861 0.948145,-0.139395 0.401138,-0.08078 0.63088,-0.150152 0.510539,-0.154227 z m -4.230182,0.01154 c -0.240683,-0.0049 -0.437606,0.03235 -0.437606,0.08288 0,0.05053 -0.24006,0.06365 -0.53333,0.0292 -0.383367,-0.04503 -0.503706,-0.02818 -0.428774,0.05957 0.120263,0.140837 0.238282,0.146132 1.160679,0.05463 0.761016,-0.0755 0.905826,-0.212557 0.239031,-0.22628 z m -1.919936,0.234285 c -0.26464,0.0071 -0.559826,0.07871 -0.559826,0.176361 0,0.05177 0.135094,0.09419 0.300284,0.09419 0.182461,0 0.261204,-0.04602 0.20057,-0.117026 -0.06837,-0.08006 0.0094,-0.09277 0.246721,-0.04073 0.261366,0.05731 0.306817,0.04544 0.185184,-0.04757 -0.06631,-0.0507 -0.214149,-0.06947 -0.372933,-0.06523 z m 7.525612,0.03791 c 0.01132,-0.0044 0.02459,0.0114 0.03846,0.04992 0.03697,0.102722 0.03455,0.245221 -0.0054,0.316699 -0.03996,0.07147 -0.07021,-0.01252 -0.06723,-0.186723 0.0019,-0.108875 0.01532,-0.172528 0.03419,-0.179894 z m -8.353813,0.04545 c -0.274391,-0.0094 -1.044441,0.196759 -1.044441,0.300921 0,0.05356 0.06564,0.09725 0.145868,0.09725 0.08022,0 0.145869,-0.03911 0.145869,-0.08713 0,-0.048 0.213332,-0.07146 0.474072,-0.05204 0.385775,0.02873 0.419737,0.01695 0.182336,-0.06358 -0.279445,-0.09479 -0.280053,-0.09933 -0.01225,-0.106429 0.153769,-0.0041 0.240415,-0.03605 0.192307,-0.07087 -0.01527,-0.01105 -0.04456,-0.0168 -0.08376,-0.01813 z m -1.507401,0.214507 c -0.08082,6e-6 -0.198138,0.01128 -0.360398,0.03249 -0.309277,0.04044 -0.627843,0.100924 -0.707973,0.134686 -0.08013,0.03376 -0.244234,0.06695 -0.364671,0.0737 -0.120438,0.0067 -0.448832,0.02433 -0.729628,0.03885 -0.280797,0.01451 -0.421042,0.05188 -0.31168,0.08336 0.167876,0.04832 0.167876,0.07336 0,0.160116 -0.152607,0.07886 -0.139851,0.08903 0.0547,0.0438 0.139422,-0.03242 0.582497,-0.09043 0.984612,-0.129034 0.402116,-0.03861 0.731052,-0.101507 0.731052,-0.139864 0,-0.03836 0.174099,-0.06798 0.386893,-0.06569 0.212795,0.0023 0.416678,-0.05832 0.45299,-0.134686 0.03175,-0.06677 -0.0012,-0.09773 -0.135897,-0.09772 z m 4.243288,0.09112 c -0.05068,-0.0015 -0.108321,0.0052 -0.160969,0.02049 -0.116364,0.0337 -0.08189,0.05874 0.08804,0.06382 0.153768,0.0045 0.239922,-0.02025 0.191451,-0.05533 -0.02423,-0.01754 -0.06784,-0.02745 -0.118517,-0.02896 z m 6.842422,0.159879 c 0.0529,0.0087 0.07878,0.267362 0.05784,0.60255 -0.07275,1.164282 -0.130887,1.301722 -0.154701,0.365674 -0.01283,-0.504652 0.02587,-0.939494 0.08604,-0.966575 0.0038,-0.0017 0.0073,-0.0023 0.01083,-0.0016 z M 29.89542,32.796974 c -0.18989,0 -0.262097,0.04491 -0.196295,0.12197 0.06563,0.07685 0.03976,0.09304 -0.0698,0.04404 -0.244647,-0.109434 -1.351011,0.04079 -1.241875,0.168591 0.08263,0.09677 1.430625,0.0261 1.698854,-0.089 0.219394,-0.09415 0.101699,-0.245588 -0.190882,-0.245588 z m 5.113938,0.01365 c -0.0661,0 -0.132193,0.0075 -0.182335,0.02214 -0.100285,0.02929 -0.01824,0.05321 0.182335,0.05321 0.20057,0 0.282621,-0.02393 0.182336,-0.05321 -0.05014,-0.01465 -0.11624,-0.02214 -0.182336,-0.02214 z m -7.091708,0.303042 c -0.120337,0 -0.178358,0.04765 -0.128775,0.105721 0.04958,0.05807 0.188489,0.105488 0.308831,0.105488 0.120336,0 0.178357,-0.04743 0.128774,-0.105488 -0.04958,-0.05807 -0.188489,-0.105721 -0.30883,-0.105721 z m 1.974065,0.43537 c -0.05068,-0.0015 -0.10832,0.0052 -0.160968,0.02049 -0.116363,0.03371 -0.08189,0.05874 0.08804,0.06381 0.153769,0.0045 0.239924,-0.02025 0.191453,-0.05533 -0.02423,-0.01754 -0.06785,-0.02745 -0.118519,-0.02896 z m 1.908539,6.97e-4 c -0.0661,0 -0.132192,0.0073 -0.182335,0.0219 -0.100284,0.02929 -0.01824,0.05321 0.182335,0.05321 0.20057,0 0.282621,-0.02393 0.182336,-0.05321 -0.05014,-0.01465 -0.11624,-0.0219 -0.182336,-0.0219 z m -0.595723,0.104782 c -0.05068,-0.0015 -0.10832,0.0052 -0.160969,0.02049 -0.116363,0.03371 -0.08189,0.05874 0.08804,0.06381 0.153769,0.0045 0.239922,-0.02025 0.191452,-0.05533 -0.02423,-0.01754 -0.06785,-0.02746 -0.118518,-0.02896 z m -2.62563,0.105723 c -0.05068,-0.0015 -0.108321,0.005 -0.160969,0.02025 -0.116364,0.0337 -0.08189,0.05898 0.08804,0.06404 0.153768,0.0045 0.239922,-0.02049 0.191452,-0.05557 -0.02423,-0.01753 -0.06785,-0.02722 -0.118518,-0.02873 z m -2.196858,0.149284 c 0.0759,0.0024 0.161861,0.01216 0.259544,0.02567 l 0.345011,0.04757 v 2.14601 c 0,1.361738 -0.05512,2.170124 -0.15071,2.212881 -0.08284,0.03706 -0.345404,0.108108 -0.583473,0.157524 l -0.432763,0.08971 v -2.224419 c 0,-2.115319 0.03112,-2.471383 0.562391,-2.454937 z M 7.59038,35.119572 c 0.217933,0 1.729242,0.301843 2.110817,0.421478 0.160456,0.0503 0.652762,0.148312 1.094013,0.218037 0.441252,0.06973 1.064839,0.185217 1.38575,0.256656 0.32091,0.07144 1.010138,0.212756 1.531617,0.313873 0.52148,0.101118 1.112246,0.230985 1.312816,0.288677 0.337872,0.09719 1.108696,0.250375 4.157248,0.826476 0.641822,0.121288 1.298229,0.2596 1.458685,0.307279 0.955373,0.283877 2.190507,0.380096 3.829043,0.29786 0.100285,-0.005 0.182336,-0.05902 0.182336,-0.11985 0,-0.06083 0.114872,-0.02744 0.25527,0.07417 0.223072,0.161437 0.259798,0.445215 0.290598,2.250554 0.02983,1.748886 0.0034,2.056986 -0.17208,2.008264 -0.113972,-0.03165 -0.441707,-0.08919 -0.728202,-0.128092 l -0.520797,-0.07087 -0.02479,1.146703 c -0.01365,0.630675 -0.02451,1.419849 -0.02421,1.75373 5.84e-4,0.565798 -0.0225,0.607022 -0.339884,0.607022 -0.187288,0 -0.340456,-0.04742 -0.340456,-0.105487 0,-0.05807 -0.147692,-0.106533 -0.328204,-0.107842 -0.180512,-0.0012 -1.181534,-0.218436 -2.224493,-0.482228 -1.042958,-0.263794 -2.421415,-0.599492 -3.063235,-0.746181 -0.641821,-0.14669 -1.209336,-0.33116 -1.305408,-0.362613 -0.09588,-0.03139 -0.241542,-0.05394 -0.396295,-0.09584 -0.346756,-0.06419 -1.440995,-0.261171 -2.112812,-0.482227 -0.252807,-0.08318 -0.551587,-0.151403 -0.663815,-0.151403 -0.112228,0 -0.266517,-0.04199 -0.342734,-0.09324 -0.07622,-0.05126 -0.55738,-0.168443 -1.069515,-0.260431 -0.512135,-0.09199 -0.953664,-0.183248 -0.980908,-0.202968 -0.02724,-0.01972 -0.09406,-0.89804 -0.148717,-1.951752 l -0.09943,-1.915728 -0.597434,-0.1806 C 9.386574,38.333689 9.001026,38.236496 8.858466,38.217083 8.715907,38.197673 8.381392,38.1159 8.114879,38.035305 7.669295,37.900557 7.624108,37.843318 7.553058,37.322559 7.396455,36.174747 7.414327,35.119568 7.590378,35.119568 Z m 16.094523,0.564404 c -0.02211,-0.0025 -0.0375,0.03615 -0.04187,0.113023 -0.0063,0.111291 0.02816,0.173768 0.07664,0.138688 0.04846,-0.03508 0.05382,-0.126052 0.01169,-0.202264 -0.01747,-0.03159 -0.03317,-0.04799 -0.04644,-0.04944 z m -1.119368,1.654362 c 0.09554,-8.37e-4 0.214232,0.04601 0.263816,0.104077 0.111924,0.131073 0.06142,0.131073 -0.218803,0 -0.13147,-0.0615 -0.149399,-0.103127 -0.04502,-0.104077 z m -2.592868,0.01131 c 0.05068,0.0015 0.09428,0.01143 0.118519,0.02896 0.04847,0.03508 -0.03769,0.06015 -0.191453,0.05557 -0.169929,-0.0051 -0.204399,-0.03035 -0.08804,-0.06404 0.05265,-0.01525 0.110294,-0.022 0.160968,-0.02049 z m 1.750421,0.316932 c 0.05068,0.0015 0.09428,0.01119 0.118518,0.02873 0.04847,0.03508 -0.03769,0.06015 -0.191453,0.05557 -0.169928,-0.0051 -0.204397,-0.03034 -0.08804,-0.06404 0.05265,-0.01525 0.110295,-0.02176 0.160969,-0.02025 z m 20.021001,0.360731 c -0.391713,0.0022 -1.184866,0.154844 -1.848141,0.368733 -0.160455,0.05174 -1.571731,0.401747 -3.13617,0.777734 -2.663848,0.640218 -8.557387,2.100953 -9.043837,2.241609 -0.16032,0.04636 -0.169877,0.0765 -0.03561,0.112787 0.100781,0.02723 0.150288,0.08818 0.10997,0.135392 -0.04031,0.04722 0.402406,-0.0341 0.983757,-0.180836 1.607771,-0.405793 9.343484,-2.319793 10.830156,-2.67957 2.38514,-0.577205 2.60127,-0.646425 2.340445,-0.752068 -0.0411,-0.01666 -0.110174,-0.02428 -0.200568,-0.02378 z m -16.287398,0.03249 c 0.008,0.0033 0.01675,0.01698 0.02592,0.04239 0.03669,0.101617 0.03669,0.267826 0,0.36944 -0.03669,0.101618 -0.06667,0.01863 -0.06667,-0.184601 0,-0.152425 0.01682,-0.237182 0.04074,-0.227223 z M 7.12457,38.181294 c 0.04958,0 2.252694,0.549632 2.317084,0.578061 0.01778,0.0079 0.07538,0.807384 0.12792,1.776803 0.05379,0.992477 0.0398,1.760522 -0.03219,1.757969 -0.118591,-0.0042 -2.245685,-0.630228 -2.372925,-0.698384 -0.07075,-0.0379 -0.110196,-3.414449 -0.03988,-3.414449 z m 34.144877,0.01295 c 0.05068,0.0015 0.09428,0.01143 0.118519,0.02896 0.04847,0.03508 -0.03769,0.06015 -0.191453,0.05557 -0.169929,-0.0051 -0.204397,-0.03034 -0.08804,-0.06404 0.05265,-0.01525 0.110294,-0.02199 0.160968,-0.02049 z m 1.897144,0.01107 c 0.119551,0.0091 0.157263,0.331914 0.157263,1.275738 0,1.084819 -0.0393,1.328067 -0.223074,1.379106 -0.194297,0.05397 -0.217865,-0.110632 -0.182336,-1.273384 0.02911,-0.952681 0.09299,-1.348074 0.223076,-1.379342 0.0087,-0.0021 0.0171,-0.0027 0.02507,-0.0021 z m -1.50968,0.420302 c -0.05426,-0.0027 -0.113383,0.0044 -0.174074,0.02119 -0.22734,0.06314 -0.234857,0.08928 -0.05128,0.180601 0.162619,0.0809 0.134327,0.09028 -0.116809,0.03908 -0.203989,-0.04158 -0.863526,0.06078 -1.713953,0.265838 -1.288342,0.31065 -1.505869,0.402421 -1.302559,0.54957 0.04387,0.03175 0.763989,-0.102765 1.600278,-0.299038 0.836288,-0.196272 1.617083,-0.356962 1.735035,-0.356962 0.284207,0 0.386945,-0.134923 0.236752,-0.31081 -0.04623,-0.05414 -0.122958,-0.08499 -0.213389,-0.08947 z M 9.938518,38.814692 c 0.08208,0 0.223594,1.120488 0.263532,2.085258 0.0078,0.188717 -0.0524,0.343071 -0.133902,0.343071 -0.0815,0 -0.150461,-0.08322 -0.153276,-0.18484 -0.0028,-0.101614 -0.01966,-0.6479 -0.03732,-1.214046 -0.01766,-0.566145 0.0099,-1.029443 0.06097,-1.029443 z m 27.3318,0.316931 c 0.120341,0 0.218803,0.01862 0.218803,0.04144 0,0.02282 -0.09846,0.06877 -0.218803,0.102191 -0.120342,0.03342 -0.218803,0.0148 -0.218803,-0.04144 0,-0.05624 0.09846,-0.102192 0.218803,-0.102192 z m -2.084322,0.53568 c 0.0189,4.18e-4 0.03493,0.0044 0.04615,0.01248 0.04491,0.0325 -0.03619,0.09151 -0.180056,0.131154 -0.207892,0.05729 -0.224756,0.0454 -0.08176,-0.05886 0.07421,-0.05411 0.15898,-0.08597 0.215669,-0.08477 z m 2.306828,0.07652 c -0.08035,0.0012 -0.22825,0.04739 -0.507404,0.13916 -0.324738,0.10676 -0.693441,0.195098 -0.819371,0.196376 -0.125931,0.0012 -0.37658,0.125326 -0.557262,0.275726 l -0.328774,0.273373 0.338745,-0.07182 c 1.350804,-0.28762 1.994325,-0.510092 1.976346,-0.682843 -0.0091,-0.08746 -0.02192,-0.131178 -0.10228,-0.129976 z m -3.516794,0.245355 c 0.05068,0.0015 0.09428,0.01119 0.118517,0.02873 0.04847,0.03508 -0.03769,0.06015 -0.191451,0.05557 -0.16993,-0.005 -0.204399,-0.03035 -0.08804,-0.06404 0.05265,-0.01525 0.110294,-0.02176 0.160969,-0.02024 z m 0.83162,0.41347 c -0.135703,9.47e-4 -0.564361,0.09465 -1.20313,0.268665 -1.970201,0.536709 -4.358228,1.230592 -4.429896,1.287041 -0.04012,0.0316 0.04816,0.02582 0.196011,-0.01272 0.645092,-0.168121 1.013054,-0.20382 0.914812,-0.08877 -0.07268,0.08511 0.02403,0.08541 0.356977,0.0014 0.269676,-0.06804 0.38948,-0.145032 0.292592,-0.18837 -0.102021,-0.04564 -0.02193,-0.120281 0.21168,-0.197319 0.538419,-0.177555 0.793344,-0.146057 0.361822,0.04474 -0.562322,0.248629 -0.02508,0.129834 1.896288,-0.419595 0.922618,-0.263827 1.546205,-0.482572 1.38575,-0.485759 -0.242301,-0.0048 -0.25466,-0.02308 -0.07293,-0.108078 0.147385,-0.06894 0.171449,-0.1018 0.09003,-0.10125 z m -4.247276,0.421481 c 0.08022,0 0.04741,0.0459 -0.07293,0.102189 -0.120341,0.05629 -0.284443,0.102192 -0.364671,0.102192 -0.08022,0 -0.04741,-0.0459 0.07293,-0.102192 0.120342,-0.05629 0.284443,-0.102189 0.364671,-0.102189 z m -0.802277,0.21686 c 0.144273,0.0038 0.119429,0.03672 -0.07293,0.09654 -0.401005,0.124719 -0.631313,0.124719 -0.36467,0 0.120341,-0.05629 0.317263,-0.09973 0.437604,-0.09654 z m -1.312815,0.316699 c 0.144273,0.0038 0.119428,0.03671 -0.07293,0.09654 -0.401005,0.124717 -0.631314,0.124717 -0.364671,0 0.120341,-0.05629 0.317264,-0.09973 0.437605,-0.09654 z M 10.13168,41.510036 c 0.05458,-0.01167 0.07655,0.09355 0.07778,0.340008 0.0012,0.246782 -0.06336,0.448793 -0.143589,0.448793 -0.186131,0 -0.186131,-0.530661 0,-0.739119 0.02589,-0.02899 0.04762,-0.04579 0.06581,-0.04968 z m 19.407615,0.580887 c -0.08022,0 -0.244329,0.0459 -0.364671,0.102192 -0.120342,0.05629 -0.153162,0.102425 -0.07293,0.102425 0.08022,0 0.24433,-0.04614 0.364671,-0.102425 0.120341,-0.05629 0.153161,-0.102192 0.07293,-0.102192 z m -1.486603,0.103839 c -0.21878,-0.0021 -0.380235,0.178836 -0.272364,0.30516 0.04493,0.05262 0.229537,0.06563 0.409971,0.02873 l 0.327917,-0.06711 -0.35185,-0.03815 c -0.270739,-0.02935 -0.304366,-0.05995 -0.145868,-0.132567 0.131747,-0.06036 0.143309,-0.09501 0.03219,-0.09607 z m -3.84272,0.21898 c 0.01986,-0.0014 0.04111,-0.0014 0.06382,0 0.121072,0.0072 0.284138,0.05118 0.503132,0.106431 l 0.459255,0.115847 v 1.731831 c 0,0.952409 -0.01641,1.727934 -0.03647,1.723353 -1.321355,-0.302008 -1.276348,-0.229311 -1.276348,-2.063362 0,-1.243409 -0.01126,-1.593025 0.286608,-1.6141 z m 1.254125,1.62964 c 0.0076,-0.0071 0.01615,0.03401 0.02536,0.12927 0.02947,0.304848 0.02947,0.80371 0,1.108559 -0.02947,0.304847 -0.05356,0.05542 -0.05356,-0.55428 0,-0.419167 0.01151,-0.667994 0.0282,-0.683549 z"
       inkscape:connector-curvature="0" />
  </g>
  <g
     id="g1625"
     inkscape:groupmode="layer"
     inkscape:label="Drill" />
</svg>
