999
FreeCAD v1.1 20260325 (Git shallow)
  0
SECTION
  2
HEADER
  9
$ACADVER
  1
AC1014
  9
$ACADMAINTVER
 70
     9
  9
$DWGCODEPAGE
  3
ANSI_1252
  9
$TEXTSTYLE
  7
STANDARD
  9
$DIMSTYLE
  2
STANDARD
  9
$DIMTXSTY
  7
STANDARD
  9
$CMLSTYLE
  2
STANDARD
  9
$LUNITS
 70
2
  9
$INSUNITS
 70
4
  9
$PEXTMAX
 10
50
 20
50
 30
50
  9
$PEXTMIN
 10
0
 20
0
 30
0
  9
$HANDSEED
  5
FFFF
  0
ENDSEC
  0
SECTION
  2
CLASSES
  0
CLASS
  1
ACDBDICTIONARYWDFLT
  2
AcDbDictionaryWithDefault
  3
ObjectDBX Classes
 90
        0
280
     0
281
     0
  0
CLASS
  1
XRECORD
  2
AcDbXrecord
  3
ObjectDBX Classes
 90
        0
280
     0
281
     0
  0
CLASS
  1
LWPOLYLINE
  2
AcDbPolyline
  3
ObjectDBX Classes
 90
        0
280
     0
281
     1
  0
ENDSEC
  0
SECTION
  2
TABLES
  0
TABLE
  2
VPORT
  5
20
330
0
100
AcDbSymbolTable
 70
     1
  0
VPORT
  5
21
330
20
100
AcDbSymbolTableRecord
100
AcDbViewportTableRecord
  2
*ACTIVE
 70
     0
  0
ENDTAB
  0
TABLE
  2
LTYPE
  5
22
330
0
100
AcDbSymbolTable
 70
     1
  0
LTYPE
  5
23
330
21
100
AcDbSymbolTableRecord
100
AcDbLinetypeTableRecord
  2
BYBLOCK
 70
     0
  3

 72
    65
 73
     0
 40
0.0
  0
LTYPE
  5
24
330
21
100
AcDbSymbolTableRecord
100
AcDbLinetypeTableRecord
  2
BYLAYER
 70
     0
  3

 72
    65
 73
     0
 40
0.0
  0
LTYPE
  5
25
330
21
100
AcDbSymbolTableRecord
100
AcDbLinetypeTableRecord
  2
CONTINUOUS
 70
     0
  3
Solid line
 72
    65
 73
     0
 40
0.0
  0
ENDTAB
  0
TABLE
  2
LAYER
  5
A6E
330
0
100
AcDbSymbolTable
 70
3
  0
LAYER
  5
A6F
330
A6E
100
AcDbSymbolTableRecord
100
AcDbLayerTableRecord
  2
0
 70
   0
 62
   7
  6
CONTINUOUS
  0
LAYER
  5
A70
330
A6E
100
AcDbSymbolTableRecord
100
AcDbLayerTableRecord
  2
none
 70
    0
 62
    7
  6
CONTINUOUS
  0
LAYER
  5
A71
330
A6E
100
AcDbSymbolTableRecord
100
AcDbLayerTableRecord
  2
Sketch
 70
    0
 62
    7
  6
CONTINUOUS
  0
ENDTAB
  0
TABLE
  2
STYLE
  5
70
330
0
100
AcDbSymbolTable
 70
     2
  0
STYLE
  5
71
330
70
100
AcDbSymbolTableRecord
100
AcDbTextStyleTableRecord
  2
STANDARD
 70
     0
 40
0.0
 41
1.0
 50
0.0
 71
     0
 42
2.5
  3
arial.ttf
  4

  0
STYLE
  5
72
330
70
100
AcDbSymbolTableRecord
100
AcDbTextStyleTableRecord
  2
ANNOTATIVE
 70
     0
 40
0.0
 41
1.0
 50
0.0
 71
     0
 42
2.5
  3
arial.ttf
  4

  0
ENDTAB
  0
TABLE
  2
VIEW
  5
73
330
0
100
AcDbSymbolTable
 70
     0
  0
ENDTAB
  0
TABLE
  2
UCS
  5
74
330
0
100
AcDbSymbolTable
 70
     0
  0
ENDTAB
  0
TABLE
  2
APPID
  5
75
330
0
100
AcDbSymbolTable
 70
     2
  0
APPID
  5
76
330
75
100
AcDbSymbolTableRecord
100
AcDbRegAppTableRecord
  2
ACAD
 70
     0
  0
APPID
  5
77
330
75
100
AcDbSymbolTableRecord
100
AcDbRegAppTableRecord
  2
ACADANNOTATIVE
 70
     0
  0
ENDTAB
  0
TABLE
  2
DIMSTYLE
  5
78
330
0
100
AcDbSymbolTable
 70
     2
  0
DIMSTYLE
105
79
330
78
100
AcDbSymbolTableRecord
100
AcDbDimStyleTableRecord
  2
STANDARD
 70
     0
  3

  4

  5

  6

  7

 40
0.0
 41
2.5
 42
0.625
 43
3.75
 44
1.25
 45
0.0
 46
0.0
 47
0.0
 48
0.0
140
2.5
141
2.5
142
0.0
143
0.03937007874016
144
1.0
145
0.0
146
1.0
147
0.625
 71
     0
 72
     0
 73
     0
 74
     0
 75
     0
 76
     0
 77
     1
 78
     8
170
     0
171
     3
172
     1
173
     0
174
     0
175
     0
176
     0
177
     0
178
     0
270
     2
271
     2
272
     2
273
     2
274
     3
340
71
275
     0
280
     0
281
     0
282
     0
283
     0
284
     8
285
     0
286
     0
287
     3
288
     0
  0
ENDTAB
  0
TABLE
  2
BLOCK_RECORD
  5
A01
330
0
100
AcDbSymbolTable
  70
5
  0
BLOCK_RECORD
  5
A02
330
A01
100
AcDbSymbolTableRecord
100
AcDbBlockTableRecord
  2
*MODEL_SPACE
  0
BLOCK_RECORD
  5
A03
330
A01
100
AcDbSymbolTableRecord
100
AcDbBlockTableRecord
  2
*PAPER_SPACE
  0
ENDTAB
  0
ENDSEC
  0
SECTION
  2
BLOCKS
  0
BLOCK
  5
A04
330
A02
100
AcDbEntity
  8
0
100
AcDbBlockBegin
  2
*MODEL_SPACE
 70
   0
 10
0
 20
0
 30
0
  3
*MODEL_SPACE
  1
 
  0
ENDBLK
  5
A05
330
A02
100
AcDbEntity
  8
0
100
AcDbBlockEnd
  0
BLOCK
  5
A06
330
A03
100
AcDbEntity
 67
1
  8
0
100
AcDbBlockBegin
  2
*PAPER_SPACE
 70
   0
 10
0
 20
0
 30
0
  3
*PAPER_SPACE
  1
 
  0
ENDBLK
  5
A07
330
A03
100
AcDbEntity
 67
    1
  8
0
100
AcDbBlockEnd
  0
ENDSEC
  0
SECTION
  2
ENTITIES
  0
LINE
  5
A08
330
A02
100
AcDbEntity
  8
Sketch
100
AcDbLine
 10
-24.799969935
 20
0.000000000
 30
0.000000000
 11
-23.999969935
 21
0.000000000
 31
0.000000000
  0
LINE
  5
A09
330
A02
100
AcDbEntity
  8
Sketch
100
AcDbLine
 10
-23.999969935
 20
0.000000000
 30
0.000000000
 11
-23.999969935
 21
-13.000000000
 31
0.000000000
  0
ARC
  5
A0A
330
A02
100
AcDbEntity
  8
Sketch
100
AcDbCircle
 10
-22.999984967
 20
-13.000000000
 30
0.000000000
 40
0.999984967
100
AcDbArc
 50
180.000000000
 51
-90.000018724
  0
LINE
  5
A0B
330
A02
100
AcDbEntity
  8
Sketch
100
AcDbLine
 10
-22.999985294
 20
-13.999984967
 30
0.000000000
 11
23.000000000
 21
-13.999984967
 31
0.000000000
  0
ARC
  5
A0C
330
A02
100
AcDbEntity
  8
Sketch
100
AcDbCircle
 10
23.000000000
 20
-13.000000000
 30
0.000000000
 40
0.999984967
100
AcDbArc
 50
-90.000000000
 51
-0.000018724
  0
LINE
  5
A0D
330
A02
100
AcDbEntity
  8
Sketch
100
AcDbLine
 10
23.999984967
 20
-13.000000327
 30
0.000000000
 11
23.999984967
 21
13.000000000
 31
0.000000000
  0
ARC
  5
A0E
330
A02
100
AcDbEntity
  8
Sketch
100
AcDbCircle
 10
23.000000000
 20
13.000000000
 30
0.000000000
 40
0.999984967
100
AcDbArc
 50
0.000000000
 51
89.999981276
  0
LINE
  5
A0F
330
A02
100
AcDbEntity
  8
Sketch
100
AcDbLine
 10
23.000000327
 20
13.999984967
 30
0.000000000
 11
-22.999984967
 21
13.999984967
 31
0.000000000
  0
ARC
  5
A10
330
A02
100
AcDbEntity
  8
Sketch
100
AcDbCircle
 10
-22.999984967
 20
13.000000000
 30
0.000000000
 40
0.999984967
100
AcDbArc
 50
90.000000000
 51
179.999981276
  0
LINE
  5
A11
330
A02
100
AcDbEntity
  8
Sketch
100
AcDbLine
 10
-23.999969935
 20
13.000000327
 30
0.000000000
 11
-23.999969935
 21
4.000000000
 31
0.000000000
  0
LINE
  5
A12
330
A02
100
AcDbEntity
  8
Sketch
100
AcDbLine
 10
-23.999969935
 20
4.000000000
 30
0.000000000
 11
-25.299969935
 21
0.000000000
 31
0.000000000
  0
LINE
  5
A13
330
A02
100
AcDbEntity
  8
Sketch
100
AcDbLine
 10
-25.299969935
 20
0.000000000
 30
0.000000000
 11
-25.299969935
 21
-13.000000000
 31
0.000000000
  0
ARC
  5
A14
330
A02
100
AcDbEntity
  8
Sketch
100
AcDbCircle
 10
-22.999984967
 20
-13.000000000
 30
0.000000000
 40
2.299984967
100
AcDbArc
 50
180.000000000
 51
-90.000018724
  0
LINE
  5
A15
330
A02
100
AcDbEntity
  8
Sketch
100
AcDbLine
 10
-22.999985719
 20
-15.299984967
 30
0.000000000
 11
23.000000000
 21
-15.299984967
 31
0.000000000
  0
ARC
  5
A16
330
A02
100
AcDbEntity
  8
Sketch
100
AcDbCircle
 10
23.000000000
 20
-13.000000000
 30
0.000000000
 40
2.299984967
100
AcDbArc
 50
-90.000000000
 51
-0.000025237
  0
LINE
  5
A17
330
A02
100
AcDbEntity
  8
Sketch
100
AcDbLine
 10
25.299984967
 20
-13.000001013
 30
0.000000000
 11
25.299984967
 21
13.000000000
 31
0.000000000
  0
ARC
  5
A18
330
A02
100
AcDbEntity
  8
Sketch
100
AcDbCircle
 10
23.000000000
 20
13.000000000
 30
0.000000000
 40
2.299984967
100
AcDbArc
 50
0.000000000
 51
90.000000000
  0
LINE
  5
A19
330
A02
100
AcDbEntity
  8
Sketch
100
AcDbLine
 10
23.000000000
 20
15.299984967
 30
0.000000000
 11
-22.999984967
 21
15.299984967
 31
0.000000000
  0
ARC
  5
A1A
330
A02
100
AcDbEntity
  8
Sketch
100
AcDbCircle
 10
-22.999984967
 20
13.000000000
 30
0.000000000
 40
2.299984967
100
AcDbArc
 50
90.000000000
 51
179.999981276
  0
LINE
  5
A1B
330
A02
100
AcDbEntity
  8
Sketch
100
AcDbLine
 10
-25.299969935
 20
13.000000752
 30
0.000000000
 11
-25.299969935
 21
4.000000000
 31
0.000000000
  0
LINE
  5
A1C
330
A02
100
AcDbEntity
  8
Sketch
100
AcDbLine
 10
-25.299969935
 20
4.000000000
 30
0.000000000
 11
-26.599969935
 21
0.000000000
 31
0.000000000
  0
LINE
  5
A1D
330
A02
100
AcDbEntity
  8
Sketch
100
AcDbLine
 10
-26.599969935
 20
0.000000000
 30
0.000000000
 11
-26.599969935
 21
-13.000000000
 31
0.000000000
  0
ARC
  5
A1E
330
A02
100
AcDbEntity
  8
Sketch
100
AcDbCircle
 10
-22.999984967
 20
-13.000000000
 30
0.000000000
 40
3.599984967
100
AcDbArc
 50
180.000000000
 51
-90.000018724
  0
LINE
  5
A1F
330
A02
100
AcDbEntity
  8
Sketch
100
AcDbLine
 10
-22.999986144
 20
-16.599984967
 30
0.000000000
 11
23.000000000
 21
-16.599984967
 31
0.000000000
  0
ARC
  5
A20
330
A02
100
AcDbEntity
  8
Sketch
100
AcDbCircle
 10
23.000000000
 20
-13.000000000
 30
0.000000000
 40
3.599984967
100
AcDbArc
 50
-90.000000000
 51
-0.000018724
  0
LINE
  5
A21
330
A02
100
AcDbEntity
  8
Sketch
100
AcDbLine
 10
26.599984967
 20
-13.000001176
 30
0.000000000
 11
26.599984967
 21
13.000000000
 31
0.000000000
  0
ARC
  5
A22
330
A02
100
AcDbEntity
  8
Sketch
100
AcDbCircle
 10
23.000000000
 20
13.000000000
 30
0.000000000
 40
3.599984967
100
AcDbArc
 50
0.000000000
 51
90.000000000
  0
LINE
  5
A23
330
A02
100
AcDbEntity
  8
Sketch
100
AcDbLine
 10
23.000000000
 20
16.599984967
 30
0.000000000
 11
-22.999984967
 21
16.599984967
 31
0.000000000
  0
ARC
  5
A24
330
A02
100
AcDbEntity
  8
Sketch
100
AcDbCircle
 10
-22.999984967
 20
13.000000000
 30
0.000000000
 40
3.599984967
100
AcDbArc
 50
90.000000000
 51
179.999981276
  0
LINE
  5
A25
330
A02
100
AcDbEntity
  8
Sketch
100
AcDbLine
 10
-26.599969935
 20
13.000001176
 30
0.000000000
 11
-26.599969935
 21
4.000000000
 31
0.000000000
  0
LINE
  5
A26
330
A02
100
AcDbEntity
  8
Sketch
100
AcDbLine
 10
-26.599969935
 20
4.000000000
 30
0.000000000
 11
-27.899969935
 21
0.000000000
 31
0.000000000
  0
LINE
  5
A27
330
A02
100
AcDbEntity
  8
Sketch
100
AcDbLine
 10
-27.899969935
 20
0.000000000
 30
0.000000000
 11
-27.899969935
 21
-13.000001601
 31
0.000000000
  0
ARC
  5
A28
330
A02
100
AcDbEntity
  8
Sketch
100
AcDbCircle
 10
-22.999984967
 20
-13.000000000
 30
0.000000000
 40
4.899984967
100
AcDbArc
 50
-179.999981276
 51
-90.000000000
  0
LINE
  5
A29
330
A02
100
AcDbEntity
  8
Sketch
100
AcDbLine
 10
-22.999984967
 20
-17.899984967
 30
0.000000000
 11
23.000000000
 21
-17.899984967
 31
0.000000000
  0
ARC
  5
A2A
330
A02
100
AcDbEntity
  8
Sketch
100
AcDbCircle
 10
23.000000000
 20
-13.000000000
 30
0.000000000
 40
4.899984967
100
AcDbArc
 50
-90.000000000
 51
-0.000018724
  0
LINE
  5
A2B
330
A02
100
AcDbEntity
  8
Sketch
100
AcDbLine
 10
27.899984967
 20
-13.000001601
 30
0.000000000
 11
27.899984967
 21
13.000000000
 31
0.000000000
  0
ARC
  5
A2C
330
A02
100
AcDbEntity
  8
Sketch
100
AcDbCircle
 10
23.000000000
 20
13.000000000
 30
0.000000000
 40
4.899984967
100
AcDbArc
 50
0.000000000
 51
89.999981276
  0
LINE
  5
A2D
330
A02
100
AcDbEntity
  8
Sketch
100
AcDbLine
 10
23.000001601
 20
17.899984967
 30
0.000000000
 11
-22.999983366
 21
17.900000000
 31
0.000000000
  0
ARC
  5
A2E
330
A02
100
AcDbEntity
  8
Sketch
100
AcDbCircle
 10
-22.999984967
 20
13.000000000
 30
0.000000000
 40
4.900000000
100
AcDbArc
 50
89.999981276
 51
179.999962552
  0
LINE
  5
A2F
330
A02
100
AcDbEntity
  8
Sketch
100
AcDbLine
 10
-27.899984967
 20
13.000003203
 30
0.000000000
 11
-27.899984967
 21
4.000000000
 31
0.000000000
  0
LINE
  5
A30
330
A02
100
AcDbEntity
  8
Sketch
100
AcDbLine
 10
-27.899984967
 20
4.000000000
 30
0.000000000
 11
-29.199969935
 21
0.000000000
 31
0.000000000
  0
LINE
  5
A31
330
A02
100
AcDbEntity
  8
Sketch
100
AcDbLine
 10
-29.199969935
 20
0.000000000
 30
0.000000000
 11
-29.199969935
 21
-13.000000000
 31
0.000000000
  0
ARC
  5
A32
330
A02
100
AcDbEntity
  8
Sketch
100
AcDbCircle
 10
-22.999984967
 20
-13.000000000
 30
0.000000000
 40
6.199984967
100
AcDbArc
 50
180.000000000
 51
-90.000018724
  0
LINE
  5
A33
330
A02
100
AcDbEntity
  8
Sketch
100
AcDbLine
 10
-22.999986994
 20
-19.199984967
 30
0.000000000
 11
22.999997974
 21
-19.200000000
 31
0.000000000
  0
ARC
  5
A34
330
A02
100
AcDbEntity
  8
Sketch
100
AcDbCircle
 10
23.000000000
 20
-13.000000000
 30
0.000000000
 40
6.200000000
100
AcDbArc
 50
-90.000018724
 51
-0.000037448
  0
LINE
  5
A35
330
A02
100
AcDbEntity
  8
Sketch
100
AcDbLine
 10
29.200000000
 20
-13.000004052
 30
0.000000000
 11
29.200016993
 21
12.999995948
 31
0.000000000
  0
ARC
  5
A36
330
A02
100
AcDbEntity
  8
Sketch
100
AcDbCircle
 10
23.000000000
 20
13.000000000
 30
0.000000000
 40
6.200016993
100
AcDbArc
 50
-0.000037448
 51
89.999943828
  0
LINE
  5
A37
330
A02
100
AcDbEntity
  8
Sketch
100
AcDbLine
 10
23.000006078
 20
19.200016993
 30
0.000000000
 11
-22.999984967
 21
19.200016993
 31
0.000000000
  0
ARC
  5
A38
330
A02
100
AcDbEntity
  8
Sketch
100
AcDbCircle
 10
-22.999984967
 20
13.000000000
 30
0.000000000
 40
6.200016993
100
AcDbArc
 50
90.000000000
 51
179.999981276
  0
LINE
  5
A39
330
A02
100
AcDbEntity
  8
Sketch
100
AcDbLine
 10
-29.200001961
 20
13.000002026
 30
0.000000000
 11
-29.200001961
 21
4.000000000
 31
0.000000000
  0
LINE
  5
A3A
330
A02
100
AcDbEntity
  8
Sketch
100
AcDbLine
 10
-29.200001961
 20
4.000000000
 30
0.000000000
 11
-30.499969935
 21
0.000000000
 31
0.000000000
  0
LINE
  5
A3B
330
A02
100
AcDbEntity
  8
Sketch
100
AcDbLine
 10
-31.299969935
 20
0.000000000
 30
0.000000000
 11
-30.499969935
 21
0.000000000
 31
0.000000000
  0
LINE
  5
A3C
330
A02
100
AcDbEntity
  8
Sketch
100
AcDbLine
 10
-30.000000000
 20
4.000000000
 30
0.000000000
 11
-31.299969935
 21
0.000000000
 31
0.000000000
  0
LINE
  5
A3D
330
A02
100
AcDbEntity
  8
Sketch
100
AcDbLine
 10
-30.000000000
 20
13.000004575
 30
0.000000000
 11
-30.000000000
 21
4.000000000
 31
0.000000000
  0
ARC
  5
A3E
330
A02
100
AcDbEntity
  8
Sketch
100
AcDbCircle
 10
-22.999984967
 20
13.000000000
 30
0.000000000
 40
7.000015033
100
AcDbArc
 50
89.999981276
 51
179.999962552
  0
LINE
  5
A3F
330
A02
100
AcDbEntity
  8
Sketch
100
AcDbLine
 10
23.000002288
 20
20.000000000
 30
0.000000000
 11
-22.999982680
 21
20.000015033
 31
0.000000000
  0
ARC
  5
A40
330
A02
100
AcDbEntity
  8
Sketch
100
AcDbCircle
 10
23.000000000
 20
13.000000000
 30
0.000000000
 40
7.000000000
100
AcDbArc
 50
0.000000000
 51
89.999981276
  0
LINE
  5
A41
330
A02
100
AcDbEntity
  8
Sketch
100
AcDbLine
 10
30.000000000
 20
-13.000000000
 30
0.000000000
 11
30.000000000
 21
13.000000000
 31
0.000000000
  0
ARC
  5
A42
330
A02
100
AcDbEntity
  8
Sketch
100
AcDbCircle
 10
23.000000000
 20
-13.000000000
 30
0.000000000
 40
7.000000000
100
AcDbArc
 50
-90.000018724
 51
-0.000000000
  0
LINE
  5
A43
330
A02
100
AcDbEntity
  8
Sketch
100
AcDbLine
 10
-22.999987255
 20
-19.999984967
 30
0.000000000
 11
22.999997712
 21
-20.000000000
 31
0.000000000
  0
ARC
  5
A44
330
A02
100
AcDbEntity
  8
Sketch
100
AcDbCircle
 10
-22.999984967
 20
-13.000000000
 30
0.000000000
 40
6.999984967
100
AcDbArc
 50
180.000000000
 51
-90.000018724
  0
LINE
  5
A45
330
A02
100
AcDbEntity
  8
Sketch
100
AcDbLine
 10
-29.999969935
 20
0.000000000
 30
0.000000000
 11
-29.999969935
 21
-13.000000000
 31
0.000000000
  0
LINE
  5
A46
330
A02
100
AcDbEntity
  8
Sketch
100
AcDbLine
 10
-28.700008497
 20
4.000000000
 30
0.000000000
 11
-29.999969935
 21
0.000000000
 31
0.000000000
  0
LINE
  5
A47
330
A02
100
AcDbEntity
  8
Sketch
100
AcDbLine
 10
-28.700008497
 20
13.000005588
 30
0.000000000
 11
-28.700008497
 21
4.000000000
 31
0.000000000
  0
ARC
  5
A48
330
A02
100
AcDbEntity
  8
Sketch
100
AcDbCircle
 10
-22.999984967
 20
13.000000000
 30
0.000000000
 40
5.700023529
100
AcDbArc
 50
89.999962552
 51
179.999943828
  0
LINE
  5
A49
330
A02
100
AcDbEntity
  8
Sketch
100
AcDbLine
 10
23.000003725
 20
18.699993464
 30
0.000000000
 11
-22.999981242
 21
18.700023529
 31
0.000000000
  0
ARC
  5
A4A
330
A02
100
AcDbEntity
  8
Sketch
100
AcDbCircle
 10
23.000000000
 20
13.000000000
 30
0.000000000
 40
5.699993464
100
AcDbArc
 50
-0.000018724
 51
89.999962552
  0
LINE
  5
A4B
330
A02
100
AcDbEntity
  8
Sketch
100
AcDbLine
 10
28.699984967
 20
-13.000001863
 30
0.000000000
 11
28.699993464
 21
12.999998137
 31
0.000000000
  0
ARC
  5
A4C
330
A02
100
AcDbEntity
  8
Sketch
100
AcDbCircle
 10
23.000000000
 20
-13.000000000
 30
0.000000000
 40
5.699984967
100
AcDbArc
 50
-90.000000000
 51
-0.000018724
  0
LINE
  5
A4D
330
A02
100
AcDbEntity
  8
Sketch
100
AcDbLine
 10
-22.999984967
 20
-18.699984967
 30
0.000000000
 11
23.000000000
 21
-18.699984967
 31
0.000000000
  0
ARC
  5
A4E
330
A02
100
AcDbEntity
  8
Sketch
100
AcDbCircle
 10
-22.999984967
 20
-13.000000000
 30
0.000000000
 40
5.699984967
100
AcDbArc
 50
-179.999981276
 51
-90.000000000
  0
LINE
  5
A4F
330
A02
100
AcDbEntity
  8
Sketch
100
AcDbLine
 10
-28.699969935
 20
0.000000000
 30
0.000000000
 11
-28.699969935
 21
-13.000001863
 31
0.000000000
  0
LINE
  5
A50
330
A02
100
AcDbEntity
  8
Sketch
100
AcDbLine
 10
-27.399969935
 20
4.000000000
 30
0.000000000
 11
-28.699969935
 21
0.000000000
 31
0.000000000
  0
LINE
  5
A51
330
A02
100
AcDbEntity
  8
Sketch
100
AcDbLine
 10
-27.399969935
 20
13.000001438
 30
0.000000000
 11
-27.399969935
 21
4.000000000
 31
0.000000000
  0
ARC
  5
A52
330
A02
100
AcDbEntity
  8
Sketch
100
AcDbCircle
 10
-22.999984967
 20
13.000000000
 30
0.000000000
 40
4.399984967
100
AcDbArc
 50
90.000000000
 51
179.999981276
  0
LINE
  5
A53
330
A02
100
AcDbEntity
  8
Sketch
100
AcDbLine
 10
23.000000000
 20
17.399984967
 30
0.000000000
 11
-22.999984967
 21
17.399984967
 31
0.000000000
  0
ARC
  5
A54
330
A02
100
AcDbEntity
  8
Sketch
100
AcDbCircle
 10
23.000000000
 20
13.000000000
 30
0.000000000
 40
4.399984967
100
AcDbArc
 50
0.000000000
 51
90.000000000
  0
LINE
  5
A55
330
A02
100
AcDbEntity
  8
Sketch
100
AcDbLine
 10
27.399984967
 20
-13.000001438
 30
0.000000000
 11
27.399984967
 21
13.000000000
 31
0.000000000
  0
ARC
  5
A56
330
A02
100
AcDbEntity
  8
Sketch
100
AcDbCircle
 10
23.000000000
 20
-13.000000000
 30
0.000000000
 40
4.399984967
100
AcDbArc
 50
-90.000000000
 51
-0.000018724
  0
LINE
  5
A57
330
A02
100
AcDbEntity
  8
Sketch
100
AcDbLine
 10
-22.999986405
 20
-17.399984967
 30
0.000000000
 11
23.000000000
 21
-17.399984967
 31
0.000000000
  0
ARC
  5
A58
330
A02
100
AcDbEntity
  8
Sketch
100
AcDbCircle
 10
-22.999984967
 20
-13.000000000
 30
0.000000000
 40
4.399984967
100
AcDbArc
 50
180.000000000
 51
-90.000018724
  0
LINE
  5
A59
330
A02
100
AcDbEntity
  8
Sketch
100
AcDbLine
 10
-27.399969935
 20
0.000000000
 30
0.000000000
 11
-27.399969935
 21
-13.000000000
 31
0.000000000
  0
LINE
  5
A5A
330
A02
100
AcDbEntity
  8
Sketch
100
AcDbLine
 10
-26.099969935
 20
4.000000000
 30
0.000000000
 11
-27.399969935
 21
0.000000000
 31
0.000000000
  0
LINE
  5
A5B
330
A02
100
AcDbEntity
  8
Sketch
100
AcDbLine
 10
-26.099969935
 20
13.000001013
 30
0.000000000
 11
-26.099969935
 21
4.000000000
 31
0.000000000
  0
ARC
  5
A5C
330
A02
100
AcDbEntity
  8
Sketch
100
AcDbCircle
 10
-22.999984967
 20
13.000000000
 30
0.000000000
 40
3.099984967
100
AcDbArc
 50
90.000000000
 51
179.999981276
  0
LINE
  5
A5D
330
A02
100
AcDbEntity
  8
Sketch
100
AcDbLine
 10
23.000000000
 20
16.099984967
 30
0.000000000
 11
-22.999984967
 21
16.099984967
 31
0.000000000
  0
ARC
  5
A5E
330
A02
100
AcDbEntity
  8
Sketch
100
AcDbCircle
 10
23.000000000
 20
13.000000000
 30
0.000000000
 40
3.099984967
100
AcDbArc
 50
0.000000000
 51
90.000000000
  0
LINE
  5
A5F
330
A02
100
AcDbEntity
  8
Sketch
100
AcDbLine
 10
26.099984967
 20
-13.000001013
 30
0.000000000
 11
26.099984967
 21
13.000000000
 31
0.000000000
  0
ARC
  5
A60
330
A02
100
AcDbEntity
  8
Sketch
100
AcDbCircle
 10
23.000000000
 20
-13.000000000
 30
0.000000000
 40
3.099984967
100
AcDbArc
 50
-90.000000000
 51
-0.000018724
  0
LINE
  5
A61
330
A02
100
AcDbEntity
  8
Sketch
100
AcDbLine
 10
-22.999985981
 20
-16.099984967
 30
0.000000000
 11
23.000000000
 21
-16.099984967
 31
0.000000000
  0
ARC
  5
A62
330
A02
100
AcDbEntity
  8
Sketch
100
AcDbCircle
 10
-22.999984967
 20
-13.000000000
 30
0.000000000
 40
3.099984967
100
AcDbArc
 50
180.000000000
 51
-90.000018724
  0
LINE
  5
A63
330
A02
100
AcDbEntity
  8
Sketch
100
AcDbLine
 10
-26.099969935
 20
0.000000000
 30
0.000000000
 11
-26.099969935
 21
-13.000000000
 31
0.000000000
  0
LINE
  5
A64
330
A02
100
AcDbEntity
  8
Sketch
100
AcDbLine
 10
-24.799969935
 20
4.000000000
 30
0.000000000
 11
-26.099969935
 21
0.000000000
 31
0.000000000
  0
LINE
  5
A65
330
A02
100
AcDbEntity
  8
Sketch
100
AcDbLine
 10
-24.799969935
 20
13.000000588
 30
0.000000000
 11
-24.799969935
 21
4.000000000
 31
0.000000000
  0
ARC
  5
A66
330
A02
100
AcDbEntity
  8
Sketch
100
AcDbCircle
 10
-22.999984967
 20
13.000000000
 30
0.000000000
 40
1.799984967
100
AcDbArc
 50
90.000000000
 51
179.999981276
  0
LINE
  5
A67
330
A02
100
AcDbEntity
  8
Sketch
100
AcDbLine
 10
23.000000327
 20
14.799984967
 30
0.000000000
 11
-22.999984967
 21
14.799984967
 31
0.000000000
  0
ARC
  5
A68
330
A02
100
AcDbEntity
  8
Sketch
100
AcDbCircle
 10
23.000000000
 20
13.000000000
 30
0.000000000
 40
1.799984967
100
AcDbArc
 50
0.000000000
 51
89.999989598
  0
LINE
  5
A69
330
A02
100
AcDbEntity
  8
Sketch
100
AcDbLine
 10
24.799984967
 20
-13.000000327
 30
0.000000000
 11
24.799984967
 21
13.000000000
 31
0.000000000
  0
ARC
  5
A6A
330
A02
100
AcDbEntity
  8
Sketch
100
AcDbCircle
 10
23.000000000
 20
-13.000000000
 30
0.000000000
 40
1.799984967
100
AcDbArc
 50
-90.000000000
 51
-0.000010402
  0
LINE
  5
A6B
330
A02
100
AcDbEntity
  8
Sketch
100
AcDbLine
 10
-22.999985556
 20
-14.799984967
 30
0.000000000
 11
23.000000000
 21
-14.799984967
 31
0.000000000
  0
ARC
  5
A6C
330
A02
100
AcDbEntity
  8
Sketch
100
AcDbCircle
 10
-22.999984967
 20
-13.000000000
 30
0.000000000
 40
1.799984967
100
AcDbArc
 50
180.000000000
 51
-90.000018724
  0
LINE
  5
A6D
330
A02
100
AcDbEntity
  8
Sketch
100
AcDbLine
 10
-24.799969935
 20
0.000000000
 30
0.000000000
 11
-24.799969935
 21
-13.000000000
 31
0.000000000
  0
ENDSEC
  0
SECTION
  2
OBJECTS
  0
DICTIONARY
  5
F000
330
0
100
AcDbDictionary
  3
ACAD_GROUP
350
F001
  0
DICTIONARY
  5
F001
330
F000
100
AcDbDictionary
  0
ENDSEC
  0
EOF