%TF.GenerationSoftware,KiCad,Pcbnew,8.0.6*%
%TF.CreationDate,2025-01-01T18:17:34-06:00*%
%TF.ProjectId,AnalogMultiCapSense,416e616c-6f67-44d7-956c-746943617053,rev?*%
%TF.SameCoordinates,Original*%
%TF.FileFunction,Soldermask,Top*%
%TF.FilePolarity,Negative*%
%FSLAX46Y46*%
G04 Gerber Fmt 4.6, Leading zero omitted, Abs format (unit mm)*
G04 Created by KiCad (PCBNEW 8.0.6) date 2025-01-01 18:17:34*
%MOMM*%
%LPD*%
G01*
G04 APERTURE LIST*
G04 Aperture macros list*
%AMRoundRect*
0 Rectangle with rounded corners*
0 $1 Rounding radius*
0 $2 $3 $4 $5 $6 $7 $8 $9 X,Y pos of 4 corners*
0 Add a 4 corners polygon primitive as box body*
4,1,4,$2,$3,$4,$5,$6,$7,$8,$9,$2,$3,0*
0 Add four circle primitives for the rounded corners*
1,1,$1+$1,$2,$3*
1,1,$1+$1,$4,$5*
1,1,$1+$1,$6,$7*
1,1,$1+$1,$8,$9*
0 Add four rect primitives between the rounded corners*
20,1,$1+$1,$2,$3,$4,$5,0*
20,1,$1+$1,$4,$5,$6,$7,0*
20,1,$1+$1,$6,$7,$8,$9,0*
20,1,$1+$1,$8,$9,$2,$3,0*%
G04 Aperture macros list end*
%ADD10RoundRect,0.375000X-0.625000X-0.375000X0.625000X-0.375000X0.625000X0.375000X-0.625000X0.375000X0*%
%ADD11RoundRect,0.500000X-0.500000X-1.400000X0.500000X-1.400000X0.500000X1.400000X-0.500000X1.400000X0*%
%ADD12R,0.900000X1.500000*%
%ADD13R,1.500000X0.900000*%
%ADD14C,0.600000*%
%ADD15R,3.900000X3.900000*%
%ADD16RoundRect,0.150000X-0.725000X-0.150000X0.725000X-0.150000X0.725000X0.150000X-0.725000X0.150000X0*%
%ADD17R,1.400000X1.600000*%
%ADD18R,0.800000X0.500000*%
%ADD19R,0.800000X0.400000*%
%ADD20RoundRect,0.250000X-0.262500X-0.450000X0.262500X-0.450000X0.262500X0.450000X-0.262500X0.450000X0*%
%ADD21R,6.000000X3.000000*%
%ADD22O,1.700000X1.700000*%
%ADD23R,1.700000X1.700000*%
%ADD24C,0.650000*%
%ADD25R,0.250000X1.400000*%
%ADD26O,1.000000X2.100000*%
%ADD27O,1.000000X1.800000*%
%ADD28C,2.200000*%
%ADD29RoundRect,0.243750X-0.243750X-0.456250X0.243750X-0.456250X0.243750X0.456250X-0.243750X0.456250X0*%
%ADD30RoundRect,0.250000X-0.250000X-0.475000X0.250000X-0.475000X0.250000X0.475000X-0.250000X0.475000X0*%
%ADD31RoundRect,0.250000X0.250000X0.475000X-0.250000X0.475000X-0.250000X-0.475000X0.250000X-0.475000X0*%
G04 APERTURE END LIST*
D10*
%TO.C,U3*%
X176200000Y-134800000D03*
X176200000Y-137100000D03*
D11*
X182500000Y-137100000D03*
D10*
X176200000Y-139400000D03*
%TD*%
D12*
%TO.C,U2*%
X199015000Y-87535000D03*
X197745000Y-87535000D03*
X196475000Y-87535000D03*
X195205000Y-87535000D03*
X193935000Y-87535000D03*
X192665000Y-87535000D03*
X191395000Y-87535000D03*
X190125000Y-87535000D03*
X188855000Y-87535000D03*
X187585000Y-87535000D03*
X186315000Y-87535000D03*
X185045000Y-87535000D03*
X183775000Y-87535000D03*
X182505000Y-87535000D03*
D13*
X181255000Y-89300000D03*
X181255000Y-90570000D03*
X181255000Y-91840000D03*
X181255000Y-93110000D03*
X181255000Y-94380000D03*
X181255000Y-95650000D03*
X181255000Y-96920000D03*
X181255000Y-98190000D03*
X181255000Y-99460000D03*
X181255000Y-100730000D03*
X181255000Y-102000000D03*
X181255000Y-103270000D03*
D12*
X182505000Y-105035000D03*
X183775000Y-105035000D03*
X185045000Y-105035000D03*
X186315000Y-105035000D03*
X187585000Y-105035000D03*
X188855000Y-105035000D03*
X190125000Y-105035000D03*
X191395000Y-105035000D03*
X192665000Y-105035000D03*
X193935000Y-105035000D03*
X195205000Y-105035000D03*
X196475000Y-105035000D03*
X197745000Y-105035000D03*
X199015000Y-105035000D03*
D14*
X191995000Y-93385000D03*
X190595000Y-93385000D03*
X192695000Y-94085000D03*
X191295000Y-94085000D03*
X189895000Y-94085000D03*
X191995000Y-94785000D03*
D15*
X191295000Y-94785000D03*
D14*
X190595000Y-94785000D03*
X192695000Y-95485000D03*
X191295000Y-95485000D03*
X189895000Y-95485000D03*
X191995000Y-96185000D03*
X190595000Y-96185000D03*
%TD*%
D16*
%TO.C,U1*%
X127295785Y-114337575D03*
X127295785Y-115607575D03*
X127295785Y-116877575D03*
X127295785Y-118147575D03*
X127295785Y-119417575D03*
X127295785Y-120687575D03*
X127295785Y-121957575D03*
X127295785Y-123227575D03*
X132445785Y-123227575D03*
X132445785Y-121957575D03*
X132445785Y-120687575D03*
X132445785Y-119417575D03*
X132445785Y-118147575D03*
X132445785Y-116877575D03*
X132445785Y-115607575D03*
X132445785Y-114337575D03*
%TD*%
D17*
%TO.C,SW1*%
X185825000Y-114785000D03*
X185825000Y-122785000D03*
X181325000Y-114785000D03*
X181325000Y-122785000D03*
%TD*%
D18*
%TO.C,RN1*%
X174175000Y-76400000D03*
D19*
X174175000Y-77200000D03*
X174175000Y-78000000D03*
D18*
X174175000Y-78800000D03*
X175975000Y-78800000D03*
D19*
X175975000Y-78000000D03*
X175975000Y-77200000D03*
D18*
X175975000Y-76400000D03*
%TD*%
D20*
%TO.C,R2*%
X191975000Y-109400000D03*
X190150000Y-109400000D03*
%TD*%
%TO.C,R1*%
X195487500Y-84000000D03*
X193662500Y-84000000D03*
%TD*%
D21*
%TO.C,LS1*%
X192300000Y-130600000D03*
X192300000Y-142600000D03*
%TD*%
D22*
%TO.C,J14*%
X190935000Y-115585000D03*
X193475000Y-115585000D03*
D23*
X196015000Y-115585000D03*
%TD*%
D22*
%TO.C,J13*%
X175575000Y-116500000D03*
X175575000Y-113960000D03*
X175575000Y-111420000D03*
X175575000Y-108880000D03*
X175575000Y-106340000D03*
X175575000Y-103800000D03*
D23*
X175575000Y-101260000D03*
%TD*%
D22*
%TO.C,J11*%
X175575000Y-96135000D03*
X175575000Y-93595000D03*
X175575000Y-91055000D03*
X175575000Y-88515000D03*
X175575000Y-85975000D03*
D23*
X175575000Y-83435000D03*
%TD*%
%TO.C,J10*%
X123145785Y-122987575D03*
%TD*%
D24*
%TO.C,J1*%
X186565000Y-80872500D03*
X180785000Y-80872500D03*
D25*
X187000000Y-82072500D03*
X186200000Y-82072500D03*
X184925000Y-82072500D03*
X183925000Y-82072500D03*
X183425000Y-82072500D03*
X185425000Y-82072500D03*
X181150000Y-82072500D03*
X180350000Y-82072500D03*
X180600000Y-82072500D03*
X181400000Y-82072500D03*
X181925000Y-82072500D03*
X182925000Y-82072500D03*
X184425000Y-82072500D03*
X182425000Y-82072500D03*
X185950000Y-82072500D03*
X186750000Y-82072500D03*
D26*
X187995000Y-81372500D03*
D27*
X187995000Y-77222500D03*
D26*
X179355000Y-81372500D03*
D27*
X179355000Y-77222500D03*
%TD*%
D28*
%TO.C,H4*%
X195100000Y-123400000D03*
%TD*%
%TO.C,H3*%
X195100000Y-157900000D03*
%TD*%
%TO.C,H2*%
X91300000Y-157700000D03*
%TD*%
%TO.C,H1*%
X91200000Y-79700000D03*
%TD*%
D29*
%TO.C,D1*%
X187575000Y-109400000D03*
X185700000Y-109400000D03*
%TD*%
D30*
%TO.C,C6*%
X195475000Y-80600000D03*
X193575000Y-80600000D03*
%TD*%
D31*
%TO.C,C5*%
X197475000Y-84000000D03*
X199375000Y-84000000D03*
%TD*%
%TO.C,C4*%
X199375000Y-80700000D03*
X197475000Y-80700000D03*
%TD*%
%TO.C,C3*%
X177700000Y-130900000D03*
X175800000Y-130900000D03*
%TD*%
D30*
%TO.C,C2*%
X176400000Y-143200000D03*
X178300000Y-143200000D03*
%TD*%
%TO.C,C1*%
X130695785Y-111287575D03*
X132595785Y-111287575D03*
%TD*%
M02*
