%TF.GenerationSoftware,KiCad,Pcbnew,8.0.6*%
%TF.CreationDate,2025-01-01T18:17:34-06:00*%
%TF.ProjectId,AnalogMultiCapSense,416e616c-6f67-44d7-956c-746943617053,rev?*%
%TF.SameCoordinates,Original*%
%TF.FileFunction,Legend,Top*%
%TF.FilePolarity,Positive*%
%FSLAX46Y46*%
G04 Gerber Fmt 4.6, Leading zero omitted, Abs format (unit mm)*
G04 Created by KiCad (PCBNEW 8.0.6) date 2025-01-01 18:17:34*
%MOMM*%
%LPD*%
G01*
G04 APERTURE LIST*
%ADD10C,0.150000*%
%ADD11C,0.120000*%
G04 APERTURE END LIST*
D10*
X128966666Y-116054819D02*
X128966666Y-116769104D01*
X128966666Y-116769104D02*
X128919047Y-116911961D01*
X128919047Y-116911961D02*
X128823809Y-117007200D01*
X128823809Y-117007200D02*
X128680952Y-117054819D01*
X128680952Y-117054819D02*
X128585714Y-117054819D01*
X129395238Y-116150057D02*
X129442857Y-116102438D01*
X129442857Y-116102438D02*
X129538095Y-116054819D01*
X129538095Y-116054819D02*
X129776190Y-116054819D01*
X129776190Y-116054819D02*
X129871428Y-116102438D01*
X129871428Y-116102438D02*
X129919047Y-116150057D01*
X129919047Y-116150057D02*
X129966666Y-116245295D01*
X129966666Y-116245295D02*
X129966666Y-116340533D01*
X129966666Y-116340533D02*
X129919047Y-116483390D01*
X129919047Y-116483390D02*
X129347619Y-117054819D01*
X129347619Y-117054819D02*
X129966666Y-117054819D01*
X178588095Y-132054819D02*
X178588095Y-132864342D01*
X178588095Y-132864342D02*
X178635714Y-132959580D01*
X178635714Y-132959580D02*
X178683333Y-133007200D01*
X178683333Y-133007200D02*
X178778571Y-133054819D01*
X178778571Y-133054819D02*
X178969047Y-133054819D01*
X178969047Y-133054819D02*
X179064285Y-133007200D01*
X179064285Y-133007200D02*
X179111904Y-132959580D01*
X179111904Y-132959580D02*
X179159523Y-132864342D01*
X179159523Y-132864342D02*
X179159523Y-132054819D01*
X179540476Y-132054819D02*
X180159523Y-132054819D01*
X180159523Y-132054819D02*
X179826190Y-132435771D01*
X179826190Y-132435771D02*
X179969047Y-132435771D01*
X179969047Y-132435771D02*
X180064285Y-132483390D01*
X180064285Y-132483390D02*
X180111904Y-132531009D01*
X180111904Y-132531009D02*
X180159523Y-132626247D01*
X180159523Y-132626247D02*
X180159523Y-132864342D01*
X180159523Y-132864342D02*
X180111904Y-132959580D01*
X180111904Y-132959580D02*
X180064285Y-133007200D01*
X180064285Y-133007200D02*
X179969047Y-133054819D01*
X179969047Y-133054819D02*
X179683333Y-133054819D01*
X179683333Y-133054819D02*
X179588095Y-133007200D01*
X179588095Y-133007200D02*
X179540476Y-132959580D01*
X181593095Y-85239819D02*
X181593095Y-86049342D01*
X181593095Y-86049342D02*
X181640714Y-86144580D01*
X181640714Y-86144580D02*
X181688333Y-86192200D01*
X181688333Y-86192200D02*
X181783571Y-86239819D01*
X181783571Y-86239819D02*
X181974047Y-86239819D01*
X181974047Y-86239819D02*
X182069285Y-86192200D01*
X182069285Y-86192200D02*
X182116904Y-86144580D01*
X182116904Y-86144580D02*
X182164523Y-86049342D01*
X182164523Y-86049342D02*
X182164523Y-85239819D01*
X182593095Y-85335057D02*
X182640714Y-85287438D01*
X182640714Y-85287438D02*
X182735952Y-85239819D01*
X182735952Y-85239819D02*
X182974047Y-85239819D01*
X182974047Y-85239819D02*
X183069285Y-85287438D01*
X183069285Y-85287438D02*
X183116904Y-85335057D01*
X183116904Y-85335057D02*
X183164523Y-85430295D01*
X183164523Y-85430295D02*
X183164523Y-85525533D01*
X183164523Y-85525533D02*
X183116904Y-85668390D01*
X183116904Y-85668390D02*
X182545476Y-86239819D01*
X182545476Y-86239819D02*
X183164523Y-86239819D01*
X129108880Y-112337394D02*
X129108880Y-113146917D01*
X129108880Y-113146917D02*
X129156499Y-113242155D01*
X129156499Y-113242155D02*
X129204118Y-113289775D01*
X129204118Y-113289775D02*
X129299356Y-113337394D01*
X129299356Y-113337394D02*
X129489832Y-113337394D01*
X129489832Y-113337394D02*
X129585070Y-113289775D01*
X129585070Y-113289775D02*
X129632689Y-113242155D01*
X129632689Y-113242155D02*
X129680308Y-113146917D01*
X129680308Y-113146917D02*
X129680308Y-112337394D01*
X130680308Y-113337394D02*
X130108880Y-113337394D01*
X130394594Y-113337394D02*
X130394594Y-112337394D01*
X130394594Y-112337394D02*
X130299356Y-112480251D01*
X130299356Y-112480251D02*
X130204118Y-112575489D01*
X130204118Y-112575489D02*
X130108880Y-112623108D01*
X188282200Y-120118332D02*
X188329819Y-119975475D01*
X188329819Y-119975475D02*
X188329819Y-119737380D01*
X188329819Y-119737380D02*
X188282200Y-119642142D01*
X188282200Y-119642142D02*
X188234580Y-119594523D01*
X188234580Y-119594523D02*
X188139342Y-119546904D01*
X188139342Y-119546904D02*
X188044104Y-119546904D01*
X188044104Y-119546904D02*
X187948866Y-119594523D01*
X187948866Y-119594523D02*
X187901247Y-119642142D01*
X187901247Y-119642142D02*
X187853628Y-119737380D01*
X187853628Y-119737380D02*
X187806009Y-119927856D01*
X187806009Y-119927856D02*
X187758390Y-120023094D01*
X187758390Y-120023094D02*
X187710771Y-120070713D01*
X187710771Y-120070713D02*
X187615533Y-120118332D01*
X187615533Y-120118332D02*
X187520295Y-120118332D01*
X187520295Y-120118332D02*
X187425057Y-120070713D01*
X187425057Y-120070713D02*
X187377438Y-120023094D01*
X187377438Y-120023094D02*
X187329819Y-119927856D01*
X187329819Y-119927856D02*
X187329819Y-119689761D01*
X187329819Y-119689761D02*
X187377438Y-119546904D01*
X187329819Y-119213570D02*
X188329819Y-118975475D01*
X188329819Y-118975475D02*
X187615533Y-118784999D01*
X187615533Y-118784999D02*
X188329819Y-118594523D01*
X188329819Y-118594523D02*
X187329819Y-118356428D01*
X188329819Y-117451666D02*
X188329819Y-118023094D01*
X188329819Y-117737380D02*
X187329819Y-117737380D01*
X187329819Y-117737380D02*
X187472676Y-117832618D01*
X187472676Y-117832618D02*
X187567914Y-117927856D01*
X187567914Y-117927856D02*
X187615533Y-118023094D01*
X172454819Y-78690476D02*
X171978628Y-79023809D01*
X172454819Y-79261904D02*
X171454819Y-79261904D01*
X171454819Y-79261904D02*
X171454819Y-78880952D01*
X171454819Y-78880952D02*
X171502438Y-78785714D01*
X171502438Y-78785714D02*
X171550057Y-78738095D01*
X171550057Y-78738095D02*
X171645295Y-78690476D01*
X171645295Y-78690476D02*
X171788152Y-78690476D01*
X171788152Y-78690476D02*
X171883390Y-78738095D01*
X171883390Y-78738095D02*
X171931009Y-78785714D01*
X171931009Y-78785714D02*
X171978628Y-78880952D01*
X171978628Y-78880952D02*
X171978628Y-79261904D01*
X172454819Y-78261904D02*
X171454819Y-78261904D01*
X171454819Y-78261904D02*
X172454819Y-77690476D01*
X172454819Y-77690476D02*
X171454819Y-77690476D01*
X172454819Y-76690476D02*
X172454819Y-77261904D01*
X172454819Y-76976190D02*
X171454819Y-76976190D01*
X171454819Y-76976190D02*
X171597676Y-77071428D01*
X171597676Y-77071428D02*
X171692914Y-77166666D01*
X171692914Y-77166666D02*
X171740533Y-77261904D01*
X190895833Y-108204819D02*
X190562500Y-107728628D01*
X190324405Y-108204819D02*
X190324405Y-107204819D01*
X190324405Y-107204819D02*
X190705357Y-107204819D01*
X190705357Y-107204819D02*
X190800595Y-107252438D01*
X190800595Y-107252438D02*
X190848214Y-107300057D01*
X190848214Y-107300057D02*
X190895833Y-107395295D01*
X190895833Y-107395295D02*
X190895833Y-107538152D01*
X190895833Y-107538152D02*
X190848214Y-107633390D01*
X190848214Y-107633390D02*
X190800595Y-107681009D01*
X190800595Y-107681009D02*
X190705357Y-107728628D01*
X190705357Y-107728628D02*
X190324405Y-107728628D01*
X191276786Y-107300057D02*
X191324405Y-107252438D01*
X191324405Y-107252438D02*
X191419643Y-107204819D01*
X191419643Y-107204819D02*
X191657738Y-107204819D01*
X191657738Y-107204819D02*
X191752976Y-107252438D01*
X191752976Y-107252438D02*
X191800595Y-107300057D01*
X191800595Y-107300057D02*
X191848214Y-107395295D01*
X191848214Y-107395295D02*
X191848214Y-107490533D01*
X191848214Y-107490533D02*
X191800595Y-107633390D01*
X191800595Y-107633390D02*
X191229167Y-108204819D01*
X191229167Y-108204819D02*
X191848214Y-108204819D01*
X194408333Y-86154819D02*
X194075000Y-85678628D01*
X193836905Y-86154819D02*
X193836905Y-85154819D01*
X193836905Y-85154819D02*
X194217857Y-85154819D01*
X194217857Y-85154819D02*
X194313095Y-85202438D01*
X194313095Y-85202438D02*
X194360714Y-85250057D01*
X194360714Y-85250057D02*
X194408333Y-85345295D01*
X194408333Y-85345295D02*
X194408333Y-85488152D01*
X194408333Y-85488152D02*
X194360714Y-85583390D01*
X194360714Y-85583390D02*
X194313095Y-85631009D01*
X194313095Y-85631009D02*
X194217857Y-85678628D01*
X194217857Y-85678628D02*
X193836905Y-85678628D01*
X195360714Y-86154819D02*
X194789286Y-86154819D01*
X195075000Y-86154819D02*
X195075000Y-85154819D01*
X195075000Y-85154819D02*
X194979762Y-85297676D01*
X194979762Y-85297676D02*
X194884524Y-85392914D01*
X194884524Y-85392914D02*
X194789286Y-85440533D01*
X200004819Y-137242857D02*
X200004819Y-137719047D01*
X200004819Y-137719047D02*
X199004819Y-137719047D01*
X199957200Y-136957142D02*
X200004819Y-136814285D01*
X200004819Y-136814285D02*
X200004819Y-136576190D01*
X200004819Y-136576190D02*
X199957200Y-136480952D01*
X199957200Y-136480952D02*
X199909580Y-136433333D01*
X199909580Y-136433333D02*
X199814342Y-136385714D01*
X199814342Y-136385714D02*
X199719104Y-136385714D01*
X199719104Y-136385714D02*
X199623866Y-136433333D01*
X199623866Y-136433333D02*
X199576247Y-136480952D01*
X199576247Y-136480952D02*
X199528628Y-136576190D01*
X199528628Y-136576190D02*
X199481009Y-136766666D01*
X199481009Y-136766666D02*
X199433390Y-136861904D01*
X199433390Y-136861904D02*
X199385771Y-136909523D01*
X199385771Y-136909523D02*
X199290533Y-136957142D01*
X199290533Y-136957142D02*
X199195295Y-136957142D01*
X199195295Y-136957142D02*
X199100057Y-136909523D01*
X199100057Y-136909523D02*
X199052438Y-136861904D01*
X199052438Y-136861904D02*
X199004819Y-136766666D01*
X199004819Y-136766666D02*
X199004819Y-136528571D01*
X199004819Y-136528571D02*
X199052438Y-136385714D01*
X200004819Y-135433333D02*
X200004819Y-136004761D01*
X200004819Y-135719047D02*
X199004819Y-135719047D01*
X199004819Y-135719047D02*
X199147676Y-135814285D01*
X199147676Y-135814285D02*
X199242914Y-135909523D01*
X199242914Y-135909523D02*
X199290533Y-136004761D01*
X197799819Y-116394523D02*
X198514104Y-116394523D01*
X198514104Y-116394523D02*
X198656961Y-116442142D01*
X198656961Y-116442142D02*
X198752200Y-116537380D01*
X198752200Y-116537380D02*
X198799819Y-116680237D01*
X198799819Y-116680237D02*
X198799819Y-116775475D01*
X198799819Y-115394523D02*
X198799819Y-115965951D01*
X198799819Y-115680237D02*
X197799819Y-115680237D01*
X197799819Y-115680237D02*
X197942676Y-115775475D01*
X197942676Y-115775475D02*
X198037914Y-115870713D01*
X198037914Y-115870713D02*
X198085533Y-115965951D01*
X198133152Y-114537380D02*
X198799819Y-114537380D01*
X197752200Y-114775475D02*
X198466485Y-115013570D01*
X198466485Y-115013570D02*
X198466485Y-114394523D01*
X174765476Y-98384819D02*
X174765476Y-99099104D01*
X174765476Y-99099104D02*
X174717857Y-99241961D01*
X174717857Y-99241961D02*
X174622619Y-99337200D01*
X174622619Y-99337200D02*
X174479762Y-99384819D01*
X174479762Y-99384819D02*
X174384524Y-99384819D01*
X175765476Y-99384819D02*
X175194048Y-99384819D01*
X175479762Y-99384819D02*
X175479762Y-98384819D01*
X175479762Y-98384819D02*
X175384524Y-98527676D01*
X175384524Y-98527676D02*
X175289286Y-98622914D01*
X175289286Y-98622914D02*
X175194048Y-98670533D01*
X176098810Y-98384819D02*
X176717857Y-98384819D01*
X176717857Y-98384819D02*
X176384524Y-98765771D01*
X176384524Y-98765771D02*
X176527381Y-98765771D01*
X176527381Y-98765771D02*
X176622619Y-98813390D01*
X176622619Y-98813390D02*
X176670238Y-98861009D01*
X176670238Y-98861009D02*
X176717857Y-98956247D01*
X176717857Y-98956247D02*
X176717857Y-99194342D01*
X176717857Y-99194342D02*
X176670238Y-99289580D01*
X176670238Y-99289580D02*
X176622619Y-99337200D01*
X176622619Y-99337200D02*
X176527381Y-99384819D01*
X176527381Y-99384819D02*
X176241667Y-99384819D01*
X176241667Y-99384819D02*
X176146429Y-99337200D01*
X176146429Y-99337200D02*
X176098810Y-99289580D01*
X174765476Y-80559819D02*
X174765476Y-81274104D01*
X174765476Y-81274104D02*
X174717857Y-81416961D01*
X174717857Y-81416961D02*
X174622619Y-81512200D01*
X174622619Y-81512200D02*
X174479762Y-81559819D01*
X174479762Y-81559819D02*
X174384524Y-81559819D01*
X175765476Y-81559819D02*
X175194048Y-81559819D01*
X175479762Y-81559819D02*
X175479762Y-80559819D01*
X175479762Y-80559819D02*
X175384524Y-80702676D01*
X175384524Y-80702676D02*
X175289286Y-80797914D01*
X175289286Y-80797914D02*
X175194048Y-80845533D01*
X176717857Y-81559819D02*
X176146429Y-81559819D01*
X176432143Y-81559819D02*
X176432143Y-80559819D01*
X176432143Y-80559819D02*
X176336905Y-80702676D01*
X176336905Y-80702676D02*
X176241667Y-80797914D01*
X176241667Y-80797914D02*
X176146429Y-80845533D01*
X122336261Y-120112394D02*
X122336261Y-120826679D01*
X122336261Y-120826679D02*
X122288642Y-120969536D01*
X122288642Y-120969536D02*
X122193404Y-121064775D01*
X122193404Y-121064775D02*
X122050547Y-121112394D01*
X122050547Y-121112394D02*
X121955309Y-121112394D01*
X123336261Y-121112394D02*
X122764833Y-121112394D01*
X123050547Y-121112394D02*
X123050547Y-120112394D01*
X123050547Y-120112394D02*
X122955309Y-120255251D01*
X122955309Y-120255251D02*
X122860071Y-120350489D01*
X122860071Y-120350489D02*
X122764833Y-120398108D01*
X123955309Y-120112394D02*
X124050547Y-120112394D01*
X124050547Y-120112394D02*
X124145785Y-120160013D01*
X124145785Y-120160013D02*
X124193404Y-120207632D01*
X124193404Y-120207632D02*
X124241023Y-120302870D01*
X124241023Y-120302870D02*
X124288642Y-120493346D01*
X124288642Y-120493346D02*
X124288642Y-120731441D01*
X124288642Y-120731441D02*
X124241023Y-120921917D01*
X124241023Y-120921917D02*
X124193404Y-121017155D01*
X124193404Y-121017155D02*
X124145785Y-121064775D01*
X124145785Y-121064775D02*
X124050547Y-121112394D01*
X124050547Y-121112394D02*
X123955309Y-121112394D01*
X123955309Y-121112394D02*
X123860071Y-121064775D01*
X123860071Y-121064775D02*
X123812452Y-121017155D01*
X123812452Y-121017155D02*
X123764833Y-120921917D01*
X123764833Y-120921917D02*
X123717214Y-120731441D01*
X123717214Y-120731441D02*
X123717214Y-120493346D01*
X123717214Y-120493346D02*
X123764833Y-120302870D01*
X123764833Y-120302870D02*
X123812452Y-120207632D01*
X123812452Y-120207632D02*
X123860071Y-120160013D01*
X123860071Y-120160013D02*
X123955309Y-120112394D01*
X177554819Y-77005833D02*
X178269104Y-77005833D01*
X178269104Y-77005833D02*
X178411961Y-77053452D01*
X178411961Y-77053452D02*
X178507200Y-77148690D01*
X178507200Y-77148690D02*
X178554819Y-77291547D01*
X178554819Y-77291547D02*
X178554819Y-77386785D01*
X178554819Y-76005833D02*
X178554819Y-76577261D01*
X178554819Y-76291547D02*
X177554819Y-76291547D01*
X177554819Y-76291547D02*
X177697676Y-76386785D01*
X177697676Y-76386785D02*
X177792914Y-76482023D01*
X177792914Y-76482023D02*
X177840533Y-76577261D01*
X185899405Y-108204819D02*
X185899405Y-107204819D01*
X185899405Y-107204819D02*
X186137500Y-107204819D01*
X186137500Y-107204819D02*
X186280357Y-107252438D01*
X186280357Y-107252438D02*
X186375595Y-107347676D01*
X186375595Y-107347676D02*
X186423214Y-107442914D01*
X186423214Y-107442914D02*
X186470833Y-107633390D01*
X186470833Y-107633390D02*
X186470833Y-107776247D01*
X186470833Y-107776247D02*
X186423214Y-107966723D01*
X186423214Y-107966723D02*
X186375595Y-108061961D01*
X186375595Y-108061961D02*
X186280357Y-108157200D01*
X186280357Y-108157200D02*
X186137500Y-108204819D01*
X186137500Y-108204819D02*
X185899405Y-108204819D01*
X187423214Y-108204819D02*
X186851786Y-108204819D01*
X187137500Y-108204819D02*
X187137500Y-107204819D01*
X187137500Y-107204819D02*
X187042262Y-107347676D01*
X187042262Y-107347676D02*
X186947024Y-107442914D01*
X186947024Y-107442914D02*
X186851786Y-107490533D01*
X194358333Y-82659580D02*
X194310714Y-82707200D01*
X194310714Y-82707200D02*
X194167857Y-82754819D01*
X194167857Y-82754819D02*
X194072619Y-82754819D01*
X194072619Y-82754819D02*
X193929762Y-82707200D01*
X193929762Y-82707200D02*
X193834524Y-82611961D01*
X193834524Y-82611961D02*
X193786905Y-82516723D01*
X193786905Y-82516723D02*
X193739286Y-82326247D01*
X193739286Y-82326247D02*
X193739286Y-82183390D01*
X193739286Y-82183390D02*
X193786905Y-81992914D01*
X193786905Y-81992914D02*
X193834524Y-81897676D01*
X193834524Y-81897676D02*
X193929762Y-81802438D01*
X193929762Y-81802438D02*
X194072619Y-81754819D01*
X194072619Y-81754819D02*
X194167857Y-81754819D01*
X194167857Y-81754819D02*
X194310714Y-81802438D01*
X194310714Y-81802438D02*
X194358333Y-81850057D01*
X195215476Y-81754819D02*
X195025000Y-81754819D01*
X195025000Y-81754819D02*
X194929762Y-81802438D01*
X194929762Y-81802438D02*
X194882143Y-81850057D01*
X194882143Y-81850057D02*
X194786905Y-81992914D01*
X194786905Y-81992914D02*
X194739286Y-82183390D01*
X194739286Y-82183390D02*
X194739286Y-82564342D01*
X194739286Y-82564342D02*
X194786905Y-82659580D01*
X194786905Y-82659580D02*
X194834524Y-82707200D01*
X194834524Y-82707200D02*
X194929762Y-82754819D01*
X194929762Y-82754819D02*
X195120238Y-82754819D01*
X195120238Y-82754819D02*
X195215476Y-82707200D01*
X195215476Y-82707200D02*
X195263095Y-82659580D01*
X195263095Y-82659580D02*
X195310714Y-82564342D01*
X195310714Y-82564342D02*
X195310714Y-82326247D01*
X195310714Y-82326247D02*
X195263095Y-82231009D01*
X195263095Y-82231009D02*
X195215476Y-82183390D01*
X195215476Y-82183390D02*
X195120238Y-82135771D01*
X195120238Y-82135771D02*
X194929762Y-82135771D01*
X194929762Y-82135771D02*
X194834524Y-82183390D01*
X194834524Y-82183390D02*
X194786905Y-82231009D01*
X194786905Y-82231009D02*
X194739286Y-82326247D01*
X198258333Y-86039580D02*
X198210714Y-86087200D01*
X198210714Y-86087200D02*
X198067857Y-86134819D01*
X198067857Y-86134819D02*
X197972619Y-86134819D01*
X197972619Y-86134819D02*
X197829762Y-86087200D01*
X197829762Y-86087200D02*
X197734524Y-85991961D01*
X197734524Y-85991961D02*
X197686905Y-85896723D01*
X197686905Y-85896723D02*
X197639286Y-85706247D01*
X197639286Y-85706247D02*
X197639286Y-85563390D01*
X197639286Y-85563390D02*
X197686905Y-85372914D01*
X197686905Y-85372914D02*
X197734524Y-85277676D01*
X197734524Y-85277676D02*
X197829762Y-85182438D01*
X197829762Y-85182438D02*
X197972619Y-85134819D01*
X197972619Y-85134819D02*
X198067857Y-85134819D01*
X198067857Y-85134819D02*
X198210714Y-85182438D01*
X198210714Y-85182438D02*
X198258333Y-85230057D01*
X199163095Y-85134819D02*
X198686905Y-85134819D01*
X198686905Y-85134819D02*
X198639286Y-85611009D01*
X198639286Y-85611009D02*
X198686905Y-85563390D01*
X198686905Y-85563390D02*
X198782143Y-85515771D01*
X198782143Y-85515771D02*
X199020238Y-85515771D01*
X199020238Y-85515771D02*
X199115476Y-85563390D01*
X199115476Y-85563390D02*
X199163095Y-85611009D01*
X199163095Y-85611009D02*
X199210714Y-85706247D01*
X199210714Y-85706247D02*
X199210714Y-85944342D01*
X199210714Y-85944342D02*
X199163095Y-86039580D01*
X199163095Y-86039580D02*
X199115476Y-86087200D01*
X199115476Y-86087200D02*
X199020238Y-86134819D01*
X199020238Y-86134819D02*
X198782143Y-86134819D01*
X198782143Y-86134819D02*
X198686905Y-86087200D01*
X198686905Y-86087200D02*
X198639286Y-86039580D01*
X198258333Y-82739580D02*
X198210714Y-82787200D01*
X198210714Y-82787200D02*
X198067857Y-82834819D01*
X198067857Y-82834819D02*
X197972619Y-82834819D01*
X197972619Y-82834819D02*
X197829762Y-82787200D01*
X197829762Y-82787200D02*
X197734524Y-82691961D01*
X197734524Y-82691961D02*
X197686905Y-82596723D01*
X197686905Y-82596723D02*
X197639286Y-82406247D01*
X197639286Y-82406247D02*
X197639286Y-82263390D01*
X197639286Y-82263390D02*
X197686905Y-82072914D01*
X197686905Y-82072914D02*
X197734524Y-81977676D01*
X197734524Y-81977676D02*
X197829762Y-81882438D01*
X197829762Y-81882438D02*
X197972619Y-81834819D01*
X197972619Y-81834819D02*
X198067857Y-81834819D01*
X198067857Y-81834819D02*
X198210714Y-81882438D01*
X198210714Y-81882438D02*
X198258333Y-81930057D01*
X199115476Y-82168152D02*
X199115476Y-82834819D01*
X198877381Y-81787200D02*
X198639286Y-82501485D01*
X198639286Y-82501485D02*
X199258333Y-82501485D01*
X176583333Y-132939580D02*
X176535714Y-132987200D01*
X176535714Y-132987200D02*
X176392857Y-133034819D01*
X176392857Y-133034819D02*
X176297619Y-133034819D01*
X176297619Y-133034819D02*
X176154762Y-132987200D01*
X176154762Y-132987200D02*
X176059524Y-132891961D01*
X176059524Y-132891961D02*
X176011905Y-132796723D01*
X176011905Y-132796723D02*
X175964286Y-132606247D01*
X175964286Y-132606247D02*
X175964286Y-132463390D01*
X175964286Y-132463390D02*
X176011905Y-132272914D01*
X176011905Y-132272914D02*
X176059524Y-132177676D01*
X176059524Y-132177676D02*
X176154762Y-132082438D01*
X176154762Y-132082438D02*
X176297619Y-132034819D01*
X176297619Y-132034819D02*
X176392857Y-132034819D01*
X176392857Y-132034819D02*
X176535714Y-132082438D01*
X176535714Y-132082438D02*
X176583333Y-132130057D01*
X176916667Y-132034819D02*
X177535714Y-132034819D01*
X177535714Y-132034819D02*
X177202381Y-132415771D01*
X177202381Y-132415771D02*
X177345238Y-132415771D01*
X177345238Y-132415771D02*
X177440476Y-132463390D01*
X177440476Y-132463390D02*
X177488095Y-132511009D01*
X177488095Y-132511009D02*
X177535714Y-132606247D01*
X177535714Y-132606247D02*
X177535714Y-132844342D01*
X177535714Y-132844342D02*
X177488095Y-132939580D01*
X177488095Y-132939580D02*
X177440476Y-132987200D01*
X177440476Y-132987200D02*
X177345238Y-133034819D01*
X177345238Y-133034819D02*
X177059524Y-133034819D01*
X177059524Y-133034819D02*
X176964286Y-132987200D01*
X176964286Y-132987200D02*
X176916667Y-132939580D01*
X177183333Y-141879580D02*
X177135714Y-141927200D01*
X177135714Y-141927200D02*
X176992857Y-141974819D01*
X176992857Y-141974819D02*
X176897619Y-141974819D01*
X176897619Y-141974819D02*
X176754762Y-141927200D01*
X176754762Y-141927200D02*
X176659524Y-141831961D01*
X176659524Y-141831961D02*
X176611905Y-141736723D01*
X176611905Y-141736723D02*
X176564286Y-141546247D01*
X176564286Y-141546247D02*
X176564286Y-141403390D01*
X176564286Y-141403390D02*
X176611905Y-141212914D01*
X176611905Y-141212914D02*
X176659524Y-141117676D01*
X176659524Y-141117676D02*
X176754762Y-141022438D01*
X176754762Y-141022438D02*
X176897619Y-140974819D01*
X176897619Y-140974819D02*
X176992857Y-140974819D01*
X176992857Y-140974819D02*
X177135714Y-141022438D01*
X177135714Y-141022438D02*
X177183333Y-141070057D01*
X177564286Y-141070057D02*
X177611905Y-141022438D01*
X177611905Y-141022438D02*
X177707143Y-140974819D01*
X177707143Y-140974819D02*
X177945238Y-140974819D01*
X177945238Y-140974819D02*
X178040476Y-141022438D01*
X178040476Y-141022438D02*
X178088095Y-141070057D01*
X178088095Y-141070057D02*
X178135714Y-141165295D01*
X178135714Y-141165295D02*
X178135714Y-141260533D01*
X178135714Y-141260533D02*
X178088095Y-141403390D01*
X178088095Y-141403390D02*
X177516667Y-141974819D01*
X177516667Y-141974819D02*
X178135714Y-141974819D01*
X131479118Y-109967155D02*
X131431499Y-110014775D01*
X131431499Y-110014775D02*
X131288642Y-110062394D01*
X131288642Y-110062394D02*
X131193404Y-110062394D01*
X131193404Y-110062394D02*
X131050547Y-110014775D01*
X131050547Y-110014775D02*
X130955309Y-109919536D01*
X130955309Y-109919536D02*
X130907690Y-109824298D01*
X130907690Y-109824298D02*
X130860071Y-109633822D01*
X130860071Y-109633822D02*
X130860071Y-109490965D01*
X130860071Y-109490965D02*
X130907690Y-109300489D01*
X130907690Y-109300489D02*
X130955309Y-109205251D01*
X130955309Y-109205251D02*
X131050547Y-109110013D01*
X131050547Y-109110013D02*
X131193404Y-109062394D01*
X131193404Y-109062394D02*
X131288642Y-109062394D01*
X131288642Y-109062394D02*
X131431499Y-109110013D01*
X131431499Y-109110013D02*
X131479118Y-109157632D01*
X132431499Y-110062394D02*
X131860071Y-110062394D01*
X132145785Y-110062394D02*
X132145785Y-109062394D01*
X132145785Y-109062394D02*
X132050547Y-109205251D01*
X132050547Y-109205251D02*
X131955309Y-109300489D01*
X131955309Y-109300489D02*
X131860071Y-109348108D01*
D11*
%TO.C,U3*%
X177500000Y-133690000D02*
X181260000Y-133690000D01*
X177500000Y-140510000D02*
X181260000Y-140510000D01*
X181260000Y-133690000D02*
X181260000Y-134950000D01*
X181260000Y-140510000D02*
X181260000Y-139250000D01*
X176220000Y-133790000D02*
X175980000Y-133460000D01*
X176460000Y-133460000D01*
X176220000Y-133790000D01*
G36*
X176220000Y-133790000D02*
G01*
X175980000Y-133460000D01*
X176460000Y-133460000D01*
X176220000Y-133790000D01*
G37*
%TO.C,U2*%
X206655000Y-87085000D02*
X200455000Y-87085000D01*
X206655000Y-87085000D02*
X206655000Y-105485000D01*
X181805000Y-87085000D02*
X180805000Y-87085000D01*
X180805000Y-87085000D02*
X180805000Y-88585000D01*
X206655000Y-105485000D02*
X200455000Y-105485000D01*
X180805000Y-105485000D02*
X180805000Y-103985000D01*
X180805000Y-105485000D02*
X181805000Y-105485000D01*
X200280000Y-87085000D02*
X199780000Y-87085000D01*
X199780000Y-86585000D01*
X200280000Y-87085000D01*
G36*
X200280000Y-87085000D02*
G01*
X199780000Y-87085000D01*
X199780000Y-86585000D01*
X200280000Y-87085000D01*
G37*
%TO.C,U1*%
X129870785Y-113722575D02*
X127920785Y-113722575D01*
X129870785Y-113722575D02*
X131820785Y-113722575D01*
X129870785Y-123842575D02*
X127920785Y-123842575D01*
X129870785Y-123842575D02*
X131820785Y-123842575D01*
X127170785Y-113777575D02*
X126930785Y-113447575D01*
X127410785Y-113447575D01*
X127170785Y-113777575D01*
G36*
X127170785Y-113777575D02*
G01*
X126930785Y-113447575D01*
X127410785Y-113447575D01*
X127170785Y-113777575D01*
G37*
%TO.C,SW1*%
X186875000Y-113685000D02*
X186875000Y-114685000D01*
X185875000Y-113685000D02*
X186875000Y-113685000D01*
X184875000Y-115685000D02*
X182275000Y-115685000D01*
X186825000Y-121685000D02*
X186825000Y-115885000D01*
X180325000Y-121785000D02*
X180325000Y-115785000D01*
X184875000Y-121885000D02*
X182275000Y-121885000D01*
%TO.C,RN1*%
X175575000Y-75920000D02*
X174575000Y-75920000D01*
X175575000Y-79280000D02*
X174575000Y-79280000D01*
%TO.C,R2*%
X190835436Y-110135000D02*
X191289564Y-110135000D01*
X190835436Y-108665000D02*
X191289564Y-108665000D01*
%TO.C,R1*%
X194347936Y-84735000D02*
X194802064Y-84735000D01*
X194347936Y-83265000D02*
X194802064Y-83265000D01*
%TO.C,LS1*%
X198400000Y-130500000D02*
X198400000Y-142700000D01*
X195550000Y-130500000D02*
X195550000Y-128850000D01*
X195550000Y-130500000D02*
X198400000Y-130500000D01*
X186200000Y-130500000D02*
X189050000Y-130500000D01*
X198400000Y-142700000D02*
X195550000Y-142700000D01*
X189050000Y-142700000D02*
X186200000Y-142700000D01*
X186200000Y-142700000D02*
X186200000Y-130500000D01*
%TO.C,J14*%
X194745000Y-116915000D02*
X189605000Y-116915000D01*
X189605000Y-114255000D02*
X189605000Y-116915000D01*
X194745000Y-114255000D02*
X194745000Y-116915000D01*
X194745000Y-114255000D02*
X189605000Y-114255000D01*
X196015000Y-114255000D02*
X197345000Y-114255000D01*
X197345000Y-114255000D02*
X197345000Y-115585000D01*
%TO.C,J13*%
X176905000Y-102530000D02*
X176905000Y-117830000D01*
X174245000Y-117830000D02*
X176905000Y-117830000D01*
X174245000Y-102530000D02*
X176905000Y-102530000D01*
X174245000Y-102530000D02*
X174245000Y-117830000D01*
X174245000Y-101260000D02*
X174245000Y-99930000D01*
X174245000Y-99930000D02*
X175575000Y-99930000D01*
%TO.C,J11*%
X176905000Y-84705000D02*
X176905000Y-97465000D01*
X174245000Y-97465000D02*
X176905000Y-97465000D01*
X174245000Y-84705000D02*
X176905000Y-84705000D01*
X174245000Y-84705000D02*
X174245000Y-97465000D01*
X174245000Y-83435000D02*
X174245000Y-82105000D01*
X174245000Y-82105000D02*
X175575000Y-82105000D01*
%TO.C,J10*%
X121815785Y-121657575D02*
X123145785Y-121657575D01*
X121815785Y-122987575D02*
X121815785Y-121657575D01*
X121815785Y-124257575D02*
X121815785Y-124317575D01*
X121815785Y-124257575D02*
X124475785Y-124257575D01*
X121815785Y-124317575D02*
X124475785Y-124317575D01*
X124475785Y-124257575D02*
X124475785Y-124317575D01*
%TO.C,D1*%
X187637500Y-108440000D02*
X184952500Y-108440000D01*
X184952500Y-110360000D02*
X187637500Y-110360000D01*
X184952500Y-108440000D02*
X184952500Y-110360000D01*
%TO.C,C6*%
X194263748Y-81335000D02*
X194786252Y-81335000D01*
X194263748Y-79865000D02*
X194786252Y-79865000D01*
%TO.C,C5*%
X198686252Y-83265000D02*
X198163748Y-83265000D01*
X198686252Y-84735000D02*
X198163748Y-84735000D01*
%TO.C,C4*%
X198686252Y-81435000D02*
X198163748Y-81435000D01*
X198686252Y-79965000D02*
X198163748Y-79965000D01*
%TO.C,C3*%
X177011252Y-131635000D02*
X176488748Y-131635000D01*
X177011252Y-130165000D02*
X176488748Y-130165000D01*
%TO.C,C2*%
X177088748Y-142465000D02*
X177611252Y-142465000D01*
X177088748Y-143935000D02*
X177611252Y-143935000D01*
%TO.C,C1*%
X131384533Y-110552575D02*
X131907037Y-110552575D01*
X131384533Y-112022575D02*
X131907037Y-112022575D01*
%TD*%
M02*
