M48
; DRILL file {KiCad 8.0.6} date 2024-12-31T11:44:47-0600
; FORMAT={-:-/ absolute / inch / decimal}
; #@! TF.CreationDate,2024-12-31T11:44:47-06:00
; #@! TF.GenerationSoftware,Kicad,Pcbnew,8.0.6
; #@! TF.FileFunction,Plated,1,2,PTH
FMAT,2
INCH
; #@! TA.AperFunction,Plated,PTH,ViaDrill
T1C0.0118
; #@! TA.AperFunction,Plated,PTH,ComponentDrill
T2C0.0236
; #@! TA.AperFunction,Plated,PTH,ComponentDrill
T3C0.0472
; #@! TA.AperFunction,Plated,PTH,ComponentDrill
T4C0.0512
; #@! TA.AperFunction,Plated,PTH,ComponentDrill
T5C0.0866
%
G90
G05
T1
X4.248Y-2.8661
X4.3386Y-2.9606
X4.4803Y-2.874
X4.5748Y-2.8976
X4.7874Y-2.8031
X4.8228Y-2.5945
X4.8268Y-2.9291
X4.874Y-2.5197
X4.9409Y-2.8346
X4.9606Y-2.8976
X4.969Y-2.6535
X4.9843Y-2.4803
X5.0079Y-3.0157
X5.0197Y-2.9252
X5.0315Y-2.5984
X5.091Y-2.6929
X5.1102Y-2.4764
X5.1181Y-2.9291
X5.2126Y-2.7717
X5.2205Y-2.9094
X5.2362Y-2.7008
X5.2677Y-2.6772
X5.2835Y-2.5984
T3
X3.8441Y-1.5354
X3.8441Y-1.9921
X3.8441Y-2.2126
X3.8441Y-2.6693
X4.2441Y-1.5354
X4.2441Y-1.9921
X4.2441Y-2.2126
X4.2441Y-2.6693
T4
X5.3543Y-1.6535
X5.3543Y-1.8504
X5.3543Y-2.0472
X5.3543Y-2.2441
T5
X4.0945Y-1.7638
X4.0945Y-2.4409
T2
G00X5.345Y-2.4677
M15
G01X5.3883Y-2.4677
M16
G05
G00X5.345Y-2.8079
M15
G01X5.3883Y-2.8079
M16
G05
G00X5.5143Y-2.4677
M15
G01X5.5458Y-2.4677
M16
G05
G00X5.5143Y-2.8079
M15
G01X5.5458Y-2.8079
M16
G05
M30
