%TF.GenerationSoftware,KiCad,Pcbnew,8.0.6*%
%TF.CreationDate,2024-12-31T11:44:44-06:00*%
%TF.ProjectId,USBCpwr,55534243-7077-4722-9e6b-696361645f70,rev?*%
%TF.SameCoordinates,Original*%
%TF.FileFunction,Legend,Top*%
%TF.FilePolarity,Positive*%
%FSLAX46Y46*%
G04 Gerber Fmt 4.6, Leading zero omitted, Abs format (unit mm)*
G04 Created by KiCad (PCBNEW 8.0.6) date 2024-12-31 11:44:44*
%MOMM*%
%LPD*%
G01*
G04 APERTURE LIST*
%ADD10C,0.150000*%
%ADD11C,0.000000*%
%ADD12C,0.120000*%
G04 APERTURE END LIST*
D10*
X117254819Y-73790476D02*
X116778628Y-74123809D01*
X117254819Y-74361904D02*
X116254819Y-74361904D01*
X116254819Y-74361904D02*
X116254819Y-73980952D01*
X116254819Y-73980952D02*
X116302438Y-73885714D01*
X116302438Y-73885714D02*
X116350057Y-73838095D01*
X116350057Y-73838095D02*
X116445295Y-73790476D01*
X116445295Y-73790476D02*
X116588152Y-73790476D01*
X116588152Y-73790476D02*
X116683390Y-73838095D01*
X116683390Y-73838095D02*
X116731009Y-73885714D01*
X116731009Y-73885714D02*
X116778628Y-73980952D01*
X116778628Y-73980952D02*
X116778628Y-74361904D01*
X117254819Y-73361904D02*
X116254819Y-73361904D01*
X116254819Y-73361904D02*
X117254819Y-72790476D01*
X117254819Y-72790476D02*
X116254819Y-72790476D01*
X116350057Y-72361904D02*
X116302438Y-72314285D01*
X116302438Y-72314285D02*
X116254819Y-72219047D01*
X116254819Y-72219047D02*
X116254819Y-71980952D01*
X116254819Y-71980952D02*
X116302438Y-71885714D01*
X116302438Y-71885714D02*
X116350057Y-71838095D01*
X116350057Y-71838095D02*
X116445295Y-71790476D01*
X116445295Y-71790476D02*
X116540533Y-71790476D01*
X116540533Y-71790476D02*
X116683390Y-71838095D01*
X116683390Y-71838095D02*
X117254819Y-72409523D01*
X117254819Y-72409523D02*
X117254819Y-71790476D01*
X103666666Y-53454819D02*
X103666666Y-54169104D01*
X103666666Y-54169104D02*
X103619047Y-54311961D01*
X103619047Y-54311961D02*
X103523809Y-54407200D01*
X103523809Y-54407200D02*
X103380952Y-54454819D01*
X103380952Y-54454819D02*
X103285714Y-54454819D01*
X104619047Y-53454819D02*
X104142857Y-53454819D01*
X104142857Y-53454819D02*
X104095238Y-53931009D01*
X104095238Y-53931009D02*
X104142857Y-53883390D01*
X104142857Y-53883390D02*
X104238095Y-53835771D01*
X104238095Y-53835771D02*
X104476190Y-53835771D01*
X104476190Y-53835771D02*
X104571428Y-53883390D01*
X104571428Y-53883390D02*
X104619047Y-53931009D01*
X104619047Y-53931009D02*
X104666666Y-54026247D01*
X104666666Y-54026247D02*
X104666666Y-54264342D01*
X104666666Y-54264342D02*
X104619047Y-54359580D01*
X104619047Y-54359580D02*
X104571428Y-54407200D01*
X104571428Y-54407200D02*
X104476190Y-54454819D01*
X104476190Y-54454819D02*
X104238095Y-54454819D01*
X104238095Y-54454819D02*
X104142857Y-54407200D01*
X104142857Y-54407200D02*
X104095238Y-54359580D01*
X140679166Y-60879819D02*
X140679166Y-61594104D01*
X140679166Y-61594104D02*
X140631547Y-61736961D01*
X140631547Y-61736961D02*
X140536309Y-61832200D01*
X140536309Y-61832200D02*
X140393452Y-61879819D01*
X140393452Y-61879819D02*
X140298214Y-61879819D01*
X141679166Y-61879819D02*
X141107738Y-61879819D01*
X141393452Y-61879819D02*
X141393452Y-60879819D01*
X141393452Y-60879819D02*
X141298214Y-61022676D01*
X141298214Y-61022676D02*
X141202976Y-61117914D01*
X141202976Y-61117914D02*
X141107738Y-61165533D01*
X126945833Y-76054819D02*
X126612500Y-75578628D01*
X126374405Y-76054819D02*
X126374405Y-75054819D01*
X126374405Y-75054819D02*
X126755357Y-75054819D01*
X126755357Y-75054819D02*
X126850595Y-75102438D01*
X126850595Y-75102438D02*
X126898214Y-75150057D01*
X126898214Y-75150057D02*
X126945833Y-75245295D01*
X126945833Y-75245295D02*
X126945833Y-75388152D01*
X126945833Y-75388152D02*
X126898214Y-75483390D01*
X126898214Y-75483390D02*
X126850595Y-75531009D01*
X126850595Y-75531009D02*
X126755357Y-75578628D01*
X126755357Y-75578628D02*
X126374405Y-75578628D01*
X127326786Y-75150057D02*
X127374405Y-75102438D01*
X127374405Y-75102438D02*
X127469643Y-75054819D01*
X127469643Y-75054819D02*
X127707738Y-75054819D01*
X127707738Y-75054819D02*
X127802976Y-75102438D01*
X127802976Y-75102438D02*
X127850595Y-75150057D01*
X127850595Y-75150057D02*
X127898214Y-75245295D01*
X127898214Y-75245295D02*
X127898214Y-75340533D01*
X127898214Y-75340533D02*
X127850595Y-75483390D01*
X127850595Y-75483390D02*
X127279167Y-76054819D01*
X127279167Y-76054819D02*
X127898214Y-76054819D01*
X102666666Y-37254819D02*
X102666666Y-37969104D01*
X102666666Y-37969104D02*
X102619047Y-38111961D01*
X102619047Y-38111961D02*
X102523809Y-38207200D01*
X102523809Y-38207200D02*
X102380952Y-38254819D01*
X102380952Y-38254819D02*
X102285714Y-38254819D01*
X103571428Y-37588152D02*
X103571428Y-38254819D01*
X103333333Y-37207200D02*
X103095238Y-37921485D01*
X103095238Y-37921485D02*
X103714285Y-37921485D01*
X126838095Y-64454819D02*
X126838095Y-65264342D01*
X126838095Y-65264342D02*
X126885714Y-65359580D01*
X126885714Y-65359580D02*
X126933333Y-65407200D01*
X126933333Y-65407200D02*
X127028571Y-65454819D01*
X127028571Y-65454819D02*
X127219047Y-65454819D01*
X127219047Y-65454819D02*
X127314285Y-65407200D01*
X127314285Y-65407200D02*
X127361904Y-65359580D01*
X127361904Y-65359580D02*
X127409523Y-65264342D01*
X127409523Y-65264342D02*
X127409523Y-64454819D01*
X128409523Y-65454819D02*
X127838095Y-65454819D01*
X128123809Y-65454819D02*
X128123809Y-64454819D01*
X128123809Y-64454819D02*
X128028571Y-64597676D01*
X128028571Y-64597676D02*
X127933333Y-64692914D01*
X127933333Y-64692914D02*
X127838095Y-64740533D01*
X120804819Y-69166666D02*
X120328628Y-69499999D01*
X120804819Y-69738094D02*
X119804819Y-69738094D01*
X119804819Y-69738094D02*
X119804819Y-69357142D01*
X119804819Y-69357142D02*
X119852438Y-69261904D01*
X119852438Y-69261904D02*
X119900057Y-69214285D01*
X119900057Y-69214285D02*
X119995295Y-69166666D01*
X119995295Y-69166666D02*
X120138152Y-69166666D01*
X120138152Y-69166666D02*
X120233390Y-69214285D01*
X120233390Y-69214285D02*
X120281009Y-69261904D01*
X120281009Y-69261904D02*
X120328628Y-69357142D01*
X120328628Y-69357142D02*
X120328628Y-69738094D01*
X120804819Y-68214285D02*
X120804819Y-68785713D01*
X120804819Y-68499999D02*
X119804819Y-68499999D01*
X119804819Y-68499999D02*
X119947676Y-68595237D01*
X119947676Y-68595237D02*
X120042914Y-68690475D01*
X120042914Y-68690475D02*
X120090533Y-68785713D01*
X127033333Y-73359580D02*
X126985714Y-73407200D01*
X126985714Y-73407200D02*
X126842857Y-73454819D01*
X126842857Y-73454819D02*
X126747619Y-73454819D01*
X126747619Y-73454819D02*
X126604762Y-73407200D01*
X126604762Y-73407200D02*
X126509524Y-73311961D01*
X126509524Y-73311961D02*
X126461905Y-73216723D01*
X126461905Y-73216723D02*
X126414286Y-73026247D01*
X126414286Y-73026247D02*
X126414286Y-72883390D01*
X126414286Y-72883390D02*
X126461905Y-72692914D01*
X126461905Y-72692914D02*
X126509524Y-72597676D01*
X126509524Y-72597676D02*
X126604762Y-72502438D01*
X126604762Y-72502438D02*
X126747619Y-72454819D01*
X126747619Y-72454819D02*
X126842857Y-72454819D01*
X126842857Y-72454819D02*
X126985714Y-72502438D01*
X126985714Y-72502438D02*
X127033333Y-72550057D01*
X127985714Y-73454819D02*
X127414286Y-73454819D01*
X127700000Y-73454819D02*
X127700000Y-72454819D01*
X127700000Y-72454819D02*
X127604762Y-72597676D01*
X127604762Y-72597676D02*
X127509524Y-72692914D01*
X127509524Y-72692914D02*
X127414286Y-72740533D01*
D11*
%TO.C,kibuzzard-67742CFE*%
G36*
X111875536Y-72311397D02*
G01*
X111279447Y-72311397D01*
X110615641Y-72311397D01*
X109371006Y-72311397D01*
X108189318Y-72311397D01*
X107491178Y-72311397D01*
X105416786Y-72311397D01*
X103722938Y-72311397D01*
X103016214Y-72311397D01*
X101534096Y-72311397D01*
X100006199Y-72311397D01*
X98984740Y-72311397D01*
X96936099Y-72311397D01*
X95551264Y-72311397D01*
X93602766Y-72311397D01*
X92581307Y-72311397D01*
X91525513Y-72311397D01*
X90300906Y-72311397D01*
X89579876Y-72311397D01*
X88375298Y-72311397D01*
X86126371Y-72311397D01*
X85245112Y-72311397D01*
X84649022Y-72311397D01*
X84520483Y-72305082D01*
X84393182Y-72286199D01*
X84268344Y-72254929D01*
X84147172Y-72211573D01*
X84030834Y-72156549D01*
X83920449Y-72090387D01*
X83817081Y-72013724D01*
X83721725Y-71927298D01*
X83635299Y-71831942D01*
X83558635Y-71728573D01*
X83492473Y-71618188D01*
X83437449Y-71501850D01*
X83394094Y-71380679D01*
X83362823Y-71255841D01*
X83343940Y-71128539D01*
X83337625Y-71000000D01*
X83343940Y-70871461D01*
X83362823Y-70744159D01*
X83394094Y-70619321D01*
X83437449Y-70498150D01*
X83492473Y-70381812D01*
X83542109Y-70298999D01*
X85245112Y-70298999D01*
X85245112Y-71100143D01*
X85259418Y-71273247D01*
X85302337Y-71443491D01*
X85372079Y-71605866D01*
X85466857Y-71755365D01*
X85590248Y-71884478D01*
X85745827Y-71985694D01*
X85926800Y-72051144D01*
X86126371Y-72072961D01*
X86326299Y-72051502D01*
X86508345Y-71987124D01*
X86665355Y-71887339D01*
X86790176Y-71759657D01*
X86886385Y-71611230D01*
X86957558Y-71449213D01*
X87001550Y-71278970D01*
X87016214Y-71105866D01*
X87016214Y-70836910D01*
X87182165Y-70836910D01*
X87182165Y-71778255D01*
X87186457Y-71876967D01*
X87213639Y-71954220D01*
X87292322Y-72018598D01*
X87439676Y-72038627D01*
X87588460Y-72018598D01*
X87668574Y-71954220D01*
X87695756Y-71876967D01*
X87700048Y-71781116D01*
X87700048Y-71311874D01*
X87757272Y-71161660D01*
X87908918Y-71105866D01*
X88059132Y-71160229D01*
X88112065Y-71311874D01*
X88112065Y-71778255D01*
X88116357Y-71874106D01*
X88143538Y-71952790D01*
X88223653Y-72018598D01*
X88375298Y-72038627D01*
X88525513Y-72018598D01*
X88604196Y-71954220D01*
X88631378Y-71876967D01*
X88635670Y-71781116D01*
X88635670Y-71311874D01*
X88618821Y-71112860D01*
X88568272Y-70939278D01*
X88518194Y-70851216D01*
X88744397Y-70851216D01*
X88783023Y-71040057D01*
X88916071Y-71103004D01*
X88987601Y-71103004D01*
X88987601Y-71466381D01*
X89003656Y-71645684D01*
X89051820Y-71790653D01*
X89132093Y-71901288D01*
X89246066Y-71979177D01*
X89395327Y-72025910D01*
X89579876Y-72041488D01*
X89672866Y-72037196D01*
X89751550Y-72010014D01*
X89818789Y-71931330D01*
X89840248Y-71783977D01*
X89823081Y-71652361D01*
X89765856Y-71582260D01*
X89688603Y-71555079D01*
X89582737Y-71549356D01*
X89521221Y-71526466D01*
X89505484Y-71440629D01*
X89505484Y-71108727D01*
X89654268Y-71111588D01*
X89751550Y-71104435D01*
X89830234Y-71074392D01*
X89893181Y-70995708D01*
X89914640Y-70854077D01*
X89913933Y-70848355D01*
X90043395Y-70848355D01*
X90043395Y-71781116D01*
X90047687Y-71879828D01*
X90074869Y-71957082D01*
X90153553Y-72021459D01*
X90300906Y-72041488D01*
X90451121Y-72021459D01*
X90529804Y-71957082D01*
X90556986Y-71881259D01*
X90561278Y-71783977D01*
X90561278Y-70854077D01*
X90561154Y-70851216D01*
X90690033Y-70851216D01*
X90728660Y-71040057D01*
X90861707Y-71103004D01*
X90933238Y-71103004D01*
X90933238Y-71466381D01*
X90949293Y-71645684D01*
X90997457Y-71790653D01*
X91077730Y-71901288D01*
X91191702Y-71979177D01*
X91340963Y-72025910D01*
X91525513Y-72041488D01*
X91618503Y-72037196D01*
X91697186Y-72010014D01*
X91764425Y-71931330D01*
X91785885Y-71783977D01*
X91768717Y-71652361D01*
X91711493Y-71582260D01*
X91634239Y-71555079D01*
X91528374Y-71549356D01*
X91466857Y-71526466D01*
X91451121Y-71440629D01*
X91451121Y-71108727D01*
X91599905Y-71111588D01*
X91697186Y-71104435D01*
X91775870Y-71074392D01*
X91838817Y-70995708D01*
X91860277Y-70854077D01*
X91844540Y-70726753D01*
X91807344Y-70648069D01*
X91745827Y-70608011D01*
X91678588Y-70592275D01*
X91602766Y-70590844D01*
X91451121Y-70596567D01*
X91451121Y-70367668D01*
X91445398Y-70271817D01*
X91416786Y-70191702D01*
X91411541Y-70187411D01*
X91989032Y-70187411D01*
X91989032Y-71454936D01*
X91996185Y-71629828D01*
X92017644Y-71765379D01*
X92123510Y-71942775D01*
X92300906Y-72022890D01*
X92421078Y-72036838D01*
X92581307Y-72041488D01*
X92644254Y-72037196D01*
X92700048Y-72011445D01*
X92748689Y-71932761D01*
X92764425Y-71783977D01*
X92748689Y-71643777D01*
X92700048Y-71569385D01*
X92644254Y-71545064D01*
X92584168Y-71540773D01*
X92516929Y-71525036D01*
X92506915Y-71423462D01*
X92506915Y-71320458D01*
X92821650Y-71320458D01*
X92832737Y-71450644D01*
X92865999Y-71577969D01*
X92921078Y-71701001D01*
X92997616Y-71818312D01*
X93102408Y-71921674D01*
X93242251Y-72002861D01*
X93411063Y-72055436D01*
X93602766Y-72072961D01*
X93863138Y-72056688D01*
X94049118Y-72007868D01*
X94160706Y-71926502D01*
X94197902Y-71812589D01*
X94160706Y-71680973D01*
X94083453Y-71577969D01*
X93989032Y-71543634D01*
X93857415Y-71580830D01*
X93625656Y-71618026D01*
X93456843Y-71577969D01*
X93371006Y-71469242D01*
X93980448Y-71469242D01*
X94096686Y-71447425D01*
X94187887Y-71381974D01*
X94228696Y-71309013D01*
X94352408Y-71309013D01*
X94374821Y-71492450D01*
X94442060Y-71661262D01*
X94554125Y-71815451D01*
X94694802Y-71937848D01*
X94847878Y-72011286D01*
X95013352Y-72035765D01*
X95177873Y-72010014D01*
X95316643Y-71932761D01*
X95398188Y-72012160D01*
X95551264Y-72038627D01*
X95698617Y-72018598D01*
X95777301Y-71952790D01*
X95804483Y-71874106D01*
X95808774Y-71778255D01*
X95808774Y-70298999D01*
X96675727Y-70298999D01*
X96675727Y-71778255D01*
X96680019Y-71876967D01*
X96707201Y-71955651D01*
X96787315Y-72021459D01*
X96936099Y-72041488D01*
X97989032Y-72041488D01*
X98087744Y-72037196D01*
X98166428Y-72010014D01*
X98232237Y-71929900D01*
X98252265Y-71781116D01*
X98232237Y-71629471D01*
X98167859Y-71549356D01*
X98090606Y-71522175D01*
X97991893Y-71517883D01*
X97199332Y-71517883D01*
X97199332Y-71263233D01*
X97722938Y-71263233D01*
X97817358Y-71258941D01*
X97888889Y-71236052D01*
X97944683Y-71170243D01*
X97960420Y-71042918D01*
X97944683Y-70912732D01*
X97890320Y-70844063D01*
X97821650Y-70821173D01*
X97728660Y-70816881D01*
X97199332Y-70816881D01*
X97199332Y-70562232D01*
X97989032Y-70562232D01*
X98087744Y-70557940D01*
X98166428Y-70530758D01*
X98232237Y-70450644D01*
X98252265Y-70301860D01*
X98237150Y-70187411D01*
X98392465Y-70187411D01*
X98392465Y-71454936D01*
X98399619Y-71629828D01*
X98421078Y-71765379D01*
X98526943Y-71942775D01*
X98704340Y-72022890D01*
X98824511Y-72036838D01*
X98984740Y-72041488D01*
X99047687Y-72037196D01*
X99103481Y-72011445D01*
X99152122Y-71932761D01*
X99167859Y-71783977D01*
X99152122Y-71643777D01*
X99103481Y-71569385D01*
X99047687Y-71545064D01*
X98987601Y-71540773D01*
X98920362Y-71525036D01*
X98910348Y-71423462D01*
X98910348Y-71320458D01*
X99225083Y-71320458D01*
X99236171Y-71450644D01*
X99269433Y-71577969D01*
X99324511Y-71701001D01*
X99401049Y-71818312D01*
X99505842Y-71921674D01*
X99645684Y-72002861D01*
X99814497Y-72055436D01*
X100006199Y-72072961D01*
X100266571Y-72056688D01*
X100452551Y-72007868D01*
X100564139Y-71926502D01*
X100601335Y-71812589D01*
X100564139Y-71680973D01*
X100486886Y-71577969D01*
X100392465Y-71543634D01*
X100260849Y-71580830D01*
X100029089Y-71618026D01*
X99860277Y-71577969D01*
X99774440Y-71469242D01*
X100383882Y-71469242D01*
X100500119Y-71447425D01*
X100591321Y-71381974D01*
X100632130Y-71309013D01*
X100784454Y-71309013D01*
X100802337Y-71478898D01*
X100855985Y-71633763D01*
X100938245Y-71766452D01*
X101041965Y-71869814D01*
X101159633Y-71948498D01*
X101283739Y-72007153D01*
X101409990Y-72043634D01*
X101534096Y-72055794D01*
X101728660Y-72027897D01*
X101923224Y-71944206D01*
X102047528Y-71832300D01*
X102077094Y-71710221D01*
X102011922Y-71577969D01*
X101896757Y-71464235D01*
X101797330Y-71426323D01*
X101648546Y-71489270D01*
X101522651Y-71526466D01*
X101378159Y-71463519D01*
X101316643Y-71311874D01*
X101379590Y-71161660D01*
X101528374Y-71100143D01*
X101672866Y-71151645D01*
X101814497Y-71203147D01*
X101917501Y-71163805D01*
X102020505Y-71045780D01*
X102080591Y-70882690D01*
X102070624Y-70851216D01*
X102180734Y-70851216D01*
X102219361Y-71040057D01*
X102352408Y-71103004D01*
X102423939Y-71103004D01*
X102423939Y-71466381D01*
X102439994Y-71645684D01*
X102488158Y-71790653D01*
X102568431Y-71901288D01*
X102682403Y-71979177D01*
X102831664Y-72025910D01*
X103016214Y-72041488D01*
X103109204Y-72037196D01*
X103187887Y-72010014D01*
X103255126Y-71931330D01*
X103276586Y-71783977D01*
X103259418Y-71652361D01*
X103202194Y-71582260D01*
X103124940Y-71555079D01*
X103019075Y-71549356D01*
X102957558Y-71526466D01*
X102941822Y-71440629D01*
X102941822Y-71108727D01*
X103090606Y-71111588D01*
X103187887Y-71104435D01*
X103266571Y-71074392D01*
X103329518Y-70995708D01*
X103350978Y-70854077D01*
X103349917Y-70845494D01*
X103465427Y-70845494D01*
X103465427Y-71778255D01*
X103469719Y-71876967D01*
X103496900Y-71955651D01*
X103575584Y-72021459D01*
X103722938Y-72041488D01*
X103874583Y-72021459D01*
X103954697Y-71957082D01*
X103981879Y-71881259D01*
X103986171Y-71783977D01*
X103986171Y-71314735D01*
X104655699Y-71314735D01*
X104682086Y-71519631D01*
X104761246Y-71699412D01*
X104893181Y-71854077D01*
X105056907Y-71972500D01*
X105231442Y-72043554D01*
X105416786Y-72067239D01*
X105600381Y-72044031D01*
X105773486Y-71974408D01*
X105936099Y-71858369D01*
X106067239Y-71704816D01*
X106145923Y-71522651D01*
X106172151Y-71311874D01*
X106147512Y-71110952D01*
X106073597Y-70931648D01*
X105999583Y-70836910D01*
X106298045Y-70836910D01*
X106298045Y-71778255D01*
X106302337Y-71876967D01*
X106329518Y-71954220D01*
X106408202Y-72018598D01*
X106555556Y-72038627D01*
X106704340Y-72018598D01*
X106784454Y-71954220D01*
X106811636Y-71876967D01*
X106815928Y-71781116D01*
X106815928Y-71311874D01*
X106873152Y-71161660D01*
X107024797Y-71105866D01*
X107175012Y-71160229D01*
X107227945Y-71311874D01*
X107227945Y-71778255D01*
X107232237Y-71874106D01*
X107259418Y-71952790D01*
X107339533Y-72018598D01*
X107491178Y-72038627D01*
X107641392Y-72018598D01*
X107720076Y-71954220D01*
X107747258Y-71876967D01*
X107751550Y-71781116D01*
X107751550Y-71311874D01*
X107734700Y-71112860D01*
X107684152Y-70939278D01*
X107632447Y-70848355D01*
X107931807Y-70848355D01*
X107931807Y-71781116D01*
X107936099Y-71879828D01*
X107963281Y-71957082D01*
X108041965Y-72021459D01*
X108189318Y-72041488D01*
X108339533Y-72021459D01*
X108418216Y-71957082D01*
X108445398Y-71881259D01*
X108449690Y-71783977D01*
X108449690Y-71309013D01*
X108621364Y-71309013D01*
X108639247Y-71478898D01*
X108692895Y-71633763D01*
X108775155Y-71766452D01*
X108878875Y-71869814D01*
X108996543Y-71948498D01*
X109120649Y-72007153D01*
X109246900Y-72043634D01*
X109371006Y-72055794D01*
X109565570Y-72027897D01*
X109760134Y-71944206D01*
X109884438Y-71832300D01*
X109892676Y-71798283D01*
X110031950Y-71798283D01*
X110081664Y-71903433D01*
X110230806Y-71989986D01*
X110426443Y-72047926D01*
X110615641Y-72067239D01*
X110845341Y-72047439D01*
X111023996Y-71988040D01*
X111151607Y-71889041D01*
X111228174Y-71750443D01*
X111253696Y-71572246D01*
X111215069Y-71366237D01*
X111103481Y-71234621D01*
X110966142Y-71168813D01*
X110810205Y-71131617D01*
X110764425Y-71124464D01*
X110718646Y-71117310D01*
X110678588Y-71108727D01*
X110641392Y-71098712D01*
X110609919Y-71088698D01*
X110582737Y-71075823D01*
X110564139Y-71060086D01*
X110551264Y-71040057D01*
X110546972Y-71014306D01*
X110652837Y-70957082D01*
X110830234Y-71008584D01*
X110987601Y-71060086D01*
X111130663Y-70951359D01*
X111192895Y-70772532D01*
X111082022Y-70653791D01*
X110882451Y-70582976D01*
X110684311Y-70559371D01*
X110501987Y-70572246D01*
X110351772Y-70610873D01*
X110233667Y-70675250D01*
X110118860Y-70817239D01*
X110080591Y-71011445D01*
X110102587Y-71172210D01*
X110168574Y-71302575D01*
X110278553Y-71402539D01*
X110432523Y-71472103D01*
X110587029Y-71510730D01*
X110728660Y-71550787D01*
X110770148Y-71600858D01*
X110661421Y-71646638D01*
X110448259Y-71576538D01*
X110249404Y-71506438D01*
X110137816Y-71563662D01*
X110058417Y-71696710D01*
X110031950Y-71798283D01*
X109892676Y-71798283D01*
X109914004Y-71710221D01*
X109848832Y-71577969D01*
X109733667Y-71464235D01*
X109634239Y-71426323D01*
X109485455Y-71489270D01*
X109359561Y-71526466D01*
X109215069Y-71463519D01*
X109153553Y-71311874D01*
X109216500Y-71161660D01*
X109365284Y-71100143D01*
X109509776Y-71151645D01*
X109651407Y-71203147D01*
X109754411Y-71163805D01*
X109857415Y-71045780D01*
X109917501Y-70882690D01*
X109890320Y-70796853D01*
X109835956Y-70735336D01*
X109760134Y-70685265D01*
X109569862Y-70599428D01*
X109365284Y-70570815D01*
X109243324Y-70582976D01*
X109117787Y-70619456D01*
X108994039Y-70677754D01*
X108877444Y-70755365D01*
X108774797Y-70857296D01*
X108692895Y-70988555D01*
X108639247Y-71141631D01*
X108621364Y-71309013D01*
X108449690Y-71309013D01*
X108449690Y-70854077D01*
X108445398Y-70755365D01*
X108418216Y-70676681D01*
X108339533Y-70610873D01*
X108192179Y-70590844D01*
X108189318Y-70591229D01*
X108043395Y-70610873D01*
X107963281Y-70675250D01*
X107936099Y-70752504D01*
X107931807Y-70848355D01*
X107632447Y-70848355D01*
X107599905Y-70791130D01*
X107484820Y-70678271D01*
X107341758Y-70610555D01*
X107170720Y-70587983D01*
X106963281Y-70642346D01*
X106810205Y-70765379D01*
X106801621Y-70706724D01*
X106770148Y-70652361D01*
X106692895Y-70605150D01*
X106558417Y-70587983D01*
X106409633Y-70606581D01*
X106330949Y-70668097D01*
X106303767Y-70742489D01*
X106298045Y-70836910D01*
X105999583Y-70836910D01*
X105950405Y-70773963D01*
X105791925Y-70651566D01*
X105612144Y-70578127D01*
X105411063Y-70553648D01*
X105214592Y-70578604D01*
X105037196Y-70653473D01*
X104878875Y-70778255D01*
X104754888Y-70937689D01*
X104680496Y-71116516D01*
X104655699Y-71314735D01*
X103986171Y-71314735D01*
X103986171Y-71226037D01*
X104041965Y-71121602D01*
X104183596Y-71080114D01*
X104253696Y-71101574D01*
X104363853Y-71123033D01*
X104524082Y-71024320D01*
X104571292Y-70913805D01*
X104587029Y-70779685D01*
X104551264Y-70670959D01*
X104458274Y-70606581D01*
X104355269Y-70580830D01*
X104269433Y-70573677D01*
X104116357Y-70606581D01*
X103971865Y-70705293D01*
X103891750Y-70617310D01*
X103725799Y-70587983D01*
X103575584Y-70608011D01*
X103496900Y-70672389D01*
X103469719Y-70748212D01*
X103465427Y-70845494D01*
X103349917Y-70845494D01*
X103335241Y-70726753D01*
X103298045Y-70648069D01*
X103236528Y-70608011D01*
X103169289Y-70592275D01*
X103093467Y-70590844D01*
X102941822Y-70596567D01*
X102941822Y-70367668D01*
X102936099Y-70271817D01*
X102907487Y-70191702D01*
X102905739Y-70190272D01*
X107931807Y-70190272D01*
X107936099Y-70286123D01*
X107963281Y-70364807D01*
X108041965Y-70430615D01*
X108189318Y-70450644D01*
X108339533Y-70430615D01*
X108418216Y-70366237D01*
X108445398Y-70290415D01*
X108449690Y-70193133D01*
X108445398Y-70097282D01*
X108418216Y-70018598D01*
X108339533Y-69952790D01*
X108192179Y-69932761D01*
X108043395Y-69952790D01*
X107963281Y-70017167D01*
X107936099Y-70094421D01*
X107931807Y-70190272D01*
X102905739Y-70190272D01*
X102828803Y-70127325D01*
X102684311Y-70107296D01*
X102534096Y-70125894D01*
X102455412Y-70185980D01*
X102428231Y-70260372D01*
X102423939Y-70356223D01*
X102423939Y-70605150D01*
X102363853Y-70605150D01*
X102226514Y-70666667D01*
X102180734Y-70851216D01*
X102070624Y-70851216D01*
X102053410Y-70796853D01*
X101999046Y-70735336D01*
X101923224Y-70685265D01*
X101732952Y-70599428D01*
X101528374Y-70570815D01*
X101406414Y-70582976D01*
X101280877Y-70619456D01*
X101157129Y-70677754D01*
X101040534Y-70755365D01*
X100937887Y-70857296D01*
X100855985Y-70988555D01*
X100802337Y-71141631D01*
X100784454Y-71309013D01*
X100632130Y-71309013D01*
X100650334Y-71276466D01*
X100670005Y-71134478D01*
X100627444Y-70933476D01*
X100499762Y-70742489D01*
X100369576Y-70639167D01*
X100206009Y-70577174D01*
X100009061Y-70556509D01*
X99792402Y-70580194D01*
X99604038Y-70651248D01*
X99443968Y-70769671D01*
X99322365Y-70925608D01*
X99249404Y-71109204D01*
X99225083Y-71320458D01*
X98910348Y-71320458D01*
X98910348Y-70190272D01*
X98904626Y-70092990D01*
X98877444Y-70012876D01*
X98800191Y-69947067D01*
X98652837Y-69927039D01*
X98504053Y-69947067D01*
X98423939Y-70011445D01*
X98396757Y-70088698D01*
X98392465Y-70187411D01*
X98237150Y-70187411D01*
X98232237Y-70150215D01*
X98167859Y-70070100D01*
X98090606Y-70042918D01*
X97991893Y-70038627D01*
X96944683Y-70038627D01*
X96734382Y-70094421D01*
X96675727Y-70298999D01*
X95808774Y-70298999D01*
X95808774Y-70190272D01*
X95804483Y-70094421D01*
X95777301Y-70017167D01*
X95698617Y-69952790D01*
X95548402Y-69932761D01*
X95423939Y-69947067D01*
X95349547Y-69987124D01*
X95312351Y-70047210D01*
X95300906Y-70118741D01*
X95302337Y-70193133D01*
X95302337Y-70685265D01*
X95170005Y-70614449D01*
X95013352Y-70590844D01*
X94849309Y-70615323D01*
X94696710Y-70688762D01*
X94555556Y-70811159D01*
X94442696Y-70964394D01*
X94374980Y-71130345D01*
X94352408Y-71309013D01*
X94228696Y-71309013D01*
X94246900Y-71276466D01*
X94266571Y-71134478D01*
X94224010Y-70933476D01*
X94096328Y-70742489D01*
X93966142Y-70639167D01*
X93802575Y-70577174D01*
X93605627Y-70556509D01*
X93388968Y-70580194D01*
X93200604Y-70651248D01*
X93040534Y-70769671D01*
X92918932Y-70925608D01*
X92845970Y-71109204D01*
X92821650Y-71320458D01*
X92506915Y-71320458D01*
X92506915Y-70190272D01*
X92501192Y-70092990D01*
X92474010Y-70012876D01*
X92396757Y-69947067D01*
X92249404Y-69927039D01*
X92100620Y-69947067D01*
X92020505Y-70011445D01*
X91993324Y-70088698D01*
X91989032Y-70187411D01*
X91411541Y-70187411D01*
X91338102Y-70127325D01*
X91193610Y-70107296D01*
X91043395Y-70125894D01*
X90964711Y-70185980D01*
X90937530Y-70260372D01*
X90933238Y-70356223D01*
X90933238Y-70605150D01*
X90873152Y-70605150D01*
X90735813Y-70666667D01*
X90690033Y-70851216D01*
X90561154Y-70851216D01*
X90556986Y-70755365D01*
X90529804Y-70676681D01*
X90451121Y-70610873D01*
X90303767Y-70590844D01*
X90300906Y-70591229D01*
X90154983Y-70610873D01*
X90074869Y-70675250D01*
X90047687Y-70752504D01*
X90043395Y-70848355D01*
X89913933Y-70848355D01*
X89898903Y-70726753D01*
X89861707Y-70648069D01*
X89800191Y-70608011D01*
X89732952Y-70592275D01*
X89657129Y-70590844D01*
X89505484Y-70596567D01*
X89505484Y-70367668D01*
X89499762Y-70271817D01*
X89471149Y-70191702D01*
X89469401Y-70190272D01*
X90043395Y-70190272D01*
X90047687Y-70286123D01*
X90074869Y-70364807D01*
X90153553Y-70430615D01*
X90300906Y-70450644D01*
X90451121Y-70430615D01*
X90529804Y-70366237D01*
X90556986Y-70290415D01*
X90561278Y-70193133D01*
X90556986Y-70097282D01*
X90529804Y-70018598D01*
X90451121Y-69952790D01*
X90303767Y-69932761D01*
X90154983Y-69952790D01*
X90074869Y-70017167D01*
X90047687Y-70094421D01*
X90043395Y-70190272D01*
X89469401Y-70190272D01*
X89392465Y-70127325D01*
X89247973Y-70107296D01*
X89097759Y-70125894D01*
X89019075Y-70185980D01*
X88991893Y-70260372D01*
X88987601Y-70356223D01*
X88987601Y-70605150D01*
X88927515Y-70605150D01*
X88790176Y-70666667D01*
X88744397Y-70851216D01*
X88518194Y-70851216D01*
X88484025Y-70791130D01*
X88368940Y-70678271D01*
X88225878Y-70610555D01*
X88054840Y-70587983D01*
X87847401Y-70642346D01*
X87694325Y-70765379D01*
X87685742Y-70706724D01*
X87654268Y-70652361D01*
X87577015Y-70605150D01*
X87442537Y-70587983D01*
X87293753Y-70606581D01*
X87215069Y-70668097D01*
X87187887Y-70742489D01*
X87182165Y-70836910D01*
X87016214Y-70836910D01*
X87016214Y-70301860D01*
X87011922Y-70203147D01*
X86984740Y-70123033D01*
X86904626Y-70055794D01*
X86755842Y-70035765D01*
X86607058Y-70055794D01*
X86526943Y-70117310D01*
X86498331Y-70191702D01*
X86492608Y-70284692D01*
X86492608Y-71097282D01*
X86468288Y-71280401D01*
X86395327Y-71423462D01*
X86281593Y-71515737D01*
X86134955Y-71546495D01*
X86012637Y-71527539D01*
X85914640Y-71470672D01*
X85800191Y-71301860D01*
X85771578Y-71100143D01*
X85771578Y-70301860D01*
X85765856Y-70200286D01*
X85737244Y-70120172D01*
X85658560Y-70055794D01*
X85508345Y-70035765D01*
X85356700Y-70055794D01*
X85276586Y-70121602D01*
X85249404Y-70200286D01*
X85245112Y-70298999D01*
X83542109Y-70298999D01*
X83558635Y-70271427D01*
X83635299Y-70168058D01*
X83721725Y-70072702D01*
X83817081Y-69986276D01*
X83920449Y-69909613D01*
X84030834Y-69843451D01*
X84147172Y-69788427D01*
X84268344Y-69745071D01*
X84393182Y-69713801D01*
X84520483Y-69694918D01*
X84649022Y-69688603D01*
X85245112Y-69688603D01*
X111279447Y-69688603D01*
X111875536Y-69688603D01*
X112662375Y-69688603D01*
X111875536Y-72311397D01*
G37*
G36*
X105582737Y-71140200D02*
G01*
X105648546Y-71309013D01*
X105571292Y-71486409D01*
X105411063Y-71543634D01*
X105253696Y-71486409D01*
X105179304Y-71311874D01*
X105246543Y-71144492D01*
X105408202Y-71077253D01*
X105582737Y-71140200D01*
G37*
G36*
X95225083Y-71168813D02*
G01*
X95285169Y-71314735D01*
X95225083Y-71459227D01*
X95082022Y-71520744D01*
X94936099Y-71459227D01*
X94873152Y-71314735D01*
X94933238Y-71168813D01*
X95079161Y-71108727D01*
X95225083Y-71168813D01*
G37*
G36*
X100126371Y-71047210D02*
G01*
X100172151Y-71131617D01*
X100094897Y-71200286D01*
X99774440Y-71200286D01*
X99841679Y-71072961D01*
X100003338Y-71017167D01*
X100126371Y-71047210D01*
G37*
G36*
X93722938Y-71047210D02*
G01*
X93768717Y-71131617D01*
X93691464Y-71200286D01*
X93371006Y-71200286D01*
X93438245Y-71072961D01*
X93599905Y-71017167D01*
X93722938Y-71047210D01*
G37*
%TO.C,kibuzzard-67742CEC*%
G36*
X128353219Y-34523605D02*
G01*
X128473391Y-34624464D01*
X128514163Y-34744635D01*
X128520601Y-34892704D01*
X128520601Y-36098712D01*
X128498605Y-36358369D01*
X128432618Y-36613734D01*
X128325858Y-36856760D01*
X128181545Y-37079399D01*
X127994313Y-37270923D01*
X127758798Y-37420601D01*
X127485730Y-37517167D01*
X127185837Y-37549356D01*
X126886481Y-37516631D01*
X126615021Y-37418455D01*
X126381652Y-37266631D01*
X126196567Y-37072961D01*
X126054399Y-36848712D01*
X125949785Y-36605150D01*
X125885408Y-36349785D01*
X125863948Y-36090129D01*
X125863948Y-34888412D01*
X125870386Y-34740343D01*
X125911159Y-34622318D01*
X126031330Y-34523605D01*
X126258798Y-34493562D01*
X126484120Y-34523605D01*
X126602146Y-34620172D01*
X126645064Y-34740343D01*
X126653648Y-34892704D01*
X126653648Y-36090129D01*
X126696567Y-36392704D01*
X126868240Y-36645923D01*
X127015236Y-36731223D01*
X127198712Y-36759657D01*
X127418670Y-36713519D01*
X127589270Y-36575107D01*
X127698712Y-36360515D01*
X127735193Y-36085837D01*
X127735193Y-34866953D01*
X127743777Y-34727468D01*
X127786695Y-34615880D01*
X127906867Y-34523605D01*
X128130043Y-34493562D01*
X128353219Y-34523605D01*
G37*
G36*
X110168670Y-34523605D02*
G01*
X110288841Y-34624464D01*
X110329614Y-34744635D01*
X110336052Y-34892704D01*
X110336052Y-36098712D01*
X110314056Y-36358369D01*
X110248069Y-36613734D01*
X110141309Y-36856760D01*
X109996996Y-37079399D01*
X109809764Y-37270923D01*
X109574249Y-37420601D01*
X109301180Y-37517167D01*
X109001288Y-37549356D01*
X108701931Y-37516631D01*
X108430472Y-37418455D01*
X108197103Y-37266631D01*
X108012017Y-37072961D01*
X107869850Y-36848712D01*
X107765236Y-36605150D01*
X107700858Y-36349785D01*
X107679399Y-36090129D01*
X107679399Y-34888412D01*
X107685837Y-34740343D01*
X107726609Y-34622318D01*
X107846781Y-34523605D01*
X108074249Y-34493562D01*
X108299571Y-34523605D01*
X108417597Y-34620172D01*
X108460515Y-34740343D01*
X108469099Y-34892704D01*
X108469099Y-36090129D01*
X108512017Y-36392704D01*
X108683691Y-36645923D01*
X108830687Y-36731223D01*
X109014163Y-36759657D01*
X109234120Y-36713519D01*
X109404721Y-36575107D01*
X109514163Y-36360515D01*
X109550644Y-36085837D01*
X109550644Y-34866953D01*
X109559227Y-34727468D01*
X109602146Y-34615880D01*
X109722318Y-34523605D01*
X109945494Y-34493562D01*
X110168670Y-34523605D01*
G37*
G36*
X119029423Y-34494516D02*
G01*
X119292656Y-34574630D01*
X119563519Y-34708155D01*
X119679399Y-34789700D01*
X119758798Y-34879828D01*
X119799571Y-35008584D01*
X119705150Y-35248927D01*
X119544206Y-35422747D01*
X119396137Y-35480687D01*
X119164378Y-35381974D01*
X119136481Y-35362661D01*
X119100000Y-35339056D01*
X119059227Y-35315451D01*
X119001288Y-35293991D01*
X118932618Y-35276824D01*
X118846781Y-35261803D01*
X118743777Y-35257511D01*
X118499142Y-35300429D01*
X118256652Y-35427039D01*
X118065665Y-35660944D01*
X118010944Y-35821888D01*
X117992704Y-36004292D01*
X118025429Y-36238734D01*
X118123605Y-36435622D01*
X118262554Y-36586373D01*
X118417597Y-36682403D01*
X118743777Y-36751073D01*
X118970172Y-36715665D01*
X119185837Y-36609442D01*
X119400429Y-36523605D01*
X119546352Y-36584764D01*
X119700858Y-36768240D01*
X119795279Y-37017167D01*
X119735193Y-37173820D01*
X119559227Y-37304721D01*
X119304578Y-37438245D01*
X119038484Y-37518360D01*
X118760944Y-37545064D01*
X118579077Y-37532189D01*
X118385408Y-37493562D01*
X118182618Y-37424356D01*
X117973391Y-37319742D01*
X117772210Y-37184549D01*
X117593562Y-37023605D01*
X117440665Y-36825644D01*
X117316738Y-36579399D01*
X117234657Y-36295064D01*
X117207296Y-35982833D01*
X117234120Y-35682403D01*
X117314592Y-35407725D01*
X117436910Y-35168991D01*
X117589270Y-34976395D01*
X117767918Y-34819742D01*
X117969099Y-34688841D01*
X118179399Y-34587446D01*
X118385408Y-34519313D01*
X118584442Y-34480687D01*
X118773820Y-34467811D01*
X119029423Y-34494516D01*
G37*
G36*
X114552074Y-34523844D02*
G01*
X114768097Y-34614688D01*
X114958369Y-34766094D01*
X115106199Y-34958989D01*
X115194897Y-35174297D01*
X115224464Y-35412017D01*
X115189056Y-35663090D01*
X115082833Y-35892704D01*
X115253433Y-36194206D01*
X115310300Y-36523605D01*
X115276681Y-36781593D01*
X115181545Y-37011922D01*
X115024893Y-37214592D01*
X114825322Y-37371960D01*
X114601431Y-37466381D01*
X114353219Y-37497854D01*
X113696567Y-37497854D01*
X113078541Y-37467811D01*
X112958369Y-37369099D01*
X112917597Y-37248927D01*
X112911159Y-37098712D01*
X112911159Y-36712446D01*
X113696567Y-36712446D01*
X114310300Y-36712446D01*
X114370386Y-36708155D01*
X114436910Y-36684549D01*
X114501288Y-36611588D01*
X114524893Y-36476395D01*
X114469099Y-36298283D01*
X114288841Y-36257511D01*
X114233047Y-36257511D01*
X113988412Y-36182403D01*
X113915451Y-35927039D01*
X113992704Y-35680258D01*
X114254506Y-35609442D01*
X114306009Y-35609442D01*
X114409013Y-35579399D01*
X114439056Y-35446352D01*
X114393991Y-35313305D01*
X114215880Y-35278970D01*
X113696567Y-35278970D01*
X113696567Y-36712446D01*
X112911159Y-36712446D01*
X112911159Y-34884120D01*
X112917597Y-34740343D01*
X112958369Y-34622318D01*
X113078541Y-34523605D01*
X113306009Y-34493562D01*
X114310300Y-34493562D01*
X114552074Y-34523844D01*
G37*
G36*
X122437983Y-34515021D02*
G01*
X122619313Y-34566524D01*
X122799571Y-34650215D01*
X122971245Y-34763948D01*
X123124142Y-34915773D01*
X123248069Y-35113734D01*
X123330150Y-35346030D01*
X123357511Y-35600858D01*
X123330687Y-35854614D01*
X123250215Y-36083691D01*
X123127361Y-36278433D01*
X122973391Y-36429185D01*
X122799571Y-36542918D01*
X122617167Y-36626609D01*
X122434227Y-36678112D01*
X122258798Y-36695279D01*
X121799571Y-36695279D01*
X121799571Y-37107296D01*
X121793133Y-37255365D01*
X121752361Y-37371245D01*
X121632189Y-37467811D01*
X121404721Y-37497854D01*
X121181545Y-37467811D01*
X121061373Y-37369099D01*
X121020601Y-37251073D01*
X121014163Y-37103004D01*
X121014163Y-35909871D01*
X121799571Y-35909871D01*
X122263090Y-35909871D01*
X122475536Y-35832618D01*
X122576395Y-35596567D01*
X122484120Y-35373391D01*
X122258798Y-35283262D01*
X121799571Y-35283262D01*
X121799571Y-35909871D01*
X121014163Y-35909871D01*
X121014163Y-34888412D01*
X121020601Y-34744635D01*
X121061373Y-34626609D01*
X121181545Y-34527897D01*
X121409013Y-34497854D01*
X122263090Y-34497854D01*
X122437983Y-34515021D01*
G37*
G36*
X111904483Y-34479256D02*
G01*
X112177730Y-34565093D01*
X112400429Y-34708155D01*
X112554936Y-34929185D01*
X112451931Y-35193133D01*
X112198712Y-35401288D01*
X111911159Y-35321888D01*
X111861803Y-35281116D01*
X111801717Y-35231760D01*
X111718026Y-35199571D01*
X111576395Y-35184549D01*
X111417597Y-35238197D01*
X111348927Y-35369099D01*
X111424034Y-35508584D01*
X111593562Y-35583691D01*
X111855365Y-35637339D01*
X112130043Y-35703863D01*
X112373069Y-35815451D01*
X112561373Y-35978541D01*
X112682082Y-36211373D01*
X112722318Y-36532189D01*
X112704077Y-36737124D01*
X112649356Y-36922747D01*
X112462661Y-37212446D01*
X112198712Y-37403433D01*
X111904721Y-37512876D01*
X111619313Y-37545064D01*
X111378970Y-37525751D01*
X111177253Y-37478541D01*
X111012017Y-37407725D01*
X110878970Y-37326180D01*
X110775966Y-37242489D01*
X110700858Y-37167382D01*
X110653648Y-37107296D01*
X110627897Y-37077253D01*
X110520601Y-36798283D01*
X110700858Y-36523605D01*
X110879208Y-36424416D01*
X111065188Y-36453028D01*
X111258798Y-36609442D01*
X111432618Y-36766094D01*
X111602146Y-36806867D01*
X111855365Y-36744635D01*
X111932618Y-36545064D01*
X111821030Y-36412017D01*
X111484120Y-36311159D01*
X111279721Y-36255901D01*
X111117167Y-36197425D01*
X110876824Y-36060086D01*
X110705150Y-35875536D01*
X110602146Y-35643777D01*
X110567811Y-35364807D01*
X110599762Y-35116595D01*
X110695613Y-34898426D01*
X110855365Y-34710300D01*
X111063758Y-34566047D01*
X111305532Y-34479495D01*
X111580687Y-34450644D01*
X111904483Y-34479256D01*
G37*
G36*
X124865856Y-34479256D02*
G01*
X125139103Y-34565093D01*
X125361803Y-34708155D01*
X125516309Y-34929185D01*
X125413305Y-35193133D01*
X125160086Y-35401288D01*
X124872532Y-35321888D01*
X124823176Y-35281116D01*
X124763090Y-35231760D01*
X124679399Y-35199571D01*
X124537768Y-35184549D01*
X124378970Y-35238197D01*
X124310300Y-35369099D01*
X124385408Y-35508584D01*
X124554936Y-35583691D01*
X124816738Y-35637339D01*
X125091416Y-35703863D01*
X125334442Y-35815451D01*
X125522747Y-35978541D01*
X125643455Y-36211373D01*
X125683691Y-36532189D01*
X125665451Y-36737124D01*
X125610730Y-36922747D01*
X125424034Y-37212446D01*
X125160086Y-37403433D01*
X124866094Y-37512876D01*
X124580687Y-37545064D01*
X124340343Y-37525751D01*
X124138627Y-37478541D01*
X123973391Y-37407725D01*
X123840343Y-37326180D01*
X123737339Y-37242489D01*
X123662232Y-37167382D01*
X123615021Y-37107296D01*
X123589270Y-37077253D01*
X123481974Y-36798283D01*
X123662232Y-36523605D01*
X123840582Y-36424416D01*
X124026562Y-36453028D01*
X124220172Y-36609442D01*
X124393991Y-36766094D01*
X124563519Y-36806867D01*
X124816738Y-36744635D01*
X124893991Y-36545064D01*
X124782403Y-36412017D01*
X124445494Y-36311159D01*
X124241094Y-36255901D01*
X124078541Y-36197425D01*
X123838197Y-36060086D01*
X123666524Y-35875536D01*
X123563519Y-35643777D01*
X123529185Y-35364807D01*
X123561135Y-35116595D01*
X123656986Y-34898426D01*
X123816738Y-34710300D01*
X124025131Y-34566047D01*
X124266905Y-34479495D01*
X124542060Y-34450644D01*
X124865856Y-34479256D01*
G37*
G36*
X116977682Y-35451717D02*
G01*
X117069957Y-35557940D01*
X117095708Y-35755365D01*
X117072103Y-35950644D01*
X116996996Y-36055794D01*
X116782403Y-36094421D01*
X115760944Y-36094421D01*
X115568884Y-36057940D01*
X115473391Y-35948498D01*
X115451931Y-35751073D01*
X115477682Y-35557940D01*
X115559227Y-35454936D01*
X115765236Y-35416309D01*
X116786695Y-35416309D01*
X116977682Y-35451717D01*
G37*
%TO.C,kibuzzard-67742BF7*%
G36*
X129807010Y-53720064D02*
G01*
X129767954Y-53849499D01*
X129702861Y-53968419D01*
X129611731Y-54076824D01*
X129502200Y-54167078D01*
X129381903Y-54231545D01*
X129250840Y-54270225D01*
X129109013Y-54283119D01*
X128962554Y-54270601D01*
X128827611Y-54233047D01*
X128704185Y-54170458D01*
X128592275Y-54082833D01*
X128499392Y-53977307D01*
X128433047Y-53861016D01*
X128393240Y-53733959D01*
X128379971Y-53596137D01*
X128380716Y-53588126D01*
X128746495Y-53588126D01*
X128772282Y-53714306D01*
X128849642Y-53820458D01*
X128964056Y-53892561D01*
X129101001Y-53916595D01*
X129235193Y-53892310D01*
X129349356Y-53819456D01*
X129427468Y-53713555D01*
X129453505Y-53590129D01*
X129428219Y-53462697D01*
X129352361Y-53356795D01*
X129238948Y-53285443D01*
X129101001Y-53261660D01*
X128964056Y-53285694D01*
X128849642Y-53357797D01*
X128772282Y-53463448D01*
X128746495Y-53588126D01*
X128380716Y-53588126D01*
X128393053Y-53455436D01*
X128432296Y-53325751D01*
X128497702Y-53207082D01*
X128589270Y-53099428D01*
X128699741Y-53010050D01*
X128821853Y-52946209D01*
X128955606Y-52907904D01*
X129101001Y-52895136D01*
X129243893Y-52907716D01*
X129376144Y-52945458D01*
X129497756Y-53008360D01*
X129608727Y-53096423D01*
X129701171Y-53202137D01*
X129767203Y-53317990D01*
X129806822Y-53443982D01*
X129820029Y-53580114D01*
X129819097Y-53590129D01*
X129807010Y-53720064D01*
G37*
G36*
X129065951Y-50905293D02*
G01*
X129121030Y-50949356D01*
X129142060Y-51004435D01*
X129147067Y-51072532D01*
X129145064Y-51176681D01*
X129377396Y-51176681D01*
X129437482Y-51165665D01*
X129453505Y-51122604D01*
X129457511Y-51048498D01*
X129476538Y-50994421D01*
X129525608Y-50954363D01*
X129617740Y-50942346D01*
X129720887Y-50957368D01*
X129775966Y-51004435D01*
X129794993Y-51059514D01*
X129797997Y-51124607D01*
X129787093Y-51253791D01*
X129754379Y-51358274D01*
X129699857Y-51438054D01*
X129622413Y-51494246D01*
X129520935Y-51527961D01*
X129395422Y-51539199D01*
X129141059Y-51539199D01*
X129141059Y-51589270D01*
X129096996Y-51682403D01*
X128964807Y-51709442D01*
X128835622Y-51677396D01*
X128792561Y-51581259D01*
X128792561Y-51539199D01*
X128618312Y-51539199D01*
X128551216Y-51536195D01*
X128499142Y-51517167D01*
X128457082Y-51462089D01*
X128444063Y-51356938D01*
X128458083Y-51255794D01*
X128503147Y-51200715D01*
X128559227Y-51180687D01*
X128626323Y-51176681D01*
X128786552Y-51176681D01*
X128782546Y-51070529D01*
X128783548Y-51017454D01*
X128794564Y-50970386D01*
X128822604Y-50927325D01*
X128877682Y-50901288D01*
X128966810Y-50890272D01*
X129065951Y-50905293D01*
G37*
G36*
X129672818Y-51790558D02*
G01*
X129718884Y-51801574D01*
X129759943Y-51829614D01*
X129784979Y-51883691D01*
X129795994Y-51971817D01*
X129772461Y-52091488D01*
X129701860Y-52146066D01*
X129770959Y-52243705D01*
X129793991Y-52352361D01*
X129777746Y-52474758D01*
X129729010Y-52582912D01*
X129647783Y-52676824D01*
X129542744Y-52749150D01*
X129422572Y-52792545D01*
X129287268Y-52807010D01*
X128960801Y-52807010D01*
X128891702Y-52804006D01*
X128837625Y-52784979D01*
X128792561Y-52728898D01*
X128778541Y-52624750D01*
X128792561Y-52520601D01*
X128838627Y-52464521D01*
X128893705Y-52445494D01*
X128962804Y-52442489D01*
X129287268Y-52442489D01*
X129393419Y-52404435D01*
X129431474Y-52298283D01*
X129392418Y-52193133D01*
X129287268Y-52154077D01*
X128958798Y-52154077D01*
X128891702Y-52151073D01*
X128837625Y-52132046D01*
X128792561Y-52076967D01*
X128778541Y-51971817D01*
X128792561Y-51867668D01*
X128838627Y-51811588D01*
X128893705Y-51792561D01*
X128960801Y-51789557D01*
X129619742Y-51789557D01*
X129672818Y-51790558D01*
G37*
G36*
X129365379Y-49928898D02*
G01*
X129415451Y-49967954D01*
X129432475Y-50014020D01*
X129435479Y-50071102D01*
X129435479Y-50213305D01*
X129567668Y-50213305D01*
X129628755Y-50216309D01*
X129677825Y-50233333D01*
X129718884Y-50283405D01*
X129731903Y-50379542D01*
X129718884Y-50473677D01*
X129676824Y-50523748D01*
X129626753Y-50540773D01*
X129565665Y-50543777D01*
X129435479Y-50543777D01*
X129435479Y-50687983D01*
X129432475Y-50745064D01*
X129415451Y-50791130D01*
X129365379Y-50830186D01*
X129269242Y-50842203D01*
X129173104Y-50829185D01*
X129123033Y-50787124D01*
X129106009Y-50736052D01*
X129103004Y-50673963D01*
X129103004Y-50543777D01*
X128970815Y-50543777D01*
X128909728Y-50540773D01*
X128860658Y-50523748D01*
X128820601Y-50473677D01*
X128808584Y-50377539D01*
X128821602Y-50283405D01*
X128862661Y-50233333D01*
X128911731Y-50216309D01*
X128972818Y-50213305D01*
X129103004Y-50213305D01*
X129103004Y-50081116D01*
X129106009Y-50020029D01*
X129123033Y-49970959D01*
X129174106Y-49929900D01*
X129271245Y-49916881D01*
X129365379Y-49928898D01*
G37*
%TO.C,kibuzzard-67742BE6*%
G36*
X129907010Y-59039950D02*
G01*
X129867954Y-59169385D01*
X129802861Y-59288305D01*
X129711731Y-59396710D01*
X129602200Y-59486964D01*
X129481903Y-59551431D01*
X129350840Y-59590111D01*
X129209013Y-59603004D01*
X129062554Y-59590486D01*
X128927611Y-59552933D01*
X128804185Y-59490343D01*
X128692275Y-59402718D01*
X128599392Y-59297192D01*
X128533047Y-59180901D01*
X128493240Y-59053845D01*
X128479971Y-58916023D01*
X128480716Y-58908011D01*
X128846495Y-58908011D01*
X128872282Y-59034192D01*
X128949642Y-59140343D01*
X129064056Y-59212446D01*
X129201001Y-59236481D01*
X129335193Y-59212196D01*
X129449356Y-59139342D01*
X129527468Y-59033441D01*
X129553505Y-58910014D01*
X129528219Y-58782582D01*
X129452361Y-58676681D01*
X129338948Y-58605329D01*
X129201001Y-58581545D01*
X129064056Y-58605579D01*
X128949642Y-58677682D01*
X128872282Y-58783333D01*
X128846495Y-58908011D01*
X128480716Y-58908011D01*
X128493053Y-58775322D01*
X128532296Y-58645637D01*
X128597702Y-58526967D01*
X128689270Y-58419313D01*
X128799741Y-58329936D01*
X128921853Y-58266094D01*
X129055606Y-58227790D01*
X129201001Y-58215021D01*
X129343893Y-58227602D01*
X129476144Y-58265343D01*
X129597756Y-58328246D01*
X129708727Y-58416309D01*
X129801171Y-58522023D01*
X129867203Y-58637876D01*
X129906822Y-58763868D01*
X129920029Y-58900000D01*
X129919097Y-58910014D01*
X129907010Y-59039950D01*
G37*
G36*
X129165951Y-56225179D02*
G01*
X129221030Y-56269242D01*
X129242060Y-56324320D01*
X129247067Y-56392418D01*
X129245064Y-56496567D01*
X129477396Y-56496567D01*
X129537482Y-56485551D01*
X129553505Y-56442489D01*
X129557511Y-56368383D01*
X129576538Y-56314306D01*
X129625608Y-56274249D01*
X129717740Y-56262232D01*
X129820887Y-56277253D01*
X129875966Y-56324320D01*
X129894993Y-56379399D01*
X129897997Y-56444492D01*
X129887093Y-56573677D01*
X129854379Y-56678159D01*
X129799857Y-56757940D01*
X129722413Y-56814131D01*
X129620935Y-56847846D01*
X129495422Y-56859084D01*
X129241059Y-56859084D01*
X129241059Y-56909156D01*
X129196996Y-57002289D01*
X129064807Y-57029328D01*
X128935622Y-56997282D01*
X128892561Y-56901144D01*
X128892561Y-56859084D01*
X128718312Y-56859084D01*
X128651216Y-56856080D01*
X128599142Y-56837053D01*
X128557082Y-56781974D01*
X128544063Y-56676824D01*
X128558083Y-56575680D01*
X128603147Y-56520601D01*
X128659227Y-56500572D01*
X128726323Y-56496567D01*
X128886552Y-56496567D01*
X128882546Y-56390415D01*
X128883548Y-56337339D01*
X128894564Y-56290272D01*
X128922604Y-56247210D01*
X128977682Y-56221173D01*
X129066810Y-56210157D01*
X129165951Y-56225179D01*
G37*
G36*
X129772818Y-57110443D02*
G01*
X129818884Y-57121459D01*
X129859943Y-57149499D01*
X129884979Y-57203577D01*
X129895994Y-57291702D01*
X129872461Y-57411373D01*
X129801860Y-57465951D01*
X129870959Y-57563591D01*
X129893991Y-57672246D01*
X129877746Y-57794643D01*
X129829010Y-57902798D01*
X129747783Y-57996710D01*
X129642744Y-58069035D01*
X129522572Y-58112430D01*
X129387268Y-58126896D01*
X129060801Y-58126896D01*
X128991702Y-58123891D01*
X128937625Y-58104864D01*
X128892561Y-58048784D01*
X128878541Y-57944635D01*
X128892561Y-57840486D01*
X128938627Y-57784406D01*
X128993705Y-57765379D01*
X129062804Y-57762375D01*
X129387268Y-57762375D01*
X129493419Y-57724320D01*
X129531474Y-57618169D01*
X129492418Y-57513019D01*
X129387268Y-57473963D01*
X129058798Y-57473963D01*
X128991702Y-57470959D01*
X128937625Y-57451931D01*
X128892561Y-57396853D01*
X128878541Y-57291702D01*
X128892561Y-57187554D01*
X128938627Y-57131474D01*
X128993705Y-57112446D01*
X129060801Y-57109442D01*
X129719742Y-57109442D01*
X129772818Y-57110443D01*
G37*
G36*
X129173963Y-55408011D02*
G01*
X129223033Y-55443062D01*
X129241059Y-55543205D01*
X129241059Y-56019886D01*
X129224034Y-56109514D01*
X129172961Y-56154077D01*
X129080830Y-56164092D01*
X128990701Y-56152074D01*
X128942632Y-56114020D01*
X128924607Y-56017883D01*
X128924607Y-55541202D01*
X128941130Y-55452074D01*
X128990701Y-55409013D01*
X129082833Y-55396996D01*
X129173963Y-55408011D01*
G37*
%TO.C,kibuzzard-67742BCF*%
G36*
X128758369Y-48282690D02*
G01*
X129801860Y-48757368D01*
X129874964Y-48826466D01*
X129902003Y-48929614D01*
X129876967Y-49041774D01*
X129801860Y-49109871D01*
X128758369Y-49584549D01*
X128619170Y-49604578D01*
X128524034Y-49492418D01*
X128493991Y-49342203D01*
X128608155Y-49250072D01*
X129387268Y-48933619D01*
X128608155Y-48617167D01*
X128494993Y-48523033D01*
X128524034Y-48374821D01*
X128620172Y-48259657D01*
X128758369Y-48282690D01*
G37*
G36*
X129370243Y-45699249D02*
G01*
X129489413Y-45730043D01*
X129602825Y-45779864D01*
X129706724Y-45847210D01*
X129796102Y-45934585D01*
X129865951Y-46044492D01*
X129911016Y-46171924D01*
X129926037Y-46311874D01*
X129910765Y-46451574D01*
X129864950Y-46578255D01*
X129794099Y-46687160D01*
X129703720Y-46773534D01*
X129599070Y-46839878D01*
X129485408Y-46888698D01*
X129366237Y-46918741D01*
X129245064Y-46928755D01*
X128684263Y-46928755D01*
X128615165Y-46925751D01*
X128560086Y-46906724D01*
X128514020Y-46850644D01*
X128500000Y-46744492D01*
X128514020Y-46639342D01*
X128559084Y-46584263D01*
X128615165Y-46564235D01*
X128686266Y-46560229D01*
X129245064Y-46560229D01*
X129386266Y-46540200D01*
X129504435Y-46460086D01*
X129544242Y-46391488D01*
X129557511Y-46305866D01*
X129535980Y-46203219D01*
X129471388Y-46123605D01*
X129371245Y-46072532D01*
X129243062Y-46055508D01*
X128674249Y-46055508D01*
X128609156Y-46051502D01*
X128557082Y-46031474D01*
X128514020Y-45975393D01*
X128500000Y-45871245D01*
X128514020Y-45767096D01*
X128561087Y-45711016D01*
X128617167Y-45691989D01*
X128686266Y-45688984D01*
X129249070Y-45688984D01*
X129370243Y-45699249D01*
G37*
G36*
X129567748Y-47040582D02*
G01*
X129675234Y-47084979D01*
X129769814Y-47158083D01*
X129843252Y-47251216D01*
X129887315Y-47355699D01*
X129902003Y-47471531D01*
X129902003Y-47777969D01*
X129887983Y-48066381D01*
X129841917Y-48122461D01*
X129785837Y-48141488D01*
X129715737Y-48144492D01*
X128682260Y-48144492D01*
X128615165Y-48141488D01*
X128560086Y-48122461D01*
X128514020Y-48066381D01*
X128500000Y-47960229D01*
X128500000Y-47535622D01*
X128866524Y-47535622D01*
X128866524Y-47777969D01*
X129535479Y-47777969D01*
X129535479Y-47491559D01*
X129533476Y-47463519D01*
X129522461Y-47432475D01*
X129488412Y-47402432D01*
X129425322Y-47391416D01*
X129342203Y-47417454D01*
X129323176Y-47501574D01*
X129323176Y-47527611D01*
X129288126Y-47641774D01*
X129168956Y-47675823D01*
X129053791Y-47639771D01*
X129020744Y-47517597D01*
X129020744Y-47493562D01*
X129006724Y-47445494D01*
X128944635Y-47431474D01*
X128882546Y-47452504D01*
X128866524Y-47535622D01*
X128500000Y-47535622D01*
X128500000Y-47491559D01*
X128514131Y-47378732D01*
X128556525Y-47277921D01*
X128627182Y-47189127D01*
X128717199Y-47120140D01*
X128817676Y-47078747D01*
X128928612Y-47064950D01*
X129045780Y-47081474D01*
X129152933Y-47131044D01*
X129293634Y-47051431D01*
X129447353Y-47024893D01*
X129567748Y-47040582D01*
G37*
G36*
X129546996Y-44583906D02*
G01*
X129633619Y-44609442D01*
X129768813Y-44696567D01*
X129857940Y-44819742D01*
X129909013Y-44956938D01*
X129924034Y-45090129D01*
X129915021Y-45202289D01*
X129892990Y-45296423D01*
X129859943Y-45373534D01*
X129821888Y-45435622D01*
X129782833Y-45483691D01*
X129747783Y-45518741D01*
X129719742Y-45540773D01*
X129705722Y-45552790D01*
X129575536Y-45602861D01*
X129447353Y-45518741D01*
X129401065Y-45435511D01*
X129414417Y-45348720D01*
X129487411Y-45258369D01*
X129560515Y-45177253D01*
X129579542Y-45098140D01*
X129550501Y-44979971D01*
X129457368Y-44943920D01*
X129395279Y-44995994D01*
X129348212Y-45153219D01*
X129322425Y-45248605D01*
X129295136Y-45324464D01*
X129231044Y-45436624D01*
X129144921Y-45516738D01*
X129036767Y-45564807D01*
X128906581Y-45580830D01*
X128790749Y-45565920D01*
X128688937Y-45521189D01*
X128601144Y-45446638D01*
X128533826Y-45349388D01*
X128493435Y-45236560D01*
X128479971Y-45108155D01*
X128493324Y-44957050D01*
X128533381Y-44829534D01*
X128600143Y-44725608D01*
X128703290Y-44653505D01*
X128826466Y-44701574D01*
X128923605Y-44819742D01*
X128886552Y-44953934D01*
X128867525Y-44976967D01*
X128844492Y-45005007D01*
X128829471Y-45044063D01*
X128822461Y-45110157D01*
X128847496Y-45184263D01*
X128908584Y-45216309D01*
X128973677Y-45181259D01*
X129008727Y-45102146D01*
X129033763Y-44979971D01*
X129064807Y-44851788D01*
X129116881Y-44738376D01*
X129192990Y-44650501D01*
X129301645Y-44594170D01*
X129451359Y-44575393D01*
X129546996Y-44583906D01*
G37*
%TO.C,kibuzzard-67742BC8*%
G36*
X128759371Y-42539628D02*
G01*
X129802861Y-43014306D01*
X129875966Y-43083405D01*
X129903004Y-43186552D01*
X129877969Y-43298712D01*
X129802861Y-43366810D01*
X128759371Y-43841488D01*
X128620172Y-43861516D01*
X128525036Y-43749356D01*
X128494993Y-43599142D01*
X128609156Y-43507010D01*
X129388269Y-43190558D01*
X128609156Y-42874106D01*
X128495994Y-42779971D01*
X128525036Y-42631760D01*
X128621173Y-42516595D01*
X128759371Y-42539628D01*
G37*
G36*
X129547997Y-41412518D02*
G01*
X129634621Y-41438054D01*
X129769814Y-41525179D01*
X129858941Y-41648355D01*
X129910014Y-41785551D01*
X129925036Y-41918741D01*
X129916023Y-42030901D01*
X129893991Y-42125036D01*
X129860944Y-42202146D01*
X129822890Y-42264235D01*
X129783834Y-42312303D01*
X129748784Y-42347353D01*
X129720744Y-42369385D01*
X129706724Y-42381402D01*
X129576538Y-42431474D01*
X129448355Y-42347353D01*
X129402066Y-42264123D01*
X129415419Y-42177333D01*
X129488412Y-42086981D01*
X129561516Y-42005866D01*
X129580544Y-41926753D01*
X129551502Y-41808584D01*
X129458369Y-41772532D01*
X129396280Y-41824607D01*
X129349213Y-41981831D01*
X129323426Y-42077217D01*
X129296137Y-42153076D01*
X129232046Y-42265236D01*
X129145923Y-42345351D01*
X129037768Y-42393419D01*
X128907582Y-42409442D01*
X128791750Y-42394532D01*
X128689938Y-42349801D01*
X128602146Y-42275250D01*
X128534828Y-42178000D01*
X128494436Y-42065172D01*
X128480973Y-41936767D01*
X128494325Y-41785662D01*
X128534382Y-41658147D01*
X128601144Y-41554220D01*
X128704292Y-41482117D01*
X128827468Y-41530186D01*
X128924607Y-41648355D01*
X128887554Y-41782546D01*
X128868526Y-41805579D01*
X128845494Y-41833619D01*
X128830472Y-41872675D01*
X128823462Y-41938770D01*
X128848498Y-42012876D01*
X128909585Y-42044921D01*
X128974678Y-42009871D01*
X129009728Y-41930758D01*
X129034764Y-41808584D01*
X129065808Y-41680401D01*
X129117883Y-41566989D01*
X129193991Y-41479113D01*
X129302647Y-41422783D01*
X129452361Y-41404006D01*
X129547997Y-41412518D01*
G37*
G36*
X129547997Y-40326967D02*
G01*
X129634621Y-40352504D01*
X129769814Y-40439628D01*
X129858941Y-40562804D01*
X129910014Y-40700000D01*
X129925036Y-40833190D01*
X129916023Y-40945351D01*
X129893991Y-41039485D01*
X129860944Y-41116595D01*
X129822890Y-41178684D01*
X129783834Y-41226753D01*
X129748784Y-41261803D01*
X129720744Y-41283834D01*
X129706724Y-41295851D01*
X129576538Y-41345923D01*
X129448355Y-41261803D01*
X129402066Y-41178573D01*
X129415419Y-41091782D01*
X129488412Y-41001431D01*
X129561516Y-40920315D01*
X129580544Y-40841202D01*
X129551502Y-40723033D01*
X129458369Y-40686981D01*
X129396280Y-40739056D01*
X129349213Y-40896280D01*
X129323426Y-40991667D01*
X129296137Y-41067525D01*
X129232046Y-41179685D01*
X129145923Y-41259800D01*
X129037768Y-41307868D01*
X128907582Y-41323891D01*
X128791750Y-41308981D01*
X128689938Y-41264251D01*
X128602146Y-41189700D01*
X128534828Y-41092450D01*
X128494436Y-40979622D01*
X128480973Y-40851216D01*
X128494325Y-40700111D01*
X128534382Y-40572596D01*
X128601144Y-40468670D01*
X128704292Y-40396567D01*
X128827468Y-40444635D01*
X128924607Y-40562804D01*
X128887554Y-40696996D01*
X128868526Y-40720029D01*
X128845494Y-40748069D01*
X128830472Y-40787124D01*
X128823462Y-40853219D01*
X128848498Y-40927325D01*
X128909585Y-40959371D01*
X128974678Y-40924320D01*
X129009728Y-40845207D01*
X129034764Y-40723033D01*
X129065808Y-40594850D01*
X129117883Y-40481438D01*
X129193991Y-40393562D01*
X129302647Y-40337232D01*
X129452361Y-40318455D01*
X129547997Y-40326967D01*
G37*
%TO.C,kibuzzard-67742ABC*%
G36*
X119571270Y-44244821D02*
G01*
X119708041Y-44294441D01*
X119821274Y-44368551D01*
X119906517Y-44458566D01*
X119971086Y-44564801D01*
X120022295Y-44687577D01*
X120059192Y-44813215D01*
X120080820Y-44928039D01*
X120091317Y-45038092D01*
X120094816Y-45149417D01*
X120090999Y-45263605D01*
X120079548Y-45377156D01*
X120056965Y-45494207D01*
X120019751Y-45618891D01*
X119968541Y-45739440D01*
X119903973Y-45844085D01*
X119819366Y-45932509D01*
X119708041Y-46004393D01*
X119573814Y-46052104D01*
X119420504Y-46068008D01*
X119410326Y-46067195D01*
X119285005Y-46057193D01*
X119163502Y-46024750D01*
X119059493Y-45972904D01*
X118976476Y-45903883D01*
X118851792Y-45735941D01*
X118806308Y-45640519D01*
X118774183Y-45534920D01*
X118738559Y-45332626D01*
X118728519Y-45149417D01*
X119194037Y-45149417D01*
X119207555Y-45346462D01*
X119248109Y-45487209D01*
X119315699Y-45571657D01*
X119410326Y-45599806D01*
X119515925Y-45565455D01*
X119580812Y-45487845D01*
X119613891Y-45373339D01*
X119627887Y-45261378D01*
X119629159Y-45159595D01*
X119629159Y-45146872D01*
X119615641Y-44948714D01*
X119575087Y-44807172D01*
X119507497Y-44722247D01*
X119412870Y-44693938D01*
X119317131Y-44722406D01*
X119248745Y-44807808D01*
X119207714Y-44950145D01*
X119194037Y-45149417D01*
X118728519Y-45149417D01*
X118728380Y-45146872D01*
X118741103Y-44933128D01*
X118761778Y-44819895D01*
X118798356Y-44693938D01*
X118849566Y-44569891D01*
X118914134Y-44462382D01*
X119000013Y-44371096D01*
X119115155Y-44295713D01*
X119255107Y-44245140D01*
X119415415Y-44228282D01*
X119571270Y-44244821D01*
G37*
G36*
X119541092Y-52030849D02*
G01*
X119673164Y-52078764D01*
X119782508Y-52150328D01*
X119864823Y-52237251D01*
X119927174Y-52339837D01*
X119976624Y-52458395D01*
X120012253Y-52579718D01*
X120033139Y-52690597D01*
X120043275Y-52796870D01*
X120046653Y-52904370D01*
X120042968Y-53014636D01*
X120031910Y-53124287D01*
X120010103Y-53237316D01*
X119974167Y-53357717D01*
X119924717Y-53474125D01*
X119862366Y-53575176D01*
X119780665Y-53660563D01*
X119673164Y-53729977D01*
X119543549Y-53776049D01*
X119395505Y-53791406D01*
X119385676Y-53790622D01*
X119264661Y-53780964D01*
X119147331Y-53749635D01*
X119046895Y-53699570D01*
X118966730Y-53632919D01*
X118846329Y-53470747D01*
X118771385Y-53276631D01*
X118736985Y-53081286D01*
X118727292Y-52904370D01*
X119176817Y-52904370D01*
X119200024Y-53145992D01*
X119269644Y-53290964D01*
X119385676Y-53339288D01*
X119487649Y-53306117D01*
X119550306Y-53231173D01*
X119582249Y-53120601D01*
X119595764Y-53012486D01*
X119596992Y-52914199D01*
X119596992Y-52901913D01*
X119583939Y-52710562D01*
X119544778Y-52573882D01*
X119479509Y-52491874D01*
X119388133Y-52464538D01*
X119295683Y-52492028D01*
X119229646Y-52574496D01*
X119190025Y-52711944D01*
X119176817Y-52904370D01*
X118727292Y-52904370D01*
X118727157Y-52901913D01*
X118739442Y-52695512D01*
X118759407Y-52586168D01*
X118794729Y-52464538D01*
X118844179Y-52344751D01*
X118906529Y-52240936D01*
X118989459Y-52152786D01*
X119100645Y-52079992D01*
X119235789Y-52031156D01*
X119390591Y-52014877D01*
X119541092Y-52030849D01*
G37*
G36*
X119522625Y-46900992D02*
G01*
X119572920Y-47080797D01*
X119572920Y-48388469D01*
X119522625Y-48564502D01*
X119344077Y-48614797D01*
X119168045Y-48564502D01*
X119117750Y-48385954D01*
X119117750Y-47535967D01*
X119092602Y-47558600D01*
X118937945Y-47631528D01*
X118788317Y-47543512D01*
X118710360Y-47377538D01*
X118815979Y-47211564D01*
X119135353Y-46924882D01*
X119175589Y-46892191D01*
X119346592Y-46849440D01*
X119522625Y-46900992D01*
G37*
G36*
X119513012Y-49495630D02*
G01*
X119562725Y-49673352D01*
X119562725Y-50965877D01*
X119513012Y-51139871D01*
X119336533Y-51189583D01*
X119162539Y-51139871D01*
X119112827Y-50963392D01*
X119112827Y-50123250D01*
X119087971Y-50145621D01*
X118935105Y-50217704D01*
X118787210Y-50130707D01*
X118710156Y-49966656D01*
X118814552Y-49802605D01*
X119130226Y-49519244D01*
X119169996Y-49486930D01*
X119339019Y-49444675D01*
X119513012Y-49495630D01*
G37*
G36*
X119641683Y-42229838D02*
G01*
X119697048Y-42293572D01*
X119712499Y-42412027D01*
X119698336Y-42529194D01*
X119653271Y-42592285D01*
X119524516Y-42615460D01*
X118911640Y-42615460D01*
X118796404Y-42593572D01*
X118739108Y-42527907D01*
X118726233Y-42409452D01*
X118741683Y-42293572D01*
X118790610Y-42231769D01*
X118914215Y-42208594D01*
X119527091Y-42208594D01*
X119641683Y-42229838D01*
G37*
%TO.C,kibuzzard-67742AAA*%
G36*
X117421257Y-44258336D02*
G01*
X117558028Y-44307955D01*
X117671261Y-44382066D01*
X117756504Y-44472080D01*
X117821073Y-44578316D01*
X117872282Y-44701091D01*
X117909179Y-44826730D01*
X117930808Y-44941554D01*
X117941304Y-45051606D01*
X117944803Y-45162931D01*
X117940986Y-45277119D01*
X117929535Y-45390671D01*
X117906952Y-45507721D01*
X117869738Y-45632405D01*
X117818528Y-45752954D01*
X117753960Y-45857600D01*
X117669353Y-45946024D01*
X117558028Y-46017908D01*
X117423802Y-46065618D01*
X117270491Y-46081522D01*
X117260313Y-46080710D01*
X117134993Y-46070708D01*
X117013489Y-46038264D01*
X116909480Y-45986419D01*
X116826463Y-45917397D01*
X116701779Y-45749455D01*
X116656295Y-45654034D01*
X116624170Y-45548434D01*
X116588546Y-45346141D01*
X116578506Y-45162931D01*
X117044024Y-45162931D01*
X117057542Y-45359977D01*
X117098096Y-45500723D01*
X117165687Y-45585171D01*
X117260313Y-45613321D01*
X117365913Y-45578969D01*
X117430799Y-45501359D01*
X117463879Y-45386854D01*
X117477874Y-45274893D01*
X117479146Y-45173110D01*
X117479146Y-45160387D01*
X117465628Y-44962228D01*
X117425074Y-44820686D01*
X117357484Y-44735761D01*
X117262857Y-44707453D01*
X117167118Y-44735920D01*
X117098732Y-44821322D01*
X117057701Y-44963660D01*
X117044024Y-45162931D01*
X116578506Y-45162931D01*
X116578367Y-45160387D01*
X116591090Y-44946643D01*
X116611765Y-44833409D01*
X116648343Y-44707453D01*
X116699553Y-44583405D01*
X116764121Y-44475897D01*
X116850001Y-44384610D01*
X116965142Y-44309227D01*
X117105094Y-44258654D01*
X117265402Y-44241796D01*
X117421257Y-44258336D01*
G37*
G36*
X117410962Y-46854153D02*
G01*
X117546130Y-46903190D01*
X117658036Y-46976432D01*
X117742281Y-47065392D01*
X117806093Y-47170383D01*
X117856702Y-47291720D01*
X117893166Y-47415886D01*
X117914541Y-47529364D01*
X117924915Y-47638127D01*
X117928372Y-47748147D01*
X117924600Y-47860997D01*
X117913284Y-47973218D01*
X117890965Y-48088896D01*
X117854187Y-48212119D01*
X117803578Y-48331256D01*
X117739766Y-48434675D01*
X117656150Y-48522063D01*
X117546130Y-48593104D01*
X117413477Y-48640256D01*
X117261963Y-48655973D01*
X117251904Y-48655170D01*
X117128052Y-48645286D01*
X117007973Y-48613222D01*
X116905182Y-48561984D01*
X116823138Y-48493772D01*
X116699915Y-48327798D01*
X116654964Y-48233495D01*
X116623215Y-48129132D01*
X116588009Y-47929210D01*
X116578088Y-47748147D01*
X117038150Y-47748147D01*
X117051509Y-47942884D01*
X117091588Y-48081981D01*
X117158386Y-48165439D01*
X117251904Y-48193259D01*
X117356266Y-48159310D01*
X117420392Y-48082610D01*
X117453084Y-47969446D01*
X117466915Y-47858796D01*
X117468173Y-47758206D01*
X117468173Y-47745633D01*
X117454813Y-47549796D01*
X117414734Y-47409913D01*
X117347936Y-47325983D01*
X117254419Y-47298007D01*
X117159801Y-47326140D01*
X117092217Y-47410542D01*
X117051667Y-47551211D01*
X117038150Y-47748147D01*
X116578088Y-47748147D01*
X116577950Y-47745633D01*
X116590524Y-47534393D01*
X116610956Y-47422487D01*
X116647106Y-47298007D01*
X116697715Y-47175412D01*
X116761527Y-47069164D01*
X116846400Y-46978947D01*
X116960192Y-46904448D01*
X117098504Y-46854467D01*
X117256933Y-46837807D01*
X117410962Y-46854153D01*
G37*
G36*
X117363000Y-49509145D02*
G01*
X117412712Y-49686867D01*
X117412712Y-50979392D01*
X117363000Y-51153385D01*
X117186520Y-51203098D01*
X117012526Y-51153385D01*
X116962814Y-50976906D01*
X116962814Y-50136765D01*
X116937958Y-50159135D01*
X116785092Y-50231219D01*
X116637197Y-50144222D01*
X116560143Y-49980170D01*
X116664539Y-49816119D01*
X116980213Y-49532758D01*
X117019983Y-49500445D01*
X117189006Y-49458189D01*
X117363000Y-49509145D01*
G37*
G36*
X117353607Y-52103335D02*
G01*
X117402751Y-52279022D01*
X117402751Y-53556747D01*
X117353607Y-53728749D01*
X117179149Y-53777892D01*
X117007147Y-53728749D01*
X116958004Y-53554290D01*
X116958004Y-52723769D01*
X116933432Y-52745883D01*
X116782317Y-52817141D01*
X116636116Y-52731140D01*
X116559944Y-52568968D01*
X116663144Y-52406795D01*
X116975204Y-52126678D01*
X117014519Y-52094735D01*
X117181606Y-52052963D01*
X117353607Y-52103335D01*
G37*
G36*
X117491670Y-42243353D02*
G01*
X117547035Y-42307086D01*
X117562486Y-42425541D01*
X117548323Y-42542709D01*
X117503258Y-42605799D01*
X117374503Y-42628975D01*
X116761628Y-42628975D01*
X116646391Y-42607086D01*
X116589095Y-42541421D01*
X116576220Y-42422966D01*
X116591670Y-42307086D01*
X116640597Y-42245284D01*
X116764203Y-42222108D01*
X117377078Y-42222108D01*
X117491670Y-42243353D01*
G37*
%TO.C,kibuzzard-67742A98*%
G36*
X115271046Y-44220358D02*
G01*
X115407817Y-44269977D01*
X115521050Y-44344088D01*
X115606294Y-44434102D01*
X115670862Y-44540338D01*
X115722072Y-44663114D01*
X115758968Y-44788752D01*
X115780597Y-44903576D01*
X115791093Y-45013628D01*
X115794592Y-45124953D01*
X115790775Y-45239141D01*
X115779325Y-45352693D01*
X115756741Y-45469743D01*
X115719527Y-45594427D01*
X115668318Y-45714976D01*
X115603749Y-45819622D01*
X115519142Y-45908046D01*
X115407817Y-45979930D01*
X115273591Y-46027640D01*
X115120280Y-46043544D01*
X115110102Y-46042732D01*
X114984782Y-46032730D01*
X114863278Y-46000286D01*
X114759269Y-45948441D01*
X114676252Y-45879419D01*
X114551568Y-45711477D01*
X114506084Y-45616056D01*
X114473959Y-45510456D01*
X114438335Y-45308163D01*
X114428296Y-45124953D01*
X114893813Y-45124953D01*
X114907331Y-45321999D01*
X114947885Y-45462745D01*
X115015476Y-45547193D01*
X115110102Y-45575343D01*
X115215702Y-45540991D01*
X115280588Y-45463382D01*
X115313668Y-45348876D01*
X115327663Y-45236915D01*
X115328935Y-45135132D01*
X115328935Y-45122409D01*
X115315417Y-44924250D01*
X115274863Y-44782708D01*
X115207273Y-44697783D01*
X115112647Y-44669475D01*
X115016907Y-44697942D01*
X114948522Y-44783345D01*
X114907490Y-44925682D01*
X114893813Y-45124953D01*
X114428296Y-45124953D01*
X114428157Y-45122409D01*
X114440879Y-44908665D01*
X114461554Y-44795431D01*
X114498132Y-44669475D01*
X114549342Y-44545427D01*
X114613910Y-44437919D01*
X114699790Y-44346632D01*
X114814932Y-44271249D01*
X114954883Y-44220676D01*
X115115191Y-44203818D01*
X115271046Y-44220358D01*
G37*
G36*
X115260751Y-46816175D02*
G01*
X115395919Y-46865212D01*
X115507826Y-46938455D01*
X115592070Y-47027414D01*
X115655882Y-47132405D01*
X115706491Y-47253742D01*
X115742955Y-47377908D01*
X115764330Y-47491386D01*
X115774704Y-47600149D01*
X115778162Y-47710169D01*
X115774389Y-47823019D01*
X115763073Y-47935240D01*
X115740755Y-48050918D01*
X115703976Y-48174141D01*
X115653367Y-48293278D01*
X115589555Y-48396697D01*
X115505940Y-48484085D01*
X115395919Y-48555127D01*
X115263266Y-48602278D01*
X115111752Y-48617995D01*
X115101693Y-48617193D01*
X114977841Y-48607308D01*
X114857762Y-48575245D01*
X114754971Y-48524006D01*
X114672928Y-48455794D01*
X114549705Y-48289820D01*
X114504753Y-48195517D01*
X114473005Y-48091155D01*
X114437798Y-47891232D01*
X114427877Y-47710169D01*
X114887939Y-47710169D01*
X114901299Y-47904906D01*
X114941377Y-48044003D01*
X115008176Y-48127461D01*
X115101693Y-48155281D01*
X115206055Y-48121332D01*
X115270181Y-48044632D01*
X115302873Y-47931468D01*
X115316704Y-47820819D01*
X115317962Y-47720228D01*
X115317962Y-47707655D01*
X115304602Y-47511818D01*
X115264523Y-47371935D01*
X115197725Y-47288005D01*
X115104208Y-47260029D01*
X115009590Y-47288162D01*
X114942006Y-47372564D01*
X114901456Y-47513233D01*
X114887939Y-47710169D01*
X114427877Y-47710169D01*
X114427739Y-47707655D01*
X114440313Y-47496415D01*
X114460745Y-47384509D01*
X114496895Y-47260029D01*
X114547504Y-47137434D01*
X114611316Y-47031186D01*
X114696189Y-46940969D01*
X114809982Y-46866470D01*
X114948293Y-46816489D01*
X115106722Y-46799829D01*
X115260751Y-46816175D01*
G37*
G36*
X115250694Y-49411512D02*
G01*
X115384297Y-49459981D01*
X115494907Y-49532375D01*
X115578176Y-49620304D01*
X115641248Y-49724079D01*
X115691271Y-49844010D01*
X115727313Y-49966738D01*
X115748441Y-50078902D01*
X115758694Y-50186405D01*
X115762112Y-50295151D01*
X115758383Y-50406694D01*
X115747198Y-50517615D01*
X115725138Y-50631953D01*
X115688786Y-50753749D01*
X115638763Y-50871506D01*
X115575690Y-50973727D01*
X115493043Y-51060102D01*
X115384297Y-51130321D01*
X115253180Y-51176927D01*
X115103421Y-51192462D01*
X115093479Y-51191668D01*
X114971062Y-51181898D01*
X114852373Y-51150206D01*
X114750773Y-51099562D01*
X114669680Y-51032139D01*
X114547884Y-50868088D01*
X114472073Y-50671723D01*
X114437274Y-50474116D01*
X114427467Y-50295151D01*
X114882201Y-50295151D01*
X114895405Y-50487632D01*
X114935020Y-50625118D01*
X115001045Y-50707610D01*
X115093479Y-50735107D01*
X115196632Y-50701551D01*
X115260016Y-50625739D01*
X115292329Y-50513886D01*
X115306000Y-50404519D01*
X115307242Y-50305094D01*
X115307242Y-50292666D01*
X115294038Y-50099098D01*
X115254423Y-49960835D01*
X115188399Y-49877877D01*
X115095964Y-49850224D01*
X115002443Y-49878032D01*
X114935642Y-49961456D01*
X114895561Y-50100496D01*
X114882201Y-50295151D01*
X114427467Y-50295151D01*
X114427331Y-50292666D01*
X114439759Y-50083873D01*
X114459955Y-49973263D01*
X114495686Y-49850224D01*
X114545709Y-49729050D01*
X114608782Y-49624033D01*
X114692672Y-49534861D01*
X114805146Y-49461224D01*
X114941856Y-49411822D01*
X115098450Y-49395355D01*
X115250694Y-49411512D01*
G37*
G36*
X115240868Y-52006385D02*
G01*
X115372941Y-52054300D01*
X115482285Y-52125865D01*
X115564599Y-52212787D01*
X115626950Y-52315374D01*
X115676400Y-52433932D01*
X115712029Y-52555254D01*
X115732915Y-52666134D01*
X115743051Y-52772406D01*
X115746430Y-52879907D01*
X115742744Y-52990172D01*
X115731687Y-53099823D01*
X115709879Y-53212853D01*
X115673943Y-53333254D01*
X115624493Y-53449662D01*
X115562142Y-53550713D01*
X115480442Y-53636099D01*
X115372941Y-53705514D01*
X115243325Y-53751586D01*
X115095281Y-53766943D01*
X115085453Y-53766159D01*
X114964437Y-53756500D01*
X114847108Y-53725171D01*
X114746671Y-53675106D01*
X114666506Y-53608456D01*
X114546105Y-53446283D01*
X114471162Y-53252167D01*
X114436761Y-53056823D01*
X114427068Y-52879907D01*
X114876594Y-52879907D01*
X114899800Y-53121528D01*
X114969420Y-53266501D01*
X115085453Y-53314825D01*
X115187425Y-53281653D01*
X115250083Y-53206710D01*
X115282026Y-53096137D01*
X115295540Y-52988022D01*
X115296769Y-52889736D01*
X115296769Y-52877450D01*
X115283715Y-52686098D01*
X115244554Y-52549418D01*
X115179286Y-52467411D01*
X115087910Y-52440075D01*
X114995459Y-52467564D01*
X114929423Y-52550033D01*
X114889801Y-52687480D01*
X114876594Y-52879907D01*
X114427068Y-52879907D01*
X114426933Y-52877450D01*
X114439219Y-52671048D01*
X114459183Y-52561704D01*
X114494505Y-52440075D01*
X114543955Y-52320288D01*
X114606306Y-52216473D01*
X114689235Y-52128322D01*
X114800422Y-52055529D01*
X114935566Y-52006692D01*
X115090367Y-51990414D01*
X115240868Y-52006385D01*
G37*
G36*
X115242318Y-41685847D02*
G01*
X115293820Y-41869967D01*
X115293820Y-43209023D01*
X115242318Y-43389280D01*
X115059485Y-43440782D01*
X114879228Y-43389280D01*
X114827726Y-43206448D01*
X114827726Y-42336061D01*
X114801975Y-42359237D01*
X114643605Y-42433915D01*
X114490387Y-42343787D01*
X114410558Y-42173830D01*
X114440172Y-42091426D01*
X114518713Y-42003872D01*
X114845751Y-41710310D01*
X114886953Y-41676834D01*
X115062060Y-41633057D01*
X115242318Y-41685847D01*
G37*
%TO.C,kibuzzard-67742999*%
G36*
X115427897Y-39251502D02*
G01*
X115479399Y-39435622D01*
X115479399Y-40774678D01*
X115427897Y-40954936D01*
X115245064Y-41006438D01*
X115064807Y-40954936D01*
X115013305Y-40772103D01*
X115013305Y-39901717D01*
X114987554Y-39924893D01*
X114829185Y-39999571D01*
X114675966Y-39909442D01*
X114596137Y-39739485D01*
X114625751Y-39657082D01*
X114704292Y-39569528D01*
X115031330Y-39275966D01*
X115072532Y-39242489D01*
X115247639Y-39198712D01*
X115427897Y-39251502D01*
G37*
G36*
X112516738Y-39202575D02*
G01*
X112586266Y-39227039D01*
X112644206Y-39299142D01*
X112662232Y-39435622D01*
X112644206Y-39570815D01*
X112584979Y-39641631D01*
X112514163Y-39666094D01*
X112425322Y-39669957D01*
X111717167Y-39669957D01*
X111717167Y-39899142D01*
X112190987Y-39899142D01*
X112274678Y-39903004D01*
X112336481Y-39924893D01*
X112385408Y-39986695D01*
X112399571Y-40105150D01*
X112385408Y-40217167D01*
X112335193Y-40276395D01*
X112272103Y-40296996D01*
X112188412Y-40300858D01*
X111717167Y-40300858D01*
X111717167Y-40766953D01*
X111713305Y-40855794D01*
X111688841Y-40925322D01*
X111616738Y-40983262D01*
X111480258Y-41001288D01*
X111346352Y-40983262D01*
X111274249Y-40924034D01*
X111249785Y-40853219D01*
X111245923Y-40764378D01*
X111245923Y-39433047D01*
X111298712Y-39248927D01*
X111487983Y-39198712D01*
X112430472Y-39198712D01*
X112516738Y-39202575D01*
G37*
G36*
X117042489Y-39194993D02*
G01*
X117201288Y-39261087D01*
X117341202Y-39371245D01*
X117449928Y-39512876D01*
X117515165Y-39673391D01*
X117536910Y-39852790D01*
X117524356Y-39982833D01*
X117486695Y-40105150D01*
X117428433Y-40214592D01*
X117354077Y-40306009D01*
X117196996Y-40441202D01*
X117042489Y-40532618D01*
X117364378Y-40532618D01*
X117453219Y-40537768D01*
X117522747Y-40563519D01*
X117580687Y-40635622D01*
X117598712Y-40772103D01*
X117580687Y-40904721D01*
X117521459Y-40975536D01*
X117448069Y-41001288D01*
X117359227Y-41006438D01*
X116429614Y-41006438D01*
X116264807Y-40935622D01*
X116195279Y-40766953D01*
X116218455Y-40636266D01*
X116287983Y-40517167D01*
X116377468Y-40425429D01*
X116501717Y-40330472D01*
X116637554Y-40241953D01*
X116761803Y-40169528D01*
X116873498Y-40097425D01*
X116971674Y-40009871D01*
X117040236Y-39913305D01*
X117063090Y-39814163D01*
X117054077Y-39745923D01*
X116997425Y-39678970D01*
X116867382Y-39644206D01*
X116716738Y-39697639D01*
X116666524Y-39857940D01*
X116662661Y-39940343D01*
X116638197Y-40006009D01*
X116566094Y-40060086D01*
X116429614Y-40076824D01*
X116295708Y-40058798D01*
X116223605Y-39999571D01*
X116199142Y-39928755D01*
X116195279Y-39839914D01*
X116215880Y-39675393D01*
X116277682Y-39521745D01*
X116380687Y-39378970D01*
X116516881Y-39264521D01*
X116678255Y-39195851D01*
X116864807Y-39172961D01*
X117042489Y-39194993D01*
G37*
G36*
X119132761Y-39192418D02*
G01*
X119292847Y-39250787D01*
X119425751Y-39348069D01*
X119525179Y-39469099D01*
X119584835Y-39598712D01*
X119604721Y-39736910D01*
X119560300Y-39925536D01*
X119427039Y-40053648D01*
X119571245Y-40192704D01*
X119623391Y-40295708D01*
X119640773Y-40419313D01*
X119618884Y-40585980D01*
X119553219Y-40732332D01*
X119443777Y-40858369D01*
X119300858Y-40954936D01*
X119134764Y-41012876D01*
X118945494Y-41032189D01*
X118769528Y-41012876D01*
X118609013Y-40954936D01*
X118463948Y-40858369D01*
X118349499Y-40736338D01*
X118280830Y-40602003D01*
X118257940Y-40455365D01*
X118322318Y-40333691D01*
X118515451Y-40293133D01*
X118657082Y-40321459D01*
X118731760Y-40442489D01*
X118736910Y-40456652D01*
X118756223Y-40487554D01*
X118794850Y-40526180D01*
X118856652Y-40557082D01*
X118948069Y-40571245D01*
X119109013Y-40531330D01*
X119169528Y-40424464D01*
X119119957Y-40312446D01*
X118971245Y-40275107D01*
X118900429Y-40275107D01*
X118841202Y-40263519D01*
X118783262Y-40231330D01*
X118752361Y-40164378D01*
X118736910Y-40051073D01*
X118753648Y-39922318D01*
X118807725Y-39855365D01*
X118873391Y-39833476D01*
X118955794Y-39829614D01*
X118973820Y-39829614D01*
X119093562Y-39812876D01*
X119130901Y-39747210D01*
X119088412Y-39658369D01*
X118971245Y-39626180D01*
X118860515Y-39651931D01*
X118785837Y-39729185D01*
X118707439Y-39835336D01*
X118599285Y-39865379D01*
X118461373Y-39819313D01*
X118333906Y-39677682D01*
X118371245Y-39500000D01*
X118375107Y-39490987D01*
X118389270Y-39462661D01*
X118415021Y-39420172D01*
X118456223Y-39368670D01*
X118512876Y-39313305D01*
X118588841Y-39260515D01*
X118684120Y-39215451D01*
X118802575Y-39184549D01*
X118945494Y-39172961D01*
X119132761Y-39192418D01*
G37*
G36*
X110652504Y-39196710D02*
G01*
X110810443Y-39244778D01*
X110972961Y-39324893D01*
X111042489Y-39373820D01*
X111090129Y-39427897D01*
X111114592Y-39505150D01*
X111057940Y-39649356D01*
X110961373Y-39753648D01*
X110872532Y-39788412D01*
X110733476Y-39729185D01*
X110716738Y-39717597D01*
X110694850Y-39703433D01*
X110670386Y-39689270D01*
X110635622Y-39676395D01*
X110594421Y-39666094D01*
X110542918Y-39657082D01*
X110481116Y-39654506D01*
X110334335Y-39680258D01*
X110188841Y-39756223D01*
X110074249Y-39896567D01*
X110041416Y-39993133D01*
X110030472Y-40102575D01*
X110050107Y-40243240D01*
X110109013Y-40361373D01*
X110192382Y-40451824D01*
X110285408Y-40509442D01*
X110481116Y-40550644D01*
X110616953Y-40529399D01*
X110746352Y-40465665D01*
X110875107Y-40414163D01*
X110962661Y-40450858D01*
X111055365Y-40560944D01*
X111112017Y-40710300D01*
X111075966Y-40804292D01*
X110970386Y-40882833D01*
X110817597Y-40962947D01*
X110657940Y-41011016D01*
X110491416Y-41027039D01*
X110382296Y-41019313D01*
X110266094Y-40996137D01*
X110144421Y-40954614D01*
X110018884Y-40891845D01*
X109898176Y-40810730D01*
X109790987Y-40714163D01*
X109699249Y-40595386D01*
X109624893Y-40447639D01*
X109575644Y-40277039D01*
X109559227Y-40089700D01*
X109575322Y-39909442D01*
X109623605Y-39744635D01*
X109696996Y-39601395D01*
X109788412Y-39485837D01*
X109895601Y-39391845D01*
X110016309Y-39313305D01*
X110142489Y-39252468D01*
X110266094Y-39211588D01*
X110385515Y-39188412D01*
X110499142Y-39180687D01*
X110652504Y-39196710D01*
G37*
G36*
X113874785Y-39177146D02*
G01*
X114018026Y-39205150D01*
X114153541Y-39249893D01*
X114263948Y-39309442D01*
X114336052Y-39360944D01*
X114383691Y-39415021D01*
X114408155Y-39489700D01*
X114348927Y-39633906D01*
X114253648Y-39736266D01*
X114158369Y-39770386D01*
X114019313Y-39711159D01*
X113887339Y-39657082D01*
X113728326Y-39639056D01*
X113559013Y-39670923D01*
X113416738Y-39766524D01*
X113320172Y-39908476D01*
X113287983Y-40079399D01*
X113321459Y-40255794D01*
X113421888Y-40409013D01*
X113566738Y-40515236D01*
X113733476Y-40550644D01*
X113881545Y-40542275D01*
X113990987Y-40517167D01*
X113990987Y-40295708D01*
X113800429Y-40295708D01*
X113730901Y-40291845D01*
X113676824Y-40271245D01*
X113633047Y-40210730D01*
X113620172Y-40094850D01*
X113634335Y-39981545D01*
X113681974Y-39921030D01*
X113738627Y-39900429D01*
X113808155Y-39896567D01*
X114258798Y-39896567D01*
X114357940Y-39914592D01*
X114418455Y-39948069D01*
X114449356Y-39999571D01*
X114460944Y-40056223D01*
X114462232Y-40120601D01*
X114462232Y-40648498D01*
X114400429Y-40796567D01*
X114327682Y-40867060D01*
X114233047Y-40926609D01*
X114090558Y-40982403D01*
X113920601Y-41015880D01*
X113723176Y-41027039D01*
X113544206Y-41009496D01*
X113378112Y-40956867D01*
X113224893Y-40869152D01*
X113084549Y-40746352D01*
X112967382Y-40599088D01*
X112883691Y-40437983D01*
X112833476Y-40263036D01*
X112816738Y-40074249D01*
X112833718Y-39894233D01*
X112884657Y-39727575D01*
X112969555Y-39574276D01*
X113088412Y-39434335D01*
X113231089Y-39317731D01*
X113387446Y-39234442D01*
X113557484Y-39184469D01*
X113741202Y-39167811D01*
X113874785Y-39177146D01*
G37*
%TO.C,kibuzzard-6774292F*%
G36*
X117215594Y-64184263D02*
G01*
X117369385Y-64240057D01*
X117496710Y-64323391D01*
X117592561Y-64424607D01*
X117665165Y-64544063D01*
X117722747Y-64682117D01*
X117764235Y-64823391D01*
X117788555Y-64952504D01*
X117800358Y-65076252D01*
X117804292Y-65201431D01*
X117800000Y-65329828D01*
X117787124Y-65457511D01*
X117761731Y-65589127D01*
X117719886Y-65729328D01*
X117662303Y-65864878D01*
X117589700Y-65982546D01*
X117494564Y-66081974D01*
X117369385Y-66162804D01*
X117218455Y-66216452D01*
X117046066Y-66234335D01*
X117034621Y-66233421D01*
X116893705Y-66222175D01*
X116757082Y-66185694D01*
X116640129Y-66127396D01*
X116546781Y-66049785D01*
X116406581Y-65860944D01*
X116355436Y-65753648D01*
X116319313Y-65634907D01*
X116279256Y-65407439D01*
X116267968Y-65201431D01*
X116791416Y-65201431D01*
X116806617Y-65422997D01*
X116852217Y-65581259D01*
X116928219Y-65676216D01*
X117034621Y-65707868D01*
X117153362Y-65669242D01*
X117226323Y-65581974D01*
X117263519Y-65453219D01*
X117279256Y-65327325D01*
X117280687Y-65212876D01*
X117280687Y-65198569D01*
X117265486Y-64975751D01*
X117219886Y-64816595D01*
X117143884Y-64721102D01*
X117037482Y-64689270D01*
X116929828Y-64721280D01*
X116852933Y-64817310D01*
X116806795Y-64977361D01*
X116791416Y-65201431D01*
X116267968Y-65201431D01*
X116267811Y-65198569D01*
X116271388Y-65078398D01*
X116282117Y-64958226D01*
X116305365Y-64830901D01*
X116346495Y-64689270D01*
X116404077Y-64549785D01*
X116476681Y-64428898D01*
X116573247Y-64326252D01*
X116702718Y-64241488D01*
X116860086Y-64184621D01*
X117040343Y-64165665D01*
X117215594Y-64184263D01*
G37*
G36*
X112725608Y-64252933D02*
G01*
X112782833Y-64457511D01*
X112782833Y-65945351D01*
X112725608Y-66145637D01*
X112522461Y-66202861D01*
X112322175Y-66145637D01*
X112264950Y-65942489D01*
X112264950Y-64975393D01*
X112236338Y-65001144D01*
X112060372Y-65084120D01*
X111890129Y-64983977D01*
X111801431Y-64795136D01*
X111834335Y-64703577D01*
X111921602Y-64606295D01*
X112284979Y-64280114D01*
X112330758Y-64242918D01*
X112525322Y-64194278D01*
X112725608Y-64252933D01*
G37*
%TO.C,kibuzzard-67742882*%
G36*
X121752223Y-49489192D02*
G01*
X121801936Y-49666915D01*
X121801936Y-50959439D01*
X121752223Y-51133433D01*
X121575744Y-51183146D01*
X121401750Y-51133433D01*
X121352038Y-50956954D01*
X121352038Y-50116813D01*
X121327181Y-50139183D01*
X121174315Y-50211266D01*
X121026421Y-50124270D01*
X120949366Y-49960218D01*
X121053763Y-49796167D01*
X121369437Y-49512806D01*
X121409207Y-49480493D01*
X121578229Y-49438237D01*
X121752223Y-49489192D01*
G37*
G36*
X121761836Y-46894554D02*
G01*
X121812131Y-47074359D01*
X121812131Y-48382031D01*
X121761836Y-48558064D01*
X121583288Y-48608359D01*
X121407255Y-48558064D01*
X121356960Y-48379516D01*
X121356960Y-47529530D01*
X121331813Y-47552162D01*
X121177155Y-47625090D01*
X121027528Y-47537074D01*
X120949570Y-47371100D01*
X121055190Y-47205127D01*
X121374564Y-46918445D01*
X121414800Y-46885753D01*
X121585803Y-46843002D01*
X121761836Y-46894554D01*
G37*
G36*
X122803642Y-49435751D02*
G01*
X122889397Y-49440723D01*
X122956508Y-49464336D01*
X123012435Y-49533934D01*
X123029834Y-49669400D01*
X123013678Y-49793681D01*
X122960237Y-49859550D01*
X122895611Y-49881921D01*
X122816071Y-49885650D01*
X122433284Y-49885650D01*
X122415885Y-50017388D01*
X122458141Y-50012416D01*
X122470569Y-50012416D01*
X122621639Y-50031887D01*
X122760006Y-50090299D01*
X122885668Y-50187653D01*
X122985093Y-50310691D01*
X123044748Y-50446158D01*
X123064633Y-50594053D01*
X123045300Y-50758794D01*
X122987303Y-50905032D01*
X122890639Y-51032765D01*
X122765530Y-51131500D01*
X122622192Y-51190741D01*
X122460626Y-51210488D01*
X122326402Y-51199613D01*
X122202121Y-51166989D01*
X122033099Y-51081235D01*
X121980901Y-51036494D01*
X121886447Y-50884871D01*
X121978415Y-50715848D01*
X122132524Y-50631337D01*
X122301546Y-50713363D01*
X122445712Y-50753133D01*
X122565022Y-50715848D01*
X122607278Y-50611452D01*
X122562537Y-50508299D01*
X122453169Y-50467286D01*
X122356230Y-50502084D01*
X122217035Y-50561739D01*
X122055469Y-50512027D01*
X121944859Y-50437458D01*
X121913789Y-50365375D01*
X122005757Y-49659458D01*
X122018185Y-49589860D01*
X122046770Y-49521506D01*
X122116367Y-49455636D01*
X122234434Y-49433266D01*
X122803642Y-49435751D01*
G37*
G36*
X121774774Y-52029462D02*
G01*
X121926299Y-52092529D01*
X122059805Y-52197641D01*
X122163552Y-52332785D01*
X122225800Y-52485948D01*
X122246549Y-52657131D01*
X122234571Y-52781217D01*
X122198635Y-52897933D01*
X122143041Y-53002362D01*
X122072091Y-53089591D01*
X121922204Y-53218593D01*
X121774774Y-53305822D01*
X122081919Y-53305822D01*
X122166692Y-53310736D01*
X122233035Y-53335308D01*
X122288321Y-53404108D01*
X122305521Y-53534338D01*
X122288321Y-53660882D01*
X122231806Y-53728454D01*
X122161777Y-53753026D01*
X122077005Y-53757940D01*
X121189969Y-53757940D01*
X121032711Y-53690368D01*
X120966367Y-53529424D01*
X120988482Y-53404723D01*
X121054825Y-53291079D01*
X121140212Y-53203542D01*
X121258770Y-53112935D01*
X121388385Y-53028470D01*
X121506943Y-52959362D01*
X121613523Y-52890561D01*
X121707202Y-52807018D01*
X121772624Y-52714874D01*
X121794431Y-52620273D01*
X121785831Y-52555158D01*
X121731774Y-52491272D01*
X121607687Y-52458100D01*
X121463943Y-52509087D01*
X121416028Y-52662045D01*
X121412342Y-52740674D01*
X121388999Y-52803332D01*
X121320199Y-52854932D01*
X121189969Y-52870904D01*
X121062197Y-52853704D01*
X120993396Y-52797189D01*
X120970053Y-52729617D01*
X120966367Y-52644845D01*
X120986025Y-52487859D01*
X121044997Y-52341249D01*
X121143283Y-52205013D01*
X121273240Y-52095805D01*
X121427222Y-52030281D01*
X121605230Y-52008440D01*
X121774774Y-52029462D01*
G37*
G36*
X121763053Y-44240928D02*
G01*
X121921240Y-44305815D01*
X122050307Y-44413959D01*
X122145728Y-44559989D01*
X122202981Y-44738534D01*
X122222065Y-44949592D01*
X122211174Y-45136465D01*
X122178502Y-45308275D01*
X122124048Y-45465020D01*
X122047813Y-45606702D01*
X121949796Y-45733320D01*
X121802688Y-45863570D01*
X121633633Y-45956606D01*
X121442631Y-46012428D01*
X121229682Y-46031035D01*
X121149528Y-46025946D01*
X121083369Y-46000500D01*
X121029933Y-45929252D01*
X121013393Y-45796934D01*
X121031205Y-45664617D01*
X121089730Y-45593368D01*
X121160979Y-45569195D01*
X121250039Y-45565378D01*
X121440599Y-45536822D01*
X121588184Y-45451155D01*
X121692794Y-45308376D01*
X121573199Y-45328685D01*
X121557932Y-45331278D01*
X121406812Y-45313748D01*
X121268981Y-45261160D01*
X121144439Y-45173514D01*
X121046190Y-45062401D01*
X120987241Y-44939413D01*
X120967591Y-44804551D01*
X120969501Y-44789284D01*
X121425614Y-44789284D01*
X121466327Y-44879616D01*
X121573199Y-44913968D01*
X121697883Y-44882161D01*
X121743686Y-44794373D01*
X121706789Y-44687501D01*
X121585922Y-44654421D01*
X121463783Y-44686228D01*
X121425614Y-44789284D01*
X120969501Y-44789284D01*
X120987099Y-44648625D01*
X121045625Y-44509946D01*
X121143166Y-44388513D01*
X121269264Y-44294506D01*
X121413457Y-44238101D01*
X121575744Y-44219299D01*
X121763053Y-44240928D01*
G37*
G36*
X121895057Y-41648508D02*
G01*
X121983898Y-41653658D01*
X122053426Y-41678121D01*
X122111366Y-41750224D01*
X122129392Y-41890568D01*
X122112654Y-42019323D01*
X122057289Y-42087563D01*
X121990336Y-42110739D01*
X121907933Y-42114602D01*
X121511366Y-42114602D01*
X121493340Y-42251083D01*
X121537117Y-42245933D01*
X121549993Y-42245933D01*
X121706502Y-42266104D01*
X121849850Y-42326619D01*
X121980036Y-42427478D01*
X122083040Y-42554945D01*
X122144843Y-42695289D01*
X122165443Y-42848508D01*
X122145415Y-43019180D01*
X122085329Y-43170682D01*
X121985186Y-43303014D01*
X121855572Y-43405303D01*
X121707074Y-43466676D01*
X121539692Y-43487134D01*
X121400637Y-43475868D01*
X121271881Y-43442070D01*
X121096774Y-43353229D01*
X121042697Y-43306877D01*
X120944843Y-43149795D01*
X121040121Y-42974688D01*
X121199778Y-42887134D01*
X121374885Y-42972113D01*
X121524242Y-43013315D01*
X121647847Y-42974688D01*
X121691624Y-42866533D01*
X121645272Y-42759666D01*
X121531967Y-42717177D01*
X121431538Y-42753229D01*
X121287332Y-42815031D01*
X121119950Y-42763529D01*
X121005358Y-42686276D01*
X120973169Y-42611598D01*
X121068448Y-41880267D01*
X121081323Y-41808164D01*
X121110937Y-41737349D01*
X121183040Y-41669109D01*
X121305358Y-41645933D01*
X121895057Y-41648508D01*
G37*
G36*
X123171057Y-52024411D02*
G01*
X123303130Y-52072326D01*
X123412473Y-52143891D01*
X123494788Y-52230813D01*
X123557139Y-52333399D01*
X123606589Y-52451958D01*
X123642218Y-52573280D01*
X123663104Y-52684159D01*
X123673240Y-52790432D01*
X123676619Y-52897933D01*
X123672933Y-53008198D01*
X123661876Y-53117849D01*
X123640068Y-53230878D01*
X123604132Y-53351279D01*
X123554682Y-53467687D01*
X123492331Y-53568738D01*
X123410631Y-53654125D01*
X123303130Y-53723540D01*
X123173514Y-53769611D01*
X123025470Y-53784969D01*
X123015642Y-53784184D01*
X122894626Y-53774526D01*
X122777297Y-53743197D01*
X122676860Y-53693132D01*
X122596695Y-53626482D01*
X122476294Y-53464309D01*
X122401351Y-53270193D01*
X122366950Y-53074848D01*
X122357257Y-52897933D01*
X122806783Y-52897933D01*
X122829989Y-53139554D01*
X122899609Y-53284526D01*
X123015642Y-53332851D01*
X123117614Y-53299679D01*
X123180272Y-53224735D01*
X123212215Y-53114163D01*
X123225729Y-53006048D01*
X123226958Y-52907761D01*
X123226958Y-52895476D01*
X123213904Y-52704124D01*
X123174743Y-52567444D01*
X123109475Y-52485436D01*
X123018099Y-52458100D01*
X122925648Y-52485590D01*
X122859612Y-52568059D01*
X122819990Y-52705506D01*
X122806783Y-52897933D01*
X122357257Y-52897933D01*
X122357122Y-52895476D01*
X122369408Y-52689074D01*
X122389372Y-52579730D01*
X122424694Y-52458100D01*
X122474144Y-52338314D01*
X122536495Y-52234499D01*
X122619424Y-52146348D01*
X122730611Y-52073554D01*
X122865755Y-52024718D01*
X123020556Y-52008440D01*
X123171057Y-52024411D01*
G37*
G36*
X122747619Y-46839370D02*
G01*
X122902695Y-46903915D01*
X123039330Y-47011491D01*
X123145509Y-47149802D01*
X123209216Y-47306555D01*
X123230451Y-47481749D01*
X123218192Y-47608744D01*
X123181414Y-47728195D01*
X123124517Y-47835072D01*
X123051904Y-47924346D01*
X122898504Y-48056370D01*
X122747619Y-48145644D01*
X123061963Y-48145644D01*
X123148722Y-48150674D01*
X123216620Y-48175821D01*
X123273202Y-48246234D01*
X123290806Y-48379516D01*
X123273202Y-48509026D01*
X123215363Y-48578182D01*
X123143692Y-48603329D01*
X123056933Y-48608359D01*
X122149108Y-48608359D01*
X121988163Y-48539203D01*
X121920265Y-48374487D01*
X121942898Y-48246863D01*
X122010796Y-48130556D01*
X122098184Y-48040968D01*
X122219521Y-47948236D01*
X122352174Y-47861791D01*
X122473511Y-47791064D01*
X122582588Y-47720651D01*
X122678463Y-47635149D01*
X122745418Y-47540846D01*
X122767737Y-47444028D01*
X122758935Y-47377387D01*
X122703611Y-47312004D01*
X122576616Y-47278054D01*
X122429503Y-47330235D01*
X122380465Y-47486779D01*
X122376693Y-47567251D01*
X122352803Y-47631377D01*
X122282389Y-47684187D01*
X122149108Y-47700533D01*
X122018340Y-47682930D01*
X121947927Y-47625090D01*
X121924037Y-47555935D01*
X121920265Y-47469176D01*
X121940383Y-47308511D01*
X122000737Y-47158464D01*
X122101327Y-47019035D01*
X122234330Y-46907268D01*
X122391921Y-46840208D01*
X122574101Y-46817855D01*
X122747619Y-46839370D01*
G37*
G36*
X124217195Y-52163241D02*
G01*
X124605426Y-53119077D01*
X124993658Y-52163241D01*
X125109145Y-52024411D01*
X125290975Y-52060040D01*
X125432262Y-52177984D01*
X125404004Y-52347528D01*
X124821657Y-53627710D01*
X124736885Y-53717397D01*
X124610341Y-53750568D01*
X124472740Y-53719854D01*
X124389196Y-53627710D01*
X123806848Y-52347528D01*
X123782277Y-52176755D01*
X123919878Y-52060040D01*
X124104165Y-52023183D01*
X124217195Y-52163241D01*
G37*
G36*
X123611471Y-49569975D02*
G01*
X124004199Y-50536883D01*
X124396928Y-49569975D01*
X124513752Y-49429537D01*
X124697689Y-49465579D01*
X124840612Y-49584889D01*
X124812027Y-49756397D01*
X124222934Y-51051408D01*
X124137180Y-51142133D01*
X124009170Y-51175689D01*
X123869975Y-51144619D01*
X123785464Y-51051408D01*
X123196371Y-49756397D01*
X123171515Y-49583646D01*
X123310710Y-49465579D01*
X123497132Y-49428295D01*
X123611471Y-49569975D01*
G37*
G36*
X123826448Y-46976284D02*
G01*
X124223779Y-47954523D01*
X124621110Y-46976284D01*
X124739303Y-46834200D01*
X124925395Y-46870664D01*
X125069993Y-46991372D01*
X125041074Y-47164890D01*
X124445077Y-48475077D01*
X124358318Y-48566865D01*
X124228808Y-48600815D01*
X124087982Y-48569380D01*
X124002481Y-48475077D01*
X123406484Y-47164890D01*
X123381337Y-46990115D01*
X123522163Y-46870664D01*
X123710769Y-46832943D01*
X123826448Y-46976284D01*
G37*
G36*
X122781871Y-44382152D02*
G01*
X123183914Y-45371991D01*
X123585956Y-44382152D01*
X123705551Y-44238384D01*
X123893849Y-44275280D01*
X124040162Y-44397419D01*
X124010900Y-44572995D01*
X123407836Y-45898717D01*
X123320048Y-45991594D01*
X123189003Y-46025946D01*
X123046507Y-45994139D01*
X122959991Y-45898717D01*
X122356928Y-44572995D01*
X122331482Y-44396147D01*
X122473978Y-44275280D01*
X122664821Y-44237111D01*
X122781871Y-44382152D01*
G37*
G36*
X122731967Y-41787563D02*
G01*
X123138834Y-42789280D01*
X123545701Y-41787563D01*
X123666731Y-41642070D01*
X123857289Y-41679409D01*
X124005358Y-41803014D01*
X123975744Y-41980697D01*
X123365443Y-43322327D01*
X123276602Y-43416319D01*
X123143984Y-43451083D01*
X122999778Y-43418894D01*
X122912224Y-43322327D01*
X122301924Y-41980697D01*
X122276173Y-41801727D01*
X122420379Y-41679409D01*
X122613512Y-41640782D01*
X122731967Y-41787563D01*
G37*
%TO.C,kibuzzard-67741D43*%
G36*
X124225300Y-55702672D02*
G01*
X124368541Y-55730677D01*
X124504056Y-55775419D01*
X124614463Y-55834968D01*
X124686566Y-55886471D01*
X124734206Y-55940548D01*
X124758669Y-56015226D01*
X124699442Y-56159432D01*
X124604163Y-56261793D01*
X124508884Y-56295913D01*
X124369828Y-56236685D01*
X124237854Y-56182608D01*
X124078841Y-56164582D01*
X123909528Y-56196449D01*
X123767253Y-56292050D01*
X123670687Y-56434003D01*
X123638498Y-56604926D01*
X123671974Y-56781320D01*
X123772403Y-56934539D01*
X123917253Y-57040762D01*
X124083991Y-57076170D01*
X124232060Y-57067801D01*
X124341502Y-57042694D01*
X124341502Y-56821235D01*
X124150944Y-56821235D01*
X124081416Y-56817372D01*
X124027339Y-56796771D01*
X123983562Y-56736256D01*
X123970687Y-56620376D01*
X123984850Y-56507071D01*
X124032489Y-56446556D01*
X124089142Y-56425956D01*
X124158669Y-56422093D01*
X124609313Y-56422093D01*
X124708455Y-56440119D01*
X124768970Y-56473595D01*
X124799871Y-56525097D01*
X124811459Y-56581750D01*
X124812747Y-56646127D01*
X124812747Y-57174024D01*
X124750944Y-57322093D01*
X124678197Y-57392587D01*
X124583562Y-57452136D01*
X124441073Y-57507930D01*
X124271116Y-57541406D01*
X124073691Y-57552565D01*
X123894721Y-57535022D01*
X123728627Y-57482393D01*
X123575408Y-57394679D01*
X123435064Y-57271878D01*
X123317897Y-57124614D01*
X123234206Y-56963509D01*
X123183991Y-56788563D01*
X123167253Y-56599775D01*
X123184233Y-56419759D01*
X123235172Y-56253102D01*
X123320070Y-56099802D01*
X123438927Y-55959861D01*
X123581604Y-55843257D01*
X123737961Y-55759968D01*
X123907999Y-55709995D01*
X124091717Y-55693338D01*
X124225300Y-55702672D01*
G37*
G36*
X124173700Y-58299135D02*
G01*
X124315242Y-58326807D01*
X124449150Y-58371019D01*
X124558249Y-58429862D01*
X124629497Y-58480754D01*
X124676571Y-58534190D01*
X124700745Y-58607982D01*
X124642220Y-58750478D01*
X124548070Y-58851625D01*
X124453921Y-58885341D01*
X124316514Y-58826816D01*
X124186105Y-58773380D01*
X124028978Y-58755568D01*
X123861672Y-58787057D01*
X123721084Y-58881524D01*
X123625663Y-59021794D01*
X123593856Y-59190690D01*
X123626935Y-59364993D01*
X123726174Y-59516395D01*
X123869306Y-59621358D01*
X124034067Y-59656346D01*
X124180380Y-59648076D01*
X124288524Y-59623267D01*
X124288524Y-59404434D01*
X124100226Y-59404434D01*
X124031522Y-59400617D01*
X123978086Y-59380260D01*
X123934828Y-59320463D01*
X123922106Y-59205957D01*
X123936101Y-59093996D01*
X123983175Y-59034198D01*
X124039156Y-59013842D01*
X124107859Y-59010025D01*
X124553160Y-59010025D01*
X124651126Y-59027837D01*
X124710923Y-59060916D01*
X124741458Y-59111808D01*
X124752909Y-59167788D01*
X124754181Y-59231403D01*
X124754181Y-59753040D01*
X124693111Y-59899353D01*
X124527714Y-60027854D01*
X124386914Y-60082986D01*
X124218972Y-60116066D01*
X124023889Y-60127092D01*
X123847041Y-60109757D01*
X123682916Y-60057753D01*
X123531514Y-59971078D01*
X123392835Y-59849734D01*
X123277057Y-59704216D01*
X123194358Y-59545021D01*
X123144739Y-59372149D01*
X123128199Y-59185600D01*
X123144977Y-59007719D01*
X123195312Y-58843037D01*
X123279204Y-58691556D01*
X123396651Y-58553274D01*
X123537637Y-58438053D01*
X123692140Y-58355752D01*
X123860161Y-58306371D01*
X124041701Y-58289911D01*
X124173700Y-58299135D01*
G37*
G36*
X124123309Y-60895097D02*
G01*
X124263193Y-60922445D01*
X124395532Y-60966139D01*
X124503352Y-61024293D01*
X124573765Y-61074588D01*
X124620288Y-61127397D01*
X124644178Y-61200325D01*
X124586338Y-61341151D01*
X124493293Y-61441113D01*
X124400247Y-61474433D01*
X124264450Y-61416594D01*
X124135569Y-61363784D01*
X123980283Y-61346181D01*
X123814938Y-61377301D01*
X123675998Y-61470661D01*
X123581695Y-61609287D01*
X123550260Y-61776204D01*
X123582952Y-61948464D01*
X123681027Y-62098092D01*
X123822482Y-62201826D01*
X123985312Y-62236404D01*
X124129911Y-62228231D01*
X124236788Y-62203712D01*
X124236788Y-61987443D01*
X124050696Y-61987443D01*
X123982798Y-61983671D01*
X123929988Y-61963553D01*
X123887237Y-61904456D01*
X123874663Y-61791292D01*
X123888494Y-61680643D01*
X123935017Y-61621546D01*
X123990342Y-61601428D01*
X124058240Y-61597656D01*
X124498322Y-61597656D01*
X124595140Y-61615260D01*
X124654237Y-61647951D01*
X124684414Y-61698246D01*
X124695730Y-61753571D01*
X124696988Y-61816440D01*
X124696988Y-62331964D01*
X124636633Y-62476563D01*
X124473175Y-62603558D01*
X124334025Y-62658044D01*
X124168051Y-62690736D01*
X123975253Y-62701633D01*
X123800478Y-62684501D01*
X123638276Y-62633106D01*
X123488649Y-62547447D01*
X123351595Y-62427525D01*
X123237173Y-62283712D01*
X123155444Y-62126383D01*
X123106406Y-61955537D01*
X123090060Y-61771174D01*
X123106642Y-61595377D01*
X123156387Y-61432626D01*
X123239295Y-61282919D01*
X123355367Y-61146258D01*
X123494700Y-61032387D01*
X123647392Y-60951050D01*
X123813445Y-60902248D01*
X123992857Y-60885981D01*
X124123309Y-60895097D01*
G37*
G36*
X121003019Y-55722236D02*
G01*
X121160958Y-55770305D01*
X121323476Y-55850419D01*
X121393004Y-55899346D01*
X121440644Y-55953423D01*
X121465107Y-56030677D01*
X121408455Y-56174883D01*
X121311888Y-56279174D01*
X121223047Y-56313938D01*
X121083991Y-56254711D01*
X121067253Y-56243123D01*
X121045365Y-56228960D01*
X121020901Y-56214797D01*
X120986137Y-56201921D01*
X120944936Y-56191621D01*
X120893433Y-56182608D01*
X120831631Y-56180033D01*
X120684850Y-56205784D01*
X120539356Y-56281750D01*
X120424764Y-56422093D01*
X120391931Y-56518659D01*
X120380987Y-56628102D01*
X120400622Y-56768767D01*
X120459528Y-56886900D01*
X120542897Y-56977350D01*
X120635923Y-57034968D01*
X120831631Y-57076170D01*
X120967468Y-57054926D01*
X121096867Y-56991192D01*
X121225622Y-56939690D01*
X121313176Y-56976385D01*
X121405880Y-57086471D01*
X121462532Y-57235827D01*
X121426481Y-57329818D01*
X121320901Y-57408359D01*
X121168111Y-57488473D01*
X121008455Y-57536542D01*
X120841931Y-57552565D01*
X120732811Y-57544840D01*
X120616609Y-57521664D01*
X120494936Y-57480140D01*
X120369399Y-57417372D01*
X120248691Y-57336256D01*
X120141502Y-57239690D01*
X120049764Y-57120913D01*
X119975408Y-56973166D01*
X119926159Y-56802565D01*
X119909742Y-56615226D01*
X119925837Y-56434968D01*
X119974120Y-56270162D01*
X120047511Y-56126921D01*
X120138927Y-56011363D01*
X120246116Y-55917372D01*
X120366824Y-55838831D01*
X120493004Y-55777994D01*
X120616609Y-55737114D01*
X120736030Y-55713938D01*
X120849657Y-55706213D01*
X121003019Y-55722236D01*
G37*
G36*
X120989627Y-58318467D02*
G01*
X121145694Y-58365965D01*
X121306285Y-58445130D01*
X121374989Y-58493477D01*
X121422063Y-58546913D01*
X121446237Y-58623250D01*
X121390256Y-58765746D01*
X121294835Y-58868801D01*
X121207047Y-58903153D01*
X121069640Y-58844628D01*
X121053100Y-58833177D01*
X121031471Y-58819182D01*
X121007298Y-58805187D01*
X120972946Y-58792464D01*
X120932233Y-58782286D01*
X120881342Y-58773380D01*
X120820272Y-58770835D01*
X120675231Y-58796281D01*
X120531463Y-58871346D01*
X120418229Y-59010025D01*
X120374972Y-59213591D01*
X120394374Y-59352588D01*
X120452581Y-59469320D01*
X120534962Y-59558698D01*
X120626884Y-59615633D01*
X120820272Y-59656346D01*
X120954498Y-59635354D01*
X121082363Y-59572375D01*
X121209591Y-59521484D01*
X121296107Y-59557744D01*
X121387711Y-59666525D01*
X121443692Y-59814110D01*
X121408068Y-59906987D01*
X121303741Y-59984596D01*
X121152763Y-60063761D01*
X120994999Y-60111259D01*
X120830450Y-60127092D01*
X120722624Y-60119458D01*
X120607800Y-60096557D01*
X120487569Y-60055526D01*
X120363521Y-59993502D01*
X120244244Y-59913348D01*
X120138326Y-59817927D01*
X120047676Y-59700558D01*
X119974202Y-59554563D01*
X119925537Y-59385985D01*
X119909315Y-59200868D01*
X119925218Y-59022748D01*
X119972929Y-58859895D01*
X120045450Y-58718353D01*
X120135782Y-58604166D01*
X120241700Y-58511289D01*
X120360977Y-58433679D01*
X120485661Y-58373564D01*
X120607800Y-58333169D01*
X120725805Y-58310267D01*
X120838084Y-58302634D01*
X120989627Y-58318467D01*
G37*
G36*
X120976550Y-60914202D02*
G01*
X121130788Y-60961144D01*
X121289497Y-61039381D01*
X121357395Y-61087161D01*
X121403918Y-61139971D01*
X121427808Y-61215414D01*
X121372484Y-61356240D01*
X121278181Y-61458087D01*
X121191422Y-61492037D01*
X121055625Y-61434197D01*
X121039279Y-61422881D01*
X121017904Y-61409050D01*
X120994013Y-61395219D01*
X120960064Y-61382645D01*
X120919828Y-61372586D01*
X120869533Y-61363784D01*
X120809179Y-61361269D01*
X120665838Y-61386417D01*
X120523755Y-61460602D01*
X120411848Y-61597656D01*
X120369097Y-61798837D01*
X120388272Y-61936205D01*
X120445797Y-62051569D01*
X120527212Y-62139900D01*
X120618058Y-62196168D01*
X120809179Y-62236404D01*
X120941832Y-62215657D01*
X121068199Y-62153417D01*
X121193936Y-62103122D01*
X121279438Y-62138957D01*
X121369969Y-62246463D01*
X121425294Y-62392318D01*
X121390087Y-62484107D01*
X121286982Y-62560807D01*
X121137774Y-62639043D01*
X120981859Y-62685986D01*
X120819238Y-62701633D01*
X120712675Y-62694089D01*
X120599197Y-62671456D01*
X120480375Y-62630905D01*
X120357781Y-62569608D01*
X120239902Y-62490394D01*
X120135225Y-62396090D01*
X120045637Y-62280097D01*
X119973024Y-62135813D01*
X119924929Y-61969211D01*
X119908897Y-61786263D01*
X119924615Y-61610230D01*
X119971766Y-61449286D01*
X120043437Y-61309403D01*
X120132710Y-61196553D01*
X120237387Y-61104765D01*
X120355266Y-61028065D01*
X120478489Y-60968654D01*
X120599197Y-60928732D01*
X120715819Y-60906099D01*
X120826782Y-60898555D01*
X120976550Y-60914202D01*
G37*
G36*
X122867253Y-55728102D02*
G01*
X122936781Y-55752565D01*
X122994721Y-55824668D01*
X123012747Y-55961149D01*
X122994721Y-56096342D01*
X122935493Y-56167157D01*
X122864678Y-56191621D01*
X122775837Y-56195484D01*
X122067682Y-56195484D01*
X122067682Y-56424668D01*
X122541502Y-56424668D01*
X122625193Y-56428531D01*
X122686996Y-56450419D01*
X122735923Y-56512222D01*
X122750086Y-56630677D01*
X122735923Y-56742694D01*
X122685708Y-56801921D01*
X122622618Y-56822522D01*
X122538927Y-56826385D01*
X122067682Y-56826385D01*
X122067682Y-57292479D01*
X122063820Y-57381320D01*
X122039356Y-57450848D01*
X121967253Y-57508788D01*
X121830772Y-57526814D01*
X121696867Y-57508788D01*
X121624764Y-57449561D01*
X121600300Y-57378745D01*
X121596438Y-57289904D01*
X121596438Y-55958574D01*
X121649227Y-55774453D01*
X121838498Y-55724239D01*
X122780987Y-55724239D01*
X122867253Y-55728102D01*
G37*
G36*
X125741475Y-58316770D02*
G01*
X125898390Y-58382081D01*
X126036645Y-58490932D01*
X126144083Y-58630884D01*
X126208545Y-58789495D01*
X126230033Y-58966767D01*
X126217628Y-59095268D01*
X126180414Y-59216135D01*
X126122843Y-59324280D01*
X126049368Y-59414612D01*
X125894149Y-59548202D01*
X125741475Y-59638534D01*
X126059546Y-59638534D01*
X126147334Y-59643623D01*
X126216038Y-59669069D01*
X126273291Y-59740317D01*
X126291103Y-59875180D01*
X126273291Y-60006225D01*
X126214765Y-60076201D01*
X126142245Y-60101646D01*
X126054457Y-60106736D01*
X125135867Y-60106736D01*
X124973014Y-60036760D01*
X124904311Y-59870090D01*
X124927212Y-59740953D01*
X124995915Y-59623267D01*
X125084339Y-59532616D01*
X125207115Y-59438785D01*
X125341341Y-59351316D01*
X125464117Y-59279750D01*
X125574487Y-59208502D01*
X125671499Y-59121986D01*
X125739248Y-59026565D01*
X125761831Y-58928599D01*
X125752925Y-58861167D01*
X125696945Y-58795009D01*
X125568444Y-58760657D01*
X125419587Y-58813457D01*
X125369967Y-58971856D01*
X125366150Y-59053283D01*
X125341977Y-59118169D01*
X125270729Y-59171605D01*
X125135867Y-59188145D01*
X125003549Y-59170333D01*
X124932301Y-59111808D01*
X124908127Y-59041832D01*
X124904311Y-58954044D01*
X124924667Y-58791474D01*
X124985737Y-58639648D01*
X125087520Y-58498566D01*
X125222099Y-58385474D01*
X125381559Y-58317618D01*
X125565899Y-58295000D01*
X125741475Y-58316770D01*
G37*
G36*
X122831756Y-58324263D02*
G01*
X122900460Y-58348436D01*
X122957713Y-58419684D01*
X122975525Y-58554546D01*
X122957713Y-58688136D01*
X122899188Y-58758112D01*
X122829212Y-58782286D01*
X122741424Y-58786103D01*
X122041667Y-58786103D01*
X122041667Y-59012569D01*
X122509868Y-59012569D01*
X122592567Y-59016386D01*
X122653636Y-59038015D01*
X122701983Y-59099085D01*
X122715978Y-59216135D01*
X122701983Y-59326824D01*
X122652364Y-59385349D01*
X122590022Y-59405706D01*
X122507323Y-59409523D01*
X122041667Y-59409523D01*
X122041667Y-59870090D01*
X122037850Y-59957878D01*
X122013676Y-60026582D01*
X121942428Y-60083834D01*
X121807566Y-60101646D01*
X121675248Y-60083834D01*
X121604000Y-60025309D01*
X121579827Y-59955334D01*
X121576010Y-59867546D01*
X121576010Y-58552002D01*
X121628174Y-58370065D01*
X121815200Y-58320446D01*
X122746513Y-58320446D01*
X122831756Y-58324263D01*
G37*
G36*
X125699676Y-60910011D02*
G01*
X125856009Y-60967012D01*
X125985799Y-61062014D01*
X126082896Y-61180207D01*
X126141154Y-61306783D01*
X126160574Y-61441742D01*
X126117194Y-61625947D01*
X125987056Y-61751056D01*
X126127882Y-61886853D01*
X126178806Y-61987443D01*
X126195780Y-62108151D01*
X126174405Y-62270912D01*
X126110279Y-62413833D01*
X126003402Y-62536917D01*
X125863833Y-62631220D01*
X125701631Y-62687802D01*
X125516797Y-62706662D01*
X125344956Y-62687802D01*
X125188203Y-62631220D01*
X125046538Y-62536917D01*
X124934771Y-62417745D01*
X124867711Y-62286559D01*
X124845358Y-62143358D01*
X124908227Y-62024536D01*
X125096833Y-61984928D01*
X125235145Y-62012591D01*
X125308073Y-62130784D01*
X125313102Y-62144615D01*
X125331963Y-62174792D01*
X125369684Y-62212513D01*
X125430038Y-62242690D01*
X125519312Y-62256522D01*
X125676484Y-62217543D01*
X125735581Y-62113181D01*
X125687172Y-62003789D01*
X125541945Y-61967325D01*
X125472789Y-61967325D01*
X125414950Y-61956009D01*
X125358368Y-61924574D01*
X125328191Y-61859191D01*
X125313102Y-61748541D01*
X125329448Y-61622804D01*
X125382258Y-61557420D01*
X125446384Y-61536045D01*
X125526856Y-61532273D01*
X125544459Y-61532273D01*
X125661395Y-61515927D01*
X125697859Y-61451801D01*
X125656366Y-61365042D01*
X125541945Y-61333607D01*
X125433810Y-61358755D01*
X125360882Y-61434197D01*
X125284322Y-61537861D01*
X125178703Y-61567200D01*
X125044024Y-61522214D01*
X124919543Y-61383902D01*
X124956007Y-61210384D01*
X124959779Y-61201583D01*
X124973610Y-61173920D01*
X124998758Y-61132427D01*
X125038994Y-61082132D01*
X125094319Y-61028065D01*
X125168504Y-60976512D01*
X125261550Y-60932504D01*
X125377228Y-60902327D01*
X125516797Y-60891011D01*
X125699676Y-60910011D01*
G37*
G36*
X122797092Y-60919930D02*
G01*
X122864990Y-60943820D01*
X122921572Y-61014234D01*
X122939175Y-61147515D01*
X122921572Y-61279540D01*
X122863732Y-61348696D01*
X122794577Y-61372586D01*
X122707818Y-61376358D01*
X122016261Y-61376358D01*
X122016261Y-61600171D01*
X122478975Y-61600171D01*
X122560705Y-61603943D01*
X122621059Y-61625319D01*
X122668839Y-61685673D01*
X122682670Y-61801351D01*
X122668839Y-61910743D01*
X122619801Y-61968582D01*
X122558190Y-61988700D01*
X122476460Y-61992473D01*
X122016261Y-61992473D01*
X122016261Y-62447643D01*
X122012489Y-62534402D01*
X121988598Y-62602300D01*
X121918185Y-62658882D01*
X121784903Y-62676485D01*
X121654136Y-62658882D01*
X121583723Y-62601043D01*
X121559833Y-62531887D01*
X121556061Y-62445128D01*
X121556061Y-61145001D01*
X121607613Y-60965196D01*
X121792448Y-60916158D01*
X122712847Y-60916158D01*
X122797092Y-60919930D01*
G37*
G36*
X125778412Y-55777029D02*
G01*
X125829914Y-55961149D01*
X125829914Y-57300205D01*
X125778412Y-57480462D01*
X125595579Y-57531964D01*
X125415322Y-57480462D01*
X125363820Y-57297629D01*
X125363820Y-56427243D01*
X125338069Y-56450419D01*
X125179699Y-56525097D01*
X125026481Y-56434968D01*
X124946652Y-56265011D01*
X124976266Y-56182608D01*
X125054807Y-56095054D01*
X125381845Y-55801492D01*
X125423047Y-55768016D01*
X125598154Y-55724239D01*
X125778412Y-55777029D01*
G37*
D12*
%TO.C,RN2*%
X112320000Y-73600000D02*
X112320000Y-72600000D01*
X115680000Y-73600000D02*
X115680000Y-72600000D01*
%TO.C,J5*%
X83000000Y-56000000D02*
X109000000Y-56000000D01*
X109000000Y-68000000D01*
X83000000Y-68000000D01*
X83000000Y-56000000D01*
%TO.C,R2*%
X129572936Y-74865000D02*
X130027064Y-74865000D01*
X129572936Y-76335000D02*
X130027064Y-76335000D01*
%TO.C,J4*%
X83000000Y-38800000D02*
X109000000Y-38800000D01*
X109000000Y-50800000D01*
X83000000Y-50800000D01*
X83000000Y-38800000D01*
%TO.C,U1*%
X127762500Y-65840000D02*
X125812500Y-65840000D01*
X127762500Y-65840000D02*
X129712500Y-65840000D01*
X127762500Y-70960000D02*
X125812500Y-70960000D01*
X127762500Y-70960000D02*
X129712500Y-70960000D01*
X130715000Y-71290000D02*
X130235000Y-71290000D01*
X130475000Y-70960000D01*
X130715000Y-71290000D01*
G36*
X130715000Y-71290000D02*
G01*
X130235000Y-71290000D01*
X130475000Y-70960000D01*
X130715000Y-71290000D01*
G37*
%TO.C,J3*%
X130650000Y-59850000D02*
X130650000Y-56850000D01*
X130890000Y-39390000D02*
X140110000Y-39390000D01*
X130890000Y-59610000D02*
X130890000Y-39390000D01*
X130890000Y-59610000D02*
X140110000Y-59610000D01*
X133650000Y-59850000D02*
X130650000Y-59850000D01*
X140110000Y-59610000D02*
X140110000Y-39390000D01*
%TO.C,R1*%
X121265000Y-69227064D02*
X121265000Y-68772936D01*
X122735000Y-69227064D02*
X122735000Y-68772936D01*
%TO.C,C1*%
X130011252Y-72265000D02*
X129488748Y-72265000D01*
X130011252Y-73735000D02*
X129488748Y-73735000D01*
%TO.C,SW1*%
X111285000Y-54110000D02*
X111285000Y-55493000D01*
X111285000Y-54110000D02*
X112668000Y-54110000D01*
X111525000Y-54350000D02*
X111525000Y-55660000D01*
X111525000Y-54350000D02*
X118345000Y-54350000D01*
X111525000Y-57260000D02*
X111525000Y-58200000D01*
X111525000Y-59800000D02*
X111525000Y-60740000D01*
X111525000Y-62340000D02*
X111525000Y-63650000D01*
X111525000Y-63650000D02*
X118345000Y-63650000D01*
X113125000Y-55825000D02*
X113125000Y-57095000D01*
X113125000Y-55945000D02*
X114331667Y-55945000D01*
X113125000Y-56065000D02*
X114331667Y-56065000D01*
X113125000Y-56185000D02*
X114331667Y-56185000D01*
X113125000Y-56305000D02*
X114331667Y-56305000D01*
X113125000Y-56425000D02*
X114331667Y-56425000D01*
X113125000Y-56545000D02*
X114331667Y-56545000D01*
X113125000Y-56665000D02*
X114331667Y-56665000D01*
X113125000Y-56785000D02*
X114331667Y-56785000D01*
X113125000Y-56905000D02*
X114331667Y-56905000D01*
X113125000Y-57025000D02*
X114331667Y-57025000D01*
X113125000Y-57095000D02*
X116745000Y-57095000D01*
X113125000Y-58365000D02*
X113125000Y-59635000D01*
X113125000Y-58485000D02*
X114331667Y-58485000D01*
X113125000Y-58605000D02*
X114331667Y-58605000D01*
X113125000Y-58725000D02*
X114331667Y-58725000D01*
X113125000Y-58845000D02*
X114331667Y-58845000D01*
X113125000Y-58965000D02*
X114331667Y-58965000D01*
X113125000Y-59085000D02*
X114331667Y-59085000D01*
X113125000Y-59205000D02*
X114331667Y-59205000D01*
X113125000Y-59325000D02*
X114331667Y-59325000D01*
X113125000Y-59445000D02*
X114331667Y-59445000D01*
X113125000Y-59565000D02*
X114331667Y-59565000D01*
X113125000Y-59635000D02*
X116745000Y-59635000D01*
X113125000Y-60905000D02*
X113125000Y-62175000D01*
X113125000Y-61025000D02*
X114331667Y-61025000D01*
X113125000Y-61145000D02*
X114331667Y-61145000D01*
X113125000Y-61265000D02*
X114331667Y-61265000D01*
X113125000Y-61385000D02*
X114331667Y-61385000D01*
X113125000Y-61505000D02*
X114331667Y-61505000D01*
X113125000Y-61625000D02*
X114331667Y-61625000D01*
X113125000Y-61745000D02*
X114331667Y-61745000D01*
X113125000Y-61865000D02*
X114331667Y-61865000D01*
X113125000Y-61985000D02*
X114331667Y-61985000D01*
X113125000Y-62105000D02*
X114331667Y-62105000D01*
X113125000Y-62175000D02*
X116745000Y-62175000D01*
X114331667Y-55825000D02*
X114331667Y-57095000D01*
X114331667Y-58365000D02*
X114331667Y-59635000D01*
X114331667Y-60905000D02*
X114331667Y-62175000D01*
X116745000Y-55825000D02*
X113125000Y-55825000D01*
X116745000Y-57095000D02*
X116745000Y-55825000D01*
X116745000Y-58365000D02*
X113125000Y-58365000D01*
X116745000Y-59635000D02*
X116745000Y-58365000D01*
X116745000Y-60905000D02*
X113125000Y-60905000D01*
X116745000Y-62175000D02*
X116745000Y-60905000D01*
X118345000Y-54350000D02*
X118345000Y-55660000D01*
X118345000Y-57260000D02*
X118345000Y-58200000D01*
X118345000Y-59800000D02*
X118345000Y-60740000D01*
X118345000Y-62340000D02*
X118345000Y-63650000D01*
%TD*%
M02*
