%TF.GenerationSoftware,KiCad,Pcbnew,8.0.3*%
%TF.CreationDate,2024-07-17T13:05:47-05:00*%
%TF.ProjectId,LLTB_Panel,4c4c5442-5f50-4616-9e65-6c2e6b696361,rev?*%
%TF.SameCoordinates,Original*%
%TF.FileFunction,Profile,NP*%
%FSLAX46Y46*%
G04 Gerber Fmt 4.6, Leading zero omitted, Abs format (unit mm)*
G04 Created by KiCad (PCBNEW 8.0.3) date 2024-07-17 13:05:47*
%MOMM*%
%LPD*%
G01*
G04 APERTURE LIST*
%TA.AperFunction,Profile*%
%ADD10C,0.100000*%
%TD*%
G04 APERTURE END LIST*
D10*
X208537408Y-107610091D02*
X208563087Y-107495518D01*
X90201227Y-51279441D02*
X90040198Y-51743305D01*
X180352224Y-90432346D02*
X187477561Y-90420096D01*
X207054311Y-149547068D02*
X207103701Y-149427690D01*
X153528663Y-33207534D02*
X153196953Y-33485935D01*
X144980661Y-31781544D02*
X145278538Y-32036141D01*
X93666835Y-91681011D02*
X93363228Y-91550583D01*
X210235177Y-44436767D02*
X210171779Y-44593933D01*
X139153211Y-90262450D02*
X139567946Y-90231699D01*
X144483072Y-112846515D02*
X144485551Y-112826443D01*
X209101778Y-149764052D02*
X209038041Y-149962699D01*
X90420059Y-97125383D02*
X90795067Y-96762118D01*
X210032809Y-109340213D02*
X209957763Y-109491810D01*
X131138569Y-26132893D02*
X132603825Y-26461787D01*
X130734872Y-28092043D02*
X129363650Y-27834547D01*
X209176122Y-116999628D02*
X209214831Y-117284703D01*
X152307223Y-112899970D02*
X152266950Y-112983585D01*
X150744647Y-51743305D02*
X150611173Y-52184749D01*
X145321357Y-86865187D02*
X145498607Y-86619085D01*
X205173421Y-98445338D02*
X204921822Y-98208608D01*
X86455237Y-43444132D02*
X86367550Y-42946153D01*
X208884613Y-51330739D02*
X208955194Y-51552212D01*
X207403174Y-45547717D02*
X207454244Y-45439509D01*
X205187112Y-48429750D02*
X205187521Y-48408892D01*
X198893890Y-92518229D02*
X199501663Y-92761788D01*
X86376716Y-40501304D02*
X86418934Y-40172852D01*
X91715974Y-88000634D02*
X91999497Y-88280002D01*
X207257844Y-53347644D02*
X207229607Y-53091061D01*
X206532666Y-150542290D02*
X206685117Y-150273884D01*
X94289519Y-91907300D02*
X93975561Y-91800071D01*
X146540618Y-84513972D02*
X146565705Y-84382521D01*
X147142731Y-152196082D02*
X146922842Y-152501386D01*
X88313913Y-41282534D02*
X88300685Y-41550985D01*
X94421637Y-89828528D02*
X94658849Y-89920009D01*
X180352224Y-90938623D02*
X180352224Y-90936623D01*
X206588209Y-35574954D02*
X206363035Y-35295685D01*
X88442443Y-40172199D02*
X88399501Y-40452051D01*
X149326555Y-43829653D02*
X149463341Y-44234554D01*
X199387430Y-90289464D02*
X199857660Y-90262450D01*
X145498607Y-86619085D02*
X145667545Y-86365593D01*
X146608888Y-148524439D02*
X146628501Y-148355072D01*
X152324210Y-48336221D02*
X152332625Y-48353678D01*
X150502602Y-36630361D02*
X150271567Y-37007386D01*
X202910331Y-94350071D02*
X203421478Y-94631863D01*
X204665355Y-97978562D02*
X204403888Y-97755085D01*
X141268795Y-31679628D02*
X140696898Y-31388183D01*
X140902540Y-29265530D02*
X141586959Y-29597038D01*
X207372014Y-83522906D02*
X207416341Y-81951173D01*
X204539603Y-155252630D02*
X203515803Y-155842676D01*
X190461286Y-154850900D02*
X192988706Y-154840968D01*
X87165100Y-37329658D02*
X87365627Y-36884884D01*
X201231590Y-156576824D02*
X200853078Y-156623030D01*
X91468657Y-112607066D02*
X91536300Y-112672724D01*
X114644562Y-25061332D02*
X116647775Y-25013421D01*
X155339239Y-32013079D02*
X154748967Y-32362892D01*
X139471535Y-28612543D02*
X140185190Y-28931850D01*
X165268910Y-26315454D02*
X166317728Y-26078385D01*
X96203036Y-154723956D02*
X96497619Y-154759316D01*
X92292389Y-152980305D02*
X92593144Y-153224268D01*
X208409465Y-108045712D02*
X208445707Y-107938990D01*
X148826238Y-150622251D02*
X148652474Y-150174993D01*
X89353109Y-98297635D02*
X89698035Y-97894821D01*
X208683017Y-40995342D02*
X208635865Y-40521602D01*
X155603221Y-90001952D02*
X155847683Y-90074863D01*
X91197613Y-99218518D02*
X90891695Y-99575777D01*
X201583664Y-92084452D02*
X201231590Y-92139201D01*
X143432840Y-97538060D02*
X143160975Y-97327372D01*
X91374388Y-154810914D02*
X90993954Y-154502318D01*
X208966730Y-85718525D02*
X208889568Y-85905030D01*
X93463314Y-153794701D02*
X93707972Y-153929407D01*
X180536944Y-25017127D02*
X183159502Y-25114959D01*
X144080789Y-152626741D02*
X144308856Y-152424038D01*
X151019420Y-100313974D02*
X150752541Y-100690184D01*
X141525731Y-156379314D02*
X141210754Y-156456868D01*
X149146892Y-104609822D02*
X149103950Y-104889674D01*
X149018362Y-41282534D02*
X149005134Y-41550985D01*
X203306593Y-91518639D02*
X203071858Y-91634510D01*
X86667481Y-38872486D02*
X86749270Y-38554926D01*
X152866475Y-33784836D02*
X152539191Y-34101872D01*
X86342858Y-40829458D02*
X86376716Y-40501304D01*
X89356950Y-101818896D02*
X89169613Y-102187282D01*
X209358096Y-119518686D02*
X209383925Y-120569976D01*
X207445088Y-143026545D02*
X207448713Y-132377140D01*
X146493835Y-117298006D02*
X146459244Y-117089629D01*
X151698403Y-154502318D02*
X151333655Y-154175194D01*
X88679178Y-103518115D02*
X88610782Y-103783675D01*
X104564461Y-26315454D02*
X105613279Y-26078385D01*
X97285417Y-28540200D02*
X98096337Y-28226772D01*
X86937652Y-37933823D02*
X87045361Y-37631152D01*
X88701708Y-34693832D02*
X89020545Y-34272732D01*
X215704449Y-20000000D02*
X81295551Y-20000000D01*
X206021411Y-49843764D02*
X205891044Y-49618159D01*
X150271567Y-37007386D02*
X150061399Y-37381273D01*
X202422490Y-96364918D02*
X201973244Y-96117251D01*
X153528663Y-97645157D02*
X153196953Y-97923558D01*
X203786242Y-153367231D02*
X204049091Y-153192567D01*
X206403321Y-46932791D02*
X206711629Y-46558196D01*
X89115772Y-113205687D02*
X88834420Y-112887601D01*
X206903432Y-153364939D02*
X206641300Y-153634578D01*
X144789980Y-154617858D02*
X144479910Y-154839480D01*
X124868043Y-27288165D02*
X122348151Y-27112363D01*
X93666835Y-156118634D02*
X93363228Y-155988206D01*
X141527090Y-154256541D02*
X141682024Y-154180062D01*
X205013305Y-152424038D02*
X205232789Y-152214214D01*
X151641136Y-87082685D02*
X151887512Y-87399946D01*
X207313337Y-84086816D02*
X207332950Y-83917449D01*
X208201838Y-38617409D02*
X208034924Y-38149619D01*
X146007180Y-110995819D02*
X146270102Y-110666405D01*
X126485893Y-27444091D02*
X124868043Y-27288165D01*
X210678483Y-40850507D02*
X210704449Y-41418220D01*
X209038041Y-149962699D02*
X208966730Y-150156148D01*
X86667481Y-103310109D02*
X86749270Y-102992549D01*
X146479656Y-149194471D02*
X146512188Y-149075518D01*
X207125655Y-52462324D02*
X207083987Y-52287732D01*
X207396612Y-88360501D02*
X207155269Y-88648429D01*
X147665543Y-43714370D02*
X147705016Y-43608089D01*
X146654623Y-55145318D02*
X146621399Y-54308876D01*
X145856707Y-32567316D02*
X146137069Y-32843891D01*
X86937652Y-102371446D02*
X87045361Y-102068775D01*
X91628176Y-112791301D02*
X91631043Y-112805103D01*
X144502835Y-48524892D02*
X144488276Y-48474595D01*
X208509443Y-43284166D02*
X208537408Y-43172468D01*
X146334060Y-52124626D02*
X146284591Y-51969399D01*
X87593103Y-100875190D02*
X87842141Y-100432154D01*
X140148629Y-156623030D02*
X139736812Y-156662291D01*
X150758512Y-33065892D02*
X151124508Y-32687760D01*
X88310632Y-42308726D02*
X88348940Y-42665722D01*
X148501000Y-124656434D02*
X150266479Y-124656434D01*
X146692163Y-152798124D02*
X146450820Y-153086052D01*
X147141377Y-102126981D02*
X146930685Y-101676363D01*
X207370706Y-45627411D02*
X207403174Y-45547717D01*
X206133788Y-35023795D02*
X205900336Y-34759169D01*
X146155830Y-85509325D02*
X146228910Y-85366518D01*
X146744264Y-67939517D02*
X146729693Y-62756499D01*
X87801731Y-149717379D02*
X87676796Y-149210205D01*
X89698035Y-97894821D02*
X90054063Y-97503515D01*
X149005134Y-41550985D02*
X149000000Y-41812571D01*
X88121789Y-150622251D02*
X87948025Y-150174993D01*
X208034924Y-102587242D02*
X207845826Y-102126981D01*
X200636961Y-154634566D02*
X200956684Y-154595536D01*
X149000000Y-41812571D02*
X149003227Y-42065687D01*
X125033602Y-25294854D02*
X126701467Y-25455600D01*
X207332950Y-83917449D02*
X207372014Y-83522906D01*
X89549426Y-144763062D02*
X89564802Y-146449646D01*
X209134821Y-46612842D02*
X209009740Y-46828920D01*
X92900258Y-89009860D02*
X93212222Y-89210300D01*
X209285157Y-110689066D02*
X209279814Y-110717525D01*
X206278861Y-114760354D02*
X206151985Y-114518665D01*
X95922135Y-154682101D02*
X96203036Y-154723956D01*
X116647775Y-154871448D02*
X116647775Y-156871448D01*
X91834742Y-34101872D02*
X91512616Y-34434679D01*
X90054063Y-33065892D02*
X90420059Y-32687760D01*
X207612914Y-113038164D02*
X207763542Y-113298831D01*
X137554734Y-90333360D02*
X138151930Y-90313011D01*
X89613140Y-84030892D02*
X89628990Y-84269224D01*
X208056182Y-87444851D02*
X207847180Y-87758459D01*
X152539191Y-34101872D02*
X152217065Y-34434679D01*
X142810136Y-153534998D02*
X143081793Y-153367231D01*
X144484379Y-112889210D02*
X144482663Y-112867373D01*
X149981435Y-45440983D02*
X150183029Y-45826310D01*
X209323612Y-118650518D02*
X209358096Y-119518686D01*
X148499000Y-124656434D02*
X148501000Y-124656434D01*
X91969123Y-31340991D02*
X92369880Y-31059832D01*
X148501000Y-57218811D02*
X148499000Y-57218811D01*
X207434142Y-127194122D02*
X207422520Y-124656434D01*
X149792886Y-109482059D02*
X149981435Y-109878606D01*
X99594625Y-94249769D02*
X98796571Y-94537940D01*
X95903470Y-95777834D02*
X95254403Y-96109822D01*
X141825237Y-156288327D02*
X141525731Y-156379314D01*
X98822527Y-92402173D02*
X97421050Y-92393526D01*
X205662545Y-98939314D02*
X205420285Y-98688868D01*
X150824634Y-85748201D02*
X151000397Y-86087580D01*
X152149027Y-48744459D02*
X152005900Y-48956046D01*
X143699439Y-97755085D02*
X143432840Y-97538060D01*
X210533560Y-39696064D02*
X210620953Y-40272499D01*
X149119474Y-107478643D02*
X149211231Y-107868026D01*
X89330301Y-88274921D02*
X89048371Y-87877218D01*
X158125499Y-156831149D02*
X157712335Y-156808604D01*
X208733097Y-50921707D02*
X208810949Y-51123445D01*
X89646382Y-148844029D02*
X89727434Y-149173061D01*
X149874062Y-102187282D02*
X149711521Y-102547802D01*
X201700047Y-154450112D02*
X201893651Y-154391297D01*
X205840200Y-87103944D02*
X206025806Y-86865187D01*
X89478580Y-110263933D02*
X89691115Y-110633824D01*
X209009740Y-111266543D02*
X208898467Y-111432776D01*
X206841518Y-32843891D02*
X207116129Y-33127781D01*
X145801459Y-115227913D02*
X145693687Y-114999190D01*
X150350831Y-148844029D02*
X150431883Y-149173061D01*
X142205882Y-29912448D02*
X142717029Y-30194240D01*
X146284591Y-116407022D02*
X146230949Y-116256070D01*
X208345978Y-39090615D02*
X208201838Y-38617409D01*
X147741258Y-107938990D02*
X147774505Y-107831218D01*
X116647775Y-156871448D02*
X104574513Y-156875246D01*
X154652476Y-89614922D02*
X154889754Y-89727001D01*
X153074329Y-31059832D02*
X153700080Y-30659661D01*
X147927655Y-150874843D02*
X147731924Y-151240170D01*
X210101335Y-37989614D02*
X210273015Y-38553233D01*
X143835154Y-155252630D02*
X142811354Y-155842676D01*
X146651429Y-45688644D02*
X146657705Y-45655216D01*
X132295375Y-156840939D02*
X129763052Y-156850891D01*
X210171779Y-44593933D02*
X210104233Y-44749217D01*
X205795403Y-154386523D02*
X205494429Y-154617858D01*
X87977990Y-47229149D02*
X87724773Y-46788454D01*
X205190000Y-112826443D02*
X205200944Y-112787890D01*
X208586714Y-42939836D02*
X208608526Y-42817683D01*
X205900336Y-99196792D02*
X205662545Y-98939314D01*
X96497619Y-90321693D02*
X96807712Y-90351063D01*
X149039418Y-105446447D02*
X149018362Y-105720157D01*
X132135199Y-92843986D02*
X130734872Y-92529666D01*
X206371994Y-86365593D02*
X206532666Y-86104667D01*
X157994875Y-30702737D02*
X157286556Y-31017071D01*
X209358934Y-46112678D02*
X209294668Y-46232763D01*
X145893823Y-51001636D02*
X145801459Y-50790290D01*
X149196598Y-39893512D02*
X149146892Y-40172199D01*
X205184359Y-154839480D02*
X204865437Y-155051405D01*
X100422819Y-93970233D02*
X99594625Y-94249769D01*
X149724994Y-34272732D02*
X150057558Y-33860012D01*
X206062814Y-111773922D02*
X206403321Y-111370414D01*
X87568782Y-121656434D02*
X87578054Y-117540114D01*
X208808068Y-86084717D02*
X208723004Y-86259590D01*
X208280410Y-108365670D02*
X208327052Y-108258443D01*
X140252235Y-154595536D02*
X140532440Y-154551963D01*
X200059425Y-95189077D02*
X199374312Y-94882541D01*
X165272478Y-156875246D02*
X158125499Y-156831149D01*
X144941743Y-151773024D02*
X145135751Y-151541567D01*
X140532440Y-154551963D02*
X140778452Y-154503578D01*
X156626584Y-90244478D02*
X156907485Y-90286333D01*
X140252235Y-90157913D02*
X140532440Y-90114340D01*
X151893731Y-112374921D02*
X151997330Y-112456063D01*
X92995631Y-30659661D02*
X93642689Y-30276195D01*
X204403888Y-33317462D02*
X204137289Y-33100437D01*
X140527141Y-156576824D02*
X140148629Y-156623030D01*
X207422520Y-60218811D02*
X209422541Y-60218811D01*
X168320235Y-25706435D02*
X170504164Y-25415783D01*
X146698987Y-101237501D02*
X146446874Y-100812507D01*
X210443148Y-108233140D02*
X210398189Y-108394506D01*
X147904077Y-107255306D02*
X147963343Y-106814841D01*
X127965876Y-27622391D02*
X126485893Y-27444091D01*
X152703946Y-152717625D02*
X152996838Y-152980305D01*
X101281266Y-29261666D02*
X100422819Y-29532610D01*
X147525381Y-44036661D02*
X147575961Y-43928047D01*
X91770847Y-155099066D02*
X91374388Y-154810914D01*
X91602774Y-112899970D02*
X91562501Y-112983585D01*
X151088040Y-50807225D02*
X150905676Y-51279441D01*
X209301802Y-53826010D02*
X209323612Y-54212895D01*
X191439321Y-28092043D02*
X190068099Y-27834547D01*
X151548695Y-112104116D02*
X151666031Y-112203824D01*
X90048092Y-36252561D02*
X89798153Y-36630361D01*
X208632104Y-86437220D02*
X208436373Y-86802547D01*
X93064274Y-155846994D02*
X92769042Y-155695552D01*
X91197613Y-34780895D02*
X90891695Y-35138154D01*
X202230180Y-91941691D02*
X201915203Y-92019245D01*
X149252799Y-39617594D02*
X149196598Y-39893512D01*
X91606082Y-112752995D02*
X91619761Y-112773844D01*
X183159502Y-25114959D02*
X185738051Y-25294854D01*
X208345978Y-103528238D02*
X208201838Y-103055032D01*
X105613279Y-26078385D02*
X106577297Y-25884163D01*
X146512188Y-84637895D02*
X146540618Y-84513972D01*
X202539169Y-89659536D02*
X203514585Y-89097375D01*
X206505908Y-50790290D02*
X206398136Y-50561567D01*
X150350831Y-84406406D02*
X150431883Y-84735438D01*
X146284591Y-51969399D02*
X146230949Y-51818447D01*
X210704449Y-105912132D02*
X210698827Y-106443672D01*
X209176122Y-52562005D02*
X209214831Y-52847080D01*
X137611538Y-156770208D02*
X136176323Y-156802865D01*
X151700933Y-113918748D02*
X151491889Y-114331623D01*
X206641300Y-153634578D02*
X206369094Y-153894804D01*
X152335492Y-112805103D02*
X152330730Y-112835004D01*
X147665543Y-108151993D02*
X147705016Y-108045712D01*
X152005900Y-48956046D02*
X151906427Y-49116163D01*
X205443737Y-151997224D02*
X205646192Y-151773024D01*
X93155191Y-32951995D02*
X92824214Y-33207534D01*
X209369230Y-148087406D02*
X209321582Y-148568648D01*
X207385059Y-33418976D02*
X207648387Y-33717468D01*
X147622603Y-43820820D02*
X147665543Y-43714370D01*
X87586585Y-83291530D02*
X87564959Y-82038394D01*
X208635865Y-40521602D02*
X208563581Y-40044825D01*
X150431883Y-84735438D02*
X150538871Y-85070101D01*
X146718071Y-124656434D02*
X148499000Y-124656434D01*
X198315987Y-156770208D02*
X196880772Y-156802865D01*
X207292658Y-148678611D02*
X207313337Y-148524439D01*
X151285518Y-114778345D02*
X151088040Y-115244848D01*
X92492504Y-33485935D02*
X92162026Y-33784836D01*
X154187921Y-32721683D02*
X153859640Y-32951995D01*
X207155269Y-88648429D02*
X206903432Y-88927316D01*
X142883713Y-97122904D02*
X142600921Y-96924540D01*
X208436373Y-151240170D02*
X208254243Y-151560829D01*
X153196953Y-97923558D02*
X152866475Y-98222459D01*
X207146713Y-149311010D02*
X207184105Y-149194471D01*
X170504164Y-25415783D02*
X172864074Y-25200235D01*
X88298778Y-42065687D02*
X88310632Y-42308726D01*
X146174935Y-100403494D02*
X145883760Y-100012577D01*
X88310632Y-106746349D02*
X88348940Y-107103345D01*
X175428753Y-27059997D02*
X173010890Y-27195151D01*
X145186595Y-49618159D02*
X145060338Y-49411488D01*
X90936687Y-87082685D02*
X91183063Y-87399946D01*
X208059098Y-113848672D02*
X208197620Y-114126048D01*
X202230180Y-156379314D02*
X201915203Y-156456868D01*
X150395564Y-110633824D02*
X150616936Y-110984060D01*
X208466756Y-104004748D02*
X208345978Y-103528238D01*
X144160988Y-155051405D02*
X143835154Y-155252630D01*
X205013305Y-87986415D02*
X205232789Y-87776591D01*
X149018362Y-105720157D02*
X149005134Y-105988608D01*
X143598727Y-153010960D02*
X143844094Y-152822366D01*
X139354976Y-95189077D02*
X138669863Y-94882541D01*
X200272395Y-90231699D02*
X200636961Y-90196943D01*
X206363035Y-99733308D02*
X206133788Y-99461418D01*
X207216637Y-84637895D02*
X207245067Y-84513972D01*
X92162026Y-98222459D02*
X91834742Y-98539495D01*
X177352224Y-90938623D02*
X177352224Y-91451616D01*
X208723004Y-86259590D02*
X208632104Y-86437220D01*
X119647775Y-156869972D02*
X119647775Y-154869969D01*
X198396522Y-92342254D02*
X198893890Y-92518229D01*
X208563087Y-43057895D02*
X208586714Y-42939836D01*
X146411680Y-33127781D02*
X146680610Y-33418976D01*
X208327052Y-108258443D02*
X208369992Y-108151993D01*
X147904077Y-42817683D02*
X147963343Y-42377218D01*
X167648016Y-27850558D02*
X166735761Y-28034351D01*
X135245798Y-93689033D02*
X133620288Y-93226614D01*
X152335492Y-48367480D02*
X152330730Y-48397381D01*
X149000000Y-106250194D02*
X149003227Y-106503310D01*
X161127268Y-93970233D02*
X160299074Y-94249769D01*
X138682981Y-154727087D02*
X139153211Y-154700073D01*
X159639572Y-27923892D02*
X160506422Y-27631309D01*
X207521657Y-45307102D02*
X207603157Y-45154815D01*
X91443328Y-152144228D02*
X91715974Y-152438257D01*
X95018005Y-93984301D02*
X95746419Y-93637459D01*
X208466756Y-39567125D02*
X208345978Y-39090615D01*
X145664645Y-153894804D02*
X145382593Y-154145488D01*
X206711629Y-110995819D02*
X206974551Y-110666405D01*
X146334060Y-116562249D02*
X146284591Y-116407022D01*
X140995598Y-154450112D02*
X141189202Y-154391297D01*
X140778452Y-90065955D02*
X140995598Y-90012489D01*
X150266479Y-60218811D02*
X150247692Y-68560428D01*
X89356950Y-37381273D02*
X89169613Y-37749659D01*
X96284115Y-156748044D02*
X95936427Y-156706310D01*
X208265404Y-47817564D02*
X207939740Y-48213246D01*
X146474446Y-45960813D02*
X146550531Y-45854953D01*
X206274994Y-32298065D02*
X206561156Y-32567316D01*
X208197620Y-114126048D02*
X208327198Y-114401049D01*
X198856379Y-154750634D02*
X199387430Y-154727087D01*
X92593144Y-88786645D02*
X92900258Y-89009860D01*
X160299074Y-29812146D02*
X159501020Y-30100317D01*
X149103950Y-40452051D02*
X149068036Y-40731461D01*
X153700080Y-30659661D02*
X154347138Y-30276195D01*
X97421050Y-156831149D02*
X97007886Y-156808604D01*
X145658586Y-35295685D02*
X145429339Y-35023795D01*
X104574199Y-154875246D02*
X116647775Y-154871448D01*
X146399252Y-84990067D02*
X146442264Y-84873387D01*
X100697093Y-27348790D02*
X101620696Y-27076128D01*
X205190000Y-48388820D02*
X205200944Y-48350267D01*
X153473491Y-155695552D02*
X153180625Y-155534304D01*
X149457720Y-38822518D02*
X149383627Y-39080492D01*
X144715836Y-98688868D02*
X144468972Y-98445338D01*
X89020545Y-98710355D02*
X89353109Y-98297635D01*
X156098511Y-154576872D02*
X156357535Y-154633242D01*
X203515803Y-155842676D02*
X203306593Y-155956262D01*
X124868043Y-91725788D02*
X122348151Y-91549986D01*
X165724330Y-28262969D02*
X164743725Y-28499967D01*
X146230949Y-51818447D02*
X146172954Y-51668166D01*
X147094935Y-109245489D02*
X147347651Y-108814532D01*
X206989040Y-51969399D02*
X206935398Y-51818447D01*
X87637360Y-84461526D02*
X87615418Y-84131578D01*
X207325848Y-54308876D02*
X207305783Y-53952946D01*
X205188828Y-48451587D02*
X205187112Y-48429750D01*
X203865424Y-32889749D02*
X203588162Y-32685281D01*
X139736812Y-156662291D02*
X139284517Y-156695827D01*
X205420285Y-34251245D02*
X205173421Y-34007715D01*
X210032809Y-44902590D02*
X209957763Y-45054187D01*
X151887512Y-151837569D02*
X152147777Y-152144228D01*
X147549794Y-151560829D02*
X147351733Y-151882474D01*
X90048092Y-100690184D02*
X89798153Y-101067984D01*
X154067677Y-155988206D02*
X153768723Y-155846994D01*
X149252799Y-104055217D02*
X149196598Y-104331135D01*
X150538871Y-149507724D02*
X150670290Y-149845988D01*
X145278538Y-32036141D02*
X145570545Y-32298065D01*
X149537244Y-103011361D02*
X149457720Y-103260141D01*
X91201978Y-113553786D02*
X90996484Y-113918748D01*
X142602144Y-155956262D02*
X142367409Y-156072133D01*
X152332625Y-48353678D02*
X152335492Y-48367480D01*
X86839186Y-102679483D02*
X86937652Y-102371446D01*
X86418934Y-104610475D02*
X86469257Y-104282516D01*
X154347138Y-30276195D02*
X155021244Y-29905336D01*
X194847937Y-26858476D02*
X196514735Y-27332641D01*
X207270154Y-84382521D02*
X207292658Y-84240988D01*
X146198983Y-153364939D02*
X145936851Y-153634578D01*
X91178394Y-96415418D02*
X91569695Y-96087002D01*
X146651429Y-110126267D02*
X146657705Y-110092839D01*
X145195887Y-34759169D02*
X144958096Y-34501691D01*
X89543243Y-132998051D02*
X89535552Y-139927520D01*
X139284517Y-156695827D02*
X138784636Y-156724544D01*
X147995121Y-41925263D02*
X148000000Y-41463934D01*
X152866475Y-98222459D02*
X152539191Y-98539495D01*
X207906205Y-98460867D02*
X208169240Y-98787092D01*
X86367550Y-107383776D02*
X86315840Y-106901890D01*
X168620951Y-92121672D02*
X167648016Y-92288181D01*
X146293334Y-149671699D02*
X146349862Y-149547068D01*
X205703299Y-112190079D02*
X206062814Y-111773922D01*
X146349862Y-149547068D02*
X146399252Y-149427690D01*
X152147777Y-152144228D02*
X152420423Y-152438257D01*
X154993968Y-156344923D02*
X154680010Y-156237694D01*
X87265894Y-45868925D02*
X87062110Y-45394663D01*
X207257844Y-117785267D02*
X207229607Y-117528684D01*
X89630092Y-88660966D02*
X89330301Y-88274921D01*
X87637360Y-148899149D02*
X87615418Y-148569201D01*
X104039276Y-92937590D02*
X103089381Y-93183011D01*
X155966093Y-156594867D02*
X155637072Y-156523264D01*
X209285157Y-46251443D02*
X209279814Y-46279902D01*
X144488276Y-48474595D02*
X144484379Y-48451587D01*
X149711521Y-38110179D02*
X149621933Y-38335756D01*
X90295948Y-150525203D02*
X90491623Y-150862096D01*
X209020612Y-116224457D02*
X209079462Y-116471044D01*
X209271669Y-84530999D02*
X209240489Y-84727095D01*
X90629206Y-89737571D02*
X90280108Y-89393589D01*
X210584935Y-43126959D02*
X210551912Y-43311896D01*
X203588162Y-97122904D02*
X203305370Y-96924540D01*
X144515051Y-48312555D02*
X144527045Y-48293534D01*
X151088040Y-115244848D02*
X150905676Y-115717064D01*
X206598272Y-51001636D02*
X206505908Y-50790290D01*
X208436373Y-86802547D02*
X208254243Y-87123206D01*
X150247692Y-68560428D02*
X150240001Y-75489897D01*
X87578054Y-53102491D02*
X87985388Y-51628831D01*
X95653086Y-154633242D02*
X95922135Y-154682101D01*
X205260633Y-112691825D02*
X205296271Y-112649491D01*
X90140590Y-46872802D02*
X90373320Y-47171078D01*
X150845039Y-46872802D02*
X151077769Y-47171078D01*
X95018005Y-29546678D02*
X95746419Y-29199836D01*
X157712335Y-156808604D02*
X157345090Y-156781812D01*
X92824214Y-33207534D02*
X92492504Y-33485935D01*
X161401542Y-27348790D02*
X162325145Y-27076128D01*
X149489740Y-151906390D02*
X149246670Y-151487896D01*
X137554734Y-154770983D02*
X138151930Y-154750634D01*
X90295948Y-86087580D02*
X90491623Y-86424473D01*
X195950247Y-93689033D02*
X194324737Y-93226614D01*
X208563581Y-40044825D02*
X208466756Y-39567125D01*
X166735761Y-92471974D02*
X165724330Y-92700592D01*
X88415025Y-43041020D02*
X88506782Y-43430403D01*
X210678483Y-105288130D02*
X210704449Y-105855843D01*
X156907485Y-90286333D02*
X157202068Y-90321693D01*
X210294164Y-44277944D02*
X210235177Y-44436767D01*
X86342858Y-105267081D02*
X86376716Y-104938927D01*
X148501000Y-121656434D02*
X148499000Y-121656434D01*
X147201756Y-34023244D02*
X147464791Y-34349469D01*
X97007886Y-156808604D02*
X96640641Y-156781812D01*
X187405916Y-25455600D02*
X188940060Y-25640425D01*
X93948027Y-89614922D02*
X94185305Y-89727001D01*
X209383925Y-120569976D02*
X209400211Y-121656434D01*
X86877248Y-109351226D02*
X86713034Y-108865135D01*
X90314971Y-100313974D02*
X90048092Y-100690184D01*
X91078233Y-112292820D02*
X91189282Y-112374921D01*
X202231539Y-154256541D02*
X202386473Y-154180062D01*
X207254980Y-45854953D02*
X207311474Y-45770555D01*
X89798153Y-101067984D02*
X89567118Y-101445009D01*
X151641136Y-151520308D02*
X151887512Y-151837569D01*
X122348151Y-27112363D02*
X119788602Y-27016881D01*
X209301802Y-118263633D02*
X209323612Y-118650518D01*
X150240001Y-75489897D02*
X150253875Y-80325439D01*
X198188060Y-29952368D02*
X197771833Y-29805102D01*
X146729693Y-62756499D02*
X146718071Y-60218811D01*
X88785291Y-151906390D02*
X88542221Y-151487896D01*
X165724330Y-92700592D02*
X164743725Y-92937590D01*
X145667545Y-86365593D02*
X145828217Y-86104667D01*
X209202685Y-84925183D02*
X209156726Y-85125510D01*
X88753271Y-103260141D02*
X88679178Y-103518115D01*
X209079462Y-52033421D02*
X209131221Y-52291523D01*
X134143488Y-26858476D02*
X135810286Y-27332641D01*
X206860279Y-149946948D02*
X206933359Y-149804141D01*
X150824634Y-150185824D02*
X151000397Y-150525203D01*
X144485551Y-112826443D02*
X144496495Y-112787890D01*
X204756102Y-95499180D02*
X205071672Y-95731898D01*
X188940060Y-25640425D02*
X190402823Y-25862445D01*
X162874531Y-28999273D02*
X161985715Y-29261666D01*
X106031312Y-92471974D02*
X105019881Y-92700592D01*
X200272395Y-154669322D02*
X200636961Y-154634566D01*
X90787440Y-49894000D02*
X90581069Y-50340722D01*
X144526786Y-113019800D02*
X144502835Y-112962515D01*
X201915203Y-156456868D02*
X201583664Y-156522075D01*
X143699439Y-33317462D02*
X143432840Y-33100437D01*
X206133788Y-99461418D02*
X205900336Y-99196792D01*
X149463341Y-108672177D02*
X149619487Y-109078510D01*
X150061399Y-37381273D02*
X149874062Y-37749659D01*
X205381342Y-95971884D02*
X205685110Y-96219167D01*
X94185305Y-154164624D02*
X94421637Y-154266151D01*
X91562501Y-112983585D02*
X91527933Y-113046643D01*
X119647775Y-90936623D02*
X119647775Y-90432346D01*
X146718071Y-60218811D02*
X148499000Y-60218811D01*
X126485893Y-91881714D02*
X124868043Y-91725788D01*
X196880772Y-156802865D02*
X195122589Y-156825678D01*
X91536300Y-112672724D02*
X91587424Y-112729017D01*
X87543245Y-132994688D02*
X87562025Y-124656434D01*
X87842141Y-35994531D02*
X88110989Y-35555798D01*
X146446874Y-100812507D02*
X146174935Y-100403494D01*
X104574199Y-90437623D02*
X116647775Y-90433825D01*
X92162026Y-33784836D02*
X91834742Y-34101872D01*
X89577443Y-53376025D02*
X89568787Y-57218811D01*
X209879286Y-109641980D02*
X209792015Y-109801210D01*
X152996838Y-88542682D02*
X153297593Y-88786645D01*
X86367550Y-42946153D02*
X86315840Y-42464267D01*
X208955194Y-51552212D02*
X209020612Y-51786834D01*
X148540832Y-36004774D02*
X148546590Y-35994531D01*
X209248171Y-117587655D02*
X209276934Y-117912503D01*
X162874531Y-93436896D02*
X161985715Y-93699289D01*
X152324957Y-112854206D02*
X152307223Y-112899970D01*
X146550531Y-45854953D02*
X146607025Y-45770555D01*
X154187921Y-97159306D02*
X153859640Y-97389618D01*
X201606989Y-29265530D02*
X202291408Y-29597038D01*
X187480999Y-156857716D02*
X180352224Y-156869972D01*
X146601334Y-53952946D02*
X146578727Y-53633737D01*
X116647775Y-27013993D02*
X114724304Y-27059997D01*
X198259183Y-154770983D02*
X198856379Y-154750634D01*
X145828217Y-150542290D02*
X145980668Y-150273884D01*
X92995631Y-95097284D02*
X93642689Y-94713818D01*
X207346730Y-45709650D02*
X207355878Y-45688644D01*
X146525158Y-53091061D02*
X146493835Y-52860383D01*
X195102426Y-154825772D02*
X196845049Y-154803161D01*
X97481742Y-90393863D02*
X104574199Y-90437623D01*
X148499000Y-60218811D02*
X148501000Y-60218811D01*
X152332625Y-112791301D02*
X152335492Y-112805103D01*
X208563087Y-107495518D02*
X208586714Y-107377459D01*
X88492149Y-39893512D02*
X88442443Y-40172199D01*
X206997783Y-85234076D02*
X207054311Y-85109445D01*
X207799384Y-44807866D02*
X208052100Y-44376909D01*
X149246670Y-151487896D02*
X149024964Y-151059806D01*
X146553395Y-117785267D02*
X146525158Y-117528684D01*
X91386761Y-48096523D02*
X91468657Y-48169443D01*
X90705705Y-151194474D02*
X90936687Y-151520308D01*
X200059425Y-30751454D02*
X199374312Y-30444918D01*
X152996838Y-152980305D02*
X153297593Y-153224268D01*
X90383591Y-115244848D02*
X90201227Y-115717064D01*
X90581069Y-50340722D02*
X90383591Y-50807225D01*
X144527045Y-112731157D02*
X144556184Y-112691825D01*
X106943567Y-92288181D02*
X106031312Y-92471974D01*
X207403436Y-101237501D02*
X207151323Y-100812507D01*
X203016916Y-96732165D02*
X202722667Y-96545663D01*
X190467501Y-156850891D02*
X187480999Y-156857716D01*
X147470626Y-108584892D02*
X147525381Y-108474284D01*
X205219500Y-48312555D02*
X205231494Y-48293534D01*
X147347651Y-108814532D02*
X147411462Y-108698105D01*
X205335116Y-48766050D02*
X205285742Y-48684570D01*
X164258621Y-26559626D02*
X165268910Y-26315454D01*
X94932623Y-156523264D02*
X94608592Y-156440087D01*
X140044806Y-31072334D02*
X139354976Y-30751454D01*
X156607919Y-31340211D02*
X155958852Y-31672199D01*
X205285742Y-113122193D02*
X205246871Y-113051544D01*
X177352224Y-27013993D02*
X175428753Y-27059997D01*
X167648016Y-92288181D02*
X166735761Y-92471974D01*
X208369992Y-43714370D02*
X208409465Y-43608089D01*
X151906427Y-113553786D02*
X151700933Y-113918748D01*
X140995598Y-90012489D02*
X141189202Y-89953674D01*
X205982987Y-32036141D02*
X206274994Y-32298065D01*
X146930685Y-37238740D02*
X146698987Y-36799878D01*
X146550531Y-110292576D02*
X146607025Y-110208178D01*
X200441261Y-92224668D02*
X199988966Y-92258204D01*
X91201978Y-49116163D02*
X90996484Y-49481125D01*
X209437635Y-45971134D02*
X209358934Y-46112678D01*
X165278648Y-154875246D02*
X177352224Y-154871448D01*
X208632104Y-150874843D02*
X208436373Y-151240170D01*
X146621399Y-54308876D02*
X146601334Y-53952946D01*
X95394062Y-90139249D02*
X95653086Y-90195619D01*
X88610782Y-39346052D02*
X88548350Y-39617594D01*
X86713034Y-44427512D02*
X86571519Y-43937588D01*
X188670325Y-92060014D02*
X187190342Y-91881714D01*
X133620288Y-28788991D02*
X132135199Y-28406363D01*
X88137518Y-51125685D02*
X88323122Y-50591032D01*
X183052600Y-27112363D02*
X180493051Y-27016881D01*
X144217373Y-98208608D02*
X143960906Y-97978562D01*
X146711892Y-146388796D02*
X146740639Y-143026545D01*
X208667792Y-106814841D02*
X208699570Y-106362886D01*
X208478954Y-107831218D02*
X208509443Y-107721789D01*
X97290426Y-30702737D02*
X96582107Y-31017071D01*
X200889639Y-93369473D02*
X201606989Y-93703153D01*
X157202068Y-154759316D02*
X157512161Y-154788686D01*
X92369880Y-95497455D02*
X92995631Y-95097284D01*
X203588162Y-32685281D02*
X203305370Y-32486917D01*
X144468972Y-98445338D02*
X144217373Y-98208608D01*
X152291873Y-48291394D02*
X152310531Y-48315372D01*
X138784636Y-156724544D02*
X138230283Y-156749124D01*
X208733097Y-115359330D02*
X208810949Y-115561068D01*
X192839648Y-28406363D02*
X191439321Y-28092043D01*
X209677708Y-101322949D02*
X209902775Y-101870757D01*
X88986885Y-49022625D02*
X89115772Y-48768064D01*
X151596144Y-99575777D02*
X151301275Y-99941717D01*
X150905676Y-51279441D02*
X150744647Y-51743305D01*
X94658849Y-154357632D02*
X94898772Y-154439575D01*
X147978568Y-40995342D02*
X147931416Y-40521602D01*
X202291408Y-29597038D02*
X202910331Y-29912448D01*
X89549426Y-80325439D02*
X89564802Y-82012023D01*
X199501663Y-92761788D02*
X200175984Y-93050166D01*
X210235177Y-108874390D02*
X210171779Y-109031556D01*
X208059098Y-49411049D02*
X208197620Y-49688425D01*
X207083987Y-52287732D02*
X207038509Y-52124626D01*
X151000397Y-86087580D02*
X151196072Y-86424473D01*
X150281892Y-53376025D02*
X150273236Y-57218811D01*
X157286556Y-95454694D02*
X156607919Y-95777834D01*
X208254243Y-87123206D02*
X208056182Y-87444851D01*
X209271669Y-148968622D02*
X209240489Y-149164718D01*
X208898467Y-46995153D02*
X208786417Y-47151053D01*
X195950247Y-29251410D02*
X194324737Y-28788991D01*
X205891044Y-49618159D02*
X205764787Y-49411488D01*
X152147777Y-87706605D02*
X152420423Y-88000634D01*
X144630667Y-48766050D02*
X144581293Y-48684570D01*
X207396612Y-152798124D02*
X207155269Y-153086052D01*
X208327198Y-49963426D02*
X208437080Y-50214856D01*
X91386761Y-112534146D02*
X91468657Y-112607066D01*
X205395438Y-48859898D02*
X205335116Y-48766050D01*
X196514735Y-27332641D02*
X198396522Y-27904631D01*
X144526786Y-48582177D02*
X144502835Y-48524892D01*
X210698827Y-42006049D02*
X210658407Y-42580914D01*
X143844094Y-152822366D02*
X144080789Y-152626741D01*
X206933359Y-149804141D02*
X206997783Y-149671699D01*
X91292881Y-48018440D02*
X91386761Y-48096523D01*
X94421637Y-154266151D02*
X94658849Y-154357632D01*
X86418934Y-40172852D02*
X86469257Y-39844893D01*
X200853078Y-92185407D02*
X200441261Y-92224668D01*
X95261644Y-156594867D02*
X94932623Y-156523264D01*
X89169613Y-102187282D02*
X89007072Y-102547802D01*
X191843018Y-26132893D02*
X193308274Y-26461787D01*
X119788602Y-27016881D02*
X119647775Y-27015950D01*
X209276934Y-117912503D02*
X209301802Y-118263633D01*
X110022693Y-27403743D02*
X107916502Y-27684049D01*
X208197620Y-49688425D02*
X208327198Y-49963426D01*
X207125655Y-116899947D02*
X207083987Y-116725355D01*
X164743725Y-28499967D02*
X163793830Y-28745388D01*
X87676796Y-149210205D02*
X87637360Y-148899149D01*
X207359072Y-119582941D02*
X207325848Y-118746499D01*
X87578054Y-117540114D02*
X87985388Y-116066454D01*
X209445085Y-143035435D02*
X209416099Y-146425540D01*
X145828217Y-86104667D02*
X145980668Y-85836261D01*
X145382593Y-154145488D02*
X145090954Y-154386523D01*
X96203036Y-90286333D02*
X96497619Y-90321693D01*
X91834742Y-98539495D02*
X91512616Y-98872302D01*
X87568782Y-57218811D02*
X87578054Y-53102491D01*
X88363587Y-105169084D02*
X88334969Y-105446447D01*
X146740639Y-143026545D02*
X146744264Y-132377140D01*
X207355878Y-45688644D02*
X207362154Y-45655216D01*
X207454244Y-109877132D02*
X207521657Y-109744725D01*
X90608574Y-47437047D02*
X90844246Y-47666493D01*
X209529119Y-110249527D02*
X209437635Y-110408757D01*
X96807712Y-154788686D02*
X97135143Y-154812573D01*
X87365627Y-101322507D02*
X87593103Y-100875190D01*
X215704449Y-161875246D02*
X215704449Y-20000000D01*
X150273236Y-121656434D02*
X148501000Y-121656434D01*
X209009740Y-46828920D02*
X208898467Y-46995153D01*
X209214831Y-52847080D02*
X209248171Y-53150032D01*
X149003227Y-106503310D02*
X149015081Y-106746349D01*
X146667565Y-147960529D02*
X146711892Y-146388796D01*
X152324210Y-112773844D02*
X152332625Y-112791301D01*
X144998850Y-47752456D02*
X145358365Y-47336299D01*
X95903470Y-31340211D02*
X95254403Y-31672199D01*
X81295551Y-20000000D02*
X81295551Y-161875246D01*
X146698725Y-109985340D02*
X146749795Y-109877132D01*
X207283176Y-118071360D02*
X207257844Y-117785267D01*
X207083987Y-116725355D02*
X207038509Y-116562249D01*
X207384294Y-120609527D02*
X207359072Y-119582941D01*
X88758892Y-44234554D02*
X88915038Y-44640887D01*
X209437635Y-110408757D02*
X209358934Y-110550301D01*
X91488307Y-48675795D02*
X91444578Y-48744459D01*
X205335116Y-113203673D02*
X205285742Y-113122193D01*
X209358096Y-55081063D02*
X209383925Y-56132353D01*
X139354976Y-30751454D02*
X138669863Y-30444918D01*
X92166547Y-155353308D02*
X91770847Y-155099066D01*
X204865437Y-90613782D02*
X204539603Y-90815007D01*
X150670290Y-85408365D02*
X150824634Y-85748201D01*
X119647775Y-154869969D02*
X126773112Y-154857719D01*
X146588209Y-84240988D02*
X146608888Y-84086816D01*
X94932623Y-92085641D02*
X94608592Y-92002464D01*
X148333592Y-149962699D02*
X148262281Y-150156148D01*
X203421478Y-30194240D02*
X203773988Y-30406496D01*
X210584935Y-107564582D02*
X210551912Y-107749519D01*
X89564802Y-146449646D02*
X89585993Y-147677592D01*
X86455237Y-107881755D02*
X86367550Y-107383776D01*
X151882843Y-31977795D02*
X152274144Y-31649379D01*
X146607025Y-45770555D02*
X146642281Y-45709650D01*
X86295551Y-41792946D02*
X86301651Y-41482131D01*
X206203056Y-151056708D02*
X206371994Y-150803216D01*
X88348940Y-42665722D02*
X88415025Y-43041020D01*
X205231235Y-113019800D02*
X205207284Y-112962515D01*
X207313337Y-148524439D02*
X207332950Y-148355072D01*
X207283176Y-53633737D02*
X207257844Y-53347644D01*
X205840200Y-151541567D02*
X206025806Y-151302810D01*
X209131221Y-52291523D02*
X209176122Y-52562005D01*
X89169613Y-37749659D02*
X89007072Y-38110179D01*
X144488276Y-112912218D02*
X144484379Y-112889210D01*
X207245067Y-148951595D02*
X207270154Y-148820144D01*
X206403321Y-111370414D02*
X206711629Y-110995819D01*
X90961582Y-47766201D02*
X91078233Y-47855197D01*
X205891044Y-114055782D02*
X205764787Y-113849111D01*
X106031312Y-28034351D02*
X105019881Y-28262969D01*
X206879384Y-35965871D02*
X206588209Y-35574954D01*
X87985388Y-116066454D02*
X88137518Y-115563308D01*
X88506782Y-43430403D02*
X88622106Y-43829653D01*
X93363228Y-155988206D02*
X93064274Y-155846994D01*
X157512161Y-154788686D02*
X157839592Y-154812573D01*
X152307223Y-48462347D02*
X152266950Y-48545962D01*
X205296271Y-48211868D02*
X205703299Y-47752456D01*
X145693687Y-114999190D02*
X145574412Y-114760354D01*
X88300685Y-41550985D02*
X88295551Y-41812571D01*
X207403436Y-36799878D02*
X207151323Y-36374884D01*
X187190342Y-27444091D02*
X185572492Y-27288165D01*
X94898772Y-90001952D02*
X95143234Y-90074863D01*
X207292658Y-84240988D02*
X207313337Y-84086816D01*
X207346730Y-110147273D02*
X207355878Y-110126267D01*
X205187521Y-112846515D02*
X205190000Y-112826443D01*
X89698035Y-33457198D02*
X90054063Y-33065892D01*
X206025806Y-86865187D02*
X206203056Y-86619085D01*
X151887512Y-87399946D02*
X152147777Y-87706605D01*
X150317589Y-148468515D02*
X150333439Y-148706847D01*
X208889568Y-150342653D02*
X208808068Y-150522340D01*
X209321582Y-84131025D02*
X209297984Y-84334808D01*
X92166547Y-90915685D02*
X91770847Y-90661443D01*
X206087042Y-154145488D02*
X205795403Y-154386523D01*
X149005134Y-105988608D02*
X149000000Y-106250194D01*
X88295551Y-41812571D02*
X88298778Y-42065687D01*
X202422490Y-31927295D02*
X201973244Y-31679628D01*
X141189202Y-89953674D02*
X141364591Y-89889240D01*
X205232789Y-152214214D02*
X205443737Y-151997224D01*
X209902775Y-37433134D02*
X210101335Y-37989614D01*
X207445088Y-78588922D02*
X207448713Y-67939517D01*
X86317692Y-41156593D02*
X86342858Y-40829458D01*
X146992036Y-109424587D02*
X147094935Y-109245489D01*
X86527512Y-103955903D02*
X86593590Y-103631491D01*
X138682981Y-90289464D02*
X139153211Y-90262450D01*
X209240489Y-84727095D02*
X209202685Y-84925183D01*
X146740639Y-78588922D02*
X146744264Y-67939517D01*
X86295551Y-106230569D02*
X86301651Y-105919754D01*
X152310531Y-112752995D02*
X152324210Y-112773844D01*
X91374388Y-90373291D02*
X90993954Y-90064695D01*
X207635134Y-101676363D02*
X207403436Y-101237501D01*
X149621933Y-38335756D02*
X149537244Y-38573738D01*
X144591822Y-48211868D02*
X144998850Y-47752456D01*
X173010890Y-27195151D02*
X170727142Y-27403743D01*
X205192725Y-112912218D02*
X205188828Y-112889210D01*
X149711521Y-102547802D02*
X149621933Y-102773379D01*
X86315840Y-42464267D02*
X86299399Y-42127171D01*
X89946915Y-153471887D02*
X89630092Y-153098589D01*
X148018555Y-150697213D02*
X147927655Y-150874843D01*
X97421050Y-92393526D02*
X97007886Y-92370981D01*
X150240001Y-139927520D02*
X150253875Y-144763062D01*
X205231235Y-48582177D02*
X205207284Y-48524892D01*
X208699570Y-41925263D02*
X208704449Y-41463934D01*
X147931416Y-104959225D02*
X147859132Y-104482448D01*
X146930685Y-101676363D02*
X146698987Y-101237501D01*
X204539603Y-90815007D02*
X203515803Y-91405053D01*
X96497619Y-154759316D02*
X96807712Y-154788686D01*
X138031922Y-94609721D02*
X137483611Y-94389991D01*
X207103701Y-84990067D02*
X207146713Y-84873387D01*
X210273015Y-102990856D02*
X210417309Y-103560144D01*
X142600921Y-32486917D02*
X142312467Y-32294542D01*
X155021244Y-29905336D02*
X155722454Y-29546678D01*
X208169240Y-34349469D02*
X208515271Y-34814032D01*
X152192756Y-48675795D02*
X152149027Y-48744459D01*
X150281892Y-117813648D02*
X150273236Y-121656434D01*
X149315231Y-103783675D02*
X149252799Y-104055217D01*
X201893651Y-89953674D02*
X202069040Y-89889240D01*
X132135199Y-28406363D02*
X130734872Y-28092043D01*
X88323122Y-50591032D02*
X88529377Y-50056951D01*
X90140590Y-111310425D02*
X90373320Y-111608701D01*
X208845236Y-99747945D02*
X209148889Y-100259820D01*
X87615418Y-148569201D02*
X87586585Y-147729153D01*
X208034924Y-38149619D02*
X207845826Y-37689358D01*
X206274994Y-96735688D02*
X206561156Y-97004939D01*
X151124508Y-32687760D02*
X151499516Y-32324495D01*
X145447536Y-50081042D02*
X145316962Y-49843764D01*
X207648387Y-33717468D02*
X207906205Y-34023244D01*
X95254403Y-96109822D02*
X94634790Y-96450702D01*
X207116129Y-33127781D02*
X207385059Y-33418976D01*
X89585993Y-83239969D02*
X89613140Y-84030892D01*
X175428753Y-91497620D02*
X173010890Y-91632774D01*
X210348537Y-108555454D02*
X210294164Y-108715567D01*
X206974551Y-46228782D02*
X207178895Y-45960813D01*
X87165100Y-101767281D02*
X87365627Y-101322507D01*
X202811631Y-156184747D02*
X202529686Y-156288327D01*
X90795067Y-96762118D02*
X91178394Y-96415418D01*
X206561156Y-97004939D02*
X206841518Y-97281514D01*
X88531423Y-48061646D02*
X88246642Y-47654186D01*
X94044518Y-32362892D02*
X93483472Y-32721683D01*
X201482901Y-90065955D02*
X201700047Y-90012489D01*
X146729693Y-127194122D02*
X146718071Y-124656434D01*
X88363587Y-40731461D02*
X88334969Y-41008824D01*
X149457720Y-103260141D02*
X149383627Y-103518115D01*
X207603157Y-45154815D02*
X207696485Y-44986964D01*
X207399987Y-57218811D02*
X207384294Y-56171904D01*
X88915038Y-109078510D02*
X89088437Y-109482059D01*
X92769042Y-91257929D02*
X92476176Y-91096681D01*
X140532440Y-90114340D02*
X140778452Y-90065955D01*
X94658849Y-89920009D02*
X94898772Y-90001952D01*
X90996484Y-113918748D02*
X90787440Y-114331623D01*
X199489085Y-156724544D02*
X198934732Y-156749124D01*
X144556184Y-112691825D02*
X144591822Y-112649491D01*
X204049091Y-88754944D02*
X204303176Y-88573337D01*
X200956684Y-90157913D02*
X201236889Y-90114340D01*
X151301275Y-35504094D02*
X151019420Y-35876351D01*
X90596826Y-35504094D02*
X90314971Y-35876351D01*
X204865437Y-155051405D02*
X204539603Y-155252630D01*
X107615786Y-25706435D02*
X109799715Y-25415783D01*
X192988706Y-90403345D02*
X195102426Y-90388149D01*
X195122589Y-156825678D02*
X192999824Y-156840939D01*
X209445085Y-78597812D02*
X209416099Y-81987917D01*
X205231494Y-48293534D02*
X205260633Y-48254202D01*
X205646192Y-151773024D02*
X205840200Y-151541567D01*
X91444578Y-113182082D02*
X91301451Y-113393669D01*
X148000000Y-41463934D02*
X147978568Y-40995342D01*
X201236889Y-154551963D02*
X201482901Y-154503578D01*
X152539191Y-98539495D02*
X152217065Y-98872302D01*
X90581069Y-114778345D02*
X90383591Y-115244848D01*
X163793830Y-93183011D02*
X162874531Y-93436896D01*
X207939740Y-48213246D02*
X207612914Y-48600541D01*
X209297984Y-148772431D02*
X209271669Y-148968622D01*
X204434628Y-30836060D02*
X204756102Y-31061557D01*
X207311474Y-110208178D02*
X207346730Y-110147273D01*
X148140787Y-35310322D02*
X148444440Y-35822197D01*
X204785238Y-88189118D02*
X205013305Y-87986415D01*
X90383591Y-50807225D02*
X90201227Y-51279441D01*
X88832795Y-38573738D02*
X88753271Y-38822518D01*
X207845826Y-102126981D02*
X207635134Y-101676363D01*
X95261644Y-92157244D02*
X94932623Y-92085641D01*
X146749795Y-109877132D02*
X146817208Y-109744725D01*
X90420059Y-32687760D02*
X90795067Y-32324495D01*
X90891695Y-35138154D02*
X90596826Y-35504094D01*
X89568787Y-121656434D02*
X87568782Y-121656434D01*
X156357535Y-90195619D02*
X156626584Y-90244478D01*
X147762307Y-104004748D02*
X147641529Y-103528238D01*
X157839592Y-154812573D02*
X158186191Y-154831486D01*
X208786417Y-47151053D02*
X208551495Y-47459121D01*
X95922135Y-90244478D02*
X96203036Y-90286333D01*
X92593144Y-153224268D02*
X92900258Y-153447483D01*
X88834420Y-48449978D02*
X88531423Y-48061646D01*
X89048371Y-87877218D02*
X88785291Y-87468767D01*
X93363228Y-91550583D02*
X93064274Y-91409371D01*
X151666031Y-112203824D02*
X151782682Y-112292820D01*
X93948027Y-154052545D02*
X94185305Y-154164624D01*
X206203056Y-86619085D02*
X206371994Y-86365593D01*
X153604707Y-153447483D02*
X153916671Y-153647923D01*
X207229607Y-117528684D02*
X207198284Y-117298006D01*
X209422541Y-124656434D02*
X209434129Y-127186731D01*
X170727142Y-27403743D02*
X168620951Y-27684049D01*
X94316795Y-29905336D02*
X95018005Y-29546678D01*
X207385059Y-97856599D02*
X207648387Y-98155091D01*
X156300449Y-156655586D02*
X155966093Y-156594867D01*
X149015081Y-106746349D02*
X149053389Y-107103345D01*
X194324737Y-93226614D02*
X192839648Y-92843986D01*
X158732992Y-94834790D02*
X157994875Y-95140360D01*
X208445707Y-43501367D02*
X208478954Y-43393595D01*
X207913674Y-113571650D02*
X208059098Y-113848672D01*
X137692073Y-27904631D02*
X138189441Y-28080606D01*
X150611173Y-52184749D02*
X150281892Y-53376025D01*
X180352224Y-156869972D02*
X180352224Y-154869969D01*
X204785238Y-152626741D02*
X205013305Y-152424038D01*
X152149027Y-113182082D02*
X152005900Y-113393669D01*
X177352224Y-25013421D02*
X177352224Y-27013993D01*
X209448713Y-67937046D02*
X209445085Y-78597812D01*
X144942094Y-113668636D02*
X144690989Y-113297521D01*
X119832495Y-25017127D02*
X122455053Y-25114959D01*
X206532666Y-86104667D02*
X206685117Y-85836261D01*
X98796571Y-30100317D02*
X98028543Y-30397167D01*
X180352224Y-90936623D02*
X180352224Y-90432346D01*
X206025806Y-151302810D02*
X206203056Y-151056708D01*
X208608526Y-107255306D02*
X208667792Y-106814841D01*
X144676893Y-31534261D02*
X144980661Y-31781544D01*
X144485551Y-48388820D02*
X144496495Y-48350267D01*
X151893731Y-47937298D02*
X151997330Y-48018440D01*
X197771833Y-94242725D02*
X195950247Y-93689033D01*
X93463314Y-89357078D02*
X93707972Y-89491784D01*
X157202068Y-90321693D02*
X157512161Y-90351063D01*
X207763542Y-48861208D02*
X207913674Y-49134027D01*
X133620288Y-93226614D02*
X132135199Y-92843986D01*
X95936427Y-156706310D02*
X95596000Y-156655586D01*
X87615418Y-84131578D02*
X87586585Y-83291530D01*
X146155830Y-149946948D02*
X146228910Y-149804141D01*
X144482663Y-112867373D02*
X144483072Y-112846515D01*
X200889639Y-28931850D02*
X201606989Y-29265530D01*
X206598272Y-115439259D02*
X206505908Y-115227913D01*
X146230949Y-116256070D02*
X146172954Y-116105789D01*
X149003227Y-42065687D02*
X149015081Y-42308726D01*
X149196598Y-104331135D02*
X149146892Y-104609822D01*
X144690989Y-113297521D02*
X144630667Y-113203673D01*
X152091210Y-112534146D02*
X152173106Y-112607066D01*
X207434142Y-62756499D02*
X207422520Y-60218811D01*
X141834720Y-89659536D02*
X142810136Y-89097375D01*
X201401347Y-95825806D02*
X200749255Y-95509957D01*
X90795067Y-32324495D02*
X91178394Y-31977795D01*
X93642689Y-30276195D02*
X94316795Y-29905336D01*
X155637072Y-156523264D02*
X155313041Y-156440087D01*
X106943567Y-27850558D02*
X106031312Y-28034351D01*
X205260633Y-48254202D02*
X205296271Y-48211868D01*
X147858638Y-107495518D02*
X147882265Y-107377459D01*
X147858638Y-43057895D02*
X147882265Y-42939836D01*
X146695538Y-57218811D02*
X146679845Y-56171904D01*
X163793830Y-28745388D02*
X162874531Y-28999273D01*
X149015081Y-42308726D02*
X149053389Y-42665722D01*
X89628990Y-84269224D02*
X89646382Y-84406406D01*
X91999497Y-152717625D02*
X92292389Y-152980305D01*
X89613140Y-148468515D02*
X89628990Y-148706847D01*
X147330475Y-38149619D02*
X147141377Y-37689358D01*
X147963343Y-106814841D02*
X147995121Y-106362886D01*
X147705016Y-43608089D02*
X147741258Y-43501367D01*
X208115911Y-108698105D02*
X208175075Y-108584892D01*
X156098511Y-90139249D02*
X156357535Y-90195619D01*
X146421206Y-116899947D02*
X146379538Y-116725355D01*
X91512616Y-98872302D02*
X91197613Y-99218518D01*
X207847180Y-87758459D02*
X207627291Y-88063763D01*
X150845039Y-111310425D02*
X151077769Y-111608701D01*
X207696485Y-44986964D02*
X207799384Y-44807866D01*
X208537408Y-43172468D02*
X208563087Y-43057895D01*
X153768723Y-155846994D02*
X153473491Y-155695552D01*
X152240749Y-112672724D02*
X152291873Y-112729017D01*
X88442443Y-104609822D02*
X88399501Y-104889674D01*
X148506180Y-149717379D02*
X148459948Y-149529699D01*
X93212222Y-153647923D02*
X93463314Y-153794701D01*
X96582107Y-31017071D02*
X95903470Y-31340211D01*
X144528340Y-87776591D02*
X144739288Y-87559601D01*
X205764787Y-113849111D02*
X205646543Y-113668636D01*
X88832795Y-103011361D02*
X88753271Y-103260141D01*
X98028543Y-94834790D02*
X97290426Y-95140360D01*
X207362154Y-45655216D02*
X207370706Y-45627411D01*
X143160975Y-32889749D02*
X142883713Y-32685281D01*
X202529686Y-156288327D02*
X202230180Y-156379314D01*
X180352224Y-27015950D02*
X180352224Y-25015907D01*
X145429339Y-99461418D02*
X145195887Y-99196792D01*
X144051653Y-31061557D02*
X144367223Y-31294275D01*
X98096337Y-28226772D02*
X98935123Y-27923892D01*
X155847683Y-90074863D02*
X156098511Y-90139249D01*
X209448713Y-132374669D02*
X209445085Y-143035435D01*
X205381342Y-31534261D02*
X205685110Y-31781544D01*
X203305370Y-32486917D02*
X203016916Y-32294542D01*
X201973244Y-96117251D02*
X201401347Y-95825806D01*
X86571519Y-43937588D02*
X86455237Y-43444132D01*
X206935398Y-116256070D02*
X206877403Y-116105789D01*
X207163693Y-52652006D02*
X207125655Y-52462324D01*
X146628501Y-83917449D02*
X146667565Y-83522906D01*
X208884613Y-115768362D02*
X208955194Y-115989835D01*
X203071858Y-156072133D02*
X202811631Y-156184747D01*
X202811631Y-91747124D02*
X202529686Y-91850704D01*
X144739288Y-151997224D02*
X144941743Y-151773024D01*
X141210754Y-156456868D02*
X140879215Y-156522075D01*
X180493051Y-91454504D02*
X180352224Y-91453573D01*
X180493051Y-27016881D02*
X180352224Y-27015950D01*
X98096337Y-92664395D02*
X98822527Y-92402173D01*
X91631043Y-112805103D02*
X91626281Y-112835004D01*
X204137289Y-33100437D02*
X203865424Y-32889749D01*
X192839648Y-92843986D02*
X191439321Y-92529666D01*
X201893651Y-154391297D02*
X202069040Y-154326863D01*
X202529686Y-91850704D02*
X202230180Y-91941691D01*
X146749795Y-45439509D02*
X146817208Y-45307102D01*
X207155269Y-153086052D02*
X206903432Y-153364939D01*
X150984557Y-153831212D02*
X150651364Y-153471887D01*
X90201227Y-115717064D02*
X90040198Y-116180928D01*
X149119474Y-43041020D02*
X149211231Y-43430403D01*
X150034750Y-152712544D02*
X149752820Y-152314841D01*
X207305783Y-53952946D02*
X207283176Y-53633737D01*
X81295551Y-161875246D02*
X215704449Y-161875246D01*
X200175984Y-93050166D02*
X200889639Y-93369473D01*
X150061399Y-101818896D02*
X149874062Y-102187282D01*
X91527933Y-48609020D02*
X91488307Y-48675795D01*
X116647775Y-91451616D02*
X114724304Y-91497620D01*
X152005900Y-113393669D02*
X151906427Y-113553786D01*
X206371994Y-150803216D02*
X206532666Y-150542290D01*
X209426375Y-100785410D02*
X209677708Y-101322949D01*
X209294668Y-110670386D02*
X209285157Y-110689066D01*
X188670325Y-27622391D02*
X187190342Y-27444091D01*
X89727434Y-149173061D02*
X89834422Y-149507724D01*
X87062110Y-109832286D02*
X86877248Y-109351226D01*
X210533560Y-104133687D02*
X210620953Y-104710122D01*
X90705705Y-86756851D02*
X90936687Y-87082685D01*
X157989866Y-28540200D02*
X158800786Y-28226772D01*
X149039418Y-41008824D02*
X149018362Y-41282534D01*
X208515271Y-99251655D02*
X208845236Y-99747945D01*
X89585993Y-147677592D02*
X89613140Y-148468515D01*
X144496495Y-112787890D02*
X144515051Y-112750178D01*
X150333439Y-84269224D02*
X150350831Y-84406406D01*
X89691115Y-46196201D02*
X89912487Y-46546437D01*
X86571519Y-108375211D02*
X86455237Y-107881755D01*
X146607025Y-110208178D02*
X146642281Y-110147273D01*
X205184359Y-90401857D02*
X204865437Y-90613782D01*
X192999824Y-156840939D02*
X190467501Y-156850891D01*
X110022693Y-91841366D02*
X107916502Y-92121672D01*
X91292881Y-112456063D02*
X91386761Y-112534146D01*
X139932512Y-90196943D02*
X140252235Y-90157913D01*
X157286556Y-31017071D02*
X156607919Y-31340211D01*
X207198284Y-52860383D02*
X207163693Y-52652006D01*
X149792886Y-45044436D02*
X149981435Y-45440983D01*
X90993954Y-154502318D02*
X90629206Y-154175194D01*
X146667565Y-83522906D02*
X146711892Y-81951173D01*
X86301651Y-105919754D02*
X86317692Y-105594216D01*
X138669863Y-94882541D02*
X138031922Y-94609721D01*
X208551495Y-111896744D02*
X208265404Y-112255187D01*
X206997783Y-149671699D02*
X207054311Y-149547068D01*
X88398027Y-99559543D02*
X88701708Y-99131455D01*
X206505908Y-115227913D02*
X206398136Y-114999190D01*
X146898708Y-45154815D02*
X146992036Y-44986964D01*
X146174935Y-35965871D02*
X145883760Y-35574954D01*
X95143234Y-154512486D02*
X95394062Y-154576872D01*
X208175075Y-108584892D02*
X208229830Y-108474284D01*
X206685117Y-85836261D02*
X206860279Y-85509325D01*
X93483472Y-32721683D02*
X93155191Y-32951995D01*
X207054311Y-85109445D02*
X207103701Y-84990067D01*
X207311474Y-45770555D02*
X207346730Y-45709650D01*
X147931416Y-40521602D02*
X147859132Y-40044825D01*
X102170082Y-28999273D02*
X101281266Y-29261666D01*
X87948025Y-150174993D02*
X87801731Y-149717379D01*
X206398136Y-114999190D02*
X206278861Y-114760354D01*
X119647775Y-90432346D02*
X126773112Y-90420096D01*
X145316962Y-114281387D02*
X145186595Y-114055782D01*
X154652476Y-154052545D02*
X154889754Y-154164624D01*
X150744647Y-116180928D02*
X150611173Y-116622372D01*
X205187521Y-48408892D02*
X205190000Y-48388820D01*
X89088437Y-45044436D02*
X89276986Y-45440983D01*
X200175984Y-28612543D02*
X200889639Y-28931850D01*
X201236889Y-90114340D02*
X201482901Y-90065955D01*
X204548543Y-152822366D02*
X204785238Y-152626741D01*
X145658586Y-99733308D02*
X145429339Y-99461418D01*
X94185305Y-89727001D02*
X94421637Y-89828528D01*
X134397977Y-90388149D02*
X136140600Y-90365538D01*
X141527090Y-89818918D02*
X141682024Y-89742439D01*
X146450820Y-153086052D02*
X146198983Y-153364939D01*
X210417309Y-103560144D02*
X210533560Y-104133687D01*
X198736371Y-94609721D02*
X198188060Y-94389991D01*
X208704449Y-105901557D02*
X208683017Y-105432965D01*
X146565705Y-84382521D02*
X146588209Y-84240988D01*
X148262281Y-150156148D02*
X148185119Y-150342653D01*
X199988966Y-92258204D02*
X199489085Y-92286921D01*
X93064274Y-91409371D02*
X92769042Y-91257929D01*
X199374312Y-94882541D02*
X198736371Y-94609721D01*
X152420423Y-152438257D02*
X152703946Y-152717625D01*
X143069539Y-30406496D02*
X143402806Y-30617729D01*
X205646543Y-113668636D02*
X205395438Y-113297521D01*
X140185190Y-28931850D02*
X140902540Y-29265530D01*
X152266950Y-112983585D02*
X152232382Y-113046643D01*
X150269251Y-146449646D02*
X150290442Y-147677592D01*
X207845826Y-37689358D02*
X207635134Y-37238740D01*
X205188828Y-112889210D02*
X205187112Y-112867373D01*
X146695538Y-121656434D02*
X146679845Y-120609527D01*
X208808068Y-150522340D02*
X208723004Y-150697213D01*
X93212222Y-89210300D02*
X93463314Y-89357078D01*
X204303176Y-88573337D02*
X204548543Y-88384743D01*
X146293334Y-85234076D02*
X146349862Y-85109445D01*
X88334969Y-105446447D02*
X88313913Y-105720157D01*
X165278962Y-156875246D02*
X165272478Y-156875246D01*
X88542221Y-87050273D02*
X88320515Y-86622183D01*
X206151985Y-50081042D02*
X206021411Y-49843764D01*
X152870996Y-155353308D02*
X152475296Y-155099066D01*
X209879286Y-45204357D02*
X209792015Y-45363587D01*
X140879215Y-156522075D02*
X140527141Y-156576824D01*
X151313023Y-47437047D02*
X151548695Y-47666493D01*
X86299399Y-106564794D02*
X86295551Y-106262942D01*
X155847683Y-154512486D02*
X156098511Y-154576872D01*
X207399987Y-121656434D02*
X207384294Y-120609527D01*
X135245798Y-29251410D02*
X133620288Y-28788991D01*
X158800786Y-28226772D02*
X159639572Y-27923892D01*
X158186191Y-154831486D02*
X165278648Y-154875246D01*
X90054063Y-97503515D02*
X90420059Y-97125383D01*
X209416099Y-81987917D02*
X209369230Y-83649783D01*
X207521657Y-109744725D02*
X207603157Y-109592438D01*
X148444440Y-35822197D02*
X148540832Y-36004774D01*
X145693687Y-50561567D02*
X145574412Y-50322731D01*
X205764787Y-49411488D02*
X205646543Y-49231013D01*
X146228910Y-85366518D02*
X146293334Y-85234076D01*
X210658407Y-42580914D02*
X210584935Y-43126959D01*
X199501663Y-28324165D02*
X200175984Y-28612543D01*
X208898467Y-111432776D02*
X208786417Y-111588676D01*
X207648387Y-98155091D02*
X207906205Y-98460867D01*
X208369992Y-108151993D02*
X208409465Y-108045712D01*
X100422819Y-29532610D02*
X99594625Y-29812146D01*
X145893823Y-115439259D02*
X145801459Y-115227913D01*
X88622106Y-108267276D02*
X88758892Y-108672177D01*
X89564802Y-82012023D02*
X89585993Y-83239969D01*
X194324737Y-28788991D02*
X192839648Y-28406363D01*
X202386473Y-89742439D02*
X202539169Y-89659536D01*
X90120185Y-150185824D02*
X90295948Y-150525203D01*
X88246642Y-47654186D02*
X87977990Y-47229149D01*
X205982987Y-96473764D02*
X206274994Y-96735688D01*
X87045361Y-37631152D02*
X87165100Y-37329658D01*
X146459244Y-52652006D02*
X146421206Y-52462324D01*
X86749270Y-38554926D02*
X86839186Y-38241860D01*
X173010890Y-91632774D02*
X170727142Y-91841366D01*
X150290442Y-83239969D02*
X150317589Y-84030892D01*
X197771833Y-29805102D02*
X195950247Y-29251410D01*
X153180625Y-155534304D02*
X152870996Y-155353308D01*
X155958852Y-96109822D02*
X155339239Y-96450702D01*
X89562030Y-124656434D02*
X89543243Y-132998051D01*
X147963343Y-42377218D02*
X147995121Y-41925263D01*
X103089381Y-28745388D02*
X102170082Y-28999273D01*
X210101335Y-102427237D02*
X210273015Y-102990856D01*
X208889568Y-85905030D02*
X208808068Y-86084717D01*
X103089381Y-93183011D02*
X102170082Y-93436896D01*
X152091210Y-48096523D02*
X152173106Y-48169443D01*
X155126086Y-89828528D02*
X155363298Y-89920009D01*
X101620696Y-27076128D02*
X102572986Y-26813132D01*
X150616936Y-46546437D02*
X150845039Y-46872802D01*
X207403174Y-109985340D02*
X207454244Y-109877132D01*
X146698987Y-36799878D02*
X146446874Y-36374884D01*
X146525158Y-117528684D02*
X146493835Y-117298006D01*
X145801459Y-50790290D02*
X145693687Y-50561567D01*
X136140600Y-90365538D02*
X137554734Y-90333360D01*
X207163693Y-117089629D02*
X207125655Y-116899947D01*
X146744264Y-132377140D02*
X146729693Y-127194122D01*
X147622603Y-108258443D02*
X147665543Y-108151993D01*
X89965841Y-85408365D02*
X90120185Y-85748201D01*
X208810949Y-51123445D02*
X208884613Y-51330739D01*
X126776550Y-156857716D02*
X119647775Y-156869972D01*
X152173106Y-48169443D02*
X152240749Y-48235101D01*
X152217065Y-34434679D02*
X151902062Y-34780895D01*
X154412421Y-89491784D02*
X154652476Y-89614922D01*
X208169240Y-98787092D02*
X208515271Y-99251655D01*
X207359072Y-55145318D02*
X207325848Y-54308876D01*
X92476176Y-91096681D02*
X92166547Y-90915685D01*
X95746419Y-93637459D02*
X96502170Y-93302076D01*
X208683017Y-105432965D02*
X208635865Y-104959225D01*
X208810949Y-115561068D02*
X208884613Y-115768362D01*
X210483559Y-43634107D02*
X210443148Y-43795517D01*
X144715836Y-34251245D02*
X144468972Y-34007715D01*
X150670290Y-149845988D02*
X150824634Y-150185824D01*
X147347651Y-44376909D02*
X147411462Y-44260482D01*
X146992036Y-44986964D02*
X147094935Y-44807866D01*
X139567946Y-154669322D02*
X139932512Y-154634566D01*
X145060338Y-49411488D02*
X144942094Y-49231013D01*
X205646192Y-87335401D02*
X205840200Y-87103944D01*
X207603157Y-109592438D02*
X207696485Y-109424587D01*
X142312467Y-32294542D02*
X142018218Y-32108040D01*
X209434129Y-62749108D02*
X209448713Y-67937046D01*
X126773112Y-154857719D02*
X129756837Y-154850900D01*
X105019881Y-92700592D02*
X104039276Y-92937590D01*
X141718041Y-96364918D02*
X141268795Y-96117251D01*
X89535552Y-75489897D02*
X89549426Y-80325439D01*
X91602774Y-48462347D02*
X91562501Y-48545962D01*
X205071672Y-31294275D02*
X205381342Y-31534261D01*
X89727434Y-84735438D02*
X89834422Y-85070101D01*
X200749255Y-31072334D02*
X200059425Y-30751454D01*
X164743725Y-92937590D02*
X163793830Y-93183011D01*
X116647775Y-90433825D02*
X116647775Y-90936623D01*
X146228910Y-149804141D02*
X146293334Y-149671699D01*
X208608526Y-42817683D02*
X208667792Y-42377218D01*
X88415025Y-107478643D02*
X88506782Y-107868026D01*
X208115911Y-44260482D02*
X208175075Y-44147269D01*
X142600921Y-96924540D02*
X142312467Y-96732165D01*
X205646543Y-49231013D02*
X205395438Y-48859898D01*
X204107255Y-95055352D02*
X204434628Y-95273683D01*
X208229830Y-44036661D02*
X208280410Y-43928047D01*
X151077769Y-47171078D02*
X151313023Y-47437047D01*
X207799384Y-109245489D02*
X208052100Y-108814532D01*
X208586714Y-107377459D02*
X208608526Y-107255306D01*
X149537244Y-38573738D02*
X149457720Y-38822518D01*
X160299074Y-94249769D02*
X159501020Y-94537940D01*
X140044806Y-95509957D02*
X139354976Y-95189077D01*
X180352224Y-154869969D02*
X187477561Y-154857719D01*
X90936687Y-151520308D02*
X91183063Y-151837569D01*
X146817208Y-45307102D02*
X146898708Y-45154815D01*
X166317728Y-26078385D02*
X167281746Y-25884163D01*
X145667545Y-150803216D02*
X145828217Y-150542290D01*
X206021411Y-114281387D02*
X205891044Y-114055782D01*
X208229830Y-108474284D02*
X208280410Y-108365670D01*
X88137518Y-115563308D02*
X88323122Y-115028655D01*
X88399501Y-40452051D02*
X88363587Y-40731461D01*
X88758892Y-108672177D02*
X88915038Y-109078510D01*
X149981435Y-109878606D02*
X150183029Y-110263933D01*
X156988564Y-156748044D02*
X156640876Y-156706310D01*
X148397329Y-149764052D02*
X148333592Y-149962699D01*
X201231590Y-92139201D02*
X200853078Y-92185407D01*
X151997330Y-48018440D02*
X152091210Y-48096523D01*
X87487161Y-46334283D02*
X87265894Y-45868925D01*
X199857660Y-90262450D02*
X200272395Y-90231699D01*
X209321582Y-148568648D02*
X209297984Y-148772431D01*
X152232382Y-48609020D02*
X152192756Y-48675795D01*
X91715974Y-152438257D02*
X91999497Y-152717625D01*
X91078233Y-47855197D02*
X91189282Y-47937298D01*
X138669863Y-30444918D02*
X138031922Y-30172098D01*
X207038509Y-116562249D02*
X206989040Y-116407022D01*
X156626584Y-154682101D02*
X156907485Y-154723956D01*
X146608888Y-84086816D02*
X146628501Y-83917449D01*
X151313023Y-111874670D02*
X151548695Y-112104116D01*
X209369230Y-83649783D02*
X209321582Y-84131025D01*
X205795403Y-89948900D02*
X205494429Y-90180235D01*
X209426375Y-36347787D02*
X209677708Y-36885326D01*
X208509443Y-107721789D02*
X208537408Y-107610091D01*
X88110989Y-99993421D02*
X88398027Y-99559543D01*
X144581293Y-113122193D02*
X144542422Y-113051544D01*
X210398189Y-43956883D02*
X210348537Y-44117831D01*
X87045361Y-102068775D02*
X87165100Y-101767281D01*
X210398189Y-108394506D02*
X210348537Y-108555454D01*
X122348151Y-91549986D02*
X119788602Y-91454504D01*
X87535548Y-139929279D02*
X87543245Y-132994688D01*
X89330301Y-152712544D02*
X89048371Y-152314841D01*
X98028543Y-30397167D02*
X97290426Y-30702737D01*
X150183029Y-45826310D02*
X150395564Y-46196201D01*
X150057558Y-33860012D02*
X150402484Y-33457198D01*
X180352224Y-91453573D02*
X180352224Y-90938623D01*
X207939740Y-112650869D02*
X207612914Y-113038164D01*
X94634790Y-96450702D02*
X94044518Y-96800515D01*
X205685110Y-31781544D02*
X205982987Y-32036141D01*
X151196072Y-86424473D02*
X151410154Y-86756851D01*
X86593590Y-103631491D02*
X86667481Y-103310109D01*
X144308856Y-87986415D02*
X144528340Y-87776591D01*
X156640876Y-156706310D02*
X156300449Y-156655586D01*
X149315231Y-39346052D02*
X149252799Y-39617594D01*
X207151323Y-100812507D02*
X206879384Y-100403494D01*
X143344642Y-88754944D02*
X143598727Y-88573337D01*
X155603221Y-154439575D02*
X155847683Y-154512486D01*
X88753271Y-38822518D02*
X88679178Y-39080492D01*
X93483472Y-97159306D02*
X93155191Y-97389618D01*
X209323612Y-54212895D02*
X209358096Y-55081063D01*
X87564959Y-146476017D02*
X87549452Y-144775047D01*
X200441261Y-156662291D02*
X199988966Y-156695827D01*
X205246871Y-113051544D02*
X205231235Y-113019800D01*
X90961582Y-112203824D02*
X91078233Y-112292820D01*
X146553395Y-53347644D02*
X146525158Y-53091061D01*
X97007886Y-92370981D02*
X96640641Y-92344189D01*
X210519693Y-43472889D02*
X210483559Y-43634107D01*
X142018218Y-32108040D02*
X141718041Y-31927295D01*
X147094935Y-44807866D02*
X147347651Y-44376909D01*
X152266950Y-48545962D02*
X152232382Y-48609020D01*
X202231539Y-89818918D02*
X202386473Y-89742439D01*
X146711892Y-81951173D02*
X146740639Y-78588922D01*
X91189282Y-47937298D02*
X91292881Y-48018440D01*
X207372014Y-147960529D02*
X207416341Y-146388796D01*
X87676796Y-84772582D02*
X87637360Y-84461526D01*
X86295551Y-41825319D02*
X86295551Y-41792946D01*
X90491623Y-86424473D02*
X90705705Y-86756851D01*
X87562025Y-60218811D02*
X89562030Y-60218811D01*
X89048371Y-152314841D02*
X88785291Y-151906390D01*
X207146713Y-84873387D02*
X207184105Y-84756848D01*
X207038509Y-52124626D02*
X206989040Y-51969399D01*
X150502602Y-101067984D02*
X150271567Y-101445009D01*
X87487161Y-110771906D02*
X87265894Y-110306548D01*
X209134821Y-111050465D02*
X209009740Y-111266543D01*
X151491889Y-49894000D02*
X151285518Y-50340722D01*
X141268795Y-96117251D02*
X140696898Y-95825806D01*
X183052600Y-91549986D02*
X180493051Y-91454504D01*
X210104233Y-44749217D02*
X210032809Y-44902590D01*
X166735761Y-28034351D02*
X165724330Y-28262969D01*
X158732992Y-30397167D02*
X157994875Y-30702737D01*
X208699570Y-106362886D02*
X208704449Y-105901557D01*
X143598727Y-88573337D02*
X143844094Y-88384743D01*
X205187112Y-112867373D02*
X205187521Y-112846515D01*
X86469257Y-39844893D02*
X86527512Y-39518280D01*
X156450868Y-29199836D02*
X157206619Y-28864453D01*
X86299399Y-42127171D02*
X86295551Y-41825319D01*
X150431883Y-149173061D02*
X150538871Y-149507724D01*
X87564959Y-82038394D02*
X87549452Y-80337424D01*
X206974551Y-110666405D02*
X207178895Y-110398436D01*
X88529377Y-50056951D02*
X88751891Y-49531305D01*
X88622106Y-43829653D02*
X88758892Y-44234554D01*
X149619487Y-109078510D02*
X149792886Y-109482059D01*
X134397977Y-154825772D02*
X136140600Y-154803161D01*
X147804994Y-43284166D02*
X147832959Y-43172468D01*
X209156726Y-149563133D02*
X209101778Y-149764052D01*
X145358365Y-47336299D02*
X145698872Y-46932791D01*
X206641300Y-89196955D02*
X206369094Y-89457181D01*
X208265404Y-112255187D02*
X207939740Y-112650869D01*
X198893890Y-28080606D02*
X199501663Y-28324165D01*
X207627291Y-152501386D02*
X207396612Y-152798124D01*
X201482901Y-154503578D02*
X201700047Y-154450112D01*
X93975561Y-91800071D02*
X93666835Y-91681011D01*
X153916671Y-153647923D02*
X154167763Y-153794701D01*
X89088437Y-109482059D02*
X89276986Y-109878606D01*
X148103619Y-150522340D02*
X148018555Y-150697213D01*
X92292389Y-88542682D02*
X92593144Y-88786645D01*
X91626281Y-112835004D02*
X91620508Y-112854206D01*
X207198284Y-117298006D02*
X207163693Y-117089629D01*
X209020612Y-51786834D02*
X209079462Y-52033421D01*
X89834422Y-149507724D02*
X89965841Y-149845988D01*
X160506422Y-27631309D02*
X161401542Y-27348790D01*
X89276986Y-45440983D02*
X89478580Y-45826310D01*
X146379538Y-116725355D02*
X146334060Y-116562249D01*
X180352224Y-25015907D02*
X180536944Y-25017127D01*
X208563581Y-104482448D02*
X208466756Y-104004748D01*
X153859640Y-97389618D02*
X153528663Y-97645157D01*
X161985715Y-93699289D02*
X161127268Y-93970233D01*
X87842141Y-100432154D02*
X88110989Y-99993421D01*
X141586959Y-29597038D02*
X142205882Y-29912448D01*
X94316795Y-94342959D02*
X95018005Y-93984301D01*
X150538871Y-85070101D02*
X150670290Y-85408365D01*
X112306441Y-91632774D02*
X110022693Y-91841366D01*
X209202685Y-149362806D02*
X209156726Y-149563133D01*
X205900336Y-34759169D02*
X205662545Y-34501691D01*
X150752541Y-100690184D02*
X150502602Y-101067984D01*
X204303176Y-153010960D02*
X204548543Y-152822366D01*
X187190342Y-91881714D02*
X185572492Y-91725788D01*
X134418140Y-156825678D02*
X132295375Y-156840939D01*
X207763542Y-113298831D02*
X207913674Y-113571650D01*
X145321357Y-151302810D02*
X145498607Y-151056708D01*
X86749270Y-102992549D02*
X86839186Y-102679483D01*
X86527512Y-39518280D02*
X86593590Y-39193868D01*
X198856379Y-90313011D02*
X199387430Y-90289464D01*
X206363035Y-35295685D02*
X206133788Y-35023795D01*
X204665355Y-33540939D02*
X204403888Y-33317462D01*
X209248171Y-53150032D02*
X209276934Y-53474880D01*
X144502835Y-112962515D02*
X144488276Y-112912218D01*
X88917484Y-102773379D02*
X88832795Y-103011361D01*
X208409465Y-43608089D02*
X208445707Y-43501367D01*
X210443148Y-43795517D02*
X210398189Y-43956883D01*
X93707972Y-153929407D02*
X93948027Y-154052545D01*
X90040198Y-116180928D02*
X89906724Y-116622372D01*
X143730179Y-30836060D02*
X144051653Y-31061557D01*
X204434628Y-95273683D02*
X204756102Y-95499180D01*
X145883760Y-35574954D02*
X145658586Y-35295685D01*
X89568787Y-57218811D02*
X87568782Y-57218811D01*
X150253875Y-80325439D02*
X150269251Y-82012023D01*
X94634790Y-32013079D02*
X94044518Y-32362892D01*
X205231494Y-112731157D02*
X205260633Y-112691825D01*
X207454244Y-45439509D02*
X207521657Y-45307102D01*
X146657705Y-110092839D02*
X146666257Y-110065034D01*
X122455053Y-25114959D02*
X125033602Y-25294854D01*
X150752541Y-36252561D02*
X150502602Y-36630361D01*
X205192725Y-48474595D02*
X205188828Y-48451587D01*
X90993954Y-90064695D02*
X90629206Y-89737571D01*
X88298778Y-106503310D02*
X88310632Y-106746349D01*
X156607919Y-95777834D02*
X155958852Y-96109822D01*
X147525381Y-108474284D02*
X147575961Y-108365670D01*
X147804994Y-107721789D02*
X147832959Y-107610091D01*
X199374312Y-30444918D02*
X198736371Y-30172098D01*
X95596000Y-92217963D02*
X95261644Y-92157244D01*
X162325145Y-27076128D02*
X163277435Y-26813132D01*
X91443328Y-87706605D02*
X91715974Y-88000634D01*
X91301451Y-113393669D02*
X91201978Y-113553786D01*
X90280108Y-153831212D02*
X89946915Y-153471887D01*
X145498607Y-151056708D02*
X145667545Y-150803216D01*
X86839186Y-38241860D02*
X86937652Y-37933823D01*
X146172954Y-51668166D02*
X145893823Y-51001636D01*
X89567118Y-101445009D02*
X89356950Y-101818896D01*
X147575961Y-43928047D02*
X147622603Y-43820820D01*
X148185119Y-150342653D02*
X148103619Y-150522340D01*
X153859640Y-32951995D02*
X153528663Y-33207534D01*
X152673572Y-31340991D02*
X153074329Y-31059832D01*
X88334969Y-41008824D02*
X88313913Y-41282534D01*
X168620951Y-27684049D02*
X167648016Y-27850558D01*
X91587424Y-48291394D02*
X91606082Y-48315372D01*
X93707972Y-89491784D02*
X93948027Y-89614922D01*
X144630667Y-113203673D02*
X144581293Y-113122193D01*
X199988966Y-156695827D02*
X199489085Y-156724544D01*
X208445707Y-107938990D02*
X208478954Y-107831218D01*
X148815438Y-35555798D02*
X149102476Y-35121920D01*
X144739288Y-87559601D02*
X144941743Y-87335401D01*
X146565705Y-148820144D02*
X146588209Y-148678611D01*
X145698872Y-46932791D02*
X146007180Y-46558196D01*
X154412421Y-153929407D02*
X154652476Y-154052545D01*
X147351733Y-151882474D02*
X147142731Y-152196082D01*
X89353109Y-33860012D02*
X89698035Y-33457198D01*
X159501020Y-94537940D02*
X158732992Y-94834790D01*
X210104233Y-109186840D02*
X210032809Y-109340213D01*
X89912487Y-46546437D02*
X90140590Y-46872802D01*
X146379538Y-52287732D02*
X146334060Y-52124626D01*
X152291873Y-112729017D02*
X152310531Y-112752995D01*
X89478580Y-45826310D02*
X89691115Y-46196201D01*
X144483072Y-48408892D02*
X144485551Y-48388820D01*
X137067384Y-94242725D02*
X135245798Y-93689033D01*
X89798153Y-36630361D02*
X89567118Y-37007386D01*
X93642689Y-94713818D02*
X94316795Y-94342959D01*
X205494429Y-90180235D02*
X205184359Y-90401857D01*
X147705016Y-108045712D02*
X147741258Y-107938990D01*
X152330730Y-112835004D02*
X152324957Y-112854206D01*
X152240749Y-48235101D02*
X152291873Y-48291394D01*
X149102476Y-35121920D02*
X149406157Y-34693832D01*
X91569695Y-31649379D02*
X91969123Y-31340991D01*
X88986885Y-113460248D02*
X89115772Y-113205687D01*
X152173106Y-112607066D02*
X152240749Y-112672724D01*
X152192756Y-113113418D02*
X152149027Y-113182082D01*
X207448713Y-132377140D02*
X207434142Y-127194122D01*
X206903432Y-88927316D02*
X206641300Y-89196955D01*
X147470626Y-44147269D02*
X147525381Y-44036661D01*
X96284115Y-92310421D02*
X95936427Y-92268687D01*
X152475296Y-155099066D02*
X152078837Y-154810914D01*
X149463341Y-44234554D02*
X149619487Y-44640887D01*
X89020545Y-34272732D02*
X89353109Y-33860012D01*
X210698827Y-106443672D02*
X210658407Y-107018537D01*
X88917484Y-38335756D02*
X88832795Y-38573738D01*
X102170082Y-93436896D02*
X101281266Y-93699289D01*
X148652474Y-150174993D02*
X148506180Y-149717379D01*
X202291408Y-94034661D02*
X202910331Y-94350071D01*
X146459244Y-117089629D02*
X146421206Y-116899947D01*
X137067384Y-29805102D02*
X135245798Y-29251410D01*
X88323122Y-115028655D02*
X88529377Y-114494574D01*
X95596000Y-156655586D02*
X95261644Y-156594867D01*
X129756837Y-90413277D02*
X132284257Y-90403345D01*
X149752820Y-152314841D02*
X149489740Y-151906390D01*
X201583664Y-156522075D02*
X201231590Y-156576824D01*
X204756102Y-31061557D02*
X205071672Y-31294275D01*
X209400211Y-57218811D02*
X207399987Y-57218811D01*
X207305783Y-118390569D02*
X207283176Y-118071360D01*
X206685117Y-150273884D02*
X206860279Y-149946948D01*
X88915038Y-44640887D02*
X89088437Y-45044436D01*
X95936427Y-92268687D02*
X95596000Y-92217963D01*
X147575961Y-108365670D02*
X147622603Y-108258443D01*
X209677708Y-36885326D02*
X209902775Y-37433134D01*
X209957763Y-109491810D02*
X209879286Y-109641980D01*
X206841518Y-97281514D02*
X207116129Y-97565404D01*
X155363298Y-154357632D02*
X155603221Y-154439575D01*
X87365627Y-36884884D02*
X87593103Y-36437567D01*
X202539169Y-154097159D02*
X203514585Y-153534998D01*
X159501020Y-30100317D02*
X158732992Y-30397167D01*
X146654623Y-119582941D02*
X146621399Y-118746499D01*
X145195887Y-99196792D02*
X144958096Y-98939314D01*
X198934732Y-156749124D02*
X198315987Y-156770208D01*
X91183063Y-87399946D02*
X91443328Y-87706605D01*
X207178895Y-45960813D02*
X207254980Y-45854953D01*
X140696898Y-31388183D02*
X140044806Y-31072334D01*
X203421478Y-94631863D02*
X203773988Y-94844119D01*
X144542422Y-113051544D02*
X144526786Y-113019800D01*
X202069040Y-89889240D02*
X202231539Y-89818918D01*
X88701708Y-99131455D02*
X89020545Y-98710355D01*
X192988706Y-154840968D02*
X195102426Y-154825772D01*
X150247692Y-132998051D02*
X150240001Y-139927520D01*
X87535548Y-75491656D02*
X87543245Y-68557065D01*
X177352224Y-90936623D02*
X177352224Y-90938623D01*
X146698725Y-45547717D02*
X146749795Y-45439509D01*
X147774505Y-107831218D02*
X147804994Y-107721789D01*
X202069040Y-154326863D02*
X202231539Y-154256541D01*
X146680610Y-33418976D02*
X146943938Y-33717468D01*
X145574412Y-114760354D02*
X145447536Y-114518665D01*
X152330730Y-48397381D02*
X152324957Y-48416583D01*
X146642281Y-45709650D02*
X146651429Y-45688644D01*
X141834720Y-154097159D02*
X142810136Y-153534998D01*
X205232789Y-87776591D02*
X205443737Y-87559601D01*
X205494429Y-154617858D02*
X205184359Y-154839480D01*
X154889754Y-89727001D02*
X155126086Y-89828528D01*
X86315840Y-106901890D02*
X86299399Y-106564794D01*
X97135143Y-154812573D02*
X97481742Y-154831486D01*
X145358365Y-111773922D02*
X145698872Y-111370414D01*
X87549452Y-80337424D02*
X87535548Y-75491656D01*
X209957763Y-45054187D02*
X209879286Y-45204357D01*
X208723004Y-150697213D02*
X208632104Y-150874843D01*
X144496495Y-48350267D02*
X144515051Y-48312555D01*
X206933359Y-85366518D02*
X206997783Y-85234076D01*
X88506782Y-107868026D02*
X88622106Y-108267276D01*
X210273015Y-38553233D02*
X210417309Y-39122521D01*
X210294164Y-108715567D02*
X210235177Y-108874390D01*
X150651364Y-153471887D02*
X150334541Y-153098589D01*
X172864074Y-25200235D02*
X175349011Y-25061332D01*
X91301451Y-48956046D02*
X91201978Y-49116163D01*
X136140600Y-154803161D02*
X137554734Y-154770983D01*
X149024964Y-151059806D02*
X148826238Y-150622251D01*
X207332950Y-148355072D02*
X207372014Y-147960529D01*
X141364591Y-89889240D02*
X141527090Y-89818918D01*
X177352224Y-156871448D02*
X165278962Y-156875246D01*
X99801973Y-27631309D02*
X100697093Y-27348790D01*
X210483559Y-108071730D02*
X210443148Y-108233140D01*
X90596826Y-99941717D02*
X90314971Y-100313974D01*
X87948025Y-85737370D02*
X87801731Y-85279756D01*
X206588209Y-100012577D02*
X206363035Y-99733308D01*
X119647775Y-25015907D02*
X119832495Y-25017127D01*
X146621399Y-118746499D02*
X146601334Y-118390569D01*
X175349011Y-25061332D02*
X177352224Y-25013421D01*
X144528340Y-152214214D02*
X144739288Y-151997224D01*
X87977990Y-111666772D02*
X87724773Y-111226077D01*
X154167763Y-89357078D02*
X154412421Y-89491784D01*
X201973244Y-31679628D02*
X201401347Y-31388183D01*
X190068099Y-92272170D02*
X188670325Y-92060014D01*
X146578727Y-118071360D02*
X146553395Y-117785267D01*
X198259183Y-90333360D02*
X198856379Y-90313011D01*
X91587424Y-112729017D02*
X91606082Y-112752995D01*
X204921822Y-98208608D02*
X204665355Y-97978562D01*
X146601334Y-118390569D02*
X146578727Y-118071360D01*
X200636961Y-90196943D02*
X200956684Y-90157913D01*
X149874062Y-37749659D02*
X149711521Y-38110179D01*
X95746419Y-29199836D02*
X96502170Y-28864453D01*
X207627291Y-88063763D02*
X207396612Y-88360501D01*
X157512161Y-90351063D02*
X157839592Y-90374950D01*
X88751891Y-113968928D02*
X88986885Y-113460248D01*
X205395438Y-113297521D02*
X205335116Y-113203673D01*
X209148889Y-35822197D02*
X209426375Y-36347787D01*
X150271567Y-101445009D02*
X150061399Y-101818896D01*
X119647775Y-90938623D02*
X119647775Y-90936623D01*
X161127268Y-29532610D02*
X160299074Y-29812146D01*
X146943938Y-33717468D02*
X147201756Y-34023244D01*
X154748967Y-32362892D02*
X154187921Y-32721683D01*
X191439321Y-92529666D02*
X190068099Y-92272170D01*
X147882265Y-107377459D02*
X147904077Y-107255306D01*
X149326555Y-108267276D02*
X149463341Y-108672177D01*
X127965876Y-92060014D02*
X126485893Y-91881714D01*
X91527933Y-113046643D02*
X91488307Y-113113418D01*
X112159625Y-25200235D02*
X114644562Y-25061332D01*
X207245067Y-84513972D02*
X207270154Y-84382521D01*
X139153211Y-154700073D02*
X139567946Y-154669322D01*
X151000397Y-150525203D02*
X151196072Y-150862096D01*
X207103701Y-149427690D02*
X207146713Y-149311010D01*
X89630092Y-153098589D02*
X89330301Y-152712544D01*
X208175075Y-44147269D02*
X208229830Y-44036661D01*
X177352224Y-90433825D02*
X177352224Y-90936623D01*
X91969123Y-95778614D02*
X92369880Y-95497455D01*
X96640641Y-156781812D02*
X96284115Y-156748044D01*
X88529377Y-114494574D02*
X88751891Y-113968928D01*
X144958096Y-34501691D02*
X144715836Y-34251245D01*
X88531423Y-112499269D02*
X88246642Y-112091809D01*
X144479910Y-154839480D02*
X144160988Y-155051405D01*
X141682024Y-89742439D02*
X141834720Y-89659536D01*
X210704449Y-41418220D02*
X210704449Y-41474509D01*
X143960906Y-97978562D02*
X143699439Y-97755085D01*
X149146892Y-40172199D02*
X149103950Y-40452051D01*
X98935123Y-27923892D02*
X99801973Y-27631309D01*
X146578727Y-53633737D02*
X146553395Y-53347644D01*
X89946915Y-89034264D02*
X89630092Y-88660966D01*
X147859132Y-40044825D02*
X147762307Y-39567125D01*
X145135751Y-151541567D02*
X145321357Y-151302810D01*
X147978568Y-105432965D02*
X147931416Y-104959225D01*
X142883713Y-32685281D02*
X142600921Y-32486917D01*
X154680010Y-156237694D02*
X154371284Y-156118634D01*
X207448713Y-67939517D02*
X207434142Y-62756499D01*
X210620953Y-40272499D02*
X210678483Y-40850507D01*
X91620508Y-48416583D02*
X91602774Y-48462347D01*
X89906724Y-116622372D02*
X89577443Y-117813648D01*
X198934732Y-92311501D02*
X198359799Y-92331092D01*
X210658407Y-107018537D02*
X210584935Y-107564582D01*
X90844246Y-112104116D02*
X90961582Y-112203824D01*
X92369880Y-31059832D02*
X92995631Y-30659661D01*
X89577443Y-117813648D02*
X89568787Y-121656434D01*
X207384294Y-56171904D02*
X207359072Y-55145318D01*
X147810822Y-34814032D02*
X148140787Y-35310322D01*
X90891695Y-99575777D02*
X90596826Y-99941717D01*
X205246871Y-48613921D02*
X205231235Y-48582177D01*
X89007072Y-38110179D02*
X88917484Y-38335756D01*
X88320515Y-86622183D02*
X88121789Y-86184628D01*
X145135751Y-87103944D02*
X145321357Y-86865187D01*
X185738051Y-25294854D02*
X187405916Y-25455600D01*
X90491623Y-150862096D02*
X90705705Y-151194474D01*
X205285742Y-48684570D02*
X205246871Y-48613921D01*
X207696485Y-109424587D02*
X207799384Y-109245489D01*
X89543243Y-68560428D02*
X89535552Y-75489897D01*
X119788602Y-91454504D02*
X119647775Y-91453573D01*
X139567946Y-90231699D02*
X139932512Y-90196943D01*
X96502170Y-93302076D02*
X97285417Y-92977823D01*
X98796571Y-94537940D02*
X98028543Y-94834790D01*
X207635134Y-37238740D02*
X207403436Y-36799878D01*
X92900258Y-153447483D02*
X93212222Y-153647923D01*
X86713034Y-108865135D02*
X86571519Y-108375211D01*
X89691115Y-110633824D02*
X89912487Y-110984060D01*
X205200944Y-112787890D02*
X205219500Y-112750178D01*
X187477561Y-154857719D02*
X190461286Y-154850900D01*
X147832959Y-43172468D02*
X147858638Y-43057895D01*
X95143234Y-90074863D02*
X95394062Y-90139249D01*
X144308856Y-152424038D02*
X144528340Y-152214214D01*
X209422541Y-60218811D02*
X209434129Y-62749108D01*
X150253875Y-144763062D02*
X150269251Y-146449646D01*
X152420423Y-88000634D02*
X152703946Y-88280002D01*
X88121789Y-86184628D02*
X87948025Y-85737370D01*
X202386473Y-154180062D02*
X202539169Y-154097159D01*
X206087042Y-89707865D02*
X205795403Y-89948900D01*
X202722667Y-96545663D02*
X202422490Y-96364918D01*
X210704449Y-41474509D02*
X210698827Y-42006049D01*
X147859132Y-104482448D02*
X147762307Y-104004748D01*
X138151930Y-90313011D02*
X138682981Y-90289464D01*
X209529119Y-45811904D02*
X209437635Y-45971134D01*
X199489085Y-92286921D02*
X198934732Y-92311501D01*
X206398136Y-50561567D02*
X206278861Y-50322731D01*
X145936851Y-153634578D02*
X145664645Y-153894804D01*
X206711629Y-46558196D02*
X206974551Y-46228782D01*
X206561156Y-32567316D02*
X206841518Y-32843891D01*
X126701467Y-25455600D02*
X128235611Y-25640425D01*
X152078837Y-154810914D02*
X151698403Y-154502318D01*
X129698374Y-25862445D02*
X131138569Y-26132893D01*
X144556184Y-48254202D02*
X144591822Y-48211868D01*
X149068036Y-105169084D02*
X149039418Y-105446447D01*
X136176323Y-156802865D02*
X134418140Y-156825678D01*
X91468657Y-48169443D02*
X91536300Y-48235101D01*
X147641529Y-103528238D02*
X147497389Y-103055032D01*
X142717029Y-30194240D02*
X143069539Y-30406496D01*
X205207284Y-48524892D02*
X205192725Y-48474595D01*
X88300685Y-105988608D02*
X88295551Y-106250194D01*
X91444578Y-48744459D02*
X91301451Y-48956046D01*
X209279814Y-110717525D02*
X209134821Y-111050465D01*
X205296271Y-112649491D02*
X205703299Y-112190079D01*
X142312467Y-96732165D02*
X142018218Y-96545663D01*
X149621933Y-102773379D02*
X149537244Y-103011361D01*
X138797214Y-28324165D02*
X139471535Y-28612543D01*
X87724773Y-111226077D02*
X87487161Y-110771906D01*
X135810286Y-27332641D02*
X137692073Y-27904631D01*
X91619761Y-48336221D02*
X91628176Y-48353678D01*
X152274144Y-31649379D02*
X152673572Y-31340991D01*
X157345090Y-156781812D02*
X156988564Y-156748044D01*
X146349862Y-85109445D02*
X146399252Y-84990067D01*
X208955194Y-115989835D02*
X209020612Y-116224457D01*
X87062110Y-45394663D02*
X86877248Y-44913603D01*
X170727142Y-91841366D02*
X168620951Y-92121672D01*
X94608592Y-156440087D02*
X94289519Y-156344923D01*
X126773112Y-90420096D02*
X129756837Y-90413277D01*
X151902062Y-99218518D02*
X151596144Y-99575777D01*
X149053389Y-42665722D02*
X149119474Y-43041020D01*
X141718041Y-31927295D02*
X141268795Y-31679628D01*
X210171779Y-109031556D02*
X210104233Y-109186840D01*
X210348537Y-44117831D02*
X210294164Y-44277944D01*
X205219500Y-112750178D02*
X205231494Y-112731157D01*
X102572986Y-26813132D02*
X103554172Y-26559626D01*
X209101778Y-85326429D02*
X209038041Y-85525076D01*
X145429339Y-35023795D02*
X145195887Y-34759169D01*
X94289519Y-156344923D02*
X93975561Y-156237694D01*
X210551912Y-43311896D02*
X210519693Y-43472889D01*
X202910331Y-29912448D02*
X203421478Y-30194240D01*
X119647775Y-27015950D02*
X119647775Y-25015907D01*
X146512188Y-149075518D02*
X146540618Y-148951595D01*
X145698872Y-111370414D02*
X146007180Y-110995819D01*
X145186595Y-114055782D02*
X145060338Y-113849111D01*
X203514585Y-153534998D02*
X203786242Y-153367231D01*
X151997330Y-112456063D02*
X152091210Y-112534146D01*
X153297593Y-88786645D02*
X153604707Y-89009860D01*
X130734872Y-92529666D02*
X129363650Y-92272170D01*
X207913674Y-49134027D02*
X208059098Y-49411049D01*
X88110989Y-35555798D02*
X88398027Y-35121920D01*
X112306441Y-27195151D02*
X110022693Y-27403743D01*
X151301275Y-99941717D02*
X151019420Y-100313974D01*
X90787440Y-114331623D02*
X90581069Y-114778345D01*
X87562025Y-124656434D02*
X89562030Y-124656434D01*
X146817208Y-109744725D02*
X146898708Y-109592438D01*
X94898772Y-154439575D02*
X95143234Y-154512486D01*
X146421206Y-52462324D02*
X146379538Y-52287732D01*
X107916502Y-27684049D02*
X106943567Y-27850558D01*
X87985388Y-51628831D02*
X88137518Y-51125685D01*
X148459948Y-149529699D02*
X148452277Y-149563133D01*
X143432840Y-33100437D02*
X143160975Y-32889749D01*
X88313913Y-105720157D02*
X88300685Y-105988608D01*
X151196072Y-150862096D02*
X151410154Y-151194474D01*
X158186191Y-90393863D02*
X165278648Y-90437623D01*
X91189282Y-112374921D02*
X91292881Y-112456063D01*
X146270102Y-110666405D02*
X146474446Y-110398436D01*
X149619487Y-44640887D02*
X149792886Y-45044436D01*
X150273236Y-57218811D02*
X148501000Y-57218811D01*
X146474446Y-110398436D02*
X146550531Y-110292576D01*
X148499000Y-121656434D02*
X146695538Y-121656434D01*
X205200944Y-48350267D02*
X205219500Y-48312555D01*
X155958852Y-31672199D02*
X155339239Y-32013079D01*
X91770847Y-90661443D02*
X91374388Y-90373291D01*
X92769042Y-155695552D02*
X92476176Y-155534304D01*
X155722454Y-29546678D02*
X156450868Y-29199836D01*
X202722667Y-32108040D02*
X202422490Y-31927295D01*
X97290426Y-95140360D02*
X96582107Y-95454694D01*
X195102426Y-90388149D02*
X196845049Y-90365538D01*
X90373320Y-47171078D02*
X90608574Y-47437047D01*
X91178394Y-31977795D02*
X91569695Y-31649379D01*
X142367409Y-156072133D02*
X142107182Y-156184747D01*
X200749255Y-95509957D02*
X200059425Y-95189077D01*
X90844246Y-47666493D02*
X90961582Y-47766201D01*
X86376716Y-104938927D02*
X86418934Y-104610475D01*
X151333655Y-154175194D02*
X150984557Y-153831212D01*
X146493835Y-52860383D02*
X146459244Y-52652006D01*
X105019881Y-28262969D02*
X104039276Y-28499967D01*
X208845236Y-35310322D02*
X209148889Y-35822197D01*
X203071858Y-91634510D02*
X202811631Y-91747124D01*
X141189202Y-154391297D02*
X141364591Y-154326863D01*
X90040198Y-51743305D02*
X89906724Y-52184749D01*
X207362154Y-110092839D02*
X207370706Y-110065034D01*
X87265894Y-110306548D02*
X87062110Y-109832286D01*
X210417309Y-39122521D02*
X210533560Y-39696064D01*
X207325848Y-118746499D02*
X207305783Y-118390569D01*
X146270102Y-46228782D02*
X146474446Y-45960813D01*
X205685110Y-96219167D02*
X205982987Y-96473764D01*
X91628176Y-48353678D02*
X91631043Y-48367480D01*
X153916671Y-89210300D02*
X154167763Y-89357078D01*
X207416341Y-146388796D02*
X207445088Y-143026545D01*
X149103950Y-104889674D02*
X149068036Y-105169084D01*
X151285518Y-50340722D02*
X151088040Y-50807225D01*
X89535552Y-139927520D02*
X89549426Y-144763062D01*
X132284257Y-90403345D02*
X134397977Y-90388149D01*
X89912487Y-110984060D02*
X90140590Y-111310425D01*
X209400211Y-121656434D02*
X207399987Y-121656434D01*
X144998850Y-112190079D02*
X145358365Y-111773922D01*
X150611173Y-116622372D02*
X150281892Y-117813648D01*
X207151323Y-36374884D02*
X206879384Y-35965871D01*
X87586585Y-147729153D02*
X87564959Y-146476017D01*
X140778452Y-154503578D02*
X140995598Y-154450112D01*
X209297984Y-84334808D02*
X209271669Y-84530999D01*
X142107182Y-156184747D02*
X141825237Y-156288327D01*
X206877403Y-116105789D02*
X206598272Y-115439259D01*
X147330475Y-102587242D02*
X147141377Y-102126981D01*
X146172954Y-116105789D02*
X145893823Y-115439259D01*
X143402806Y-30617729D02*
X143730179Y-30836060D01*
X149406157Y-34693832D02*
X149724994Y-34272732D01*
X165278648Y-90437623D02*
X177352224Y-90433825D01*
X205443737Y-87559601D02*
X205646192Y-87335401D01*
X147411462Y-108698105D02*
X147470626Y-108584892D01*
X142811354Y-155842676D02*
X142602144Y-155956262D01*
X104568029Y-156875246D02*
X97421050Y-156831149D01*
X129363650Y-92272170D02*
X127965876Y-92060014D01*
X196845049Y-90365538D02*
X198259183Y-90333360D01*
X147741258Y-43501367D02*
X147774505Y-43393595D01*
X114724304Y-91497620D02*
X112306441Y-91632774D01*
X203865424Y-97327372D02*
X203588162Y-97122904D01*
X151700933Y-49481125D02*
X151491889Y-49894000D01*
X146898708Y-109592438D02*
X146992036Y-109424587D01*
X148000000Y-105901557D02*
X147978568Y-105432965D01*
X88492149Y-104331135D02*
X88442443Y-104609822D01*
X88785291Y-87468767D02*
X88542221Y-87050273D01*
X138151930Y-154750634D02*
X138682981Y-154727087D01*
X89646382Y-84406406D02*
X89727434Y-84735438D01*
X208478954Y-43393595D02*
X208509443Y-43284166D01*
X193308274Y-26461787D02*
X194847937Y-26858476D01*
X207422520Y-124656434D02*
X209422541Y-124656434D01*
X146442264Y-149311010D02*
X146479656Y-149194471D01*
X145980668Y-85836261D02*
X146155830Y-85509325D01*
X208437080Y-114652479D02*
X208733097Y-115359330D01*
X207184105Y-149194471D02*
X207216637Y-149075518D01*
X147497389Y-38617409D02*
X147330475Y-38149619D01*
X208327052Y-43820820D02*
X208369992Y-43714370D01*
X95254403Y-31672199D02*
X94634790Y-32013079D01*
X147882265Y-42939836D02*
X147904077Y-42817683D01*
X209240489Y-149164718D02*
X209202685Y-149362806D01*
X208515271Y-34814032D02*
X208845236Y-35310322D01*
X207178895Y-110398436D02*
X207254980Y-110292576D01*
X146642281Y-110147273D02*
X146651429Y-110126267D01*
X96582107Y-95454694D02*
X95903470Y-95777834D01*
X147464791Y-34349469D02*
X147810822Y-34814032D01*
X150183029Y-110263933D02*
X150395564Y-110633824D01*
X201401347Y-31388183D02*
X200749255Y-31072334D01*
X208437080Y-50214856D02*
X208733097Y-50921707D01*
X207270154Y-148820144D02*
X207292658Y-148678611D01*
X145060338Y-113849111D02*
X144942094Y-113668636D01*
X206062814Y-47336299D02*
X206403321Y-46932791D01*
X143844094Y-88384743D02*
X144080789Y-88189118D01*
X153297593Y-153224268D02*
X153604707Y-153447483D01*
X148501000Y-60218811D02*
X150266479Y-60218811D01*
X90280108Y-89393589D02*
X89946915Y-89034264D01*
X206860279Y-85509325D02*
X206933359Y-85366518D01*
X87593103Y-36437567D02*
X87842141Y-35994531D01*
X207416341Y-81951173D02*
X207445088Y-78588922D01*
X151596144Y-35138154D02*
X151301275Y-35504094D01*
X187477561Y-90420096D02*
X190461286Y-90413277D01*
X90120185Y-85748201D02*
X90295948Y-86087580D01*
X149383627Y-39080492D02*
X149315231Y-39346052D01*
X155313041Y-156440087D02*
X154993968Y-156344923D01*
X146137069Y-32843891D02*
X146411680Y-33127781D01*
X144942094Y-49231013D02*
X144690989Y-48859898D01*
X150334541Y-153098589D02*
X150034750Y-152712544D01*
X104574513Y-156875246D02*
X104568029Y-156875246D01*
X149211231Y-43430403D02*
X149326555Y-43829653D01*
X205207284Y-112962515D02*
X205192725Y-112912218D01*
X209434129Y-127186731D02*
X209448713Y-132374669D01*
X151548695Y-47666493D02*
X151666031Y-47766201D01*
X207116129Y-97565404D02*
X207385059Y-97856599D01*
X208056182Y-151882474D02*
X207847180Y-152196082D01*
X206151985Y-114518665D02*
X206021411Y-114281387D01*
X150402484Y-33457198D02*
X150758512Y-33065892D01*
X89567118Y-37007386D02*
X89356950Y-37381273D01*
X154167763Y-153794701D02*
X154412421Y-153929407D01*
X199857660Y-154700073D02*
X200272395Y-154669322D01*
X109799715Y-25415783D02*
X112159625Y-25200235D01*
X107916502Y-92121672D02*
X106943567Y-92288181D01*
X151499516Y-32324495D02*
X151882843Y-31977795D01*
X88246642Y-112091809D02*
X87977990Y-111666772D01*
X88320515Y-151059806D02*
X88121789Y-150622251D01*
X151902062Y-34780895D02*
X151596144Y-35138154D01*
X146442264Y-84873387D02*
X146479656Y-84756848D01*
X146479656Y-84756848D02*
X146512188Y-84637895D01*
X93155191Y-97389618D02*
X92824214Y-97645157D01*
X206989040Y-116407022D02*
X206935398Y-116256070D01*
X144217373Y-33770985D02*
X143960906Y-33540939D01*
X150266479Y-124656434D02*
X150247692Y-132998051D01*
X101281266Y-93699289D02*
X100422819Y-93970233D01*
X209131221Y-116729146D02*
X209176122Y-116999628D01*
X145090954Y-154386523D02*
X144789980Y-154617858D01*
X91626281Y-48397381D02*
X91620508Y-48416583D01*
X153604707Y-89009860D02*
X153916671Y-89210300D01*
X144080789Y-88189118D02*
X144308856Y-87986415D01*
X144484379Y-48451587D02*
X144482663Y-48429750D01*
X209038041Y-85525076D02*
X208966730Y-85718525D01*
X209416099Y-146425540D02*
X209369230Y-148087406D01*
X94608592Y-92002464D02*
X94289519Y-91907300D01*
X209079462Y-116471044D02*
X209131221Y-116729146D01*
X92824214Y-97645157D02*
X92492504Y-97923558D01*
X150905676Y-115717064D02*
X150744647Y-116180928D01*
X148546590Y-35994531D02*
X148815438Y-35555798D01*
X209276934Y-53474880D02*
X209301802Y-53826010D01*
X154889754Y-154164624D02*
X155126086Y-154266151D01*
X199387430Y-154727087D02*
X199857660Y-154700073D01*
X89906724Y-52184749D02*
X89577443Y-53376025D01*
X203773988Y-94844119D02*
X204107255Y-95055352D01*
X203514585Y-89097375D02*
X203786242Y-88929608D01*
X149211231Y-107868026D02*
X149326555Y-108267276D01*
X152703946Y-88280002D02*
X152996838Y-88542682D01*
X86301651Y-41482131D02*
X86317692Y-41156593D01*
X208201838Y-103055032D02*
X208034924Y-102587242D01*
X206877403Y-51668166D02*
X206598272Y-51001636D01*
X152324957Y-48416583D02*
X152307223Y-48462347D01*
X207254980Y-110292576D02*
X207311474Y-110208178D01*
X147832959Y-107610091D02*
X147858638Y-107495518D01*
X88542221Y-151487896D02*
X88320515Y-151059806D01*
X138031922Y-30172098D02*
X137483611Y-29952368D01*
X151019420Y-35876351D02*
X150752541Y-36252561D01*
X149053389Y-107103345D02*
X149119474Y-107478643D01*
X209279814Y-46279902D02*
X209134821Y-46612842D01*
X157839592Y-90374950D02*
X158186191Y-90393863D01*
X88548350Y-39617594D02*
X88492149Y-39893512D01*
X150290442Y-147677592D02*
X150317589Y-148468515D01*
X151666031Y-47766201D02*
X151782682Y-47855197D01*
X96807712Y-90351063D02*
X97135143Y-90374950D01*
X204049091Y-153192567D02*
X204303176Y-153010960D01*
X97481742Y-154831486D02*
X104574199Y-154875246D01*
X150269251Y-82012023D02*
X150290442Y-83239969D01*
X204107255Y-30617729D02*
X204434628Y-30836060D01*
X146446874Y-36374884D02*
X146174935Y-35965871D01*
X209148889Y-100259820D02*
X209426375Y-100785410D01*
X154371284Y-156118634D02*
X154067677Y-155988206D01*
X91569695Y-96087002D02*
X91969123Y-95778614D01*
X88399501Y-104889674D02*
X88363587Y-105169084D01*
X91488307Y-113113418D02*
X91444578Y-113182082D01*
X86593590Y-39193868D02*
X86667481Y-38872486D01*
X144958096Y-98939314D02*
X144715836Y-98688868D01*
X144515051Y-112750178D02*
X144527045Y-112731157D01*
X207847180Y-152196082D02*
X207627291Y-152501386D01*
X151410154Y-86756851D02*
X151641136Y-87082685D01*
X116647775Y-25013421D02*
X116647775Y-27013993D01*
X88348940Y-107103345D02*
X88415025Y-107478643D01*
X144482663Y-48429750D02*
X144483072Y-48408892D01*
X138189441Y-28080606D02*
X138797214Y-28324165D01*
X207370706Y-110065034D02*
X207403174Y-109985340D01*
X190402823Y-25862445D02*
X191843018Y-26132893D01*
X209214831Y-117284703D02*
X209248171Y-117587655D01*
X145570545Y-32298065D02*
X145856707Y-32567316D01*
X142018218Y-96545663D02*
X141718041Y-96364918D01*
X145447536Y-114518665D02*
X145316962Y-114281387D01*
X155363298Y-89920009D02*
X155603221Y-90001952D01*
X209792015Y-109801210D02*
X209529119Y-110249527D01*
X155339239Y-96450702D02*
X154748967Y-96800515D01*
X208327198Y-114401049D02*
X208437080Y-114652479D01*
X205071672Y-95731898D02*
X205381342Y-95971884D01*
X141682024Y-154180062D02*
X141834720Y-154097159D01*
X198736371Y-30172098D02*
X198188060Y-29952368D01*
X200956684Y-154595536D02*
X201236889Y-154551963D01*
X190068099Y-27834547D02*
X188670325Y-27622391D01*
X89276986Y-109878606D02*
X89478580Y-110263933D01*
X88679178Y-39080492D02*
X88610782Y-39346052D01*
X144527045Y-48293534D02*
X144556184Y-48254202D01*
X163277435Y-26813132D02*
X164258621Y-26559626D01*
X210620953Y-104710122D02*
X210678483Y-105288130D01*
X91631043Y-48367480D02*
X91626281Y-48397381D01*
X142810136Y-89097375D02*
X143081793Y-88929608D01*
X87724773Y-46788454D02*
X87487161Y-46334283D01*
X90996484Y-49481125D02*
X90787440Y-49894000D01*
X198396522Y-27904631D02*
X198893890Y-28080606D01*
X151491889Y-114331623D02*
X151285518Y-114778345D01*
X88398027Y-35121920D02*
X88701708Y-34693832D01*
X190461286Y-90413277D02*
X192988706Y-90403345D01*
X207184105Y-84756848D02*
X207216637Y-84637895D01*
X103554172Y-26559626D02*
X104564461Y-26315454D01*
X144542422Y-48613921D02*
X144526786Y-48582177D01*
X147497389Y-103055032D02*
X147330475Y-102587242D01*
X147141377Y-37689358D02*
X146930685Y-37238740D01*
X91619761Y-112773844D02*
X91628176Y-112791301D01*
X149068036Y-40731461D02*
X149039418Y-41008824D01*
X147731924Y-151240170D02*
X147549794Y-151560829D01*
X161985715Y-29261666D02*
X161127268Y-29532610D01*
X86877248Y-44913603D02*
X86713034Y-44427512D01*
X209358934Y-110550301D02*
X209294668Y-110670386D01*
X208052100Y-108814532D02*
X208115911Y-108698105D01*
X89007072Y-102547802D02*
X88917484Y-102773379D01*
X90608574Y-111874670D02*
X90844246Y-112104116D01*
X89965841Y-149845988D02*
X90120185Y-150185824D01*
X185572492Y-27288165D02*
X183052600Y-27112363D01*
X90629206Y-154175194D02*
X90280108Y-153831212D01*
X151782682Y-47855197D02*
X151893731Y-47937298D01*
X93975561Y-156237694D02*
X93666835Y-156118634D01*
X204548543Y-88384743D02*
X204785238Y-88189118D01*
X205173421Y-34007715D02*
X204921822Y-33770985D01*
X146679845Y-120609527D02*
X146654623Y-119582941D01*
X89562030Y-60218811D02*
X89543243Y-68560428D01*
X92492504Y-97923558D02*
X92162026Y-98222459D01*
X208667792Y-42377218D02*
X208699570Y-41925263D01*
X91512616Y-34434679D02*
X91197613Y-34780895D01*
X147762307Y-39567125D02*
X147641529Y-39090615D01*
X207906205Y-34023244D02*
X208169240Y-34349469D01*
X146657705Y-45655216D02*
X146666257Y-45627411D01*
X147774505Y-43393595D02*
X147804994Y-43284166D01*
X132603825Y-26461787D02*
X134143488Y-26858476D01*
X205420285Y-98688868D02*
X205173421Y-98445338D01*
X157994875Y-95140360D02*
X157286556Y-95454694D01*
X95653086Y-90195619D02*
X95922135Y-90244478D01*
X206935398Y-51818447D02*
X206877403Y-51668166D01*
X203016916Y-32294542D02*
X202722667Y-32108040D01*
X114724304Y-27059997D02*
X112306441Y-27195151D01*
X146399252Y-149427690D02*
X146442264Y-149311010D01*
X150616936Y-110984060D02*
X150845039Y-111310425D01*
X144690989Y-48859898D02*
X144630667Y-48766050D01*
X145883760Y-100012577D02*
X145658586Y-99733308D01*
X210704449Y-105855843D02*
X210704449Y-105912132D01*
X208966730Y-150156148D02*
X208889568Y-150342653D01*
X209156726Y-85125510D02*
X209101778Y-85326429D01*
X209902775Y-101870757D02*
X210101335Y-102427237D01*
X150317589Y-84030892D02*
X150333439Y-84269224D01*
X201700047Y-90012489D02*
X201893651Y-89953674D01*
X156357535Y-154633242D02*
X156626584Y-154682101D01*
X209383925Y-56132353D02*
X209400211Y-57218811D01*
X203306593Y-155956262D02*
X203071858Y-156072133D01*
X116647775Y-90936623D02*
X116647775Y-90938623D01*
X152232382Y-113046643D02*
X152192756Y-113113418D01*
X150333439Y-148706847D02*
X150350831Y-148844029D01*
X91562501Y-48545962D02*
X91527933Y-48609020D01*
X143081793Y-153367231D02*
X143344642Y-153192567D01*
X151906427Y-49116163D02*
X151700933Y-49481125D01*
X198188060Y-94389991D02*
X197771833Y-94242725D01*
X206278861Y-50322731D02*
X206151985Y-50081042D01*
X86295551Y-106262942D02*
X86295551Y-106230569D01*
X104039276Y-28499967D02*
X103089381Y-28745388D01*
X96502170Y-28864453D02*
X97285417Y-28540200D01*
X210551912Y-107749519D02*
X210519693Y-107910512D01*
X209294668Y-46232763D02*
X209285157Y-46251443D01*
X208704449Y-41463934D02*
X208683017Y-40995342D01*
X167281746Y-25884163D02*
X168320235Y-25706435D01*
X210519693Y-107910512D02*
X210483559Y-108071730D01*
X129363650Y-27834547D02*
X127965876Y-27622391D01*
X91183063Y-151837569D02*
X91443328Y-152144228D01*
X207229607Y-53091061D02*
X207198284Y-52860383D01*
X140696898Y-95825806D02*
X140044806Y-95509957D01*
X89115772Y-48768064D02*
X88834420Y-48449978D01*
X96640641Y-92344189D02*
X96284115Y-92310421D01*
X148499000Y-57218811D02*
X146695538Y-57218811D01*
X150395564Y-46196201D02*
X150616936Y-46546437D01*
X146540618Y-148951595D02*
X146565705Y-148820144D01*
X89628990Y-148706847D02*
X89646382Y-148844029D01*
X154748967Y-96800515D02*
X154187921Y-97159306D01*
X129763052Y-156850891D02*
X126776550Y-156857716D01*
X91620508Y-112854206D02*
X91602774Y-112899970D01*
X144581293Y-48684570D02*
X144542422Y-48613921D01*
X91536300Y-48235101D02*
X91587424Y-48291394D01*
X143344642Y-153192567D02*
X143598727Y-153010960D01*
X139932512Y-154634566D02*
X140252235Y-154595536D01*
X152310531Y-48315372D02*
X152324210Y-48336221D01*
X116647775Y-90938623D02*
X116647775Y-91451616D01*
X146666257Y-45627411D02*
X146698725Y-45547717D01*
X143960906Y-33540939D02*
X143699439Y-33317462D01*
X141364591Y-154326863D02*
X141527090Y-154256541D01*
X89834422Y-85070101D02*
X89965841Y-85408365D01*
X148452277Y-149563133D02*
X148397329Y-149764052D01*
X86317692Y-105594216D02*
X86342858Y-105267081D01*
X128235611Y-25640425D02*
X129698374Y-25862445D01*
X143081793Y-88929608D02*
X143344642Y-88754944D01*
X146588209Y-148678611D02*
X146608888Y-148524439D01*
X90373320Y-111608701D02*
X90608574Y-111874670D01*
X206879384Y-100403494D02*
X206588209Y-100012577D01*
X91999497Y-88280002D02*
X92292389Y-88542682D01*
X138230283Y-156749124D02*
X137611538Y-156770208D01*
X208786417Y-111588676D02*
X208551495Y-111896744D01*
X88548350Y-104055217D02*
X88492149Y-104331135D01*
X146666257Y-110065034D02*
X146698725Y-109985340D01*
X200853078Y-156623030D02*
X200441261Y-156662291D01*
X204137289Y-97538060D02*
X203865424Y-97327372D01*
X205703299Y-47752456D02*
X206062814Y-47336299D01*
X203786242Y-88929608D02*
X204049091Y-88754944D01*
X87549452Y-144775047D02*
X87535548Y-139929279D01*
X143160975Y-97327372D02*
X142883713Y-97122904D01*
X185572492Y-91725788D02*
X183052600Y-91549986D01*
X208551495Y-47459121D02*
X208265404Y-47817564D01*
X208254243Y-151560829D02*
X208056182Y-151882474D01*
X152217065Y-98872302D02*
X151902062Y-99218518D01*
X208635865Y-104959225D02*
X208563581Y-104482448D01*
X203773988Y-30406496D02*
X204107255Y-30617729D01*
X208052100Y-44376909D02*
X208115911Y-44260482D01*
X205662545Y-34501691D02*
X205420285Y-34251245D01*
X147641529Y-39090615D02*
X147497389Y-38617409D01*
X132284257Y-154840968D02*
X134397977Y-154825772D01*
X88610782Y-103783675D02*
X88548350Y-104055217D01*
X129756837Y-154850900D02*
X132284257Y-154840968D01*
X198359799Y-92331092D02*
X198396522Y-92342254D01*
X156907485Y-154723956D02*
X157202068Y-154759316D01*
X95394062Y-154576872D02*
X95653086Y-154633242D01*
X146628501Y-148355072D02*
X146667565Y-147960529D01*
X88834420Y-112887601D02*
X88531423Y-112499269D01*
X147411462Y-44260482D02*
X147470626Y-44147269D01*
X87543245Y-68557065D02*
X87562025Y-60218811D01*
X88751891Y-49531305D02*
X88986885Y-49022625D01*
X177352224Y-154871448D02*
X177352224Y-156871448D01*
X151410154Y-151194474D02*
X151641136Y-151520308D01*
X206369094Y-89457181D02*
X206087042Y-89707865D01*
X146679845Y-56171904D02*
X146654623Y-55145318D01*
X88295551Y-106250194D02*
X88298778Y-106503310D01*
X151077769Y-111608701D02*
X151313023Y-111874670D01*
X106577297Y-25884163D02*
X107615786Y-25706435D01*
X151782682Y-112292820D02*
X151893731Y-112374921D01*
X147995121Y-106362886D02*
X148000000Y-105901557D01*
X137483611Y-29952368D02*
X137067384Y-29805102D01*
X155126086Y-154266151D02*
X155363298Y-154357632D01*
X144468972Y-34007715D02*
X144217373Y-33770985D01*
X203305370Y-96924540D02*
X203016916Y-96732165D01*
X207612914Y-48600541D02*
X207763542Y-48861208D01*
X146922842Y-152501386D02*
X146692163Y-152798124D01*
X145316962Y-49843764D02*
X145186595Y-49618159D01*
X92476176Y-155534304D02*
X92166547Y-155353308D01*
X206369094Y-153894804D02*
X206087042Y-154145488D01*
X97285417Y-92977823D02*
X98096337Y-92664395D01*
X99594625Y-29812146D02*
X98796571Y-30100317D01*
X144941743Y-87335401D02*
X145135751Y-87103944D01*
X86469257Y-104282516D02*
X86527512Y-103955903D01*
X90314971Y-35876351D02*
X90048092Y-36252561D01*
X144591822Y-112649491D02*
X144998850Y-112190079D01*
X196845049Y-154803161D02*
X198259183Y-154770983D01*
X145980668Y-150273884D02*
X146155830Y-149946948D01*
X119647775Y-91453573D02*
X119647775Y-90938623D01*
X201606989Y-93703153D02*
X202291408Y-94034661D01*
X204403888Y-97755085D02*
X204137289Y-97538060D01*
X144367223Y-31294275D02*
X144676893Y-31534261D01*
X149383627Y-103518115D02*
X149315231Y-103783675D01*
X207355878Y-110126267D02*
X207362154Y-110092839D01*
X204921822Y-33770985D02*
X204665355Y-33540939D01*
X207216637Y-149075518D02*
X207245067Y-148951595D01*
X201915203Y-92019245D02*
X201583664Y-92084452D01*
X91606082Y-48315372D02*
X91619761Y-48336221D01*
X203515803Y-91405053D02*
X203306593Y-91518639D01*
X87801731Y-85279756D02*
X87676796Y-84772582D01*
X97135143Y-90374950D02*
X97481742Y-90393863D01*
X153196953Y-33485935D02*
X152866475Y-33784836D01*
X208280410Y-43928047D02*
X208327052Y-43820820D01*
X145574412Y-50322731D02*
X145447536Y-50081042D01*
X137483611Y-94389991D02*
X137067384Y-94242725D01*
X157206619Y-28864453D02*
X157989866Y-28540200D01*
X209792015Y-45363587D02*
X209529119Y-45811904D01*
X146007180Y-46558196D02*
X146270102Y-46228782D01*
X94044518Y-96800515D02*
X93483472Y-97159306D01*
X177352224Y-91451616D02*
X175428753Y-91497620D01*
M02*
