G04 #@! TF.GenerationSoftware,KiCad,Pcbnew,5.1.2*
G04 #@! TF.CreationDate,2019-07-09T10:36:40-05:00*
G04 #@! TF.ProjectId,ZoraSapphire,5a6f7261-5361-4707-9068-6972652e6b69,rev?*
G04 #@! TF.SameCoordinates,Original*
G04 #@! TF.FileFunction,Soldermask,Top*
G04 #@! TF.FilePolarity,Negative*
%FSLAX46Y46*%
G04 Gerber Fmt 4.6, Leading zero omitted, Abs format (unit mm)*
G04 Created by KiCad (PCBNEW 5.1.2) date 2019-07-09 10:36:40*
%MOMM*%
%LPD*%
G04 APERTURE LIST*
%ADD10C,0.010000*%
G04 APERTURE END LIST*
D10*
G36*
X158126578Y-95205091D02*
G01*
X158243771Y-95233671D01*
X158429540Y-95280643D01*
X158677280Y-95344258D01*
X158980386Y-95422767D01*
X159332251Y-95514420D01*
X159726272Y-95617466D01*
X160155841Y-95730156D01*
X160614354Y-95850740D01*
X161095206Y-95977469D01*
X161591790Y-96108592D01*
X162097502Y-96242360D01*
X162605736Y-96377023D01*
X163109886Y-96510832D01*
X163603347Y-96642035D01*
X164079514Y-96768884D01*
X164531781Y-96889629D01*
X164953543Y-97002519D01*
X165338194Y-97105806D01*
X165679129Y-97197739D01*
X165969742Y-97276569D01*
X166203428Y-97340545D01*
X166373582Y-97387918D01*
X166473598Y-97416938D01*
X166498553Y-97425552D01*
X166509399Y-97469953D01*
X166532585Y-97590930D01*
X166566978Y-97781626D01*
X166611448Y-98035186D01*
X166664863Y-98344754D01*
X166726090Y-98703473D01*
X166793998Y-99104488D01*
X166867455Y-99540944D01*
X166945330Y-100005983D01*
X167026490Y-100492751D01*
X167109804Y-100994392D01*
X167194141Y-101504049D01*
X167278367Y-102014867D01*
X167361353Y-102519989D01*
X167441965Y-103012561D01*
X167519073Y-103485725D01*
X167591544Y-103932627D01*
X167658246Y-104346410D01*
X167718048Y-104720219D01*
X167769819Y-105047197D01*
X167812425Y-105320489D01*
X167844736Y-105533238D01*
X167865620Y-105678590D01*
X167873945Y-105749688D01*
X167873693Y-105755751D01*
X167832060Y-105775305D01*
X167718848Y-105824777D01*
X167540517Y-105901451D01*
X167303530Y-106002609D01*
X167014347Y-106125535D01*
X166679430Y-106267513D01*
X166305239Y-106425826D01*
X165898236Y-106597757D01*
X165464881Y-106780590D01*
X165011637Y-106971609D01*
X164544964Y-107168097D01*
X164071324Y-107367337D01*
X163597177Y-107566613D01*
X163128984Y-107763208D01*
X162673208Y-107954406D01*
X162236308Y-108137491D01*
X161824747Y-108309745D01*
X161444985Y-108468452D01*
X161103483Y-108610895D01*
X160806703Y-108734359D01*
X160561105Y-108836126D01*
X160373152Y-108913480D01*
X160249303Y-108963705D01*
X160196021Y-108984083D01*
X160194522Y-108984398D01*
X160160788Y-108954864D01*
X160070973Y-108869456D01*
X159928998Y-108732034D01*
X159738785Y-108546459D01*
X159504254Y-108316590D01*
X159229328Y-108046289D01*
X158917927Y-107739415D01*
X158573972Y-107399829D01*
X158201385Y-107031391D01*
X157804087Y-106637961D01*
X157385999Y-106223399D01*
X156951043Y-105791566D01*
X156930763Y-105771419D01*
X156417832Y-105261664D01*
X155961860Y-104808088D01*
X155559607Y-104407333D01*
X155207831Y-104056044D01*
X154903291Y-103750865D01*
X154642746Y-103488441D01*
X154422955Y-103265415D01*
X154240677Y-103078431D01*
X154092670Y-102924133D01*
X153975693Y-102799166D01*
X153886505Y-102700173D01*
X153821865Y-102623799D01*
X153778532Y-102566687D01*
X153753264Y-102525482D01*
X153742820Y-102496828D01*
X153743960Y-102477368D01*
X153745669Y-102473556D01*
X153774261Y-102424180D01*
X153842146Y-102309027D01*
X153945769Y-102134058D01*
X154081576Y-101905235D01*
X154246013Y-101628519D01*
X154435526Y-101309870D01*
X154646560Y-100955249D01*
X154875562Y-100570618D01*
X155118975Y-100161937D01*
X155373248Y-99735168D01*
X155634825Y-99296271D01*
X155900151Y-98851207D01*
X156165674Y-98405938D01*
X156427837Y-97966424D01*
X156683088Y-97538627D01*
X156927872Y-97128507D01*
X157158634Y-96742025D01*
X157371821Y-96385142D01*
X157563877Y-96063820D01*
X157731249Y-95784020D01*
X157870383Y-95551701D01*
X157977724Y-95372826D01*
X158049717Y-95253356D01*
X158082810Y-95199250D01*
X158084567Y-95196655D01*
X158126578Y-95205091D01*
X158126578Y-95205091D01*
G37*
X158126578Y-95205091D02*
X158243771Y-95233671D01*
X158429540Y-95280643D01*
X158677280Y-95344258D01*
X158980386Y-95422767D01*
X159332251Y-95514420D01*
X159726272Y-95617466D01*
X160155841Y-95730156D01*
X160614354Y-95850740D01*
X161095206Y-95977469D01*
X161591790Y-96108592D01*
X162097502Y-96242360D01*
X162605736Y-96377023D01*
X163109886Y-96510832D01*
X163603347Y-96642035D01*
X164079514Y-96768884D01*
X164531781Y-96889629D01*
X164953543Y-97002519D01*
X165338194Y-97105806D01*
X165679129Y-97197739D01*
X165969742Y-97276569D01*
X166203428Y-97340545D01*
X166373582Y-97387918D01*
X166473598Y-97416938D01*
X166498553Y-97425552D01*
X166509399Y-97469953D01*
X166532585Y-97590930D01*
X166566978Y-97781626D01*
X166611448Y-98035186D01*
X166664863Y-98344754D01*
X166726090Y-98703473D01*
X166793998Y-99104488D01*
X166867455Y-99540944D01*
X166945330Y-100005983D01*
X167026490Y-100492751D01*
X167109804Y-100994392D01*
X167194141Y-101504049D01*
X167278367Y-102014867D01*
X167361353Y-102519989D01*
X167441965Y-103012561D01*
X167519073Y-103485725D01*
X167591544Y-103932627D01*
X167658246Y-104346410D01*
X167718048Y-104720219D01*
X167769819Y-105047197D01*
X167812425Y-105320489D01*
X167844736Y-105533238D01*
X167865620Y-105678590D01*
X167873945Y-105749688D01*
X167873693Y-105755751D01*
X167832060Y-105775305D01*
X167718848Y-105824777D01*
X167540517Y-105901451D01*
X167303530Y-106002609D01*
X167014347Y-106125535D01*
X166679430Y-106267513D01*
X166305239Y-106425826D01*
X165898236Y-106597757D01*
X165464881Y-106780590D01*
X165011637Y-106971609D01*
X164544964Y-107168097D01*
X164071324Y-107367337D01*
X163597177Y-107566613D01*
X163128984Y-107763208D01*
X162673208Y-107954406D01*
X162236308Y-108137491D01*
X161824747Y-108309745D01*
X161444985Y-108468452D01*
X161103483Y-108610895D01*
X160806703Y-108734359D01*
X160561105Y-108836126D01*
X160373152Y-108913480D01*
X160249303Y-108963705D01*
X160196021Y-108984083D01*
X160194522Y-108984398D01*
X160160788Y-108954864D01*
X160070973Y-108869456D01*
X159928998Y-108732034D01*
X159738785Y-108546459D01*
X159504254Y-108316590D01*
X159229328Y-108046289D01*
X158917927Y-107739415D01*
X158573972Y-107399829D01*
X158201385Y-107031391D01*
X157804087Y-106637961D01*
X157385999Y-106223399D01*
X156951043Y-105791566D01*
X156930763Y-105771419D01*
X156417832Y-105261664D01*
X155961860Y-104808088D01*
X155559607Y-104407333D01*
X155207831Y-104056044D01*
X154903291Y-103750865D01*
X154642746Y-103488441D01*
X154422955Y-103265415D01*
X154240677Y-103078431D01*
X154092670Y-102924133D01*
X153975693Y-102799166D01*
X153886505Y-102700173D01*
X153821865Y-102623799D01*
X153778532Y-102566687D01*
X153753264Y-102525482D01*
X153742820Y-102496828D01*
X153743960Y-102477368D01*
X153745669Y-102473556D01*
X153774261Y-102424180D01*
X153842146Y-102309027D01*
X153945769Y-102134058D01*
X154081576Y-101905235D01*
X154246013Y-101628519D01*
X154435526Y-101309870D01*
X154646560Y-100955249D01*
X154875562Y-100570618D01*
X155118975Y-100161937D01*
X155373248Y-99735168D01*
X155634825Y-99296271D01*
X155900151Y-98851207D01*
X156165674Y-98405938D01*
X156427837Y-97966424D01*
X156683088Y-97538627D01*
X156927872Y-97128507D01*
X157158634Y-96742025D01*
X157371821Y-96385142D01*
X157563877Y-96063820D01*
X157731249Y-95784020D01*
X157870383Y-95551701D01*
X157977724Y-95372826D01*
X158049717Y-95253356D01*
X158082810Y-95199250D01*
X158084567Y-95196655D01*
X158126578Y-95205091D01*
G36*
X145750214Y-95172048D02*
G01*
X145774338Y-95211460D01*
X145837166Y-95318292D01*
X145935241Y-95486543D01*
X146065105Y-95710209D01*
X146223303Y-95983287D01*
X146406377Y-96299777D01*
X146610870Y-96653673D01*
X146833326Y-97038976D01*
X147070287Y-97449680D01*
X147318298Y-97879786D01*
X147573900Y-98323288D01*
X147833637Y-98774186D01*
X148094053Y-99226477D01*
X148351690Y-99674157D01*
X148603091Y-100111226D01*
X148844800Y-100531679D01*
X149073361Y-100929514D01*
X149285315Y-101298730D01*
X149477206Y-101633323D01*
X149645577Y-101927291D01*
X149786972Y-102174631D01*
X149897933Y-102369341D01*
X149975004Y-102505419D01*
X150014728Y-102576861D01*
X150015840Y-102578945D01*
X150020674Y-102597509D01*
X150015520Y-102623009D01*
X149996846Y-102659058D01*
X149961115Y-102709265D01*
X149904795Y-102777242D01*
X149824352Y-102866599D01*
X149716250Y-102980949D01*
X149576956Y-103123900D01*
X149402936Y-103299066D01*
X149190656Y-103510056D01*
X148936580Y-103760481D01*
X148637176Y-104053952D01*
X148288909Y-104394081D01*
X147888245Y-104784478D01*
X147431650Y-105228755D01*
X147239168Y-105415934D01*
X146820591Y-105822882D01*
X146412475Y-106219557D01*
X146019823Y-106601103D01*
X145647638Y-106962663D01*
X145300922Y-107299382D01*
X144984677Y-107606402D01*
X144703907Y-107878867D01*
X144463612Y-108111920D01*
X144268797Y-108300704D01*
X144124464Y-108440364D01*
X144035615Y-108526043D01*
X144033249Y-108528313D01*
X143651998Y-108894150D01*
X139651749Y-107094648D01*
X139102896Y-106847716D01*
X138576156Y-106610669D01*
X138076620Y-106385803D01*
X137609379Y-106175412D01*
X137179523Y-105981791D01*
X136792145Y-105807233D01*
X136452334Y-105654034D01*
X136165182Y-105524488D01*
X135935780Y-105420889D01*
X135769220Y-105345532D01*
X135670591Y-105300712D01*
X135643973Y-105288351D01*
X135649176Y-105246414D01*
X135666951Y-105127846D01*
X135696175Y-104939569D01*
X135735725Y-104688503D01*
X135784477Y-104381569D01*
X135841309Y-104025689D01*
X135905099Y-103627784D01*
X135974722Y-103194775D01*
X136049056Y-102733583D01*
X136126978Y-102251129D01*
X136207366Y-101754335D01*
X136289096Y-101250120D01*
X136371045Y-100745407D01*
X136452090Y-100247117D01*
X136531109Y-99762170D01*
X136606978Y-99297488D01*
X136678575Y-98859991D01*
X136744776Y-98456602D01*
X136804459Y-98094240D01*
X136856501Y-97779828D01*
X136899778Y-97520286D01*
X136933169Y-97322535D01*
X136955549Y-97193496D01*
X136965796Y-97140091D01*
X136966186Y-97139056D01*
X137011377Y-97124809D01*
X137132418Y-97093919D01*
X137322745Y-97047857D01*
X137575790Y-96988092D01*
X137884988Y-96916094D01*
X138243773Y-96833335D01*
X138645578Y-96741285D01*
X139083838Y-96641413D01*
X139551986Y-96535191D01*
X140043456Y-96424089D01*
X140551682Y-96309576D01*
X141070097Y-96193124D01*
X141592136Y-96076203D01*
X142111232Y-95960282D01*
X142620820Y-95846834D01*
X143114333Y-95737327D01*
X143585204Y-95633232D01*
X144026869Y-95536020D01*
X144432760Y-95447160D01*
X144796312Y-95368124D01*
X145110958Y-95300382D01*
X145370132Y-95245403D01*
X145567268Y-95204659D01*
X145695800Y-95179620D01*
X145749162Y-95171756D01*
X145750214Y-95172048D01*
X145750214Y-95172048D01*
G37*
X145750214Y-95172048D02*
X145774338Y-95211460D01*
X145837166Y-95318292D01*
X145935241Y-95486543D01*
X146065105Y-95710209D01*
X146223303Y-95983287D01*
X146406377Y-96299777D01*
X146610870Y-96653673D01*
X146833326Y-97038976D01*
X147070287Y-97449680D01*
X147318298Y-97879786D01*
X147573900Y-98323288D01*
X147833637Y-98774186D01*
X148094053Y-99226477D01*
X148351690Y-99674157D01*
X148603091Y-100111226D01*
X148844800Y-100531679D01*
X149073361Y-100929514D01*
X149285315Y-101298730D01*
X149477206Y-101633323D01*
X149645577Y-101927291D01*
X149786972Y-102174631D01*
X149897933Y-102369341D01*
X149975004Y-102505419D01*
X150014728Y-102576861D01*
X150015840Y-102578945D01*
X150020674Y-102597509D01*
X150015520Y-102623009D01*
X149996846Y-102659058D01*
X149961115Y-102709265D01*
X149904795Y-102777242D01*
X149824352Y-102866599D01*
X149716250Y-102980949D01*
X149576956Y-103123900D01*
X149402936Y-103299066D01*
X149190656Y-103510056D01*
X148936580Y-103760481D01*
X148637176Y-104053952D01*
X148288909Y-104394081D01*
X147888245Y-104784478D01*
X147431650Y-105228755D01*
X147239168Y-105415934D01*
X146820591Y-105822882D01*
X146412475Y-106219557D01*
X146019823Y-106601103D01*
X145647638Y-106962663D01*
X145300922Y-107299382D01*
X144984677Y-107606402D01*
X144703907Y-107878867D01*
X144463612Y-108111920D01*
X144268797Y-108300704D01*
X144124464Y-108440364D01*
X144035615Y-108526043D01*
X144033249Y-108528313D01*
X143651998Y-108894150D01*
X139651749Y-107094648D01*
X139102896Y-106847716D01*
X138576156Y-106610669D01*
X138076620Y-106385803D01*
X137609379Y-106175412D01*
X137179523Y-105981791D01*
X136792145Y-105807233D01*
X136452334Y-105654034D01*
X136165182Y-105524488D01*
X135935780Y-105420889D01*
X135769220Y-105345532D01*
X135670591Y-105300712D01*
X135643973Y-105288351D01*
X135649176Y-105246414D01*
X135666951Y-105127846D01*
X135696175Y-104939569D01*
X135735725Y-104688503D01*
X135784477Y-104381569D01*
X135841309Y-104025689D01*
X135905099Y-103627784D01*
X135974722Y-103194775D01*
X136049056Y-102733583D01*
X136126978Y-102251129D01*
X136207366Y-101754335D01*
X136289096Y-101250120D01*
X136371045Y-100745407D01*
X136452090Y-100247117D01*
X136531109Y-99762170D01*
X136606978Y-99297488D01*
X136678575Y-98859991D01*
X136744776Y-98456602D01*
X136804459Y-98094240D01*
X136856501Y-97779828D01*
X136899778Y-97520286D01*
X136933169Y-97322535D01*
X136955549Y-97193496D01*
X136965796Y-97140091D01*
X136966186Y-97139056D01*
X137011377Y-97124809D01*
X137132418Y-97093919D01*
X137322745Y-97047857D01*
X137575790Y-96988092D01*
X137884988Y-96916094D01*
X138243773Y-96833335D01*
X138645578Y-96741285D01*
X139083838Y-96641413D01*
X139551986Y-96535191D01*
X140043456Y-96424089D01*
X140551682Y-96309576D01*
X141070097Y-96193124D01*
X141592136Y-96076203D01*
X142111232Y-95960282D01*
X142620820Y-95846834D01*
X143114333Y-95737327D01*
X143585204Y-95633232D01*
X144026869Y-95536020D01*
X144432760Y-95447160D01*
X144796312Y-95368124D01*
X145110958Y-95300382D01*
X145370132Y-95245403D01*
X145567268Y-95204659D01*
X145695800Y-95179620D01*
X145749162Y-95171756D01*
X145750214Y-95172048D01*
G36*
X151990469Y-79950276D02*
G01*
X152097496Y-80015924D01*
X152263120Y-80120362D01*
X152481318Y-80259647D01*
X152746067Y-80429838D01*
X153051347Y-80626993D01*
X153391134Y-80847171D01*
X153759407Y-81086428D01*
X154150144Y-81340823D01*
X154557323Y-81606415D01*
X154974922Y-81879262D01*
X155396918Y-82155420D01*
X155817290Y-82430950D01*
X156230015Y-82701908D01*
X156629072Y-82964352D01*
X157008439Y-83214342D01*
X157362092Y-83447935D01*
X157684012Y-83661189D01*
X157968174Y-83850161D01*
X158208558Y-84010912D01*
X158399141Y-84139497D01*
X158533902Y-84231976D01*
X158606817Y-84284406D01*
X158616259Y-84292227D01*
X158606004Y-84334190D01*
X158570661Y-84450978D01*
X158512013Y-84637127D01*
X158431844Y-84887173D01*
X158331940Y-85195652D01*
X158214083Y-85557101D01*
X158080059Y-85966055D01*
X157931650Y-86417051D01*
X157770641Y-86904624D01*
X157598816Y-87423311D01*
X157417960Y-87967648D01*
X157325349Y-88245787D01*
X156014345Y-92180333D01*
X154976923Y-92173826D01*
X154757032Y-92171834D01*
X154462444Y-92168216D01*
X154103107Y-92163139D01*
X153688971Y-92156766D01*
X153229987Y-92149263D01*
X152736102Y-92140794D01*
X152217269Y-92131525D01*
X151683435Y-92121621D01*
X151144550Y-92111245D01*
X150849167Y-92105389D01*
X150345808Y-92095205D01*
X149867686Y-92085342D01*
X149421458Y-92075949D01*
X149013781Y-92067175D01*
X148651311Y-92059171D01*
X148340706Y-92052084D01*
X148088623Y-92046063D01*
X147901718Y-92041259D01*
X147786650Y-92037819D01*
X147749946Y-92035982D01*
X147735741Y-91995039D01*
X147698380Y-91879865D01*
X147639929Y-91697052D01*
X147562454Y-91453192D01*
X147468023Y-91154875D01*
X147358701Y-90808694D01*
X147236556Y-90421240D01*
X147103654Y-89999105D01*
X146962062Y-89548880D01*
X146813846Y-89077157D01*
X146661073Y-88590527D01*
X146505809Y-88095582D01*
X146350122Y-87598913D01*
X146196077Y-87107112D01*
X146045742Y-86626771D01*
X145901182Y-86164481D01*
X145764465Y-85726833D01*
X145637658Y-85320420D01*
X145522826Y-84951833D01*
X145422036Y-84627662D01*
X145337356Y-84354501D01*
X145270851Y-84138940D01*
X145224588Y-83987571D01*
X145200634Y-83906986D01*
X145197666Y-83895350D01*
X145233263Y-83867248D01*
X145335896Y-83800384D01*
X145499334Y-83698419D01*
X145717346Y-83565018D01*
X145983698Y-83403844D01*
X146292159Y-83218561D01*
X146636495Y-83012831D01*
X147010476Y-82790318D01*
X147407869Y-82554686D01*
X147822441Y-82309598D01*
X148247961Y-82058717D01*
X148678196Y-81805706D01*
X149106914Y-81554230D01*
X149527882Y-81307952D01*
X149934870Y-81070534D01*
X150321643Y-80845641D01*
X150681971Y-80636935D01*
X151009621Y-80448081D01*
X151298360Y-80282741D01*
X151541957Y-80144578D01*
X151734179Y-80037258D01*
X151868794Y-79964441D01*
X151939570Y-79929793D01*
X151948059Y-79927360D01*
X151990469Y-79950276D01*
X151990469Y-79950276D01*
G37*
X151990469Y-79950276D02*
X152097496Y-80015924D01*
X152263120Y-80120362D01*
X152481318Y-80259647D01*
X152746067Y-80429838D01*
X153051347Y-80626993D01*
X153391134Y-80847171D01*
X153759407Y-81086428D01*
X154150144Y-81340823D01*
X154557323Y-81606415D01*
X154974922Y-81879262D01*
X155396918Y-82155420D01*
X155817290Y-82430950D01*
X156230015Y-82701908D01*
X156629072Y-82964352D01*
X157008439Y-83214342D01*
X157362092Y-83447935D01*
X157684012Y-83661189D01*
X157968174Y-83850161D01*
X158208558Y-84010912D01*
X158399141Y-84139497D01*
X158533902Y-84231976D01*
X158606817Y-84284406D01*
X158616259Y-84292227D01*
X158606004Y-84334190D01*
X158570661Y-84450978D01*
X158512013Y-84637127D01*
X158431844Y-84887173D01*
X158331940Y-85195652D01*
X158214083Y-85557101D01*
X158080059Y-85966055D01*
X157931650Y-86417051D01*
X157770641Y-86904624D01*
X157598816Y-87423311D01*
X157417960Y-87967648D01*
X157325349Y-88245787D01*
X156014345Y-92180333D01*
X154976923Y-92173826D01*
X154757032Y-92171834D01*
X154462444Y-92168216D01*
X154103107Y-92163139D01*
X153688971Y-92156766D01*
X153229987Y-92149263D01*
X152736102Y-92140794D01*
X152217269Y-92131525D01*
X151683435Y-92121621D01*
X151144550Y-92111245D01*
X150849167Y-92105389D01*
X150345808Y-92095205D01*
X149867686Y-92085342D01*
X149421458Y-92075949D01*
X149013781Y-92067175D01*
X148651311Y-92059171D01*
X148340706Y-92052084D01*
X148088623Y-92046063D01*
X147901718Y-92041259D01*
X147786650Y-92037819D01*
X147749946Y-92035982D01*
X147735741Y-91995039D01*
X147698380Y-91879865D01*
X147639929Y-91697052D01*
X147562454Y-91453192D01*
X147468023Y-91154875D01*
X147358701Y-90808694D01*
X147236556Y-90421240D01*
X147103654Y-89999105D01*
X146962062Y-89548880D01*
X146813846Y-89077157D01*
X146661073Y-88590527D01*
X146505809Y-88095582D01*
X146350122Y-87598913D01*
X146196077Y-87107112D01*
X146045742Y-86626771D01*
X145901182Y-86164481D01*
X145764465Y-85726833D01*
X145637658Y-85320420D01*
X145522826Y-84951833D01*
X145422036Y-84627662D01*
X145337356Y-84354501D01*
X145270851Y-84138940D01*
X145224588Y-83987571D01*
X145200634Y-83906986D01*
X145197666Y-83895350D01*
X145233263Y-83867248D01*
X145335896Y-83800384D01*
X145499334Y-83698419D01*
X145717346Y-83565018D01*
X145983698Y-83403844D01*
X146292159Y-83218561D01*
X146636495Y-83012831D01*
X147010476Y-82790318D01*
X147407869Y-82554686D01*
X147822441Y-82309598D01*
X148247961Y-82058717D01*
X148678196Y-81805706D01*
X149106914Y-81554230D01*
X149527882Y-81307952D01*
X149934870Y-81070534D01*
X150321643Y-80845641D01*
X150681971Y-80636935D01*
X151009621Y-80448081D01*
X151298360Y-80282741D01*
X151541957Y-80144578D01*
X151734179Y-80037258D01*
X151868794Y-79964441D01*
X151939570Y-79929793D01*
X151948059Y-79927360D01*
X151990469Y-79950276D01*
M02*
