G04 #@! TF.GenerationSoftware,KiCad,Pcbnew,5.1.2*
G04 #@! TF.CreationDate,2019-07-09T10:36:40-05:00*
G04 #@! TF.ProjectId,ZoraSapphire,5a6f7261-5361-4707-9068-6972652e6b69,rev?*
G04 #@! TF.SameCoordinates,Original*
G04 #@! TF.FileFunction,Soldermask,Bot*
G04 #@! TF.FilePolarity,Negative*
%FSLAX46Y46*%
G04 Gerber Fmt 4.6, Leading zero omitted, Abs format (unit mm)*
G04 Created by KiCad (PCBNEW 5.1.2) date 2019-07-09 10:36:40*
%MOMM*%
%LPD*%
G04 APERTURE LIST*
%ADD10C,0.010000*%
%ADD11C,0.100000*%
%ADD12C,1.275000*%
%ADD13R,1.400000X3.550000*%
%ADD14R,0.900000X1.200000*%
%ADD15R,0.800000X1.200000*%
G04 APERTURE END LIST*
D10*
G36*
X158126578Y-95205091D02*
G01*
X158243771Y-95233671D01*
X158429540Y-95280643D01*
X158677280Y-95344258D01*
X158980386Y-95422767D01*
X159332251Y-95514420D01*
X159726272Y-95617466D01*
X160155841Y-95730156D01*
X160614354Y-95850740D01*
X161095206Y-95977469D01*
X161591790Y-96108592D01*
X162097502Y-96242360D01*
X162605736Y-96377023D01*
X163109886Y-96510832D01*
X163603347Y-96642035D01*
X164079514Y-96768884D01*
X164531781Y-96889629D01*
X164953543Y-97002519D01*
X165338194Y-97105806D01*
X165679129Y-97197739D01*
X165969742Y-97276569D01*
X166203428Y-97340545D01*
X166373582Y-97387918D01*
X166473598Y-97416938D01*
X166498553Y-97425552D01*
X166509399Y-97469953D01*
X166532585Y-97590930D01*
X166566978Y-97781626D01*
X166611448Y-98035186D01*
X166664863Y-98344754D01*
X166726090Y-98703473D01*
X166793998Y-99104488D01*
X166867455Y-99540944D01*
X166945330Y-100005983D01*
X167026490Y-100492751D01*
X167109804Y-100994392D01*
X167194141Y-101504049D01*
X167278367Y-102014867D01*
X167361353Y-102519989D01*
X167441965Y-103012561D01*
X167519073Y-103485725D01*
X167591544Y-103932627D01*
X167658246Y-104346410D01*
X167718048Y-104720219D01*
X167769819Y-105047197D01*
X167812425Y-105320489D01*
X167844736Y-105533238D01*
X167865620Y-105678590D01*
X167873945Y-105749688D01*
X167873693Y-105755751D01*
X167832060Y-105775305D01*
X167718848Y-105824777D01*
X167540517Y-105901451D01*
X167303530Y-106002609D01*
X167014347Y-106125535D01*
X166679430Y-106267513D01*
X166305239Y-106425826D01*
X165898236Y-106597757D01*
X165464881Y-106780590D01*
X165011637Y-106971609D01*
X164544964Y-107168097D01*
X164071324Y-107367337D01*
X163597177Y-107566613D01*
X163128984Y-107763208D01*
X162673208Y-107954406D01*
X162236308Y-108137491D01*
X161824747Y-108309745D01*
X161444985Y-108468452D01*
X161103483Y-108610895D01*
X160806703Y-108734359D01*
X160561105Y-108836126D01*
X160373152Y-108913480D01*
X160249303Y-108963705D01*
X160196021Y-108984083D01*
X160194522Y-108984398D01*
X160160788Y-108954864D01*
X160070973Y-108869456D01*
X159928998Y-108732034D01*
X159738785Y-108546459D01*
X159504254Y-108316590D01*
X159229328Y-108046289D01*
X158917927Y-107739415D01*
X158573972Y-107399829D01*
X158201385Y-107031391D01*
X157804087Y-106637961D01*
X157385999Y-106223399D01*
X156951043Y-105791566D01*
X156930763Y-105771419D01*
X156417832Y-105261664D01*
X155961860Y-104808088D01*
X155559607Y-104407333D01*
X155207831Y-104056044D01*
X154903291Y-103750865D01*
X154642746Y-103488441D01*
X154422955Y-103265415D01*
X154240677Y-103078431D01*
X154092670Y-102924133D01*
X153975693Y-102799166D01*
X153886505Y-102700173D01*
X153821865Y-102623799D01*
X153778532Y-102566687D01*
X153753264Y-102525482D01*
X153742820Y-102496828D01*
X153743960Y-102477368D01*
X153745669Y-102473556D01*
X153774261Y-102424180D01*
X153842146Y-102309027D01*
X153945769Y-102134058D01*
X154081576Y-101905235D01*
X154246013Y-101628519D01*
X154435526Y-101309870D01*
X154646560Y-100955249D01*
X154875562Y-100570618D01*
X155118975Y-100161937D01*
X155373248Y-99735168D01*
X155634825Y-99296271D01*
X155900151Y-98851207D01*
X156165674Y-98405938D01*
X156427837Y-97966424D01*
X156683088Y-97538627D01*
X156927872Y-97128507D01*
X157158634Y-96742025D01*
X157371821Y-96385142D01*
X157563877Y-96063820D01*
X157731249Y-95784020D01*
X157870383Y-95551701D01*
X157977724Y-95372826D01*
X158049717Y-95253356D01*
X158082810Y-95199250D01*
X158084567Y-95196655D01*
X158126578Y-95205091D01*
X158126578Y-95205091D01*
G37*
X158126578Y-95205091D02*
X158243771Y-95233671D01*
X158429540Y-95280643D01*
X158677280Y-95344258D01*
X158980386Y-95422767D01*
X159332251Y-95514420D01*
X159726272Y-95617466D01*
X160155841Y-95730156D01*
X160614354Y-95850740D01*
X161095206Y-95977469D01*
X161591790Y-96108592D01*
X162097502Y-96242360D01*
X162605736Y-96377023D01*
X163109886Y-96510832D01*
X163603347Y-96642035D01*
X164079514Y-96768884D01*
X164531781Y-96889629D01*
X164953543Y-97002519D01*
X165338194Y-97105806D01*
X165679129Y-97197739D01*
X165969742Y-97276569D01*
X166203428Y-97340545D01*
X166373582Y-97387918D01*
X166473598Y-97416938D01*
X166498553Y-97425552D01*
X166509399Y-97469953D01*
X166532585Y-97590930D01*
X166566978Y-97781626D01*
X166611448Y-98035186D01*
X166664863Y-98344754D01*
X166726090Y-98703473D01*
X166793998Y-99104488D01*
X166867455Y-99540944D01*
X166945330Y-100005983D01*
X167026490Y-100492751D01*
X167109804Y-100994392D01*
X167194141Y-101504049D01*
X167278367Y-102014867D01*
X167361353Y-102519989D01*
X167441965Y-103012561D01*
X167519073Y-103485725D01*
X167591544Y-103932627D01*
X167658246Y-104346410D01*
X167718048Y-104720219D01*
X167769819Y-105047197D01*
X167812425Y-105320489D01*
X167844736Y-105533238D01*
X167865620Y-105678590D01*
X167873945Y-105749688D01*
X167873693Y-105755751D01*
X167832060Y-105775305D01*
X167718848Y-105824777D01*
X167540517Y-105901451D01*
X167303530Y-106002609D01*
X167014347Y-106125535D01*
X166679430Y-106267513D01*
X166305239Y-106425826D01*
X165898236Y-106597757D01*
X165464881Y-106780590D01*
X165011637Y-106971609D01*
X164544964Y-107168097D01*
X164071324Y-107367337D01*
X163597177Y-107566613D01*
X163128984Y-107763208D01*
X162673208Y-107954406D01*
X162236308Y-108137491D01*
X161824747Y-108309745D01*
X161444985Y-108468452D01*
X161103483Y-108610895D01*
X160806703Y-108734359D01*
X160561105Y-108836126D01*
X160373152Y-108913480D01*
X160249303Y-108963705D01*
X160196021Y-108984083D01*
X160194522Y-108984398D01*
X160160788Y-108954864D01*
X160070973Y-108869456D01*
X159928998Y-108732034D01*
X159738785Y-108546459D01*
X159504254Y-108316590D01*
X159229328Y-108046289D01*
X158917927Y-107739415D01*
X158573972Y-107399829D01*
X158201385Y-107031391D01*
X157804087Y-106637961D01*
X157385999Y-106223399D01*
X156951043Y-105791566D01*
X156930763Y-105771419D01*
X156417832Y-105261664D01*
X155961860Y-104808088D01*
X155559607Y-104407333D01*
X155207831Y-104056044D01*
X154903291Y-103750865D01*
X154642746Y-103488441D01*
X154422955Y-103265415D01*
X154240677Y-103078431D01*
X154092670Y-102924133D01*
X153975693Y-102799166D01*
X153886505Y-102700173D01*
X153821865Y-102623799D01*
X153778532Y-102566687D01*
X153753264Y-102525482D01*
X153742820Y-102496828D01*
X153743960Y-102477368D01*
X153745669Y-102473556D01*
X153774261Y-102424180D01*
X153842146Y-102309027D01*
X153945769Y-102134058D01*
X154081576Y-101905235D01*
X154246013Y-101628519D01*
X154435526Y-101309870D01*
X154646560Y-100955249D01*
X154875562Y-100570618D01*
X155118975Y-100161937D01*
X155373248Y-99735168D01*
X155634825Y-99296271D01*
X155900151Y-98851207D01*
X156165674Y-98405938D01*
X156427837Y-97966424D01*
X156683088Y-97538627D01*
X156927872Y-97128507D01*
X157158634Y-96742025D01*
X157371821Y-96385142D01*
X157563877Y-96063820D01*
X157731249Y-95784020D01*
X157870383Y-95551701D01*
X157977724Y-95372826D01*
X158049717Y-95253356D01*
X158082810Y-95199250D01*
X158084567Y-95196655D01*
X158126578Y-95205091D01*
G36*
X145750214Y-95172048D02*
G01*
X145774338Y-95211460D01*
X145837166Y-95318292D01*
X145935241Y-95486543D01*
X146065105Y-95710209D01*
X146223303Y-95983287D01*
X146406377Y-96299777D01*
X146610870Y-96653673D01*
X146833326Y-97038976D01*
X147070287Y-97449680D01*
X147318298Y-97879786D01*
X147573900Y-98323288D01*
X147833637Y-98774186D01*
X148094053Y-99226477D01*
X148351690Y-99674157D01*
X148603091Y-100111226D01*
X148844800Y-100531679D01*
X149073361Y-100929514D01*
X149285315Y-101298730D01*
X149477206Y-101633323D01*
X149645577Y-101927291D01*
X149786972Y-102174631D01*
X149897933Y-102369341D01*
X149975004Y-102505419D01*
X150014728Y-102576861D01*
X150015840Y-102578945D01*
X150020674Y-102597509D01*
X150015520Y-102623009D01*
X149996846Y-102659058D01*
X149961115Y-102709265D01*
X149904795Y-102777242D01*
X149824352Y-102866599D01*
X149716250Y-102980949D01*
X149576956Y-103123900D01*
X149402936Y-103299066D01*
X149190656Y-103510056D01*
X148936580Y-103760481D01*
X148637176Y-104053952D01*
X148288909Y-104394081D01*
X147888245Y-104784478D01*
X147431650Y-105228755D01*
X147239168Y-105415934D01*
X146820591Y-105822882D01*
X146412475Y-106219557D01*
X146019823Y-106601103D01*
X145647638Y-106962663D01*
X145300922Y-107299382D01*
X144984677Y-107606402D01*
X144703907Y-107878867D01*
X144463612Y-108111920D01*
X144268797Y-108300704D01*
X144124464Y-108440364D01*
X144035615Y-108526043D01*
X144033249Y-108528313D01*
X143651998Y-108894150D01*
X139651749Y-107094648D01*
X139102896Y-106847716D01*
X138576156Y-106610669D01*
X138076620Y-106385803D01*
X137609379Y-106175412D01*
X137179523Y-105981791D01*
X136792145Y-105807233D01*
X136452334Y-105654034D01*
X136165182Y-105524488D01*
X135935780Y-105420889D01*
X135769220Y-105345532D01*
X135670591Y-105300712D01*
X135643973Y-105288351D01*
X135649176Y-105246414D01*
X135666951Y-105127846D01*
X135696175Y-104939569D01*
X135735725Y-104688503D01*
X135784477Y-104381569D01*
X135841309Y-104025689D01*
X135905099Y-103627784D01*
X135974722Y-103194775D01*
X136049056Y-102733583D01*
X136126978Y-102251129D01*
X136207366Y-101754335D01*
X136289096Y-101250120D01*
X136371045Y-100745407D01*
X136452090Y-100247117D01*
X136531109Y-99762170D01*
X136606978Y-99297488D01*
X136678575Y-98859991D01*
X136744776Y-98456602D01*
X136804459Y-98094240D01*
X136856501Y-97779828D01*
X136899778Y-97520286D01*
X136933169Y-97322535D01*
X136955549Y-97193496D01*
X136965796Y-97140091D01*
X136966186Y-97139056D01*
X137011377Y-97124809D01*
X137132418Y-97093919D01*
X137322745Y-97047857D01*
X137575790Y-96988092D01*
X137884988Y-96916094D01*
X138243773Y-96833335D01*
X138645578Y-96741285D01*
X139083838Y-96641413D01*
X139551986Y-96535191D01*
X140043456Y-96424089D01*
X140551682Y-96309576D01*
X141070097Y-96193124D01*
X141592136Y-96076203D01*
X142111232Y-95960282D01*
X142620820Y-95846834D01*
X143114333Y-95737327D01*
X143585204Y-95633232D01*
X144026869Y-95536020D01*
X144432760Y-95447160D01*
X144796312Y-95368124D01*
X145110958Y-95300382D01*
X145370132Y-95245403D01*
X145567268Y-95204659D01*
X145695800Y-95179620D01*
X145749162Y-95171756D01*
X145750214Y-95172048D01*
X145750214Y-95172048D01*
G37*
X145750214Y-95172048D02*
X145774338Y-95211460D01*
X145837166Y-95318292D01*
X145935241Y-95486543D01*
X146065105Y-95710209D01*
X146223303Y-95983287D01*
X146406377Y-96299777D01*
X146610870Y-96653673D01*
X146833326Y-97038976D01*
X147070287Y-97449680D01*
X147318298Y-97879786D01*
X147573900Y-98323288D01*
X147833637Y-98774186D01*
X148094053Y-99226477D01*
X148351690Y-99674157D01*
X148603091Y-100111226D01*
X148844800Y-100531679D01*
X149073361Y-100929514D01*
X149285315Y-101298730D01*
X149477206Y-101633323D01*
X149645577Y-101927291D01*
X149786972Y-102174631D01*
X149897933Y-102369341D01*
X149975004Y-102505419D01*
X150014728Y-102576861D01*
X150015840Y-102578945D01*
X150020674Y-102597509D01*
X150015520Y-102623009D01*
X149996846Y-102659058D01*
X149961115Y-102709265D01*
X149904795Y-102777242D01*
X149824352Y-102866599D01*
X149716250Y-102980949D01*
X149576956Y-103123900D01*
X149402936Y-103299066D01*
X149190656Y-103510056D01*
X148936580Y-103760481D01*
X148637176Y-104053952D01*
X148288909Y-104394081D01*
X147888245Y-104784478D01*
X147431650Y-105228755D01*
X147239168Y-105415934D01*
X146820591Y-105822882D01*
X146412475Y-106219557D01*
X146019823Y-106601103D01*
X145647638Y-106962663D01*
X145300922Y-107299382D01*
X144984677Y-107606402D01*
X144703907Y-107878867D01*
X144463612Y-108111920D01*
X144268797Y-108300704D01*
X144124464Y-108440364D01*
X144035615Y-108526043D01*
X144033249Y-108528313D01*
X143651998Y-108894150D01*
X139651749Y-107094648D01*
X139102896Y-106847716D01*
X138576156Y-106610669D01*
X138076620Y-106385803D01*
X137609379Y-106175412D01*
X137179523Y-105981791D01*
X136792145Y-105807233D01*
X136452334Y-105654034D01*
X136165182Y-105524488D01*
X135935780Y-105420889D01*
X135769220Y-105345532D01*
X135670591Y-105300712D01*
X135643973Y-105288351D01*
X135649176Y-105246414D01*
X135666951Y-105127846D01*
X135696175Y-104939569D01*
X135735725Y-104688503D01*
X135784477Y-104381569D01*
X135841309Y-104025689D01*
X135905099Y-103627784D01*
X135974722Y-103194775D01*
X136049056Y-102733583D01*
X136126978Y-102251129D01*
X136207366Y-101754335D01*
X136289096Y-101250120D01*
X136371045Y-100745407D01*
X136452090Y-100247117D01*
X136531109Y-99762170D01*
X136606978Y-99297488D01*
X136678575Y-98859991D01*
X136744776Y-98456602D01*
X136804459Y-98094240D01*
X136856501Y-97779828D01*
X136899778Y-97520286D01*
X136933169Y-97322535D01*
X136955549Y-97193496D01*
X136965796Y-97140091D01*
X136966186Y-97139056D01*
X137011377Y-97124809D01*
X137132418Y-97093919D01*
X137322745Y-97047857D01*
X137575790Y-96988092D01*
X137884988Y-96916094D01*
X138243773Y-96833335D01*
X138645578Y-96741285D01*
X139083838Y-96641413D01*
X139551986Y-96535191D01*
X140043456Y-96424089D01*
X140551682Y-96309576D01*
X141070097Y-96193124D01*
X141592136Y-96076203D01*
X142111232Y-95960282D01*
X142620820Y-95846834D01*
X143114333Y-95737327D01*
X143585204Y-95633232D01*
X144026869Y-95536020D01*
X144432760Y-95447160D01*
X144796312Y-95368124D01*
X145110958Y-95300382D01*
X145370132Y-95245403D01*
X145567268Y-95204659D01*
X145695800Y-95179620D01*
X145749162Y-95171756D01*
X145750214Y-95172048D01*
G36*
X151990469Y-79950276D02*
G01*
X152097496Y-80015924D01*
X152263120Y-80120362D01*
X152481318Y-80259647D01*
X152746067Y-80429838D01*
X153051347Y-80626993D01*
X153391134Y-80847171D01*
X153759407Y-81086428D01*
X154150144Y-81340823D01*
X154557323Y-81606415D01*
X154974922Y-81879262D01*
X155396918Y-82155420D01*
X155817290Y-82430950D01*
X156230015Y-82701908D01*
X156629072Y-82964352D01*
X157008439Y-83214342D01*
X157362092Y-83447935D01*
X157684012Y-83661189D01*
X157968174Y-83850161D01*
X158208558Y-84010912D01*
X158399141Y-84139497D01*
X158533902Y-84231976D01*
X158606817Y-84284406D01*
X158616259Y-84292227D01*
X158606004Y-84334190D01*
X158570661Y-84450978D01*
X158512013Y-84637127D01*
X158431844Y-84887173D01*
X158331940Y-85195652D01*
X158214083Y-85557101D01*
X158080059Y-85966055D01*
X157931650Y-86417051D01*
X157770641Y-86904624D01*
X157598816Y-87423311D01*
X157417960Y-87967648D01*
X157325349Y-88245787D01*
X156014345Y-92180333D01*
X154976923Y-92173826D01*
X154757032Y-92171834D01*
X154462444Y-92168216D01*
X154103107Y-92163139D01*
X153688971Y-92156766D01*
X153229987Y-92149263D01*
X152736102Y-92140794D01*
X152217269Y-92131525D01*
X151683435Y-92121621D01*
X151144550Y-92111245D01*
X150849167Y-92105389D01*
X150345808Y-92095205D01*
X149867686Y-92085342D01*
X149421458Y-92075949D01*
X149013781Y-92067175D01*
X148651311Y-92059171D01*
X148340706Y-92052084D01*
X148088623Y-92046063D01*
X147901718Y-92041259D01*
X147786650Y-92037819D01*
X147749946Y-92035982D01*
X147735741Y-91995039D01*
X147698380Y-91879865D01*
X147639929Y-91697052D01*
X147562454Y-91453192D01*
X147468023Y-91154875D01*
X147358701Y-90808694D01*
X147236556Y-90421240D01*
X147103654Y-89999105D01*
X146962062Y-89548880D01*
X146813846Y-89077157D01*
X146661073Y-88590527D01*
X146505809Y-88095582D01*
X146350122Y-87598913D01*
X146196077Y-87107112D01*
X146045742Y-86626771D01*
X145901182Y-86164481D01*
X145764465Y-85726833D01*
X145637658Y-85320420D01*
X145522826Y-84951833D01*
X145422036Y-84627662D01*
X145337356Y-84354501D01*
X145270851Y-84138940D01*
X145224588Y-83987571D01*
X145200634Y-83906986D01*
X145197666Y-83895350D01*
X145233263Y-83867248D01*
X145335896Y-83800384D01*
X145499334Y-83698419D01*
X145717346Y-83565018D01*
X145983698Y-83403844D01*
X146292159Y-83218561D01*
X146636495Y-83012831D01*
X147010476Y-82790318D01*
X147407869Y-82554686D01*
X147822441Y-82309598D01*
X148247961Y-82058717D01*
X148678196Y-81805706D01*
X149106914Y-81554230D01*
X149527882Y-81307952D01*
X149934870Y-81070534D01*
X150321643Y-80845641D01*
X150681971Y-80636935D01*
X151009621Y-80448081D01*
X151298360Y-80282741D01*
X151541957Y-80144578D01*
X151734179Y-80037258D01*
X151868794Y-79964441D01*
X151939570Y-79929793D01*
X151948059Y-79927360D01*
X151990469Y-79950276D01*
X151990469Y-79950276D01*
G37*
X151990469Y-79950276D02*
X152097496Y-80015924D01*
X152263120Y-80120362D01*
X152481318Y-80259647D01*
X152746067Y-80429838D01*
X153051347Y-80626993D01*
X153391134Y-80847171D01*
X153759407Y-81086428D01*
X154150144Y-81340823D01*
X154557323Y-81606415D01*
X154974922Y-81879262D01*
X155396918Y-82155420D01*
X155817290Y-82430950D01*
X156230015Y-82701908D01*
X156629072Y-82964352D01*
X157008439Y-83214342D01*
X157362092Y-83447935D01*
X157684012Y-83661189D01*
X157968174Y-83850161D01*
X158208558Y-84010912D01*
X158399141Y-84139497D01*
X158533902Y-84231976D01*
X158606817Y-84284406D01*
X158616259Y-84292227D01*
X158606004Y-84334190D01*
X158570661Y-84450978D01*
X158512013Y-84637127D01*
X158431844Y-84887173D01*
X158331940Y-85195652D01*
X158214083Y-85557101D01*
X158080059Y-85966055D01*
X157931650Y-86417051D01*
X157770641Y-86904624D01*
X157598816Y-87423311D01*
X157417960Y-87967648D01*
X157325349Y-88245787D01*
X156014345Y-92180333D01*
X154976923Y-92173826D01*
X154757032Y-92171834D01*
X154462444Y-92168216D01*
X154103107Y-92163139D01*
X153688971Y-92156766D01*
X153229987Y-92149263D01*
X152736102Y-92140794D01*
X152217269Y-92131525D01*
X151683435Y-92121621D01*
X151144550Y-92111245D01*
X150849167Y-92105389D01*
X150345808Y-92095205D01*
X149867686Y-92085342D01*
X149421458Y-92075949D01*
X149013781Y-92067175D01*
X148651311Y-92059171D01*
X148340706Y-92052084D01*
X148088623Y-92046063D01*
X147901718Y-92041259D01*
X147786650Y-92037819D01*
X147749946Y-92035982D01*
X147735741Y-91995039D01*
X147698380Y-91879865D01*
X147639929Y-91697052D01*
X147562454Y-91453192D01*
X147468023Y-91154875D01*
X147358701Y-90808694D01*
X147236556Y-90421240D01*
X147103654Y-89999105D01*
X146962062Y-89548880D01*
X146813846Y-89077157D01*
X146661073Y-88590527D01*
X146505809Y-88095582D01*
X146350122Y-87598913D01*
X146196077Y-87107112D01*
X146045742Y-86626771D01*
X145901182Y-86164481D01*
X145764465Y-85726833D01*
X145637658Y-85320420D01*
X145522826Y-84951833D01*
X145422036Y-84627662D01*
X145337356Y-84354501D01*
X145270851Y-84138940D01*
X145224588Y-83987571D01*
X145200634Y-83906986D01*
X145197666Y-83895350D01*
X145233263Y-83867248D01*
X145335896Y-83800384D01*
X145499334Y-83698419D01*
X145717346Y-83565018D01*
X145983698Y-83403844D01*
X146292159Y-83218561D01*
X146636495Y-83012831D01*
X147010476Y-82790318D01*
X147407869Y-82554686D01*
X147822441Y-82309598D01*
X148247961Y-82058717D01*
X148678196Y-81805706D01*
X149106914Y-81554230D01*
X149527882Y-81307952D01*
X149934870Y-81070534D01*
X150321643Y-80845641D01*
X150681971Y-80636935D01*
X151009621Y-80448081D01*
X151298360Y-80282741D01*
X151541957Y-80144578D01*
X151734179Y-80037258D01*
X151868794Y-79964441D01*
X151939570Y-79929793D01*
X151948059Y-79927360D01*
X151990469Y-79950276D01*
D11*
G36*
X140948977Y-94998144D02*
G01*
X140979976Y-95002328D01*
X141010417Y-95009531D01*
X141040004Y-95019683D01*
X141068454Y-95032686D01*
X141095493Y-95048415D01*
X141120859Y-95066718D01*
X141144310Y-95087420D01*
X141165618Y-95110320D01*
X141184579Y-95135199D01*
X141201010Y-95161816D01*
X141214754Y-95189916D01*
X141225676Y-95219228D01*
X141233674Y-95249469D01*
X141381811Y-95946399D01*
X141386805Y-95977279D01*
X141388749Y-96008499D01*
X141387623Y-96039759D01*
X141383438Y-96070759D01*
X141376236Y-96101199D01*
X141366084Y-96130786D01*
X141353081Y-96159236D01*
X141337352Y-96186275D01*
X141319049Y-96211641D01*
X141298347Y-96235092D01*
X141275447Y-96256400D01*
X141250568Y-96275361D01*
X141223950Y-96291793D01*
X141195851Y-96305536D01*
X141166539Y-96316458D01*
X141136298Y-96324456D01*
X140512729Y-96457000D01*
X140481850Y-96461994D01*
X140450629Y-96463938D01*
X140419369Y-96462812D01*
X140388370Y-96458628D01*
X140357929Y-96451425D01*
X140328342Y-96441273D01*
X140299892Y-96428270D01*
X140272853Y-96412541D01*
X140247487Y-96394238D01*
X140224036Y-96373536D01*
X140202728Y-96350636D01*
X140183767Y-96325757D01*
X140167336Y-96299140D01*
X140153592Y-96271040D01*
X140142670Y-96241728D01*
X140134672Y-96211487D01*
X139986535Y-95514557D01*
X139981541Y-95483677D01*
X139979597Y-95452457D01*
X139980723Y-95421197D01*
X139984908Y-95390197D01*
X139992110Y-95359757D01*
X140002262Y-95330170D01*
X140015265Y-95301720D01*
X140030994Y-95274681D01*
X140049297Y-95249315D01*
X140069999Y-95225864D01*
X140092899Y-95204556D01*
X140117778Y-95185595D01*
X140144396Y-95169163D01*
X140172495Y-95155420D01*
X140201807Y-95144498D01*
X140232048Y-95136500D01*
X140855617Y-95003956D01*
X140886496Y-94998962D01*
X140917717Y-94997018D01*
X140948977Y-94998144D01*
X140948977Y-94998144D01*
G37*
D12*
X140684173Y-95730478D03*
D11*
G36*
X142489559Y-94670684D02*
G01*
X142520558Y-94674868D01*
X142550999Y-94682071D01*
X142580586Y-94692223D01*
X142609036Y-94705226D01*
X142636075Y-94720955D01*
X142661441Y-94739258D01*
X142684892Y-94759960D01*
X142706200Y-94782860D01*
X142725161Y-94807739D01*
X142741592Y-94834356D01*
X142755336Y-94862456D01*
X142766258Y-94891768D01*
X142774256Y-94922009D01*
X142922393Y-95618939D01*
X142927387Y-95649819D01*
X142929331Y-95681039D01*
X142928205Y-95712299D01*
X142924020Y-95743299D01*
X142916818Y-95773739D01*
X142906666Y-95803326D01*
X142893663Y-95831776D01*
X142877934Y-95858815D01*
X142859631Y-95884181D01*
X142838929Y-95907632D01*
X142816029Y-95928940D01*
X142791150Y-95947901D01*
X142764532Y-95964333D01*
X142736433Y-95978076D01*
X142707121Y-95988998D01*
X142676880Y-95996996D01*
X142053311Y-96129540D01*
X142022432Y-96134534D01*
X141991211Y-96136478D01*
X141959951Y-96135352D01*
X141928952Y-96131168D01*
X141898511Y-96123965D01*
X141868924Y-96113813D01*
X141840474Y-96100810D01*
X141813435Y-96085081D01*
X141788069Y-96066778D01*
X141764618Y-96046076D01*
X141743310Y-96023176D01*
X141724349Y-95998297D01*
X141707918Y-95971680D01*
X141694174Y-95943580D01*
X141683252Y-95914268D01*
X141675254Y-95884027D01*
X141527117Y-95187097D01*
X141522123Y-95156217D01*
X141520179Y-95124997D01*
X141521305Y-95093737D01*
X141525490Y-95062737D01*
X141532692Y-95032297D01*
X141542844Y-95002710D01*
X141555847Y-94974260D01*
X141571576Y-94947221D01*
X141589879Y-94921855D01*
X141610581Y-94898404D01*
X141633481Y-94877096D01*
X141658360Y-94858135D01*
X141684978Y-94841703D01*
X141713077Y-94827960D01*
X141742389Y-94817038D01*
X141772630Y-94809040D01*
X142396199Y-94676496D01*
X142427078Y-94671502D01*
X142458299Y-94669558D01*
X142489559Y-94670684D01*
X142489559Y-94670684D01*
G37*
D12*
X142224755Y-95403018D03*
D11*
G36*
X146443219Y-88353884D02*
G01*
X146473994Y-88359484D01*
X146504072Y-88368073D01*
X146533164Y-88379569D01*
X146560988Y-88393862D01*
X146587278Y-88410812D01*
X146611780Y-88430258D01*
X146634257Y-88452012D01*
X146654495Y-88475865D01*
X146672296Y-88501586D01*
X146687491Y-88528928D01*
X146699933Y-88557628D01*
X146709502Y-88587409D01*
X146874499Y-89203187D01*
X146881103Y-89233762D01*
X146884678Y-89264838D01*
X146885189Y-89296114D01*
X146882633Y-89327290D01*
X146877033Y-89358066D01*
X146868444Y-89388144D01*
X146856948Y-89417235D01*
X146842656Y-89445060D01*
X146825705Y-89471350D01*
X146806259Y-89495852D01*
X146784505Y-89518329D01*
X146760653Y-89538566D01*
X146734932Y-89556368D01*
X146707589Y-89571563D01*
X146678890Y-89584005D01*
X146649108Y-89593574D01*
X145960885Y-89777982D01*
X145930310Y-89784586D01*
X145899234Y-89788161D01*
X145867957Y-89788672D01*
X145836781Y-89786116D01*
X145806006Y-89780516D01*
X145775928Y-89771927D01*
X145746836Y-89760431D01*
X145719012Y-89746138D01*
X145692722Y-89729188D01*
X145668220Y-89709742D01*
X145645743Y-89687988D01*
X145625505Y-89664135D01*
X145607704Y-89638414D01*
X145592509Y-89611072D01*
X145580067Y-89582372D01*
X145570498Y-89552591D01*
X145405501Y-88936813D01*
X145398897Y-88906238D01*
X145395322Y-88875162D01*
X145394811Y-88843886D01*
X145397367Y-88812710D01*
X145402967Y-88781934D01*
X145411556Y-88751856D01*
X145423052Y-88722765D01*
X145437344Y-88694940D01*
X145454295Y-88668650D01*
X145473741Y-88644148D01*
X145495495Y-88621671D01*
X145519347Y-88601434D01*
X145545068Y-88583632D01*
X145572411Y-88568437D01*
X145601110Y-88555995D01*
X145630892Y-88546426D01*
X146319115Y-88362018D01*
X146349690Y-88355414D01*
X146380766Y-88351839D01*
X146412043Y-88351328D01*
X146443219Y-88353884D01*
X146443219Y-88353884D01*
G37*
D12*
X146140000Y-89070000D03*
D11*
G36*
X146035579Y-86832550D02*
G01*
X146066354Y-86838150D01*
X146096432Y-86846739D01*
X146125524Y-86858235D01*
X146153348Y-86872528D01*
X146179638Y-86889478D01*
X146204140Y-86908924D01*
X146226617Y-86930678D01*
X146246855Y-86954531D01*
X146264656Y-86980252D01*
X146279851Y-87007594D01*
X146292293Y-87036294D01*
X146301862Y-87066075D01*
X146466859Y-87681853D01*
X146473463Y-87712428D01*
X146477038Y-87743504D01*
X146477549Y-87774780D01*
X146474993Y-87805956D01*
X146469393Y-87836732D01*
X146460804Y-87866810D01*
X146449308Y-87895901D01*
X146435016Y-87923726D01*
X146418065Y-87950016D01*
X146398619Y-87974518D01*
X146376865Y-87996995D01*
X146353013Y-88017232D01*
X146327292Y-88035034D01*
X146299949Y-88050229D01*
X146271250Y-88062671D01*
X146241468Y-88072240D01*
X145553245Y-88256648D01*
X145522670Y-88263252D01*
X145491594Y-88266827D01*
X145460317Y-88267338D01*
X145429141Y-88264782D01*
X145398366Y-88259182D01*
X145368288Y-88250593D01*
X145339196Y-88239097D01*
X145311372Y-88224804D01*
X145285082Y-88207854D01*
X145260580Y-88188408D01*
X145238103Y-88166654D01*
X145217865Y-88142801D01*
X145200064Y-88117080D01*
X145184869Y-88089738D01*
X145172427Y-88061038D01*
X145162858Y-88031257D01*
X144997861Y-87415479D01*
X144991257Y-87384904D01*
X144987682Y-87353828D01*
X144987171Y-87322552D01*
X144989727Y-87291376D01*
X144995327Y-87260600D01*
X145003916Y-87230522D01*
X145015412Y-87201431D01*
X145029704Y-87173606D01*
X145046655Y-87147316D01*
X145066101Y-87122814D01*
X145087855Y-87100337D01*
X145111707Y-87080100D01*
X145137428Y-87062298D01*
X145164771Y-87047103D01*
X145193470Y-87034661D01*
X145223252Y-87025092D01*
X145911475Y-86840684D01*
X145942050Y-86834080D01*
X145973126Y-86830505D01*
X146004403Y-86829994D01*
X146035579Y-86832550D01*
X146035579Y-86832550D01*
G37*
D12*
X145732360Y-87548666D03*
D11*
G36*
X157449234Y-88551839D02*
G01*
X157480310Y-88555414D01*
X157510885Y-88562018D01*
X158199108Y-88746426D01*
X158228889Y-88755995D01*
X158257589Y-88768437D01*
X158284931Y-88783632D01*
X158310652Y-88801433D01*
X158334505Y-88821671D01*
X158356259Y-88844148D01*
X158375705Y-88868650D01*
X158392655Y-88894940D01*
X158406948Y-88922764D01*
X158418444Y-88951856D01*
X158427033Y-88981934D01*
X158432633Y-89012709D01*
X158435189Y-89043885D01*
X158434678Y-89075162D01*
X158431103Y-89106238D01*
X158424499Y-89136813D01*
X158259502Y-89752591D01*
X158249933Y-89782373D01*
X158237491Y-89811072D01*
X158222296Y-89838415D01*
X158204494Y-89864136D01*
X158184257Y-89887988D01*
X158161780Y-89909742D01*
X158137278Y-89929188D01*
X158110988Y-89946139D01*
X158083163Y-89960431D01*
X158054072Y-89971927D01*
X158023994Y-89980516D01*
X157993218Y-89986116D01*
X157962042Y-89988672D01*
X157930766Y-89988161D01*
X157899690Y-89984586D01*
X157869115Y-89977982D01*
X157180892Y-89793574D01*
X157151111Y-89784005D01*
X157122411Y-89771563D01*
X157095069Y-89756368D01*
X157069348Y-89738567D01*
X157045495Y-89718329D01*
X157023741Y-89695852D01*
X157004295Y-89671350D01*
X156987345Y-89645060D01*
X156973052Y-89617236D01*
X156961556Y-89588144D01*
X156952967Y-89558066D01*
X156947367Y-89527291D01*
X156944811Y-89496115D01*
X156945322Y-89464838D01*
X156948897Y-89433762D01*
X156955501Y-89403187D01*
X157120498Y-88787409D01*
X157130067Y-88757627D01*
X157142509Y-88728928D01*
X157157704Y-88701585D01*
X157175506Y-88675864D01*
X157195743Y-88652012D01*
X157218220Y-88630258D01*
X157242722Y-88610812D01*
X157269012Y-88593861D01*
X157296837Y-88579569D01*
X157325928Y-88568073D01*
X157356006Y-88559484D01*
X157386782Y-88553884D01*
X157417958Y-88551328D01*
X157449234Y-88551839D01*
X157449234Y-88551839D01*
G37*
D12*
X157690000Y-89270000D03*
D11*
G36*
X157856874Y-87030505D02*
G01*
X157887950Y-87034080D01*
X157918525Y-87040684D01*
X158606748Y-87225092D01*
X158636529Y-87234661D01*
X158665229Y-87247103D01*
X158692571Y-87262298D01*
X158718292Y-87280099D01*
X158742145Y-87300337D01*
X158763899Y-87322814D01*
X158783345Y-87347316D01*
X158800295Y-87373606D01*
X158814588Y-87401430D01*
X158826084Y-87430522D01*
X158834673Y-87460600D01*
X158840273Y-87491375D01*
X158842829Y-87522551D01*
X158842318Y-87553828D01*
X158838743Y-87584904D01*
X158832139Y-87615479D01*
X158667142Y-88231257D01*
X158657573Y-88261039D01*
X158645131Y-88289738D01*
X158629936Y-88317081D01*
X158612134Y-88342802D01*
X158591897Y-88366654D01*
X158569420Y-88388408D01*
X158544918Y-88407854D01*
X158518628Y-88424805D01*
X158490803Y-88439097D01*
X158461712Y-88450593D01*
X158431634Y-88459182D01*
X158400858Y-88464782D01*
X158369682Y-88467338D01*
X158338406Y-88466827D01*
X158307330Y-88463252D01*
X158276755Y-88456648D01*
X157588532Y-88272240D01*
X157558751Y-88262671D01*
X157530051Y-88250229D01*
X157502709Y-88235034D01*
X157476988Y-88217233D01*
X157453135Y-88196995D01*
X157431381Y-88174518D01*
X157411935Y-88150016D01*
X157394985Y-88123726D01*
X157380692Y-88095902D01*
X157369196Y-88066810D01*
X157360607Y-88036732D01*
X157355007Y-88005957D01*
X157352451Y-87974781D01*
X157352962Y-87943504D01*
X157356537Y-87912428D01*
X157363141Y-87881853D01*
X157528138Y-87266075D01*
X157537707Y-87236293D01*
X157550149Y-87207594D01*
X157565344Y-87180251D01*
X157583146Y-87154530D01*
X157603383Y-87130678D01*
X157625860Y-87108924D01*
X157650362Y-87089478D01*
X157676652Y-87072527D01*
X157704477Y-87058235D01*
X157733568Y-87046739D01*
X157763646Y-87038150D01*
X157794422Y-87032550D01*
X157825598Y-87029994D01*
X157856874Y-87030505D01*
X157856874Y-87030505D01*
G37*
D12*
X158097640Y-87748666D03*
D11*
G36*
X162725829Y-95139142D02*
G01*
X162756905Y-95142717D01*
X162787480Y-95149321D01*
X163403258Y-95314318D01*
X163433040Y-95323887D01*
X163461739Y-95336329D01*
X163489082Y-95351524D01*
X163514803Y-95369326D01*
X163538655Y-95389563D01*
X163560409Y-95412040D01*
X163579855Y-95436542D01*
X163596806Y-95462832D01*
X163611098Y-95490657D01*
X163622594Y-95519748D01*
X163631183Y-95549826D01*
X163636783Y-95580602D01*
X163639339Y-95611778D01*
X163638828Y-95643054D01*
X163635253Y-95674130D01*
X163628649Y-95704705D01*
X163444241Y-96392928D01*
X163434672Y-96422709D01*
X163422230Y-96451409D01*
X163407035Y-96478751D01*
X163389234Y-96504472D01*
X163368996Y-96528325D01*
X163346519Y-96550079D01*
X163322017Y-96569525D01*
X163295727Y-96586475D01*
X163267903Y-96600768D01*
X163238811Y-96612264D01*
X163208733Y-96620853D01*
X163177958Y-96626453D01*
X163146782Y-96629009D01*
X163115505Y-96628498D01*
X163084429Y-96624923D01*
X163053854Y-96618319D01*
X162438076Y-96453322D01*
X162408294Y-96443753D01*
X162379595Y-96431311D01*
X162352252Y-96416116D01*
X162326531Y-96398314D01*
X162302679Y-96378077D01*
X162280925Y-96355600D01*
X162261479Y-96331098D01*
X162244528Y-96304808D01*
X162230236Y-96276983D01*
X162218740Y-96247892D01*
X162210151Y-96217814D01*
X162204551Y-96187038D01*
X162201995Y-96155862D01*
X162202506Y-96124586D01*
X162206081Y-96093510D01*
X162212685Y-96062935D01*
X162397093Y-95374712D01*
X162406662Y-95344931D01*
X162419104Y-95316231D01*
X162434299Y-95288889D01*
X162452100Y-95263168D01*
X162472338Y-95239315D01*
X162494815Y-95217561D01*
X162519317Y-95198115D01*
X162545607Y-95181165D01*
X162573431Y-95166872D01*
X162602523Y-95155376D01*
X162632601Y-95146787D01*
X162663376Y-95141187D01*
X162694552Y-95138631D01*
X162725829Y-95139142D01*
X162725829Y-95139142D01*
G37*
D12*
X162920667Y-95883820D03*
D11*
G36*
X161204495Y-94731502D02*
G01*
X161235571Y-94735077D01*
X161266146Y-94741681D01*
X161881924Y-94906678D01*
X161911706Y-94916247D01*
X161940405Y-94928689D01*
X161967748Y-94943884D01*
X161993469Y-94961686D01*
X162017321Y-94981923D01*
X162039075Y-95004400D01*
X162058521Y-95028902D01*
X162075472Y-95055192D01*
X162089764Y-95083017D01*
X162101260Y-95112108D01*
X162109849Y-95142186D01*
X162115449Y-95172962D01*
X162118005Y-95204138D01*
X162117494Y-95235414D01*
X162113919Y-95266490D01*
X162107315Y-95297065D01*
X161922907Y-95985288D01*
X161913338Y-96015069D01*
X161900896Y-96043769D01*
X161885701Y-96071111D01*
X161867900Y-96096832D01*
X161847662Y-96120685D01*
X161825185Y-96142439D01*
X161800683Y-96161885D01*
X161774393Y-96178835D01*
X161746569Y-96193128D01*
X161717477Y-96204624D01*
X161687399Y-96213213D01*
X161656624Y-96218813D01*
X161625448Y-96221369D01*
X161594171Y-96220858D01*
X161563095Y-96217283D01*
X161532520Y-96210679D01*
X160916742Y-96045682D01*
X160886960Y-96036113D01*
X160858261Y-96023671D01*
X160830918Y-96008476D01*
X160805197Y-95990674D01*
X160781345Y-95970437D01*
X160759591Y-95947960D01*
X160740145Y-95923458D01*
X160723194Y-95897168D01*
X160708902Y-95869343D01*
X160697406Y-95840252D01*
X160688817Y-95810174D01*
X160683217Y-95779398D01*
X160680661Y-95748222D01*
X160681172Y-95716946D01*
X160684747Y-95685870D01*
X160691351Y-95655295D01*
X160875759Y-94967072D01*
X160885328Y-94937291D01*
X160897770Y-94908591D01*
X160912965Y-94881249D01*
X160930766Y-94855528D01*
X160951004Y-94831675D01*
X160973481Y-94809921D01*
X160997983Y-94790475D01*
X161024273Y-94773525D01*
X161052097Y-94759232D01*
X161081189Y-94747736D01*
X161111267Y-94739147D01*
X161142042Y-94733547D01*
X161173218Y-94730991D01*
X161204495Y-94731502D01*
X161204495Y-94731502D01*
G37*
D12*
X161399333Y-95476180D03*
D13*
X149430000Y-105770000D03*
X149430000Y-110820000D03*
X151970000Y-105770000D03*
X151970000Y-110820000D03*
X154510000Y-105770000D03*
X154510000Y-110820000D03*
D14*
X150880000Y-96000000D03*
D15*
X152480000Y-96000000D03*
X151680000Y-96000000D03*
D14*
X153280000Y-96000000D03*
D15*
X151680000Y-97800000D03*
D14*
X150880000Y-97800000D03*
D15*
X152480000Y-97800000D03*
D14*
X153280000Y-97800000D03*
M02*
