<?xml version="1.0" encoding="UTF-8" standalone="no"?>
<!-- Created with Inkscape (http://www.inkscape.org/) -->

<svg
   xmlns:dc="http://purl.org/dc/elements/1.1/"
   xmlns:cc="http://creativecommons.org/ns#"
   xmlns:rdf="http://www.w3.org/1999/02/22-rdf-syntax-ns#"
   xmlns:svg="http://www.w3.org/2000/svg"
   xmlns="http://www.w3.org/2000/svg"
   xmlns:sodipodi="http://sodipodi.sourceforge.net/DTD/sodipodi-0.dtd"
   xmlns:inkscape="http://www.inkscape.org/namespaces/inkscape"
   version="1.1"
   id="svg2"
   width="40.0mm"
   height="40.0mm"
   viewBox="0 0 40.0 40.0"
   sodipodi:docname="Goron's_Ruby.svg"
   inkscape:version="0.92.4 5da689c313, 2019-01-14">
  <metadata
     id="metadata8">
    <rdf:RDF>
      <cc:Work
         rdf:about="">
        <dc:format>image/svg+xml</dc:format>
        <dc:type
           rdf:resource="http://purl.org/dc/dcmitype/StillImage" />
        <dc:title />
      </cc:Work>
    </rdf:RDF>
  </metadata>
  <defs
     id="defs6" />
  <sodipodi:namedview
     pagecolor="#ffffff"
     bordercolor="#666666"
     borderopacity="1"
     objecttolerance="10"
     gridtolerance="10"
     guidetolerance="10"
     inkscape:pageopacity="0"
     inkscape:pageshadow="2"
     inkscape:window-width="1920"
     inkscape:window-height="1019"
     id="namedview4"
     showgrid="false"
     inkscape:zoom="3.4141049"
     inkscape:cx="45.997764"
     inkscape:cy="109.80439"
     inkscape:window-x="0"
     inkscape:window-y="0"
     inkscape:window-maximized="1"
     inkscape:current-layer="g839"
     borderlayer="true"
     inkscape:document-units="mm">
    <inkscape:grid
       id="grid819"
       units="mm"
       type="xygrid"
       empspacing="1"
       spacingy="2.54"
       spacingx="2.54" />
    <inkscape:grid
       spacingx="2.54"
       spacingy="2.54"
       empspacing="1"
       type="xygrid"
       units="mm"
       id="grid859" />
  </sodipodi:namedview>
  <g
     id="g825"
     sodipodi:insensitive="true"
     inkscape:groupmode="layer"
     inkscape:label="[fixed] BG">
    <rect
       id="rect823"
       style="stroke:none;fill-opacity:1;fill:#FFFFFF"
       height="50.0"
       width="50.0"
       y="0"
       x="0" />
  </g>
  <g
     id="g827"
     inkscape:groupmode="layer"
     inkscape:label="Edge.Cuts">
    <path
       inkscape:connector-curvature="0"
       id="path883"
       d="M1.0558984 6.5890504L11.267992 31.006155L19.325847 37.926951L27.608352 30.92315L38.56451 6.2015647L27.201492 7.0830944L19.829578 1.3192455L12.060491 7.2380887L1.0558984 6.5890504"
       style="fill:none;stroke:#000000;stroke-width:0.26458332px;stroke-linecap:butt;stroke-linejoin:miter;stroke-opacity:1" />
  </g>
  <g
     id="g829"
     inkscape:groupmode="layer"
     inkscape:label="B.Cu-disabled" />
  <g
     id="g831"
     inkscape:groupmode="layer"
     inkscape:label="B.Mask"
     style="display:none">
    <path
       inkscape:connector-curvature="0"
       id="path888"
       d="M 19.829578,1.3192455 31.968217,10.781994 25.031573,23.183123 13.436065,23.231559 7.0619259,10.987012 Z"
       style="fill:#f50000;fill-opacity:1;stroke:#000000;stroke-width:0.26458332px;stroke-linecap:butt;stroke-linejoin:miter;stroke-opacity:1" />
  </g>
  <g
     id="g833"
     inkscape:groupmode="layer"
     inkscape:label="B.Silk-disabled" />
  <g
     id="g835"
     inkscape:groupmode="layer"
     inkscape:label="F.Cu"
     style="display:inline">
    <path
       style="fill:#ff0000;stroke:#000000;stroke-width:0.26458332px;stroke-linecap:butt;stroke-linejoin:miter;stroke-opacity:1;fill-opacity:1"
       d="M 1.0558984,6.5890504 11.267992,31.006155 19.325847,37.926951 27.608352,30.92315 38.56451,6.2015647 27.201492,7.0830942 31.968217,10.781994 25.031573,23.183123 13.436065,23.231559 7.0619259,10.987012 12.060491,7.2380887 Z"
       id="path827"
       inkscape:connector-curvature="0" />
  </g>
  <g
     id="g837"
     inkscape:groupmode="layer"
     inkscape:label="F.Mask"
     style="display:none">
    <path
       style="fill:#f50000;fill-opacity:1;stroke:#000000;stroke-width:0.26458332px;stroke-linecap:butt;stroke-linejoin:miter;stroke-opacity:1"
       d="M 19.829578,1.3192455 31.968217,10.781994 25.031573,23.183123 13.436065,23.231559 7.0619259,10.987012 Z"
       id="path886"
       inkscape:connector-curvature="0" />
  </g>
  <g
     id="g839"
     inkscape:groupmode="layer"
     inkscape:label="F.Silk"
     style="display:inline">
    <path
       style="fill:#000000;stroke-width:0.25981998"
       d="M 75.951172 5.7695312 L 103.08203 26.919922 C 103.14336 26.901802 103.19016 26.875 103.2793 26.875 C 104.19927 26.875 144.46806 23.635436 145.03711 23.515625 C 146.30051 23.249648 139.56534 23.721847 121.85742 25.140625 L 103 26.650391 L 100.66016 24.802734 C 92.822966 18.615512 77.097606 6.4661254 76.238281 5.9335938 C 76.126556 5.864359 76.045325 5.8229964 75.951172 5.7695312 z M 143.60547 24.082031 C 139.4459 24.362404 104.61991 27.147513 103.94531 27.253906 C 103.79599 27.277459 103.6655 27.268676 103.5293 27.267578 L 104.32812 27.890625 C 104.57627 27.936178 104.77848 27.924351 104.93945 27.839844 C 105.16019 27.723967 113.36158 27.008452 123.16406 26.251953 C 132.96654 25.495454 141.50355 24.814224 142.13477 24.736328 C 142.80945 24.653065 143.2832 24.695579 143.2832 24.839844 C 143.2832 25.171331 139.90174 27.510203 138.55664 28.109375 C 137.66528 28.506437 134.98705 28.793029 123.23438 29.746094 C 109.36364 30.870919 108.96543 30.889071 107.97656 30.460938 C 107.70733 30.344375 107.3495 30.16046 106.98828 29.962891 L 109.61719 32.013672 L 110.10938 32.259766 L 111.36523 32.890625 L 121.9668 32.007812 C 133.43705 31.052371 134.10156 31.016002 134.10156 31.341797 C 134.10156 31.461083 132.58762 32.820452 130.73828 34.363281 L 127.37695 37.167969 L 123.53125 42.833984 C 115.3648 54.865377 109.95603 63.603326 110.41406 64.027344 C 110.96753 64.539708 114.51925 60.847393 119.24609 54.845703 C 121.99031 51.361368 130.46109 39.671399 135.21289 32.810547 L 137.53906 29.451172 L 141.24414 26.892578 C 143.28172 25.485161 144.87026 24.261627 144.77539 24.173828 C 144.68054 24.085992 144.15446 24.044992 143.60547 24.082031 z M 145.37305 24.806641 C 145.3206 24.660989 143.83856 27.850119 142.08008 31.894531 C 129.06315 61.832762 109.1498 105.8193 108.22461 106.67578 C 108.08048 106.8092 107.74742 106.53613 107.4082 106.00391 C 107.0935 105.51013 106.29276 104.80011 105.62891 104.42578 C 104.73677 103.92276 104.27325 103.4288 103.85156 102.53516 C 103.3164 101.40109 103.28545 100.97637 103.36523 95.662109 C 103.41199 92.54604 103.35187 89.742948 103.23047 89.433594 C 102.73474 88.170343 100.89064 89.239242 98.523438 92.162109 C 97.669669 93.216291 96.32505 94.546638 95.537109 95.117188 C 93.970314 96.251703 92.561779 98.099619 91.689453 100.16602 C 90.920984 101.98639 89.692397 103.97244 88.289062 105.66406 L 87.113281 107.08398 L 85.623047 106.94141 C 84.159663 106.80159 84.114488 106.81685 83.107422 107.79688 C 81.774961 109.09356 80.432752 112.01244 78.873047 117.01172 C 76.01329 126.17801 74.801399 129.05221 71.630859 134.16406 C 69.989475 136.81045 69.832031 137.18952 69.832031 138.48828 L 69.832031 139.91211 L 68.738281 139.16602 C 67.321382 138.2014 59.947088 132.15621 58.894531 131.0957 L 58.083984 130.2793 L 58.919922 130.88672 C 59.379788 131.22082 60.777251 132.30984 62.025391 133.30664 C 63.273534 134.30345 64.382518 135.11913 64.490234 135.11914 C 64.597989 135.11915 64.579133 134.86599 64.447266 134.55664 C 64.315405 134.24728 62.936236 131.06894 61.382812 127.49414 C 59.829385 123.91934 57.193504 117.61891 55.525391 113.49414 C 51.112259 102.58174 49.131972 98.627893 47.800781 98.066406 C 47.439938 97.91419 47.08363 97.84583 47.007812 97.916016 C 46.863355 98.049743 47.36208 101.16055 48.248047 105.65234 C 48.536228 107.11341 49.742081 111.94928 50.927734 116.40039 C 52.113391 120.8515 53.153872 124.76957 53.240234 125.10742 C 53.326593 125.44526 54.503909 126.76723 55.857422 128.04492 C 57.210935 129.32262 58.194377 130.36914 58.042969 130.36914 C 57.89155 130.36914 56.371052 129.04717 54.664062 127.43164 L 51.560547 124.49414 L 50.798828 121.61914 C 50.379308 120.03798 49.154678 115.63066 48.078125 111.82422 C 46.29519 105.52015 45.856306 104.31643 43.148438 98.324219 C 41.513403 94.706081 38.716128 88.416495 36.931641 84.347656 C 29.003409 66.270403 24.805055 57.930114 17.501953 45.748047 C 14.523572 40.779907 13.244296 38.962267 11.519531 37.248047 C 9.4561057 35.197226 8.6069283 33.843121 6.7890625 29.695312 L 5.0605469 25.75 L 6.9980469 25.535156 C 9.2922277 25.281406 17.793383 25.766841 18.757812 26.207031 C 19.22102 26.41845 19.55993 26.981224 19.994141 28.25 C 20.772523 30.524448 21.941358 32.623047 22.427734 32.623047 C 23.090898 32.623047 23.245792 32.080016 23.384766 29.25 L 23.519531 26.5 L 26.355469 26.523438 C 29.189888 26.547071 37.39007 26.92616 42.355469 27.263672 C 43.99279 27.374971 44.814701 27.510829 44.958984 27.693359 L 45.625 27.189453 L 36.123047 26.613281 C 30.676018 26.283559 25.027721 26.036926 23.570312 26.066406 C 22.112904 26.095735 20.402595 26.012198 19.769531 25.880859 C 18.496443 25.616742 13.29145 25.236448 7.7890625 25.005859 C 5.2767123 24.900562 4.2109375 24.938519 4.2109375 25.130859 C 4.2109375 25.281526 4.3083769 25.347593 4.4277344 25.279297 C 4.5470919 25.211012 4.6595926 25.514851 4.6777344 25.953125 C 4.7114969 26.768214 8.6697372 36.167084 13.119141 45.998047 C 14.488154 49.022878 16.795141 54.592004 18.246094 58.373047 C 21.562232 67.01457 24.590529 74.416593 34.541016 98.226562 C 40.758674 113.10445 42.642449 117.36644 43.257812 117.93945 C 43.68959 118.34151 44.999214 119.33913 46.167969 120.15625 C 47.336723 120.97337 49.224792 122.62127 50.365234 123.81836 C 52.507849 126.06739 64.264794 136.23393 69.966797 140.76953 L 73.207031 143.34766 L 74.287109 142.40234 C 74.881198 141.88252 76.58211 140.50828 78.066406 139.34961 C 83.197557 135.34413 89.69988 129.76316 94.945312 124.86133 C 97.8415 122.15486 101.14196 119.25105 102.2793 118.4082 L 104.3457 116.875 L 107.5918 109.81055 C 112.15606 99.873012 119.84703 82.779726 128.42969 63.498047 C 141.68709 33.714141 145.46973 25.0751 145.37305 24.806641 z M 9.8203125 25.875 L 9.9238281 27.564453 L 10.027344 29.255859 L 16.009766 38.501953 C 25.141452 52.615975 34.750526 66.875925 37.341797 70.158203 C 39.50398 72.896977 42.028636 75.526476 44.091797 77.189453 L 44.951172 77.880859 L 45.037109 77.205078 C 45.056323 77.053764 45.153675 77.105304 45.302734 77.279297 L 42.574219 72.039062 C 42.161401 71.333007 41.70495 70.555326 41.470703 70.125 C 41.134575 69.507539 39.281308 66.807357 37.353516 64.125 C 31.250387 55.63304 29.32884 53.291628 28.654297 53.53125 C 28.234713 53.680299 26.217077 51.178374 23.587891 47.248047 C 21.04586 43.448004 19.603516 41.045509 19.603516 40.611328 C 19.603516 40.424672 20.400249 41.053689 21.375 42.009766 C 23.084499 43.686527 23.142098 43.719228 23.001953 42.935547 C 22.922054 42.488686 22.969217 42.123047 23.105469 42.123047 C 23.871065 42.123047 31.598758 51.53355 33.052734 54.236328 C 33.630321 55.309999 34.18938 56.16841 34.390625 56.314453 L 26.691406 41.525391 L 30.347656 38.757812 C 30.177675 38.816373 29.814077 39.053043 29.417969 39.375 C 28.91751 39.781779 28.16328 40.278869 27.742188 40.480469 L 26.976562 40.847656 L 26.806641 36.173828 C 26.712719 33.603077 26.55414 30.459303 26.455078 29.1875 L 26.275391 26.875 L 26.921875 26.878906 C 28.309922 26.887112 28.33687 26.944744 29.738281 33.212891 C 30.353656 35.965318 30.667107 37.916024 30.615234 38.554688 L 31.6875 37.742188 C 32.021689 37.339352 32.290423 36.933459 32.285156 36.792969 C 32.254689 35.982717 29.930938 27.334294 29.681641 27.103516 C 29.522723 26.956379 28.37722 26.81678 27.136719 26.792969 L 24.880859 26.75 L 25.009766 28.625 C 25.080821 29.656195 25.137332 32.13136 25.134766 34.125 C 25.129985 37.83376 24.780916 39.623047 24.0625 39.623047 C 23.088089 39.623047 21.625191 37.235046 18.927734 31.238281 C 17.967141 29.102761 17.06314 27.149549 16.917969 26.898438 C 16.715507 26.548226 16.095935 26.37598 14.261719 26.158203 C 12.946534 26.002071 11.409367 25.875 10.845703 25.875 L 9.8203125 25.875 z M 35.535156 27.167969 C 34.569759 27.148051 33.631354 27.21906 33.449219 27.326172 C 33.078375 27.54427 33.154996 27.88215 34.488281 31.9375 C 35.226478 34.182825 35.529283 34.668988 36.408203 34.167969 L 37.355469 33.451172 C 37.538835 33.264329 37.60001 33.13688 37.400391 33.132812 C 36.957097 33.123568 36.028596 30.640019 35.652344 28.455078 C 35.4735 27.416502 35.478886 27.409066 36.382812 27.306641 C 36.88826 27.249381 36.511132 27.188 35.535156 27.167969 z M 40.396484 27.404297 C 40.176233 27.404297 39.956155 27.417464 39.789062 27.447266 C 39.454888 27.506831 39.728135 27.556641 40.396484 27.556641 C 41.064852 27.556641 41.338092 27.506831 41.003906 27.447266 C 40.836817 27.417464 40.616735 27.404297 40.396484 27.404297 z M 43.615234 27.703125 C 43.221559 27.675345 43.151062 27.706743 43.435547 27.783203 C 43.695446 27.853049 43.908203 28.01517 43.908203 28.142578 C 43.908203 28.23959 43.994118 28.307439 44.101562 28.341797 L 44.404297 28.113281 C 44.290524 27.935176 43.970101 27.728179 43.615234 27.703125 z M 43.335938 28.921875 C 42.838961 29.249317 42.135862 29.756518 41.34375 30.373047 C 39.959763 31.450258 38.569157 32.459064 38.253906 32.615234 C 37.958753 32.761475 37.781806 32.967424 37.826172 33.09375 L 43.335938 28.921875 z M 141.04688 32.472656 C 140.86989 32.308818 134.04119 40.431123 131.82031 43.447266 C 128.65512 47.745873 126.81886 50.609145 124.08984 55.498047 C 118.33109 65.814581 113.83294 77.559077 113.39258 83.427734 C 113.21674 85.771151 113.55877 87.117876 114.75781 88.806641 C 115.07436 89.252474 115.45498 89.581443 115.60352 89.537109 C 115.75204 89.492764 116.52812 88.115479 117.32812 86.476562 C 119.3654 82.302947 129.00328 60.818843 128.88672 60.710938 C 128.83398 60.662114 127.83654 62.732546 126.67188 65.310547 C 123.40735 72.536614 122.85431 73.586152 122.60547 73.015625 C 122.26912 72.244507 122.97979 68.465497 123.98828 65.666016 C 125.18799 62.335726 128.15552 56.889358 131.05859 52.691406 C 132.32053 50.866597 133.39746 49.373047 133.45117 49.373047 C 133.59775 49.373047 132.42614 52.295006 130.60156 56.478516 C 129.70662 58.530504 129.01875 60.251232 129.07227 60.300781 C 129.17836 60.399 129.54749 59.574438 135.37109 46.248047 C 139.36703 37.103986 141.21189 32.625387 141.04688 32.472656 z M 129.65039 33.921875 C 128.81214 33.87198 126.53987 34.0224 121.76367 34.425781 L 113.59766 35.117188 L 117.5918 38.230469 L 117.55078 38.193359 L 121.16797 37.884766 C 123.66189 37.67194 125.14388 37.419453 125.94336 37.072266 C 127.35052 36.461176 130.05078 34.466305 130.05078 34.037109 C 130.05078 33.977553 129.92981 33.938507 129.65039 33.921875 z M 124.41211 39.123047 C 123.72588 39.123047 121.41581 40.518703 121.41211 40.935547 C 121.40674 41.539081 121.69959 41.488033 122.92188 40.666016 C 124.1766 39.822198 124.85046 39.123047 124.41211 39.123047 z M 120.58008 41.1875 L 99.830078 78.283203 C 100.25791 77.810822 101.72189 75.314781 103.7168 71.621094 C 104.64501 69.902437 106.77205 66.079133 108.44141 63.123047 C 110.11076 60.166961 113.09453 54.822849 115.07227 51.248047 C 117.05001 47.673245 119.09918 44.016746 119.62695 43.123047 C 120.15473 42.229347 120.59037 41.370119 120.59375 41.212891 C 120.59385 41.20834 120.58112 41.19302 120.58008 41.1875 z M 24.041016 70.929688 C 24.21227 70.771151 27.650122 77.39242 30.046875 82.496094 C 32.502007 87.724076 34.024958 91.303521 36.748047 98.246094 C 38.042337 101.54591 40.103233 106.55055 41.328125 109.36914 C 42.553021 112.18773 43.775151 115.2555 44.042969 116.18555 C 44.310786 117.1156 44.464514 117.9379 44.384766 118.01172 C 44.305021 118.08554 43.917514 117.88673 43.523438 117.57031 C 42.977591 117.13205 41.851791 114.70128 38.798828 107.36914 C 36.594741 102.07569 33.027787 93.527057 30.871094 88.371094 C 26.447198 77.794963 23.833595 71.121725 24.041016 70.929688 z M 99.150391 79.621094 C 99.124954 79.621094 99.072207 79.674957 99.025391 79.720703 L 98.542969 80.583984 C 98.545193 80.606798 98.554718 80.621094 98.572266 80.621094 C 98.646537 80.621094 98.837127 80.396092 98.996094 80.121094 C 99.155023 79.846118 99.224658 79.621094 99.150391 79.621094 z M 98.078125 81.416016 L 97.3125 82.783203 C 97.42153 82.684347 97.596419 82.451991 97.78125 82.121094 C 97.969173 81.784713 98.080658 81.510281 98.078125 81.416016 z M 96.005859 85.121094 L 95.162109 86.628906 C 95.413875 86.273557 95.668296 85.777335 96.005859 85.121094 z M 82.330078 87.705078 C 82.084527 87.686105 81.357286 87.705207 80.042969 87.753906 C 78.307183 87.818234 76.58888 87.977267 76.224609 88.105469 C 75.633174 88.313634 75.457811 88.733536 74.591797 92.041016 C 74.058388 94.078196 73.085643 98.0525 72.429688 100.87109 C 71.250369 105.93854 70.588503 107.76919 69.203125 109.80078 C 68.270047 111.16911 67.069747 111.43409 65.335938 110.6543 C 63.891459 110.00463 62.6765 108.48197 61.671875 106.0625 C 60.659574 103.62455 60.383973 101.46138 60.191406 94.4375 C 60.047644 89.1933 59.966109 88.36538 59.59375 88.269531 C 59.357186 88.208681 58.769808 88.084093 58.287109 87.994141 C 58.018173 87.944034 57.786324 87.862264 57.625 87.775391 L 52.693359 87.796875 L 53.419922 87.816406 L 56.007812 87.888672 L 55.660156 88.566406 C 55.102449 89.651388 54.920402 97.641161 55.392578 100.34375 C 55.915264 103.33545 57.210147 107.90469 58.248047 110.42188 C 60.357859 115.53874 64.610025 122.98026 65.587891 123.26758 C 66.614078 123.56909 68.422483 123.10522 69.673828 122.2207 C 70.649404 121.53111 71.169669 120.85374 72.138672 119.00977 C 73.672631 116.09072 74.514548 112.99184 76.455078 103.12109 C 77.782769 96.367622 79.545602 89.191227 80.068359 88.408203 C 80.169681 88.256432 80.914562 88.02064 81.724609 87.884766 C 82.337966 87.781906 82.575629 87.724051 82.330078 87.705078 z M 52.007812 112.00781 L 52.550781 112.50977 C 53.538897 113.4245 59.045933 126.76115 59.951172 130.43164 C 60.045244 130.81307 60.005139 131.11914 59.861328 131.11914 C 59.718791 131.11914 58.616584 130.24721 57.412109 129.18164 L 55.222656 127.24414 L 54.181641 123.11914 C 52.675741 117.14913 52.007812 114.0284 52.007812 112.95312 L 52.007812 112.00781 z M 91.197266 119.92188 C 92.238469 120.03185 92.782647 121.38315 92.783203 123.92383 L 92.785156 126.10156 L 91.582031 127.35547 C 90.097172 128.90318 85.6924 132.76967 82.875 134.99805 C 80.601425 136.79629 79.822266 137.28025 79.822266 136.89844 C 79.822266 136.45189 83.36985 128.9935 84.714844 126.61133 C 86.324359 123.7609 88.099224 121.50028 89.474609 120.54688 C 90.148388 120.07982 90.723991 119.87189 91.197266 119.92188 z M 87.839844 129.36914 C 87.44099 129.36914 86.342982 130.39526 85.632812 131.43164 C 84.924117 132.46587 85.455083 132.26104 86.902344 130.94141 C 88.237466 129.72404 88.448915 129.36914 87.839844 129.36914 z "
       transform="scale(0.26458333)"
       id="path834" />
  </g>
  <g
     id="g841"
     inkscape:groupmode="layer"
     inkscape:label="Drill" />
</svg>
