%TF.GenerationSoftware,KiCad,Pcbnew,9.0.2*%
%TF.CreationDate,2025-06-18T16:38:02-05:00*%
%TF.ProjectId,satelliteSAO,73617465-6c6c-4697-9465-53414f2e6b69,rev?*%
%TF.SameCoordinates,Original*%
%TF.FileFunction,Copper,L2,Bot*%
%TF.FilePolarity,Positive*%
%FSLAX46Y46*%
G04 Gerber Fmt 4.6, Leading zero omitted, Abs format (unit mm)*
G04 Created by KiCad (PCBNEW 9.0.2) date 2025-06-18 16:38:02*
%MOMM*%
%LPD*%
G01*
G04 APERTURE LIST*
G04 Aperture macros list*
%AMRoundRect*
0 Rectangle with rounded corners*
0 $1 Rounding radius*
0 $2 $3 $4 $5 $6 $7 $8 $9 X,Y pos of 4 corners*
0 Add a 4 corners polygon primitive as box body*
4,1,4,$2,$3,$4,$5,$6,$7,$8,$9,$2,$3,0*
0 Add four circle primitives for the rounded corners*
1,1,$1+$1,$2,$3*
1,1,$1+$1,$4,$5*
1,1,$1+$1,$6,$7*
1,1,$1+$1,$8,$9*
0 Add four rect primitives between the rounded corners*
20,1,$1+$1,$2,$3,$4,$5,0*
20,1,$1+$1,$4,$5,$6,$7,0*
20,1,$1+$1,$6,$7,$8,$9,0*
20,1,$1+$1,$8,$9,$2,$3,0*%
G04 Aperture macros list end*
%TA.AperFunction,ComponentPad*%
%ADD10R,1.700000X1.700000*%
%TD*%
%TA.AperFunction,ComponentPad*%
%ADD11C,1.700000*%
%TD*%
%TA.AperFunction,SMDPad,CuDef*%
%ADD12RoundRect,0.200000X-0.600000X0.200000X-0.600000X-0.200000X0.600000X-0.200000X0.600000X0.200000X0*%
%TD*%
%TA.AperFunction,SMDPad,CuDef*%
%ADD13RoundRect,0.250001X-1.249999X0.799999X-1.249999X-0.799999X1.249999X-0.799999X1.249999X0.799999X0*%
%TD*%
%TA.AperFunction,ViaPad*%
%ADD14C,0.600000*%
%TD*%
%TA.AperFunction,Conductor*%
%ADD15C,0.200000*%
%TD*%
%TA.AperFunction,Conductor*%
%ADD16C,0.400000*%
%TD*%
G04 APERTURE END LIST*
D10*
%TO.P,J4,1,Pin_1*%
%TO.N,VSS*%
X150660000Y-99940000D03*
D11*
%TO.P,J4,2,Pin_2*%
%TO.N,3v3*%
X150660000Y-97400000D03*
%TO.P,J4,3,Pin_3*%
%TO.N,SCL2*%
X153200000Y-99940000D03*
%TO.P,J4,4,Pin_4*%
%TO.N,SDA2*%
X153200000Y-97400000D03*
%TO.P,J4,5,Pin_5*%
%TO.N,unconnected-(J4-Pin_5-Pad5)*%
X155740000Y-99940000D03*
%TO.P,J4,6,Pin_6*%
%TO.N,unconnected-(J4-Pin_6-Pad6)*%
X155740000Y-97400000D03*
%TD*%
D12*
%TO.P,J6,1,Pin_1*%
%TO.N,3v3*%
X165200000Y-96525000D03*
%TO.P,J6,2,Pin_2*%
%TO.N,SDA2*%
X165200000Y-97775000D03*
%TO.P,J6,3,Pin_3*%
%TO.N,SCL2*%
X165200000Y-99025000D03*
%TO.P,J6,4,Pin_4*%
%TO.N,VSS*%
X165200000Y-100275000D03*
D13*
%TO.P,J6,MP*%
%TO.N,N/C*%
X168100000Y-93975000D03*
X168100000Y-102825000D03*
%TD*%
D14*
%TO.N,SCL2*%
X163850000Y-98450000D03*
%TD*%
D15*
%TO.N,SCL2*%
X163850000Y-98450000D02*
X163850000Y-99350000D01*
X163962500Y-99462500D02*
X164400000Y-99025000D01*
X163850000Y-99350000D02*
X163962500Y-99462500D01*
D16*
%TO.N,3v3*%
X152460000Y-95600000D02*
X164275000Y-95600000D01*
D15*
%TO.N,SCL2*%
X162874000Y-100551000D02*
X163962500Y-99462500D01*
%TO.N,SDA2*%
X162874000Y-96249000D02*
X164400000Y-97775000D01*
%TO.N,VSS*%
X151811000Y-101091000D02*
X164384000Y-101091000D01*
X164384000Y-101091000D02*
X165200000Y-100275000D01*
X150660000Y-99940000D02*
X151811000Y-101091000D01*
%TO.N,SDA2*%
X164400000Y-97775000D02*
X165200000Y-97775000D01*
X154351000Y-96249000D02*
X162874000Y-96249000D01*
X153200000Y-97400000D02*
X154351000Y-96249000D01*
D16*
%TO.N,3v3*%
X150660000Y-97400000D02*
X152460000Y-95600000D01*
X164275000Y-95600000D02*
X165200000Y-96525000D01*
D15*
%TO.N,SCL2*%
X154351000Y-98789000D02*
X158429869Y-98789000D01*
X153200000Y-99940000D02*
X154351000Y-98789000D01*
X158429869Y-98789000D02*
X160191869Y-100551000D01*
X164400000Y-99025000D02*
X165200000Y-99025000D01*
X160191869Y-100551000D02*
X162874000Y-100551000D01*
%TD*%
%TA.AperFunction,Conductor*%
%TO.N,VSS*%
G36*
X166042539Y-93320185D02*
G01*
X166088294Y-93372989D01*
X166099500Y-93424500D01*
X166099500Y-94825015D01*
X166110000Y-94927795D01*
X166110001Y-94927797D01*
X166127042Y-94979222D01*
X166165186Y-95094335D01*
X166165187Y-95094337D01*
X166257286Y-95243651D01*
X166257289Y-95243655D01*
X166381344Y-95367710D01*
X166381348Y-95367713D01*
X166530662Y-95459812D01*
X166530664Y-95459813D01*
X166530666Y-95459814D01*
X166697203Y-95514999D01*
X166799992Y-95525500D01*
X166799997Y-95525500D01*
X169400003Y-95525500D01*
X169400008Y-95525500D01*
X169502797Y-95514999D01*
X169669334Y-95459814D01*
X169818655Y-95367711D01*
X169942711Y-95243655D01*
X169969962Y-95199473D01*
X170021909Y-95152751D01*
X170090872Y-95141528D01*
X170154954Y-95169372D01*
X170193810Y-95227441D01*
X170199500Y-95264572D01*
X170199500Y-101535427D01*
X170179815Y-101602466D01*
X170127011Y-101648221D01*
X170057853Y-101658165D01*
X169994297Y-101629140D01*
X169969962Y-101600525D01*
X169942711Y-101556345D01*
X169818655Y-101432289D01*
X169818651Y-101432286D01*
X169669337Y-101340187D01*
X169669335Y-101340186D01*
X169586065Y-101312593D01*
X169502797Y-101285001D01*
X169502795Y-101285000D01*
X169400015Y-101274500D01*
X169400008Y-101274500D01*
X166799992Y-101274500D01*
X166799984Y-101274500D01*
X166697204Y-101285000D01*
X166697203Y-101285001D01*
X166530664Y-101340186D01*
X166530662Y-101340187D01*
X166381348Y-101432286D01*
X166381344Y-101432289D01*
X166257289Y-101556344D01*
X166257286Y-101556348D01*
X166165187Y-101705662D01*
X166165186Y-101705664D01*
X166110001Y-101872203D01*
X166110000Y-101872204D01*
X166099500Y-101974984D01*
X166099500Y-103375500D01*
X166079815Y-103442539D01*
X166027011Y-103488294D01*
X165975500Y-103499500D01*
X143524500Y-103499500D01*
X143457461Y-103479815D01*
X143411706Y-103427011D01*
X143400500Y-103375500D01*
X143400500Y-98478711D01*
X144349500Y-98478711D01*
X144349500Y-98721288D01*
X144381041Y-98960874D01*
X144381162Y-98961789D01*
X144386744Y-98982620D01*
X144443947Y-99196104D01*
X144497862Y-99326266D01*
X144536776Y-99420212D01*
X144658064Y-99630289D01*
X144658066Y-99630292D01*
X144658067Y-99630293D01*
X144805733Y-99822736D01*
X144805739Y-99822743D01*
X144977256Y-99994260D01*
X144977263Y-99994266D01*
X145068143Y-100064000D01*
X145169711Y-100141936D01*
X145379788Y-100263224D01*
X145603900Y-100356054D01*
X145838211Y-100418838D01*
X146018586Y-100442584D01*
X146078711Y-100450500D01*
X146078712Y-100450500D01*
X146321289Y-100450500D01*
X146369388Y-100444167D01*
X146561789Y-100418838D01*
X146796100Y-100356054D01*
X147020212Y-100263224D01*
X147230289Y-100141936D01*
X147319734Y-100073302D01*
X147362794Y-100040262D01*
X147407671Y-100005826D01*
X147422738Y-99994265D01*
X147594265Y-99822738D01*
X147741936Y-99630289D01*
X147863224Y-99420212D01*
X147956054Y-99196100D01*
X148018838Y-98961789D01*
X148050500Y-98721288D01*
X148050500Y-98478712D01*
X148018838Y-98238211D01*
X147956054Y-98003900D01*
X147863224Y-97779788D01*
X147741936Y-97569711D01*
X147594265Y-97377262D01*
X147594260Y-97377256D01*
X147510717Y-97293713D01*
X149309500Y-97293713D01*
X149309500Y-97506286D01*
X149336513Y-97676844D01*
X149342754Y-97716243D01*
X149379135Y-97828213D01*
X149408444Y-97918414D01*
X149504951Y-98107820D01*
X149629890Y-98279786D01*
X149743818Y-98393714D01*
X149777303Y-98455037D01*
X149772319Y-98524729D01*
X149730447Y-98580662D01*
X149699471Y-98597577D01*
X149567912Y-98646646D01*
X149567906Y-98646649D01*
X149452812Y-98732809D01*
X149452809Y-98732812D01*
X149366649Y-98847906D01*
X149366645Y-98847913D01*
X149316403Y-98982620D01*
X149316401Y-98982627D01*
X149310000Y-99042155D01*
X149310000Y-99690000D01*
X150226988Y-99690000D01*
X150194075Y-99747007D01*
X150160000Y-99874174D01*
X150160000Y-100005826D01*
X150194075Y-100132993D01*
X150226988Y-100190000D01*
X149310000Y-100190000D01*
X149310000Y-100837844D01*
X149316401Y-100897372D01*
X149316403Y-100897379D01*
X149366645Y-101032086D01*
X149366649Y-101032093D01*
X149452809Y-101147187D01*
X149452812Y-101147190D01*
X149567906Y-101233350D01*
X149567913Y-101233354D01*
X149702620Y-101283596D01*
X149702627Y-101283598D01*
X149762155Y-101289999D01*
X149762172Y-101290000D01*
X150410000Y-101290000D01*
X150410000Y-100373012D01*
X150467007Y-100405925D01*
X150594174Y-100440000D01*
X150725826Y-100440000D01*
X150852993Y-100405925D01*
X150910000Y-100373012D01*
X150910000Y-101290000D01*
X151557828Y-101290000D01*
X151557844Y-101289999D01*
X151617372Y-101283598D01*
X151617379Y-101283596D01*
X151752086Y-101233354D01*
X151752093Y-101233350D01*
X151867187Y-101147190D01*
X151867190Y-101147187D01*
X151953350Y-101032093D01*
X151953354Y-101032086D01*
X152002422Y-100900529D01*
X152044293Y-100844595D01*
X152109757Y-100820178D01*
X152178030Y-100835030D01*
X152206285Y-100856181D01*
X152320213Y-100970109D01*
X152492179Y-101095048D01*
X152492181Y-101095049D01*
X152492184Y-101095051D01*
X152681588Y-101191557D01*
X152883757Y-101257246D01*
X153093713Y-101290500D01*
X153093714Y-101290500D01*
X153306286Y-101290500D01*
X153306287Y-101290500D01*
X153516243Y-101257246D01*
X153718412Y-101191557D01*
X153907816Y-101095051D01*
X153994471Y-101032093D01*
X154079786Y-100970109D01*
X154079788Y-100970106D01*
X154079792Y-100970104D01*
X154230104Y-100819792D01*
X154230106Y-100819788D01*
X154230109Y-100819786D01*
X154355048Y-100647820D01*
X154355047Y-100647820D01*
X154355051Y-100647816D01*
X154359514Y-100639054D01*
X154407488Y-100588259D01*
X154475308Y-100571463D01*
X154541444Y-100593999D01*
X154580486Y-100639056D01*
X154584951Y-100647820D01*
X154709890Y-100819786D01*
X154860213Y-100970109D01*
X155032179Y-101095048D01*
X155032181Y-101095049D01*
X155032184Y-101095051D01*
X155221588Y-101191557D01*
X155423757Y-101257246D01*
X155633713Y-101290500D01*
X155633714Y-101290500D01*
X155846286Y-101290500D01*
X155846287Y-101290500D01*
X156056243Y-101257246D01*
X156258412Y-101191557D01*
X156447816Y-101095051D01*
X156534471Y-101032093D01*
X156619786Y-100970109D01*
X156619788Y-100970106D01*
X156619792Y-100970104D01*
X156770104Y-100819792D01*
X156770106Y-100819788D01*
X156770109Y-100819786D01*
X156895048Y-100647820D01*
X156895047Y-100647820D01*
X156895051Y-100647816D01*
X156991557Y-100458412D01*
X157057246Y-100256243D01*
X157090500Y-100046287D01*
X157090500Y-99833713D01*
X157057246Y-99623757D01*
X157033870Y-99551816D01*
X157031876Y-99481977D01*
X157067956Y-99422144D01*
X157130657Y-99391316D01*
X157151802Y-99389500D01*
X158129772Y-99389500D01*
X158196811Y-99409185D01*
X158217453Y-99425819D01*
X159707008Y-100915374D01*
X159707018Y-100915385D01*
X159711348Y-100919715D01*
X159711349Y-100919716D01*
X159823153Y-101031520D01*
X159909964Y-101081639D01*
X159909966Y-101081641D01*
X159960082Y-101110576D01*
X159960084Y-101110577D01*
X160112811Y-101151500D01*
X160112812Y-101151500D01*
X162787331Y-101151500D01*
X162787347Y-101151501D01*
X162794943Y-101151501D01*
X162953054Y-101151501D01*
X162953057Y-101151501D01*
X163105785Y-101110577D01*
X163155904Y-101081639D01*
X163242716Y-101031520D01*
X163354520Y-100919716D01*
X163354520Y-100919714D01*
X163364728Y-100909507D01*
X163364730Y-100909504D01*
X163705709Y-100568524D01*
X163767028Y-100535042D01*
X163836719Y-100540026D01*
X163892653Y-100581897D01*
X163911771Y-100619317D01*
X163956981Y-100764396D01*
X164044927Y-100909877D01*
X164165122Y-101030072D01*
X164310604Y-101118019D01*
X164310603Y-101118019D01*
X164472894Y-101168590D01*
X164472893Y-101168590D01*
X164543427Y-101174999D01*
X164949999Y-101174999D01*
X165450000Y-101174999D01*
X165856581Y-101174999D01*
X165927102Y-101168591D01*
X165927107Y-101168590D01*
X166089396Y-101118018D01*
X166234877Y-101030072D01*
X166355072Y-100909877D01*
X166443019Y-100764395D01*
X166493590Y-100602106D01*
X166500000Y-100531572D01*
X166500000Y-100525000D01*
X165450000Y-100525000D01*
X165450000Y-101174999D01*
X164949999Y-101174999D01*
X164950000Y-101174998D01*
X164950000Y-100399000D01*
X164969685Y-100331961D01*
X165022489Y-100286206D01*
X165074000Y-100275000D01*
X165200000Y-100275000D01*
X165200000Y-100149000D01*
X165219685Y-100081961D01*
X165272489Y-100036206D01*
X165324000Y-100025000D01*
X166499999Y-100025000D01*
X166499999Y-100018417D01*
X166493591Y-99947897D01*
X166493590Y-99947892D01*
X166443018Y-99785603D01*
X166400116Y-99714633D01*
X166382280Y-99647078D01*
X166400115Y-99586335D01*
X166443478Y-99514606D01*
X166494086Y-99352196D01*
X166500500Y-99281616D01*
X166500500Y-98768384D01*
X166494086Y-98697804D01*
X166443478Y-98535394D01*
X166400408Y-98464149D01*
X166382573Y-98396595D01*
X166400409Y-98335850D01*
X166416955Y-98308480D01*
X166443478Y-98264606D01*
X166494086Y-98102196D01*
X166500500Y-98031616D01*
X166500500Y-97518384D01*
X166494086Y-97447804D01*
X166443478Y-97285394D01*
X166400408Y-97214149D01*
X166382573Y-97146595D01*
X166400409Y-97085850D01*
X166443478Y-97014606D01*
X166494086Y-96852196D01*
X166500500Y-96781616D01*
X166500500Y-96268384D01*
X166494086Y-96197804D01*
X166443478Y-96035394D01*
X166355472Y-95889815D01*
X166355470Y-95889813D01*
X166355469Y-95889811D01*
X166235188Y-95769530D01*
X166089606Y-95681522D01*
X165927196Y-95630914D01*
X165927194Y-95630913D01*
X165927192Y-95630913D01*
X165877778Y-95626423D01*
X165856616Y-95624500D01*
X165856613Y-95624500D01*
X165341519Y-95624500D01*
X165274480Y-95604815D01*
X165253838Y-95588181D01*
X164721546Y-95055888D01*
X164721545Y-95055887D01*
X164606807Y-94979222D01*
X164479332Y-94926421D01*
X164479322Y-94926418D01*
X164343996Y-94899500D01*
X164343994Y-94899500D01*
X164343993Y-94899500D01*
X152391007Y-94899500D01*
X152391003Y-94899500D01*
X152293760Y-94918843D01*
X152293758Y-94918843D01*
X152282591Y-94921065D01*
X152255671Y-94926420D01*
X152202866Y-94948292D01*
X152128189Y-94979225D01*
X152128188Y-94979226D01*
X152107199Y-94993249D01*
X152107192Y-94993253D01*
X152013457Y-95055886D01*
X152013453Y-95055889D01*
X151029850Y-96039492D01*
X150968527Y-96072977D01*
X150922772Y-96074284D01*
X150766287Y-96049500D01*
X150553713Y-96049500D01*
X150505042Y-96057208D01*
X150343760Y-96082753D01*
X150141585Y-96148444D01*
X149952179Y-96244951D01*
X149780213Y-96369890D01*
X149629890Y-96520213D01*
X149504951Y-96692179D01*
X149408444Y-96881585D01*
X149342753Y-97083760D01*
X149309500Y-97293713D01*
X147510717Y-97293713D01*
X147422743Y-97205739D01*
X147422736Y-97205733D01*
X147230293Y-97058067D01*
X147230292Y-97058066D01*
X147230289Y-97058064D01*
X147035672Y-96945702D01*
X147020214Y-96936777D01*
X147020205Y-96936773D01*
X146796104Y-96843947D01*
X146561785Y-96781161D01*
X146321289Y-96749500D01*
X146321288Y-96749500D01*
X146078712Y-96749500D01*
X146078711Y-96749500D01*
X145838214Y-96781161D01*
X145603895Y-96843947D01*
X145379794Y-96936773D01*
X145379785Y-96936777D01*
X145249811Y-97011818D01*
X145175533Y-97054703D01*
X145169706Y-97058067D01*
X144977263Y-97205733D01*
X144977256Y-97205739D01*
X144805739Y-97377256D01*
X144805733Y-97377263D01*
X144658067Y-97569706D01*
X144536777Y-97779785D01*
X144536773Y-97779794D01*
X144443947Y-98003895D01*
X144381161Y-98238214D01*
X144349500Y-98478711D01*
X143400500Y-98478711D01*
X143400500Y-93424500D01*
X143420185Y-93357461D01*
X143472989Y-93311706D01*
X143524500Y-93300500D01*
X165975500Y-93300500D01*
X166042539Y-93320185D01*
G37*
%TD.AperFunction*%
%TD*%
M02*
