M48
; DRILL file {KiCad 8.0.0} date 2024-05-31T13:58:24-0500
; FORMAT={-:-/ absolute / inch / decimal}
; #@! TF.CreationDate,2024-05-31T13:58:24-05:00
; #@! TF.GenerationSoftware,Kicad,Pcbnew,8.0.0
; #@! TF.FileFunction,MixedPlating,1,2
FMAT,2
INCH
; #@! TA.AperFunction,Plated,PTH,ViaDrill
T1C0.0118
; #@! TA.AperFunction,Plated,PTH,ComponentDrill
T2C0.0236
; #@! TA.AperFunction,Plated,PTH,ComponentDrill
T3C0.0394
; #@! TA.AperFunction,NonPlated,NPTH,ComponentDrill
T4C0.0256
; #@! TA.AperFunction,NonPlated,NPTH,ComponentDrill
T5C0.0354
; #@! TA.AperFunction,NonPlated,NPTH,ComponentDrill
T6C0.0866
; #@! TA.AperFunction,NonPlated,NPTH,ComponentDrill
T7C0.1358
%
G90
G05
T1
X4.6417Y-5.1929
X4.6732Y-5.0197
X4.8701Y-5.7087
X4.9961Y-5.8425
X5.0276Y-5.0709
X5.0315Y-5.6142
X5.0413Y-5.2268
X5.0413Y-5.2977
X5.0591Y-4.9252
X5.1102Y-4.9331
X5.1102Y-4.9843
X5.1417Y-5.6969
X5.252Y-4.7717
X5.2756Y-4.8031
X5.2815Y-5.8543
X5.2835Y-5.7165
X5.2913Y-5.2953
X5.3622Y-5.5
X5.3858Y-5.5669
X5.3858Y-5.5984
X5.4055Y-5.1024
X5.4094Y-5.374
X5.4252Y-5.8268
X5.4409Y-5.2205
X5.4409Y-5.7205
X5.4843Y-5.8346
X5.5866Y-5.1929
X5.5866Y-5.4252
X5.5984Y-5.6535
X5.7047Y-5.4685
X5.7165Y-5.3622
X5.7165Y-5.4055
X5.7677Y-5.0118
X5.7677Y-5.3031
X5.7677Y-5.3346
X5.7953Y-5.563
X5.8425Y-5.937
X5.8661Y-5.6142
X5.8858Y-5.4606
X5.946Y-5.0057
X5.9488Y-5.5551
X6.0276Y-5.4961
X6.0433Y-4.9213
X6.0866Y-5.5197
X6.122Y-6.122
X6.143Y-4.9454
X6.1895Y-5.0048
X6.1969Y-5.4291
X6.2205Y-5.5394
X6.2402Y-5.4252
X6.2874Y-5.2402
X6.2874Y-5.3031
X6.2874Y-5.3346
X6.2913Y-5.2717
X6.3543Y-5.6575
X6.4488Y-5.5512
X6.4528Y-4.9803
X6.5354Y-5.9331
X6.5394Y-5.7953
X6.5945Y-5.7205
X6.6496Y-5.563
X6.6988Y-5.4902
X6.7244Y-5.9331
X6.7283Y-5.8268
X6.7362Y-5.6772
X6.7598Y-6.0709
X6.815Y-4.7953
X6.8583Y-4.9921
X6.874Y-5.1142
X6.8858Y-5.0276
X6.8976Y-4.8937
X6.9162Y-5.5807
X6.9291Y-4.9803
X6.9291Y-5.063
X6.937Y-5.3661
X6.937Y-5.4921
X6.9409Y-4.9409
X6.9724Y-4.7913
X6.9764Y-4.9055
X7.0354Y-4.7976
X7.0433Y-4.8976
X7.0551Y-5.1614
X7.0591Y-5.4843
X7.0709Y-5.0276
X7.0827Y-5.063
X7.0906Y-5.1378
X7.0984Y-5.0984
X7.1063Y-5.4764
X7.1147Y-4.7841
X7.1535Y-4.8189
X7.1654Y-5.0984
X7.1732Y-4.8661
X7.2244Y-5.0984
X7.2362Y-4.8701
X7.2638Y-5.0866
X7.2835Y-4.9055
X7.3031Y-5.0394
X7.3071Y-4.9567
X7.3622Y-5.3583
X7.4022Y-5.1923
T3
X4.622Y-5.3827
X4.622Y-5.4827
X4.622Y-5.5827
X4.622Y-5.6827
X4.622Y-5.7827
X4.622Y-5.8827
X4.622Y-5.9827
X4.7953Y-6.2283
X4.8953Y-6.2283
X4.9488Y-4.7559
X4.9953Y-6.2283
X5.0953Y-6.2283
X5.2835Y-6.2307
X5.3835Y-6.2307
X5.4835Y-6.2307
X5.5835Y-6.2307
X6.4803Y-6.2362
X6.5803Y-6.2362
X6.6803Y-6.2362
X6.7362Y-4.7953
X6.7803Y-6.2362
T4
X4.684Y-4.9805
X4.684Y-5.2081
X7.3588Y-5.1657
X7.3588Y-5.3933
T5
X7.0945Y-4.6614
X7.2126Y-4.6614
T6
X4.5472Y-4.689
X4.5551Y-6.2047
X7.4606Y-4.689
X7.4685Y-6.1969
T7
X4.7913Y-5.3937
X6.9646Y-6.0236
T2
G00X4.556Y-4.9242
M15
G01X4.5245Y-4.9242
M16
G05
G00X4.556Y-5.2644
M15
G01X4.5245Y-5.2644
M16
G05
G00X4.7253Y-4.9242
M15
G01X4.682Y-4.9242
M16
G05
G00X4.7253Y-5.2644
M15
G01X4.682Y-5.2644
M16
G05
G00X7.3174Y-5.1094
M15
G01X7.3607Y-5.1094
M16
G05
G00X7.3174Y-5.4496
M15
G01X7.3607Y-5.4496
M16
G05
G00X7.4867Y-5.1094
M15
G01X7.5182Y-5.1094
M16
G05
G00X7.4867Y-5.4496
M15
G01X7.5182Y-5.4496
M16
G05
M30
