%TF.GenerationSoftware,KiCad,Pcbnew,8.0.0*%
%TF.CreationDate,2024-05-31T14:38:23-05:00*%
%TF.ProjectId,CyberTastic,43796265-7254-4617-9374-69632e6b6963,rev?*%
%TF.SameCoordinates,Original*%
%TF.FileFunction,Legend,Top*%
%TF.FilePolarity,Positive*%
%FSLAX46Y46*%
G04 Gerber Fmt 4.6, Leading zero omitted, Abs format (unit mm)*
G04 Created by KiCad (PCBNEW 8.0.0) date 2024-05-31 14:38:23*
%MOMM*%
%LPD*%
G01*
G04 APERTURE LIST*
%ADD10C,0.150000*%
%ADD11C,0.000000*%
%ADD12C,0.120000*%
%ADD13C,0.127000*%
G04 APERTURE END LIST*
D10*
X180120833Y-143304819D02*
X179787500Y-142828628D01*
X179549405Y-143304819D02*
X179549405Y-142304819D01*
X179549405Y-142304819D02*
X179930357Y-142304819D01*
X179930357Y-142304819D02*
X180025595Y-142352438D01*
X180025595Y-142352438D02*
X180073214Y-142400057D01*
X180073214Y-142400057D02*
X180120833Y-142495295D01*
X180120833Y-142495295D02*
X180120833Y-142638152D01*
X180120833Y-142638152D02*
X180073214Y-142733390D01*
X180073214Y-142733390D02*
X180025595Y-142781009D01*
X180025595Y-142781009D02*
X179930357Y-142828628D01*
X179930357Y-142828628D02*
X179549405Y-142828628D01*
X180977976Y-142638152D02*
X180977976Y-143304819D01*
X180739881Y-142257200D02*
X180501786Y-142971485D01*
X180501786Y-142971485D02*
X181120833Y-142971485D01*
X186054819Y-146883094D02*
X185054819Y-146883094D01*
X185054819Y-146883094D02*
X185054819Y-146644999D01*
X185054819Y-146644999D02*
X185102438Y-146502142D01*
X185102438Y-146502142D02*
X185197676Y-146406904D01*
X185197676Y-146406904D02*
X185292914Y-146359285D01*
X185292914Y-146359285D02*
X185483390Y-146311666D01*
X185483390Y-146311666D02*
X185626247Y-146311666D01*
X185626247Y-146311666D02*
X185816723Y-146359285D01*
X185816723Y-146359285D02*
X185911961Y-146406904D01*
X185911961Y-146406904D02*
X186007200Y-146502142D01*
X186007200Y-146502142D02*
X186054819Y-146644999D01*
X186054819Y-146644999D02*
X186054819Y-146883094D01*
X185054819Y-145406904D02*
X185054819Y-145883094D01*
X185054819Y-145883094D02*
X185531009Y-145930713D01*
X185531009Y-145930713D02*
X185483390Y-145883094D01*
X185483390Y-145883094D02*
X185435771Y-145787856D01*
X185435771Y-145787856D02*
X185435771Y-145549761D01*
X185435771Y-145549761D02*
X185483390Y-145454523D01*
X185483390Y-145454523D02*
X185531009Y-145406904D01*
X185531009Y-145406904D02*
X185626247Y-145359285D01*
X185626247Y-145359285D02*
X185864342Y-145359285D01*
X185864342Y-145359285D02*
X185959580Y-145406904D01*
X185959580Y-145406904D02*
X186007200Y-145454523D01*
X186007200Y-145454523D02*
X186054819Y-145549761D01*
X186054819Y-145549761D02*
X186054819Y-145787856D01*
X186054819Y-145787856D02*
X186007200Y-145883094D01*
X186007200Y-145883094D02*
X185959580Y-145930713D01*
X179757142Y-149259580D02*
X179709523Y-149307200D01*
X179709523Y-149307200D02*
X179566666Y-149354819D01*
X179566666Y-149354819D02*
X179471428Y-149354819D01*
X179471428Y-149354819D02*
X179328571Y-149307200D01*
X179328571Y-149307200D02*
X179233333Y-149211961D01*
X179233333Y-149211961D02*
X179185714Y-149116723D01*
X179185714Y-149116723D02*
X179138095Y-148926247D01*
X179138095Y-148926247D02*
X179138095Y-148783390D01*
X179138095Y-148783390D02*
X179185714Y-148592914D01*
X179185714Y-148592914D02*
X179233333Y-148497676D01*
X179233333Y-148497676D02*
X179328571Y-148402438D01*
X179328571Y-148402438D02*
X179471428Y-148354819D01*
X179471428Y-148354819D02*
X179566666Y-148354819D01*
X179566666Y-148354819D02*
X179709523Y-148402438D01*
X179709523Y-148402438D02*
X179757142Y-148450057D01*
X180709523Y-149354819D02*
X180138095Y-149354819D01*
X180423809Y-149354819D02*
X180423809Y-148354819D01*
X180423809Y-148354819D02*
X180328571Y-148497676D01*
X180328571Y-148497676D02*
X180233333Y-148592914D01*
X180233333Y-148592914D02*
X180138095Y-148640533D01*
X181566666Y-148688152D02*
X181566666Y-149354819D01*
X181328571Y-148307200D02*
X181090476Y-149021485D01*
X181090476Y-149021485D02*
X181709523Y-149021485D01*
X177871214Y-145343937D02*
X178938865Y-145343937D01*
X178405039Y-145877762D02*
X178405039Y-144810111D01*
X183966667Y-122337200D02*
X184109524Y-122384819D01*
X184109524Y-122384819D02*
X184347619Y-122384819D01*
X184347619Y-122384819D02*
X184442857Y-122337200D01*
X184442857Y-122337200D02*
X184490476Y-122289580D01*
X184490476Y-122289580D02*
X184538095Y-122194342D01*
X184538095Y-122194342D02*
X184538095Y-122099104D01*
X184538095Y-122099104D02*
X184490476Y-122003866D01*
X184490476Y-122003866D02*
X184442857Y-121956247D01*
X184442857Y-121956247D02*
X184347619Y-121908628D01*
X184347619Y-121908628D02*
X184157143Y-121861009D01*
X184157143Y-121861009D02*
X184061905Y-121813390D01*
X184061905Y-121813390D02*
X184014286Y-121765771D01*
X184014286Y-121765771D02*
X183966667Y-121670533D01*
X183966667Y-121670533D02*
X183966667Y-121575295D01*
X183966667Y-121575295D02*
X184014286Y-121480057D01*
X184014286Y-121480057D02*
X184061905Y-121432438D01*
X184061905Y-121432438D02*
X184157143Y-121384819D01*
X184157143Y-121384819D02*
X184395238Y-121384819D01*
X184395238Y-121384819D02*
X184538095Y-121432438D01*
X184871429Y-121384819D02*
X185109524Y-122384819D01*
X185109524Y-122384819D02*
X185300000Y-121670533D01*
X185300000Y-121670533D02*
X185490476Y-122384819D01*
X185490476Y-122384819D02*
X185728572Y-121384819D01*
X186014286Y-121384819D02*
X186633333Y-121384819D01*
X186633333Y-121384819D02*
X186300000Y-121765771D01*
X186300000Y-121765771D02*
X186442857Y-121765771D01*
X186442857Y-121765771D02*
X186538095Y-121813390D01*
X186538095Y-121813390D02*
X186585714Y-121861009D01*
X186585714Y-121861009D02*
X186633333Y-121956247D01*
X186633333Y-121956247D02*
X186633333Y-122194342D01*
X186633333Y-122194342D02*
X186585714Y-122289580D01*
X186585714Y-122289580D02*
X186538095Y-122337200D01*
X186538095Y-122337200D02*
X186442857Y-122384819D01*
X186442857Y-122384819D02*
X186157143Y-122384819D01*
X186157143Y-122384819D02*
X186061905Y-122337200D01*
X186061905Y-122337200D02*
X186014286Y-122289580D01*
X172433333Y-120054819D02*
X172100000Y-119578628D01*
X171861905Y-120054819D02*
X171861905Y-119054819D01*
X171861905Y-119054819D02*
X172242857Y-119054819D01*
X172242857Y-119054819D02*
X172338095Y-119102438D01*
X172338095Y-119102438D02*
X172385714Y-119150057D01*
X172385714Y-119150057D02*
X172433333Y-119245295D01*
X172433333Y-119245295D02*
X172433333Y-119388152D01*
X172433333Y-119388152D02*
X172385714Y-119483390D01*
X172385714Y-119483390D02*
X172338095Y-119531009D01*
X172338095Y-119531009D02*
X172242857Y-119578628D01*
X172242857Y-119578628D02*
X171861905Y-119578628D01*
X172766667Y-119054819D02*
X173385714Y-119054819D01*
X173385714Y-119054819D02*
X173052381Y-119435771D01*
X173052381Y-119435771D02*
X173195238Y-119435771D01*
X173195238Y-119435771D02*
X173290476Y-119483390D01*
X173290476Y-119483390D02*
X173338095Y-119531009D01*
X173338095Y-119531009D02*
X173385714Y-119626247D01*
X173385714Y-119626247D02*
X173385714Y-119864342D01*
X173385714Y-119864342D02*
X173338095Y-119959580D01*
X173338095Y-119959580D02*
X173290476Y-120007200D01*
X173290476Y-120007200D02*
X173195238Y-120054819D01*
X173195238Y-120054819D02*
X172909524Y-120054819D01*
X172909524Y-120054819D02*
X172814286Y-120007200D01*
X172814286Y-120007200D02*
X172766667Y-119959580D01*
X123333333Y-148054819D02*
X123000000Y-147578628D01*
X122761905Y-148054819D02*
X122761905Y-147054819D01*
X122761905Y-147054819D02*
X123142857Y-147054819D01*
X123142857Y-147054819D02*
X123238095Y-147102438D01*
X123238095Y-147102438D02*
X123285714Y-147150057D01*
X123285714Y-147150057D02*
X123333333Y-147245295D01*
X123333333Y-147245295D02*
X123333333Y-147388152D01*
X123333333Y-147388152D02*
X123285714Y-147483390D01*
X123285714Y-147483390D02*
X123238095Y-147531009D01*
X123238095Y-147531009D02*
X123142857Y-147578628D01*
X123142857Y-147578628D02*
X122761905Y-147578628D01*
X123714286Y-147150057D02*
X123761905Y-147102438D01*
X123761905Y-147102438D02*
X123857143Y-147054819D01*
X123857143Y-147054819D02*
X124095238Y-147054819D01*
X124095238Y-147054819D02*
X124190476Y-147102438D01*
X124190476Y-147102438D02*
X124238095Y-147150057D01*
X124238095Y-147150057D02*
X124285714Y-147245295D01*
X124285714Y-147245295D02*
X124285714Y-147340533D01*
X124285714Y-147340533D02*
X124238095Y-147483390D01*
X124238095Y-147483390D02*
X123666667Y-148054819D01*
X123666667Y-148054819D02*
X124285714Y-148054819D01*
X181054819Y-128266666D02*
X181054819Y-128742856D01*
X181054819Y-128742856D02*
X180054819Y-128742856D01*
X181054819Y-127409523D02*
X181054819Y-127980951D01*
X181054819Y-127695237D02*
X180054819Y-127695237D01*
X180054819Y-127695237D02*
X180197676Y-127790475D01*
X180197676Y-127790475D02*
X180292914Y-127885713D01*
X180292914Y-127885713D02*
X180340533Y-127980951D01*
X171657142Y-124059580D02*
X171609523Y-124107200D01*
X171609523Y-124107200D02*
X171466666Y-124154819D01*
X171466666Y-124154819D02*
X171371428Y-124154819D01*
X171371428Y-124154819D02*
X171228571Y-124107200D01*
X171228571Y-124107200D02*
X171133333Y-124011961D01*
X171133333Y-124011961D02*
X171085714Y-123916723D01*
X171085714Y-123916723D02*
X171038095Y-123726247D01*
X171038095Y-123726247D02*
X171038095Y-123583390D01*
X171038095Y-123583390D02*
X171085714Y-123392914D01*
X171085714Y-123392914D02*
X171133333Y-123297676D01*
X171133333Y-123297676D02*
X171228571Y-123202438D01*
X171228571Y-123202438D02*
X171371428Y-123154819D01*
X171371428Y-123154819D02*
X171466666Y-123154819D01*
X171466666Y-123154819D02*
X171609523Y-123202438D01*
X171609523Y-123202438D02*
X171657142Y-123250057D01*
X172609523Y-124154819D02*
X172038095Y-124154819D01*
X172323809Y-124154819D02*
X172323809Y-123154819D01*
X172323809Y-123154819D02*
X172228571Y-123297676D01*
X172228571Y-123297676D02*
X172133333Y-123392914D01*
X172133333Y-123392914D02*
X172038095Y-123440533D01*
X172942857Y-123154819D02*
X173561904Y-123154819D01*
X173561904Y-123154819D02*
X173228571Y-123535771D01*
X173228571Y-123535771D02*
X173371428Y-123535771D01*
X173371428Y-123535771D02*
X173466666Y-123583390D01*
X173466666Y-123583390D02*
X173514285Y-123631009D01*
X173514285Y-123631009D02*
X173561904Y-123726247D01*
X173561904Y-123726247D02*
X173561904Y-123964342D01*
X173561904Y-123964342D02*
X173514285Y-124059580D01*
X173514285Y-124059580D02*
X173466666Y-124107200D01*
X173466666Y-124107200D02*
X173371428Y-124154819D01*
X173371428Y-124154819D02*
X173085714Y-124154819D01*
X173085714Y-124154819D02*
X172990476Y-124107200D01*
X172990476Y-124107200D02*
X172942857Y-124059580D01*
X122857142Y-151279580D02*
X122809523Y-151327200D01*
X122809523Y-151327200D02*
X122666666Y-151374819D01*
X122666666Y-151374819D02*
X122571428Y-151374819D01*
X122571428Y-151374819D02*
X122428571Y-151327200D01*
X122428571Y-151327200D02*
X122333333Y-151231961D01*
X122333333Y-151231961D02*
X122285714Y-151136723D01*
X122285714Y-151136723D02*
X122238095Y-150946247D01*
X122238095Y-150946247D02*
X122238095Y-150803390D01*
X122238095Y-150803390D02*
X122285714Y-150612914D01*
X122285714Y-150612914D02*
X122333333Y-150517676D01*
X122333333Y-150517676D02*
X122428571Y-150422438D01*
X122428571Y-150422438D02*
X122571428Y-150374819D01*
X122571428Y-150374819D02*
X122666666Y-150374819D01*
X122666666Y-150374819D02*
X122809523Y-150422438D01*
X122809523Y-150422438D02*
X122857142Y-150470057D01*
X123809523Y-151374819D02*
X123238095Y-151374819D01*
X123523809Y-151374819D02*
X123523809Y-150374819D01*
X123523809Y-150374819D02*
X123428571Y-150517676D01*
X123428571Y-150517676D02*
X123333333Y-150612914D01*
X123333333Y-150612914D02*
X123238095Y-150660533D01*
X124190476Y-150470057D02*
X124238095Y-150422438D01*
X124238095Y-150422438D02*
X124333333Y-150374819D01*
X124333333Y-150374819D02*
X124571428Y-150374819D01*
X124571428Y-150374819D02*
X124666666Y-150422438D01*
X124666666Y-150422438D02*
X124714285Y-150470057D01*
X124714285Y-150470057D02*
X124761904Y-150565295D01*
X124761904Y-150565295D02*
X124761904Y-150660533D01*
X124761904Y-150660533D02*
X124714285Y-150803390D01*
X124714285Y-150803390D02*
X124142857Y-151374819D01*
X124142857Y-151374819D02*
X124761904Y-151374819D01*
X150463095Y-136704819D02*
X150463095Y-137514342D01*
X150463095Y-137514342D02*
X150510714Y-137609580D01*
X150510714Y-137609580D02*
X150558333Y-137657200D01*
X150558333Y-137657200D02*
X150653571Y-137704819D01*
X150653571Y-137704819D02*
X150844047Y-137704819D01*
X150844047Y-137704819D02*
X150939285Y-137657200D01*
X150939285Y-137657200D02*
X150986904Y-137609580D01*
X150986904Y-137609580D02*
X151034523Y-137514342D01*
X151034523Y-137514342D02*
X151034523Y-136704819D01*
X151939285Y-136704819D02*
X151748809Y-136704819D01*
X151748809Y-136704819D02*
X151653571Y-136752438D01*
X151653571Y-136752438D02*
X151605952Y-136800057D01*
X151605952Y-136800057D02*
X151510714Y-136942914D01*
X151510714Y-136942914D02*
X151463095Y-137133390D01*
X151463095Y-137133390D02*
X151463095Y-137514342D01*
X151463095Y-137514342D02*
X151510714Y-137609580D01*
X151510714Y-137609580D02*
X151558333Y-137657200D01*
X151558333Y-137657200D02*
X151653571Y-137704819D01*
X151653571Y-137704819D02*
X151844047Y-137704819D01*
X151844047Y-137704819D02*
X151939285Y-137657200D01*
X151939285Y-137657200D02*
X151986904Y-137609580D01*
X151986904Y-137609580D02*
X152034523Y-137514342D01*
X152034523Y-137514342D02*
X152034523Y-137276247D01*
X152034523Y-137276247D02*
X151986904Y-137181009D01*
X151986904Y-137181009D02*
X151939285Y-137133390D01*
X151939285Y-137133390D02*
X151844047Y-137085771D01*
X151844047Y-137085771D02*
X151653571Y-137085771D01*
X151653571Y-137085771D02*
X151558333Y-137133390D01*
X151558333Y-137133390D02*
X151510714Y-137181009D01*
X151510714Y-137181009D02*
X151463095Y-137276247D01*
X165038095Y-122954819D02*
X165038095Y-123764342D01*
X165038095Y-123764342D02*
X165085714Y-123859580D01*
X165085714Y-123859580D02*
X165133333Y-123907200D01*
X165133333Y-123907200D02*
X165228571Y-123954819D01*
X165228571Y-123954819D02*
X165419047Y-123954819D01*
X165419047Y-123954819D02*
X165514285Y-123907200D01*
X165514285Y-123907200D02*
X165561904Y-123859580D01*
X165561904Y-123859580D02*
X165609523Y-123764342D01*
X165609523Y-123764342D02*
X165609523Y-122954819D01*
X166514285Y-123288152D02*
X166514285Y-123954819D01*
X166276190Y-122907200D02*
X166038095Y-123621485D01*
X166038095Y-123621485D02*
X166657142Y-123621485D01*
X152554819Y-125911904D02*
X153364342Y-125911904D01*
X153364342Y-125911904D02*
X153459580Y-125864285D01*
X153459580Y-125864285D02*
X153507200Y-125816666D01*
X153507200Y-125816666D02*
X153554819Y-125721428D01*
X153554819Y-125721428D02*
X153554819Y-125530952D01*
X153554819Y-125530952D02*
X153507200Y-125435714D01*
X153507200Y-125435714D02*
X153459580Y-125388095D01*
X153459580Y-125388095D02*
X153364342Y-125340476D01*
X153364342Y-125340476D02*
X152554819Y-125340476D01*
X152554819Y-124959523D02*
X152554819Y-124340476D01*
X152554819Y-124340476D02*
X152935771Y-124673809D01*
X152935771Y-124673809D02*
X152935771Y-124530952D01*
X152935771Y-124530952D02*
X152983390Y-124435714D01*
X152983390Y-124435714D02*
X153031009Y-124388095D01*
X153031009Y-124388095D02*
X153126247Y-124340476D01*
X153126247Y-124340476D02*
X153364342Y-124340476D01*
X153364342Y-124340476D02*
X153459580Y-124388095D01*
X153459580Y-124388095D02*
X153507200Y-124435714D01*
X153507200Y-124435714D02*
X153554819Y-124530952D01*
X153554819Y-124530952D02*
X153554819Y-124816666D01*
X153554819Y-124816666D02*
X153507200Y-124911904D01*
X153507200Y-124911904D02*
X153459580Y-124959523D01*
X141612319Y-126911904D02*
X142421842Y-126911904D01*
X142421842Y-126911904D02*
X142517080Y-126864285D01*
X142517080Y-126864285D02*
X142564700Y-126816666D01*
X142564700Y-126816666D02*
X142612319Y-126721428D01*
X142612319Y-126721428D02*
X142612319Y-126530952D01*
X142612319Y-126530952D02*
X142564700Y-126435714D01*
X142564700Y-126435714D02*
X142517080Y-126388095D01*
X142517080Y-126388095D02*
X142421842Y-126340476D01*
X142421842Y-126340476D02*
X141612319Y-126340476D01*
X141707557Y-125911904D02*
X141659938Y-125864285D01*
X141659938Y-125864285D02*
X141612319Y-125769047D01*
X141612319Y-125769047D02*
X141612319Y-125530952D01*
X141612319Y-125530952D02*
X141659938Y-125435714D01*
X141659938Y-125435714D02*
X141707557Y-125388095D01*
X141707557Y-125388095D02*
X141802795Y-125340476D01*
X141802795Y-125340476D02*
X141898033Y-125340476D01*
X141898033Y-125340476D02*
X142040890Y-125388095D01*
X142040890Y-125388095D02*
X142612319Y-125959523D01*
X142612319Y-125959523D02*
X142612319Y-125340476D01*
X139238095Y-147054819D02*
X139238095Y-147864342D01*
X139238095Y-147864342D02*
X139285714Y-147959580D01*
X139285714Y-147959580D02*
X139333333Y-148007200D01*
X139333333Y-148007200D02*
X139428571Y-148054819D01*
X139428571Y-148054819D02*
X139619047Y-148054819D01*
X139619047Y-148054819D02*
X139714285Y-148007200D01*
X139714285Y-148007200D02*
X139761904Y-147959580D01*
X139761904Y-147959580D02*
X139809523Y-147864342D01*
X139809523Y-147864342D02*
X139809523Y-147054819D01*
X140809523Y-148054819D02*
X140238095Y-148054819D01*
X140523809Y-148054819D02*
X140523809Y-147054819D01*
X140523809Y-147054819D02*
X140428571Y-147197676D01*
X140428571Y-147197676D02*
X140333333Y-147292914D01*
X140333333Y-147292914D02*
X140238095Y-147340533D01*
X127266667Y-154507200D02*
X127409524Y-154554819D01*
X127409524Y-154554819D02*
X127647619Y-154554819D01*
X127647619Y-154554819D02*
X127742857Y-154507200D01*
X127742857Y-154507200D02*
X127790476Y-154459580D01*
X127790476Y-154459580D02*
X127838095Y-154364342D01*
X127838095Y-154364342D02*
X127838095Y-154269104D01*
X127838095Y-154269104D02*
X127790476Y-154173866D01*
X127790476Y-154173866D02*
X127742857Y-154126247D01*
X127742857Y-154126247D02*
X127647619Y-154078628D01*
X127647619Y-154078628D02*
X127457143Y-154031009D01*
X127457143Y-154031009D02*
X127361905Y-153983390D01*
X127361905Y-153983390D02*
X127314286Y-153935771D01*
X127314286Y-153935771D02*
X127266667Y-153840533D01*
X127266667Y-153840533D02*
X127266667Y-153745295D01*
X127266667Y-153745295D02*
X127314286Y-153650057D01*
X127314286Y-153650057D02*
X127361905Y-153602438D01*
X127361905Y-153602438D02*
X127457143Y-153554819D01*
X127457143Y-153554819D02*
X127695238Y-153554819D01*
X127695238Y-153554819D02*
X127838095Y-153602438D01*
X128171429Y-153554819D02*
X128409524Y-154554819D01*
X128409524Y-154554819D02*
X128600000Y-153840533D01*
X128600000Y-153840533D02*
X128790476Y-154554819D01*
X128790476Y-154554819D02*
X129028572Y-153554819D01*
X129361905Y-153650057D02*
X129409524Y-153602438D01*
X129409524Y-153602438D02*
X129504762Y-153554819D01*
X129504762Y-153554819D02*
X129742857Y-153554819D01*
X129742857Y-153554819D02*
X129838095Y-153602438D01*
X129838095Y-153602438D02*
X129885714Y-153650057D01*
X129885714Y-153650057D02*
X129933333Y-153745295D01*
X129933333Y-153745295D02*
X129933333Y-153840533D01*
X129933333Y-153840533D02*
X129885714Y-153983390D01*
X129885714Y-153983390D02*
X129314286Y-154554819D01*
X129314286Y-154554819D02*
X129933333Y-154554819D01*
X136233332Y-153592800D02*
X136090475Y-153545180D01*
X136090475Y-153545180D02*
X135852380Y-153545180D01*
X135852380Y-153545180D02*
X135757142Y-153592800D01*
X135757142Y-153592800D02*
X135709523Y-153640419D01*
X135709523Y-153640419D02*
X135661904Y-153735657D01*
X135661904Y-153735657D02*
X135661904Y-153830895D01*
X135661904Y-153830895D02*
X135709523Y-153926133D01*
X135709523Y-153926133D02*
X135757142Y-153973752D01*
X135757142Y-153973752D02*
X135852380Y-154021371D01*
X135852380Y-154021371D02*
X136042856Y-154068990D01*
X136042856Y-154068990D02*
X136138094Y-154116609D01*
X136138094Y-154116609D02*
X136185713Y-154164228D01*
X136185713Y-154164228D02*
X136233332Y-154259466D01*
X136233332Y-154259466D02*
X136233332Y-154354704D01*
X136233332Y-154354704D02*
X136185713Y-154449942D01*
X136185713Y-154449942D02*
X136138094Y-154497561D01*
X136138094Y-154497561D02*
X136042856Y-154545180D01*
X136042856Y-154545180D02*
X135804761Y-154545180D01*
X135804761Y-154545180D02*
X135661904Y-154497561D01*
X135328570Y-154545180D02*
X135090475Y-153545180D01*
X135090475Y-153545180D02*
X134899999Y-154259466D01*
X134899999Y-154259466D02*
X134709523Y-153545180D01*
X134709523Y-153545180D02*
X134471428Y-154545180D01*
X133566666Y-153545180D02*
X134138094Y-153545180D01*
X133852380Y-153545180D02*
X133852380Y-154545180D01*
X133852380Y-154545180D02*
X133947618Y-154402323D01*
X133947618Y-154402323D02*
X134042856Y-154307085D01*
X134042856Y-154307085D02*
X134138094Y-154259466D01*
X151059523Y-143654819D02*
X150726190Y-143178628D01*
X150488095Y-143654819D02*
X150488095Y-142654819D01*
X150488095Y-142654819D02*
X150869047Y-142654819D01*
X150869047Y-142654819D02*
X150964285Y-142702438D01*
X150964285Y-142702438D02*
X151011904Y-142750057D01*
X151011904Y-142750057D02*
X151059523Y-142845295D01*
X151059523Y-142845295D02*
X151059523Y-142988152D01*
X151059523Y-142988152D02*
X151011904Y-143083390D01*
X151011904Y-143083390D02*
X150964285Y-143131009D01*
X150964285Y-143131009D02*
X150869047Y-143178628D01*
X150869047Y-143178628D02*
X150488095Y-143178628D01*
X151488095Y-143654819D02*
X151488095Y-142654819D01*
X151488095Y-142654819D02*
X152059523Y-143654819D01*
X152059523Y-143654819D02*
X152059523Y-142654819D01*
X152964285Y-142654819D02*
X152773809Y-142654819D01*
X152773809Y-142654819D02*
X152678571Y-142702438D01*
X152678571Y-142702438D02*
X152630952Y-142750057D01*
X152630952Y-142750057D02*
X152535714Y-142892914D01*
X152535714Y-142892914D02*
X152488095Y-143083390D01*
X152488095Y-143083390D02*
X152488095Y-143464342D01*
X152488095Y-143464342D02*
X152535714Y-143559580D01*
X152535714Y-143559580D02*
X152583333Y-143607200D01*
X152583333Y-143607200D02*
X152678571Y-143654819D01*
X152678571Y-143654819D02*
X152869047Y-143654819D01*
X152869047Y-143654819D02*
X152964285Y-143607200D01*
X152964285Y-143607200D02*
X153011904Y-143559580D01*
X153011904Y-143559580D02*
X153059523Y-143464342D01*
X153059523Y-143464342D02*
X153059523Y-143226247D01*
X153059523Y-143226247D02*
X153011904Y-143131009D01*
X153011904Y-143131009D02*
X152964285Y-143083390D01*
X152964285Y-143083390D02*
X152869047Y-143035771D01*
X152869047Y-143035771D02*
X152678571Y-143035771D01*
X152678571Y-143035771D02*
X152583333Y-143083390D01*
X152583333Y-143083390D02*
X152535714Y-143131009D01*
X152535714Y-143131009D02*
X152488095Y-143226247D01*
X156309523Y-139354819D02*
X155976190Y-138878628D01*
X155738095Y-139354819D02*
X155738095Y-138354819D01*
X155738095Y-138354819D02*
X156119047Y-138354819D01*
X156119047Y-138354819D02*
X156214285Y-138402438D01*
X156214285Y-138402438D02*
X156261904Y-138450057D01*
X156261904Y-138450057D02*
X156309523Y-138545295D01*
X156309523Y-138545295D02*
X156309523Y-138688152D01*
X156309523Y-138688152D02*
X156261904Y-138783390D01*
X156261904Y-138783390D02*
X156214285Y-138831009D01*
X156214285Y-138831009D02*
X156119047Y-138878628D01*
X156119047Y-138878628D02*
X155738095Y-138878628D01*
X156738095Y-139354819D02*
X156738095Y-138354819D01*
X156738095Y-138354819D02*
X157309523Y-139354819D01*
X157309523Y-139354819D02*
X157309523Y-138354819D01*
X158261904Y-138354819D02*
X157785714Y-138354819D01*
X157785714Y-138354819D02*
X157738095Y-138831009D01*
X157738095Y-138831009D02*
X157785714Y-138783390D01*
X157785714Y-138783390D02*
X157880952Y-138735771D01*
X157880952Y-138735771D02*
X158119047Y-138735771D01*
X158119047Y-138735771D02*
X158214285Y-138783390D01*
X158214285Y-138783390D02*
X158261904Y-138831009D01*
X158261904Y-138831009D02*
X158309523Y-138926247D01*
X158309523Y-138926247D02*
X158309523Y-139164342D01*
X158309523Y-139164342D02*
X158261904Y-139259580D01*
X158261904Y-139259580D02*
X158214285Y-139307200D01*
X158214285Y-139307200D02*
X158119047Y-139354819D01*
X158119047Y-139354819D02*
X157880952Y-139354819D01*
X157880952Y-139354819D02*
X157785714Y-139307200D01*
X157785714Y-139307200D02*
X157738095Y-139259580D01*
X186054819Y-143040476D02*
X185578628Y-143373809D01*
X186054819Y-143611904D02*
X185054819Y-143611904D01*
X185054819Y-143611904D02*
X185054819Y-143230952D01*
X185054819Y-143230952D02*
X185102438Y-143135714D01*
X185102438Y-143135714D02*
X185150057Y-143088095D01*
X185150057Y-143088095D02*
X185245295Y-143040476D01*
X185245295Y-143040476D02*
X185388152Y-143040476D01*
X185388152Y-143040476D02*
X185483390Y-143088095D01*
X185483390Y-143088095D02*
X185531009Y-143135714D01*
X185531009Y-143135714D02*
X185578628Y-143230952D01*
X185578628Y-143230952D02*
X185578628Y-143611904D01*
X186054819Y-142611904D02*
X185054819Y-142611904D01*
X185054819Y-142611904D02*
X186054819Y-142040476D01*
X186054819Y-142040476D02*
X185054819Y-142040476D01*
X185388152Y-141135714D02*
X186054819Y-141135714D01*
X185007200Y-141373809D02*
X185721485Y-141611904D01*
X185721485Y-141611904D02*
X185721485Y-140992857D01*
X160909523Y-137554819D02*
X160576190Y-137078628D01*
X160338095Y-137554819D02*
X160338095Y-136554819D01*
X160338095Y-136554819D02*
X160719047Y-136554819D01*
X160719047Y-136554819D02*
X160814285Y-136602438D01*
X160814285Y-136602438D02*
X160861904Y-136650057D01*
X160861904Y-136650057D02*
X160909523Y-136745295D01*
X160909523Y-136745295D02*
X160909523Y-136888152D01*
X160909523Y-136888152D02*
X160861904Y-136983390D01*
X160861904Y-136983390D02*
X160814285Y-137031009D01*
X160814285Y-137031009D02*
X160719047Y-137078628D01*
X160719047Y-137078628D02*
X160338095Y-137078628D01*
X161338095Y-137554819D02*
X161338095Y-136554819D01*
X161338095Y-136554819D02*
X161909523Y-137554819D01*
X161909523Y-137554819D02*
X161909523Y-136554819D01*
X162290476Y-136554819D02*
X162909523Y-136554819D01*
X162909523Y-136554819D02*
X162576190Y-136935771D01*
X162576190Y-136935771D02*
X162719047Y-136935771D01*
X162719047Y-136935771D02*
X162814285Y-136983390D01*
X162814285Y-136983390D02*
X162861904Y-137031009D01*
X162861904Y-137031009D02*
X162909523Y-137126247D01*
X162909523Y-137126247D02*
X162909523Y-137364342D01*
X162909523Y-137364342D02*
X162861904Y-137459580D01*
X162861904Y-137459580D02*
X162814285Y-137507200D01*
X162814285Y-137507200D02*
X162719047Y-137554819D01*
X162719047Y-137554819D02*
X162433333Y-137554819D01*
X162433333Y-137554819D02*
X162338095Y-137507200D01*
X162338095Y-137507200D02*
X162290476Y-137459580D01*
X180654819Y-132690476D02*
X180178628Y-133023809D01*
X180654819Y-133261904D02*
X179654819Y-133261904D01*
X179654819Y-133261904D02*
X179654819Y-132880952D01*
X179654819Y-132880952D02*
X179702438Y-132785714D01*
X179702438Y-132785714D02*
X179750057Y-132738095D01*
X179750057Y-132738095D02*
X179845295Y-132690476D01*
X179845295Y-132690476D02*
X179988152Y-132690476D01*
X179988152Y-132690476D02*
X180083390Y-132738095D01*
X180083390Y-132738095D02*
X180131009Y-132785714D01*
X180131009Y-132785714D02*
X180178628Y-132880952D01*
X180178628Y-132880952D02*
X180178628Y-133261904D01*
X180654819Y-132261904D02*
X179654819Y-132261904D01*
X179654819Y-132261904D02*
X180654819Y-131690476D01*
X180654819Y-131690476D02*
X179654819Y-131690476D01*
X179750057Y-131261904D02*
X179702438Y-131214285D01*
X179702438Y-131214285D02*
X179654819Y-131119047D01*
X179654819Y-131119047D02*
X179654819Y-130880952D01*
X179654819Y-130880952D02*
X179702438Y-130785714D01*
X179702438Y-130785714D02*
X179750057Y-130738095D01*
X179750057Y-130738095D02*
X179845295Y-130690476D01*
X179845295Y-130690476D02*
X179940533Y-130690476D01*
X179940533Y-130690476D02*
X180083390Y-130738095D01*
X180083390Y-130738095D02*
X180654819Y-131309523D01*
X180654819Y-131309523D02*
X180654819Y-130690476D01*
X124154819Y-122340476D02*
X123678628Y-122673809D01*
X124154819Y-122911904D02*
X123154819Y-122911904D01*
X123154819Y-122911904D02*
X123154819Y-122530952D01*
X123154819Y-122530952D02*
X123202438Y-122435714D01*
X123202438Y-122435714D02*
X123250057Y-122388095D01*
X123250057Y-122388095D02*
X123345295Y-122340476D01*
X123345295Y-122340476D02*
X123488152Y-122340476D01*
X123488152Y-122340476D02*
X123583390Y-122388095D01*
X123583390Y-122388095D02*
X123631009Y-122435714D01*
X123631009Y-122435714D02*
X123678628Y-122530952D01*
X123678628Y-122530952D02*
X123678628Y-122911904D01*
X124154819Y-121911904D02*
X123154819Y-121911904D01*
X123154819Y-121911904D02*
X124154819Y-121340476D01*
X124154819Y-121340476D02*
X123154819Y-121340476D01*
X124154819Y-120340476D02*
X124154819Y-120911904D01*
X124154819Y-120626190D02*
X123154819Y-120626190D01*
X123154819Y-120626190D02*
X123297676Y-120721428D01*
X123297676Y-120721428D02*
X123392914Y-120816666D01*
X123392914Y-120816666D02*
X123440533Y-120911904D01*
X144728333Y-120604819D02*
X144395000Y-120128628D01*
X144156905Y-120604819D02*
X144156905Y-119604819D01*
X144156905Y-119604819D02*
X144537857Y-119604819D01*
X144537857Y-119604819D02*
X144633095Y-119652438D01*
X144633095Y-119652438D02*
X144680714Y-119700057D01*
X144680714Y-119700057D02*
X144728333Y-119795295D01*
X144728333Y-119795295D02*
X144728333Y-119938152D01*
X144728333Y-119938152D02*
X144680714Y-120033390D01*
X144680714Y-120033390D02*
X144633095Y-120081009D01*
X144633095Y-120081009D02*
X144537857Y-120128628D01*
X144537857Y-120128628D02*
X144156905Y-120128628D01*
X145680714Y-120604819D02*
X145109286Y-120604819D01*
X145395000Y-120604819D02*
X145395000Y-119604819D01*
X145395000Y-119604819D02*
X145299762Y-119747676D01*
X145299762Y-119747676D02*
X145204524Y-119842914D01*
X145204524Y-119842914D02*
X145109286Y-119890533D01*
X150449761Y-124287557D02*
X150354523Y-124239938D01*
X150354523Y-124239938D02*
X150259285Y-124144700D01*
X150259285Y-124144700D02*
X150116428Y-124001842D01*
X150116428Y-124001842D02*
X150021190Y-123954223D01*
X150021190Y-123954223D02*
X149925952Y-123954223D01*
X149973571Y-124192319D02*
X149878333Y-124144700D01*
X149878333Y-124144700D02*
X149783095Y-124049461D01*
X149783095Y-124049461D02*
X149735476Y-123858985D01*
X149735476Y-123858985D02*
X149735476Y-123525652D01*
X149735476Y-123525652D02*
X149783095Y-123335176D01*
X149783095Y-123335176D02*
X149878333Y-123239938D01*
X149878333Y-123239938D02*
X149973571Y-123192319D01*
X149973571Y-123192319D02*
X150164047Y-123192319D01*
X150164047Y-123192319D02*
X150259285Y-123239938D01*
X150259285Y-123239938D02*
X150354523Y-123335176D01*
X150354523Y-123335176D02*
X150402142Y-123525652D01*
X150402142Y-123525652D02*
X150402142Y-123858985D01*
X150402142Y-123858985D02*
X150354523Y-124049461D01*
X150354523Y-124049461D02*
X150259285Y-124144700D01*
X150259285Y-124144700D02*
X150164047Y-124192319D01*
X150164047Y-124192319D02*
X149973571Y-124192319D01*
X151354523Y-124192319D02*
X150783095Y-124192319D01*
X151068809Y-124192319D02*
X151068809Y-123192319D01*
X151068809Y-123192319D02*
X150973571Y-123335176D01*
X150973571Y-123335176D02*
X150878333Y-123430414D01*
X150878333Y-123430414D02*
X150783095Y-123478033D01*
X131324819Y-158593333D02*
X132039104Y-158593333D01*
X132039104Y-158593333D02*
X132181961Y-158640952D01*
X132181961Y-158640952D02*
X132277200Y-158736190D01*
X132277200Y-158736190D02*
X132324819Y-158879047D01*
X132324819Y-158879047D02*
X132324819Y-158974285D01*
X132324819Y-158069523D02*
X132324819Y-157879047D01*
X132324819Y-157879047D02*
X132277200Y-157783809D01*
X132277200Y-157783809D02*
X132229580Y-157736190D01*
X132229580Y-157736190D02*
X132086723Y-157640952D01*
X132086723Y-157640952D02*
X131896247Y-157593333D01*
X131896247Y-157593333D02*
X131515295Y-157593333D01*
X131515295Y-157593333D02*
X131420057Y-157640952D01*
X131420057Y-157640952D02*
X131372438Y-157688571D01*
X131372438Y-157688571D02*
X131324819Y-157783809D01*
X131324819Y-157783809D02*
X131324819Y-157974285D01*
X131324819Y-157974285D02*
X131372438Y-158069523D01*
X131372438Y-158069523D02*
X131420057Y-158117142D01*
X131420057Y-158117142D02*
X131515295Y-158164761D01*
X131515295Y-158164761D02*
X131753390Y-158164761D01*
X131753390Y-158164761D02*
X131848628Y-158117142D01*
X131848628Y-158117142D02*
X131896247Y-158069523D01*
X131896247Y-158069523D02*
X131943866Y-157974285D01*
X131943866Y-157974285D02*
X131943866Y-157783809D01*
X131943866Y-157783809D02*
X131896247Y-157688571D01*
X131896247Y-157688571D02*
X131848628Y-157640952D01*
X131848628Y-157640952D02*
X131753390Y-157593333D01*
X161724819Y-158733333D02*
X162439104Y-158733333D01*
X162439104Y-158733333D02*
X162581961Y-158780952D01*
X162581961Y-158780952D02*
X162677200Y-158876190D01*
X162677200Y-158876190D02*
X162724819Y-159019047D01*
X162724819Y-159019047D02*
X162724819Y-159114285D01*
X162153390Y-158114285D02*
X162105771Y-158209523D01*
X162105771Y-158209523D02*
X162058152Y-158257142D01*
X162058152Y-158257142D02*
X161962914Y-158304761D01*
X161962914Y-158304761D02*
X161915295Y-158304761D01*
X161915295Y-158304761D02*
X161820057Y-158257142D01*
X161820057Y-158257142D02*
X161772438Y-158209523D01*
X161772438Y-158209523D02*
X161724819Y-158114285D01*
X161724819Y-158114285D02*
X161724819Y-157923809D01*
X161724819Y-157923809D02*
X161772438Y-157828571D01*
X161772438Y-157828571D02*
X161820057Y-157780952D01*
X161820057Y-157780952D02*
X161915295Y-157733333D01*
X161915295Y-157733333D02*
X161962914Y-157733333D01*
X161962914Y-157733333D02*
X162058152Y-157780952D01*
X162058152Y-157780952D02*
X162105771Y-157828571D01*
X162105771Y-157828571D02*
X162153390Y-157923809D01*
X162153390Y-157923809D02*
X162153390Y-158114285D01*
X162153390Y-158114285D02*
X162201009Y-158209523D01*
X162201009Y-158209523D02*
X162248628Y-158257142D01*
X162248628Y-158257142D02*
X162343866Y-158304761D01*
X162343866Y-158304761D02*
X162534342Y-158304761D01*
X162534342Y-158304761D02*
X162629580Y-158257142D01*
X162629580Y-158257142D02*
X162677200Y-158209523D01*
X162677200Y-158209523D02*
X162724819Y-158114285D01*
X162724819Y-158114285D02*
X162724819Y-157923809D01*
X162724819Y-157923809D02*
X162677200Y-157828571D01*
X162677200Y-157828571D02*
X162629580Y-157780952D01*
X162629580Y-157780952D02*
X162534342Y-157733333D01*
X162534342Y-157733333D02*
X162343866Y-157733333D01*
X162343866Y-157733333D02*
X162248628Y-157780952D01*
X162248628Y-157780952D02*
X162201009Y-157828571D01*
X162201009Y-157828571D02*
X162153390Y-157923809D01*
X168224819Y-122133333D02*
X168939104Y-122133333D01*
X168939104Y-122133333D02*
X169081961Y-122180952D01*
X169081961Y-122180952D02*
X169177200Y-122276190D01*
X169177200Y-122276190D02*
X169224819Y-122419047D01*
X169224819Y-122419047D02*
X169224819Y-122514285D01*
X168224819Y-121752380D02*
X168224819Y-121085714D01*
X168224819Y-121085714D02*
X169224819Y-121514285D01*
X125366666Y-117924819D02*
X125366666Y-118639104D01*
X125366666Y-118639104D02*
X125319047Y-118781961D01*
X125319047Y-118781961D02*
X125223809Y-118877200D01*
X125223809Y-118877200D02*
X125080952Y-118924819D01*
X125080952Y-118924819D02*
X124985714Y-118924819D01*
X126271428Y-117924819D02*
X126080952Y-117924819D01*
X126080952Y-117924819D02*
X125985714Y-117972438D01*
X125985714Y-117972438D02*
X125938095Y-118020057D01*
X125938095Y-118020057D02*
X125842857Y-118162914D01*
X125842857Y-118162914D02*
X125795238Y-118353390D01*
X125795238Y-118353390D02*
X125795238Y-118734342D01*
X125795238Y-118734342D02*
X125842857Y-118829580D01*
X125842857Y-118829580D02*
X125890476Y-118877200D01*
X125890476Y-118877200D02*
X125985714Y-118924819D01*
X125985714Y-118924819D02*
X126176190Y-118924819D01*
X126176190Y-118924819D02*
X126271428Y-118877200D01*
X126271428Y-118877200D02*
X126319047Y-118829580D01*
X126319047Y-118829580D02*
X126366666Y-118734342D01*
X126366666Y-118734342D02*
X126366666Y-118496247D01*
X126366666Y-118496247D02*
X126319047Y-118401009D01*
X126319047Y-118401009D02*
X126271428Y-118353390D01*
X126271428Y-118353390D02*
X126176190Y-118305771D01*
X126176190Y-118305771D02*
X125985714Y-118305771D01*
X125985714Y-118305771D02*
X125890476Y-118353390D01*
X125890476Y-118353390D02*
X125842857Y-118401009D01*
X125842857Y-118401009D02*
X125795238Y-118496247D01*
X117066666Y-133844819D02*
X117066666Y-134559104D01*
X117066666Y-134559104D02*
X117019047Y-134701961D01*
X117019047Y-134701961D02*
X116923809Y-134797200D01*
X116923809Y-134797200D02*
X116780952Y-134844819D01*
X116780952Y-134844819D02*
X116685714Y-134844819D01*
X118019047Y-133844819D02*
X117542857Y-133844819D01*
X117542857Y-133844819D02*
X117495238Y-134321009D01*
X117495238Y-134321009D02*
X117542857Y-134273390D01*
X117542857Y-134273390D02*
X117638095Y-134225771D01*
X117638095Y-134225771D02*
X117876190Y-134225771D01*
X117876190Y-134225771D02*
X117971428Y-134273390D01*
X117971428Y-134273390D02*
X118019047Y-134321009D01*
X118019047Y-134321009D02*
X118066666Y-134416247D01*
X118066666Y-134416247D02*
X118066666Y-134654342D01*
X118066666Y-134654342D02*
X118019047Y-134749580D01*
X118019047Y-134749580D02*
X117971428Y-134797200D01*
X117971428Y-134797200D02*
X117876190Y-134844819D01*
X117876190Y-134844819D02*
X117638095Y-134844819D01*
X117638095Y-134844819D02*
X117542857Y-134797200D01*
X117542857Y-134797200D02*
X117495238Y-134749580D01*
X118924819Y-158533333D02*
X119639104Y-158533333D01*
X119639104Y-158533333D02*
X119781961Y-158580952D01*
X119781961Y-158580952D02*
X119877200Y-158676190D01*
X119877200Y-158676190D02*
X119924819Y-158819047D01*
X119924819Y-158819047D02*
X119924819Y-158914285D01*
X119258152Y-157628571D02*
X119924819Y-157628571D01*
X118877200Y-157866666D02*
X119591485Y-158104761D01*
X119591485Y-158104761D02*
X119591485Y-157485714D01*
X190779166Y-127979819D02*
X190779166Y-128694104D01*
X190779166Y-128694104D02*
X190731547Y-128836961D01*
X190731547Y-128836961D02*
X190636309Y-128932200D01*
X190636309Y-128932200D02*
X190493452Y-128979819D01*
X190493452Y-128979819D02*
X190398214Y-128979819D01*
X191160119Y-127979819D02*
X191779166Y-127979819D01*
X191779166Y-127979819D02*
X191445833Y-128360771D01*
X191445833Y-128360771D02*
X191588690Y-128360771D01*
X191588690Y-128360771D02*
X191683928Y-128408390D01*
X191683928Y-128408390D02*
X191731547Y-128456009D01*
X191731547Y-128456009D02*
X191779166Y-128551247D01*
X191779166Y-128551247D02*
X191779166Y-128789342D01*
X191779166Y-128789342D02*
X191731547Y-128884580D01*
X191731547Y-128884580D02*
X191683928Y-128932200D01*
X191683928Y-128932200D02*
X191588690Y-128979819D01*
X191588690Y-128979819D02*
X191302976Y-128979819D01*
X191302976Y-128979819D02*
X191207738Y-128932200D01*
X191207738Y-128932200D02*
X191160119Y-128884580D01*
X114439166Y-134424819D02*
X114439166Y-135139104D01*
X114439166Y-135139104D02*
X114391547Y-135281961D01*
X114391547Y-135281961D02*
X114296309Y-135377200D01*
X114296309Y-135377200D02*
X114153452Y-135424819D01*
X114153452Y-135424819D02*
X114058214Y-135424819D01*
X115439166Y-135424819D02*
X114867738Y-135424819D01*
X115153452Y-135424819D02*
X115153452Y-134424819D01*
X115153452Y-134424819D02*
X115058214Y-134567676D01*
X115058214Y-134567676D02*
X114962976Y-134662914D01*
X114962976Y-134662914D02*
X114867738Y-134710533D01*
X114938095Y-154854819D02*
X114938095Y-153854819D01*
X114938095Y-154331009D02*
X115509523Y-154331009D01*
X115509523Y-154854819D02*
X115509523Y-153854819D01*
X116414285Y-154188152D02*
X116414285Y-154854819D01*
X116176190Y-153807200D02*
X115938095Y-154521485D01*
X115938095Y-154521485D02*
X116557142Y-154521485D01*
X188938095Y-154654819D02*
X188938095Y-153654819D01*
X188938095Y-154131009D02*
X189509523Y-154131009D01*
X189509523Y-154654819D02*
X189509523Y-153654819D01*
X189890476Y-153654819D02*
X190509523Y-153654819D01*
X190509523Y-153654819D02*
X190176190Y-154035771D01*
X190176190Y-154035771D02*
X190319047Y-154035771D01*
X190319047Y-154035771D02*
X190414285Y-154083390D01*
X190414285Y-154083390D02*
X190461904Y-154131009D01*
X190461904Y-154131009D02*
X190509523Y-154226247D01*
X190509523Y-154226247D02*
X190509523Y-154464342D01*
X190509523Y-154464342D02*
X190461904Y-154559580D01*
X190461904Y-154559580D02*
X190414285Y-154607200D01*
X190414285Y-154607200D02*
X190319047Y-154654819D01*
X190319047Y-154654819D02*
X190033333Y-154654819D01*
X190033333Y-154654819D02*
X189938095Y-154607200D01*
X189938095Y-154607200D02*
X189890476Y-154559580D01*
X188738095Y-116354819D02*
X188738095Y-115354819D01*
X188738095Y-115831009D02*
X189309523Y-115831009D01*
X189309523Y-116354819D02*
X189309523Y-115354819D01*
X189738095Y-115450057D02*
X189785714Y-115402438D01*
X189785714Y-115402438D02*
X189880952Y-115354819D01*
X189880952Y-115354819D02*
X190119047Y-115354819D01*
X190119047Y-115354819D02*
X190214285Y-115402438D01*
X190214285Y-115402438D02*
X190261904Y-115450057D01*
X190261904Y-115450057D02*
X190309523Y-115545295D01*
X190309523Y-115545295D02*
X190309523Y-115640533D01*
X190309523Y-115640533D02*
X190261904Y-115783390D01*
X190261904Y-115783390D02*
X189690476Y-116354819D01*
X189690476Y-116354819D02*
X190309523Y-116354819D01*
X114738095Y-116354819D02*
X114738095Y-115354819D01*
X114738095Y-115831009D02*
X115309523Y-115831009D01*
X115309523Y-116354819D02*
X115309523Y-115354819D01*
X116309523Y-116354819D02*
X115738095Y-116354819D01*
X116023809Y-116354819D02*
X116023809Y-115354819D01*
X116023809Y-115354819D02*
X115928571Y-115497676D01*
X115928571Y-115497676D02*
X115833333Y-115592914D01*
X115833333Y-115592914D02*
X115738095Y-115640533D01*
X157161905Y-152404819D02*
X157161905Y-151404819D01*
X157161905Y-151404819D02*
X157400000Y-151404819D01*
X157400000Y-151404819D02*
X157542857Y-151452438D01*
X157542857Y-151452438D02*
X157638095Y-151547676D01*
X157638095Y-151547676D02*
X157685714Y-151642914D01*
X157685714Y-151642914D02*
X157733333Y-151833390D01*
X157733333Y-151833390D02*
X157733333Y-151976247D01*
X157733333Y-151976247D02*
X157685714Y-152166723D01*
X157685714Y-152166723D02*
X157638095Y-152261961D01*
X157638095Y-152261961D02*
X157542857Y-152357200D01*
X157542857Y-152357200D02*
X157400000Y-152404819D01*
X157400000Y-152404819D02*
X157161905Y-152404819D01*
X158590476Y-151738152D02*
X158590476Y-152404819D01*
X158352381Y-151357200D02*
X158114286Y-152071485D01*
X158114286Y-152071485D02*
X158733333Y-152071485D01*
X157161905Y-149004819D02*
X157161905Y-148004819D01*
X157161905Y-148004819D02*
X157400000Y-148004819D01*
X157400000Y-148004819D02*
X157542857Y-148052438D01*
X157542857Y-148052438D02*
X157638095Y-148147676D01*
X157638095Y-148147676D02*
X157685714Y-148242914D01*
X157685714Y-148242914D02*
X157733333Y-148433390D01*
X157733333Y-148433390D02*
X157733333Y-148576247D01*
X157733333Y-148576247D02*
X157685714Y-148766723D01*
X157685714Y-148766723D02*
X157638095Y-148861961D01*
X157638095Y-148861961D02*
X157542857Y-148957200D01*
X157542857Y-148957200D02*
X157400000Y-149004819D01*
X157400000Y-149004819D02*
X157161905Y-149004819D01*
X158066667Y-148004819D02*
X158685714Y-148004819D01*
X158685714Y-148004819D02*
X158352381Y-148385771D01*
X158352381Y-148385771D02*
X158495238Y-148385771D01*
X158495238Y-148385771D02*
X158590476Y-148433390D01*
X158590476Y-148433390D02*
X158638095Y-148481009D01*
X158638095Y-148481009D02*
X158685714Y-148576247D01*
X158685714Y-148576247D02*
X158685714Y-148814342D01*
X158685714Y-148814342D02*
X158638095Y-148909580D01*
X158638095Y-148909580D02*
X158590476Y-148957200D01*
X158590476Y-148957200D02*
X158495238Y-149004819D01*
X158495238Y-149004819D02*
X158209524Y-149004819D01*
X158209524Y-149004819D02*
X158114286Y-148957200D01*
X158114286Y-148957200D02*
X158066667Y-148909580D01*
X157161905Y-145604819D02*
X157161905Y-144604819D01*
X157161905Y-144604819D02*
X157400000Y-144604819D01*
X157400000Y-144604819D02*
X157542857Y-144652438D01*
X157542857Y-144652438D02*
X157638095Y-144747676D01*
X157638095Y-144747676D02*
X157685714Y-144842914D01*
X157685714Y-144842914D02*
X157733333Y-145033390D01*
X157733333Y-145033390D02*
X157733333Y-145176247D01*
X157733333Y-145176247D02*
X157685714Y-145366723D01*
X157685714Y-145366723D02*
X157638095Y-145461961D01*
X157638095Y-145461961D02*
X157542857Y-145557200D01*
X157542857Y-145557200D02*
X157400000Y-145604819D01*
X157400000Y-145604819D02*
X157161905Y-145604819D01*
X158114286Y-144700057D02*
X158161905Y-144652438D01*
X158161905Y-144652438D02*
X158257143Y-144604819D01*
X158257143Y-144604819D02*
X158495238Y-144604819D01*
X158495238Y-144604819D02*
X158590476Y-144652438D01*
X158590476Y-144652438D02*
X158638095Y-144700057D01*
X158638095Y-144700057D02*
X158685714Y-144795295D01*
X158685714Y-144795295D02*
X158685714Y-144890533D01*
X158685714Y-144890533D02*
X158638095Y-145033390D01*
X158638095Y-145033390D02*
X158066667Y-145604819D01*
X158066667Y-145604819D02*
X158685714Y-145604819D01*
X148211905Y-132954819D02*
X148211905Y-131954819D01*
X148211905Y-131954819D02*
X148450000Y-131954819D01*
X148450000Y-131954819D02*
X148592857Y-132002438D01*
X148592857Y-132002438D02*
X148688095Y-132097676D01*
X148688095Y-132097676D02*
X148735714Y-132192914D01*
X148735714Y-132192914D02*
X148783333Y-132383390D01*
X148783333Y-132383390D02*
X148783333Y-132526247D01*
X148783333Y-132526247D02*
X148735714Y-132716723D01*
X148735714Y-132716723D02*
X148688095Y-132811961D01*
X148688095Y-132811961D02*
X148592857Y-132907200D01*
X148592857Y-132907200D02*
X148450000Y-132954819D01*
X148450000Y-132954819D02*
X148211905Y-132954819D01*
X149735714Y-132954819D02*
X149164286Y-132954819D01*
X149450000Y-132954819D02*
X149450000Y-131954819D01*
X149450000Y-131954819D02*
X149354762Y-132097676D01*
X149354762Y-132097676D02*
X149259524Y-132192914D01*
X149259524Y-132192914D02*
X149164286Y-132240533D01*
X150557142Y-134359580D02*
X150509523Y-134407200D01*
X150509523Y-134407200D02*
X150366666Y-134454819D01*
X150366666Y-134454819D02*
X150271428Y-134454819D01*
X150271428Y-134454819D02*
X150128571Y-134407200D01*
X150128571Y-134407200D02*
X150033333Y-134311961D01*
X150033333Y-134311961D02*
X149985714Y-134216723D01*
X149985714Y-134216723D02*
X149938095Y-134026247D01*
X149938095Y-134026247D02*
X149938095Y-133883390D01*
X149938095Y-133883390D02*
X149985714Y-133692914D01*
X149985714Y-133692914D02*
X150033333Y-133597676D01*
X150033333Y-133597676D02*
X150128571Y-133502438D01*
X150128571Y-133502438D02*
X150271428Y-133454819D01*
X150271428Y-133454819D02*
X150366666Y-133454819D01*
X150366666Y-133454819D02*
X150509523Y-133502438D01*
X150509523Y-133502438D02*
X150557142Y-133550057D01*
X151509523Y-134454819D02*
X150938095Y-134454819D01*
X151223809Y-134454819D02*
X151223809Y-133454819D01*
X151223809Y-133454819D02*
X151128571Y-133597676D01*
X151128571Y-133597676D02*
X151033333Y-133692914D01*
X151033333Y-133692914D02*
X150938095Y-133740533D01*
X152461904Y-134454819D02*
X151890476Y-134454819D01*
X152176190Y-134454819D02*
X152176190Y-133454819D01*
X152176190Y-133454819D02*
X152080952Y-133597676D01*
X152080952Y-133597676D02*
X151985714Y-133692914D01*
X151985714Y-133692914D02*
X151890476Y-133740533D01*
X139607142Y-151839580D02*
X139559523Y-151887200D01*
X139559523Y-151887200D02*
X139416666Y-151934819D01*
X139416666Y-151934819D02*
X139321428Y-151934819D01*
X139321428Y-151934819D02*
X139178571Y-151887200D01*
X139178571Y-151887200D02*
X139083333Y-151791961D01*
X139083333Y-151791961D02*
X139035714Y-151696723D01*
X139035714Y-151696723D02*
X138988095Y-151506247D01*
X138988095Y-151506247D02*
X138988095Y-151363390D01*
X138988095Y-151363390D02*
X139035714Y-151172914D01*
X139035714Y-151172914D02*
X139083333Y-151077676D01*
X139083333Y-151077676D02*
X139178571Y-150982438D01*
X139178571Y-150982438D02*
X139321428Y-150934819D01*
X139321428Y-150934819D02*
X139416666Y-150934819D01*
X139416666Y-150934819D02*
X139559523Y-150982438D01*
X139559523Y-150982438D02*
X139607142Y-151030057D01*
X140559523Y-151934819D02*
X139988095Y-151934819D01*
X140273809Y-151934819D02*
X140273809Y-150934819D01*
X140273809Y-150934819D02*
X140178571Y-151077676D01*
X140178571Y-151077676D02*
X140083333Y-151172914D01*
X140083333Y-151172914D02*
X139988095Y-151220533D01*
X141178571Y-150934819D02*
X141273809Y-150934819D01*
X141273809Y-150934819D02*
X141369047Y-150982438D01*
X141369047Y-150982438D02*
X141416666Y-151030057D01*
X141416666Y-151030057D02*
X141464285Y-151125295D01*
X141464285Y-151125295D02*
X141511904Y-151315771D01*
X141511904Y-151315771D02*
X141511904Y-151553866D01*
X141511904Y-151553866D02*
X141464285Y-151744342D01*
X141464285Y-151744342D02*
X141416666Y-151839580D01*
X141416666Y-151839580D02*
X141369047Y-151887200D01*
X141369047Y-151887200D02*
X141273809Y-151934819D01*
X141273809Y-151934819D02*
X141178571Y-151934819D01*
X141178571Y-151934819D02*
X141083333Y-151887200D01*
X141083333Y-151887200D02*
X141035714Y-151839580D01*
X141035714Y-151839580D02*
X140988095Y-151744342D01*
X140988095Y-151744342D02*
X140940476Y-151553866D01*
X140940476Y-151553866D02*
X140940476Y-151315771D01*
X140940476Y-151315771D02*
X140988095Y-151125295D01*
X140988095Y-151125295D02*
X141035714Y-151030057D01*
X141035714Y-151030057D02*
X141083333Y-150982438D01*
X141083333Y-150982438D02*
X141178571Y-150934819D01*
X161733333Y-141539580D02*
X161685714Y-141587200D01*
X161685714Y-141587200D02*
X161542857Y-141634819D01*
X161542857Y-141634819D02*
X161447619Y-141634819D01*
X161447619Y-141634819D02*
X161304762Y-141587200D01*
X161304762Y-141587200D02*
X161209524Y-141491961D01*
X161209524Y-141491961D02*
X161161905Y-141396723D01*
X161161905Y-141396723D02*
X161114286Y-141206247D01*
X161114286Y-141206247D02*
X161114286Y-141063390D01*
X161114286Y-141063390D02*
X161161905Y-140872914D01*
X161161905Y-140872914D02*
X161209524Y-140777676D01*
X161209524Y-140777676D02*
X161304762Y-140682438D01*
X161304762Y-140682438D02*
X161447619Y-140634819D01*
X161447619Y-140634819D02*
X161542857Y-140634819D01*
X161542857Y-140634819D02*
X161685714Y-140682438D01*
X161685714Y-140682438D02*
X161733333Y-140730057D01*
X162209524Y-141634819D02*
X162400000Y-141634819D01*
X162400000Y-141634819D02*
X162495238Y-141587200D01*
X162495238Y-141587200D02*
X162542857Y-141539580D01*
X162542857Y-141539580D02*
X162638095Y-141396723D01*
X162638095Y-141396723D02*
X162685714Y-141206247D01*
X162685714Y-141206247D02*
X162685714Y-140825295D01*
X162685714Y-140825295D02*
X162638095Y-140730057D01*
X162638095Y-140730057D02*
X162590476Y-140682438D01*
X162590476Y-140682438D02*
X162495238Y-140634819D01*
X162495238Y-140634819D02*
X162304762Y-140634819D01*
X162304762Y-140634819D02*
X162209524Y-140682438D01*
X162209524Y-140682438D02*
X162161905Y-140730057D01*
X162161905Y-140730057D02*
X162114286Y-140825295D01*
X162114286Y-140825295D02*
X162114286Y-141063390D01*
X162114286Y-141063390D02*
X162161905Y-141158628D01*
X162161905Y-141158628D02*
X162209524Y-141206247D01*
X162209524Y-141206247D02*
X162304762Y-141253866D01*
X162304762Y-141253866D02*
X162495238Y-141253866D01*
X162495238Y-141253866D02*
X162590476Y-141206247D01*
X162590476Y-141206247D02*
X162638095Y-141158628D01*
X162638095Y-141158628D02*
X162685714Y-141063390D01*
X184039580Y-137866666D02*
X184087200Y-137914285D01*
X184087200Y-137914285D02*
X184134819Y-138057142D01*
X184134819Y-138057142D02*
X184134819Y-138152380D01*
X184134819Y-138152380D02*
X184087200Y-138295237D01*
X184087200Y-138295237D02*
X183991961Y-138390475D01*
X183991961Y-138390475D02*
X183896723Y-138438094D01*
X183896723Y-138438094D02*
X183706247Y-138485713D01*
X183706247Y-138485713D02*
X183563390Y-138485713D01*
X183563390Y-138485713D02*
X183372914Y-138438094D01*
X183372914Y-138438094D02*
X183277676Y-138390475D01*
X183277676Y-138390475D02*
X183182438Y-138295237D01*
X183182438Y-138295237D02*
X183134819Y-138152380D01*
X183134819Y-138152380D02*
X183134819Y-138057142D01*
X183134819Y-138057142D02*
X183182438Y-137914285D01*
X183182438Y-137914285D02*
X183230057Y-137866666D01*
X183563390Y-137295237D02*
X183515771Y-137390475D01*
X183515771Y-137390475D02*
X183468152Y-137438094D01*
X183468152Y-137438094D02*
X183372914Y-137485713D01*
X183372914Y-137485713D02*
X183325295Y-137485713D01*
X183325295Y-137485713D02*
X183230057Y-137438094D01*
X183230057Y-137438094D02*
X183182438Y-137390475D01*
X183182438Y-137390475D02*
X183134819Y-137295237D01*
X183134819Y-137295237D02*
X183134819Y-137104761D01*
X183134819Y-137104761D02*
X183182438Y-137009523D01*
X183182438Y-137009523D02*
X183230057Y-136961904D01*
X183230057Y-136961904D02*
X183325295Y-136914285D01*
X183325295Y-136914285D02*
X183372914Y-136914285D01*
X183372914Y-136914285D02*
X183468152Y-136961904D01*
X183468152Y-136961904D02*
X183515771Y-137009523D01*
X183515771Y-137009523D02*
X183563390Y-137104761D01*
X183563390Y-137104761D02*
X183563390Y-137295237D01*
X183563390Y-137295237D02*
X183611009Y-137390475D01*
X183611009Y-137390475D02*
X183658628Y-137438094D01*
X183658628Y-137438094D02*
X183753866Y-137485713D01*
X183753866Y-137485713D02*
X183944342Y-137485713D01*
X183944342Y-137485713D02*
X184039580Y-137438094D01*
X184039580Y-137438094D02*
X184087200Y-137390475D01*
X184087200Y-137390475D02*
X184134819Y-137295237D01*
X184134819Y-137295237D02*
X184134819Y-137104761D01*
X184134819Y-137104761D02*
X184087200Y-137009523D01*
X184087200Y-137009523D02*
X184039580Y-136961904D01*
X184039580Y-136961904D02*
X183944342Y-136914285D01*
X183944342Y-136914285D02*
X183753866Y-136914285D01*
X183753866Y-136914285D02*
X183658628Y-136961904D01*
X183658628Y-136961904D02*
X183611009Y-137009523D01*
X183611009Y-137009523D02*
X183563390Y-137104761D01*
X184059580Y-131566666D02*
X184107200Y-131614285D01*
X184107200Y-131614285D02*
X184154819Y-131757142D01*
X184154819Y-131757142D02*
X184154819Y-131852380D01*
X184154819Y-131852380D02*
X184107200Y-131995237D01*
X184107200Y-131995237D02*
X184011961Y-132090475D01*
X184011961Y-132090475D02*
X183916723Y-132138094D01*
X183916723Y-132138094D02*
X183726247Y-132185713D01*
X183726247Y-132185713D02*
X183583390Y-132185713D01*
X183583390Y-132185713D02*
X183392914Y-132138094D01*
X183392914Y-132138094D02*
X183297676Y-132090475D01*
X183297676Y-132090475D02*
X183202438Y-131995237D01*
X183202438Y-131995237D02*
X183154819Y-131852380D01*
X183154819Y-131852380D02*
X183154819Y-131757142D01*
X183154819Y-131757142D02*
X183202438Y-131614285D01*
X183202438Y-131614285D02*
X183250057Y-131566666D01*
X183154819Y-131233332D02*
X183154819Y-130566666D01*
X183154819Y-130566666D02*
X184154819Y-130995237D01*
X130083333Y-119379580D02*
X130035714Y-119427200D01*
X130035714Y-119427200D02*
X129892857Y-119474819D01*
X129892857Y-119474819D02*
X129797619Y-119474819D01*
X129797619Y-119474819D02*
X129654762Y-119427200D01*
X129654762Y-119427200D02*
X129559524Y-119331961D01*
X129559524Y-119331961D02*
X129511905Y-119236723D01*
X129511905Y-119236723D02*
X129464286Y-119046247D01*
X129464286Y-119046247D02*
X129464286Y-118903390D01*
X129464286Y-118903390D02*
X129511905Y-118712914D01*
X129511905Y-118712914D02*
X129559524Y-118617676D01*
X129559524Y-118617676D02*
X129654762Y-118522438D01*
X129654762Y-118522438D02*
X129797619Y-118474819D01*
X129797619Y-118474819D02*
X129892857Y-118474819D01*
X129892857Y-118474819D02*
X130035714Y-118522438D01*
X130035714Y-118522438D02*
X130083333Y-118570057D01*
X130940476Y-118474819D02*
X130750000Y-118474819D01*
X130750000Y-118474819D02*
X130654762Y-118522438D01*
X130654762Y-118522438D02*
X130607143Y-118570057D01*
X130607143Y-118570057D02*
X130511905Y-118712914D01*
X130511905Y-118712914D02*
X130464286Y-118903390D01*
X130464286Y-118903390D02*
X130464286Y-119284342D01*
X130464286Y-119284342D02*
X130511905Y-119379580D01*
X130511905Y-119379580D02*
X130559524Y-119427200D01*
X130559524Y-119427200D02*
X130654762Y-119474819D01*
X130654762Y-119474819D02*
X130845238Y-119474819D01*
X130845238Y-119474819D02*
X130940476Y-119427200D01*
X130940476Y-119427200D02*
X130988095Y-119379580D01*
X130988095Y-119379580D02*
X131035714Y-119284342D01*
X131035714Y-119284342D02*
X131035714Y-119046247D01*
X131035714Y-119046247D02*
X130988095Y-118951009D01*
X130988095Y-118951009D02*
X130940476Y-118903390D01*
X130940476Y-118903390D02*
X130845238Y-118855771D01*
X130845238Y-118855771D02*
X130654762Y-118855771D01*
X130654762Y-118855771D02*
X130559524Y-118903390D01*
X130559524Y-118903390D02*
X130511905Y-118951009D01*
X130511905Y-118951009D02*
X130464286Y-119046247D01*
X156483333Y-133339580D02*
X156435714Y-133387200D01*
X156435714Y-133387200D02*
X156292857Y-133434819D01*
X156292857Y-133434819D02*
X156197619Y-133434819D01*
X156197619Y-133434819D02*
X156054762Y-133387200D01*
X156054762Y-133387200D02*
X155959524Y-133291961D01*
X155959524Y-133291961D02*
X155911905Y-133196723D01*
X155911905Y-133196723D02*
X155864286Y-133006247D01*
X155864286Y-133006247D02*
X155864286Y-132863390D01*
X155864286Y-132863390D02*
X155911905Y-132672914D01*
X155911905Y-132672914D02*
X155959524Y-132577676D01*
X155959524Y-132577676D02*
X156054762Y-132482438D01*
X156054762Y-132482438D02*
X156197619Y-132434819D01*
X156197619Y-132434819D02*
X156292857Y-132434819D01*
X156292857Y-132434819D02*
X156435714Y-132482438D01*
X156435714Y-132482438D02*
X156483333Y-132530057D01*
X157388095Y-132434819D02*
X156911905Y-132434819D01*
X156911905Y-132434819D02*
X156864286Y-132911009D01*
X156864286Y-132911009D02*
X156911905Y-132863390D01*
X156911905Y-132863390D02*
X157007143Y-132815771D01*
X157007143Y-132815771D02*
X157245238Y-132815771D01*
X157245238Y-132815771D02*
X157340476Y-132863390D01*
X157340476Y-132863390D02*
X157388095Y-132911009D01*
X157388095Y-132911009D02*
X157435714Y-133006247D01*
X157435714Y-133006247D02*
X157435714Y-133244342D01*
X157435714Y-133244342D02*
X157388095Y-133339580D01*
X157388095Y-133339580D02*
X157340476Y-133387200D01*
X157340476Y-133387200D02*
X157245238Y-133434819D01*
X157245238Y-133434819D02*
X157007143Y-133434819D01*
X157007143Y-133434819D02*
X156911905Y-133387200D01*
X156911905Y-133387200D02*
X156864286Y-133339580D01*
X160333333Y-129979580D02*
X160285714Y-130027200D01*
X160285714Y-130027200D02*
X160142857Y-130074819D01*
X160142857Y-130074819D02*
X160047619Y-130074819D01*
X160047619Y-130074819D02*
X159904762Y-130027200D01*
X159904762Y-130027200D02*
X159809524Y-129931961D01*
X159809524Y-129931961D02*
X159761905Y-129836723D01*
X159761905Y-129836723D02*
X159714286Y-129646247D01*
X159714286Y-129646247D02*
X159714286Y-129503390D01*
X159714286Y-129503390D02*
X159761905Y-129312914D01*
X159761905Y-129312914D02*
X159809524Y-129217676D01*
X159809524Y-129217676D02*
X159904762Y-129122438D01*
X159904762Y-129122438D02*
X160047619Y-129074819D01*
X160047619Y-129074819D02*
X160142857Y-129074819D01*
X160142857Y-129074819D02*
X160285714Y-129122438D01*
X160285714Y-129122438D02*
X160333333Y-129170057D01*
X161190476Y-129408152D02*
X161190476Y-130074819D01*
X160952381Y-129027200D02*
X160714286Y-129741485D01*
X160714286Y-129741485D02*
X161333333Y-129741485D01*
X148933333Y-120559580D02*
X148885714Y-120607200D01*
X148885714Y-120607200D02*
X148742857Y-120654819D01*
X148742857Y-120654819D02*
X148647619Y-120654819D01*
X148647619Y-120654819D02*
X148504762Y-120607200D01*
X148504762Y-120607200D02*
X148409524Y-120511961D01*
X148409524Y-120511961D02*
X148361905Y-120416723D01*
X148361905Y-120416723D02*
X148314286Y-120226247D01*
X148314286Y-120226247D02*
X148314286Y-120083390D01*
X148314286Y-120083390D02*
X148361905Y-119892914D01*
X148361905Y-119892914D02*
X148409524Y-119797676D01*
X148409524Y-119797676D02*
X148504762Y-119702438D01*
X148504762Y-119702438D02*
X148647619Y-119654819D01*
X148647619Y-119654819D02*
X148742857Y-119654819D01*
X148742857Y-119654819D02*
X148885714Y-119702438D01*
X148885714Y-119702438D02*
X148933333Y-119750057D01*
X149266667Y-119654819D02*
X149885714Y-119654819D01*
X149885714Y-119654819D02*
X149552381Y-120035771D01*
X149552381Y-120035771D02*
X149695238Y-120035771D01*
X149695238Y-120035771D02*
X149790476Y-120083390D01*
X149790476Y-120083390D02*
X149838095Y-120131009D01*
X149838095Y-120131009D02*
X149885714Y-120226247D01*
X149885714Y-120226247D02*
X149885714Y-120464342D01*
X149885714Y-120464342D02*
X149838095Y-120559580D01*
X149838095Y-120559580D02*
X149790476Y-120607200D01*
X149790476Y-120607200D02*
X149695238Y-120654819D01*
X149695238Y-120654819D02*
X149409524Y-120654819D01*
X149409524Y-120654819D02*
X149314286Y-120607200D01*
X149314286Y-120607200D02*
X149266667Y-120559580D01*
X124659580Y-126266666D02*
X124707200Y-126314285D01*
X124707200Y-126314285D02*
X124754819Y-126457142D01*
X124754819Y-126457142D02*
X124754819Y-126552380D01*
X124754819Y-126552380D02*
X124707200Y-126695237D01*
X124707200Y-126695237D02*
X124611961Y-126790475D01*
X124611961Y-126790475D02*
X124516723Y-126838094D01*
X124516723Y-126838094D02*
X124326247Y-126885713D01*
X124326247Y-126885713D02*
X124183390Y-126885713D01*
X124183390Y-126885713D02*
X123992914Y-126838094D01*
X123992914Y-126838094D02*
X123897676Y-126790475D01*
X123897676Y-126790475D02*
X123802438Y-126695237D01*
X123802438Y-126695237D02*
X123754819Y-126552380D01*
X123754819Y-126552380D02*
X123754819Y-126457142D01*
X123754819Y-126457142D02*
X123802438Y-126314285D01*
X123802438Y-126314285D02*
X123850057Y-126266666D01*
X123850057Y-125885713D02*
X123802438Y-125838094D01*
X123802438Y-125838094D02*
X123754819Y-125742856D01*
X123754819Y-125742856D02*
X123754819Y-125504761D01*
X123754819Y-125504761D02*
X123802438Y-125409523D01*
X123802438Y-125409523D02*
X123850057Y-125361904D01*
X123850057Y-125361904D02*
X123945295Y-125314285D01*
X123945295Y-125314285D02*
X124040533Y-125314285D01*
X124040533Y-125314285D02*
X124183390Y-125361904D01*
X124183390Y-125361904D02*
X124754819Y-125933332D01*
X124754819Y-125933332D02*
X124754819Y-125314285D01*
X124459580Y-132366666D02*
X124507200Y-132414285D01*
X124507200Y-132414285D02*
X124554819Y-132557142D01*
X124554819Y-132557142D02*
X124554819Y-132652380D01*
X124554819Y-132652380D02*
X124507200Y-132795237D01*
X124507200Y-132795237D02*
X124411961Y-132890475D01*
X124411961Y-132890475D02*
X124316723Y-132938094D01*
X124316723Y-132938094D02*
X124126247Y-132985713D01*
X124126247Y-132985713D02*
X123983390Y-132985713D01*
X123983390Y-132985713D02*
X123792914Y-132938094D01*
X123792914Y-132938094D02*
X123697676Y-132890475D01*
X123697676Y-132890475D02*
X123602438Y-132795237D01*
X123602438Y-132795237D02*
X123554819Y-132652380D01*
X123554819Y-132652380D02*
X123554819Y-132557142D01*
X123554819Y-132557142D02*
X123602438Y-132414285D01*
X123602438Y-132414285D02*
X123650057Y-132366666D01*
X124554819Y-131414285D02*
X124554819Y-131985713D01*
X124554819Y-131699999D02*
X123554819Y-131699999D01*
X123554819Y-131699999D02*
X123697676Y-131795237D01*
X123697676Y-131795237D02*
X123792914Y-131890475D01*
X123792914Y-131890475D02*
X123840533Y-131985713D01*
D11*
%TO.C,kibuzzard-665A1E07*%
G36*
X183656966Y-158748581D02*
G01*
X183160872Y-158748581D01*
X182944178Y-158748581D01*
X181465422Y-158748581D01*
X180639128Y-158748581D01*
X180143034Y-158748581D01*
X179333886Y-158748581D01*
X179942414Y-156720153D01*
X180662941Y-156720153D01*
X180686753Y-156885650D01*
X181251109Y-158126281D01*
X181332072Y-158215578D01*
X181465422Y-158245344D01*
X181588056Y-158213197D01*
X181670209Y-158126281D01*
X182145742Y-157080913D01*
X182344103Y-157080913D01*
X182417922Y-157238075D01*
X182559606Y-157321419D01*
X182706053Y-157252363D01*
X182729866Y-157230931D01*
X182729866Y-158035794D01*
X182777491Y-158204862D01*
X182944178Y-158252488D01*
X183113247Y-158204862D01*
X183160872Y-158038175D01*
X183160872Y-156799925D01*
X183113247Y-156629666D01*
X182946559Y-156580850D01*
X182784634Y-156621331D01*
X182746534Y-156652288D01*
X182444116Y-156923750D01*
X182371488Y-157004713D01*
X182344103Y-157080913D01*
X182145742Y-157080913D01*
X182234566Y-156885650D01*
X182261950Y-156721344D01*
X182125028Y-156607044D01*
X181948816Y-156572516D01*
X181836897Y-156707056D01*
X181460659Y-157633363D01*
X181084422Y-156707056D01*
X180974884Y-156571325D01*
X180796291Y-156607044D01*
X180662941Y-156720153D01*
X179942414Y-156720153D01*
X180143034Y-156051419D01*
X180639128Y-156051419D01*
X183160872Y-156051419D01*
X183656966Y-156051419D01*
X184466114Y-156051419D01*
X183656966Y-158748581D01*
G37*
%TO.C,kibuzzard-665A1D6B*%
G36*
X173933122Y-143347847D02*
G01*
X173513096Y-143347847D01*
X172456646Y-143347847D01*
X171404229Y-143347847D01*
X169775200Y-143347847D01*
X168597783Y-143347847D01*
X167732865Y-143347847D01*
X166041337Y-143347847D01*
X164668355Y-143347847D01*
X164486904Y-143347847D01*
X164066878Y-143347847D01*
X164066878Y-142720160D01*
X164486904Y-142720160D01*
X164490936Y-142790725D01*
X164510090Y-142846168D01*
X164564525Y-142891531D01*
X164668355Y-142905644D01*
X164775210Y-142891531D01*
X164831662Y-142846168D01*
X164850815Y-142791733D01*
X164853839Y-142722176D01*
X164853839Y-142161694D01*
X165376015Y-142851208D01*
X165435491Y-142894555D01*
X165539321Y-142905644D01*
X165646176Y-142891531D01*
X165702628Y-142846168D01*
X165721781Y-142791733D01*
X165724805Y-142722176D01*
X165724805Y-142720160D01*
X165857869Y-142720160D01*
X165860893Y-142789717D01*
X165880047Y-142845160D01*
X165936498Y-142891531D01*
X166041337Y-142905644D01*
X166783271Y-142905644D01*
X166852827Y-142902620D01*
X166908270Y-142883466D01*
X166954641Y-142827015D01*
X166968754Y-142722176D01*
X166954641Y-142615322D01*
X166909278Y-142558870D01*
X166854843Y-142539717D01*
X166785287Y-142536693D01*
X166226820Y-142536693D01*
X166226820Y-142357258D01*
X166595771Y-142357258D01*
X166662303Y-142354234D01*
X166712706Y-142338105D01*
X166752021Y-142291734D01*
X166761863Y-142212097D01*
X167025206Y-142212097D01*
X167038184Y-142354864D01*
X167077121Y-142486794D01*
X167142015Y-142607887D01*
X167232866Y-142718144D01*
X167341989Y-142809878D01*
X167461697Y-142875402D01*
X167591989Y-142914716D01*
X167732865Y-142927821D01*
X167869899Y-142914527D01*
X167996726Y-142874646D01*
X168113346Y-142808177D01*
X168184025Y-142746370D01*
X168474799Y-142746370D01*
X168484880Y-142827015D01*
X168597783Y-142885482D01*
X169390120Y-142885482D01*
X169476814Y-142869353D01*
X169506047Y-142827015D01*
X169515120Y-142747378D01*
X169511419Y-142718144D01*
X169593749Y-142718144D01*
X169597781Y-142788709D01*
X169616934Y-142844152D01*
X169671370Y-142889515D01*
X169775200Y-142903628D01*
X169882055Y-142889515D01*
X169938506Y-142844152D01*
X169957659Y-142789717D01*
X169960684Y-142722176D01*
X169960684Y-142147581D01*
X170194554Y-142466129D01*
X170261086Y-142528124D01*
X170351812Y-142548790D01*
X170407255Y-142542741D01*
X170449594Y-142524596D01*
X170475803Y-142504435D01*
X170494957Y-142482258D01*
X170507053Y-142466129D01*
X170742940Y-142145565D01*
X170742940Y-142718144D01*
X170745964Y-142787700D01*
X170765117Y-142843144D01*
X170821569Y-142889515D01*
X170926407Y-142903628D01*
X171032254Y-142889515D01*
X171087697Y-142845160D01*
X171107859Y-142790725D01*
X171111891Y-142722176D01*
X171111891Y-141935888D01*
X171196568Y-141935888D01*
X171212137Y-142042742D01*
X171258844Y-142140188D01*
X171336689Y-142228226D01*
X171435367Y-142297670D01*
X171544574Y-142339337D01*
X171664309Y-142353226D01*
X171771164Y-142335080D01*
X171688279Y-142448207D01*
X171571343Y-142516084D01*
X171420358Y-142538709D01*
X171349794Y-142541733D01*
X171293342Y-142560886D01*
X171246971Y-142617338D01*
X171232858Y-142722176D01*
X171245963Y-142827015D01*
X171288302Y-142883466D01*
X171340721Y-142903628D01*
X171404229Y-142907660D01*
X171540600Y-142898224D01*
X171665841Y-142869918D01*
X171779954Y-142822741D01*
X171882938Y-142756692D01*
X171922453Y-142720160D01*
X172275195Y-142720160D01*
X172279227Y-142790725D01*
X172298380Y-142846168D01*
X172352816Y-142891531D01*
X172456646Y-142905644D01*
X172563501Y-142891531D01*
X172619952Y-142846168D01*
X172639106Y-142791733D01*
X172642130Y-142722176D01*
X172642130Y-142161694D01*
X173164306Y-142851208D01*
X173223782Y-142894555D01*
X173327612Y-142905644D01*
X173434467Y-142891531D01*
X173490918Y-142846168D01*
X173510072Y-142791733D01*
X173513096Y-142722176D01*
X173513096Y-141681856D01*
X173510072Y-141612300D01*
X173490918Y-141556856D01*
X173434467Y-141510485D01*
X173329628Y-141496372D01*
X173224790Y-141510485D01*
X173168338Y-141553832D01*
X173148177Y-141607259D01*
X173144145Y-141673791D01*
X173144145Y-142252419D01*
X172640114Y-141575001D01*
X172603823Y-141533671D01*
X172552412Y-141508469D01*
X172460679Y-141496372D01*
X172354832Y-141509477D01*
X172299389Y-141552824D01*
X172279227Y-141606251D01*
X172275195Y-141673791D01*
X172275195Y-142720160D01*
X171922453Y-142720160D01*
X171974792Y-142671773D01*
X172052454Y-142571451D01*
X172112857Y-142459193D01*
X172156002Y-142335000D01*
X172181889Y-142198871D01*
X172190518Y-142050807D01*
X172175397Y-141883580D01*
X172130034Y-141742116D01*
X172054429Y-141626412D01*
X171952167Y-141540727D01*
X171826831Y-141489316D01*
X171678422Y-141472179D01*
X171549838Y-141487076D01*
X171435591Y-141531767D01*
X171335681Y-141606251D01*
X171258396Y-141702465D01*
X171212025Y-141812344D01*
X171196568Y-141935888D01*
X171111891Y-141935888D01*
X171111891Y-141681856D01*
X171107859Y-141611291D01*
X171088706Y-141555848D01*
X171033262Y-141510485D01*
X170928424Y-141496372D01*
X170821569Y-141508469D01*
X170761085Y-141554840D01*
X170351812Y-142081049D01*
X169940522Y-141552824D01*
X169927418Y-141538711D01*
X169912297Y-141523590D01*
X169895160Y-141513509D01*
X169868950Y-141504437D01*
X169832660Y-141499397D01*
X169779232Y-141496372D01*
X169672378Y-141510485D01*
X169615926Y-141555848D01*
X169596773Y-141610283D01*
X169593749Y-141677824D01*
X169593749Y-142718144D01*
X169511419Y-142718144D01*
X169505039Y-142667741D01*
X169392136Y-142607257D01*
X168599799Y-142607257D01*
X168513106Y-142623386D01*
X168482864Y-142665725D01*
X168474799Y-142746370D01*
X168184025Y-142746370D01*
X168219760Y-142715120D01*
X168308406Y-142603414D01*
X168371725Y-142480997D01*
X168409716Y-142347870D01*
X168422380Y-142204032D01*
X168409527Y-142057674D01*
X168370969Y-141923035D01*
X168306705Y-141800114D01*
X168216735Y-141688912D01*
X168108369Y-141596738D01*
X167988913Y-141530899D01*
X167858369Y-141491395D01*
X167716736Y-141478227D01*
X167578002Y-141491584D01*
X167450104Y-141531655D01*
X167333043Y-141598439D01*
X167226818Y-141691936D01*
X167138613Y-141804587D01*
X167075609Y-141928831D01*
X167037806Y-142064668D01*
X167025206Y-142212097D01*
X166761863Y-142212097D01*
X166763109Y-142202016D01*
X166752021Y-142110282D01*
X166713714Y-142061895D01*
X166665327Y-142045766D01*
X166599803Y-142042742D01*
X166226820Y-142042742D01*
X166226820Y-141863307D01*
X166783271Y-141863307D01*
X166852827Y-141860283D01*
X166908270Y-141841130D01*
X166954641Y-141784678D01*
X166968754Y-141679840D01*
X166954641Y-141572985D01*
X166909278Y-141516534D01*
X166854843Y-141497380D01*
X166785287Y-141494356D01*
X166047385Y-141494356D01*
X165899200Y-141533671D01*
X165857869Y-141677824D01*
X165857869Y-142720160D01*
X165724805Y-142720160D01*
X165724805Y-141681856D01*
X165721781Y-141612300D01*
X165702628Y-141556856D01*
X165646176Y-141510485D01*
X165541338Y-141496372D01*
X165436499Y-141510485D01*
X165380048Y-141553832D01*
X165359886Y-141607259D01*
X165355854Y-141673791D01*
X165355854Y-142252419D01*
X164851823Y-141575001D01*
X164815533Y-141533671D01*
X164764121Y-141508469D01*
X164672388Y-141496372D01*
X164566541Y-141509477D01*
X164511098Y-141552824D01*
X164490936Y-141606251D01*
X164486904Y-141673791D01*
X164486904Y-142720160D01*
X164066878Y-142720160D01*
X164066878Y-141052153D01*
X164486904Y-141052153D01*
X173513096Y-141052153D01*
X173933122Y-141052153D01*
X173933122Y-143347847D01*
G37*
G36*
X167850305Y-141873136D02*
G01*
X167956655Y-141951009D01*
X168029236Y-142066180D01*
X168053429Y-142204032D01*
X168029488Y-142342893D01*
X167957663Y-142457056D01*
X167851061Y-142533417D01*
X167722785Y-142558870D01*
X167598541Y-142532661D01*
X167491939Y-142454032D01*
X167418602Y-142339113D01*
X167394156Y-142204032D01*
X167418350Y-142066180D01*
X167490930Y-141951009D01*
X167597785Y-141873136D01*
X167724801Y-141847178D01*
X167850305Y-141873136D01*
G37*
G36*
X171782252Y-141843146D02*
G01*
X171811486Y-141927823D01*
X171775196Y-141997379D01*
X171676406Y-142022581D01*
X171591729Y-141995363D01*
X171559471Y-141923791D01*
X171589713Y-141842138D01*
X171686487Y-141816936D01*
X171782252Y-141843146D01*
G37*
%TO.C,kibuzzard-665A1D5A*%
G36*
X143653896Y-139685690D02*
G01*
X143653896Y-140764317D01*
X143653896Y-141546574D01*
X143653896Y-142695765D01*
X143653896Y-143893343D01*
X143653896Y-145312695D01*
X143653896Y-146197774D01*
X143653896Y-146617800D01*
X141346104Y-146617800D01*
X141346104Y-146197774D01*
X141346104Y-146012291D01*
X141790324Y-146012291D01*
X141804437Y-146119145D01*
X141850808Y-146175597D01*
X141906251Y-146194750D01*
X141973791Y-146197774D01*
X143014112Y-146197774D01*
X143083668Y-146194750D01*
X143139112Y-146175597D01*
X143185483Y-146119145D01*
X143199595Y-146014307D01*
X143185483Y-145907452D01*
X143140120Y-145851001D01*
X143085684Y-145831847D01*
X143016128Y-145828823D01*
X142820564Y-145828823D01*
X142820564Y-145641324D01*
X143112902Y-145425598D01*
X143206652Y-145312695D01*
X143151208Y-145169550D01*
X143032257Y-145072776D01*
X142893144Y-145127212D01*
X142699596Y-145272373D01*
X142589830Y-145173807D01*
X142459453Y-145114667D01*
X142308468Y-145094954D01*
X142188761Y-145107554D01*
X142079638Y-145145357D01*
X141986644Y-145203068D01*
X141915324Y-145275397D01*
X141861896Y-145356546D01*
X141822582Y-145440719D01*
X141798388Y-145525144D01*
X141790324Y-145607049D01*
X141790324Y-146012291D01*
X141346104Y-146012291D01*
X141346104Y-144332858D01*
X141790324Y-144332858D01*
X141819558Y-144431649D01*
X141897179Y-144502213D01*
X142945564Y-145008260D01*
X143087700Y-145034470D01*
X143185483Y-144921567D01*
X143214716Y-144774390D01*
X143102821Y-144673584D01*
X142909273Y-144580842D01*
X142909273Y-144084875D01*
X143100805Y-143992133D01*
X143216732Y-143893343D01*
X143187499Y-143744150D01*
X143088708Y-143632255D01*
X142945564Y-143659473D01*
X141899195Y-144165520D01*
X141817542Y-144234572D01*
X141790324Y-144332858D01*
X141346104Y-144332858D01*
X141346104Y-142690725D01*
X141771171Y-142690725D01*
X141852824Y-142816732D01*
X142254033Y-143167538D01*
X141975808Y-143167538D01*
X141906251Y-143170562D01*
X141850808Y-143189716D01*
X141804437Y-143246167D01*
X141790324Y-143351006D01*
X141804437Y-143457860D01*
X141850808Y-143514312D01*
X141906251Y-143533465D01*
X141973791Y-143536489D01*
X143016128Y-143536489D01*
X143085684Y-143533465D01*
X143141128Y-143514312D01*
X143187499Y-143457860D01*
X143201612Y-143353022D01*
X143187499Y-143246167D01*
X143142136Y-143189716D01*
X143087700Y-143170562D01*
X143018144Y-143167538D01*
X142733870Y-143167538D01*
X143135079Y-142814716D01*
X143221773Y-142695765D01*
X143157257Y-142552620D01*
X143029233Y-142464919D01*
X142895161Y-142534475D01*
X142497984Y-142931652D01*
X142094759Y-142536491D01*
X141965727Y-142469959D01*
X141903731Y-142492136D01*
X141834679Y-142554636D01*
X141771171Y-142690725D01*
X141346104Y-142690725D01*
X141346104Y-141542541D01*
X141788308Y-141542541D01*
X141801413Y-141650404D01*
X141844759Y-141707864D01*
X141897179Y-141727017D01*
X141963711Y-141730041D01*
X142457661Y-141730041D01*
X142457661Y-141994153D01*
X141943549Y-141869154D01*
X141854840Y-141897379D01*
X141796372Y-142014315D01*
X141794356Y-142166532D01*
X141927420Y-142242137D01*
X142554435Y-142397378D01*
X142618951Y-142403427D01*
X142688508Y-142400403D01*
X142743951Y-142381249D01*
X142790322Y-142324798D01*
X142804435Y-142219959D01*
X142804435Y-141730041D01*
X143014112Y-141730041D01*
X143083668Y-141727017D01*
X143139112Y-141707864D01*
X143185483Y-141651412D01*
X143199595Y-141546574D01*
X143185483Y-141439719D01*
X143141128Y-141383268D01*
X143085684Y-141363106D01*
X143016128Y-141359074D01*
X141973791Y-141359074D01*
X141905243Y-141363106D01*
X141848792Y-141382260D01*
X141802421Y-141437703D01*
X141788308Y-141542541D01*
X141346104Y-141542541D01*
X141346104Y-140496173D01*
X141790324Y-140496173D01*
X141805193Y-140661369D01*
X141849800Y-140810184D01*
X141924144Y-140942618D01*
X142028227Y-141058671D01*
X142129114Y-141136333D01*
X142241452Y-141196736D01*
X142365242Y-141239881D01*
X142500484Y-141265768D01*
X142647177Y-141274397D01*
X142814403Y-141259276D01*
X142955868Y-141213913D01*
X143071571Y-141138308D01*
X143157257Y-141036270D01*
X143208668Y-140911606D01*
X143225805Y-140764317D01*
X143210908Y-140635621D01*
X143166217Y-140521038D01*
X143091733Y-140420568D01*
X142995743Y-140342723D01*
X142886536Y-140296016D01*
X142764112Y-140280447D01*
X142657146Y-140296016D01*
X142559364Y-140342723D01*
X142470766Y-140420568D01*
X142400762Y-140519470D01*
X142358759Y-140629349D01*
X142344758Y-140750204D01*
X142364920Y-140857059D01*
X142291331Y-140808924D01*
X142223791Y-140737099D01*
X142175404Y-140637049D01*
X142159275Y-140504237D01*
X142156251Y-140434681D01*
X142137097Y-140379237D01*
X142080646Y-140332866D01*
X141975808Y-140318754D01*
X141869961Y-140331858D01*
X141814517Y-140375205D01*
X141794356Y-140428632D01*
X141790324Y-140496173D01*
X141346104Y-140496173D01*
X141346104Y-139685690D01*
X141770163Y-139685690D01*
X141779235Y-139797585D01*
X141803429Y-139890327D01*
X141838711Y-139964924D01*
X141880042Y-140024399D01*
X141923388Y-140068754D01*
X141963711Y-140101012D01*
X141996977Y-140121173D01*
X142019154Y-140132262D01*
X142026211Y-140135286D01*
X142165323Y-140164520D01*
X142276210Y-140064722D01*
X142312276Y-139956747D01*
X142288755Y-139872070D01*
X142205646Y-139810690D01*
X142145162Y-139752222D01*
X142125001Y-139665529D01*
X142150202Y-139573795D01*
X142219759Y-139540529D01*
X142271170Y-139569763D01*
X142284275Y-139663513D01*
X142284275Y-139677626D01*
X142287299Y-139742142D01*
X142304436Y-139793553D01*
X142356855Y-139835892D01*
X142457661Y-139848996D01*
X142546371Y-139836900D01*
X142598790Y-139812706D01*
X142623992Y-139767343D01*
X142633064Y-139720972D01*
X142633064Y-139665529D01*
X142662298Y-139549098D01*
X142749999Y-139510287D01*
X142833669Y-139557666D01*
X142864919Y-139683674D01*
X142853830Y-139755247D01*
X142829636Y-139803634D01*
X142799395Y-139833875D01*
X142775201Y-139848996D01*
X142764112Y-139853029D01*
X142669354Y-139911496D01*
X142647177Y-140022383D01*
X142678931Y-140173593D01*
X142774193Y-140223996D01*
X142889000Y-140206075D01*
X142994175Y-140152311D01*
X143089717Y-140062706D01*
X143165321Y-139949131D01*
X143210684Y-139823459D01*
X143225805Y-139685690D01*
X143210684Y-139537505D01*
X143165321Y-139407465D01*
X143089717Y-139295570D01*
X142991038Y-139209885D01*
X142876455Y-139158474D01*
X142745967Y-139141337D01*
X142649193Y-139154945D01*
X142568548Y-139195772D01*
X142459677Y-139308675D01*
X142359375Y-139204340D01*
X142211694Y-139169562D01*
X142103495Y-139185131D01*
X142002017Y-139231838D01*
X141907259Y-139309683D01*
X141831095Y-139413737D01*
X141785396Y-139539073D01*
X141770163Y-139685690D01*
X141346104Y-139685690D01*
X141346104Y-138540531D01*
X141770163Y-138540531D01*
X141783520Y-138667547D01*
X141823590Y-138778434D01*
X141883318Y-138869664D01*
X141955646Y-138937708D01*
X142040828Y-138988867D01*
X142139114Y-139029442D01*
X142238912Y-139058423D01*
X142328629Y-139074804D01*
X142413307Y-139082365D01*
X142497984Y-139084885D01*
X142645161Y-139076821D01*
X142805443Y-139048595D01*
X142889112Y-139023141D01*
X142964717Y-138987103D01*
X143097781Y-138888313D01*
X143152468Y-138822537D01*
X143193547Y-138740128D01*
X143219253Y-138643858D01*
X143227821Y-138536499D01*
X143215220Y-138415028D01*
X143177418Y-138308677D01*
X143120462Y-138220471D01*
X143050402Y-138153435D01*
X142967489Y-138102276D01*
X142871975Y-138061702D01*
X142773185Y-138032216D01*
X142680443Y-138014323D01*
X142590474Y-138005250D01*
X142500000Y-138002226D01*
X142411795Y-138004998D01*
X142324597Y-138013315D01*
X142233619Y-138030452D01*
X142134073Y-138059685D01*
X142036795Y-138100260D01*
X141952622Y-138151419D01*
X141881302Y-138218959D01*
X141822582Y-138308677D01*
X141783268Y-138417044D01*
X141770163Y-138540531D01*
X141346104Y-138540531D01*
X141346104Y-138002226D01*
X141346104Y-137582200D01*
X143653896Y-137582200D01*
X143653896Y-138002226D01*
X143653896Y-138536499D01*
X143653896Y-139685690D01*
G37*
G36*
X142588710Y-138372185D02*
G01*
X142677419Y-138383274D01*
X142768145Y-138409483D01*
X142829636Y-138460894D01*
X142856854Y-138544564D01*
X142834551Y-138619538D01*
X142767641Y-138673092D01*
X142656124Y-138705224D01*
X142500000Y-138715934D01*
X142342112Y-138705098D01*
X142229335Y-138672587D01*
X142161669Y-138618404D01*
X142139114Y-138542547D01*
X142161543Y-138467573D01*
X142228831Y-138414019D01*
X142340978Y-138381887D01*
X142497984Y-138371177D01*
X142508064Y-138371177D01*
X142588710Y-138372185D01*
G37*
G36*
X142417339Y-145510275D02*
G01*
X142453629Y-145607049D01*
X142453629Y-145828823D01*
X142159275Y-145828823D01*
X142159275Y-145611082D01*
X142201613Y-145507251D01*
X142306452Y-145463905D01*
X142417339Y-145510275D01*
G37*
G36*
X142855846Y-140675608D02*
G01*
X142881048Y-140772382D01*
X142854838Y-140867140D01*
X142770161Y-140895365D01*
X142701612Y-140859075D01*
X142675403Y-140760285D01*
X142702621Y-140677624D01*
X142774193Y-140645366D01*
X142855846Y-140675608D01*
G37*
G36*
X142594758Y-144429632D02*
G01*
X142399194Y-144334875D01*
X142594758Y-144240117D01*
X142594758Y-144429632D01*
G37*
%TO.C,kibuzzard-665A1CD2*%
G36*
X177016390Y-118648855D02*
G01*
X176596364Y-118648855D01*
X176041930Y-118648855D01*
X174943142Y-118648855D01*
X173822176Y-118648855D01*
X172124599Y-118648855D01*
X171336294Y-118648855D01*
X170541941Y-118648855D01*
X170003636Y-118648855D01*
X169583610Y-118648855D01*
X169583610Y-117775201D01*
X170003636Y-117775201D01*
X170021557Y-117890008D01*
X170075320Y-117995183D01*
X170164926Y-118090725D01*
X170278501Y-118166329D01*
X170404172Y-118211692D01*
X170541941Y-118226813D01*
X170690126Y-118211692D01*
X170820166Y-118166329D01*
X170932061Y-118090725D01*
X170997711Y-118015120D01*
X171142746Y-118015120D01*
X171186093Y-118162297D01*
X171336294Y-118204636D01*
X171486496Y-118162297D01*
X171529842Y-118013104D01*
X171519258Y-117920614D01*
X171487504Y-117860886D01*
X171338310Y-117817540D01*
X171245821Y-117828376D01*
X171186093Y-117860886D01*
X171153583Y-117921118D01*
X171142746Y-118015120D01*
X170997711Y-118015120D01*
X171017746Y-117992047D01*
X171069158Y-117877463D01*
X171082588Y-117775201D01*
X171586294Y-117775201D01*
X171604215Y-117890008D01*
X171657978Y-117995183D01*
X171747584Y-118090725D01*
X171861159Y-118166329D01*
X171986831Y-118211692D01*
X172124599Y-118226813D01*
X172272784Y-118211692D01*
X172402824Y-118166329D01*
X172514719Y-118090725D01*
X172600405Y-117992047D01*
X172612667Y-117964717D01*
X174477417Y-117964717D01*
X174554030Y-118087700D01*
X174596368Y-118123991D01*
X174733465Y-118193547D01*
X174834271Y-118220009D01*
X174943142Y-118228829D01*
X175074190Y-118212812D01*
X175190453Y-118164761D01*
X175291932Y-118084676D01*
X175370336Y-117981070D01*
X175417379Y-117862454D01*
X175433060Y-117728830D01*
X175416931Y-117608871D01*
X175368544Y-117498992D01*
X175287899Y-117399194D01*
X175185973Y-117320229D01*
X175139012Y-117300404D01*
X175495560Y-117300404D01*
X175523786Y-117444557D01*
X175880640Y-118123991D01*
X175944148Y-118190523D01*
X176041930Y-118212700D01*
X176139712Y-118190523D01*
X176203220Y-118123991D01*
X176560074Y-117444557D01*
X176593340Y-117345766D01*
X176569147Y-117265121D01*
X176479429Y-117196573D01*
X176332252Y-117163307D01*
X176278825Y-117199849D01*
X176231446Y-117279234D01*
X176041930Y-117710685D01*
X175852414Y-117279234D01*
X175754632Y-117164315D01*
X175604431Y-117196573D01*
X175495560Y-117300404D01*
X175139012Y-117300404D01*
X175073742Y-117272850D01*
X174951206Y-117257057D01*
X174941126Y-117257057D01*
X174906852Y-117261089D01*
X174920965Y-117154235D01*
X175231448Y-117154235D01*
X175295964Y-117151210D01*
X175348383Y-117133065D01*
X175391730Y-117079638D01*
X175404835Y-116978832D01*
X175390722Y-116868953D01*
X175345359Y-116812501D01*
X175290923Y-116793348D01*
X175221367Y-116789316D01*
X174759674Y-116787300D01*
X174663909Y-116805445D01*
X174607457Y-116858872D01*
X174584272Y-116914316D01*
X174574191Y-116970767D01*
X174499594Y-117543347D01*
X174524796Y-117601814D01*
X174614514Y-117662298D01*
X174745562Y-117702621D01*
X174858465Y-117654234D01*
X174937094Y-117626008D01*
X175025803Y-117659274D01*
X175062093Y-117742943D01*
X175027819Y-117827620D01*
X174931045Y-117857862D01*
X174814110Y-117825604D01*
X174677013Y-117759072D01*
X174552014Y-117827620D01*
X174477417Y-117964717D01*
X172612667Y-117964717D01*
X172651816Y-117877463D01*
X172668953Y-117746975D01*
X172655344Y-117650201D01*
X172614517Y-117569556D01*
X172501615Y-117460686D01*
X172585501Y-117380041D01*
X173197178Y-117380041D01*
X173207258Y-117472782D01*
X173252117Y-117524194D01*
X173342339Y-117541331D01*
X173822176Y-117541331D01*
X173922983Y-117523185D01*
X173958265Y-117473790D01*
X173969353Y-117382057D01*
X173957257Y-117289315D01*
X173913910Y-117239416D01*
X173824193Y-117222783D01*
X173344355Y-117222783D01*
X173247581Y-117240928D01*
X173209274Y-117289315D01*
X173197178Y-117380041D01*
X172585501Y-117380041D01*
X172605949Y-117360383D01*
X172640727Y-117212702D01*
X172625158Y-117104503D01*
X172578451Y-117003025D01*
X172500606Y-116908267D01*
X172396552Y-116832103D01*
X172271216Y-116786404D01*
X172124599Y-116771171D01*
X172012704Y-116780243D01*
X171919962Y-116804437D01*
X171845366Y-116839719D01*
X171785890Y-116881050D01*
X171741535Y-116924396D01*
X171709277Y-116964719D01*
X171689116Y-116997985D01*
X171678027Y-117020162D01*
X171675003Y-117027219D01*
X171645769Y-117166331D01*
X171745568Y-117277218D01*
X171853542Y-117313284D01*
X171938220Y-117289763D01*
X171999599Y-117206654D01*
X172058067Y-117146170D01*
X172144760Y-117126009D01*
X172236494Y-117151210D01*
X172269760Y-117220767D01*
X172240526Y-117272178D01*
X172146776Y-117285283D01*
X172132664Y-117285283D01*
X172068148Y-117288307D01*
X172016736Y-117305444D01*
X171974398Y-117357863D01*
X171961293Y-117458669D01*
X171973390Y-117547379D01*
X171997583Y-117599798D01*
X172042946Y-117625000D01*
X172089317Y-117634072D01*
X172144760Y-117634072D01*
X172261192Y-117663306D01*
X172300002Y-117751008D01*
X172252623Y-117834677D01*
X172126615Y-117865927D01*
X172055043Y-117854838D01*
X172006656Y-117830645D01*
X171976414Y-117800403D01*
X171961293Y-117776209D01*
X171957261Y-117765120D01*
X171898793Y-117670363D01*
X171787906Y-117648185D01*
X171636697Y-117679939D01*
X171586294Y-117775201D01*
X171082588Y-117775201D01*
X171086295Y-117746975D01*
X171072686Y-117650201D01*
X171031859Y-117569556D01*
X170918956Y-117460686D01*
X171023291Y-117360383D01*
X171058069Y-117212702D01*
X171042500Y-117104503D01*
X170995793Y-117003025D01*
X170917948Y-116908267D01*
X170813894Y-116832103D01*
X170688558Y-116786404D01*
X170541941Y-116771171D01*
X170430046Y-116780243D01*
X170337304Y-116804437D01*
X170262708Y-116839719D01*
X170203232Y-116881050D01*
X170158877Y-116924396D01*
X170126619Y-116964719D01*
X170106458Y-116997985D01*
X170095369Y-117020162D01*
X170092345Y-117027219D01*
X170063111Y-117166331D01*
X170162909Y-117277218D01*
X170270884Y-117313284D01*
X170355561Y-117289763D01*
X170416941Y-117206654D01*
X170475409Y-117146170D01*
X170562102Y-117126009D01*
X170653836Y-117151210D01*
X170687102Y-117220767D01*
X170657868Y-117272178D01*
X170564118Y-117285283D01*
X170550005Y-117285283D01*
X170485489Y-117288307D01*
X170434078Y-117305444D01*
X170391740Y-117357863D01*
X170378635Y-117458669D01*
X170390732Y-117547379D01*
X170414925Y-117599798D01*
X170460288Y-117625000D01*
X170506659Y-117634072D01*
X170562102Y-117634072D01*
X170678533Y-117663306D01*
X170717344Y-117751008D01*
X170669965Y-117834677D01*
X170543957Y-117865927D01*
X170472385Y-117854838D01*
X170423998Y-117830645D01*
X170393756Y-117800403D01*
X170378635Y-117776209D01*
X170374603Y-117765120D01*
X170316135Y-117670363D01*
X170205248Y-117648185D01*
X170054039Y-117679939D01*
X170003636Y-117775201D01*
X169583610Y-117775201D01*
X169583610Y-116351145D01*
X170003636Y-116351145D01*
X176596364Y-116351145D01*
X177016390Y-116351145D01*
X177016390Y-118648855D01*
G37*
%TO.C,kibuzzard-665A1CA2*%
G36*
X153052880Y-159550871D02*
G01*
X152632854Y-159550871D01*
X152485677Y-159550871D01*
X151126809Y-159550871D01*
X149709473Y-159550871D01*
X148046170Y-159550871D01*
X146243754Y-159550871D01*
X144632870Y-159550871D01*
X144167146Y-159550871D01*
X143747120Y-159550871D01*
X143747120Y-158574395D01*
X144167146Y-158574395D01*
X144179242Y-158671169D01*
X144218557Y-158721572D01*
X144264928Y-158738709D01*
X144322387Y-158741733D01*
X144467548Y-158741733D01*
X144467548Y-158872781D01*
X144470572Y-158934273D01*
X144487709Y-158984676D01*
X144538113Y-159027015D01*
X144632870Y-159040120D01*
X144729644Y-159027015D01*
X144780048Y-158985684D01*
X144797185Y-158936289D01*
X144800209Y-158874797D01*
X144800209Y-158741733D01*
X144943354Y-158741733D01*
X145000813Y-158738709D01*
X145047184Y-158721572D01*
X145086499Y-158671169D01*
X145098595Y-158576411D01*
X145085490Y-158478629D01*
X145044160Y-158427218D01*
X144994765Y-158410081D01*
X144933273Y-158407056D01*
X144800209Y-158407056D01*
X144800209Y-158276008D01*
X144797185Y-158214516D01*
X144780048Y-158165121D01*
X144729644Y-158123791D01*
X144634887Y-158110686D01*
X144538113Y-158122783D01*
X144487709Y-158163105D01*
X144470572Y-158212500D01*
X144467548Y-158273992D01*
X144467548Y-158407056D01*
X144336500Y-158407056D01*
X144274000Y-158410081D01*
X144222589Y-158427218D01*
X144180250Y-158477621D01*
X144167146Y-158574395D01*
X143747120Y-158574395D01*
X143747120Y-157846574D01*
X145630852Y-157846574D01*
X145642949Y-157937299D01*
X145681255Y-157984678D01*
X145726618Y-158000807D01*
X145784078Y-158003831D01*
X146064319Y-158003831D01*
X146064319Y-158925201D01*
X146067343Y-158992741D01*
X146085488Y-159047176D01*
X146139924Y-159092539D01*
X146243754Y-159106652D01*
X146348593Y-159092539D01*
X146405044Y-159048184D01*
X146424197Y-158994757D01*
X146427177Y-158928225D01*
X146908067Y-158928225D01*
X146987704Y-159056249D01*
X147124801Y-159127821D01*
X147247785Y-159044152D01*
X147586494Y-158673185D01*
X147923186Y-159044152D01*
X148046170Y-159127821D01*
X148183267Y-159056249D01*
X148262903Y-158928225D01*
X148258050Y-158919152D01*
X148824394Y-158919152D01*
X148827418Y-158988709D01*
X148846572Y-159044152D01*
X148903023Y-159090523D01*
X149007862Y-159104636D01*
X149114716Y-159090523D01*
X149171168Y-159045160D01*
X149190321Y-158990725D01*
X149193345Y-158921168D01*
X149193345Y-158725604D01*
X149380845Y-158725604D01*
X149596570Y-159017942D01*
X149709473Y-159111692D01*
X149852618Y-159056249D01*
X149949392Y-158937297D01*
X149945842Y-158928225D01*
X149988706Y-158928225D01*
X150068343Y-159056249D01*
X150205440Y-159127821D01*
X150328424Y-159044152D01*
X150667133Y-158673185D01*
X151003825Y-159044152D01*
X151126809Y-159127821D01*
X151263906Y-159056249D01*
X151343543Y-158928225D01*
X151273986Y-158798185D01*
X150913100Y-158401008D01*
X151019944Y-158284073D01*
X151860679Y-158284073D01*
X151870759Y-158376815D01*
X151915618Y-158428226D01*
X152005840Y-158445363D01*
X152485677Y-158445363D01*
X152586484Y-158427218D01*
X152621766Y-158377823D01*
X152632854Y-158286089D01*
X152620758Y-158193347D01*
X152577411Y-158143448D01*
X152487693Y-158126815D01*
X152007856Y-158126815D01*
X151911082Y-158144960D01*
X151872775Y-158193347D01*
X151860679Y-158284073D01*
X151019944Y-158284073D01*
X151276002Y-158003831D01*
X151344551Y-157874799D01*
X151265922Y-157743751D01*
X151128825Y-157672179D01*
X151005842Y-157755848D01*
X150667133Y-158128831D01*
X150326407Y-157755848D01*
X150203424Y-157672179D01*
X150066327Y-157743751D01*
X149988706Y-157874799D01*
X150056247Y-158003831D01*
X150419149Y-158401008D01*
X150058263Y-158798185D01*
X149988706Y-158928225D01*
X149945842Y-158928225D01*
X149894957Y-158798185D01*
X149749796Y-158604637D01*
X149848362Y-158494870D01*
X149907501Y-158364494D01*
X149927215Y-158213508D01*
X149914614Y-158093801D01*
X149876812Y-157984678D01*
X149819100Y-157891684D01*
X149746771Y-157820364D01*
X149665622Y-157766937D01*
X149581449Y-157727622D01*
X149497024Y-157703429D01*
X149415119Y-157695364D01*
X149009878Y-157695364D01*
X148903023Y-157709477D01*
X148846572Y-157755848D01*
X148827418Y-157811291D01*
X148824394Y-157878832D01*
X148824394Y-158919152D01*
X148258050Y-158919152D01*
X148193347Y-158798185D01*
X147832461Y-158401008D01*
X148195363Y-158003831D01*
X148263912Y-157874799D01*
X148185283Y-157743751D01*
X148048186Y-157672179D01*
X147925203Y-157755848D01*
X147586494Y-158128831D01*
X147245768Y-157755848D01*
X147122785Y-157672179D01*
X146985688Y-157743751D01*
X146908067Y-157874799D01*
X146975608Y-158003831D01*
X147338510Y-158401008D01*
X146977624Y-158798185D01*
X146908067Y-158928225D01*
X146427177Y-158928225D01*
X146427222Y-158927217D01*
X146427222Y-158003831D01*
X146705447Y-158003831D01*
X146762906Y-158000807D01*
X146809277Y-157984678D01*
X146848592Y-157937299D01*
X146860689Y-157848590D01*
X146848592Y-157759880D01*
X146810285Y-157712501D01*
X146764923Y-157696372D01*
X146707463Y-157693348D01*
X145786094Y-157693348D01*
X145728634Y-157696372D01*
X145682263Y-157712501D01*
X145642949Y-157758872D01*
X145630852Y-157846574D01*
X143747120Y-157846574D01*
X143747120Y-157249129D01*
X144167146Y-157249129D01*
X152632854Y-157249129D01*
X153052880Y-157249129D01*
X153052880Y-159550871D01*
G37*
G36*
X149514917Y-158106654D02*
G01*
X149558264Y-158211492D01*
X149511893Y-158322379D01*
X149415119Y-158358669D01*
X149193345Y-158358669D01*
X149193345Y-158064315D01*
X149411087Y-158064315D01*
X149514917Y-158106654D01*
G37*
%TO.C,kibuzzard-665A1C85*%
G36*
X130024252Y-156944823D02*
G01*
X129604226Y-156944823D01*
X129457049Y-156944823D01*
X127140521Y-156944823D01*
X126162701Y-156944823D01*
X124461091Y-156944823D01*
X122261499Y-156944823D01*
X121795774Y-156944823D01*
X121375748Y-156944823D01*
X121375748Y-155970363D01*
X121795774Y-155970363D01*
X121807871Y-156067137D01*
X121847185Y-156117540D01*
X121893556Y-156134677D01*
X121951016Y-156137701D01*
X122096177Y-156137701D01*
X122096177Y-156268749D01*
X122099201Y-156330241D01*
X122116338Y-156380644D01*
X122166741Y-156422983D01*
X122261499Y-156436087D01*
X122358273Y-156422983D01*
X122408676Y-156381652D01*
X122425813Y-156332257D01*
X122428837Y-156270765D01*
X122428837Y-156137701D01*
X122571982Y-156137701D01*
X122629442Y-156134677D01*
X122675812Y-156117540D01*
X122715127Y-156067137D01*
X122727224Y-155972379D01*
X122714119Y-155874597D01*
X122672788Y-155823185D01*
X122623393Y-155806048D01*
X122561901Y-155803024D01*
X122428837Y-155803024D01*
X122428837Y-155788911D01*
X123731254Y-155788911D01*
X123744107Y-155935584D01*
X123782665Y-156069153D01*
X123840881Y-156184828D01*
X123912705Y-156277822D01*
X123996626Y-156353426D01*
X124091132Y-156416934D01*
X124189418Y-156466077D01*
X124284680Y-156498587D01*
X124375658Y-156516732D01*
X124461091Y-156522781D01*
X124591467Y-156510236D01*
X124716467Y-156472602D01*
X124836090Y-156409878D01*
X124918752Y-156348386D01*
X124930738Y-156317136D01*
X125979233Y-156317136D01*
X125982257Y-156386692D01*
X126001411Y-156442136D01*
X126057862Y-156488507D01*
X126162701Y-156502620D01*
X126269555Y-156488507D01*
X126326007Y-156443144D01*
X126345160Y-156388708D01*
X126348184Y-156319152D01*
X126348184Y-155809073D01*
X126432861Y-155809073D01*
X126445840Y-155951839D01*
X126484777Y-156083770D01*
X126549671Y-156204863D01*
X126640522Y-156315120D01*
X126749645Y-156406854D01*
X126869353Y-156472378D01*
X126999645Y-156511692D01*
X127140521Y-156524797D01*
X127277555Y-156511503D01*
X127404382Y-156471622D01*
X127521002Y-156405153D01*
X127627416Y-156312096D01*
X127716062Y-156200390D01*
X127779381Y-156077973D01*
X127817372Y-155944846D01*
X127830036Y-155801008D01*
X127819413Y-155680041D01*
X128832050Y-155680041D01*
X128842131Y-155772782D01*
X128886990Y-155824194D01*
X128977211Y-155841331D01*
X129457049Y-155841331D01*
X129557855Y-155823185D01*
X129593137Y-155773790D01*
X129604226Y-155682057D01*
X129592129Y-155589315D01*
X129548783Y-155539416D01*
X129459065Y-155522783D01*
X128979227Y-155522783D01*
X128882453Y-155540928D01*
X128844147Y-155589315D01*
X128832050Y-155680041D01*
X127819413Y-155680041D01*
X127817183Y-155654650D01*
X127778625Y-155520011D01*
X127714361Y-155397090D01*
X127624391Y-155285888D01*
X127516025Y-155193713D01*
X127396569Y-155127874D01*
X127266025Y-155088371D01*
X127124392Y-155075203D01*
X126985658Y-155088560D01*
X126857760Y-155128630D01*
X126740699Y-155195415D01*
X126634474Y-155288912D01*
X126546268Y-155401563D01*
X126483265Y-155525807D01*
X126445462Y-155661643D01*
X126432861Y-155809073D01*
X126348184Y-155809073D01*
X126348184Y-155276816D01*
X126345160Y-155207259D01*
X126326007Y-155151816D01*
X126269555Y-155105445D01*
X126164717Y-155091332D01*
X126057862Y-155105445D01*
X126001411Y-155151816D01*
X125982257Y-155207259D01*
X125979233Y-155274799D01*
X125979233Y-156317136D01*
X124930738Y-156317136D01*
X124946977Y-156274797D01*
X124902623Y-156157862D01*
X124830042Y-156071673D01*
X124761494Y-156042943D01*
X124660688Y-156083266D01*
X124559377Y-156133165D01*
X124453027Y-156149798D01*
X124299801Y-156117540D01*
X124226969Y-156072429D01*
X124161697Y-156001612D01*
X124115578Y-155909123D01*
X124100205Y-155798992D01*
X124108773Y-155713307D01*
X124134479Y-155637702D01*
X124224197Y-155527823D01*
X124338108Y-155468347D01*
X124453027Y-155448186D01*
X124501414Y-155450202D01*
X124541736Y-155457259D01*
X124573994Y-155465323D01*
X124601212Y-155475404D01*
X124620365Y-155486493D01*
X124637502Y-155497581D01*
X124650607Y-155506654D01*
X124759478Y-155553025D01*
X124829034Y-155525807D01*
X124904639Y-155444154D01*
X124948993Y-155331251D01*
X124929840Y-155270767D01*
X124892542Y-155228429D01*
X124838107Y-155190122D01*
X124710867Y-155127398D01*
X124587211Y-155089764D01*
X124467140Y-155077219D01*
X124378178Y-155083268D01*
X124284680Y-155101413D01*
X124187906Y-155133419D01*
X124089116Y-155181050D01*
X123994610Y-155242541D01*
X123910689Y-155316130D01*
X123839117Y-155406604D01*
X123781657Y-155518751D01*
X123743855Y-155647783D01*
X123731254Y-155788911D01*
X122428837Y-155788911D01*
X122428837Y-155671976D01*
X122425813Y-155610484D01*
X122408676Y-155561089D01*
X122358273Y-155519759D01*
X122263515Y-155506654D01*
X122166741Y-155518751D01*
X122116338Y-155559073D01*
X122099201Y-155608468D01*
X122096177Y-155669960D01*
X122096177Y-155803024D01*
X121965128Y-155803024D01*
X121902629Y-155806048D01*
X121851217Y-155823185D01*
X121808879Y-155873589D01*
X121795774Y-155970363D01*
X121375748Y-155970363D01*
X121375748Y-154655177D01*
X121795774Y-154655177D01*
X129604226Y-154655177D01*
X130024252Y-154655177D01*
X130024252Y-156944823D01*
G37*
G36*
X127257961Y-155470112D02*
G01*
X127364311Y-155547984D01*
X127436892Y-155663156D01*
X127461085Y-155801008D01*
X127437144Y-155939869D01*
X127365319Y-156054032D01*
X127258717Y-156130392D01*
X127130441Y-156155846D01*
X127006197Y-156129636D01*
X126899594Y-156051008D01*
X126826258Y-155936088D01*
X126801812Y-155801008D01*
X126826006Y-155663156D01*
X126898586Y-155547984D01*
X127005441Y-155470112D01*
X127132457Y-155444154D01*
X127257961Y-155470112D01*
G37*
%TO.C,kibuzzard-665A1C19*%
G36*
X115931023Y-153147699D02*
G01*
X115510997Y-153147699D01*
X114490571Y-153147699D01*
X113747887Y-153147699D01*
X113005203Y-153147699D01*
X112275647Y-153147699D01*
X110859670Y-153147699D01*
X110689003Y-153147699D01*
X110268977Y-153147699D01*
X110268977Y-152528873D01*
X110689003Y-152528873D01*
X110691816Y-152593577D01*
X110709633Y-152645152D01*
X110762146Y-152688288D01*
X110859670Y-152701416D01*
X110959070Y-152688288D01*
X111011583Y-152646090D01*
X111029400Y-152595452D01*
X111032213Y-152530749D01*
X111032213Y-152350704D01*
X111232888Y-152350704D01*
X111389489Y-152320697D01*
X111469197Y-152284125D01*
X111545153Y-152234425D01*
X111612435Y-152168550D01*
X111666120Y-152083450D01*
X111678308Y-152048754D01*
X111765520Y-152048754D01*
X111773022Y-152185663D01*
X111799278Y-152334763D01*
X111856480Y-152482924D01*
X111948378Y-152606705D01*
X112009565Y-152657577D01*
X112086225Y-152695790D01*
X112175778Y-152719702D01*
X112275647Y-152727673D01*
X112388643Y-152715951D01*
X112487574Y-152680786D01*
X112569626Y-152627804D01*
X112631985Y-152562632D01*
X112652815Y-152528873D01*
X112825158Y-152528873D01*
X112865480Y-152665782D01*
X113005203Y-152705167D01*
X113144925Y-152665782D01*
X113185247Y-152526998D01*
X113145862Y-152385400D01*
X113038908Y-152354326D01*
X113007078Y-152345078D01*
X112865480Y-152385400D01*
X112825158Y-152528873D01*
X112652815Y-152528873D01*
X112679575Y-152485503D01*
X112717319Y-152396653D01*
X112744747Y-152304755D01*
X112761392Y-152218484D01*
X112769832Y-152134791D01*
X112772645Y-152050630D01*
X112772526Y-152048754D01*
X113237760Y-152048754D01*
X113245262Y-152185663D01*
X113271519Y-152334763D01*
X113328720Y-152482924D01*
X113420618Y-152606705D01*
X113481805Y-152657577D01*
X113558465Y-152695790D01*
X113648018Y-152719702D01*
X113747887Y-152727673D01*
X113860883Y-152715951D01*
X113959814Y-152680786D01*
X114041866Y-152627804D01*
X114104225Y-152562632D01*
X114151815Y-152485503D01*
X114189559Y-152396653D01*
X114216987Y-152304755D01*
X114233632Y-152218484D01*
X114242072Y-152134791D01*
X114244885Y-152050630D01*
X114234570Y-151887464D01*
X114218628Y-151802834D01*
X114218146Y-151801193D01*
X114297398Y-151801193D01*
X114329984Y-151947010D01*
X114427743Y-152073135D01*
X114519536Y-152137735D01*
X114621124Y-152176494D01*
X114732506Y-152189414D01*
X114831906Y-152172535D01*
X114754803Y-152277769D01*
X114646026Y-152340910D01*
X114505575Y-152361957D01*
X114439933Y-152364770D01*
X114387420Y-152382587D01*
X114344285Y-152435100D01*
X114331156Y-152532624D01*
X114343347Y-152630148D01*
X114382732Y-152682661D01*
X114431494Y-152701416D01*
X114490571Y-152705167D01*
X114647524Y-152691453D01*
X114788301Y-152650310D01*
X114912902Y-152581738D01*
X115021328Y-152485738D01*
X115109123Y-152367349D01*
X115171834Y-152231612D01*
X115209460Y-152078527D01*
X115222002Y-151908094D01*
X115207936Y-151752535D01*
X115165738Y-151620940D01*
X115095408Y-151513309D01*
X115000281Y-151433602D01*
X114883689Y-151385777D01*
X114745634Y-151369836D01*
X114626021Y-151383693D01*
X114519745Y-151425266D01*
X114512961Y-151430323D01*
X114426805Y-151494554D01*
X114354912Y-151584056D01*
X114311777Y-151686268D01*
X114297398Y-151801193D01*
X114218146Y-151801193D01*
X114191434Y-151710233D01*
X114153690Y-151619742D01*
X114106101Y-151541441D01*
X114043272Y-151475096D01*
X113959814Y-151420473D01*
X113859008Y-151383902D01*
X113744136Y-151371711D01*
X113740748Y-151372068D01*
X113625981Y-151384136D01*
X113522831Y-151421411D01*
X113437966Y-151476972D01*
X113374669Y-151544254D01*
X113327079Y-151623492D01*
X113289335Y-151714921D01*
X113262376Y-151807757D01*
X113247138Y-151891215D01*
X113237760Y-152048754D01*
X112772526Y-152048754D01*
X112762330Y-151887464D01*
X112746388Y-151802834D01*
X112719194Y-151710233D01*
X112681450Y-151619742D01*
X112633860Y-151541441D01*
X112571032Y-151475096D01*
X112487574Y-151420473D01*
X112386768Y-151383902D01*
X112299028Y-151374591D01*
X112271896Y-151371711D01*
X112153741Y-151384136D01*
X112050591Y-151421411D01*
X111965726Y-151476972D01*
X111902429Y-151544254D01*
X111854839Y-151623492D01*
X111817095Y-151714921D01*
X111790136Y-151807757D01*
X111774897Y-151891215D01*
X111765520Y-152048754D01*
X111678308Y-152048754D01*
X111701285Y-151983347D01*
X111713007Y-151872460D01*
X111701051Y-151761105D01*
X111665183Y-151659595D01*
X111611029Y-151573089D01*
X111544215Y-151506745D01*
X111469197Y-151457045D01*
X111390427Y-151420473D01*
X111234763Y-151390466D01*
X110863014Y-151390466D01*
X110861546Y-151390466D01*
X110762146Y-151403594D01*
X110709633Y-151446730D01*
X110691816Y-151498305D01*
X110689003Y-151561133D01*
X110689003Y-152528873D01*
X110268977Y-152528873D01*
X110268977Y-150006488D01*
X110689932Y-150006488D01*
X110692785Y-150072107D01*
X110710854Y-150124412D01*
X110764110Y-150168158D01*
X110863014Y-150181472D01*
X110963821Y-150168158D01*
X111017077Y-150125363D01*
X111035146Y-150074009D01*
X111037999Y-150008390D01*
X111037999Y-149825797D01*
X111241513Y-149825797D01*
X111400331Y-149795365D01*
X111481166Y-149758276D01*
X111558197Y-149707873D01*
X111626432Y-149641065D01*
X111680876Y-149554762D01*
X111693237Y-149519574D01*
X111781683Y-149519574D01*
X111789291Y-149658421D01*
X111815919Y-149809630D01*
X111873930Y-149959889D01*
X111967128Y-150085421D01*
X112029181Y-150137013D01*
X112106926Y-150175766D01*
X112197746Y-150200017D01*
X112299028Y-150208100D01*
X112413624Y-150196213D01*
X112513955Y-150160550D01*
X112597167Y-150106818D01*
X112660409Y-150040724D01*
X112681533Y-150006488D01*
X112856315Y-150006488D01*
X112897208Y-150145334D01*
X113038908Y-150185276D01*
X113180607Y-150145334D01*
X113221500Y-150004586D01*
X113181558Y-149860984D01*
X113073581Y-149829612D01*
X113040810Y-149820091D01*
X112897208Y-149860984D01*
X112856315Y-150006488D01*
X112681533Y-150006488D01*
X112708672Y-149962504D01*
X112746950Y-149872396D01*
X112774767Y-149779198D01*
X112791647Y-149691706D01*
X112800206Y-149606829D01*
X112803059Y-149521476D01*
X112792598Y-149356002D01*
X112776431Y-149270174D01*
X112770915Y-149251392D01*
X113261442Y-149251392D01*
X113320405Y-149376924D01*
X113433574Y-149443494D01*
X113550547Y-149388336D01*
X113569567Y-149371218D01*
X113569567Y-150014096D01*
X113607607Y-150149138D01*
X113740748Y-150187178D01*
X113875790Y-150149138D01*
X113913830Y-150015998D01*
X113913830Y-149519574D01*
X113995616Y-149519574D01*
X114003224Y-149658421D01*
X114029852Y-149809630D01*
X114087863Y-149959889D01*
X114181062Y-150085421D01*
X114243115Y-150137013D01*
X114320859Y-150175766D01*
X114411680Y-150200017D01*
X114512961Y-150208100D01*
X114627557Y-150196213D01*
X114727888Y-150160550D01*
X114811101Y-150106818D01*
X114874342Y-150040724D01*
X114922606Y-149962504D01*
X114960884Y-149872396D01*
X114988700Y-149779198D01*
X115005581Y-149691706D01*
X115014140Y-149606829D01*
X115016993Y-149521476D01*
X115006532Y-149356002D01*
X114990365Y-149270174D01*
X114962786Y-149176263D01*
X114924508Y-149084491D01*
X114877482Y-149007119D01*
X114876244Y-149005082D01*
X114812527Y-148937799D01*
X114727888Y-148882403D01*
X114625655Y-148845314D01*
X114509157Y-148832951D01*
X114389331Y-148845552D01*
X114284721Y-148883354D01*
X114198655Y-148939701D01*
X114134463Y-149007935D01*
X114086199Y-149088295D01*
X114047921Y-149181018D01*
X114020580Y-149275167D01*
X114005126Y-149359806D01*
X113995616Y-149519574D01*
X113913830Y-149519574D01*
X113913830Y-149026955D01*
X113875790Y-148890962D01*
X113742650Y-148851971D01*
X113613313Y-148884305D01*
X113582881Y-148909031D01*
X113488382Y-148993857D01*
X113341327Y-149125859D01*
X113261442Y-149251392D01*
X112770915Y-149251392D01*
X112748852Y-149176263D01*
X112710574Y-149084491D01*
X112662311Y-149005082D01*
X112598594Y-148937799D01*
X112513955Y-148882403D01*
X112411722Y-148845314D01*
X112323081Y-148835907D01*
X112295224Y-148832951D01*
X112175398Y-148845552D01*
X112070787Y-148883354D01*
X111984722Y-148939701D01*
X111920529Y-149007935D01*
X111872266Y-149088295D01*
X111833988Y-149181018D01*
X111806647Y-149275167D01*
X111791193Y-149359806D01*
X111781683Y-149519574D01*
X111693237Y-149519574D01*
X111716539Y-149453242D01*
X111728427Y-149340786D01*
X111716301Y-149227854D01*
X111679925Y-149124908D01*
X111625005Y-149037179D01*
X111557246Y-148969895D01*
X111481166Y-148919492D01*
X111401282Y-148882403D01*
X111243415Y-148851971D01*
X110866454Y-148851971D01*
X110864916Y-148851971D01*
X110764110Y-148865285D01*
X110710854Y-148909031D01*
X110692785Y-148961336D01*
X110689932Y-149025053D01*
X110689932Y-150006488D01*
X110268977Y-150006488D01*
X110268977Y-147484038D01*
X110690888Y-147484038D01*
X110693782Y-147550599D01*
X110712110Y-147603655D01*
X110766130Y-147648029D01*
X110866454Y-147661534D01*
X110968708Y-147648029D01*
X111022728Y-147604620D01*
X111041057Y-147552528D01*
X111043951Y-147485967D01*
X111043951Y-147300754D01*
X111250386Y-147300754D01*
X111411483Y-147269885D01*
X111493479Y-147232264D01*
X111571616Y-147181137D01*
X111640830Y-147113370D01*
X111696056Y-147025828D01*
X111708594Y-146990136D01*
X111798309Y-146990136D01*
X111806027Y-147130975D01*
X111833037Y-147284355D01*
X111891881Y-147436770D01*
X111986417Y-147564104D01*
X112049360Y-147616437D01*
X112128221Y-147655746D01*
X112220345Y-147680345D01*
X112323081Y-147688545D01*
X112439321Y-147676486D01*
X112541092Y-147640312D01*
X112625499Y-147585809D01*
X112689649Y-147518766D01*
X112711077Y-147484038D01*
X112888367Y-147484038D01*
X112929847Y-147624877D01*
X113073581Y-147665393D01*
X113217314Y-147624877D01*
X113257112Y-147487897D01*
X113312815Y-147487897D01*
X113364906Y-147614266D01*
X113488382Y-147667322D01*
X114184861Y-147667322D01*
X114251422Y-147663464D01*
X114306407Y-147644171D01*
X114350781Y-147591115D01*
X114364287Y-147491755D01*
X114350781Y-147389502D01*
X114307372Y-147335482D01*
X114255281Y-147316188D01*
X114188720Y-147312330D01*
X113947556Y-147312330D01*
X114063315Y-147243839D01*
X114181002Y-147142551D01*
X114236711Y-147074061D01*
X114280362Y-146992065D01*
X114308578Y-146900423D01*
X114317983Y-146802993D01*
X114307693Y-146718104D01*
X114391297Y-146718104D01*
X114451105Y-146845438D01*
X114565899Y-146912963D01*
X114684551Y-146857014D01*
X114703844Y-146839650D01*
X114703844Y-147491755D01*
X114742431Y-147628736D01*
X114877482Y-147667322D01*
X115014463Y-147628736D01*
X115053049Y-147493685D01*
X115053049Y-146490445D01*
X115014463Y-146352500D01*
X114992285Y-146346005D01*
X114879411Y-146312949D01*
X114748219Y-146345747D01*
X114717350Y-146370828D01*
X114472328Y-146590769D01*
X114391297Y-146718104D01*
X114307693Y-146718104D01*
X114301691Y-146668585D01*
X114252816Y-146548325D01*
X114171356Y-146442213D01*
X114066530Y-146359681D01*
X113947556Y-146310162D01*
X113814434Y-146293656D01*
X113674667Y-146310806D01*
X113553764Y-146362254D01*
X113530105Y-146382135D01*
X113451725Y-146448001D01*
X113374552Y-146554970D01*
X113328249Y-146670085D01*
X113312815Y-146793346D01*
X113315709Y-146859908D01*
X113334037Y-146912963D01*
X113388058Y-146957338D01*
X113488382Y-146970843D01*
X113590635Y-146958302D01*
X113644655Y-146917787D01*
X113662984Y-146868589D01*
X113665878Y-146806852D01*
X113703499Y-146686752D01*
X113816364Y-146646719D01*
X113913794Y-146672765D01*
X113956238Y-146722927D01*
X113962991Y-146774053D01*
X113945868Y-146848332D01*
X113894501Y-146920681D01*
X113820946Y-146986277D01*
X113737262Y-147040298D01*
X113644173Y-147094559D01*
X113542402Y-147160879D01*
X113449313Y-147232022D01*
X113382270Y-147300754D01*
X113330178Y-147389984D01*
X113312815Y-147487897D01*
X113257112Y-147487897D01*
X113258794Y-147482109D01*
X113218279Y-147336446D01*
X113109264Y-147304773D01*
X113075510Y-147294966D01*
X112929847Y-147336446D01*
X112888367Y-147484038D01*
X112711077Y-147484038D01*
X112738605Y-147439423D01*
X112777432Y-147348022D01*
X112805648Y-147253486D01*
X112822771Y-147164738D01*
X112831453Y-147078643D01*
X112834347Y-146992065D01*
X112831694Y-146907658D01*
X112823736Y-146824215D01*
X112807336Y-146737155D01*
X112779362Y-146641896D01*
X112740534Y-146548807D01*
X112691578Y-146468258D01*
X112626946Y-146400009D01*
X112541092Y-146343818D01*
X112437392Y-146306197D01*
X112347834Y-146296693D01*
X112319222Y-146293656D01*
X112197676Y-146306438D01*
X112091564Y-146344783D01*
X112004263Y-146401938D01*
X111939149Y-146471152D01*
X111890193Y-146552666D01*
X111851365Y-146646719D01*
X111823631Y-146742220D01*
X111807956Y-146828074D01*
X111798309Y-146990136D01*
X111708594Y-146990136D01*
X111732231Y-146922851D01*
X111744289Y-146808781D01*
X111731989Y-146694228D01*
X111695091Y-146589805D01*
X111639383Y-146500815D01*
X111570651Y-146432566D01*
X111493479Y-146381440D01*
X111412448Y-146343818D01*
X111252316Y-146312949D01*
X110869995Y-146312949D01*
X110868384Y-146312949D01*
X110766130Y-146326454D01*
X110712110Y-146370828D01*
X110693782Y-146423884D01*
X110690888Y-146488516D01*
X110690888Y-147484038D01*
X110268977Y-147484038D01*
X110268977Y-144961522D01*
X110691871Y-144961522D01*
X110694807Y-145029052D01*
X110713402Y-145082881D01*
X110768210Y-145127901D01*
X110869995Y-145141603D01*
X110973737Y-145127901D01*
X111028544Y-145083859D01*
X111047140Y-145031010D01*
X111050076Y-144963479D01*
X111050076Y-144775568D01*
X111259518Y-144775568D01*
X111339527Y-144767739D01*
X111422961Y-144744250D01*
X111506151Y-144706081D01*
X111585425Y-144654209D01*
X111655647Y-144585456D01*
X111711678Y-144496639D01*
X111724399Y-144460427D01*
X111815420Y-144460427D01*
X111823250Y-144603317D01*
X111850653Y-144758931D01*
X111910354Y-144913565D01*
X112006267Y-145042754D01*
X112070127Y-145095849D01*
X112150136Y-145135731D01*
X112243602Y-145160687D01*
X112347834Y-145169006D01*
X112465767Y-145156773D01*
X112569020Y-145120071D01*
X112654657Y-145064775D01*
X112719740Y-144996755D01*
X112741480Y-144961522D01*
X112921353Y-144961522D01*
X112963437Y-145104412D01*
X113109264Y-145145518D01*
X113255090Y-145104412D01*
X113295468Y-144965437D01*
X113351981Y-144965437D01*
X113404831Y-145093646D01*
X113530105Y-145147475D01*
X114236728Y-145147475D01*
X114304258Y-145143560D01*
X114360044Y-145123986D01*
X114405064Y-145070158D01*
X114418766Y-144969351D01*
X114405064Y-144865609D01*
X114361023Y-144810802D01*
X114308173Y-144791228D01*
X114240642Y-144787313D01*
X113995967Y-144787313D01*
X114113411Y-144717825D01*
X114232813Y-144615061D01*
X114289333Y-144545574D01*
X114333619Y-144462384D01*
X114334222Y-144460427D01*
X114459872Y-144460427D01*
X114467701Y-144603317D01*
X114495105Y-144758931D01*
X114554806Y-144913565D01*
X114650718Y-145042754D01*
X114714579Y-145095849D01*
X114794587Y-145135731D01*
X114888053Y-145160687D01*
X114992285Y-145169006D01*
X115110219Y-145156773D01*
X115213472Y-145120071D01*
X115299108Y-145064775D01*
X115364192Y-144996755D01*
X115413861Y-144916257D01*
X115453254Y-144823525D01*
X115481881Y-144727612D01*
X115499252Y-144637572D01*
X115508061Y-144550222D01*
X115510997Y-144462384D01*
X115508305Y-144376748D01*
X115500231Y-144292090D01*
X115483593Y-144203762D01*
X115455211Y-144107115D01*
X115415818Y-144012671D01*
X115366149Y-143930949D01*
X115300576Y-143861706D01*
X115213472Y-143804697D01*
X115108261Y-143766527D01*
X114988370Y-143753804D01*
X114865054Y-143766772D01*
X114757397Y-143805675D01*
X114668824Y-143863663D01*
X114602762Y-143933885D01*
X114553093Y-144016585D01*
X114513700Y-144112009D01*
X114485562Y-144208900D01*
X114469659Y-144296005D01*
X114459872Y-144460427D01*
X114334222Y-144460427D01*
X114362246Y-144369407D01*
X114371788Y-144270558D01*
X114355259Y-144134193D01*
X114349717Y-144120556D01*
X114305672Y-144012181D01*
X114223026Y-143904524D01*
X114116674Y-143820791D01*
X113995967Y-143770551D01*
X113878957Y-143756042D01*
X113860906Y-143753804D01*
X113719103Y-143771203D01*
X113596439Y-143823401D01*
X113492914Y-143910396D01*
X113414618Y-144018923D01*
X113367641Y-144135715D01*
X113351981Y-144260771D01*
X113354918Y-144328302D01*
X113373513Y-144382130D01*
X113428320Y-144427151D01*
X113530105Y-144440853D01*
X113633848Y-144428129D01*
X113688655Y-144387024D01*
X113707250Y-144337110D01*
X113710186Y-144274473D01*
X113748356Y-144152625D01*
X113862864Y-144112009D01*
X113961712Y-144138434D01*
X114004775Y-144189326D01*
X114011626Y-144241197D01*
X113994254Y-144316557D01*
X113942138Y-144389960D01*
X113867512Y-144456512D01*
X113782610Y-144511319D01*
X113688165Y-144566371D01*
X113584912Y-144633657D01*
X113490468Y-144705836D01*
X113422448Y-144775568D01*
X113369598Y-144866098D01*
X113351981Y-144965437D01*
X113295468Y-144965437D01*
X113297174Y-144959564D01*
X113256069Y-144811780D01*
X113146001Y-144779801D01*
X113111221Y-144769696D01*
X112963437Y-144811780D01*
X112921353Y-144961522D01*
X112741480Y-144961522D01*
X112769409Y-144916257D01*
X112808802Y-144823525D01*
X112837429Y-144727612D01*
X112854801Y-144637572D01*
X112863609Y-144550222D01*
X112866546Y-144462384D01*
X112863854Y-144376748D01*
X112855780Y-144292090D01*
X112839142Y-144203762D01*
X112810760Y-144107115D01*
X112771367Y-144012671D01*
X112721698Y-143930949D01*
X112656125Y-143861706D01*
X112569020Y-143804697D01*
X112463810Y-143766527D01*
X112373319Y-143756924D01*
X112343919Y-143753804D01*
X112220603Y-143766772D01*
X112112945Y-143805675D01*
X112024373Y-143863663D01*
X111958311Y-143933885D01*
X111908642Y-144016585D01*
X111869249Y-144112009D01*
X111841111Y-144208900D01*
X111825207Y-144296005D01*
X111815420Y-144460427D01*
X111724399Y-144460427D01*
X111748379Y-144392162D01*
X111760613Y-144276431D01*
X111748134Y-144160210D01*
X111710699Y-144054265D01*
X111654179Y-143963980D01*
X111584447Y-143894737D01*
X111506151Y-143842866D01*
X111423940Y-143804697D01*
X111341239Y-143781208D01*
X111261475Y-143773378D01*
X110873639Y-143773378D01*
X110871952Y-143773378D01*
X110768210Y-143787080D01*
X110713402Y-143832100D01*
X110694807Y-143885929D01*
X110691871Y-143951502D01*
X110691871Y-144961522D01*
X110268977Y-144961522D01*
X110268977Y-142438936D01*
X110692883Y-142438936D01*
X110695863Y-142507464D01*
X110714733Y-142562088D01*
X110770350Y-142607774D01*
X110873639Y-142621678D01*
X110978915Y-142607774D01*
X111034532Y-142563081D01*
X111053402Y-142509450D01*
X111056382Y-142440922D01*
X111056382Y-142250234D01*
X111268919Y-142250234D01*
X111350110Y-142242289D01*
X111434778Y-142218453D01*
X111519197Y-142179720D01*
X111599643Y-142127082D01*
X111670903Y-142057312D01*
X111727761Y-141967182D01*
X111740670Y-141930435D01*
X111833037Y-141930435D01*
X111840982Y-142075437D01*
X111868791Y-142233350D01*
X111893868Y-142315783D01*
X111929374Y-142390271D01*
X112026704Y-142521368D01*
X112091508Y-142575247D01*
X112172699Y-142615719D01*
X112267547Y-142641045D01*
X112373319Y-142649487D01*
X112492995Y-142637072D01*
X112597774Y-142599828D01*
X112684676Y-142543715D01*
X112750721Y-142474690D01*
X112772782Y-142438936D01*
X112955313Y-142438936D01*
X112998019Y-142583938D01*
X113146001Y-142625651D01*
X113293983Y-142583938D01*
X113336689Y-142436949D01*
X113294976Y-142286981D01*
X113183841Y-142254692D01*
X113147987Y-142244275D01*
X112998019Y-142286981D01*
X112965990Y-142346323D01*
X112955313Y-142438936D01*
X112772782Y-142438936D01*
X112801124Y-142393002D01*
X112841099Y-142298899D01*
X112870149Y-142201569D01*
X112887778Y-142110198D01*
X112896717Y-142021558D01*
X112899696Y-141932421D01*
X112896965Y-141845519D01*
X112888771Y-141759611D01*
X112871887Y-141669978D01*
X112866127Y-141650363D01*
X113378402Y-141650363D01*
X113439978Y-141781460D01*
X113558164Y-141850982D01*
X113680324Y-141793378D01*
X113700187Y-141775501D01*
X113700187Y-142446881D01*
X113739914Y-142587910D01*
X113878957Y-142627637D01*
X114019986Y-142587910D01*
X114059713Y-142448867D01*
X114059713Y-141668240D01*
X114145125Y-141668240D01*
X114160464Y-141773515D01*
X114206481Y-141869521D01*
X114283175Y-141956257D01*
X114380395Y-142024675D01*
X114487988Y-142065726D01*
X114605954Y-142079410D01*
X114711229Y-142061533D01*
X114629569Y-142172988D01*
X114514362Y-142239861D01*
X114365608Y-142262152D01*
X114296086Y-142265132D01*
X114240469Y-142284002D01*
X114194783Y-142339619D01*
X114180879Y-142442908D01*
X114193790Y-142546197D01*
X114235503Y-142601815D01*
X114287148Y-142621678D01*
X114349717Y-142625651D01*
X114515948Y-142611126D01*
X114665047Y-142567550D01*
X114797014Y-142494925D01*
X114911848Y-142393250D01*
X114988362Y-142294410D01*
X115047872Y-142183811D01*
X115090380Y-142061453D01*
X115115884Y-141927336D01*
X115124386Y-141781460D01*
X115109488Y-141616705D01*
X115064796Y-141477331D01*
X114990308Y-141363338D01*
X114889557Y-141278919D01*
X114766074Y-141228267D01*
X114619858Y-141211384D01*
X114558838Y-141218453D01*
X114493174Y-141226060D01*
X114380615Y-141270091D01*
X114282182Y-141343475D01*
X114206039Y-141438267D01*
X114160354Y-141546522D01*
X114145125Y-141668240D01*
X114059713Y-141668240D01*
X114059713Y-141415976D01*
X114019986Y-141273953D01*
X113927791Y-141246953D01*
X113880943Y-141233233D01*
X113745873Y-141267001D01*
X113714091Y-141292823D01*
X113461827Y-141519265D01*
X113378402Y-141650363D01*
X112866127Y-141650363D01*
X112843086Y-141571903D01*
X112803111Y-141476062D01*
X112752708Y-141393133D01*
X112686166Y-141322866D01*
X112597774Y-141265015D01*
X112491009Y-141226281D01*
X112399568Y-141216577D01*
X112369346Y-141213370D01*
X112244207Y-141226529D01*
X112134959Y-141266008D01*
X112045078Y-141324853D01*
X111978039Y-141396112D01*
X111927636Y-141480035D01*
X111887661Y-141576868D01*
X111859107Y-141675192D01*
X111842968Y-141763583D01*
X111833037Y-141930435D01*
X111740670Y-141930435D01*
X111765005Y-141861162D01*
X111777420Y-141743720D01*
X111764757Y-141625782D01*
X111726768Y-141518272D01*
X111669413Y-141426652D01*
X111598650Y-141356386D01*
X111519197Y-141303748D01*
X111435771Y-141265015D01*
X111351848Y-141241179D01*
X111270905Y-141233233D01*
X110877394Y-141233233D01*
X110875626Y-141233233D01*
X110770350Y-141247138D01*
X110714733Y-141292823D01*
X110695863Y-141347447D01*
X110692883Y-141413989D01*
X110692883Y-142438936D01*
X110268977Y-142438936D01*
X110268977Y-139916277D01*
X110693926Y-139916277D01*
X110696950Y-139985833D01*
X110716104Y-140041276D01*
X110772555Y-140087647D01*
X110877394Y-140101760D01*
X110984248Y-140087647D01*
X111040700Y-140042284D01*
X111059853Y-139987849D01*
X111062877Y-139918293D01*
X111062877Y-139724745D01*
X111278602Y-139724745D01*
X111361012Y-139716680D01*
X111446949Y-139692487D01*
X111532634Y-139653172D01*
X111614287Y-139599745D01*
X111686616Y-139528929D01*
X111744327Y-139437447D01*
X111757430Y-139400149D01*
X111851182Y-139400149D01*
X111859246Y-139547326D01*
X111887472Y-139707608D01*
X111912926Y-139791277D01*
X111948964Y-139866882D01*
X112047754Y-139999946D01*
X112113530Y-140054633D01*
X112195939Y-140095712D01*
X112292209Y-140121417D01*
X112399568Y-140129986D01*
X112521039Y-140117385D01*
X112627390Y-140079583D01*
X112715596Y-140022627D01*
X112782632Y-139952567D01*
X112805024Y-139916277D01*
X112990293Y-139916277D01*
X113033639Y-140063454D01*
X113183841Y-140105792D01*
X113334042Y-140063454D01*
X113377389Y-139914260D01*
X113366804Y-139821771D01*
X113335050Y-139762043D01*
X113185857Y-139718696D01*
X113093367Y-139729533D01*
X113033639Y-139762043D01*
X113001129Y-139822275D01*
X112990293Y-139916277D01*
X112805024Y-139916277D01*
X112833791Y-139869654D01*
X112874365Y-139774140D01*
X112903851Y-139675350D01*
X112921744Y-139582608D01*
X112930817Y-139492638D01*
X112933841Y-139402165D01*
X112931069Y-139313959D01*
X112922752Y-139226762D01*
X112905615Y-139135784D01*
X112899768Y-139115875D01*
X113419727Y-139115875D01*
X113482227Y-139248939D01*
X113602187Y-139319504D01*
X113726178Y-139261036D01*
X113746339Y-139242891D01*
X113746339Y-139924341D01*
X113786662Y-140067486D01*
X113927791Y-140107808D01*
X114070936Y-140067486D01*
X114111258Y-139926357D01*
X114111258Y-138877972D01*
X114179806Y-138877972D01*
X114193919Y-138982811D01*
X114239282Y-139039262D01*
X114294725Y-139059423D01*
X114363274Y-139063456D01*
X114766499Y-139063456D01*
X114688878Y-139188455D01*
X114621338Y-139286742D01*
X114553798Y-139388052D01*
X114489029Y-139503727D01*
X114429806Y-139645108D01*
X114387467Y-139796569D01*
X114373354Y-139942486D01*
X114377387Y-140009018D01*
X114397548Y-140057405D01*
X114452991Y-140093696D01*
X114558838Y-140103776D01*
X114662668Y-140092688D01*
X114719120Y-140057405D01*
X114740289Y-140010026D01*
X114744321Y-139946518D01*
X114762718Y-139828575D01*
X114817910Y-139688454D01*
X114894775Y-139543545D01*
X114978192Y-139411237D01*
X115061609Y-139279433D01*
X115138474Y-139136036D01*
X115193665Y-138997428D01*
X115212062Y-138879988D01*
X115209038Y-138810432D01*
X115189885Y-138754989D01*
X115133433Y-138708618D01*
X115028595Y-138694505D01*
X114353193Y-138694505D01*
X114288677Y-138698537D01*
X114236258Y-138718698D01*
X114193919Y-138774142D01*
X114179806Y-138877972D01*
X114111258Y-138877972D01*
X114070936Y-138733819D01*
X113929807Y-138692489D01*
X113792710Y-138726763D01*
X113760452Y-138752972D01*
X113504404Y-138982811D01*
X113442913Y-139051359D01*
X113419727Y-139115875D01*
X112899768Y-139115875D01*
X112876382Y-139036238D01*
X112835807Y-138938960D01*
X112784648Y-138854787D01*
X112717108Y-138783466D01*
X112627390Y-138724747D01*
X112519023Y-138685432D01*
X112395536Y-138672327D01*
X112268520Y-138685684D01*
X112157633Y-138725755D01*
X112066403Y-138785482D01*
X111998359Y-138857811D01*
X111947200Y-138942992D01*
X111906625Y-139041278D01*
X111877644Y-139141077D01*
X111861263Y-139230794D01*
X111853702Y-139315471D01*
X111851182Y-139400149D01*
X111757430Y-139400149D01*
X111782130Y-139329836D01*
X111794730Y-139210633D01*
X111781878Y-139090925D01*
X111743319Y-138981803D01*
X111685104Y-138888809D01*
X111613279Y-138817488D01*
X111532634Y-138764061D01*
X111447957Y-138724747D01*
X111362776Y-138700553D01*
X111280619Y-138692489D01*
X110879410Y-138692489D01*
X110772555Y-138706602D01*
X110716104Y-138752972D01*
X110696950Y-138808416D01*
X110693926Y-138875956D01*
X110693926Y-139916277D01*
X110268977Y-139916277D01*
X110268977Y-138252301D01*
X110689003Y-138252301D01*
X115510997Y-138252301D01*
X115931023Y-138252301D01*
X115931023Y-153147699D01*
G37*
G36*
X112468494Y-139063708D02*
G01*
X112522048Y-139130996D01*
X112554180Y-139243143D01*
X112564890Y-139400149D01*
X112564890Y-139410229D01*
X112563882Y-139490874D01*
X112552793Y-139579584D01*
X112526584Y-139670309D01*
X112475173Y-139731801D01*
X112391503Y-139759019D01*
X112316529Y-139736715D01*
X112262975Y-139669805D01*
X112230843Y-139558288D01*
X112220133Y-139402165D01*
X112230969Y-139244277D01*
X112263480Y-139131500D01*
X112317663Y-139063834D01*
X112393520Y-139041278D01*
X112468494Y-139063708D01*
G37*
G36*
X112441226Y-141598966D02*
G01*
X112493988Y-141665260D01*
X112525645Y-141775750D01*
X112536198Y-141930435D01*
X112536198Y-141940367D01*
X112535204Y-142019820D01*
X112524280Y-142107218D01*
X112498457Y-142196603D01*
X112447806Y-142257186D01*
X112365373Y-142284002D01*
X112291507Y-142262028D01*
X112238745Y-142196107D01*
X112207088Y-142086238D01*
X112196535Y-141932421D01*
X112207212Y-141776867D01*
X112239241Y-141665757D01*
X112292624Y-141599090D01*
X112367360Y-141576868D01*
X112441226Y-141598966D01*
G37*
G36*
X115059204Y-144133785D02*
G01*
X115111197Y-144199113D01*
X115142393Y-144307994D01*
X115152792Y-144460427D01*
X115152792Y-144470214D01*
X115151813Y-144548510D01*
X115141048Y-144634635D01*
X115115602Y-144722719D01*
X115065688Y-144782419D01*
X114984456Y-144808844D01*
X114911665Y-144787191D01*
X114859671Y-144722229D01*
X114828475Y-144613960D01*
X114818076Y-144462384D01*
X114828597Y-144309095D01*
X114860160Y-144199603D01*
X114912766Y-144133907D01*
X114986413Y-144112009D01*
X115059204Y-144133785D01*
G37*
G36*
X112414753Y-144133785D02*
G01*
X112466746Y-144199113D01*
X112497942Y-144307994D01*
X112508341Y-144460427D01*
X112508341Y-144470214D01*
X112507362Y-144548510D01*
X112496596Y-144634635D01*
X112471150Y-144722719D01*
X112421236Y-144782419D01*
X112340004Y-144808844D01*
X112267213Y-144787191D01*
X112215220Y-144722229D01*
X112184024Y-144613960D01*
X112173625Y-144462384D01*
X112184146Y-144309095D01*
X112215709Y-144199603D01*
X112268314Y-144133907D01*
X112341962Y-144112009D01*
X112414753Y-144133785D01*
G37*
G36*
X112389039Y-146668183D02*
G01*
X112440286Y-146732573D01*
X112471034Y-146839891D01*
X112481284Y-146990136D01*
X112481284Y-146999782D01*
X112480319Y-147076954D01*
X112469708Y-147161844D01*
X112444627Y-147248663D01*
X112395430Y-147307507D01*
X112315363Y-147333552D01*
X112243617Y-147312209D01*
X112192370Y-147248180D01*
X112161622Y-147141466D01*
X112151372Y-146992065D01*
X112161742Y-146840976D01*
X112192852Y-146733056D01*
X112244703Y-146668303D01*
X112317293Y-146646719D01*
X112389039Y-146668183D01*
G37*
G36*
X112383139Y-149218635D02*
G01*
X112437029Y-149331487D01*
X112454992Y-149519574D01*
X112454992Y-149529084D01*
X112454041Y-149605165D01*
X112443580Y-149688853D01*
X112418854Y-149774443D01*
X112370353Y-149832454D01*
X112291420Y-149858131D01*
X112201603Y-149820725D01*
X112147713Y-149708507D01*
X112129750Y-149521476D01*
X112139973Y-149372526D01*
X112170643Y-149266132D01*
X112221759Y-149202296D01*
X112293322Y-149181018D01*
X112383139Y-149218635D01*
G37*
G36*
X114597072Y-149218635D02*
G01*
X114650962Y-149331487D01*
X114668926Y-149519574D01*
X114668926Y-149529084D01*
X114667975Y-149605165D01*
X114657514Y-149688853D01*
X114632788Y-149774443D01*
X114584287Y-149832454D01*
X114505353Y-149858131D01*
X114415537Y-149820725D01*
X114361646Y-149708507D01*
X114343683Y-149521476D01*
X114353906Y-149372526D01*
X114384576Y-149266132D01*
X114435693Y-149202296D01*
X114507255Y-149181018D01*
X114597072Y-149218635D01*
G37*
G36*
X112358584Y-151752014D02*
G01*
X112411722Y-151863292D01*
X112429435Y-152048754D01*
X112429435Y-152058132D01*
X112428497Y-152133150D01*
X112418182Y-152215671D01*
X112393801Y-152300067D01*
X112345977Y-152357268D01*
X112268145Y-152382587D01*
X112179581Y-152345703D01*
X112126443Y-152235050D01*
X112108730Y-152050630D01*
X112126651Y-151864125D01*
X112180415Y-151752222D01*
X112270020Y-151714921D01*
X112358584Y-151752014D01*
G37*
G36*
X113830824Y-151752014D02*
G01*
X113883962Y-151863292D01*
X113901675Y-152048754D01*
X113901675Y-152058132D01*
X113900737Y-152133150D01*
X113890422Y-152215671D01*
X113866041Y-152300067D01*
X113818217Y-152357268D01*
X113740385Y-152382587D01*
X113651821Y-152345703D01*
X113598683Y-152235050D01*
X113580970Y-152050630D01*
X113598891Y-151864125D01*
X113652655Y-151752222D01*
X113742260Y-151714921D01*
X113830824Y-151752014D01*
G37*
G36*
X111384449Y-139103778D02*
G01*
X111427796Y-139208617D01*
X111380417Y-139319504D01*
X111280619Y-139355794D01*
X111062877Y-139355794D01*
X111062877Y-139061440D01*
X111278602Y-139061440D01*
X111384449Y-139103778D01*
G37*
G36*
X111373201Y-141638445D02*
G01*
X111415908Y-141741734D01*
X111369229Y-141850982D01*
X111270905Y-141886736D01*
X111056382Y-141886736D01*
X111056382Y-141596732D01*
X111268919Y-141596732D01*
X111373201Y-141638445D01*
G37*
G36*
X111362281Y-144172688D02*
G01*
X111404366Y-144274473D01*
X111358367Y-144382130D01*
X111261475Y-144417364D01*
X111050076Y-144417364D01*
X111050076Y-144131583D01*
X111259518Y-144131583D01*
X111362281Y-144172688D01*
G37*
G36*
X111351675Y-146706528D02*
G01*
X111393155Y-146806852D01*
X111347816Y-146912963D01*
X111252316Y-146947691D01*
X111043951Y-146947691D01*
X111043951Y-146666012D01*
X111250386Y-146666012D01*
X111351675Y-146706528D01*
G37*
G36*
X111341369Y-149239980D02*
G01*
X111382262Y-149338884D01*
X111337565Y-149443494D01*
X111243415Y-149477730D01*
X111037999Y-149477730D01*
X111037999Y-149200038D01*
X111241513Y-149200038D01*
X111341369Y-149239980D01*
G37*
G36*
X111331350Y-151773061D02*
G01*
X111371672Y-151870585D01*
X111327599Y-151973736D01*
X111234763Y-152007494D01*
X111032213Y-152007494D01*
X111032213Y-151733676D01*
X111232888Y-151733676D01*
X111331350Y-151773061D01*
G37*
G36*
X114722154Y-141576868D02*
G01*
X114750956Y-141660294D01*
X114715202Y-141728823D01*
X114617872Y-141753652D01*
X114534446Y-141726836D01*
X114502664Y-141656322D01*
X114532459Y-141575875D01*
X114627803Y-141551046D01*
X114722154Y-141576868D01*
G37*
G36*
X114842221Y-151714921D02*
G01*
X114869415Y-151793691D01*
X114835656Y-151858394D01*
X114743759Y-151881838D01*
X114664989Y-151856519D01*
X114634982Y-151789940D01*
X114663114Y-151713984D01*
X114753136Y-151690540D01*
X114842221Y-151714921D01*
G37*
%TO.C,kibuzzard-665A1BDF*%
G36*
X173511096Y-155948908D02*
G01*
X172849638Y-155948908D01*
X172563888Y-155948908D01*
X170195338Y-155948908D01*
X169430163Y-155948908D01*
X167163213Y-155948908D01*
X164724813Y-155948908D01*
X163191288Y-155948908D01*
X161476788Y-155948908D01*
X159997238Y-155948908D01*
X158063663Y-155948908D01*
X155618913Y-155948908D01*
X154307638Y-155948908D01*
X153507538Y-155948908D01*
X151793038Y-155948908D01*
X150713538Y-155948908D01*
X148926013Y-155948908D01*
X147589338Y-155948908D01*
X145423988Y-155948908D01*
X143944438Y-155948908D01*
X140836113Y-155948908D01*
X140550363Y-155948908D01*
X139888904Y-155948908D01*
X138779559Y-155948908D01*
X139077056Y-154957250D01*
X140550363Y-154957250D01*
X140556713Y-155068375D01*
X140586875Y-155155688D01*
X140672600Y-155227125D01*
X140836113Y-155249350D01*
X141004388Y-155227125D01*
X141093288Y-155155688D01*
X141123450Y-155069962D01*
X141128213Y-154963600D01*
X141128213Y-154058725D01*
X141496513Y-154560375D01*
X141601288Y-154658006D01*
X141744163Y-154690550D01*
X141831475Y-154681025D01*
X141898150Y-154652450D01*
X141939425Y-154620700D01*
X141969588Y-154585775D01*
X141988638Y-154560375D01*
X142360113Y-154055550D01*
X142360113Y-154957250D01*
X142364875Y-155066788D01*
X142395038Y-155154100D01*
X142483938Y-155227125D01*
X142649038Y-155249350D01*
X142815725Y-155227125D01*
X142903038Y-155157275D01*
X142934788Y-155071550D01*
X142941138Y-154963600D01*
X142941138Y-154452425D01*
X143077663Y-154452425D01*
X143089966Y-154596887D01*
X143126875Y-154738175D01*
X143187994Y-154874700D01*
X143272925Y-155004875D01*
X143389209Y-155119572D01*
X143544388Y-155209663D01*
X143731713Y-155268003D01*
X143944438Y-155287450D01*
X144233363Y-155269392D01*
X144439738Y-155215219D01*
X144563563Y-155124930D01*
X144604838Y-154998525D01*
X144600352Y-154982650D01*
X144776288Y-154982650D01*
X144831453Y-155099331D01*
X144996950Y-155195375D01*
X145214041Y-155259669D01*
X145423988Y-155281100D01*
X145678877Y-155259129D01*
X145877124Y-155193216D01*
X146018729Y-155083361D01*
X146084889Y-154963600D01*
X146268538Y-154963600D01*
X146273300Y-155073138D01*
X146303463Y-155158863D01*
X146390775Y-155230300D01*
X146554288Y-155252525D01*
X146719388Y-155230300D01*
X146808288Y-155158863D01*
X146838450Y-155074725D01*
X146843213Y-154966775D01*
X146843213Y-154395275D01*
X146928938Y-154271450D01*
X147087688Y-154217475D01*
X147243263Y-154279387D01*
X147300413Y-154442900D01*
X147300413Y-154960425D01*
X147306763Y-155073138D01*
X147338513Y-155160450D01*
X147425825Y-155230300D01*
X147589338Y-155252525D01*
X147754438Y-155230300D01*
X147843338Y-155158863D01*
X147873500Y-155073138D01*
X147878263Y-154966775D01*
X147878263Y-154446075D01*
X147855332Y-154231586D01*
X147786540Y-154041086D01*
X147711239Y-153931725D01*
X147998913Y-153931725D01*
X148041775Y-154141275D01*
X148189413Y-154211125D01*
X148268788Y-154211125D01*
X148268788Y-154614350D01*
X148286603Y-154813317D01*
X148340049Y-154974183D01*
X148429125Y-155096950D01*
X148555596Y-155183381D01*
X148721225Y-155235239D01*
X148926013Y-155252525D01*
X149029200Y-155247763D01*
X149116513Y-155217600D01*
X149191125Y-155130288D01*
X149214938Y-154966775D01*
X149195888Y-154820725D01*
X149132388Y-154742938D01*
X149046663Y-154712775D01*
X148929188Y-154706425D01*
X148860925Y-154681025D01*
X148843463Y-154585775D01*
X148843463Y-154439725D01*
X149376863Y-154439725D01*
X149401733Y-154643278D01*
X149476346Y-154830603D01*
X149600700Y-155001700D01*
X149756804Y-155137519D01*
X149926667Y-155219011D01*
X150110288Y-155246175D01*
X150292056Y-155217600D01*
X150443663Y-155131875D01*
X150533356Y-155217600D01*
X150713538Y-155246175D01*
X150878638Y-155223950D01*
X150967538Y-155152513D01*
X150997700Y-155068375D01*
X151001482Y-154982650D01*
X151145338Y-154982650D01*
X151200503Y-155099331D01*
X151366000Y-155195375D01*
X151583091Y-155259669D01*
X151793038Y-155281100D01*
X152047927Y-155259129D01*
X152246174Y-155193216D01*
X152387779Y-155083361D01*
X152472742Y-154929564D01*
X152501063Y-154731825D01*
X152458200Y-154503225D01*
X152334375Y-154357175D01*
X152181975Y-154284150D01*
X152008938Y-154242875D01*
X151958138Y-154234938D01*
X151907338Y-154227000D01*
X151862888Y-154217475D01*
X151821613Y-154206363D01*
X151786688Y-154195250D01*
X151756525Y-154180963D01*
X151735888Y-154163500D01*
X151721600Y-154141275D01*
X151716838Y-154112700D01*
X151834313Y-154049200D01*
X152031163Y-154106350D01*
X152205788Y-154163500D01*
X152364538Y-154042850D01*
X152403209Y-153931725D01*
X152580438Y-153931725D01*
X152623300Y-154141275D01*
X152770938Y-154211125D01*
X152850313Y-154211125D01*
X152850313Y-154614350D01*
X152868128Y-154813317D01*
X152921574Y-154974183D01*
X153010650Y-155096950D01*
X153137121Y-155183381D01*
X153302750Y-155235239D01*
X153507538Y-155252525D01*
X153610725Y-155247763D01*
X153698038Y-155217600D01*
X153772650Y-155130288D01*
X153796463Y-154966775D01*
X153796049Y-154963600D01*
X154021888Y-154963600D01*
X154026650Y-155073138D01*
X154056813Y-155158863D01*
X154144125Y-155230300D01*
X154307638Y-155252525D01*
X154474325Y-155230300D01*
X154561638Y-155158863D01*
X154591800Y-155074725D01*
X154596563Y-154966775D01*
X154596563Y-154439725D01*
X154787063Y-154439725D01*
X154806906Y-154628241D01*
X154866438Y-154800088D01*
X154957719Y-154947328D01*
X155072813Y-155062025D01*
X155203384Y-155149338D01*
X155341100Y-155214425D01*
X155481197Y-155254906D01*
X155618913Y-155268400D01*
X155834813Y-155237444D01*
X156050713Y-155144575D01*
X156188649Y-155020397D01*
X156221457Y-154884931D01*
X156149138Y-154738175D01*
X156021344Y-154611969D01*
X155911013Y-154569900D01*
X155745913Y-154639750D01*
X155606213Y-154681025D01*
X155445875Y-154611175D01*
X155377613Y-154442900D01*
X155447463Y-154276212D01*
X155612563Y-154207950D01*
X155772900Y-154265100D01*
X155930063Y-154322250D01*
X156044363Y-154278594D01*
X156158663Y-154147625D01*
X156225338Y-153966650D01*
X156195175Y-153871400D01*
X156134850Y-153803137D01*
X156050713Y-153747575D01*
X155839575Y-153652325D01*
X155612563Y-153620575D01*
X155477228Y-153634069D01*
X155337925Y-153674550D01*
X155200606Y-153739241D01*
X155071225Y-153825362D01*
X154957322Y-153938472D01*
X154866438Y-154084125D01*
X154806906Y-154253987D01*
X154787063Y-154439725D01*
X154596563Y-154439725D01*
X154596563Y-153934900D01*
X154591800Y-153825362D01*
X154561638Y-153738050D01*
X154474325Y-153665025D01*
X154310813Y-153642800D01*
X154307638Y-153643227D01*
X154145713Y-153665025D01*
X154056813Y-153736463D01*
X154026650Y-153822188D01*
X154021888Y-153928550D01*
X154021888Y-154963600D01*
X153796049Y-154963600D01*
X153777413Y-154820725D01*
X153713913Y-154742938D01*
X153628188Y-154712775D01*
X153510713Y-154706425D01*
X153442450Y-154681025D01*
X153424988Y-154585775D01*
X153424988Y-154217475D01*
X153590088Y-154220650D01*
X153698038Y-154212713D01*
X153785350Y-154179375D01*
X153855200Y-154092062D01*
X153879013Y-153934900D01*
X153861550Y-153793613D01*
X153820275Y-153706300D01*
X153752013Y-153661850D01*
X153677400Y-153644388D01*
X153593263Y-153642800D01*
X153424988Y-153649150D01*
X153424988Y-153395150D01*
X153418638Y-153288787D01*
X153386888Y-153199887D01*
X153384948Y-153198300D01*
X154021888Y-153198300D01*
X154026650Y-153304662D01*
X154056813Y-153391975D01*
X154144125Y-153465000D01*
X154307638Y-153487225D01*
X154474325Y-153465000D01*
X154561638Y-153393563D01*
X154591800Y-153309425D01*
X154593621Y-153268150D01*
X157098463Y-153268150D01*
X157117513Y-153411025D01*
X157177838Y-153485637D01*
X157249275Y-153511037D01*
X157339763Y-153515800D01*
X157781088Y-153515800D01*
X157781088Y-154966775D01*
X157785850Y-155073138D01*
X157814425Y-155158863D01*
X157900150Y-155230300D01*
X158063663Y-155252525D01*
X158228763Y-155230300D01*
X158317663Y-155160450D01*
X158347825Y-155076313D01*
X158352588Y-154969950D01*
X158352588Y-154452425D01*
X159130463Y-154452425D01*
X159142766Y-154596887D01*
X159179675Y-154738175D01*
X159240794Y-154874700D01*
X159325725Y-155004875D01*
X159442009Y-155119572D01*
X159597188Y-155209663D01*
X159784513Y-155268003D01*
X159997238Y-155287450D01*
X160286163Y-155269392D01*
X160492538Y-155215219D01*
X160616363Y-155124930D01*
X160657638Y-154998525D01*
X160653152Y-154982650D01*
X160829088Y-154982650D01*
X160884253Y-155099331D01*
X161049750Y-155195375D01*
X161266841Y-155259669D01*
X161476788Y-155281100D01*
X161731677Y-155259129D01*
X161929924Y-155193216D01*
X162071529Y-155083361D01*
X162156492Y-154929564D01*
X162184813Y-154731825D01*
X162141950Y-154503225D01*
X162018125Y-154357175D01*
X161865725Y-154284150D01*
X161692688Y-154242875D01*
X161641888Y-154234938D01*
X161591088Y-154227000D01*
X161546638Y-154217475D01*
X161505363Y-154206363D01*
X161470438Y-154195250D01*
X161440275Y-154180963D01*
X161419638Y-154163500D01*
X161405350Y-154141275D01*
X161400588Y-154112700D01*
X161518063Y-154049200D01*
X161714913Y-154106350D01*
X161889538Y-154163500D01*
X162048288Y-154042850D01*
X162086959Y-153931725D01*
X162264188Y-153931725D01*
X162307050Y-154141275D01*
X162454688Y-154211125D01*
X162534063Y-154211125D01*
X162534063Y-154614350D01*
X162551878Y-154813317D01*
X162605324Y-154974183D01*
X162694400Y-155096950D01*
X162820871Y-155183381D01*
X162986500Y-155235239D01*
X163191288Y-155252525D01*
X163294475Y-155247763D01*
X163381788Y-155217600D01*
X163456400Y-155130288D01*
X163480213Y-154966775D01*
X163478556Y-154954075D01*
X164435888Y-154954075D01*
X164440650Y-155065200D01*
X164470813Y-155154100D01*
X164559713Y-155227125D01*
X164724813Y-155249350D01*
X165502688Y-155249350D01*
X165686308Y-155226067D01*
X165851937Y-155156217D01*
X165999575Y-155039800D01*
X166115463Y-154889869D01*
X166185842Y-154719478D01*
X166210713Y-154528625D01*
X166196462Y-154446075D01*
X166318663Y-154446075D01*
X166347943Y-154673440D01*
X166435785Y-154872936D01*
X166582188Y-155044562D01*
X166763868Y-155175972D01*
X166957543Y-155254818D01*
X167163213Y-155281100D01*
X167366942Y-155255347D01*
X167559029Y-155178089D01*
X167739475Y-155049325D01*
X167884996Y-154878933D01*
X167972308Y-154676792D01*
X168001413Y-154442900D01*
X168001024Y-154439725D01*
X168093488Y-154439725D01*
X168118358Y-154643278D01*
X168192971Y-154830603D01*
X168317325Y-155001700D01*
X168473429Y-155137519D01*
X168643292Y-155219011D01*
X168826913Y-155246175D01*
X169008681Y-155217600D01*
X169160288Y-155131875D01*
X169249981Y-155217600D01*
X169430163Y-155246175D01*
X169595263Y-155223950D01*
X169684163Y-155152513D01*
X169714325Y-155068375D01*
X169719088Y-154960425D01*
X169909588Y-154960425D01*
X169914350Y-155069962D01*
X169944513Y-155157275D01*
X170031825Y-155230300D01*
X170195338Y-155252525D01*
X170363613Y-155230300D01*
X170452513Y-155158863D01*
X170482675Y-155074725D01*
X170487438Y-154966775D01*
X170487438Y-154439725D01*
X171233563Y-154439725D01*
X171258433Y-154643278D01*
X171333046Y-154830603D01*
X171457400Y-155001700D01*
X171613504Y-155137519D01*
X171783367Y-155219011D01*
X171966988Y-155246175D01*
X172149550Y-155217600D01*
X172303538Y-155131875D01*
X172394025Y-155219981D01*
X172563888Y-155249350D01*
X172727400Y-155227125D01*
X172814713Y-155154100D01*
X172844875Y-155066788D01*
X172849638Y-154960425D01*
X172849638Y-153198300D01*
X172844875Y-153091938D01*
X172814713Y-153006212D01*
X172727400Y-152934775D01*
X172560713Y-152912550D01*
X172422600Y-152928425D01*
X172340050Y-152972875D01*
X172298775Y-153039550D01*
X172286075Y-153118925D01*
X172287663Y-153201475D01*
X172287663Y-153747575D01*
X172140819Y-153668994D01*
X171966988Y-153642800D01*
X171784954Y-153669964D01*
X171615621Y-153751456D01*
X171458988Y-153887275D01*
X171333751Y-154057314D01*
X171258610Y-154241464D01*
X171233563Y-154439725D01*
X170487438Y-154439725D01*
X170487438Y-154347650D01*
X170549350Y-154231763D01*
X170706513Y-154185725D01*
X170784300Y-154209538D01*
X170906538Y-154233350D01*
X171084338Y-154123812D01*
X171136725Y-154001178D01*
X171154188Y-153852350D01*
X171114500Y-153731700D01*
X171011313Y-153660262D01*
X170897013Y-153631688D01*
X170801763Y-153623750D01*
X170631900Y-153660262D01*
X170471563Y-153769800D01*
X170382663Y-153672169D01*
X170198513Y-153639625D01*
X170031825Y-153661850D01*
X169944513Y-153733287D01*
X169914350Y-153817425D01*
X169909588Y-153925375D01*
X169909588Y-154960425D01*
X169719088Y-154960425D01*
X169719088Y-153928550D01*
X169714325Y-153822188D01*
X169684163Y-153734875D01*
X169596850Y-153661850D01*
X169433338Y-153639625D01*
X169241250Y-153672169D01*
X169160288Y-153769800D01*
X169013444Y-153674550D01*
X168826913Y-153642800D01*
X168644879Y-153669964D01*
X168475546Y-153751456D01*
X168318913Y-153887275D01*
X168193676Y-154057314D01*
X168118535Y-154241464D01*
X168093488Y-154439725D01*
X168001024Y-154439725D01*
X167974072Y-154219944D01*
X167892051Y-154020978D01*
X167755350Y-153846000D01*
X167579490Y-153710181D01*
X167379994Y-153628689D01*
X167156863Y-153601525D01*
X166938846Y-153629218D01*
X166741996Y-153712297D01*
X166566313Y-153850762D01*
X166428729Y-154027681D01*
X166346179Y-154226118D01*
X166318663Y-154446075D01*
X166196462Y-154446075D01*
X166168644Y-154284944D01*
X166042438Y-154061900D01*
X166121019Y-153892037D01*
X166147213Y-153706300D01*
X166125340Y-153530440D01*
X166059724Y-153371161D01*
X165950363Y-153228463D01*
X165809604Y-153116456D01*
X165649796Y-153049251D01*
X165470938Y-153026850D01*
X164727988Y-153026850D01*
X164559713Y-153049075D01*
X164470813Y-153122100D01*
X164440650Y-153209412D01*
X164435888Y-153315775D01*
X164435888Y-154954075D01*
X163478556Y-154954075D01*
X163461163Y-154820725D01*
X163397663Y-154742938D01*
X163311938Y-154712775D01*
X163194463Y-154706425D01*
X163126200Y-154681025D01*
X163108738Y-154585775D01*
X163108738Y-154217475D01*
X163273838Y-154220650D01*
X163381788Y-154212713D01*
X163469100Y-154179375D01*
X163538950Y-154092062D01*
X163562763Y-153934900D01*
X163545300Y-153793613D01*
X163504025Y-153706300D01*
X163435763Y-153661850D01*
X163361150Y-153644388D01*
X163277013Y-153642800D01*
X163108738Y-153649150D01*
X163108738Y-153395150D01*
X163102388Y-153288787D01*
X163070638Y-153199887D01*
X162983325Y-153128450D01*
X162822988Y-153106225D01*
X162656300Y-153126862D01*
X162568988Y-153193537D01*
X162538825Y-153276088D01*
X162534063Y-153382450D01*
X162534063Y-153658675D01*
X162467388Y-153658675D01*
X162314988Y-153726937D01*
X162264188Y-153931725D01*
X162086959Y-153931725D01*
X162117344Y-153844412D01*
X161994313Y-153712650D01*
X161772856Y-153634069D01*
X161552988Y-153607875D01*
X161350669Y-153622162D01*
X161183982Y-153665025D01*
X161052925Y-153736463D01*
X160925528Y-153894022D01*
X160883063Y-154109525D01*
X160907470Y-154287920D01*
X160980694Y-154432581D01*
X161102733Y-154543508D01*
X161273588Y-154620700D01*
X161445038Y-154663563D01*
X161602200Y-154708013D01*
X161648238Y-154763575D01*
X161527588Y-154814375D01*
X161291050Y-154736588D01*
X161070388Y-154658800D01*
X160946563Y-154722300D01*
X160858456Y-154869937D01*
X160829088Y-154982650D01*
X160653152Y-154982650D01*
X160616363Y-154852475D01*
X160530638Y-154738175D01*
X160425863Y-154700075D01*
X160279813Y-154741350D01*
X160022638Y-154782625D01*
X159835313Y-154738175D01*
X159740063Y-154617525D01*
X160416338Y-154617525D01*
X160545322Y-154593316D01*
X160646525Y-154520688D01*
X160712009Y-154403609D01*
X160733838Y-154246050D01*
X160686609Y-154023006D01*
X160544925Y-153811075D01*
X160400463Y-153696422D01*
X160218958Y-153627631D01*
X160000413Y-153604700D01*
X159759994Y-153630982D01*
X159550974Y-153709828D01*
X159373350Y-153841238D01*
X159238413Y-154014275D01*
X159157450Y-154218004D01*
X159130463Y-154452425D01*
X158352588Y-154452425D01*
X158352588Y-153515800D01*
X158790738Y-153515800D01*
X158881225Y-153511037D01*
X158954250Y-153485637D01*
X159016163Y-153411025D01*
X159035213Y-153271325D01*
X159016163Y-153131625D01*
X158955838Y-153057013D01*
X158884400Y-153031613D01*
X158793913Y-153026850D01*
X157342938Y-153026850D01*
X157252450Y-153031613D01*
X157179425Y-153057013D01*
X157117513Y-153130037D01*
X157098463Y-153268150D01*
X154593621Y-153268150D01*
X154596563Y-153201475D01*
X154591800Y-153095113D01*
X154561638Y-153007800D01*
X154474325Y-152934775D01*
X154310813Y-152912550D01*
X154145713Y-152934775D01*
X154056813Y-153006212D01*
X154026650Y-153091938D01*
X154021888Y-153198300D01*
X153384948Y-153198300D01*
X153299575Y-153128450D01*
X153139238Y-153106225D01*
X152972550Y-153126862D01*
X152885238Y-153193537D01*
X152855075Y-153276088D01*
X152850313Y-153382450D01*
X152850313Y-153658675D01*
X152783638Y-153658675D01*
X152631238Y-153726937D01*
X152580438Y-153931725D01*
X152403209Y-153931725D01*
X152433594Y-153844412D01*
X152310563Y-153712650D01*
X152089106Y-153634069D01*
X151869238Y-153607875D01*
X151666919Y-153622162D01*
X151500232Y-153665025D01*
X151369175Y-153736463D01*
X151241778Y-153894022D01*
X151199313Y-154109525D01*
X151223720Y-154287920D01*
X151296944Y-154432581D01*
X151418983Y-154543508D01*
X151589838Y-154620700D01*
X151761288Y-154663563D01*
X151918450Y-154708013D01*
X151964488Y-154763575D01*
X151843838Y-154814375D01*
X151607300Y-154736588D01*
X151386638Y-154658800D01*
X151262813Y-154722300D01*
X151174706Y-154869937D01*
X151145338Y-154982650D01*
X151001482Y-154982650D01*
X151002463Y-154960425D01*
X151002463Y-153928550D01*
X150997700Y-153822188D01*
X150967538Y-153734875D01*
X150880225Y-153661850D01*
X150716713Y-153639625D01*
X150524625Y-153672169D01*
X150443663Y-153769800D01*
X150296819Y-153674550D01*
X150110288Y-153642800D01*
X149928254Y-153669964D01*
X149758921Y-153751456D01*
X149602288Y-153887275D01*
X149477051Y-154057314D01*
X149401910Y-154241464D01*
X149376863Y-154439725D01*
X148843463Y-154439725D01*
X148843463Y-154217475D01*
X149008563Y-154220650D01*
X149116513Y-154212713D01*
X149203825Y-154179375D01*
X149273675Y-154092062D01*
X149297488Y-153934900D01*
X149280025Y-153793613D01*
X149238750Y-153706300D01*
X149170488Y-153661850D01*
X149095875Y-153644388D01*
X149011738Y-153642800D01*
X148843463Y-153649150D01*
X148843463Y-153395150D01*
X148837113Y-153288787D01*
X148805363Y-153199887D01*
X148718050Y-153128450D01*
X148557713Y-153106225D01*
X148391025Y-153126862D01*
X148303713Y-153193537D01*
X148273550Y-153276088D01*
X148268788Y-153382450D01*
X148268788Y-153658675D01*
X148202113Y-153658675D01*
X148049713Y-153726937D01*
X147998913Y-153931725D01*
X147711239Y-153931725D01*
X147671888Y-153874575D01*
X147523368Y-153745811D01*
X147352976Y-153668553D01*
X147160713Y-153642800D01*
X146994025Y-153676931D01*
X146843213Y-153779325D01*
X146843213Y-153201475D01*
X146838450Y-153091938D01*
X146808288Y-153006212D01*
X146720975Y-152934775D01*
X146557463Y-152912550D01*
X146390775Y-152934775D01*
X146303463Y-153006212D01*
X146273300Y-153091938D01*
X146268538Y-153198300D01*
X146268538Y-154963600D01*
X146084889Y-154963600D01*
X146103692Y-154929564D01*
X146132013Y-154731825D01*
X146089150Y-154503225D01*
X145965325Y-154357175D01*
X145812925Y-154284150D01*
X145639888Y-154242875D01*
X145589088Y-154234938D01*
X145538288Y-154227000D01*
X145493838Y-154217475D01*
X145452563Y-154206363D01*
X145417638Y-154195250D01*
X145387475Y-154180963D01*
X145366838Y-154163500D01*
X145352550Y-154141275D01*
X145347788Y-154112700D01*
X145465263Y-154049200D01*
X145662113Y-154106350D01*
X145836738Y-154163500D01*
X145995488Y-154042850D01*
X146064544Y-153844412D01*
X145941513Y-153712650D01*
X145720056Y-153634069D01*
X145500188Y-153607875D01*
X145297869Y-153622162D01*
X145131182Y-153665025D01*
X145000125Y-153736463D01*
X144872728Y-153894022D01*
X144830263Y-154109525D01*
X144854670Y-154287920D01*
X144927894Y-154432581D01*
X145049933Y-154543508D01*
X145220788Y-154620700D01*
X145392238Y-154663563D01*
X145549400Y-154708013D01*
X145595438Y-154763575D01*
X145474788Y-154814375D01*
X145238250Y-154736588D01*
X145017588Y-154658800D01*
X144893763Y-154722300D01*
X144805656Y-154869937D01*
X144776288Y-154982650D01*
X144600352Y-154982650D01*
X144563563Y-154852475D01*
X144477838Y-154738175D01*
X144373063Y-154700075D01*
X144227013Y-154741350D01*
X143969838Y-154782625D01*
X143782513Y-154738175D01*
X143687263Y-154617525D01*
X144363538Y-154617525D01*
X144492522Y-154593316D01*
X144593725Y-154520688D01*
X144659209Y-154403609D01*
X144681038Y-154246050D01*
X144633809Y-154023006D01*
X144492125Y-153811075D01*
X144347663Y-153696422D01*
X144166158Y-153627631D01*
X143947613Y-153604700D01*
X143707194Y-153630982D01*
X143498174Y-153709828D01*
X143320550Y-153841238D01*
X143185613Y-154014275D01*
X143104650Y-154218004D01*
X143077663Y-154452425D01*
X142941138Y-154452425D01*
X142941138Y-153325300D01*
X142934788Y-153214175D01*
X142904625Y-153126862D01*
X142817313Y-153055425D01*
X142652213Y-153033200D01*
X142483938Y-153052250D01*
X142388688Y-153125275D01*
X141744163Y-153953950D01*
X141096463Y-153122100D01*
X141075825Y-153099875D01*
X141052013Y-153076062D01*
X141025025Y-153060187D01*
X140983750Y-153045900D01*
X140926600Y-153037962D01*
X140842463Y-153033200D01*
X140674188Y-153055425D01*
X140585288Y-153126862D01*
X140555125Y-153212587D01*
X140550363Y-153318950D01*
X140550363Y-154957250D01*
X139077056Y-154957250D01*
X139888904Y-152251092D01*
X140550362Y-152251092D01*
X172849637Y-152251092D01*
X173511096Y-152251092D01*
X174620441Y-152251092D01*
X173511096Y-155948908D01*
G37*
G36*
X165532850Y-153633275D02*
G01*
X165566188Y-153731700D01*
X165543963Y-153830125D01*
X165467763Y-153852350D01*
X165429663Y-153852350D01*
X165235988Y-153904738D01*
X165178838Y-154087300D01*
X165232813Y-154276212D01*
X165413788Y-154331775D01*
X165455063Y-154331775D01*
X165588413Y-154361938D01*
X165629688Y-154493700D01*
X165612225Y-154593713D01*
X165564600Y-154647687D01*
X165515388Y-154665150D01*
X165470938Y-154668325D01*
X165016913Y-154668325D01*
X165016913Y-153607875D01*
X165401088Y-153607875D01*
X165532850Y-153633275D01*
G37*
G36*
X167347363Y-154252400D02*
G01*
X167420388Y-154439725D01*
X167334663Y-154636575D01*
X167156863Y-154700075D01*
X166982238Y-154636575D01*
X166899688Y-154442900D01*
X166974300Y-154257163D01*
X167153688Y-154182550D01*
X167347363Y-154252400D01*
G37*
G36*
X150343650Y-154280975D02*
G01*
X150408738Y-154442900D01*
X150343650Y-154603238D01*
X150189663Y-154671500D01*
X150022975Y-154603238D01*
X149951538Y-154446075D01*
X150019800Y-154284150D01*
X150183313Y-154214300D01*
X150343650Y-154280975D01*
G37*
G36*
X169060275Y-154280975D02*
G01*
X169125363Y-154442900D01*
X169060275Y-154603238D01*
X168906288Y-154671500D01*
X168739600Y-154603238D01*
X168668163Y-154446075D01*
X168736425Y-154284150D01*
X168899938Y-154214300D01*
X169060275Y-154280975D01*
G37*
G36*
X172201938Y-154284150D02*
G01*
X172268613Y-154446075D01*
X172201938Y-154606413D01*
X172043188Y-154674675D01*
X171881263Y-154606413D01*
X171811413Y-154446075D01*
X171878088Y-154284150D01*
X172040013Y-154217475D01*
X172201938Y-154284150D01*
G37*
G36*
X160130588Y-154149212D02*
G01*
X160181388Y-154242875D01*
X160095663Y-154319075D01*
X159740063Y-154319075D01*
X159814675Y-154177787D01*
X159994063Y-154115875D01*
X160130588Y-154149212D01*
G37*
G36*
X144077788Y-154149212D02*
G01*
X144128588Y-154242875D01*
X144042863Y-154319075D01*
X143687263Y-154319075D01*
X143761875Y-154177787D01*
X143941263Y-154115875D01*
X144077788Y-154149212D01*
G37*
D12*
%TO.C,R4*%
X180060436Y-143765000D02*
X180514564Y-143765000D01*
X180060436Y-145235000D02*
X180514564Y-145235000D01*
%TO.C,D5*%
X184600000Y-143785000D02*
X182600000Y-143785000D01*
X184600000Y-143785000D02*
X184600000Y-147795000D01*
X182600000Y-143785000D02*
X182600000Y-147795000D01*
%TO.C,C14*%
X180088748Y-146465000D02*
X180611252Y-146465000D01*
X180088748Y-147935000D02*
X180611252Y-147935000D01*
D13*
%TO.C,BT2*%
X173350001Y-147639998D02*
G75*
G02*
X175160000Y-143600001I1741710J1645135D01*
G01*
X177510000Y-145783000D02*
G75*
G02*
X177360000Y-146830000I-3043916J-98154D01*
G01*
D12*
%TO.C,SW3*%
X185150000Y-118800000D02*
X185150000Y-118010000D01*
X184550000Y-117000000D02*
X178850000Y-117000000D01*
X183300000Y-119850000D02*
X181600000Y-119850000D01*
X183100000Y-117000000D02*
X183100000Y-115710000D01*
X183100000Y-115710000D02*
X182900000Y-115500000D01*
X182900000Y-115500000D02*
X182000000Y-115500000D01*
X181800000Y-115710000D02*
X182000000Y-115500000D01*
X181800000Y-115710000D02*
X181800000Y-117000000D01*
X180300000Y-119850000D02*
X180100000Y-119850000D01*
X178250000Y-118010000D02*
X178250000Y-118800000D01*
%TO.C,R3*%
X175314564Y-121335000D02*
X174860436Y-121335000D01*
X175314564Y-119865000D02*
X174860436Y-119865000D01*
%TO.C,R2*%
X123714564Y-150035000D02*
X123260436Y-150035000D01*
X123714564Y-148565000D02*
X123260436Y-148565000D01*
%TO.C,L1*%
X179740000Y-125837122D02*
X179740000Y-125037878D01*
X180860000Y-125837122D02*
X180860000Y-125037878D01*
%TO.C,C13*%
X175311252Y-123435000D02*
X174788748Y-123435000D01*
X175311252Y-121965000D02*
X174788748Y-121965000D01*
%TO.C,C12*%
X123238748Y-151865000D02*
X123761252Y-151865000D01*
X123238748Y-153335000D02*
X123761252Y-153335000D01*
%TO.C,U6*%
X150225000Y-138090000D02*
X152225000Y-138090000D01*
X150225000Y-140310000D02*
X152225000Y-140310000D01*
X149875000Y-138380000D02*
X149595000Y-138380000D01*
X149875000Y-138100000D01*
X149875000Y-138380000D01*
G36*
X149875000Y-138380000D02*
G01*
X149595000Y-138380000D01*
X149875000Y-138100000D01*
X149875000Y-138380000D01*
G37*
%TO.C,U4*%
X178110000Y-140610000D02*
X178110000Y-140160000D01*
X178110000Y-140610000D02*
X165690000Y-140610000D01*
X178110000Y-132240000D02*
X178110000Y-130560000D01*
X178110000Y-124840000D02*
X178110000Y-124390000D01*
X178110000Y-124390000D02*
X165690000Y-124390000D01*
X165690000Y-140610000D02*
X165690000Y-140160000D01*
X165690000Y-132240000D02*
X165690000Y-130560000D01*
X165690000Y-124840000D02*
X165690000Y-124400000D01*
X178840000Y-140490000D02*
X178360000Y-140490000D01*
X178600000Y-140160000D01*
X178840000Y-140490000D01*
G36*
X178840000Y-140490000D02*
G01*
X178360000Y-140490000D01*
X178600000Y-140160000D01*
X178840000Y-140490000D01*
G37*
%TO.C,U3*%
X154190000Y-127000000D02*
X154190000Y-123240000D01*
X161010000Y-127000000D02*
X161010000Y-123240000D01*
X154190000Y-123240000D02*
X155450000Y-123240000D01*
X161010000Y-123240000D02*
X159750000Y-123240000D01*
X154290000Y-128280000D02*
X153960000Y-128520000D01*
X153960000Y-128040000D01*
X154290000Y-128280000D01*
G36*
X154290000Y-128280000D02*
G01*
X153960000Y-128520000D01*
X153960000Y-128040000D01*
X154290000Y-128280000D01*
G37*
%TO.C,U2*%
X142997500Y-126150000D02*
X142997500Y-126950000D01*
X142997500Y-126150000D02*
X142997500Y-125350000D01*
X146117500Y-126150000D02*
X146117500Y-126950000D01*
X146117500Y-126150000D02*
X146117500Y-125350000D01*
X143047500Y-127450000D02*
X142717500Y-127690000D01*
X142717500Y-127210000D01*
X143047500Y-127450000D01*
G36*
X143047500Y-127450000D02*
G01*
X142717500Y-127690000D01*
X142717500Y-127210000D01*
X143047500Y-127450000D01*
G37*
%TO.C,U1*%
D10*
X125185000Y-146695000D02*
X140185000Y-146695000D01*
X140185000Y-123695000D01*
X125185000Y-123695000D01*
X125185000Y-146695000D01*
%TO.C,SW2*%
X126800000Y-149900000D02*
X128000000Y-149900000D01*
X126800000Y-151900000D02*
X126800000Y-151100000D01*
X128000000Y-153100000D02*
X126800000Y-153100000D01*
X129200000Y-149900000D02*
X130400000Y-149900000D01*
X130400000Y-151100000D02*
X130400000Y-151900000D01*
X130400000Y-153100000D02*
X129200000Y-153100000D01*
%TO.C,SW1*%
X136700000Y-153100000D02*
X135500000Y-153100000D01*
X136700000Y-151100000D02*
X136700000Y-151900000D01*
X135500000Y-149900000D02*
X136700000Y-149900000D01*
X134300000Y-153100000D02*
X133100000Y-153100000D01*
X133100000Y-151900000D02*
X133100000Y-151100000D01*
X133100000Y-149900000D02*
X134300000Y-149900000D01*
D12*
%TO.C,RN6*%
X152150000Y-144080000D02*
X151350000Y-144080000D01*
X152150000Y-147520000D02*
X151350000Y-147520000D01*
%TO.C,RN5*%
X157050000Y-134180000D02*
X156250000Y-134180000D01*
X157050000Y-137620000D02*
X156250000Y-137620000D01*
%TO.C,RN4*%
X186480000Y-141950000D02*
X186480000Y-142750000D01*
X189920000Y-141950000D02*
X189920000Y-142750000D01*
%TO.C,RN3*%
X161100000Y-132620000D02*
X162100000Y-132620000D01*
X161100000Y-135980000D02*
X162100000Y-135980000D01*
%TO.C,RN2*%
X181600000Y-133630000D02*
X180600000Y-133630000D01*
X181600000Y-135570000D02*
X180600000Y-135570000D01*
%TO.C,RN1*%
X122820000Y-122050000D02*
X122820000Y-121250000D01*
X119380000Y-122050000D02*
X119380000Y-121250000D01*
%TO.C,R1*%
X144667936Y-121065000D02*
X145122064Y-121065000D01*
X144667936Y-122535000D02*
X145122064Y-122535000D01*
%TO.C,Q1*%
X150545000Y-124577500D02*
X149895000Y-124577500D01*
X150545000Y-124577500D02*
X151195000Y-124577500D01*
X150545000Y-127697500D02*
X149895000Y-127697500D01*
X150545000Y-127697500D02*
X151195000Y-127697500D01*
X149382500Y-124627500D02*
X149142500Y-124297500D01*
X149622500Y-124297500D01*
X149382500Y-124627500D01*
G36*
X149382500Y-124627500D02*
G01*
X149142500Y-124297500D01*
X149622500Y-124297500D01*
X149382500Y-124627500D01*
G37*
%TO.C,J9*%
X132870000Y-159590000D02*
X132870000Y-158260000D01*
X134200000Y-159590000D02*
X132870000Y-159590000D01*
X135470000Y-159590000D02*
X143150000Y-159590000D01*
X135470000Y-159590000D02*
X135470000Y-156930000D01*
X143150000Y-159590000D02*
X143150000Y-156930000D01*
X135470000Y-156930000D02*
X143150000Y-156930000D01*
%TO.C,J8*%
X163270000Y-159730000D02*
X163270000Y-158400000D01*
X164600000Y-159730000D02*
X163270000Y-159730000D01*
X165870000Y-159730000D02*
X173550000Y-159730000D01*
X165870000Y-159730000D02*
X165870000Y-157070000D01*
X173550000Y-159730000D02*
X173550000Y-157070000D01*
X165870000Y-157070000D02*
X173550000Y-157070000D01*
%TO.C,J7*%
X169770000Y-123130000D02*
X169770000Y-121800000D01*
X171100000Y-123130000D02*
X169770000Y-123130000D01*
X172370000Y-123130000D02*
X172430000Y-123130000D01*
X172370000Y-123130000D02*
X172370000Y-120470000D01*
X172430000Y-123130000D02*
X172430000Y-120470000D01*
X172370000Y-120470000D02*
X172430000Y-120470000D01*
%TO.C,J6*%
X124370000Y-119470000D02*
X125700000Y-119470000D01*
X124370000Y-120800000D02*
X124370000Y-119470000D01*
X124370000Y-122070000D02*
X124370000Y-122130000D01*
X124370000Y-122070000D02*
X127030000Y-122070000D01*
X124370000Y-122130000D02*
X127030000Y-122130000D01*
X127030000Y-122070000D02*
X127030000Y-122130000D01*
%TO.C,J5*%
X116070000Y-135390000D02*
X117400000Y-135390000D01*
X116070000Y-136720000D02*
X116070000Y-135390000D01*
X116070000Y-137990000D02*
X116070000Y-153290000D01*
X116070000Y-137990000D02*
X118730000Y-137990000D01*
X116070000Y-153290000D02*
X118730000Y-153290000D01*
X118730000Y-137990000D02*
X118730000Y-153290000D01*
%TO.C,J4*%
X120470000Y-159530000D02*
X120470000Y-158200000D01*
X121800000Y-159530000D02*
X120470000Y-159530000D01*
X123070000Y-159530000D02*
X130750000Y-159530000D01*
X123070000Y-159530000D02*
X123070000Y-156870000D01*
X130750000Y-159530000D02*
X130750000Y-156870000D01*
X123070000Y-156870000D02*
X130750000Y-156870000D01*
%TO.C,J2*%
X185300000Y-125100000D02*
X185300000Y-125900000D01*
X185100000Y-125100000D02*
X185300000Y-125100000D01*
X182300000Y-125300000D02*
X182500000Y-125100000D01*
X182300000Y-125900000D02*
X182300000Y-125300000D01*
X182300000Y-125900000D02*
X181800000Y-125900000D01*
X185300000Y-127300000D02*
X185300000Y-128100000D01*
X182300000Y-127300000D02*
X181800000Y-127300000D01*
X185300000Y-128100000D02*
X185100000Y-128100000D01*
X182500000Y-128100000D02*
X182300000Y-128100000D01*
X182300000Y-128100000D02*
X182300000Y-127300000D01*
%TO.C,D4*%
X159585000Y-151260000D02*
X159585000Y-149340000D01*
X159585000Y-149340000D02*
X156900000Y-149340000D01*
X156900000Y-151260000D02*
X159585000Y-151260000D01*
%TO.C,D3*%
X159585000Y-147860000D02*
X159585000Y-145940000D01*
X159585000Y-145940000D02*
X156900000Y-145940000D01*
X156900000Y-147860000D02*
X159585000Y-147860000D01*
%TO.C,D2*%
X159585000Y-144460000D02*
X159585000Y-142540000D01*
X159585000Y-142540000D02*
X156900000Y-142540000D01*
X156900000Y-144460000D02*
X159585000Y-144460000D01*
%TO.C,D1*%
X151310000Y-131500000D02*
X151310000Y-129500000D01*
X151310000Y-131500000D02*
X147300000Y-131500000D01*
X151310000Y-129500000D02*
X147300000Y-129500000D01*
%TO.C,C11*%
X151461252Y-136335000D02*
X150938748Y-136335000D01*
X151461252Y-134865000D02*
X150938748Y-134865000D01*
%TO.C,C10*%
X140511252Y-150535000D02*
X139988748Y-150535000D01*
X140511252Y-149065000D02*
X139988748Y-149065000D01*
%TO.C,C9*%
X162161252Y-140235000D02*
X161638748Y-140235000D01*
X162161252Y-138765000D02*
X161638748Y-138765000D01*
%TO.C,C8*%
X182735000Y-137438748D02*
X182735000Y-137961252D01*
X181265000Y-137438748D02*
X181265000Y-137961252D01*
%TO.C,C7*%
X181315000Y-131861252D02*
X181315000Y-131338748D01*
X182785000Y-131861252D02*
X182785000Y-131338748D01*
%TO.C,C6*%
X129988748Y-119965000D02*
X130511252Y-119965000D01*
X129988748Y-121435000D02*
X130511252Y-121435000D01*
%TO.C,C5*%
X156911252Y-132035000D02*
X156388748Y-132035000D01*
X156911252Y-130565000D02*
X156388748Y-130565000D01*
%TO.C,C4*%
X160238748Y-130565000D02*
X160761252Y-130565000D01*
X160238748Y-132035000D02*
X160761252Y-132035000D01*
%TO.C,C3*%
X149356252Y-122535000D02*
X148833748Y-122535000D01*
X149356252Y-121065000D02*
X148833748Y-121065000D01*
%TO.C,C2*%
X121965000Y-126361252D02*
X121965000Y-125838748D01*
X123435000Y-126361252D02*
X123435000Y-125838748D01*
%TO.C,C1*%
X123435000Y-131938748D02*
X123435000Y-132461252D01*
X121965000Y-131938748D02*
X121965000Y-132461252D01*
%TD*%
M02*
