%TF.GenerationSoftware,KiCad,Pcbnew,8.0.0*%
%TF.CreationDate,2024-05-31T14:38:24-05:00*%
%TF.ProjectId,CyberTastic,43796265-7254-4617-9374-69632e6b6963,rev?*%
%TF.SameCoordinates,Original*%
%TF.FileFunction,Soldermask,Top*%
%TF.FilePolarity,Negative*%
%FSLAX46Y46*%
G04 Gerber Fmt 4.6, Leading zero omitted, Abs format (unit mm)*
G04 Created by KiCad (PCBNEW 8.0.0) date 2024-05-31 14:38:24*
%MOMM*%
%LPD*%
G01*
G04 APERTURE LIST*
G04 Aperture macros list*
%AMRoundRect*
0 Rectangle with rounded corners*
0 $1 Rounding radius*
0 $2 $3 $4 $5 $6 $7 $8 $9 X,Y pos of 4 corners*
0 Add a 4 corners polygon primitive as box body*
4,1,4,$2,$3,$4,$5,$6,$7,$8,$9,$2,$3,0*
0 Add four circle primitives for the rounded corners*
1,1,$1+$1,$2,$3*
1,1,$1+$1,$4,$5*
1,1,$1+$1,$6,$7*
1,1,$1+$1,$8,$9*
0 Add four rect primitives between the rounded corners*
20,1,$1+$1,$2,$3,$4,$5,0*
20,1,$1+$1,$4,$5,$6,$7,0*
20,1,$1+$1,$6,$7,$8,$9,0*
20,1,$1+$1,$8,$9,$2,$3,0*%
G04 Aperture macros list end*
%ADD10C,0.000100*%
%ADD11C,3.450000*%
%ADD12RoundRect,0.250000X-0.262500X-0.450000X0.262500X-0.450000X0.262500X0.450000X-0.262500X0.450000X0*%
%ADD13RoundRect,0.225000X-0.375000X0.225000X-0.375000X-0.225000X0.375000X-0.225000X0.375000X0.225000X0*%
%ADD14RoundRect,0.250000X-0.250000X-0.475000X0.250000X-0.475000X0.250000X0.475000X-0.250000X0.475000X0*%
%ADD15RoundRect,0.102000X-2.050000X-0.850000X2.050000X-0.850000X2.050000X0.850000X-2.050000X0.850000X0*%
%ADD16R,1.000000X0.800000*%
%ADD17C,0.900000*%
%ADD18R,0.700000X1.500000*%
%ADD19RoundRect,0.250000X0.262500X0.450000X-0.262500X0.450000X-0.262500X-0.450000X0.262500X-0.450000X0*%
%ADD20RoundRect,0.218750X0.381250X-0.218750X0.381250X0.218750X-0.381250X0.218750X-0.381250X-0.218750X0*%
%ADD21RoundRect,0.250000X0.250000X0.475000X-0.250000X0.475000X-0.250000X-0.475000X0.250000X-0.475000X0*%
%ADD22RoundRect,0.087500X-0.187500X-0.087500X0.187500X-0.087500X0.187500X0.087500X-0.187500X0.087500X0*%
%ADD23RoundRect,0.175000X-0.175000X-0.625000X0.175000X-0.625000X0.175000X0.625000X-0.175000X0.625000X0*%
%ADD24RoundRect,0.200000X0.700000X0.200000X-0.700000X0.200000X-0.700000X-0.200000X0.700000X-0.200000X0*%
%ADD25RoundRect,0.375000X0.375000X-0.625000X0.375000X0.625000X-0.375000X0.625000X-0.375000X-0.625000X0*%
%ADD26RoundRect,0.500000X1.400000X-0.500000X1.400000X0.500000X-1.400000X0.500000X-1.400000X-0.500000X0*%
%ADD27RoundRect,0.150000X0.150000X-0.512500X0.150000X0.512500X-0.150000X0.512500X-0.150000X-0.512500X0*%
%ADD28R,1.300000X0.900000*%
%ADD29R,0.900000X1.300000*%
%ADD30R,1.000000X0.500000*%
%ADD31R,1.500000X0.800000*%
%ADD32R,0.900000X0.400000*%
%ADD33R,0.400000X0.900000*%
%ADD34R,0.800000X0.500000*%
%ADD35R,0.800000X0.400000*%
%ADD36RoundRect,0.150000X-0.587500X-0.150000X0.587500X-0.150000X0.587500X0.150000X-0.587500X0.150000X0*%
%ADD37R,1.700000X1.700000*%
%ADD38O,1.700000X1.700000*%
%ADD39C,0.650000*%
%ADD40R,1.400000X0.250000*%
%ADD41O,2.100000X1.000000*%
%ADD42O,1.800000X1.000000*%
%ADD43R,1.000000X1.000000*%
%ADD44R,2.200000X1.050000*%
%ADD45RoundRect,0.100000X-1.100000X0.525000X-1.100000X-0.525000X1.100000X-0.525000X1.100000X0.525000X0*%
%ADD46C,2.200000*%
%ADD47RoundRect,0.243750X0.243750X0.456250X-0.243750X0.456250X-0.243750X-0.456250X0.243750X-0.456250X0*%
%ADD48RoundRect,0.225000X0.225000X0.375000X-0.225000X0.375000X-0.225000X-0.375000X0.225000X-0.375000X0*%
%ADD49RoundRect,0.250000X-0.475000X0.250000X-0.475000X-0.250000X0.475000X-0.250000X0.475000X0.250000X0*%
%ADD50RoundRect,0.250000X0.475000X-0.250000X0.475000X0.250000X-0.475000X0.250000X-0.475000X-0.250000X0*%
G04 APERTURE END LIST*
D10*
%TO.C,BT2*%
X177900000Y-146000000D02*
X175100000Y-143200000D01*
X177900000Y-143200000D01*
X177900000Y-146000000D01*
G36*
X177900000Y-146000000D02*
G01*
X175100000Y-143200000D01*
X177900000Y-143200000D01*
X177900000Y-146000000D01*
G37*
%TD*%
D11*
%TO.C,BT1*%
X121700000Y-137000000D03*
X176900000Y-153000000D03*
%TD*%
D12*
%TO.C,R4*%
X179375000Y-144500000D03*
X181200000Y-144500000D03*
%TD*%
D13*
%TO.C,D5*%
X183600000Y-144495000D03*
X183600000Y-147795000D03*
%TD*%
D14*
%TO.C,C14*%
X179400000Y-147200000D03*
X181300000Y-147200000D03*
%TD*%
D15*
%TO.C,BT2*%
X175750000Y-147850000D03*
%TD*%
D16*
%TO.C,SW3*%
X185350000Y-119510000D03*
X185350000Y-117300000D03*
D17*
X183200000Y-118400000D03*
X180200000Y-118400000D03*
D16*
X178050000Y-119510000D03*
X178050000Y-117300000D03*
D18*
X183950000Y-120160000D03*
X180950000Y-120160000D03*
X179450000Y-120160000D03*
%TD*%
D19*
%TO.C,R3*%
X176000000Y-120600000D03*
X174175000Y-120600000D03*
%TD*%
%TO.C,R2*%
X124400000Y-149300000D03*
X122575000Y-149300000D03*
%TD*%
D20*
%TO.C,L1*%
X180300000Y-126500000D03*
X180300000Y-124375000D03*
%TD*%
D21*
%TO.C,C13*%
X176000000Y-122700000D03*
X174100000Y-122700000D03*
%TD*%
D14*
%TO.C,C12*%
X122550000Y-152600000D03*
X124450000Y-152600000D03*
%TD*%
D22*
%TO.C,U6*%
X150300000Y-138700000D03*
X150300000Y-139700000D03*
X152150000Y-139700000D03*
X152150000Y-138700000D03*
D23*
X151225000Y-139200000D03*
%TD*%
D24*
%TO.C,U4*%
X177900000Y-139500000D03*
X177900000Y-138400000D03*
X177900000Y-137300000D03*
X177900000Y-136200000D03*
X177900000Y-135100000D03*
X177900000Y-134000000D03*
X177900000Y-132900000D03*
X177900000Y-129900000D03*
X177900000Y-128800000D03*
X177900000Y-127700000D03*
X177900000Y-126600000D03*
X177900000Y-125500000D03*
X165900000Y-125500000D03*
X165900000Y-126600000D03*
X165900000Y-127700000D03*
X165900000Y-128800000D03*
X165900000Y-129900000D03*
X165900000Y-132900000D03*
X165900000Y-134000000D03*
X165900000Y-135100000D03*
X165900000Y-136200000D03*
X165900000Y-137300000D03*
X165900000Y-138400000D03*
X165900000Y-139500000D03*
%TD*%
D25*
%TO.C,U3*%
X155300000Y-128300000D03*
X157600000Y-128300000D03*
D26*
X157600000Y-122000000D03*
D25*
X159900000Y-128300000D03*
%TD*%
D27*
%TO.C,U2*%
X143607500Y-127287500D03*
X144557500Y-127287500D03*
X145507500Y-127287500D03*
X145507500Y-125012500D03*
X143607500Y-125012500D03*
%TD*%
D28*
%TO.C,U1*%
X125315000Y-126995000D03*
X125315000Y-128195000D03*
X125315000Y-129395000D03*
X125315000Y-130595000D03*
X125315000Y-131795000D03*
X125315000Y-132995000D03*
X125315000Y-134195000D03*
X125315000Y-135395000D03*
X125315000Y-136595000D03*
X125315000Y-137795000D03*
X125315000Y-138995000D03*
X125315000Y-140195000D03*
X125315000Y-141395000D03*
D29*
X127275000Y-146565000D03*
X128475000Y-146565000D03*
X130875000Y-146565000D03*
X132075000Y-146565000D03*
X133275000Y-146565000D03*
X134475000Y-146565000D03*
X135675000Y-146565000D03*
X136875000Y-146565000D03*
X138075000Y-146565000D03*
D28*
X140055000Y-143895000D03*
X140055000Y-142695000D03*
X140055000Y-141495000D03*
X140055000Y-140295000D03*
X140055000Y-139095000D03*
X140055000Y-137895000D03*
X140055000Y-136695000D03*
X140055000Y-135495000D03*
X140055000Y-134295000D03*
X140055000Y-133095000D03*
X140055000Y-131895000D03*
X140055000Y-130695000D03*
X140055000Y-129495000D03*
D29*
X138115000Y-123825000D03*
X136915000Y-123825000D03*
X134515000Y-123825000D03*
X133315000Y-123825000D03*
X132115000Y-123825000D03*
X130915000Y-123825000D03*
X129715000Y-123825000D03*
X128515000Y-123825000D03*
X127315000Y-123825000D03*
%TD*%
D30*
%TO.C,SW2*%
X128600000Y-149900000D03*
X128600000Y-153100000D03*
D31*
X126850000Y-150500000D03*
X130350000Y-150500000D03*
X126850000Y-152500000D03*
X130350000Y-152500000D03*
%TD*%
D30*
%TO.C,SW1*%
X134900000Y-153100000D03*
X134900000Y-149900000D03*
D31*
X136650000Y-152500000D03*
X133150000Y-152500000D03*
X136650000Y-150500000D03*
X133150000Y-150500000D03*
%TD*%
D32*
%TO.C,RN6*%
X150900000Y-144600000D03*
X150900000Y-145400000D03*
X150900000Y-146200000D03*
X150900000Y-147000000D03*
X152600000Y-147000000D03*
X152600000Y-146200000D03*
X152600000Y-145400000D03*
X152600000Y-144600000D03*
%TD*%
%TO.C,RN5*%
X155800000Y-134700000D03*
X155800000Y-135500000D03*
X155800000Y-136300000D03*
X155800000Y-137100000D03*
X157500000Y-137100000D03*
X157500000Y-136300000D03*
X157500000Y-135500000D03*
X157500000Y-134700000D03*
%TD*%
D33*
%TO.C,RN4*%
X187000000Y-143200000D03*
X187800000Y-143200000D03*
X188600000Y-143200000D03*
X189400000Y-143200000D03*
X189400000Y-141500000D03*
X188600000Y-141500000D03*
X187800000Y-141500000D03*
X187000000Y-141500000D03*
%TD*%
D34*
%TO.C,RN3*%
X160700000Y-135500000D03*
D35*
X160700000Y-134700000D03*
X160700000Y-133900000D03*
D34*
X160700000Y-133100000D03*
X162500000Y-133100000D03*
D35*
X162500000Y-133900000D03*
X162500000Y-134700000D03*
D34*
X162500000Y-135500000D03*
%TD*%
%TO.C,RN2*%
X180200000Y-134100000D03*
X180200000Y-135100000D03*
X182000000Y-135100000D03*
X182000000Y-134100000D03*
%TD*%
D33*
%TO.C,RN1*%
X122300000Y-120800000D03*
X121500000Y-120800000D03*
X120700000Y-120800000D03*
X119900000Y-120800000D03*
X119900000Y-122500000D03*
X120700000Y-122500000D03*
X121500000Y-122500000D03*
X122300000Y-122500000D03*
%TD*%
D12*
%TO.C,R1*%
X143982500Y-121800000D03*
X145807500Y-121800000D03*
%TD*%
D36*
%TO.C,Q1*%
X149607500Y-125187500D03*
X149607500Y-127087500D03*
X151482500Y-126137500D03*
%TD*%
D37*
%TO.C,J9*%
X134200000Y-158260000D03*
D38*
X136740000Y-158260000D03*
X139280000Y-158260000D03*
X141820000Y-158260000D03*
%TD*%
D37*
%TO.C,J8*%
X164600000Y-158400000D03*
D38*
X167140000Y-158400000D03*
X169680000Y-158400000D03*
X172220000Y-158400000D03*
%TD*%
D37*
%TO.C,J7*%
X171100000Y-121800000D03*
%TD*%
%TO.C,J6*%
X125700000Y-120800000D03*
%TD*%
%TO.C,J5*%
X117400000Y-136720000D03*
D38*
X117400000Y-139260000D03*
X117400000Y-141800000D03*
X117400000Y-144340000D03*
X117400000Y-146880000D03*
X117400000Y-149420000D03*
X117400000Y-151960000D03*
%TD*%
D37*
%TO.C,J4*%
X121800000Y-158200000D03*
D38*
X124340000Y-158200000D03*
X126880000Y-158200000D03*
X129420000Y-158200000D03*
%TD*%
D39*
%TO.C,J3*%
X186912500Y-136990000D03*
X186912500Y-131210000D03*
D40*
X185712500Y-137425000D03*
X185712500Y-136625000D03*
X185712500Y-135350000D03*
X185712500Y-134350000D03*
X185712500Y-133850000D03*
X185712500Y-135850000D03*
X185712500Y-131575000D03*
X185712500Y-130775000D03*
X185712500Y-131025000D03*
X185712500Y-131825000D03*
X185712500Y-132350000D03*
X185712500Y-133350000D03*
X185712500Y-134850000D03*
X185712500Y-132850000D03*
X185712500Y-136375000D03*
X185712500Y-137175000D03*
D41*
X186412500Y-138420000D03*
D42*
X190562500Y-138420000D03*
D41*
X186412500Y-129780000D03*
D42*
X190562500Y-129780000D03*
%TD*%
D43*
%TO.C,J2*%
X182300000Y-126600000D03*
D44*
X183800000Y-125125000D03*
D43*
X185300000Y-126600000D03*
D45*
X183800000Y-128075000D03*
%TD*%
D39*
%TO.C,J1*%
X118972500Y-126505000D03*
X118972500Y-132285000D03*
D40*
X120172500Y-126070000D03*
X120172500Y-126870000D03*
X120172500Y-128145000D03*
X120172500Y-129145000D03*
X120172500Y-129645000D03*
X120172500Y-127645000D03*
X120172500Y-131920000D03*
X120172500Y-132720000D03*
X120172500Y-132470000D03*
X120172500Y-131670000D03*
X120172500Y-131145000D03*
X120172500Y-130145000D03*
X120172500Y-128645000D03*
X120172500Y-130645000D03*
X120172500Y-127120000D03*
X120172500Y-126320000D03*
D41*
X119472500Y-125075000D03*
D42*
X115322500Y-125075000D03*
D41*
X119472500Y-133715000D03*
D42*
X115322500Y-133715000D03*
%TD*%
D46*
%TO.C,H4*%
X115700000Y-157600000D03*
%TD*%
%TO.C,H3*%
X189700000Y-157400000D03*
%TD*%
%TO.C,H2*%
X189500000Y-119100000D03*
%TD*%
%TO.C,H1*%
X115500000Y-119100000D03*
%TD*%
D47*
%TO.C,D4*%
X158837500Y-150300000D03*
X156962500Y-150300000D03*
%TD*%
%TO.C,D3*%
X158837500Y-146900000D03*
X156962500Y-146900000D03*
%TD*%
%TO.C,D2*%
X158837500Y-143500000D03*
X156962500Y-143500000D03*
%TD*%
D48*
%TO.C,D1*%
X150600000Y-130500000D03*
X147300000Y-130500000D03*
%TD*%
D21*
%TO.C,C11*%
X152150000Y-135600000D03*
X150250000Y-135600000D03*
%TD*%
%TO.C,C10*%
X141200000Y-149800000D03*
X139300000Y-149800000D03*
%TD*%
%TO.C,C9*%
X162850000Y-139500000D03*
X160950000Y-139500000D03*
%TD*%
D49*
%TO.C,C8*%
X182000000Y-136750000D03*
X182000000Y-138650000D03*
%TD*%
D50*
%TO.C,C7*%
X182050000Y-132550000D03*
X182050000Y-130650000D03*
%TD*%
D14*
%TO.C,C6*%
X129300000Y-120700000D03*
X131200000Y-120700000D03*
%TD*%
D21*
%TO.C,C5*%
X157600000Y-131300000D03*
X155700000Y-131300000D03*
%TD*%
D14*
%TO.C,C4*%
X159550000Y-131300000D03*
X161450000Y-131300000D03*
%TD*%
D21*
%TO.C,C3*%
X150045000Y-121800000D03*
X148145000Y-121800000D03*
%TD*%
D50*
%TO.C,C2*%
X122700000Y-127050000D03*
X122700000Y-125150000D03*
%TD*%
D49*
%TO.C,C1*%
X122700000Y-131250000D03*
X122700000Y-133150000D03*
%TD*%
M02*
