%TF.GenerationSoftware,KiCad,Pcbnew,7.0.8*%
%TF.CreationDate,2024-04-10T15:19:10-05:00*%
%TF.ProjectId,X_PCBnut,585f5043-426e-4757-942e-6b696361645f,rev?*%
%TF.SameCoordinates,Original*%
%TF.FileFunction,Legend,Top*%
%TF.FilePolarity,Positive*%
%FSLAX46Y46*%
G04 Gerber Fmt 4.6, Leading zero omitted, Abs format (unit mm)*
G04 Created by KiCad (PCBNEW 7.0.8) date 2024-04-10 15:19:10*
%MOMM*%
%LPD*%
G01*
G04 APERTURE LIST*
%ADD10C,0.150000*%
G04 APERTURE END LIST*
D10*
X238354819Y-84738094D02*
X237354819Y-84738094D01*
X237831009Y-84738094D02*
X237831009Y-84166666D01*
X238354819Y-84166666D02*
X237354819Y-84166666D01*
X238354819Y-83166666D02*
X238354819Y-83738094D01*
X238354819Y-83452380D02*
X237354819Y-83452380D01*
X237354819Y-83452380D02*
X237497676Y-83547618D01*
X237497676Y-83547618D02*
X237592914Y-83642856D01*
X237592914Y-83642856D02*
X237640533Y-83738094D01*
X237354819Y-82547618D02*
X237354819Y-82452380D01*
X237354819Y-82452380D02*
X237402438Y-82357142D01*
X237402438Y-82357142D02*
X237450057Y-82309523D01*
X237450057Y-82309523D02*
X237545295Y-82261904D01*
X237545295Y-82261904D02*
X237735771Y-82214285D01*
X237735771Y-82214285D02*
X237973866Y-82214285D01*
X237973866Y-82214285D02*
X238164342Y-82261904D01*
X238164342Y-82261904D02*
X238259580Y-82309523D01*
X238259580Y-82309523D02*
X238307200Y-82357142D01*
X238307200Y-82357142D02*
X238354819Y-82452380D01*
X238354819Y-82452380D02*
X238354819Y-82547618D01*
X238354819Y-82547618D02*
X238307200Y-82642856D01*
X238307200Y-82642856D02*
X238259580Y-82690475D01*
X238259580Y-82690475D02*
X238164342Y-82738094D01*
X238164342Y-82738094D02*
X237973866Y-82785713D01*
X237973866Y-82785713D02*
X237735771Y-82785713D01*
X237735771Y-82785713D02*
X237545295Y-82738094D01*
X237545295Y-82738094D02*
X237450057Y-82690475D01*
X237450057Y-82690475D02*
X237402438Y-82642856D01*
X237402438Y-82642856D02*
X237354819Y-82547618D01*
X218354819Y-84261904D02*
X217354819Y-84261904D01*
X217831009Y-84261904D02*
X217831009Y-83690476D01*
X218354819Y-83690476D02*
X217354819Y-83690476D01*
X218354819Y-83166666D02*
X218354819Y-82976190D01*
X218354819Y-82976190D02*
X218307200Y-82880952D01*
X218307200Y-82880952D02*
X218259580Y-82833333D01*
X218259580Y-82833333D02*
X218116723Y-82738095D01*
X218116723Y-82738095D02*
X217926247Y-82690476D01*
X217926247Y-82690476D02*
X217545295Y-82690476D01*
X217545295Y-82690476D02*
X217450057Y-82738095D01*
X217450057Y-82738095D02*
X217402438Y-82785714D01*
X217402438Y-82785714D02*
X217354819Y-82880952D01*
X217354819Y-82880952D02*
X217354819Y-83071428D01*
X217354819Y-83071428D02*
X217402438Y-83166666D01*
X217402438Y-83166666D02*
X217450057Y-83214285D01*
X217450057Y-83214285D02*
X217545295Y-83261904D01*
X217545295Y-83261904D02*
X217783390Y-83261904D01*
X217783390Y-83261904D02*
X217878628Y-83214285D01*
X217878628Y-83214285D02*
X217926247Y-83166666D01*
X217926247Y-83166666D02*
X217973866Y-83071428D01*
X217973866Y-83071428D02*
X217973866Y-82880952D01*
X217973866Y-82880952D02*
X217926247Y-82785714D01*
X217926247Y-82785714D02*
X217878628Y-82738095D01*
X217878628Y-82738095D02*
X217783390Y-82690476D01*
X198354819Y-84261904D02*
X197354819Y-84261904D01*
X197831009Y-84261904D02*
X197831009Y-83690476D01*
X198354819Y-83690476D02*
X197354819Y-83690476D01*
X197783390Y-83071428D02*
X197735771Y-83166666D01*
X197735771Y-83166666D02*
X197688152Y-83214285D01*
X197688152Y-83214285D02*
X197592914Y-83261904D01*
X197592914Y-83261904D02*
X197545295Y-83261904D01*
X197545295Y-83261904D02*
X197450057Y-83214285D01*
X197450057Y-83214285D02*
X197402438Y-83166666D01*
X197402438Y-83166666D02*
X197354819Y-83071428D01*
X197354819Y-83071428D02*
X197354819Y-82880952D01*
X197354819Y-82880952D02*
X197402438Y-82785714D01*
X197402438Y-82785714D02*
X197450057Y-82738095D01*
X197450057Y-82738095D02*
X197545295Y-82690476D01*
X197545295Y-82690476D02*
X197592914Y-82690476D01*
X197592914Y-82690476D02*
X197688152Y-82738095D01*
X197688152Y-82738095D02*
X197735771Y-82785714D01*
X197735771Y-82785714D02*
X197783390Y-82880952D01*
X197783390Y-82880952D02*
X197783390Y-83071428D01*
X197783390Y-83071428D02*
X197831009Y-83166666D01*
X197831009Y-83166666D02*
X197878628Y-83214285D01*
X197878628Y-83214285D02*
X197973866Y-83261904D01*
X197973866Y-83261904D02*
X198164342Y-83261904D01*
X198164342Y-83261904D02*
X198259580Y-83214285D01*
X198259580Y-83214285D02*
X198307200Y-83166666D01*
X198307200Y-83166666D02*
X198354819Y-83071428D01*
X198354819Y-83071428D02*
X198354819Y-82880952D01*
X198354819Y-82880952D02*
X198307200Y-82785714D01*
X198307200Y-82785714D02*
X198259580Y-82738095D01*
X198259580Y-82738095D02*
X198164342Y-82690476D01*
X198164342Y-82690476D02*
X197973866Y-82690476D01*
X197973866Y-82690476D02*
X197878628Y-82738095D01*
X197878628Y-82738095D02*
X197831009Y-82785714D01*
X197831009Y-82785714D02*
X197783390Y-82880952D01*
X178354819Y-84261904D02*
X177354819Y-84261904D01*
X177831009Y-84261904D02*
X177831009Y-83690476D01*
X178354819Y-83690476D02*
X177354819Y-83690476D01*
X177354819Y-83309523D02*
X177354819Y-82642857D01*
X177354819Y-82642857D02*
X178354819Y-83071428D01*
X158354819Y-84261904D02*
X157354819Y-84261904D01*
X157831009Y-84261904D02*
X157831009Y-83690476D01*
X158354819Y-83690476D02*
X157354819Y-83690476D01*
X157354819Y-82785714D02*
X157354819Y-82976190D01*
X157354819Y-82976190D02*
X157402438Y-83071428D01*
X157402438Y-83071428D02*
X157450057Y-83119047D01*
X157450057Y-83119047D02*
X157592914Y-83214285D01*
X157592914Y-83214285D02*
X157783390Y-83261904D01*
X157783390Y-83261904D02*
X158164342Y-83261904D01*
X158164342Y-83261904D02*
X158259580Y-83214285D01*
X158259580Y-83214285D02*
X158307200Y-83166666D01*
X158307200Y-83166666D02*
X158354819Y-83071428D01*
X158354819Y-83071428D02*
X158354819Y-82880952D01*
X158354819Y-82880952D02*
X158307200Y-82785714D01*
X158307200Y-82785714D02*
X158259580Y-82738095D01*
X158259580Y-82738095D02*
X158164342Y-82690476D01*
X158164342Y-82690476D02*
X157926247Y-82690476D01*
X157926247Y-82690476D02*
X157831009Y-82738095D01*
X157831009Y-82738095D02*
X157783390Y-82785714D01*
X157783390Y-82785714D02*
X157735771Y-82880952D01*
X157735771Y-82880952D02*
X157735771Y-83071428D01*
X157735771Y-83071428D02*
X157783390Y-83166666D01*
X157783390Y-83166666D02*
X157831009Y-83214285D01*
X157831009Y-83214285D02*
X157926247Y-83261904D01*
X138354819Y-84261904D02*
X137354819Y-84261904D01*
X137831009Y-84261904D02*
X137831009Y-83690476D01*
X138354819Y-83690476D02*
X137354819Y-83690476D01*
X137354819Y-82738095D02*
X137354819Y-83214285D01*
X137354819Y-83214285D02*
X137831009Y-83261904D01*
X137831009Y-83261904D02*
X137783390Y-83214285D01*
X137783390Y-83214285D02*
X137735771Y-83119047D01*
X137735771Y-83119047D02*
X137735771Y-82880952D01*
X137735771Y-82880952D02*
X137783390Y-82785714D01*
X137783390Y-82785714D02*
X137831009Y-82738095D01*
X137831009Y-82738095D02*
X137926247Y-82690476D01*
X137926247Y-82690476D02*
X138164342Y-82690476D01*
X138164342Y-82690476D02*
X138259580Y-82738095D01*
X138259580Y-82738095D02*
X138307200Y-82785714D01*
X138307200Y-82785714D02*
X138354819Y-82880952D01*
X138354819Y-82880952D02*
X138354819Y-83119047D01*
X138354819Y-83119047D02*
X138307200Y-83214285D01*
X138307200Y-83214285D02*
X138259580Y-83261904D01*
X118354819Y-84261904D02*
X117354819Y-84261904D01*
X117831009Y-84261904D02*
X117831009Y-83690476D01*
X118354819Y-83690476D02*
X117354819Y-83690476D01*
X117688152Y-82785714D02*
X118354819Y-82785714D01*
X117307200Y-83023809D02*
X118021485Y-83261904D01*
X118021485Y-83261904D02*
X118021485Y-82642857D01*
X98354819Y-84261904D02*
X97354819Y-84261904D01*
X97831009Y-84261904D02*
X97831009Y-83690476D01*
X98354819Y-83690476D02*
X97354819Y-83690476D01*
X97354819Y-83309523D02*
X97354819Y-82690476D01*
X97354819Y-82690476D02*
X97735771Y-83023809D01*
X97735771Y-83023809D02*
X97735771Y-82880952D01*
X97735771Y-82880952D02*
X97783390Y-82785714D01*
X97783390Y-82785714D02*
X97831009Y-82738095D01*
X97831009Y-82738095D02*
X97926247Y-82690476D01*
X97926247Y-82690476D02*
X98164342Y-82690476D01*
X98164342Y-82690476D02*
X98259580Y-82738095D01*
X98259580Y-82738095D02*
X98307200Y-82785714D01*
X98307200Y-82785714D02*
X98354819Y-82880952D01*
X98354819Y-82880952D02*
X98354819Y-83166666D01*
X98354819Y-83166666D02*
X98307200Y-83261904D01*
X98307200Y-83261904D02*
X98259580Y-83309523D01*
X78354819Y-84261904D02*
X77354819Y-84261904D01*
X77831009Y-84261904D02*
X77831009Y-83690476D01*
X78354819Y-83690476D02*
X77354819Y-83690476D01*
X77450057Y-83261904D02*
X77402438Y-83214285D01*
X77402438Y-83214285D02*
X77354819Y-83119047D01*
X77354819Y-83119047D02*
X77354819Y-82880952D01*
X77354819Y-82880952D02*
X77402438Y-82785714D01*
X77402438Y-82785714D02*
X77450057Y-82738095D01*
X77450057Y-82738095D02*
X77545295Y-82690476D01*
X77545295Y-82690476D02*
X77640533Y-82690476D01*
X77640533Y-82690476D02*
X77783390Y-82738095D01*
X77783390Y-82738095D02*
X78354819Y-83309523D01*
X78354819Y-83309523D02*
X78354819Y-82690476D01*
X58354819Y-84261904D02*
X57354819Y-84261904D01*
X57831009Y-84261904D02*
X57831009Y-83690476D01*
X58354819Y-83690476D02*
X57354819Y-83690476D01*
X58354819Y-82690476D02*
X58354819Y-83261904D01*
X58354819Y-82976190D02*
X57354819Y-82976190D01*
X57354819Y-82976190D02*
X57497676Y-83071428D01*
X57497676Y-83071428D02*
X57592914Y-83166666D01*
X57592914Y-83166666D02*
X57640533Y-83261904D01*
M02*
