%TF.GenerationSoftware,KiCad,Pcbnew,7.0.8*%
%TF.CreationDate,2024-04-10T15:19:10-05:00*%
%TF.ProjectId,X_PCBnut,585f5043-426e-4757-942e-6b696361645f,rev?*%
%TF.SameCoordinates,Original*%
%TF.FileFunction,Paste,Top*%
%TF.FilePolarity,Positive*%
%FSLAX46Y46*%
G04 Gerber Fmt 4.6, Leading zero omitted, Abs format (unit mm)*
G04 Created by KiCad (PCBNEW 7.0.8) date 2024-04-10 15:19:10*
%MOMM*%
%LPD*%
G01*
G04 APERTURE LIST*
%ADD10C,1.200000*%
G04 APERTURE END LIST*
D10*
%TO.C,H10*%
X240162214Y-84906327D02*
G75*
G03*
X241580000Y-85040000I847787J1406324D01*
G01*
X240157042Y-82075059D02*
G75*
G03*
X239357004Y-83340000I852958J-1424942D01*
G01*
X242639999Y-83660000D02*
G75*
G03*
X241920815Y-82138781I-1630001J160000D01*
G01*
%TO.C,H9*%
X220162214Y-84906327D02*
G75*
G03*
X221580000Y-85040000I847787J1406324D01*
G01*
X220157042Y-82075059D02*
G75*
G03*
X219357004Y-83340000I852958J-1424942D01*
G01*
X222639999Y-83660000D02*
G75*
G03*
X221920815Y-82138781I-1630001J160000D01*
G01*
%TO.C,H8*%
X200162214Y-84906327D02*
G75*
G03*
X201580000Y-85040000I847787J1406324D01*
G01*
X200157042Y-82075059D02*
G75*
G03*
X199357004Y-83340000I852958J-1424942D01*
G01*
X202639999Y-83660000D02*
G75*
G03*
X201920815Y-82138781I-1630001J160000D01*
G01*
%TO.C,H7*%
X180162214Y-84906327D02*
G75*
G03*
X181580000Y-85040000I847787J1406324D01*
G01*
X180157042Y-82075059D02*
G75*
G03*
X179357004Y-83340000I852958J-1424942D01*
G01*
X182639999Y-83660000D02*
G75*
G03*
X181920815Y-82138781I-1630001J160000D01*
G01*
%TO.C,H6*%
X160162214Y-84906327D02*
G75*
G03*
X161580000Y-85040000I847787J1406324D01*
G01*
X160157042Y-82075059D02*
G75*
G03*
X159357004Y-83340000I852958J-1424942D01*
G01*
X162639999Y-83660000D02*
G75*
G03*
X161920815Y-82138781I-1630001J160000D01*
G01*
%TO.C,H5*%
X140162214Y-84906327D02*
G75*
G03*
X141580000Y-85040000I847787J1406324D01*
G01*
X140157042Y-82075059D02*
G75*
G03*
X139357004Y-83340000I852958J-1424942D01*
G01*
X142639999Y-83660000D02*
G75*
G03*
X141920815Y-82138781I-1630001J160000D01*
G01*
%TO.C,H4*%
X120162214Y-84906327D02*
G75*
G03*
X121580000Y-85040000I847787J1406324D01*
G01*
X120157042Y-82075059D02*
G75*
G03*
X119357004Y-83340000I852958J-1424942D01*
G01*
X122639999Y-83660000D02*
G75*
G03*
X121920815Y-82138781I-1630001J160000D01*
G01*
%TO.C,H3*%
X100162214Y-84906327D02*
G75*
G03*
X101580000Y-85040000I847787J1406324D01*
G01*
X100157042Y-82075059D02*
G75*
G03*
X99357004Y-83340000I852958J-1424942D01*
G01*
X102639999Y-83660000D02*
G75*
G03*
X101920815Y-82138781I-1630001J160000D01*
G01*
%TO.C,H2*%
X80162214Y-84906327D02*
G75*
G03*
X81580000Y-85040000I847787J1406324D01*
G01*
X80157042Y-82075059D02*
G75*
G03*
X79357004Y-83340000I852958J-1424942D01*
G01*
X82639999Y-83660000D02*
G75*
G03*
X81920815Y-82138781I-1630001J160000D01*
G01*
%TO.C,H1*%
X60162214Y-84906327D02*
G75*
G03*
X61580000Y-85040000I847787J1406324D01*
G01*
X60157042Y-82075059D02*
G75*
G03*
X59357004Y-83340000I852958J-1424942D01*
G01*
X62639999Y-83660000D02*
G75*
G03*
X61920815Y-82138781I-1630001J160000D01*
G01*
%TD*%
M02*
