%TF.GenerationSoftware,KiCad,Pcbnew,9.0.3*%
%TF.CreationDate,2025-07-23T15:56:11-05:00*%
%TF.ProjectId,panel,70616e65-6c2e-46b6-9963-61645f706362,rev?*%
%TF.SameCoordinates,Original*%
%TF.FileFunction,Soldermask,Bot*%
%TF.FilePolarity,Negative*%
%FSLAX46Y46*%
G04 Gerber Fmt 4.6, Leading zero omitted, Abs format (unit mm)*
G04 Created by KiCad (PCBNEW 9.0.3) date 2025-07-23 15:56:11*
%MOMM*%
%LPD*%
G01*
G04 APERTURE LIST*
G04 Aperture macros list*
%AMRoundRect*
0 Rectangle with rounded corners*
0 $1 Rounding radius*
0 $2 $3 $4 $5 $6 $7 $8 $9 X,Y pos of 4 corners*
0 Add a 4 corners polygon primitive as box body*
4,1,4,$2,$3,$4,$5,$6,$7,$8,$9,$2,$3,0*
0 Add four circle primitives for the rounded corners*
1,1,$1+$1,$2,$3*
1,1,$1+$1,$4,$5*
1,1,$1+$1,$6,$7*
1,1,$1+$1,$8,$9*
0 Add four rect primitives between the rounded corners*
20,1,$1+$1,$2,$3,$4,$5,0*
20,1,$1+$1,$4,$5,$6,$7,0*
20,1,$1+$1,$6,$7,$8,$9,0*
20,1,$1+$1,$8,$9,$2,$3,0*%
G04 Aperture macros list end*
%ADD10C,0.500000*%
%ADD11C,1.500000*%
%ADD12R,5.080000X1.270000*%
%ADD13C,17.800000*%
%ADD14R,1.000000X3.150000*%
%ADD15RoundRect,0.100000X0.637500X0.100000X-0.637500X0.100000X-0.637500X-0.100000X0.637500X-0.100000X0*%
%ADD16C,1.000000*%
%ADD17C,0.900000*%
%ADD18R,1.250000X0.900000*%
%ADD19R,0.900000X0.800000*%
%ADD20R,0.800000X1.450000*%
%ADD21R,1.700000X1.700000*%
%ADD22C,1.700000*%
%ADD23R,2.000000X4.600000*%
%ADD24RoundRect,0.250000X0.475000X-0.250000X0.475000X0.250000X-0.475000X0.250000X-0.475000X-0.250000X0*%
G04 APERTURE END LIST*
D10*
%TO.C,KiKit_MB_28_4*%
X156920592Y-118395879D03*
%TD*%
%TO.C,KiKit_MB_7_4*%
X134942661Y-65277159D03*
%TD*%
%TO.C,KiKit_MB_26_5*%
X158363346Y-146799648D03*
%TD*%
%TO.C,KiKit_MB_30_2*%
X157182136Y-170812487D03*
%TD*%
%TO.C,KiKit_MB_8_2*%
X158518465Y-65260219D03*
%TD*%
%TO.C,KiKit_MB_35_3*%
X188147478Y-179442975D03*
%TD*%
%TO.C,KiKit_MB_32_3*%
X204999085Y-144800315D03*
%TD*%
%TO.C,KiKit_MB_36_2*%
X203714462Y-170812487D03*
%TD*%
%TO.C,KiKit_MB_24_6*%
X110220238Y-174976825D03*
%TD*%
%TO.C,KiKit_MB_5_5*%
X94154426Y-102982266D03*
%TD*%
D11*
%TO.C,KiKit_TO_3*%
X74201511Y-188580862D03*
%TD*%
D10*
%TO.C,KiKit_MB_36_12*%
X201154453Y-180818929D03*
%TD*%
%TO.C,KiKit_MB_38_6*%
X76201511Y-183080862D03*
%TD*%
%TO.C,KiKit_MB_34_5*%
X204475259Y-118224143D03*
%TD*%
%TO.C,KiKit_MB_12_12*%
X154622127Y-102278498D03*
%TD*%
%TO.C,KiKit_MB_24_8*%
X109797370Y-177026405D03*
%TD*%
%TO.C,KiKit_MB_6_7*%
X110033789Y-97466434D03*
%TD*%
%TO.C,KiKit_MB_6_1*%
X110724483Y-91227774D03*
%TD*%
%TO.C,KiKit_MB_3_4*%
X95364521Y-40122792D03*
%TD*%
%TO.C,KiKit_MB_3_2*%
X93482422Y-38576491D03*
%TD*%
%TO.C,KiKit_MB_25_1*%
X134840634Y-146817156D03*
%TD*%
%TO.C,KiKit_MB_12_6*%
X156752564Y-96436394D03*
%TD*%
%TO.C,KiKit_MB_6_13*%
X107404920Y-103069553D03*
%TD*%
%TO.C,KiKit_MB_36_7*%
X203098441Y-176006865D03*
%TD*%
%TO.C,KiKit_MB_19_2*%
X88342318Y-145817300D03*
%TD*%
%TO.C,KiKit_MB_3_1*%
X92529188Y-37818475D03*
%TD*%
%TO.C,KiKit_MB_23_3*%
X95082827Y-179442975D03*
%TD*%
%TO.C,KiKit_MB_36_10*%
X202197888Y-179009585D03*
%TD*%
%TO.C,KiKit_MB_5_3*%
X95082827Y-100902544D03*
%TD*%
%TO.C,KiKit_MB_5_1*%
X96575135Y-99933175D03*
%TD*%
%TO.C,KiKit_MB_24_7*%
X110033789Y-176006865D03*
%TD*%
%TO.C,KiKit_MB_32_5*%
X204895672Y-146799648D03*
%TD*%
%TO.C,KiKit_MB_39_5*%
X223798489Y-28000000D03*
%TD*%
%TO.C,KiKit_MB_1_5*%
X88444345Y-64277304D03*
%TD*%
%TO.C,KiKit_MB_6_5*%
X110367103Y-95399845D03*
%TD*%
%TO.C,KiKit_MB_15_5*%
X189374006Y-40891292D03*
%TD*%
%TO.C,KiKit_MB_18_6*%
X203284890Y-96436394D03*
%TD*%
%TO.C,KiKit_MB_6_12*%
X108089801Y-102278498D03*
%TD*%
%TO.C,KiKit_MB_15_2*%
X186547073Y-38576491D03*
%TD*%
%TO.C,KiKit_MB_12_3*%
X157098852Y-93315698D03*
%TD*%
%TO.C,KiKit_MB_2_5*%
X111831020Y-68259217D03*
%TD*%
%TO.C,KiKit_MB_24_2*%
X110649810Y-170812487D03*
%TD*%
%TO.C,KiKit_MB_36_8*%
X202862022Y-177026405D03*
%TD*%
%TO.C,KiKit_MB_37_5*%
X75201511Y-28000000D03*
%TD*%
%TO.C,KiKit_MB_5_4*%
X94676725Y-101968981D03*
%TD*%
%TO.C,KiKit_MB_16_5*%
X204475259Y-39683713D03*
%TD*%
%TO.C,KiKit_MB_35_2*%
X188543199Y-178373195D03*
%TD*%
%TO.C,KiKit_MB_18_13*%
X200469572Y-103069553D03*
%TD*%
%TO.C,KiKit_MB_14_5*%
X204895672Y-68259217D03*
%TD*%
%TO.C,KiKit_MB_21_5*%
X96309355Y-119431722D03*
%TD*%
%TO.C,KiKit_MB_17_6*%
X186496038Y-103861294D03*
%TD*%
%TO.C,KiKit_MB_17_5*%
X187219077Y-102982266D03*
%TD*%
%TO.C,KiKit_MB_31_3*%
X181440978Y-144817445D03*
%TD*%
%TO.C,KiKit_MB_10_1*%
X154068086Y-41087894D03*
%TD*%
%TO.C,KiKit_MB_1_3*%
X88376327Y-66277014D03*
%TD*%
%TO.C,KiKit_MB_29_2*%
X142010873Y-178373195D03*
%TD*%
%TO.C,KiKit_MB_25_5*%
X134976670Y-142817734D03*
%TD*%
%TO.C,KiKit_MB_6_2*%
X110649810Y-92272056D03*
%TD*%
%TO.C,KiKit_MB_31_1*%
X181372960Y-146817156D03*
%TD*%
%TO.C,KiKit_MB_28_3*%
X155938780Y-118730347D03*
%TD*%
%TO.C,KiKit_MB_33_2*%
X186547073Y-117116921D03*
%TD*%
%TO.C,KiKit_MB_40_5*%
X223798489Y-183080862D03*
%TD*%
%TO.C,KiKit_MB_30_10*%
X155665562Y-179009585D03*
%TD*%
%TO.C,KiKit_MB_12_4*%
X157015188Y-94359304D03*
%TD*%
%TO.C,KiKit_MB_4_3*%
X109406454Y-40189917D03*
%TD*%
%TO.C,KiKit_MB_9_4*%
X141896846Y-40122792D03*
%TD*%
%TO.C,KiKit_MB_23_5*%
X94154426Y-181522697D03*
%TD*%
%TO.C,KiKit_MB_2_1*%
X112037846Y-64260553D03*
%TD*%
%TO.C,KiKit_MB_31_5*%
X181508996Y-142817734D03*
%TD*%
%TO.C,KiKit_MB_2_4*%
X111882726Y-67259550D03*
%TD*%
%TO.C,KiKit_MB_26_2*%
X158518465Y-143800649D03*
%TD*%
%TO.C,KiKit_MB_16_1*%
X200600412Y-41087894D03*
%TD*%
%TO.C,KiKit_MB_3_5*%
X96309355Y-40891292D03*
%TD*%
%TO.C,KiKit_MB_23_4*%
X94676725Y-180509412D03*
%TD*%
%TO.C,KiKit_MB_36_4*%
X203547514Y-172899735D03*
%TD*%
%TO.C,KiKit_MB_20_1*%
X112037846Y-142800983D03*
%TD*%
%TO.C,KiKit_MB_30_3*%
X157098852Y-171856129D03*
%TD*%
%TO.C,KiKit_MB_24_11*%
X108665829Y-179945770D03*
%TD*%
%TO.C,KiKit_MB_36_1*%
X203789135Y-169768205D03*
%TD*%
%TO.C,KiKit_MB_30_13*%
X153937246Y-181609984D03*
%TD*%
%TO.C,KiKit_MB_4_2*%
X108460875Y-40617371D03*
%TD*%
%TO.C,KiKit_MB_39_3*%
X221798489Y-28000000D03*
%TD*%
%TO.C,KiKit_MB_24_4*%
X110482862Y-172899735D03*
%TD*%
%TO.C,KiKit_MB_39_6*%
X224798489Y-28000000D03*
%TD*%
%TO.C,KiKit_MB_12_1*%
X157256809Y-91227774D03*
%TD*%
%TO.C,KiKit_MB_9_3*%
X140955796Y-39349641D03*
%TD*%
%TO.C,KiKit_MB_10_5*%
X157942933Y-39683713D03*
%TD*%
%TO.C,KiKit_MB_24_9*%
X109498572Y-178029165D03*
%TD*%
%TO.C,KiKit_MB_30_12*%
X154622127Y-180818929D03*
%TD*%
%TO.C,KiKit_MB_13_4*%
X181474987Y-65277159D03*
%TD*%
%TO.C,KiKit_MB_24_12*%
X108089801Y-180818929D03*
%TD*%
%TO.C,KiKit_MB_18_5*%
X203431755Y-95399845D03*
%TD*%
%TO.C,KiKit_MB_27_3*%
X140955796Y-117890071D03*
%TD*%
%TO.C,KiKit_MB_35_5*%
X187219077Y-181522697D03*
%TD*%
%TO.C,KiKit_MB_25_3*%
X134908652Y-144817445D03*
%TD*%
%TO.C,KiKit_MB_38_3*%
X73201511Y-183080862D03*
%TD*%
%TO.C,KiKit_MB_30_9*%
X156030898Y-178029165D03*
%TD*%
%TO.C,KiKit_MB_30_6*%
X156752564Y-174976825D03*
%TD*%
%TO.C,KiKit_MB_26_3*%
X158466759Y-144800315D03*
%TD*%
%TO.C,KiKit_MB_40_2*%
X220798489Y-183080862D03*
%TD*%
%TO.C,KiKit_MB_10_3*%
X155938780Y-40189917D03*
%TD*%
%TO.C,KiKit_MB_18_10*%
X202197888Y-100469154D03*
%TD*%
%TO.C,KiKit_MB_24_3*%
X110566526Y-171856129D03*
%TD*%
%TO.C,KiKit_MB_8_1*%
X158570172Y-64260553D03*
%TD*%
%TO.C,KiKit_MB_40_3*%
X221798489Y-183080862D03*
%TD*%
%TO.C,KiKit_MB_30_7*%
X156566115Y-176006865D03*
%TD*%
%TO.C,KiKit_MB_15_3*%
X187488122Y-39349641D03*
%TD*%
%TO.C,KiKit_MB_26_1*%
X158570172Y-142800983D03*
%TD*%
%TO.C,KiKit_MB_32_1*%
X205102498Y-142800983D03*
%TD*%
%TO.C,KiKit_MB_27_2*%
X140014747Y-117116921D03*
%TD*%
%TO.C,KiKit_MB_8_4*%
X158415052Y-67259550D03*
%TD*%
%TO.C,KiKit_MB_12_2*%
X157182136Y-92272056D03*
%TD*%
%TO.C,KiKit_MB_6_10*%
X109133236Y-100469154D03*
%TD*%
%TO.C,KiKit_MB_13_3*%
X181440978Y-66277014D03*
%TD*%
%TO.C,KiKit_MB_8_3*%
X158466759Y-66259885D03*
%TD*%
%TO.C,KiKit_MB_19_5*%
X88444345Y-142817734D03*
%TD*%
%TO.C,KiKit_MB_11_3*%
X141615152Y-100902544D03*
%TD*%
%TO.C,KiKit_MB_22_4*%
X110388266Y-118395879D03*
%TD*%
%TO.C,KiKit_MB_30_8*%
X156329696Y-177026405D03*
%TD*%
%TO.C,KiKit_MB_36_3*%
X203631178Y-171856129D03*
%TD*%
%TO.C,KiKit_MB_13_5*%
X181508996Y-64277304D03*
%TD*%
%TO.C,KiKit_MB_25_4*%
X134942661Y-143817589D03*
%TD*%
%TO.C,KiKit_MB_14_1*%
X205102498Y-64260553D03*
%TD*%
%TO.C,KiKit_MB_34_2*%
X201525527Y-119157801D03*
%TD*%
%TO.C,KiKit_MB_19_1*%
X88308309Y-146817156D03*
%TD*%
%TO.C,KiKit_MB_23_1*%
X96575135Y-178473606D03*
%TD*%
%TO.C,KiKit_MB_11_6*%
X139963712Y-103861294D03*
%TD*%
%TO.C,KiKit_MB_33_1*%
X185593839Y-116358905D03*
%TD*%
%TO.C,KiKit_MB_16_4*%
X203452918Y-39855449D03*
%TD*%
%TO.C,KiKit_MB_20_2*%
X111986139Y-143800649D03*
%TD*%
%TO.C,KiKit_MB_4_4*%
X110388266Y-39855449D03*
%TD*%
%TO.C,KiKit_MB_9_5*%
X142841680Y-40891292D03*
%TD*%
%TO.C,KiKit_MB_18_11*%
X201730481Y-101405339D03*
%TD*%
%TO.C,KiKit_MB_12_7*%
X156566115Y-97466434D03*
%TD*%
%TO.C,KiKit_MB_12_11*%
X155198155Y-101405339D03*
%TD*%
%TO.C,KiKit_MB_28_5*%
X157942933Y-118224143D03*
%TD*%
%TO.C,KiKit_MB_36_13*%
X200469572Y-181609984D03*
%TD*%
%TO.C,KiKit_MB_29_1*%
X143107460Y-178473606D03*
%TD*%
%TO.C,KiKit_MB_27_4*%
X141896846Y-118663222D03*
%TD*%
%TO.C,KiKit_MB_26_4*%
X158415052Y-145799981D03*
%TD*%
%TO.C,KiKit_MB_16_2*%
X201525527Y-40617371D03*
%TD*%
%TO.C,KiKit_MB_28_2*%
X154993201Y-119157801D03*
%TD*%
%TO.C,KiKit_MB_1_2*%
X88342318Y-67276869D03*
%TD*%
%TO.C,KiKit_MB_27_5*%
X142841680Y-119431722D03*
%TD*%
%TO.C,KiKit_MB_40_4*%
X222798489Y-183080862D03*
%TD*%
%TO.C,KiKit_MB_24_5*%
X110367103Y-173940276D03*
%TD*%
%TO.C,KiKit_MB_18_9*%
X202563224Y-99488734D03*
%TD*%
%TO.C,KiKit_MB_18_1*%
X203789135Y-91227774D03*
%TD*%
%TO.C,KiKit_MB_12_13*%
X153937246Y-103069553D03*
%TD*%
%TO.C,KiKit_MB_6_4*%
X110482862Y-94359304D03*
%TD*%
%TO.C,KiKit_MB_21_1*%
X92529188Y-116358905D03*
%TD*%
%TO.C,KiKit_MB_21_3*%
X94423471Y-117890071D03*
%TD*%
%TO.C,KiKit_MB_38_4*%
X74201511Y-183080862D03*
%TD*%
%TO.C,KiKit_MB_30_11*%
X155198155Y-179945770D03*
%TD*%
%TO.C,KiKit_MB_36_5*%
X203431755Y-173940276D03*
%TD*%
%TO.C,KiKit_MB_32_4*%
X204947378Y-145799981D03*
%TD*%
%TO.C,KiKit_MB_30_5*%
X156899429Y-173940276D03*
%TD*%
%TO.C,KiKit_MB_37_6*%
X76201511Y-28000000D03*
%TD*%
%TO.C,KiKit_MB_4_1*%
X107535760Y-41087894D03*
%TD*%
%TO.C,KiKit_MB_20_4*%
X111882726Y-145799981D03*
%TD*%
%TO.C,KiKit_MB_10_2*%
X154993201Y-40617371D03*
%TD*%
%TO.C,KiKit_MB_9_1*%
X139061513Y-37818475D03*
%TD*%
%TO.C,KiKit_MB_37_3*%
X73201511Y-28000000D03*
%TD*%
%TO.C,KiKit_MB_12_8*%
X156329696Y-98485974D03*
%TD*%
%TO.C,KiKit_MB_37_2*%
X72201511Y-28000000D03*
%TD*%
%TO.C,KiKit_MB_6_3*%
X110566526Y-93315698D03*
%TD*%
D11*
%TO.C,KiKit_TO_1*%
X74201511Y-22500000D03*
%TD*%
D10*
%TO.C,KiKit_MB_1_4*%
X88410336Y-65277159D03*
%TD*%
%TO.C,KiKit_MB_17_3*%
X188147478Y-100902544D03*
%TD*%
%TO.C,KiKit_MB_10_4*%
X156920592Y-39855449D03*
%TD*%
%TO.C,KiKit_MB_39_4*%
X222798489Y-28000000D03*
%TD*%
%TO.C,KiKit_MB_9_2*%
X140014747Y-38576491D03*
%TD*%
%TO.C,KiKit_MB_23_2*%
X95478548Y-178373195D03*
%TD*%
%TO.C,KiKit_MB_15_4*%
X188429172Y-40122792D03*
%TD*%
%TO.C,KiKit_MB_22_1*%
X107535760Y-119628324D03*
%TD*%
%TO.C,KiKit_MB_23_6*%
X93431387Y-182401725D03*
%TD*%
%TO.C,KiKit_MB_11_4*%
X141209050Y-101968981D03*
%TD*%
%TO.C,KiKit_MB_7_5*%
X134976670Y-64277304D03*
%TD*%
%TO.C,KiKit_MB_37_4*%
X74201511Y-28000000D03*
%TD*%
%TO.C,KiKit_MB_5_2*%
X95478548Y-99832764D03*
%TD*%
%TO.C,KiKit_MB_36_9*%
X202563224Y-178029165D03*
%TD*%
%TO.C,KiKit_MB_7_3*%
X134908652Y-66277014D03*
%TD*%
%TO.C,KiKit_MB_35_1*%
X189639786Y-178473606D03*
%TD*%
%TO.C,KiKit_MB_29_3*%
X141615152Y-179442975D03*
%TD*%
D11*
%TO.C,KiKit_TO_4*%
X222798489Y-188580862D03*
%TD*%
D10*
%TO.C,KiKit_MB_5_6*%
X93431387Y-103861294D03*
%TD*%
%TO.C,KiKit_MB_40_6*%
X224798489Y-183080862D03*
%TD*%
%TO.C,KiKit_MB_1_1*%
X88308309Y-68276725D03*
%TD*%
%TO.C,KiKit_MB_25_2*%
X134874643Y-145817300D03*
%TD*%
%TO.C,KiKit_MB_18_8*%
X202862022Y-98485974D03*
%TD*%
%TO.C,KiKit_MB_20_3*%
X111934433Y-144800315D03*
%TD*%
D11*
%TO.C,KiKit_TO_2*%
X222798489Y-22500000D03*
%TD*%
D10*
%TO.C,KiKit_MB_17_4*%
X187741376Y-101968981D03*
%TD*%
%TO.C,KiKit_MB_33_5*%
X189374006Y-119431722D03*
%TD*%
%TO.C,KiKit_MB_2_3*%
X111934433Y-66259885D03*
%TD*%
%TO.C,KiKit_MB_11_5*%
X140686751Y-102982266D03*
%TD*%
%TO.C,KiKit_MB_12_5*%
X156899429Y-95399845D03*
%TD*%
%TO.C,KiKit_MB_31_2*%
X181406969Y-145817300D03*
%TD*%
%TO.C,KiKit_MB_22_5*%
X111410607Y-118224143D03*
%TD*%
%TO.C,KiKit_MB_18_3*%
X203631178Y-93315698D03*
%TD*%
%TO.C,KiKit_MB_6_6*%
X110220238Y-96436394D03*
%TD*%
%TO.C,KiKit_MB_38_5*%
X75201511Y-183080862D03*
%TD*%
%TO.C,KiKit_MB_13_2*%
X181406969Y-67276869D03*
%TD*%
%TO.C,KiKit_MB_14_2*%
X205050791Y-65260219D03*
%TD*%
%TO.C,KiKit_MB_34_4*%
X203452918Y-118395879D03*
%TD*%
%TO.C,KiKit_MB_33_3*%
X187488122Y-117890071D03*
%TD*%
%TO.C,KiKit_MB_31_4*%
X181474987Y-143817589D03*
%TD*%
%TO.C,KiKit_MB_18_12*%
X201154453Y-102278498D03*
%TD*%
%TO.C,KiKit_MB_33_4*%
X188429172Y-118663222D03*
%TD*%
%TO.C,KiKit_MB_21_4*%
X95364521Y-118663222D03*
%TD*%
%TO.C,KiKit_MB_19_4*%
X88410336Y-143817589D03*
%TD*%
%TO.C,KiKit_MB_15_1*%
X185593839Y-37818475D03*
%TD*%
%TO.C,KiKit_MB_24_13*%
X107404920Y-181609984D03*
%TD*%
%TO.C,KiKit_MB_38_2*%
X72201511Y-183080862D03*
%TD*%
%TO.C,KiKit_MB_29_5*%
X140686751Y-181522697D03*
%TD*%
%TO.C,KiKit_MB_18_7*%
X203098441Y-97466434D03*
%TD*%
%TO.C,KiKit_MB_22_2*%
X108460875Y-119157801D03*
%TD*%
%TO.C,KiKit_MB_39_2*%
X220798489Y-28000000D03*
%TD*%
%TO.C,KiKit_MB_11_2*%
X142010873Y-99832764D03*
%TD*%
%TO.C,KiKit_MB_24_10*%
X109133236Y-179009585D03*
%TD*%
%TO.C,KiKit_MB_27_1*%
X139061513Y-116358905D03*
%TD*%
%TO.C,KiKit_MB_4_5*%
X111410607Y-39683713D03*
%TD*%
%TO.C,KiKit_MB_24_1*%
X110724483Y-169768205D03*
%TD*%
%TO.C,KiKit_MB_7_1*%
X134840634Y-68276725D03*
%TD*%
%TO.C,KiKit_MB_17_1*%
X189639786Y-99933175D03*
%TD*%
%TO.C,KiKit_MB_3_3*%
X94423471Y-39349641D03*
%TD*%
%TO.C,KiKit_MB_6_11*%
X108665829Y-101405339D03*
%TD*%
%TO.C,KiKit_MB_12_10*%
X155665562Y-100469154D03*
%TD*%
%TO.C,KiKit_MB_18_4*%
X203547514Y-94359304D03*
%TD*%
%TO.C,KiKit_MB_36_11*%
X201730481Y-179945770D03*
%TD*%
%TO.C,KiKit_MB_32_2*%
X205050791Y-143800649D03*
%TD*%
%TO.C,KiKit_MB_29_4*%
X141209050Y-180509412D03*
%TD*%
%TO.C,KiKit_MB_21_2*%
X93482422Y-117116921D03*
%TD*%
%TO.C,KiKit_MB_34_3*%
X202471106Y-118730347D03*
%TD*%
%TO.C,KiKit_MB_35_6*%
X186496038Y-182401725D03*
%TD*%
%TO.C,KiKit_MB_13_1*%
X181372960Y-68276725D03*
%TD*%
%TO.C,KiKit_MB_11_1*%
X143107460Y-99933175D03*
%TD*%
%TO.C,KiKit_MB_18_2*%
X203714462Y-92272056D03*
%TD*%
%TO.C,KiKit_MB_35_4*%
X187741376Y-180509412D03*
%TD*%
%TO.C,KiKit_MB_20_5*%
X111831020Y-146799648D03*
%TD*%
%TO.C,KiKit_MB_30_1*%
X157256809Y-169768205D03*
%TD*%
%TO.C,KiKit_MB_7_2*%
X134874643Y-67276869D03*
%TD*%
%TO.C,KiKit_MB_2_2*%
X111986139Y-65260219D03*
%TD*%
%TO.C,KiKit_MB_16_3*%
X202471106Y-40189917D03*
%TD*%
%TO.C,KiKit_MB_29_6*%
X139963712Y-182401725D03*
%TD*%
%TO.C,KiKit_MB_6_8*%
X109797370Y-98485974D03*
%TD*%
%TO.C,KiKit_MB_17_2*%
X188543199Y-99832764D03*
%TD*%
%TO.C,KiKit_MB_28_1*%
X154068086Y-119628324D03*
%TD*%
%TO.C,KiKit_MB_8_5*%
X158363346Y-68259217D03*
%TD*%
%TO.C,KiKit_MB_14_3*%
X204999085Y-66259885D03*
%TD*%
%TO.C,KiKit_MB_36_6*%
X203284890Y-174976825D03*
%TD*%
%TO.C,KiKit_MB_6_9*%
X109498572Y-99488734D03*
%TD*%
%TO.C,KiKit_MB_30_4*%
X157015188Y-172899735D03*
%TD*%
%TO.C,KiKit_MB_14_4*%
X204947378Y-67259550D03*
%TD*%
%TO.C,KiKit_MB_22_3*%
X109406454Y-118730347D03*
%TD*%
%TO.C,KiKit_MB_19_3*%
X88376327Y-144817445D03*
%TD*%
%TO.C,KiKit_MB_34_1*%
X200600412Y-119628324D03*
%TD*%
%TO.C,KiKit_MB_12_9*%
X156030898Y-99488734D03*
%TD*%
D12*
%TO.C,BT1*%
X99447561Y-176355334D03*
X99447561Y-154385334D03*
D13*
X99447561Y-165370334D03*
%TD*%
D14*
%TO.C,J3*%
X141554887Y-137055334D03*
X141554887Y-132005334D03*
X139014887Y-137055334D03*
X139014887Y-132005334D03*
X136474887Y-137055334D03*
X136474887Y-132005334D03*
%TD*%
D15*
%TO.C,U1*%
X195599713Y-66039903D03*
X195599713Y-66689903D03*
X195599713Y-67339903D03*
X195599713Y-67989903D03*
X195599713Y-68639903D03*
X195599713Y-69289903D03*
X195599713Y-69939903D03*
X195599713Y-70589903D03*
X195599713Y-71239903D03*
X195599713Y-71889903D03*
X189874713Y-71889903D03*
X189874713Y-71239903D03*
X189874713Y-70589903D03*
X189874713Y-69939903D03*
X189874713Y-69289903D03*
X189874713Y-68639903D03*
X189874713Y-67989903D03*
X189874713Y-67339903D03*
X189874713Y-66689903D03*
X189874713Y-66039903D03*
%TD*%
D12*
%TO.C,BT1*%
X145979887Y-176355334D03*
X145979887Y-154385334D03*
D13*
X145979887Y-165370334D03*
%TD*%
D16*
%TO.C,KiKit_FID_B_3*%
X76701511Y-188580862D03*
%TD*%
D14*
%TO.C,J3*%
X188087213Y-137055334D03*
X188087213Y-132005334D03*
X185547213Y-137055334D03*
X185547213Y-132005334D03*
X183007213Y-137055334D03*
X183007213Y-132005334D03*
%TD*%
D17*
%TO.C,SW1*%
X202987213Y-153205334D03*
X202987213Y-150205334D03*
D18*
X200862213Y-153955334D03*
X200862213Y-152455334D03*
X200862213Y-149455334D03*
D19*
X201837213Y-155505334D03*
X204137213Y-155505334D03*
X204137213Y-147905334D03*
X201837213Y-147895334D03*
%TD*%
D12*
%TO.C,BT1*%
X192512213Y-176355334D03*
X192512213Y-154385334D03*
D13*
X192512213Y-165370334D03*
%TD*%
D15*
%TO.C,U1*%
X102535061Y-144580334D03*
X102535061Y-145230334D03*
X102535061Y-145880334D03*
X102535061Y-146530334D03*
X102535061Y-147180334D03*
X102535061Y-147830334D03*
X102535061Y-148480334D03*
X102535061Y-149130334D03*
X102535061Y-149780334D03*
X102535061Y-150430334D03*
X96810061Y-150430334D03*
X96810061Y-149780334D03*
X96810061Y-149130334D03*
X96810061Y-148480334D03*
X96810061Y-147830334D03*
X96810061Y-147180334D03*
X96810061Y-146530334D03*
X96810061Y-145880334D03*
X96810061Y-145230334D03*
X96810061Y-144580334D03*
%TD*%
D12*
%TO.C,BT1*%
X192512213Y-97814903D03*
X192512213Y-75844903D03*
D13*
X192512213Y-86829903D03*
%TD*%
D20*
%TO.C,U4*%
X90362561Y-65989903D03*
X91632561Y-65989903D03*
X92902561Y-65989903D03*
X94172561Y-65989903D03*
X94172561Y-71239903D03*
X92902561Y-71239903D03*
X91632561Y-71239903D03*
X90362561Y-71239903D03*
%TD*%
D21*
%TO.C,J2*%
X183307213Y-74414903D03*
D22*
X185847213Y-74414903D03*
X188387213Y-74414903D03*
%TD*%
D23*
%TO.C,J1*%
X157254887Y-136605334D03*
X145254887Y-136605334D03*
%TD*%
D24*
%TO.C,C3*%
X152554887Y-150205334D03*
X152554887Y-148305334D03*
%TD*%
D14*
%TO.C,J3*%
X95022561Y-58514903D03*
X95022561Y-53464903D03*
X92482561Y-58514903D03*
X92482561Y-53464903D03*
X89942561Y-58514903D03*
X89942561Y-53464903D03*
%TD*%
D23*
%TO.C,J1*%
X110722561Y-58064903D03*
X98722561Y-58064903D03*
%TD*%
%TO.C,J1*%
X110722561Y-136605334D03*
X98722561Y-136605334D03*
%TD*%
D17*
%TO.C,SW1*%
X156454887Y-74664903D03*
X156454887Y-71664903D03*
D18*
X154329887Y-75414903D03*
X154329887Y-73914903D03*
X154329887Y-70914903D03*
D19*
X155304887Y-76964903D03*
X157604887Y-76964903D03*
X157604887Y-69364903D03*
X155304887Y-69354903D03*
%TD*%
D24*
%TO.C,C3*%
X199087213Y-150205334D03*
X199087213Y-148305334D03*
%TD*%
D23*
%TO.C,J1*%
X157254887Y-58064903D03*
X145254887Y-58064903D03*
%TD*%
D24*
%TO.C,C3*%
X106022561Y-150205334D03*
X106022561Y-148305334D03*
%TD*%
D15*
%TO.C,U1*%
X102535061Y-66039903D03*
X102535061Y-66689903D03*
X102535061Y-67339903D03*
X102535061Y-67989903D03*
X102535061Y-68639903D03*
X102535061Y-69289903D03*
X102535061Y-69939903D03*
X102535061Y-70589903D03*
X102535061Y-71239903D03*
X102535061Y-71889903D03*
X96810061Y-71889903D03*
X96810061Y-71239903D03*
X96810061Y-70589903D03*
X96810061Y-69939903D03*
X96810061Y-69289903D03*
X96810061Y-68639903D03*
X96810061Y-67989903D03*
X96810061Y-67339903D03*
X96810061Y-66689903D03*
X96810061Y-66039903D03*
%TD*%
D21*
%TO.C,J2*%
X136774887Y-74414903D03*
D22*
X139314887Y-74414903D03*
X141854887Y-74414903D03*
%TD*%
D16*
%TO.C,KiKit_FID_B_2*%
X220298489Y-22500000D03*
%TD*%
D24*
%TO.C,C3*%
X152554887Y-71664903D03*
X152554887Y-69764903D03*
%TD*%
D14*
%TO.C,J3*%
X188087213Y-58514903D03*
X188087213Y-53464903D03*
X185547213Y-58514903D03*
X185547213Y-53464903D03*
X183007213Y-58514903D03*
X183007213Y-53464903D03*
%TD*%
D12*
%TO.C,BT1*%
X99447561Y-97814903D03*
X99447561Y-75844903D03*
D13*
X99447561Y-86829903D03*
%TD*%
D15*
%TO.C,U1*%
X149067387Y-66039903D03*
X149067387Y-66689903D03*
X149067387Y-67339903D03*
X149067387Y-67989903D03*
X149067387Y-68639903D03*
X149067387Y-69289903D03*
X149067387Y-69939903D03*
X149067387Y-70589903D03*
X149067387Y-71239903D03*
X149067387Y-71889903D03*
X143342387Y-71889903D03*
X143342387Y-71239903D03*
X143342387Y-70589903D03*
X143342387Y-69939903D03*
X143342387Y-69289903D03*
X143342387Y-68639903D03*
X143342387Y-67989903D03*
X143342387Y-67339903D03*
X143342387Y-66689903D03*
X143342387Y-66039903D03*
%TD*%
D21*
%TO.C,J2*%
X136774887Y-152955334D03*
D22*
X139314887Y-152955334D03*
X141854887Y-152955334D03*
%TD*%
D21*
%TO.C,J2*%
X183307213Y-152955334D03*
D22*
X185847213Y-152955334D03*
X188387213Y-152955334D03*
%TD*%
D24*
%TO.C,C3*%
X106022561Y-71664903D03*
X106022561Y-69764903D03*
%TD*%
D12*
%TO.C,BT1*%
X145979887Y-97814903D03*
X145979887Y-75844903D03*
D13*
X145979887Y-86829903D03*
%TD*%
D21*
%TO.C,J2*%
X90242561Y-74414903D03*
D22*
X92782561Y-74414903D03*
X95322561Y-74414903D03*
%TD*%
D17*
%TO.C,SW1*%
X156454887Y-153205334D03*
X156454887Y-150205334D03*
D18*
X154329887Y-153955334D03*
X154329887Y-152455334D03*
X154329887Y-149455334D03*
D19*
X155304887Y-155505334D03*
X157604887Y-155505334D03*
X157604887Y-147905334D03*
X155304887Y-147895334D03*
%TD*%
D14*
%TO.C,J3*%
X141554887Y-58514903D03*
X141554887Y-53464903D03*
X139014887Y-58514903D03*
X139014887Y-53464903D03*
X136474887Y-58514903D03*
X136474887Y-53464903D03*
%TD*%
D23*
%TO.C,J1*%
X203787213Y-136605334D03*
X191787213Y-136605334D03*
%TD*%
D15*
%TO.C,U1*%
X195599713Y-144580334D03*
X195599713Y-145230334D03*
X195599713Y-145880334D03*
X195599713Y-146530334D03*
X195599713Y-147180334D03*
X195599713Y-147830334D03*
X195599713Y-148480334D03*
X195599713Y-149130334D03*
X195599713Y-149780334D03*
X195599713Y-150430334D03*
X189874713Y-150430334D03*
X189874713Y-149780334D03*
X189874713Y-149130334D03*
X189874713Y-148480334D03*
X189874713Y-147830334D03*
X189874713Y-147180334D03*
X189874713Y-146530334D03*
X189874713Y-145880334D03*
X189874713Y-145230334D03*
X189874713Y-144580334D03*
%TD*%
D20*
%TO.C,U4*%
X136894887Y-65989903D03*
X138164887Y-65989903D03*
X139434887Y-65989903D03*
X140704887Y-65989903D03*
X140704887Y-71239903D03*
X139434887Y-71239903D03*
X138164887Y-71239903D03*
X136894887Y-71239903D03*
%TD*%
D21*
%TO.C,J2*%
X90242561Y-152955334D03*
D22*
X92782561Y-152955334D03*
X95322561Y-152955334D03*
%TD*%
D20*
%TO.C,U4*%
X90362561Y-144530334D03*
X91632561Y-144530334D03*
X92902561Y-144530334D03*
X94172561Y-144530334D03*
X94172561Y-149780334D03*
X92902561Y-149780334D03*
X91632561Y-149780334D03*
X90362561Y-149780334D03*
%TD*%
D17*
%TO.C,SW1*%
X202987213Y-74664903D03*
X202987213Y-71664903D03*
D18*
X200862213Y-75414903D03*
X200862213Y-73914903D03*
X200862213Y-70914903D03*
D19*
X201837213Y-76964903D03*
X204137213Y-76964903D03*
X204137213Y-69364903D03*
X201837213Y-69354903D03*
%TD*%
D16*
%TO.C,KiKit_FID_B_1*%
X76701511Y-22500000D03*
%TD*%
D17*
%TO.C,SW1*%
X109922561Y-74664903D03*
X109922561Y-71664903D03*
D18*
X107797561Y-75414903D03*
X107797561Y-73914903D03*
X107797561Y-70914903D03*
D19*
X108772561Y-76964903D03*
X111072561Y-76964903D03*
X111072561Y-69364903D03*
X108772561Y-69354903D03*
%TD*%
D24*
%TO.C,C3*%
X199087213Y-71664903D03*
X199087213Y-69764903D03*
%TD*%
D20*
%TO.C,U4*%
X183427213Y-65989903D03*
X184697213Y-65989903D03*
X185967213Y-65989903D03*
X187237213Y-65989903D03*
X187237213Y-71239903D03*
X185967213Y-71239903D03*
X184697213Y-71239903D03*
X183427213Y-71239903D03*
%TD*%
%TO.C,U4*%
X136894887Y-144530334D03*
X138164887Y-144530334D03*
X139434887Y-144530334D03*
X140704887Y-144530334D03*
X140704887Y-149780334D03*
X139434887Y-149780334D03*
X138164887Y-149780334D03*
X136894887Y-149780334D03*
%TD*%
D23*
%TO.C,J1*%
X203787213Y-58064903D03*
X191787213Y-58064903D03*
%TD*%
D14*
%TO.C,J3*%
X95022561Y-137055334D03*
X95022561Y-132005334D03*
X92482561Y-137055334D03*
X92482561Y-132005334D03*
X89942561Y-137055334D03*
X89942561Y-132005334D03*
%TD*%
D20*
%TO.C,U4*%
X183427213Y-144530334D03*
X184697213Y-144530334D03*
X185967213Y-144530334D03*
X187237213Y-144530334D03*
X187237213Y-149780334D03*
X185967213Y-149780334D03*
X184697213Y-149780334D03*
X183427213Y-149780334D03*
%TD*%
D15*
%TO.C,U1*%
X149067387Y-144580334D03*
X149067387Y-145230334D03*
X149067387Y-145880334D03*
X149067387Y-146530334D03*
X149067387Y-147180334D03*
X149067387Y-147830334D03*
X149067387Y-148480334D03*
X149067387Y-149130334D03*
X149067387Y-149780334D03*
X149067387Y-150430334D03*
X143342387Y-150430334D03*
X143342387Y-149780334D03*
X143342387Y-149130334D03*
X143342387Y-148480334D03*
X143342387Y-147830334D03*
X143342387Y-147180334D03*
X143342387Y-146530334D03*
X143342387Y-145880334D03*
X143342387Y-145230334D03*
X143342387Y-144580334D03*
%TD*%
D17*
%TO.C,SW1*%
X109922561Y-153205334D03*
X109922561Y-150205334D03*
D18*
X107797561Y-153955334D03*
X107797561Y-152455334D03*
X107797561Y-149455334D03*
D19*
X108772561Y-155505334D03*
X111072561Y-155505334D03*
X111072561Y-147905334D03*
X108772561Y-147895334D03*
%TD*%
M02*
