%TF.GenerationSoftware,KiCad,Pcbnew,9.0.3*%
%TF.CreationDate,2025-07-23T15:56:11-05:00*%
%TF.ProjectId,panel,70616e65-6c2e-46b6-9963-61645f706362,rev?*%
%TF.SameCoordinates,Original*%
%TF.FileFunction,Copper,L1,Top*%
%TF.FilePolarity,Positive*%
%FSLAX46Y46*%
G04 Gerber Fmt 4.6, Leading zero omitted, Abs format (unit mm)*
G04 Created by KiCad (PCBNEW 9.0.3) date 2025-07-23 15:56:11*
%MOMM*%
%LPD*%
G01*
G04 APERTURE LIST*
%TA.AperFunction,NonConductor*%
%ADD10C,0.000000*%
%TD*%
%TA.AperFunction,SMDPad,CuDef*%
%ADD11C,2.000000*%
%TD*%
%TA.AperFunction,ComponentPad*%
%ADD12R,1.700000X1.700000*%
%TD*%
%TA.AperFunction,ComponentPad*%
%ADD13C,1.700000*%
%TD*%
%TA.AperFunction,ViaPad*%
%ADD14C,0.600000*%
%TD*%
%TA.AperFunction,Conductor*%
%ADD15C,0.200000*%
%TD*%
G04 APERTURE END LIST*
D10*
%TA.AperFunction,NonConductor*%
G36*
X136304887Y-35939903D02*
G01*
X136478060Y-35967645D01*
X136665304Y-36018407D01*
X136865891Y-36090999D01*
X137304182Y-36296909D01*
X137787112Y-36575849D01*
X138308857Y-36918292D01*
X138863594Y-37314714D01*
X139445499Y-37755587D01*
X140048751Y-38231387D01*
X142558748Y-40293331D01*
X143790420Y-41286187D01*
X144380043Y-41739746D01*
X144944426Y-42152024D01*
X145098122Y-42318031D01*
X145254100Y-42505368D01*
X145411598Y-42712726D01*
X145569851Y-42938794D01*
X145728095Y-43182260D01*
X145885566Y-43441815D01*
X146041501Y-43716149D01*
X146195135Y-44003949D01*
X146345704Y-44303906D01*
X146492445Y-44614710D01*
X146634593Y-44935050D01*
X146771385Y-45263614D01*
X146902056Y-45599093D01*
X147025843Y-45940176D01*
X147141982Y-46285553D01*
X147249709Y-46633912D01*
X147497813Y-46223780D01*
X147742364Y-45840727D01*
X147986241Y-45482154D01*
X148232317Y-45145460D01*
X148483472Y-44828044D01*
X148742579Y-44527307D01*
X149012517Y-44240649D01*
X149296161Y-43965468D01*
X149596388Y-43699166D01*
X149916075Y-43439141D01*
X150258097Y-43182794D01*
X150625332Y-42927524D01*
X151020655Y-42670731D01*
X151446944Y-42409815D01*
X151907074Y-42142175D01*
X152403922Y-41865212D01*
X152848629Y-41595220D01*
X153285715Y-41343442D01*
X153715634Y-41109427D01*
X154138838Y-40892724D01*
X154555779Y-40692880D01*
X154966911Y-40509446D01*
X155372685Y-40341969D01*
X155773556Y-40189999D01*
X156169976Y-40053082D01*
X156562397Y-39930769D01*
X156951273Y-39822608D01*
X157337056Y-39728147D01*
X157720198Y-39646935D01*
X158101153Y-39578521D01*
X158480374Y-39522453D01*
X158858313Y-39478280D01*
X158929939Y-39464573D01*
X158992145Y-39460509D01*
X159045395Y-39465616D01*
X159090151Y-39479419D01*
X159126877Y-39501443D01*
X159156035Y-39531216D01*
X159178089Y-39568263D01*
X159193501Y-39612109D01*
X159202735Y-39662282D01*
X159206253Y-39718306D01*
X159204518Y-39779708D01*
X159197994Y-39846014D01*
X159172427Y-39991442D01*
X159133257Y-40150797D01*
X159028922Y-40496119D01*
X158914616Y-40851643D01*
X158862983Y-41023750D01*
X158819969Y-41187032D01*
X158789277Y-41337695D01*
X158774611Y-41471948D01*
X158681910Y-42210086D01*
X158625014Y-42943455D01*
X158600796Y-43672472D01*
X158606127Y-44397553D01*
X158637877Y-45119114D01*
X158692919Y-45837571D01*
X158768123Y-46553342D01*
X158860362Y-47266843D01*
X159083425Y-48688698D01*
X159337081Y-50106470D01*
X159596299Y-51523488D01*
X159836051Y-52943086D01*
X159850443Y-55360051D01*
X159840932Y-56526740D01*
X159823487Y-57096999D01*
X159794340Y-57657531D01*
X159751057Y-58207582D01*
X159691208Y-58746398D01*
X159612358Y-59273228D01*
X159512077Y-59787317D01*
X159387932Y-60287912D01*
X159237491Y-60774261D01*
X159058321Y-61245609D01*
X158847991Y-61701203D01*
X158069916Y-62487029D01*
X157290100Y-63219508D01*
X155725207Y-64585463D01*
X154153229Y-65921145D01*
X153364557Y-66615782D01*
X152574083Y-67348630D01*
X151781796Y-68134948D01*
X150987687Y-68989995D01*
X150191744Y-69929032D01*
X149393958Y-70967317D01*
X148594318Y-72120111D01*
X147792814Y-73402672D01*
X146989436Y-74830261D01*
X146184172Y-76418137D01*
X144980418Y-74918756D01*
X143884684Y-73602660D01*
X142888234Y-72450200D01*
X141982329Y-71441724D01*
X141349929Y-70763245D01*
X142236861Y-70763245D01*
X143332443Y-71821001D01*
X143797035Y-72280769D01*
X144230631Y-72725608D01*
X144651585Y-73178874D01*
X145078250Y-73663926D01*
X145528982Y-74204121D01*
X146022132Y-74822816D01*
X146184310Y-74437976D01*
X146343640Y-74079689D01*
X146501578Y-73744311D01*
X146659584Y-73428200D01*
X146819113Y-73127711D01*
X146981623Y-72839202D01*
X147148572Y-72559030D01*
X147321416Y-72283551D01*
X147501615Y-72009123D01*
X147690624Y-71732102D01*
X148100905Y-71155708D01*
X149091323Y-69811509D01*
X148613873Y-69815830D01*
X148191875Y-69777752D01*
X147822435Y-69699444D01*
X147502660Y-69583076D01*
X147229658Y-69430816D01*
X147000537Y-69244836D01*
X146812404Y-69027304D01*
X146662367Y-68780389D01*
X146547533Y-68506263D01*
X146465009Y-68207093D01*
X146411904Y-67885050D01*
X146385324Y-67542303D01*
X146400172Y-66803375D01*
X146486413Y-66007667D01*
X147082502Y-62604154D01*
X147178607Y-61784888D01*
X147207265Y-61012981D01*
X147189070Y-60650210D01*
X147145336Y-60305787D01*
X147073170Y-59981882D01*
X146969679Y-59680665D01*
X145758383Y-59312213D01*
X145640513Y-59687845D01*
X145542331Y-60078453D01*
X145461919Y-60482423D01*
X145397359Y-60898142D01*
X145308121Y-61758381D01*
X145259269Y-62646272D01*
X145221337Y-64453421D01*
X145201562Y-65346885D01*
X145160785Y-66216412D01*
X145083660Y-67049106D01*
X145026670Y-67447610D01*
X144954838Y-67832068D01*
X144866246Y-68200870D01*
X144758974Y-68552403D01*
X144631105Y-68885054D01*
X144480720Y-69197211D01*
X144305900Y-69487263D01*
X144104728Y-69753597D01*
X143875285Y-69994601D01*
X143615653Y-70208663D01*
X143323912Y-70394170D01*
X142998146Y-70549511D01*
X142636435Y-70673074D01*
X142236861Y-70763245D01*
X141349929Y-70763245D01*
X141158232Y-70557581D01*
X140407207Y-69778122D01*
X139089419Y-68454648D01*
X137959067Y-67314095D01*
X137442336Y-66763286D01*
X136946252Y-66199256D01*
X136462077Y-65602352D01*
X136300876Y-65384705D01*
X136910857Y-65384705D01*
X137329436Y-65853219D01*
X137748038Y-66307121D01*
X138170342Y-66752202D01*
X138600029Y-67194257D01*
X139496269Y-68092453D01*
X140466200Y-69048051D01*
X140607637Y-68426997D01*
X140750206Y-67837122D01*
X140893819Y-67277252D01*
X141038393Y-66746212D01*
X141183839Y-66242826D01*
X141330072Y-65765919D01*
X141477007Y-65314317D01*
X141624556Y-64886845D01*
X141772634Y-64482327D01*
X141921155Y-64099589D01*
X142070033Y-63737456D01*
X142219181Y-63394752D01*
X142368514Y-63070303D01*
X142517945Y-62762934D01*
X142816758Y-62194735D01*
X143114931Y-61680756D01*
X143411776Y-61211596D01*
X143706604Y-60777857D01*
X143998726Y-60370137D01*
X144572097Y-59595159D01*
X144851969Y-59209100D01*
X145126380Y-58811463D01*
X145093459Y-58782663D01*
X145062107Y-58752293D01*
X145003846Y-58687111D01*
X144951064Y-58616452D01*
X144903226Y-58540848D01*
X144859799Y-58460833D01*
X144820251Y-58376941D01*
X144784047Y-58289703D01*
X144750655Y-58199654D01*
X144719541Y-58107328D01*
X144690171Y-58013256D01*
X144634533Y-57822011D01*
X144579474Y-57630187D01*
X144520728Y-57442048D01*
X144520728Y-57442033D01*
X144277574Y-57708817D01*
X144044381Y-57989469D01*
X143820187Y-58282484D01*
X143604031Y-58586353D01*
X143191983Y-59220632D01*
X142800546Y-59880250D01*
X142048733Y-61227294D01*
X141672973Y-61890612D01*
X141287053Y-62531056D01*
X140883281Y-63136573D01*
X140672297Y-63422466D01*
X140453965Y-63695107D01*
X140227324Y-63952990D01*
X139991412Y-64194607D01*
X139745268Y-64418452D01*
X139487929Y-64623019D01*
X139218436Y-64806799D01*
X138935825Y-64968288D01*
X138639136Y-65105977D01*
X138327407Y-65218361D01*
X137999676Y-65303932D01*
X137654981Y-65361185D01*
X137292362Y-65388611D01*
X136910857Y-65384705D01*
X136300876Y-65384705D01*
X135981074Y-64952924D01*
X135739032Y-64602373D01*
X135494506Y-64231322D01*
X135246405Y-63837314D01*
X134993636Y-63417893D01*
X134922628Y-63247569D01*
X134853079Y-63077348D01*
X136053093Y-61709669D01*
X137277290Y-60377670D01*
X137902992Y-59731747D01*
X138540181Y-59102777D01*
X139190671Y-58493440D01*
X139856274Y-57906413D01*
X140538806Y-57344374D01*
X140692071Y-57227586D01*
X144906249Y-57227586D01*
X144909165Y-57342407D01*
X144917794Y-57455720D01*
X144931994Y-57567386D01*
X144951627Y-57677265D01*
X144976551Y-57785215D01*
X145006626Y-57891097D01*
X145041713Y-57994771D01*
X145081672Y-58096097D01*
X145126361Y-58194934D01*
X145175641Y-58291142D01*
X145229372Y-58384581D01*
X145287414Y-58475111D01*
X145349626Y-58562592D01*
X145415868Y-58646884D01*
X145486001Y-58727846D01*
X145559884Y-58805339D01*
X145637376Y-58879221D01*
X145718338Y-58949354D01*
X145802630Y-59015596D01*
X145890111Y-59077808D01*
X145980641Y-59135850D01*
X146074081Y-59189581D01*
X146170289Y-59238861D01*
X146269126Y-59283550D01*
X146370452Y-59323508D01*
X146474126Y-59358595D01*
X146580009Y-59388671D01*
X146687959Y-59413594D01*
X146797838Y-59433226D01*
X146909505Y-59447426D01*
X147022819Y-59456054D01*
X147137641Y-59458970D01*
X147234170Y-59456882D01*
X147330201Y-59450649D01*
X147425610Y-59440314D01*
X147520272Y-59425923D01*
X147614061Y-59407520D01*
X147706854Y-59385150D01*
X147798525Y-59358857D01*
X147888951Y-59328687D01*
X147978006Y-59294682D01*
X148065566Y-59256889D01*
X148151505Y-59215352D01*
X148235700Y-59170115D01*
X148318026Y-59121224D01*
X148398358Y-59068722D01*
X148476572Y-59012654D01*
X148552542Y-58953065D01*
X148444533Y-59075013D01*
X148698711Y-59504334D01*
X148951182Y-59906118D01*
X149445823Y-60661263D01*
X149918105Y-61408833D01*
X150142626Y-61801147D01*
X150357676Y-62217210D01*
X150561960Y-62665570D01*
X150754184Y-63154776D01*
X150933055Y-63693374D01*
X151097278Y-64289914D01*
X151245560Y-64952942D01*
X151376606Y-65691007D01*
X151489123Y-66512657D01*
X151581816Y-67426438D01*
X154995628Y-64366402D01*
X154891662Y-64332134D01*
X154642803Y-64235098D01*
X154402246Y-64126470D01*
X154169556Y-64006791D01*
X153944295Y-63876602D01*
X153726028Y-63736443D01*
X153514318Y-63586855D01*
X153308729Y-63428379D01*
X152914168Y-63086923D01*
X152538857Y-62716401D01*
X152179303Y-62321136D01*
X151832017Y-61905455D01*
X151493508Y-61473683D01*
X151160286Y-61030142D01*
X150495743Y-60125060D01*
X149810465Y-59224808D01*
X149451325Y-58787305D01*
X149076529Y-58363984D01*
X149018126Y-58429582D01*
X149049337Y-58379291D01*
X149079169Y-58328253D01*
X149107609Y-58276499D01*
X149134647Y-58224055D01*
X149160272Y-58170952D01*
X149184474Y-58117218D01*
X149207240Y-58062883D01*
X149228561Y-58007975D01*
X149248425Y-57952524D01*
X149266821Y-57896559D01*
X149283738Y-57840108D01*
X149299165Y-57783201D01*
X149313091Y-57725867D01*
X149325506Y-57668134D01*
X149336397Y-57610033D01*
X149345755Y-57551591D01*
X149345763Y-57551606D01*
X149571882Y-57691583D01*
X149802250Y-57818802D01*
X150273400Y-58041462D01*
X150754552Y-58232579D01*
X151241046Y-58405147D01*
X152211414Y-58746614D01*
X152685967Y-58941501D01*
X153147216Y-59169816D01*
X153371396Y-59300569D01*
X153590503Y-59444552D01*
X153803953Y-59603389D01*
X154011164Y-59778704D01*
X154211554Y-59972121D01*
X154404540Y-60185265D01*
X154589540Y-60419759D01*
X154765970Y-60677229D01*
X154933248Y-60959299D01*
X155090792Y-61267592D01*
X155238018Y-61603732D01*
X155374345Y-61969345D01*
X155499190Y-62366055D01*
X155611969Y-62795485D01*
X155712101Y-63259260D01*
X155782068Y-63661619D01*
X156629718Y-62902594D01*
X157085082Y-62489325D01*
X157299248Y-62288659D01*
X157504394Y-62090167D01*
X157700515Y-61892495D01*
X157887604Y-61694291D01*
X158065656Y-61494200D01*
X158234664Y-61290869D01*
X158394622Y-61082945D01*
X158545524Y-60869074D01*
X158687364Y-60647902D01*
X158820136Y-60418076D01*
X159041566Y-58955518D01*
X159143126Y-58235501D01*
X159236647Y-57520585D01*
X159380771Y-56998675D01*
X159451177Y-56732303D01*
X159514600Y-56464585D01*
X159542315Y-56330753D01*
X159566630Y-56197223D01*
X159586995Y-56064206D01*
X159602858Y-55931915D01*
X159613668Y-55800562D01*
X159618873Y-55670361D01*
X159617923Y-55541523D01*
X159610266Y-55414262D01*
X159574485Y-55369804D01*
X159538487Y-55325833D01*
X159502205Y-55282280D01*
X159465575Y-55239076D01*
X159491662Y-54845551D01*
X159513076Y-54450922D01*
X159529599Y-54054893D01*
X159541011Y-53657168D01*
X159547094Y-53257453D01*
X159547628Y-52855452D01*
X159542394Y-52450870D01*
X159531172Y-52043412D01*
X159335566Y-50726199D01*
X158781818Y-50894939D01*
X158161072Y-51022632D01*
X157509655Y-51104572D01*
X156831291Y-51145985D01*
X156129703Y-51152099D01*
X155408614Y-51128140D01*
X154671748Y-51079336D01*
X153922826Y-51010915D01*
X150881059Y-50645595D01*
X149384651Y-50481136D01*
X148655597Y-50421752D01*
X147944274Y-50384568D01*
X148023375Y-52227876D01*
X149419210Y-52216925D01*
X150918197Y-52232967D01*
X151691791Y-52264185D01*
X152473678Y-52317840D01*
X153258025Y-52399164D01*
X154039000Y-52513385D01*
X154810771Y-52665733D01*
X155567506Y-52861439D01*
X156303374Y-53105733D01*
X156661659Y-53247734D01*
X157012541Y-53403844D01*
X157355290Y-53574715D01*
X157689177Y-53761002D01*
X158013473Y-53963359D01*
X158327449Y-54182438D01*
X158630376Y-54418894D01*
X158921526Y-54673381D01*
X159200168Y-54946551D01*
X159465575Y-55239060D01*
X159420166Y-55809544D01*
X159366343Y-56379336D01*
X159304904Y-56949372D01*
X159236647Y-57520585D01*
X159193040Y-57686931D01*
X159172641Y-57768889D01*
X159153386Y-57849969D01*
X159135430Y-57930119D01*
X159118930Y-58009288D01*
X159104041Y-58087424D01*
X159090918Y-58164475D01*
X158724889Y-58320214D01*
X158365035Y-58446863D01*
X158011018Y-58545816D01*
X157662499Y-58618464D01*
X157319139Y-58666199D01*
X156980599Y-58690413D01*
X156646541Y-58692500D01*
X156316627Y-58673850D01*
X155990516Y-58635856D01*
X155667871Y-58579911D01*
X155348352Y-58507406D01*
X155031622Y-58419734D01*
X154405170Y-58204456D01*
X153785804Y-57945214D01*
X153170816Y-57653147D01*
X152557494Y-57339391D01*
X151325010Y-56691363D01*
X150700428Y-56379366D01*
X150066673Y-56090231D01*
X149421034Y-55835094D01*
X149092912Y-55723755D01*
X148760802Y-55625092D01*
X148791800Y-55728959D01*
X148710419Y-55643762D01*
X148625089Y-55563364D01*
X148536029Y-55487862D01*
X148443455Y-55417352D01*
X148347585Y-55351930D01*
X148248636Y-55291692D01*
X148146826Y-55236736D01*
X148042371Y-55187158D01*
X147935491Y-55143053D01*
X147826401Y-55104518D01*
X147715319Y-55071650D01*
X147602463Y-55044545D01*
X147488049Y-55023299D01*
X147372296Y-55008010D01*
X147255421Y-54998772D01*
X147137641Y-54995683D01*
X147022801Y-54998599D01*
X146909470Y-55007230D01*
X146797787Y-55021434D01*
X146687893Y-55041072D01*
X146579928Y-55066004D01*
X146474031Y-55096088D01*
X146370344Y-55131186D01*
X146269006Y-55171155D01*
X146170158Y-55215858D01*
X146073939Y-55265152D01*
X145980491Y-55318898D01*
X145889953Y-55376956D01*
X145802465Y-55439185D01*
X145718168Y-55505446D01*
X145637202Y-55575597D01*
X145559706Y-55649499D01*
X145485822Y-55727011D01*
X145415690Y-55807994D01*
X145349449Y-55892306D01*
X145287240Y-55979809D01*
X145229202Y-56070360D01*
X145175478Y-56163821D01*
X145126205Y-56260051D01*
X145081526Y-56358910D01*
X145041579Y-56460257D01*
X145006505Y-56563953D01*
X144976445Y-56669856D01*
X144951538Y-56777827D01*
X144931924Y-56887726D01*
X144917745Y-56999412D01*
X144909140Y-57112746D01*
X144906249Y-57227586D01*
X140692071Y-57227586D01*
X141240078Y-56810002D01*
X141961906Y-56305974D01*
X142706102Y-55834969D01*
X143474481Y-55399664D01*
X144268856Y-55002738D01*
X145091040Y-54646868D01*
X145942847Y-54334733D01*
X146258589Y-51332856D01*
X146152558Y-51528848D01*
X146038090Y-51716402D01*
X145915577Y-51895909D01*
X145785411Y-52067762D01*
X145647982Y-52232351D01*
X145503683Y-52390069D01*
X145196041Y-52686457D01*
X144865616Y-52960060D01*
X144515541Y-53214011D01*
X144148950Y-53451444D01*
X143768975Y-53675492D01*
X143378748Y-53889289D01*
X142981403Y-54095969D01*
X142177889Y-54500511D01*
X141383495Y-54914185D01*
X140997549Y-55132281D01*
X140623282Y-55362061D01*
X140333635Y-55424673D01*
X140051826Y-55476083D01*
X139777506Y-55516791D01*
X139510327Y-55547294D01*
X139249939Y-55568091D01*
X138995994Y-55579681D01*
X138748144Y-55582561D01*
X138506039Y-55577231D01*
X138037671Y-55543933D01*
X137588101Y-55483773D01*
X137154540Y-55400738D01*
X136734198Y-55298818D01*
X136324286Y-55181998D01*
X135922013Y-55054266D01*
X135129230Y-54782018D01*
X134333532Y-54513972D01*
X133927616Y-54391494D01*
X133512602Y-54282029D01*
X133354987Y-56599717D01*
X133492065Y-56535946D01*
X133633317Y-56481591D01*
X133778544Y-56436157D01*
X133927549Y-56399154D01*
X134236103Y-56348463D01*
X134557400Y-56325573D01*
X134889862Y-56326540D01*
X135231909Y-56347421D01*
X135581962Y-56384269D01*
X135938442Y-56433143D01*
X137397053Y-56669993D01*
X137761983Y-56719824D01*
X138123866Y-56758014D01*
X138481123Y-56780618D01*
X138832175Y-56783692D01*
X138257954Y-57224031D01*
X137706480Y-57625454D01*
X136613970Y-58410539D01*
X136044031Y-58843695D01*
X135746818Y-59081254D01*
X135439035Y-59336924D01*
X135118873Y-59613798D01*
X134784528Y-59914971D01*
X134434193Y-60243536D01*
X134066062Y-60602586D01*
X134714087Y-62726487D01*
X134365368Y-61767886D01*
X134063832Y-60814462D01*
X133809899Y-59867362D01*
X133603986Y-58927737D01*
X133446511Y-57996735D01*
X133337894Y-57075505D01*
X133278551Y-56165196D01*
X133268902Y-55266957D01*
X133309365Y-54381937D01*
X133400358Y-53511285D01*
X133542299Y-52656150D01*
X133735607Y-51817681D01*
X133980699Y-50997027D01*
X134061395Y-50779420D01*
X134197325Y-50779420D01*
X135615725Y-50440760D01*
X137026437Y-50083606D01*
X138442301Y-49738787D01*
X139876156Y-49437131D01*
X140603843Y-49312124D01*
X141340843Y-49209468D01*
X142088760Y-49133019D01*
X142849200Y-49086628D01*
X143623768Y-49074151D01*
X144414068Y-49099440D01*
X145221705Y-49166350D01*
X146048285Y-49278733D01*
X146040095Y-49199616D01*
X148128226Y-49199616D01*
X148785808Y-49003790D01*
X149459029Y-48780233D01*
X150839283Y-48275497D01*
X152242779Y-47736548D01*
X153643310Y-47214530D01*
X154334273Y-46975851D01*
X155014667Y-46760583D01*
X155681216Y-46575118D01*
X156330643Y-46425850D01*
X156959673Y-46319170D01*
X157565030Y-46261471D01*
X157857807Y-46252987D01*
X158143437Y-46259147D01*
X158421511Y-46280747D01*
X158680810Y-46317075D01*
X158346236Y-44064050D01*
X158346205Y-44064004D01*
X157822698Y-44404097D01*
X157275886Y-44714229D01*
X156708181Y-44997498D01*
X156121994Y-45257004D01*
X155519733Y-45495846D01*
X154903812Y-45717123D01*
X153640627Y-46119383D01*
X151056387Y-46849498D01*
X149773904Y-47226944D01*
X149143508Y-47429611D01*
X148523558Y-47645707D01*
X148128226Y-49199616D01*
X146040095Y-49199616D01*
X145890158Y-47751176D01*
X144553630Y-47844124D01*
X143199969Y-47953092D01*
X141843857Y-48056792D01*
X140499977Y-48133935D01*
X139837211Y-48155895D01*
X139183009Y-48163233D01*
X138539205Y-48153287D01*
X137907635Y-48123398D01*
X137290134Y-48070903D01*
X136688537Y-47993141D01*
X136104679Y-47887453D01*
X135540396Y-47751176D01*
X134197325Y-50779420D01*
X134061395Y-50779420D01*
X134277994Y-50195337D01*
X134627911Y-49413759D01*
X135030867Y-48653443D01*
X135300083Y-48058590D01*
X135535749Y-47452561D01*
X135739695Y-46835965D01*
X135913751Y-46209411D01*
X136059748Y-45573507D01*
X136179515Y-44928864D01*
X136274884Y-44276090D01*
X136347684Y-43615794D01*
X136399745Y-42948585D01*
X136432899Y-42275073D01*
X136448975Y-41595866D01*
X136449803Y-40911573D01*
X136413039Y-39530167D01*
X136337248Y-38135728D01*
X136146567Y-35936379D01*
X136146514Y-35936372D01*
X136304887Y-35939903D01*
G37*
%TD.AperFunction*%
%TA.AperFunction,NonConductor*%
G36*
X182837213Y-35939903D02*
G01*
X183010386Y-35967645D01*
X183197630Y-36018407D01*
X183398217Y-36090999D01*
X183836508Y-36296909D01*
X184319438Y-36575849D01*
X184841183Y-36918292D01*
X185395920Y-37314714D01*
X185977825Y-37755587D01*
X186581077Y-38231387D01*
X189091074Y-40293331D01*
X190322746Y-41286187D01*
X190912369Y-41739746D01*
X191476752Y-42152024D01*
X191630448Y-42318031D01*
X191786426Y-42505368D01*
X191943924Y-42712726D01*
X192102177Y-42938794D01*
X192260421Y-43182260D01*
X192417892Y-43441815D01*
X192573827Y-43716149D01*
X192727461Y-44003949D01*
X192878030Y-44303906D01*
X193024771Y-44614710D01*
X193166919Y-44935050D01*
X193303711Y-45263614D01*
X193434382Y-45599093D01*
X193558169Y-45940176D01*
X193674308Y-46285553D01*
X193782035Y-46633912D01*
X194030139Y-46223780D01*
X194274690Y-45840727D01*
X194518567Y-45482154D01*
X194764643Y-45145460D01*
X195015798Y-44828044D01*
X195274905Y-44527307D01*
X195544843Y-44240649D01*
X195828487Y-43965468D01*
X196128714Y-43699166D01*
X196448401Y-43439141D01*
X196790423Y-43182794D01*
X197157658Y-42927524D01*
X197552981Y-42670731D01*
X197979270Y-42409815D01*
X198439400Y-42142175D01*
X198936248Y-41865212D01*
X199380955Y-41595220D01*
X199818041Y-41343442D01*
X200247960Y-41109427D01*
X200671164Y-40892724D01*
X201088105Y-40692880D01*
X201499237Y-40509446D01*
X201905011Y-40341969D01*
X202305882Y-40189999D01*
X202702302Y-40053082D01*
X203094723Y-39930769D01*
X203483599Y-39822608D01*
X203869382Y-39728147D01*
X204252524Y-39646935D01*
X204633479Y-39578521D01*
X205012700Y-39522453D01*
X205390639Y-39478280D01*
X205462265Y-39464573D01*
X205524471Y-39460509D01*
X205577721Y-39465616D01*
X205622477Y-39479419D01*
X205659203Y-39501443D01*
X205688361Y-39531216D01*
X205710415Y-39568263D01*
X205725827Y-39612109D01*
X205735061Y-39662282D01*
X205738579Y-39718306D01*
X205736844Y-39779708D01*
X205730320Y-39846014D01*
X205704753Y-39991442D01*
X205665583Y-40150797D01*
X205561248Y-40496119D01*
X205446942Y-40851643D01*
X205395309Y-41023750D01*
X205352295Y-41187032D01*
X205321603Y-41337695D01*
X205306937Y-41471948D01*
X205214236Y-42210086D01*
X205157340Y-42943455D01*
X205133122Y-43672472D01*
X205138453Y-44397553D01*
X205170203Y-45119114D01*
X205225245Y-45837571D01*
X205300449Y-46553342D01*
X205392688Y-47266843D01*
X205615751Y-48688698D01*
X205869407Y-50106470D01*
X206128625Y-51523488D01*
X206368377Y-52943086D01*
X206382769Y-55360051D01*
X206373258Y-56526740D01*
X206355813Y-57096999D01*
X206326666Y-57657531D01*
X206283383Y-58207582D01*
X206223534Y-58746398D01*
X206144684Y-59273228D01*
X206044403Y-59787317D01*
X205920258Y-60287912D01*
X205769817Y-60774261D01*
X205590647Y-61245609D01*
X205380317Y-61701203D01*
X204602242Y-62487029D01*
X203822426Y-63219508D01*
X202257533Y-64585463D01*
X200685555Y-65921145D01*
X199896883Y-66615782D01*
X199106409Y-67348630D01*
X198314122Y-68134948D01*
X197520013Y-68989995D01*
X196724070Y-69929032D01*
X195926284Y-70967317D01*
X195126644Y-72120111D01*
X194325140Y-73402672D01*
X193521762Y-74830261D01*
X192716498Y-76418137D01*
X191512744Y-74918756D01*
X190417010Y-73602660D01*
X189420560Y-72450200D01*
X188514655Y-71441724D01*
X187882255Y-70763245D01*
X188769187Y-70763245D01*
X189864769Y-71821001D01*
X190329361Y-72280769D01*
X190762957Y-72725608D01*
X191183911Y-73178874D01*
X191610576Y-73663926D01*
X192061308Y-74204121D01*
X192554458Y-74822816D01*
X192716636Y-74437976D01*
X192875966Y-74079689D01*
X193033904Y-73744311D01*
X193191910Y-73428200D01*
X193351439Y-73127711D01*
X193513949Y-72839202D01*
X193680898Y-72559030D01*
X193853742Y-72283551D01*
X194033941Y-72009123D01*
X194222950Y-71732102D01*
X194633231Y-71155708D01*
X195623649Y-69811509D01*
X195146199Y-69815830D01*
X194724201Y-69777752D01*
X194354761Y-69699444D01*
X194034986Y-69583076D01*
X193761984Y-69430816D01*
X193532863Y-69244836D01*
X193344730Y-69027304D01*
X193194693Y-68780389D01*
X193079859Y-68506263D01*
X192997335Y-68207093D01*
X192944230Y-67885050D01*
X192917650Y-67542303D01*
X192932498Y-66803375D01*
X193018739Y-66007667D01*
X193614828Y-62604154D01*
X193710933Y-61784888D01*
X193739591Y-61012981D01*
X193721396Y-60650210D01*
X193677662Y-60305787D01*
X193605496Y-59981882D01*
X193502005Y-59680665D01*
X192290709Y-59312213D01*
X192172839Y-59687845D01*
X192074657Y-60078453D01*
X191994245Y-60482423D01*
X191929685Y-60898142D01*
X191840447Y-61758381D01*
X191791595Y-62646272D01*
X191753663Y-64453421D01*
X191733888Y-65346885D01*
X191693111Y-66216412D01*
X191615986Y-67049106D01*
X191558996Y-67447610D01*
X191487164Y-67832068D01*
X191398572Y-68200870D01*
X191291300Y-68552403D01*
X191163431Y-68885054D01*
X191013046Y-69197211D01*
X190838226Y-69487263D01*
X190637054Y-69753597D01*
X190407611Y-69994601D01*
X190147979Y-70208663D01*
X189856238Y-70394170D01*
X189530472Y-70549511D01*
X189168761Y-70673074D01*
X188769187Y-70763245D01*
X187882255Y-70763245D01*
X187690558Y-70557581D01*
X186939533Y-69778122D01*
X185621745Y-68454648D01*
X184491393Y-67314095D01*
X183974662Y-66763286D01*
X183478578Y-66199256D01*
X182994403Y-65602352D01*
X182833202Y-65384705D01*
X183443183Y-65384705D01*
X183861762Y-65853219D01*
X184280364Y-66307121D01*
X184702668Y-66752202D01*
X185132355Y-67194257D01*
X186028595Y-68092453D01*
X186998526Y-69048051D01*
X187139963Y-68426997D01*
X187282532Y-67837122D01*
X187426145Y-67277252D01*
X187570719Y-66746212D01*
X187716165Y-66242826D01*
X187862398Y-65765919D01*
X188009333Y-65314317D01*
X188156882Y-64886845D01*
X188304960Y-64482327D01*
X188453481Y-64099589D01*
X188602359Y-63737456D01*
X188751507Y-63394752D01*
X188900840Y-63070303D01*
X189050271Y-62762934D01*
X189349084Y-62194735D01*
X189647257Y-61680756D01*
X189944102Y-61211596D01*
X190238930Y-60777857D01*
X190531052Y-60370137D01*
X191104423Y-59595159D01*
X191384295Y-59209100D01*
X191658706Y-58811463D01*
X191625785Y-58782663D01*
X191594433Y-58752293D01*
X191536172Y-58687111D01*
X191483390Y-58616452D01*
X191435552Y-58540848D01*
X191392125Y-58460833D01*
X191352577Y-58376941D01*
X191316373Y-58289703D01*
X191282981Y-58199654D01*
X191251867Y-58107328D01*
X191222497Y-58013256D01*
X191166859Y-57822011D01*
X191111800Y-57630187D01*
X191053054Y-57442048D01*
X191053054Y-57442033D01*
X190809900Y-57708817D01*
X190576707Y-57989469D01*
X190352513Y-58282484D01*
X190136357Y-58586353D01*
X189724309Y-59220632D01*
X189332872Y-59880250D01*
X188581059Y-61227294D01*
X188205299Y-61890612D01*
X187819379Y-62531056D01*
X187415607Y-63136573D01*
X187204623Y-63422466D01*
X186986291Y-63695107D01*
X186759650Y-63952990D01*
X186523738Y-64194607D01*
X186277594Y-64418452D01*
X186020255Y-64623019D01*
X185750762Y-64806799D01*
X185468151Y-64968288D01*
X185171462Y-65105977D01*
X184859733Y-65218361D01*
X184532002Y-65303932D01*
X184187307Y-65361185D01*
X183824688Y-65388611D01*
X183443183Y-65384705D01*
X182833202Y-65384705D01*
X182513400Y-64952924D01*
X182271358Y-64602373D01*
X182026832Y-64231322D01*
X181778731Y-63837314D01*
X181525962Y-63417893D01*
X181454954Y-63247569D01*
X181385405Y-63077348D01*
X182585419Y-61709669D01*
X183809616Y-60377670D01*
X184435318Y-59731747D01*
X185072507Y-59102777D01*
X185722997Y-58493440D01*
X186388600Y-57906413D01*
X187071132Y-57344374D01*
X187224397Y-57227586D01*
X191438575Y-57227586D01*
X191441491Y-57342407D01*
X191450120Y-57455720D01*
X191464320Y-57567386D01*
X191483953Y-57677265D01*
X191508877Y-57785215D01*
X191538952Y-57891097D01*
X191574039Y-57994771D01*
X191613998Y-58096097D01*
X191658687Y-58194934D01*
X191707967Y-58291142D01*
X191761698Y-58384581D01*
X191819740Y-58475111D01*
X191881952Y-58562592D01*
X191948194Y-58646884D01*
X192018327Y-58727846D01*
X192092210Y-58805339D01*
X192169702Y-58879221D01*
X192250664Y-58949354D01*
X192334956Y-59015596D01*
X192422437Y-59077808D01*
X192512967Y-59135850D01*
X192606407Y-59189581D01*
X192702615Y-59238861D01*
X192801452Y-59283550D01*
X192902778Y-59323508D01*
X193006452Y-59358595D01*
X193112335Y-59388671D01*
X193220285Y-59413594D01*
X193330164Y-59433226D01*
X193441831Y-59447426D01*
X193555145Y-59456054D01*
X193669967Y-59458970D01*
X193766496Y-59456882D01*
X193862527Y-59450649D01*
X193957936Y-59440314D01*
X194052598Y-59425923D01*
X194146387Y-59407520D01*
X194239180Y-59385150D01*
X194330851Y-59358857D01*
X194421277Y-59328687D01*
X194510332Y-59294682D01*
X194597892Y-59256889D01*
X194683831Y-59215352D01*
X194768026Y-59170115D01*
X194850352Y-59121224D01*
X194930684Y-59068722D01*
X195008898Y-59012654D01*
X195084868Y-58953065D01*
X194976859Y-59075013D01*
X195231037Y-59504334D01*
X195483508Y-59906118D01*
X195978149Y-60661263D01*
X196450431Y-61408833D01*
X196674952Y-61801147D01*
X196890002Y-62217210D01*
X197094286Y-62665570D01*
X197286510Y-63154776D01*
X197465381Y-63693374D01*
X197629604Y-64289914D01*
X197777886Y-64952942D01*
X197908932Y-65691007D01*
X198021449Y-66512657D01*
X198114142Y-67426438D01*
X201527954Y-64366402D01*
X201423988Y-64332134D01*
X201175129Y-64235098D01*
X200934572Y-64126470D01*
X200701882Y-64006791D01*
X200476621Y-63876602D01*
X200258354Y-63736443D01*
X200046644Y-63586855D01*
X199841055Y-63428379D01*
X199446494Y-63086923D01*
X199071183Y-62716401D01*
X198711629Y-62321136D01*
X198364343Y-61905455D01*
X198025834Y-61473683D01*
X197692612Y-61030142D01*
X197028069Y-60125060D01*
X196342791Y-59224808D01*
X195983651Y-58787305D01*
X195608855Y-58363984D01*
X195550452Y-58429582D01*
X195581663Y-58379291D01*
X195611495Y-58328253D01*
X195639935Y-58276499D01*
X195666973Y-58224055D01*
X195692598Y-58170952D01*
X195716800Y-58117218D01*
X195739566Y-58062883D01*
X195760887Y-58007975D01*
X195780751Y-57952524D01*
X195799147Y-57896559D01*
X195816064Y-57840108D01*
X195831491Y-57783201D01*
X195845417Y-57725867D01*
X195857832Y-57668134D01*
X195868723Y-57610033D01*
X195878081Y-57551591D01*
X195878089Y-57551606D01*
X196104208Y-57691583D01*
X196334576Y-57818802D01*
X196805726Y-58041462D01*
X197286878Y-58232579D01*
X197773372Y-58405147D01*
X198743740Y-58746614D01*
X199218293Y-58941501D01*
X199679542Y-59169816D01*
X199903722Y-59300569D01*
X200122829Y-59444552D01*
X200336279Y-59603389D01*
X200543490Y-59778704D01*
X200743880Y-59972121D01*
X200936866Y-60185265D01*
X201121866Y-60419759D01*
X201298296Y-60677229D01*
X201465574Y-60959299D01*
X201623118Y-61267592D01*
X201770344Y-61603732D01*
X201906671Y-61969345D01*
X202031516Y-62366055D01*
X202144295Y-62795485D01*
X202244427Y-63259260D01*
X202314394Y-63661619D01*
X203162044Y-62902594D01*
X203617408Y-62489325D01*
X203831574Y-62288659D01*
X204036720Y-62090167D01*
X204232841Y-61892495D01*
X204419930Y-61694291D01*
X204597982Y-61494200D01*
X204766990Y-61290869D01*
X204926948Y-61082945D01*
X205077850Y-60869074D01*
X205219690Y-60647902D01*
X205352462Y-60418076D01*
X205573892Y-58955518D01*
X205675452Y-58235501D01*
X205768973Y-57520585D01*
X205913097Y-56998675D01*
X205983503Y-56732303D01*
X206046926Y-56464585D01*
X206074641Y-56330753D01*
X206098956Y-56197223D01*
X206119321Y-56064206D01*
X206135184Y-55931915D01*
X206145994Y-55800562D01*
X206151199Y-55670361D01*
X206150249Y-55541523D01*
X206142592Y-55414262D01*
X206106811Y-55369804D01*
X206070813Y-55325833D01*
X206034531Y-55282280D01*
X205997901Y-55239076D01*
X206023988Y-54845551D01*
X206045402Y-54450922D01*
X206061925Y-54054893D01*
X206073337Y-53657168D01*
X206079420Y-53257453D01*
X206079954Y-52855452D01*
X206074720Y-52450870D01*
X206063498Y-52043412D01*
X205867892Y-50726199D01*
X205314144Y-50894939D01*
X204693398Y-51022632D01*
X204041981Y-51104572D01*
X203363617Y-51145985D01*
X202662029Y-51152099D01*
X201940940Y-51128140D01*
X201204074Y-51079336D01*
X200455152Y-51010915D01*
X197413385Y-50645595D01*
X195916977Y-50481136D01*
X195187923Y-50421752D01*
X194476600Y-50384568D01*
X194555701Y-52227876D01*
X195951536Y-52216925D01*
X197450523Y-52232967D01*
X198224117Y-52264185D01*
X199006004Y-52317840D01*
X199790351Y-52399164D01*
X200571326Y-52513385D01*
X201343097Y-52665733D01*
X202099832Y-52861439D01*
X202835700Y-53105733D01*
X203193985Y-53247734D01*
X203544867Y-53403844D01*
X203887616Y-53574715D01*
X204221503Y-53761002D01*
X204545799Y-53963359D01*
X204859775Y-54182438D01*
X205162702Y-54418894D01*
X205453852Y-54673381D01*
X205732494Y-54946551D01*
X205997901Y-55239060D01*
X205952492Y-55809544D01*
X205898669Y-56379336D01*
X205837230Y-56949372D01*
X205768973Y-57520585D01*
X205725366Y-57686931D01*
X205704967Y-57768889D01*
X205685712Y-57849969D01*
X205667756Y-57930119D01*
X205651256Y-58009288D01*
X205636367Y-58087424D01*
X205623244Y-58164475D01*
X205257215Y-58320214D01*
X204897361Y-58446863D01*
X204543344Y-58545816D01*
X204194825Y-58618464D01*
X203851465Y-58666199D01*
X203512925Y-58690413D01*
X203178867Y-58692500D01*
X202848953Y-58673850D01*
X202522842Y-58635856D01*
X202200197Y-58579911D01*
X201880678Y-58507406D01*
X201563948Y-58419734D01*
X200937496Y-58204456D01*
X200318130Y-57945214D01*
X199703142Y-57653147D01*
X199089820Y-57339391D01*
X197857336Y-56691363D01*
X197232754Y-56379366D01*
X196598999Y-56090231D01*
X195953360Y-55835094D01*
X195625238Y-55723755D01*
X195293128Y-55625092D01*
X195324126Y-55728959D01*
X195242745Y-55643762D01*
X195157415Y-55563364D01*
X195068355Y-55487862D01*
X194975781Y-55417352D01*
X194879911Y-55351930D01*
X194780962Y-55291692D01*
X194679152Y-55236736D01*
X194574697Y-55187158D01*
X194467817Y-55143053D01*
X194358727Y-55104518D01*
X194247645Y-55071650D01*
X194134789Y-55044545D01*
X194020375Y-55023299D01*
X193904622Y-55008010D01*
X193787747Y-54998772D01*
X193669967Y-54995683D01*
X193555127Y-54998599D01*
X193441796Y-55007230D01*
X193330113Y-55021434D01*
X193220219Y-55041072D01*
X193112254Y-55066004D01*
X193006357Y-55096088D01*
X192902670Y-55131186D01*
X192801332Y-55171155D01*
X192702484Y-55215858D01*
X192606265Y-55265152D01*
X192512817Y-55318898D01*
X192422279Y-55376956D01*
X192334791Y-55439185D01*
X192250494Y-55505446D01*
X192169528Y-55575597D01*
X192092032Y-55649499D01*
X192018148Y-55727011D01*
X191948016Y-55807994D01*
X191881775Y-55892306D01*
X191819566Y-55979809D01*
X191761528Y-56070360D01*
X191707804Y-56163821D01*
X191658531Y-56260051D01*
X191613852Y-56358910D01*
X191573905Y-56460257D01*
X191538831Y-56563953D01*
X191508771Y-56669856D01*
X191483864Y-56777827D01*
X191464250Y-56887726D01*
X191450071Y-56999412D01*
X191441466Y-57112746D01*
X191438575Y-57227586D01*
X187224397Y-57227586D01*
X187772404Y-56810002D01*
X188494232Y-56305974D01*
X189238428Y-55834969D01*
X190006807Y-55399664D01*
X190801182Y-55002738D01*
X191623366Y-54646868D01*
X192475173Y-54334733D01*
X192790915Y-51332856D01*
X192684884Y-51528848D01*
X192570416Y-51716402D01*
X192447903Y-51895909D01*
X192317737Y-52067762D01*
X192180308Y-52232351D01*
X192036009Y-52390069D01*
X191728367Y-52686457D01*
X191397942Y-52960060D01*
X191047867Y-53214011D01*
X190681276Y-53451444D01*
X190301301Y-53675492D01*
X189911074Y-53889289D01*
X189513729Y-54095969D01*
X188710215Y-54500511D01*
X187915821Y-54914185D01*
X187529875Y-55132281D01*
X187155608Y-55362061D01*
X186865961Y-55424673D01*
X186584152Y-55476083D01*
X186309832Y-55516791D01*
X186042653Y-55547294D01*
X185782265Y-55568091D01*
X185528320Y-55579681D01*
X185280470Y-55582561D01*
X185038365Y-55577231D01*
X184569997Y-55543933D01*
X184120427Y-55483773D01*
X183686866Y-55400738D01*
X183266524Y-55298818D01*
X182856612Y-55181998D01*
X182454339Y-55054266D01*
X181661556Y-54782018D01*
X180865858Y-54513972D01*
X180459942Y-54391494D01*
X180044928Y-54282029D01*
X179887313Y-56599717D01*
X180024391Y-56535946D01*
X180165643Y-56481591D01*
X180310870Y-56436157D01*
X180459875Y-56399154D01*
X180768429Y-56348463D01*
X181089726Y-56325573D01*
X181422188Y-56326540D01*
X181764235Y-56347421D01*
X182114288Y-56384269D01*
X182470768Y-56433143D01*
X183929379Y-56669993D01*
X184294309Y-56719824D01*
X184656192Y-56758014D01*
X185013449Y-56780618D01*
X185364501Y-56783692D01*
X184790280Y-57224031D01*
X184238806Y-57625454D01*
X183146296Y-58410539D01*
X182576357Y-58843695D01*
X182279144Y-59081254D01*
X181971361Y-59336924D01*
X181651199Y-59613798D01*
X181316854Y-59914971D01*
X180966519Y-60243536D01*
X180598388Y-60602586D01*
X181246413Y-62726487D01*
X180897694Y-61767886D01*
X180596158Y-60814462D01*
X180342225Y-59867362D01*
X180136312Y-58927737D01*
X179978837Y-57996735D01*
X179870220Y-57075505D01*
X179810877Y-56165196D01*
X179801228Y-55266957D01*
X179841691Y-54381937D01*
X179932684Y-53511285D01*
X180074625Y-52656150D01*
X180267933Y-51817681D01*
X180513025Y-50997027D01*
X180593721Y-50779420D01*
X180729651Y-50779420D01*
X182148051Y-50440760D01*
X183558763Y-50083606D01*
X184974627Y-49738787D01*
X186408482Y-49437131D01*
X187136169Y-49312124D01*
X187873169Y-49209468D01*
X188621086Y-49133019D01*
X189381526Y-49086628D01*
X190156094Y-49074151D01*
X190946394Y-49099440D01*
X191754031Y-49166350D01*
X192580611Y-49278733D01*
X192572421Y-49199616D01*
X194660552Y-49199616D01*
X195318134Y-49003790D01*
X195991355Y-48780233D01*
X197371609Y-48275497D01*
X198775105Y-47736548D01*
X200175636Y-47214530D01*
X200866599Y-46975851D01*
X201546993Y-46760583D01*
X202213542Y-46575118D01*
X202862969Y-46425850D01*
X203491999Y-46319170D01*
X204097356Y-46261471D01*
X204390133Y-46252987D01*
X204675763Y-46259147D01*
X204953837Y-46280747D01*
X205213136Y-46317075D01*
X204878562Y-44064050D01*
X204878531Y-44064004D01*
X204355024Y-44404097D01*
X203808212Y-44714229D01*
X203240507Y-44997498D01*
X202654320Y-45257004D01*
X202052059Y-45495846D01*
X201436138Y-45717123D01*
X200172953Y-46119383D01*
X197588713Y-46849498D01*
X196306230Y-47226944D01*
X195675834Y-47429611D01*
X195055884Y-47645707D01*
X194660552Y-49199616D01*
X192572421Y-49199616D01*
X192422484Y-47751176D01*
X191085956Y-47844124D01*
X189732295Y-47953092D01*
X188376183Y-48056792D01*
X187032303Y-48133935D01*
X186369537Y-48155895D01*
X185715335Y-48163233D01*
X185071531Y-48153287D01*
X184439961Y-48123398D01*
X183822460Y-48070903D01*
X183220863Y-47993141D01*
X182637005Y-47887453D01*
X182072722Y-47751176D01*
X180729651Y-50779420D01*
X180593721Y-50779420D01*
X180810320Y-50195337D01*
X181160237Y-49413759D01*
X181563193Y-48653443D01*
X181832409Y-48058590D01*
X182068075Y-47452561D01*
X182272021Y-46835965D01*
X182446077Y-46209411D01*
X182592074Y-45573507D01*
X182711841Y-44928864D01*
X182807210Y-44276090D01*
X182880010Y-43615794D01*
X182932071Y-42948585D01*
X182965225Y-42275073D01*
X182981301Y-41595866D01*
X182982129Y-40911573D01*
X182945365Y-39530167D01*
X182869574Y-38135728D01*
X182678893Y-35936379D01*
X182678840Y-35936372D01*
X182837213Y-35939903D01*
G37*
%TD.AperFunction*%
%TA.AperFunction,NonConductor*%
G36*
X136304887Y-114480334D02*
G01*
X136478060Y-114508076D01*
X136665304Y-114558838D01*
X136865891Y-114631430D01*
X137304182Y-114837340D01*
X137787112Y-115116280D01*
X138308857Y-115458723D01*
X138863594Y-115855145D01*
X139445499Y-116296018D01*
X140048751Y-116771818D01*
X142558748Y-118833762D01*
X143790420Y-119826618D01*
X144380043Y-120280177D01*
X144944426Y-120692455D01*
X145098122Y-120858462D01*
X145254100Y-121045799D01*
X145411598Y-121253157D01*
X145569851Y-121479225D01*
X145728095Y-121722691D01*
X145885566Y-121982246D01*
X146041501Y-122256580D01*
X146195135Y-122544380D01*
X146345704Y-122844337D01*
X146492445Y-123155141D01*
X146634593Y-123475481D01*
X146771385Y-123804045D01*
X146902056Y-124139524D01*
X147025843Y-124480607D01*
X147141982Y-124825984D01*
X147249709Y-125174343D01*
X147497813Y-124764211D01*
X147742364Y-124381158D01*
X147986241Y-124022585D01*
X148232317Y-123685891D01*
X148483472Y-123368475D01*
X148742579Y-123067738D01*
X149012517Y-122781080D01*
X149296161Y-122505899D01*
X149596388Y-122239597D01*
X149916075Y-121979572D01*
X150258097Y-121723225D01*
X150625332Y-121467955D01*
X151020655Y-121211162D01*
X151446944Y-120950246D01*
X151907074Y-120682606D01*
X152403922Y-120405643D01*
X152848629Y-120135651D01*
X153285715Y-119883873D01*
X153715634Y-119649858D01*
X154138838Y-119433155D01*
X154555779Y-119233311D01*
X154966911Y-119049877D01*
X155372685Y-118882400D01*
X155773556Y-118730430D01*
X156169976Y-118593513D01*
X156562397Y-118471200D01*
X156951273Y-118363039D01*
X157337056Y-118268578D01*
X157720198Y-118187366D01*
X158101153Y-118118952D01*
X158480374Y-118062884D01*
X158858313Y-118018711D01*
X158929939Y-118005004D01*
X158992145Y-118000940D01*
X159045395Y-118006047D01*
X159090151Y-118019850D01*
X159126877Y-118041874D01*
X159156035Y-118071647D01*
X159178089Y-118108694D01*
X159193501Y-118152540D01*
X159202735Y-118202713D01*
X159206253Y-118258737D01*
X159204518Y-118320139D01*
X159197994Y-118386445D01*
X159172427Y-118531873D01*
X159133257Y-118691228D01*
X159028922Y-119036550D01*
X158914616Y-119392074D01*
X158862983Y-119564181D01*
X158819969Y-119727463D01*
X158789277Y-119878126D01*
X158774611Y-120012379D01*
X158681910Y-120750517D01*
X158625014Y-121483886D01*
X158600796Y-122212903D01*
X158606127Y-122937984D01*
X158637877Y-123659545D01*
X158692919Y-124378002D01*
X158768123Y-125093773D01*
X158860362Y-125807274D01*
X159083425Y-127229129D01*
X159337081Y-128646901D01*
X159596299Y-130063919D01*
X159836051Y-131483517D01*
X159850443Y-133900482D01*
X159840932Y-135067171D01*
X159823487Y-135637430D01*
X159794340Y-136197962D01*
X159751057Y-136748013D01*
X159691208Y-137286829D01*
X159612358Y-137813659D01*
X159512077Y-138327748D01*
X159387932Y-138828343D01*
X159237491Y-139314692D01*
X159058321Y-139786040D01*
X158847991Y-140241634D01*
X158069916Y-141027460D01*
X157290100Y-141759939D01*
X155725207Y-143125894D01*
X154153229Y-144461576D01*
X153364557Y-145156213D01*
X152574083Y-145889061D01*
X151781796Y-146675379D01*
X150987687Y-147530426D01*
X150191744Y-148469463D01*
X149393958Y-149507748D01*
X148594318Y-150660542D01*
X147792814Y-151943103D01*
X146989436Y-153370692D01*
X146184172Y-154958568D01*
X144980418Y-153459187D01*
X143884684Y-152143091D01*
X142888234Y-150990631D01*
X141982329Y-149982155D01*
X141349929Y-149303676D01*
X142236861Y-149303676D01*
X143332443Y-150361432D01*
X143797035Y-150821200D01*
X144230631Y-151266039D01*
X144651585Y-151719305D01*
X145078250Y-152204357D01*
X145528982Y-152744552D01*
X146022132Y-153363247D01*
X146184310Y-152978407D01*
X146343640Y-152620120D01*
X146501578Y-152284742D01*
X146659584Y-151968631D01*
X146819113Y-151668142D01*
X146981623Y-151379633D01*
X147148572Y-151099461D01*
X147321416Y-150823982D01*
X147501615Y-150549554D01*
X147690624Y-150272533D01*
X148100905Y-149696139D01*
X149091323Y-148351940D01*
X148613873Y-148356261D01*
X148191875Y-148318183D01*
X147822435Y-148239875D01*
X147502660Y-148123507D01*
X147229658Y-147971247D01*
X147000537Y-147785267D01*
X146812404Y-147567735D01*
X146662367Y-147320820D01*
X146547533Y-147046694D01*
X146465009Y-146747524D01*
X146411904Y-146425481D01*
X146385324Y-146082734D01*
X146400172Y-145343806D01*
X146486413Y-144548098D01*
X147082502Y-141144585D01*
X147178607Y-140325319D01*
X147207265Y-139553412D01*
X147189070Y-139190641D01*
X147145336Y-138846218D01*
X147073170Y-138522313D01*
X146969679Y-138221096D01*
X145758383Y-137852644D01*
X145640513Y-138228276D01*
X145542331Y-138618884D01*
X145461919Y-139022854D01*
X145397359Y-139438573D01*
X145308121Y-140298812D01*
X145259269Y-141186703D01*
X145221337Y-142993852D01*
X145201562Y-143887316D01*
X145160785Y-144756843D01*
X145083660Y-145589537D01*
X145026670Y-145988041D01*
X144954838Y-146372499D01*
X144866246Y-146741301D01*
X144758974Y-147092834D01*
X144631105Y-147425485D01*
X144480720Y-147737642D01*
X144305900Y-148027694D01*
X144104728Y-148294028D01*
X143875285Y-148535032D01*
X143615653Y-148749094D01*
X143323912Y-148934601D01*
X142998146Y-149089942D01*
X142636435Y-149213505D01*
X142236861Y-149303676D01*
X141349929Y-149303676D01*
X141158232Y-149098012D01*
X140407207Y-148318553D01*
X139089419Y-146995079D01*
X137959067Y-145854526D01*
X137442336Y-145303717D01*
X136946252Y-144739687D01*
X136462077Y-144142783D01*
X136300876Y-143925136D01*
X136910857Y-143925136D01*
X137329436Y-144393650D01*
X137748038Y-144847552D01*
X138170342Y-145292633D01*
X138600029Y-145734688D01*
X139496269Y-146632884D01*
X140466200Y-147588482D01*
X140607637Y-146967428D01*
X140750206Y-146377553D01*
X140893819Y-145817683D01*
X141038393Y-145286643D01*
X141183839Y-144783257D01*
X141330072Y-144306350D01*
X141477007Y-143854748D01*
X141624556Y-143427276D01*
X141772634Y-143022758D01*
X141921155Y-142640020D01*
X142070033Y-142277887D01*
X142219181Y-141935183D01*
X142368514Y-141610734D01*
X142517945Y-141303365D01*
X142816758Y-140735166D01*
X143114931Y-140221187D01*
X143411776Y-139752027D01*
X143706604Y-139318288D01*
X143998726Y-138910568D01*
X144572097Y-138135590D01*
X144851969Y-137749531D01*
X145126380Y-137351894D01*
X145093459Y-137323094D01*
X145062107Y-137292724D01*
X145003846Y-137227542D01*
X144951064Y-137156883D01*
X144903226Y-137081279D01*
X144859799Y-137001264D01*
X144820251Y-136917372D01*
X144784047Y-136830134D01*
X144750655Y-136740085D01*
X144719541Y-136647759D01*
X144690171Y-136553687D01*
X144634533Y-136362442D01*
X144579474Y-136170618D01*
X144520728Y-135982479D01*
X144520728Y-135982464D01*
X144277574Y-136249248D01*
X144044381Y-136529900D01*
X143820187Y-136822915D01*
X143604031Y-137126784D01*
X143191983Y-137761063D01*
X142800546Y-138420681D01*
X142048733Y-139767725D01*
X141672973Y-140431043D01*
X141287053Y-141071487D01*
X140883281Y-141677004D01*
X140672297Y-141962897D01*
X140453965Y-142235538D01*
X140227324Y-142493421D01*
X139991412Y-142735038D01*
X139745268Y-142958883D01*
X139487929Y-143163450D01*
X139218436Y-143347230D01*
X138935825Y-143508719D01*
X138639136Y-143646408D01*
X138327407Y-143758792D01*
X137999676Y-143844363D01*
X137654981Y-143901616D01*
X137292362Y-143929042D01*
X136910857Y-143925136D01*
X136300876Y-143925136D01*
X135981074Y-143493355D01*
X135739032Y-143142804D01*
X135494506Y-142771753D01*
X135246405Y-142377745D01*
X134993636Y-141958324D01*
X134922628Y-141788000D01*
X134853079Y-141617779D01*
X136053093Y-140250100D01*
X137277290Y-138918101D01*
X137902992Y-138272178D01*
X138540181Y-137643208D01*
X139190671Y-137033871D01*
X139856274Y-136446844D01*
X140538806Y-135884805D01*
X140692071Y-135768017D01*
X144906249Y-135768017D01*
X144909165Y-135882838D01*
X144917794Y-135996151D01*
X144931994Y-136107817D01*
X144951627Y-136217696D01*
X144976551Y-136325646D01*
X145006626Y-136431528D01*
X145041713Y-136535202D01*
X145081672Y-136636528D01*
X145126361Y-136735365D01*
X145175641Y-136831573D01*
X145229372Y-136925012D01*
X145287414Y-137015542D01*
X145349626Y-137103023D01*
X145415868Y-137187315D01*
X145486001Y-137268277D01*
X145559884Y-137345770D01*
X145637376Y-137419652D01*
X145718338Y-137489785D01*
X145802630Y-137556027D01*
X145890111Y-137618239D01*
X145980641Y-137676281D01*
X146074081Y-137730012D01*
X146170289Y-137779292D01*
X146269126Y-137823981D01*
X146370452Y-137863939D01*
X146474126Y-137899026D01*
X146580009Y-137929102D01*
X146687959Y-137954025D01*
X146797838Y-137973657D01*
X146909505Y-137987857D01*
X147022819Y-137996485D01*
X147137641Y-137999401D01*
X147234170Y-137997313D01*
X147330201Y-137991080D01*
X147425610Y-137980745D01*
X147520272Y-137966354D01*
X147614061Y-137947951D01*
X147706854Y-137925581D01*
X147798525Y-137899288D01*
X147888951Y-137869118D01*
X147978006Y-137835113D01*
X148065566Y-137797320D01*
X148151505Y-137755783D01*
X148235700Y-137710546D01*
X148318026Y-137661655D01*
X148398358Y-137609153D01*
X148476572Y-137553085D01*
X148552542Y-137493496D01*
X148444533Y-137615444D01*
X148698711Y-138044765D01*
X148951182Y-138446549D01*
X149445823Y-139201694D01*
X149918105Y-139949264D01*
X150142626Y-140341578D01*
X150357676Y-140757641D01*
X150561960Y-141206001D01*
X150754184Y-141695207D01*
X150933055Y-142233805D01*
X151097278Y-142830345D01*
X151245560Y-143493373D01*
X151376606Y-144231438D01*
X151489123Y-145053088D01*
X151581816Y-145966869D01*
X154995628Y-142906833D01*
X154891662Y-142872565D01*
X154642803Y-142775529D01*
X154402246Y-142666901D01*
X154169556Y-142547222D01*
X153944295Y-142417033D01*
X153726028Y-142276874D01*
X153514318Y-142127286D01*
X153308729Y-141968810D01*
X152914168Y-141627354D01*
X152538857Y-141256832D01*
X152179303Y-140861567D01*
X151832017Y-140445886D01*
X151493508Y-140014114D01*
X151160286Y-139570573D01*
X150495743Y-138665491D01*
X149810465Y-137765239D01*
X149451325Y-137327736D01*
X149076529Y-136904415D01*
X149018126Y-136970013D01*
X149049337Y-136919722D01*
X149079169Y-136868684D01*
X149107609Y-136816930D01*
X149134647Y-136764486D01*
X149160272Y-136711383D01*
X149184474Y-136657649D01*
X149207240Y-136603314D01*
X149228561Y-136548406D01*
X149248425Y-136492955D01*
X149266821Y-136436990D01*
X149283738Y-136380539D01*
X149299165Y-136323632D01*
X149313091Y-136266298D01*
X149325506Y-136208565D01*
X149336397Y-136150464D01*
X149345755Y-136092022D01*
X149345763Y-136092037D01*
X149571882Y-136232014D01*
X149802250Y-136359233D01*
X150273400Y-136581893D01*
X150754552Y-136773010D01*
X151241046Y-136945578D01*
X152211414Y-137287045D01*
X152685967Y-137481932D01*
X153147216Y-137710247D01*
X153371396Y-137841000D01*
X153590503Y-137984983D01*
X153803953Y-138143820D01*
X154011164Y-138319135D01*
X154211554Y-138512552D01*
X154404540Y-138725696D01*
X154589540Y-138960190D01*
X154765970Y-139217660D01*
X154933248Y-139499730D01*
X155090792Y-139808023D01*
X155238018Y-140144163D01*
X155374345Y-140509776D01*
X155499190Y-140906486D01*
X155611969Y-141335916D01*
X155712101Y-141799691D01*
X155782068Y-142202050D01*
X156629718Y-141443025D01*
X157085082Y-141029756D01*
X157299248Y-140829090D01*
X157504394Y-140630598D01*
X157700515Y-140432926D01*
X157887604Y-140234722D01*
X158065656Y-140034631D01*
X158234664Y-139831300D01*
X158394622Y-139623376D01*
X158545524Y-139409505D01*
X158687364Y-139188333D01*
X158820136Y-138958507D01*
X159041566Y-137495949D01*
X159143126Y-136775932D01*
X159236647Y-136061016D01*
X159380771Y-135539106D01*
X159451177Y-135272734D01*
X159514600Y-135005016D01*
X159542315Y-134871184D01*
X159566630Y-134737654D01*
X159586995Y-134604637D01*
X159602858Y-134472346D01*
X159613668Y-134340993D01*
X159618873Y-134210792D01*
X159617923Y-134081954D01*
X159610266Y-133954693D01*
X159574485Y-133910235D01*
X159538487Y-133866264D01*
X159502205Y-133822711D01*
X159465575Y-133779507D01*
X159491662Y-133385982D01*
X159513076Y-132991353D01*
X159529599Y-132595324D01*
X159541011Y-132197599D01*
X159547094Y-131797884D01*
X159547628Y-131395883D01*
X159542394Y-130991301D01*
X159531172Y-130583843D01*
X159335566Y-129266630D01*
X158781818Y-129435370D01*
X158161072Y-129563063D01*
X157509655Y-129645003D01*
X156831291Y-129686416D01*
X156129703Y-129692530D01*
X155408614Y-129668571D01*
X154671748Y-129619767D01*
X153922826Y-129551346D01*
X150881059Y-129186026D01*
X149384651Y-129021567D01*
X148655597Y-128962183D01*
X147944274Y-128924999D01*
X148023375Y-130768307D01*
X149419210Y-130757356D01*
X150918197Y-130773398D01*
X151691791Y-130804616D01*
X152473678Y-130858271D01*
X153258025Y-130939595D01*
X154039000Y-131053816D01*
X154810771Y-131206164D01*
X155567506Y-131401870D01*
X156303374Y-131646164D01*
X156661659Y-131788165D01*
X157012541Y-131944275D01*
X157355290Y-132115146D01*
X157689177Y-132301433D01*
X158013473Y-132503790D01*
X158327449Y-132722869D01*
X158630376Y-132959325D01*
X158921526Y-133213812D01*
X159200168Y-133486982D01*
X159465575Y-133779491D01*
X159420166Y-134349975D01*
X159366343Y-134919767D01*
X159304904Y-135489803D01*
X159236647Y-136061016D01*
X159193040Y-136227362D01*
X159172641Y-136309320D01*
X159153386Y-136390400D01*
X159135430Y-136470550D01*
X159118930Y-136549719D01*
X159104041Y-136627855D01*
X159090918Y-136704906D01*
X158724889Y-136860645D01*
X158365035Y-136987294D01*
X158011018Y-137086247D01*
X157662499Y-137158895D01*
X157319139Y-137206630D01*
X156980599Y-137230844D01*
X156646541Y-137232931D01*
X156316627Y-137214281D01*
X155990516Y-137176287D01*
X155667871Y-137120342D01*
X155348352Y-137047837D01*
X155031622Y-136960165D01*
X154405170Y-136744887D01*
X153785804Y-136485645D01*
X153170816Y-136193578D01*
X152557494Y-135879822D01*
X151325010Y-135231794D01*
X150700428Y-134919797D01*
X150066673Y-134630662D01*
X149421034Y-134375525D01*
X149092912Y-134264186D01*
X148760802Y-134165523D01*
X148791800Y-134269390D01*
X148710419Y-134184193D01*
X148625089Y-134103795D01*
X148536029Y-134028293D01*
X148443455Y-133957783D01*
X148347585Y-133892361D01*
X148248636Y-133832123D01*
X148146826Y-133777167D01*
X148042371Y-133727589D01*
X147935491Y-133683484D01*
X147826401Y-133644949D01*
X147715319Y-133612081D01*
X147602463Y-133584976D01*
X147488049Y-133563730D01*
X147372296Y-133548441D01*
X147255421Y-133539203D01*
X147137641Y-133536114D01*
X147022801Y-133539030D01*
X146909470Y-133547661D01*
X146797787Y-133561865D01*
X146687893Y-133581503D01*
X146579928Y-133606435D01*
X146474031Y-133636519D01*
X146370344Y-133671617D01*
X146269006Y-133711586D01*
X146170158Y-133756289D01*
X146073939Y-133805583D01*
X145980491Y-133859329D01*
X145889953Y-133917387D01*
X145802465Y-133979616D01*
X145718168Y-134045877D01*
X145637202Y-134116028D01*
X145559706Y-134189930D01*
X145485822Y-134267442D01*
X145415690Y-134348425D01*
X145349449Y-134432737D01*
X145287240Y-134520240D01*
X145229202Y-134610791D01*
X145175478Y-134704252D01*
X145126205Y-134800482D01*
X145081526Y-134899341D01*
X145041579Y-135000688D01*
X145006505Y-135104384D01*
X144976445Y-135210287D01*
X144951538Y-135318258D01*
X144931924Y-135428157D01*
X144917745Y-135539843D01*
X144909140Y-135653177D01*
X144906249Y-135768017D01*
X140692071Y-135768017D01*
X141240078Y-135350433D01*
X141961906Y-134846405D01*
X142706102Y-134375400D01*
X143474481Y-133940095D01*
X144268856Y-133543169D01*
X145091040Y-133187299D01*
X145942847Y-132875164D01*
X146258589Y-129873287D01*
X146152558Y-130069279D01*
X146038090Y-130256833D01*
X145915577Y-130436340D01*
X145785411Y-130608193D01*
X145647982Y-130772782D01*
X145503683Y-130930500D01*
X145196041Y-131226888D01*
X144865616Y-131500491D01*
X144515541Y-131754442D01*
X144148950Y-131991875D01*
X143768975Y-132215923D01*
X143378748Y-132429720D01*
X142981403Y-132636400D01*
X142177889Y-133040942D01*
X141383495Y-133454616D01*
X140997549Y-133672712D01*
X140623282Y-133902492D01*
X140333635Y-133965104D01*
X140051826Y-134016514D01*
X139777506Y-134057222D01*
X139510327Y-134087725D01*
X139249939Y-134108522D01*
X138995994Y-134120112D01*
X138748144Y-134122992D01*
X138506039Y-134117662D01*
X138037671Y-134084364D01*
X137588101Y-134024204D01*
X137154540Y-133941169D01*
X136734198Y-133839249D01*
X136324286Y-133722429D01*
X135922013Y-133594697D01*
X135129230Y-133322449D01*
X134333532Y-133054403D01*
X133927616Y-132931925D01*
X133512602Y-132822460D01*
X133354987Y-135140148D01*
X133492065Y-135076377D01*
X133633317Y-135022022D01*
X133778544Y-134976588D01*
X133927549Y-134939585D01*
X134236103Y-134888894D01*
X134557400Y-134866004D01*
X134889862Y-134866971D01*
X135231909Y-134887852D01*
X135581962Y-134924700D01*
X135938442Y-134973574D01*
X137397053Y-135210424D01*
X137761983Y-135260255D01*
X138123866Y-135298445D01*
X138481123Y-135321049D01*
X138832175Y-135324123D01*
X138257954Y-135764462D01*
X137706480Y-136165885D01*
X136613970Y-136950970D01*
X136044031Y-137384126D01*
X135746818Y-137621685D01*
X135439035Y-137877355D01*
X135118873Y-138154229D01*
X134784528Y-138455402D01*
X134434193Y-138783967D01*
X134066062Y-139143017D01*
X134714087Y-141266918D01*
X134365368Y-140308317D01*
X134063832Y-139354893D01*
X133809899Y-138407793D01*
X133603986Y-137468168D01*
X133446511Y-136537166D01*
X133337894Y-135615936D01*
X133278551Y-134705627D01*
X133268902Y-133807388D01*
X133309365Y-132922368D01*
X133400358Y-132051716D01*
X133542299Y-131196581D01*
X133735607Y-130358112D01*
X133980699Y-129537458D01*
X134061395Y-129319851D01*
X134197325Y-129319851D01*
X135615725Y-128981191D01*
X137026437Y-128624037D01*
X138442301Y-128279218D01*
X139876156Y-127977562D01*
X140603843Y-127852555D01*
X141340843Y-127749899D01*
X142088760Y-127673450D01*
X142849200Y-127627059D01*
X143623768Y-127614582D01*
X144414068Y-127639871D01*
X145221705Y-127706781D01*
X146048285Y-127819164D01*
X146040095Y-127740047D01*
X148128226Y-127740047D01*
X148785808Y-127544221D01*
X149459029Y-127320664D01*
X150839283Y-126815928D01*
X152242779Y-126276979D01*
X153643310Y-125754961D01*
X154334273Y-125516282D01*
X155014667Y-125301014D01*
X155681216Y-125115549D01*
X156330643Y-124966281D01*
X156959673Y-124859601D01*
X157565030Y-124801902D01*
X157857807Y-124793418D01*
X158143437Y-124799578D01*
X158421511Y-124821178D01*
X158680810Y-124857506D01*
X158346236Y-122604481D01*
X158346205Y-122604435D01*
X157822698Y-122944528D01*
X157275886Y-123254660D01*
X156708181Y-123537929D01*
X156121994Y-123797435D01*
X155519733Y-124036277D01*
X154903812Y-124257554D01*
X153640627Y-124659814D01*
X151056387Y-125389929D01*
X149773904Y-125767375D01*
X149143508Y-125970042D01*
X148523558Y-126186138D01*
X148128226Y-127740047D01*
X146040095Y-127740047D01*
X145890158Y-126291607D01*
X144553630Y-126384555D01*
X143199969Y-126493523D01*
X141843857Y-126597223D01*
X140499977Y-126674366D01*
X139837211Y-126696326D01*
X139183009Y-126703664D01*
X138539205Y-126693718D01*
X137907635Y-126663829D01*
X137290134Y-126611334D01*
X136688537Y-126533572D01*
X136104679Y-126427884D01*
X135540396Y-126291607D01*
X134197325Y-129319851D01*
X134061395Y-129319851D01*
X134277994Y-128735768D01*
X134627911Y-127954190D01*
X135030867Y-127193874D01*
X135300083Y-126599021D01*
X135535749Y-125992992D01*
X135739695Y-125376396D01*
X135913751Y-124749842D01*
X136059748Y-124113938D01*
X136179515Y-123469295D01*
X136274884Y-122816521D01*
X136347684Y-122156225D01*
X136399745Y-121489016D01*
X136432899Y-120815504D01*
X136448975Y-120136297D01*
X136449803Y-119452004D01*
X136413039Y-118070598D01*
X136337248Y-116676159D01*
X136146567Y-114476810D01*
X136146514Y-114476803D01*
X136304887Y-114480334D01*
G37*
%TD.AperFunction*%
%TA.AperFunction,NonConductor*%
G36*
X89772561Y-35939903D02*
G01*
X89945734Y-35967645D01*
X90132978Y-36018407D01*
X90333565Y-36090999D01*
X90771856Y-36296909D01*
X91254786Y-36575849D01*
X91776531Y-36918292D01*
X92331268Y-37314714D01*
X92913173Y-37755587D01*
X93516425Y-38231387D01*
X96026422Y-40293331D01*
X97258094Y-41286187D01*
X97847717Y-41739746D01*
X98412100Y-42152024D01*
X98565796Y-42318031D01*
X98721774Y-42505368D01*
X98879272Y-42712726D01*
X99037525Y-42938794D01*
X99195769Y-43182260D01*
X99353240Y-43441815D01*
X99509175Y-43716149D01*
X99662809Y-44003949D01*
X99813378Y-44303906D01*
X99960119Y-44614710D01*
X100102267Y-44935050D01*
X100239059Y-45263614D01*
X100369730Y-45599093D01*
X100493517Y-45940176D01*
X100609656Y-46285553D01*
X100717383Y-46633912D01*
X100965487Y-46223780D01*
X101210038Y-45840727D01*
X101453915Y-45482154D01*
X101699991Y-45145460D01*
X101951146Y-44828044D01*
X102210253Y-44527307D01*
X102480191Y-44240649D01*
X102763835Y-43965468D01*
X103064062Y-43699166D01*
X103383749Y-43439141D01*
X103725771Y-43182794D01*
X104093006Y-42927524D01*
X104488329Y-42670731D01*
X104914618Y-42409815D01*
X105374748Y-42142175D01*
X105871596Y-41865212D01*
X106316303Y-41595220D01*
X106753389Y-41343442D01*
X107183308Y-41109427D01*
X107606512Y-40892724D01*
X108023453Y-40692880D01*
X108434585Y-40509446D01*
X108840359Y-40341969D01*
X109241230Y-40189999D01*
X109637650Y-40053082D01*
X110030071Y-39930769D01*
X110418947Y-39822608D01*
X110804730Y-39728147D01*
X111187872Y-39646935D01*
X111568827Y-39578521D01*
X111948048Y-39522453D01*
X112325987Y-39478280D01*
X112397613Y-39464573D01*
X112459819Y-39460509D01*
X112513069Y-39465616D01*
X112557825Y-39479419D01*
X112594551Y-39501443D01*
X112623709Y-39531216D01*
X112645763Y-39568263D01*
X112661175Y-39612109D01*
X112670409Y-39662282D01*
X112673927Y-39718306D01*
X112672192Y-39779708D01*
X112665668Y-39846014D01*
X112640101Y-39991442D01*
X112600931Y-40150797D01*
X112496596Y-40496119D01*
X112382290Y-40851643D01*
X112330657Y-41023750D01*
X112287643Y-41187032D01*
X112256951Y-41337695D01*
X112242285Y-41471948D01*
X112149584Y-42210086D01*
X112092688Y-42943455D01*
X112068470Y-43672472D01*
X112073801Y-44397553D01*
X112105551Y-45119114D01*
X112160593Y-45837571D01*
X112235797Y-46553342D01*
X112328036Y-47266843D01*
X112551099Y-48688698D01*
X112804755Y-50106470D01*
X113063973Y-51523488D01*
X113303725Y-52943086D01*
X113318117Y-55360051D01*
X113308606Y-56526740D01*
X113291161Y-57096999D01*
X113262014Y-57657531D01*
X113218731Y-58207582D01*
X113158882Y-58746398D01*
X113080032Y-59273228D01*
X112979751Y-59787317D01*
X112855606Y-60287912D01*
X112705165Y-60774261D01*
X112525995Y-61245609D01*
X112315665Y-61701203D01*
X111537590Y-62487029D01*
X110757774Y-63219508D01*
X109192881Y-64585463D01*
X107620903Y-65921145D01*
X106832231Y-66615782D01*
X106041757Y-67348630D01*
X105249470Y-68134948D01*
X104455361Y-68989995D01*
X103659418Y-69929032D01*
X102861632Y-70967317D01*
X102061992Y-72120111D01*
X101260488Y-73402672D01*
X100457110Y-74830261D01*
X99651846Y-76418137D01*
X98448092Y-74918756D01*
X97352358Y-73602660D01*
X96355908Y-72450200D01*
X95450003Y-71441724D01*
X94817603Y-70763245D01*
X95704535Y-70763245D01*
X96800117Y-71821001D01*
X97264709Y-72280769D01*
X97698305Y-72725608D01*
X98119259Y-73178874D01*
X98545924Y-73663926D01*
X98996656Y-74204121D01*
X99489806Y-74822816D01*
X99651984Y-74437976D01*
X99811314Y-74079689D01*
X99969252Y-73744311D01*
X100127258Y-73428200D01*
X100286787Y-73127711D01*
X100449297Y-72839202D01*
X100616246Y-72559030D01*
X100789090Y-72283551D01*
X100969289Y-72009123D01*
X101158298Y-71732102D01*
X101568579Y-71155708D01*
X102558997Y-69811509D01*
X102081547Y-69815830D01*
X101659549Y-69777752D01*
X101290109Y-69699444D01*
X100970334Y-69583076D01*
X100697332Y-69430816D01*
X100468211Y-69244836D01*
X100280078Y-69027304D01*
X100130041Y-68780389D01*
X100015207Y-68506263D01*
X99932683Y-68207093D01*
X99879578Y-67885050D01*
X99852998Y-67542303D01*
X99867846Y-66803375D01*
X99954087Y-66007667D01*
X100550176Y-62604154D01*
X100646281Y-61784888D01*
X100674939Y-61012981D01*
X100656744Y-60650210D01*
X100613010Y-60305787D01*
X100540844Y-59981882D01*
X100437353Y-59680665D01*
X99226057Y-59312213D01*
X99108187Y-59687845D01*
X99010005Y-60078453D01*
X98929593Y-60482423D01*
X98865033Y-60898142D01*
X98775795Y-61758381D01*
X98726943Y-62646272D01*
X98689011Y-64453421D01*
X98669236Y-65346885D01*
X98628459Y-66216412D01*
X98551334Y-67049106D01*
X98494344Y-67447610D01*
X98422512Y-67832068D01*
X98333920Y-68200870D01*
X98226648Y-68552403D01*
X98098779Y-68885054D01*
X97948394Y-69197211D01*
X97773574Y-69487263D01*
X97572402Y-69753597D01*
X97342959Y-69994601D01*
X97083327Y-70208663D01*
X96791586Y-70394170D01*
X96465820Y-70549511D01*
X96104109Y-70673074D01*
X95704535Y-70763245D01*
X94817603Y-70763245D01*
X94625906Y-70557581D01*
X93874881Y-69778122D01*
X92557093Y-68454648D01*
X91426741Y-67314095D01*
X90910010Y-66763286D01*
X90413926Y-66199256D01*
X89929751Y-65602352D01*
X89768550Y-65384705D01*
X90378531Y-65384705D01*
X90797110Y-65853219D01*
X91215712Y-66307121D01*
X91638016Y-66752202D01*
X92067703Y-67194257D01*
X92963943Y-68092453D01*
X93933874Y-69048051D01*
X94075311Y-68426997D01*
X94217880Y-67837122D01*
X94361493Y-67277252D01*
X94506067Y-66746212D01*
X94651513Y-66242826D01*
X94797746Y-65765919D01*
X94944681Y-65314317D01*
X95092230Y-64886845D01*
X95240308Y-64482327D01*
X95388829Y-64099589D01*
X95537707Y-63737456D01*
X95686855Y-63394752D01*
X95836188Y-63070303D01*
X95985619Y-62762934D01*
X96284432Y-62194735D01*
X96582605Y-61680756D01*
X96879450Y-61211596D01*
X97174278Y-60777857D01*
X97466400Y-60370137D01*
X98039771Y-59595159D01*
X98319643Y-59209100D01*
X98594054Y-58811463D01*
X98561133Y-58782663D01*
X98529781Y-58752293D01*
X98471520Y-58687111D01*
X98418738Y-58616452D01*
X98370900Y-58540848D01*
X98327473Y-58460833D01*
X98287925Y-58376941D01*
X98251721Y-58289703D01*
X98218329Y-58199654D01*
X98187215Y-58107328D01*
X98157845Y-58013256D01*
X98102207Y-57822011D01*
X98047148Y-57630187D01*
X97988402Y-57442048D01*
X97988402Y-57442033D01*
X97745248Y-57708817D01*
X97512055Y-57989469D01*
X97287861Y-58282484D01*
X97071705Y-58586353D01*
X96659657Y-59220632D01*
X96268220Y-59880250D01*
X95516407Y-61227294D01*
X95140647Y-61890612D01*
X94754727Y-62531056D01*
X94350955Y-63136573D01*
X94139971Y-63422466D01*
X93921639Y-63695107D01*
X93694998Y-63952990D01*
X93459086Y-64194607D01*
X93212942Y-64418452D01*
X92955603Y-64623019D01*
X92686110Y-64806799D01*
X92403499Y-64968288D01*
X92106810Y-65105977D01*
X91795081Y-65218361D01*
X91467350Y-65303932D01*
X91122655Y-65361185D01*
X90760036Y-65388611D01*
X90378531Y-65384705D01*
X89768550Y-65384705D01*
X89448748Y-64952924D01*
X89206706Y-64602373D01*
X88962180Y-64231322D01*
X88714079Y-63837314D01*
X88461310Y-63417893D01*
X88390302Y-63247569D01*
X88320753Y-63077348D01*
X89520767Y-61709669D01*
X90744964Y-60377670D01*
X91370666Y-59731747D01*
X92007855Y-59102777D01*
X92658345Y-58493440D01*
X93323948Y-57906413D01*
X94006480Y-57344374D01*
X94159745Y-57227586D01*
X98373923Y-57227586D01*
X98376839Y-57342407D01*
X98385468Y-57455720D01*
X98399668Y-57567386D01*
X98419301Y-57677265D01*
X98444225Y-57785215D01*
X98474300Y-57891097D01*
X98509387Y-57994771D01*
X98549346Y-58096097D01*
X98594035Y-58194934D01*
X98643315Y-58291142D01*
X98697046Y-58384581D01*
X98755088Y-58475111D01*
X98817300Y-58562592D01*
X98883542Y-58646884D01*
X98953675Y-58727846D01*
X99027558Y-58805339D01*
X99105050Y-58879221D01*
X99186012Y-58949354D01*
X99270304Y-59015596D01*
X99357785Y-59077808D01*
X99448315Y-59135850D01*
X99541755Y-59189581D01*
X99637963Y-59238861D01*
X99736800Y-59283550D01*
X99838126Y-59323508D01*
X99941800Y-59358595D01*
X100047683Y-59388671D01*
X100155633Y-59413594D01*
X100265512Y-59433226D01*
X100377179Y-59447426D01*
X100490493Y-59456054D01*
X100605315Y-59458970D01*
X100701844Y-59456882D01*
X100797875Y-59450649D01*
X100893284Y-59440314D01*
X100987946Y-59425923D01*
X101081735Y-59407520D01*
X101174528Y-59385150D01*
X101266199Y-59358857D01*
X101356625Y-59328687D01*
X101445680Y-59294682D01*
X101533240Y-59256889D01*
X101619179Y-59215352D01*
X101703374Y-59170115D01*
X101785700Y-59121224D01*
X101866032Y-59068722D01*
X101944246Y-59012654D01*
X102020216Y-58953065D01*
X101912207Y-59075013D01*
X102166385Y-59504334D01*
X102418856Y-59906118D01*
X102913497Y-60661263D01*
X103385779Y-61408833D01*
X103610300Y-61801147D01*
X103825350Y-62217210D01*
X104029634Y-62665570D01*
X104221858Y-63154776D01*
X104400729Y-63693374D01*
X104564952Y-64289914D01*
X104713234Y-64952942D01*
X104844280Y-65691007D01*
X104956797Y-66512657D01*
X105049490Y-67426438D01*
X108463302Y-64366402D01*
X108359336Y-64332134D01*
X108110477Y-64235098D01*
X107869920Y-64126470D01*
X107637230Y-64006791D01*
X107411969Y-63876602D01*
X107193702Y-63736443D01*
X106981992Y-63586855D01*
X106776403Y-63428379D01*
X106381842Y-63086923D01*
X106006531Y-62716401D01*
X105646977Y-62321136D01*
X105299691Y-61905455D01*
X104961182Y-61473683D01*
X104627960Y-61030142D01*
X103963417Y-60125060D01*
X103278139Y-59224808D01*
X102918999Y-58787305D01*
X102544203Y-58363984D01*
X102485800Y-58429582D01*
X102517011Y-58379291D01*
X102546843Y-58328253D01*
X102575283Y-58276499D01*
X102602321Y-58224055D01*
X102627946Y-58170952D01*
X102652148Y-58117218D01*
X102674914Y-58062883D01*
X102696235Y-58007975D01*
X102716099Y-57952524D01*
X102734495Y-57896559D01*
X102751412Y-57840108D01*
X102766839Y-57783201D01*
X102780765Y-57725867D01*
X102793180Y-57668134D01*
X102804071Y-57610033D01*
X102813429Y-57551591D01*
X102813437Y-57551606D01*
X103039556Y-57691583D01*
X103269924Y-57818802D01*
X103741074Y-58041462D01*
X104222226Y-58232579D01*
X104708720Y-58405147D01*
X105679088Y-58746614D01*
X106153641Y-58941501D01*
X106614890Y-59169816D01*
X106839070Y-59300569D01*
X107058177Y-59444552D01*
X107271627Y-59603389D01*
X107478838Y-59778704D01*
X107679228Y-59972121D01*
X107872214Y-60185265D01*
X108057214Y-60419759D01*
X108233644Y-60677229D01*
X108400922Y-60959299D01*
X108558466Y-61267592D01*
X108705692Y-61603732D01*
X108842019Y-61969345D01*
X108966864Y-62366055D01*
X109079643Y-62795485D01*
X109179775Y-63259260D01*
X109249742Y-63661619D01*
X110097392Y-62902594D01*
X110552756Y-62489325D01*
X110766922Y-62288659D01*
X110972068Y-62090167D01*
X111168189Y-61892495D01*
X111355278Y-61694291D01*
X111533330Y-61494200D01*
X111702338Y-61290869D01*
X111862296Y-61082945D01*
X112013198Y-60869074D01*
X112155038Y-60647902D01*
X112287810Y-60418076D01*
X112509240Y-58955518D01*
X112610800Y-58235501D01*
X112704321Y-57520585D01*
X112848445Y-56998675D01*
X112918851Y-56732303D01*
X112982274Y-56464585D01*
X113009989Y-56330753D01*
X113034304Y-56197223D01*
X113054669Y-56064206D01*
X113070532Y-55931915D01*
X113081342Y-55800562D01*
X113086547Y-55670361D01*
X113085597Y-55541523D01*
X113077940Y-55414262D01*
X113042159Y-55369804D01*
X113006161Y-55325833D01*
X112969879Y-55282280D01*
X112933249Y-55239076D01*
X112959336Y-54845551D01*
X112980750Y-54450922D01*
X112997273Y-54054893D01*
X113008685Y-53657168D01*
X113014768Y-53257453D01*
X113015302Y-52855452D01*
X113010068Y-52450870D01*
X112998846Y-52043412D01*
X112803240Y-50726199D01*
X112249492Y-50894939D01*
X111628746Y-51022632D01*
X110977329Y-51104572D01*
X110298965Y-51145985D01*
X109597377Y-51152099D01*
X108876288Y-51128140D01*
X108139422Y-51079336D01*
X107390500Y-51010915D01*
X104348733Y-50645595D01*
X102852325Y-50481136D01*
X102123271Y-50421752D01*
X101411948Y-50384568D01*
X101491049Y-52227876D01*
X102886884Y-52216925D01*
X104385871Y-52232967D01*
X105159465Y-52264185D01*
X105941352Y-52317840D01*
X106725699Y-52399164D01*
X107506674Y-52513385D01*
X108278445Y-52665733D01*
X109035180Y-52861439D01*
X109771048Y-53105733D01*
X110129333Y-53247734D01*
X110480215Y-53403844D01*
X110822964Y-53574715D01*
X111156851Y-53761002D01*
X111481147Y-53963359D01*
X111795123Y-54182438D01*
X112098050Y-54418894D01*
X112389200Y-54673381D01*
X112667842Y-54946551D01*
X112933249Y-55239060D01*
X112887840Y-55809544D01*
X112834017Y-56379336D01*
X112772578Y-56949372D01*
X112704321Y-57520585D01*
X112660714Y-57686931D01*
X112640315Y-57768889D01*
X112621060Y-57849969D01*
X112603104Y-57930119D01*
X112586604Y-58009288D01*
X112571715Y-58087424D01*
X112558592Y-58164475D01*
X112192563Y-58320214D01*
X111832709Y-58446863D01*
X111478692Y-58545816D01*
X111130173Y-58618464D01*
X110786813Y-58666199D01*
X110448273Y-58690413D01*
X110114215Y-58692500D01*
X109784301Y-58673850D01*
X109458190Y-58635856D01*
X109135545Y-58579911D01*
X108816026Y-58507406D01*
X108499296Y-58419734D01*
X107872844Y-58204456D01*
X107253478Y-57945214D01*
X106638490Y-57653147D01*
X106025168Y-57339391D01*
X104792684Y-56691363D01*
X104168102Y-56379366D01*
X103534347Y-56090231D01*
X102888708Y-55835094D01*
X102560586Y-55723755D01*
X102228476Y-55625092D01*
X102259474Y-55728959D01*
X102178093Y-55643762D01*
X102092763Y-55563364D01*
X102003703Y-55487862D01*
X101911129Y-55417352D01*
X101815259Y-55351930D01*
X101716310Y-55291692D01*
X101614500Y-55236736D01*
X101510045Y-55187158D01*
X101403165Y-55143053D01*
X101294075Y-55104518D01*
X101182993Y-55071650D01*
X101070137Y-55044545D01*
X100955723Y-55023299D01*
X100839970Y-55008010D01*
X100723095Y-54998772D01*
X100605315Y-54995683D01*
X100490475Y-54998599D01*
X100377144Y-55007230D01*
X100265461Y-55021434D01*
X100155567Y-55041072D01*
X100047602Y-55066004D01*
X99941705Y-55096088D01*
X99838018Y-55131186D01*
X99736680Y-55171155D01*
X99637832Y-55215858D01*
X99541613Y-55265152D01*
X99448165Y-55318898D01*
X99357627Y-55376956D01*
X99270139Y-55439185D01*
X99185842Y-55505446D01*
X99104876Y-55575597D01*
X99027380Y-55649499D01*
X98953496Y-55727011D01*
X98883364Y-55807994D01*
X98817123Y-55892306D01*
X98754914Y-55979809D01*
X98696876Y-56070360D01*
X98643152Y-56163821D01*
X98593879Y-56260051D01*
X98549200Y-56358910D01*
X98509253Y-56460257D01*
X98474179Y-56563953D01*
X98444119Y-56669856D01*
X98419212Y-56777827D01*
X98399598Y-56887726D01*
X98385419Y-56999412D01*
X98376814Y-57112746D01*
X98373923Y-57227586D01*
X94159745Y-57227586D01*
X94707752Y-56810002D01*
X95429580Y-56305974D01*
X96173776Y-55834969D01*
X96942155Y-55399664D01*
X97736530Y-55002738D01*
X98558714Y-54646868D01*
X99410521Y-54334733D01*
X99726263Y-51332856D01*
X99620232Y-51528848D01*
X99505764Y-51716402D01*
X99383251Y-51895909D01*
X99253085Y-52067762D01*
X99115656Y-52232351D01*
X98971357Y-52390069D01*
X98663715Y-52686457D01*
X98333290Y-52960060D01*
X97983215Y-53214011D01*
X97616624Y-53451444D01*
X97236649Y-53675492D01*
X96846422Y-53889289D01*
X96449077Y-54095969D01*
X95645563Y-54500511D01*
X94851169Y-54914185D01*
X94465223Y-55132281D01*
X94090956Y-55362061D01*
X93801309Y-55424673D01*
X93519500Y-55476083D01*
X93245180Y-55516791D01*
X92978001Y-55547294D01*
X92717613Y-55568091D01*
X92463668Y-55579681D01*
X92215818Y-55582561D01*
X91973713Y-55577231D01*
X91505345Y-55543933D01*
X91055775Y-55483773D01*
X90622214Y-55400738D01*
X90201872Y-55298818D01*
X89791960Y-55181998D01*
X89389687Y-55054266D01*
X88596904Y-54782018D01*
X87801206Y-54513972D01*
X87395290Y-54391494D01*
X86980276Y-54282029D01*
X86822661Y-56599717D01*
X86959739Y-56535946D01*
X87100991Y-56481591D01*
X87246218Y-56436157D01*
X87395223Y-56399154D01*
X87703777Y-56348463D01*
X88025074Y-56325573D01*
X88357536Y-56326540D01*
X88699583Y-56347421D01*
X89049636Y-56384269D01*
X89406116Y-56433143D01*
X90864727Y-56669993D01*
X91229657Y-56719824D01*
X91591540Y-56758014D01*
X91948797Y-56780618D01*
X92299849Y-56783692D01*
X91725628Y-57224031D01*
X91174154Y-57625454D01*
X90081644Y-58410539D01*
X89511705Y-58843695D01*
X89214492Y-59081254D01*
X88906709Y-59336924D01*
X88586547Y-59613798D01*
X88252202Y-59914971D01*
X87901867Y-60243536D01*
X87533736Y-60602586D01*
X88181761Y-62726487D01*
X87833042Y-61767886D01*
X87531506Y-60814462D01*
X87277573Y-59867362D01*
X87071660Y-58927737D01*
X86914185Y-57996735D01*
X86805568Y-57075505D01*
X86746225Y-56165196D01*
X86736576Y-55266957D01*
X86777039Y-54381937D01*
X86868032Y-53511285D01*
X87009973Y-52656150D01*
X87203281Y-51817681D01*
X87448373Y-50997027D01*
X87529069Y-50779420D01*
X87664999Y-50779420D01*
X89083399Y-50440760D01*
X90494111Y-50083606D01*
X91909975Y-49738787D01*
X93343830Y-49437131D01*
X94071517Y-49312124D01*
X94808517Y-49209468D01*
X95556434Y-49133019D01*
X96316874Y-49086628D01*
X97091442Y-49074151D01*
X97881742Y-49099440D01*
X98689379Y-49166350D01*
X99515959Y-49278733D01*
X99507769Y-49199616D01*
X101595900Y-49199616D01*
X102253482Y-49003790D01*
X102926703Y-48780233D01*
X104306957Y-48275497D01*
X105710453Y-47736548D01*
X107110984Y-47214530D01*
X107801947Y-46975851D01*
X108482341Y-46760583D01*
X109148890Y-46575118D01*
X109798317Y-46425850D01*
X110427347Y-46319170D01*
X111032704Y-46261471D01*
X111325481Y-46252987D01*
X111611111Y-46259147D01*
X111889185Y-46280747D01*
X112148484Y-46317075D01*
X111813910Y-44064050D01*
X111813879Y-44064004D01*
X111290372Y-44404097D01*
X110743560Y-44714229D01*
X110175855Y-44997498D01*
X109589668Y-45257004D01*
X108987407Y-45495846D01*
X108371486Y-45717123D01*
X107108301Y-46119383D01*
X104524061Y-46849498D01*
X103241578Y-47226944D01*
X102611182Y-47429611D01*
X101991232Y-47645707D01*
X101595900Y-49199616D01*
X99507769Y-49199616D01*
X99357832Y-47751176D01*
X98021304Y-47844124D01*
X96667643Y-47953092D01*
X95311531Y-48056792D01*
X93967651Y-48133935D01*
X93304885Y-48155895D01*
X92650683Y-48163233D01*
X92006879Y-48153287D01*
X91375309Y-48123398D01*
X90757808Y-48070903D01*
X90156211Y-47993141D01*
X89572353Y-47887453D01*
X89008070Y-47751176D01*
X87664999Y-50779420D01*
X87529069Y-50779420D01*
X87745668Y-50195337D01*
X88095585Y-49413759D01*
X88498541Y-48653443D01*
X88767757Y-48058590D01*
X89003423Y-47452561D01*
X89207369Y-46835965D01*
X89381425Y-46209411D01*
X89527422Y-45573507D01*
X89647189Y-44928864D01*
X89742558Y-44276090D01*
X89815358Y-43615794D01*
X89867419Y-42948585D01*
X89900573Y-42275073D01*
X89916649Y-41595866D01*
X89917477Y-40911573D01*
X89880713Y-39530167D01*
X89804922Y-38135728D01*
X89614241Y-35936379D01*
X89614188Y-35936372D01*
X89772561Y-35939903D01*
G37*
%TD.AperFunction*%
%TA.AperFunction,NonConductor*%
G36*
X182837213Y-114480334D02*
G01*
X183010386Y-114508076D01*
X183197630Y-114558838D01*
X183398217Y-114631430D01*
X183836508Y-114837340D01*
X184319438Y-115116280D01*
X184841183Y-115458723D01*
X185395920Y-115855145D01*
X185977825Y-116296018D01*
X186581077Y-116771818D01*
X189091074Y-118833762D01*
X190322746Y-119826618D01*
X190912369Y-120280177D01*
X191476752Y-120692455D01*
X191630448Y-120858462D01*
X191786426Y-121045799D01*
X191943924Y-121253157D01*
X192102177Y-121479225D01*
X192260421Y-121722691D01*
X192417892Y-121982246D01*
X192573827Y-122256580D01*
X192727461Y-122544380D01*
X192878030Y-122844337D01*
X193024771Y-123155141D01*
X193166919Y-123475481D01*
X193303711Y-123804045D01*
X193434382Y-124139524D01*
X193558169Y-124480607D01*
X193674308Y-124825984D01*
X193782035Y-125174343D01*
X194030139Y-124764211D01*
X194274690Y-124381158D01*
X194518567Y-124022585D01*
X194764643Y-123685891D01*
X195015798Y-123368475D01*
X195274905Y-123067738D01*
X195544843Y-122781080D01*
X195828487Y-122505899D01*
X196128714Y-122239597D01*
X196448401Y-121979572D01*
X196790423Y-121723225D01*
X197157658Y-121467955D01*
X197552981Y-121211162D01*
X197979270Y-120950246D01*
X198439400Y-120682606D01*
X198936248Y-120405643D01*
X199380955Y-120135651D01*
X199818041Y-119883873D01*
X200247960Y-119649858D01*
X200671164Y-119433155D01*
X201088105Y-119233311D01*
X201499237Y-119049877D01*
X201905011Y-118882400D01*
X202305882Y-118730430D01*
X202702302Y-118593513D01*
X203094723Y-118471200D01*
X203483599Y-118363039D01*
X203869382Y-118268578D01*
X204252524Y-118187366D01*
X204633479Y-118118952D01*
X205012700Y-118062884D01*
X205390639Y-118018711D01*
X205462265Y-118005004D01*
X205524471Y-118000940D01*
X205577721Y-118006047D01*
X205622477Y-118019850D01*
X205659203Y-118041874D01*
X205688361Y-118071647D01*
X205710415Y-118108694D01*
X205725827Y-118152540D01*
X205735061Y-118202713D01*
X205738579Y-118258737D01*
X205736844Y-118320139D01*
X205730320Y-118386445D01*
X205704753Y-118531873D01*
X205665583Y-118691228D01*
X205561248Y-119036550D01*
X205446942Y-119392074D01*
X205395309Y-119564181D01*
X205352295Y-119727463D01*
X205321603Y-119878126D01*
X205306937Y-120012379D01*
X205214236Y-120750517D01*
X205157340Y-121483886D01*
X205133122Y-122212903D01*
X205138453Y-122937984D01*
X205170203Y-123659545D01*
X205225245Y-124378002D01*
X205300449Y-125093773D01*
X205392688Y-125807274D01*
X205615751Y-127229129D01*
X205869407Y-128646901D01*
X206128625Y-130063919D01*
X206368377Y-131483517D01*
X206382769Y-133900482D01*
X206373258Y-135067171D01*
X206355813Y-135637430D01*
X206326666Y-136197962D01*
X206283383Y-136748013D01*
X206223534Y-137286829D01*
X206144684Y-137813659D01*
X206044403Y-138327748D01*
X205920258Y-138828343D01*
X205769817Y-139314692D01*
X205590647Y-139786040D01*
X205380317Y-140241634D01*
X204602242Y-141027460D01*
X203822426Y-141759939D01*
X202257533Y-143125894D01*
X200685555Y-144461576D01*
X199896883Y-145156213D01*
X199106409Y-145889061D01*
X198314122Y-146675379D01*
X197520013Y-147530426D01*
X196724070Y-148469463D01*
X195926284Y-149507748D01*
X195126644Y-150660542D01*
X194325140Y-151943103D01*
X193521762Y-153370692D01*
X192716498Y-154958568D01*
X191512744Y-153459187D01*
X190417010Y-152143091D01*
X189420560Y-150990631D01*
X188514655Y-149982155D01*
X187882255Y-149303676D01*
X188769187Y-149303676D01*
X189864769Y-150361432D01*
X190329361Y-150821200D01*
X190762957Y-151266039D01*
X191183911Y-151719305D01*
X191610576Y-152204357D01*
X192061308Y-152744552D01*
X192554458Y-153363247D01*
X192716636Y-152978407D01*
X192875966Y-152620120D01*
X193033904Y-152284742D01*
X193191910Y-151968631D01*
X193351439Y-151668142D01*
X193513949Y-151379633D01*
X193680898Y-151099461D01*
X193853742Y-150823982D01*
X194033941Y-150549554D01*
X194222950Y-150272533D01*
X194633231Y-149696139D01*
X195623649Y-148351940D01*
X195146199Y-148356261D01*
X194724201Y-148318183D01*
X194354761Y-148239875D01*
X194034986Y-148123507D01*
X193761984Y-147971247D01*
X193532863Y-147785267D01*
X193344730Y-147567735D01*
X193194693Y-147320820D01*
X193079859Y-147046694D01*
X192997335Y-146747524D01*
X192944230Y-146425481D01*
X192917650Y-146082734D01*
X192932498Y-145343806D01*
X193018739Y-144548098D01*
X193614828Y-141144585D01*
X193710933Y-140325319D01*
X193739591Y-139553412D01*
X193721396Y-139190641D01*
X193677662Y-138846218D01*
X193605496Y-138522313D01*
X193502005Y-138221096D01*
X192290709Y-137852644D01*
X192172839Y-138228276D01*
X192074657Y-138618884D01*
X191994245Y-139022854D01*
X191929685Y-139438573D01*
X191840447Y-140298812D01*
X191791595Y-141186703D01*
X191753663Y-142993852D01*
X191733888Y-143887316D01*
X191693111Y-144756843D01*
X191615986Y-145589537D01*
X191558996Y-145988041D01*
X191487164Y-146372499D01*
X191398572Y-146741301D01*
X191291300Y-147092834D01*
X191163431Y-147425485D01*
X191013046Y-147737642D01*
X190838226Y-148027694D01*
X190637054Y-148294028D01*
X190407611Y-148535032D01*
X190147979Y-148749094D01*
X189856238Y-148934601D01*
X189530472Y-149089942D01*
X189168761Y-149213505D01*
X188769187Y-149303676D01*
X187882255Y-149303676D01*
X187690558Y-149098012D01*
X186939533Y-148318553D01*
X185621745Y-146995079D01*
X184491393Y-145854526D01*
X183974662Y-145303717D01*
X183478578Y-144739687D01*
X182994403Y-144142783D01*
X182833202Y-143925136D01*
X183443183Y-143925136D01*
X183861762Y-144393650D01*
X184280364Y-144847552D01*
X184702668Y-145292633D01*
X185132355Y-145734688D01*
X186028595Y-146632884D01*
X186998526Y-147588482D01*
X187139963Y-146967428D01*
X187282532Y-146377553D01*
X187426145Y-145817683D01*
X187570719Y-145286643D01*
X187716165Y-144783257D01*
X187862398Y-144306350D01*
X188009333Y-143854748D01*
X188156882Y-143427276D01*
X188304960Y-143022758D01*
X188453481Y-142640020D01*
X188602359Y-142277887D01*
X188751507Y-141935183D01*
X188900840Y-141610734D01*
X189050271Y-141303365D01*
X189349084Y-140735166D01*
X189647257Y-140221187D01*
X189944102Y-139752027D01*
X190238930Y-139318288D01*
X190531052Y-138910568D01*
X191104423Y-138135590D01*
X191384295Y-137749531D01*
X191658706Y-137351894D01*
X191625785Y-137323094D01*
X191594433Y-137292724D01*
X191536172Y-137227542D01*
X191483390Y-137156883D01*
X191435552Y-137081279D01*
X191392125Y-137001264D01*
X191352577Y-136917372D01*
X191316373Y-136830134D01*
X191282981Y-136740085D01*
X191251867Y-136647759D01*
X191222497Y-136553687D01*
X191166859Y-136362442D01*
X191111800Y-136170618D01*
X191053054Y-135982479D01*
X191053054Y-135982464D01*
X190809900Y-136249248D01*
X190576707Y-136529900D01*
X190352513Y-136822915D01*
X190136357Y-137126784D01*
X189724309Y-137761063D01*
X189332872Y-138420681D01*
X188581059Y-139767725D01*
X188205299Y-140431043D01*
X187819379Y-141071487D01*
X187415607Y-141677004D01*
X187204623Y-141962897D01*
X186986291Y-142235538D01*
X186759650Y-142493421D01*
X186523738Y-142735038D01*
X186277594Y-142958883D01*
X186020255Y-143163450D01*
X185750762Y-143347230D01*
X185468151Y-143508719D01*
X185171462Y-143646408D01*
X184859733Y-143758792D01*
X184532002Y-143844363D01*
X184187307Y-143901616D01*
X183824688Y-143929042D01*
X183443183Y-143925136D01*
X182833202Y-143925136D01*
X182513400Y-143493355D01*
X182271358Y-143142804D01*
X182026832Y-142771753D01*
X181778731Y-142377745D01*
X181525962Y-141958324D01*
X181454954Y-141788000D01*
X181385405Y-141617779D01*
X182585419Y-140250100D01*
X183809616Y-138918101D01*
X184435318Y-138272178D01*
X185072507Y-137643208D01*
X185722997Y-137033871D01*
X186388600Y-136446844D01*
X187071132Y-135884805D01*
X187224397Y-135768017D01*
X191438575Y-135768017D01*
X191441491Y-135882838D01*
X191450120Y-135996151D01*
X191464320Y-136107817D01*
X191483953Y-136217696D01*
X191508877Y-136325646D01*
X191538952Y-136431528D01*
X191574039Y-136535202D01*
X191613998Y-136636528D01*
X191658687Y-136735365D01*
X191707967Y-136831573D01*
X191761698Y-136925012D01*
X191819740Y-137015542D01*
X191881952Y-137103023D01*
X191948194Y-137187315D01*
X192018327Y-137268277D01*
X192092210Y-137345770D01*
X192169702Y-137419652D01*
X192250664Y-137489785D01*
X192334956Y-137556027D01*
X192422437Y-137618239D01*
X192512967Y-137676281D01*
X192606407Y-137730012D01*
X192702615Y-137779292D01*
X192801452Y-137823981D01*
X192902778Y-137863939D01*
X193006452Y-137899026D01*
X193112335Y-137929102D01*
X193220285Y-137954025D01*
X193330164Y-137973657D01*
X193441831Y-137987857D01*
X193555145Y-137996485D01*
X193669967Y-137999401D01*
X193766496Y-137997313D01*
X193862527Y-137991080D01*
X193957936Y-137980745D01*
X194052598Y-137966354D01*
X194146387Y-137947951D01*
X194239180Y-137925581D01*
X194330851Y-137899288D01*
X194421277Y-137869118D01*
X194510332Y-137835113D01*
X194597892Y-137797320D01*
X194683831Y-137755783D01*
X194768026Y-137710546D01*
X194850352Y-137661655D01*
X194930684Y-137609153D01*
X195008898Y-137553085D01*
X195084868Y-137493496D01*
X194976859Y-137615444D01*
X195231037Y-138044765D01*
X195483508Y-138446549D01*
X195978149Y-139201694D01*
X196450431Y-139949264D01*
X196674952Y-140341578D01*
X196890002Y-140757641D01*
X197094286Y-141206001D01*
X197286510Y-141695207D01*
X197465381Y-142233805D01*
X197629604Y-142830345D01*
X197777886Y-143493373D01*
X197908932Y-144231438D01*
X198021449Y-145053088D01*
X198114142Y-145966869D01*
X201527954Y-142906833D01*
X201423988Y-142872565D01*
X201175129Y-142775529D01*
X200934572Y-142666901D01*
X200701882Y-142547222D01*
X200476621Y-142417033D01*
X200258354Y-142276874D01*
X200046644Y-142127286D01*
X199841055Y-141968810D01*
X199446494Y-141627354D01*
X199071183Y-141256832D01*
X198711629Y-140861567D01*
X198364343Y-140445886D01*
X198025834Y-140014114D01*
X197692612Y-139570573D01*
X197028069Y-138665491D01*
X196342791Y-137765239D01*
X195983651Y-137327736D01*
X195608855Y-136904415D01*
X195550452Y-136970013D01*
X195581663Y-136919722D01*
X195611495Y-136868684D01*
X195639935Y-136816930D01*
X195666973Y-136764486D01*
X195692598Y-136711383D01*
X195716800Y-136657649D01*
X195739566Y-136603314D01*
X195760887Y-136548406D01*
X195780751Y-136492955D01*
X195799147Y-136436990D01*
X195816064Y-136380539D01*
X195831491Y-136323632D01*
X195845417Y-136266298D01*
X195857832Y-136208565D01*
X195868723Y-136150464D01*
X195878081Y-136092022D01*
X195878089Y-136092037D01*
X196104208Y-136232014D01*
X196334576Y-136359233D01*
X196805726Y-136581893D01*
X197286878Y-136773010D01*
X197773372Y-136945578D01*
X198743740Y-137287045D01*
X199218293Y-137481932D01*
X199679542Y-137710247D01*
X199903722Y-137841000D01*
X200122829Y-137984983D01*
X200336279Y-138143820D01*
X200543490Y-138319135D01*
X200743880Y-138512552D01*
X200936866Y-138725696D01*
X201121866Y-138960190D01*
X201298296Y-139217660D01*
X201465574Y-139499730D01*
X201623118Y-139808023D01*
X201770344Y-140144163D01*
X201906671Y-140509776D01*
X202031516Y-140906486D01*
X202144295Y-141335916D01*
X202244427Y-141799691D01*
X202314394Y-142202050D01*
X203162044Y-141443025D01*
X203617408Y-141029756D01*
X203831574Y-140829090D01*
X204036720Y-140630598D01*
X204232841Y-140432926D01*
X204419930Y-140234722D01*
X204597982Y-140034631D01*
X204766990Y-139831300D01*
X204926948Y-139623376D01*
X205077850Y-139409505D01*
X205219690Y-139188333D01*
X205352462Y-138958507D01*
X205573892Y-137495949D01*
X205675452Y-136775932D01*
X205768973Y-136061016D01*
X205913097Y-135539106D01*
X205983503Y-135272734D01*
X206046926Y-135005016D01*
X206074641Y-134871184D01*
X206098956Y-134737654D01*
X206119321Y-134604637D01*
X206135184Y-134472346D01*
X206145994Y-134340993D01*
X206151199Y-134210792D01*
X206150249Y-134081954D01*
X206142592Y-133954693D01*
X206106811Y-133910235D01*
X206070813Y-133866264D01*
X206034531Y-133822711D01*
X205997901Y-133779507D01*
X206023988Y-133385982D01*
X206045402Y-132991353D01*
X206061925Y-132595324D01*
X206073337Y-132197599D01*
X206079420Y-131797884D01*
X206079954Y-131395883D01*
X206074720Y-130991301D01*
X206063498Y-130583843D01*
X205867892Y-129266630D01*
X205314144Y-129435370D01*
X204693398Y-129563063D01*
X204041981Y-129645003D01*
X203363617Y-129686416D01*
X202662029Y-129692530D01*
X201940940Y-129668571D01*
X201204074Y-129619767D01*
X200455152Y-129551346D01*
X197413385Y-129186026D01*
X195916977Y-129021567D01*
X195187923Y-128962183D01*
X194476600Y-128924999D01*
X194555701Y-130768307D01*
X195951536Y-130757356D01*
X197450523Y-130773398D01*
X198224117Y-130804616D01*
X199006004Y-130858271D01*
X199790351Y-130939595D01*
X200571326Y-131053816D01*
X201343097Y-131206164D01*
X202099832Y-131401870D01*
X202835700Y-131646164D01*
X203193985Y-131788165D01*
X203544867Y-131944275D01*
X203887616Y-132115146D01*
X204221503Y-132301433D01*
X204545799Y-132503790D01*
X204859775Y-132722869D01*
X205162702Y-132959325D01*
X205453852Y-133213812D01*
X205732494Y-133486982D01*
X205997901Y-133779491D01*
X205952492Y-134349975D01*
X205898669Y-134919767D01*
X205837230Y-135489803D01*
X205768973Y-136061016D01*
X205725366Y-136227362D01*
X205704967Y-136309320D01*
X205685712Y-136390400D01*
X205667756Y-136470550D01*
X205651256Y-136549719D01*
X205636367Y-136627855D01*
X205623244Y-136704906D01*
X205257215Y-136860645D01*
X204897361Y-136987294D01*
X204543344Y-137086247D01*
X204194825Y-137158895D01*
X203851465Y-137206630D01*
X203512925Y-137230844D01*
X203178867Y-137232931D01*
X202848953Y-137214281D01*
X202522842Y-137176287D01*
X202200197Y-137120342D01*
X201880678Y-137047837D01*
X201563948Y-136960165D01*
X200937496Y-136744887D01*
X200318130Y-136485645D01*
X199703142Y-136193578D01*
X199089820Y-135879822D01*
X197857336Y-135231794D01*
X197232754Y-134919797D01*
X196598999Y-134630662D01*
X195953360Y-134375525D01*
X195625238Y-134264186D01*
X195293128Y-134165523D01*
X195324126Y-134269390D01*
X195242745Y-134184193D01*
X195157415Y-134103795D01*
X195068355Y-134028293D01*
X194975781Y-133957783D01*
X194879911Y-133892361D01*
X194780962Y-133832123D01*
X194679152Y-133777167D01*
X194574697Y-133727589D01*
X194467817Y-133683484D01*
X194358727Y-133644949D01*
X194247645Y-133612081D01*
X194134789Y-133584976D01*
X194020375Y-133563730D01*
X193904622Y-133548441D01*
X193787747Y-133539203D01*
X193669967Y-133536114D01*
X193555127Y-133539030D01*
X193441796Y-133547661D01*
X193330113Y-133561865D01*
X193220219Y-133581503D01*
X193112254Y-133606435D01*
X193006357Y-133636519D01*
X192902670Y-133671617D01*
X192801332Y-133711586D01*
X192702484Y-133756289D01*
X192606265Y-133805583D01*
X192512817Y-133859329D01*
X192422279Y-133917387D01*
X192334791Y-133979616D01*
X192250494Y-134045877D01*
X192169528Y-134116028D01*
X192092032Y-134189930D01*
X192018148Y-134267442D01*
X191948016Y-134348425D01*
X191881775Y-134432737D01*
X191819566Y-134520240D01*
X191761528Y-134610791D01*
X191707804Y-134704252D01*
X191658531Y-134800482D01*
X191613852Y-134899341D01*
X191573905Y-135000688D01*
X191538831Y-135104384D01*
X191508771Y-135210287D01*
X191483864Y-135318258D01*
X191464250Y-135428157D01*
X191450071Y-135539843D01*
X191441466Y-135653177D01*
X191438575Y-135768017D01*
X187224397Y-135768017D01*
X187772404Y-135350433D01*
X188494232Y-134846405D01*
X189238428Y-134375400D01*
X190006807Y-133940095D01*
X190801182Y-133543169D01*
X191623366Y-133187299D01*
X192475173Y-132875164D01*
X192790915Y-129873287D01*
X192684884Y-130069279D01*
X192570416Y-130256833D01*
X192447903Y-130436340D01*
X192317737Y-130608193D01*
X192180308Y-130772782D01*
X192036009Y-130930500D01*
X191728367Y-131226888D01*
X191397942Y-131500491D01*
X191047867Y-131754442D01*
X190681276Y-131991875D01*
X190301301Y-132215923D01*
X189911074Y-132429720D01*
X189513729Y-132636400D01*
X188710215Y-133040942D01*
X187915821Y-133454616D01*
X187529875Y-133672712D01*
X187155608Y-133902492D01*
X186865961Y-133965104D01*
X186584152Y-134016514D01*
X186309832Y-134057222D01*
X186042653Y-134087725D01*
X185782265Y-134108522D01*
X185528320Y-134120112D01*
X185280470Y-134122992D01*
X185038365Y-134117662D01*
X184569997Y-134084364D01*
X184120427Y-134024204D01*
X183686866Y-133941169D01*
X183266524Y-133839249D01*
X182856612Y-133722429D01*
X182454339Y-133594697D01*
X181661556Y-133322449D01*
X180865858Y-133054403D01*
X180459942Y-132931925D01*
X180044928Y-132822460D01*
X179887313Y-135140148D01*
X180024391Y-135076377D01*
X180165643Y-135022022D01*
X180310870Y-134976588D01*
X180459875Y-134939585D01*
X180768429Y-134888894D01*
X181089726Y-134866004D01*
X181422188Y-134866971D01*
X181764235Y-134887852D01*
X182114288Y-134924700D01*
X182470768Y-134973574D01*
X183929379Y-135210424D01*
X184294309Y-135260255D01*
X184656192Y-135298445D01*
X185013449Y-135321049D01*
X185364501Y-135324123D01*
X184790280Y-135764462D01*
X184238806Y-136165885D01*
X183146296Y-136950970D01*
X182576357Y-137384126D01*
X182279144Y-137621685D01*
X181971361Y-137877355D01*
X181651199Y-138154229D01*
X181316854Y-138455402D01*
X180966519Y-138783967D01*
X180598388Y-139143017D01*
X181246413Y-141266918D01*
X180897694Y-140308317D01*
X180596158Y-139354893D01*
X180342225Y-138407793D01*
X180136312Y-137468168D01*
X179978837Y-136537166D01*
X179870220Y-135615936D01*
X179810877Y-134705627D01*
X179801228Y-133807388D01*
X179841691Y-132922368D01*
X179932684Y-132051716D01*
X180074625Y-131196581D01*
X180267933Y-130358112D01*
X180513025Y-129537458D01*
X180593721Y-129319851D01*
X180729651Y-129319851D01*
X182148051Y-128981191D01*
X183558763Y-128624037D01*
X184974627Y-128279218D01*
X186408482Y-127977562D01*
X187136169Y-127852555D01*
X187873169Y-127749899D01*
X188621086Y-127673450D01*
X189381526Y-127627059D01*
X190156094Y-127614582D01*
X190946394Y-127639871D01*
X191754031Y-127706781D01*
X192580611Y-127819164D01*
X192572421Y-127740047D01*
X194660552Y-127740047D01*
X195318134Y-127544221D01*
X195991355Y-127320664D01*
X197371609Y-126815928D01*
X198775105Y-126276979D01*
X200175636Y-125754961D01*
X200866599Y-125516282D01*
X201546993Y-125301014D01*
X202213542Y-125115549D01*
X202862969Y-124966281D01*
X203491999Y-124859601D01*
X204097356Y-124801902D01*
X204390133Y-124793418D01*
X204675763Y-124799578D01*
X204953837Y-124821178D01*
X205213136Y-124857506D01*
X204878562Y-122604481D01*
X204878531Y-122604435D01*
X204355024Y-122944528D01*
X203808212Y-123254660D01*
X203240507Y-123537929D01*
X202654320Y-123797435D01*
X202052059Y-124036277D01*
X201436138Y-124257554D01*
X200172953Y-124659814D01*
X197588713Y-125389929D01*
X196306230Y-125767375D01*
X195675834Y-125970042D01*
X195055884Y-126186138D01*
X194660552Y-127740047D01*
X192572421Y-127740047D01*
X192422484Y-126291607D01*
X191085956Y-126384555D01*
X189732295Y-126493523D01*
X188376183Y-126597223D01*
X187032303Y-126674366D01*
X186369537Y-126696326D01*
X185715335Y-126703664D01*
X185071531Y-126693718D01*
X184439961Y-126663829D01*
X183822460Y-126611334D01*
X183220863Y-126533572D01*
X182637005Y-126427884D01*
X182072722Y-126291607D01*
X180729651Y-129319851D01*
X180593721Y-129319851D01*
X180810320Y-128735768D01*
X181160237Y-127954190D01*
X181563193Y-127193874D01*
X181832409Y-126599021D01*
X182068075Y-125992992D01*
X182272021Y-125376396D01*
X182446077Y-124749842D01*
X182592074Y-124113938D01*
X182711841Y-123469295D01*
X182807210Y-122816521D01*
X182880010Y-122156225D01*
X182932071Y-121489016D01*
X182965225Y-120815504D01*
X182981301Y-120136297D01*
X182982129Y-119452004D01*
X182945365Y-118070598D01*
X182869574Y-116676159D01*
X182678893Y-114476810D01*
X182678840Y-114476803D01*
X182837213Y-114480334D01*
G37*
%TD.AperFunction*%
%TA.AperFunction,NonConductor*%
G36*
X89772561Y-114480334D02*
G01*
X89945734Y-114508076D01*
X90132978Y-114558838D01*
X90333565Y-114631430D01*
X90771856Y-114837340D01*
X91254786Y-115116280D01*
X91776531Y-115458723D01*
X92331268Y-115855145D01*
X92913173Y-116296018D01*
X93516425Y-116771818D01*
X96026422Y-118833762D01*
X97258094Y-119826618D01*
X97847717Y-120280177D01*
X98412100Y-120692455D01*
X98565796Y-120858462D01*
X98721774Y-121045799D01*
X98879272Y-121253157D01*
X99037525Y-121479225D01*
X99195769Y-121722691D01*
X99353240Y-121982246D01*
X99509175Y-122256580D01*
X99662809Y-122544380D01*
X99813378Y-122844337D01*
X99960119Y-123155141D01*
X100102267Y-123475481D01*
X100239059Y-123804045D01*
X100369730Y-124139524D01*
X100493517Y-124480607D01*
X100609656Y-124825984D01*
X100717383Y-125174343D01*
X100965487Y-124764211D01*
X101210038Y-124381158D01*
X101453915Y-124022585D01*
X101699991Y-123685891D01*
X101951146Y-123368475D01*
X102210253Y-123067738D01*
X102480191Y-122781080D01*
X102763835Y-122505899D01*
X103064062Y-122239597D01*
X103383749Y-121979572D01*
X103725771Y-121723225D01*
X104093006Y-121467955D01*
X104488329Y-121211162D01*
X104914618Y-120950246D01*
X105374748Y-120682606D01*
X105871596Y-120405643D01*
X106316303Y-120135651D01*
X106753389Y-119883873D01*
X107183308Y-119649858D01*
X107606512Y-119433155D01*
X108023453Y-119233311D01*
X108434585Y-119049877D01*
X108840359Y-118882400D01*
X109241230Y-118730430D01*
X109637650Y-118593513D01*
X110030071Y-118471200D01*
X110418947Y-118363039D01*
X110804730Y-118268578D01*
X111187872Y-118187366D01*
X111568827Y-118118952D01*
X111948048Y-118062884D01*
X112325987Y-118018711D01*
X112397613Y-118005004D01*
X112459819Y-118000940D01*
X112513069Y-118006047D01*
X112557825Y-118019850D01*
X112594551Y-118041874D01*
X112623709Y-118071647D01*
X112645763Y-118108694D01*
X112661175Y-118152540D01*
X112670409Y-118202713D01*
X112673927Y-118258737D01*
X112672192Y-118320139D01*
X112665668Y-118386445D01*
X112640101Y-118531873D01*
X112600931Y-118691228D01*
X112496596Y-119036550D01*
X112382290Y-119392074D01*
X112330657Y-119564181D01*
X112287643Y-119727463D01*
X112256951Y-119878126D01*
X112242285Y-120012379D01*
X112149584Y-120750517D01*
X112092688Y-121483886D01*
X112068470Y-122212903D01*
X112073801Y-122937984D01*
X112105551Y-123659545D01*
X112160593Y-124378002D01*
X112235797Y-125093773D01*
X112328036Y-125807274D01*
X112551099Y-127229129D01*
X112804755Y-128646901D01*
X113063973Y-130063919D01*
X113303725Y-131483517D01*
X113318117Y-133900482D01*
X113308606Y-135067171D01*
X113291161Y-135637430D01*
X113262014Y-136197962D01*
X113218731Y-136748013D01*
X113158882Y-137286829D01*
X113080032Y-137813659D01*
X112979751Y-138327748D01*
X112855606Y-138828343D01*
X112705165Y-139314692D01*
X112525995Y-139786040D01*
X112315665Y-140241634D01*
X111537590Y-141027460D01*
X110757774Y-141759939D01*
X109192881Y-143125894D01*
X107620903Y-144461576D01*
X106832231Y-145156213D01*
X106041757Y-145889061D01*
X105249470Y-146675379D01*
X104455361Y-147530426D01*
X103659418Y-148469463D01*
X102861632Y-149507748D01*
X102061992Y-150660542D01*
X101260488Y-151943103D01*
X100457110Y-153370692D01*
X99651846Y-154958568D01*
X98448092Y-153459187D01*
X97352358Y-152143091D01*
X96355908Y-150990631D01*
X95450003Y-149982155D01*
X94817603Y-149303676D01*
X95704535Y-149303676D01*
X96800117Y-150361432D01*
X97264709Y-150821200D01*
X97698305Y-151266039D01*
X98119259Y-151719305D01*
X98545924Y-152204357D01*
X98996656Y-152744552D01*
X99489806Y-153363247D01*
X99651984Y-152978407D01*
X99811314Y-152620120D01*
X99969252Y-152284742D01*
X100127258Y-151968631D01*
X100286787Y-151668142D01*
X100449297Y-151379633D01*
X100616246Y-151099461D01*
X100789090Y-150823982D01*
X100969289Y-150549554D01*
X101158298Y-150272533D01*
X101568579Y-149696139D01*
X102558997Y-148351940D01*
X102081547Y-148356261D01*
X101659549Y-148318183D01*
X101290109Y-148239875D01*
X100970334Y-148123507D01*
X100697332Y-147971247D01*
X100468211Y-147785267D01*
X100280078Y-147567735D01*
X100130041Y-147320820D01*
X100015207Y-147046694D01*
X99932683Y-146747524D01*
X99879578Y-146425481D01*
X99852998Y-146082734D01*
X99867846Y-145343806D01*
X99954087Y-144548098D01*
X100550176Y-141144585D01*
X100646281Y-140325319D01*
X100674939Y-139553412D01*
X100656744Y-139190641D01*
X100613010Y-138846218D01*
X100540844Y-138522313D01*
X100437353Y-138221096D01*
X99226057Y-137852644D01*
X99108187Y-138228276D01*
X99010005Y-138618884D01*
X98929593Y-139022854D01*
X98865033Y-139438573D01*
X98775795Y-140298812D01*
X98726943Y-141186703D01*
X98689011Y-142993852D01*
X98669236Y-143887316D01*
X98628459Y-144756843D01*
X98551334Y-145589537D01*
X98494344Y-145988041D01*
X98422512Y-146372499D01*
X98333920Y-146741301D01*
X98226648Y-147092834D01*
X98098779Y-147425485D01*
X97948394Y-147737642D01*
X97773574Y-148027694D01*
X97572402Y-148294028D01*
X97342959Y-148535032D01*
X97083327Y-148749094D01*
X96791586Y-148934601D01*
X96465820Y-149089942D01*
X96104109Y-149213505D01*
X95704535Y-149303676D01*
X94817603Y-149303676D01*
X94625906Y-149098012D01*
X93874881Y-148318553D01*
X92557093Y-146995079D01*
X91426741Y-145854526D01*
X90910010Y-145303717D01*
X90413926Y-144739687D01*
X89929751Y-144142783D01*
X89768550Y-143925136D01*
X90378531Y-143925136D01*
X90797110Y-144393650D01*
X91215712Y-144847552D01*
X91638016Y-145292633D01*
X92067703Y-145734688D01*
X92963943Y-146632884D01*
X93933874Y-147588482D01*
X94075311Y-146967428D01*
X94217880Y-146377553D01*
X94361493Y-145817683D01*
X94506067Y-145286643D01*
X94651513Y-144783257D01*
X94797746Y-144306350D01*
X94944681Y-143854748D01*
X95092230Y-143427276D01*
X95240308Y-143022758D01*
X95388829Y-142640020D01*
X95537707Y-142277887D01*
X95686855Y-141935183D01*
X95836188Y-141610734D01*
X95985619Y-141303365D01*
X96284432Y-140735166D01*
X96582605Y-140221187D01*
X96879450Y-139752027D01*
X97174278Y-139318288D01*
X97466400Y-138910568D01*
X98039771Y-138135590D01*
X98319643Y-137749531D01*
X98594054Y-137351894D01*
X98561133Y-137323094D01*
X98529781Y-137292724D01*
X98471520Y-137227542D01*
X98418738Y-137156883D01*
X98370900Y-137081279D01*
X98327473Y-137001264D01*
X98287925Y-136917372D01*
X98251721Y-136830134D01*
X98218329Y-136740085D01*
X98187215Y-136647759D01*
X98157845Y-136553687D01*
X98102207Y-136362442D01*
X98047148Y-136170618D01*
X97988402Y-135982479D01*
X97988402Y-135982464D01*
X97745248Y-136249248D01*
X97512055Y-136529900D01*
X97287861Y-136822915D01*
X97071705Y-137126784D01*
X96659657Y-137761063D01*
X96268220Y-138420681D01*
X95516407Y-139767725D01*
X95140647Y-140431043D01*
X94754727Y-141071487D01*
X94350955Y-141677004D01*
X94139971Y-141962897D01*
X93921639Y-142235538D01*
X93694998Y-142493421D01*
X93459086Y-142735038D01*
X93212942Y-142958883D01*
X92955603Y-143163450D01*
X92686110Y-143347230D01*
X92403499Y-143508719D01*
X92106810Y-143646408D01*
X91795081Y-143758792D01*
X91467350Y-143844363D01*
X91122655Y-143901616D01*
X90760036Y-143929042D01*
X90378531Y-143925136D01*
X89768550Y-143925136D01*
X89448748Y-143493355D01*
X89206706Y-143142804D01*
X88962180Y-142771753D01*
X88714079Y-142377745D01*
X88461310Y-141958324D01*
X88390302Y-141788000D01*
X88320753Y-141617779D01*
X89520767Y-140250100D01*
X90744964Y-138918101D01*
X91370666Y-138272178D01*
X92007855Y-137643208D01*
X92658345Y-137033871D01*
X93323948Y-136446844D01*
X94006480Y-135884805D01*
X94159745Y-135768017D01*
X98373923Y-135768017D01*
X98376839Y-135882838D01*
X98385468Y-135996151D01*
X98399668Y-136107817D01*
X98419301Y-136217696D01*
X98444225Y-136325646D01*
X98474300Y-136431528D01*
X98509387Y-136535202D01*
X98549346Y-136636528D01*
X98594035Y-136735365D01*
X98643315Y-136831573D01*
X98697046Y-136925012D01*
X98755088Y-137015542D01*
X98817300Y-137103023D01*
X98883542Y-137187315D01*
X98953675Y-137268277D01*
X99027558Y-137345770D01*
X99105050Y-137419652D01*
X99186012Y-137489785D01*
X99270304Y-137556027D01*
X99357785Y-137618239D01*
X99448315Y-137676281D01*
X99541755Y-137730012D01*
X99637963Y-137779292D01*
X99736800Y-137823981D01*
X99838126Y-137863939D01*
X99941800Y-137899026D01*
X100047683Y-137929102D01*
X100155633Y-137954025D01*
X100265512Y-137973657D01*
X100377179Y-137987857D01*
X100490493Y-137996485D01*
X100605315Y-137999401D01*
X100701844Y-137997313D01*
X100797875Y-137991080D01*
X100893284Y-137980745D01*
X100987946Y-137966354D01*
X101081735Y-137947951D01*
X101174528Y-137925581D01*
X101266199Y-137899288D01*
X101356625Y-137869118D01*
X101445680Y-137835113D01*
X101533240Y-137797320D01*
X101619179Y-137755783D01*
X101703374Y-137710546D01*
X101785700Y-137661655D01*
X101866032Y-137609153D01*
X101944246Y-137553085D01*
X102020216Y-137493496D01*
X101912207Y-137615444D01*
X102166385Y-138044765D01*
X102418856Y-138446549D01*
X102913497Y-139201694D01*
X103385779Y-139949264D01*
X103610300Y-140341578D01*
X103825350Y-140757641D01*
X104029634Y-141206001D01*
X104221858Y-141695207D01*
X104400729Y-142233805D01*
X104564952Y-142830345D01*
X104713234Y-143493373D01*
X104844280Y-144231438D01*
X104956797Y-145053088D01*
X105049490Y-145966869D01*
X108463302Y-142906833D01*
X108359336Y-142872565D01*
X108110477Y-142775529D01*
X107869920Y-142666901D01*
X107637230Y-142547222D01*
X107411969Y-142417033D01*
X107193702Y-142276874D01*
X106981992Y-142127286D01*
X106776403Y-141968810D01*
X106381842Y-141627354D01*
X106006531Y-141256832D01*
X105646977Y-140861567D01*
X105299691Y-140445886D01*
X104961182Y-140014114D01*
X104627960Y-139570573D01*
X103963417Y-138665491D01*
X103278139Y-137765239D01*
X102918999Y-137327736D01*
X102544203Y-136904415D01*
X102485800Y-136970013D01*
X102517011Y-136919722D01*
X102546843Y-136868684D01*
X102575283Y-136816930D01*
X102602321Y-136764486D01*
X102627946Y-136711383D01*
X102652148Y-136657649D01*
X102674914Y-136603314D01*
X102696235Y-136548406D01*
X102716099Y-136492955D01*
X102734495Y-136436990D01*
X102751412Y-136380539D01*
X102766839Y-136323632D01*
X102780765Y-136266298D01*
X102793180Y-136208565D01*
X102804071Y-136150464D01*
X102813429Y-136092022D01*
X102813437Y-136092037D01*
X103039556Y-136232014D01*
X103269924Y-136359233D01*
X103741074Y-136581893D01*
X104222226Y-136773010D01*
X104708720Y-136945578D01*
X105679088Y-137287045D01*
X106153641Y-137481932D01*
X106614890Y-137710247D01*
X106839070Y-137841000D01*
X107058177Y-137984983D01*
X107271627Y-138143820D01*
X107478838Y-138319135D01*
X107679228Y-138512552D01*
X107872214Y-138725696D01*
X108057214Y-138960190D01*
X108233644Y-139217660D01*
X108400922Y-139499730D01*
X108558466Y-139808023D01*
X108705692Y-140144163D01*
X108842019Y-140509776D01*
X108966864Y-140906486D01*
X109079643Y-141335916D01*
X109179775Y-141799691D01*
X109249742Y-142202050D01*
X110097392Y-141443025D01*
X110552756Y-141029756D01*
X110766922Y-140829090D01*
X110972068Y-140630598D01*
X111168189Y-140432926D01*
X111355278Y-140234722D01*
X111533330Y-140034631D01*
X111702338Y-139831300D01*
X111862296Y-139623376D01*
X112013198Y-139409505D01*
X112155038Y-139188333D01*
X112287810Y-138958507D01*
X112509240Y-137495949D01*
X112610800Y-136775932D01*
X112704321Y-136061016D01*
X112848445Y-135539106D01*
X112918851Y-135272734D01*
X112982274Y-135005016D01*
X113009989Y-134871184D01*
X113034304Y-134737654D01*
X113054669Y-134604637D01*
X113070532Y-134472346D01*
X113081342Y-134340993D01*
X113086547Y-134210792D01*
X113085597Y-134081954D01*
X113077940Y-133954693D01*
X113042159Y-133910235D01*
X113006161Y-133866264D01*
X112969879Y-133822711D01*
X112933249Y-133779507D01*
X112959336Y-133385982D01*
X112980750Y-132991353D01*
X112997273Y-132595324D01*
X113008685Y-132197599D01*
X113014768Y-131797884D01*
X113015302Y-131395883D01*
X113010068Y-130991301D01*
X112998846Y-130583843D01*
X112803240Y-129266630D01*
X112249492Y-129435370D01*
X111628746Y-129563063D01*
X110977329Y-129645003D01*
X110298965Y-129686416D01*
X109597377Y-129692530D01*
X108876288Y-129668571D01*
X108139422Y-129619767D01*
X107390500Y-129551346D01*
X104348733Y-129186026D01*
X102852325Y-129021567D01*
X102123271Y-128962183D01*
X101411948Y-128924999D01*
X101491049Y-130768307D01*
X102886884Y-130757356D01*
X104385871Y-130773398D01*
X105159465Y-130804616D01*
X105941352Y-130858271D01*
X106725699Y-130939595D01*
X107506674Y-131053816D01*
X108278445Y-131206164D01*
X109035180Y-131401870D01*
X109771048Y-131646164D01*
X110129333Y-131788165D01*
X110480215Y-131944275D01*
X110822964Y-132115146D01*
X111156851Y-132301433D01*
X111481147Y-132503790D01*
X111795123Y-132722869D01*
X112098050Y-132959325D01*
X112389200Y-133213812D01*
X112667842Y-133486982D01*
X112933249Y-133779491D01*
X112887840Y-134349975D01*
X112834017Y-134919767D01*
X112772578Y-135489803D01*
X112704321Y-136061016D01*
X112660714Y-136227362D01*
X112640315Y-136309320D01*
X112621060Y-136390400D01*
X112603104Y-136470550D01*
X112586604Y-136549719D01*
X112571715Y-136627855D01*
X112558592Y-136704906D01*
X112192563Y-136860645D01*
X111832709Y-136987294D01*
X111478692Y-137086247D01*
X111130173Y-137158895D01*
X110786813Y-137206630D01*
X110448273Y-137230844D01*
X110114215Y-137232931D01*
X109784301Y-137214281D01*
X109458190Y-137176287D01*
X109135545Y-137120342D01*
X108816026Y-137047837D01*
X108499296Y-136960165D01*
X107872844Y-136744887D01*
X107253478Y-136485645D01*
X106638490Y-136193578D01*
X106025168Y-135879822D01*
X104792684Y-135231794D01*
X104168102Y-134919797D01*
X103534347Y-134630662D01*
X102888708Y-134375525D01*
X102560586Y-134264186D01*
X102228476Y-134165523D01*
X102259474Y-134269390D01*
X102178093Y-134184193D01*
X102092763Y-134103795D01*
X102003703Y-134028293D01*
X101911129Y-133957783D01*
X101815259Y-133892361D01*
X101716310Y-133832123D01*
X101614500Y-133777167D01*
X101510045Y-133727589D01*
X101403165Y-133683484D01*
X101294075Y-133644949D01*
X101182993Y-133612081D01*
X101070137Y-133584976D01*
X100955723Y-133563730D01*
X100839970Y-133548441D01*
X100723095Y-133539203D01*
X100605315Y-133536114D01*
X100490475Y-133539030D01*
X100377144Y-133547661D01*
X100265461Y-133561865D01*
X100155567Y-133581503D01*
X100047602Y-133606435D01*
X99941705Y-133636519D01*
X99838018Y-133671617D01*
X99736680Y-133711586D01*
X99637832Y-133756289D01*
X99541613Y-133805583D01*
X99448165Y-133859329D01*
X99357627Y-133917387D01*
X99270139Y-133979616D01*
X99185842Y-134045877D01*
X99104876Y-134116028D01*
X99027380Y-134189930D01*
X98953496Y-134267442D01*
X98883364Y-134348425D01*
X98817123Y-134432737D01*
X98754914Y-134520240D01*
X98696876Y-134610791D01*
X98643152Y-134704252D01*
X98593879Y-134800482D01*
X98549200Y-134899341D01*
X98509253Y-135000688D01*
X98474179Y-135104384D01*
X98444119Y-135210287D01*
X98419212Y-135318258D01*
X98399598Y-135428157D01*
X98385419Y-135539843D01*
X98376814Y-135653177D01*
X98373923Y-135768017D01*
X94159745Y-135768017D01*
X94707752Y-135350433D01*
X95429580Y-134846405D01*
X96173776Y-134375400D01*
X96942155Y-133940095D01*
X97736530Y-133543169D01*
X98558714Y-133187299D01*
X99410521Y-132875164D01*
X99726263Y-129873287D01*
X99620232Y-130069279D01*
X99505764Y-130256833D01*
X99383251Y-130436340D01*
X99253085Y-130608193D01*
X99115656Y-130772782D01*
X98971357Y-130930500D01*
X98663715Y-131226888D01*
X98333290Y-131500491D01*
X97983215Y-131754442D01*
X97616624Y-131991875D01*
X97236649Y-132215923D01*
X96846422Y-132429720D01*
X96449077Y-132636400D01*
X95645563Y-133040942D01*
X94851169Y-133454616D01*
X94465223Y-133672712D01*
X94090956Y-133902492D01*
X93801309Y-133965104D01*
X93519500Y-134016514D01*
X93245180Y-134057222D01*
X92978001Y-134087725D01*
X92717613Y-134108522D01*
X92463668Y-134120112D01*
X92215818Y-134122992D01*
X91973713Y-134117662D01*
X91505345Y-134084364D01*
X91055775Y-134024204D01*
X90622214Y-133941169D01*
X90201872Y-133839249D01*
X89791960Y-133722429D01*
X89389687Y-133594697D01*
X88596904Y-133322449D01*
X87801206Y-133054403D01*
X87395290Y-132931925D01*
X86980276Y-132822460D01*
X86822661Y-135140148D01*
X86959739Y-135076377D01*
X87100991Y-135022022D01*
X87246218Y-134976588D01*
X87395223Y-134939585D01*
X87703777Y-134888894D01*
X88025074Y-134866004D01*
X88357536Y-134866971D01*
X88699583Y-134887852D01*
X89049636Y-134924700D01*
X89406116Y-134973574D01*
X90864727Y-135210424D01*
X91229657Y-135260255D01*
X91591540Y-135298445D01*
X91948797Y-135321049D01*
X92299849Y-135324123D01*
X91725628Y-135764462D01*
X91174154Y-136165885D01*
X90081644Y-136950970D01*
X89511705Y-137384126D01*
X89214492Y-137621685D01*
X88906709Y-137877355D01*
X88586547Y-138154229D01*
X88252202Y-138455402D01*
X87901867Y-138783967D01*
X87533736Y-139143017D01*
X88181761Y-141266918D01*
X87833042Y-140308317D01*
X87531506Y-139354893D01*
X87277573Y-138407793D01*
X87071660Y-137468168D01*
X86914185Y-136537166D01*
X86805568Y-135615936D01*
X86746225Y-134705627D01*
X86736576Y-133807388D01*
X86777039Y-132922368D01*
X86868032Y-132051716D01*
X87009973Y-131196581D01*
X87203281Y-130358112D01*
X87448373Y-129537458D01*
X87529069Y-129319851D01*
X87664999Y-129319851D01*
X89083399Y-128981191D01*
X90494111Y-128624037D01*
X91909975Y-128279218D01*
X93343830Y-127977562D01*
X94071517Y-127852555D01*
X94808517Y-127749899D01*
X95556434Y-127673450D01*
X96316874Y-127627059D01*
X97091442Y-127614582D01*
X97881742Y-127639871D01*
X98689379Y-127706781D01*
X99515959Y-127819164D01*
X99507769Y-127740047D01*
X101595900Y-127740047D01*
X102253482Y-127544221D01*
X102926703Y-127320664D01*
X104306957Y-126815928D01*
X105710453Y-126276979D01*
X107110984Y-125754961D01*
X107801947Y-125516282D01*
X108482341Y-125301014D01*
X109148890Y-125115549D01*
X109798317Y-124966281D01*
X110427347Y-124859601D01*
X111032704Y-124801902D01*
X111325481Y-124793418D01*
X111611111Y-124799578D01*
X111889185Y-124821178D01*
X112148484Y-124857506D01*
X111813910Y-122604481D01*
X111813879Y-122604435D01*
X111290372Y-122944528D01*
X110743560Y-123254660D01*
X110175855Y-123537929D01*
X109589668Y-123797435D01*
X108987407Y-124036277D01*
X108371486Y-124257554D01*
X107108301Y-124659814D01*
X104524061Y-125389929D01*
X103241578Y-125767375D01*
X102611182Y-125970042D01*
X101991232Y-126186138D01*
X101595900Y-127740047D01*
X99507769Y-127740047D01*
X99357832Y-126291607D01*
X98021304Y-126384555D01*
X96667643Y-126493523D01*
X95311531Y-126597223D01*
X93967651Y-126674366D01*
X93304885Y-126696326D01*
X92650683Y-126703664D01*
X92006879Y-126693718D01*
X91375309Y-126663829D01*
X90757808Y-126611334D01*
X90156211Y-126533572D01*
X89572353Y-126427884D01*
X89008070Y-126291607D01*
X87664999Y-129319851D01*
X87529069Y-129319851D01*
X87745668Y-128735768D01*
X88095585Y-127954190D01*
X88498541Y-127193874D01*
X88767757Y-126599021D01*
X89003423Y-125992992D01*
X89207369Y-125376396D01*
X89381425Y-124749842D01*
X89527422Y-124113938D01*
X89647189Y-123469295D01*
X89742558Y-122816521D01*
X89815358Y-122156225D01*
X89867419Y-121489016D01*
X89900573Y-120815504D01*
X89916649Y-120136297D01*
X89917477Y-119452004D01*
X89880713Y-118070598D01*
X89804922Y-116676159D01*
X89614241Y-114476810D01*
X89614188Y-114476803D01*
X89772561Y-114480334D01*
G37*
%TD.AperFunction*%
D11*
%TO.P,KiKit_FID_T_2,*%
%TO.N,*%
X220298489Y-22500000D03*
%TD*%
%TO.P,KiKit_FID_T_1,*%
%TO.N,*%
X76701511Y-22500000D03*
%TD*%
%TO.P,KiKit_FID_T_3,*%
%TO.N,*%
X76701511Y-188580862D03*
%TD*%
D12*
%TO.P,J2,1,Pin_1*%
%TO.N,Board_2-GND*%
X183307213Y-74414903D03*
D13*
%TO.P,J2,2,Pin_2*%
%TO.N,Board_2-SWIO*%
X185847213Y-74414903D03*
%TO.P,J2,3,Pin_3*%
%TO.N,Board_2-+3V3*%
X188387213Y-74414903D03*
%TD*%
D12*
%TO.P,J2,1,Pin_1*%
%TO.N,Board_1-GND*%
X136774887Y-74414903D03*
D13*
%TO.P,J2,2,Pin_2*%
%TO.N,Board_1-SWIO*%
X139314887Y-74414903D03*
%TO.P,J2,3,Pin_3*%
%TO.N,Board_1-+3V3*%
X141854887Y-74414903D03*
%TD*%
D12*
%TO.P,J2,1,Pin_1*%
%TO.N,Board_4-GND*%
X136774887Y-152955334D03*
D13*
%TO.P,J2,2,Pin_2*%
%TO.N,Board_4-SWIO*%
X139314887Y-152955334D03*
%TO.P,J2,3,Pin_3*%
%TO.N,Board_4-+3V3*%
X141854887Y-152955334D03*
%TD*%
D12*
%TO.P,J2,1,Pin_1*%
%TO.N,Board_5-GND*%
X183307213Y-152955334D03*
D13*
%TO.P,J2,2,Pin_2*%
%TO.N,Board_5-SWIO*%
X185847213Y-152955334D03*
%TO.P,J2,3,Pin_3*%
%TO.N,Board_5-+3V3*%
X188387213Y-152955334D03*
%TD*%
D12*
%TO.P,J2,1,Pin_1*%
%TO.N,Board_0-GND*%
X90242561Y-74414903D03*
D13*
%TO.P,J2,2,Pin_2*%
%TO.N,Board_0-SWIO*%
X92782561Y-74414903D03*
%TO.P,J2,3,Pin_3*%
%TO.N,Board_0-+3V3*%
X95322561Y-74414903D03*
%TD*%
D12*
%TO.P,J2,1,Pin_1*%
%TO.N,Board_3-GND*%
X90242561Y-152955334D03*
D13*
%TO.P,J2,2,Pin_2*%
%TO.N,Board_3-SWIO*%
X92782561Y-152955334D03*
%TO.P,J2,3,Pin_3*%
%TO.N,Board_3-+3V3*%
X95322561Y-152955334D03*
%TD*%
D14*
%TO.N,Board_0-GND*%
X95822561Y-61814903D03*
X94303179Y-64094128D03*
%TO.N,Board_1-GND*%
X142354887Y-61814903D03*
X140835505Y-64094128D03*
%TO.N,Board_2-GND*%
X187367831Y-64094128D03*
X188887213Y-61814903D03*
%TO.N,Board_3-GND*%
X95822561Y-140355334D03*
X94303179Y-142634559D03*
%TO.N,Board_4-GND*%
X140835505Y-142634559D03*
X142354887Y-140355334D03*
%TO.N,Board_5-GND*%
X187367831Y-142634559D03*
X188887213Y-140355334D03*
%TD*%
D15*
%TO.N,Board_0-GND*%
X94303179Y-64094128D02*
X94303179Y-63734285D01*
X94303179Y-63734285D02*
X95822561Y-62214903D01*
X95822561Y-62214903D02*
X95822561Y-61814903D01*
%TO.N,Board_1-GND*%
X140835505Y-63734285D02*
X142354887Y-62214903D01*
X142354887Y-62214903D02*
X142354887Y-61814903D01*
X140835505Y-64094128D02*
X140835505Y-63734285D01*
%TO.N,Board_2-GND*%
X188887213Y-62214903D02*
X188887213Y-61814903D01*
X187367831Y-63734285D02*
X188887213Y-62214903D01*
X187367831Y-64094128D02*
X187367831Y-63734285D01*
%TO.N,Board_3-GND*%
X94303179Y-142274716D02*
X95822561Y-140755334D01*
X95822561Y-140755334D02*
X95822561Y-140355334D01*
X94303179Y-142634559D02*
X94303179Y-142274716D01*
%TO.N,Board_4-GND*%
X140835505Y-142634559D02*
X140835505Y-142274716D01*
X142354887Y-140755334D02*
X142354887Y-140355334D01*
X140835505Y-142274716D02*
X142354887Y-140755334D01*
%TO.N,Board_5-GND*%
X187367831Y-142274716D02*
X188887213Y-140755334D01*
X187367831Y-142634559D02*
X187367831Y-142274716D01*
X188887213Y-140755334D02*
X188887213Y-140355334D01*
%TD*%
M02*
