G04 #@! TF.GenerationSoftware,KiCad,Pcbnew,5.1.2*
G04 #@! TF.CreationDate,2019-07-09T10:29:53-05:00*
G04 #@! TF.ProjectId,Goron's_Ruby,476f726f-6e27-4735-9f52-7562792e6b69,rev?*
G04 #@! TF.SameCoordinates,Original*
G04 #@! TF.FileFunction,Legend,Top*
G04 #@! TF.FilePolarity,Positive*
%FSLAX46Y46*%
G04 Gerber Fmt 4.6, Leading zero omitted, Abs format (unit mm)*
G04 Created by KiCad (PCBNEW 5.1.2) date 2019-07-09 10:29:53*
%MOMM*%
%LPD*%
G04 APERTURE LIST*
%ADD10C,0.010000*%
G04 APERTURE END LIST*
D10*
G36*
X129072137Y-94427966D02*
G01*
X129433591Y-94440475D01*
X129843319Y-94459639D01*
X130283365Y-94484291D01*
X130735772Y-94513262D01*
X131182584Y-94545385D01*
X131605843Y-94579492D01*
X131987593Y-94614414D01*
X132309878Y-94648984D01*
X132381575Y-94657752D01*
X132625115Y-94682370D01*
X132914448Y-94702276D01*
X133210735Y-94715218D01*
X133439908Y-94719064D01*
X133670693Y-94720830D01*
X133936060Y-94726267D01*
X134242286Y-94735652D01*
X134595645Y-94749266D01*
X135002414Y-94767386D01*
X135468867Y-94790292D01*
X136001280Y-94818261D01*
X136605930Y-94851573D01*
X137251667Y-94888347D01*
X137716411Y-94915266D01*
X138103380Y-94938124D01*
X138419333Y-94957597D01*
X138671030Y-94974361D01*
X138865230Y-94989091D01*
X139008691Y-95002465D01*
X139108173Y-95015157D01*
X139170435Y-95027846D01*
X139202236Y-95041205D01*
X139210335Y-95055913D01*
X139201491Y-95072644D01*
X139192330Y-95082480D01*
X139124329Y-95119164D01*
X139021471Y-95109229D01*
X138990989Y-95101048D01*
X138898078Y-95084746D01*
X138730244Y-95066132D01*
X138497183Y-95045716D01*
X138208593Y-95024010D01*
X137874170Y-95001524D01*
X137503610Y-94978768D01*
X137106609Y-94956254D01*
X136692866Y-94934492D01*
X136272076Y-94913993D01*
X135853935Y-94895267D01*
X135448140Y-94878826D01*
X135064389Y-94865180D01*
X134712377Y-94854839D01*
X134401801Y-94848315D01*
X134150750Y-94846116D01*
X133891000Y-94846358D01*
X133703962Y-94848250D01*
X133577682Y-94853395D01*
X133500206Y-94863395D01*
X133459580Y-94879853D01*
X133443848Y-94904371D01*
X133441058Y-94938552D01*
X133441039Y-94941250D01*
X133438005Y-95016662D01*
X133430104Y-95158410D01*
X133418422Y-95348376D01*
X133404046Y-95568439D01*
X133398720Y-95647158D01*
X133374115Y-95942834D01*
X133344630Y-96162404D01*
X133307826Y-96314396D01*
X133261263Y-96407333D01*
X133202502Y-96449744D01*
X133167678Y-96454667D01*
X133089715Y-96415307D01*
X132992457Y-96302340D01*
X132880334Y-96123433D01*
X132757775Y-95886253D01*
X132629211Y-95598467D01*
X132531062Y-95352852D01*
X132444694Y-95132917D01*
X132376545Y-94979079D01*
X132318000Y-94877136D01*
X132260443Y-94812884D01*
X132195257Y-94772120D01*
X132172840Y-94762312D01*
X132049976Y-94728661D01*
X131855876Y-94696032D01*
X131603970Y-94665205D01*
X131307687Y-94636959D01*
X130980458Y-94612073D01*
X130635713Y-94591326D01*
X130286881Y-94575498D01*
X129947392Y-94565368D01*
X129630678Y-94561715D01*
X129350166Y-94565319D01*
X129119288Y-94576958D01*
X129063820Y-94581919D01*
X128876610Y-94602408D01*
X128722779Y-94622175D01*
X128620496Y-94638700D01*
X128587972Y-94647916D01*
X128596664Y-94692955D01*
X128637046Y-94802263D01*
X128703697Y-94964009D01*
X128791196Y-95166361D01*
X128894120Y-95397490D01*
X129007047Y-95645564D01*
X129124556Y-95898753D01*
X129241226Y-96145226D01*
X129351633Y-96373152D01*
X129450357Y-96570701D01*
X129531975Y-96726042D01*
X129574937Y-96801526D01*
X129686268Y-96968154D01*
X129837325Y-97169333D01*
X130008160Y-97379552D01*
X130176513Y-97570806D01*
X130365001Y-97777744D01*
X130534551Y-97971971D01*
X130692187Y-98163491D01*
X130844929Y-98362308D01*
X130999802Y-98578427D01*
X131163825Y-98821853D01*
X131344022Y-99102590D01*
X131547414Y-99430643D01*
X131781023Y-99816016D01*
X131948424Y-100095333D01*
X132628136Y-101254422D01*
X133265667Y-102387631D01*
X133873328Y-103518239D01*
X134463427Y-104669525D01*
X135048274Y-105864767D01*
X135453559Y-106723771D01*
X135568320Y-106972395D01*
X135707754Y-107277841D01*
X135869070Y-107633794D01*
X136049475Y-108033938D01*
X136246176Y-108471960D01*
X136456381Y-108941544D01*
X136677296Y-109436374D01*
X136906130Y-109950136D01*
X137140089Y-110476515D01*
X137376382Y-111009195D01*
X137612215Y-111541862D01*
X137844796Y-112068200D01*
X138071332Y-112581895D01*
X138289031Y-113076631D01*
X138495100Y-113546093D01*
X138686746Y-113983966D01*
X138861177Y-114383936D01*
X139015600Y-114739687D01*
X139147223Y-115044904D01*
X139253252Y-115293272D01*
X139330896Y-115478476D01*
X139377362Y-115594201D01*
X139383408Y-115610500D01*
X139466697Y-115850994D01*
X139559875Y-116137445D01*
X139664563Y-116475333D01*
X139782378Y-116870134D01*
X139914942Y-117327327D01*
X140063872Y-117852391D01*
X140230789Y-118450804D01*
X140340703Y-118849000D01*
X140435667Y-119193923D01*
X140526562Y-119523561D01*
X140610174Y-119826293D01*
X140683288Y-120090500D01*
X140742689Y-120304562D01*
X140785164Y-120456858D01*
X140803295Y-120521167D01*
X140827882Y-120602099D01*
X140856167Y-120673059D01*
X140896088Y-120743261D01*
X140955579Y-120821923D01*
X141042578Y-120918261D01*
X141165019Y-121041491D01*
X141330841Y-121200829D01*
X141547978Y-121405491D01*
X141635455Y-121487555D01*
X141850071Y-121687456D01*
X142048161Y-121869426D01*
X142220179Y-122024896D01*
X142356578Y-122145300D01*
X142447813Y-122222071D01*
X142479833Y-122245336D01*
X142477788Y-122230748D01*
X142423558Y-122163988D01*
X142324430Y-122053145D01*
X142187692Y-121906309D01*
X142020630Y-121731571D01*
X141970068Y-121679422D01*
X141784741Y-121485230D01*
X141617872Y-121303582D01*
X141479488Y-121145940D01*
X141379616Y-121023765D01*
X141328281Y-120948520D01*
X141325705Y-120942807D01*
X141301188Y-120867135D01*
X141258142Y-120718750D01*
X141199039Y-120506964D01*
X141126349Y-120241085D01*
X141042542Y-119930423D01*
X140950088Y-119584288D01*
X140851457Y-119211989D01*
X140749121Y-118822836D01*
X140645548Y-118426139D01*
X140543211Y-118031207D01*
X140444748Y-117648013D01*
X140977987Y-117648013D01*
X140995451Y-117840884D01*
X141037504Y-118111794D01*
X141104241Y-118461257D01*
X141195756Y-118889786D01*
X141312143Y-119397894D01*
X141453497Y-119986097D01*
X141531668Y-120302769D01*
X141825337Y-121483401D01*
X142036175Y-121672963D01*
X142252074Y-121864199D01*
X142460992Y-122043994D01*
X142652732Y-122204062D01*
X142817098Y-122336116D01*
X142943893Y-122431871D01*
X143022923Y-122483041D01*
X143040750Y-122489333D01*
X143084654Y-122454568D01*
X143093667Y-122410654D01*
X143077715Y-122315957D01*
X143032055Y-122152140D01*
X142959981Y-121928052D01*
X142864784Y-121652544D01*
X142749757Y-121334465D01*
X142618193Y-120982665D01*
X142473386Y-120605995D01*
X142318627Y-120213305D01*
X142157209Y-119813443D01*
X141992426Y-119415261D01*
X141882811Y-119156242D01*
X141682013Y-118695048D01*
X141504902Y-118306624D01*
X141352161Y-117992285D01*
X141224475Y-117753345D01*
X141122530Y-117591117D01*
X141047010Y-117506915D01*
X141016451Y-117494333D01*
X140985018Y-117532668D01*
X140977987Y-117648013D01*
X140444748Y-117648013D01*
X140444577Y-117647351D01*
X140352119Y-117283879D01*
X140301737Y-117083841D01*
X140197615Y-116657441D01*
X140097014Y-116224172D01*
X140002016Y-115794634D01*
X139914702Y-115379429D01*
X139837152Y-114989158D01*
X139771448Y-114634421D01*
X139719671Y-114325820D01*
X139683900Y-114073956D01*
X139666219Y-113889429D01*
X139664675Y-113838494D01*
X139673305Y-113754290D01*
X139716683Y-113733103D01*
X139781083Y-113744249D01*
X139897659Y-113795677D01*
X140020879Y-113900922D01*
X140154686Y-114065431D01*
X140303023Y-114294652D01*
X140469834Y-114594033D01*
X140641278Y-114932579D01*
X140729364Y-115112945D01*
X140808692Y-115276829D01*
X140882558Y-115431855D01*
X140954255Y-115585650D01*
X141027076Y-115745838D01*
X141104317Y-115920046D01*
X141189271Y-116115899D01*
X141285232Y-116341023D01*
X141395494Y-116603043D01*
X141523351Y-116909586D01*
X141672097Y-117268276D01*
X141845027Y-117686740D01*
X142045434Y-118172604D01*
X142141023Y-118404500D01*
X142748917Y-119865652D01*
X143376581Y-121348198D01*
X144003780Y-122804408D01*
X144097099Y-123018833D01*
X144188880Y-123230243D01*
X144250509Y-123376230D01*
X144285875Y-123468891D01*
X144298867Y-123520328D01*
X144293371Y-123542638D01*
X144273276Y-123547921D01*
X144267139Y-123548000D01*
X144219072Y-123522982D01*
X144115794Y-123453262D01*
X143968356Y-123346840D01*
X143787811Y-123211715D01*
X143585211Y-123055887D01*
X143559103Y-123035521D01*
X143263376Y-122806023D01*
X143032377Y-122630014D01*
X142865697Y-122506897D01*
X142762926Y-122436073D01*
X142723654Y-122416946D01*
X142747472Y-122448916D01*
X142833969Y-122531387D01*
X142982737Y-122663761D01*
X143193364Y-122845439D01*
X143465441Y-123075824D01*
X143749833Y-123313762D01*
X144145249Y-123641008D01*
X144505311Y-123934798D01*
X144825934Y-124191970D01*
X145103035Y-124409367D01*
X145332529Y-124583828D01*
X145510332Y-124712193D01*
X145632360Y-124791302D01*
X145694211Y-124818000D01*
X145705388Y-124779003D01*
X145713817Y-124675334D01*
X145718079Y-124526978D01*
X145718333Y-124477647D01*
X145718997Y-124359129D01*
X145724196Y-124258978D01*
X145738740Y-124165884D01*
X145767437Y-124068536D01*
X145781349Y-124035575D01*
X148358515Y-124035575D01*
X148399682Y-124051754D01*
X148492801Y-124013584D01*
X148641416Y-123919769D01*
X148794417Y-123809898D01*
X149047965Y-123615512D01*
X149344836Y-123377506D01*
X149671534Y-123107562D01*
X150014561Y-122817357D01*
X150360423Y-122518572D01*
X150695622Y-122222887D01*
X151006664Y-121941981D01*
X151280050Y-121687534D01*
X151502286Y-121471225D01*
X151534229Y-121438860D01*
X151783292Y-121184633D01*
X151762914Y-120620067D01*
X151740380Y-120270423D01*
X151699343Y-119998187D01*
X151637390Y-119797642D01*
X151552110Y-119663071D01*
X151441090Y-119588757D01*
X151319252Y-119568667D01*
X151120875Y-119608835D01*
X150901529Y-119727521D01*
X150664060Y-119921994D01*
X150411318Y-120189524D01*
X150146149Y-120527380D01*
X149871403Y-120932832D01*
X149833398Y-120993134D01*
X149740211Y-121151326D01*
X149621591Y-121366697D01*
X149483558Y-121627049D01*
X149332132Y-121920187D01*
X149173334Y-122233914D01*
X149013184Y-122556034D01*
X148857703Y-122874350D01*
X148712911Y-123176667D01*
X148584828Y-123450787D01*
X148479475Y-123684514D01*
X148402873Y-123865653D01*
X148365752Y-123966339D01*
X148358515Y-124035575D01*
X145781349Y-124035575D01*
X145815097Y-123955623D01*
X145886531Y-123815837D01*
X145986547Y-123637866D01*
X146119955Y-123410400D01*
X146291564Y-123122130D01*
X146302676Y-123103500D01*
X146500290Y-122765989D01*
X146677766Y-122447760D01*
X146839773Y-122137778D01*
X146990986Y-121825004D01*
X147136076Y-121498402D01*
X147279715Y-121146935D01*
X147426575Y-120759566D01*
X147581329Y-120325259D01*
X147748649Y-119832975D01*
X147933207Y-119271680D01*
X147960844Y-119186478D01*
X148133511Y-118660089D01*
X148287192Y-118207644D01*
X148425335Y-117821446D01*
X148551387Y-117493799D01*
X148668797Y-117217006D01*
X148781013Y-116983370D01*
X148891484Y-116785196D01*
X149003657Y-116614785D01*
X149120981Y-116464443D01*
X149238149Y-116335463D01*
X149479269Y-116086760D01*
X150279125Y-116146728D01*
X150532789Y-115836280D01*
X150976424Y-115229657D01*
X151367115Y-114561859D01*
X151488384Y-114319333D01*
X151715367Y-113891331D01*
X151953804Y-113534929D01*
X152213354Y-113237081D01*
X152438887Y-113035234D01*
X152700352Y-112807697D01*
X152988384Y-112525781D01*
X153285340Y-112207314D01*
X153479236Y-111983880D01*
X153660295Y-111788930D01*
X153851476Y-111617326D01*
X154036307Y-111481705D01*
X154198318Y-111394703D01*
X154278132Y-111371027D01*
X154342678Y-111361462D01*
X154395858Y-111360595D01*
X154438893Y-111375782D01*
X154473002Y-111414379D01*
X154499407Y-111483741D01*
X154519326Y-111591226D01*
X154533981Y-111744189D01*
X154544591Y-111949985D01*
X154552376Y-112215971D01*
X154558558Y-112549502D01*
X154564356Y-112957935D01*
X154566369Y-113108660D01*
X154572711Y-113540694D01*
X154579349Y-113895753D01*
X154586650Y-114181528D01*
X154594984Y-114405709D01*
X154604718Y-114575989D01*
X154616221Y-114700058D01*
X154629861Y-114785607D01*
X154646006Y-114840328D01*
X154649690Y-114848500D01*
X154789222Y-115093612D01*
X154949821Y-115283392D01*
X155156825Y-115447067D01*
X155184424Y-115465324D01*
X155349396Y-115586336D01*
X155512503Y-115727919D01*
X155628762Y-115848623D01*
X155723765Y-115955674D01*
X155800238Y-116030273D01*
X155838357Y-116055000D01*
X155870536Y-116016793D01*
X155935368Y-115904323D01*
X156031389Y-115720812D01*
X156157133Y-115469486D01*
X156311135Y-115153566D01*
X156491930Y-114776278D01*
X156698052Y-114340845D01*
X156928035Y-113850491D01*
X157180416Y-113308440D01*
X157453728Y-112717915D01*
X157746506Y-112082140D01*
X158057285Y-111404339D01*
X158384600Y-110687736D01*
X158726985Y-109935554D01*
X159082974Y-109151018D01*
X159451104Y-108337351D01*
X159829908Y-107497777D01*
X160217921Y-106635520D01*
X160613678Y-105753803D01*
X161015713Y-104855850D01*
X161422562Y-103944885D01*
X161832758Y-103024133D01*
X162244838Y-102096815D01*
X162657334Y-101166158D01*
X163068783Y-100235383D01*
X163477719Y-99307716D01*
X163882676Y-98386379D01*
X164245864Y-97557622D01*
X164523050Y-96925341D01*
X164767845Y-96369445D01*
X164980950Y-95888385D01*
X165163069Y-95480616D01*
X165314903Y-95144591D01*
X165437155Y-94878762D01*
X165530526Y-94681582D01*
X165595720Y-94551506D01*
X165633439Y-94486985D01*
X165643387Y-94479276D01*
X165632009Y-94523076D01*
X165587331Y-94640668D01*
X165510861Y-94828665D01*
X165404105Y-95083678D01*
X165268571Y-95402317D01*
X165105765Y-95781196D01*
X164917195Y-96216925D01*
X164704366Y-96706116D01*
X164468786Y-97245380D01*
X164211963Y-97831328D01*
X163935402Y-98460573D01*
X163640611Y-99129726D01*
X163329096Y-99835397D01*
X163002366Y-100574199D01*
X162661925Y-101342744D01*
X162309282Y-102137641D01*
X161945943Y-102955504D01*
X161573416Y-103792943D01*
X161193206Y-104646570D01*
X160806822Y-105512997D01*
X160415770Y-106388835D01*
X160021556Y-107270695D01*
X159625688Y-108155188D01*
X159229673Y-109038928D01*
X158835017Y-109918524D01*
X158443227Y-110790588D01*
X158055811Y-111651732D01*
X157674276Y-112498567D01*
X157300127Y-113327705D01*
X156934873Y-114135757D01*
X156580019Y-114919335D01*
X156237073Y-115675050D01*
X155907543Y-116399514D01*
X155592933Y-117089337D01*
X155429534Y-117446783D01*
X154841167Y-118732733D01*
X154419677Y-119053032D01*
X154169724Y-119249345D01*
X153879892Y-119488987D01*
X153546415Y-119775246D01*
X153165530Y-120111408D01*
X152733473Y-120500763D01*
X152246479Y-120946596D01*
X152153000Y-121032817D01*
X151586769Y-121550853D01*
X151028866Y-122051106D01*
X150466835Y-122544240D01*
X149888222Y-123040920D01*
X149280574Y-123551809D01*
X148631436Y-124087571D01*
X147928353Y-124658871D01*
X147756662Y-124797257D01*
X147507379Y-124997980D01*
X147274591Y-125185561D01*
X147067926Y-125352231D01*
X146897014Y-125490219D01*
X146771482Y-125591756D01*
X146700959Y-125649073D01*
X146696067Y-125653092D01*
X146581642Y-125747350D01*
X145758404Y-125086005D01*
X145193567Y-124627800D01*
X144604842Y-124141949D01*
X144002741Y-123637542D01*
X143397774Y-123123670D01*
X142800451Y-122609423D01*
X142221284Y-122103893D01*
X141670783Y-121616170D01*
X141159459Y-121155345D01*
X140697822Y-120730509D01*
X140416768Y-120465972D01*
X140181806Y-120250163D01*
X139909004Y-120011946D01*
X139627735Y-119776280D01*
X139367372Y-119568128D01*
X139294934Y-119512664D01*
X139097873Y-119362255D01*
X138920452Y-119223983D01*
X138775554Y-119108111D01*
X138676060Y-119024900D01*
X138639074Y-118990200D01*
X138603452Y-118942310D01*
X138557205Y-118865766D01*
X138499032Y-118757571D01*
X138427634Y-118614727D01*
X138341712Y-118434235D01*
X138239965Y-118213098D01*
X138121095Y-117948316D01*
X137983802Y-117636893D01*
X137826786Y-117275829D01*
X137648748Y-116862126D01*
X137448387Y-116392787D01*
X137224405Y-115864813D01*
X136975502Y-115275206D01*
X136700378Y-114620969D01*
X136397734Y-113899101D01*
X136066269Y-113106607D01*
X135704685Y-112240487D01*
X135485911Y-111715833D01*
X135144112Y-110895415D01*
X134832253Y-110145861D01*
X134547413Y-109460004D01*
X134286671Y-108830679D01*
X134047107Y-108250719D01*
X133825800Y-107712959D01*
X133619829Y-107210233D01*
X133426272Y-106735375D01*
X133400336Y-106671379D01*
X133600612Y-106671379D01*
X133614267Y-106739927D01*
X133648199Y-106853769D01*
X133703362Y-107015313D01*
X133780710Y-107226969D01*
X133881196Y-107491144D01*
X134005774Y-107810247D01*
X134155398Y-108186686D01*
X134331022Y-108622870D01*
X134533600Y-109121207D01*
X134764084Y-109684105D01*
X135023430Y-110313973D01*
X135312591Y-111013220D01*
X135632521Y-111784253D01*
X135984173Y-112629481D01*
X136185602Y-113112833D01*
X136508939Y-113888180D01*
X136801490Y-114589244D01*
X137064980Y-115219919D01*
X137301137Y-115784097D01*
X137511685Y-116285673D01*
X137698351Y-116728538D01*
X137862862Y-117116585D01*
X138006943Y-117453709D01*
X138132320Y-117743801D01*
X138240720Y-117990755D01*
X138333868Y-118198463D01*
X138413491Y-118370820D01*
X138481315Y-118511717D01*
X138539066Y-118625048D01*
X138588470Y-118714706D01*
X138631252Y-118784584D01*
X138669140Y-118838575D01*
X138703860Y-118880572D01*
X138737136Y-118914467D01*
X138770696Y-118944155D01*
X138771365Y-118944718D01*
X138863692Y-119011611D01*
X138931151Y-119041255D01*
X138944794Y-119039627D01*
X138954021Y-118990507D01*
X138943556Y-118883701D01*
X138918744Y-118756504D01*
X138865519Y-118569162D01*
X138776008Y-118308097D01*
X138650030Y-117972847D01*
X138487407Y-117562951D01*
X138287961Y-117077949D01*
X138051511Y-116517378D01*
X138034865Y-116478333D01*
X137938388Y-116249699D01*
X137816090Y-115955936D01*
X137673509Y-115610560D01*
X137516183Y-115227090D01*
X137349649Y-114819039D01*
X137179447Y-114399927D01*
X137011115Y-113983267D01*
X136933431Y-113790167D01*
X136728174Y-113279750D01*
X136550022Y-112838205D01*
X136394859Y-112455699D01*
X136258569Y-112122403D01*
X136137035Y-111828487D01*
X136026142Y-111564121D01*
X135921774Y-111319475D01*
X135819814Y-111084719D01*
X135716146Y-110850024D01*
X135606655Y-110605558D01*
X135515346Y-110403500D01*
X135352731Y-110049131D01*
X135177419Y-109675018D01*
X134993629Y-109289535D01*
X134805576Y-108901054D01*
X134617478Y-108517949D01*
X134433551Y-108148593D01*
X134258013Y-107801359D01*
X134095080Y-107484621D01*
X133948970Y-107206752D01*
X133823900Y-106976125D01*
X133724085Y-106801113D01*
X133653744Y-106690091D01*
X133630317Y-106660533D01*
X133606280Y-106645717D01*
X133600612Y-106671379D01*
X133400336Y-106671379D01*
X133242210Y-106281219D01*
X133064721Y-105840599D01*
X132890884Y-105406348D01*
X132717779Y-104971302D01*
X132542485Y-104528294D01*
X132362080Y-104070159D01*
X132173644Y-103589729D01*
X132172902Y-103587833D01*
X131906049Y-102910814D01*
X131657108Y-102289476D01*
X131417052Y-101702240D01*
X131176849Y-101127526D01*
X130927470Y-100543755D01*
X130659886Y-99929349D01*
X130365067Y-99262728D01*
X130332276Y-99189078D01*
X130061821Y-98579016D01*
X129805394Y-97994776D01*
X129564974Y-97441134D01*
X129342538Y-96922867D01*
X129140063Y-96444753D01*
X128959528Y-96011568D01*
X128802909Y-95628089D01*
X128672186Y-95299093D01*
X128569335Y-95029357D01*
X128496334Y-94823658D01*
X128455161Y-94686772D01*
X128446333Y-94633842D01*
X128419105Y-94552126D01*
X128383076Y-94522735D01*
X128328515Y-94488369D01*
X128352716Y-94459823D01*
X128449887Y-94438563D01*
X128614236Y-94426049D01*
X128776915Y-94423281D01*
X129072137Y-94427966D01*
X129072137Y-94427966D01*
G37*
X129072137Y-94427966D02*
X129433591Y-94440475D01*
X129843319Y-94459639D01*
X130283365Y-94484291D01*
X130735772Y-94513262D01*
X131182584Y-94545385D01*
X131605843Y-94579492D01*
X131987593Y-94614414D01*
X132309878Y-94648984D01*
X132381575Y-94657752D01*
X132625115Y-94682370D01*
X132914448Y-94702276D01*
X133210735Y-94715218D01*
X133439908Y-94719064D01*
X133670693Y-94720830D01*
X133936060Y-94726267D01*
X134242286Y-94735652D01*
X134595645Y-94749266D01*
X135002414Y-94767386D01*
X135468867Y-94790292D01*
X136001280Y-94818261D01*
X136605930Y-94851573D01*
X137251667Y-94888347D01*
X137716411Y-94915266D01*
X138103380Y-94938124D01*
X138419333Y-94957597D01*
X138671030Y-94974361D01*
X138865230Y-94989091D01*
X139008691Y-95002465D01*
X139108173Y-95015157D01*
X139170435Y-95027846D01*
X139202236Y-95041205D01*
X139210335Y-95055913D01*
X139201491Y-95072644D01*
X139192330Y-95082480D01*
X139124329Y-95119164D01*
X139021471Y-95109229D01*
X138990989Y-95101048D01*
X138898078Y-95084746D01*
X138730244Y-95066132D01*
X138497183Y-95045716D01*
X138208593Y-95024010D01*
X137874170Y-95001524D01*
X137503610Y-94978768D01*
X137106609Y-94956254D01*
X136692866Y-94934492D01*
X136272076Y-94913993D01*
X135853935Y-94895267D01*
X135448140Y-94878826D01*
X135064389Y-94865180D01*
X134712377Y-94854839D01*
X134401801Y-94848315D01*
X134150750Y-94846116D01*
X133891000Y-94846358D01*
X133703962Y-94848250D01*
X133577682Y-94853395D01*
X133500206Y-94863395D01*
X133459580Y-94879853D01*
X133443848Y-94904371D01*
X133441058Y-94938552D01*
X133441039Y-94941250D01*
X133438005Y-95016662D01*
X133430104Y-95158410D01*
X133418422Y-95348376D01*
X133404046Y-95568439D01*
X133398720Y-95647158D01*
X133374115Y-95942834D01*
X133344630Y-96162404D01*
X133307826Y-96314396D01*
X133261263Y-96407333D01*
X133202502Y-96449744D01*
X133167678Y-96454667D01*
X133089715Y-96415307D01*
X132992457Y-96302340D01*
X132880334Y-96123433D01*
X132757775Y-95886253D01*
X132629211Y-95598467D01*
X132531062Y-95352852D01*
X132444694Y-95132917D01*
X132376545Y-94979079D01*
X132318000Y-94877136D01*
X132260443Y-94812884D01*
X132195257Y-94772120D01*
X132172840Y-94762312D01*
X132049976Y-94728661D01*
X131855876Y-94696032D01*
X131603970Y-94665205D01*
X131307687Y-94636959D01*
X130980458Y-94612073D01*
X130635713Y-94591326D01*
X130286881Y-94575498D01*
X129947392Y-94565368D01*
X129630678Y-94561715D01*
X129350166Y-94565319D01*
X129119288Y-94576958D01*
X129063820Y-94581919D01*
X128876610Y-94602408D01*
X128722779Y-94622175D01*
X128620496Y-94638700D01*
X128587972Y-94647916D01*
X128596664Y-94692955D01*
X128637046Y-94802263D01*
X128703697Y-94964009D01*
X128791196Y-95166361D01*
X128894120Y-95397490D01*
X129007047Y-95645564D01*
X129124556Y-95898753D01*
X129241226Y-96145226D01*
X129351633Y-96373152D01*
X129450357Y-96570701D01*
X129531975Y-96726042D01*
X129574937Y-96801526D01*
X129686268Y-96968154D01*
X129837325Y-97169333D01*
X130008160Y-97379552D01*
X130176513Y-97570806D01*
X130365001Y-97777744D01*
X130534551Y-97971971D01*
X130692187Y-98163491D01*
X130844929Y-98362308D01*
X130999802Y-98578427D01*
X131163825Y-98821853D01*
X131344022Y-99102590D01*
X131547414Y-99430643D01*
X131781023Y-99816016D01*
X131948424Y-100095333D01*
X132628136Y-101254422D01*
X133265667Y-102387631D01*
X133873328Y-103518239D01*
X134463427Y-104669525D01*
X135048274Y-105864767D01*
X135453559Y-106723771D01*
X135568320Y-106972395D01*
X135707754Y-107277841D01*
X135869070Y-107633794D01*
X136049475Y-108033938D01*
X136246176Y-108471960D01*
X136456381Y-108941544D01*
X136677296Y-109436374D01*
X136906130Y-109950136D01*
X137140089Y-110476515D01*
X137376382Y-111009195D01*
X137612215Y-111541862D01*
X137844796Y-112068200D01*
X138071332Y-112581895D01*
X138289031Y-113076631D01*
X138495100Y-113546093D01*
X138686746Y-113983966D01*
X138861177Y-114383936D01*
X139015600Y-114739687D01*
X139147223Y-115044904D01*
X139253252Y-115293272D01*
X139330896Y-115478476D01*
X139377362Y-115594201D01*
X139383408Y-115610500D01*
X139466697Y-115850994D01*
X139559875Y-116137445D01*
X139664563Y-116475333D01*
X139782378Y-116870134D01*
X139914942Y-117327327D01*
X140063872Y-117852391D01*
X140230789Y-118450804D01*
X140340703Y-118849000D01*
X140435667Y-119193923D01*
X140526562Y-119523561D01*
X140610174Y-119826293D01*
X140683288Y-120090500D01*
X140742689Y-120304562D01*
X140785164Y-120456858D01*
X140803295Y-120521167D01*
X140827882Y-120602099D01*
X140856167Y-120673059D01*
X140896088Y-120743261D01*
X140955579Y-120821923D01*
X141042578Y-120918261D01*
X141165019Y-121041491D01*
X141330841Y-121200829D01*
X141547978Y-121405491D01*
X141635455Y-121487555D01*
X141850071Y-121687456D01*
X142048161Y-121869426D01*
X142220179Y-122024896D01*
X142356578Y-122145300D01*
X142447813Y-122222071D01*
X142479833Y-122245336D01*
X142477788Y-122230748D01*
X142423558Y-122163988D01*
X142324430Y-122053145D01*
X142187692Y-121906309D01*
X142020630Y-121731571D01*
X141970068Y-121679422D01*
X141784741Y-121485230D01*
X141617872Y-121303582D01*
X141479488Y-121145940D01*
X141379616Y-121023765D01*
X141328281Y-120948520D01*
X141325705Y-120942807D01*
X141301188Y-120867135D01*
X141258142Y-120718750D01*
X141199039Y-120506964D01*
X141126349Y-120241085D01*
X141042542Y-119930423D01*
X140950088Y-119584288D01*
X140851457Y-119211989D01*
X140749121Y-118822836D01*
X140645548Y-118426139D01*
X140543211Y-118031207D01*
X140444748Y-117648013D01*
X140977987Y-117648013D01*
X140995451Y-117840884D01*
X141037504Y-118111794D01*
X141104241Y-118461257D01*
X141195756Y-118889786D01*
X141312143Y-119397894D01*
X141453497Y-119986097D01*
X141531668Y-120302769D01*
X141825337Y-121483401D01*
X142036175Y-121672963D01*
X142252074Y-121864199D01*
X142460992Y-122043994D01*
X142652732Y-122204062D01*
X142817098Y-122336116D01*
X142943893Y-122431871D01*
X143022923Y-122483041D01*
X143040750Y-122489333D01*
X143084654Y-122454568D01*
X143093667Y-122410654D01*
X143077715Y-122315957D01*
X143032055Y-122152140D01*
X142959981Y-121928052D01*
X142864784Y-121652544D01*
X142749757Y-121334465D01*
X142618193Y-120982665D01*
X142473386Y-120605995D01*
X142318627Y-120213305D01*
X142157209Y-119813443D01*
X141992426Y-119415261D01*
X141882811Y-119156242D01*
X141682013Y-118695048D01*
X141504902Y-118306624D01*
X141352161Y-117992285D01*
X141224475Y-117753345D01*
X141122530Y-117591117D01*
X141047010Y-117506915D01*
X141016451Y-117494333D01*
X140985018Y-117532668D01*
X140977987Y-117648013D01*
X140444748Y-117648013D01*
X140444577Y-117647351D01*
X140352119Y-117283879D01*
X140301737Y-117083841D01*
X140197615Y-116657441D01*
X140097014Y-116224172D01*
X140002016Y-115794634D01*
X139914702Y-115379429D01*
X139837152Y-114989158D01*
X139771448Y-114634421D01*
X139719671Y-114325820D01*
X139683900Y-114073956D01*
X139666219Y-113889429D01*
X139664675Y-113838494D01*
X139673305Y-113754290D01*
X139716683Y-113733103D01*
X139781083Y-113744249D01*
X139897659Y-113795677D01*
X140020879Y-113900922D01*
X140154686Y-114065431D01*
X140303023Y-114294652D01*
X140469834Y-114594033D01*
X140641278Y-114932579D01*
X140729364Y-115112945D01*
X140808692Y-115276829D01*
X140882558Y-115431855D01*
X140954255Y-115585650D01*
X141027076Y-115745838D01*
X141104317Y-115920046D01*
X141189271Y-116115899D01*
X141285232Y-116341023D01*
X141395494Y-116603043D01*
X141523351Y-116909586D01*
X141672097Y-117268276D01*
X141845027Y-117686740D01*
X142045434Y-118172604D01*
X142141023Y-118404500D01*
X142748917Y-119865652D01*
X143376581Y-121348198D01*
X144003780Y-122804408D01*
X144097099Y-123018833D01*
X144188880Y-123230243D01*
X144250509Y-123376230D01*
X144285875Y-123468891D01*
X144298867Y-123520328D01*
X144293371Y-123542638D01*
X144273276Y-123547921D01*
X144267139Y-123548000D01*
X144219072Y-123522982D01*
X144115794Y-123453262D01*
X143968356Y-123346840D01*
X143787811Y-123211715D01*
X143585211Y-123055887D01*
X143559103Y-123035521D01*
X143263376Y-122806023D01*
X143032377Y-122630014D01*
X142865697Y-122506897D01*
X142762926Y-122436073D01*
X142723654Y-122416946D01*
X142747472Y-122448916D01*
X142833969Y-122531387D01*
X142982737Y-122663761D01*
X143193364Y-122845439D01*
X143465441Y-123075824D01*
X143749833Y-123313762D01*
X144145249Y-123641008D01*
X144505311Y-123934798D01*
X144825934Y-124191970D01*
X145103035Y-124409367D01*
X145332529Y-124583828D01*
X145510332Y-124712193D01*
X145632360Y-124791302D01*
X145694211Y-124818000D01*
X145705388Y-124779003D01*
X145713817Y-124675334D01*
X145718079Y-124526978D01*
X145718333Y-124477647D01*
X145718997Y-124359129D01*
X145724196Y-124258978D01*
X145738740Y-124165884D01*
X145767437Y-124068536D01*
X145781349Y-124035575D01*
X148358515Y-124035575D01*
X148399682Y-124051754D01*
X148492801Y-124013584D01*
X148641416Y-123919769D01*
X148794417Y-123809898D01*
X149047965Y-123615512D01*
X149344836Y-123377506D01*
X149671534Y-123107562D01*
X150014561Y-122817357D01*
X150360423Y-122518572D01*
X150695622Y-122222887D01*
X151006664Y-121941981D01*
X151280050Y-121687534D01*
X151502286Y-121471225D01*
X151534229Y-121438860D01*
X151783292Y-121184633D01*
X151762914Y-120620067D01*
X151740380Y-120270423D01*
X151699343Y-119998187D01*
X151637390Y-119797642D01*
X151552110Y-119663071D01*
X151441090Y-119588757D01*
X151319252Y-119568667D01*
X151120875Y-119608835D01*
X150901529Y-119727521D01*
X150664060Y-119921994D01*
X150411318Y-120189524D01*
X150146149Y-120527380D01*
X149871403Y-120932832D01*
X149833398Y-120993134D01*
X149740211Y-121151326D01*
X149621591Y-121366697D01*
X149483558Y-121627049D01*
X149332132Y-121920187D01*
X149173334Y-122233914D01*
X149013184Y-122556034D01*
X148857703Y-122874350D01*
X148712911Y-123176667D01*
X148584828Y-123450787D01*
X148479475Y-123684514D01*
X148402873Y-123865653D01*
X148365752Y-123966339D01*
X148358515Y-124035575D01*
X145781349Y-124035575D01*
X145815097Y-123955623D01*
X145886531Y-123815837D01*
X145986547Y-123637866D01*
X146119955Y-123410400D01*
X146291564Y-123122130D01*
X146302676Y-123103500D01*
X146500290Y-122765989D01*
X146677766Y-122447760D01*
X146839773Y-122137778D01*
X146990986Y-121825004D01*
X147136076Y-121498402D01*
X147279715Y-121146935D01*
X147426575Y-120759566D01*
X147581329Y-120325259D01*
X147748649Y-119832975D01*
X147933207Y-119271680D01*
X147960844Y-119186478D01*
X148133511Y-118660089D01*
X148287192Y-118207644D01*
X148425335Y-117821446D01*
X148551387Y-117493799D01*
X148668797Y-117217006D01*
X148781013Y-116983370D01*
X148891484Y-116785196D01*
X149003657Y-116614785D01*
X149120981Y-116464443D01*
X149238149Y-116335463D01*
X149479269Y-116086760D01*
X150279125Y-116146728D01*
X150532789Y-115836280D01*
X150976424Y-115229657D01*
X151367115Y-114561859D01*
X151488384Y-114319333D01*
X151715367Y-113891331D01*
X151953804Y-113534929D01*
X152213354Y-113237081D01*
X152438887Y-113035234D01*
X152700352Y-112807697D01*
X152988384Y-112525781D01*
X153285340Y-112207314D01*
X153479236Y-111983880D01*
X153660295Y-111788930D01*
X153851476Y-111617326D01*
X154036307Y-111481705D01*
X154198318Y-111394703D01*
X154278132Y-111371027D01*
X154342678Y-111361462D01*
X154395858Y-111360595D01*
X154438893Y-111375782D01*
X154473002Y-111414379D01*
X154499407Y-111483741D01*
X154519326Y-111591226D01*
X154533981Y-111744189D01*
X154544591Y-111949985D01*
X154552376Y-112215971D01*
X154558558Y-112549502D01*
X154564356Y-112957935D01*
X154566369Y-113108660D01*
X154572711Y-113540694D01*
X154579349Y-113895753D01*
X154586650Y-114181528D01*
X154594984Y-114405709D01*
X154604718Y-114575989D01*
X154616221Y-114700058D01*
X154629861Y-114785607D01*
X154646006Y-114840328D01*
X154649690Y-114848500D01*
X154789222Y-115093612D01*
X154949821Y-115283392D01*
X155156825Y-115447067D01*
X155184424Y-115465324D01*
X155349396Y-115586336D01*
X155512503Y-115727919D01*
X155628762Y-115848623D01*
X155723765Y-115955674D01*
X155800238Y-116030273D01*
X155838357Y-116055000D01*
X155870536Y-116016793D01*
X155935368Y-115904323D01*
X156031389Y-115720812D01*
X156157133Y-115469486D01*
X156311135Y-115153566D01*
X156491930Y-114776278D01*
X156698052Y-114340845D01*
X156928035Y-113850491D01*
X157180416Y-113308440D01*
X157453728Y-112717915D01*
X157746506Y-112082140D01*
X158057285Y-111404339D01*
X158384600Y-110687736D01*
X158726985Y-109935554D01*
X159082974Y-109151018D01*
X159451104Y-108337351D01*
X159829908Y-107497777D01*
X160217921Y-106635520D01*
X160613678Y-105753803D01*
X161015713Y-104855850D01*
X161422562Y-103944885D01*
X161832758Y-103024133D01*
X162244838Y-102096815D01*
X162657334Y-101166158D01*
X163068783Y-100235383D01*
X163477719Y-99307716D01*
X163882676Y-98386379D01*
X164245864Y-97557622D01*
X164523050Y-96925341D01*
X164767845Y-96369445D01*
X164980950Y-95888385D01*
X165163069Y-95480616D01*
X165314903Y-95144591D01*
X165437155Y-94878762D01*
X165530526Y-94681582D01*
X165595720Y-94551506D01*
X165633439Y-94486985D01*
X165643387Y-94479276D01*
X165632009Y-94523076D01*
X165587331Y-94640668D01*
X165510861Y-94828665D01*
X165404105Y-95083678D01*
X165268571Y-95402317D01*
X165105765Y-95781196D01*
X164917195Y-96216925D01*
X164704366Y-96706116D01*
X164468786Y-97245380D01*
X164211963Y-97831328D01*
X163935402Y-98460573D01*
X163640611Y-99129726D01*
X163329096Y-99835397D01*
X163002366Y-100574199D01*
X162661925Y-101342744D01*
X162309282Y-102137641D01*
X161945943Y-102955504D01*
X161573416Y-103792943D01*
X161193206Y-104646570D01*
X160806822Y-105512997D01*
X160415770Y-106388835D01*
X160021556Y-107270695D01*
X159625688Y-108155188D01*
X159229673Y-109038928D01*
X158835017Y-109918524D01*
X158443227Y-110790588D01*
X158055811Y-111651732D01*
X157674276Y-112498567D01*
X157300127Y-113327705D01*
X156934873Y-114135757D01*
X156580019Y-114919335D01*
X156237073Y-115675050D01*
X155907543Y-116399514D01*
X155592933Y-117089337D01*
X155429534Y-117446783D01*
X154841167Y-118732733D01*
X154419677Y-119053032D01*
X154169724Y-119249345D01*
X153879892Y-119488987D01*
X153546415Y-119775246D01*
X153165530Y-120111408D01*
X152733473Y-120500763D01*
X152246479Y-120946596D01*
X152153000Y-121032817D01*
X151586769Y-121550853D01*
X151028866Y-122051106D01*
X150466835Y-122544240D01*
X149888222Y-123040920D01*
X149280574Y-123551809D01*
X148631436Y-124087571D01*
X147928353Y-124658871D01*
X147756662Y-124797257D01*
X147507379Y-124997980D01*
X147274591Y-125185561D01*
X147067926Y-125352231D01*
X146897014Y-125490219D01*
X146771482Y-125591756D01*
X146700959Y-125649073D01*
X146696067Y-125653092D01*
X146581642Y-125747350D01*
X145758404Y-125086005D01*
X145193567Y-124627800D01*
X144604842Y-124141949D01*
X144002741Y-123637542D01*
X143397774Y-123123670D01*
X142800451Y-122609423D01*
X142221284Y-122103893D01*
X141670783Y-121616170D01*
X141159459Y-121155345D01*
X140697822Y-120730509D01*
X140416768Y-120465972D01*
X140181806Y-120250163D01*
X139909004Y-120011946D01*
X139627735Y-119776280D01*
X139367372Y-119568128D01*
X139294934Y-119512664D01*
X139097873Y-119362255D01*
X138920452Y-119223983D01*
X138775554Y-119108111D01*
X138676060Y-119024900D01*
X138639074Y-118990200D01*
X138603452Y-118942310D01*
X138557205Y-118865766D01*
X138499032Y-118757571D01*
X138427634Y-118614727D01*
X138341712Y-118434235D01*
X138239965Y-118213098D01*
X138121095Y-117948316D01*
X137983802Y-117636893D01*
X137826786Y-117275829D01*
X137648748Y-116862126D01*
X137448387Y-116392787D01*
X137224405Y-115864813D01*
X136975502Y-115275206D01*
X136700378Y-114620969D01*
X136397734Y-113899101D01*
X136066269Y-113106607D01*
X135704685Y-112240487D01*
X135485911Y-111715833D01*
X135144112Y-110895415D01*
X134832253Y-110145861D01*
X134547413Y-109460004D01*
X134286671Y-108830679D01*
X134047107Y-108250719D01*
X133825800Y-107712959D01*
X133619829Y-107210233D01*
X133426272Y-106735375D01*
X133400336Y-106671379D01*
X133600612Y-106671379D01*
X133614267Y-106739927D01*
X133648199Y-106853769D01*
X133703362Y-107015313D01*
X133780710Y-107226969D01*
X133881196Y-107491144D01*
X134005774Y-107810247D01*
X134155398Y-108186686D01*
X134331022Y-108622870D01*
X134533600Y-109121207D01*
X134764084Y-109684105D01*
X135023430Y-110313973D01*
X135312591Y-111013220D01*
X135632521Y-111784253D01*
X135984173Y-112629481D01*
X136185602Y-113112833D01*
X136508939Y-113888180D01*
X136801490Y-114589244D01*
X137064980Y-115219919D01*
X137301137Y-115784097D01*
X137511685Y-116285673D01*
X137698351Y-116728538D01*
X137862862Y-117116585D01*
X138006943Y-117453709D01*
X138132320Y-117743801D01*
X138240720Y-117990755D01*
X138333868Y-118198463D01*
X138413491Y-118370820D01*
X138481315Y-118511717D01*
X138539066Y-118625048D01*
X138588470Y-118714706D01*
X138631252Y-118784584D01*
X138669140Y-118838575D01*
X138703860Y-118880572D01*
X138737136Y-118914467D01*
X138770696Y-118944155D01*
X138771365Y-118944718D01*
X138863692Y-119011611D01*
X138931151Y-119041255D01*
X138944794Y-119039627D01*
X138954021Y-118990507D01*
X138943556Y-118883701D01*
X138918744Y-118756504D01*
X138865519Y-118569162D01*
X138776008Y-118308097D01*
X138650030Y-117972847D01*
X138487407Y-117562951D01*
X138287961Y-117077949D01*
X138051511Y-116517378D01*
X138034865Y-116478333D01*
X137938388Y-116249699D01*
X137816090Y-115955936D01*
X137673509Y-115610560D01*
X137516183Y-115227090D01*
X137349649Y-114819039D01*
X137179447Y-114399927D01*
X137011115Y-113983267D01*
X136933431Y-113790167D01*
X136728174Y-113279750D01*
X136550022Y-112838205D01*
X136394859Y-112455699D01*
X136258569Y-112122403D01*
X136137035Y-111828487D01*
X136026142Y-111564121D01*
X135921774Y-111319475D01*
X135819814Y-111084719D01*
X135716146Y-110850024D01*
X135606655Y-110605558D01*
X135515346Y-110403500D01*
X135352731Y-110049131D01*
X135177419Y-109675018D01*
X134993629Y-109289535D01*
X134805576Y-108901054D01*
X134617478Y-108517949D01*
X134433551Y-108148593D01*
X134258013Y-107801359D01*
X134095080Y-107484621D01*
X133948970Y-107206752D01*
X133823900Y-106976125D01*
X133724085Y-106801113D01*
X133653744Y-106690091D01*
X133630317Y-106660533D01*
X133606280Y-106645717D01*
X133600612Y-106671379D01*
X133400336Y-106671379D01*
X133242210Y-106281219D01*
X133064721Y-105840599D01*
X132890884Y-105406348D01*
X132717779Y-104971302D01*
X132542485Y-104528294D01*
X132362080Y-104070159D01*
X132173644Y-103589729D01*
X132172902Y-103587833D01*
X131906049Y-102910814D01*
X131657108Y-102289476D01*
X131417052Y-101702240D01*
X131176849Y-101127526D01*
X130927470Y-100543755D01*
X130659886Y-99929349D01*
X130365067Y-99262728D01*
X130332276Y-99189078D01*
X130061821Y-98579016D01*
X129805394Y-97994776D01*
X129564974Y-97441134D01*
X129342538Y-96922867D01*
X129140063Y-96444753D01*
X128959528Y-96011568D01*
X128802909Y-95628089D01*
X128672186Y-95299093D01*
X128569335Y-95029357D01*
X128496334Y-94823658D01*
X128455161Y-94686772D01*
X128446333Y-94633842D01*
X128419105Y-94552126D01*
X128383076Y-94522735D01*
X128328515Y-94488369D01*
X128352716Y-94459823D01*
X128449887Y-94438563D01*
X128614236Y-94426049D01*
X128776915Y-94423281D01*
X129072137Y-94427966D01*
G36*
X148829833Y-111021047D02*
G01*
X148917907Y-111023477D01*
X148954168Y-111029916D01*
X148931267Y-111044957D01*
X148841853Y-111073194D01*
X148678577Y-111119221D01*
X148668062Y-111122150D01*
X148524549Y-111167724D01*
X148438808Y-111215694D01*
X148385398Y-111284068D01*
X148358855Y-111341015D01*
X148305800Y-111489211D01*
X148238846Y-111710227D01*
X148160472Y-111993814D01*
X148073153Y-112329724D01*
X147979369Y-112707709D01*
X147881596Y-113117520D01*
X147782312Y-113548909D01*
X147683994Y-113991628D01*
X147589121Y-114435429D01*
X147500170Y-114870063D01*
X147475101Y-114996667D01*
X147335031Y-115697729D01*
X147204898Y-116321588D01*
X147082795Y-116874874D01*
X146966815Y-117364215D01*
X146855052Y-117796244D01*
X146745599Y-118177590D01*
X146636551Y-118514883D01*
X146526000Y-118814753D01*
X146412039Y-119083832D01*
X146292763Y-119328748D01*
X146166265Y-119556133D01*
X146161937Y-119563429D01*
X145982067Y-119832925D01*
X145794846Y-120038260D01*
X145579527Y-120198872D01*
X145361433Y-120313602D01*
X145186506Y-120377362D01*
X144991699Y-120422981D01*
X144801427Y-120447390D01*
X144640101Y-120447523D01*
X144532134Y-120420311D01*
X144528668Y-120418237D01*
X144443760Y-120338819D01*
X144328511Y-120191919D01*
X144188120Y-119986902D01*
X144027783Y-119733133D01*
X143852698Y-119439977D01*
X143668064Y-119116799D01*
X143479078Y-118772964D01*
X143290937Y-118417838D01*
X143108839Y-118060784D01*
X142937982Y-117711169D01*
X142783564Y-117378358D01*
X142650782Y-117071714D01*
X142596122Y-116936224D01*
X142477589Y-116612032D01*
X142350628Y-116226117D01*
X142221740Y-115800094D01*
X142097426Y-115355580D01*
X141984186Y-114914192D01*
X141968296Y-114848500D01*
X141933659Y-114698119D01*
X141906543Y-114561040D01*
X141885748Y-114423001D01*
X141870075Y-114269742D01*
X141858325Y-114087001D01*
X141849297Y-113860516D01*
X141841793Y-113576027D01*
X141835575Y-113270497D01*
X141830004Y-112745058D01*
X141834941Y-112299407D01*
X141850684Y-111929280D01*
X141877530Y-111630416D01*
X141915777Y-111398554D01*
X141965722Y-111229430D01*
X141980470Y-111195611D01*
X142050236Y-111048590D01*
X142370868Y-111073086D01*
X142640146Y-111101458D01*
X142834822Y-111141369D01*
X142964545Y-111196017D01*
X143038969Y-111268598D01*
X143053949Y-111299381D01*
X143065968Y-111368554D01*
X143079598Y-111510489D01*
X143094093Y-111713315D01*
X143108705Y-111965160D01*
X143122686Y-112254154D01*
X143135289Y-112568424D01*
X143137110Y-112619751D01*
X143158321Y-113182004D01*
X143180617Y-113668032D01*
X143205022Y-114086275D01*
X143232562Y-114445175D01*
X143264261Y-114753173D01*
X143301145Y-115018709D01*
X143344239Y-115250226D01*
X143394567Y-115456163D01*
X143453154Y-115644963D01*
X143521026Y-115825065D01*
X143528533Y-115843333D01*
X143730248Y-116265296D01*
X143953725Y-116610495D01*
X144197491Y-116877550D01*
X144460073Y-117065083D01*
X144740000Y-117171713D01*
X144974458Y-117197842D01*
X145145944Y-117173620D01*
X145302857Y-117096501D01*
X145452698Y-116959300D01*
X145602971Y-116754836D01*
X145761178Y-116475924D01*
X145792296Y-116414833D01*
X145861114Y-116267227D01*
X145930015Y-116096137D01*
X146001305Y-115893691D01*
X146077286Y-115652016D01*
X146160265Y-115363240D01*
X146252546Y-115019489D01*
X146356433Y-114612892D01*
X146474231Y-114135576D01*
X146544501Y-113845388D01*
X146679390Y-113288864D01*
X146797223Y-112810510D01*
X146899206Y-112405825D01*
X146986546Y-112070305D01*
X147060448Y-111799449D01*
X147122120Y-111588754D01*
X147172768Y-111433716D01*
X147213599Y-111329835D01*
X147224870Y-111306504D01*
X147303049Y-111205799D01*
X147395887Y-111142285D01*
X147475564Y-111125066D01*
X147621085Y-111105270D01*
X147813730Y-111084481D01*
X148034780Y-111064281D01*
X148265516Y-111046253D01*
X148487216Y-111031979D01*
X148681162Y-111023043D01*
X148828632Y-111021026D01*
X148829833Y-111021047D01*
X148829833Y-111021047D01*
G37*
X148829833Y-111021047D02*
X148917907Y-111023477D01*
X148954168Y-111029916D01*
X148931267Y-111044957D01*
X148841853Y-111073194D01*
X148678577Y-111119221D01*
X148668062Y-111122150D01*
X148524549Y-111167724D01*
X148438808Y-111215694D01*
X148385398Y-111284068D01*
X148358855Y-111341015D01*
X148305800Y-111489211D01*
X148238846Y-111710227D01*
X148160472Y-111993814D01*
X148073153Y-112329724D01*
X147979369Y-112707709D01*
X147881596Y-113117520D01*
X147782312Y-113548909D01*
X147683994Y-113991628D01*
X147589121Y-114435429D01*
X147500170Y-114870063D01*
X147475101Y-114996667D01*
X147335031Y-115697729D01*
X147204898Y-116321588D01*
X147082795Y-116874874D01*
X146966815Y-117364215D01*
X146855052Y-117796244D01*
X146745599Y-118177590D01*
X146636551Y-118514883D01*
X146526000Y-118814753D01*
X146412039Y-119083832D01*
X146292763Y-119328748D01*
X146166265Y-119556133D01*
X146161937Y-119563429D01*
X145982067Y-119832925D01*
X145794846Y-120038260D01*
X145579527Y-120198872D01*
X145361433Y-120313602D01*
X145186506Y-120377362D01*
X144991699Y-120422981D01*
X144801427Y-120447390D01*
X144640101Y-120447523D01*
X144532134Y-120420311D01*
X144528668Y-120418237D01*
X144443760Y-120338819D01*
X144328511Y-120191919D01*
X144188120Y-119986902D01*
X144027783Y-119733133D01*
X143852698Y-119439977D01*
X143668064Y-119116799D01*
X143479078Y-118772964D01*
X143290937Y-118417838D01*
X143108839Y-118060784D01*
X142937982Y-117711169D01*
X142783564Y-117378358D01*
X142650782Y-117071714D01*
X142596122Y-116936224D01*
X142477589Y-116612032D01*
X142350628Y-116226117D01*
X142221740Y-115800094D01*
X142097426Y-115355580D01*
X141984186Y-114914192D01*
X141968296Y-114848500D01*
X141933659Y-114698119D01*
X141906543Y-114561040D01*
X141885748Y-114423001D01*
X141870075Y-114269742D01*
X141858325Y-114087001D01*
X141849297Y-113860516D01*
X141841793Y-113576027D01*
X141835575Y-113270497D01*
X141830004Y-112745058D01*
X141834941Y-112299407D01*
X141850684Y-111929280D01*
X141877530Y-111630416D01*
X141915777Y-111398554D01*
X141965722Y-111229430D01*
X141980470Y-111195611D01*
X142050236Y-111048590D01*
X142370868Y-111073086D01*
X142640146Y-111101458D01*
X142834822Y-111141369D01*
X142964545Y-111196017D01*
X143038969Y-111268598D01*
X143053949Y-111299381D01*
X143065968Y-111368554D01*
X143079598Y-111510489D01*
X143094093Y-111713315D01*
X143108705Y-111965160D01*
X143122686Y-112254154D01*
X143135289Y-112568424D01*
X143137110Y-112619751D01*
X143158321Y-113182004D01*
X143180617Y-113668032D01*
X143205022Y-114086275D01*
X143232562Y-114445175D01*
X143264261Y-114753173D01*
X143301145Y-115018709D01*
X143344239Y-115250226D01*
X143394567Y-115456163D01*
X143453154Y-115644963D01*
X143521026Y-115825065D01*
X143528533Y-115843333D01*
X143730248Y-116265296D01*
X143953725Y-116610495D01*
X144197491Y-116877550D01*
X144460073Y-117065083D01*
X144740000Y-117171713D01*
X144974458Y-117197842D01*
X145145944Y-117173620D01*
X145302857Y-117096501D01*
X145452698Y-116959300D01*
X145602971Y-116754836D01*
X145761178Y-116475924D01*
X145792296Y-116414833D01*
X145861114Y-116267227D01*
X145930015Y-116096137D01*
X146001305Y-115893691D01*
X146077286Y-115652016D01*
X146160265Y-115363240D01*
X146252546Y-115019489D01*
X146356433Y-114612892D01*
X146474231Y-114135576D01*
X146544501Y-113845388D01*
X146679390Y-113288864D01*
X146797223Y-112810510D01*
X146899206Y-112405825D01*
X146986546Y-112070305D01*
X147060448Y-111799449D01*
X147122120Y-111588754D01*
X147172768Y-111433716D01*
X147213599Y-111329835D01*
X147224870Y-111306504D01*
X147303049Y-111205799D01*
X147395887Y-111142285D01*
X147475564Y-111125066D01*
X147621085Y-111105270D01*
X147813730Y-111084481D01*
X148034780Y-111064281D01*
X148265516Y-111046253D01*
X148487216Y-111031979D01*
X148681162Y-111023043D01*
X148828632Y-111021026D01*
X148829833Y-111021047D01*
G36*
X164526460Y-96481068D02*
G01*
X164493119Y-96582859D01*
X164447474Y-96710732D01*
X164398096Y-96839740D01*
X164318724Y-97036709D01*
X164212650Y-97294012D01*
X164083164Y-97604026D01*
X163933558Y-97959124D01*
X163767125Y-98351682D01*
X163587154Y-98774073D01*
X163396937Y-99218674D01*
X163199767Y-99677858D01*
X162998933Y-100144000D01*
X162797729Y-100609475D01*
X162599444Y-101066658D01*
X162407371Y-101507924D01*
X162224801Y-101925646D01*
X162055025Y-102312201D01*
X161901335Y-102659962D01*
X161767023Y-102961305D01*
X161655379Y-103208603D01*
X161569694Y-103394233D01*
X161513262Y-103510568D01*
X161507955Y-103520756D01*
X161451418Y-103622443D01*
X161428639Y-103649642D01*
X161439785Y-103601901D01*
X161485020Y-103478770D01*
X161564511Y-103279799D01*
X161678424Y-103004537D01*
X161826924Y-102652535D01*
X161831436Y-102641912D01*
X162015009Y-102207206D01*
X162172185Y-101829618D01*
X162301605Y-101512568D01*
X162401911Y-101259480D01*
X162471743Y-101073776D01*
X162509744Y-100958878D01*
X162515496Y-100918718D01*
X162485708Y-100944579D01*
X162417068Y-101031492D01*
X162316479Y-101169271D01*
X162190847Y-101347731D01*
X162047076Y-101556686D01*
X161892072Y-101785952D01*
X161732738Y-102025342D01*
X161575980Y-102264672D01*
X161428702Y-102493756D01*
X161297810Y-102702409D01*
X161222639Y-102825833D01*
X161000590Y-103207759D01*
X160779403Y-103609387D01*
X160568215Y-104012785D01*
X160376164Y-104400021D01*
X160212388Y-104753165D01*
X160086025Y-105054284D01*
X160082709Y-105062839D01*
X159966263Y-105395325D01*
X159859645Y-105758180D01*
X159769221Y-106125310D01*
X159701354Y-106470621D01*
X159662410Y-106768020D01*
X159660318Y-106794583D01*
X159651206Y-106954501D01*
X159651613Y-107072604D01*
X159663863Y-107145493D01*
X159690282Y-107169767D01*
X159733194Y-107142025D01*
X159794924Y-107058867D01*
X159877797Y-106916891D01*
X159984139Y-106712698D01*
X160116273Y-106442887D01*
X160276525Y-106104058D01*
X160467220Y-105692809D01*
X160577264Y-105453399D01*
X160725254Y-105132099D01*
X160862302Y-104837127D01*
X160984428Y-104576855D01*
X161087652Y-104359654D01*
X161167992Y-104193896D01*
X161221469Y-104087953D01*
X161244102Y-104050196D01*
X161244394Y-104050283D01*
X161231647Y-104092194D01*
X161186445Y-104205383D01*
X161111356Y-104384046D01*
X161008945Y-104622378D01*
X160881779Y-104914574D01*
X160732426Y-105254828D01*
X160563451Y-105637336D01*
X160377423Y-106056293D01*
X160176907Y-106505893D01*
X159964471Y-106980331D01*
X159742681Y-107473803D01*
X159514104Y-107980503D01*
X159281307Y-108494627D01*
X159202675Y-108667833D01*
X158948959Y-109223374D01*
X158716305Y-109726782D01*
X158506452Y-110174460D01*
X158321137Y-110562813D01*
X158162098Y-110888245D01*
X158031073Y-111147158D01*
X157929799Y-111335957D01*
X157860014Y-111451045D01*
X157853307Y-111460457D01*
X157812373Y-111507868D01*
X157773844Y-111509964D01*
X157714789Y-111459997D01*
X157661701Y-111404079D01*
X157575488Y-111292970D01*
X157477297Y-111138647D01*
X157392698Y-110982884D01*
X157338713Y-110870696D01*
X157301005Y-110777993D01*
X157276702Y-110685975D01*
X157262931Y-110575843D01*
X157256819Y-110428795D01*
X157255492Y-110226033D01*
X157255755Y-110086762D01*
X157259127Y-109810889D01*
X157269738Y-109590081D01*
X157290760Y-109394835D01*
X157325367Y-109195646D01*
X157376459Y-108964167D01*
X157553699Y-108293838D01*
X157781928Y-107570425D01*
X158056300Y-106804492D01*
X158371967Y-106006600D01*
X158724082Y-105187311D01*
X159107799Y-104357188D01*
X159518271Y-103526792D01*
X159950649Y-102706687D01*
X160400089Y-101907434D01*
X160861741Y-101139595D01*
X161232661Y-100561000D01*
X161507615Y-100151451D01*
X161772620Y-99771774D01*
X162042537Y-99401857D01*
X162332222Y-99021591D01*
X162656536Y-98610865D01*
X162859134Y-98359667D01*
X163072882Y-98098163D01*
X163296420Y-97828073D01*
X163521809Y-97558685D01*
X163741110Y-97299287D01*
X163946384Y-97059165D01*
X164129691Y-96847609D01*
X164283093Y-96673905D01*
X164398651Y-96547342D01*
X164467642Y-96477898D01*
X164512689Y-96440505D01*
X164532640Y-96437589D01*
X164526460Y-96481068D01*
X164526460Y-96481068D01*
G37*
X164526460Y-96481068D02*
X164493119Y-96582859D01*
X164447474Y-96710732D01*
X164398096Y-96839740D01*
X164318724Y-97036709D01*
X164212650Y-97294012D01*
X164083164Y-97604026D01*
X163933558Y-97959124D01*
X163767125Y-98351682D01*
X163587154Y-98774073D01*
X163396937Y-99218674D01*
X163199767Y-99677858D01*
X162998933Y-100144000D01*
X162797729Y-100609475D01*
X162599444Y-101066658D01*
X162407371Y-101507924D01*
X162224801Y-101925646D01*
X162055025Y-102312201D01*
X161901335Y-102659962D01*
X161767023Y-102961305D01*
X161655379Y-103208603D01*
X161569694Y-103394233D01*
X161513262Y-103510568D01*
X161507955Y-103520756D01*
X161451418Y-103622443D01*
X161428639Y-103649642D01*
X161439785Y-103601901D01*
X161485020Y-103478770D01*
X161564511Y-103279799D01*
X161678424Y-103004537D01*
X161826924Y-102652535D01*
X161831436Y-102641912D01*
X162015009Y-102207206D01*
X162172185Y-101829618D01*
X162301605Y-101512568D01*
X162401911Y-101259480D01*
X162471743Y-101073776D01*
X162509744Y-100958878D01*
X162515496Y-100918718D01*
X162485708Y-100944579D01*
X162417068Y-101031492D01*
X162316479Y-101169271D01*
X162190847Y-101347731D01*
X162047076Y-101556686D01*
X161892072Y-101785952D01*
X161732738Y-102025342D01*
X161575980Y-102264672D01*
X161428702Y-102493756D01*
X161297810Y-102702409D01*
X161222639Y-102825833D01*
X161000590Y-103207759D01*
X160779403Y-103609387D01*
X160568215Y-104012785D01*
X160376164Y-104400021D01*
X160212388Y-104753165D01*
X160086025Y-105054284D01*
X160082709Y-105062839D01*
X159966263Y-105395325D01*
X159859645Y-105758180D01*
X159769221Y-106125310D01*
X159701354Y-106470621D01*
X159662410Y-106768020D01*
X159660318Y-106794583D01*
X159651206Y-106954501D01*
X159651613Y-107072604D01*
X159663863Y-107145493D01*
X159690282Y-107169767D01*
X159733194Y-107142025D01*
X159794924Y-107058867D01*
X159877797Y-106916891D01*
X159984139Y-106712698D01*
X160116273Y-106442887D01*
X160276525Y-106104058D01*
X160467220Y-105692809D01*
X160577264Y-105453399D01*
X160725254Y-105132099D01*
X160862302Y-104837127D01*
X160984428Y-104576855D01*
X161087652Y-104359654D01*
X161167992Y-104193896D01*
X161221469Y-104087953D01*
X161244102Y-104050196D01*
X161244394Y-104050283D01*
X161231647Y-104092194D01*
X161186445Y-104205383D01*
X161111356Y-104384046D01*
X161008945Y-104622378D01*
X160881779Y-104914574D01*
X160732426Y-105254828D01*
X160563451Y-105637336D01*
X160377423Y-106056293D01*
X160176907Y-106505893D01*
X159964471Y-106980331D01*
X159742681Y-107473803D01*
X159514104Y-107980503D01*
X159281307Y-108494627D01*
X159202675Y-108667833D01*
X158948959Y-109223374D01*
X158716305Y-109726782D01*
X158506452Y-110174460D01*
X158321137Y-110562813D01*
X158162098Y-110888245D01*
X158031073Y-111147158D01*
X157929799Y-111335957D01*
X157860014Y-111451045D01*
X157853307Y-111460457D01*
X157812373Y-111507868D01*
X157773844Y-111509964D01*
X157714789Y-111459997D01*
X157661701Y-111404079D01*
X157575488Y-111292970D01*
X157477297Y-111138647D01*
X157392698Y-110982884D01*
X157338713Y-110870696D01*
X157301005Y-110777993D01*
X157276702Y-110685975D01*
X157262931Y-110575843D01*
X157256819Y-110428795D01*
X157255492Y-110226033D01*
X157255755Y-110086762D01*
X157259127Y-109810889D01*
X157269738Y-109590081D01*
X157290760Y-109394835D01*
X157325367Y-109195646D01*
X157376459Y-108964167D01*
X157553699Y-108293838D01*
X157781928Y-107570425D01*
X158056300Y-106804492D01*
X158371967Y-106006600D01*
X158724082Y-105187311D01*
X159107799Y-104357188D01*
X159518271Y-103526792D01*
X159950649Y-102706687D01*
X160400089Y-101907434D01*
X160861741Y-101139595D01*
X161232661Y-100561000D01*
X161507615Y-100151451D01*
X161772620Y-99771774D01*
X162042537Y-99401857D01*
X162332222Y-99021591D01*
X162656536Y-98610865D01*
X162859134Y-98359667D01*
X163072882Y-98098163D01*
X163296420Y-97828073D01*
X163521809Y-97558685D01*
X163741110Y-97299287D01*
X163946384Y-97059165D01*
X164129691Y-96847609D01*
X164283093Y-96673905D01*
X164398651Y-96547342D01*
X164467642Y-96477898D01*
X164512689Y-96440505D01*
X164532640Y-96437589D01*
X164526460Y-96481068D01*
G36*
X153126667Y-109514500D02*
G01*
X153105500Y-109535667D01*
X153084333Y-109514500D01*
X153105500Y-109493333D01*
X153126667Y-109514500D01*
X153126667Y-109514500D01*
G37*
X153126667Y-109514500D02*
X153105500Y-109535667D01*
X153084333Y-109514500D01*
X153105500Y-109493333D01*
X153126667Y-109514500D01*
G36*
X153443615Y-108933233D02*
G01*
X153409232Y-109013088D01*
X153401833Y-109027667D01*
X153351925Y-109113383D01*
X153317219Y-109154129D01*
X153314992Y-109154667D01*
X153317718Y-109122100D01*
X153352101Y-109042245D01*
X153359500Y-109027667D01*
X153409408Y-108941950D01*
X153444114Y-108901204D01*
X153446341Y-108900667D01*
X153443615Y-108933233D01*
X153443615Y-108933233D01*
G37*
X153443615Y-108933233D02*
X153409232Y-109013088D01*
X153401833Y-109027667D01*
X153351925Y-109113383D01*
X153317219Y-109154129D01*
X153314992Y-109154667D01*
X153317718Y-109122100D01*
X153352101Y-109042245D01*
X153359500Y-109027667D01*
X153409408Y-108941950D01*
X153444114Y-108901204D01*
X153446341Y-108900667D01*
X153443615Y-108933233D01*
G36*
X130371910Y-94692808D02*
G01*
X130687258Y-94714160D01*
X130978565Y-94743667D01*
X131233335Y-94779329D01*
X131439072Y-94819148D01*
X131583281Y-94861123D01*
X131648170Y-94897027D01*
X131679887Y-94948774D01*
X131741721Y-95067167D01*
X131828601Y-95241844D01*
X131935460Y-95462444D01*
X132057227Y-95718604D01*
X132188833Y-95999962D01*
X132208543Y-96042476D01*
X132431004Y-96518004D01*
X132624844Y-96921309D01*
X132793399Y-97258573D01*
X132940007Y-97535977D01*
X133068007Y-97759700D01*
X133180736Y-97935923D01*
X133281532Y-98070828D01*
X133339160Y-98136076D01*
X133455300Y-98250294D01*
X133536639Y-98304299D01*
X133600893Y-98304288D01*
X133665780Y-98256460D01*
X133670357Y-98251928D01*
X133714200Y-98199946D01*
X133750086Y-98134578D01*
X133778773Y-98047471D01*
X133801021Y-97930272D01*
X133817586Y-97774627D01*
X133829226Y-97572184D01*
X133836701Y-97314589D01*
X133840769Y-96993489D01*
X133842186Y-96600531D01*
X133842121Y-96359417D01*
X133840409Y-94888333D01*
X134138454Y-94895108D01*
X134262443Y-94900321D01*
X134323980Y-94908070D01*
X134313136Y-94916878D01*
X134298846Y-94918962D01*
X134209299Y-94936201D01*
X134175517Y-94975721D01*
X134178853Y-95065251D01*
X134182402Y-95092104D01*
X134196289Y-95225470D01*
X134212097Y-95429779D01*
X134229098Y-95691353D01*
X134246565Y-95996508D01*
X134263770Y-96331566D01*
X134279987Y-96682843D01*
X134294488Y-97036660D01*
X134306545Y-97379336D01*
X134309986Y-97491833D01*
X134318685Y-97760409D01*
X134328267Y-98008172D01*
X134338010Y-98219561D01*
X134347188Y-98379019D01*
X134355078Y-98470986D01*
X134355784Y-98475975D01*
X134376796Y-98613451D01*
X134554815Y-98526801D01*
X134732833Y-98440152D01*
X134626242Y-98537493D01*
X134510992Y-98635735D01*
X134399985Y-98721899D01*
X134280319Y-98808964D01*
X135050529Y-100288232D01*
X135231368Y-100635376D01*
X135409382Y-100976769D01*
X135578579Y-101300947D01*
X135732971Y-101596445D01*
X135866568Y-101851799D01*
X135973378Y-102055544D01*
X136047412Y-102196215D01*
X136050161Y-102201417D01*
X136138315Y-102371270D01*
X136207145Y-102509946D01*
X136249613Y-102602824D01*
X136259009Y-102635333D01*
X136230501Y-102601179D01*
X136169278Y-102508728D01*
X136084980Y-102372995D01*
X136007648Y-102243750D01*
X135848866Y-101991805D01*
X135642727Y-101691468D01*
X135399748Y-101356138D01*
X135130449Y-100999219D01*
X134845349Y-100634110D01*
X134554969Y-100274214D01*
X134269826Y-99932931D01*
X134000441Y-99623665D01*
X133757333Y-99359815D01*
X133687277Y-99287642D01*
X133335833Y-98931167D01*
X133322816Y-99111083D01*
X133310418Y-99220980D01*
X133294631Y-99284634D01*
X133288586Y-99291000D01*
X133251012Y-99264219D01*
X133163337Y-99190975D01*
X133037968Y-99081917D01*
X132887307Y-98947693D01*
X132859848Y-98922935D01*
X132697707Y-98781405D01*
X132566449Y-98676545D01*
X132475818Y-98615594D01*
X132435557Y-98605788D01*
X132434861Y-98607250D01*
X132449214Y-98669892D01*
X132509625Y-98796765D01*
X132613212Y-98983006D01*
X132757096Y-99223756D01*
X132938396Y-99514154D01*
X133154232Y-99849339D01*
X133323045Y-100106083D01*
X133645885Y-100585474D01*
X133931102Y-100991995D01*
X134180416Y-101327747D01*
X134395547Y-101594828D01*
X134578216Y-101795340D01*
X134730143Y-101931383D01*
X134853048Y-102005056D01*
X134887671Y-102016072D01*
X134965356Y-102057308D01*
X135076386Y-102153655D01*
X135222416Y-102307150D01*
X135405099Y-102519830D01*
X135626090Y-102793736D01*
X135887043Y-103130903D01*
X136189611Y-103533371D01*
X136535448Y-104003177D01*
X136833163Y-104413333D01*
X137149000Y-104852462D01*
X137420661Y-105234794D01*
X137655018Y-105571078D01*
X137858946Y-105872062D01*
X138039317Y-106148494D01*
X138203004Y-106411125D01*
X138356882Y-106670700D01*
X138507823Y-106937970D01*
X138662701Y-107223683D01*
X138814012Y-107510989D01*
X138945280Y-107766820D01*
X139038748Y-107959690D01*
X139098737Y-108100084D01*
X139129572Y-108198486D01*
X139135573Y-108265379D01*
X139132535Y-108283572D01*
X139103372Y-108364224D01*
X139077988Y-108392667D01*
X139038217Y-108366033D01*
X138947661Y-108292906D01*
X138818459Y-108183444D01*
X138662747Y-108047804D01*
X138606327Y-107997888D01*
X138189106Y-107607661D01*
X137785989Y-107188704D01*
X137386183Y-106728560D01*
X136978894Y-106214772D01*
X136553330Y-105634882D01*
X136527653Y-105598667D01*
X136315512Y-105296431D01*
X136074352Y-104948429D01*
X135807375Y-104559525D01*
X135517783Y-104134581D01*
X135208777Y-103678461D01*
X134883559Y-103196029D01*
X134545329Y-102692149D01*
X134197290Y-102171685D01*
X133842643Y-101639499D01*
X133484589Y-101100456D01*
X133126330Y-100559420D01*
X132771067Y-100021253D01*
X132422002Y-99490821D01*
X132082336Y-98972985D01*
X131755270Y-98472611D01*
X131444006Y-97994561D01*
X131151746Y-97543700D01*
X130881691Y-97124891D01*
X130637042Y-96742997D01*
X130421001Y-96402883D01*
X130236769Y-96109412D01*
X130087548Y-95867447D01*
X129976539Y-95681853D01*
X129906944Y-95557493D01*
X129882784Y-95503731D01*
X129865326Y-95400733D01*
X129849086Y-95243285D01*
X129837035Y-95061589D01*
X129835179Y-95019833D01*
X129820986Y-94664499D01*
X130371910Y-94692808D01*
X130371910Y-94692808D01*
G37*
X130371910Y-94692808D02*
X130687258Y-94714160D01*
X130978565Y-94743667D01*
X131233335Y-94779329D01*
X131439072Y-94819148D01*
X131583281Y-94861123D01*
X131648170Y-94897027D01*
X131679887Y-94948774D01*
X131741721Y-95067167D01*
X131828601Y-95241844D01*
X131935460Y-95462444D01*
X132057227Y-95718604D01*
X132188833Y-95999962D01*
X132208543Y-96042476D01*
X132431004Y-96518004D01*
X132624844Y-96921309D01*
X132793399Y-97258573D01*
X132940007Y-97535977D01*
X133068007Y-97759700D01*
X133180736Y-97935923D01*
X133281532Y-98070828D01*
X133339160Y-98136076D01*
X133455300Y-98250294D01*
X133536639Y-98304299D01*
X133600893Y-98304288D01*
X133665780Y-98256460D01*
X133670357Y-98251928D01*
X133714200Y-98199946D01*
X133750086Y-98134578D01*
X133778773Y-98047471D01*
X133801021Y-97930272D01*
X133817586Y-97774627D01*
X133829226Y-97572184D01*
X133836701Y-97314589D01*
X133840769Y-96993489D01*
X133842186Y-96600531D01*
X133842121Y-96359417D01*
X133840409Y-94888333D01*
X134138454Y-94895108D01*
X134262443Y-94900321D01*
X134323980Y-94908070D01*
X134313136Y-94916878D01*
X134298846Y-94918962D01*
X134209299Y-94936201D01*
X134175517Y-94975721D01*
X134178853Y-95065251D01*
X134182402Y-95092104D01*
X134196289Y-95225470D01*
X134212097Y-95429779D01*
X134229098Y-95691353D01*
X134246565Y-95996508D01*
X134263770Y-96331566D01*
X134279987Y-96682843D01*
X134294488Y-97036660D01*
X134306545Y-97379336D01*
X134309986Y-97491833D01*
X134318685Y-97760409D01*
X134328267Y-98008172D01*
X134338010Y-98219561D01*
X134347188Y-98379019D01*
X134355078Y-98470986D01*
X134355784Y-98475975D01*
X134376796Y-98613451D01*
X134554815Y-98526801D01*
X134732833Y-98440152D01*
X134626242Y-98537493D01*
X134510992Y-98635735D01*
X134399985Y-98721899D01*
X134280319Y-98808964D01*
X135050529Y-100288232D01*
X135231368Y-100635376D01*
X135409382Y-100976769D01*
X135578579Y-101300947D01*
X135732971Y-101596445D01*
X135866568Y-101851799D01*
X135973378Y-102055544D01*
X136047412Y-102196215D01*
X136050161Y-102201417D01*
X136138315Y-102371270D01*
X136207145Y-102509946D01*
X136249613Y-102602824D01*
X136259009Y-102635333D01*
X136230501Y-102601179D01*
X136169278Y-102508728D01*
X136084980Y-102372995D01*
X136007648Y-102243750D01*
X135848866Y-101991805D01*
X135642727Y-101691468D01*
X135399748Y-101356138D01*
X135130449Y-100999219D01*
X134845349Y-100634110D01*
X134554969Y-100274214D01*
X134269826Y-99932931D01*
X134000441Y-99623665D01*
X133757333Y-99359815D01*
X133687277Y-99287642D01*
X133335833Y-98931167D01*
X133322816Y-99111083D01*
X133310418Y-99220980D01*
X133294631Y-99284634D01*
X133288586Y-99291000D01*
X133251012Y-99264219D01*
X133163337Y-99190975D01*
X133037968Y-99081917D01*
X132887307Y-98947693D01*
X132859848Y-98922935D01*
X132697707Y-98781405D01*
X132566449Y-98676545D01*
X132475818Y-98615594D01*
X132435557Y-98605788D01*
X132434861Y-98607250D01*
X132449214Y-98669892D01*
X132509625Y-98796765D01*
X132613212Y-98983006D01*
X132757096Y-99223756D01*
X132938396Y-99514154D01*
X133154232Y-99849339D01*
X133323045Y-100106083D01*
X133645885Y-100585474D01*
X133931102Y-100991995D01*
X134180416Y-101327747D01*
X134395547Y-101594828D01*
X134578216Y-101795340D01*
X134730143Y-101931383D01*
X134853048Y-102005056D01*
X134887671Y-102016072D01*
X134965356Y-102057308D01*
X135076386Y-102153655D01*
X135222416Y-102307150D01*
X135405099Y-102519830D01*
X135626090Y-102793736D01*
X135887043Y-103130903D01*
X136189611Y-103533371D01*
X136535448Y-104003177D01*
X136833163Y-104413333D01*
X137149000Y-104852462D01*
X137420661Y-105234794D01*
X137655018Y-105571078D01*
X137858946Y-105872062D01*
X138039317Y-106148494D01*
X138203004Y-106411125D01*
X138356882Y-106670700D01*
X138507823Y-106937970D01*
X138662701Y-107223683D01*
X138814012Y-107510989D01*
X138945280Y-107766820D01*
X139038748Y-107959690D01*
X139098737Y-108100084D01*
X139129572Y-108198486D01*
X139135573Y-108265379D01*
X139132535Y-108283572D01*
X139103372Y-108364224D01*
X139077988Y-108392667D01*
X139038217Y-108366033D01*
X138947661Y-108292906D01*
X138818459Y-108183444D01*
X138662747Y-108047804D01*
X138606327Y-107997888D01*
X138189106Y-107607661D01*
X137785989Y-107188704D01*
X137386183Y-106728560D01*
X136978894Y-106214772D01*
X136553330Y-105634882D01*
X136527653Y-105598667D01*
X136315512Y-105296431D01*
X136074352Y-104948429D01*
X135807375Y-104559525D01*
X135517783Y-104134581D01*
X135208777Y-103678461D01*
X134883559Y-103196029D01*
X134545329Y-102692149D01*
X134197290Y-102171685D01*
X133842643Y-101639499D01*
X133484589Y-101100456D01*
X133126330Y-100559420D01*
X132771067Y-100021253D01*
X132422002Y-99490821D01*
X132082336Y-98972985D01*
X131755270Y-98472611D01*
X131444006Y-97994561D01*
X131151746Y-97543700D01*
X130881691Y-97124891D01*
X130637042Y-96742997D01*
X130421001Y-96402883D01*
X130236769Y-96109412D01*
X130087548Y-95867447D01*
X129976539Y-95681853D01*
X129906944Y-95557493D01*
X129882784Y-95503731D01*
X129865326Y-95400733D01*
X129849086Y-95243285D01*
X129837035Y-95061589D01*
X129835179Y-95019833D01*
X129820986Y-94664499D01*
X130371910Y-94692808D01*
G36*
X153761667Y-108371500D02*
G01*
X153740500Y-108392667D01*
X153719333Y-108371500D01*
X153740500Y-108350333D01*
X153761667Y-108371500D01*
X153761667Y-108371500D01*
G37*
X153761667Y-108371500D02*
X153740500Y-108392667D01*
X153719333Y-108371500D01*
X153740500Y-108350333D01*
X153761667Y-108371500D01*
G36*
X153870191Y-108169779D02*
G01*
X153846333Y-108223333D01*
X153802615Y-108289862D01*
X153779854Y-108308000D01*
X153780142Y-108276887D01*
X153804000Y-108223333D01*
X153847718Y-108156804D01*
X153870479Y-108138667D01*
X153870191Y-108169779D01*
X153870191Y-108169779D01*
G37*
X153870191Y-108169779D02*
X153846333Y-108223333D01*
X153802615Y-108289862D01*
X153779854Y-108308000D01*
X153780142Y-108276887D01*
X153804000Y-108223333D01*
X153847718Y-108156804D01*
X153870479Y-108138667D01*
X153870191Y-108169779D01*
G36*
X154878702Y-106353030D02*
G01*
X154832451Y-106448945D01*
X154757668Y-106593817D01*
X154661118Y-106775382D01*
X154549565Y-106981381D01*
X154429774Y-107199549D01*
X154308508Y-107417625D01*
X154192532Y-107623347D01*
X154088611Y-107804453D01*
X154003508Y-107948681D01*
X153943988Y-108043768D01*
X153920517Y-108075167D01*
X153890803Y-108094933D01*
X153897633Y-108075167D01*
X153944591Y-107986331D01*
X154021024Y-107846415D01*
X154119980Y-107667726D01*
X154234511Y-107462573D01*
X154357668Y-107243261D01*
X154482499Y-107022099D01*
X154602056Y-106811395D01*
X154709389Y-106623455D01*
X154797549Y-106470588D01*
X154859585Y-106365101D01*
X154888549Y-106319300D01*
X154889658Y-106318333D01*
X154878702Y-106353030D01*
X154878702Y-106353030D01*
G37*
X154878702Y-106353030D02*
X154832451Y-106448945D01*
X154757668Y-106593817D01*
X154661118Y-106775382D01*
X154549565Y-106981381D01*
X154429774Y-107199549D01*
X154308508Y-107417625D01*
X154192532Y-107623347D01*
X154088611Y-107804453D01*
X154003508Y-107948681D01*
X153943988Y-108043768D01*
X153920517Y-108075167D01*
X153890803Y-108094933D01*
X153897633Y-108075167D01*
X153944591Y-107986331D01*
X154021024Y-107846415D01*
X154119980Y-107667726D01*
X154234511Y-107462573D01*
X154357668Y-107243261D01*
X154482499Y-107022099D01*
X154602056Y-106811395D01*
X154709389Y-106623455D01*
X154797549Y-106470588D01*
X154859585Y-106365101D01*
X154888549Y-106319300D01*
X154889658Y-106318333D01*
X154878702Y-106353030D01*
G36*
X155092440Y-105970711D02*
G01*
X155056902Y-106055232D01*
X155031667Y-106106667D01*
X154975574Y-106208264D01*
X154933980Y-106268692D01*
X154924112Y-106276000D01*
X154928560Y-106242622D01*
X154964098Y-106158101D01*
X154989333Y-106106667D01*
X155045426Y-106005069D01*
X155087020Y-105944641D01*
X155096887Y-105937333D01*
X155092440Y-105970711D01*
X155092440Y-105970711D01*
G37*
X155092440Y-105970711D02*
X155056902Y-106055232D01*
X155031667Y-106106667D01*
X154975574Y-106208264D01*
X154933980Y-106268692D01*
X154924112Y-106276000D01*
X154928560Y-106242622D01*
X154964098Y-106158101D01*
X154989333Y-106106667D01*
X155045426Y-106005069D01*
X155087020Y-105944641D01*
X155096887Y-105937333D01*
X155092440Y-105970711D01*
G36*
X155263949Y-105673566D02*
G01*
X155229566Y-105753421D01*
X155222167Y-105768000D01*
X155172258Y-105853716D01*
X155137552Y-105894462D01*
X155135326Y-105895000D01*
X155138051Y-105862433D01*
X155172434Y-105782578D01*
X155179833Y-105768000D01*
X155229741Y-105682284D01*
X155264448Y-105641537D01*
X155266674Y-105641000D01*
X155263949Y-105673566D01*
X155263949Y-105673566D01*
G37*
X155263949Y-105673566D02*
X155229566Y-105753421D01*
X155222167Y-105768000D01*
X155172258Y-105853716D01*
X155137552Y-105894462D01*
X155135326Y-105895000D01*
X155138051Y-105862433D01*
X155172434Y-105782578D01*
X155179833Y-105768000D01*
X155229741Y-105682284D01*
X155264448Y-105641537D01*
X155266674Y-105641000D01*
X155263949Y-105673566D01*
G36*
X155328000Y-105577500D02*
G01*
X155306833Y-105598667D01*
X155285667Y-105577500D01*
X155306833Y-105556333D01*
X155328000Y-105577500D01*
X155328000Y-105577500D01*
G37*
X155328000Y-105577500D02*
X155306833Y-105598667D01*
X155285667Y-105577500D01*
X155306833Y-105556333D01*
X155328000Y-105577500D01*
G36*
X155475615Y-105292566D02*
G01*
X155441232Y-105372421D01*
X155433833Y-105387000D01*
X155383925Y-105472716D01*
X155349219Y-105513462D01*
X155346992Y-105514000D01*
X155349718Y-105481433D01*
X155384101Y-105401578D01*
X155391500Y-105387000D01*
X155441408Y-105301284D01*
X155476114Y-105260537D01*
X155478341Y-105260000D01*
X155475615Y-105292566D01*
X155475615Y-105292566D01*
G37*
X155475615Y-105292566D02*
X155441232Y-105372421D01*
X155433833Y-105387000D01*
X155383925Y-105472716D01*
X155349219Y-105513462D01*
X155346992Y-105514000D01*
X155349718Y-105481433D01*
X155384101Y-105401578D01*
X155391500Y-105387000D01*
X155441408Y-105301284D01*
X155476114Y-105260537D01*
X155478341Y-105260000D01*
X155475615Y-105292566D01*
G36*
X155539667Y-105196500D02*
G01*
X155518500Y-105217667D01*
X155497333Y-105196500D01*
X155518500Y-105175333D01*
X155539667Y-105196500D01*
X155539667Y-105196500D01*
G37*
X155539667Y-105196500D02*
X155518500Y-105217667D01*
X155497333Y-105196500D01*
X155518500Y-105175333D01*
X155539667Y-105196500D01*
G36*
X155687282Y-104911566D02*
G01*
X155652899Y-104991421D01*
X155645500Y-105006000D01*
X155595592Y-105091716D01*
X155560885Y-105132462D01*
X155558659Y-105133000D01*
X155561384Y-105100433D01*
X155595767Y-105020578D01*
X155603167Y-105006000D01*
X155653075Y-104920284D01*
X155687781Y-104879537D01*
X155690007Y-104879000D01*
X155687282Y-104911566D01*
X155687282Y-104911566D01*
G37*
X155687282Y-104911566D02*
X155652899Y-104991421D01*
X155645500Y-105006000D01*
X155595592Y-105091716D01*
X155560885Y-105132462D01*
X155558659Y-105133000D01*
X155561384Y-105100433D01*
X155595767Y-105020578D01*
X155603167Y-105006000D01*
X155653075Y-104920284D01*
X155687781Y-104879537D01*
X155690007Y-104879000D01*
X155687282Y-104911566D01*
G36*
X155856615Y-104615233D02*
G01*
X155822232Y-104695088D01*
X155814833Y-104709667D01*
X155764925Y-104795383D01*
X155730219Y-104836129D01*
X155727992Y-104836667D01*
X155730718Y-104804100D01*
X155765101Y-104724245D01*
X155772500Y-104709667D01*
X155822408Y-104623950D01*
X155857114Y-104583204D01*
X155859341Y-104582667D01*
X155856615Y-104615233D01*
X155856615Y-104615233D01*
G37*
X155856615Y-104615233D02*
X155822232Y-104695088D01*
X155814833Y-104709667D01*
X155764925Y-104795383D01*
X155730219Y-104836129D01*
X155727992Y-104836667D01*
X155730718Y-104804100D01*
X155765101Y-104724245D01*
X155772500Y-104709667D01*
X155822408Y-104623950D01*
X155857114Y-104583204D01*
X155859341Y-104582667D01*
X155856615Y-104615233D01*
G36*
X165434217Y-94204380D02*
G01*
X165462178Y-94208970D01*
X165462938Y-94209240D01*
X165486363Y-94229725D01*
X165471174Y-94266891D01*
X165409537Y-94328621D01*
X165293616Y-94422802D01*
X165121285Y-94553075D01*
X164924009Y-94697516D01*
X164684507Y-94869464D01*
X164430716Y-95049036D01*
X164190571Y-95216351D01*
X164151513Y-95243245D01*
X163604167Y-95619324D01*
X163075000Y-96384673D01*
X162566603Y-97115835D01*
X162057234Y-97840379D01*
X161551093Y-98552635D01*
X161052381Y-99246931D01*
X160565300Y-99917595D01*
X160094051Y-100558957D01*
X159642835Y-101165344D01*
X159215852Y-101731086D01*
X158817304Y-102250511D01*
X158451393Y-102717947D01*
X158122317Y-103127723D01*
X157834280Y-103474169D01*
X157754977Y-103566667D01*
X157502415Y-103851350D01*
X157265182Y-104104606D01*
X157048279Y-104322257D01*
X156856706Y-104500122D01*
X156695464Y-104634022D01*
X156569555Y-104719779D01*
X156483978Y-104753211D01*
X156443734Y-104730141D01*
X156450658Y-104656750D01*
X156503155Y-104524955D01*
X156602472Y-104327161D01*
X156746611Y-104066542D01*
X156933570Y-103746272D01*
X157161351Y-103369525D01*
X157427952Y-102939476D01*
X157731375Y-102459299D01*
X158069620Y-101932167D01*
X158440686Y-101361256D01*
X158842574Y-100749740D01*
X159273285Y-100100793D01*
X159730817Y-99417589D01*
X160044560Y-98952333D01*
X160276262Y-98610479D01*
X160467509Y-98330862D01*
X160624674Y-98105183D01*
X160754128Y-97925139D01*
X160862244Y-97782430D01*
X160955392Y-97668753D01*
X161039945Y-97575809D01*
X161122275Y-97495295D01*
X161208752Y-97418911D01*
X161244866Y-97388542D01*
X161570652Y-97115555D01*
X161865541Y-96865241D01*
X162124134Y-96642370D01*
X162341032Y-96451714D01*
X162510838Y-96298042D01*
X162628154Y-96186125D01*
X162687581Y-96120735D01*
X162694000Y-96107849D01*
X162676820Y-96093311D01*
X162622427Y-96083794D01*
X162526542Y-96079550D01*
X162384888Y-96080831D01*
X162193185Y-96087889D01*
X161947154Y-96100977D01*
X161642516Y-96120347D01*
X161274994Y-96146251D01*
X160840309Y-96178942D01*
X160334181Y-96218673D01*
X159752332Y-96265695D01*
X159090483Y-96320260D01*
X159085809Y-96320649D01*
X156684118Y-96520178D01*
X156445588Y-96399563D01*
X156339891Y-96339227D01*
X156204212Y-96252313D01*
X156055424Y-96150902D01*
X155910402Y-96047072D01*
X155786019Y-95952905D01*
X155699149Y-95880479D01*
X155666667Y-95841957D01*
X155701895Y-95846816D01*
X155789893Y-95873932D01*
X155825417Y-95886297D01*
X155881372Y-95904497D01*
X155942380Y-95919385D01*
X156014307Y-95930688D01*
X156103016Y-95938134D01*
X156214372Y-95941448D01*
X156354239Y-95940359D01*
X156528483Y-95934592D01*
X156742967Y-95923875D01*
X157003555Y-95907934D01*
X157316113Y-95886497D01*
X157686505Y-95859291D01*
X158120595Y-95826042D01*
X158624248Y-95786477D01*
X159203328Y-95740323D01*
X159540167Y-95713311D01*
X160292443Y-95652207D01*
X160962278Y-95596319D01*
X161551722Y-95545460D01*
X162062828Y-95499444D01*
X162497647Y-95458081D01*
X162858231Y-95421184D01*
X163146633Y-95388567D01*
X163286667Y-95370867D01*
X163518445Y-95336810D01*
X163693500Y-95301003D01*
X163839540Y-95255372D01*
X163984272Y-95191840D01*
X164093344Y-95135752D01*
X164271486Y-95034515D01*
X164459948Y-94916710D01*
X164645499Y-94791962D01*
X164814911Y-94669896D01*
X164954954Y-94560137D01*
X165052398Y-94472308D01*
X165094014Y-94416036D01*
X165094042Y-94407721D01*
X165089751Y-94395075D01*
X165082024Y-94384756D01*
X165064112Y-94377121D01*
X165029262Y-94372527D01*
X164970726Y-94371330D01*
X164881753Y-94373885D01*
X164755591Y-94380551D01*
X164585492Y-94391682D01*
X164364704Y-94407636D01*
X164086477Y-94428768D01*
X163744060Y-94455436D01*
X163330704Y-94487995D01*
X162842167Y-94526603D01*
X162358959Y-94564785D01*
X161815366Y-94607738D01*
X161235406Y-94653564D01*
X160643097Y-94700364D01*
X160062456Y-94746242D01*
X159517503Y-94789299D01*
X159074500Y-94824300D01*
X158625166Y-94860162D01*
X158154727Y-94898362D01*
X157680049Y-94937485D01*
X157217997Y-94976119D01*
X156785438Y-95012852D01*
X156399237Y-95046270D01*
X156076260Y-95074960D01*
X156005633Y-95081388D01*
X155644988Y-95113606D01*
X155359522Y-95137039D01*
X155140244Y-95152085D01*
X154978166Y-95159137D01*
X154864298Y-95158593D01*
X154789651Y-95150847D01*
X154746216Y-95136830D01*
X154716342Y-95121996D01*
X154688496Y-95108775D01*
X154666866Y-95096735D01*
X154655639Y-95085445D01*
X154659003Y-95074475D01*
X154681147Y-95063392D01*
X154726257Y-95051767D01*
X154798521Y-95039168D01*
X154902128Y-95025163D01*
X155041265Y-95009323D01*
X155220119Y-94991215D01*
X155442879Y-94970409D01*
X155713732Y-94946473D01*
X156036865Y-94918976D01*
X156416468Y-94887488D01*
X156856727Y-94851577D01*
X157361830Y-94810813D01*
X157935965Y-94764763D01*
X158583319Y-94712998D01*
X159308081Y-94655085D01*
X159836500Y-94612835D01*
X160651398Y-94547745D01*
X161385903Y-94489304D01*
X162044006Y-94437225D01*
X162629697Y-94391223D01*
X163146966Y-94351011D01*
X163599802Y-94316302D01*
X163992196Y-94286812D01*
X164328137Y-94262253D01*
X164611616Y-94242339D01*
X164846623Y-94226785D01*
X165037147Y-94215303D01*
X165187178Y-94207608D01*
X165300707Y-94203413D01*
X165381723Y-94202433D01*
X165434217Y-94204380D01*
X165434217Y-94204380D01*
G37*
X165434217Y-94204380D02*
X165462178Y-94208970D01*
X165462938Y-94209240D01*
X165486363Y-94229725D01*
X165471174Y-94266891D01*
X165409537Y-94328621D01*
X165293616Y-94422802D01*
X165121285Y-94553075D01*
X164924009Y-94697516D01*
X164684507Y-94869464D01*
X164430716Y-95049036D01*
X164190571Y-95216351D01*
X164151513Y-95243245D01*
X163604167Y-95619324D01*
X163075000Y-96384673D01*
X162566603Y-97115835D01*
X162057234Y-97840379D01*
X161551093Y-98552635D01*
X161052381Y-99246931D01*
X160565300Y-99917595D01*
X160094051Y-100558957D01*
X159642835Y-101165344D01*
X159215852Y-101731086D01*
X158817304Y-102250511D01*
X158451393Y-102717947D01*
X158122317Y-103127723D01*
X157834280Y-103474169D01*
X157754977Y-103566667D01*
X157502415Y-103851350D01*
X157265182Y-104104606D01*
X157048279Y-104322257D01*
X156856706Y-104500122D01*
X156695464Y-104634022D01*
X156569555Y-104719779D01*
X156483978Y-104753211D01*
X156443734Y-104730141D01*
X156450658Y-104656750D01*
X156503155Y-104524955D01*
X156602472Y-104327161D01*
X156746611Y-104066542D01*
X156933570Y-103746272D01*
X157161351Y-103369525D01*
X157427952Y-102939476D01*
X157731375Y-102459299D01*
X158069620Y-101932167D01*
X158440686Y-101361256D01*
X158842574Y-100749740D01*
X159273285Y-100100793D01*
X159730817Y-99417589D01*
X160044560Y-98952333D01*
X160276262Y-98610479D01*
X160467509Y-98330862D01*
X160624674Y-98105183D01*
X160754128Y-97925139D01*
X160862244Y-97782430D01*
X160955392Y-97668753D01*
X161039945Y-97575809D01*
X161122275Y-97495295D01*
X161208752Y-97418911D01*
X161244866Y-97388542D01*
X161570652Y-97115555D01*
X161865541Y-96865241D01*
X162124134Y-96642370D01*
X162341032Y-96451714D01*
X162510838Y-96298042D01*
X162628154Y-96186125D01*
X162687581Y-96120735D01*
X162694000Y-96107849D01*
X162676820Y-96093311D01*
X162622427Y-96083794D01*
X162526542Y-96079550D01*
X162384888Y-96080831D01*
X162193185Y-96087889D01*
X161947154Y-96100977D01*
X161642516Y-96120347D01*
X161274994Y-96146251D01*
X160840309Y-96178942D01*
X160334181Y-96218673D01*
X159752332Y-96265695D01*
X159090483Y-96320260D01*
X159085809Y-96320649D01*
X156684118Y-96520178D01*
X156445588Y-96399563D01*
X156339891Y-96339227D01*
X156204212Y-96252313D01*
X156055424Y-96150902D01*
X155910402Y-96047072D01*
X155786019Y-95952905D01*
X155699149Y-95880479D01*
X155666667Y-95841957D01*
X155701895Y-95846816D01*
X155789893Y-95873932D01*
X155825417Y-95886297D01*
X155881372Y-95904497D01*
X155942380Y-95919385D01*
X156014307Y-95930688D01*
X156103016Y-95938134D01*
X156214372Y-95941448D01*
X156354239Y-95940359D01*
X156528483Y-95934592D01*
X156742967Y-95923875D01*
X157003555Y-95907934D01*
X157316113Y-95886497D01*
X157686505Y-95859291D01*
X158120595Y-95826042D01*
X158624248Y-95786477D01*
X159203328Y-95740323D01*
X159540167Y-95713311D01*
X160292443Y-95652207D01*
X160962278Y-95596319D01*
X161551722Y-95545460D01*
X162062828Y-95499444D01*
X162497647Y-95458081D01*
X162858231Y-95421184D01*
X163146633Y-95388567D01*
X163286667Y-95370867D01*
X163518445Y-95336810D01*
X163693500Y-95301003D01*
X163839540Y-95255372D01*
X163984272Y-95191840D01*
X164093344Y-95135752D01*
X164271486Y-95034515D01*
X164459948Y-94916710D01*
X164645499Y-94791962D01*
X164814911Y-94669896D01*
X164954954Y-94560137D01*
X165052398Y-94472308D01*
X165094014Y-94416036D01*
X165094042Y-94407721D01*
X165089751Y-94395075D01*
X165082024Y-94384756D01*
X165064112Y-94377121D01*
X165029262Y-94372527D01*
X164970726Y-94371330D01*
X164881753Y-94373885D01*
X164755591Y-94380551D01*
X164585492Y-94391682D01*
X164364704Y-94407636D01*
X164086477Y-94428768D01*
X163744060Y-94455436D01*
X163330704Y-94487995D01*
X162842167Y-94526603D01*
X162358959Y-94564785D01*
X161815366Y-94607738D01*
X161235406Y-94653564D01*
X160643097Y-94700364D01*
X160062456Y-94746242D01*
X159517503Y-94789299D01*
X159074500Y-94824300D01*
X158625166Y-94860162D01*
X158154727Y-94898362D01*
X157680049Y-94937485D01*
X157217997Y-94976119D01*
X156785438Y-95012852D01*
X156399237Y-95046270D01*
X156076260Y-95074960D01*
X156005633Y-95081388D01*
X155644988Y-95113606D01*
X155359522Y-95137039D01*
X155140244Y-95152085D01*
X154978166Y-95159137D01*
X154864298Y-95158593D01*
X154789651Y-95150847D01*
X154746216Y-95136830D01*
X154716342Y-95121996D01*
X154688496Y-95108775D01*
X154666866Y-95096735D01*
X154655639Y-95085445D01*
X154659003Y-95074475D01*
X154681147Y-95063392D01*
X154726257Y-95051767D01*
X154798521Y-95039168D01*
X154902128Y-95025163D01*
X155041265Y-95009323D01*
X155220119Y-94991215D01*
X155442879Y-94970409D01*
X155713732Y-94946473D01*
X156036865Y-94918976D01*
X156416468Y-94887488D01*
X156856727Y-94851577D01*
X157361830Y-94810813D01*
X157935965Y-94764763D01*
X158583319Y-94712998D01*
X159308081Y-94655085D01*
X159836500Y-94612835D01*
X160651398Y-94547745D01*
X161385903Y-94489304D01*
X162044006Y-94437225D01*
X162629697Y-94391223D01*
X163146966Y-94351011D01*
X163599802Y-94316302D01*
X163992196Y-94286812D01*
X164328137Y-94262253D01*
X164611616Y-94242339D01*
X164846623Y-94226785D01*
X165037147Y-94215303D01*
X165187178Y-94207608D01*
X165300707Y-94203413D01*
X165381723Y-94202433D01*
X165434217Y-94204380D01*
G36*
X155920667Y-104519167D02*
G01*
X155899500Y-104540333D01*
X155878333Y-104519167D01*
X155899500Y-104498000D01*
X155920667Y-104519167D01*
X155920667Y-104519167D01*
G37*
X155920667Y-104519167D02*
X155899500Y-104540333D01*
X155878333Y-104519167D01*
X155899500Y-104498000D01*
X155920667Y-104519167D01*
G36*
X156068282Y-104234233D02*
G01*
X156033899Y-104314088D01*
X156026500Y-104328667D01*
X155976592Y-104414383D01*
X155941885Y-104455129D01*
X155939659Y-104455667D01*
X155942384Y-104423100D01*
X155976767Y-104343245D01*
X155984167Y-104328667D01*
X156034075Y-104242950D01*
X156068781Y-104202204D01*
X156071007Y-104201667D01*
X156068282Y-104234233D01*
X156068282Y-104234233D01*
G37*
X156068282Y-104234233D02*
X156033899Y-104314088D01*
X156026500Y-104328667D01*
X155976592Y-104414383D01*
X155941885Y-104455129D01*
X155939659Y-104455667D01*
X155942384Y-104423100D01*
X155976767Y-104343245D01*
X155984167Y-104328667D01*
X156034075Y-104242950D01*
X156068781Y-104202204D01*
X156071007Y-104201667D01*
X156068282Y-104234233D01*
G36*
X156132333Y-104138167D02*
G01*
X156111167Y-104159333D01*
X156090000Y-104138167D01*
X156111167Y-104117000D01*
X156132333Y-104138167D01*
X156132333Y-104138167D01*
G37*
X156132333Y-104138167D02*
X156111167Y-104159333D01*
X156090000Y-104138167D01*
X156111167Y-104117000D01*
X156132333Y-104138167D01*
G36*
X156279949Y-103853233D02*
G01*
X156245566Y-103933088D01*
X156238167Y-103947667D01*
X156188258Y-104033383D01*
X156153552Y-104074129D01*
X156151326Y-104074667D01*
X156154051Y-104042100D01*
X156188434Y-103962245D01*
X156195833Y-103947667D01*
X156245741Y-103861950D01*
X156280448Y-103821204D01*
X156282674Y-103820667D01*
X156279949Y-103853233D01*
X156279949Y-103853233D01*
G37*
X156279949Y-103853233D02*
X156245566Y-103933088D01*
X156238167Y-103947667D01*
X156188258Y-104033383D01*
X156153552Y-104074129D01*
X156151326Y-104074667D01*
X156154051Y-104042100D01*
X156188434Y-103962245D01*
X156195833Y-103947667D01*
X156245741Y-103861950D01*
X156280448Y-103821204D01*
X156282674Y-103820667D01*
X156279949Y-103853233D01*
G36*
X156489440Y-103473045D02*
G01*
X156453902Y-103557566D01*
X156428667Y-103609000D01*
X156372574Y-103710597D01*
X156330980Y-103771026D01*
X156321112Y-103778333D01*
X156325560Y-103744955D01*
X156361098Y-103660434D01*
X156386333Y-103609000D01*
X156442426Y-103507402D01*
X156484020Y-103446974D01*
X156493887Y-103439667D01*
X156489440Y-103473045D01*
X156489440Y-103473045D01*
G37*
X156489440Y-103473045D02*
X156453902Y-103557566D01*
X156428667Y-103609000D01*
X156372574Y-103710597D01*
X156330980Y-103771026D01*
X156321112Y-103778333D01*
X156325560Y-103744955D01*
X156361098Y-103660434D01*
X156386333Y-103609000D01*
X156442426Y-103507402D01*
X156484020Y-103446974D01*
X156493887Y-103439667D01*
X156489440Y-103473045D01*
G36*
X161424000Y-103714833D02*
G01*
X161402833Y-103736000D01*
X161381667Y-103714833D01*
X161402833Y-103693667D01*
X161424000Y-103714833D01*
X161424000Y-103714833D01*
G37*
X161424000Y-103714833D02*
X161402833Y-103736000D01*
X161381667Y-103714833D01*
X161402833Y-103693667D01*
X161424000Y-103714833D01*
G36*
X156660949Y-103175900D02*
G01*
X156626566Y-103255755D01*
X156619167Y-103270333D01*
X156569258Y-103356049D01*
X156534552Y-103396796D01*
X156532326Y-103397333D01*
X156535051Y-103364767D01*
X156569434Y-103284912D01*
X156576833Y-103270333D01*
X156626741Y-103184617D01*
X156661448Y-103143871D01*
X156663674Y-103143333D01*
X156660949Y-103175900D01*
X156660949Y-103175900D01*
G37*
X156660949Y-103175900D02*
X156626566Y-103255755D01*
X156619167Y-103270333D01*
X156569258Y-103356049D01*
X156534552Y-103396796D01*
X156532326Y-103397333D01*
X156535051Y-103364767D01*
X156569434Y-103284912D01*
X156576833Y-103270333D01*
X156626741Y-103184617D01*
X156661448Y-103143871D01*
X156663674Y-103143333D01*
X156660949Y-103175900D01*
G36*
X156870440Y-102795711D02*
G01*
X156834902Y-102880232D01*
X156809667Y-102931667D01*
X156753574Y-103033264D01*
X156711980Y-103093692D01*
X156702112Y-103101000D01*
X156706560Y-103067622D01*
X156742098Y-102983101D01*
X156767333Y-102931667D01*
X156823426Y-102830069D01*
X156865020Y-102769641D01*
X156874887Y-102762333D01*
X156870440Y-102795711D01*
X156870440Y-102795711D01*
G37*
X156870440Y-102795711D02*
X156834902Y-102880232D01*
X156809667Y-102931667D01*
X156753574Y-103033264D01*
X156711980Y-103093692D01*
X156702112Y-103101000D01*
X156706560Y-103067622D01*
X156742098Y-102983101D01*
X156767333Y-102931667D01*
X156823426Y-102830069D01*
X156865020Y-102769641D01*
X156874887Y-102762333D01*
X156870440Y-102795711D01*
G36*
X157082106Y-102414711D02*
G01*
X157046569Y-102499232D01*
X157021333Y-102550667D01*
X156965240Y-102652264D01*
X156923646Y-102712692D01*
X156913779Y-102720000D01*
X156918227Y-102686622D01*
X156953764Y-102602101D01*
X156979000Y-102550667D01*
X157035093Y-102449069D01*
X157076687Y-102388641D01*
X157086554Y-102381333D01*
X157082106Y-102414711D01*
X157082106Y-102414711D01*
G37*
X157082106Y-102414711D02*
X157046569Y-102499232D01*
X157021333Y-102550667D01*
X156965240Y-102652264D01*
X156923646Y-102712692D01*
X156913779Y-102720000D01*
X156918227Y-102686622D01*
X156953764Y-102602101D01*
X156979000Y-102550667D01*
X157035093Y-102449069D01*
X157076687Y-102388641D01*
X157086554Y-102381333D01*
X157082106Y-102414711D01*
G36*
X157253615Y-102117566D02*
G01*
X157219232Y-102197421D01*
X157211833Y-102212000D01*
X157161925Y-102297716D01*
X157127219Y-102338462D01*
X157124992Y-102339000D01*
X157127718Y-102306433D01*
X157162101Y-102226578D01*
X157169500Y-102212000D01*
X157219408Y-102126284D01*
X157254114Y-102085537D01*
X157256341Y-102085000D01*
X157253615Y-102117566D01*
X157253615Y-102117566D01*
G37*
X157253615Y-102117566D02*
X157219232Y-102197421D01*
X157211833Y-102212000D01*
X157161925Y-102297716D01*
X157127219Y-102338462D01*
X157124992Y-102339000D01*
X157127718Y-102306433D01*
X157162101Y-102226578D01*
X157169500Y-102212000D01*
X157219408Y-102126284D01*
X157254114Y-102085537D01*
X157256341Y-102085000D01*
X157253615Y-102117566D01*
G36*
X157317667Y-102021500D02*
G01*
X157296500Y-102042667D01*
X157275333Y-102021500D01*
X157296500Y-102000333D01*
X157317667Y-102021500D01*
X157317667Y-102021500D01*
G37*
X157317667Y-102021500D02*
X157296500Y-102042667D01*
X157275333Y-102021500D01*
X157296500Y-102000333D01*
X157317667Y-102021500D01*
G36*
X157465282Y-101736566D02*
G01*
X157430899Y-101816421D01*
X157423500Y-101831000D01*
X157373592Y-101916716D01*
X157338885Y-101957462D01*
X157336659Y-101958000D01*
X157339384Y-101925433D01*
X157373767Y-101845578D01*
X157381167Y-101831000D01*
X157431075Y-101745284D01*
X157465781Y-101704537D01*
X157468007Y-101704000D01*
X157465282Y-101736566D01*
X157465282Y-101736566D01*
G37*
X157465282Y-101736566D02*
X157430899Y-101816421D01*
X157423500Y-101831000D01*
X157373592Y-101916716D01*
X157338885Y-101957462D01*
X157336659Y-101958000D01*
X157339384Y-101925433D01*
X157373767Y-101845578D01*
X157381167Y-101831000D01*
X157431075Y-101745284D01*
X157465781Y-101704537D01*
X157468007Y-101704000D01*
X157465282Y-101736566D01*
G36*
X157529333Y-101640500D02*
G01*
X157508167Y-101661667D01*
X157487000Y-101640500D01*
X157508167Y-101619333D01*
X157529333Y-101640500D01*
X157529333Y-101640500D01*
G37*
X157529333Y-101640500D02*
X157508167Y-101661667D01*
X157487000Y-101640500D01*
X157508167Y-101619333D01*
X157529333Y-101640500D01*
G36*
X157676949Y-101355566D02*
G01*
X157642566Y-101435421D01*
X157635167Y-101450000D01*
X157585258Y-101535716D01*
X157550552Y-101576462D01*
X157548326Y-101577000D01*
X157551051Y-101544433D01*
X157585434Y-101464578D01*
X157592833Y-101450000D01*
X157642741Y-101364284D01*
X157677448Y-101323537D01*
X157679674Y-101323000D01*
X157676949Y-101355566D01*
X157676949Y-101355566D01*
G37*
X157676949Y-101355566D02*
X157642566Y-101435421D01*
X157635167Y-101450000D01*
X157585258Y-101535716D01*
X157550552Y-101576462D01*
X157548326Y-101577000D01*
X157551051Y-101544433D01*
X157585434Y-101464578D01*
X157592833Y-101450000D01*
X157642741Y-101364284D01*
X157677448Y-101323537D01*
X157679674Y-101323000D01*
X157676949Y-101355566D01*
G36*
X157741000Y-101259500D02*
G01*
X157719833Y-101280667D01*
X157698667Y-101259500D01*
X157719833Y-101238333D01*
X157741000Y-101259500D01*
X157741000Y-101259500D01*
G37*
X157741000Y-101259500D02*
X157719833Y-101280667D01*
X157698667Y-101259500D01*
X157719833Y-101238333D01*
X157741000Y-101259500D01*
G36*
X157888615Y-100974566D02*
G01*
X157854232Y-101054421D01*
X157846833Y-101069000D01*
X157796925Y-101154716D01*
X157762219Y-101195462D01*
X157759992Y-101196000D01*
X157762718Y-101163433D01*
X157797101Y-101083578D01*
X157804500Y-101069000D01*
X157854408Y-100983284D01*
X157889114Y-100942537D01*
X157891341Y-100942000D01*
X157888615Y-100974566D01*
X157888615Y-100974566D01*
G37*
X157888615Y-100974566D02*
X157854232Y-101054421D01*
X157846833Y-101069000D01*
X157796925Y-101154716D01*
X157762219Y-101195462D01*
X157759992Y-101196000D01*
X157762718Y-101163433D01*
X157797101Y-101083578D01*
X157804500Y-101069000D01*
X157854408Y-100983284D01*
X157889114Y-100942537D01*
X157891341Y-100942000D01*
X157888615Y-100974566D01*
G36*
X157952667Y-100878500D02*
G01*
X157931500Y-100899667D01*
X157910333Y-100878500D01*
X157931500Y-100857333D01*
X157952667Y-100878500D01*
X157952667Y-100878500D01*
G37*
X157952667Y-100878500D02*
X157931500Y-100899667D01*
X157910333Y-100878500D01*
X157931500Y-100857333D01*
X157952667Y-100878500D01*
G36*
X158061191Y-100676779D02*
G01*
X158037333Y-100730333D01*
X157993615Y-100796862D01*
X157970854Y-100815000D01*
X157971142Y-100783887D01*
X157995000Y-100730333D01*
X158038718Y-100663804D01*
X158061479Y-100645667D01*
X158061191Y-100676779D01*
X158061191Y-100676779D01*
G37*
X158061191Y-100676779D02*
X158037333Y-100730333D01*
X157993615Y-100796862D01*
X157970854Y-100815000D01*
X157971142Y-100783887D01*
X157995000Y-100730333D01*
X158038718Y-100663804D01*
X158061479Y-100645667D01*
X158061191Y-100676779D01*
G36*
X158122000Y-100582167D02*
G01*
X158100833Y-100603333D01*
X158079667Y-100582167D01*
X158100833Y-100561000D01*
X158122000Y-100582167D01*
X158122000Y-100582167D01*
G37*
X158122000Y-100582167D02*
X158100833Y-100603333D01*
X158079667Y-100582167D01*
X158100833Y-100561000D01*
X158122000Y-100582167D01*
G36*
X158164333Y-100497500D02*
G01*
X158143167Y-100518667D01*
X158122000Y-100497500D01*
X158143167Y-100476333D01*
X158164333Y-100497500D01*
X158164333Y-100497500D01*
G37*
X158164333Y-100497500D02*
X158143167Y-100518667D01*
X158122000Y-100497500D01*
X158143167Y-100476333D01*
X158164333Y-100497500D01*
G36*
X158272858Y-100295779D02*
G01*
X158249000Y-100349333D01*
X158205282Y-100415862D01*
X158182521Y-100434000D01*
X158182809Y-100402887D01*
X158206667Y-100349333D01*
X158250385Y-100282804D01*
X158273145Y-100264667D01*
X158272858Y-100295779D01*
X158272858Y-100295779D01*
G37*
X158272858Y-100295779D02*
X158249000Y-100349333D01*
X158205282Y-100415862D01*
X158182521Y-100434000D01*
X158182809Y-100402887D01*
X158206667Y-100349333D01*
X158250385Y-100282804D01*
X158273145Y-100264667D01*
X158272858Y-100295779D01*
G36*
X158333667Y-100201167D02*
G01*
X158312500Y-100222333D01*
X158291333Y-100201167D01*
X158312500Y-100180000D01*
X158333667Y-100201167D01*
X158333667Y-100201167D01*
G37*
X158333667Y-100201167D02*
X158312500Y-100222333D01*
X158291333Y-100201167D01*
X158312500Y-100180000D01*
X158333667Y-100201167D01*
G36*
X158376000Y-100116500D02*
G01*
X158354833Y-100137667D01*
X158333667Y-100116500D01*
X158354833Y-100095333D01*
X158376000Y-100116500D01*
X158376000Y-100116500D01*
G37*
X158376000Y-100116500D02*
X158354833Y-100137667D01*
X158333667Y-100116500D01*
X158354833Y-100095333D01*
X158376000Y-100116500D01*
G36*
X158484524Y-99914779D02*
G01*
X158460667Y-99968333D01*
X158416948Y-100034862D01*
X158394188Y-100053000D01*
X158394475Y-100021887D01*
X158418333Y-99968333D01*
X158462051Y-99901804D01*
X158484812Y-99883667D01*
X158484524Y-99914779D01*
X158484524Y-99914779D01*
G37*
X158484524Y-99914779D02*
X158460667Y-99968333D01*
X158416948Y-100034862D01*
X158394188Y-100053000D01*
X158394475Y-100021887D01*
X158418333Y-99968333D01*
X158462051Y-99901804D01*
X158484812Y-99883667D01*
X158484524Y-99914779D01*
G36*
X158545333Y-99820167D02*
G01*
X158524167Y-99841333D01*
X158503000Y-99820167D01*
X158524167Y-99799000D01*
X158545333Y-99820167D01*
X158545333Y-99820167D01*
G37*
X158545333Y-99820167D02*
X158524167Y-99841333D01*
X158503000Y-99820167D01*
X158524167Y-99799000D01*
X158545333Y-99820167D01*
G36*
X158653858Y-99618446D02*
G01*
X158630000Y-99672000D01*
X158586282Y-99738529D01*
X158563521Y-99756667D01*
X158563809Y-99725554D01*
X158587667Y-99672000D01*
X158631385Y-99605471D01*
X158654145Y-99587333D01*
X158653858Y-99618446D01*
X158653858Y-99618446D01*
G37*
X158653858Y-99618446D02*
X158630000Y-99672000D01*
X158586282Y-99738529D01*
X158563521Y-99756667D01*
X158563809Y-99725554D01*
X158587667Y-99672000D01*
X158631385Y-99605471D01*
X158654145Y-99587333D01*
X158653858Y-99618446D01*
G36*
X158714667Y-99523833D02*
G01*
X158693500Y-99545000D01*
X158672333Y-99523833D01*
X158693500Y-99502667D01*
X158714667Y-99523833D01*
X158714667Y-99523833D01*
G37*
X158714667Y-99523833D02*
X158693500Y-99545000D01*
X158672333Y-99523833D01*
X158693500Y-99502667D01*
X158714667Y-99523833D01*
G36*
X158862282Y-99238900D02*
G01*
X158827899Y-99318755D01*
X158820500Y-99333333D01*
X158770592Y-99419049D01*
X158735885Y-99459796D01*
X158733659Y-99460333D01*
X158736384Y-99427767D01*
X158770767Y-99347912D01*
X158778167Y-99333333D01*
X158828075Y-99247617D01*
X158862781Y-99206871D01*
X158865007Y-99206333D01*
X158862282Y-99238900D01*
X158862282Y-99238900D01*
G37*
X158862282Y-99238900D02*
X158827899Y-99318755D01*
X158820500Y-99333333D01*
X158770592Y-99419049D01*
X158735885Y-99459796D01*
X158733659Y-99460333D01*
X158736384Y-99427767D01*
X158770767Y-99347912D01*
X158778167Y-99333333D01*
X158828075Y-99247617D01*
X158862781Y-99206871D01*
X158865007Y-99206333D01*
X158862282Y-99238900D01*
G36*
X158926333Y-99142833D02*
G01*
X158905167Y-99164000D01*
X158884000Y-99142833D01*
X158905167Y-99121667D01*
X158926333Y-99142833D01*
X158926333Y-99142833D01*
G37*
X158926333Y-99142833D02*
X158905167Y-99164000D01*
X158884000Y-99142833D01*
X158905167Y-99121667D01*
X158926333Y-99142833D01*
G36*
X159073949Y-98857900D02*
G01*
X159039566Y-98937755D01*
X159032167Y-98952333D01*
X158982258Y-99038049D01*
X158947552Y-99078796D01*
X158945326Y-99079333D01*
X158948051Y-99046767D01*
X158982434Y-98966912D01*
X158989833Y-98952333D01*
X159039741Y-98866617D01*
X159074448Y-98825871D01*
X159076674Y-98825333D01*
X159073949Y-98857900D01*
X159073949Y-98857900D01*
G37*
X159073949Y-98857900D02*
X159039566Y-98937755D01*
X159032167Y-98952333D01*
X158982258Y-99038049D01*
X158947552Y-99078796D01*
X158945326Y-99079333D01*
X158948051Y-99046767D01*
X158982434Y-98966912D01*
X158989833Y-98952333D01*
X159039741Y-98866617D01*
X159074448Y-98825871D01*
X159076674Y-98825333D01*
X159073949Y-98857900D01*
G36*
X160145210Y-98207528D02*
G01*
X160127279Y-98260091D01*
X160037600Y-98349489D01*
X159874946Y-98477189D01*
X159818372Y-98518417D01*
X159619392Y-98650897D01*
X159473951Y-98723641D01*
X159383596Y-98736112D01*
X159349872Y-98687775D01*
X159349667Y-98680930D01*
X159385025Y-98611642D01*
X159478014Y-98520680D01*
X159609008Y-98421004D01*
X159758380Y-98325574D01*
X159906501Y-98247352D01*
X160033746Y-98199296D01*
X160092620Y-98190333D01*
X160145210Y-98207528D01*
X160145210Y-98207528D01*
G37*
X160145210Y-98207528D02*
X160127279Y-98260091D01*
X160037600Y-98349489D01*
X159874946Y-98477189D01*
X159818372Y-98518417D01*
X159619392Y-98650897D01*
X159473951Y-98723641D01*
X159383596Y-98736112D01*
X159349872Y-98687775D01*
X159349667Y-98680930D01*
X159385025Y-98611642D01*
X159478014Y-98520680D01*
X159609008Y-98421004D01*
X159758380Y-98325574D01*
X159906501Y-98247352D01*
X160033746Y-98199296D01*
X160092620Y-98190333D01*
X160145210Y-98207528D01*
G36*
X134825385Y-98387012D02*
G01*
X134817500Y-98402000D01*
X134777613Y-98442428D01*
X134770170Y-98444333D01*
X134767281Y-98416988D01*
X134775167Y-98402000D01*
X134815054Y-98361571D01*
X134822497Y-98359667D01*
X134825385Y-98387012D01*
X134825385Y-98387012D01*
G37*
X134825385Y-98387012D02*
X134817500Y-98402000D01*
X134777613Y-98442428D01*
X134770170Y-98444333D01*
X134767281Y-98416988D01*
X134775167Y-98402000D01*
X134815054Y-98361571D01*
X134822497Y-98359667D01*
X134825385Y-98387012D01*
G36*
X134965667Y-98296167D02*
G01*
X134944500Y-98317333D01*
X134923333Y-98296167D01*
X134944500Y-98275000D01*
X134965667Y-98296167D01*
X134965667Y-98296167D01*
G37*
X134965667Y-98296167D02*
X134944500Y-98317333D01*
X134923333Y-98296167D01*
X134944500Y-98275000D01*
X134965667Y-98296167D01*
G36*
X134775794Y-94939543D02*
G01*
X134958946Y-94968635D01*
X135062192Y-95019237D01*
X135073558Y-95032156D01*
X135101924Y-95096281D01*
X135147693Y-95229721D01*
X135207233Y-95419779D01*
X135276911Y-95653757D01*
X135353094Y-95918958D01*
X135432149Y-96202684D01*
X135510444Y-96492240D01*
X135584344Y-96774927D01*
X135650219Y-97038049D01*
X135665049Y-97099461D01*
X135715828Y-97327509D01*
X135741577Y-97486686D01*
X135743728Y-97588550D01*
X135731196Y-97633405D01*
X135677425Y-97704699D01*
X135589593Y-97795919D01*
X135490723Y-97886005D01*
X135403836Y-97953898D01*
X135353748Y-97978667D01*
X135334392Y-97939746D01*
X135309976Y-97835647D01*
X135284589Y-97685361D01*
X135274004Y-97608250D01*
X135245369Y-97422947D01*
X135200015Y-97174842D01*
X135142110Y-96883183D01*
X135075822Y-96567218D01*
X135005316Y-96246195D01*
X134934761Y-95939361D01*
X134868324Y-95665966D01*
X134810170Y-95445257D01*
X134792301Y-95383197D01*
X134736484Y-95224477D01*
X134673530Y-95088603D01*
X134618731Y-95007064D01*
X134530901Y-94919234D01*
X134775794Y-94939543D01*
X134775794Y-94939543D01*
G37*
X134775794Y-94939543D02*
X134958946Y-94968635D01*
X135062192Y-95019237D01*
X135073558Y-95032156D01*
X135101924Y-95096281D01*
X135147693Y-95229721D01*
X135207233Y-95419779D01*
X135276911Y-95653757D01*
X135353094Y-95918958D01*
X135432149Y-96202684D01*
X135510444Y-96492240D01*
X135584344Y-96774927D01*
X135650219Y-97038049D01*
X135665049Y-97099461D01*
X135715828Y-97327509D01*
X135741577Y-97486686D01*
X135743728Y-97588550D01*
X135731196Y-97633405D01*
X135677425Y-97704699D01*
X135589593Y-97795919D01*
X135490723Y-97886005D01*
X135403836Y-97953898D01*
X135353748Y-97978667D01*
X135334392Y-97939746D01*
X135309976Y-97835647D01*
X135284589Y-97685361D01*
X135274004Y-97608250D01*
X135245369Y-97422947D01*
X135200015Y-97174842D01*
X135142110Y-96883183D01*
X135075822Y-96567218D01*
X135005316Y-96246195D01*
X134934761Y-95939361D01*
X134868324Y-95665966D01*
X134810170Y-95445257D01*
X134792301Y-95383197D01*
X134736484Y-95224477D01*
X134673530Y-95088603D01*
X134618731Y-95007064D01*
X134530901Y-94919234D01*
X134775794Y-94939543D01*
G36*
X161581892Y-96799400D02*
G01*
X161622894Y-96813838D01*
X161628194Y-96837927D01*
X161627708Y-96839496D01*
X161580429Y-96903813D01*
X161477501Y-97001404D01*
X161334565Y-97119868D01*
X161167262Y-97246801D01*
X160991230Y-97369802D01*
X160831333Y-97471018D01*
X160719737Y-97535024D01*
X160612850Y-97589292D01*
X160501482Y-97635564D01*
X160376439Y-97675580D01*
X160228530Y-97711083D01*
X160048563Y-97743815D01*
X159827346Y-97775516D01*
X159555687Y-97807930D01*
X159224394Y-97842797D01*
X158824275Y-97881859D01*
X158503000Y-97912192D01*
X158417485Y-97917169D01*
X158345261Y-97908044D01*
X158269166Y-97876247D01*
X158172041Y-97813210D01*
X158036724Y-97710362D01*
X157930430Y-97626271D01*
X157764449Y-97494393D01*
X157610811Y-97372476D01*
X157488743Y-97275771D01*
X157426550Y-97226657D01*
X157351732Y-97161164D01*
X157320652Y-97120322D01*
X157321787Y-97116592D01*
X157367434Y-97109249D01*
X157487251Y-97096361D01*
X157670982Y-97078765D01*
X157908373Y-97057301D01*
X158189166Y-97032807D01*
X158503107Y-97006121D01*
X158839940Y-96978081D01*
X159189409Y-96949526D01*
X159541259Y-96921294D01*
X159885235Y-96894223D01*
X160211079Y-96869151D01*
X160508538Y-96846918D01*
X160767355Y-96828361D01*
X160977274Y-96814319D01*
X161122862Y-96805884D01*
X161344056Y-96796234D01*
X161493006Y-96793802D01*
X161581892Y-96799400D01*
X161581892Y-96799400D01*
G37*
X161581892Y-96799400D02*
X161622894Y-96813838D01*
X161628194Y-96837927D01*
X161627708Y-96839496D01*
X161580429Y-96903813D01*
X161477501Y-97001404D01*
X161334565Y-97119868D01*
X161167262Y-97246801D01*
X160991230Y-97369802D01*
X160831333Y-97471018D01*
X160719737Y-97535024D01*
X160612850Y-97589292D01*
X160501482Y-97635564D01*
X160376439Y-97675580D01*
X160228530Y-97711083D01*
X160048563Y-97743815D01*
X159827346Y-97775516D01*
X159555687Y-97807930D01*
X159224394Y-97842797D01*
X158824275Y-97881859D01*
X158503000Y-97912192D01*
X158417485Y-97917169D01*
X158345261Y-97908044D01*
X158269166Y-97876247D01*
X158172041Y-97813210D01*
X158036724Y-97710362D01*
X157930430Y-97626271D01*
X157764449Y-97494393D01*
X157610811Y-97372476D01*
X157488743Y-97275771D01*
X157426550Y-97226657D01*
X157351732Y-97161164D01*
X157320652Y-97120322D01*
X157321787Y-97116592D01*
X157367434Y-97109249D01*
X157487251Y-97096361D01*
X157670982Y-97078765D01*
X157908373Y-97057301D01*
X158189166Y-97032807D01*
X158503107Y-97006121D01*
X158839940Y-96978081D01*
X159189409Y-96949526D01*
X159541259Y-96921294D01*
X159885235Y-96894223D01*
X160211079Y-96869151D01*
X160508538Y-96846918D01*
X160767355Y-96828361D01*
X160977274Y-96814319D01*
X161122862Y-96805884D01*
X161344056Y-96796234D01*
X161493006Y-96793802D01*
X161581892Y-96799400D01*
G36*
X136524879Y-95021098D02*
G01*
X136674067Y-95025516D01*
X136770146Y-95032590D01*
X136800638Y-95041138D01*
X136786000Y-95045849D01*
X136692949Y-95071512D01*
X136648309Y-95095226D01*
X136633840Y-95159381D01*
X136644737Y-95285965D01*
X136676442Y-95458203D01*
X136724399Y-95659322D01*
X136784049Y-95872547D01*
X136850834Y-96081104D01*
X136920198Y-96268219D01*
X136987582Y-96417118D01*
X137024670Y-96480407D01*
X137086415Y-96574457D01*
X137121573Y-96633948D01*
X137124667Y-96642022D01*
X137092326Y-96680027D01*
X137012611Y-96742440D01*
X136911484Y-96811353D01*
X136814904Y-96868861D01*
X136758504Y-96894578D01*
X136674968Y-96895555D01*
X136595249Y-96830753D01*
X136579661Y-96811659D01*
X136537790Y-96734550D01*
X136477778Y-96592997D01*
X136405317Y-96403796D01*
X136326099Y-96183747D01*
X136245816Y-95949646D01*
X136170162Y-95718293D01*
X136104829Y-95506484D01*
X136055508Y-95331019D01*
X136027893Y-95208694D01*
X136024000Y-95171920D01*
X136033507Y-95104052D01*
X136071091Y-95059077D01*
X136150347Y-95032902D01*
X136284869Y-95021432D01*
X136488253Y-95020575D01*
X136524879Y-95021098D01*
X136524879Y-95021098D01*
G37*
X136524879Y-95021098D02*
X136674067Y-95025516D01*
X136770146Y-95032590D01*
X136800638Y-95041138D01*
X136786000Y-95045849D01*
X136692949Y-95071512D01*
X136648309Y-95095226D01*
X136633840Y-95159381D01*
X136644737Y-95285965D01*
X136676442Y-95458203D01*
X136724399Y-95659322D01*
X136784049Y-95872547D01*
X136850834Y-96081104D01*
X136920198Y-96268219D01*
X136987582Y-96417118D01*
X137024670Y-96480407D01*
X137086415Y-96574457D01*
X137121573Y-96633948D01*
X137124667Y-96642022D01*
X137092326Y-96680027D01*
X137012611Y-96742440D01*
X136911484Y-96811353D01*
X136814904Y-96868861D01*
X136758504Y-96894578D01*
X136674968Y-96895555D01*
X136595249Y-96830753D01*
X136579661Y-96811659D01*
X136537790Y-96734550D01*
X136477778Y-96592997D01*
X136405317Y-96403796D01*
X136326099Y-96183747D01*
X136245816Y-95949646D01*
X136170162Y-95718293D01*
X136104829Y-95506484D01*
X136055508Y-95331019D01*
X136027893Y-95208694D01*
X136024000Y-95171920D01*
X136033507Y-95104052D01*
X136071091Y-95059077D01*
X136150347Y-95032902D01*
X136284869Y-95021432D01*
X136488253Y-95020575D01*
X136524879Y-95021098D01*
G36*
X137447474Y-96403123D02*
G01*
X137445021Y-96407714D01*
X137399610Y-96452842D01*
X137331479Y-96499236D01*
X137271997Y-96527945D01*
X137251667Y-96524525D01*
X137283081Y-96491575D01*
X137359040Y-96436393D01*
X137362712Y-96433977D01*
X137429607Y-96397303D01*
X137447474Y-96403123D01*
X137447474Y-96403123D01*
G37*
X137447474Y-96403123D02*
X137445021Y-96407714D01*
X137399610Y-96452842D01*
X137331479Y-96499236D01*
X137271997Y-96527945D01*
X137251667Y-96524525D01*
X137283081Y-96491575D01*
X137359040Y-96436393D01*
X137362712Y-96433977D01*
X137429607Y-96397303D01*
X137447474Y-96403123D01*
G36*
X138823154Y-95164376D02*
G01*
X138900445Y-95213396D01*
X138943795Y-95263733D01*
X138945000Y-95270823D01*
X138921553Y-95309845D01*
X138860613Y-95285909D01*
X138796833Y-95227000D01*
X138751012Y-95165959D01*
X138750722Y-95142333D01*
X138823154Y-95164376D01*
X138823154Y-95164376D01*
G37*
X138823154Y-95164376D02*
X138900445Y-95213396D01*
X138943795Y-95263733D01*
X138945000Y-95270823D01*
X138921553Y-95309845D01*
X138860613Y-95285909D01*
X138796833Y-95227000D01*
X138751012Y-95165959D01*
X138750722Y-95142333D01*
X138823154Y-95164376D01*
G36*
X138003577Y-95070913D02*
G01*
X138013473Y-95082356D01*
X137952679Y-95088777D01*
X137907833Y-95089324D01*
X137825851Y-95085156D01*
X137813413Y-95075595D01*
X137834243Y-95070059D01*
X137944548Y-95063243D01*
X138003577Y-95070913D01*
X138003577Y-95070913D01*
G37*
X138003577Y-95070913D02*
X138013473Y-95082356D01*
X137952679Y-95088777D01*
X137907833Y-95089324D01*
X137825851Y-95085156D01*
X137813413Y-95075595D01*
X137834243Y-95070059D01*
X137944548Y-95063243D01*
X138003577Y-95070913D01*
G36*
X147837237Y-89729171D02*
G01*
X147915477Y-89785143D01*
X148050178Y-89885236D01*
X148236187Y-90025476D01*
X148468350Y-90201893D01*
X148741516Y-90410513D01*
X149050531Y-90647365D01*
X149390242Y-90908476D01*
X149755497Y-91189875D01*
X150141142Y-91487589D01*
X150542025Y-91797646D01*
X150952993Y-92116074D01*
X151368893Y-92438901D01*
X151784572Y-92762155D01*
X152194877Y-93081863D01*
X152594655Y-93394055D01*
X152978754Y-93694756D01*
X153176457Y-93849878D01*
X154475081Y-94869678D01*
X157515624Y-94626960D01*
X158583016Y-94541951D01*
X159566576Y-94464034D01*
X160466837Y-94393167D01*
X161284332Y-94329309D01*
X162019594Y-94272422D01*
X162673156Y-94222463D01*
X163245551Y-94179393D01*
X163737313Y-94143171D01*
X164148975Y-94113757D01*
X164481071Y-94091110D01*
X164734132Y-94075190D01*
X164908694Y-94065957D01*
X164916500Y-94065622D01*
X165115645Y-94057420D01*
X165234097Y-94053494D01*
X165275750Y-94054436D01*
X165244497Y-94060841D01*
X165144232Y-94073301D01*
X165043500Y-94084973D01*
X164935292Y-94095963D01*
X164752763Y-94112731D01*
X164502246Y-94134769D01*
X164190078Y-94161569D01*
X163822592Y-94192622D01*
X163406123Y-94227421D01*
X162947007Y-94265456D01*
X162451578Y-94306221D01*
X161926170Y-94349207D01*
X161377120Y-94393905D01*
X160810761Y-94439807D01*
X160233428Y-94486405D01*
X159651456Y-94533191D01*
X159071180Y-94579657D01*
X158498935Y-94625294D01*
X157941056Y-94669595D01*
X157403876Y-94712050D01*
X156893732Y-94752153D01*
X156416958Y-94789393D01*
X155979889Y-94823264D01*
X155588859Y-94853258D01*
X155250203Y-94878865D01*
X154970257Y-94899578D01*
X154755354Y-94914888D01*
X154611830Y-94924288D01*
X154546020Y-94927268D01*
X154544833Y-94927238D01*
X154500195Y-94901224D01*
X154393611Y-94826444D01*
X154229714Y-94706432D01*
X154013139Y-94544722D01*
X153748521Y-94344849D01*
X153440495Y-94110346D01*
X153093695Y-93844750D01*
X152712755Y-93551592D01*
X152302311Y-93234409D01*
X151866996Y-92896734D01*
X151411445Y-92542102D01*
X151164943Y-92349699D01*
X150700910Y-91987019D01*
X150255349Y-91638475D01*
X149832848Y-91307669D01*
X149437993Y-90998209D01*
X149075371Y-90713698D01*
X148749570Y-90457742D01*
X148465176Y-90233946D01*
X148226777Y-90045916D01*
X148038960Y-89897255D01*
X147906311Y-89791570D01*
X147833417Y-89732465D01*
X147820610Y-89721291D01*
X147837237Y-89729171D01*
X147837237Y-89729171D01*
G37*
X147837237Y-89729171D02*
X147915477Y-89785143D01*
X148050178Y-89885236D01*
X148236187Y-90025476D01*
X148468350Y-90201893D01*
X148741516Y-90410513D01*
X149050531Y-90647365D01*
X149390242Y-90908476D01*
X149755497Y-91189875D01*
X150141142Y-91487589D01*
X150542025Y-91797646D01*
X150952993Y-92116074D01*
X151368893Y-92438901D01*
X151784572Y-92762155D01*
X152194877Y-93081863D01*
X152594655Y-93394055D01*
X152978754Y-93694756D01*
X153176457Y-93849878D01*
X154475081Y-94869678D01*
X157515624Y-94626960D01*
X158583016Y-94541951D01*
X159566576Y-94464034D01*
X160466837Y-94393167D01*
X161284332Y-94329309D01*
X162019594Y-94272422D01*
X162673156Y-94222463D01*
X163245551Y-94179393D01*
X163737313Y-94143171D01*
X164148975Y-94113757D01*
X164481071Y-94091110D01*
X164734132Y-94075190D01*
X164908694Y-94065957D01*
X164916500Y-94065622D01*
X165115645Y-94057420D01*
X165234097Y-94053494D01*
X165275750Y-94054436D01*
X165244497Y-94060841D01*
X165144232Y-94073301D01*
X165043500Y-94084973D01*
X164935292Y-94095963D01*
X164752763Y-94112731D01*
X164502246Y-94134769D01*
X164190078Y-94161569D01*
X163822592Y-94192622D01*
X163406123Y-94227421D01*
X162947007Y-94265456D01*
X162451578Y-94306221D01*
X161926170Y-94349207D01*
X161377120Y-94393905D01*
X160810761Y-94439807D01*
X160233428Y-94486405D01*
X159651456Y-94533191D01*
X159071180Y-94579657D01*
X158498935Y-94625294D01*
X157941056Y-94669595D01*
X157403876Y-94712050D01*
X156893732Y-94752153D01*
X156416958Y-94789393D01*
X155979889Y-94823264D01*
X155588859Y-94853258D01*
X155250203Y-94878865D01*
X154970257Y-94899578D01*
X154755354Y-94914888D01*
X154611830Y-94924288D01*
X154546020Y-94927268D01*
X154544833Y-94927238D01*
X154500195Y-94901224D01*
X154393611Y-94826444D01*
X154229714Y-94706432D01*
X154013139Y-94544722D01*
X153748521Y-94344849D01*
X153440495Y-94110346D01*
X153093695Y-93844750D01*
X152712755Y-93551592D01*
X152302311Y-93234409D01*
X151866996Y-92896734D01*
X151411445Y-92542102D01*
X151164943Y-92349699D01*
X150700910Y-91987019D01*
X150255349Y-91638475D01*
X149832848Y-91307669D01*
X149437993Y-90998209D01*
X149075371Y-90713698D01*
X148749570Y-90457742D01*
X148465176Y-90233946D01*
X148226777Y-90045916D01*
X148038960Y-89897255D01*
X147906311Y-89791570D01*
X147833417Y-89732465D01*
X147820610Y-89721291D01*
X147837237Y-89729171D01*
G36*
X147645577Y-89567618D02*
G01*
X147676250Y-89591267D01*
X147742065Y-89653057D01*
X147741778Y-89680638D01*
X147734350Y-89681333D01*
X147699013Y-89652404D01*
X147660267Y-89607250D01*
X147623655Y-89557106D01*
X147645577Y-89567618D01*
X147645577Y-89567618D01*
G37*
X147645577Y-89567618D02*
X147676250Y-89591267D01*
X147742065Y-89653057D01*
X147741778Y-89680638D01*
X147734350Y-89681333D01*
X147699013Y-89652404D01*
X147660267Y-89607250D01*
X147623655Y-89557106D01*
X147645577Y-89567618D01*
G36*
X150531184Y-122076393D02*
G01*
X150544333Y-122103285D01*
X150514988Y-122148117D01*
X150437639Y-122233184D01*
X150328320Y-122343329D01*
X150203063Y-122463400D01*
X150077899Y-122578240D01*
X149968862Y-122672694D01*
X149891983Y-122731609D01*
X149866872Y-122743667D01*
X149825846Y-122714169D01*
X149824667Y-122705135D01*
X149851237Y-122647260D01*
X149920065Y-122548296D01*
X150014830Y-122428284D01*
X150119209Y-122307263D01*
X150216879Y-122205273D01*
X150271057Y-122157076D01*
X150372267Y-122096117D01*
X150467255Y-122067593D01*
X150531184Y-122076393D01*
X150531184Y-122076393D01*
G37*
X150531184Y-122076393D02*
X150544333Y-122103285D01*
X150514988Y-122148117D01*
X150437639Y-122233184D01*
X150328320Y-122343329D01*
X150203063Y-122463400D01*
X150077899Y-122578240D01*
X149968862Y-122672694D01*
X149891983Y-122731609D01*
X149866872Y-122743667D01*
X149825846Y-122714169D01*
X149824667Y-122705135D01*
X149851237Y-122647260D01*
X149920065Y-122548296D01*
X150014830Y-122428284D01*
X150119209Y-122307263D01*
X150216879Y-122205273D01*
X150271057Y-122157076D01*
X150372267Y-122096117D01*
X150467255Y-122067593D01*
X150531184Y-122076393D01*
M02*
