M48
; DRILL file {KiCad 9.0.2} date 2025-06-25T16:30:59-0500
; FORMAT={-:-/ absolute / metric / decimal}
; #@! TF.CreationDate,2025-06-25T16:30:59-05:00
; #@! TF.GenerationSoftware,Kicad,Pcbnew,9.0.2
; #@! TF.FileFunction,NonPlated,1,2,NPTH
FMAT,2
METRIC
; #@! TA.AperFunction,NonPlated,NPTH,ComponentDrill
T1C0.500
; #@! TA.AperFunction,NonPlated,NPTH,ComponentDrill
T2C1.500
%
G90
G05
T1
X43.228Y-28.0
X43.228Y-219.039
X44.228Y-28.0
X44.228Y-219.039
X45.228Y-28.0
X45.228Y-219.039
X46.228Y-28.0
X46.228Y-219.039
X47.228Y-28.0
X47.228Y-219.039
X55.544Y-44.265
X55.544Y-82.873
X55.544Y-121.481
X55.544Y-160.089
X55.544Y-198.696
X55.954Y-45.246
X55.954Y-83.854
X55.954Y-122.461
X55.954Y-161.069
X55.954Y-199.677
X56.364Y-46.227
X56.364Y-84.834
X56.364Y-123.442
X56.364Y-162.05
X56.364Y-200.658
X56.774Y-47.207
X56.774Y-85.815
X56.774Y-124.423
X56.774Y-163.03
X56.774Y-201.638
X57.185Y-48.188
X57.185Y-86.796
X57.185Y-125.403
X57.185Y-164.011
X57.185Y-202.619
X61.22Y-34.089
X61.22Y-72.697
X61.22Y-111.304
X61.22Y-149.912
X61.22Y-188.52
X61.482Y-57.889
X61.482Y-96.496
X61.482Y-135.104
X61.482Y-173.712
X61.482Y-212.319
X62.319Y-33.724
X62.319Y-72.331
X62.319Y-110.939
X62.319Y-149.547
X62.319Y-188.154
X62.422Y-58.696
X62.422Y-97.303
X62.422Y-135.911
X62.422Y-174.519
X62.422Y-213.126
X63.296Y-32.979
X63.296Y-71.587
X63.296Y-110.195
X63.296Y-148.802
X63.296Y-187.41
X63.362Y-59.503
X63.362Y-98.11
X63.362Y-136.718
X63.362Y-175.326
X63.362Y-213.934
X64.273Y-32.235
X64.273Y-70.843
X64.273Y-109.45
X64.273Y-148.058
X64.273Y-186.666
X64.301Y-60.31
X64.301Y-98.917
X64.301Y-137.525
X64.301Y-176.133
X64.301Y-214.741
X65.241Y-61.117
X65.241Y-99.725
X65.241Y-138.332
X65.241Y-176.94
X65.241Y-215.548
X65.25Y-31.491
X65.25Y-70.098
X65.25Y-108.706
X65.25Y-147.314
X65.25Y-185.922
X73.717Y-31.549
X73.717Y-70.157
X73.717Y-108.765
X73.717Y-147.373
X73.717Y-185.98
X73.723Y-60.35
X73.723Y-98.958
X73.723Y-137.566
X73.723Y-176.173
X73.723Y-214.781
X74.664Y-59.555
X74.664Y-98.162
X74.664Y-136.77
X74.664Y-175.378
X74.664Y-213.986
X74.674Y-32.298
X74.674Y-70.905
X74.674Y-109.513
X74.674Y-148.121
X74.674Y-186.728
X75.605Y-58.759
X75.605Y-97.367
X75.605Y-135.975
X75.605Y-174.582
X75.605Y-213.19
X75.632Y-33.046
X75.632Y-71.654
X75.632Y-110.261
X75.632Y-148.869
X75.632Y-187.477
X76.546Y-57.963
X76.546Y-96.571
X76.546Y-135.179
X76.546Y-173.787
X76.546Y-212.394
X76.589Y-33.794
X76.589Y-72.402
X76.589Y-111.009
X76.589Y-149.617
X76.589Y-188.225
X77.748Y-33.897
X77.748Y-72.504
X77.748Y-111.112
X77.748Y-149.72
X77.748Y-188.327
X81.239Y-48.18
X81.239Y-86.788
X81.239Y-125.395
X81.239Y-164.003
X81.239Y-202.611
X81.672Y-47.201
X81.672Y-85.809
X81.672Y-124.417
X81.672Y-163.024
X81.672Y-201.632
X82.106Y-46.223
X82.106Y-84.831
X82.106Y-123.438
X82.106Y-162.046
X82.106Y-200.654
X82.54Y-45.244
X82.54Y-83.852
X82.54Y-122.46
X82.54Y-161.067
X82.54Y-199.675
X82.973Y-44.266
X82.973Y-82.873
X82.973Y-121.481
X82.973Y-160.089
X82.973Y-198.697
X95.053Y-44.265
X95.053Y-82.873
X95.053Y-121.481
X95.053Y-160.089
X95.053Y-198.696
X95.463Y-45.246
X95.463Y-83.854
X95.463Y-122.461
X95.463Y-161.069
X95.463Y-199.677
X95.873Y-46.227
X95.873Y-84.834
X95.873Y-123.442
X95.873Y-162.05
X95.873Y-200.658
X96.283Y-47.207
X96.283Y-85.815
X96.283Y-124.423
X96.283Y-163.03
X96.283Y-201.638
X96.693Y-48.188
X96.693Y-86.796
X96.693Y-125.403
X96.693Y-164.011
X96.693Y-202.619
X100.729Y-34.089
X100.729Y-72.697
X100.729Y-111.304
X100.729Y-149.912
X100.729Y-188.52
X100.991Y-57.889
X100.991Y-96.496
X100.991Y-135.104
X100.991Y-173.712
X100.991Y-212.319
X101.828Y-33.724
X101.828Y-72.331
X101.828Y-110.939
X101.828Y-149.547
X101.828Y-188.154
X101.931Y-58.696
X101.931Y-97.303
X101.931Y-135.911
X101.931Y-174.519
X101.931Y-213.126
X102.805Y-32.979
X102.805Y-71.587
X102.805Y-110.195
X102.805Y-148.802
X102.805Y-187.41
X102.87Y-59.503
X102.87Y-98.11
X102.87Y-136.718
X102.87Y-175.326
X102.87Y-213.934
X103.782Y-32.235
X103.782Y-70.843
X103.782Y-109.45
X103.782Y-148.058
X103.782Y-186.666
X103.81Y-60.31
X103.81Y-98.917
X103.81Y-137.525
X103.81Y-176.133
X103.81Y-214.741
X104.75Y-61.117
X104.75Y-99.725
X104.75Y-138.332
X104.75Y-176.94
X104.75Y-215.548
X104.759Y-31.491
X104.759Y-70.098
X104.759Y-108.706
X104.759Y-147.314
X104.759Y-185.922
X113.226Y-31.549
X113.226Y-70.157
X113.226Y-108.765
X113.226Y-147.373
X113.226Y-185.98
X113.232Y-60.35
X113.232Y-98.958
X113.232Y-137.566
X113.232Y-176.173
X113.232Y-214.781
X114.173Y-59.555
X114.173Y-98.162
X114.173Y-136.77
X114.173Y-175.378
X114.173Y-213.986
X114.183Y-32.298
X114.183Y-70.905
X114.183Y-109.513
X114.183Y-148.121
X114.183Y-186.728
X115.114Y-58.759
X115.114Y-97.367
X115.114Y-135.975
X115.114Y-174.582
X115.114Y-213.19
X115.14Y-33.046
X115.14Y-71.654
X115.14Y-110.261
X115.14Y-148.869
X115.14Y-187.477
X116.055Y-57.963
X116.055Y-96.571
X116.055Y-135.179
X116.055Y-173.787
X116.055Y-212.394
X116.098Y-33.794
X116.098Y-72.402
X116.098Y-111.009
X116.098Y-149.617
X116.098Y-188.225
X117.257Y-33.897
X117.257Y-72.504
X117.257Y-111.112
X117.257Y-149.72
X117.257Y-188.327
X120.747Y-48.18
X120.747Y-86.788
X120.747Y-125.395
X120.747Y-164.003
X120.747Y-202.611
X121.181Y-47.201
X121.181Y-85.809
X121.181Y-124.417
X121.181Y-163.024
X121.181Y-201.632
X121.615Y-46.223
X121.615Y-84.831
X121.615Y-123.438
X121.615Y-162.046
X121.615Y-200.654
X122.048Y-45.244
X122.048Y-83.852
X122.048Y-122.46
X122.048Y-161.067
X122.048Y-199.675
X122.482Y-44.266
X122.482Y-82.873
X122.482Y-121.481
X122.482Y-160.089
X122.482Y-198.697
X134.561Y-44.265
X134.561Y-82.873
X134.561Y-121.481
X134.561Y-160.089
X134.561Y-198.696
X134.971Y-45.246
X134.971Y-83.854
X134.971Y-122.461
X134.971Y-161.069
X134.971Y-199.677
X135.382Y-46.227
X135.382Y-84.834
X135.382Y-123.442
X135.382Y-162.05
X135.382Y-200.658
X135.792Y-47.207
X135.792Y-85.815
X135.792Y-124.423
X135.792Y-163.03
X135.792Y-201.638
X136.202Y-48.188
X136.202Y-86.796
X136.202Y-125.403
X136.202Y-164.011
X136.202Y-202.619
X140.238Y-34.089
X140.238Y-72.697
X140.238Y-111.304
X140.238Y-149.912
X140.238Y-188.52
X140.5Y-57.889
X140.5Y-96.496
X140.5Y-135.104
X140.5Y-173.712
X140.5Y-212.319
X141.337Y-33.724
X141.337Y-72.331
X141.337Y-110.939
X141.337Y-149.547
X141.337Y-188.154
X141.439Y-58.696
X141.439Y-97.303
X141.439Y-135.911
X141.439Y-174.519
X141.439Y-213.126
X142.314Y-32.979
X142.314Y-71.587
X142.314Y-110.195
X142.314Y-148.802
X142.314Y-187.41
X142.379Y-59.503
X142.379Y-98.11
X142.379Y-136.718
X142.379Y-175.326
X142.379Y-213.934
X143.29Y-32.235
X143.29Y-70.843
X143.29Y-109.45
X143.29Y-148.058
X143.29Y-186.666
X143.319Y-60.31
X143.319Y-98.917
X143.319Y-137.525
X143.319Y-176.133
X143.319Y-214.741
X144.258Y-61.117
X144.258Y-99.725
X144.258Y-138.332
X144.258Y-176.94
X144.258Y-215.548
X144.267Y-31.491
X144.267Y-70.098
X144.267Y-108.706
X144.267Y-147.314
X144.267Y-185.922
X152.734Y-31.549
X152.734Y-70.157
X152.734Y-108.765
X152.734Y-147.373
X152.734Y-185.98
X152.74Y-60.35
X152.74Y-98.958
X152.74Y-137.566
X152.74Y-176.173
X152.74Y-214.781
X153.681Y-59.555
X153.681Y-98.162
X153.681Y-136.77
X153.681Y-175.378
X153.681Y-213.986
X153.692Y-32.298
X153.692Y-70.905
X153.692Y-109.513
X153.692Y-148.121
X153.692Y-186.728
X154.622Y-58.759
X154.622Y-97.367
X154.622Y-135.975
X154.622Y-174.582
X154.622Y-213.19
X154.649Y-33.046
X154.649Y-71.654
X154.649Y-110.261
X154.649Y-148.869
X154.649Y-187.477
X155.563Y-57.963
X155.563Y-96.571
X155.563Y-135.179
X155.563Y-173.787
X155.563Y-212.394
X155.606Y-33.794
X155.606Y-72.402
X155.606Y-111.009
X155.606Y-149.617
X155.606Y-188.225
X156.765Y-33.897
X156.765Y-72.504
X156.765Y-111.112
X156.765Y-149.72
X156.765Y-188.327
X160.256Y-48.18
X160.256Y-86.788
X160.256Y-125.395
X160.256Y-164.003
X160.256Y-202.611
X160.69Y-47.201
X160.69Y-85.809
X160.69Y-124.417
X160.69Y-163.024
X160.69Y-201.632
X161.123Y-46.223
X161.123Y-84.831
X161.123Y-123.438
X161.123Y-162.046
X161.123Y-200.654
X161.557Y-45.244
X161.557Y-83.852
X161.557Y-122.46
X161.557Y-161.067
X161.557Y-199.675
X161.991Y-44.266
X161.991Y-82.873
X161.991Y-121.481
X161.991Y-160.089
X161.991Y-198.697
X174.07Y-44.265
X174.07Y-82.873
X174.07Y-121.481
X174.07Y-160.089
X174.07Y-198.696
X174.48Y-45.246
X174.48Y-83.854
X174.48Y-122.461
X174.48Y-161.069
X174.48Y-199.677
X174.89Y-46.227
X174.89Y-84.834
X174.89Y-123.442
X174.89Y-162.05
X174.89Y-200.658
X175.3Y-47.207
X175.3Y-85.815
X175.3Y-124.423
X175.3Y-163.03
X175.3Y-201.638
X175.71Y-48.188
X175.71Y-86.796
X175.71Y-125.403
X175.71Y-164.011
X175.71Y-202.619
X179.746Y-34.089
X179.746Y-72.697
X179.746Y-111.304
X179.746Y-149.912
X179.746Y-188.52
X180.008Y-57.889
X180.008Y-96.496
X180.008Y-135.104
X180.008Y-173.712
X180.008Y-212.319
X180.845Y-33.724
X180.845Y-72.331
X180.845Y-110.939
X180.845Y-149.547
X180.845Y-188.154
X180.948Y-58.696
X180.948Y-97.303
X180.948Y-135.911
X180.948Y-174.519
X180.948Y-213.126
X181.822Y-32.979
X181.822Y-71.587
X181.822Y-110.195
X181.822Y-148.802
X181.822Y-187.41
X181.887Y-59.503
X181.887Y-98.11
X181.887Y-136.718
X181.887Y-175.326
X181.887Y-213.934
X182.799Y-32.235
X182.799Y-70.843
X182.799Y-109.45
X182.799Y-148.058
X182.799Y-186.666
X182.827Y-60.31
X182.827Y-98.917
X182.827Y-137.525
X182.827Y-176.133
X182.827Y-214.741
X183.767Y-61.117
X183.767Y-99.725
X183.767Y-138.332
X183.767Y-176.94
X183.767Y-215.548
X183.776Y-31.491
X183.776Y-70.098
X183.776Y-108.706
X183.776Y-147.314
X183.776Y-185.922
X192.243Y-31.549
X192.243Y-70.157
X192.243Y-108.765
X192.243Y-147.373
X192.243Y-185.98
X192.249Y-60.35
X192.249Y-98.958
X192.249Y-137.566
X192.249Y-176.173
X192.249Y-214.781
X193.19Y-59.555
X193.19Y-98.162
X193.19Y-136.77
X193.19Y-175.378
X193.19Y-213.986
X193.2Y-32.298
X193.2Y-70.905
X193.2Y-109.513
X193.2Y-148.121
X193.2Y-186.728
X194.131Y-58.759
X194.131Y-97.367
X194.131Y-135.975
X194.131Y-174.582
X194.131Y-213.19
X194.158Y-33.046
X194.158Y-71.654
X194.158Y-110.261
X194.158Y-148.869
X194.158Y-187.477
X195.072Y-57.963
X195.072Y-96.571
X195.072Y-135.179
X195.072Y-173.787
X195.072Y-212.394
X195.115Y-33.794
X195.115Y-72.402
X195.115Y-111.009
X195.115Y-149.617
X195.115Y-188.225
X196.274Y-33.897
X196.274Y-72.504
X196.274Y-111.112
X196.274Y-149.72
X196.274Y-188.327
X199.765Y-48.18
X199.765Y-86.788
X199.765Y-125.395
X199.765Y-164.003
X199.765Y-202.611
X200.198Y-47.201
X200.198Y-85.809
X200.198Y-124.417
X200.198Y-163.024
X200.198Y-201.632
X200.632Y-46.223
X200.632Y-84.831
X200.632Y-123.438
X200.632Y-162.046
X200.632Y-200.654
X201.066Y-45.244
X201.066Y-83.852
X201.066Y-122.46
X201.066Y-161.067
X201.066Y-199.675
X201.499Y-44.266
X201.499Y-82.873
X201.499Y-121.481
X201.499Y-160.089
X201.499Y-198.697
X213.578Y-44.265
X213.578Y-82.873
X213.578Y-121.481
X213.578Y-160.089
X213.578Y-198.696
X213.989Y-45.246
X213.989Y-83.854
X213.989Y-122.461
X213.989Y-161.069
X213.989Y-199.677
X214.399Y-46.227
X214.399Y-84.834
X214.399Y-123.442
X214.399Y-162.05
X214.399Y-200.658
X214.809Y-47.207
X214.809Y-85.815
X214.809Y-124.423
X214.809Y-163.03
X214.809Y-201.638
X215.219Y-48.188
X215.219Y-86.796
X215.219Y-125.403
X215.219Y-164.011
X215.219Y-202.619
X219.255Y-34.089
X219.255Y-72.697
X219.255Y-111.304
X219.255Y-149.912
X219.255Y-188.52
X219.517Y-57.889
X219.517Y-96.496
X219.517Y-135.104
X219.517Y-173.712
X219.517Y-212.319
X220.354Y-33.724
X220.354Y-72.331
X220.354Y-110.939
X220.354Y-149.547
X220.354Y-188.154
X220.456Y-58.696
X220.456Y-97.303
X220.456Y-135.911
X220.456Y-174.519
X220.456Y-213.126
X221.331Y-32.979
X221.331Y-71.587
X221.331Y-110.195
X221.331Y-148.802
X221.331Y-187.41
X221.396Y-59.503
X221.396Y-98.11
X221.396Y-136.718
X221.396Y-175.326
X221.396Y-213.934
X222.308Y-32.235
X222.308Y-70.843
X222.308Y-109.45
X222.308Y-148.058
X222.308Y-186.666
X222.336Y-60.31
X222.336Y-98.917
X222.336Y-137.525
X222.336Y-176.133
X222.336Y-214.741
X223.275Y-61.117
X223.275Y-99.725
X223.275Y-138.332
X223.275Y-176.94
X223.275Y-215.548
X223.285Y-31.491
X223.285Y-70.098
X223.285Y-108.706
X223.285Y-147.314
X223.285Y-185.922
X231.752Y-31.549
X231.752Y-70.157
X231.752Y-108.765
X231.752Y-147.373
X231.752Y-185.98
X231.758Y-60.35
X231.758Y-98.958
X231.758Y-137.566
X231.758Y-176.173
X231.758Y-214.781
X232.699Y-59.555
X232.699Y-98.162
X232.699Y-136.77
X232.699Y-175.378
X232.699Y-213.986
X232.709Y-32.298
X232.709Y-70.905
X232.709Y-109.513
X232.709Y-148.121
X232.709Y-186.728
X233.64Y-58.759
X233.64Y-97.367
X233.64Y-135.975
X233.64Y-174.582
X233.64Y-213.19
X233.666Y-33.046
X233.666Y-71.654
X233.666Y-110.261
X233.666Y-148.869
X233.666Y-187.477
X234.58Y-57.963
X234.58Y-96.571
X234.58Y-135.179
X234.58Y-173.787
X234.58Y-212.394
X234.624Y-33.794
X234.624Y-72.402
X234.624Y-111.009
X234.624Y-149.617
X234.624Y-188.225
X235.783Y-33.897
X235.783Y-72.504
X235.783Y-111.112
X235.783Y-149.72
X235.783Y-188.327
X239.273Y-48.18
X239.273Y-86.788
X239.273Y-125.395
X239.273Y-164.003
X239.273Y-202.611
X239.707Y-47.201
X239.707Y-85.809
X239.707Y-124.417
X239.707Y-163.024
X239.707Y-201.632
X240.141Y-46.223
X240.141Y-84.831
X240.141Y-123.438
X240.141Y-162.046
X240.141Y-200.654
X240.574Y-45.244
X240.574Y-83.852
X240.574Y-122.46
X240.574Y-161.067
X240.574Y-199.675
X241.008Y-44.266
X241.008Y-82.873
X241.008Y-121.481
X241.008Y-160.089
X241.008Y-198.697
X249.772Y-28.0
X249.772Y-219.039
X250.772Y-28.0
X250.772Y-219.039
X251.772Y-28.0
X251.772Y-219.039
X252.772Y-28.0
X252.772Y-219.039
X253.772Y-28.0
X253.772Y-219.039
T2
X45.228Y-22.5
X45.228Y-224.539
X251.772Y-22.5
X251.772Y-224.539
M30
