M48
; DRILL file {KiCad 9.0.2} date 2025-06-25T16:30:59-0500
; FORMAT={-:-/ absolute / metric / decimal}
; #@! TF.CreationDate,2025-06-25T16:30:59-05:00
; #@! TF.GenerationSoftware,Kicad,Pcbnew,9.0.2
; #@! TF.FileFunction,Plated,1,2,PTH
FMAT,2
METRIC
; #@! TA.AperFunction,Plated,PTH,ViaDrill
T1C0.400
%
G90
G05
T1
X55.343Y-35.621
X55.343Y-74.228
X55.343Y-112.836
X55.343Y-151.444
X55.343Y-190.052
X58.483Y-42.251
X58.483Y-80.858
X58.483Y-119.466
X58.483Y-158.074
X58.483Y-196.682
X64.253Y-58.491
X64.253Y-97.098
X64.253Y-135.706
X64.253Y-174.314
X64.253Y-212.922
X69.223Y-63.431
X69.223Y-102.038
X69.223Y-140.646
X69.223Y-179.254
X69.223Y-217.862
X69.823Y-58.511
X69.823Y-97.118
X69.823Y-135.726
X69.823Y-174.334
X69.823Y-212.942
X69.923Y-56.931
X69.923Y-95.538
X69.923Y-134.146
X69.923Y-172.754
X69.923Y-211.362
X70.673Y-49.656
X70.673Y-88.263
X70.673Y-126.871
X70.673Y-165.479
X70.673Y-204.087
X73.073Y-59.881
X73.073Y-98.488
X73.073Y-137.096
X73.073Y-175.704
X73.073Y-214.312
X77.093Y-46.981
X77.093Y-85.588
X77.093Y-124.196
X77.093Y-162.804
X77.093Y-201.412
X77.623Y-54.281
X77.623Y-92.888
X77.623Y-131.496
X77.623Y-170.104
X77.623Y-208.712
X81.293Y-40.011
X81.293Y-78.618
X81.293Y-117.226
X81.293Y-155.834
X81.293Y-194.442
X81.623Y-38.831
X81.623Y-77.438
X81.623Y-116.046
X81.623Y-154.654
X81.623Y-193.262
X83.323Y-34.431
X83.323Y-73.038
X83.323Y-111.646
X83.323Y-150.254
X83.323Y-188.862
X94.851Y-35.621
X94.851Y-74.228
X94.851Y-112.836
X94.851Y-151.444
X94.851Y-190.052
X97.991Y-42.251
X97.991Y-80.858
X97.991Y-119.466
X97.991Y-158.074
X97.991Y-196.682
X103.761Y-58.491
X103.761Y-97.098
X103.761Y-135.706
X103.761Y-174.314
X103.761Y-212.922
X108.731Y-63.431
X108.731Y-102.038
X108.731Y-140.646
X108.731Y-179.254
X108.731Y-217.862
X109.331Y-58.511
X109.331Y-97.118
X109.331Y-135.726
X109.331Y-174.334
X109.331Y-212.942
X109.431Y-56.931
X109.431Y-95.538
X109.431Y-134.146
X109.431Y-172.754
X109.431Y-211.362
X110.181Y-49.656
X110.181Y-88.263
X110.181Y-126.871
X110.181Y-165.479
X110.181Y-204.087
X112.581Y-59.881
X112.581Y-98.488
X112.581Y-137.096
X112.581Y-175.704
X112.581Y-214.312
X116.601Y-46.981
X116.601Y-85.588
X116.601Y-124.196
X116.601Y-162.804
X116.601Y-201.412
X117.131Y-54.281
X117.131Y-92.888
X117.131Y-131.496
X117.131Y-170.104
X117.131Y-208.712
X120.801Y-40.011
X120.801Y-78.618
X120.801Y-117.226
X120.801Y-155.834
X120.801Y-194.442
X121.131Y-38.831
X121.131Y-77.438
X121.131Y-116.046
X121.131Y-154.654
X121.131Y-193.262
X122.831Y-34.431
X122.831Y-73.038
X122.831Y-111.646
X122.831Y-150.254
X122.831Y-188.862
X134.36Y-35.621
X134.36Y-74.228
X134.36Y-112.836
X134.36Y-151.444
X134.36Y-190.052
X137.5Y-42.251
X137.5Y-80.858
X137.5Y-119.466
X137.5Y-158.074
X137.5Y-196.682
X143.27Y-58.491
X143.27Y-97.098
X143.27Y-135.706
X143.27Y-174.314
X143.27Y-212.922
X148.24Y-63.431
X148.24Y-102.038
X148.24Y-140.646
X148.24Y-179.254
X148.24Y-217.862
X148.84Y-58.511
X148.84Y-97.118
X148.84Y-135.726
X148.84Y-174.334
X148.84Y-212.942
X148.94Y-56.931
X148.94Y-95.538
X148.94Y-134.146
X148.94Y-172.754
X148.94Y-211.362
X149.69Y-49.656
X149.69Y-88.263
X149.69Y-126.871
X149.69Y-165.479
X149.69Y-204.087
X152.09Y-59.881
X152.09Y-98.488
X152.09Y-137.096
X152.09Y-175.704
X152.09Y-214.312
X156.11Y-46.981
X156.11Y-85.588
X156.11Y-124.196
X156.11Y-162.804
X156.11Y-201.412
X156.64Y-54.281
X156.64Y-92.888
X156.64Y-131.496
X156.64Y-170.104
X156.64Y-208.712
X160.31Y-40.011
X160.31Y-78.618
X160.31Y-117.226
X160.31Y-155.834
X160.31Y-194.442
X160.64Y-38.831
X160.64Y-77.438
X160.64Y-116.046
X160.64Y-154.654
X160.64Y-193.262
X162.34Y-34.431
X162.34Y-73.038
X162.34Y-111.646
X162.34Y-150.254
X162.34Y-188.862
X173.868Y-35.621
X173.868Y-74.228
X173.868Y-112.836
X173.868Y-151.444
X173.868Y-190.052
X177.008Y-42.251
X177.008Y-80.858
X177.008Y-119.466
X177.008Y-158.074
X177.008Y-196.682
X182.778Y-58.491
X182.778Y-97.098
X182.778Y-135.706
X182.778Y-174.314
X182.778Y-212.922
X187.748Y-63.431
X187.748Y-102.038
X187.748Y-140.646
X187.748Y-179.254
X187.748Y-217.862
X188.348Y-58.511
X188.348Y-97.118
X188.348Y-135.726
X188.348Y-174.334
X188.348Y-212.942
X188.448Y-56.931
X188.448Y-95.538
X188.448Y-134.146
X188.448Y-172.754
X188.448Y-211.362
X189.198Y-49.656
X189.198Y-88.263
X189.198Y-126.871
X189.198Y-165.479
X189.198Y-204.087
X191.598Y-59.881
X191.598Y-98.488
X191.598Y-137.096
X191.598Y-175.704
X191.598Y-214.312
X195.618Y-46.981
X195.618Y-85.588
X195.618Y-124.196
X195.618Y-162.804
X195.618Y-201.412
X196.148Y-54.281
X196.148Y-92.888
X196.148Y-131.496
X196.148Y-170.104
X196.148Y-208.712
X199.818Y-40.011
X199.818Y-78.618
X199.818Y-117.226
X199.818Y-155.834
X199.818Y-194.442
X200.148Y-38.831
X200.148Y-77.438
X200.148Y-116.046
X200.148Y-154.654
X200.148Y-193.262
X201.848Y-34.431
X201.848Y-73.038
X201.848Y-111.646
X201.848Y-150.254
X201.848Y-188.862
X213.377Y-35.621
X213.377Y-74.228
X213.377Y-112.836
X213.377Y-151.444
X213.377Y-190.052
X216.517Y-42.251
X216.517Y-80.858
X216.517Y-119.466
X216.517Y-158.074
X216.517Y-196.682
X222.287Y-58.491
X222.287Y-97.098
X222.287Y-135.706
X222.287Y-174.314
X222.287Y-212.922
X227.257Y-63.431
X227.257Y-102.038
X227.257Y-140.646
X227.257Y-179.254
X227.257Y-217.862
X227.857Y-58.511
X227.857Y-97.118
X227.857Y-135.726
X227.857Y-174.334
X227.857Y-212.942
X227.957Y-56.931
X227.957Y-95.538
X227.957Y-134.146
X227.957Y-172.754
X227.957Y-211.362
X228.707Y-49.656
X228.707Y-88.263
X228.707Y-126.871
X228.707Y-165.479
X228.707Y-204.087
X231.107Y-59.881
X231.107Y-98.488
X231.107Y-137.096
X231.107Y-175.704
X231.107Y-214.312
X235.127Y-46.981
X235.127Y-85.588
X235.127Y-124.196
X235.127Y-162.804
X235.127Y-201.412
X235.657Y-54.281
X235.657Y-92.888
X235.657Y-131.496
X235.657Y-170.104
X235.657Y-208.712
X239.327Y-40.011
X239.327Y-78.618
X239.327Y-117.226
X239.327Y-155.834
X239.327Y-194.442
X239.657Y-38.831
X239.657Y-77.438
X239.657Y-116.046
X239.657Y-154.654
X239.657Y-193.262
X241.357Y-34.431
X241.357Y-73.038
X241.357Y-111.646
X241.357Y-150.254
X241.357Y-188.862
M30
