%TF.GenerationSoftware,KiCad,Pcbnew,9.0.2*%
%TF.CreationDate,2025-06-25T16:30:57-05:00*%
%TF.ProjectId,panel,70616e65-6c2e-46b6-9963-61645f706362,rev?*%
%TF.SameCoordinates,Original*%
%TF.FileFunction,Soldermask,Bot*%
%TF.FilePolarity,Negative*%
%FSLAX46Y46*%
G04 Gerber Fmt 4.6, Leading zero omitted, Abs format (unit mm)*
G04 Created by KiCad (PCBNEW 9.0.2) date 2025-06-25 16:30:57*
%MOMM*%
%LPD*%
G01*
G04 APERTURE LIST*
G04 Aperture macros list*
%AMRoundRect*
0 Rectangle with rounded corners*
0 $1 Rounding radius*
0 $2 $3 $4 $5 $6 $7 $8 $9 X,Y pos of 4 corners*
0 Add a 4 corners polygon primitive as box body*
4,1,4,$2,$3,$4,$5,$6,$7,$8,$9,$2,$3,0*
0 Add four circle primitives for the rounded corners*
1,1,$1+$1,$2,$3*
1,1,$1+$1,$4,$5*
1,1,$1+$1,$6,$7*
1,1,$1+$1,$8,$9*
0 Add four rect primitives between the rounded corners*
20,1,$1+$1,$2,$3,$4,$5,0*
20,1,$1+$1,$4,$5,$6,$7,0*
20,1,$1+$1,$6,$7,$8,$9,0*
20,1,$1+$1,$8,$9,$2,$3,0*%
G04 Aperture macros list end*
%ADD10C,0.010000*%
%ADD11C,0.500000*%
%ADD12C,1.500000*%
%ADD13RoundRect,0.200000X-0.500000X1.575000X-0.500000X-1.575000X0.500000X-1.575000X0.500000X1.575000X0*%
%ADD14RoundRect,0.318750X0.180465X-0.442660X0.459926X0.130321X-0.180465X0.442660X-0.459926X-0.130321X0*%
%ADD15RoundRect,0.200000X-0.200000X0.737500X-0.200000X-0.737500X0.200000X-0.737500X0.200000X0.737500X0*%
%ADD16RoundRect,0.318750X-0.459926X0.130321X-0.180465X-0.442660X0.459926X-0.130321X0.180465X0.442660X0*%
%ADD17C,1.000000*%
%ADD18RoundRect,0.318750X0.465441X0.108995X-0.056768X0.474650X-0.465441X-0.108995X0.056768X-0.474650X0*%
%ADD19RoundRect,0.318750X0.031849X0.476971X-0.470508X0.084487X-0.031849X-0.476971X0.470508X-0.084487X0*%
%ADD20RoundRect,0.200000X-0.400000X-0.250000X0.400000X-0.250000X0.400000X0.250000X-0.400000X0.250000X0*%
%ADD21RoundRect,0.200000X-0.400000X-0.200000X0.400000X-0.200000X0.400000X0.200000X-0.400000X0.200000X0*%
%ADD22RoundRect,0.350000X0.575000X-0.350000X0.575000X0.350000X-0.575000X0.350000X-0.575000X-0.350000X0*%
G04 APERTURE END LIST*
D10*
%TO.C,G\u002A\u002A\u002A*%
X194105229Y-32570928D02*
X194737318Y-33063721D01*
X195352260Y-33543096D01*
X195946659Y-34006410D01*
X196517121Y-34451017D01*
X197060250Y-34874273D01*
X197572651Y-35273534D01*
X198050931Y-35646156D01*
X198491693Y-35989493D01*
X198891543Y-36300902D01*
X199247086Y-36577739D01*
X199554927Y-36817358D01*
X199811671Y-37017115D01*
X200013922Y-37174367D01*
X200158287Y-37286468D01*
X200241370Y-37350775D01*
X200260564Y-37365444D01*
X200363554Y-37441157D01*
X196877655Y-43680205D01*
X196500965Y-44354202D01*
X196135086Y-45008461D01*
X195782179Y-45639135D01*
X195444407Y-46242375D01*
X195123933Y-46814330D01*
X194822918Y-47351154D01*
X194543524Y-47848997D01*
X194287914Y-48304010D01*
X194058250Y-48712345D01*
X193856694Y-49070152D01*
X193685408Y-49373584D01*
X193546555Y-49618790D01*
X193442297Y-49801923D01*
X193374796Y-49919134D01*
X193346213Y-49966573D01*
X193345665Y-49967247D01*
X193313339Y-49974643D01*
X193229279Y-49981616D01*
X193090912Y-49988199D01*
X192895665Y-49994424D01*
X192640966Y-50000326D01*
X192324242Y-50005938D01*
X191942919Y-50011292D01*
X191494426Y-50016422D01*
X190976189Y-50021360D01*
X190385635Y-50026141D01*
X189720192Y-50030798D01*
X188977287Y-50035363D01*
X188154347Y-50039869D01*
X187436408Y-50043456D01*
X181573241Y-50071671D01*
X178355908Y-43887760D01*
X178004355Y-43211830D01*
X177663536Y-42556102D01*
X177335494Y-41924525D01*
X177022271Y-41321046D01*
X176725907Y-40749614D01*
X176448446Y-40214176D01*
X176191928Y-39718681D01*
X175958395Y-39267077D01*
X175749889Y-38863312D01*
X175568453Y-38511333D01*
X175416127Y-38215090D01*
X175294953Y-37978531D01*
X175206973Y-37805602D01*
X175154230Y-37700253D01*
X175138575Y-37666475D01*
X175166006Y-37641126D01*
X175248737Y-37574207D01*
X175387423Y-37465219D01*
X175582721Y-37313663D01*
X175835285Y-37119041D01*
X176145772Y-36880854D01*
X176514837Y-36598604D01*
X176943136Y-36271792D01*
X177431325Y-35899919D01*
X177980058Y-35482488D01*
X178589993Y-35018999D01*
X179261784Y-34508954D01*
X179996087Y-33951855D01*
X180793559Y-33347202D01*
X181654854Y-32694497D01*
X182580628Y-31993242D01*
X183571537Y-31242938D01*
X184628237Y-30443087D01*
X185751384Y-29593190D01*
X186696896Y-28877877D01*
X188052884Y-27852123D01*
X194105229Y-32570928D01*
G36*
X194105229Y-32570928D02*
G01*
X194737318Y-33063721D01*
X195352260Y-33543096D01*
X195946659Y-34006410D01*
X196517121Y-34451017D01*
X197060250Y-34874273D01*
X197572651Y-35273534D01*
X198050931Y-35646156D01*
X198491693Y-35989493D01*
X198891543Y-36300902D01*
X199247086Y-36577739D01*
X199554927Y-36817358D01*
X199811671Y-37017115D01*
X200013922Y-37174367D01*
X200158287Y-37286468D01*
X200241370Y-37350775D01*
X200260564Y-37365444D01*
X200363554Y-37441157D01*
X196877655Y-43680205D01*
X196500965Y-44354202D01*
X196135086Y-45008461D01*
X195782179Y-45639135D01*
X195444407Y-46242375D01*
X195123933Y-46814330D01*
X194822918Y-47351154D01*
X194543524Y-47848997D01*
X194287914Y-48304010D01*
X194058250Y-48712345D01*
X193856694Y-49070152D01*
X193685408Y-49373584D01*
X193546555Y-49618790D01*
X193442297Y-49801923D01*
X193374796Y-49919134D01*
X193346213Y-49966573D01*
X193345665Y-49967247D01*
X193313339Y-49974643D01*
X193229279Y-49981616D01*
X193090912Y-49988199D01*
X192895665Y-49994424D01*
X192640966Y-50000326D01*
X192324242Y-50005938D01*
X191942919Y-50011292D01*
X191494426Y-50016422D01*
X190976189Y-50021360D01*
X190385635Y-50026141D01*
X189720192Y-50030798D01*
X188977287Y-50035363D01*
X188154347Y-50039869D01*
X187436408Y-50043456D01*
X181573241Y-50071671D01*
X178355908Y-43887760D01*
X178004355Y-43211830D01*
X177663536Y-42556102D01*
X177335494Y-41924525D01*
X177022271Y-41321046D01*
X176725907Y-40749614D01*
X176448446Y-40214176D01*
X176191928Y-39718681D01*
X175958395Y-39267077D01*
X175749889Y-38863312D01*
X175568453Y-38511333D01*
X175416127Y-38215090D01*
X175294953Y-37978531D01*
X175206973Y-37805602D01*
X175154230Y-37700253D01*
X175138575Y-37666475D01*
X175166006Y-37641126D01*
X175248737Y-37574207D01*
X175387423Y-37465219D01*
X175582721Y-37313663D01*
X175835285Y-37119041D01*
X176145772Y-36880854D01*
X176514837Y-36598604D01*
X176943136Y-36271792D01*
X177431325Y-35899919D01*
X177980058Y-35482488D01*
X178589993Y-35018999D01*
X179261784Y-34508954D01*
X179996087Y-33951855D01*
X180793559Y-33347202D01*
X181654854Y-32694497D01*
X182580628Y-31993242D01*
X183571537Y-31242938D01*
X184628237Y-30443087D01*
X185751384Y-29593190D01*
X186696896Y-28877877D01*
X188052884Y-27852123D01*
X194105229Y-32570928D01*
G37*
X154596617Y-71178633D02*
X155228706Y-71671426D01*
X155843648Y-72150801D01*
X156438047Y-72614115D01*
X157008509Y-73058722D01*
X157551638Y-73481978D01*
X158064039Y-73881239D01*
X158542319Y-74253861D01*
X158983081Y-74597198D01*
X159382931Y-74908607D01*
X159738474Y-75185444D01*
X160046315Y-75425063D01*
X160303059Y-75624820D01*
X160505310Y-75782072D01*
X160649675Y-75894173D01*
X160732758Y-75958480D01*
X160751952Y-75973149D01*
X160854942Y-76048862D01*
X157369043Y-82287910D01*
X156992353Y-82961907D01*
X156626474Y-83616166D01*
X156273567Y-84246840D01*
X155935795Y-84850080D01*
X155615321Y-85422035D01*
X155314306Y-85958859D01*
X155034912Y-86456702D01*
X154779302Y-86911715D01*
X154549638Y-87320050D01*
X154348082Y-87677857D01*
X154176796Y-87981289D01*
X154037943Y-88226495D01*
X153933685Y-88409628D01*
X153866184Y-88526839D01*
X153837601Y-88574278D01*
X153837053Y-88574952D01*
X153804727Y-88582348D01*
X153720667Y-88589321D01*
X153582300Y-88595904D01*
X153387053Y-88602129D01*
X153132354Y-88608031D01*
X152815630Y-88613643D01*
X152434307Y-88618997D01*
X151985814Y-88624127D01*
X151467577Y-88629065D01*
X150877023Y-88633846D01*
X150211580Y-88638503D01*
X149468675Y-88643068D01*
X148645735Y-88647574D01*
X147927796Y-88651161D01*
X142064629Y-88679376D01*
X138847296Y-82495465D01*
X138495743Y-81819535D01*
X138154924Y-81163807D01*
X137826882Y-80532230D01*
X137513659Y-79928751D01*
X137217295Y-79357319D01*
X136939834Y-78821881D01*
X136683316Y-78326386D01*
X136449783Y-77874782D01*
X136241277Y-77471017D01*
X136059841Y-77119038D01*
X135907515Y-76822795D01*
X135786341Y-76586236D01*
X135698361Y-76413307D01*
X135645618Y-76307958D01*
X135629963Y-76274180D01*
X135657394Y-76248831D01*
X135740125Y-76181912D01*
X135878811Y-76072924D01*
X136074109Y-75921368D01*
X136326673Y-75726746D01*
X136637160Y-75488559D01*
X137006225Y-75206309D01*
X137434524Y-74879497D01*
X137922713Y-74507624D01*
X138471446Y-74090193D01*
X139081381Y-73626704D01*
X139753172Y-73116659D01*
X140487475Y-72559560D01*
X141284947Y-71954907D01*
X142146242Y-71302202D01*
X143072016Y-70600947D01*
X144062925Y-69850643D01*
X145119625Y-69050792D01*
X146242772Y-68200895D01*
X147188284Y-67485582D01*
X148544272Y-66459828D01*
X154596617Y-71178633D01*
G36*
X154596617Y-71178633D02*
G01*
X155228706Y-71671426D01*
X155843648Y-72150801D01*
X156438047Y-72614115D01*
X157008509Y-73058722D01*
X157551638Y-73481978D01*
X158064039Y-73881239D01*
X158542319Y-74253861D01*
X158983081Y-74597198D01*
X159382931Y-74908607D01*
X159738474Y-75185444D01*
X160046315Y-75425063D01*
X160303059Y-75624820D01*
X160505310Y-75782072D01*
X160649675Y-75894173D01*
X160732758Y-75958480D01*
X160751952Y-75973149D01*
X160854942Y-76048862D01*
X157369043Y-82287910D01*
X156992353Y-82961907D01*
X156626474Y-83616166D01*
X156273567Y-84246840D01*
X155935795Y-84850080D01*
X155615321Y-85422035D01*
X155314306Y-85958859D01*
X155034912Y-86456702D01*
X154779302Y-86911715D01*
X154549638Y-87320050D01*
X154348082Y-87677857D01*
X154176796Y-87981289D01*
X154037943Y-88226495D01*
X153933685Y-88409628D01*
X153866184Y-88526839D01*
X153837601Y-88574278D01*
X153837053Y-88574952D01*
X153804727Y-88582348D01*
X153720667Y-88589321D01*
X153582300Y-88595904D01*
X153387053Y-88602129D01*
X153132354Y-88608031D01*
X152815630Y-88613643D01*
X152434307Y-88618997D01*
X151985814Y-88624127D01*
X151467577Y-88629065D01*
X150877023Y-88633846D01*
X150211580Y-88638503D01*
X149468675Y-88643068D01*
X148645735Y-88647574D01*
X147927796Y-88651161D01*
X142064629Y-88679376D01*
X138847296Y-82495465D01*
X138495743Y-81819535D01*
X138154924Y-81163807D01*
X137826882Y-80532230D01*
X137513659Y-79928751D01*
X137217295Y-79357319D01*
X136939834Y-78821881D01*
X136683316Y-78326386D01*
X136449783Y-77874782D01*
X136241277Y-77471017D01*
X136059841Y-77119038D01*
X135907515Y-76822795D01*
X135786341Y-76586236D01*
X135698361Y-76413307D01*
X135645618Y-76307958D01*
X135629963Y-76274180D01*
X135657394Y-76248831D01*
X135740125Y-76181912D01*
X135878811Y-76072924D01*
X136074109Y-75921368D01*
X136326673Y-75726746D01*
X136637160Y-75488559D01*
X137006225Y-75206309D01*
X137434524Y-74879497D01*
X137922713Y-74507624D01*
X138471446Y-74090193D01*
X139081381Y-73626704D01*
X139753172Y-73116659D01*
X140487475Y-72559560D01*
X141284947Y-71954907D01*
X142146242Y-71302202D01*
X143072016Y-70600947D01*
X144062925Y-69850643D01*
X145119625Y-69050792D01*
X146242772Y-68200895D01*
X147188284Y-67485582D01*
X148544272Y-66459828D01*
X154596617Y-71178633D01*
G37*
X154596617Y-148394043D02*
X155228706Y-148886836D01*
X155843648Y-149366211D01*
X156438047Y-149829525D01*
X157008509Y-150274132D01*
X157551638Y-150697388D01*
X158064039Y-151096649D01*
X158542319Y-151469271D01*
X158983081Y-151812608D01*
X159382931Y-152124017D01*
X159738474Y-152400854D01*
X160046315Y-152640473D01*
X160303059Y-152840230D01*
X160505310Y-152997482D01*
X160649675Y-153109583D01*
X160732758Y-153173890D01*
X160751952Y-153188559D01*
X160854942Y-153264272D01*
X157369043Y-159503320D01*
X156992353Y-160177317D01*
X156626474Y-160831576D01*
X156273567Y-161462250D01*
X155935795Y-162065490D01*
X155615321Y-162637445D01*
X155314306Y-163174269D01*
X155034912Y-163672112D01*
X154779302Y-164127125D01*
X154549638Y-164535460D01*
X154348082Y-164893267D01*
X154176796Y-165196699D01*
X154037943Y-165441905D01*
X153933685Y-165625038D01*
X153866184Y-165742249D01*
X153837601Y-165789688D01*
X153837053Y-165790362D01*
X153804727Y-165797758D01*
X153720667Y-165804731D01*
X153582300Y-165811314D01*
X153387053Y-165817539D01*
X153132354Y-165823441D01*
X152815630Y-165829053D01*
X152434307Y-165834407D01*
X151985814Y-165839537D01*
X151467577Y-165844475D01*
X150877023Y-165849256D01*
X150211580Y-165853913D01*
X149468675Y-165858478D01*
X148645735Y-165862984D01*
X147927796Y-165866571D01*
X142064629Y-165894786D01*
X138847296Y-159710875D01*
X138495743Y-159034945D01*
X138154924Y-158379217D01*
X137826882Y-157747640D01*
X137513659Y-157144161D01*
X137217295Y-156572729D01*
X136939834Y-156037291D01*
X136683316Y-155541796D01*
X136449783Y-155090192D01*
X136241277Y-154686427D01*
X136059841Y-154334448D01*
X135907515Y-154038205D01*
X135786341Y-153801646D01*
X135698361Y-153628717D01*
X135645618Y-153523368D01*
X135629963Y-153489590D01*
X135657394Y-153464241D01*
X135740125Y-153397322D01*
X135878811Y-153288334D01*
X136074109Y-153136778D01*
X136326673Y-152942156D01*
X136637160Y-152703969D01*
X137006225Y-152421719D01*
X137434524Y-152094907D01*
X137922713Y-151723034D01*
X138471446Y-151305603D01*
X139081381Y-150842114D01*
X139753172Y-150332069D01*
X140487475Y-149774970D01*
X141284947Y-149170317D01*
X142146242Y-148517612D01*
X143072016Y-147816357D01*
X144062925Y-147066053D01*
X145119625Y-146266202D01*
X146242772Y-145416305D01*
X147188284Y-144700992D01*
X148544272Y-143675238D01*
X154596617Y-148394043D01*
G36*
X154596617Y-148394043D02*
G01*
X155228706Y-148886836D01*
X155843648Y-149366211D01*
X156438047Y-149829525D01*
X157008509Y-150274132D01*
X157551638Y-150697388D01*
X158064039Y-151096649D01*
X158542319Y-151469271D01*
X158983081Y-151812608D01*
X159382931Y-152124017D01*
X159738474Y-152400854D01*
X160046315Y-152640473D01*
X160303059Y-152840230D01*
X160505310Y-152997482D01*
X160649675Y-153109583D01*
X160732758Y-153173890D01*
X160751952Y-153188559D01*
X160854942Y-153264272D01*
X157369043Y-159503320D01*
X156992353Y-160177317D01*
X156626474Y-160831576D01*
X156273567Y-161462250D01*
X155935795Y-162065490D01*
X155615321Y-162637445D01*
X155314306Y-163174269D01*
X155034912Y-163672112D01*
X154779302Y-164127125D01*
X154549638Y-164535460D01*
X154348082Y-164893267D01*
X154176796Y-165196699D01*
X154037943Y-165441905D01*
X153933685Y-165625038D01*
X153866184Y-165742249D01*
X153837601Y-165789688D01*
X153837053Y-165790362D01*
X153804727Y-165797758D01*
X153720667Y-165804731D01*
X153582300Y-165811314D01*
X153387053Y-165817539D01*
X153132354Y-165823441D01*
X152815630Y-165829053D01*
X152434307Y-165834407D01*
X151985814Y-165839537D01*
X151467577Y-165844475D01*
X150877023Y-165849256D01*
X150211580Y-165853913D01*
X149468675Y-165858478D01*
X148645735Y-165862984D01*
X147927796Y-165866571D01*
X142064629Y-165894786D01*
X138847296Y-159710875D01*
X138495743Y-159034945D01*
X138154924Y-158379217D01*
X137826882Y-157747640D01*
X137513659Y-157144161D01*
X137217295Y-156572729D01*
X136939834Y-156037291D01*
X136683316Y-155541796D01*
X136449783Y-155090192D01*
X136241277Y-154686427D01*
X136059841Y-154334448D01*
X135907515Y-154038205D01*
X135786341Y-153801646D01*
X135698361Y-153628717D01*
X135645618Y-153523368D01*
X135629963Y-153489590D01*
X135657394Y-153464241D01*
X135740125Y-153397322D01*
X135878811Y-153288334D01*
X136074109Y-153136778D01*
X136326673Y-152942156D01*
X136637160Y-152703969D01*
X137006225Y-152421719D01*
X137434524Y-152094907D01*
X137922713Y-151723034D01*
X138471446Y-151305603D01*
X139081381Y-150842114D01*
X139753172Y-150332069D01*
X140487475Y-149774970D01*
X141284947Y-149170317D01*
X142146242Y-148517612D01*
X143072016Y-147816357D01*
X144062925Y-147066053D01*
X145119625Y-146266202D01*
X146242772Y-145416305D01*
X147188284Y-144700992D01*
X148544272Y-143675238D01*
X154596617Y-148394043D01*
G37*
X115088005Y-148394043D02*
X115720094Y-148886836D01*
X116335036Y-149366211D01*
X116929435Y-149829525D01*
X117499897Y-150274132D01*
X118043026Y-150697388D01*
X118555427Y-151096649D01*
X119033707Y-151469271D01*
X119474469Y-151812608D01*
X119874319Y-152124017D01*
X120229862Y-152400854D01*
X120537703Y-152640473D01*
X120794447Y-152840230D01*
X120996698Y-152997482D01*
X121141063Y-153109583D01*
X121224146Y-153173890D01*
X121243340Y-153188559D01*
X121346330Y-153264272D01*
X117860431Y-159503320D01*
X117483741Y-160177317D01*
X117117862Y-160831576D01*
X116764955Y-161462250D01*
X116427183Y-162065490D01*
X116106709Y-162637445D01*
X115805694Y-163174269D01*
X115526300Y-163672112D01*
X115270690Y-164127125D01*
X115041026Y-164535460D01*
X114839470Y-164893267D01*
X114668184Y-165196699D01*
X114529331Y-165441905D01*
X114425073Y-165625038D01*
X114357572Y-165742249D01*
X114328989Y-165789688D01*
X114328441Y-165790362D01*
X114296115Y-165797758D01*
X114212055Y-165804731D01*
X114073688Y-165811314D01*
X113878441Y-165817539D01*
X113623742Y-165823441D01*
X113307018Y-165829053D01*
X112925695Y-165834407D01*
X112477202Y-165839537D01*
X111958965Y-165844475D01*
X111368411Y-165849256D01*
X110702968Y-165853913D01*
X109960063Y-165858478D01*
X109137123Y-165862984D01*
X108419184Y-165866571D01*
X102556017Y-165894786D01*
X99338684Y-159710875D01*
X98987131Y-159034945D01*
X98646312Y-158379217D01*
X98318270Y-157747640D01*
X98005047Y-157144161D01*
X97708683Y-156572729D01*
X97431222Y-156037291D01*
X97174704Y-155541796D01*
X96941171Y-155090192D01*
X96732665Y-154686427D01*
X96551229Y-154334448D01*
X96398903Y-154038205D01*
X96277729Y-153801646D01*
X96189749Y-153628717D01*
X96137006Y-153523368D01*
X96121351Y-153489590D01*
X96148782Y-153464241D01*
X96231513Y-153397322D01*
X96370199Y-153288334D01*
X96565497Y-153136778D01*
X96818061Y-152942156D01*
X97128548Y-152703969D01*
X97497613Y-152421719D01*
X97925912Y-152094907D01*
X98414101Y-151723034D01*
X98962834Y-151305603D01*
X99572769Y-150842114D01*
X100244560Y-150332069D01*
X100978863Y-149774970D01*
X101776335Y-149170317D01*
X102637630Y-148517612D01*
X103563404Y-147816357D01*
X104554313Y-147066053D01*
X105611013Y-146266202D01*
X106734160Y-145416305D01*
X107679672Y-144700992D01*
X109035660Y-143675238D01*
X115088005Y-148394043D01*
G36*
X115088005Y-148394043D02*
G01*
X115720094Y-148886836D01*
X116335036Y-149366211D01*
X116929435Y-149829525D01*
X117499897Y-150274132D01*
X118043026Y-150697388D01*
X118555427Y-151096649D01*
X119033707Y-151469271D01*
X119474469Y-151812608D01*
X119874319Y-152124017D01*
X120229862Y-152400854D01*
X120537703Y-152640473D01*
X120794447Y-152840230D01*
X120996698Y-152997482D01*
X121141063Y-153109583D01*
X121224146Y-153173890D01*
X121243340Y-153188559D01*
X121346330Y-153264272D01*
X117860431Y-159503320D01*
X117483741Y-160177317D01*
X117117862Y-160831576D01*
X116764955Y-161462250D01*
X116427183Y-162065490D01*
X116106709Y-162637445D01*
X115805694Y-163174269D01*
X115526300Y-163672112D01*
X115270690Y-164127125D01*
X115041026Y-164535460D01*
X114839470Y-164893267D01*
X114668184Y-165196699D01*
X114529331Y-165441905D01*
X114425073Y-165625038D01*
X114357572Y-165742249D01*
X114328989Y-165789688D01*
X114328441Y-165790362D01*
X114296115Y-165797758D01*
X114212055Y-165804731D01*
X114073688Y-165811314D01*
X113878441Y-165817539D01*
X113623742Y-165823441D01*
X113307018Y-165829053D01*
X112925695Y-165834407D01*
X112477202Y-165839537D01*
X111958965Y-165844475D01*
X111368411Y-165849256D01*
X110702968Y-165853913D01*
X109960063Y-165858478D01*
X109137123Y-165862984D01*
X108419184Y-165866571D01*
X102556017Y-165894786D01*
X99338684Y-159710875D01*
X98987131Y-159034945D01*
X98646312Y-158379217D01*
X98318270Y-157747640D01*
X98005047Y-157144161D01*
X97708683Y-156572729D01*
X97431222Y-156037291D01*
X97174704Y-155541796D01*
X96941171Y-155090192D01*
X96732665Y-154686427D01*
X96551229Y-154334448D01*
X96398903Y-154038205D01*
X96277729Y-153801646D01*
X96189749Y-153628717D01*
X96137006Y-153523368D01*
X96121351Y-153489590D01*
X96148782Y-153464241D01*
X96231513Y-153397322D01*
X96370199Y-153288334D01*
X96565497Y-153136778D01*
X96818061Y-152942156D01*
X97128548Y-152703969D01*
X97497613Y-152421719D01*
X97925912Y-152094907D01*
X98414101Y-151723034D01*
X98962834Y-151305603D01*
X99572769Y-150842114D01*
X100244560Y-150332069D01*
X100978863Y-149774970D01*
X101776335Y-149170317D01*
X102637630Y-148517612D01*
X103563404Y-147816357D01*
X104554313Y-147066053D01*
X105611013Y-146266202D01*
X106734160Y-145416305D01*
X107679672Y-144700992D01*
X109035660Y-143675238D01*
X115088005Y-148394043D01*
G37*
X233613841Y-32570928D02*
X234245930Y-33063721D01*
X234860872Y-33543096D01*
X235455271Y-34006410D01*
X236025733Y-34451017D01*
X236568862Y-34874273D01*
X237081263Y-35273534D01*
X237559543Y-35646156D01*
X238000305Y-35989493D01*
X238400155Y-36300902D01*
X238755698Y-36577739D01*
X239063539Y-36817358D01*
X239320283Y-37017115D01*
X239522534Y-37174367D01*
X239666899Y-37286468D01*
X239749982Y-37350775D01*
X239769176Y-37365444D01*
X239872166Y-37441157D01*
X236386267Y-43680205D01*
X236009577Y-44354202D01*
X235643698Y-45008461D01*
X235290791Y-45639135D01*
X234953019Y-46242375D01*
X234632545Y-46814330D01*
X234331530Y-47351154D01*
X234052136Y-47848997D01*
X233796526Y-48304010D01*
X233566862Y-48712345D01*
X233365306Y-49070152D01*
X233194020Y-49373584D01*
X233055167Y-49618790D01*
X232950909Y-49801923D01*
X232883408Y-49919134D01*
X232854825Y-49966573D01*
X232854277Y-49967247D01*
X232821951Y-49974643D01*
X232737891Y-49981616D01*
X232599524Y-49988199D01*
X232404277Y-49994424D01*
X232149578Y-50000326D01*
X231832854Y-50005938D01*
X231451531Y-50011292D01*
X231003038Y-50016422D01*
X230484801Y-50021360D01*
X229894247Y-50026141D01*
X229228804Y-50030798D01*
X228485899Y-50035363D01*
X227662959Y-50039869D01*
X226945020Y-50043456D01*
X221081853Y-50071671D01*
X217864520Y-43887760D01*
X217512967Y-43211830D01*
X217172148Y-42556102D01*
X216844106Y-41924525D01*
X216530883Y-41321046D01*
X216234519Y-40749614D01*
X215957058Y-40214176D01*
X215700540Y-39718681D01*
X215467007Y-39267077D01*
X215258501Y-38863312D01*
X215077065Y-38511333D01*
X214924739Y-38215090D01*
X214803565Y-37978531D01*
X214715585Y-37805602D01*
X214662842Y-37700253D01*
X214647187Y-37666475D01*
X214674618Y-37641126D01*
X214757349Y-37574207D01*
X214896035Y-37465219D01*
X215091333Y-37313663D01*
X215343897Y-37119041D01*
X215654384Y-36880854D01*
X216023449Y-36598604D01*
X216451748Y-36271792D01*
X216939937Y-35899919D01*
X217488670Y-35482488D01*
X218098605Y-35018999D01*
X218770396Y-34508954D01*
X219504699Y-33951855D01*
X220302171Y-33347202D01*
X221163466Y-32694497D01*
X222089240Y-31993242D01*
X223080149Y-31242938D01*
X224136849Y-30443087D01*
X225259996Y-29593190D01*
X226205508Y-28877877D01*
X227561496Y-27852123D01*
X233613841Y-32570928D01*
G36*
X233613841Y-32570928D02*
G01*
X234245930Y-33063721D01*
X234860872Y-33543096D01*
X235455271Y-34006410D01*
X236025733Y-34451017D01*
X236568862Y-34874273D01*
X237081263Y-35273534D01*
X237559543Y-35646156D01*
X238000305Y-35989493D01*
X238400155Y-36300902D01*
X238755698Y-36577739D01*
X239063539Y-36817358D01*
X239320283Y-37017115D01*
X239522534Y-37174367D01*
X239666899Y-37286468D01*
X239749982Y-37350775D01*
X239769176Y-37365444D01*
X239872166Y-37441157D01*
X236386267Y-43680205D01*
X236009577Y-44354202D01*
X235643698Y-45008461D01*
X235290791Y-45639135D01*
X234953019Y-46242375D01*
X234632545Y-46814330D01*
X234331530Y-47351154D01*
X234052136Y-47848997D01*
X233796526Y-48304010D01*
X233566862Y-48712345D01*
X233365306Y-49070152D01*
X233194020Y-49373584D01*
X233055167Y-49618790D01*
X232950909Y-49801923D01*
X232883408Y-49919134D01*
X232854825Y-49966573D01*
X232854277Y-49967247D01*
X232821951Y-49974643D01*
X232737891Y-49981616D01*
X232599524Y-49988199D01*
X232404277Y-49994424D01*
X232149578Y-50000326D01*
X231832854Y-50005938D01*
X231451531Y-50011292D01*
X231003038Y-50016422D01*
X230484801Y-50021360D01*
X229894247Y-50026141D01*
X229228804Y-50030798D01*
X228485899Y-50035363D01*
X227662959Y-50039869D01*
X226945020Y-50043456D01*
X221081853Y-50071671D01*
X217864520Y-43887760D01*
X217512967Y-43211830D01*
X217172148Y-42556102D01*
X216844106Y-41924525D01*
X216530883Y-41321046D01*
X216234519Y-40749614D01*
X215957058Y-40214176D01*
X215700540Y-39718681D01*
X215467007Y-39267077D01*
X215258501Y-38863312D01*
X215077065Y-38511333D01*
X214924739Y-38215090D01*
X214803565Y-37978531D01*
X214715585Y-37805602D01*
X214662842Y-37700253D01*
X214647187Y-37666475D01*
X214674618Y-37641126D01*
X214757349Y-37574207D01*
X214896035Y-37465219D01*
X215091333Y-37313663D01*
X215343897Y-37119041D01*
X215654384Y-36880854D01*
X216023449Y-36598604D01*
X216451748Y-36271792D01*
X216939937Y-35899919D01*
X217488670Y-35482488D01*
X218098605Y-35018999D01*
X218770396Y-34508954D01*
X219504699Y-33951855D01*
X220302171Y-33347202D01*
X221163466Y-32694497D01*
X222089240Y-31993242D01*
X223080149Y-31242938D01*
X224136849Y-30443087D01*
X225259996Y-29593190D01*
X226205508Y-28877877D01*
X227561496Y-27852123D01*
X233613841Y-32570928D01*
G37*
X154596617Y-32570928D02*
X155228706Y-33063721D01*
X155843648Y-33543096D01*
X156438047Y-34006410D01*
X157008509Y-34451017D01*
X157551638Y-34874273D01*
X158064039Y-35273534D01*
X158542319Y-35646156D01*
X158983081Y-35989493D01*
X159382931Y-36300902D01*
X159738474Y-36577739D01*
X160046315Y-36817358D01*
X160303059Y-37017115D01*
X160505310Y-37174367D01*
X160649675Y-37286468D01*
X160732758Y-37350775D01*
X160751952Y-37365444D01*
X160854942Y-37441157D01*
X157369043Y-43680205D01*
X156992353Y-44354202D01*
X156626474Y-45008461D01*
X156273567Y-45639135D01*
X155935795Y-46242375D01*
X155615321Y-46814330D01*
X155314306Y-47351154D01*
X155034912Y-47848997D01*
X154779302Y-48304010D01*
X154549638Y-48712345D01*
X154348082Y-49070152D01*
X154176796Y-49373584D01*
X154037943Y-49618790D01*
X153933685Y-49801923D01*
X153866184Y-49919134D01*
X153837601Y-49966573D01*
X153837053Y-49967247D01*
X153804727Y-49974643D01*
X153720667Y-49981616D01*
X153582300Y-49988199D01*
X153387053Y-49994424D01*
X153132354Y-50000326D01*
X152815630Y-50005938D01*
X152434307Y-50011292D01*
X151985814Y-50016422D01*
X151467577Y-50021360D01*
X150877023Y-50026141D01*
X150211580Y-50030798D01*
X149468675Y-50035363D01*
X148645735Y-50039869D01*
X147927796Y-50043456D01*
X142064629Y-50071671D01*
X138847296Y-43887760D01*
X138495743Y-43211830D01*
X138154924Y-42556102D01*
X137826882Y-41924525D01*
X137513659Y-41321046D01*
X137217295Y-40749614D01*
X136939834Y-40214176D01*
X136683316Y-39718681D01*
X136449783Y-39267077D01*
X136241277Y-38863312D01*
X136059841Y-38511333D01*
X135907515Y-38215090D01*
X135786341Y-37978531D01*
X135698361Y-37805602D01*
X135645618Y-37700253D01*
X135629963Y-37666475D01*
X135657394Y-37641126D01*
X135740125Y-37574207D01*
X135878811Y-37465219D01*
X136074109Y-37313663D01*
X136326673Y-37119041D01*
X136637160Y-36880854D01*
X137006225Y-36598604D01*
X137434524Y-36271792D01*
X137922713Y-35899919D01*
X138471446Y-35482488D01*
X139081381Y-35018999D01*
X139753172Y-34508954D01*
X140487475Y-33951855D01*
X141284947Y-33347202D01*
X142146242Y-32694497D01*
X143072016Y-31993242D01*
X144062925Y-31242938D01*
X145119625Y-30443087D01*
X146242772Y-29593190D01*
X147188284Y-28877877D01*
X148544272Y-27852123D01*
X154596617Y-32570928D01*
G36*
X154596617Y-32570928D02*
G01*
X155228706Y-33063721D01*
X155843648Y-33543096D01*
X156438047Y-34006410D01*
X157008509Y-34451017D01*
X157551638Y-34874273D01*
X158064039Y-35273534D01*
X158542319Y-35646156D01*
X158983081Y-35989493D01*
X159382931Y-36300902D01*
X159738474Y-36577739D01*
X160046315Y-36817358D01*
X160303059Y-37017115D01*
X160505310Y-37174367D01*
X160649675Y-37286468D01*
X160732758Y-37350775D01*
X160751952Y-37365444D01*
X160854942Y-37441157D01*
X157369043Y-43680205D01*
X156992353Y-44354202D01*
X156626474Y-45008461D01*
X156273567Y-45639135D01*
X155935795Y-46242375D01*
X155615321Y-46814330D01*
X155314306Y-47351154D01*
X155034912Y-47848997D01*
X154779302Y-48304010D01*
X154549638Y-48712345D01*
X154348082Y-49070152D01*
X154176796Y-49373584D01*
X154037943Y-49618790D01*
X153933685Y-49801923D01*
X153866184Y-49919134D01*
X153837601Y-49966573D01*
X153837053Y-49967247D01*
X153804727Y-49974643D01*
X153720667Y-49981616D01*
X153582300Y-49988199D01*
X153387053Y-49994424D01*
X153132354Y-50000326D01*
X152815630Y-50005938D01*
X152434307Y-50011292D01*
X151985814Y-50016422D01*
X151467577Y-50021360D01*
X150877023Y-50026141D01*
X150211580Y-50030798D01*
X149468675Y-50035363D01*
X148645735Y-50039869D01*
X147927796Y-50043456D01*
X142064629Y-50071671D01*
X138847296Y-43887760D01*
X138495743Y-43211830D01*
X138154924Y-42556102D01*
X137826882Y-41924525D01*
X137513659Y-41321046D01*
X137217295Y-40749614D01*
X136939834Y-40214176D01*
X136683316Y-39718681D01*
X136449783Y-39267077D01*
X136241277Y-38863312D01*
X136059841Y-38511333D01*
X135907515Y-38215090D01*
X135786341Y-37978531D01*
X135698361Y-37805602D01*
X135645618Y-37700253D01*
X135629963Y-37666475D01*
X135657394Y-37641126D01*
X135740125Y-37574207D01*
X135878811Y-37465219D01*
X136074109Y-37313663D01*
X136326673Y-37119041D01*
X136637160Y-36880854D01*
X137006225Y-36598604D01*
X137434524Y-36271792D01*
X137922713Y-35899919D01*
X138471446Y-35482488D01*
X139081381Y-35018999D01*
X139753172Y-34508954D01*
X140487475Y-33951855D01*
X141284947Y-33347202D01*
X142146242Y-32694497D01*
X143072016Y-31993242D01*
X144062925Y-31242938D01*
X145119625Y-30443087D01*
X146242772Y-29593190D01*
X147188284Y-28877877D01*
X148544272Y-27852123D01*
X154596617Y-32570928D01*
G37*
X194105229Y-71178633D02*
X194737318Y-71671426D01*
X195352260Y-72150801D01*
X195946659Y-72614115D01*
X196517121Y-73058722D01*
X197060250Y-73481978D01*
X197572651Y-73881239D01*
X198050931Y-74253861D01*
X198491693Y-74597198D01*
X198891543Y-74908607D01*
X199247086Y-75185444D01*
X199554927Y-75425063D01*
X199811671Y-75624820D01*
X200013922Y-75782072D01*
X200158287Y-75894173D01*
X200241370Y-75958480D01*
X200260564Y-75973149D01*
X200363554Y-76048862D01*
X196877655Y-82287910D01*
X196500965Y-82961907D01*
X196135086Y-83616166D01*
X195782179Y-84246840D01*
X195444407Y-84850080D01*
X195123933Y-85422035D01*
X194822918Y-85958859D01*
X194543524Y-86456702D01*
X194287914Y-86911715D01*
X194058250Y-87320050D01*
X193856694Y-87677857D01*
X193685408Y-87981289D01*
X193546555Y-88226495D01*
X193442297Y-88409628D01*
X193374796Y-88526839D01*
X193346213Y-88574278D01*
X193345665Y-88574952D01*
X193313339Y-88582348D01*
X193229279Y-88589321D01*
X193090912Y-88595904D01*
X192895665Y-88602129D01*
X192640966Y-88608031D01*
X192324242Y-88613643D01*
X191942919Y-88618997D01*
X191494426Y-88624127D01*
X190976189Y-88629065D01*
X190385635Y-88633846D01*
X189720192Y-88638503D01*
X188977287Y-88643068D01*
X188154347Y-88647574D01*
X187436408Y-88651161D01*
X181573241Y-88679376D01*
X178355908Y-82495465D01*
X178004355Y-81819535D01*
X177663536Y-81163807D01*
X177335494Y-80532230D01*
X177022271Y-79928751D01*
X176725907Y-79357319D01*
X176448446Y-78821881D01*
X176191928Y-78326386D01*
X175958395Y-77874782D01*
X175749889Y-77471017D01*
X175568453Y-77119038D01*
X175416127Y-76822795D01*
X175294953Y-76586236D01*
X175206973Y-76413307D01*
X175154230Y-76307958D01*
X175138575Y-76274180D01*
X175166006Y-76248831D01*
X175248737Y-76181912D01*
X175387423Y-76072924D01*
X175582721Y-75921368D01*
X175835285Y-75726746D01*
X176145772Y-75488559D01*
X176514837Y-75206309D01*
X176943136Y-74879497D01*
X177431325Y-74507624D01*
X177980058Y-74090193D01*
X178589993Y-73626704D01*
X179261784Y-73116659D01*
X179996087Y-72559560D01*
X180793559Y-71954907D01*
X181654854Y-71302202D01*
X182580628Y-70600947D01*
X183571537Y-69850643D01*
X184628237Y-69050792D01*
X185751384Y-68200895D01*
X186696896Y-67485582D01*
X188052884Y-66459828D01*
X194105229Y-71178633D01*
G36*
X194105229Y-71178633D02*
G01*
X194737318Y-71671426D01*
X195352260Y-72150801D01*
X195946659Y-72614115D01*
X196517121Y-73058722D01*
X197060250Y-73481978D01*
X197572651Y-73881239D01*
X198050931Y-74253861D01*
X198491693Y-74597198D01*
X198891543Y-74908607D01*
X199247086Y-75185444D01*
X199554927Y-75425063D01*
X199811671Y-75624820D01*
X200013922Y-75782072D01*
X200158287Y-75894173D01*
X200241370Y-75958480D01*
X200260564Y-75973149D01*
X200363554Y-76048862D01*
X196877655Y-82287910D01*
X196500965Y-82961907D01*
X196135086Y-83616166D01*
X195782179Y-84246840D01*
X195444407Y-84850080D01*
X195123933Y-85422035D01*
X194822918Y-85958859D01*
X194543524Y-86456702D01*
X194287914Y-86911715D01*
X194058250Y-87320050D01*
X193856694Y-87677857D01*
X193685408Y-87981289D01*
X193546555Y-88226495D01*
X193442297Y-88409628D01*
X193374796Y-88526839D01*
X193346213Y-88574278D01*
X193345665Y-88574952D01*
X193313339Y-88582348D01*
X193229279Y-88589321D01*
X193090912Y-88595904D01*
X192895665Y-88602129D01*
X192640966Y-88608031D01*
X192324242Y-88613643D01*
X191942919Y-88618997D01*
X191494426Y-88624127D01*
X190976189Y-88629065D01*
X190385635Y-88633846D01*
X189720192Y-88638503D01*
X188977287Y-88643068D01*
X188154347Y-88647574D01*
X187436408Y-88651161D01*
X181573241Y-88679376D01*
X178355908Y-82495465D01*
X178004355Y-81819535D01*
X177663536Y-81163807D01*
X177335494Y-80532230D01*
X177022271Y-79928751D01*
X176725907Y-79357319D01*
X176448446Y-78821881D01*
X176191928Y-78326386D01*
X175958395Y-77874782D01*
X175749889Y-77471017D01*
X175568453Y-77119038D01*
X175416127Y-76822795D01*
X175294953Y-76586236D01*
X175206973Y-76413307D01*
X175154230Y-76307958D01*
X175138575Y-76274180D01*
X175166006Y-76248831D01*
X175248737Y-76181912D01*
X175387423Y-76072924D01*
X175582721Y-75921368D01*
X175835285Y-75726746D01*
X176145772Y-75488559D01*
X176514837Y-75206309D01*
X176943136Y-74879497D01*
X177431325Y-74507624D01*
X177980058Y-74090193D01*
X178589993Y-73626704D01*
X179261784Y-73116659D01*
X179996087Y-72559560D01*
X180793559Y-71954907D01*
X181654854Y-71302202D01*
X182580628Y-70600947D01*
X183571537Y-69850643D01*
X184628237Y-69050792D01*
X185751384Y-68200895D01*
X186696896Y-67485582D01*
X188052884Y-66459828D01*
X194105229Y-71178633D01*
G37*
X75579393Y-32570928D02*
X76211482Y-33063721D01*
X76826424Y-33543096D01*
X77420823Y-34006410D01*
X77991285Y-34451017D01*
X78534414Y-34874273D01*
X79046815Y-35273534D01*
X79525095Y-35646156D01*
X79965857Y-35989493D01*
X80365707Y-36300902D01*
X80721250Y-36577739D01*
X81029091Y-36817358D01*
X81285835Y-37017115D01*
X81488086Y-37174367D01*
X81632451Y-37286468D01*
X81715534Y-37350775D01*
X81734728Y-37365444D01*
X81837718Y-37441157D01*
X78351819Y-43680205D01*
X77975129Y-44354202D01*
X77609250Y-45008461D01*
X77256343Y-45639135D01*
X76918571Y-46242375D01*
X76598097Y-46814330D01*
X76297082Y-47351154D01*
X76017688Y-47848997D01*
X75762078Y-48304010D01*
X75532414Y-48712345D01*
X75330858Y-49070152D01*
X75159572Y-49373584D01*
X75020719Y-49618790D01*
X74916461Y-49801923D01*
X74848960Y-49919134D01*
X74820377Y-49966573D01*
X74819829Y-49967247D01*
X74787503Y-49974643D01*
X74703443Y-49981616D01*
X74565076Y-49988199D01*
X74369829Y-49994424D01*
X74115130Y-50000326D01*
X73798406Y-50005938D01*
X73417083Y-50011292D01*
X72968590Y-50016422D01*
X72450353Y-50021360D01*
X71859799Y-50026141D01*
X71194356Y-50030798D01*
X70451451Y-50035363D01*
X69628511Y-50039869D01*
X68910572Y-50043456D01*
X63047405Y-50071671D01*
X59830072Y-43887760D01*
X59478519Y-43211830D01*
X59137700Y-42556102D01*
X58809658Y-41924525D01*
X58496435Y-41321046D01*
X58200071Y-40749614D01*
X57922610Y-40214176D01*
X57666092Y-39718681D01*
X57432559Y-39267077D01*
X57224053Y-38863312D01*
X57042617Y-38511333D01*
X56890291Y-38215090D01*
X56769117Y-37978531D01*
X56681137Y-37805602D01*
X56628394Y-37700253D01*
X56612739Y-37666475D01*
X56640170Y-37641126D01*
X56722901Y-37574207D01*
X56861587Y-37465219D01*
X57056885Y-37313663D01*
X57309449Y-37119041D01*
X57619936Y-36880854D01*
X57989001Y-36598604D01*
X58417300Y-36271792D01*
X58905489Y-35899919D01*
X59454222Y-35482488D01*
X60064157Y-35018999D01*
X60735948Y-34508954D01*
X61470251Y-33951855D01*
X62267723Y-33347202D01*
X63129018Y-32694497D01*
X64054792Y-31993242D01*
X65045701Y-31242938D01*
X66102401Y-30443087D01*
X67225548Y-29593190D01*
X68171060Y-28877877D01*
X69527048Y-27852123D01*
X75579393Y-32570928D01*
G36*
X75579393Y-32570928D02*
G01*
X76211482Y-33063721D01*
X76826424Y-33543096D01*
X77420823Y-34006410D01*
X77991285Y-34451017D01*
X78534414Y-34874273D01*
X79046815Y-35273534D01*
X79525095Y-35646156D01*
X79965857Y-35989493D01*
X80365707Y-36300902D01*
X80721250Y-36577739D01*
X81029091Y-36817358D01*
X81285835Y-37017115D01*
X81488086Y-37174367D01*
X81632451Y-37286468D01*
X81715534Y-37350775D01*
X81734728Y-37365444D01*
X81837718Y-37441157D01*
X78351819Y-43680205D01*
X77975129Y-44354202D01*
X77609250Y-45008461D01*
X77256343Y-45639135D01*
X76918571Y-46242375D01*
X76598097Y-46814330D01*
X76297082Y-47351154D01*
X76017688Y-47848997D01*
X75762078Y-48304010D01*
X75532414Y-48712345D01*
X75330858Y-49070152D01*
X75159572Y-49373584D01*
X75020719Y-49618790D01*
X74916461Y-49801923D01*
X74848960Y-49919134D01*
X74820377Y-49966573D01*
X74819829Y-49967247D01*
X74787503Y-49974643D01*
X74703443Y-49981616D01*
X74565076Y-49988199D01*
X74369829Y-49994424D01*
X74115130Y-50000326D01*
X73798406Y-50005938D01*
X73417083Y-50011292D01*
X72968590Y-50016422D01*
X72450353Y-50021360D01*
X71859799Y-50026141D01*
X71194356Y-50030798D01*
X70451451Y-50035363D01*
X69628511Y-50039869D01*
X68910572Y-50043456D01*
X63047405Y-50071671D01*
X59830072Y-43887760D01*
X59478519Y-43211830D01*
X59137700Y-42556102D01*
X58809658Y-41924525D01*
X58496435Y-41321046D01*
X58200071Y-40749614D01*
X57922610Y-40214176D01*
X57666092Y-39718681D01*
X57432559Y-39267077D01*
X57224053Y-38863312D01*
X57042617Y-38511333D01*
X56890291Y-38215090D01*
X56769117Y-37978531D01*
X56681137Y-37805602D01*
X56628394Y-37700253D01*
X56612739Y-37666475D01*
X56640170Y-37641126D01*
X56722901Y-37574207D01*
X56861587Y-37465219D01*
X57056885Y-37313663D01*
X57309449Y-37119041D01*
X57619936Y-36880854D01*
X57989001Y-36598604D01*
X58417300Y-36271792D01*
X58905489Y-35899919D01*
X59454222Y-35482488D01*
X60064157Y-35018999D01*
X60735948Y-34508954D01*
X61470251Y-33951855D01*
X62267723Y-33347202D01*
X63129018Y-32694497D01*
X64054792Y-31993242D01*
X65045701Y-31242938D01*
X66102401Y-30443087D01*
X67225548Y-29593190D01*
X68171060Y-28877877D01*
X69527048Y-27852123D01*
X75579393Y-32570928D01*
G37*
X75579393Y-148394043D02*
X76211482Y-148886836D01*
X76826424Y-149366211D01*
X77420823Y-149829525D01*
X77991285Y-150274132D01*
X78534414Y-150697388D01*
X79046815Y-151096649D01*
X79525095Y-151469271D01*
X79965857Y-151812608D01*
X80365707Y-152124017D01*
X80721250Y-152400854D01*
X81029091Y-152640473D01*
X81285835Y-152840230D01*
X81488086Y-152997482D01*
X81632451Y-153109583D01*
X81715534Y-153173890D01*
X81734728Y-153188559D01*
X81837718Y-153264272D01*
X78351819Y-159503320D01*
X77975129Y-160177317D01*
X77609250Y-160831576D01*
X77256343Y-161462250D01*
X76918571Y-162065490D01*
X76598097Y-162637445D01*
X76297082Y-163174269D01*
X76017688Y-163672112D01*
X75762078Y-164127125D01*
X75532414Y-164535460D01*
X75330858Y-164893267D01*
X75159572Y-165196699D01*
X75020719Y-165441905D01*
X74916461Y-165625038D01*
X74848960Y-165742249D01*
X74820377Y-165789688D01*
X74819829Y-165790362D01*
X74787503Y-165797758D01*
X74703443Y-165804731D01*
X74565076Y-165811314D01*
X74369829Y-165817539D01*
X74115130Y-165823441D01*
X73798406Y-165829053D01*
X73417083Y-165834407D01*
X72968590Y-165839537D01*
X72450353Y-165844475D01*
X71859799Y-165849256D01*
X71194356Y-165853913D01*
X70451451Y-165858478D01*
X69628511Y-165862984D01*
X68910572Y-165866571D01*
X63047405Y-165894786D01*
X59830072Y-159710875D01*
X59478519Y-159034945D01*
X59137700Y-158379217D01*
X58809658Y-157747640D01*
X58496435Y-157144161D01*
X58200071Y-156572729D01*
X57922610Y-156037291D01*
X57666092Y-155541796D01*
X57432559Y-155090192D01*
X57224053Y-154686427D01*
X57042617Y-154334448D01*
X56890291Y-154038205D01*
X56769117Y-153801646D01*
X56681137Y-153628717D01*
X56628394Y-153523368D01*
X56612739Y-153489590D01*
X56640170Y-153464241D01*
X56722901Y-153397322D01*
X56861587Y-153288334D01*
X57056885Y-153136778D01*
X57309449Y-152942156D01*
X57619936Y-152703969D01*
X57989001Y-152421719D01*
X58417300Y-152094907D01*
X58905489Y-151723034D01*
X59454222Y-151305603D01*
X60064157Y-150842114D01*
X60735948Y-150332069D01*
X61470251Y-149774970D01*
X62267723Y-149170317D01*
X63129018Y-148517612D01*
X64054792Y-147816357D01*
X65045701Y-147066053D01*
X66102401Y-146266202D01*
X67225548Y-145416305D01*
X68171060Y-144700992D01*
X69527048Y-143675238D01*
X75579393Y-148394043D01*
G36*
X75579393Y-148394043D02*
G01*
X76211482Y-148886836D01*
X76826424Y-149366211D01*
X77420823Y-149829525D01*
X77991285Y-150274132D01*
X78534414Y-150697388D01*
X79046815Y-151096649D01*
X79525095Y-151469271D01*
X79965857Y-151812608D01*
X80365707Y-152124017D01*
X80721250Y-152400854D01*
X81029091Y-152640473D01*
X81285835Y-152840230D01*
X81488086Y-152997482D01*
X81632451Y-153109583D01*
X81715534Y-153173890D01*
X81734728Y-153188559D01*
X81837718Y-153264272D01*
X78351819Y-159503320D01*
X77975129Y-160177317D01*
X77609250Y-160831576D01*
X77256343Y-161462250D01*
X76918571Y-162065490D01*
X76598097Y-162637445D01*
X76297082Y-163174269D01*
X76017688Y-163672112D01*
X75762078Y-164127125D01*
X75532414Y-164535460D01*
X75330858Y-164893267D01*
X75159572Y-165196699D01*
X75020719Y-165441905D01*
X74916461Y-165625038D01*
X74848960Y-165742249D01*
X74820377Y-165789688D01*
X74819829Y-165790362D01*
X74787503Y-165797758D01*
X74703443Y-165804731D01*
X74565076Y-165811314D01*
X74369829Y-165817539D01*
X74115130Y-165823441D01*
X73798406Y-165829053D01*
X73417083Y-165834407D01*
X72968590Y-165839537D01*
X72450353Y-165844475D01*
X71859799Y-165849256D01*
X71194356Y-165853913D01*
X70451451Y-165858478D01*
X69628511Y-165862984D01*
X68910572Y-165866571D01*
X63047405Y-165894786D01*
X59830072Y-159710875D01*
X59478519Y-159034945D01*
X59137700Y-158379217D01*
X58809658Y-157747640D01*
X58496435Y-157144161D01*
X58200071Y-156572729D01*
X57922610Y-156037291D01*
X57666092Y-155541796D01*
X57432559Y-155090192D01*
X57224053Y-154686427D01*
X57042617Y-154334448D01*
X56890291Y-154038205D01*
X56769117Y-153801646D01*
X56681137Y-153628717D01*
X56628394Y-153523368D01*
X56612739Y-153489590D01*
X56640170Y-153464241D01*
X56722901Y-153397322D01*
X56861587Y-153288334D01*
X57056885Y-153136778D01*
X57309449Y-152942156D01*
X57619936Y-152703969D01*
X57989001Y-152421719D01*
X58417300Y-152094907D01*
X58905489Y-151723034D01*
X59454222Y-151305603D01*
X60064157Y-150842114D01*
X60735948Y-150332069D01*
X61470251Y-149774970D01*
X62267723Y-149170317D01*
X63129018Y-148517612D01*
X64054792Y-147816357D01*
X65045701Y-147066053D01*
X66102401Y-146266202D01*
X67225548Y-145416305D01*
X68171060Y-144700992D01*
X69527048Y-143675238D01*
X75579393Y-148394043D01*
G37*
X233613841Y-71178633D02*
X234245930Y-71671426D01*
X234860872Y-72150801D01*
X235455271Y-72614115D01*
X236025733Y-73058722D01*
X236568862Y-73481978D01*
X237081263Y-73881239D01*
X237559543Y-74253861D01*
X238000305Y-74597198D01*
X238400155Y-74908607D01*
X238755698Y-75185444D01*
X239063539Y-75425063D01*
X239320283Y-75624820D01*
X239522534Y-75782072D01*
X239666899Y-75894173D01*
X239749982Y-75958480D01*
X239769176Y-75973149D01*
X239872166Y-76048862D01*
X236386267Y-82287910D01*
X236009577Y-82961907D01*
X235643698Y-83616166D01*
X235290791Y-84246840D01*
X234953019Y-84850080D01*
X234632545Y-85422035D01*
X234331530Y-85958859D01*
X234052136Y-86456702D01*
X233796526Y-86911715D01*
X233566862Y-87320050D01*
X233365306Y-87677857D01*
X233194020Y-87981289D01*
X233055167Y-88226495D01*
X232950909Y-88409628D01*
X232883408Y-88526839D01*
X232854825Y-88574278D01*
X232854277Y-88574952D01*
X232821951Y-88582348D01*
X232737891Y-88589321D01*
X232599524Y-88595904D01*
X232404277Y-88602129D01*
X232149578Y-88608031D01*
X231832854Y-88613643D01*
X231451531Y-88618997D01*
X231003038Y-88624127D01*
X230484801Y-88629065D01*
X229894247Y-88633846D01*
X229228804Y-88638503D01*
X228485899Y-88643068D01*
X227662959Y-88647574D01*
X226945020Y-88651161D01*
X221081853Y-88679376D01*
X217864520Y-82495465D01*
X217512967Y-81819535D01*
X217172148Y-81163807D01*
X216844106Y-80532230D01*
X216530883Y-79928751D01*
X216234519Y-79357319D01*
X215957058Y-78821881D01*
X215700540Y-78326386D01*
X215467007Y-77874782D01*
X215258501Y-77471017D01*
X215077065Y-77119038D01*
X214924739Y-76822795D01*
X214803565Y-76586236D01*
X214715585Y-76413307D01*
X214662842Y-76307958D01*
X214647187Y-76274180D01*
X214674618Y-76248831D01*
X214757349Y-76181912D01*
X214896035Y-76072924D01*
X215091333Y-75921368D01*
X215343897Y-75726746D01*
X215654384Y-75488559D01*
X216023449Y-75206309D01*
X216451748Y-74879497D01*
X216939937Y-74507624D01*
X217488670Y-74090193D01*
X218098605Y-73626704D01*
X218770396Y-73116659D01*
X219504699Y-72559560D01*
X220302171Y-71954907D01*
X221163466Y-71302202D01*
X222089240Y-70600947D01*
X223080149Y-69850643D01*
X224136849Y-69050792D01*
X225259996Y-68200895D01*
X226205508Y-67485582D01*
X227561496Y-66459828D01*
X233613841Y-71178633D01*
G36*
X233613841Y-71178633D02*
G01*
X234245930Y-71671426D01*
X234860872Y-72150801D01*
X235455271Y-72614115D01*
X236025733Y-73058722D01*
X236568862Y-73481978D01*
X237081263Y-73881239D01*
X237559543Y-74253861D01*
X238000305Y-74597198D01*
X238400155Y-74908607D01*
X238755698Y-75185444D01*
X239063539Y-75425063D01*
X239320283Y-75624820D01*
X239522534Y-75782072D01*
X239666899Y-75894173D01*
X239749982Y-75958480D01*
X239769176Y-75973149D01*
X239872166Y-76048862D01*
X236386267Y-82287910D01*
X236009577Y-82961907D01*
X235643698Y-83616166D01*
X235290791Y-84246840D01*
X234953019Y-84850080D01*
X234632545Y-85422035D01*
X234331530Y-85958859D01*
X234052136Y-86456702D01*
X233796526Y-86911715D01*
X233566862Y-87320050D01*
X233365306Y-87677857D01*
X233194020Y-87981289D01*
X233055167Y-88226495D01*
X232950909Y-88409628D01*
X232883408Y-88526839D01*
X232854825Y-88574278D01*
X232854277Y-88574952D01*
X232821951Y-88582348D01*
X232737891Y-88589321D01*
X232599524Y-88595904D01*
X232404277Y-88602129D01*
X232149578Y-88608031D01*
X231832854Y-88613643D01*
X231451531Y-88618997D01*
X231003038Y-88624127D01*
X230484801Y-88629065D01*
X229894247Y-88633846D01*
X229228804Y-88638503D01*
X228485899Y-88643068D01*
X227662959Y-88647574D01*
X226945020Y-88651161D01*
X221081853Y-88679376D01*
X217864520Y-82495465D01*
X217512967Y-81819535D01*
X217172148Y-81163807D01*
X216844106Y-80532230D01*
X216530883Y-79928751D01*
X216234519Y-79357319D01*
X215957058Y-78821881D01*
X215700540Y-78326386D01*
X215467007Y-77874782D01*
X215258501Y-77471017D01*
X215077065Y-77119038D01*
X214924739Y-76822795D01*
X214803565Y-76586236D01*
X214715585Y-76413307D01*
X214662842Y-76307958D01*
X214647187Y-76274180D01*
X214674618Y-76248831D01*
X214757349Y-76181912D01*
X214896035Y-76072924D01*
X215091333Y-75921368D01*
X215343897Y-75726746D01*
X215654384Y-75488559D01*
X216023449Y-75206309D01*
X216451748Y-74879497D01*
X216939937Y-74507624D01*
X217488670Y-74090193D01*
X218098605Y-73626704D01*
X218770396Y-73116659D01*
X219504699Y-72559560D01*
X220302171Y-71954907D01*
X221163466Y-71302202D01*
X222089240Y-70600947D01*
X223080149Y-69850643D01*
X224136849Y-69050792D01*
X225259996Y-68200895D01*
X226205508Y-67485582D01*
X227561496Y-66459828D01*
X233613841Y-71178633D01*
G37*
X75579393Y-109786338D02*
X76211482Y-110279131D01*
X76826424Y-110758506D01*
X77420823Y-111221820D01*
X77991285Y-111666427D01*
X78534414Y-112089683D01*
X79046815Y-112488944D01*
X79525095Y-112861566D01*
X79965857Y-113204903D01*
X80365707Y-113516312D01*
X80721250Y-113793149D01*
X81029091Y-114032768D01*
X81285835Y-114232525D01*
X81488086Y-114389777D01*
X81632451Y-114501878D01*
X81715534Y-114566185D01*
X81734728Y-114580854D01*
X81837718Y-114656567D01*
X78351819Y-120895615D01*
X77975129Y-121569612D01*
X77609250Y-122223871D01*
X77256343Y-122854545D01*
X76918571Y-123457785D01*
X76598097Y-124029740D01*
X76297082Y-124566564D01*
X76017688Y-125064407D01*
X75762078Y-125519420D01*
X75532414Y-125927755D01*
X75330858Y-126285562D01*
X75159572Y-126588994D01*
X75020719Y-126834200D01*
X74916461Y-127017333D01*
X74848960Y-127134544D01*
X74820377Y-127181983D01*
X74819829Y-127182657D01*
X74787503Y-127190053D01*
X74703443Y-127197026D01*
X74565076Y-127203609D01*
X74369829Y-127209834D01*
X74115130Y-127215736D01*
X73798406Y-127221348D01*
X73417083Y-127226702D01*
X72968590Y-127231832D01*
X72450353Y-127236770D01*
X71859799Y-127241551D01*
X71194356Y-127246208D01*
X70451451Y-127250773D01*
X69628511Y-127255279D01*
X68910572Y-127258866D01*
X63047405Y-127287081D01*
X59830072Y-121103170D01*
X59478519Y-120427240D01*
X59137700Y-119771512D01*
X58809658Y-119139935D01*
X58496435Y-118536456D01*
X58200071Y-117965024D01*
X57922610Y-117429586D01*
X57666092Y-116934091D01*
X57432559Y-116482487D01*
X57224053Y-116078722D01*
X57042617Y-115726743D01*
X56890291Y-115430500D01*
X56769117Y-115193941D01*
X56681137Y-115021012D01*
X56628394Y-114915663D01*
X56612739Y-114881885D01*
X56640170Y-114856536D01*
X56722901Y-114789617D01*
X56861587Y-114680629D01*
X57056885Y-114529073D01*
X57309449Y-114334451D01*
X57619936Y-114096264D01*
X57989001Y-113814014D01*
X58417300Y-113487202D01*
X58905489Y-113115329D01*
X59454222Y-112697898D01*
X60064157Y-112234409D01*
X60735948Y-111724364D01*
X61470251Y-111167265D01*
X62267723Y-110562612D01*
X63129018Y-109909907D01*
X64054792Y-109208652D01*
X65045701Y-108458348D01*
X66102401Y-107658497D01*
X67225548Y-106808600D01*
X68171060Y-106093287D01*
X69527048Y-105067533D01*
X75579393Y-109786338D01*
G36*
X75579393Y-109786338D02*
G01*
X76211482Y-110279131D01*
X76826424Y-110758506D01*
X77420823Y-111221820D01*
X77991285Y-111666427D01*
X78534414Y-112089683D01*
X79046815Y-112488944D01*
X79525095Y-112861566D01*
X79965857Y-113204903D01*
X80365707Y-113516312D01*
X80721250Y-113793149D01*
X81029091Y-114032768D01*
X81285835Y-114232525D01*
X81488086Y-114389777D01*
X81632451Y-114501878D01*
X81715534Y-114566185D01*
X81734728Y-114580854D01*
X81837718Y-114656567D01*
X78351819Y-120895615D01*
X77975129Y-121569612D01*
X77609250Y-122223871D01*
X77256343Y-122854545D01*
X76918571Y-123457785D01*
X76598097Y-124029740D01*
X76297082Y-124566564D01*
X76017688Y-125064407D01*
X75762078Y-125519420D01*
X75532414Y-125927755D01*
X75330858Y-126285562D01*
X75159572Y-126588994D01*
X75020719Y-126834200D01*
X74916461Y-127017333D01*
X74848960Y-127134544D01*
X74820377Y-127181983D01*
X74819829Y-127182657D01*
X74787503Y-127190053D01*
X74703443Y-127197026D01*
X74565076Y-127203609D01*
X74369829Y-127209834D01*
X74115130Y-127215736D01*
X73798406Y-127221348D01*
X73417083Y-127226702D01*
X72968590Y-127231832D01*
X72450353Y-127236770D01*
X71859799Y-127241551D01*
X71194356Y-127246208D01*
X70451451Y-127250773D01*
X69628511Y-127255279D01*
X68910572Y-127258866D01*
X63047405Y-127287081D01*
X59830072Y-121103170D01*
X59478519Y-120427240D01*
X59137700Y-119771512D01*
X58809658Y-119139935D01*
X58496435Y-118536456D01*
X58200071Y-117965024D01*
X57922610Y-117429586D01*
X57666092Y-116934091D01*
X57432559Y-116482487D01*
X57224053Y-116078722D01*
X57042617Y-115726743D01*
X56890291Y-115430500D01*
X56769117Y-115193941D01*
X56681137Y-115021012D01*
X56628394Y-114915663D01*
X56612739Y-114881885D01*
X56640170Y-114856536D01*
X56722901Y-114789617D01*
X56861587Y-114680629D01*
X57056885Y-114529073D01*
X57309449Y-114334451D01*
X57619936Y-114096264D01*
X57989001Y-113814014D01*
X58417300Y-113487202D01*
X58905489Y-113115329D01*
X59454222Y-112697898D01*
X60064157Y-112234409D01*
X60735948Y-111724364D01*
X61470251Y-111167265D01*
X62267723Y-110562612D01*
X63129018Y-109909907D01*
X64054792Y-109208652D01*
X65045701Y-108458348D01*
X66102401Y-107658497D01*
X67225548Y-106808600D01*
X68171060Y-106093287D01*
X69527048Y-105067533D01*
X75579393Y-109786338D01*
G37*
X233613841Y-109786338D02*
X234245930Y-110279131D01*
X234860872Y-110758506D01*
X235455271Y-111221820D01*
X236025733Y-111666427D01*
X236568862Y-112089683D01*
X237081263Y-112488944D01*
X237559543Y-112861566D01*
X238000305Y-113204903D01*
X238400155Y-113516312D01*
X238755698Y-113793149D01*
X239063539Y-114032768D01*
X239320283Y-114232525D01*
X239522534Y-114389777D01*
X239666899Y-114501878D01*
X239749982Y-114566185D01*
X239769176Y-114580854D01*
X239872166Y-114656567D01*
X236386267Y-120895615D01*
X236009577Y-121569612D01*
X235643698Y-122223871D01*
X235290791Y-122854545D01*
X234953019Y-123457785D01*
X234632545Y-124029740D01*
X234331530Y-124566564D01*
X234052136Y-125064407D01*
X233796526Y-125519420D01*
X233566862Y-125927755D01*
X233365306Y-126285562D01*
X233194020Y-126588994D01*
X233055167Y-126834200D01*
X232950909Y-127017333D01*
X232883408Y-127134544D01*
X232854825Y-127181983D01*
X232854277Y-127182657D01*
X232821951Y-127190053D01*
X232737891Y-127197026D01*
X232599524Y-127203609D01*
X232404277Y-127209834D01*
X232149578Y-127215736D01*
X231832854Y-127221348D01*
X231451531Y-127226702D01*
X231003038Y-127231832D01*
X230484801Y-127236770D01*
X229894247Y-127241551D01*
X229228804Y-127246208D01*
X228485899Y-127250773D01*
X227662959Y-127255279D01*
X226945020Y-127258866D01*
X221081853Y-127287081D01*
X217864520Y-121103170D01*
X217512967Y-120427240D01*
X217172148Y-119771512D01*
X216844106Y-119139935D01*
X216530883Y-118536456D01*
X216234519Y-117965024D01*
X215957058Y-117429586D01*
X215700540Y-116934091D01*
X215467007Y-116482487D01*
X215258501Y-116078722D01*
X215077065Y-115726743D01*
X214924739Y-115430500D01*
X214803565Y-115193941D01*
X214715585Y-115021012D01*
X214662842Y-114915663D01*
X214647187Y-114881885D01*
X214674618Y-114856536D01*
X214757349Y-114789617D01*
X214896035Y-114680629D01*
X215091333Y-114529073D01*
X215343897Y-114334451D01*
X215654384Y-114096264D01*
X216023449Y-113814014D01*
X216451748Y-113487202D01*
X216939937Y-113115329D01*
X217488670Y-112697898D01*
X218098605Y-112234409D01*
X218770396Y-111724364D01*
X219504699Y-111167265D01*
X220302171Y-110562612D01*
X221163466Y-109909907D01*
X222089240Y-109208652D01*
X223080149Y-108458348D01*
X224136849Y-107658497D01*
X225259996Y-106808600D01*
X226205508Y-106093287D01*
X227561496Y-105067533D01*
X233613841Y-109786338D01*
G36*
X233613841Y-109786338D02*
G01*
X234245930Y-110279131D01*
X234860872Y-110758506D01*
X235455271Y-111221820D01*
X236025733Y-111666427D01*
X236568862Y-112089683D01*
X237081263Y-112488944D01*
X237559543Y-112861566D01*
X238000305Y-113204903D01*
X238400155Y-113516312D01*
X238755698Y-113793149D01*
X239063539Y-114032768D01*
X239320283Y-114232525D01*
X239522534Y-114389777D01*
X239666899Y-114501878D01*
X239749982Y-114566185D01*
X239769176Y-114580854D01*
X239872166Y-114656567D01*
X236386267Y-120895615D01*
X236009577Y-121569612D01*
X235643698Y-122223871D01*
X235290791Y-122854545D01*
X234953019Y-123457785D01*
X234632545Y-124029740D01*
X234331530Y-124566564D01*
X234052136Y-125064407D01*
X233796526Y-125519420D01*
X233566862Y-125927755D01*
X233365306Y-126285562D01*
X233194020Y-126588994D01*
X233055167Y-126834200D01*
X232950909Y-127017333D01*
X232883408Y-127134544D01*
X232854825Y-127181983D01*
X232854277Y-127182657D01*
X232821951Y-127190053D01*
X232737891Y-127197026D01*
X232599524Y-127203609D01*
X232404277Y-127209834D01*
X232149578Y-127215736D01*
X231832854Y-127221348D01*
X231451531Y-127226702D01*
X231003038Y-127231832D01*
X230484801Y-127236770D01*
X229894247Y-127241551D01*
X229228804Y-127246208D01*
X228485899Y-127250773D01*
X227662959Y-127255279D01*
X226945020Y-127258866D01*
X221081853Y-127287081D01*
X217864520Y-121103170D01*
X217512967Y-120427240D01*
X217172148Y-119771512D01*
X216844106Y-119139935D01*
X216530883Y-118536456D01*
X216234519Y-117965024D01*
X215957058Y-117429586D01*
X215700540Y-116934091D01*
X215467007Y-116482487D01*
X215258501Y-116078722D01*
X215077065Y-115726743D01*
X214924739Y-115430500D01*
X214803565Y-115193941D01*
X214715585Y-115021012D01*
X214662842Y-114915663D01*
X214647187Y-114881885D01*
X214674618Y-114856536D01*
X214757349Y-114789617D01*
X214896035Y-114680629D01*
X215091333Y-114529073D01*
X215343897Y-114334451D01*
X215654384Y-114096264D01*
X216023449Y-113814014D01*
X216451748Y-113487202D01*
X216939937Y-113115329D01*
X217488670Y-112697898D01*
X218098605Y-112234409D01*
X218770396Y-111724364D01*
X219504699Y-111167265D01*
X220302171Y-110562612D01*
X221163466Y-109909907D01*
X222089240Y-109208652D01*
X223080149Y-108458348D01*
X224136849Y-107658497D01*
X225259996Y-106808600D01*
X226205508Y-106093287D01*
X227561496Y-105067533D01*
X233613841Y-109786338D01*
G37*
X75579393Y-71178633D02*
X76211482Y-71671426D01*
X76826424Y-72150801D01*
X77420823Y-72614115D01*
X77991285Y-73058722D01*
X78534414Y-73481978D01*
X79046815Y-73881239D01*
X79525095Y-74253861D01*
X79965857Y-74597198D01*
X80365707Y-74908607D01*
X80721250Y-75185444D01*
X81029091Y-75425063D01*
X81285835Y-75624820D01*
X81488086Y-75782072D01*
X81632451Y-75894173D01*
X81715534Y-75958480D01*
X81734728Y-75973149D01*
X81837718Y-76048862D01*
X78351819Y-82287910D01*
X77975129Y-82961907D01*
X77609250Y-83616166D01*
X77256343Y-84246840D01*
X76918571Y-84850080D01*
X76598097Y-85422035D01*
X76297082Y-85958859D01*
X76017688Y-86456702D01*
X75762078Y-86911715D01*
X75532414Y-87320050D01*
X75330858Y-87677857D01*
X75159572Y-87981289D01*
X75020719Y-88226495D01*
X74916461Y-88409628D01*
X74848960Y-88526839D01*
X74820377Y-88574278D01*
X74819829Y-88574952D01*
X74787503Y-88582348D01*
X74703443Y-88589321D01*
X74565076Y-88595904D01*
X74369829Y-88602129D01*
X74115130Y-88608031D01*
X73798406Y-88613643D01*
X73417083Y-88618997D01*
X72968590Y-88624127D01*
X72450353Y-88629065D01*
X71859799Y-88633846D01*
X71194356Y-88638503D01*
X70451451Y-88643068D01*
X69628511Y-88647574D01*
X68910572Y-88651161D01*
X63047405Y-88679376D01*
X59830072Y-82495465D01*
X59478519Y-81819535D01*
X59137700Y-81163807D01*
X58809658Y-80532230D01*
X58496435Y-79928751D01*
X58200071Y-79357319D01*
X57922610Y-78821881D01*
X57666092Y-78326386D01*
X57432559Y-77874782D01*
X57224053Y-77471017D01*
X57042617Y-77119038D01*
X56890291Y-76822795D01*
X56769117Y-76586236D01*
X56681137Y-76413307D01*
X56628394Y-76307958D01*
X56612739Y-76274180D01*
X56640170Y-76248831D01*
X56722901Y-76181912D01*
X56861587Y-76072924D01*
X57056885Y-75921368D01*
X57309449Y-75726746D01*
X57619936Y-75488559D01*
X57989001Y-75206309D01*
X58417300Y-74879497D01*
X58905489Y-74507624D01*
X59454222Y-74090193D01*
X60064157Y-73626704D01*
X60735948Y-73116659D01*
X61470251Y-72559560D01*
X62267723Y-71954907D01*
X63129018Y-71302202D01*
X64054792Y-70600947D01*
X65045701Y-69850643D01*
X66102401Y-69050792D01*
X67225548Y-68200895D01*
X68171060Y-67485582D01*
X69527048Y-66459828D01*
X75579393Y-71178633D01*
G36*
X75579393Y-71178633D02*
G01*
X76211482Y-71671426D01*
X76826424Y-72150801D01*
X77420823Y-72614115D01*
X77991285Y-73058722D01*
X78534414Y-73481978D01*
X79046815Y-73881239D01*
X79525095Y-74253861D01*
X79965857Y-74597198D01*
X80365707Y-74908607D01*
X80721250Y-75185444D01*
X81029091Y-75425063D01*
X81285835Y-75624820D01*
X81488086Y-75782072D01*
X81632451Y-75894173D01*
X81715534Y-75958480D01*
X81734728Y-75973149D01*
X81837718Y-76048862D01*
X78351819Y-82287910D01*
X77975129Y-82961907D01*
X77609250Y-83616166D01*
X77256343Y-84246840D01*
X76918571Y-84850080D01*
X76598097Y-85422035D01*
X76297082Y-85958859D01*
X76017688Y-86456702D01*
X75762078Y-86911715D01*
X75532414Y-87320050D01*
X75330858Y-87677857D01*
X75159572Y-87981289D01*
X75020719Y-88226495D01*
X74916461Y-88409628D01*
X74848960Y-88526839D01*
X74820377Y-88574278D01*
X74819829Y-88574952D01*
X74787503Y-88582348D01*
X74703443Y-88589321D01*
X74565076Y-88595904D01*
X74369829Y-88602129D01*
X74115130Y-88608031D01*
X73798406Y-88613643D01*
X73417083Y-88618997D01*
X72968590Y-88624127D01*
X72450353Y-88629065D01*
X71859799Y-88633846D01*
X71194356Y-88638503D01*
X70451451Y-88643068D01*
X69628511Y-88647574D01*
X68910572Y-88651161D01*
X63047405Y-88679376D01*
X59830072Y-82495465D01*
X59478519Y-81819535D01*
X59137700Y-81163807D01*
X58809658Y-80532230D01*
X58496435Y-79928751D01*
X58200071Y-79357319D01*
X57922610Y-78821881D01*
X57666092Y-78326386D01*
X57432559Y-77874782D01*
X57224053Y-77471017D01*
X57042617Y-77119038D01*
X56890291Y-76822795D01*
X56769117Y-76586236D01*
X56681137Y-76413307D01*
X56628394Y-76307958D01*
X56612739Y-76274180D01*
X56640170Y-76248831D01*
X56722901Y-76181912D01*
X56861587Y-76072924D01*
X57056885Y-75921368D01*
X57309449Y-75726746D01*
X57619936Y-75488559D01*
X57989001Y-75206309D01*
X58417300Y-74879497D01*
X58905489Y-74507624D01*
X59454222Y-74090193D01*
X60064157Y-73626704D01*
X60735948Y-73116659D01*
X61470251Y-72559560D01*
X62267723Y-71954907D01*
X63129018Y-71302202D01*
X64054792Y-70600947D01*
X65045701Y-69850643D01*
X66102401Y-69050792D01*
X67225548Y-68200895D01*
X68171060Y-67485582D01*
X69527048Y-66459828D01*
X75579393Y-71178633D01*
G37*
X194105229Y-109786338D02*
X194737318Y-110279131D01*
X195352260Y-110758506D01*
X195946659Y-111221820D01*
X196517121Y-111666427D01*
X197060250Y-112089683D01*
X197572651Y-112488944D01*
X198050931Y-112861566D01*
X198491693Y-113204903D01*
X198891543Y-113516312D01*
X199247086Y-113793149D01*
X199554927Y-114032768D01*
X199811671Y-114232525D01*
X200013922Y-114389777D01*
X200158287Y-114501878D01*
X200241370Y-114566185D01*
X200260564Y-114580854D01*
X200363554Y-114656567D01*
X196877655Y-120895615D01*
X196500965Y-121569612D01*
X196135086Y-122223871D01*
X195782179Y-122854545D01*
X195444407Y-123457785D01*
X195123933Y-124029740D01*
X194822918Y-124566564D01*
X194543524Y-125064407D01*
X194287914Y-125519420D01*
X194058250Y-125927755D01*
X193856694Y-126285562D01*
X193685408Y-126588994D01*
X193546555Y-126834200D01*
X193442297Y-127017333D01*
X193374796Y-127134544D01*
X193346213Y-127181983D01*
X193345665Y-127182657D01*
X193313339Y-127190053D01*
X193229279Y-127197026D01*
X193090912Y-127203609D01*
X192895665Y-127209834D01*
X192640966Y-127215736D01*
X192324242Y-127221348D01*
X191942919Y-127226702D01*
X191494426Y-127231832D01*
X190976189Y-127236770D01*
X190385635Y-127241551D01*
X189720192Y-127246208D01*
X188977287Y-127250773D01*
X188154347Y-127255279D01*
X187436408Y-127258866D01*
X181573241Y-127287081D01*
X178355908Y-121103170D01*
X178004355Y-120427240D01*
X177663536Y-119771512D01*
X177335494Y-119139935D01*
X177022271Y-118536456D01*
X176725907Y-117965024D01*
X176448446Y-117429586D01*
X176191928Y-116934091D01*
X175958395Y-116482487D01*
X175749889Y-116078722D01*
X175568453Y-115726743D01*
X175416127Y-115430500D01*
X175294953Y-115193941D01*
X175206973Y-115021012D01*
X175154230Y-114915663D01*
X175138575Y-114881885D01*
X175166006Y-114856536D01*
X175248737Y-114789617D01*
X175387423Y-114680629D01*
X175582721Y-114529073D01*
X175835285Y-114334451D01*
X176145772Y-114096264D01*
X176514837Y-113814014D01*
X176943136Y-113487202D01*
X177431325Y-113115329D01*
X177980058Y-112697898D01*
X178589993Y-112234409D01*
X179261784Y-111724364D01*
X179996087Y-111167265D01*
X180793559Y-110562612D01*
X181654854Y-109909907D01*
X182580628Y-109208652D01*
X183571537Y-108458348D01*
X184628237Y-107658497D01*
X185751384Y-106808600D01*
X186696896Y-106093287D01*
X188052884Y-105067533D01*
X194105229Y-109786338D01*
G36*
X194105229Y-109786338D02*
G01*
X194737318Y-110279131D01*
X195352260Y-110758506D01*
X195946659Y-111221820D01*
X196517121Y-111666427D01*
X197060250Y-112089683D01*
X197572651Y-112488944D01*
X198050931Y-112861566D01*
X198491693Y-113204903D01*
X198891543Y-113516312D01*
X199247086Y-113793149D01*
X199554927Y-114032768D01*
X199811671Y-114232525D01*
X200013922Y-114389777D01*
X200158287Y-114501878D01*
X200241370Y-114566185D01*
X200260564Y-114580854D01*
X200363554Y-114656567D01*
X196877655Y-120895615D01*
X196500965Y-121569612D01*
X196135086Y-122223871D01*
X195782179Y-122854545D01*
X195444407Y-123457785D01*
X195123933Y-124029740D01*
X194822918Y-124566564D01*
X194543524Y-125064407D01*
X194287914Y-125519420D01*
X194058250Y-125927755D01*
X193856694Y-126285562D01*
X193685408Y-126588994D01*
X193546555Y-126834200D01*
X193442297Y-127017333D01*
X193374796Y-127134544D01*
X193346213Y-127181983D01*
X193345665Y-127182657D01*
X193313339Y-127190053D01*
X193229279Y-127197026D01*
X193090912Y-127203609D01*
X192895665Y-127209834D01*
X192640966Y-127215736D01*
X192324242Y-127221348D01*
X191942919Y-127226702D01*
X191494426Y-127231832D01*
X190976189Y-127236770D01*
X190385635Y-127241551D01*
X189720192Y-127246208D01*
X188977287Y-127250773D01*
X188154347Y-127255279D01*
X187436408Y-127258866D01*
X181573241Y-127287081D01*
X178355908Y-121103170D01*
X178004355Y-120427240D01*
X177663536Y-119771512D01*
X177335494Y-119139935D01*
X177022271Y-118536456D01*
X176725907Y-117965024D01*
X176448446Y-117429586D01*
X176191928Y-116934091D01*
X175958395Y-116482487D01*
X175749889Y-116078722D01*
X175568453Y-115726743D01*
X175416127Y-115430500D01*
X175294953Y-115193941D01*
X175206973Y-115021012D01*
X175154230Y-114915663D01*
X175138575Y-114881885D01*
X175166006Y-114856536D01*
X175248737Y-114789617D01*
X175387423Y-114680629D01*
X175582721Y-114529073D01*
X175835285Y-114334451D01*
X176145772Y-114096264D01*
X176514837Y-113814014D01*
X176943136Y-113487202D01*
X177431325Y-113115329D01*
X177980058Y-112697898D01*
X178589993Y-112234409D01*
X179261784Y-111724364D01*
X179996087Y-111167265D01*
X180793559Y-110562612D01*
X181654854Y-109909907D01*
X182580628Y-109208652D01*
X183571537Y-108458348D01*
X184628237Y-107658497D01*
X185751384Y-106808600D01*
X186696896Y-106093287D01*
X188052884Y-105067533D01*
X194105229Y-109786338D01*
G37*
X154596617Y-187001748D02*
X155228706Y-187494541D01*
X155843648Y-187973916D01*
X156438047Y-188437230D01*
X157008509Y-188881837D01*
X157551638Y-189305093D01*
X158064039Y-189704354D01*
X158542319Y-190076976D01*
X158983081Y-190420313D01*
X159382931Y-190731722D01*
X159738474Y-191008559D01*
X160046315Y-191248178D01*
X160303059Y-191447935D01*
X160505310Y-191605187D01*
X160649675Y-191717288D01*
X160732758Y-191781595D01*
X160751952Y-191796264D01*
X160854942Y-191871977D01*
X157369043Y-198111025D01*
X156992353Y-198785022D01*
X156626474Y-199439281D01*
X156273567Y-200069955D01*
X155935795Y-200673195D01*
X155615321Y-201245150D01*
X155314306Y-201781974D01*
X155034912Y-202279817D01*
X154779302Y-202734830D01*
X154549638Y-203143165D01*
X154348082Y-203500972D01*
X154176796Y-203804404D01*
X154037943Y-204049610D01*
X153933685Y-204232743D01*
X153866184Y-204349954D01*
X153837601Y-204397393D01*
X153837053Y-204398067D01*
X153804727Y-204405463D01*
X153720667Y-204412436D01*
X153582300Y-204419019D01*
X153387053Y-204425244D01*
X153132354Y-204431146D01*
X152815630Y-204436758D01*
X152434307Y-204442112D01*
X151985814Y-204447242D01*
X151467577Y-204452180D01*
X150877023Y-204456961D01*
X150211580Y-204461618D01*
X149468675Y-204466183D01*
X148645735Y-204470689D01*
X147927796Y-204474276D01*
X142064629Y-204502491D01*
X138847296Y-198318580D01*
X138495743Y-197642650D01*
X138154924Y-196986922D01*
X137826882Y-196355345D01*
X137513659Y-195751866D01*
X137217295Y-195180434D01*
X136939834Y-194644996D01*
X136683316Y-194149501D01*
X136449783Y-193697897D01*
X136241277Y-193294132D01*
X136059841Y-192942153D01*
X135907515Y-192645910D01*
X135786341Y-192409351D01*
X135698361Y-192236422D01*
X135645618Y-192131073D01*
X135629963Y-192097295D01*
X135657394Y-192071946D01*
X135740125Y-192005027D01*
X135878811Y-191896039D01*
X136074109Y-191744483D01*
X136326673Y-191549861D01*
X136637160Y-191311674D01*
X137006225Y-191029424D01*
X137434524Y-190702612D01*
X137922713Y-190330739D01*
X138471446Y-189913308D01*
X139081381Y-189449819D01*
X139753172Y-188939774D01*
X140487475Y-188382675D01*
X141284947Y-187778022D01*
X142146242Y-187125317D01*
X143072016Y-186424062D01*
X144062925Y-185673758D01*
X145119625Y-184873907D01*
X146242772Y-184024010D01*
X147188284Y-183308697D01*
X148544272Y-182282943D01*
X154596617Y-187001748D01*
G36*
X154596617Y-187001748D02*
G01*
X155228706Y-187494541D01*
X155843648Y-187973916D01*
X156438047Y-188437230D01*
X157008509Y-188881837D01*
X157551638Y-189305093D01*
X158064039Y-189704354D01*
X158542319Y-190076976D01*
X158983081Y-190420313D01*
X159382931Y-190731722D01*
X159738474Y-191008559D01*
X160046315Y-191248178D01*
X160303059Y-191447935D01*
X160505310Y-191605187D01*
X160649675Y-191717288D01*
X160732758Y-191781595D01*
X160751952Y-191796264D01*
X160854942Y-191871977D01*
X157369043Y-198111025D01*
X156992353Y-198785022D01*
X156626474Y-199439281D01*
X156273567Y-200069955D01*
X155935795Y-200673195D01*
X155615321Y-201245150D01*
X155314306Y-201781974D01*
X155034912Y-202279817D01*
X154779302Y-202734830D01*
X154549638Y-203143165D01*
X154348082Y-203500972D01*
X154176796Y-203804404D01*
X154037943Y-204049610D01*
X153933685Y-204232743D01*
X153866184Y-204349954D01*
X153837601Y-204397393D01*
X153837053Y-204398067D01*
X153804727Y-204405463D01*
X153720667Y-204412436D01*
X153582300Y-204419019D01*
X153387053Y-204425244D01*
X153132354Y-204431146D01*
X152815630Y-204436758D01*
X152434307Y-204442112D01*
X151985814Y-204447242D01*
X151467577Y-204452180D01*
X150877023Y-204456961D01*
X150211580Y-204461618D01*
X149468675Y-204466183D01*
X148645735Y-204470689D01*
X147927796Y-204474276D01*
X142064629Y-204502491D01*
X138847296Y-198318580D01*
X138495743Y-197642650D01*
X138154924Y-196986922D01*
X137826882Y-196355345D01*
X137513659Y-195751866D01*
X137217295Y-195180434D01*
X136939834Y-194644996D01*
X136683316Y-194149501D01*
X136449783Y-193697897D01*
X136241277Y-193294132D01*
X136059841Y-192942153D01*
X135907515Y-192645910D01*
X135786341Y-192409351D01*
X135698361Y-192236422D01*
X135645618Y-192131073D01*
X135629963Y-192097295D01*
X135657394Y-192071946D01*
X135740125Y-192005027D01*
X135878811Y-191896039D01*
X136074109Y-191744483D01*
X136326673Y-191549861D01*
X136637160Y-191311674D01*
X137006225Y-191029424D01*
X137434524Y-190702612D01*
X137922713Y-190330739D01*
X138471446Y-189913308D01*
X139081381Y-189449819D01*
X139753172Y-188939774D01*
X140487475Y-188382675D01*
X141284947Y-187778022D01*
X142146242Y-187125317D01*
X143072016Y-186424062D01*
X144062925Y-185673758D01*
X145119625Y-184873907D01*
X146242772Y-184024010D01*
X147188284Y-183308697D01*
X148544272Y-182282943D01*
X154596617Y-187001748D01*
G37*
X115088005Y-71178633D02*
X115720094Y-71671426D01*
X116335036Y-72150801D01*
X116929435Y-72614115D01*
X117499897Y-73058722D01*
X118043026Y-73481978D01*
X118555427Y-73881239D01*
X119033707Y-74253861D01*
X119474469Y-74597198D01*
X119874319Y-74908607D01*
X120229862Y-75185444D01*
X120537703Y-75425063D01*
X120794447Y-75624820D01*
X120996698Y-75782072D01*
X121141063Y-75894173D01*
X121224146Y-75958480D01*
X121243340Y-75973149D01*
X121346330Y-76048862D01*
X117860431Y-82287910D01*
X117483741Y-82961907D01*
X117117862Y-83616166D01*
X116764955Y-84246840D01*
X116427183Y-84850080D01*
X116106709Y-85422035D01*
X115805694Y-85958859D01*
X115526300Y-86456702D01*
X115270690Y-86911715D01*
X115041026Y-87320050D01*
X114839470Y-87677857D01*
X114668184Y-87981289D01*
X114529331Y-88226495D01*
X114425073Y-88409628D01*
X114357572Y-88526839D01*
X114328989Y-88574278D01*
X114328441Y-88574952D01*
X114296115Y-88582348D01*
X114212055Y-88589321D01*
X114073688Y-88595904D01*
X113878441Y-88602129D01*
X113623742Y-88608031D01*
X113307018Y-88613643D01*
X112925695Y-88618997D01*
X112477202Y-88624127D01*
X111958965Y-88629065D01*
X111368411Y-88633846D01*
X110702968Y-88638503D01*
X109960063Y-88643068D01*
X109137123Y-88647574D01*
X108419184Y-88651161D01*
X102556017Y-88679376D01*
X99338684Y-82495465D01*
X98987131Y-81819535D01*
X98646312Y-81163807D01*
X98318270Y-80532230D01*
X98005047Y-79928751D01*
X97708683Y-79357319D01*
X97431222Y-78821881D01*
X97174704Y-78326386D01*
X96941171Y-77874782D01*
X96732665Y-77471017D01*
X96551229Y-77119038D01*
X96398903Y-76822795D01*
X96277729Y-76586236D01*
X96189749Y-76413307D01*
X96137006Y-76307958D01*
X96121351Y-76274180D01*
X96148782Y-76248831D01*
X96231513Y-76181912D01*
X96370199Y-76072924D01*
X96565497Y-75921368D01*
X96818061Y-75726746D01*
X97128548Y-75488559D01*
X97497613Y-75206309D01*
X97925912Y-74879497D01*
X98414101Y-74507624D01*
X98962834Y-74090193D01*
X99572769Y-73626704D01*
X100244560Y-73116659D01*
X100978863Y-72559560D01*
X101776335Y-71954907D01*
X102637630Y-71302202D01*
X103563404Y-70600947D01*
X104554313Y-69850643D01*
X105611013Y-69050792D01*
X106734160Y-68200895D01*
X107679672Y-67485582D01*
X109035660Y-66459828D01*
X115088005Y-71178633D01*
G36*
X115088005Y-71178633D02*
G01*
X115720094Y-71671426D01*
X116335036Y-72150801D01*
X116929435Y-72614115D01*
X117499897Y-73058722D01*
X118043026Y-73481978D01*
X118555427Y-73881239D01*
X119033707Y-74253861D01*
X119474469Y-74597198D01*
X119874319Y-74908607D01*
X120229862Y-75185444D01*
X120537703Y-75425063D01*
X120794447Y-75624820D01*
X120996698Y-75782072D01*
X121141063Y-75894173D01*
X121224146Y-75958480D01*
X121243340Y-75973149D01*
X121346330Y-76048862D01*
X117860431Y-82287910D01*
X117483741Y-82961907D01*
X117117862Y-83616166D01*
X116764955Y-84246840D01*
X116427183Y-84850080D01*
X116106709Y-85422035D01*
X115805694Y-85958859D01*
X115526300Y-86456702D01*
X115270690Y-86911715D01*
X115041026Y-87320050D01*
X114839470Y-87677857D01*
X114668184Y-87981289D01*
X114529331Y-88226495D01*
X114425073Y-88409628D01*
X114357572Y-88526839D01*
X114328989Y-88574278D01*
X114328441Y-88574952D01*
X114296115Y-88582348D01*
X114212055Y-88589321D01*
X114073688Y-88595904D01*
X113878441Y-88602129D01*
X113623742Y-88608031D01*
X113307018Y-88613643D01*
X112925695Y-88618997D01*
X112477202Y-88624127D01*
X111958965Y-88629065D01*
X111368411Y-88633846D01*
X110702968Y-88638503D01*
X109960063Y-88643068D01*
X109137123Y-88647574D01*
X108419184Y-88651161D01*
X102556017Y-88679376D01*
X99338684Y-82495465D01*
X98987131Y-81819535D01*
X98646312Y-81163807D01*
X98318270Y-80532230D01*
X98005047Y-79928751D01*
X97708683Y-79357319D01*
X97431222Y-78821881D01*
X97174704Y-78326386D01*
X96941171Y-77874782D01*
X96732665Y-77471017D01*
X96551229Y-77119038D01*
X96398903Y-76822795D01*
X96277729Y-76586236D01*
X96189749Y-76413307D01*
X96137006Y-76307958D01*
X96121351Y-76274180D01*
X96148782Y-76248831D01*
X96231513Y-76181912D01*
X96370199Y-76072924D01*
X96565497Y-75921368D01*
X96818061Y-75726746D01*
X97128548Y-75488559D01*
X97497613Y-75206309D01*
X97925912Y-74879497D01*
X98414101Y-74507624D01*
X98962834Y-74090193D01*
X99572769Y-73626704D01*
X100244560Y-73116659D01*
X100978863Y-72559560D01*
X101776335Y-71954907D01*
X102637630Y-71302202D01*
X103563404Y-70600947D01*
X104554313Y-69850643D01*
X105611013Y-69050792D01*
X106734160Y-68200895D01*
X107679672Y-67485582D01*
X109035660Y-66459828D01*
X115088005Y-71178633D01*
G37*
X75579393Y-187001748D02*
X76211482Y-187494541D01*
X76826424Y-187973916D01*
X77420823Y-188437230D01*
X77991285Y-188881837D01*
X78534414Y-189305093D01*
X79046815Y-189704354D01*
X79525095Y-190076976D01*
X79965857Y-190420313D01*
X80365707Y-190731722D01*
X80721250Y-191008559D01*
X81029091Y-191248178D01*
X81285835Y-191447935D01*
X81488086Y-191605187D01*
X81632451Y-191717288D01*
X81715534Y-191781595D01*
X81734728Y-191796264D01*
X81837718Y-191871977D01*
X78351819Y-198111025D01*
X77975129Y-198785022D01*
X77609250Y-199439281D01*
X77256343Y-200069955D01*
X76918571Y-200673195D01*
X76598097Y-201245150D01*
X76297082Y-201781974D01*
X76017688Y-202279817D01*
X75762078Y-202734830D01*
X75532414Y-203143165D01*
X75330858Y-203500972D01*
X75159572Y-203804404D01*
X75020719Y-204049610D01*
X74916461Y-204232743D01*
X74848960Y-204349954D01*
X74820377Y-204397393D01*
X74819829Y-204398067D01*
X74787503Y-204405463D01*
X74703443Y-204412436D01*
X74565076Y-204419019D01*
X74369829Y-204425244D01*
X74115130Y-204431146D01*
X73798406Y-204436758D01*
X73417083Y-204442112D01*
X72968590Y-204447242D01*
X72450353Y-204452180D01*
X71859799Y-204456961D01*
X71194356Y-204461618D01*
X70451451Y-204466183D01*
X69628511Y-204470689D01*
X68910572Y-204474276D01*
X63047405Y-204502491D01*
X59830072Y-198318580D01*
X59478519Y-197642650D01*
X59137700Y-196986922D01*
X58809658Y-196355345D01*
X58496435Y-195751866D01*
X58200071Y-195180434D01*
X57922610Y-194644996D01*
X57666092Y-194149501D01*
X57432559Y-193697897D01*
X57224053Y-193294132D01*
X57042617Y-192942153D01*
X56890291Y-192645910D01*
X56769117Y-192409351D01*
X56681137Y-192236422D01*
X56628394Y-192131073D01*
X56612739Y-192097295D01*
X56640170Y-192071946D01*
X56722901Y-192005027D01*
X56861587Y-191896039D01*
X57056885Y-191744483D01*
X57309449Y-191549861D01*
X57619936Y-191311674D01*
X57989001Y-191029424D01*
X58417300Y-190702612D01*
X58905489Y-190330739D01*
X59454222Y-189913308D01*
X60064157Y-189449819D01*
X60735948Y-188939774D01*
X61470251Y-188382675D01*
X62267723Y-187778022D01*
X63129018Y-187125317D01*
X64054792Y-186424062D01*
X65045701Y-185673758D01*
X66102401Y-184873907D01*
X67225548Y-184024010D01*
X68171060Y-183308697D01*
X69527048Y-182282943D01*
X75579393Y-187001748D01*
G36*
X75579393Y-187001748D02*
G01*
X76211482Y-187494541D01*
X76826424Y-187973916D01*
X77420823Y-188437230D01*
X77991285Y-188881837D01*
X78534414Y-189305093D01*
X79046815Y-189704354D01*
X79525095Y-190076976D01*
X79965857Y-190420313D01*
X80365707Y-190731722D01*
X80721250Y-191008559D01*
X81029091Y-191248178D01*
X81285835Y-191447935D01*
X81488086Y-191605187D01*
X81632451Y-191717288D01*
X81715534Y-191781595D01*
X81734728Y-191796264D01*
X81837718Y-191871977D01*
X78351819Y-198111025D01*
X77975129Y-198785022D01*
X77609250Y-199439281D01*
X77256343Y-200069955D01*
X76918571Y-200673195D01*
X76598097Y-201245150D01*
X76297082Y-201781974D01*
X76017688Y-202279817D01*
X75762078Y-202734830D01*
X75532414Y-203143165D01*
X75330858Y-203500972D01*
X75159572Y-203804404D01*
X75020719Y-204049610D01*
X74916461Y-204232743D01*
X74848960Y-204349954D01*
X74820377Y-204397393D01*
X74819829Y-204398067D01*
X74787503Y-204405463D01*
X74703443Y-204412436D01*
X74565076Y-204419019D01*
X74369829Y-204425244D01*
X74115130Y-204431146D01*
X73798406Y-204436758D01*
X73417083Y-204442112D01*
X72968590Y-204447242D01*
X72450353Y-204452180D01*
X71859799Y-204456961D01*
X71194356Y-204461618D01*
X70451451Y-204466183D01*
X69628511Y-204470689D01*
X68910572Y-204474276D01*
X63047405Y-204502491D01*
X59830072Y-198318580D01*
X59478519Y-197642650D01*
X59137700Y-196986922D01*
X58809658Y-196355345D01*
X58496435Y-195751866D01*
X58200071Y-195180434D01*
X57922610Y-194644996D01*
X57666092Y-194149501D01*
X57432559Y-193697897D01*
X57224053Y-193294132D01*
X57042617Y-192942153D01*
X56890291Y-192645910D01*
X56769117Y-192409351D01*
X56681137Y-192236422D01*
X56628394Y-192131073D01*
X56612739Y-192097295D01*
X56640170Y-192071946D01*
X56722901Y-192005027D01*
X56861587Y-191896039D01*
X57056885Y-191744483D01*
X57309449Y-191549861D01*
X57619936Y-191311674D01*
X57989001Y-191029424D01*
X58417300Y-190702612D01*
X58905489Y-190330739D01*
X59454222Y-189913308D01*
X60064157Y-189449819D01*
X60735948Y-188939774D01*
X61470251Y-188382675D01*
X62267723Y-187778022D01*
X63129018Y-187125317D01*
X64054792Y-186424062D01*
X65045701Y-185673758D01*
X66102401Y-184873907D01*
X67225548Y-184024010D01*
X68171060Y-183308697D01*
X69527048Y-182282943D01*
X75579393Y-187001748D01*
G37*
X194105229Y-187001748D02*
X194737318Y-187494541D01*
X195352260Y-187973916D01*
X195946659Y-188437230D01*
X196517121Y-188881837D01*
X197060250Y-189305093D01*
X197572651Y-189704354D01*
X198050931Y-190076976D01*
X198491693Y-190420313D01*
X198891543Y-190731722D01*
X199247086Y-191008559D01*
X199554927Y-191248178D01*
X199811671Y-191447935D01*
X200013922Y-191605187D01*
X200158287Y-191717288D01*
X200241370Y-191781595D01*
X200260564Y-191796264D01*
X200363554Y-191871977D01*
X196877655Y-198111025D01*
X196500965Y-198785022D01*
X196135086Y-199439281D01*
X195782179Y-200069955D01*
X195444407Y-200673195D01*
X195123933Y-201245150D01*
X194822918Y-201781974D01*
X194543524Y-202279817D01*
X194287914Y-202734830D01*
X194058250Y-203143165D01*
X193856694Y-203500972D01*
X193685408Y-203804404D01*
X193546555Y-204049610D01*
X193442297Y-204232743D01*
X193374796Y-204349954D01*
X193346213Y-204397393D01*
X193345665Y-204398067D01*
X193313339Y-204405463D01*
X193229279Y-204412436D01*
X193090912Y-204419019D01*
X192895665Y-204425244D01*
X192640966Y-204431146D01*
X192324242Y-204436758D01*
X191942919Y-204442112D01*
X191494426Y-204447242D01*
X190976189Y-204452180D01*
X190385635Y-204456961D01*
X189720192Y-204461618D01*
X188977287Y-204466183D01*
X188154347Y-204470689D01*
X187436408Y-204474276D01*
X181573241Y-204502491D01*
X178355908Y-198318580D01*
X178004355Y-197642650D01*
X177663536Y-196986922D01*
X177335494Y-196355345D01*
X177022271Y-195751866D01*
X176725907Y-195180434D01*
X176448446Y-194644996D01*
X176191928Y-194149501D01*
X175958395Y-193697897D01*
X175749889Y-193294132D01*
X175568453Y-192942153D01*
X175416127Y-192645910D01*
X175294953Y-192409351D01*
X175206973Y-192236422D01*
X175154230Y-192131073D01*
X175138575Y-192097295D01*
X175166006Y-192071946D01*
X175248737Y-192005027D01*
X175387423Y-191896039D01*
X175582721Y-191744483D01*
X175835285Y-191549861D01*
X176145772Y-191311674D01*
X176514837Y-191029424D01*
X176943136Y-190702612D01*
X177431325Y-190330739D01*
X177980058Y-189913308D01*
X178589993Y-189449819D01*
X179261784Y-188939774D01*
X179996087Y-188382675D01*
X180793559Y-187778022D01*
X181654854Y-187125317D01*
X182580628Y-186424062D01*
X183571537Y-185673758D01*
X184628237Y-184873907D01*
X185751384Y-184024010D01*
X186696896Y-183308697D01*
X188052884Y-182282943D01*
X194105229Y-187001748D01*
G36*
X194105229Y-187001748D02*
G01*
X194737318Y-187494541D01*
X195352260Y-187973916D01*
X195946659Y-188437230D01*
X196517121Y-188881837D01*
X197060250Y-189305093D01*
X197572651Y-189704354D01*
X198050931Y-190076976D01*
X198491693Y-190420313D01*
X198891543Y-190731722D01*
X199247086Y-191008559D01*
X199554927Y-191248178D01*
X199811671Y-191447935D01*
X200013922Y-191605187D01*
X200158287Y-191717288D01*
X200241370Y-191781595D01*
X200260564Y-191796264D01*
X200363554Y-191871977D01*
X196877655Y-198111025D01*
X196500965Y-198785022D01*
X196135086Y-199439281D01*
X195782179Y-200069955D01*
X195444407Y-200673195D01*
X195123933Y-201245150D01*
X194822918Y-201781974D01*
X194543524Y-202279817D01*
X194287914Y-202734830D01*
X194058250Y-203143165D01*
X193856694Y-203500972D01*
X193685408Y-203804404D01*
X193546555Y-204049610D01*
X193442297Y-204232743D01*
X193374796Y-204349954D01*
X193346213Y-204397393D01*
X193345665Y-204398067D01*
X193313339Y-204405463D01*
X193229279Y-204412436D01*
X193090912Y-204419019D01*
X192895665Y-204425244D01*
X192640966Y-204431146D01*
X192324242Y-204436758D01*
X191942919Y-204442112D01*
X191494426Y-204447242D01*
X190976189Y-204452180D01*
X190385635Y-204456961D01*
X189720192Y-204461618D01*
X188977287Y-204466183D01*
X188154347Y-204470689D01*
X187436408Y-204474276D01*
X181573241Y-204502491D01*
X178355908Y-198318580D01*
X178004355Y-197642650D01*
X177663536Y-196986922D01*
X177335494Y-196355345D01*
X177022271Y-195751866D01*
X176725907Y-195180434D01*
X176448446Y-194644996D01*
X176191928Y-194149501D01*
X175958395Y-193697897D01*
X175749889Y-193294132D01*
X175568453Y-192942153D01*
X175416127Y-192645910D01*
X175294953Y-192409351D01*
X175206973Y-192236422D01*
X175154230Y-192131073D01*
X175138575Y-192097295D01*
X175166006Y-192071946D01*
X175248737Y-192005027D01*
X175387423Y-191896039D01*
X175582721Y-191744483D01*
X175835285Y-191549861D01*
X176145772Y-191311674D01*
X176514837Y-191029424D01*
X176943136Y-190702612D01*
X177431325Y-190330739D01*
X177980058Y-189913308D01*
X178589993Y-189449819D01*
X179261784Y-188939774D01*
X179996087Y-188382675D01*
X180793559Y-187778022D01*
X181654854Y-187125317D01*
X182580628Y-186424062D01*
X183571537Y-185673758D01*
X184628237Y-184873907D01*
X185751384Y-184024010D01*
X186696896Y-183308697D01*
X188052884Y-182282943D01*
X194105229Y-187001748D01*
G37*
X194105229Y-148394043D02*
X194737318Y-148886836D01*
X195352260Y-149366211D01*
X195946659Y-149829525D01*
X196517121Y-150274132D01*
X197060250Y-150697388D01*
X197572651Y-151096649D01*
X198050931Y-151469271D01*
X198491693Y-151812608D01*
X198891543Y-152124017D01*
X199247086Y-152400854D01*
X199554927Y-152640473D01*
X199811671Y-152840230D01*
X200013922Y-152997482D01*
X200158287Y-153109583D01*
X200241370Y-153173890D01*
X200260564Y-153188559D01*
X200363554Y-153264272D01*
X196877655Y-159503320D01*
X196500965Y-160177317D01*
X196135086Y-160831576D01*
X195782179Y-161462250D01*
X195444407Y-162065490D01*
X195123933Y-162637445D01*
X194822918Y-163174269D01*
X194543524Y-163672112D01*
X194287914Y-164127125D01*
X194058250Y-164535460D01*
X193856694Y-164893267D01*
X193685408Y-165196699D01*
X193546555Y-165441905D01*
X193442297Y-165625038D01*
X193374796Y-165742249D01*
X193346213Y-165789688D01*
X193345665Y-165790362D01*
X193313339Y-165797758D01*
X193229279Y-165804731D01*
X193090912Y-165811314D01*
X192895665Y-165817539D01*
X192640966Y-165823441D01*
X192324242Y-165829053D01*
X191942919Y-165834407D01*
X191494426Y-165839537D01*
X190976189Y-165844475D01*
X190385635Y-165849256D01*
X189720192Y-165853913D01*
X188977287Y-165858478D01*
X188154347Y-165862984D01*
X187436408Y-165866571D01*
X181573241Y-165894786D01*
X178355908Y-159710875D01*
X178004355Y-159034945D01*
X177663536Y-158379217D01*
X177335494Y-157747640D01*
X177022271Y-157144161D01*
X176725907Y-156572729D01*
X176448446Y-156037291D01*
X176191928Y-155541796D01*
X175958395Y-155090192D01*
X175749889Y-154686427D01*
X175568453Y-154334448D01*
X175416127Y-154038205D01*
X175294953Y-153801646D01*
X175206973Y-153628717D01*
X175154230Y-153523368D01*
X175138575Y-153489590D01*
X175166006Y-153464241D01*
X175248737Y-153397322D01*
X175387423Y-153288334D01*
X175582721Y-153136778D01*
X175835285Y-152942156D01*
X176145772Y-152703969D01*
X176514837Y-152421719D01*
X176943136Y-152094907D01*
X177431325Y-151723034D01*
X177980058Y-151305603D01*
X178589993Y-150842114D01*
X179261784Y-150332069D01*
X179996087Y-149774970D01*
X180793559Y-149170317D01*
X181654854Y-148517612D01*
X182580628Y-147816357D01*
X183571537Y-147066053D01*
X184628237Y-146266202D01*
X185751384Y-145416305D01*
X186696896Y-144700992D01*
X188052884Y-143675238D01*
X194105229Y-148394043D01*
G36*
X194105229Y-148394043D02*
G01*
X194737318Y-148886836D01*
X195352260Y-149366211D01*
X195946659Y-149829525D01*
X196517121Y-150274132D01*
X197060250Y-150697388D01*
X197572651Y-151096649D01*
X198050931Y-151469271D01*
X198491693Y-151812608D01*
X198891543Y-152124017D01*
X199247086Y-152400854D01*
X199554927Y-152640473D01*
X199811671Y-152840230D01*
X200013922Y-152997482D01*
X200158287Y-153109583D01*
X200241370Y-153173890D01*
X200260564Y-153188559D01*
X200363554Y-153264272D01*
X196877655Y-159503320D01*
X196500965Y-160177317D01*
X196135086Y-160831576D01*
X195782179Y-161462250D01*
X195444407Y-162065490D01*
X195123933Y-162637445D01*
X194822918Y-163174269D01*
X194543524Y-163672112D01*
X194287914Y-164127125D01*
X194058250Y-164535460D01*
X193856694Y-164893267D01*
X193685408Y-165196699D01*
X193546555Y-165441905D01*
X193442297Y-165625038D01*
X193374796Y-165742249D01*
X193346213Y-165789688D01*
X193345665Y-165790362D01*
X193313339Y-165797758D01*
X193229279Y-165804731D01*
X193090912Y-165811314D01*
X192895665Y-165817539D01*
X192640966Y-165823441D01*
X192324242Y-165829053D01*
X191942919Y-165834407D01*
X191494426Y-165839537D01*
X190976189Y-165844475D01*
X190385635Y-165849256D01*
X189720192Y-165853913D01*
X188977287Y-165858478D01*
X188154347Y-165862984D01*
X187436408Y-165866571D01*
X181573241Y-165894786D01*
X178355908Y-159710875D01*
X178004355Y-159034945D01*
X177663536Y-158379217D01*
X177335494Y-157747640D01*
X177022271Y-157144161D01*
X176725907Y-156572729D01*
X176448446Y-156037291D01*
X176191928Y-155541796D01*
X175958395Y-155090192D01*
X175749889Y-154686427D01*
X175568453Y-154334448D01*
X175416127Y-154038205D01*
X175294953Y-153801646D01*
X175206973Y-153628717D01*
X175154230Y-153523368D01*
X175138575Y-153489590D01*
X175166006Y-153464241D01*
X175248737Y-153397322D01*
X175387423Y-153288334D01*
X175582721Y-153136778D01*
X175835285Y-152942156D01*
X176145772Y-152703969D01*
X176514837Y-152421719D01*
X176943136Y-152094907D01*
X177431325Y-151723034D01*
X177980058Y-151305603D01*
X178589993Y-150842114D01*
X179261784Y-150332069D01*
X179996087Y-149774970D01*
X180793559Y-149170317D01*
X181654854Y-148517612D01*
X182580628Y-147816357D01*
X183571537Y-147066053D01*
X184628237Y-146266202D01*
X185751384Y-145416305D01*
X186696896Y-144700992D01*
X188052884Y-143675238D01*
X194105229Y-148394043D01*
G37*
X233613841Y-148394043D02*
X234245930Y-148886836D01*
X234860872Y-149366211D01*
X235455271Y-149829525D01*
X236025733Y-150274132D01*
X236568862Y-150697388D01*
X237081263Y-151096649D01*
X237559543Y-151469271D01*
X238000305Y-151812608D01*
X238400155Y-152124017D01*
X238755698Y-152400854D01*
X239063539Y-152640473D01*
X239320283Y-152840230D01*
X239522534Y-152997482D01*
X239666899Y-153109583D01*
X239749982Y-153173890D01*
X239769176Y-153188559D01*
X239872166Y-153264272D01*
X236386267Y-159503320D01*
X236009577Y-160177317D01*
X235643698Y-160831576D01*
X235290791Y-161462250D01*
X234953019Y-162065490D01*
X234632545Y-162637445D01*
X234331530Y-163174269D01*
X234052136Y-163672112D01*
X233796526Y-164127125D01*
X233566862Y-164535460D01*
X233365306Y-164893267D01*
X233194020Y-165196699D01*
X233055167Y-165441905D01*
X232950909Y-165625038D01*
X232883408Y-165742249D01*
X232854825Y-165789688D01*
X232854277Y-165790362D01*
X232821951Y-165797758D01*
X232737891Y-165804731D01*
X232599524Y-165811314D01*
X232404277Y-165817539D01*
X232149578Y-165823441D01*
X231832854Y-165829053D01*
X231451531Y-165834407D01*
X231003038Y-165839537D01*
X230484801Y-165844475D01*
X229894247Y-165849256D01*
X229228804Y-165853913D01*
X228485899Y-165858478D01*
X227662959Y-165862984D01*
X226945020Y-165866571D01*
X221081853Y-165894786D01*
X217864520Y-159710875D01*
X217512967Y-159034945D01*
X217172148Y-158379217D01*
X216844106Y-157747640D01*
X216530883Y-157144161D01*
X216234519Y-156572729D01*
X215957058Y-156037291D01*
X215700540Y-155541796D01*
X215467007Y-155090192D01*
X215258501Y-154686427D01*
X215077065Y-154334448D01*
X214924739Y-154038205D01*
X214803565Y-153801646D01*
X214715585Y-153628717D01*
X214662842Y-153523368D01*
X214647187Y-153489590D01*
X214674618Y-153464241D01*
X214757349Y-153397322D01*
X214896035Y-153288334D01*
X215091333Y-153136778D01*
X215343897Y-152942156D01*
X215654384Y-152703969D01*
X216023449Y-152421719D01*
X216451748Y-152094907D01*
X216939937Y-151723034D01*
X217488670Y-151305603D01*
X218098605Y-150842114D01*
X218770396Y-150332069D01*
X219504699Y-149774970D01*
X220302171Y-149170317D01*
X221163466Y-148517612D01*
X222089240Y-147816357D01*
X223080149Y-147066053D01*
X224136849Y-146266202D01*
X225259996Y-145416305D01*
X226205508Y-144700992D01*
X227561496Y-143675238D01*
X233613841Y-148394043D01*
G36*
X233613841Y-148394043D02*
G01*
X234245930Y-148886836D01*
X234860872Y-149366211D01*
X235455271Y-149829525D01*
X236025733Y-150274132D01*
X236568862Y-150697388D01*
X237081263Y-151096649D01*
X237559543Y-151469271D01*
X238000305Y-151812608D01*
X238400155Y-152124017D01*
X238755698Y-152400854D01*
X239063539Y-152640473D01*
X239320283Y-152840230D01*
X239522534Y-152997482D01*
X239666899Y-153109583D01*
X239749982Y-153173890D01*
X239769176Y-153188559D01*
X239872166Y-153264272D01*
X236386267Y-159503320D01*
X236009577Y-160177317D01*
X235643698Y-160831576D01*
X235290791Y-161462250D01*
X234953019Y-162065490D01*
X234632545Y-162637445D01*
X234331530Y-163174269D01*
X234052136Y-163672112D01*
X233796526Y-164127125D01*
X233566862Y-164535460D01*
X233365306Y-164893267D01*
X233194020Y-165196699D01*
X233055167Y-165441905D01*
X232950909Y-165625038D01*
X232883408Y-165742249D01*
X232854825Y-165789688D01*
X232854277Y-165790362D01*
X232821951Y-165797758D01*
X232737891Y-165804731D01*
X232599524Y-165811314D01*
X232404277Y-165817539D01*
X232149578Y-165823441D01*
X231832854Y-165829053D01*
X231451531Y-165834407D01*
X231003038Y-165839537D01*
X230484801Y-165844475D01*
X229894247Y-165849256D01*
X229228804Y-165853913D01*
X228485899Y-165858478D01*
X227662959Y-165862984D01*
X226945020Y-165866571D01*
X221081853Y-165894786D01*
X217864520Y-159710875D01*
X217512967Y-159034945D01*
X217172148Y-158379217D01*
X216844106Y-157747640D01*
X216530883Y-157144161D01*
X216234519Y-156572729D01*
X215957058Y-156037291D01*
X215700540Y-155541796D01*
X215467007Y-155090192D01*
X215258501Y-154686427D01*
X215077065Y-154334448D01*
X214924739Y-154038205D01*
X214803565Y-153801646D01*
X214715585Y-153628717D01*
X214662842Y-153523368D01*
X214647187Y-153489590D01*
X214674618Y-153464241D01*
X214757349Y-153397322D01*
X214896035Y-153288334D01*
X215091333Y-153136778D01*
X215343897Y-152942156D01*
X215654384Y-152703969D01*
X216023449Y-152421719D01*
X216451748Y-152094907D01*
X216939937Y-151723034D01*
X217488670Y-151305603D01*
X218098605Y-150842114D01*
X218770396Y-150332069D01*
X219504699Y-149774970D01*
X220302171Y-149170317D01*
X221163466Y-148517612D01*
X222089240Y-147816357D01*
X223080149Y-147066053D01*
X224136849Y-146266202D01*
X225259996Y-145416305D01*
X226205508Y-144700992D01*
X227561496Y-143675238D01*
X233613841Y-148394043D01*
G37*
X233613841Y-187001748D02*
X234245930Y-187494541D01*
X234860872Y-187973916D01*
X235455271Y-188437230D01*
X236025733Y-188881837D01*
X236568862Y-189305093D01*
X237081263Y-189704354D01*
X237559543Y-190076976D01*
X238000305Y-190420313D01*
X238400155Y-190731722D01*
X238755698Y-191008559D01*
X239063539Y-191248178D01*
X239320283Y-191447935D01*
X239522534Y-191605187D01*
X239666899Y-191717288D01*
X239749982Y-191781595D01*
X239769176Y-191796264D01*
X239872166Y-191871977D01*
X236386267Y-198111025D01*
X236009577Y-198785022D01*
X235643698Y-199439281D01*
X235290791Y-200069955D01*
X234953019Y-200673195D01*
X234632545Y-201245150D01*
X234331530Y-201781974D01*
X234052136Y-202279817D01*
X233796526Y-202734830D01*
X233566862Y-203143165D01*
X233365306Y-203500972D01*
X233194020Y-203804404D01*
X233055167Y-204049610D01*
X232950909Y-204232743D01*
X232883408Y-204349954D01*
X232854825Y-204397393D01*
X232854277Y-204398067D01*
X232821951Y-204405463D01*
X232737891Y-204412436D01*
X232599524Y-204419019D01*
X232404277Y-204425244D01*
X232149578Y-204431146D01*
X231832854Y-204436758D01*
X231451531Y-204442112D01*
X231003038Y-204447242D01*
X230484801Y-204452180D01*
X229894247Y-204456961D01*
X229228804Y-204461618D01*
X228485899Y-204466183D01*
X227662959Y-204470689D01*
X226945020Y-204474276D01*
X221081853Y-204502491D01*
X217864520Y-198318580D01*
X217512967Y-197642650D01*
X217172148Y-196986922D01*
X216844106Y-196355345D01*
X216530883Y-195751866D01*
X216234519Y-195180434D01*
X215957058Y-194644996D01*
X215700540Y-194149501D01*
X215467007Y-193697897D01*
X215258501Y-193294132D01*
X215077065Y-192942153D01*
X214924739Y-192645910D01*
X214803565Y-192409351D01*
X214715585Y-192236422D01*
X214662842Y-192131073D01*
X214647187Y-192097295D01*
X214674618Y-192071946D01*
X214757349Y-192005027D01*
X214896035Y-191896039D01*
X215091333Y-191744483D01*
X215343897Y-191549861D01*
X215654384Y-191311674D01*
X216023449Y-191029424D01*
X216451748Y-190702612D01*
X216939937Y-190330739D01*
X217488670Y-189913308D01*
X218098605Y-189449819D01*
X218770396Y-188939774D01*
X219504699Y-188382675D01*
X220302171Y-187778022D01*
X221163466Y-187125317D01*
X222089240Y-186424062D01*
X223080149Y-185673758D01*
X224136849Y-184873907D01*
X225259996Y-184024010D01*
X226205508Y-183308697D01*
X227561496Y-182282943D01*
X233613841Y-187001748D01*
G36*
X233613841Y-187001748D02*
G01*
X234245930Y-187494541D01*
X234860872Y-187973916D01*
X235455271Y-188437230D01*
X236025733Y-188881837D01*
X236568862Y-189305093D01*
X237081263Y-189704354D01*
X237559543Y-190076976D01*
X238000305Y-190420313D01*
X238400155Y-190731722D01*
X238755698Y-191008559D01*
X239063539Y-191248178D01*
X239320283Y-191447935D01*
X239522534Y-191605187D01*
X239666899Y-191717288D01*
X239749982Y-191781595D01*
X239769176Y-191796264D01*
X239872166Y-191871977D01*
X236386267Y-198111025D01*
X236009577Y-198785022D01*
X235643698Y-199439281D01*
X235290791Y-200069955D01*
X234953019Y-200673195D01*
X234632545Y-201245150D01*
X234331530Y-201781974D01*
X234052136Y-202279817D01*
X233796526Y-202734830D01*
X233566862Y-203143165D01*
X233365306Y-203500972D01*
X233194020Y-203804404D01*
X233055167Y-204049610D01*
X232950909Y-204232743D01*
X232883408Y-204349954D01*
X232854825Y-204397393D01*
X232854277Y-204398067D01*
X232821951Y-204405463D01*
X232737891Y-204412436D01*
X232599524Y-204419019D01*
X232404277Y-204425244D01*
X232149578Y-204431146D01*
X231832854Y-204436758D01*
X231451531Y-204442112D01*
X231003038Y-204447242D01*
X230484801Y-204452180D01*
X229894247Y-204456961D01*
X229228804Y-204461618D01*
X228485899Y-204466183D01*
X227662959Y-204470689D01*
X226945020Y-204474276D01*
X221081853Y-204502491D01*
X217864520Y-198318580D01*
X217512967Y-197642650D01*
X217172148Y-196986922D01*
X216844106Y-196355345D01*
X216530883Y-195751866D01*
X216234519Y-195180434D01*
X215957058Y-194644996D01*
X215700540Y-194149501D01*
X215467007Y-193697897D01*
X215258501Y-193294132D01*
X215077065Y-192942153D01*
X214924739Y-192645910D01*
X214803565Y-192409351D01*
X214715585Y-192236422D01*
X214662842Y-192131073D01*
X214647187Y-192097295D01*
X214674618Y-192071946D01*
X214757349Y-192005027D01*
X214896035Y-191896039D01*
X215091333Y-191744483D01*
X215343897Y-191549861D01*
X215654384Y-191311674D01*
X216023449Y-191029424D01*
X216451748Y-190702612D01*
X216939937Y-190330739D01*
X217488670Y-189913308D01*
X218098605Y-189449819D01*
X218770396Y-188939774D01*
X219504699Y-188382675D01*
X220302171Y-187778022D01*
X221163466Y-187125317D01*
X222089240Y-186424062D01*
X223080149Y-185673758D01*
X224136849Y-184873907D01*
X225259996Y-184024010D01*
X226205508Y-183308697D01*
X227561496Y-182282943D01*
X233613841Y-187001748D01*
G37*
X154596617Y-109786338D02*
X155228706Y-110279131D01*
X155843648Y-110758506D01*
X156438047Y-111221820D01*
X157008509Y-111666427D01*
X157551638Y-112089683D01*
X158064039Y-112488944D01*
X158542319Y-112861566D01*
X158983081Y-113204903D01*
X159382931Y-113516312D01*
X159738474Y-113793149D01*
X160046315Y-114032768D01*
X160303059Y-114232525D01*
X160505310Y-114389777D01*
X160649675Y-114501878D01*
X160732758Y-114566185D01*
X160751952Y-114580854D01*
X160854942Y-114656567D01*
X157369043Y-120895615D01*
X156992353Y-121569612D01*
X156626474Y-122223871D01*
X156273567Y-122854545D01*
X155935795Y-123457785D01*
X155615321Y-124029740D01*
X155314306Y-124566564D01*
X155034912Y-125064407D01*
X154779302Y-125519420D01*
X154549638Y-125927755D01*
X154348082Y-126285562D01*
X154176796Y-126588994D01*
X154037943Y-126834200D01*
X153933685Y-127017333D01*
X153866184Y-127134544D01*
X153837601Y-127181983D01*
X153837053Y-127182657D01*
X153804727Y-127190053D01*
X153720667Y-127197026D01*
X153582300Y-127203609D01*
X153387053Y-127209834D01*
X153132354Y-127215736D01*
X152815630Y-127221348D01*
X152434307Y-127226702D01*
X151985814Y-127231832D01*
X151467577Y-127236770D01*
X150877023Y-127241551D01*
X150211580Y-127246208D01*
X149468675Y-127250773D01*
X148645735Y-127255279D01*
X147927796Y-127258866D01*
X142064629Y-127287081D01*
X138847296Y-121103170D01*
X138495743Y-120427240D01*
X138154924Y-119771512D01*
X137826882Y-119139935D01*
X137513659Y-118536456D01*
X137217295Y-117965024D01*
X136939834Y-117429586D01*
X136683316Y-116934091D01*
X136449783Y-116482487D01*
X136241277Y-116078722D01*
X136059841Y-115726743D01*
X135907515Y-115430500D01*
X135786341Y-115193941D01*
X135698361Y-115021012D01*
X135645618Y-114915663D01*
X135629963Y-114881885D01*
X135657394Y-114856536D01*
X135740125Y-114789617D01*
X135878811Y-114680629D01*
X136074109Y-114529073D01*
X136326673Y-114334451D01*
X136637160Y-114096264D01*
X137006225Y-113814014D01*
X137434524Y-113487202D01*
X137922713Y-113115329D01*
X138471446Y-112697898D01*
X139081381Y-112234409D01*
X139753172Y-111724364D01*
X140487475Y-111167265D01*
X141284947Y-110562612D01*
X142146242Y-109909907D01*
X143072016Y-109208652D01*
X144062925Y-108458348D01*
X145119625Y-107658497D01*
X146242772Y-106808600D01*
X147188284Y-106093287D01*
X148544272Y-105067533D01*
X154596617Y-109786338D01*
G36*
X154596617Y-109786338D02*
G01*
X155228706Y-110279131D01*
X155843648Y-110758506D01*
X156438047Y-111221820D01*
X157008509Y-111666427D01*
X157551638Y-112089683D01*
X158064039Y-112488944D01*
X158542319Y-112861566D01*
X158983081Y-113204903D01*
X159382931Y-113516312D01*
X159738474Y-113793149D01*
X160046315Y-114032768D01*
X160303059Y-114232525D01*
X160505310Y-114389777D01*
X160649675Y-114501878D01*
X160732758Y-114566185D01*
X160751952Y-114580854D01*
X160854942Y-114656567D01*
X157369043Y-120895615D01*
X156992353Y-121569612D01*
X156626474Y-122223871D01*
X156273567Y-122854545D01*
X155935795Y-123457785D01*
X155615321Y-124029740D01*
X155314306Y-124566564D01*
X155034912Y-125064407D01*
X154779302Y-125519420D01*
X154549638Y-125927755D01*
X154348082Y-126285562D01*
X154176796Y-126588994D01*
X154037943Y-126834200D01*
X153933685Y-127017333D01*
X153866184Y-127134544D01*
X153837601Y-127181983D01*
X153837053Y-127182657D01*
X153804727Y-127190053D01*
X153720667Y-127197026D01*
X153582300Y-127203609D01*
X153387053Y-127209834D01*
X153132354Y-127215736D01*
X152815630Y-127221348D01*
X152434307Y-127226702D01*
X151985814Y-127231832D01*
X151467577Y-127236770D01*
X150877023Y-127241551D01*
X150211580Y-127246208D01*
X149468675Y-127250773D01*
X148645735Y-127255279D01*
X147927796Y-127258866D01*
X142064629Y-127287081D01*
X138847296Y-121103170D01*
X138495743Y-120427240D01*
X138154924Y-119771512D01*
X137826882Y-119139935D01*
X137513659Y-118536456D01*
X137217295Y-117965024D01*
X136939834Y-117429586D01*
X136683316Y-116934091D01*
X136449783Y-116482487D01*
X136241277Y-116078722D01*
X136059841Y-115726743D01*
X135907515Y-115430500D01*
X135786341Y-115193941D01*
X135698361Y-115021012D01*
X135645618Y-114915663D01*
X135629963Y-114881885D01*
X135657394Y-114856536D01*
X135740125Y-114789617D01*
X135878811Y-114680629D01*
X136074109Y-114529073D01*
X136326673Y-114334451D01*
X136637160Y-114096264D01*
X137006225Y-113814014D01*
X137434524Y-113487202D01*
X137922713Y-113115329D01*
X138471446Y-112697898D01*
X139081381Y-112234409D01*
X139753172Y-111724364D01*
X140487475Y-111167265D01*
X141284947Y-110562612D01*
X142146242Y-109909907D01*
X143072016Y-109208652D01*
X144062925Y-108458348D01*
X145119625Y-107658497D01*
X146242772Y-106808600D01*
X147188284Y-106093287D01*
X148544272Y-105067533D01*
X154596617Y-109786338D01*
G37*
X115088005Y-109786338D02*
X115720094Y-110279131D01*
X116335036Y-110758506D01*
X116929435Y-111221820D01*
X117499897Y-111666427D01*
X118043026Y-112089683D01*
X118555427Y-112488944D01*
X119033707Y-112861566D01*
X119474469Y-113204903D01*
X119874319Y-113516312D01*
X120229862Y-113793149D01*
X120537703Y-114032768D01*
X120794447Y-114232525D01*
X120996698Y-114389777D01*
X121141063Y-114501878D01*
X121224146Y-114566185D01*
X121243340Y-114580854D01*
X121346330Y-114656567D01*
X117860431Y-120895615D01*
X117483741Y-121569612D01*
X117117862Y-122223871D01*
X116764955Y-122854545D01*
X116427183Y-123457785D01*
X116106709Y-124029740D01*
X115805694Y-124566564D01*
X115526300Y-125064407D01*
X115270690Y-125519420D01*
X115041026Y-125927755D01*
X114839470Y-126285562D01*
X114668184Y-126588994D01*
X114529331Y-126834200D01*
X114425073Y-127017333D01*
X114357572Y-127134544D01*
X114328989Y-127181983D01*
X114328441Y-127182657D01*
X114296115Y-127190053D01*
X114212055Y-127197026D01*
X114073688Y-127203609D01*
X113878441Y-127209834D01*
X113623742Y-127215736D01*
X113307018Y-127221348D01*
X112925695Y-127226702D01*
X112477202Y-127231832D01*
X111958965Y-127236770D01*
X111368411Y-127241551D01*
X110702968Y-127246208D01*
X109960063Y-127250773D01*
X109137123Y-127255279D01*
X108419184Y-127258866D01*
X102556017Y-127287081D01*
X99338684Y-121103170D01*
X98987131Y-120427240D01*
X98646312Y-119771512D01*
X98318270Y-119139935D01*
X98005047Y-118536456D01*
X97708683Y-117965024D01*
X97431222Y-117429586D01*
X97174704Y-116934091D01*
X96941171Y-116482487D01*
X96732665Y-116078722D01*
X96551229Y-115726743D01*
X96398903Y-115430500D01*
X96277729Y-115193941D01*
X96189749Y-115021012D01*
X96137006Y-114915663D01*
X96121351Y-114881885D01*
X96148782Y-114856536D01*
X96231513Y-114789617D01*
X96370199Y-114680629D01*
X96565497Y-114529073D01*
X96818061Y-114334451D01*
X97128548Y-114096264D01*
X97497613Y-113814014D01*
X97925912Y-113487202D01*
X98414101Y-113115329D01*
X98962834Y-112697898D01*
X99572769Y-112234409D01*
X100244560Y-111724364D01*
X100978863Y-111167265D01*
X101776335Y-110562612D01*
X102637630Y-109909907D01*
X103563404Y-109208652D01*
X104554313Y-108458348D01*
X105611013Y-107658497D01*
X106734160Y-106808600D01*
X107679672Y-106093287D01*
X109035660Y-105067533D01*
X115088005Y-109786338D01*
G36*
X115088005Y-109786338D02*
G01*
X115720094Y-110279131D01*
X116335036Y-110758506D01*
X116929435Y-111221820D01*
X117499897Y-111666427D01*
X118043026Y-112089683D01*
X118555427Y-112488944D01*
X119033707Y-112861566D01*
X119474469Y-113204903D01*
X119874319Y-113516312D01*
X120229862Y-113793149D01*
X120537703Y-114032768D01*
X120794447Y-114232525D01*
X120996698Y-114389777D01*
X121141063Y-114501878D01*
X121224146Y-114566185D01*
X121243340Y-114580854D01*
X121346330Y-114656567D01*
X117860431Y-120895615D01*
X117483741Y-121569612D01*
X117117862Y-122223871D01*
X116764955Y-122854545D01*
X116427183Y-123457785D01*
X116106709Y-124029740D01*
X115805694Y-124566564D01*
X115526300Y-125064407D01*
X115270690Y-125519420D01*
X115041026Y-125927755D01*
X114839470Y-126285562D01*
X114668184Y-126588994D01*
X114529331Y-126834200D01*
X114425073Y-127017333D01*
X114357572Y-127134544D01*
X114328989Y-127181983D01*
X114328441Y-127182657D01*
X114296115Y-127190053D01*
X114212055Y-127197026D01*
X114073688Y-127203609D01*
X113878441Y-127209834D01*
X113623742Y-127215736D01*
X113307018Y-127221348D01*
X112925695Y-127226702D01*
X112477202Y-127231832D01*
X111958965Y-127236770D01*
X111368411Y-127241551D01*
X110702968Y-127246208D01*
X109960063Y-127250773D01*
X109137123Y-127255279D01*
X108419184Y-127258866D01*
X102556017Y-127287081D01*
X99338684Y-121103170D01*
X98987131Y-120427240D01*
X98646312Y-119771512D01*
X98318270Y-119139935D01*
X98005047Y-118536456D01*
X97708683Y-117965024D01*
X97431222Y-117429586D01*
X97174704Y-116934091D01*
X96941171Y-116482487D01*
X96732665Y-116078722D01*
X96551229Y-115726743D01*
X96398903Y-115430500D01*
X96277729Y-115193941D01*
X96189749Y-115021012D01*
X96137006Y-114915663D01*
X96121351Y-114881885D01*
X96148782Y-114856536D01*
X96231513Y-114789617D01*
X96370199Y-114680629D01*
X96565497Y-114529073D01*
X96818061Y-114334451D01*
X97128548Y-114096264D01*
X97497613Y-113814014D01*
X97925912Y-113487202D01*
X98414101Y-113115329D01*
X98962834Y-112697898D01*
X99572769Y-112234409D01*
X100244560Y-111724364D01*
X100978863Y-111167265D01*
X101776335Y-110562612D01*
X102637630Y-109909907D01*
X103563404Y-109208652D01*
X104554313Y-108458348D01*
X105611013Y-107658497D01*
X106734160Y-106808600D01*
X107679672Y-106093287D01*
X109035660Y-105067533D01*
X115088005Y-109786338D01*
G37*
X115088005Y-187001748D02*
X115720094Y-187494541D01*
X116335036Y-187973916D01*
X116929435Y-188437230D01*
X117499897Y-188881837D01*
X118043026Y-189305093D01*
X118555427Y-189704354D01*
X119033707Y-190076976D01*
X119474469Y-190420313D01*
X119874319Y-190731722D01*
X120229862Y-191008559D01*
X120537703Y-191248178D01*
X120794447Y-191447935D01*
X120996698Y-191605187D01*
X121141063Y-191717288D01*
X121224146Y-191781595D01*
X121243340Y-191796264D01*
X121346330Y-191871977D01*
X117860431Y-198111025D01*
X117483741Y-198785022D01*
X117117862Y-199439281D01*
X116764955Y-200069955D01*
X116427183Y-200673195D01*
X116106709Y-201245150D01*
X115805694Y-201781974D01*
X115526300Y-202279817D01*
X115270690Y-202734830D01*
X115041026Y-203143165D01*
X114839470Y-203500972D01*
X114668184Y-203804404D01*
X114529331Y-204049610D01*
X114425073Y-204232743D01*
X114357572Y-204349954D01*
X114328989Y-204397393D01*
X114328441Y-204398067D01*
X114296115Y-204405463D01*
X114212055Y-204412436D01*
X114073688Y-204419019D01*
X113878441Y-204425244D01*
X113623742Y-204431146D01*
X113307018Y-204436758D01*
X112925695Y-204442112D01*
X112477202Y-204447242D01*
X111958965Y-204452180D01*
X111368411Y-204456961D01*
X110702968Y-204461618D01*
X109960063Y-204466183D01*
X109137123Y-204470689D01*
X108419184Y-204474276D01*
X102556017Y-204502491D01*
X99338684Y-198318580D01*
X98987131Y-197642650D01*
X98646312Y-196986922D01*
X98318270Y-196355345D01*
X98005047Y-195751866D01*
X97708683Y-195180434D01*
X97431222Y-194644996D01*
X97174704Y-194149501D01*
X96941171Y-193697897D01*
X96732665Y-193294132D01*
X96551229Y-192942153D01*
X96398903Y-192645910D01*
X96277729Y-192409351D01*
X96189749Y-192236422D01*
X96137006Y-192131073D01*
X96121351Y-192097295D01*
X96148782Y-192071946D01*
X96231513Y-192005027D01*
X96370199Y-191896039D01*
X96565497Y-191744483D01*
X96818061Y-191549861D01*
X97128548Y-191311674D01*
X97497613Y-191029424D01*
X97925912Y-190702612D01*
X98414101Y-190330739D01*
X98962834Y-189913308D01*
X99572769Y-189449819D01*
X100244560Y-188939774D01*
X100978863Y-188382675D01*
X101776335Y-187778022D01*
X102637630Y-187125317D01*
X103563404Y-186424062D01*
X104554313Y-185673758D01*
X105611013Y-184873907D01*
X106734160Y-184024010D01*
X107679672Y-183308697D01*
X109035660Y-182282943D01*
X115088005Y-187001748D01*
G36*
X115088005Y-187001748D02*
G01*
X115720094Y-187494541D01*
X116335036Y-187973916D01*
X116929435Y-188437230D01*
X117499897Y-188881837D01*
X118043026Y-189305093D01*
X118555427Y-189704354D01*
X119033707Y-190076976D01*
X119474469Y-190420313D01*
X119874319Y-190731722D01*
X120229862Y-191008559D01*
X120537703Y-191248178D01*
X120794447Y-191447935D01*
X120996698Y-191605187D01*
X121141063Y-191717288D01*
X121224146Y-191781595D01*
X121243340Y-191796264D01*
X121346330Y-191871977D01*
X117860431Y-198111025D01*
X117483741Y-198785022D01*
X117117862Y-199439281D01*
X116764955Y-200069955D01*
X116427183Y-200673195D01*
X116106709Y-201245150D01*
X115805694Y-201781974D01*
X115526300Y-202279817D01*
X115270690Y-202734830D01*
X115041026Y-203143165D01*
X114839470Y-203500972D01*
X114668184Y-203804404D01*
X114529331Y-204049610D01*
X114425073Y-204232743D01*
X114357572Y-204349954D01*
X114328989Y-204397393D01*
X114328441Y-204398067D01*
X114296115Y-204405463D01*
X114212055Y-204412436D01*
X114073688Y-204419019D01*
X113878441Y-204425244D01*
X113623742Y-204431146D01*
X113307018Y-204436758D01*
X112925695Y-204442112D01*
X112477202Y-204447242D01*
X111958965Y-204452180D01*
X111368411Y-204456961D01*
X110702968Y-204461618D01*
X109960063Y-204466183D01*
X109137123Y-204470689D01*
X108419184Y-204474276D01*
X102556017Y-204502491D01*
X99338684Y-198318580D01*
X98987131Y-197642650D01*
X98646312Y-196986922D01*
X98318270Y-196355345D01*
X98005047Y-195751866D01*
X97708683Y-195180434D01*
X97431222Y-194644996D01*
X97174704Y-194149501D01*
X96941171Y-193697897D01*
X96732665Y-193294132D01*
X96551229Y-192942153D01*
X96398903Y-192645910D01*
X96277729Y-192409351D01*
X96189749Y-192236422D01*
X96137006Y-192131073D01*
X96121351Y-192097295D01*
X96148782Y-192071946D01*
X96231513Y-192005027D01*
X96370199Y-191896039D01*
X96565497Y-191744483D01*
X96818061Y-191549861D01*
X97128548Y-191311674D01*
X97497613Y-191029424D01*
X97925912Y-190702612D01*
X98414101Y-190330739D01*
X98962834Y-189913308D01*
X99572769Y-189449819D01*
X100244560Y-188939774D01*
X100978863Y-188382675D01*
X101776335Y-187778022D01*
X102637630Y-187125317D01*
X103563404Y-186424062D01*
X104554313Y-185673758D01*
X105611013Y-184873907D01*
X106734160Y-184024010D01*
X107679672Y-183308697D01*
X109035660Y-182282943D01*
X115088005Y-187001748D01*
G37*
X115088005Y-32570928D02*
X115720094Y-33063721D01*
X116335036Y-33543096D01*
X116929435Y-34006410D01*
X117499897Y-34451017D01*
X118043026Y-34874273D01*
X118555427Y-35273534D01*
X119033707Y-35646156D01*
X119474469Y-35989493D01*
X119874319Y-36300902D01*
X120229862Y-36577739D01*
X120537703Y-36817358D01*
X120794447Y-37017115D01*
X120996698Y-37174367D01*
X121141063Y-37286468D01*
X121224146Y-37350775D01*
X121243340Y-37365444D01*
X121346330Y-37441157D01*
X117860431Y-43680205D01*
X117483741Y-44354202D01*
X117117862Y-45008461D01*
X116764955Y-45639135D01*
X116427183Y-46242375D01*
X116106709Y-46814330D01*
X115805694Y-47351154D01*
X115526300Y-47848997D01*
X115270690Y-48304010D01*
X115041026Y-48712345D01*
X114839470Y-49070152D01*
X114668184Y-49373584D01*
X114529331Y-49618790D01*
X114425073Y-49801923D01*
X114357572Y-49919134D01*
X114328989Y-49966573D01*
X114328441Y-49967247D01*
X114296115Y-49974643D01*
X114212055Y-49981616D01*
X114073688Y-49988199D01*
X113878441Y-49994424D01*
X113623742Y-50000326D01*
X113307018Y-50005938D01*
X112925695Y-50011292D01*
X112477202Y-50016422D01*
X111958965Y-50021360D01*
X111368411Y-50026141D01*
X110702968Y-50030798D01*
X109960063Y-50035363D01*
X109137123Y-50039869D01*
X108419184Y-50043456D01*
X102556017Y-50071671D01*
X99338684Y-43887760D01*
X98987131Y-43211830D01*
X98646312Y-42556102D01*
X98318270Y-41924525D01*
X98005047Y-41321046D01*
X97708683Y-40749614D01*
X97431222Y-40214176D01*
X97174704Y-39718681D01*
X96941171Y-39267077D01*
X96732665Y-38863312D01*
X96551229Y-38511333D01*
X96398903Y-38215090D01*
X96277729Y-37978531D01*
X96189749Y-37805602D01*
X96137006Y-37700253D01*
X96121351Y-37666475D01*
X96148782Y-37641126D01*
X96231513Y-37574207D01*
X96370199Y-37465219D01*
X96565497Y-37313663D01*
X96818061Y-37119041D01*
X97128548Y-36880854D01*
X97497613Y-36598604D01*
X97925912Y-36271792D01*
X98414101Y-35899919D01*
X98962834Y-35482488D01*
X99572769Y-35018999D01*
X100244560Y-34508954D01*
X100978863Y-33951855D01*
X101776335Y-33347202D01*
X102637630Y-32694497D01*
X103563404Y-31993242D01*
X104554313Y-31242938D01*
X105611013Y-30443087D01*
X106734160Y-29593190D01*
X107679672Y-28877877D01*
X109035660Y-27852123D01*
X115088005Y-32570928D01*
G36*
X115088005Y-32570928D02*
G01*
X115720094Y-33063721D01*
X116335036Y-33543096D01*
X116929435Y-34006410D01*
X117499897Y-34451017D01*
X118043026Y-34874273D01*
X118555427Y-35273534D01*
X119033707Y-35646156D01*
X119474469Y-35989493D01*
X119874319Y-36300902D01*
X120229862Y-36577739D01*
X120537703Y-36817358D01*
X120794447Y-37017115D01*
X120996698Y-37174367D01*
X121141063Y-37286468D01*
X121224146Y-37350775D01*
X121243340Y-37365444D01*
X121346330Y-37441157D01*
X117860431Y-43680205D01*
X117483741Y-44354202D01*
X117117862Y-45008461D01*
X116764955Y-45639135D01*
X116427183Y-46242375D01*
X116106709Y-46814330D01*
X115805694Y-47351154D01*
X115526300Y-47848997D01*
X115270690Y-48304010D01*
X115041026Y-48712345D01*
X114839470Y-49070152D01*
X114668184Y-49373584D01*
X114529331Y-49618790D01*
X114425073Y-49801923D01*
X114357572Y-49919134D01*
X114328989Y-49966573D01*
X114328441Y-49967247D01*
X114296115Y-49974643D01*
X114212055Y-49981616D01*
X114073688Y-49988199D01*
X113878441Y-49994424D01*
X113623742Y-50000326D01*
X113307018Y-50005938D01*
X112925695Y-50011292D01*
X112477202Y-50016422D01*
X111958965Y-50021360D01*
X111368411Y-50026141D01*
X110702968Y-50030798D01*
X109960063Y-50035363D01*
X109137123Y-50039869D01*
X108419184Y-50043456D01*
X102556017Y-50071671D01*
X99338684Y-43887760D01*
X98987131Y-43211830D01*
X98646312Y-42556102D01*
X98318270Y-41924525D01*
X98005047Y-41321046D01*
X97708683Y-40749614D01*
X97431222Y-40214176D01*
X97174704Y-39718681D01*
X96941171Y-39267077D01*
X96732665Y-38863312D01*
X96551229Y-38511333D01*
X96398903Y-38215090D01*
X96277729Y-37978531D01*
X96189749Y-37805602D01*
X96137006Y-37700253D01*
X96121351Y-37666475D01*
X96148782Y-37641126D01*
X96231513Y-37574207D01*
X96370199Y-37465219D01*
X96565497Y-37313663D01*
X96818061Y-37119041D01*
X97128548Y-36880854D01*
X97497613Y-36598604D01*
X97925912Y-36271792D01*
X98414101Y-35899919D01*
X98962834Y-35482488D01*
X99572769Y-35018999D01*
X100244560Y-34508954D01*
X100978863Y-33951855D01*
X101776335Y-33347202D01*
X102637630Y-32694497D01*
X103563404Y-31993242D01*
X104554313Y-31242938D01*
X105611013Y-30443087D01*
X106734160Y-29593190D01*
X107679672Y-28877877D01*
X109035660Y-27852123D01*
X115088005Y-32570928D01*
G37*
%TD*%
D11*
%TO.C,KiKit_MB_4_2*%
X74674497Y-32297616D03*
%TD*%
%TO.C,KiKit_MB_91_2*%
X56774420Y-163030438D03*
%TD*%
%TO.C,KiKit_MB_142_4*%
X195115072Y-188224820D03*
%TD*%
%TO.C,KiKit_MB_115_2*%
X214808867Y-163030438D03*
%TD*%
%TO.C,KiKit_MB_154_3*%
X250771530Y-219038525D03*
%TD*%
%TO.C,KiKit_MB_30_5*%
X231757724Y-60350379D03*
%TD*%
%TO.C,KiKit_MB_50_3*%
X200631889Y-84830522D03*
%TD*%
%TO.C,KiKit_MB_17_2*%
X143318526Y-60309764D03*
%TD*%
%TO.C,KiKit_MB_136_3*%
X154649090Y-187476628D03*
%TD*%
%TO.C,KiKit_MB_123_2*%
X62319284Y-188154482D03*
%TD*%
%TO.C,KiKit_MB_67_4*%
X95462754Y-122461452D03*
%TD*%
%TO.C,KiKit_MB_16_5*%
X156765406Y-33896636D03*
%TD*%
%TO.C,KiKit_MB_45_4*%
X143290498Y-70842727D03*
%TD*%
%TO.C,KiKit_MB_114_3*%
X194130906Y-174582222D03*
%TD*%
%TO.C,KiKit_MB_47_5*%
X140499574Y-96496305D03*
%TD*%
%TO.C,KiKit_MB_48_3*%
X154622294Y-97366812D03*
%TD*%
%TO.C,KiKit_MB_55_2*%
X214808867Y-85815028D03*
%TD*%
%TO.C,KiKit_MB_5_2*%
X64301303Y-60309764D03*
%TD*%
%TO.C,KiKit_MB_119_4*%
X220456449Y-174518769D03*
%TD*%
%TO.C,KiKit_MB_81_2*%
X180845119Y-110939072D03*
%TD*%
%TO.C,KiKit_MB_90_5*%
X231757724Y-137565789D03*
%TD*%
%TO.C,KiKit_MB_5_4*%
X62422002Y-58695654D03*
%TD*%
%TO.C,KiKit_MB_29_3*%
X221396099Y-59502709D03*
%TD*%
%TO.C,KiKit_MB_143_1*%
X183766788Y-215547638D03*
%TD*%
%TO.C,KiKit_MB_46_5*%
X156765406Y-72504340D03*
%TD*%
%TO.C,KiKit_MB_82_5*%
X196274018Y-111112045D03*
%TD*%
%TO.C,KiKit_MB_64_2*%
X74674497Y-109513025D03*
%TD*%
%TO.C,KiKit_MB_94_3*%
X75631866Y-148868923D03*
%TD*%
%TO.C,KiKit_MB_62_3*%
X82106053Y-123438227D03*
%TD*%
%TO.C,KiKit_MB_113_5*%
X180008186Y-173711715D03*
%TD*%
%TO.C,KiKit_MB_124_2*%
X74674497Y-186728435D03*
%TD*%
%TO.C,KiKit_MB_6_2*%
X76545968Y-57963471D03*
%TD*%
%TO.C,KiKit_MB_103_4*%
X134971366Y-161069157D03*
%TD*%
%TO.C,KiKit_MB_69_3*%
X102804891Y-110194752D03*
%TD*%
%TO.C,KiKit_MB_118_5*%
X235782630Y-149719750D03*
%TD*%
%TO.C,KiKit_MB_136_5*%
X156765406Y-188327455D03*
%TD*%
%TO.C,KiKit_MB_42_5*%
X113231888Y-98958084D03*
%TD*%
%TO.C,KiKit_MB_129_3*%
X102804891Y-187410162D03*
%TD*%
%TO.C,KiKit_MB_127_1*%
X96693169Y-202618784D03*
%TD*%
%TO.C,KiKit_MB_13_3*%
X135381504Y-46226683D03*
%TD*%
%TO.C,KiKit_MB_49_3*%
X174890116Y-84834387D03*
%TD*%
%TO.C,KiKit_MB_93_1*%
X61220433Y-149912071D03*
%TD*%
%TO.C,KiKit_MB_107_3*%
X142378875Y-175325824D03*
%TD*%
%TO.C,KiKit_MB_99_3*%
X102804891Y-148802457D03*
%TD*%
%TO.C,KiKit_MB_93_3*%
X63296280Y-148802457D03*
%TD*%
%TO.C,KiKit_MB_34_4*%
X76589236Y-72401705D03*
%TD*%
%TO.C,KiKit_MB_124_1*%
X73717127Y-185980242D03*
%TD*%
%TO.C,KiKit_MB_34_2*%
X74674497Y-70905320D03*
%TD*%
%TO.C,KiKit_MB_112_5*%
X196274018Y-149719750D03*
%TD*%
%TO.C,KiKit_MB_102_5*%
X113231888Y-176173494D03*
%TD*%
%TO.C,KiKit_MB_116_5*%
X239273141Y-164003052D03*
%TD*%
%TO.C,KiKit_MB_105_2*%
X141336507Y-149546777D03*
%TD*%
%TO.C,KiKit_MB_142_3*%
X194157702Y-187476628D03*
%TD*%
%TO.C,KiKit_MB_28_4*%
X234623684Y-33794001D03*
%TD*%
%TO.C,KiKit_MB_56_4*%
X239706821Y-85809082D03*
%TD*%
%TO.C,KiKit_MB_129_4*%
X103781886Y-186665842D03*
%TD*%
%TO.C,KiKit_MB_34_3*%
X75631866Y-71653513D03*
%TD*%
%TO.C,KiKit_MB_45_2*%
X141336507Y-72331367D03*
%TD*%
%TO.C,KiKit_MB_77_5*%
X140499574Y-135104010D03*
%TD*%
%TO.C,KiKit_MB_137_4*%
X141439225Y-213126474D03*
%TD*%
%TO.C,KiKit_MB_107_5*%
X140499574Y-173711715D03*
%TD*%
%TO.C,KiKit_MB_110_3*%
X200631889Y-162045932D03*
%TD*%
%TO.C,KiKit_MB_80_1*%
X201499249Y-121481107D03*
%TD*%
%TO.C,KiKit_MB_120_3*%
X233639518Y-174582222D03*
%TD*%
%TO.C,KiKit_MB_14_2*%
X161556957Y-45244258D03*
%TD*%
%TO.C,KiKit_MB_71_3*%
X102870263Y-136718119D03*
%TD*%
%TO.C,KiKit_MB_89_5*%
X219516798Y-135104010D03*
%TD*%
%TO.C,KiKit_MB_98_4*%
X121180985Y-163024492D03*
%TD*%
%TO.C,KiKit_MB_114_5*%
X192249112Y-176173494D03*
%TD*%
%TO.C,KiKit_MB_147_3*%
X221330727Y-187410162D03*
%TD*%
%TO.C,KiKit_MB_86_3*%
X240140501Y-123438227D03*
%TD*%
%TO.C,KiKit_MB_121_2*%
X56774420Y-201638143D03*
%TD*%
%TO.C,KiKit_MB_22_2*%
X193200333Y-32297616D03*
%TD*%
%TO.C,KiKit_MB_59_4*%
X220456449Y-97303359D03*
%TD*%
%TO.C,KiKit_MB_144_5*%
X192249112Y-214781199D03*
%TD*%
%TO.C,KiKit_MB_123_1*%
X61220433Y-188519776D03*
%TD*%
%TO.C,KiKit_MB_112_1*%
X192242963Y-147372537D03*
%TD*%
%TO.C,KiKit_MB_109_4*%
X174479978Y-161069157D03*
%TD*%
%TO.C,KiKit_MB_118_1*%
X231751575Y-147372537D03*
%TD*%
%TO.C,KiKit_MB_140_3*%
X200631889Y-200653637D03*
%TD*%
%TO.C,KiKit_MB_110_1*%
X201499249Y-160088812D03*
%TD*%
%TO.C,KiKit_MB_21_2*%
X180845119Y-33723663D03*
%TD*%
%TO.C,KiKit_MB_39_3*%
X102804891Y-71587047D03*
%TD*%
%TO.C,KiKit_MB_145_2*%
X214808867Y-201638143D03*
%TD*%
%TO.C,KiKit_MB_34_5*%
X77748182Y-72504340D03*
%TD*%
%TO.C,KiKit_MB_68_2*%
X122048345Y-122459667D03*
%TD*%
%TO.C,KiKit_MB_1_5*%
X55544005Y-44265402D03*
%TD*%
%TO.C,KiKit_MB_52_2*%
X193200333Y-70905320D03*
%TD*%
%TO.C,KiKit_MB_85_1*%
X215219005Y-125403374D03*
%TD*%
%TO.C,KiKit_MB_141_4*%
X182799110Y-186665842D03*
%TD*%
%TO.C,KiKit_MB_49_4*%
X174479978Y-83853747D03*
%TD*%
%TO.C,KiKit_MB_89_1*%
X223275400Y-138332228D03*
%TD*%
%TO.C,KiKit_MB_62_4*%
X81672373Y-124416787D03*
%TD*%
%TO.C,KiKit_MB_18_2*%
X155563192Y-57963471D03*
%TD*%
%TO.C,KiKit_MB_135_5*%
X144267494Y-185921523D03*
%TD*%
%TO.C,KiKit_MB_65_3*%
X63361652Y-136718119D03*
%TD*%
%TO.C,KiKit_MB_71_2*%
X103809914Y-137525174D03*
%TD*%
%TO.C,KiKit_MB_152_5*%
X46228470Y-219038525D03*
%TD*%
%TO.C,KiKit_MB_89_3*%
X221396099Y-136718119D03*
%TD*%
%TO.C,KiKit_MB_33_2*%
X62319284Y-72331367D03*
%TD*%
%TO.C,KiKit_MB_138_3*%
X154622294Y-213189927D03*
%TD*%
%TO.C,KiKit_MB_36_4*%
X74664173Y-98162448D03*
%TD*%
%TO.C,KiKit_MB_3_4*%
X64273275Y-32235023D03*
%TD*%
%TO.C,KiKit_MB_117_2*%
X220353731Y-149546777D03*
%TD*%
%TO.C,KiKit_MB_138_2*%
X155563192Y-212394291D03*
%TD*%
%TO.C,KiKit_MB_16_2*%
X153691721Y-32297616D03*
%TD*%
%TO.C,KiKit_MB_81_5*%
X183776106Y-108706113D03*
%TD*%
%TO.C,KiKit_MB_25_1*%
X215219005Y-48187964D03*
%TD*%
%TO.C,KiKit_MB_32_5*%
X81238693Y-86787642D03*
%TD*%
%TO.C,KiKit_MB_27_2*%
X220353731Y-33723663D03*
%TD*%
%TO.C,KiKit_MB_3_3*%
X63296280Y-32979343D03*
%TD*%
%TO.C,KiKit_MB_98_2*%
X122048345Y-161067372D03*
%TD*%
%TO.C,KiKit_MB_64_4*%
X76589236Y-111009410D03*
%TD*%
%TO.C,KiKit_MB_77_3*%
X142378875Y-136718119D03*
%TD*%
%TO.C,KiKit_MB_3_5*%
X65250271Y-31490704D03*
%TD*%
%TO.C,KiKit_MB_46_3*%
X154649090Y-71653513D03*
%TD*%
%TO.C,KiKit_MB_83_3*%
X181887487Y-136718119D03*
%TD*%
%TO.C,KiKit_MB_137_3*%
X142378875Y-213933529D03*
%TD*%
%TO.C,KiKit_MB_37_1*%
X96693169Y-86795669D03*
%TD*%
%TO.C,KiKit_MB_153_3*%
X250771530Y-28000000D03*
%TD*%
%TO.C,KiKit_MB_37_4*%
X95462754Y-83853747D03*
%TD*%
%TO.C,KiKit_MB_81_4*%
X182799110Y-109450432D03*
%TD*%
%TO.C,KiKit_MB_59_1*%
X223275400Y-99724523D03*
%TD*%
%TO.C,KiKit_MB_135_3*%
X142313503Y-187410162D03*
%TD*%
%TO.C,KiKit_MB_129_2*%
X101827895Y-188154482D03*
%TD*%
%TO.C,KiKit_MB_111_2*%
X180845119Y-149546777D03*
%TD*%
%TO.C,KiKit_MB_96_4*%
X74664173Y-175377858D03*
%TD*%
%TO.C,KiKit_MB_14_1*%
X161990637Y-44265698D03*
%TD*%
%TO.C,KiKit_MB_122_1*%
X82973413Y-198696517D03*
%TD*%
%TO.C,KiKit_MB_44_1*%
X161990637Y-82873402D03*
%TD*%
%TO.C,KiKit_MB_8_4*%
X121180985Y-47201377D03*
%TD*%
%TO.C,KiKit_MB_66_3*%
X75605070Y-135974517D03*
%TD*%
%TO.C,KiKit_MB_123_4*%
X64273275Y-186665842D03*
%TD*%
%TO.C,KiKit_MB_99_5*%
X104758882Y-147313818D03*
%TD*%
%TO.C,KiKit_MB_28_5*%
X235782630Y-33896636D03*
%TD*%
%TO.C,KiKit_MB_119_1*%
X223275400Y-176939933D03*
%TD*%
%TO.C,KiKit_MB_35_2*%
X64301303Y-98917469D03*
%TD*%
%TO.C,KiKit_MB_70_3*%
X115140478Y-110261218D03*
%TD*%
%TO.C,KiKit_MB_49_5*%
X174069840Y-82873106D03*
%TD*%
%TO.C,KiKit_MB_110_5*%
X199764529Y-164003052D03*
%TD*%
%TO.C,KiKit_MB_84_5*%
X192249112Y-137565789D03*
%TD*%
%TO.C,KiKit_MB_86_2*%
X240574181Y-122459667D03*
%TD*%
%TO.C,KiKit_MB_85_2*%
X214808867Y-124422733D03*
%TD*%
%TO.C,KiKit_MB_75_3*%
X142313503Y-110194752D03*
%TD*%
%TO.C,KiKit_MB_112_2*%
X193200333Y-148120730D03*
%TD*%
D12*
%TO.C,KiKit_TO_1*%
X45228470Y-22500000D03*
%TD*%
D11*
%TO.C,KiKit_MB_130_1*%
X113225739Y-185980242D03*
%TD*%
%TO.C,KiKit_MB_61_3*%
X56364281Y-123442092D03*
%TD*%
%TO.C,KiKit_MB_40_4*%
X116097848Y-72401705D03*
%TD*%
%TO.C,KiKit_MB_27_1*%
X219254880Y-34088957D03*
%TD*%
%TO.C,KiKit_MB_97_5*%
X95052616Y-160088516D03*
%TD*%
%TO.C,KiKit_MB_49_1*%
X175710393Y-86795669D03*
%TD*%
%TO.C,KiKit_MB_81_1*%
X179746268Y-111304366D03*
%TD*%
%TO.C,KiKit_MB_37_5*%
X95052616Y-82873106D03*
%TD*%
%TO.C,KiKit_MB_31_5*%
X55544005Y-82873106D03*
%TD*%
%TO.C,KiKit_MB_76_2*%
X153691721Y-109513025D03*
%TD*%
%TO.C,KiKit_MB_104_1*%
X161990637Y-160088812D03*
%TD*%
%TO.C,KiKit_MB_38_5*%
X120747305Y-86787642D03*
%TD*%
%TO.C,KiKit_MB_11_3*%
X102870263Y-59502709D03*
%TD*%
%TO.C,KiKit_MB_97_4*%
X95462754Y-161069157D03*
%TD*%
%TO.C,KiKit_MB_115_1*%
X215219005Y-164011079D03*
%TD*%
%TO.C,KiKit_MB_95_4*%
X62422002Y-174518769D03*
%TD*%
%TO.C,KiKit_MB_72_3*%
X115113682Y-135974517D03*
%TD*%
%TO.C,KiKit_MB_130_4*%
X116097848Y-188224820D03*
%TD*%
%TO.C,KiKit_MB_120_5*%
X231757724Y-176173494D03*
%TD*%
%TO.C,KiKit_MB_109_2*%
X175300255Y-163030438D03*
%TD*%
%TO.C,KiKit_MB_80_5*%
X199764529Y-125395347D03*
%TD*%
%TO.C,KiKit_MB_88_4*%
X234623684Y-111009410D03*
%TD*%
%TO.C,KiKit_MB_70_5*%
X117256794Y-111112045D03*
%TD*%
%TO.C,KiKit_MB_76_3*%
X154649090Y-110261218D03*
%TD*%
%TO.C,KiKit_MB_88_1*%
X231751575Y-108764832D03*
%TD*%
%TO.C,KiKit_MB_41_4*%
X101930613Y-97303359D03*
%TD*%
%TO.C,KiKit_MB_99_2*%
X101827895Y-149546777D03*
%TD*%
%TO.C,KiKit_MB_38_2*%
X122048345Y-83851962D03*
%TD*%
%TO.C,KiKit_MB_73_4*%
X134971366Y-122461452D03*
%TD*%
%TO.C,KiKit_MB_154_2*%
X249771530Y-219038525D03*
%TD*%
%TO.C,KiKit_MB_138_5*%
X152740500Y-214781199D03*
%TD*%
%TO.C,KiKit_MB_9_1*%
X100729044Y-34088957D03*
%TD*%
%TO.C,KiKit_MB_69_4*%
X103781886Y-109450432D03*
%TD*%
%TO.C,KiKit_MB_121_3*%
X56364281Y-200657502D03*
%TD*%
%TO.C,KiKit_MB_116_3*%
X240140501Y-162045932D03*
%TD*%
%TO.C,KiKit_MB_127_4*%
X95462754Y-199676862D03*
%TD*%
%TO.C,KiKit_MB_122_4*%
X81672373Y-201632197D03*
%TD*%
%TO.C,KiKit_MB_154_6*%
X253771530Y-219038525D03*
%TD*%
%TO.C,KiKit_MB_85_3*%
X214398728Y-123442092D03*
%TD*%
%TO.C,KiKit_MB_61_5*%
X55544005Y-121480811D03*
%TD*%
%TO.C,KiKit_MB_146_3*%
X240140501Y-200653637D03*
%TD*%
%TO.C,KiKit_MB_139_1*%
X175710393Y-202618784D03*
%TD*%
%TO.C,KiKit_MB_97_3*%
X95872892Y-162049797D03*
%TD*%
%TO.C,KiKit_MB_153_4*%
X251771530Y-28000000D03*
%TD*%
%TO.C,KiKit_MB_114_2*%
X195071804Y-173786586D03*
%TD*%
%TO.C,KiKit_MB_91_4*%
X55954143Y-161069157D03*
%TD*%
%TO.C,KiKit_MB_100_2*%
X114183109Y-148120730D03*
%TD*%
%TO.C,KiKit_MB_19_3*%
X174890116Y-46226683D03*
%TD*%
%TO.C,KiKit_MB_1_2*%
X56774420Y-47207323D03*
%TD*%
%TO.C,KiKit_MB_54_4*%
X193190009Y-98162448D03*
%TD*%
%TO.C,KiKit_MB_49_2*%
X175300255Y-85815028D03*
%TD*%
%TO.C,KiKit_MB_10_5*%
X117256794Y-33896636D03*
%TD*%
%TO.C,KiKit_MB_134_3*%
X161123277Y-200653637D03*
%TD*%
%TO.C,KiKit_MB_40_5*%
X117256794Y-72504340D03*
%TD*%
%TO.C,KiKit_MB_133_2*%
X135791643Y-201638143D03*
%TD*%
%TO.C,KiKit_MB_63_4*%
X64273275Y-109450432D03*
%TD*%
%TO.C,KiKit_MB_55_4*%
X213988590Y-83853747D03*
%TD*%
%TO.C,KiKit_MB_2_5*%
X81238693Y-48179937D03*
%TD*%
%TO.C,KiKit_MB_125_3*%
X63361652Y-213933529D03*
%TD*%
%TO.C,KiKit_MB_109_5*%
X174069840Y-160088516D03*
%TD*%
%TO.C,KiKit_MB_148_2*%
X232708945Y-186728435D03*
%TD*%
%TO.C,KiKit_MB_46_4*%
X155606460Y-72401705D03*
%TD*%
%TO.C,KiKit_MB_86_1*%
X241007861Y-121481107D03*
%TD*%
%TO.C,KiKit_MB_33_5*%
X65250271Y-70098408D03*
%TD*%
%TO.C,KiKit_MB_66_2*%
X76545968Y-135178881D03*
%TD*%
%TO.C,KiKit_MB_127_5*%
X95052616Y-198696221D03*
%TD*%
%TO.C,KiKit_MB_3_1*%
X61220433Y-34088957D03*
%TD*%
%TO.C,KiKit_MB_94_4*%
X76589236Y-149617115D03*
%TD*%
%TO.C,KiKit_MB_75_2*%
X141336507Y-110939072D03*
%TD*%
%TO.C,KiKit_MB_104_4*%
X160689597Y-163024492D03*
%TD*%
%TO.C,KiKit_MB_58_5*%
X235782630Y-72504340D03*
%TD*%
%TO.C,KiKit_MB_80_3*%
X200631889Y-123438227D03*
%TD*%
%TO.C,KiKit_MB_59_5*%
X219516798Y-96496305D03*
%TD*%
%TO.C,KiKit_MB_20_4*%
X200198209Y-47201377D03*
%TD*%
%TO.C,KiKit_MB_120_2*%
X234580416Y-173786586D03*
%TD*%
%TO.C,KiKit_MB_27_3*%
X221330727Y-32979343D03*
%TD*%
%TO.C,KiKit_MB_96_2*%
X76545968Y-173786586D03*
%TD*%
%TO.C,KiKit_MB_74_3*%
X161123277Y-123438227D03*
%TD*%
%TO.C,KiKit_MB_9_4*%
X103781886Y-32235023D03*
%TD*%
%TO.C,KiKit_MB_15_5*%
X144267494Y-31490704D03*
%TD*%
%TO.C,KiKit_MB_81_3*%
X181822115Y-110194752D03*
%TD*%
%TO.C,KiKit_MB_89_4*%
X220456449Y-135911064D03*
%TD*%
%TO.C,KiKit_MB_147_5*%
X223284718Y-185921523D03*
%TD*%
%TO.C,KiKit_MB_61_1*%
X57184558Y-125403374D03*
%TD*%
%TO.C,KiKit_MB_44_2*%
X161556957Y-83851962D03*
%TD*%
%TO.C,KiKit_MB_43_3*%
X135381504Y-84834387D03*
%TD*%
%TO.C,KiKit_MB_116_4*%
X239706821Y-163024492D03*
%TD*%
%TO.C,KiKit_MB_101_4*%
X101930613Y-174518769D03*
%TD*%
%TO.C,KiKit_MB_25_3*%
X214398728Y-46226683D03*
%TD*%
%TO.C,KiKit_MB_54_5*%
X192249112Y-98958084D03*
%TD*%
%TO.C,KiKit_MB_35_4*%
X62422002Y-97303359D03*
%TD*%
%TO.C,KiKit_MB_63_3*%
X63296280Y-110194752D03*
%TD*%
%TO.C,KiKit_MB_149_2*%
X222335750Y-214740584D03*
%TD*%
%TO.C,KiKit_MB_124_4*%
X76589236Y-188224820D03*
%TD*%
%TO.C,KiKit_MB_135_4*%
X143290498Y-186665842D03*
%TD*%
%TO.C,KiKit_MB_117_3*%
X221330727Y-148802457D03*
%TD*%
%TO.C,KiKit_MB_134_4*%
X160689597Y-201632197D03*
%TD*%
%TO.C,KiKit_MB_20_5*%
X199764529Y-48179937D03*
%TD*%
%TO.C,KiKit_MB_63_1*%
X61220433Y-111304366D03*
%TD*%
%TO.C,KiKit_MB_132_2*%
X116054580Y-212394291D03*
%TD*%
%TO.C,KiKit_MB_26_1*%
X241007861Y-44265698D03*
%TD*%
%TO.C,KiKit_MB_47_4*%
X141439225Y-97303359D03*
%TD*%
%TO.C,KiKit_MB_150_3*%
X233639518Y-213189927D03*
%TD*%
%TO.C,KiKit_MB_118_4*%
X234623684Y-149617115D03*
%TD*%
%TO.C,KiKit_MB_90_3*%
X233639518Y-135974517D03*
%TD*%
%TO.C,KiKit_MB_18_4*%
X153681397Y-59554743D03*
%TD*%
%TO.C,KiKit_MB_128_5*%
X120747305Y-202610757D03*
%TD*%
%TO.C,KiKit_MB_87_2*%
X220353731Y-110939072D03*
%TD*%
%TO.C,KiKit_MB_79_5*%
X174069840Y-121480811D03*
%TD*%
%TO.C,KiKit_MB_78_4*%
X153681397Y-136770153D03*
%TD*%
%TO.C,KiKit_MB_84_2*%
X195071804Y-135178881D03*
%TD*%
%TO.C,KiKit_MB_51_5*%
X183776106Y-70098408D03*
%TD*%
%TO.C,KiKit_MB_11_4*%
X101930613Y-58695654D03*
%TD*%
%TO.C,KiKit_MB_92_4*%
X81672373Y-163024492D03*
%TD*%
%TO.C,KiKit_MB_10_1*%
X113225739Y-31549423D03*
%TD*%
%TO.C,KiKit_MB_71_1*%
X104749564Y-138332228D03*
%TD*%
%TO.C,KiKit_MB_123_3*%
X63296280Y-187410162D03*
%TD*%
%TO.C,KiKit_MB_88_3*%
X233666314Y-110261218D03*
%TD*%
%TO.C,KiKit_MB_84_3*%
X194130906Y-135974517D03*
%TD*%
%TO.C,KiKit_MB_58_3*%
X233666314Y-71653513D03*
%TD*%
%TO.C,KiKit_MB_58_1*%
X231751575Y-70157127D03*
%TD*%
%TO.C,KiKit_MB_93_5*%
X65250271Y-147313818D03*
%TD*%
%TO.C,KiKit_MB_152_3*%
X44228470Y-219038525D03*
%TD*%
%TO.C,KiKit_MB_139_2*%
X175300255Y-201638143D03*
%TD*%
%TO.C,KiKit_MB_24_4*%
X193190009Y-59554743D03*
%TD*%
%TO.C,KiKit_MB_6_5*%
X73723276Y-60350379D03*
%TD*%
%TO.C,KiKit_MB_127_3*%
X95872892Y-200657502D03*
%TD*%
%TO.C,KiKit_MB_137_1*%
X144258176Y-215547638D03*
%TD*%
%TO.C,KiKit_MB_91_3*%
X56364281Y-162049797D03*
%TD*%
%TO.C,KiKit_MB_148_5*%
X235782630Y-188327455D03*
%TD*%
%TO.C,KiKit_MB_55_3*%
X214398728Y-84834387D03*
%TD*%
%TO.C,KiKit_MB_12_4*%
X114172785Y-59554743D03*
%TD*%
%TO.C,KiKit_MB_27_5*%
X223284718Y-31490704D03*
%TD*%
%TO.C,KiKit_MB_100_4*%
X116097848Y-149617115D03*
%TD*%
%TO.C,KiKit_MB_144_3*%
X194130906Y-213189927D03*
%TD*%
%TO.C,KiKit_MB_108_2*%
X155563192Y-173786586D03*
%TD*%
%TO.C,KiKit_MB_41_1*%
X104749564Y-99724523D03*
%TD*%
%TO.C,KiKit_MB_102_3*%
X115113682Y-174582222D03*
%TD*%
%TO.C,KiKit_MB_13_5*%
X134561228Y-44265402D03*
%TD*%
%TO.C,KiKit_MB_103_1*%
X136201781Y-164011079D03*
%TD*%
%TO.C,KiKit_MB_96_3*%
X75605070Y-174582222D03*
%TD*%
%TO.C,KiKit_MB_126_4*%
X74664173Y-213985563D03*
%TD*%
%TO.C,KiKit_MB_42_2*%
X116054580Y-96571176D03*
%TD*%
%TO.C,KiKit_MB_24_5*%
X192249112Y-60350379D03*
%TD*%
%TO.C,KiKit_MB_92_2*%
X82539733Y-161067372D03*
%TD*%
%TO.C,KiKit_MB_2_2*%
X82539733Y-45244258D03*
%TD*%
%TO.C,KiKit_MB_45_5*%
X144267494Y-70098408D03*
%TD*%
%TO.C,KiKit_MB_48_2*%
X155563192Y-96571176D03*
%TD*%
%TO.C,KiKit_MB_99_4*%
X103781886Y-148058137D03*
%TD*%
%TO.C,KiKit_MB_5_5*%
X61482351Y-57888600D03*
%TD*%
%TO.C,KiKit_MB_135_1*%
X140237656Y-188519776D03*
%TD*%
%TO.C,KiKit_MB_124_3*%
X75631866Y-187476628D03*
%TD*%
%TO.C,KiKit_MB_152_6*%
X47228470Y-219038525D03*
%TD*%
%TO.C,KiKit_MB_53_2*%
X182827138Y-98917469D03*
%TD*%
%TO.C,KiKit_MB_106_3*%
X154649090Y-148868923D03*
%TD*%
%TO.C,KiKit_MB_98_3*%
X121614665Y-162045932D03*
%TD*%
%TO.C,KiKit_MB_14_4*%
X160689597Y-47201377D03*
%TD*%
%TO.C,KiKit_MB_132_4*%
X114172785Y-213985563D03*
%TD*%
%TO.C,KiKit_MB_100_3*%
X115140478Y-148868923D03*
%TD*%
%TO.C,KiKit_MB_60_2*%
X234580416Y-96571176D03*
%TD*%
%TO.C,KiKit_MB_15_4*%
X143290498Y-32235023D03*
%TD*%
%TO.C,KiKit_MB_92_1*%
X82973413Y-160088812D03*
%TD*%
%TO.C,KiKit_MB_56_3*%
X240140501Y-84830522D03*
%TD*%
%TO.C,KiKit_MB_103_5*%
X134561228Y-160088516D03*
%TD*%
%TO.C,KiKit_MB_18_3*%
X154622294Y-58759107D03*
%TD*%
%TO.C,KiKit_MB_129_5*%
X104758882Y-185921523D03*
%TD*%
%TO.C,KiKit_MB_96_5*%
X73723276Y-176173494D03*
%TD*%
%TO.C,KiKit_MB_87_5*%
X223284718Y-108706113D03*
%TD*%
%TO.C,KiKit_MB_146_1*%
X241007861Y-198696517D03*
%TD*%
%TO.C,KiKit_MB_145_3*%
X214398728Y-200657502D03*
%TD*%
%TO.C,KiKit_MB_11_5*%
X100990962Y-57888600D03*
%TD*%
%TO.C,KiKit_MB_66_4*%
X74664173Y-136770153D03*
%TD*%
%TO.C,KiKit_MB_83_2*%
X182827138Y-137525174D03*
%TD*%
%TO.C,KiKit_MB_131_5*%
X100990962Y-212319420D03*
%TD*%
%TO.C,KiKit_MB_38_4*%
X121180985Y-85809082D03*
%TD*%
%TO.C,KiKit_MB_4_5*%
X77748182Y-33896636D03*
%TD*%
%TO.C,KiKit_MB_124_5*%
X77748182Y-188327455D03*
%TD*%
%TO.C,KiKit_MB_77_2*%
X143318526Y-137525174D03*
%TD*%
%TO.C,KiKit_MB_46_1*%
X152734351Y-70157127D03*
%TD*%
%TO.C,KiKit_MB_141_3*%
X181822115Y-187410162D03*
%TD*%
%TO.C,KiKit_MB_55_1*%
X215219005Y-86795669D03*
%TD*%
%TO.C,KiKit_MB_31_3*%
X56364281Y-84834387D03*
%TD*%
%TO.C,KiKit_MB_123_5*%
X65250271Y-185921523D03*
%TD*%
%TO.C,KiKit_MB_75_4*%
X143290498Y-109450432D03*
%TD*%
%TO.C,KiKit_MB_11_1*%
X104749564Y-61116818D03*
%TD*%
%TO.C,KiKit_MB_112_3*%
X194157702Y-148868923D03*
%TD*%
%TO.C,KiKit_MB_39_4*%
X103781886Y-70842727D03*
%TD*%
%TO.C,KiKit_MB_144_2*%
X195071804Y-212394291D03*
%TD*%
%TO.C,KiKit_MB_115_5*%
X213578452Y-160088516D03*
%TD*%
%TO.C,KiKit_MB_39_5*%
X104758882Y-70098408D03*
%TD*%
%TO.C,KiKit_MB_2_4*%
X81672373Y-47201377D03*
%TD*%
%TO.C,KiKit_MB_6_3*%
X75605070Y-58759107D03*
%TD*%
%TO.C,KiKit_MB_51_3*%
X181822115Y-71587047D03*
%TD*%
%TO.C,KiKit_MB_118_2*%
X232708945Y-148120730D03*
%TD*%
%TO.C,KiKit_MB_20_2*%
X201065569Y-45244258D03*
%TD*%
%TO.C,KiKit_MB_35_1*%
X65240953Y-99724523D03*
%TD*%
%TO.C,KiKit_MB_32_2*%
X82539733Y-83851962D03*
%TD*%
%TO.C,KiKit_MB_35_3*%
X63361652Y-98110414D03*
%TD*%
%TO.C,KiKit_MB_117_1*%
X219254880Y-149912071D03*
%TD*%
%TO.C,KiKit_MB_36_3*%
X75605070Y-97366812D03*
%TD*%
%TO.C,KiKit_MB_1_1*%
X57184558Y-48187964D03*
%TD*%
%TO.C,KiKit_MB_132_5*%
X113231888Y-214781199D03*
%TD*%
%TO.C,KiKit_MB_62_1*%
X82973413Y-121481107D03*
%TD*%
%TO.C,KiKit_MB_89_2*%
X222335750Y-137525174D03*
%TD*%
%TO.C,KiKit_MB_53_3*%
X181887487Y-98110414D03*
%TD*%
%TO.C,KiKit_MB_146_5*%
X239273141Y-202610757D03*
%TD*%
%TO.C,KiKit_MB_77_4*%
X141439225Y-135911064D03*
%TD*%
%TO.C,KiKit_MB_153_6*%
X253771530Y-28000000D03*
%TD*%
%TO.C,KiKit_MB_41_5*%
X100990962Y-96496305D03*
%TD*%
%TO.C,KiKit_MB_39_2*%
X101827895Y-72331367D03*
%TD*%
%TO.C,KiKit_MB_28_3*%
X233666314Y-33045809D03*
%TD*%
%TO.C,KiKit_MB_141_2*%
X180845119Y-188154482D03*
%TD*%
%TO.C,KiKit_MB_29_1*%
X223275400Y-61116818D03*
%TD*%
%TO.C,KiKit_MB_145_5*%
X213578452Y-198696221D03*
%TD*%
%TO.C,KiKit_MB_17_5*%
X140499574Y-57888600D03*
%TD*%
%TO.C,KiKit_MB_21_3*%
X181822115Y-32979343D03*
%TD*%
%TO.C,KiKit_MB_67_5*%
X95052616Y-121480811D03*
%TD*%
%TO.C,KiKit_MB_122_5*%
X81238693Y-202610757D03*
%TD*%
%TO.C,KiKit_MB_74_5*%
X160255917Y-125395347D03*
%TD*%
%TO.C,KiKit_MB_68_1*%
X122482025Y-121481107D03*
%TD*%
%TO.C,KiKit_MB_70_2*%
X114183109Y-109513025D03*
%TD*%
%TO.C,KiKit_MB_134_1*%
X161990637Y-198696517D03*
%TD*%
%TO.C,KiKit_MB_23_1*%
X183766788Y-61116818D03*
%TD*%
%TO.C,KiKit_MB_4_1*%
X73717127Y-31549423D03*
%TD*%
%TO.C,KiKit_MB_133_3*%
X135381504Y-200657502D03*
%TD*%
%TO.C,KiKit_MB_70_4*%
X116097848Y-111009410D03*
%TD*%
%TO.C,KiKit_MB_52_5*%
X196274018Y-72504340D03*
%TD*%
%TO.C,KiKit_MB_36_5*%
X73723276Y-98958084D03*
%TD*%
%TO.C,KiKit_MB_154_4*%
X251771530Y-219038525D03*
%TD*%
%TO.C,KiKit_MB_15_2*%
X141336507Y-33723663D03*
%TD*%
%TO.C,KiKit_MB_97_2*%
X96283031Y-163030438D03*
%TD*%
%TO.C,KiKit_MB_84_4*%
X193190009Y-136770153D03*
%TD*%
%TO.C,KiKit_MB_68_5*%
X120747305Y-125395347D03*
%TD*%
%TO.C,KiKit_MB_90_2*%
X234580416Y-135178881D03*
%TD*%
%TO.C,KiKit_MB_128_3*%
X121614665Y-200653637D03*
%TD*%
%TO.C,KiKit_MB_140_5*%
X199764529Y-202610757D03*
%TD*%
%TO.C,KiKit_MB_53_4*%
X180947837Y-97303359D03*
%TD*%
%TO.C,KiKit_MB_31_1*%
X57184558Y-86795669D03*
%TD*%
%TO.C,KiKit_MB_79_1*%
X175710393Y-125403374D03*
%TD*%
%TO.C,KiKit_MB_125_1*%
X65240953Y-215547638D03*
%TD*%
%TO.C,KiKit_MB_13_1*%
X136201781Y-48187964D03*
%TD*%
%TO.C,KiKit_MB_111_4*%
X182799110Y-148058137D03*
%TD*%
%TO.C,KiKit_MB_110_4*%
X200198209Y-163024492D03*
%TD*%
%TO.C,KiKit_MB_23_3*%
X181887487Y-59502709D03*
%TD*%
%TO.C,KiKit_MB_43_4*%
X134971366Y-83853747D03*
%TD*%
%TO.C,KiKit_MB_131_3*%
X102870263Y-213933529D03*
%TD*%
%TO.C,KiKit_MB_91_5*%
X55544005Y-160088516D03*
%TD*%
%TO.C,KiKit_MB_7_1*%
X96693169Y-48187964D03*
%TD*%
%TO.C,KiKit_MB_79_3*%
X174890116Y-123442092D03*
%TD*%
%TO.C,KiKit_MB_135_2*%
X141336507Y-188154482D03*
%TD*%
%TO.C,KiKit_MB_106_1*%
X152734351Y-147372537D03*
%TD*%
%TO.C,KiKit_MB_66_5*%
X73723276Y-137565789D03*
%TD*%
%TO.C,KiKit_MB_52_1*%
X192242963Y-70157127D03*
%TD*%
%TO.C,KiKit_MB_108_3*%
X154622294Y-174582222D03*
%TD*%
%TO.C,KiKit_MB_9_5*%
X104758882Y-31490704D03*
%TD*%
%TO.C,KiKit_MB_45_1*%
X140237656Y-72696661D03*
%TD*%
%TO.C,KiKit_MB_43_1*%
X136201781Y-86795669D03*
%TD*%
%TO.C,KiKit_MB_122_3*%
X82106053Y-200653637D03*
%TD*%
%TO.C,KiKit_MB_56_5*%
X239273141Y-86787642D03*
%TD*%
D12*
%TO.C,KiKit_TO_4*%
X251771530Y-224538525D03*
%TD*%
D11*
%TO.C,KiKit_MB_30_3*%
X233639518Y-58759107D03*
%TD*%
%TO.C,KiKit_MB_9_2*%
X101827895Y-33723663D03*
%TD*%
%TO.C,KiKit_MB_151_5*%
X46228470Y-28000000D03*
%TD*%
%TO.C,KiKit_MB_100_1*%
X113225739Y-147372537D03*
%TD*%
%TO.C,KiKit_MB_67_3*%
X95872892Y-123442092D03*
%TD*%
%TO.C,KiKit_MB_125_5*%
X61482351Y-212319420D03*
%TD*%
%TO.C,KiKit_MB_140_2*%
X201065569Y-199675077D03*
%TD*%
%TO.C,KiKit_MB_33_4*%
X64273275Y-70842727D03*
%TD*%
%TO.C,KiKit_MB_31_2*%
X56774420Y-85815028D03*
%TD*%
%TO.C,KiKit_MB_48_5*%
X152740500Y-98958084D03*
%TD*%
%TO.C,KiKit_MB_88_5*%
X235782630Y-111112045D03*
%TD*%
%TO.C,KiKit_MB_93_2*%
X62319284Y-149546777D03*
%TD*%
%TO.C,KiKit_MB_98_1*%
X122482025Y-160088812D03*
%TD*%
%TO.C,KiKit_MB_65_2*%
X64301303Y-137525174D03*
%TD*%
%TO.C,KiKit_MB_109_1*%
X175710393Y-164011079D03*
%TD*%
%TO.C,KiKit_MB_51_2*%
X180845119Y-72331367D03*
%TD*%
%TO.C,KiKit_MB_10_3*%
X115140478Y-33045809D03*
%TD*%
%TO.C,KiKit_MB_76_1*%
X152734351Y-108764832D03*
%TD*%
%TO.C,KiKit_MB_43_5*%
X134561228Y-82873106D03*
%TD*%
%TO.C,KiKit_MB_139_5*%
X174069840Y-198696221D03*
%TD*%
%TO.C,KiKit_MB_21_4*%
X182799110Y-32235023D03*
%TD*%
%TO.C,KiKit_MB_19_1*%
X175710393Y-48187964D03*
%TD*%
%TO.C,KiKit_MB_133_4*%
X134971366Y-199676862D03*
%TD*%
%TO.C,KiKit_MB_76_4*%
X155606460Y-111009410D03*
%TD*%
%TO.C,KiKit_MB_78_5*%
X152740500Y-137565789D03*
%TD*%
%TO.C,KiKit_MB_151_4*%
X45228470Y-28000000D03*
%TD*%
%TO.C,KiKit_MB_142_5*%
X196274018Y-188327455D03*
%TD*%
%TO.C,KiKit_MB_68_3*%
X121614665Y-123438227D03*
%TD*%
%TO.C,KiKit_MB_150_4*%
X232698621Y-213985563D03*
%TD*%
%TO.C,KiKit_MB_105_1*%
X140237656Y-149912071D03*
%TD*%
%TO.C,KiKit_MB_97_1*%
X96693169Y-164011079D03*
%TD*%
%TO.C,KiKit_MB_38_1*%
X122482025Y-82873402D03*
%TD*%
%TO.C,KiKit_MB_65_5*%
X61482351Y-135104010D03*
%TD*%
%TO.C,KiKit_MB_140_1*%
X201499249Y-198696517D03*
%TD*%
%TO.C,KiKit_MB_95_3*%
X63361652Y-175325824D03*
%TD*%
%TO.C,KiKit_MB_40_3*%
X115140478Y-71653513D03*
%TD*%
%TO.C,KiKit_MB_57_5*%
X223284718Y-70098408D03*
%TD*%
%TO.C,KiKit_MB_42_3*%
X115113682Y-97366812D03*
%TD*%
%TO.C,KiKit_MB_53_1*%
X183766788Y-99724523D03*
%TD*%
%TO.C,KiKit_MB_106_2*%
X153691721Y-148120730D03*
%TD*%
%TO.C,KiKit_MB_68_4*%
X121180985Y-124416787D03*
%TD*%
%TO.C,KiKit_MB_142_1*%
X192242963Y-185980242D03*
%TD*%
%TO.C,KiKit_MB_118_3*%
X233666314Y-148868923D03*
%TD*%
%TO.C,KiKit_MB_16_1*%
X152734351Y-31549423D03*
%TD*%
%TO.C,KiKit_MB_82_2*%
X193200333Y-109513025D03*
%TD*%
%TO.C,KiKit_MB_133_1*%
X136201781Y-202618784D03*
%TD*%
%TO.C,KiKit_MB_113_2*%
X182827138Y-176132879D03*
%TD*%
%TO.C,KiKit_MB_131_2*%
X103809914Y-214740584D03*
%TD*%
%TO.C,KiKit_MB_145_1*%
X215219005Y-202618784D03*
%TD*%
%TO.C,KiKit_MB_46_2*%
X153691721Y-70905320D03*
%TD*%
%TO.C,KiKit_MB_22_4*%
X195115072Y-33794001D03*
%TD*%
%TO.C,KiKit_MB_125_4*%
X62422002Y-213126474D03*
%TD*%
%TO.C,KiKit_MB_77_1*%
X144258176Y-138332228D03*
%TD*%
%TO.C,KiKit_MB_64_5*%
X77748182Y-111112045D03*
%TD*%
%TO.C,KiKit_MB_59_3*%
X221396099Y-98110414D03*
%TD*%
%TO.C,KiKit_MB_127_2*%
X96283031Y-201638143D03*
%TD*%
%TO.C,KiKit_MB_133_5*%
X134561228Y-198696221D03*
%TD*%
%TO.C,KiKit_MB_131_1*%
X104749564Y-215547638D03*
%TD*%
%TO.C,KiKit_MB_115_4*%
X213988590Y-161069157D03*
%TD*%
%TO.C,KiKit_MB_111_1*%
X179746268Y-149912071D03*
%TD*%
%TO.C,KiKit_MB_130_2*%
X114183109Y-186728435D03*
%TD*%
%TO.C,KiKit_MB_13_4*%
X134971366Y-45246043D03*
%TD*%
%TO.C,KiKit_MB_22_5*%
X196274018Y-33896636D03*
%TD*%
%TO.C,KiKit_MB_137_5*%
X140499574Y-212319420D03*
%TD*%
%TO.C,KiKit_MB_115_3*%
X214398728Y-162049797D03*
%TD*%
%TO.C,KiKit_MB_149_4*%
X220456449Y-213126474D03*
%TD*%
%TO.C,KiKit_MB_65_4*%
X62422002Y-135911064D03*
%TD*%
%TO.C,KiKit_MB_37_3*%
X95872892Y-84834387D03*
%TD*%
%TO.C,KiKit_MB_120_4*%
X232698621Y-175377858D03*
%TD*%
%TO.C,KiKit_MB_4_4*%
X76589236Y-33794001D03*
%TD*%
%TO.C,KiKit_MB_146_2*%
X240574181Y-199675077D03*
%TD*%
%TO.C,KiKit_MB_15_3*%
X142313503Y-32979343D03*
%TD*%
%TO.C,KiKit_MB_98_5*%
X120747305Y-164003052D03*
%TD*%
%TO.C,KiKit_MB_87_1*%
X219254880Y-111304366D03*
%TD*%
%TO.C,KiKit_MB_139_4*%
X174479978Y-199676862D03*
%TD*%
%TO.C,KiKit_MB_141_5*%
X183776106Y-185921523D03*
%TD*%
%TO.C,KiKit_MB_136_4*%
X155606460Y-188224820D03*
%TD*%
%TO.C,KiKit_MB_19_4*%
X174479978Y-45246043D03*
%TD*%
%TO.C,KiKit_MB_40_1*%
X113225739Y-70157127D03*
%TD*%
%TO.C,KiKit_MB_57_3*%
X221330727Y-71587047D03*
%TD*%
%TO.C,KiKit_MB_41_2*%
X103809914Y-98917469D03*
%TD*%
%TO.C,KiKit_MB_7_4*%
X95462754Y-45246043D03*
%TD*%
%TO.C,KiKit_MB_113_3*%
X181887487Y-175325824D03*
%TD*%
%TO.C,KiKit_MB_113_1*%
X183766788Y-176939933D03*
%TD*%
%TO.C,KiKit_MB_83_5*%
X180008186Y-135104010D03*
%TD*%
%TO.C,KiKit_MB_23_4*%
X180947837Y-58695654D03*
%TD*%
%TO.C,KiKit_MB_103_3*%
X135381504Y-162049797D03*
%TD*%
%TO.C,KiKit_MB_141_1*%
X179746268Y-188519776D03*
%TD*%
%TO.C,KiKit_MB_91_1*%
X57184558Y-164011079D03*
%TD*%
%TO.C,KiKit_MB_116_1*%
X241007861Y-160088812D03*
%TD*%
%TO.C,KiKit_MB_150_5*%
X231757724Y-214781199D03*
%TD*%
D12*
%TO.C,KiKit_TO_3*%
X45228470Y-224538525D03*
%TD*%
D11*
%TO.C,KiKit_MB_125_2*%
X64301303Y-214740584D03*
%TD*%
%TO.C,KiKit_MB_34_1*%
X73717127Y-70157127D03*
%TD*%
%TO.C,KiKit_MB_23_5*%
X180008186Y-57888600D03*
%TD*%
%TO.C,KiKit_MB_47_3*%
X142378875Y-98110414D03*
%TD*%
%TO.C,KiKit_MB_85_4*%
X213988590Y-122461452D03*
%TD*%
%TO.C,KiKit_MB_7_2*%
X96283031Y-47207323D03*
%TD*%
%TO.C,KiKit_MB_76_5*%
X156765406Y-111112045D03*
%TD*%
%TO.C,KiKit_MB_60_5*%
X231757724Y-98958084D03*
%TD*%
%TO.C,KiKit_MB_104_2*%
X161556957Y-161067372D03*
%TD*%
%TO.C,KiKit_MB_57_4*%
X222307722Y-70842727D03*
%TD*%
%TO.C,KiKit_MB_101_1*%
X104749564Y-176939933D03*
%TD*%
%TO.C,KiKit_MB_73_1*%
X136201781Y-125403374D03*
%TD*%
%TO.C,KiKit_MB_8_5*%
X120747305Y-48179937D03*
%TD*%
%TO.C,KiKit_MB_60_3*%
X233639518Y-97366812D03*
%TD*%
%TO.C,KiKit_MB_51_4*%
X182799110Y-70842727D03*
%TD*%
%TO.C,KiKit_MB_82_1*%
X192242963Y-108764832D03*
%TD*%
%TO.C,KiKit_MB_32_3*%
X82106053Y-84830522D03*
%TD*%
%TO.C,KiKit_MB_108_5*%
X152740500Y-176173494D03*
%TD*%
%TO.C,KiKit_MB_39_1*%
X100729044Y-72696661D03*
%TD*%
%TO.C,KiKit_MB_153_5*%
X252771530Y-28000000D03*
%TD*%
%TO.C,KiKit_MB_85_5*%
X213578452Y-121480811D03*
%TD*%
%TO.C,KiKit_MB_12_5*%
X113231888Y-60350379D03*
%TD*%
%TO.C,KiKit_MB_153_2*%
X249771530Y-28000000D03*
%TD*%
%TO.C,KiKit_MB_53_5*%
X180008186Y-96496305D03*
%TD*%
%TO.C,KiKit_MB_130_3*%
X115140478Y-187476628D03*
%TD*%
%TO.C,KiKit_MB_121_4*%
X55954143Y-199676862D03*
%TD*%
%TO.C,KiKit_MB_16_4*%
X155606460Y-33794001D03*
%TD*%
%TO.C,KiKit_MB_55_5*%
X213578452Y-82873106D03*
%TD*%
%TO.C,KiKit_MB_67_1*%
X96693169Y-125403374D03*
%TD*%
%TO.C,KiKit_MB_150_2*%
X234580416Y-212394291D03*
%TD*%
%TO.C,KiKit_MB_128_2*%
X122048345Y-199675077D03*
%TD*%
%TO.C,KiKit_MB_152_4*%
X45228470Y-219038525D03*
%TD*%
%TO.C,KiKit_MB_22_3*%
X194157702Y-33045809D03*
%TD*%
%TO.C,KiKit_MB_7_3*%
X95872892Y-46226683D03*
%TD*%
%TO.C,KiKit_MB_23_2*%
X182827138Y-60309764D03*
%TD*%
%TO.C,KiKit_MB_2_1*%
X82973413Y-44265698D03*
%TD*%
%TO.C,KiKit_MB_40_2*%
X114183109Y-70905320D03*
%TD*%
%TO.C,KiKit_MB_20_1*%
X201499249Y-44265698D03*
%TD*%
%TO.C,KiKit_MB_142_2*%
X193200333Y-186728435D03*
%TD*%
%TO.C,KiKit_MB_14_3*%
X161123277Y-46222818D03*
%TD*%
%TO.C,KiKit_MB_60_4*%
X232698621Y-98162448D03*
%TD*%
%TO.C,KiKit_MB_33_3*%
X63296280Y-71587047D03*
%TD*%
%TO.C,KiKit_MB_117_5*%
X223284718Y-147313818D03*
%TD*%
%TO.C,KiKit_MB_15_1*%
X140237656Y-34088957D03*
%TD*%
%TO.C,KiKit_MB_59_2*%
X222335750Y-98917469D03*
%TD*%
%TO.C,KiKit_MB_57_2*%
X220353731Y-72331367D03*
%TD*%
%TO.C,KiKit_MB_101_5*%
X100990962Y-173711715D03*
%TD*%
%TO.C,KiKit_MB_87_3*%
X221330727Y-110194752D03*
%TD*%
%TO.C,KiKit_MB_69_5*%
X104758882Y-108706113D03*
%TD*%
%TO.C,KiKit_MB_1_3*%
X56364281Y-46226683D03*
%TD*%
%TO.C,KiKit_MB_8_1*%
X122482025Y-44265698D03*
%TD*%
%TO.C,KiKit_MB_72_4*%
X114172785Y-136770153D03*
%TD*%
%TO.C,KiKit_MB_64_3*%
X75631866Y-110261218D03*
%TD*%
%TO.C,KiKit_MB_82_4*%
X195115072Y-111009410D03*
%TD*%
%TO.C,KiKit_MB_149_5*%
X219516798Y-212319420D03*
%TD*%
%TO.C,KiKit_MB_72_2*%
X116054580Y-135178881D03*
%TD*%
%TO.C,KiKit_MB_29_5*%
X219516798Y-57888600D03*
%TD*%
%TO.C,KiKit_MB_134_5*%
X160255917Y-202610757D03*
%TD*%
%TO.C,KiKit_MB_147_1*%
X219254880Y-188519776D03*
%TD*%
%TO.C,KiKit_MB_151_2*%
X43228470Y-28000000D03*
%TD*%
%TO.C,KiKit_MB_52_4*%
X195115072Y-72401705D03*
%TD*%
%TO.C,KiKit_MB_116_2*%
X240574181Y-161067372D03*
%TD*%
%TO.C,KiKit_MB_88_2*%
X232708945Y-109513025D03*
%TD*%
%TO.C,KiKit_MB_94_5*%
X77748182Y-149719750D03*
%TD*%
%TO.C,KiKit_MB_31_4*%
X55954143Y-83853747D03*
%TD*%
%TO.C,KiKit_MB_28_1*%
X231751575Y-31549423D03*
%TD*%
%TO.C,KiKit_MB_26_4*%
X239706821Y-47201377D03*
%TD*%
%TO.C,KiKit_MB_121_1*%
X57184558Y-202618784D03*
%TD*%
%TO.C,KiKit_MB_138_4*%
X153681397Y-213985563D03*
%TD*%
%TO.C,KiKit_MB_62_2*%
X82539733Y-122459667D03*
%TD*%
%TO.C,KiKit_MB_126_2*%
X76545968Y-212394291D03*
%TD*%
%TO.C,KiKit_MB_92_5*%
X81238693Y-164003052D03*
%TD*%
%TO.C,KiKit_MB_139_3*%
X174890116Y-200657502D03*
%TD*%
%TO.C,KiKit_MB_5_1*%
X65240953Y-61116818D03*
%TD*%
%TO.C,KiKit_MB_42_4*%
X114172785Y-98162448D03*
%TD*%
%TO.C,KiKit_MB_61_4*%
X55954143Y-122461452D03*
%TD*%
%TO.C,KiKit_MB_103_2*%
X135791643Y-163030438D03*
%TD*%
%TO.C,KiKit_MB_1_4*%
X55954143Y-45246043D03*
%TD*%
%TO.C,KiKit_MB_6_4*%
X74664173Y-59554743D03*
%TD*%
%TO.C,KiKit_MB_140_4*%
X200198209Y-201632197D03*
%TD*%
%TO.C,KiKit_MB_122_2*%
X82539733Y-199675077D03*
%TD*%
%TO.C,KiKit_MB_74_4*%
X160689597Y-124416787D03*
%TD*%
%TO.C,KiKit_MB_95_5*%
X61482351Y-173711715D03*
%TD*%
%TO.C,KiKit_MB_109_3*%
X174890116Y-162049797D03*
%TD*%
%TO.C,KiKit_MB_143_2*%
X182827138Y-214740584D03*
%TD*%
%TO.C,KiKit_MB_56_2*%
X240574181Y-83851962D03*
%TD*%
%TO.C,KiKit_MB_27_4*%
X222307722Y-32235023D03*
%TD*%
%TO.C,KiKit_MB_73_5*%
X134561228Y-121480811D03*
%TD*%
%TO.C,KiKit_MB_47_1*%
X144258176Y-99724523D03*
%TD*%
%TO.C,KiKit_MB_78_2*%
X155563192Y-135178881D03*
%TD*%
%TO.C,KiKit_MB_79_2*%
X175300255Y-124422733D03*
%TD*%
%TO.C,KiKit_MB_102_2*%
X116054580Y-173786586D03*
%TD*%
%TO.C,KiKit_MB_143_4*%
X180947837Y-213126474D03*
%TD*%
%TO.C,KiKit_MB_145_4*%
X213988590Y-199676862D03*
%TD*%
%TO.C,KiKit_MB_143_3*%
X181887487Y-213933529D03*
%TD*%
%TO.C,KiKit_MB_100_5*%
X117256794Y-149719750D03*
%TD*%
%TO.C,KiKit_MB_112_4*%
X195115072Y-149617115D03*
%TD*%
%TO.C,KiKit_MB_69_2*%
X101827895Y-110939072D03*
%TD*%
%TO.C,KiKit_MB_136_2*%
X153691721Y-186728435D03*
%TD*%
%TO.C,KiKit_MB_83_4*%
X180947837Y-135911064D03*
%TD*%
%TO.C,KiKit_MB_63_2*%
X62319284Y-110939072D03*
%TD*%
%TO.C,KiKit_MB_37_2*%
X96283031Y-85815028D03*
%TD*%
%TO.C,KiKit_MB_24_2*%
X195071804Y-57963471D03*
%TD*%
%TO.C,KiKit_MB_35_5*%
X61482351Y-96496305D03*
%TD*%
%TO.C,KiKit_MB_101_2*%
X103809914Y-176132879D03*
%TD*%
%TO.C,KiKit_MB_74_1*%
X161990637Y-121481107D03*
%TD*%
%TO.C,KiKit_MB_43_2*%
X135791643Y-85815028D03*
%TD*%
%TO.C,KiKit_MB_148_3*%
X233666314Y-187476628D03*
%TD*%
%TO.C,KiKit_MB_92_3*%
X82106053Y-162045932D03*
%TD*%
%TO.C,KiKit_MB_72_5*%
X113231888Y-137565789D03*
%TD*%
%TO.C,KiKit_MB_94_2*%
X74674497Y-148120730D03*
%TD*%
%TO.C,KiKit_MB_45_3*%
X142313503Y-71587047D03*
%TD*%
%TO.C,KiKit_MB_22_1*%
X192242963Y-31549423D03*
%TD*%
%TO.C,KiKit_MB_105_4*%
X143290498Y-148058137D03*
%TD*%
%TO.C,KiKit_MB_50_4*%
X200198209Y-85809082D03*
%TD*%
%TO.C,KiKit_MB_54_3*%
X194130906Y-97366812D03*
%TD*%
%TO.C,KiKit_MB_48_4*%
X153681397Y-98162448D03*
%TD*%
%TO.C,KiKit_MB_57_1*%
X219254880Y-72696661D03*
%TD*%
%TO.C,KiKit_MB_129_1*%
X100729044Y-188519776D03*
%TD*%
%TO.C,KiKit_MB_80_4*%
X200198209Y-124416787D03*
%TD*%
%TO.C,KiKit_MB_110_2*%
X201065569Y-161067372D03*
%TD*%
%TO.C,KiKit_MB_104_5*%
X160255917Y-164003052D03*
%TD*%
%TO.C,KiKit_MB_5_3*%
X63361652Y-59502709D03*
%TD*%
%TO.C,KiKit_MB_56_1*%
X241007861Y-82873402D03*
%TD*%
%TO.C,KiKit_MB_21_1*%
X179746268Y-34088957D03*
%TD*%
%TO.C,KiKit_MB_61_2*%
X56774420Y-124422733D03*
%TD*%
%TO.C,KiKit_MB_8_3*%
X121614665Y-46222818D03*
%TD*%
%TO.C,KiKit_MB_95_1*%
X65240953Y-176939933D03*
%TD*%
%TO.C,KiKit_MB_136_1*%
X152734351Y-185980242D03*
%TD*%
%TO.C,KiKit_MB_28_2*%
X232708945Y-32297616D03*
%TD*%
%TO.C,KiKit_MB_4_3*%
X75631866Y-33045809D03*
%TD*%
%TO.C,KiKit_MB_3_2*%
X62319284Y-33723663D03*
%TD*%
%TO.C,KiKit_MB_79_4*%
X174479978Y-122461452D03*
%TD*%
%TO.C,KiKit_MB_148_1*%
X231751575Y-185980242D03*
%TD*%
%TO.C,KiKit_MB_131_4*%
X101930613Y-213126474D03*
%TD*%
%TO.C,KiKit_MB_44_3*%
X161123277Y-84830522D03*
%TD*%
%TO.C,KiKit_MB_17_1*%
X144258176Y-61116818D03*
%TD*%
%TO.C,KiKit_MB_44_4*%
X160689597Y-85809082D03*
%TD*%
%TO.C,KiKit_MB_63_5*%
X65250271Y-108706113D03*
%TD*%
%TO.C,KiKit_MB_149_3*%
X221396099Y-213933529D03*
%TD*%
%TO.C,KiKit_MB_64_1*%
X73717127Y-108764832D03*
%TD*%
%TO.C,KiKit_MB_30_2*%
X234580416Y-57963471D03*
%TD*%
%TO.C,KiKit_MB_130_5*%
X117256794Y-188327455D03*
%TD*%
%TO.C,KiKit_MB_144_4*%
X193190009Y-213985563D03*
%TD*%
%TO.C,KiKit_MB_146_4*%
X239706821Y-201632197D03*
%TD*%
%TO.C,KiKit_MB_12_2*%
X116054580Y-57963471D03*
%TD*%
%TO.C,KiKit_MB_25_5*%
X213578452Y-44265402D03*
%TD*%
%TO.C,KiKit_MB_108_4*%
X153681397Y-175377858D03*
%TD*%
D12*
%TO.C,KiKit_TO_2*%
X251771530Y-22500000D03*
%TD*%
D11*
%TO.C,KiKit_MB_52_3*%
X194157702Y-71653513D03*
%TD*%
%TO.C,KiKit_MB_126_3*%
X75605070Y-213189927D03*
%TD*%
%TO.C,KiKit_MB_149_1*%
X223275400Y-215547638D03*
%TD*%
%TO.C,KiKit_MB_106_5*%
X156765406Y-149719750D03*
%TD*%
%TO.C,KiKit_MB_152_2*%
X43228470Y-219038525D03*
%TD*%
%TO.C,KiKit_MB_10_4*%
X116097848Y-33794001D03*
%TD*%
%TO.C,KiKit_MB_82_3*%
X194157702Y-110261218D03*
%TD*%
%TO.C,KiKit_MB_99_1*%
X100729044Y-149912071D03*
%TD*%
%TO.C,KiKit_MB_73_2*%
X135791643Y-124422733D03*
%TD*%
%TO.C,KiKit_MB_19_5*%
X174069840Y-44265402D03*
%TD*%
%TO.C,KiKit_MB_113_4*%
X180947837Y-174518769D03*
%TD*%
%TO.C,KiKit_MB_12_3*%
X115113682Y-58759107D03*
%TD*%
%TO.C,KiKit_MB_105_3*%
X142313503Y-148802457D03*
%TD*%
%TO.C,KiKit_MB_128_1*%
X122482025Y-198696517D03*
%TD*%
%TO.C,KiKit_MB_154_5*%
X252771530Y-219038525D03*
%TD*%
%TO.C,KiKit_MB_87_4*%
X222307722Y-109450432D03*
%TD*%
%TO.C,KiKit_MB_80_2*%
X201065569Y-122459667D03*
%TD*%
%TO.C,KiKit_MB_94_1*%
X73717127Y-147372537D03*
%TD*%
%TO.C,KiKit_MB_143_5*%
X180008186Y-212319420D03*
%TD*%
%TO.C,KiKit_MB_148_4*%
X234623684Y-188224820D03*
%TD*%
%TO.C,KiKit_MB_65_1*%
X65240953Y-138332228D03*
%TD*%
%TO.C,KiKit_MB_90_4*%
X232698621Y-136770153D03*
%TD*%
%TO.C,KiKit_MB_62_5*%
X81238693Y-125395347D03*
%TD*%
%TO.C,KiKit_MB_9_3*%
X102804891Y-32979343D03*
%TD*%
%TO.C,KiKit_MB_11_2*%
X103809914Y-60309764D03*
%TD*%
%TO.C,KiKit_MB_30_4*%
X232698621Y-59554743D03*
%TD*%
%TO.C,KiKit_MB_101_3*%
X102870263Y-175325824D03*
%TD*%
%TO.C,KiKit_MB_132_3*%
X115113682Y-213189927D03*
%TD*%
%TO.C,KiKit_MB_134_2*%
X161556957Y-199675077D03*
%TD*%
%TO.C,KiKit_MB_104_3*%
X161123277Y-162045932D03*
%TD*%
%TO.C,KiKit_MB_111_5*%
X183776106Y-147313818D03*
%TD*%
%TO.C,KiKit_MB_38_3*%
X121614665Y-84830522D03*
%TD*%
%TO.C,KiKit_MB_126_5*%
X73723276Y-214781199D03*
%TD*%
%TO.C,KiKit_MB_102_4*%
X114172785Y-175377858D03*
%TD*%
%TO.C,KiKit_MB_73_3*%
X135381504Y-123442092D03*
%TD*%
%TO.C,KiKit_MB_114_4*%
X193190009Y-175377858D03*
%TD*%
%TO.C,KiKit_MB_58_4*%
X234623684Y-72401705D03*
%TD*%
%TO.C,KiKit_MB_75_5*%
X144267494Y-108706113D03*
%TD*%
%TO.C,KiKit_MB_26_5*%
X239273141Y-48179937D03*
%TD*%
%TO.C,KiKit_MB_16_3*%
X154649090Y-33045809D03*
%TD*%
%TO.C,KiKit_MB_36_2*%
X76545968Y-96571176D03*
%TD*%
%TO.C,KiKit_MB_147_4*%
X222307722Y-186665842D03*
%TD*%
%TO.C,KiKit_MB_26_3*%
X240140501Y-46222818D03*
%TD*%
%TO.C,KiKit_MB_8_2*%
X122048345Y-45244258D03*
%TD*%
%TO.C,KiKit_MB_32_4*%
X81672373Y-85809082D03*
%TD*%
%TO.C,KiKit_MB_17_4*%
X141439225Y-58695654D03*
%TD*%
%TO.C,KiKit_MB_21_5*%
X183776106Y-31490704D03*
%TD*%
%TO.C,KiKit_MB_151_3*%
X44228470Y-28000000D03*
%TD*%
%TO.C,KiKit_MB_58_2*%
X232708945Y-70905320D03*
%TD*%
%TO.C,KiKit_MB_41_3*%
X102870263Y-98110414D03*
%TD*%
%TO.C,KiKit_MB_7_5*%
X95052616Y-44265402D03*
%TD*%
%TO.C,KiKit_MB_147_2*%
X220353731Y-188154482D03*
%TD*%
%TO.C,KiKit_MB_33_1*%
X61220433Y-72696661D03*
%TD*%
%TO.C,KiKit_MB_54_2*%
X195071804Y-96571176D03*
%TD*%
%TO.C,KiKit_MB_29_4*%
X220456449Y-58695654D03*
%TD*%
%TO.C,KiKit_MB_75_1*%
X140237656Y-111304366D03*
%TD*%
%TO.C,KiKit_MB_19_2*%
X175300255Y-47207323D03*
%TD*%
%TO.C,KiKit_MB_117_4*%
X222307722Y-148058137D03*
%TD*%
%TO.C,KiKit_MB_128_4*%
X121180985Y-201632197D03*
%TD*%
%TO.C,KiKit_MB_107_1*%
X144258176Y-176939933D03*
%TD*%
%TO.C,KiKit_MB_105_5*%
X144267494Y-147313818D03*
%TD*%
%TO.C,KiKit_MB_78_3*%
X154622294Y-135974517D03*
%TD*%
%TO.C,KiKit_MB_86_4*%
X239706821Y-124416787D03*
%TD*%
%TO.C,KiKit_MB_70_1*%
X113225739Y-108764832D03*
%TD*%
%TO.C,KiKit_MB_24_3*%
X194130906Y-58759107D03*
%TD*%
%TO.C,KiKit_MB_25_2*%
X214808867Y-47207323D03*
%TD*%
%TO.C,KiKit_MB_2_3*%
X82106053Y-46222818D03*
%TD*%
%TO.C,KiKit_MB_107_4*%
X141439225Y-174518769D03*
%TD*%
%TO.C,KiKit_MB_119_5*%
X219516798Y-173711715D03*
%TD*%
%TO.C,KiKit_MB_50_2*%
X201065569Y-83851962D03*
%TD*%
%TO.C,KiKit_MB_67_2*%
X96283031Y-124422733D03*
%TD*%
%TO.C,KiKit_MB_111_3*%
X181822115Y-148802457D03*
%TD*%
%TO.C,KiKit_MB_18_5*%
X152740500Y-60350379D03*
%TD*%
%TO.C,KiKit_MB_51_1*%
X179746268Y-72696661D03*
%TD*%
%TO.C,KiKit_MB_50_1*%
X201499249Y-82873402D03*
%TD*%
%TO.C,KiKit_MB_151_6*%
X47228470Y-28000000D03*
%TD*%
%TO.C,KiKit_MB_10_2*%
X114183109Y-32297616D03*
%TD*%
%TO.C,KiKit_MB_50_5*%
X199764529Y-86787642D03*
%TD*%
%TO.C,KiKit_MB_26_2*%
X240574181Y-45244258D03*
%TD*%
%TO.C,KiKit_MB_86_5*%
X239273141Y-125395347D03*
%TD*%
%TO.C,KiKit_MB_20_3*%
X200631889Y-46222818D03*
%TD*%
%TO.C,KiKit_MB_29_2*%
X222335750Y-60309764D03*
%TD*%
%TO.C,KiKit_MB_47_2*%
X143318526Y-98917469D03*
%TD*%
%TO.C,KiKit_MB_119_2*%
X222335750Y-176132879D03*
%TD*%
%TO.C,KiKit_MB_93_4*%
X64273275Y-148058137D03*
%TD*%
%TO.C,KiKit_MB_106_4*%
X155606460Y-149617115D03*
%TD*%
%TO.C,KiKit_MB_74_2*%
X161556957Y-122459667D03*
%TD*%
%TO.C,KiKit_MB_95_2*%
X64301303Y-176132879D03*
%TD*%
%TO.C,KiKit_MB_137_2*%
X143318526Y-214740584D03*
%TD*%
%TO.C,KiKit_MB_83_1*%
X183766788Y-138332228D03*
%TD*%
%TO.C,KiKit_MB_13_2*%
X135791643Y-47207323D03*
%TD*%
%TO.C,KiKit_MB_119_3*%
X221396099Y-175325824D03*
%TD*%
%TO.C,KiKit_MB_17_3*%
X142378875Y-59502709D03*
%TD*%
%TO.C,KiKit_MB_14_5*%
X160255917Y-48179937D03*
%TD*%
%TO.C,KiKit_MB_121_5*%
X55544005Y-198696221D03*
%TD*%
%TO.C,KiKit_MB_71_4*%
X101930613Y-135911064D03*
%TD*%
%TO.C,KiKit_MB_32_1*%
X82973413Y-82873402D03*
%TD*%
%TO.C,KiKit_MB_107_2*%
X143318526Y-176132879D03*
%TD*%
%TO.C,KiKit_MB_69_1*%
X100729044Y-111304366D03*
%TD*%
%TO.C,KiKit_MB_71_5*%
X100990962Y-135104010D03*
%TD*%
%TO.C,KiKit_MB_44_5*%
X160255917Y-86787642D03*
%TD*%
%TO.C,KiKit_MB_25_4*%
X213988590Y-45246043D03*
%TD*%
D13*
%TO.C,J1*%
X105941184Y-132171164D03*
X105941184Y-137221164D03*
X108481184Y-132171164D03*
X108481184Y-137221164D03*
X111021184Y-132171164D03*
X111021184Y-137221164D03*
%TD*%
D14*
%TO.C,D6*%
X196598408Y-200211574D03*
X197288842Y-198795974D03*
%TD*%
D15*
%TO.C,U1*%
X66547572Y-84613459D03*
X67197572Y-84613459D03*
X67847572Y-84613459D03*
X68497572Y-84613459D03*
X69147572Y-84613459D03*
X69797572Y-84613459D03*
X70447572Y-84613459D03*
X71097572Y-84613459D03*
X71747572Y-84613459D03*
X72397572Y-84613459D03*
X72397572Y-90338459D03*
X71747572Y-90338459D03*
X71097572Y-90338459D03*
X70447572Y-90338459D03*
X69797572Y-90338459D03*
X69147572Y-90338459D03*
X68497572Y-90338459D03*
X67847572Y-90338459D03*
X67197572Y-90338459D03*
X66547572Y-90338459D03*
%TD*%
D16*
%TO.C,D2*%
X59227355Y-121288364D03*
X59917789Y-122703964D03*
%TD*%
D17*
%TO.C,KiKit_FID_B_3*%
X47728470Y-224538525D03*
%TD*%
D16*
%TO.C,D2*%
X138244579Y-82680659D03*
X138935013Y-84096259D03*
%TD*%
D18*
%TO.C,D8*%
X199798408Y-152203869D03*
X198508244Y-151300487D03*
%TD*%
D16*
%TO.C,D2*%
X98735967Y-198503774D03*
X99426401Y-199919374D03*
%TD*%
%TO.C,D2*%
X98735967Y-82680659D03*
X99426401Y-84096259D03*
%TD*%
D19*
%TO.C,D4*%
X98405002Y-112305136D03*
X97163886Y-113274802D03*
%TD*%
D14*
%TO.C,D6*%
X196598408Y-161603869D03*
X197288842Y-160188269D03*
%TD*%
D20*
%TO.C,RN1*%
X219057020Y-53880754D03*
D21*
X219057020Y-53080754D03*
X219057020Y-52280754D03*
D20*
X219057020Y-51480754D03*
X220857020Y-51480754D03*
D21*
X220857020Y-52280754D03*
X220857020Y-53080754D03*
D20*
X220857020Y-53880754D03*
%TD*%
D19*
%TO.C,D4*%
X98405002Y-35089726D03*
X97163886Y-36059392D03*
%TD*%
D22*
%TO.C,C1*%
X192648408Y-88288459D03*
X192648408Y-86388459D03*
%TD*%
D14*
%TO.C,D6*%
X78072572Y-45780754D03*
X78763006Y-44365154D03*
%TD*%
%TO.C,D6*%
X196598408Y-84388459D03*
X197288842Y-82972859D03*
%TD*%
D16*
%TO.C,D2*%
X138244579Y-198503774D03*
X138935013Y-199919374D03*
%TD*%
%TO.C,D2*%
X217261803Y-44072954D03*
X217952237Y-45488554D03*
%TD*%
D15*
%TO.C,U1*%
X224582020Y-200436574D03*
X225232020Y-200436574D03*
X225882020Y-200436574D03*
X226532020Y-200436574D03*
X227182020Y-200436574D03*
X227832020Y-200436574D03*
X228482020Y-200436574D03*
X229132020Y-200436574D03*
X229782020Y-200436574D03*
X230432020Y-200436574D03*
X230432020Y-206161574D03*
X229782020Y-206161574D03*
X229132020Y-206161574D03*
X228482020Y-206161574D03*
X227832020Y-206161574D03*
X227182020Y-206161574D03*
X226532020Y-206161574D03*
X225882020Y-206161574D03*
X225232020Y-206161574D03*
X224582020Y-206161574D03*
%TD*%
D20*
%TO.C,RN1*%
X61022572Y-169703869D03*
D21*
X61022572Y-168903869D03*
X61022572Y-168103869D03*
D20*
X61022572Y-167303869D03*
X62822572Y-167303869D03*
D21*
X62822572Y-168103869D03*
X62822572Y-168903869D03*
D20*
X62822572Y-169703869D03*
%TD*%
D15*
%TO.C,U1*%
X185073408Y-46005754D03*
X185723408Y-46005754D03*
X186373408Y-46005754D03*
X187023408Y-46005754D03*
X187673408Y-46005754D03*
X188323408Y-46005754D03*
X188973408Y-46005754D03*
X189623408Y-46005754D03*
X190273408Y-46005754D03*
X190923408Y-46005754D03*
X190923408Y-51730754D03*
X190273408Y-51730754D03*
X189623408Y-51730754D03*
X188973408Y-51730754D03*
X188323408Y-51730754D03*
X187673408Y-51730754D03*
X187023408Y-51730754D03*
X186373408Y-51730754D03*
X185723408Y-51730754D03*
X185073408Y-51730754D03*
%TD*%
D13*
%TO.C,J1*%
X224467020Y-170778869D03*
X224467020Y-175828869D03*
X227007020Y-170778869D03*
X227007020Y-175828869D03*
X229547020Y-170778869D03*
X229547020Y-175828869D03*
%TD*%
%TO.C,J1*%
X224467020Y-54955754D03*
X224467020Y-60005754D03*
X227007020Y-54955754D03*
X227007020Y-60005754D03*
X229547020Y-54955754D03*
X229547020Y-60005754D03*
%TD*%
D15*
%TO.C,U1*%
X106056184Y-161828869D03*
X106706184Y-161828869D03*
X107356184Y-161828869D03*
X108006184Y-161828869D03*
X108656184Y-161828869D03*
X109306184Y-161828869D03*
X109956184Y-161828869D03*
X110606184Y-161828869D03*
X111256184Y-161828869D03*
X111906184Y-161828869D03*
X111906184Y-167553869D03*
X111256184Y-167553869D03*
X110606184Y-167553869D03*
X109956184Y-167553869D03*
X109306184Y-167553869D03*
X108656184Y-167553869D03*
X108006184Y-167553869D03*
X107356184Y-167553869D03*
X106706184Y-167553869D03*
X106056184Y-167553869D03*
%TD*%
%TO.C,U1*%
X145564796Y-200436574D03*
X146214796Y-200436574D03*
X146864796Y-200436574D03*
X147514796Y-200436574D03*
X148164796Y-200436574D03*
X148814796Y-200436574D03*
X149464796Y-200436574D03*
X150114796Y-200436574D03*
X150764796Y-200436574D03*
X151414796Y-200436574D03*
X151414796Y-206161574D03*
X150764796Y-206161574D03*
X150114796Y-206161574D03*
X149464796Y-206161574D03*
X148814796Y-206161574D03*
X148164796Y-206161574D03*
X147514796Y-206161574D03*
X146864796Y-206161574D03*
X146214796Y-206161574D03*
X145564796Y-206161574D03*
%TD*%
D13*
%TO.C,J1*%
X184958408Y-54955754D03*
X184958408Y-60005754D03*
X187498408Y-54955754D03*
X187498408Y-60005754D03*
X190038408Y-54955754D03*
X190038408Y-60005754D03*
%TD*%
D19*
%TO.C,D4*%
X137913614Y-35089726D03*
X136672498Y-36059392D03*
%TD*%
D18*
%TO.C,D8*%
X120781184Y-190811574D03*
X119491020Y-189908192D03*
%TD*%
D15*
%TO.C,U1*%
X224582020Y-84613459D03*
X225232020Y-84613459D03*
X225882020Y-84613459D03*
X226532020Y-84613459D03*
X227182020Y-84613459D03*
X227832020Y-84613459D03*
X228482020Y-84613459D03*
X229132020Y-84613459D03*
X229782020Y-84613459D03*
X230432020Y-84613459D03*
X230432020Y-90338459D03*
X229782020Y-90338459D03*
X229132020Y-90338459D03*
X228482020Y-90338459D03*
X227832020Y-90338459D03*
X227182020Y-90338459D03*
X226532020Y-90338459D03*
X225882020Y-90338459D03*
X225232020Y-90338459D03*
X224582020Y-90338459D03*
%TD*%
D18*
%TO.C,D8*%
X160289796Y-74988459D03*
X158999632Y-74085077D03*
%TD*%
D22*
%TO.C,C1*%
X153139796Y-88288459D03*
X153139796Y-86388459D03*
%TD*%
D13*
%TO.C,J1*%
X184958408Y-170778869D03*
X184958408Y-175828869D03*
X187498408Y-170778869D03*
X187498408Y-175828869D03*
X190038408Y-170778869D03*
X190038408Y-175828869D03*
%TD*%
D22*
%TO.C,C1*%
X192648408Y-165503869D03*
X192648408Y-163603869D03*
%TD*%
D15*
%TO.C,U1*%
X145564796Y-84613459D03*
X146214796Y-84613459D03*
X146864796Y-84613459D03*
X147514796Y-84613459D03*
X148164796Y-84613459D03*
X148814796Y-84613459D03*
X149464796Y-84613459D03*
X150114796Y-84613459D03*
X150764796Y-84613459D03*
X151414796Y-84613459D03*
X151414796Y-90338459D03*
X150764796Y-90338459D03*
X150114796Y-90338459D03*
X149464796Y-90338459D03*
X148814796Y-90338459D03*
X148164796Y-90338459D03*
X147514796Y-90338459D03*
X146864796Y-90338459D03*
X146214796Y-90338459D03*
X145564796Y-90338459D03*
%TD*%
D20*
%TO.C,RN1*%
X179548408Y-169703869D03*
D21*
X179548408Y-168903869D03*
X179548408Y-168103869D03*
D20*
X179548408Y-167303869D03*
X181348408Y-167303869D03*
D21*
X181348408Y-168103869D03*
X181348408Y-168903869D03*
D20*
X181348408Y-169703869D03*
%TD*%
D14*
%TO.C,D6*%
X117581184Y-200211574D03*
X118271618Y-198795974D03*
%TD*%
%TO.C,D6*%
X117581184Y-45780754D03*
X118271618Y-44365154D03*
%TD*%
D16*
%TO.C,D2*%
X98735967Y-121288364D03*
X99426401Y-122703964D03*
%TD*%
D13*
%TO.C,J1*%
X145449796Y-54955754D03*
X145449796Y-60005754D03*
X147989796Y-54955754D03*
X147989796Y-60005754D03*
X150529796Y-54955754D03*
X150529796Y-60005754D03*
%TD*%
D18*
%TO.C,D8*%
X81272572Y-74988459D03*
X79982408Y-74085077D03*
%TD*%
D14*
%TO.C,D6*%
X117581184Y-84388459D03*
X118271618Y-82972859D03*
%TD*%
D15*
%TO.C,U1*%
X185073408Y-123221164D03*
X185723408Y-123221164D03*
X186373408Y-123221164D03*
X187023408Y-123221164D03*
X187673408Y-123221164D03*
X188323408Y-123221164D03*
X188973408Y-123221164D03*
X189623408Y-123221164D03*
X190273408Y-123221164D03*
X190923408Y-123221164D03*
X190923408Y-128946164D03*
X190273408Y-128946164D03*
X189623408Y-128946164D03*
X188973408Y-128946164D03*
X188323408Y-128946164D03*
X187673408Y-128946164D03*
X187023408Y-128946164D03*
X186373408Y-128946164D03*
X185723408Y-128946164D03*
X185073408Y-128946164D03*
%TD*%
D16*
%TO.C,D2*%
X138244579Y-121288364D03*
X138935013Y-122703964D03*
%TD*%
D19*
%TO.C,D4*%
X216930838Y-112305136D03*
X215689722Y-113274802D03*
%TD*%
D18*
%TO.C,D8*%
X239307020Y-152203869D03*
X238016856Y-151300487D03*
%TD*%
D15*
%TO.C,U1*%
X66547572Y-123221164D03*
X67197572Y-123221164D03*
X67847572Y-123221164D03*
X68497572Y-123221164D03*
X69147572Y-123221164D03*
X69797572Y-123221164D03*
X70447572Y-123221164D03*
X71097572Y-123221164D03*
X71747572Y-123221164D03*
X72397572Y-123221164D03*
X72397572Y-128946164D03*
X71747572Y-128946164D03*
X71097572Y-128946164D03*
X70447572Y-128946164D03*
X69797572Y-128946164D03*
X69147572Y-128946164D03*
X68497572Y-128946164D03*
X67847572Y-128946164D03*
X67197572Y-128946164D03*
X66547572Y-128946164D03*
%TD*%
D20*
%TO.C,RN1*%
X140039796Y-208311574D03*
D21*
X140039796Y-207511574D03*
X140039796Y-206711574D03*
D20*
X140039796Y-205911574D03*
X141839796Y-205911574D03*
D21*
X141839796Y-206711574D03*
X141839796Y-207511574D03*
D20*
X141839796Y-208311574D03*
%TD*%
%TO.C,RN1*%
X100531184Y-53880754D03*
D21*
X100531184Y-53080754D03*
X100531184Y-52280754D03*
D20*
X100531184Y-51480754D03*
X102331184Y-51480754D03*
D21*
X102331184Y-52280754D03*
X102331184Y-53080754D03*
D20*
X102331184Y-53880754D03*
%TD*%
D16*
%TO.C,D2*%
X59227355Y-159896069D03*
X59917789Y-161311669D03*
%TD*%
D18*
%TO.C,D8*%
X199798408Y-36380754D03*
X198508244Y-35477372D03*
%TD*%
D14*
%TO.C,D6*%
X157089796Y-122996164D03*
X157780230Y-121580564D03*
%TD*%
D22*
%TO.C,C1*%
X113631184Y-88288459D03*
X113631184Y-86388459D03*
%TD*%
D14*
%TO.C,D6*%
X117581184Y-161603869D03*
X118271618Y-160188269D03*
%TD*%
D15*
%TO.C,U1*%
X224582020Y-46005754D03*
X225232020Y-46005754D03*
X225882020Y-46005754D03*
X226532020Y-46005754D03*
X227182020Y-46005754D03*
X227832020Y-46005754D03*
X228482020Y-46005754D03*
X229132020Y-46005754D03*
X229782020Y-46005754D03*
X230432020Y-46005754D03*
X230432020Y-51730754D03*
X229782020Y-51730754D03*
X229132020Y-51730754D03*
X228482020Y-51730754D03*
X227832020Y-51730754D03*
X227182020Y-51730754D03*
X226532020Y-51730754D03*
X225882020Y-51730754D03*
X225232020Y-51730754D03*
X224582020Y-51730754D03*
%TD*%
D14*
%TO.C,D6*%
X236107020Y-84388459D03*
X236797454Y-82972859D03*
%TD*%
D19*
%TO.C,D4*%
X58896390Y-112305136D03*
X57655274Y-113274802D03*
%TD*%
D16*
%TO.C,D2*%
X177753191Y-198503774D03*
X178443625Y-199919374D03*
%TD*%
D20*
%TO.C,RN1*%
X140039796Y-92488459D03*
D21*
X140039796Y-91688459D03*
X140039796Y-90888459D03*
D20*
X140039796Y-90088459D03*
X141839796Y-90088459D03*
D21*
X141839796Y-90888459D03*
X141839796Y-91688459D03*
D20*
X141839796Y-92488459D03*
%TD*%
D13*
%TO.C,J1*%
X66432572Y-170778869D03*
X66432572Y-175828869D03*
X68972572Y-170778869D03*
X68972572Y-175828869D03*
X71512572Y-170778869D03*
X71512572Y-175828869D03*
%TD*%
D18*
%TO.C,D8*%
X81272572Y-152203869D03*
X79982408Y-151300487D03*
%TD*%
%TO.C,D8*%
X120781184Y-152203869D03*
X119491020Y-151300487D03*
%TD*%
D19*
%TO.C,D4*%
X137913614Y-189520546D03*
X136672498Y-190490212D03*
%TD*%
D20*
%TO.C,RN1*%
X100531184Y-169703869D03*
D21*
X100531184Y-168903869D03*
X100531184Y-168103869D03*
D20*
X100531184Y-167303869D03*
X102331184Y-167303869D03*
D21*
X102331184Y-168103869D03*
X102331184Y-168903869D03*
D20*
X102331184Y-169703869D03*
%TD*%
D15*
%TO.C,U1*%
X145564796Y-123221164D03*
X146214796Y-123221164D03*
X146864796Y-123221164D03*
X147514796Y-123221164D03*
X148164796Y-123221164D03*
X148814796Y-123221164D03*
X149464796Y-123221164D03*
X150114796Y-123221164D03*
X150764796Y-123221164D03*
X151414796Y-123221164D03*
X151414796Y-128946164D03*
X150764796Y-128946164D03*
X150114796Y-128946164D03*
X149464796Y-128946164D03*
X148814796Y-128946164D03*
X148164796Y-128946164D03*
X147514796Y-128946164D03*
X146864796Y-128946164D03*
X146214796Y-128946164D03*
X145564796Y-128946164D03*
%TD*%
D13*
%TO.C,J1*%
X66432572Y-209386574D03*
X66432572Y-214436574D03*
X68972572Y-209386574D03*
X68972572Y-214436574D03*
X71512572Y-209386574D03*
X71512572Y-214436574D03*
%TD*%
D22*
%TO.C,C1*%
X232157020Y-204111574D03*
X232157020Y-202211574D03*
%TD*%
D19*
%TO.C,D4*%
X58896390Y-35089726D03*
X57655274Y-36059392D03*
%TD*%
D22*
%TO.C,C1*%
X232157020Y-49680754D03*
X232157020Y-47780754D03*
%TD*%
D18*
%TO.C,D8*%
X120781184Y-36380754D03*
X119491020Y-35477372D03*
%TD*%
D22*
%TO.C,C1*%
X74122572Y-49680754D03*
X74122572Y-47780754D03*
%TD*%
D19*
%TO.C,D4*%
X137913614Y-73697431D03*
X136672498Y-74667097D03*
%TD*%
%TO.C,D4*%
X216930838Y-150912841D03*
X215689722Y-151882507D03*
%TD*%
D18*
%TO.C,D8*%
X81272572Y-36380754D03*
X79982408Y-35477372D03*
%TD*%
%TO.C,D8*%
X239307020Y-113596164D03*
X238016856Y-112692782D03*
%TD*%
D13*
%TO.C,J1*%
X105941184Y-54955754D03*
X105941184Y-60005754D03*
X108481184Y-54955754D03*
X108481184Y-60005754D03*
X111021184Y-54955754D03*
X111021184Y-60005754D03*
%TD*%
D18*
%TO.C,D8*%
X120781184Y-74988459D03*
X119491020Y-74085077D03*
%TD*%
D15*
%TO.C,U1*%
X66547572Y-161828869D03*
X67197572Y-161828869D03*
X67847572Y-161828869D03*
X68497572Y-161828869D03*
X69147572Y-161828869D03*
X69797572Y-161828869D03*
X70447572Y-161828869D03*
X71097572Y-161828869D03*
X71747572Y-161828869D03*
X72397572Y-161828869D03*
X72397572Y-167553869D03*
X71747572Y-167553869D03*
X71097572Y-167553869D03*
X70447572Y-167553869D03*
X69797572Y-167553869D03*
X69147572Y-167553869D03*
X68497572Y-167553869D03*
X67847572Y-167553869D03*
X67197572Y-167553869D03*
X66547572Y-167553869D03*
%TD*%
D14*
%TO.C,D6*%
X196598408Y-45780754D03*
X197288842Y-44365154D03*
%TD*%
D22*
%TO.C,C1*%
X74122572Y-126896164D03*
X74122572Y-124996164D03*
%TD*%
D13*
%TO.C,J1*%
X145449796Y-209386574D03*
X145449796Y-214436574D03*
X147989796Y-209386574D03*
X147989796Y-214436574D03*
X150529796Y-209386574D03*
X150529796Y-214436574D03*
%TD*%
D15*
%TO.C,U1*%
X224582020Y-123221164D03*
X225232020Y-123221164D03*
X225882020Y-123221164D03*
X226532020Y-123221164D03*
X227182020Y-123221164D03*
X227832020Y-123221164D03*
X228482020Y-123221164D03*
X229132020Y-123221164D03*
X229782020Y-123221164D03*
X230432020Y-123221164D03*
X230432020Y-128946164D03*
X229782020Y-128946164D03*
X229132020Y-128946164D03*
X228482020Y-128946164D03*
X227832020Y-128946164D03*
X227182020Y-128946164D03*
X226532020Y-128946164D03*
X225882020Y-128946164D03*
X225232020Y-128946164D03*
X224582020Y-128946164D03*
%TD*%
D22*
%TO.C,C1*%
X192648408Y-49680754D03*
X192648408Y-47780754D03*
%TD*%
D20*
%TO.C,RN1*%
X61022572Y-53880754D03*
D21*
X61022572Y-53080754D03*
X61022572Y-52280754D03*
D20*
X61022572Y-51480754D03*
X62822572Y-51480754D03*
D21*
X62822572Y-52280754D03*
X62822572Y-53080754D03*
D20*
X62822572Y-53880754D03*
%TD*%
%TO.C,RN1*%
X100531184Y-208311574D03*
D21*
X100531184Y-207511574D03*
X100531184Y-206711574D03*
D20*
X100531184Y-205911574D03*
X102331184Y-205911574D03*
D21*
X102331184Y-206711574D03*
X102331184Y-207511574D03*
D20*
X102331184Y-208311574D03*
%TD*%
D18*
%TO.C,D8*%
X239307020Y-74988459D03*
X238016856Y-74085077D03*
%TD*%
D19*
%TO.C,D4*%
X216930838Y-73697431D03*
X215689722Y-74667097D03*
%TD*%
D14*
%TO.C,D6*%
X157089796Y-200211574D03*
X157780230Y-198795974D03*
%TD*%
D22*
%TO.C,C1*%
X153139796Y-126896164D03*
X153139796Y-124996164D03*
%TD*%
D15*
%TO.C,U1*%
X106056184Y-200436574D03*
X106706184Y-200436574D03*
X107356184Y-200436574D03*
X108006184Y-200436574D03*
X108656184Y-200436574D03*
X109306184Y-200436574D03*
X109956184Y-200436574D03*
X110606184Y-200436574D03*
X111256184Y-200436574D03*
X111906184Y-200436574D03*
X111906184Y-206161574D03*
X111256184Y-206161574D03*
X110606184Y-206161574D03*
X109956184Y-206161574D03*
X109306184Y-206161574D03*
X108656184Y-206161574D03*
X108006184Y-206161574D03*
X107356184Y-206161574D03*
X106706184Y-206161574D03*
X106056184Y-206161574D03*
%TD*%
D14*
%TO.C,D6*%
X196598408Y-122996164D03*
X197288842Y-121580564D03*
%TD*%
D13*
%TO.C,J1*%
X105941184Y-209386574D03*
X105941184Y-214436574D03*
X108481184Y-209386574D03*
X108481184Y-214436574D03*
X111021184Y-209386574D03*
X111021184Y-214436574D03*
%TD*%
D16*
%TO.C,D2*%
X217261803Y-121288364D03*
X217952237Y-122703964D03*
%TD*%
D22*
%TO.C,C1*%
X113631184Y-165503869D03*
X113631184Y-163603869D03*
%TD*%
D14*
%TO.C,D6*%
X78072572Y-84388459D03*
X78763006Y-82972859D03*
%TD*%
D13*
%TO.C,J1*%
X66432572Y-54955754D03*
X66432572Y-60005754D03*
X68972572Y-54955754D03*
X68972572Y-60005754D03*
X71512572Y-54955754D03*
X71512572Y-60005754D03*
%TD*%
D20*
%TO.C,RN1*%
X179548408Y-92488459D03*
D21*
X179548408Y-91688459D03*
X179548408Y-90888459D03*
D20*
X179548408Y-90088459D03*
X181348408Y-90088459D03*
D21*
X181348408Y-90888459D03*
X181348408Y-91688459D03*
D20*
X181348408Y-92488459D03*
%TD*%
D19*
%TO.C,D4*%
X216930838Y-35089726D03*
X215689722Y-36059392D03*
%TD*%
D15*
%TO.C,U1*%
X185073408Y-200436574D03*
X185723408Y-200436574D03*
X186373408Y-200436574D03*
X187023408Y-200436574D03*
X187673408Y-200436574D03*
X188323408Y-200436574D03*
X188973408Y-200436574D03*
X189623408Y-200436574D03*
X190273408Y-200436574D03*
X190923408Y-200436574D03*
X190923408Y-206161574D03*
X190273408Y-206161574D03*
X189623408Y-206161574D03*
X188973408Y-206161574D03*
X188323408Y-206161574D03*
X187673408Y-206161574D03*
X187023408Y-206161574D03*
X186373408Y-206161574D03*
X185723408Y-206161574D03*
X185073408Y-206161574D03*
%TD*%
D14*
%TO.C,D6*%
X157089796Y-84388459D03*
X157780230Y-82972859D03*
%TD*%
%TO.C,D6*%
X157089796Y-45780754D03*
X157780230Y-44365154D03*
%TD*%
D15*
%TO.C,U1*%
X66547572Y-200436574D03*
X67197572Y-200436574D03*
X67847572Y-200436574D03*
X68497572Y-200436574D03*
X69147572Y-200436574D03*
X69797572Y-200436574D03*
X70447572Y-200436574D03*
X71097572Y-200436574D03*
X71747572Y-200436574D03*
X72397572Y-200436574D03*
X72397572Y-206161574D03*
X71747572Y-206161574D03*
X71097572Y-206161574D03*
X70447572Y-206161574D03*
X69797572Y-206161574D03*
X69147572Y-206161574D03*
X68497572Y-206161574D03*
X67847572Y-206161574D03*
X67197572Y-206161574D03*
X66547572Y-206161574D03*
%TD*%
D18*
%TO.C,D8*%
X239307020Y-190811574D03*
X238016856Y-189908192D03*
%TD*%
D22*
%TO.C,C1*%
X192648408Y-204111574D03*
X192648408Y-202211574D03*
%TD*%
D13*
%TO.C,J1*%
X66432572Y-93563459D03*
X66432572Y-98613459D03*
X68972572Y-93563459D03*
X68972572Y-98613459D03*
X71512572Y-93563459D03*
X71512572Y-98613459D03*
%TD*%
D15*
%TO.C,U1*%
X185073408Y-84613459D03*
X185723408Y-84613459D03*
X186373408Y-84613459D03*
X187023408Y-84613459D03*
X187673408Y-84613459D03*
X188323408Y-84613459D03*
X188973408Y-84613459D03*
X189623408Y-84613459D03*
X190273408Y-84613459D03*
X190923408Y-84613459D03*
X190923408Y-90338459D03*
X190273408Y-90338459D03*
X189623408Y-90338459D03*
X188973408Y-90338459D03*
X188323408Y-90338459D03*
X187673408Y-90338459D03*
X187023408Y-90338459D03*
X186373408Y-90338459D03*
X185723408Y-90338459D03*
X185073408Y-90338459D03*
%TD*%
D13*
%TO.C,J1*%
X184958408Y-209386574D03*
X184958408Y-214436574D03*
X187498408Y-209386574D03*
X187498408Y-214436574D03*
X190038408Y-209386574D03*
X190038408Y-214436574D03*
%TD*%
%TO.C,J1*%
X105941184Y-170778869D03*
X105941184Y-175828869D03*
X108481184Y-170778869D03*
X108481184Y-175828869D03*
X111021184Y-170778869D03*
X111021184Y-175828869D03*
%TD*%
D18*
%TO.C,D8*%
X81272572Y-190811574D03*
X79982408Y-189908192D03*
%TD*%
D17*
%TO.C,KiKit_FID_B_1*%
X47728470Y-22500000D03*
%TD*%
D22*
%TO.C,C1*%
X113631184Y-126896164D03*
X113631184Y-124996164D03*
%TD*%
D19*
%TO.C,D4*%
X137913614Y-150912841D03*
X136672498Y-151882507D03*
%TD*%
D22*
%TO.C,C1*%
X74122572Y-88288459D03*
X74122572Y-86388459D03*
%TD*%
D19*
%TO.C,D4*%
X98405002Y-189520546D03*
X97163886Y-190490212D03*
%TD*%
D22*
%TO.C,C1*%
X232157020Y-126896164D03*
X232157020Y-124996164D03*
%TD*%
D16*
%TO.C,D2*%
X217261803Y-198503774D03*
X217952237Y-199919374D03*
%TD*%
D20*
%TO.C,RN1*%
X140039796Y-169703869D03*
D21*
X140039796Y-168903869D03*
X140039796Y-168103869D03*
D20*
X140039796Y-167303869D03*
X141839796Y-167303869D03*
D21*
X141839796Y-168103869D03*
X141839796Y-168903869D03*
D20*
X141839796Y-169703869D03*
%TD*%
D18*
%TO.C,D8*%
X199798408Y-74988459D03*
X198508244Y-74085077D03*
%TD*%
D16*
%TO.C,D2*%
X138244579Y-44072954D03*
X138935013Y-45488554D03*
%TD*%
D19*
%TO.C,D4*%
X98405002Y-150912841D03*
X97163886Y-151882507D03*
%TD*%
D20*
%TO.C,RN1*%
X219057020Y-208311574D03*
D21*
X219057020Y-207511574D03*
X219057020Y-206711574D03*
D20*
X219057020Y-205911574D03*
X220857020Y-205911574D03*
D21*
X220857020Y-206711574D03*
X220857020Y-207511574D03*
D20*
X220857020Y-208311574D03*
%TD*%
%TO.C,RN1*%
X61022572Y-92488459D03*
D21*
X61022572Y-91688459D03*
X61022572Y-90888459D03*
D20*
X61022572Y-90088459D03*
X62822572Y-90088459D03*
D21*
X62822572Y-90888459D03*
X62822572Y-91688459D03*
D20*
X62822572Y-92488459D03*
%TD*%
D18*
%TO.C,D8*%
X160289796Y-113596164D03*
X158999632Y-112692782D03*
%TD*%
D13*
%TO.C,J1*%
X224467020Y-209386574D03*
X224467020Y-214436574D03*
X227007020Y-209386574D03*
X227007020Y-214436574D03*
X229547020Y-209386574D03*
X229547020Y-214436574D03*
%TD*%
D22*
%TO.C,C1*%
X74122572Y-165503869D03*
X74122572Y-163603869D03*
%TD*%
D20*
%TO.C,RN1*%
X100531184Y-92488459D03*
D21*
X100531184Y-91688459D03*
X100531184Y-90888459D03*
D20*
X100531184Y-90088459D03*
X102331184Y-90088459D03*
D21*
X102331184Y-90888459D03*
X102331184Y-91688459D03*
D20*
X102331184Y-92488459D03*
%TD*%
D15*
%TO.C,U1*%
X106056184Y-123221164D03*
X106706184Y-123221164D03*
X107356184Y-123221164D03*
X108006184Y-123221164D03*
X108656184Y-123221164D03*
X109306184Y-123221164D03*
X109956184Y-123221164D03*
X110606184Y-123221164D03*
X111256184Y-123221164D03*
X111906184Y-123221164D03*
X111906184Y-128946164D03*
X111256184Y-128946164D03*
X110606184Y-128946164D03*
X109956184Y-128946164D03*
X109306184Y-128946164D03*
X108656184Y-128946164D03*
X108006184Y-128946164D03*
X107356184Y-128946164D03*
X106706184Y-128946164D03*
X106056184Y-128946164D03*
%TD*%
D18*
%TO.C,D8*%
X199798408Y-113596164D03*
X198508244Y-112692782D03*
%TD*%
D15*
%TO.C,U1*%
X145564796Y-161828869D03*
X146214796Y-161828869D03*
X146864796Y-161828869D03*
X147514796Y-161828869D03*
X148164796Y-161828869D03*
X148814796Y-161828869D03*
X149464796Y-161828869D03*
X150114796Y-161828869D03*
X150764796Y-161828869D03*
X151414796Y-161828869D03*
X151414796Y-167553869D03*
X150764796Y-167553869D03*
X150114796Y-167553869D03*
X149464796Y-167553869D03*
X148814796Y-167553869D03*
X148164796Y-167553869D03*
X147514796Y-167553869D03*
X146864796Y-167553869D03*
X146214796Y-167553869D03*
X145564796Y-167553869D03*
%TD*%
D19*
%TO.C,D4*%
X137913614Y-112305136D03*
X136672498Y-113274802D03*
%TD*%
D13*
%TO.C,J1*%
X145449796Y-132171164D03*
X145449796Y-137221164D03*
X147989796Y-132171164D03*
X147989796Y-137221164D03*
X150529796Y-132171164D03*
X150529796Y-137221164D03*
%TD*%
D22*
%TO.C,C1*%
X153139796Y-165503869D03*
X153139796Y-163603869D03*
%TD*%
D20*
%TO.C,RN1*%
X219057020Y-131096164D03*
D21*
X219057020Y-130296164D03*
X219057020Y-129496164D03*
D20*
X219057020Y-128696164D03*
X220857020Y-128696164D03*
D21*
X220857020Y-129496164D03*
X220857020Y-130296164D03*
D20*
X220857020Y-131096164D03*
%TD*%
D16*
%TO.C,D2*%
X177753191Y-82680659D03*
X178443625Y-84096259D03*
%TD*%
D20*
%TO.C,RN1*%
X100531184Y-131096164D03*
D21*
X100531184Y-130296164D03*
X100531184Y-129496164D03*
D20*
X100531184Y-128696164D03*
X102331184Y-128696164D03*
D21*
X102331184Y-129496164D03*
X102331184Y-130296164D03*
D20*
X102331184Y-131096164D03*
%TD*%
D19*
%TO.C,D4*%
X177422226Y-112305136D03*
X176181110Y-113274802D03*
%TD*%
D20*
%TO.C,RN1*%
X140039796Y-53880754D03*
D21*
X140039796Y-53080754D03*
X140039796Y-52280754D03*
D20*
X140039796Y-51480754D03*
X141839796Y-51480754D03*
D21*
X141839796Y-52280754D03*
X141839796Y-53080754D03*
D20*
X141839796Y-53880754D03*
%TD*%
%TO.C,RN1*%
X179548408Y-131096164D03*
D21*
X179548408Y-130296164D03*
X179548408Y-129496164D03*
D20*
X179548408Y-128696164D03*
X181348408Y-128696164D03*
D21*
X181348408Y-129496164D03*
X181348408Y-130296164D03*
D20*
X181348408Y-131096164D03*
%TD*%
D15*
%TO.C,U1*%
X185073408Y-161828869D03*
X185723408Y-161828869D03*
X186373408Y-161828869D03*
X187023408Y-161828869D03*
X187673408Y-161828869D03*
X188323408Y-161828869D03*
X188973408Y-161828869D03*
X189623408Y-161828869D03*
X190273408Y-161828869D03*
X190923408Y-161828869D03*
X190923408Y-167553869D03*
X190273408Y-167553869D03*
X189623408Y-167553869D03*
X188973408Y-167553869D03*
X188323408Y-167553869D03*
X187673408Y-167553869D03*
X187023408Y-167553869D03*
X186373408Y-167553869D03*
X185723408Y-167553869D03*
X185073408Y-167553869D03*
%TD*%
D14*
%TO.C,D6*%
X236107020Y-45780754D03*
X236797454Y-44365154D03*
%TD*%
D19*
%TO.C,D4*%
X177422226Y-189520546D03*
X176181110Y-190490212D03*
%TD*%
D14*
%TO.C,D6*%
X117581184Y-122996164D03*
X118271618Y-121580564D03*
%TD*%
D20*
%TO.C,RN1*%
X179548408Y-53880754D03*
D21*
X179548408Y-53080754D03*
X179548408Y-52280754D03*
D20*
X179548408Y-51480754D03*
X181348408Y-51480754D03*
D21*
X181348408Y-52280754D03*
X181348408Y-53080754D03*
D20*
X181348408Y-53880754D03*
%TD*%
%TO.C,RN1*%
X61022572Y-131096164D03*
D21*
X61022572Y-130296164D03*
X61022572Y-129496164D03*
D20*
X61022572Y-128696164D03*
X62822572Y-128696164D03*
D21*
X62822572Y-129496164D03*
X62822572Y-130296164D03*
D20*
X62822572Y-131096164D03*
%TD*%
D18*
%TO.C,D8*%
X199798408Y-190811574D03*
X198508244Y-189908192D03*
%TD*%
D22*
%TO.C,C1*%
X232157020Y-165503869D03*
X232157020Y-163603869D03*
%TD*%
D15*
%TO.C,U1*%
X145564796Y-46005754D03*
X146214796Y-46005754D03*
X146864796Y-46005754D03*
X147514796Y-46005754D03*
X148164796Y-46005754D03*
X148814796Y-46005754D03*
X149464796Y-46005754D03*
X150114796Y-46005754D03*
X150764796Y-46005754D03*
X151414796Y-46005754D03*
X151414796Y-51730754D03*
X150764796Y-51730754D03*
X150114796Y-51730754D03*
X149464796Y-51730754D03*
X148814796Y-51730754D03*
X148164796Y-51730754D03*
X147514796Y-51730754D03*
X146864796Y-51730754D03*
X146214796Y-51730754D03*
X145564796Y-51730754D03*
%TD*%
D19*
%TO.C,D4*%
X177422226Y-35089726D03*
X176181110Y-36059392D03*
%TD*%
%TO.C,D4*%
X177422226Y-73697431D03*
X176181110Y-74667097D03*
%TD*%
D16*
%TO.C,D2*%
X59227355Y-82680659D03*
X59917789Y-84096259D03*
%TD*%
D20*
%TO.C,RN1*%
X219057020Y-169703869D03*
D21*
X219057020Y-168903869D03*
X219057020Y-168103869D03*
D20*
X219057020Y-167303869D03*
X220857020Y-167303869D03*
D21*
X220857020Y-168103869D03*
X220857020Y-168903869D03*
D20*
X220857020Y-169703869D03*
%TD*%
D16*
%TO.C,D2*%
X98735967Y-44072954D03*
X99426401Y-45488554D03*
%TD*%
%TO.C,D2*%
X217261803Y-159896069D03*
X217952237Y-161311669D03*
%TD*%
D20*
%TO.C,RN1*%
X179548408Y-208311574D03*
D21*
X179548408Y-207511574D03*
X179548408Y-206711574D03*
D20*
X179548408Y-205911574D03*
X181348408Y-205911574D03*
D21*
X181348408Y-206711574D03*
X181348408Y-207511574D03*
D20*
X181348408Y-208311574D03*
%TD*%
D18*
%TO.C,D8*%
X160289796Y-152203869D03*
X158999632Y-151300487D03*
%TD*%
D19*
%TO.C,D4*%
X216930838Y-189520546D03*
X215689722Y-190490212D03*
%TD*%
D16*
%TO.C,D2*%
X177753191Y-44072954D03*
X178443625Y-45488554D03*
%TD*%
D15*
%TO.C,U1*%
X106056184Y-84613459D03*
X106706184Y-84613459D03*
X107356184Y-84613459D03*
X108006184Y-84613459D03*
X108656184Y-84613459D03*
X109306184Y-84613459D03*
X109956184Y-84613459D03*
X110606184Y-84613459D03*
X111256184Y-84613459D03*
X111906184Y-84613459D03*
X111906184Y-90338459D03*
X111256184Y-90338459D03*
X110606184Y-90338459D03*
X109956184Y-90338459D03*
X109306184Y-90338459D03*
X108656184Y-90338459D03*
X108006184Y-90338459D03*
X107356184Y-90338459D03*
X106706184Y-90338459D03*
X106056184Y-90338459D03*
%TD*%
D19*
%TO.C,D4*%
X58896390Y-150912841D03*
X57655274Y-151882507D03*
%TD*%
%TO.C,D4*%
X58896390Y-73697431D03*
X57655274Y-74667097D03*
%TD*%
%TO.C,D4*%
X177422226Y-150912841D03*
X176181110Y-151882507D03*
%TD*%
D14*
%TO.C,D6*%
X236107020Y-122996164D03*
X236797454Y-121580564D03*
%TD*%
D19*
%TO.C,D4*%
X58896390Y-189520546D03*
X57655274Y-190490212D03*
%TD*%
D17*
%TO.C,KiKit_FID_B_2*%
X249271530Y-22500000D03*
%TD*%
D22*
%TO.C,C1*%
X113631184Y-49680754D03*
X113631184Y-47780754D03*
%TD*%
D14*
%TO.C,D6*%
X78072572Y-200211574D03*
X78763006Y-198795974D03*
%TD*%
D22*
%TO.C,C1*%
X153139796Y-49680754D03*
X153139796Y-47780754D03*
%TD*%
D14*
%TO.C,D6*%
X78072572Y-161603869D03*
X78763006Y-160188269D03*
%TD*%
D22*
%TO.C,C1*%
X192648408Y-126896164D03*
X192648408Y-124996164D03*
%TD*%
%TO.C,C1*%
X113631184Y-204111574D03*
X113631184Y-202211574D03*
%TD*%
D16*
%TO.C,D2*%
X217261803Y-82680659D03*
X217952237Y-84096259D03*
%TD*%
D20*
%TO.C,RN1*%
X219057020Y-92488459D03*
D21*
X219057020Y-91688459D03*
X219057020Y-90888459D03*
D20*
X219057020Y-90088459D03*
X220857020Y-90088459D03*
D21*
X220857020Y-90888459D03*
X220857020Y-91688459D03*
D20*
X220857020Y-92488459D03*
%TD*%
D22*
%TO.C,C1*%
X74122572Y-204111574D03*
X74122572Y-202211574D03*
%TD*%
%TO.C,C1*%
X232157020Y-88288459D03*
X232157020Y-86388459D03*
%TD*%
D14*
%TO.C,D6*%
X78072572Y-122996164D03*
X78763006Y-121580564D03*
%TD*%
D13*
%TO.C,J1*%
X224467020Y-132171164D03*
X224467020Y-137221164D03*
X227007020Y-132171164D03*
X227007020Y-137221164D03*
X229547020Y-132171164D03*
X229547020Y-137221164D03*
%TD*%
D16*
%TO.C,D2*%
X98735967Y-159896069D03*
X99426401Y-161311669D03*
%TD*%
D22*
%TO.C,C1*%
X153139796Y-204111574D03*
X153139796Y-202211574D03*
%TD*%
D13*
%TO.C,J1*%
X66432572Y-132171164D03*
X66432572Y-137221164D03*
X68972572Y-132171164D03*
X68972572Y-137221164D03*
X71512572Y-132171164D03*
X71512572Y-137221164D03*
%TD*%
D18*
%TO.C,D8*%
X81272572Y-113596164D03*
X79982408Y-112692782D03*
%TD*%
%TO.C,D8*%
X120781184Y-113596164D03*
X119491020Y-112692782D03*
%TD*%
%TO.C,D8*%
X160289796Y-190811574D03*
X158999632Y-189908192D03*
%TD*%
D16*
%TO.C,D2*%
X177753191Y-121288364D03*
X178443625Y-122703964D03*
%TD*%
D13*
%TO.C,J1*%
X224467020Y-93563459D03*
X224467020Y-98613459D03*
X227007020Y-93563459D03*
X227007020Y-98613459D03*
X229547020Y-93563459D03*
X229547020Y-98613459D03*
%TD*%
D20*
%TO.C,RN1*%
X61022572Y-208311574D03*
D21*
X61022572Y-207511574D03*
X61022572Y-206711574D03*
D20*
X61022572Y-205911574D03*
X62822572Y-205911574D03*
D21*
X62822572Y-206711574D03*
X62822572Y-207511574D03*
D20*
X62822572Y-208311574D03*
%TD*%
D18*
%TO.C,D8*%
X239307020Y-36380754D03*
X238016856Y-35477372D03*
%TD*%
D19*
%TO.C,D4*%
X98405002Y-73697431D03*
X97163886Y-74667097D03*
%TD*%
D16*
%TO.C,D2*%
X138244579Y-159896069D03*
X138935013Y-161311669D03*
%TD*%
%TO.C,D2*%
X177753191Y-159896069D03*
X178443625Y-161311669D03*
%TD*%
D14*
%TO.C,D6*%
X157089796Y-161603869D03*
X157780230Y-160188269D03*
%TD*%
D16*
%TO.C,D2*%
X59227355Y-44072954D03*
X59917789Y-45488554D03*
%TD*%
D15*
%TO.C,U1*%
X66547572Y-46005754D03*
X67197572Y-46005754D03*
X67847572Y-46005754D03*
X68497572Y-46005754D03*
X69147572Y-46005754D03*
X69797572Y-46005754D03*
X70447572Y-46005754D03*
X71097572Y-46005754D03*
X71747572Y-46005754D03*
X72397572Y-46005754D03*
X72397572Y-51730754D03*
X71747572Y-51730754D03*
X71097572Y-51730754D03*
X70447572Y-51730754D03*
X69797572Y-51730754D03*
X69147572Y-51730754D03*
X68497572Y-51730754D03*
X67847572Y-51730754D03*
X67197572Y-51730754D03*
X66547572Y-51730754D03*
%TD*%
D18*
%TO.C,D8*%
X160289796Y-36380754D03*
X158999632Y-35477372D03*
%TD*%
D15*
%TO.C,U1*%
X224582020Y-161828869D03*
X225232020Y-161828869D03*
X225882020Y-161828869D03*
X226532020Y-161828869D03*
X227182020Y-161828869D03*
X227832020Y-161828869D03*
X228482020Y-161828869D03*
X229132020Y-161828869D03*
X229782020Y-161828869D03*
X230432020Y-161828869D03*
X230432020Y-167553869D03*
X229782020Y-167553869D03*
X229132020Y-167553869D03*
X228482020Y-167553869D03*
X227832020Y-167553869D03*
X227182020Y-167553869D03*
X226532020Y-167553869D03*
X225882020Y-167553869D03*
X225232020Y-167553869D03*
X224582020Y-167553869D03*
%TD*%
%TO.C,U1*%
X106056184Y-46005754D03*
X106706184Y-46005754D03*
X107356184Y-46005754D03*
X108006184Y-46005754D03*
X108656184Y-46005754D03*
X109306184Y-46005754D03*
X109956184Y-46005754D03*
X110606184Y-46005754D03*
X111256184Y-46005754D03*
X111906184Y-46005754D03*
X111906184Y-51730754D03*
X111256184Y-51730754D03*
X110606184Y-51730754D03*
X109956184Y-51730754D03*
X109306184Y-51730754D03*
X108656184Y-51730754D03*
X108006184Y-51730754D03*
X107356184Y-51730754D03*
X106706184Y-51730754D03*
X106056184Y-51730754D03*
%TD*%
D13*
%TO.C,J1*%
X145449796Y-170778869D03*
X145449796Y-175828869D03*
X147989796Y-170778869D03*
X147989796Y-175828869D03*
X150529796Y-170778869D03*
X150529796Y-175828869D03*
%TD*%
%TO.C,J1*%
X184958408Y-132171164D03*
X184958408Y-137221164D03*
X187498408Y-132171164D03*
X187498408Y-137221164D03*
X190038408Y-132171164D03*
X190038408Y-137221164D03*
%TD*%
D14*
%TO.C,D6*%
X236107020Y-200211574D03*
X236797454Y-198795974D03*
%TD*%
D13*
%TO.C,J1*%
X184958408Y-93563459D03*
X184958408Y-98613459D03*
X187498408Y-93563459D03*
X187498408Y-98613459D03*
X190038408Y-93563459D03*
X190038408Y-98613459D03*
%TD*%
D20*
%TO.C,RN1*%
X140039796Y-131096164D03*
D21*
X140039796Y-130296164D03*
X140039796Y-129496164D03*
D20*
X140039796Y-128696164D03*
X141839796Y-128696164D03*
D21*
X141839796Y-129496164D03*
X141839796Y-130296164D03*
D20*
X141839796Y-131096164D03*
%TD*%
D14*
%TO.C,D6*%
X236107020Y-161603869D03*
X236797454Y-160188269D03*
%TD*%
D16*
%TO.C,D2*%
X59227355Y-198503774D03*
X59917789Y-199919374D03*
%TD*%
D13*
%TO.C,J1*%
X145449796Y-93563459D03*
X145449796Y-98613459D03*
X147989796Y-93563459D03*
X147989796Y-98613459D03*
X150529796Y-93563459D03*
X150529796Y-98613459D03*
%TD*%
%TO.C,J1*%
X105941184Y-93563459D03*
X105941184Y-98613459D03*
X108481184Y-93563459D03*
X108481184Y-98613459D03*
X111021184Y-93563459D03*
X111021184Y-98613459D03*
%TD*%
M02*
