%TF.GenerationSoftware,KiCad,Pcbnew,7.0.5*%
%TF.CreationDate,2023-07-19T22:03:03-05:00*%
%TF.ProjectId,GamePip-Mashup,47616d65-5069-4702-9d4d-61736875702e,rev?*%
%TF.SameCoordinates,Original*%
%TF.FileFunction,Copper,L2,Bot*%
%TF.FilePolarity,Positive*%
%FSLAX46Y46*%
G04 Gerber Fmt 4.6, Leading zero omitted, Abs format (unit mm)*
G04 Created by KiCad (PCBNEW 7.0.5) date 2023-07-19 22:03:03*
%MOMM*%
%LPD*%
G01*
G04 APERTURE LIST*
%TA.AperFunction,EtchedComponent*%
%ADD10C,0.010000*%
%TD*%
G04 APERTURE END LIST*
%TO.C,Ref\u002A\u002A*%
D10*
X160030667Y-131079500D02*
X156411167Y-131079500D01*
X156411167Y-129746000D01*
X159332167Y-129746000D01*
X159332167Y-125533833D01*
X156411167Y-125533833D01*
X156411167Y-123925166D01*
X160030667Y-123925166D01*
X160030667Y-131079500D01*
%TA.AperFunction,EtchedComponent*%
G36*
X160030667Y-131079500D02*
G01*
X156411167Y-131079500D01*
X156411167Y-129746000D01*
X159332167Y-129746000D01*
X159332167Y-125533833D01*
X156411167Y-125533833D01*
X156411167Y-123925166D01*
X160030667Y-123925166D01*
X160030667Y-131079500D01*
G37*
%TD.AperFunction*%
X156157167Y-131079500D02*
X152558834Y-131079500D01*
X152558834Y-129746000D01*
X155458667Y-129746000D01*
X155458667Y-124179166D01*
X156157167Y-124179166D01*
X156157167Y-131079500D01*
%TA.AperFunction,EtchedComponent*%
G36*
X156157167Y-131079500D02*
G01*
X152558834Y-131079500D01*
X152558834Y-129746000D01*
X155458667Y-129746000D01*
X155458667Y-124179166D01*
X156157167Y-124179166D01*
X156157167Y-131079500D01*
G37*
%TD.AperFunction*%
X149383834Y-129448860D02*
X149431459Y-129458408D01*
X149435895Y-129459010D01*
X149476866Y-129462290D01*
X149555322Y-129467379D01*
X149667575Y-129474071D01*
X149809939Y-129482164D01*
X149978725Y-129491454D01*
X150170245Y-129501736D01*
X150380812Y-129512808D01*
X150606738Y-129524464D01*
X150844334Y-129536502D01*
X150923889Y-129540505D01*
X151156270Y-129552292D01*
X151374739Y-129563514D01*
X151575751Y-129573980D01*
X151755758Y-129583500D01*
X151911216Y-129591883D01*
X152038576Y-129598939D01*
X152134294Y-129604477D01*
X152194822Y-129608306D01*
X152216616Y-129610236D01*
X152217089Y-129611598D01*
X152220563Y-129641744D01*
X152225985Y-129706738D01*
X152232973Y-129800521D01*
X152241140Y-129917040D01*
X152250101Y-130050237D01*
X152259473Y-130194057D01*
X152268871Y-130342444D01*
X152277909Y-130489342D01*
X152286203Y-130628695D01*
X152293369Y-130754448D01*
X152299021Y-130860543D01*
X152302775Y-130940927D01*
X152304245Y-130989541D01*
X152304834Y-131079500D01*
X148685334Y-131079500D01*
X148685334Y-123925166D01*
X149383834Y-123925166D01*
X149383834Y-129448860D01*
%TA.AperFunction,EtchedComponent*%
G36*
X149383834Y-129448860D02*
G01*
X149431459Y-129458408D01*
X149435895Y-129459010D01*
X149476866Y-129462290D01*
X149555322Y-129467379D01*
X149667575Y-129474071D01*
X149809939Y-129482164D01*
X149978725Y-129491454D01*
X150170245Y-129501736D01*
X150380812Y-129512808D01*
X150606738Y-129524464D01*
X150844334Y-129536502D01*
X150923889Y-129540505D01*
X151156270Y-129552292D01*
X151374739Y-129563514D01*
X151575751Y-129573980D01*
X151755758Y-129583500D01*
X151911216Y-129591883D01*
X152038576Y-129598939D01*
X152134294Y-129604477D01*
X152194822Y-129608306D01*
X152216616Y-129610236D01*
X152217089Y-129611598D01*
X152220563Y-129641744D01*
X152225985Y-129706738D01*
X152232973Y-129800521D01*
X152241140Y-129917040D01*
X152250101Y-130050237D01*
X152259473Y-130194057D01*
X152268871Y-130342444D01*
X152277909Y-130489342D01*
X152286203Y-130628695D01*
X152293369Y-130754448D01*
X152299021Y-130860543D01*
X152302775Y-130940927D01*
X152304245Y-130989541D01*
X152304834Y-131079500D01*
X148685334Y-131079500D01*
X148685334Y-123925166D01*
X149383834Y-123925166D01*
X149383834Y-129448860D01*
G37*
%TD.AperFunction*%
X148431334Y-125533833D02*
X145531500Y-125533833D01*
X145531500Y-131079500D01*
X144811834Y-131079500D01*
X144811834Y-124179166D01*
X148431334Y-124179166D01*
X148431334Y-125533833D01*
%TA.AperFunction,EtchedComponent*%
G36*
X148431334Y-125533833D02*
G01*
X145531500Y-125533833D01*
X145531500Y-131079500D01*
X144811834Y-131079500D01*
X144811834Y-124179166D01*
X148431334Y-124179166D01*
X148431334Y-125533833D01*
G37*
%TD.AperFunction*%
X144557834Y-131079500D02*
X140938334Y-131079500D01*
X140938334Y-124179166D01*
X141658000Y-124179166D01*
X141658000Y-129746000D01*
X143838167Y-129746000D01*
X143838167Y-123925166D01*
X144557834Y-123925166D01*
X144557834Y-131079500D01*
%TA.AperFunction,EtchedComponent*%
G36*
X144557834Y-131079500D02*
G01*
X140938334Y-131079500D01*
X140938334Y-124179166D01*
X141658000Y-124179166D01*
X141658000Y-129746000D01*
X143838167Y-129746000D01*
X143838167Y-123925166D01*
X144557834Y-123925166D01*
X144557834Y-131079500D01*
G37*
%TD.AperFunction*%
X137784500Y-129448860D02*
X137832125Y-129458653D01*
X137835833Y-129459185D01*
X137875397Y-129462443D01*
X137952561Y-129467511D01*
X138063621Y-129474184D01*
X138204875Y-129482256D01*
X138372618Y-129491522D01*
X138563148Y-129501777D01*
X138772760Y-129512815D01*
X138997751Y-129524431D01*
X139234417Y-129536420D01*
X139303850Y-129539920D01*
X139536072Y-129551856D01*
X139754677Y-129563441D01*
X139956081Y-129574464D01*
X140136701Y-129584714D01*
X140292954Y-129593981D01*
X140421257Y-129602053D01*
X140518025Y-129608719D01*
X140579675Y-129613768D01*
X140602625Y-129616989D01*
X140603361Y-129618413D01*
X140608384Y-129649518D01*
X140615116Y-129716403D01*
X140623132Y-129813623D01*
X140632007Y-129935732D01*
X140641318Y-130077284D01*
X140650640Y-130232833D01*
X140651266Y-130243786D01*
X140660745Y-130405961D01*
X140670093Y-130559957D01*
X140678870Y-130698957D01*
X140686638Y-130816141D01*
X140692956Y-130904691D01*
X140697385Y-130957791D01*
X140709657Y-131079500D01*
X137064834Y-131079500D01*
X137064834Y-123925166D01*
X137784500Y-123925166D01*
X137784500Y-129448860D01*
%TA.AperFunction,EtchedComponent*%
G36*
X137784500Y-129448860D02*
G01*
X137832125Y-129458653D01*
X137835833Y-129459185D01*
X137875397Y-129462443D01*
X137952561Y-129467511D01*
X138063621Y-129474184D01*
X138204875Y-129482256D01*
X138372618Y-129491522D01*
X138563148Y-129501777D01*
X138772760Y-129512815D01*
X138997751Y-129524431D01*
X139234417Y-129536420D01*
X139303850Y-129539920D01*
X139536072Y-129551856D01*
X139754677Y-129563441D01*
X139956081Y-129574464D01*
X140136701Y-129584714D01*
X140292954Y-129593981D01*
X140421257Y-129602053D01*
X140518025Y-129608719D01*
X140579675Y-129613768D01*
X140602625Y-129616989D01*
X140603361Y-129618413D01*
X140608384Y-129649518D01*
X140615116Y-129716403D01*
X140623132Y-129813623D01*
X140632007Y-129935732D01*
X140641318Y-130077284D01*
X140650640Y-130232833D01*
X140651266Y-130243786D01*
X140660745Y-130405961D01*
X140670093Y-130559957D01*
X140678870Y-130698957D01*
X140686638Y-130816141D01*
X140692956Y-130904691D01*
X140697385Y-130957791D01*
X140709657Y-131079500D01*
X137064834Y-131079500D01*
X137064834Y-123925166D01*
X137784500Y-123925166D01*
X137784500Y-129448860D01*
G37*
%TD.AperFunction*%
X133225299Y-123904383D02*
X133270347Y-123906151D01*
X133352880Y-123909522D01*
X133469709Y-123914361D01*
X133617645Y-123920535D01*
X133793498Y-123927910D01*
X133994080Y-123936353D01*
X134216202Y-123945728D01*
X134456675Y-123955903D01*
X134712310Y-123966743D01*
X134979917Y-123978115D01*
X135118715Y-123984017D01*
X135380219Y-123995126D01*
X135627940Y-124005634D01*
X135858709Y-124015408D01*
X136069360Y-124024315D01*
X136256723Y-124032221D01*
X136417632Y-124038992D01*
X136548917Y-124044494D01*
X136647411Y-124048595D01*
X136709946Y-124051160D01*
X136733354Y-124052057D01*
X136737027Y-124064533D01*
X136740829Y-124113867D01*
X136743515Y-124195380D01*
X136744972Y-124303377D01*
X136745086Y-124432163D01*
X136743745Y-124576041D01*
X136742838Y-124637998D01*
X136740084Y-124791250D01*
X136736803Y-124909766D01*
X136732560Y-124999191D01*
X136726920Y-125065176D01*
X136719448Y-125113366D01*
X136709707Y-125149411D01*
X136697263Y-125178958D01*
X136684161Y-125203813D01*
X136659754Y-125241075D01*
X136629494Y-125273966D01*
X136590579Y-125302955D01*
X136540204Y-125328513D01*
X136475566Y-125351110D01*
X136393861Y-125371215D01*
X136292287Y-125389299D01*
X136168039Y-125405831D01*
X136018314Y-125421281D01*
X135840309Y-125436120D01*
X135631221Y-125450816D01*
X135388245Y-125465841D01*
X135108578Y-125481664D01*
X134789417Y-125498754D01*
X133921584Y-125544416D01*
X133916189Y-127645208D01*
X133910795Y-129746000D01*
X136810834Y-129746000D01*
X136810834Y-131079500D01*
X133191334Y-131079500D01*
X133191334Y-127491750D01*
X133191341Y-127320074D01*
X133191437Y-126861760D01*
X133191657Y-126443614D01*
X133192012Y-126064039D01*
X133192514Y-125721434D01*
X133193176Y-125414200D01*
X133194007Y-125140737D01*
X133195021Y-124899447D01*
X133196230Y-124688729D01*
X133197644Y-124506985D01*
X133199277Y-124352614D01*
X133201138Y-124224019D01*
X133203242Y-124119598D01*
X133205598Y-124037753D01*
X133208220Y-123976884D01*
X133211118Y-123935392D01*
X133214305Y-123911678D01*
X133217792Y-123904141D01*
X133225299Y-123904383D01*
%TA.AperFunction,EtchedComponent*%
G36*
X133225299Y-123904383D02*
G01*
X133270347Y-123906151D01*
X133352880Y-123909522D01*
X133469709Y-123914361D01*
X133617645Y-123920535D01*
X133793498Y-123927910D01*
X133994080Y-123936353D01*
X134216202Y-123945728D01*
X134456675Y-123955903D01*
X134712310Y-123966743D01*
X134979917Y-123978115D01*
X135118715Y-123984017D01*
X135380219Y-123995126D01*
X135627940Y-124005634D01*
X135858709Y-124015408D01*
X136069360Y-124024315D01*
X136256723Y-124032221D01*
X136417632Y-124038992D01*
X136548917Y-124044494D01*
X136647411Y-124048595D01*
X136709946Y-124051160D01*
X136733354Y-124052057D01*
X136737027Y-124064533D01*
X136740829Y-124113867D01*
X136743515Y-124195380D01*
X136744972Y-124303377D01*
X136745086Y-124432163D01*
X136743745Y-124576041D01*
X136742838Y-124637998D01*
X136740084Y-124791250D01*
X136736803Y-124909766D01*
X136732560Y-124999191D01*
X136726920Y-125065176D01*
X136719448Y-125113366D01*
X136709707Y-125149411D01*
X136697263Y-125178958D01*
X136684161Y-125203813D01*
X136659754Y-125241075D01*
X136629494Y-125273966D01*
X136590579Y-125302955D01*
X136540204Y-125328513D01*
X136475566Y-125351110D01*
X136393861Y-125371215D01*
X136292287Y-125389299D01*
X136168039Y-125405831D01*
X136018314Y-125421281D01*
X135840309Y-125436120D01*
X135631221Y-125450816D01*
X135388245Y-125465841D01*
X135108578Y-125481664D01*
X134789417Y-125498754D01*
X133921584Y-125544416D01*
X133916189Y-127645208D01*
X133910795Y-129746000D01*
X136810834Y-129746000D01*
X136810834Y-131079500D01*
X133191334Y-131079500D01*
X133191334Y-127491750D01*
X133191341Y-127320074D01*
X133191437Y-126861760D01*
X133191657Y-126443614D01*
X133192012Y-126064039D01*
X133192514Y-125721434D01*
X133193176Y-125414200D01*
X133194007Y-125140737D01*
X133195021Y-124899447D01*
X133196230Y-124688729D01*
X133197644Y-124506985D01*
X133199277Y-124352614D01*
X133201138Y-124224019D01*
X133203242Y-124119598D01*
X133205598Y-124037753D01*
X133208220Y-123976884D01*
X133211118Y-123935392D01*
X133214305Y-123911678D01*
X133217792Y-123904141D01*
X133225299Y-123904383D01*
G37*
%TD.AperFunction*%
X132937334Y-125533833D02*
X130037500Y-125533833D01*
X130037500Y-131079500D01*
X129339000Y-131079500D01*
X129339000Y-124179166D01*
X132937334Y-124179166D01*
X132937334Y-125533833D01*
%TA.AperFunction,EtchedComponent*%
G36*
X132937334Y-125533833D02*
G01*
X130037500Y-125533833D01*
X130037500Y-131079500D01*
X129339000Y-131079500D01*
X129339000Y-124179166D01*
X132937334Y-124179166D01*
X132937334Y-125533833D01*
G37*
%TD.AperFunction*%
X129063834Y-131079500D02*
X125465500Y-131079500D01*
X125465500Y-129746000D01*
X126164000Y-129746000D01*
X128365334Y-129746000D01*
X128365334Y-125533833D01*
X126164000Y-125533833D01*
X126164000Y-129746000D01*
X125465500Y-129746000D01*
X125465500Y-124179166D01*
X129063834Y-124179166D01*
X129063834Y-125533833D01*
X129063834Y-131079500D01*
%TA.AperFunction,EtchedComponent*%
G36*
X129063834Y-131079500D02*
G01*
X125465500Y-131079500D01*
X125465500Y-129746000D01*
X126164000Y-129746000D01*
X128365334Y-129746000D01*
X128365334Y-125533833D01*
X126164000Y-125533833D01*
X126164000Y-129746000D01*
X125465500Y-129746000D01*
X125465500Y-124179166D01*
X129063834Y-124179166D01*
X129063834Y-125533833D01*
X129063834Y-131079500D01*
G37*
%TD.AperFunction*%
X125211500Y-131079500D02*
X121592000Y-131079500D01*
X121592000Y-129746000D01*
X124491834Y-129746000D01*
X124491834Y-124179166D01*
X125211500Y-124179166D01*
X125211500Y-131079500D01*
%TA.AperFunction,EtchedComponent*%
G36*
X125211500Y-131079500D02*
G01*
X121592000Y-131079500D01*
X121592000Y-129746000D01*
X124491834Y-129746000D01*
X124491834Y-124179166D01*
X125211500Y-124179166D01*
X125211500Y-131079500D01*
G37*
%TD.AperFunction*%
X121338000Y-131079500D02*
X120618334Y-131079500D01*
X120618334Y-125533833D01*
X117718500Y-125533833D01*
X117718500Y-124179166D01*
X121338000Y-124179166D01*
X121338000Y-131079500D01*
%TA.AperFunction,EtchedComponent*%
G36*
X121338000Y-131079500D02*
G01*
X120618334Y-131079500D01*
X120618334Y-125533833D01*
X117718500Y-125533833D01*
X117718500Y-124179166D01*
X121338000Y-124179166D01*
X121338000Y-131079500D01*
G37*
%TD.AperFunction*%
X115691792Y-123909172D02*
X117496250Y-123914583D01*
X117501603Y-127497041D01*
X117506956Y-131079500D01*
X113887334Y-131079500D01*
X113887334Y-129724833D01*
X116787167Y-129724833D01*
X116787167Y-125512666D01*
X113887334Y-125512666D01*
X113887334Y-123903762D01*
X115691792Y-123909172D01*
%TA.AperFunction,EtchedComponent*%
G36*
X115691792Y-123909172D02*
G01*
X117496250Y-123914583D01*
X117501603Y-127497041D01*
X117506956Y-131079500D01*
X113887334Y-131079500D01*
X113887334Y-129724833D01*
X116787167Y-129724833D01*
X116787167Y-125512666D01*
X113887334Y-125512666D01*
X113887334Y-123903762D01*
X115691792Y-123909172D01*
G37*
%TD.AperFunction*%
X113633334Y-131079500D02*
X110013834Y-131079500D01*
X110013834Y-129724833D01*
X110733500Y-129724833D01*
X112913667Y-129724833D01*
X112913667Y-125512666D01*
X110733500Y-125512666D01*
X110733500Y-129724833D01*
X110013834Y-129724833D01*
X110013834Y-124179166D01*
X113633334Y-124179166D01*
X113633334Y-125512666D01*
X113633334Y-131079500D01*
%TA.AperFunction,EtchedComponent*%
G36*
X113633334Y-131079500D02*
G01*
X110013834Y-131079500D01*
X110013834Y-129724833D01*
X110733500Y-129724833D01*
X112913667Y-129724833D01*
X112913667Y-125512666D01*
X110733500Y-125512666D01*
X110733500Y-129724833D01*
X110013834Y-129724833D01*
X110013834Y-124179166D01*
X113633334Y-124179166D01*
X113633334Y-125512666D01*
X113633334Y-131079500D01*
G37*
%TD.AperFunction*%
X154554190Y-127108482D02*
X154660080Y-127143409D01*
X154746671Y-127212366D01*
X154818944Y-127318982D01*
X154839263Y-127359514D01*
X154858986Y-127410595D01*
X154870236Y-127465893D01*
X154875287Y-127538101D01*
X154876414Y-127639916D01*
X154876335Y-127665115D01*
X154873709Y-127765543D01*
X154865828Y-127839810D01*
X154850615Y-127901250D01*
X154825988Y-127963196D01*
X154803488Y-128007260D01*
X154757879Y-128077392D01*
X154713393Y-128127238D01*
X154655547Y-128163935D01*
X154564714Y-128183338D01*
X154470961Y-128163296D01*
X154380465Y-128104237D01*
X154321121Y-128041720D01*
X154273097Y-127963643D01*
X154242114Y-127869123D01*
X154225558Y-127749867D01*
X154220816Y-127597583D01*
X154226737Y-127451790D01*
X154249022Y-127313688D01*
X154288900Y-127211694D01*
X154347459Y-127144044D01*
X154425787Y-127108975D01*
X154524974Y-127104723D01*
X154554190Y-127108482D01*
%TA.AperFunction,EtchedComponent*%
G36*
X154554190Y-127108482D02*
G01*
X154660080Y-127143409D01*
X154746671Y-127212366D01*
X154818944Y-127318982D01*
X154839263Y-127359514D01*
X154858986Y-127410595D01*
X154870236Y-127465893D01*
X154875287Y-127538101D01*
X154876414Y-127639916D01*
X154876335Y-127665115D01*
X154873709Y-127765543D01*
X154865828Y-127839810D01*
X154850615Y-127901250D01*
X154825988Y-127963196D01*
X154803488Y-128007260D01*
X154757879Y-128077392D01*
X154713393Y-128127238D01*
X154655547Y-128163935D01*
X154564714Y-128183338D01*
X154470961Y-128163296D01*
X154380465Y-128104237D01*
X154321121Y-128041720D01*
X154273097Y-127963643D01*
X154242114Y-127869123D01*
X154225558Y-127749867D01*
X154220816Y-127597583D01*
X154226737Y-127451790D01*
X154249022Y-127313688D01*
X154288900Y-127211694D01*
X154347459Y-127144044D01*
X154425787Y-127108975D01*
X154524974Y-127104723D01*
X154554190Y-127108482D01*
G37*
%TD.AperFunction*%
X123609116Y-127107690D02*
X123704753Y-127145320D01*
X123787008Y-127209544D01*
X123810938Y-127237895D01*
X123873309Y-127348560D01*
X123911979Y-127479886D01*
X123927235Y-127622399D01*
X123919361Y-127766628D01*
X123888642Y-127903101D01*
X123835361Y-128022346D01*
X123759804Y-128114889D01*
X123749135Y-128123851D01*
X123660547Y-128171694D01*
X123568049Y-128180635D01*
X123477849Y-128152449D01*
X123396159Y-128088911D01*
X123329189Y-127991795D01*
X123311695Y-127953478D01*
X123275050Y-127833563D01*
X123255097Y-127700063D01*
X123251245Y-127561950D01*
X123262905Y-127428193D01*
X123289486Y-127307763D01*
X123330398Y-127209631D01*
X123385050Y-127142768D01*
X123422914Y-127119724D01*
X123511401Y-127098532D01*
X123609116Y-127107690D01*
%TA.AperFunction,EtchedComponent*%
G36*
X123609116Y-127107690D02*
G01*
X123704753Y-127145320D01*
X123787008Y-127209544D01*
X123810938Y-127237895D01*
X123873309Y-127348560D01*
X123911979Y-127479886D01*
X123927235Y-127622399D01*
X123919361Y-127766628D01*
X123888642Y-127903101D01*
X123835361Y-128022346D01*
X123759804Y-128114889D01*
X123749135Y-128123851D01*
X123660547Y-128171694D01*
X123568049Y-128180635D01*
X123477849Y-128152449D01*
X123396159Y-128088911D01*
X123329189Y-127991795D01*
X123311695Y-127953478D01*
X123275050Y-127833563D01*
X123255097Y-127700063D01*
X123251245Y-127561950D01*
X123262905Y-127428193D01*
X123289486Y-127307763D01*
X123330398Y-127209631D01*
X123385050Y-127142768D01*
X123422914Y-127119724D01*
X123511401Y-127098532D01*
X123609116Y-127107690D01*
G37*
%TD.AperFunction*%
%TD*%
M02*
