%TF.GenerationSoftware,KiCad,Pcbnew,(6.0.11)*%
%TF.CreationDate,2023-04-07T19:54:21-05:00*%
%TF.ProjectId,GamePip,47616d65-5069-4702-9e6b-696361645f70,rev?*%
%TF.SameCoordinates,Original*%
%TF.FileFunction,Copper,L1,Top*%
%TF.FilePolarity,Positive*%
%FSLAX46Y46*%
G04 Gerber Fmt 4.6, Leading zero omitted, Abs format (unit mm)*
G04 Created by KiCad (PCBNEW (6.0.11)) date 2023-04-07 19:54:21*
%MOMM*%
%LPD*%
G01*
G04 APERTURE LIST*
%TA.AperFunction,EtchedComponent*%
%ADD10C,0.010000*%
%TD*%
G04 APERTURE END LIST*
%TO.C,G\u002A\u002A\u002A*%
G36*
X130349675Y-118050766D02*
G01*
X130609686Y-118051386D01*
X130862653Y-118052331D01*
X131104560Y-118053566D01*
X131331392Y-118055053D01*
X131539136Y-118056758D01*
X131723777Y-118058644D01*
X131881300Y-118060676D01*
X132007692Y-118062818D01*
X132098937Y-118065033D01*
X132143542Y-118066812D01*
X132381667Y-118080213D01*
X132381667Y-118476167D01*
X131496617Y-118476167D01*
X131484932Y-118671958D01*
X131483794Y-118708230D01*
X131482231Y-118785212D01*
X131480261Y-118901282D01*
X131477905Y-119054819D01*
X131475182Y-119244202D01*
X131472112Y-119467809D01*
X131468714Y-119724020D01*
X131465009Y-120011213D01*
X131461016Y-120327766D01*
X131456755Y-120672058D01*
X131452246Y-121042469D01*
X131447508Y-121437376D01*
X131442560Y-121855159D01*
X131437424Y-122294196D01*
X131432118Y-122752866D01*
X131426663Y-123229548D01*
X131421077Y-123722619D01*
X131415382Y-124230460D01*
X131409595Y-124751448D01*
X131403738Y-125283963D01*
X131397830Y-125826383D01*
X131397774Y-125831583D01*
X131391855Y-126375293D01*
X131385983Y-126909685D01*
X131380181Y-127433108D01*
X131374466Y-127943908D01*
X131368860Y-128440434D01*
X131363383Y-128921031D01*
X131358053Y-129384048D01*
X131352891Y-129827830D01*
X131347918Y-130250727D01*
X131343152Y-130651084D01*
X131338614Y-131027250D01*
X131334324Y-131377570D01*
X131330302Y-131700393D01*
X131326567Y-131994066D01*
X131323140Y-132256936D01*
X131320041Y-132487349D01*
X131317289Y-132683654D01*
X131314904Y-132844198D01*
X131312907Y-132967327D01*
X131311317Y-133051389D01*
X131310178Y-133094151D01*
X131298055Y-133392886D01*
X130797402Y-133406703D01*
X130632346Y-133411468D01*
X130459693Y-133416819D01*
X130291187Y-133422367D01*
X130138572Y-133427722D01*
X130013595Y-133432494D01*
X129988026Y-133433552D01*
X129679301Y-133446584D01*
X129666157Y-132475417D01*
X129664892Y-132374188D01*
X129663287Y-132232594D01*
X129661359Y-132052601D01*
X129659128Y-131836176D01*
X129656610Y-131585285D01*
X129653825Y-131301895D01*
X129650791Y-130987972D01*
X129647526Y-130645483D01*
X129644048Y-130276394D01*
X129640375Y-129882671D01*
X129636526Y-129466282D01*
X129632519Y-129029193D01*
X129628373Y-128573370D01*
X129624105Y-128100780D01*
X129619734Y-127613389D01*
X129615277Y-127113163D01*
X129610755Y-126602070D01*
X129606183Y-126082076D01*
X129601582Y-125555147D01*
X129597278Y-125059000D01*
X129592756Y-124538933D01*
X129588278Y-124029639D01*
X129583860Y-123532757D01*
X129579520Y-123049925D01*
X129575272Y-122582781D01*
X129571133Y-122132964D01*
X129567119Y-121702113D01*
X129563246Y-121291867D01*
X129559530Y-120903863D01*
X129555987Y-120539741D01*
X129552634Y-120201139D01*
X129549487Y-119889695D01*
X129546561Y-119607049D01*
X129543873Y-119354838D01*
X129541439Y-119134701D01*
X129539275Y-118948278D01*
X129537397Y-118797205D01*
X129535821Y-118683123D01*
X129534564Y-118607669D01*
X129533641Y-118572482D01*
X129533457Y-118570132D01*
X129527139Y-118554516D01*
X129510910Y-118540911D01*
X129479342Y-118527827D01*
X129427006Y-118513775D01*
X129348473Y-118497267D01*
X129238315Y-118476814D01*
X129112019Y-118454564D01*
X128985802Y-118432046D01*
X128875152Y-118411253D01*
X128786346Y-118393455D01*
X128725663Y-118379917D01*
X128699381Y-118371906D01*
X128698786Y-118371183D01*
X128704603Y-118346855D01*
X128719892Y-118292818D01*
X128741599Y-118219800D01*
X128746419Y-118203936D01*
X128793933Y-118048121D01*
X130349675Y-118050766D01*
G37*
D10*
X130349675Y-118050766D02*
X130609686Y-118051386D01*
X130862653Y-118052331D01*
X131104560Y-118053566D01*
X131331392Y-118055053D01*
X131539136Y-118056758D01*
X131723777Y-118058644D01*
X131881300Y-118060676D01*
X132007692Y-118062818D01*
X132098937Y-118065033D01*
X132143542Y-118066812D01*
X132381667Y-118080213D01*
X132381667Y-118476167D01*
X131496617Y-118476167D01*
X131484932Y-118671958D01*
X131483794Y-118708230D01*
X131482231Y-118785212D01*
X131480261Y-118901282D01*
X131477905Y-119054819D01*
X131475182Y-119244202D01*
X131472112Y-119467809D01*
X131468714Y-119724020D01*
X131465009Y-120011213D01*
X131461016Y-120327766D01*
X131456755Y-120672058D01*
X131452246Y-121042469D01*
X131447508Y-121437376D01*
X131442560Y-121855159D01*
X131437424Y-122294196D01*
X131432118Y-122752866D01*
X131426663Y-123229548D01*
X131421077Y-123722619D01*
X131415382Y-124230460D01*
X131409595Y-124751448D01*
X131403738Y-125283963D01*
X131397830Y-125826383D01*
X131397774Y-125831583D01*
X131391855Y-126375293D01*
X131385983Y-126909685D01*
X131380181Y-127433108D01*
X131374466Y-127943908D01*
X131368860Y-128440434D01*
X131363383Y-128921031D01*
X131358053Y-129384048D01*
X131352891Y-129827830D01*
X131347918Y-130250727D01*
X131343152Y-130651084D01*
X131338614Y-131027250D01*
X131334324Y-131377570D01*
X131330302Y-131700393D01*
X131326567Y-131994066D01*
X131323140Y-132256936D01*
X131320041Y-132487349D01*
X131317289Y-132683654D01*
X131314904Y-132844198D01*
X131312907Y-132967327D01*
X131311317Y-133051389D01*
X131310178Y-133094151D01*
X131298055Y-133392886D01*
X130797402Y-133406703D01*
X130632346Y-133411468D01*
X130459693Y-133416819D01*
X130291187Y-133422367D01*
X130138572Y-133427722D01*
X130013595Y-133432494D01*
X129988026Y-133433552D01*
X129679301Y-133446584D01*
X129666157Y-132475417D01*
X129664892Y-132374188D01*
X129663287Y-132232594D01*
X129661359Y-132052601D01*
X129659128Y-131836176D01*
X129656610Y-131585285D01*
X129653825Y-131301895D01*
X129650791Y-130987972D01*
X129647526Y-130645483D01*
X129644048Y-130276394D01*
X129640375Y-129882671D01*
X129636526Y-129466282D01*
X129632519Y-129029193D01*
X129628373Y-128573370D01*
X129624105Y-128100780D01*
X129619734Y-127613389D01*
X129615277Y-127113163D01*
X129610755Y-126602070D01*
X129606183Y-126082076D01*
X129601582Y-125555147D01*
X129597278Y-125059000D01*
X129592756Y-124538933D01*
X129588278Y-124029639D01*
X129583860Y-123532757D01*
X129579520Y-123049925D01*
X129575272Y-122582781D01*
X129571133Y-122132964D01*
X129567119Y-121702113D01*
X129563246Y-121291867D01*
X129559530Y-120903863D01*
X129555987Y-120539741D01*
X129552634Y-120201139D01*
X129549487Y-119889695D01*
X129546561Y-119607049D01*
X129543873Y-119354838D01*
X129541439Y-119134701D01*
X129539275Y-118948278D01*
X129537397Y-118797205D01*
X129535821Y-118683123D01*
X129534564Y-118607669D01*
X129533641Y-118572482D01*
X129533457Y-118570132D01*
X129527139Y-118554516D01*
X129510910Y-118540911D01*
X129479342Y-118527827D01*
X129427006Y-118513775D01*
X129348473Y-118497267D01*
X129238315Y-118476814D01*
X129112019Y-118454564D01*
X128985802Y-118432046D01*
X128875152Y-118411253D01*
X128786346Y-118393455D01*
X128725663Y-118379917D01*
X128699381Y-118371906D01*
X128698786Y-118371183D01*
X128704603Y-118346855D01*
X128719892Y-118292818D01*
X128741599Y-118219800D01*
X128746419Y-118203936D01*
X128793933Y-118048121D01*
X130349675Y-118050766D01*
G36*
X116866508Y-118050766D02*
G01*
X117126520Y-118051386D01*
X117379486Y-118052331D01*
X117621393Y-118053566D01*
X117848226Y-118055053D01*
X118055970Y-118056758D01*
X118240610Y-118058644D01*
X118398134Y-118060676D01*
X118524525Y-118062818D01*
X118615770Y-118065033D01*
X118660375Y-118066812D01*
X118898500Y-118080213D01*
X118898500Y-118476167D01*
X118013451Y-118476167D01*
X118001762Y-118671958D01*
X118000624Y-118708230D01*
X117999060Y-118785212D01*
X117997090Y-118901282D01*
X117994733Y-119054819D01*
X117992009Y-119244202D01*
X117988938Y-119467809D01*
X117985539Y-119724020D01*
X117981833Y-120011213D01*
X117977839Y-120327766D01*
X117973576Y-120672058D01*
X117969065Y-121042469D01*
X117964325Y-121437376D01*
X117959377Y-121855159D01*
X117954239Y-122294196D01*
X117948931Y-122752866D01*
X117943474Y-123229547D01*
X117937886Y-123722619D01*
X117932189Y-124230460D01*
X117926401Y-124751448D01*
X117920542Y-125283963D01*
X117914631Y-125826383D01*
X117914575Y-125831583D01*
X117908654Y-126375292D01*
X117902781Y-126909685D01*
X117896977Y-127433108D01*
X117891261Y-127943908D01*
X117885654Y-128440434D01*
X117880175Y-128921031D01*
X117874845Y-129384047D01*
X117869683Y-129827830D01*
X117864709Y-130250727D01*
X117859943Y-130651084D01*
X117855405Y-131027250D01*
X117851116Y-131377570D01*
X117847094Y-131700393D01*
X117843360Y-131994066D01*
X117839934Y-132256936D01*
X117836836Y-132487349D01*
X117834085Y-132683654D01*
X117831702Y-132844198D01*
X117829707Y-132967327D01*
X117828119Y-133051389D01*
X117826982Y-133094151D01*
X117814888Y-133392886D01*
X117314236Y-133406703D01*
X117149178Y-133411468D01*
X116976522Y-133416819D01*
X116808013Y-133422368D01*
X116655394Y-133427723D01*
X116530412Y-133432495D01*
X116504844Y-133433552D01*
X116196105Y-133446585D01*
X116182869Y-132475417D01*
X116181598Y-132374189D01*
X116179986Y-132232595D01*
X116178054Y-132052602D01*
X116175817Y-131836176D01*
X116173296Y-131585285D01*
X116170508Y-131301895D01*
X116167472Y-130987972D01*
X116164206Y-130645483D01*
X116160727Y-130276394D01*
X116157055Y-129882671D01*
X116153207Y-129466282D01*
X116149202Y-129029193D01*
X116145059Y-128573370D01*
X116140794Y-128100779D01*
X116136428Y-127613388D01*
X116131977Y-127113163D01*
X116127460Y-126602070D01*
X116122895Y-126082075D01*
X116118302Y-125555146D01*
X116114005Y-125059000D01*
X116109492Y-124538933D01*
X116105022Y-124029639D01*
X116100613Y-123532757D01*
X116096280Y-123049924D01*
X116092040Y-122582781D01*
X116087908Y-122132964D01*
X116083901Y-121702113D01*
X116080035Y-121291867D01*
X116076325Y-120903863D01*
X116072789Y-120539741D01*
X116069441Y-120201139D01*
X116066299Y-119889695D01*
X116063378Y-119607048D01*
X116060694Y-119354838D01*
X116058263Y-119134701D01*
X116056102Y-118948277D01*
X116054227Y-118797205D01*
X116052653Y-118683123D01*
X116051396Y-118607669D01*
X116050474Y-118572482D01*
X116050291Y-118570132D01*
X116043972Y-118554516D01*
X116027743Y-118540911D01*
X115996175Y-118527827D01*
X115943839Y-118513775D01*
X115865307Y-118497267D01*
X115755148Y-118476814D01*
X115628852Y-118454564D01*
X115502635Y-118432046D01*
X115391985Y-118411253D01*
X115303179Y-118393455D01*
X115242497Y-118379917D01*
X115216215Y-118371906D01*
X115215619Y-118371183D01*
X115221436Y-118346855D01*
X115236725Y-118292818D01*
X115258432Y-118219800D01*
X115263253Y-118203936D01*
X115310766Y-118048121D01*
X116866508Y-118050766D01*
G37*
X116866508Y-118050766D02*
X117126520Y-118051386D01*
X117379486Y-118052331D01*
X117621393Y-118053566D01*
X117848226Y-118055053D01*
X118055970Y-118056758D01*
X118240610Y-118058644D01*
X118398134Y-118060676D01*
X118524525Y-118062818D01*
X118615770Y-118065033D01*
X118660375Y-118066812D01*
X118898500Y-118080213D01*
X118898500Y-118476167D01*
X118013451Y-118476167D01*
X118001762Y-118671958D01*
X118000624Y-118708230D01*
X117999060Y-118785212D01*
X117997090Y-118901282D01*
X117994733Y-119054819D01*
X117992009Y-119244202D01*
X117988938Y-119467809D01*
X117985539Y-119724020D01*
X117981833Y-120011213D01*
X117977839Y-120327766D01*
X117973576Y-120672058D01*
X117969065Y-121042469D01*
X117964325Y-121437376D01*
X117959377Y-121855159D01*
X117954239Y-122294196D01*
X117948931Y-122752866D01*
X117943474Y-123229547D01*
X117937886Y-123722619D01*
X117932189Y-124230460D01*
X117926401Y-124751448D01*
X117920542Y-125283963D01*
X117914631Y-125826383D01*
X117914575Y-125831583D01*
X117908654Y-126375292D01*
X117902781Y-126909685D01*
X117896977Y-127433108D01*
X117891261Y-127943908D01*
X117885654Y-128440434D01*
X117880175Y-128921031D01*
X117874845Y-129384047D01*
X117869683Y-129827830D01*
X117864709Y-130250727D01*
X117859943Y-130651084D01*
X117855405Y-131027250D01*
X117851116Y-131377570D01*
X117847094Y-131700393D01*
X117843360Y-131994066D01*
X117839934Y-132256936D01*
X117836836Y-132487349D01*
X117834085Y-132683654D01*
X117831702Y-132844198D01*
X117829707Y-132967327D01*
X117828119Y-133051389D01*
X117826982Y-133094151D01*
X117814888Y-133392886D01*
X117314236Y-133406703D01*
X117149178Y-133411468D01*
X116976522Y-133416819D01*
X116808013Y-133422368D01*
X116655394Y-133427723D01*
X116530412Y-133432495D01*
X116504844Y-133433552D01*
X116196105Y-133446585D01*
X116182869Y-132475417D01*
X116181598Y-132374189D01*
X116179986Y-132232595D01*
X116178054Y-132052602D01*
X116175817Y-131836176D01*
X116173296Y-131585285D01*
X116170508Y-131301895D01*
X116167472Y-130987972D01*
X116164206Y-130645483D01*
X116160727Y-130276394D01*
X116157055Y-129882671D01*
X116153207Y-129466282D01*
X116149202Y-129029193D01*
X116145059Y-128573370D01*
X116140794Y-128100779D01*
X116136428Y-127613388D01*
X116131977Y-127113163D01*
X116127460Y-126602070D01*
X116122895Y-126082075D01*
X116118302Y-125555146D01*
X116114005Y-125059000D01*
X116109492Y-124538933D01*
X116105022Y-124029639D01*
X116100613Y-123532757D01*
X116096280Y-123049924D01*
X116092040Y-122582781D01*
X116087908Y-122132964D01*
X116083901Y-121702113D01*
X116080035Y-121291867D01*
X116076325Y-120903863D01*
X116072789Y-120539741D01*
X116069441Y-120201139D01*
X116066299Y-119889695D01*
X116063378Y-119607048D01*
X116060694Y-119354838D01*
X116058263Y-119134701D01*
X116056102Y-118948277D01*
X116054227Y-118797205D01*
X116052653Y-118683123D01*
X116051396Y-118607669D01*
X116050474Y-118572482D01*
X116050291Y-118570132D01*
X116043972Y-118554516D01*
X116027743Y-118540911D01*
X115996175Y-118527827D01*
X115943839Y-118513775D01*
X115865307Y-118497267D01*
X115755148Y-118476814D01*
X115628852Y-118454564D01*
X115502635Y-118432046D01*
X115391985Y-118411253D01*
X115303179Y-118393455D01*
X115242497Y-118379917D01*
X115216215Y-118371906D01*
X115215619Y-118371183D01*
X115221436Y-118346855D01*
X115236725Y-118292818D01*
X115258432Y-118219800D01*
X115263253Y-118203936D01*
X115310766Y-118048121D01*
X116866508Y-118050766D01*
G36*
X184786405Y-51130281D02*
G01*
X184878955Y-51134226D01*
X184974677Y-51141091D01*
X184996708Y-51142961D01*
X185934515Y-51242369D01*
X186889996Y-51379132D01*
X187861649Y-51552866D01*
X188847970Y-51763187D01*
X189847458Y-52009710D01*
X190858608Y-52292050D01*
X191879919Y-52609822D01*
X192909888Y-52962643D01*
X193947012Y-53350126D01*
X194537583Y-53585048D01*
X195009428Y-53779807D01*
X195449150Y-53967770D01*
X195865529Y-54153050D01*
X196267346Y-54339763D01*
X196663380Y-54532023D01*
X197062413Y-54733944D01*
X197473223Y-54949642D01*
X197636626Y-55037360D01*
X197765629Y-55107116D01*
X197881810Y-55170160D01*
X197980129Y-55223738D01*
X198055547Y-55265100D01*
X198103027Y-55291491D01*
X198117660Y-55300105D01*
X198123351Y-55323179D01*
X198133738Y-55382366D01*
X198147993Y-55471805D01*
X198165287Y-55585638D01*
X198184789Y-55718005D01*
X198205670Y-55863048D01*
X198227101Y-56014907D01*
X198248253Y-56167723D01*
X198268296Y-56315638D01*
X198286400Y-56452790D01*
X198301737Y-56573323D01*
X198313477Y-56671376D01*
X198319001Y-56722417D01*
X198327643Y-56836477D01*
X198334655Y-56985853D01*
X198340036Y-57163559D01*
X198343785Y-57362610D01*
X198345902Y-57576018D01*
X198346387Y-57796799D01*
X198345238Y-58017967D01*
X198342456Y-58232534D01*
X198338040Y-58433517D01*
X198331988Y-58613927D01*
X198324301Y-58766781D01*
X198319173Y-58839083D01*
X198218011Y-59823136D01*
X198075620Y-60797927D01*
X197891973Y-61763551D01*
X197667040Y-62720102D01*
X197400792Y-63667675D01*
X197093200Y-64606364D01*
X196744236Y-65536262D01*
X196353871Y-66457465D01*
X195922075Y-67370067D01*
X195448820Y-68274161D01*
X195403101Y-68357087D01*
X194893364Y-69236095D01*
X194343018Y-70105616D01*
X193752918Y-70964695D01*
X193123917Y-71812381D01*
X192456872Y-72647721D01*
X191752637Y-73469761D01*
X191012066Y-74277549D01*
X190236014Y-75070132D01*
X189425336Y-75846557D01*
X188580888Y-76605871D01*
X187703522Y-77347122D01*
X186794095Y-78069356D01*
X186467629Y-78318034D01*
X186379989Y-78383671D01*
X186270965Y-78464682D01*
X186144531Y-78558166D01*
X186004660Y-78661221D01*
X185855326Y-78770947D01*
X185700504Y-78884442D01*
X185544167Y-78998805D01*
X185390290Y-79111136D01*
X185242846Y-79218532D01*
X185105810Y-79318092D01*
X184983155Y-79406917D01*
X184878856Y-79482104D01*
X184796885Y-79540752D01*
X184741218Y-79579961D01*
X184716250Y-79596599D01*
X184694879Y-79587285D01*
X184643363Y-79555567D01*
X184565644Y-79504141D01*
X184465665Y-79435707D01*
X184347367Y-79352963D01*
X184214692Y-79258607D01*
X184071583Y-79155338D01*
X184070667Y-79154672D01*
X183760200Y-78928518D01*
X183480003Y-78723186D01*
X183225620Y-78535284D01*
X182992596Y-78361419D01*
X182776478Y-78198198D01*
X182572811Y-78042228D01*
X182377139Y-77890116D01*
X182185009Y-77738471D01*
X181991965Y-77583898D01*
X181793554Y-77423005D01*
X181745057Y-77383413D01*
X180845305Y-76625594D01*
X179985513Y-75855466D01*
X179164881Y-75072160D01*
X178382613Y-74274813D01*
X177637910Y-73462556D01*
X176929975Y-72634525D01*
X176258009Y-71789854D01*
X175621214Y-70927675D01*
X175102619Y-70173833D01*
X174568153Y-69336404D01*
X174068224Y-68483270D01*
X173603819Y-67616655D01*
X173175925Y-66738787D01*
X172785529Y-65851891D01*
X172433618Y-64958193D01*
X172121179Y-64059918D01*
X171849200Y-63159294D01*
X171648392Y-62384500D01*
X171492417Y-61684510D01*
X171356979Y-60976455D01*
X171243659Y-60270274D01*
X171154038Y-59575909D01*
X171089697Y-58903299D01*
X171085152Y-58843520D01*
X171069226Y-58581517D01*
X171058416Y-58299041D01*
X171052622Y-58003952D01*
X171051742Y-57704108D01*
X171055674Y-57407369D01*
X171064316Y-57121595D01*
X171077566Y-56854644D01*
X171095322Y-56614377D01*
X171116594Y-56415500D01*
X171140694Y-56233678D01*
X171165632Y-56054564D01*
X171190602Y-55883199D01*
X171214800Y-55724624D01*
X171237419Y-55583883D01*
X171257655Y-55466015D01*
X171274701Y-55376064D01*
X171287752Y-55319072D01*
X171294708Y-55300666D01*
X171329253Y-55274586D01*
X171398099Y-55232248D01*
X171497346Y-55175639D01*
X171623097Y-55106744D01*
X171771450Y-55027551D01*
X171938508Y-54940046D01*
X172120371Y-54846215D01*
X172313140Y-54748046D01*
X172512915Y-54647524D01*
X172715799Y-54546636D01*
X172917890Y-54447369D01*
X173115291Y-54351710D01*
X173304103Y-54261645D01*
X173480425Y-54179160D01*
X173629579Y-54111083D01*
X174541672Y-53715296D01*
X175464248Y-53343073D01*
X176393759Y-52995432D01*
X177326656Y-52673389D01*
X178259392Y-52377962D01*
X179188417Y-52110166D01*
X180110184Y-51871020D01*
X181021144Y-51661539D01*
X181917749Y-51482740D01*
X182796450Y-51335641D01*
X183653700Y-51221259D01*
X183753167Y-51209979D01*
X183981585Y-51184966D01*
X184173657Y-51165002D01*
X184335026Y-51149784D01*
X184471340Y-51139007D01*
X184588244Y-51132367D01*
X184691384Y-51129560D01*
X184786405Y-51130281D01*
G37*
X184786405Y-51130281D02*
X184878955Y-51134226D01*
X184974677Y-51141091D01*
X184996708Y-51142961D01*
X185934515Y-51242369D01*
X186889996Y-51379132D01*
X187861649Y-51552866D01*
X188847970Y-51763187D01*
X189847458Y-52009710D01*
X190858608Y-52292050D01*
X191879919Y-52609822D01*
X192909888Y-52962643D01*
X193947012Y-53350126D01*
X194537583Y-53585048D01*
X195009428Y-53779807D01*
X195449150Y-53967770D01*
X195865529Y-54153050D01*
X196267346Y-54339763D01*
X196663380Y-54532023D01*
X197062413Y-54733944D01*
X197473223Y-54949642D01*
X197636626Y-55037360D01*
X197765629Y-55107116D01*
X197881810Y-55170160D01*
X197980129Y-55223738D01*
X198055547Y-55265100D01*
X198103027Y-55291491D01*
X198117660Y-55300105D01*
X198123351Y-55323179D01*
X198133738Y-55382366D01*
X198147993Y-55471805D01*
X198165287Y-55585638D01*
X198184789Y-55718005D01*
X198205670Y-55863048D01*
X198227101Y-56014907D01*
X198248253Y-56167723D01*
X198268296Y-56315638D01*
X198286400Y-56452790D01*
X198301737Y-56573323D01*
X198313477Y-56671376D01*
X198319001Y-56722417D01*
X198327643Y-56836477D01*
X198334655Y-56985853D01*
X198340036Y-57163559D01*
X198343785Y-57362610D01*
X198345902Y-57576018D01*
X198346387Y-57796799D01*
X198345238Y-58017967D01*
X198342456Y-58232534D01*
X198338040Y-58433517D01*
X198331988Y-58613927D01*
X198324301Y-58766781D01*
X198319173Y-58839083D01*
X198218011Y-59823136D01*
X198075620Y-60797927D01*
X197891973Y-61763551D01*
X197667040Y-62720102D01*
X197400792Y-63667675D01*
X197093200Y-64606364D01*
X196744236Y-65536262D01*
X196353871Y-66457465D01*
X195922075Y-67370067D01*
X195448820Y-68274161D01*
X195403101Y-68357087D01*
X194893364Y-69236095D01*
X194343018Y-70105616D01*
X193752918Y-70964695D01*
X193123917Y-71812381D01*
X192456872Y-72647721D01*
X191752637Y-73469761D01*
X191012066Y-74277549D01*
X190236014Y-75070132D01*
X189425336Y-75846557D01*
X188580888Y-76605871D01*
X187703522Y-77347122D01*
X186794095Y-78069356D01*
X186467629Y-78318034D01*
X186379989Y-78383671D01*
X186270965Y-78464682D01*
X186144531Y-78558166D01*
X186004660Y-78661221D01*
X185855326Y-78770947D01*
X185700504Y-78884442D01*
X185544167Y-78998805D01*
X185390290Y-79111136D01*
X185242846Y-79218532D01*
X185105810Y-79318092D01*
X184983155Y-79406917D01*
X184878856Y-79482104D01*
X184796885Y-79540752D01*
X184741218Y-79579961D01*
X184716250Y-79596599D01*
X184694879Y-79587285D01*
X184643363Y-79555567D01*
X184565644Y-79504141D01*
X184465665Y-79435707D01*
X184347367Y-79352963D01*
X184214692Y-79258607D01*
X184071583Y-79155338D01*
X184070667Y-79154672D01*
X183760200Y-78928518D01*
X183480003Y-78723186D01*
X183225620Y-78535284D01*
X182992596Y-78361419D01*
X182776478Y-78198198D01*
X182572811Y-78042228D01*
X182377139Y-77890116D01*
X182185009Y-77738471D01*
X181991965Y-77583898D01*
X181793554Y-77423005D01*
X181745057Y-77383413D01*
X180845305Y-76625594D01*
X179985513Y-75855466D01*
X179164881Y-75072160D01*
X178382613Y-74274813D01*
X177637910Y-73462556D01*
X176929975Y-72634525D01*
X176258009Y-71789854D01*
X175621214Y-70927675D01*
X175102619Y-70173833D01*
X174568153Y-69336404D01*
X174068224Y-68483270D01*
X173603819Y-67616655D01*
X173175925Y-66738787D01*
X172785529Y-65851891D01*
X172433618Y-64958193D01*
X172121179Y-64059918D01*
X171849200Y-63159294D01*
X171648392Y-62384500D01*
X171492417Y-61684510D01*
X171356979Y-60976455D01*
X171243659Y-60270274D01*
X171154038Y-59575909D01*
X171089697Y-58903299D01*
X171085152Y-58843520D01*
X171069226Y-58581517D01*
X171058416Y-58299041D01*
X171052622Y-58003952D01*
X171051742Y-57704108D01*
X171055674Y-57407369D01*
X171064316Y-57121595D01*
X171077566Y-56854644D01*
X171095322Y-56614377D01*
X171116594Y-56415500D01*
X171140694Y-56233678D01*
X171165632Y-56054564D01*
X171190602Y-55883199D01*
X171214800Y-55724624D01*
X171237419Y-55583883D01*
X171257655Y-55466015D01*
X171274701Y-55376064D01*
X171287752Y-55319072D01*
X171294708Y-55300666D01*
X171329253Y-55274586D01*
X171398099Y-55232248D01*
X171497346Y-55175639D01*
X171623097Y-55106744D01*
X171771450Y-55027551D01*
X171938508Y-54940046D01*
X172120371Y-54846215D01*
X172313140Y-54748046D01*
X172512915Y-54647524D01*
X172715799Y-54546636D01*
X172917890Y-54447369D01*
X173115291Y-54351710D01*
X173304103Y-54261645D01*
X173480425Y-54179160D01*
X173629579Y-54111083D01*
X174541672Y-53715296D01*
X175464248Y-53343073D01*
X176393759Y-52995432D01*
X177326656Y-52673389D01*
X178259392Y-52377962D01*
X179188417Y-52110166D01*
X180110184Y-51871020D01*
X181021144Y-51661539D01*
X181917749Y-51482740D01*
X182796450Y-51335641D01*
X183653700Y-51221259D01*
X183753167Y-51209979D01*
X183981585Y-51184966D01*
X184173657Y-51165002D01*
X184335026Y-51149784D01*
X184471340Y-51139007D01*
X184588244Y-51132367D01*
X184691384Y-51129560D01*
X184786405Y-51130281D01*
G36*
X123454593Y-118046994D02*
G01*
X123711255Y-118047992D01*
X123962699Y-118049313D01*
X124204569Y-118050911D01*
X124432504Y-118052743D01*
X124642149Y-118054765D01*
X124829143Y-118056932D01*
X124989130Y-118059202D01*
X125117751Y-118061529D01*
X125210647Y-118063870D01*
X125243208Y-118065070D01*
X125544833Y-118078401D01*
X125544833Y-118476167D01*
X124660592Y-118476167D01*
X124647629Y-118989458D01*
X124646351Y-119051854D01*
X124644629Y-119154811D01*
X124642485Y-119296560D01*
X124639940Y-119475331D01*
X124637016Y-119689354D01*
X124633735Y-119936861D01*
X124630119Y-120216080D01*
X124626188Y-120525244D01*
X124621966Y-120862582D01*
X124617473Y-121226324D01*
X124612731Y-121614702D01*
X124607762Y-122025945D01*
X124602587Y-122458284D01*
X124597229Y-122909950D01*
X124591709Y-123379173D01*
X124586048Y-123864183D01*
X124580268Y-124363210D01*
X124574391Y-124874486D01*
X124568439Y-125396241D01*
X124562433Y-125926705D01*
X124560048Y-126138500D01*
X124554074Y-126669409D01*
X124548195Y-127191092D01*
X124542432Y-127701847D01*
X124536803Y-128199975D01*
X124531329Y-128683774D01*
X124526027Y-129151545D01*
X124520919Y-129601586D01*
X124516022Y-130032197D01*
X124511358Y-130441678D01*
X124506945Y-130828328D01*
X124502802Y-131190447D01*
X124498949Y-131526334D01*
X124495406Y-131834288D01*
X124492192Y-132112610D01*
X124489327Y-132359598D01*
X124486829Y-132573553D01*
X124484718Y-132752773D01*
X124483014Y-132895558D01*
X124481736Y-133000207D01*
X124480904Y-133065021D01*
X124480674Y-133081167D01*
X124475917Y-133388083D01*
X124116083Y-133401160D01*
X123976818Y-133406100D01*
X123809642Y-133411838D01*
X123628956Y-133417892D01*
X123449165Y-133423778D01*
X123295875Y-133428663D01*
X122835500Y-133443090D01*
X122835302Y-133087503D01*
X122835085Y-133037933D01*
X122834476Y-132947749D01*
X122833491Y-132818666D01*
X122832146Y-132652402D01*
X122830455Y-132450674D01*
X122828435Y-132215198D01*
X122826101Y-131947691D01*
X122823469Y-131649869D01*
X122820554Y-131323450D01*
X122817371Y-130970149D01*
X122813937Y-130591685D01*
X122810267Y-130189772D01*
X122806376Y-129766129D01*
X122802279Y-129322472D01*
X122797994Y-128860517D01*
X122793534Y-128381982D01*
X122788916Y-127888582D01*
X122784155Y-127382035D01*
X122779266Y-126864058D01*
X122774266Y-126336366D01*
X122771983Y-126096167D01*
X122766928Y-125563323D01*
X122761979Y-125038769D01*
X122757150Y-124524260D01*
X122752458Y-124021549D01*
X122747918Y-123532389D01*
X122743547Y-123058535D01*
X122739358Y-122601739D01*
X122735369Y-122163756D01*
X122731595Y-121746338D01*
X122728051Y-121351240D01*
X122724753Y-120980215D01*
X122721716Y-120635017D01*
X122718957Y-120317399D01*
X122716491Y-120029116D01*
X122714334Y-119771919D01*
X122712501Y-119547564D01*
X122711007Y-119357804D01*
X122709869Y-119204392D01*
X122709102Y-119089083D01*
X122708722Y-119013628D01*
X122708681Y-118994552D01*
X122708500Y-118528687D01*
X122290458Y-118456952D01*
X122162895Y-118434833D01*
X122050288Y-118414870D01*
X121959030Y-118398232D01*
X121895515Y-118386090D01*
X121866134Y-118379611D01*
X121864940Y-118379117D01*
X121867698Y-118357718D01*
X121881580Y-118306089D01*
X121903872Y-118234007D01*
X121912533Y-118207634D01*
X121967603Y-118042250D01*
X123454593Y-118046994D01*
G37*
X123454593Y-118046994D02*
X123711255Y-118047992D01*
X123962699Y-118049313D01*
X124204569Y-118050911D01*
X124432504Y-118052743D01*
X124642149Y-118054765D01*
X124829143Y-118056932D01*
X124989130Y-118059202D01*
X125117751Y-118061529D01*
X125210647Y-118063870D01*
X125243208Y-118065070D01*
X125544833Y-118078401D01*
X125544833Y-118476167D01*
X124660592Y-118476167D01*
X124647629Y-118989458D01*
X124646351Y-119051854D01*
X124644629Y-119154811D01*
X124642485Y-119296560D01*
X124639940Y-119475331D01*
X124637016Y-119689354D01*
X124633735Y-119936861D01*
X124630119Y-120216080D01*
X124626188Y-120525244D01*
X124621966Y-120862582D01*
X124617473Y-121226324D01*
X124612731Y-121614702D01*
X124607762Y-122025945D01*
X124602587Y-122458284D01*
X124597229Y-122909950D01*
X124591709Y-123379173D01*
X124586048Y-123864183D01*
X124580268Y-124363210D01*
X124574391Y-124874486D01*
X124568439Y-125396241D01*
X124562433Y-125926705D01*
X124560048Y-126138500D01*
X124554074Y-126669409D01*
X124548195Y-127191092D01*
X124542432Y-127701847D01*
X124536803Y-128199975D01*
X124531329Y-128683774D01*
X124526027Y-129151545D01*
X124520919Y-129601586D01*
X124516022Y-130032197D01*
X124511358Y-130441678D01*
X124506945Y-130828328D01*
X124502802Y-131190447D01*
X124498949Y-131526334D01*
X124495406Y-131834288D01*
X124492192Y-132112610D01*
X124489327Y-132359598D01*
X124486829Y-132573553D01*
X124484718Y-132752773D01*
X124483014Y-132895558D01*
X124481736Y-133000207D01*
X124480904Y-133065021D01*
X124480674Y-133081167D01*
X124475917Y-133388083D01*
X124116083Y-133401160D01*
X123976818Y-133406100D01*
X123809642Y-133411838D01*
X123628956Y-133417892D01*
X123449165Y-133423778D01*
X123295875Y-133428663D01*
X122835500Y-133443090D01*
X122835302Y-133087503D01*
X122835085Y-133037933D01*
X122834476Y-132947749D01*
X122833491Y-132818666D01*
X122832146Y-132652402D01*
X122830455Y-132450674D01*
X122828435Y-132215198D01*
X122826101Y-131947691D01*
X122823469Y-131649869D01*
X122820554Y-131323450D01*
X122817371Y-130970149D01*
X122813937Y-130591685D01*
X122810267Y-130189772D01*
X122806376Y-129766129D01*
X122802279Y-129322472D01*
X122797994Y-128860517D01*
X122793534Y-128381982D01*
X122788916Y-127888582D01*
X122784155Y-127382035D01*
X122779266Y-126864058D01*
X122774266Y-126336366D01*
X122771983Y-126096167D01*
X122766928Y-125563323D01*
X122761979Y-125038769D01*
X122757150Y-124524260D01*
X122752458Y-124021549D01*
X122747918Y-123532389D01*
X122743547Y-123058535D01*
X122739358Y-122601739D01*
X122735369Y-122163756D01*
X122731595Y-121746338D01*
X122728051Y-121351240D01*
X122724753Y-120980215D01*
X122721716Y-120635017D01*
X122718957Y-120317399D01*
X122716491Y-120029116D01*
X122714334Y-119771919D01*
X122712501Y-119547564D01*
X122711007Y-119357804D01*
X122709869Y-119204392D01*
X122709102Y-119089083D01*
X122708722Y-119013628D01*
X122708681Y-118994552D01*
X122708500Y-118528687D01*
X122290458Y-118456952D01*
X122162895Y-118434833D01*
X122050288Y-118414870D01*
X121959030Y-118398232D01*
X121895515Y-118386090D01*
X121866134Y-118379611D01*
X121864940Y-118379117D01*
X121867698Y-118357718D01*
X121881580Y-118306089D01*
X121903872Y-118234007D01*
X121912533Y-118207634D01*
X121967603Y-118042250D01*
X123454593Y-118046994D01*
G36*
X136716219Y-118046987D02*
G01*
X136972712Y-118047991D01*
X137224593Y-118049321D01*
X137467404Y-118050933D01*
X137696688Y-118052782D01*
X137907988Y-118054823D01*
X138096846Y-118057011D01*
X138258806Y-118059300D01*
X138389410Y-118061647D01*
X138484201Y-118064007D01*
X138514708Y-118065090D01*
X138837500Y-118078457D01*
X138837500Y-118476167D01*
X137927333Y-118476167D01*
X137927165Y-118555542D01*
X137926904Y-118582602D01*
X137926158Y-118650424D01*
X137924945Y-118757438D01*
X137923285Y-118902077D01*
X137921195Y-119082770D01*
X137918695Y-119297948D01*
X137915801Y-119546044D01*
X137912534Y-119825488D01*
X137908911Y-120134711D01*
X137904951Y-120472144D01*
X137900673Y-120836219D01*
X137896094Y-121225367D01*
X137891233Y-121638018D01*
X137886109Y-122072603D01*
X137880739Y-122527555D01*
X137875144Y-123001303D01*
X137869340Y-123492280D01*
X137863346Y-123998915D01*
X137857181Y-124519641D01*
X137850864Y-125052889D01*
X137844412Y-125597089D01*
X137842635Y-125746917D01*
X137836131Y-126295980D01*
X137829757Y-126835535D01*
X137823532Y-127363957D01*
X137817475Y-127879624D01*
X137811604Y-128380909D01*
X137805937Y-128866191D01*
X137800494Y-129333843D01*
X137795293Y-129782243D01*
X137790352Y-130209766D01*
X137785690Y-130614788D01*
X137781326Y-130995686D01*
X137777278Y-131350834D01*
X137773565Y-131678609D01*
X137770206Y-131977387D01*
X137767218Y-132245544D01*
X137764622Y-132481455D01*
X137762434Y-132683497D01*
X137760675Y-132850045D01*
X137759362Y-132979476D01*
X137758514Y-133070166D01*
X137758149Y-133120489D01*
X137758136Y-133125770D01*
X137758000Y-133392623D01*
X137244708Y-133406506D01*
X137078035Y-133411232D01*
X136903974Y-133416551D01*
X136734026Y-133422083D01*
X136579695Y-133427451D01*
X136452481Y-133432277D01*
X136419208Y-133433652D01*
X136107000Y-133446915D01*
X136106802Y-132814249D01*
X136106583Y-132742098D01*
X136105968Y-132629425D01*
X136104974Y-132478041D01*
X136103617Y-132289757D01*
X136101911Y-132066381D01*
X136099873Y-131809726D01*
X136097519Y-131521600D01*
X136094864Y-131203814D01*
X136091924Y-130858178D01*
X136088714Y-130486503D01*
X136085252Y-130090598D01*
X136081552Y-129672273D01*
X136077630Y-129233340D01*
X136073501Y-128775607D01*
X136069183Y-128300886D01*
X136064690Y-127810986D01*
X136060038Y-127307717D01*
X136055243Y-126792890D01*
X136050321Y-126268316D01*
X136045288Y-125735803D01*
X136043483Y-125545833D01*
X136038451Y-125016314D01*
X136033524Y-124496697D01*
X136028716Y-123988645D01*
X136024044Y-123493820D01*
X136019522Y-123013885D01*
X136015166Y-122550503D01*
X136010991Y-122105334D01*
X136007013Y-121680043D01*
X136003248Y-121276292D01*
X135999710Y-120895742D01*
X135996415Y-120540056D01*
X135993378Y-120210898D01*
X135990616Y-119909928D01*
X135988142Y-119638810D01*
X135985974Y-119399206D01*
X135984125Y-119192779D01*
X135982612Y-119021191D01*
X135981450Y-118886104D01*
X135980654Y-118789180D01*
X135980240Y-118732083D01*
X135980181Y-118718881D01*
X135980000Y-118527680D01*
X135566219Y-118455901D01*
X135439431Y-118433372D01*
X135327738Y-118412504D01*
X135237540Y-118394578D01*
X135175239Y-118380873D01*
X135147237Y-118372670D01*
X135146358Y-118371936D01*
X135149435Y-118347387D01*
X135163048Y-118293217D01*
X135184470Y-118220005D01*
X135190400Y-118201000D01*
X135240522Y-118042250D01*
X136716219Y-118046987D01*
G37*
X136716219Y-118046987D02*
X136972712Y-118047991D01*
X137224593Y-118049321D01*
X137467404Y-118050933D01*
X137696688Y-118052782D01*
X137907988Y-118054823D01*
X138096846Y-118057011D01*
X138258806Y-118059300D01*
X138389410Y-118061647D01*
X138484201Y-118064007D01*
X138514708Y-118065090D01*
X138837500Y-118078457D01*
X138837500Y-118476167D01*
X137927333Y-118476167D01*
X137927165Y-118555542D01*
X137926904Y-118582602D01*
X137926158Y-118650424D01*
X137924945Y-118757438D01*
X137923285Y-118902077D01*
X137921195Y-119082770D01*
X137918695Y-119297948D01*
X137915801Y-119546044D01*
X137912534Y-119825488D01*
X137908911Y-120134711D01*
X137904951Y-120472144D01*
X137900673Y-120836219D01*
X137896094Y-121225367D01*
X137891233Y-121638018D01*
X137886109Y-122072603D01*
X137880739Y-122527555D01*
X137875144Y-123001303D01*
X137869340Y-123492280D01*
X137863346Y-123998915D01*
X137857181Y-124519641D01*
X137850864Y-125052889D01*
X137844412Y-125597089D01*
X137842635Y-125746917D01*
X137836131Y-126295980D01*
X137829757Y-126835535D01*
X137823532Y-127363957D01*
X137817475Y-127879624D01*
X137811604Y-128380909D01*
X137805937Y-128866191D01*
X137800494Y-129333843D01*
X137795293Y-129782243D01*
X137790352Y-130209766D01*
X137785690Y-130614788D01*
X137781326Y-130995686D01*
X137777278Y-131350834D01*
X137773565Y-131678609D01*
X137770206Y-131977387D01*
X137767218Y-132245544D01*
X137764622Y-132481455D01*
X137762434Y-132683497D01*
X137760675Y-132850045D01*
X137759362Y-132979476D01*
X137758514Y-133070166D01*
X137758149Y-133120489D01*
X137758136Y-133125770D01*
X137758000Y-133392623D01*
X137244708Y-133406506D01*
X137078035Y-133411232D01*
X136903974Y-133416551D01*
X136734026Y-133422083D01*
X136579695Y-133427451D01*
X136452481Y-133432277D01*
X136419208Y-133433652D01*
X136107000Y-133446915D01*
X136106802Y-132814249D01*
X136106583Y-132742098D01*
X136105968Y-132629425D01*
X136104974Y-132478041D01*
X136103617Y-132289757D01*
X136101911Y-132066381D01*
X136099873Y-131809726D01*
X136097519Y-131521600D01*
X136094864Y-131203814D01*
X136091924Y-130858178D01*
X136088714Y-130486503D01*
X136085252Y-130090598D01*
X136081552Y-129672273D01*
X136077630Y-129233340D01*
X136073501Y-128775607D01*
X136069183Y-128300886D01*
X136064690Y-127810986D01*
X136060038Y-127307717D01*
X136055243Y-126792890D01*
X136050321Y-126268316D01*
X136045288Y-125735803D01*
X136043483Y-125545833D01*
X136038451Y-125016314D01*
X136033524Y-124496697D01*
X136028716Y-123988645D01*
X136024044Y-123493820D01*
X136019522Y-123013885D01*
X136015166Y-122550503D01*
X136010991Y-122105334D01*
X136007013Y-121680043D01*
X136003248Y-121276292D01*
X135999710Y-120895742D01*
X135996415Y-120540056D01*
X135993378Y-120210898D01*
X135990616Y-119909928D01*
X135988142Y-119638810D01*
X135985974Y-119399206D01*
X135984125Y-119192779D01*
X135982612Y-119021191D01*
X135981450Y-118886104D01*
X135980654Y-118789180D01*
X135980240Y-118732083D01*
X135980181Y-118718881D01*
X135980000Y-118527680D01*
X135566219Y-118455901D01*
X135439431Y-118433372D01*
X135327738Y-118412504D01*
X135237540Y-118394578D01*
X135175239Y-118380873D01*
X135147237Y-118372670D01*
X135146358Y-118371936D01*
X135149435Y-118347387D01*
X135163048Y-118293217D01*
X135184470Y-118220005D01*
X135190400Y-118201000D01*
X135240522Y-118042250D01*
X136716219Y-118046987D01*
%TD*%
M02*
