G04 #@! TF.GenerationSoftware,KiCad,Pcbnew,5.1.2*
G04 #@! TF.CreationDate,2019-07-14T10:42:41-05:00*
G04 #@! TF.ProjectId,Master_Sword_(Ocarina_of_Time),4d617374-6572-45f5-9377-6f72645f284f,rev?*
G04 #@! TF.SameCoordinates,Original*
G04 #@! TF.FileFunction,Copper,L2,Bot*
G04 #@! TF.FilePolarity,Positive*
%FSLAX46Y46*%
G04 Gerber Fmt 4.6, Leading zero omitted, Abs format (unit mm)*
G04 Created by KiCad (PCBNEW 5.1.2) date 2019-07-14 10:42:41*
%MOMM*%
%LPD*%
G04 APERTURE LIST*
%ADD10C,0.010000*%
%ADD11C,6.000000*%
%ADD12C,5.500000*%
%ADD13C,0.100000*%
%ADD14C,8.000000*%
%ADD15C,0.975000*%
%ADD16C,1.700000*%
%ADD17C,1.700000*%
%ADD18C,1.000000*%
%ADD19C,1.350000*%
%ADD20C,0.400000*%
%ADD21C,1.400000*%
%ADD22C,0.800000*%
%ADD23C,0.900000*%
%ADD24C,2.410000*%
%ADD25C,0.500000*%
%ADD26C,0.600000*%
%ADD27C,2.000000*%
%ADD28C,1.500000*%
%ADD29C,0.250000*%
%ADD30C,0.254000*%
G04 APERTURE END LIST*
D10*
G36*
X136296662Y-95285390D02*
G01*
X136491401Y-95349541D01*
X136682132Y-95351047D01*
X136695272Y-95348345D01*
X136772079Y-95325995D01*
X136840027Y-95288440D01*
X136915841Y-95221780D01*
X137016251Y-95112111D01*
X137106580Y-95006507D01*
X137244171Y-94849692D01*
X137418642Y-94659395D01*
X137606208Y-94461192D01*
X137760789Y-94302980D01*
X137925346Y-94139470D01*
X138044717Y-94026935D01*
X138132201Y-93955123D01*
X138201095Y-93913785D01*
X138264698Y-93892673D01*
X138301744Y-93886042D01*
X138422481Y-93886744D01*
X138530884Y-93938961D01*
X138588203Y-93984651D01*
X138749949Y-94173452D01*
X138842313Y-94403286D01*
X138867453Y-94680258D01*
X138863131Y-94762192D01*
X138856826Y-94916520D01*
X138862561Y-95038310D01*
X138879072Y-95102515D01*
X138880382Y-95103993D01*
X138943145Y-95119921D01*
X139054211Y-95112696D01*
X139110511Y-95102108D01*
X139349583Y-95071441D01*
X139536360Y-95096858D01*
X139665877Y-95175754D01*
X139733168Y-95305530D01*
X139740046Y-95432069D01*
X139720157Y-95566059D01*
X139679374Y-95706234D01*
X139610722Y-95869848D01*
X139507226Y-96074152D01*
X139406026Y-96258255D01*
X139298999Y-96449378D01*
X139187828Y-96648560D01*
X139092767Y-96819493D01*
X139073593Y-96854101D01*
X138934843Y-97104814D01*
X139122001Y-97523150D01*
X139220566Y-97732887D01*
X139295634Y-97867732D01*
X139350454Y-97933124D01*
X139371994Y-97941487D01*
X139435252Y-97921407D01*
X139454156Y-97855923D01*
X139428018Y-97737170D01*
X139356155Y-97557280D01*
X139334373Y-97509223D01*
X139265513Y-97352342D01*
X139213228Y-97219410D01*
X139186281Y-97133184D01*
X139184448Y-97119824D01*
X139204170Y-97060204D01*
X139259268Y-96943179D01*
X139341942Y-96784176D01*
X139444393Y-96598622D01*
X139475489Y-96544136D01*
X139667322Y-96196013D01*
X139807945Y-95905361D01*
X139899649Y-95664026D01*
X139944720Y-95463854D01*
X139945447Y-95296692D01*
X139904117Y-95154386D01*
X139878831Y-95106746D01*
X139757989Y-94981953D01*
X139580965Y-94899038D01*
X139369514Y-94866799D01*
X139291258Y-94869125D01*
X139059656Y-94887099D01*
X139064549Y-94641834D01*
X139051823Y-94393627D01*
X138994935Y-94191257D01*
X138882680Y-94002577D01*
X138810486Y-93912836D01*
X138703612Y-93797053D01*
X138615512Y-93730913D01*
X138516517Y-93694620D01*
X138467743Y-93684125D01*
X138286637Y-93683862D01*
X138089656Y-93751600D01*
X137873834Y-93889580D01*
X137636202Y-94100050D01*
X137373795Y-94385254D01*
X137112482Y-94709659D01*
X136955193Y-94907625D01*
X136830622Y-95042441D01*
X136725491Y-95122043D01*
X136626521Y-95154363D01*
X136520436Y-95147337D01*
X136425574Y-95120116D01*
X136291178Y-95049390D01*
X136206412Y-94938483D01*
X136163285Y-94772652D01*
X136153625Y-94618317D01*
X136146551Y-94490386D01*
X136123991Y-94424407D01*
X136076658Y-94397893D01*
X136061460Y-94395039D01*
X135996297Y-94393092D01*
X135966094Y-94432174D01*
X135951235Y-94501018D01*
X135948424Y-94658594D01*
X135980779Y-94841965D01*
X136039044Y-95016909D01*
X136113964Y-95149204D01*
X136131996Y-95169421D01*
X136296662Y-95285390D01*
X136296662Y-95285390D01*
G37*
X136296662Y-95285390D02*
X136491401Y-95349541D01*
X136682132Y-95351047D01*
X136695272Y-95348345D01*
X136772079Y-95325995D01*
X136840027Y-95288440D01*
X136915841Y-95221780D01*
X137016251Y-95112111D01*
X137106580Y-95006507D01*
X137244171Y-94849692D01*
X137418642Y-94659395D01*
X137606208Y-94461192D01*
X137760789Y-94302980D01*
X137925346Y-94139470D01*
X138044717Y-94026935D01*
X138132201Y-93955123D01*
X138201095Y-93913785D01*
X138264698Y-93892673D01*
X138301744Y-93886042D01*
X138422481Y-93886744D01*
X138530884Y-93938961D01*
X138588203Y-93984651D01*
X138749949Y-94173452D01*
X138842313Y-94403286D01*
X138867453Y-94680258D01*
X138863131Y-94762192D01*
X138856826Y-94916520D01*
X138862561Y-95038310D01*
X138879072Y-95102515D01*
X138880382Y-95103993D01*
X138943145Y-95119921D01*
X139054211Y-95112696D01*
X139110511Y-95102108D01*
X139349583Y-95071441D01*
X139536360Y-95096858D01*
X139665877Y-95175754D01*
X139733168Y-95305530D01*
X139740046Y-95432069D01*
X139720157Y-95566059D01*
X139679374Y-95706234D01*
X139610722Y-95869848D01*
X139507226Y-96074152D01*
X139406026Y-96258255D01*
X139298999Y-96449378D01*
X139187828Y-96648560D01*
X139092767Y-96819493D01*
X139073593Y-96854101D01*
X138934843Y-97104814D01*
X139122001Y-97523150D01*
X139220566Y-97732887D01*
X139295634Y-97867732D01*
X139350454Y-97933124D01*
X139371994Y-97941487D01*
X139435252Y-97921407D01*
X139454156Y-97855923D01*
X139428018Y-97737170D01*
X139356155Y-97557280D01*
X139334373Y-97509223D01*
X139265513Y-97352342D01*
X139213228Y-97219410D01*
X139186281Y-97133184D01*
X139184448Y-97119824D01*
X139204170Y-97060204D01*
X139259268Y-96943179D01*
X139341942Y-96784176D01*
X139444393Y-96598622D01*
X139475489Y-96544136D01*
X139667322Y-96196013D01*
X139807945Y-95905361D01*
X139899649Y-95664026D01*
X139944720Y-95463854D01*
X139945447Y-95296692D01*
X139904117Y-95154386D01*
X139878831Y-95106746D01*
X139757989Y-94981953D01*
X139580965Y-94899038D01*
X139369514Y-94866799D01*
X139291258Y-94869125D01*
X139059656Y-94887099D01*
X139064549Y-94641834D01*
X139051823Y-94393627D01*
X138994935Y-94191257D01*
X138882680Y-94002577D01*
X138810486Y-93912836D01*
X138703612Y-93797053D01*
X138615512Y-93730913D01*
X138516517Y-93694620D01*
X138467743Y-93684125D01*
X138286637Y-93683862D01*
X138089656Y-93751600D01*
X137873834Y-93889580D01*
X137636202Y-94100050D01*
X137373795Y-94385254D01*
X137112482Y-94709659D01*
X136955193Y-94907625D01*
X136830622Y-95042441D01*
X136725491Y-95122043D01*
X136626521Y-95154363D01*
X136520436Y-95147337D01*
X136425574Y-95120116D01*
X136291178Y-95049390D01*
X136206412Y-94938483D01*
X136163285Y-94772652D01*
X136153625Y-94618317D01*
X136146551Y-94490386D01*
X136123991Y-94424407D01*
X136076658Y-94397893D01*
X136061460Y-94395039D01*
X135996297Y-94393092D01*
X135966094Y-94432174D01*
X135951235Y-94501018D01*
X135948424Y-94658594D01*
X135980779Y-94841965D01*
X136039044Y-95016909D01*
X136113964Y-95149204D01*
X136131996Y-95169421D01*
X136296662Y-95285390D01*
D11*
X176031495Y-137656555D03*
D12*
X121548963Y-82634022D03*
D13*
G36*
X125614827Y-82810799D02*
G01*
X121725740Y-86699886D01*
X117483099Y-82457245D01*
X121372186Y-78568158D01*
X125614827Y-82810799D01*
X125614827Y-82810799D01*
G37*
D12*
X99911495Y-60996554D03*
D13*
G36*
X103977359Y-61173331D02*
G01*
X100088272Y-65062418D01*
X95845631Y-60819777D01*
X99734718Y-56930690D01*
X103977359Y-61173331D01*
X103977359Y-61173331D01*
G37*
D14*
X110730229Y-71815288D03*
D13*
G36*
X116387083Y-71815288D02*
G01*
X110730229Y-77472142D01*
X105073375Y-71815288D01*
X110730229Y-66158434D01*
X116387083Y-71815288D01*
X116387083Y-71815288D01*
G37*
G36*
X166491473Y-126364829D02*
G01*
X166515134Y-126368339D01*
X166538338Y-126374151D01*
X166560860Y-126382209D01*
X166582484Y-126392437D01*
X166603001Y-126404734D01*
X166622214Y-126418984D01*
X166639938Y-126435048D01*
X166984653Y-126779763D01*
X167000717Y-126797487D01*
X167014967Y-126816700D01*
X167027264Y-126837217D01*
X167037492Y-126858841D01*
X167045550Y-126881363D01*
X167051362Y-126904567D01*
X167054872Y-126928228D01*
X167056046Y-126952120D01*
X167054872Y-126976012D01*
X167051362Y-126999673D01*
X167045550Y-127022877D01*
X167037492Y-127045399D01*
X167027264Y-127067023D01*
X167014967Y-127087540D01*
X167000717Y-127106753D01*
X166984653Y-127124477D01*
X166339418Y-127769712D01*
X166321694Y-127785776D01*
X166302481Y-127800026D01*
X166281964Y-127812323D01*
X166260340Y-127822551D01*
X166237818Y-127830609D01*
X166214614Y-127836421D01*
X166190953Y-127839931D01*
X166167061Y-127841105D01*
X166143169Y-127839931D01*
X166119508Y-127836421D01*
X166096304Y-127830609D01*
X166073782Y-127822551D01*
X166052158Y-127812323D01*
X166031641Y-127800026D01*
X166012428Y-127785776D01*
X165994704Y-127769712D01*
X165649989Y-127424997D01*
X165633925Y-127407273D01*
X165619675Y-127388060D01*
X165607378Y-127367543D01*
X165597150Y-127345919D01*
X165589092Y-127323397D01*
X165583280Y-127300193D01*
X165579770Y-127276532D01*
X165578596Y-127252640D01*
X165579770Y-127228748D01*
X165583280Y-127205087D01*
X165589092Y-127181883D01*
X165597150Y-127159361D01*
X165607378Y-127137737D01*
X165619675Y-127117220D01*
X165633925Y-127098007D01*
X165649989Y-127080283D01*
X166295224Y-126435048D01*
X166312948Y-126418984D01*
X166332161Y-126404734D01*
X166352678Y-126392437D01*
X166374302Y-126382209D01*
X166396824Y-126374151D01*
X166420028Y-126368339D01*
X166443689Y-126364829D01*
X166467581Y-126363655D01*
X166491473Y-126364829D01*
X166491473Y-126364829D01*
G37*
D15*
X166317321Y-127102380D03*
D13*
G36*
X165165647Y-125039003D02*
G01*
X165189308Y-125042513D01*
X165212512Y-125048325D01*
X165235034Y-125056383D01*
X165256658Y-125066611D01*
X165277175Y-125078908D01*
X165296388Y-125093158D01*
X165314112Y-125109222D01*
X165658827Y-125453937D01*
X165674891Y-125471661D01*
X165689141Y-125490874D01*
X165701438Y-125511391D01*
X165711666Y-125533015D01*
X165719724Y-125555537D01*
X165725536Y-125578741D01*
X165729046Y-125602402D01*
X165730220Y-125626294D01*
X165729046Y-125650186D01*
X165725536Y-125673847D01*
X165719724Y-125697051D01*
X165711666Y-125719573D01*
X165701438Y-125741197D01*
X165689141Y-125761714D01*
X165674891Y-125780927D01*
X165658827Y-125798651D01*
X165013592Y-126443886D01*
X164995868Y-126459950D01*
X164976655Y-126474200D01*
X164956138Y-126486497D01*
X164934514Y-126496725D01*
X164911992Y-126504783D01*
X164888788Y-126510595D01*
X164865127Y-126514105D01*
X164841235Y-126515279D01*
X164817343Y-126514105D01*
X164793682Y-126510595D01*
X164770478Y-126504783D01*
X164747956Y-126496725D01*
X164726332Y-126486497D01*
X164705815Y-126474200D01*
X164686602Y-126459950D01*
X164668878Y-126443886D01*
X164324163Y-126099171D01*
X164308099Y-126081447D01*
X164293849Y-126062234D01*
X164281552Y-126041717D01*
X164271324Y-126020093D01*
X164263266Y-125997571D01*
X164257454Y-125974367D01*
X164253944Y-125950706D01*
X164252770Y-125926814D01*
X164253944Y-125902922D01*
X164257454Y-125879261D01*
X164263266Y-125856057D01*
X164271324Y-125833535D01*
X164281552Y-125811911D01*
X164293849Y-125791394D01*
X164308099Y-125772181D01*
X164324163Y-125754457D01*
X164969398Y-125109222D01*
X164987122Y-125093158D01*
X165006335Y-125078908D01*
X165026852Y-125066611D01*
X165048476Y-125056383D01*
X165070998Y-125048325D01*
X165094202Y-125042513D01*
X165117863Y-125039003D01*
X165141755Y-125037829D01*
X165165647Y-125039003D01*
X165165647Y-125039003D01*
G37*
D15*
X164991495Y-125776554D03*
D13*
G36*
X158945648Y-120449004D02*
G01*
X158969309Y-120452514D01*
X158992513Y-120458326D01*
X159015035Y-120466384D01*
X159036659Y-120476612D01*
X159057176Y-120488909D01*
X159076389Y-120503159D01*
X159094113Y-120519223D01*
X159438828Y-120863938D01*
X159454892Y-120881662D01*
X159469142Y-120900875D01*
X159481439Y-120921392D01*
X159491667Y-120943016D01*
X159499725Y-120965538D01*
X159505537Y-120988742D01*
X159509047Y-121012403D01*
X159510221Y-121036295D01*
X159509047Y-121060187D01*
X159505537Y-121083848D01*
X159499725Y-121107052D01*
X159491667Y-121129574D01*
X159481439Y-121151198D01*
X159469142Y-121171715D01*
X159454892Y-121190928D01*
X159438828Y-121208652D01*
X158793593Y-121853887D01*
X158775869Y-121869951D01*
X158756656Y-121884201D01*
X158736139Y-121896498D01*
X158714515Y-121906726D01*
X158691993Y-121914784D01*
X158668789Y-121920596D01*
X158645128Y-121924106D01*
X158621236Y-121925280D01*
X158597344Y-121924106D01*
X158573683Y-121920596D01*
X158550479Y-121914784D01*
X158527957Y-121906726D01*
X158506333Y-121896498D01*
X158485816Y-121884201D01*
X158466603Y-121869951D01*
X158448879Y-121853887D01*
X158104164Y-121509172D01*
X158088100Y-121491448D01*
X158073850Y-121472235D01*
X158061553Y-121451718D01*
X158051325Y-121430094D01*
X158043267Y-121407572D01*
X158037455Y-121384368D01*
X158033945Y-121360707D01*
X158032771Y-121336815D01*
X158033945Y-121312923D01*
X158037455Y-121289262D01*
X158043267Y-121266058D01*
X158051325Y-121243536D01*
X158061553Y-121221912D01*
X158073850Y-121201395D01*
X158088100Y-121182182D01*
X158104164Y-121164458D01*
X158749399Y-120519223D01*
X158767123Y-120503159D01*
X158786336Y-120488909D01*
X158806853Y-120476612D01*
X158828477Y-120466384D01*
X158850999Y-120458326D01*
X158874203Y-120452514D01*
X158897864Y-120449004D01*
X158921756Y-120447830D01*
X158945648Y-120449004D01*
X158945648Y-120449004D01*
G37*
D15*
X158771496Y-121186555D03*
D13*
G36*
X157619822Y-119123178D02*
G01*
X157643483Y-119126688D01*
X157666687Y-119132500D01*
X157689209Y-119140558D01*
X157710833Y-119150786D01*
X157731350Y-119163083D01*
X157750563Y-119177333D01*
X157768287Y-119193397D01*
X158113002Y-119538112D01*
X158129066Y-119555836D01*
X158143316Y-119575049D01*
X158155613Y-119595566D01*
X158165841Y-119617190D01*
X158173899Y-119639712D01*
X158179711Y-119662916D01*
X158183221Y-119686577D01*
X158184395Y-119710469D01*
X158183221Y-119734361D01*
X158179711Y-119758022D01*
X158173899Y-119781226D01*
X158165841Y-119803748D01*
X158155613Y-119825372D01*
X158143316Y-119845889D01*
X158129066Y-119865102D01*
X158113002Y-119882826D01*
X157467767Y-120528061D01*
X157450043Y-120544125D01*
X157430830Y-120558375D01*
X157410313Y-120570672D01*
X157388689Y-120580900D01*
X157366167Y-120588958D01*
X157342963Y-120594770D01*
X157319302Y-120598280D01*
X157295410Y-120599454D01*
X157271518Y-120598280D01*
X157247857Y-120594770D01*
X157224653Y-120588958D01*
X157202131Y-120580900D01*
X157180507Y-120570672D01*
X157159990Y-120558375D01*
X157140777Y-120544125D01*
X157123053Y-120528061D01*
X156778338Y-120183346D01*
X156762274Y-120165622D01*
X156748024Y-120146409D01*
X156735727Y-120125892D01*
X156725499Y-120104268D01*
X156717441Y-120081746D01*
X156711629Y-120058542D01*
X156708119Y-120034881D01*
X156706945Y-120010989D01*
X156708119Y-119987097D01*
X156711629Y-119963436D01*
X156717441Y-119940232D01*
X156725499Y-119917710D01*
X156735727Y-119896086D01*
X156748024Y-119875569D01*
X156762274Y-119856356D01*
X156778338Y-119838632D01*
X157423573Y-119193397D01*
X157441297Y-119177333D01*
X157460510Y-119163083D01*
X157481027Y-119150786D01*
X157502651Y-119140558D01*
X157525173Y-119132500D01*
X157548377Y-119126688D01*
X157572038Y-119123178D01*
X157595930Y-119122004D01*
X157619822Y-119123178D01*
X157619822Y-119123178D01*
G37*
D15*
X157445670Y-119860729D03*
D13*
G36*
X155439821Y-121213177D02*
G01*
X155463482Y-121216687D01*
X155486686Y-121222499D01*
X155509208Y-121230557D01*
X155530832Y-121240785D01*
X155551349Y-121253082D01*
X155570562Y-121267332D01*
X155588286Y-121283396D01*
X155933001Y-121628111D01*
X155949065Y-121645835D01*
X155963315Y-121665048D01*
X155975612Y-121685565D01*
X155985840Y-121707189D01*
X155993898Y-121729711D01*
X155999710Y-121752915D01*
X156003220Y-121776576D01*
X156004394Y-121800468D01*
X156003220Y-121824360D01*
X155999710Y-121848021D01*
X155993898Y-121871225D01*
X155985840Y-121893747D01*
X155975612Y-121915371D01*
X155963315Y-121935888D01*
X155949065Y-121955101D01*
X155933001Y-121972825D01*
X155287766Y-122618060D01*
X155270042Y-122634124D01*
X155250829Y-122648374D01*
X155230312Y-122660671D01*
X155208688Y-122670899D01*
X155186166Y-122678957D01*
X155162962Y-122684769D01*
X155139301Y-122688279D01*
X155115409Y-122689453D01*
X155091517Y-122688279D01*
X155067856Y-122684769D01*
X155044652Y-122678957D01*
X155022130Y-122670899D01*
X155000506Y-122660671D01*
X154979989Y-122648374D01*
X154960776Y-122634124D01*
X154943052Y-122618060D01*
X154598337Y-122273345D01*
X154582273Y-122255621D01*
X154568023Y-122236408D01*
X154555726Y-122215891D01*
X154545498Y-122194267D01*
X154537440Y-122171745D01*
X154531628Y-122148541D01*
X154528118Y-122124880D01*
X154526944Y-122100988D01*
X154528118Y-122077096D01*
X154531628Y-122053435D01*
X154537440Y-122030231D01*
X154545498Y-122007709D01*
X154555726Y-121986085D01*
X154568023Y-121965568D01*
X154582273Y-121946355D01*
X154598337Y-121928631D01*
X155243572Y-121283396D01*
X155261296Y-121267332D01*
X155280509Y-121253082D01*
X155301026Y-121240785D01*
X155322650Y-121230557D01*
X155345172Y-121222499D01*
X155368376Y-121216687D01*
X155392037Y-121213177D01*
X155415929Y-121212003D01*
X155439821Y-121213177D01*
X155439821Y-121213177D01*
G37*
D15*
X155265669Y-121950728D03*
D13*
G36*
X156765647Y-122539003D02*
G01*
X156789308Y-122542513D01*
X156812512Y-122548325D01*
X156835034Y-122556383D01*
X156856658Y-122566611D01*
X156877175Y-122578908D01*
X156896388Y-122593158D01*
X156914112Y-122609222D01*
X157258827Y-122953937D01*
X157274891Y-122971661D01*
X157289141Y-122990874D01*
X157301438Y-123011391D01*
X157311666Y-123033015D01*
X157319724Y-123055537D01*
X157325536Y-123078741D01*
X157329046Y-123102402D01*
X157330220Y-123126294D01*
X157329046Y-123150186D01*
X157325536Y-123173847D01*
X157319724Y-123197051D01*
X157311666Y-123219573D01*
X157301438Y-123241197D01*
X157289141Y-123261714D01*
X157274891Y-123280927D01*
X157258827Y-123298651D01*
X156613592Y-123943886D01*
X156595868Y-123959950D01*
X156576655Y-123974200D01*
X156556138Y-123986497D01*
X156534514Y-123996725D01*
X156511992Y-124004783D01*
X156488788Y-124010595D01*
X156465127Y-124014105D01*
X156441235Y-124015279D01*
X156417343Y-124014105D01*
X156393682Y-124010595D01*
X156370478Y-124004783D01*
X156347956Y-123996725D01*
X156326332Y-123986497D01*
X156305815Y-123974200D01*
X156286602Y-123959950D01*
X156268878Y-123943886D01*
X155924163Y-123599171D01*
X155908099Y-123581447D01*
X155893849Y-123562234D01*
X155881552Y-123541717D01*
X155871324Y-123520093D01*
X155863266Y-123497571D01*
X155857454Y-123474367D01*
X155853944Y-123450706D01*
X155852770Y-123426814D01*
X155853944Y-123402922D01*
X155857454Y-123379261D01*
X155863266Y-123356057D01*
X155871324Y-123333535D01*
X155881552Y-123311911D01*
X155893849Y-123291394D01*
X155908099Y-123272181D01*
X155924163Y-123254457D01*
X156569398Y-122609222D01*
X156587122Y-122593158D01*
X156606335Y-122578908D01*
X156626852Y-122566611D01*
X156648476Y-122556383D01*
X156670998Y-122548325D01*
X156694202Y-122542513D01*
X156717863Y-122539003D01*
X156741755Y-122537829D01*
X156765647Y-122539003D01*
X156765647Y-122539003D01*
G37*
D15*
X156591495Y-123276554D03*
D13*
G36*
X161358560Y-118051917D02*
G01*
X161382221Y-118055427D01*
X161405425Y-118061239D01*
X161427947Y-118069297D01*
X161449571Y-118079525D01*
X161470088Y-118091822D01*
X161489301Y-118106072D01*
X161507025Y-118122136D01*
X161851740Y-118466851D01*
X161867804Y-118484575D01*
X161882054Y-118503788D01*
X161894351Y-118524305D01*
X161904579Y-118545929D01*
X161912637Y-118568451D01*
X161918449Y-118591655D01*
X161921959Y-118615316D01*
X161923133Y-118639208D01*
X161921959Y-118663100D01*
X161918449Y-118686761D01*
X161912637Y-118709965D01*
X161904579Y-118732487D01*
X161894351Y-118754111D01*
X161882054Y-118774628D01*
X161867804Y-118793841D01*
X161851740Y-118811565D01*
X161206505Y-119456800D01*
X161188781Y-119472864D01*
X161169568Y-119487114D01*
X161149051Y-119499411D01*
X161127427Y-119509639D01*
X161104905Y-119517697D01*
X161081701Y-119523509D01*
X161058040Y-119527019D01*
X161034148Y-119528193D01*
X161010256Y-119527019D01*
X160986595Y-119523509D01*
X160963391Y-119517697D01*
X160940869Y-119509639D01*
X160919245Y-119499411D01*
X160898728Y-119487114D01*
X160879515Y-119472864D01*
X160861791Y-119456800D01*
X160517076Y-119112085D01*
X160501012Y-119094361D01*
X160486762Y-119075148D01*
X160474465Y-119054631D01*
X160464237Y-119033007D01*
X160456179Y-119010485D01*
X160450367Y-118987281D01*
X160446857Y-118963620D01*
X160445683Y-118939728D01*
X160446857Y-118915836D01*
X160450367Y-118892175D01*
X160456179Y-118868971D01*
X160464237Y-118846449D01*
X160474465Y-118824825D01*
X160486762Y-118804308D01*
X160501012Y-118785095D01*
X160517076Y-118767371D01*
X161162311Y-118122136D01*
X161180035Y-118106072D01*
X161199248Y-118091822D01*
X161219765Y-118079525D01*
X161241389Y-118069297D01*
X161263911Y-118061239D01*
X161287115Y-118055427D01*
X161310776Y-118051917D01*
X161334668Y-118050743D01*
X161358560Y-118051917D01*
X161358560Y-118051917D01*
G37*
D15*
X161184408Y-118789468D03*
D13*
G36*
X160032734Y-116726091D02*
G01*
X160056395Y-116729601D01*
X160079599Y-116735413D01*
X160102121Y-116743471D01*
X160123745Y-116753699D01*
X160144262Y-116765996D01*
X160163475Y-116780246D01*
X160181199Y-116796310D01*
X160525914Y-117141025D01*
X160541978Y-117158749D01*
X160556228Y-117177962D01*
X160568525Y-117198479D01*
X160578753Y-117220103D01*
X160586811Y-117242625D01*
X160592623Y-117265829D01*
X160596133Y-117289490D01*
X160597307Y-117313382D01*
X160596133Y-117337274D01*
X160592623Y-117360935D01*
X160586811Y-117384139D01*
X160578753Y-117406661D01*
X160568525Y-117428285D01*
X160556228Y-117448802D01*
X160541978Y-117468015D01*
X160525914Y-117485739D01*
X159880679Y-118130974D01*
X159862955Y-118147038D01*
X159843742Y-118161288D01*
X159823225Y-118173585D01*
X159801601Y-118183813D01*
X159779079Y-118191871D01*
X159755875Y-118197683D01*
X159732214Y-118201193D01*
X159708322Y-118202367D01*
X159684430Y-118201193D01*
X159660769Y-118197683D01*
X159637565Y-118191871D01*
X159615043Y-118183813D01*
X159593419Y-118173585D01*
X159572902Y-118161288D01*
X159553689Y-118147038D01*
X159535965Y-118130974D01*
X159191250Y-117786259D01*
X159175186Y-117768535D01*
X159160936Y-117749322D01*
X159148639Y-117728805D01*
X159138411Y-117707181D01*
X159130353Y-117684659D01*
X159124541Y-117661455D01*
X159121031Y-117637794D01*
X159119857Y-117613902D01*
X159121031Y-117590010D01*
X159124541Y-117566349D01*
X159130353Y-117543145D01*
X159138411Y-117520623D01*
X159148639Y-117498999D01*
X159160936Y-117478482D01*
X159175186Y-117459269D01*
X159191250Y-117441545D01*
X159836485Y-116796310D01*
X159854209Y-116780246D01*
X159873422Y-116765996D01*
X159893939Y-116753699D01*
X159915563Y-116743471D01*
X159938085Y-116735413D01*
X159961289Y-116729601D01*
X159984950Y-116726091D01*
X160008842Y-116724917D01*
X160032734Y-116726091D01*
X160032734Y-116726091D01*
G37*
D15*
X159858582Y-117463642D03*
D16*
X169761495Y-134496555D03*
D17*
X169761495Y-134496555D02*
X169761495Y-134496555D01*
D16*
X167965444Y-132700503D03*
D17*
X167965444Y-132700503D02*
X167965444Y-132700503D01*
D16*
X171557546Y-132700503D03*
D17*
X171557546Y-132700503D02*
X171557546Y-132700503D01*
D16*
X169761495Y-130904452D03*
D17*
X169761495Y-130904452D02*
X169761495Y-130904452D01*
D16*
X173353597Y-130904452D03*
D17*
X173353597Y-130904452D02*
X173353597Y-130904452D01*
D16*
X171557546Y-129108401D03*
D13*
G36*
X170355464Y-129108401D02*
G01*
X171557546Y-127906319D01*
X172759628Y-129108401D01*
X171557546Y-130310483D01*
X170355464Y-129108401D01*
X170355464Y-129108401D01*
G37*
D16*
X148771495Y-106416554D03*
D13*
G36*
X147569413Y-106416554D02*
G01*
X148771495Y-105214472D01*
X149973577Y-106416554D01*
X148771495Y-107618636D01*
X147569413Y-106416554D01*
X147569413Y-106416554D01*
G37*
D16*
X150567546Y-108212605D03*
D17*
X150567546Y-108212605D02*
X150567546Y-108212605D01*
D16*
X146975444Y-108212605D03*
D17*
X146975444Y-108212605D02*
X146975444Y-108212605D01*
D16*
X148771495Y-110008656D03*
D17*
X148771495Y-110008656D02*
X148771495Y-110008656D01*
D16*
X145179393Y-110008656D03*
D17*
X145179393Y-110008656D02*
X145179393Y-110008656D01*
D16*
X146975444Y-111804708D03*
D17*
X146975444Y-111804708D02*
X146975444Y-111804708D01*
D16*
X127261496Y-84756555D03*
D13*
G36*
X126059414Y-84756555D02*
G01*
X127261496Y-83554473D01*
X128463578Y-84756555D01*
X127261496Y-85958637D01*
X126059414Y-84756555D01*
X126059414Y-84756555D01*
G37*
D16*
X129057547Y-86552606D03*
D17*
X129057547Y-86552606D02*
X129057547Y-86552606D01*
D16*
X125465445Y-86552606D03*
D17*
X125465445Y-86552606D02*
X125465445Y-86552606D01*
D16*
X127261496Y-88348657D03*
D17*
X127261496Y-88348657D02*
X127261496Y-88348657D01*
D16*
X123669394Y-88348657D03*
D17*
X123669394Y-88348657D02*
X123669394Y-88348657D01*
D16*
X125465445Y-90144709D03*
D17*
X125465445Y-90144709D02*
X125465445Y-90144709D01*
D16*
X93695444Y-58552607D03*
D17*
X93695444Y-58552607D02*
X93695444Y-58552607D01*
D16*
X91899393Y-56756555D03*
D17*
X91899393Y-56756555D02*
X91899393Y-56756555D01*
D16*
X95491495Y-56756555D03*
D17*
X95491495Y-56756555D02*
X95491495Y-56756555D01*
D16*
X93695444Y-54960504D03*
D17*
X93695444Y-54960504D02*
X93695444Y-54960504D01*
D16*
X97287546Y-54960504D03*
D17*
X97287546Y-54960504D02*
X97287546Y-54960504D01*
D16*
X95491495Y-53164453D03*
D13*
G36*
X94289413Y-53164453D02*
G01*
X95491495Y-51962371D01*
X96693577Y-53164453D01*
X95491495Y-54366535D01*
X94289413Y-53164453D01*
X94289413Y-53164453D01*
G37*
D18*
X158056571Y-128226352D03*
D13*
G36*
X158799033Y-128261707D02*
G01*
X158091926Y-128968814D01*
X157314109Y-128190997D01*
X158021216Y-127483890D01*
X158799033Y-128261707D01*
X158799033Y-128261707D01*
G37*
D18*
X160177891Y-130347672D03*
D13*
G36*
X160920353Y-130383027D02*
G01*
X160213246Y-131090134D01*
X159435429Y-130312317D01*
X160142536Y-129605210D01*
X160920353Y-130383027D01*
X160920353Y-130383027D01*
G37*
D19*
X157070157Y-125571166D03*
D13*
G36*
X158077784Y-125518133D02*
G01*
X157017124Y-126578793D01*
X156062530Y-125624199D01*
X157123190Y-124563539D01*
X158077784Y-125518133D01*
X158077784Y-125518133D01*
G37*
D19*
X162833077Y-131334086D03*
D13*
G36*
X163840704Y-131281053D02*
G01*
X162780044Y-132341713D01*
X161825450Y-131387119D01*
X162886110Y-130326459D01*
X163840704Y-131281053D01*
X163840704Y-131281053D01*
G37*
D20*
X161061774Y-125503991D03*
D13*
G36*
X161839591Y-125009016D02*
G01*
X160566799Y-126281808D01*
X160283957Y-125998966D01*
X161556749Y-124726174D01*
X161839591Y-125009016D01*
X161839591Y-125009016D01*
G37*
D20*
X162900252Y-127342469D03*
D13*
G36*
X163678069Y-126847494D02*
G01*
X162405277Y-128120286D01*
X162122435Y-127837444D01*
X163395227Y-126564652D01*
X163678069Y-126847494D01*
X163678069Y-126847494D01*
G37*
D20*
X161521394Y-125963610D03*
D13*
G36*
X162299211Y-125468635D02*
G01*
X161026419Y-126741427D01*
X160743577Y-126458585D01*
X162016369Y-125185793D01*
X162299211Y-125468635D01*
X162299211Y-125468635D01*
G37*
D20*
X162440633Y-126882849D03*
D13*
G36*
X163218450Y-126387874D02*
G01*
X161945658Y-127660666D01*
X161662816Y-127377824D01*
X162935608Y-126105032D01*
X163218450Y-126387874D01*
X163218450Y-126387874D01*
G37*
D20*
X161981013Y-126423230D03*
D13*
G36*
X162758830Y-125928255D02*
G01*
X161486038Y-127201047D01*
X161203196Y-126918205D01*
X162475988Y-125645413D01*
X162758830Y-125928255D01*
X162758830Y-125928255D01*
G37*
D21*
X159541495Y-124266554D03*
D13*
G36*
X160566800Y-124301909D02*
G01*
X159576850Y-125291859D01*
X158516190Y-124231199D01*
X159506140Y-123241249D01*
X160566800Y-124301909D01*
X160566800Y-124301909D01*
G37*
D21*
X164137689Y-128862748D03*
D13*
G36*
X165162994Y-128898103D02*
G01*
X164173044Y-129888053D01*
X163112384Y-128827393D01*
X164102334Y-127837443D01*
X165162994Y-128898103D01*
X165162994Y-128898103D01*
G37*
G36*
X170870953Y-124443177D02*
G01*
X170894614Y-124446687D01*
X170917818Y-124452499D01*
X170940340Y-124460557D01*
X170961964Y-124470785D01*
X170982481Y-124483082D01*
X171001694Y-124497332D01*
X171019418Y-124513396D01*
X171664653Y-125158631D01*
X171680717Y-125176355D01*
X171694967Y-125195568D01*
X171707264Y-125216085D01*
X171717492Y-125237709D01*
X171725550Y-125260231D01*
X171731362Y-125283435D01*
X171734872Y-125307096D01*
X171736046Y-125330988D01*
X171734872Y-125354880D01*
X171731362Y-125378541D01*
X171725550Y-125401745D01*
X171717492Y-125424267D01*
X171707264Y-125445891D01*
X171694967Y-125466408D01*
X171680717Y-125485621D01*
X171664653Y-125503345D01*
X171319938Y-125848060D01*
X171302214Y-125864124D01*
X171283001Y-125878374D01*
X171262484Y-125890671D01*
X171240860Y-125900899D01*
X171218338Y-125908957D01*
X171195134Y-125914769D01*
X171171473Y-125918279D01*
X171147581Y-125919453D01*
X171123689Y-125918279D01*
X171100028Y-125914769D01*
X171076824Y-125908957D01*
X171054302Y-125900899D01*
X171032678Y-125890671D01*
X171012161Y-125878374D01*
X170992948Y-125864124D01*
X170975224Y-125848060D01*
X170329989Y-125202825D01*
X170313925Y-125185101D01*
X170299675Y-125165888D01*
X170287378Y-125145371D01*
X170277150Y-125123747D01*
X170269092Y-125101225D01*
X170263280Y-125078021D01*
X170259770Y-125054360D01*
X170258596Y-125030468D01*
X170259770Y-125006576D01*
X170263280Y-124982915D01*
X170269092Y-124959711D01*
X170277150Y-124937189D01*
X170287378Y-124915565D01*
X170299675Y-124895048D01*
X170313925Y-124875835D01*
X170329989Y-124858111D01*
X170674704Y-124513396D01*
X170692428Y-124497332D01*
X170711641Y-124483082D01*
X170732158Y-124470785D01*
X170753782Y-124460557D01*
X170776304Y-124452499D01*
X170799508Y-124446687D01*
X170823169Y-124443177D01*
X170847061Y-124442003D01*
X170870953Y-124443177D01*
X170870953Y-124443177D01*
G37*
D15*
X170997321Y-125180728D03*
D13*
G36*
X169545127Y-125769003D02*
G01*
X169568788Y-125772513D01*
X169591992Y-125778325D01*
X169614514Y-125786383D01*
X169636138Y-125796611D01*
X169656655Y-125808908D01*
X169675868Y-125823158D01*
X169693592Y-125839222D01*
X170338827Y-126484457D01*
X170354891Y-126502181D01*
X170369141Y-126521394D01*
X170381438Y-126541911D01*
X170391666Y-126563535D01*
X170399724Y-126586057D01*
X170405536Y-126609261D01*
X170409046Y-126632922D01*
X170410220Y-126656814D01*
X170409046Y-126680706D01*
X170405536Y-126704367D01*
X170399724Y-126727571D01*
X170391666Y-126750093D01*
X170381438Y-126771717D01*
X170369141Y-126792234D01*
X170354891Y-126811447D01*
X170338827Y-126829171D01*
X169994112Y-127173886D01*
X169976388Y-127189950D01*
X169957175Y-127204200D01*
X169936658Y-127216497D01*
X169915034Y-127226725D01*
X169892512Y-127234783D01*
X169869308Y-127240595D01*
X169845647Y-127244105D01*
X169821755Y-127245279D01*
X169797863Y-127244105D01*
X169774202Y-127240595D01*
X169750998Y-127234783D01*
X169728476Y-127226725D01*
X169706852Y-127216497D01*
X169686335Y-127204200D01*
X169667122Y-127189950D01*
X169649398Y-127173886D01*
X169004163Y-126528651D01*
X168988099Y-126510927D01*
X168973849Y-126491714D01*
X168961552Y-126471197D01*
X168951324Y-126449573D01*
X168943266Y-126427051D01*
X168937454Y-126403847D01*
X168933944Y-126380186D01*
X168932770Y-126356294D01*
X168933944Y-126332402D01*
X168937454Y-126308741D01*
X168943266Y-126285537D01*
X168951324Y-126263015D01*
X168961552Y-126241391D01*
X168973849Y-126220874D01*
X168988099Y-126201661D01*
X169004163Y-126183937D01*
X169348878Y-125839222D01*
X169366602Y-125823158D01*
X169385815Y-125808908D01*
X169406332Y-125796611D01*
X169427956Y-125786383D01*
X169450478Y-125778325D01*
X169473682Y-125772513D01*
X169497343Y-125769003D01*
X169521235Y-125767829D01*
X169545127Y-125769003D01*
X169545127Y-125769003D01*
G37*
D15*
X169671495Y-126506554D03*
D13*
G36*
X162995648Y-122879004D02*
G01*
X163019309Y-122882514D01*
X163042513Y-122888326D01*
X163065035Y-122896384D01*
X163086659Y-122906612D01*
X163107176Y-122918909D01*
X163126389Y-122933159D01*
X163144113Y-122949223D01*
X163488828Y-123293938D01*
X163504892Y-123311662D01*
X163519142Y-123330875D01*
X163531439Y-123351392D01*
X163541667Y-123373016D01*
X163549725Y-123395538D01*
X163555537Y-123418742D01*
X163559047Y-123442403D01*
X163560221Y-123466295D01*
X163559047Y-123490187D01*
X163555537Y-123513848D01*
X163549725Y-123537052D01*
X163541667Y-123559574D01*
X163531439Y-123581198D01*
X163519142Y-123601715D01*
X163504892Y-123620928D01*
X163488828Y-123638652D01*
X162843593Y-124283887D01*
X162825869Y-124299951D01*
X162806656Y-124314201D01*
X162786139Y-124326498D01*
X162764515Y-124336726D01*
X162741993Y-124344784D01*
X162718789Y-124350596D01*
X162695128Y-124354106D01*
X162671236Y-124355280D01*
X162647344Y-124354106D01*
X162623683Y-124350596D01*
X162600479Y-124344784D01*
X162577957Y-124336726D01*
X162556333Y-124326498D01*
X162535816Y-124314201D01*
X162516603Y-124299951D01*
X162498879Y-124283887D01*
X162154164Y-123939172D01*
X162138100Y-123921448D01*
X162123850Y-123902235D01*
X162111553Y-123881718D01*
X162101325Y-123860094D01*
X162093267Y-123837572D01*
X162087455Y-123814368D01*
X162083945Y-123790707D01*
X162082771Y-123766815D01*
X162083945Y-123742923D01*
X162087455Y-123719262D01*
X162093267Y-123696058D01*
X162101325Y-123673536D01*
X162111553Y-123651912D01*
X162123850Y-123631395D01*
X162138100Y-123612182D01*
X162154164Y-123594458D01*
X162799399Y-122949223D01*
X162817123Y-122933159D01*
X162836336Y-122918909D01*
X162856853Y-122906612D01*
X162878477Y-122896384D01*
X162900999Y-122888326D01*
X162924203Y-122882514D01*
X162947864Y-122879004D01*
X162971756Y-122877830D01*
X162995648Y-122879004D01*
X162995648Y-122879004D01*
G37*
D15*
X162821496Y-123616555D03*
D13*
G36*
X161669822Y-121553178D02*
G01*
X161693483Y-121556688D01*
X161716687Y-121562500D01*
X161739209Y-121570558D01*
X161760833Y-121580786D01*
X161781350Y-121593083D01*
X161800563Y-121607333D01*
X161818287Y-121623397D01*
X162163002Y-121968112D01*
X162179066Y-121985836D01*
X162193316Y-122005049D01*
X162205613Y-122025566D01*
X162215841Y-122047190D01*
X162223899Y-122069712D01*
X162229711Y-122092916D01*
X162233221Y-122116577D01*
X162234395Y-122140469D01*
X162233221Y-122164361D01*
X162229711Y-122188022D01*
X162223899Y-122211226D01*
X162215841Y-122233748D01*
X162205613Y-122255372D01*
X162193316Y-122275889D01*
X162179066Y-122295102D01*
X162163002Y-122312826D01*
X161517767Y-122958061D01*
X161500043Y-122974125D01*
X161480830Y-122988375D01*
X161460313Y-123000672D01*
X161438689Y-123010900D01*
X161416167Y-123018958D01*
X161392963Y-123024770D01*
X161369302Y-123028280D01*
X161345410Y-123029454D01*
X161321518Y-123028280D01*
X161297857Y-123024770D01*
X161274653Y-123018958D01*
X161252131Y-123010900D01*
X161230507Y-123000672D01*
X161209990Y-122988375D01*
X161190777Y-122974125D01*
X161173053Y-122958061D01*
X160828338Y-122613346D01*
X160812274Y-122595622D01*
X160798024Y-122576409D01*
X160785727Y-122555892D01*
X160775499Y-122534268D01*
X160767441Y-122511746D01*
X160761629Y-122488542D01*
X160758119Y-122464881D01*
X160756945Y-122440989D01*
X160758119Y-122417097D01*
X160761629Y-122393436D01*
X160767441Y-122370232D01*
X160775499Y-122347710D01*
X160785727Y-122326086D01*
X160798024Y-122305569D01*
X160812274Y-122286356D01*
X160828338Y-122268632D01*
X161473573Y-121623397D01*
X161491297Y-121607333D01*
X161510510Y-121593083D01*
X161531027Y-121580786D01*
X161552651Y-121570558D01*
X161575173Y-121562500D01*
X161598377Y-121556688D01*
X161622038Y-121553178D01*
X161645930Y-121552004D01*
X161669822Y-121553178D01*
X161669822Y-121553178D01*
G37*
D15*
X161495670Y-122290729D03*
D22*
X127351316Y-98402722D03*
D13*
G36*
X126750275Y-98438077D02*
G01*
X127386671Y-97801681D01*
X127952357Y-98367367D01*
X127315961Y-99003763D01*
X126750275Y-98438077D01*
X126750275Y-98438077D01*
G37*
D22*
X132725328Y-103776734D03*
D13*
G36*
X132124287Y-103812089D02*
G01*
X132760683Y-103175693D01*
X133326369Y-103741379D01*
X132689973Y-104377775D01*
X132124287Y-103812089D01*
X132124287Y-103812089D01*
G37*
D22*
X134358745Y-102157459D03*
D13*
G36*
X133757704Y-102192814D02*
G01*
X134394100Y-101556418D01*
X134959786Y-102122104D01*
X134323390Y-102758500D01*
X133757704Y-102192814D01*
X133757704Y-102192814D01*
G37*
D22*
X128977662Y-96776376D03*
D13*
G36*
X128376621Y-96811731D02*
G01*
X129013017Y-96175335D01*
X129578703Y-96741021D01*
X128942307Y-97377417D01*
X128376621Y-96811731D01*
X128376621Y-96811731D01*
G37*
D23*
X130763107Y-97182963D03*
D13*
G36*
X130002967Y-97306707D02*
G01*
X130886851Y-96422823D01*
X131523247Y-97059219D01*
X130639363Y-97943103D01*
X130002967Y-97306707D01*
X130002967Y-97306707D01*
G37*
D23*
X131823767Y-98243623D03*
D13*
G36*
X131063627Y-98367367D02*
G01*
X131947511Y-97483483D01*
X132583907Y-98119879D01*
X131700023Y-99003763D01*
X131063627Y-98367367D01*
X131063627Y-98367367D01*
G37*
D23*
X133945087Y-100364943D03*
D13*
G36*
X133184947Y-100488687D02*
G01*
X134068831Y-99604803D01*
X134705227Y-100241199D01*
X133821343Y-101125083D01*
X133184947Y-100488687D01*
X133184947Y-100488687D01*
G37*
G36*
X166509952Y-119443232D02*
G01*
X166534220Y-119446832D01*
X166558019Y-119452793D01*
X166581118Y-119461058D01*
X166603296Y-119471547D01*
X166624339Y-119484160D01*
X166644045Y-119498775D01*
X166662223Y-119515251D01*
X168012800Y-120865828D01*
X168029276Y-120884006D01*
X168043891Y-120903712D01*
X168056504Y-120924755D01*
X168066993Y-120946933D01*
X168075258Y-120970032D01*
X168081219Y-120993831D01*
X168084819Y-121018099D01*
X168086023Y-121042603D01*
X168084819Y-121067107D01*
X168081219Y-121091375D01*
X168075258Y-121115174D01*
X168066993Y-121138273D01*
X168056504Y-121160451D01*
X168043891Y-121181494D01*
X168029276Y-121201200D01*
X168012800Y-121219378D01*
X166174319Y-123057859D01*
X166156141Y-123074335D01*
X166136435Y-123088950D01*
X166115392Y-123101563D01*
X166093214Y-123112052D01*
X166070115Y-123120317D01*
X166046316Y-123126278D01*
X166022048Y-123129878D01*
X165997544Y-123131082D01*
X165973040Y-123129878D01*
X165948772Y-123126278D01*
X165924973Y-123120317D01*
X165901874Y-123112052D01*
X165879696Y-123101563D01*
X165858653Y-123088950D01*
X165838947Y-123074335D01*
X165820769Y-123057859D01*
X164470192Y-121707282D01*
X164453716Y-121689104D01*
X164439101Y-121669398D01*
X164426488Y-121648355D01*
X164415999Y-121626177D01*
X164407734Y-121603078D01*
X164401773Y-121579279D01*
X164398173Y-121555011D01*
X164396969Y-121530507D01*
X164398173Y-121506003D01*
X164401773Y-121481735D01*
X164407734Y-121457936D01*
X164415999Y-121434837D01*
X164426488Y-121412659D01*
X164439101Y-121391616D01*
X164453716Y-121371910D01*
X164470192Y-121353732D01*
X166308673Y-119515251D01*
X166326851Y-119498775D01*
X166346557Y-119484160D01*
X166367600Y-119471547D01*
X166389778Y-119461058D01*
X166412877Y-119452793D01*
X166436676Y-119446832D01*
X166460944Y-119443232D01*
X166485448Y-119442028D01*
X166509952Y-119443232D01*
X166509952Y-119443232D01*
G37*
D24*
X166241496Y-121286555D03*
D25*
X167836022Y-121042603D03*
X166485448Y-119692029D03*
X166916783Y-121961842D03*
X165566209Y-120611268D03*
X165997544Y-122881081D03*
X164646970Y-121530507D03*
D13*
G36*
X169123517Y-121098387D02*
G01*
X169138078Y-121100547D01*
X169152357Y-121104124D01*
X169166217Y-121109083D01*
X169179524Y-121115377D01*
X169192150Y-121122945D01*
X169203973Y-121131713D01*
X169214880Y-121141599D01*
X170134118Y-122060837D01*
X170144004Y-122071744D01*
X170152772Y-122083567D01*
X170160340Y-122096193D01*
X170166634Y-122109500D01*
X170171593Y-122123360D01*
X170175170Y-122137639D01*
X170177330Y-122152200D01*
X170178052Y-122166903D01*
X170177330Y-122181606D01*
X170175170Y-122196167D01*
X170171593Y-122210446D01*
X170166634Y-122224306D01*
X170160340Y-122237613D01*
X170152772Y-122250239D01*
X170144004Y-122262062D01*
X170134118Y-122272969D01*
X169921986Y-122485101D01*
X169911079Y-122494987D01*
X169899256Y-122503755D01*
X169886630Y-122511323D01*
X169873323Y-122517617D01*
X169859463Y-122522576D01*
X169845184Y-122526153D01*
X169830623Y-122528313D01*
X169815920Y-122529035D01*
X169801217Y-122528313D01*
X169786656Y-122526153D01*
X169772377Y-122522576D01*
X169758517Y-122517617D01*
X169745210Y-122511323D01*
X169732584Y-122503755D01*
X169720761Y-122494987D01*
X169709854Y-122485101D01*
X168790616Y-121565863D01*
X168780730Y-121554956D01*
X168771962Y-121543133D01*
X168764394Y-121530507D01*
X168758100Y-121517200D01*
X168753141Y-121503340D01*
X168749564Y-121489061D01*
X168747404Y-121474500D01*
X168746682Y-121459797D01*
X168747404Y-121445094D01*
X168749564Y-121430533D01*
X168753141Y-121416254D01*
X168758100Y-121402394D01*
X168764394Y-121389087D01*
X168771962Y-121376461D01*
X168780730Y-121364638D01*
X168790616Y-121353731D01*
X169002748Y-121141599D01*
X169013655Y-121131713D01*
X169025478Y-121122945D01*
X169038104Y-121115377D01*
X169051411Y-121109083D01*
X169065271Y-121104124D01*
X169079550Y-121100547D01*
X169094111Y-121098387D01*
X169108814Y-121097665D01*
X169123517Y-121098387D01*
X169123517Y-121098387D01*
G37*
D26*
X169462367Y-121813350D03*
D13*
G36*
X168225492Y-121996412D02*
G01*
X168240053Y-121998572D01*
X168254332Y-122002149D01*
X168268192Y-122007108D01*
X168281499Y-122013402D01*
X168294125Y-122020970D01*
X168305948Y-122029738D01*
X168316855Y-122039624D01*
X169236093Y-122958862D01*
X169245979Y-122969769D01*
X169254747Y-122981592D01*
X169262315Y-122994218D01*
X169268609Y-123007525D01*
X169273568Y-123021385D01*
X169277145Y-123035664D01*
X169279305Y-123050225D01*
X169280027Y-123064928D01*
X169279305Y-123079631D01*
X169277145Y-123094192D01*
X169273568Y-123108471D01*
X169268609Y-123122331D01*
X169262315Y-123135638D01*
X169254747Y-123148264D01*
X169245979Y-123160087D01*
X169236093Y-123170994D01*
X169023961Y-123383126D01*
X169013054Y-123393012D01*
X169001231Y-123401780D01*
X168988605Y-123409348D01*
X168975298Y-123415642D01*
X168961438Y-123420601D01*
X168947159Y-123424178D01*
X168932598Y-123426338D01*
X168917895Y-123427060D01*
X168903192Y-123426338D01*
X168888631Y-123424178D01*
X168874352Y-123420601D01*
X168860492Y-123415642D01*
X168847185Y-123409348D01*
X168834559Y-123401780D01*
X168822736Y-123393012D01*
X168811829Y-123383126D01*
X167892591Y-122463888D01*
X167882705Y-122452981D01*
X167873937Y-122441158D01*
X167866369Y-122428532D01*
X167860075Y-122415225D01*
X167855116Y-122401365D01*
X167851539Y-122387086D01*
X167849379Y-122372525D01*
X167848657Y-122357822D01*
X167849379Y-122343119D01*
X167851539Y-122328558D01*
X167855116Y-122314279D01*
X167860075Y-122300419D01*
X167866369Y-122287112D01*
X167873937Y-122274486D01*
X167882705Y-122262663D01*
X167892591Y-122251756D01*
X168104723Y-122039624D01*
X168115630Y-122029738D01*
X168127453Y-122020970D01*
X168140079Y-122013402D01*
X168153386Y-122007108D01*
X168167246Y-122002149D01*
X168181525Y-121998572D01*
X168196086Y-121996412D01*
X168210789Y-121995690D01*
X168225492Y-121996412D01*
X168225492Y-121996412D01*
G37*
D26*
X168564342Y-122711375D03*
D13*
G36*
X167327466Y-122894438D02*
G01*
X167342027Y-122896598D01*
X167356306Y-122900175D01*
X167370166Y-122905134D01*
X167383473Y-122911428D01*
X167396099Y-122918996D01*
X167407922Y-122927764D01*
X167418829Y-122937650D01*
X168338067Y-123856888D01*
X168347953Y-123867795D01*
X168356721Y-123879618D01*
X168364289Y-123892244D01*
X168370583Y-123905551D01*
X168375542Y-123919411D01*
X168379119Y-123933690D01*
X168381279Y-123948251D01*
X168382001Y-123962954D01*
X168381279Y-123977657D01*
X168379119Y-123992218D01*
X168375542Y-124006497D01*
X168370583Y-124020357D01*
X168364289Y-124033664D01*
X168356721Y-124046290D01*
X168347953Y-124058113D01*
X168338067Y-124069020D01*
X168125935Y-124281152D01*
X168115028Y-124291038D01*
X168103205Y-124299806D01*
X168090579Y-124307374D01*
X168077272Y-124313668D01*
X168063412Y-124318627D01*
X168049133Y-124322204D01*
X168034572Y-124324364D01*
X168019869Y-124325086D01*
X168005166Y-124324364D01*
X167990605Y-124322204D01*
X167976326Y-124318627D01*
X167962466Y-124313668D01*
X167949159Y-124307374D01*
X167936533Y-124299806D01*
X167924710Y-124291038D01*
X167913803Y-124281152D01*
X166994565Y-123361914D01*
X166984679Y-123351007D01*
X166975911Y-123339184D01*
X166968343Y-123326558D01*
X166962049Y-123313251D01*
X166957090Y-123299391D01*
X166953513Y-123285112D01*
X166951353Y-123270551D01*
X166950631Y-123255848D01*
X166951353Y-123241145D01*
X166953513Y-123226584D01*
X166957090Y-123212305D01*
X166962049Y-123198445D01*
X166968343Y-123185138D01*
X166975911Y-123172512D01*
X166984679Y-123160689D01*
X166994565Y-123149782D01*
X167206697Y-122937650D01*
X167217604Y-122927764D01*
X167229427Y-122918996D01*
X167242053Y-122911428D01*
X167255360Y-122905134D01*
X167269220Y-122900175D01*
X167283499Y-122896598D01*
X167298060Y-122894438D01*
X167312763Y-122893716D01*
X167327466Y-122894438D01*
X167327466Y-122894438D01*
G37*
D26*
X167666316Y-123609401D03*
D13*
G36*
X166429441Y-123792463D02*
G01*
X166444002Y-123794623D01*
X166458281Y-123798200D01*
X166472141Y-123803159D01*
X166485448Y-123809453D01*
X166498074Y-123817021D01*
X166509897Y-123825789D01*
X166520804Y-123835675D01*
X167440042Y-124754913D01*
X167449928Y-124765820D01*
X167458696Y-124777643D01*
X167466264Y-124790269D01*
X167472558Y-124803576D01*
X167477517Y-124817436D01*
X167481094Y-124831715D01*
X167483254Y-124846276D01*
X167483976Y-124860979D01*
X167483254Y-124875682D01*
X167481094Y-124890243D01*
X167477517Y-124904522D01*
X167472558Y-124918382D01*
X167466264Y-124931689D01*
X167458696Y-124944315D01*
X167449928Y-124956138D01*
X167440042Y-124967045D01*
X167227910Y-125179177D01*
X167217003Y-125189063D01*
X167205180Y-125197831D01*
X167192554Y-125205399D01*
X167179247Y-125211693D01*
X167165387Y-125216652D01*
X167151108Y-125220229D01*
X167136547Y-125222389D01*
X167121844Y-125223111D01*
X167107141Y-125222389D01*
X167092580Y-125220229D01*
X167078301Y-125216652D01*
X167064441Y-125211693D01*
X167051134Y-125205399D01*
X167038508Y-125197831D01*
X167026685Y-125189063D01*
X167015778Y-125179177D01*
X166096540Y-124259939D01*
X166086654Y-124249032D01*
X166077886Y-124237209D01*
X166070318Y-124224583D01*
X166064024Y-124211276D01*
X166059065Y-124197416D01*
X166055488Y-124183137D01*
X166053328Y-124168576D01*
X166052606Y-124153873D01*
X166053328Y-124139170D01*
X166055488Y-124124609D01*
X166059065Y-124110330D01*
X166064024Y-124096470D01*
X166070318Y-124083163D01*
X166077886Y-124070537D01*
X166086654Y-124058714D01*
X166096540Y-124047807D01*
X166308672Y-123835675D01*
X166319579Y-123825789D01*
X166331402Y-123817021D01*
X166344028Y-123809453D01*
X166357335Y-123803159D01*
X166371195Y-123798200D01*
X166385474Y-123794623D01*
X166400035Y-123792463D01*
X166414738Y-123791741D01*
X166429441Y-123792463D01*
X166429441Y-123792463D01*
G37*
D26*
X166768291Y-124507426D03*
D13*
G36*
X162681775Y-120044797D02*
G01*
X162696336Y-120046957D01*
X162710615Y-120050534D01*
X162724475Y-120055493D01*
X162737782Y-120061787D01*
X162750408Y-120069355D01*
X162762231Y-120078123D01*
X162773138Y-120088009D01*
X163692376Y-121007247D01*
X163702262Y-121018154D01*
X163711030Y-121029977D01*
X163718598Y-121042603D01*
X163724892Y-121055910D01*
X163729851Y-121069770D01*
X163733428Y-121084049D01*
X163735588Y-121098610D01*
X163736310Y-121113313D01*
X163735588Y-121128016D01*
X163733428Y-121142577D01*
X163729851Y-121156856D01*
X163724892Y-121170716D01*
X163718598Y-121184023D01*
X163711030Y-121196649D01*
X163702262Y-121208472D01*
X163692376Y-121219379D01*
X163480244Y-121431511D01*
X163469337Y-121441397D01*
X163457514Y-121450165D01*
X163444888Y-121457733D01*
X163431581Y-121464027D01*
X163417721Y-121468986D01*
X163403442Y-121472563D01*
X163388881Y-121474723D01*
X163374178Y-121475445D01*
X163359475Y-121474723D01*
X163344914Y-121472563D01*
X163330635Y-121468986D01*
X163316775Y-121464027D01*
X163303468Y-121457733D01*
X163290842Y-121450165D01*
X163279019Y-121441397D01*
X163268112Y-121431511D01*
X162348874Y-120512273D01*
X162338988Y-120501366D01*
X162330220Y-120489543D01*
X162322652Y-120476917D01*
X162316358Y-120463610D01*
X162311399Y-120449750D01*
X162307822Y-120435471D01*
X162305662Y-120420910D01*
X162304940Y-120406207D01*
X162305662Y-120391504D01*
X162307822Y-120376943D01*
X162311399Y-120362664D01*
X162316358Y-120348804D01*
X162322652Y-120335497D01*
X162330220Y-120322871D01*
X162338988Y-120311048D01*
X162348874Y-120300141D01*
X162561006Y-120088009D01*
X162571913Y-120078123D01*
X162583736Y-120069355D01*
X162596362Y-120061787D01*
X162609669Y-120055493D01*
X162623529Y-120050534D01*
X162637808Y-120046957D01*
X162652369Y-120044797D01*
X162667072Y-120044075D01*
X162681775Y-120044797D01*
X162681775Y-120044797D01*
G37*
D26*
X163020625Y-120759760D03*
D13*
G36*
X163579800Y-119146772D02*
G01*
X163594361Y-119148932D01*
X163608640Y-119152509D01*
X163622500Y-119157468D01*
X163635807Y-119163762D01*
X163648433Y-119171330D01*
X163660256Y-119180098D01*
X163671163Y-119189984D01*
X164590401Y-120109222D01*
X164600287Y-120120129D01*
X164609055Y-120131952D01*
X164616623Y-120144578D01*
X164622917Y-120157885D01*
X164627876Y-120171745D01*
X164631453Y-120186024D01*
X164633613Y-120200585D01*
X164634335Y-120215288D01*
X164633613Y-120229991D01*
X164631453Y-120244552D01*
X164627876Y-120258831D01*
X164622917Y-120272691D01*
X164616623Y-120285998D01*
X164609055Y-120298624D01*
X164600287Y-120310447D01*
X164590401Y-120321354D01*
X164378269Y-120533486D01*
X164367362Y-120543372D01*
X164355539Y-120552140D01*
X164342913Y-120559708D01*
X164329606Y-120566002D01*
X164315746Y-120570961D01*
X164301467Y-120574538D01*
X164286906Y-120576698D01*
X164272203Y-120577420D01*
X164257500Y-120576698D01*
X164242939Y-120574538D01*
X164228660Y-120570961D01*
X164214800Y-120566002D01*
X164201493Y-120559708D01*
X164188867Y-120552140D01*
X164177044Y-120543372D01*
X164166137Y-120533486D01*
X163246899Y-119614248D01*
X163237013Y-119603341D01*
X163228245Y-119591518D01*
X163220677Y-119578892D01*
X163214383Y-119565585D01*
X163209424Y-119551725D01*
X163205847Y-119537446D01*
X163203687Y-119522885D01*
X163202965Y-119508182D01*
X163203687Y-119493479D01*
X163205847Y-119478918D01*
X163209424Y-119464639D01*
X163214383Y-119450779D01*
X163220677Y-119437472D01*
X163228245Y-119424846D01*
X163237013Y-119413023D01*
X163246899Y-119402116D01*
X163459031Y-119189984D01*
X163469938Y-119180098D01*
X163481761Y-119171330D01*
X163494387Y-119163762D01*
X163507694Y-119157468D01*
X163521554Y-119152509D01*
X163535833Y-119148932D01*
X163550394Y-119146772D01*
X163565097Y-119146050D01*
X163579800Y-119146772D01*
X163579800Y-119146772D01*
G37*
D26*
X163918650Y-119861735D03*
D13*
G36*
X164477826Y-118248746D02*
G01*
X164492387Y-118250906D01*
X164506666Y-118254483D01*
X164520526Y-118259442D01*
X164533833Y-118265736D01*
X164546459Y-118273304D01*
X164558282Y-118282072D01*
X164569189Y-118291958D01*
X165488427Y-119211196D01*
X165498313Y-119222103D01*
X165507081Y-119233926D01*
X165514649Y-119246552D01*
X165520943Y-119259859D01*
X165525902Y-119273719D01*
X165529479Y-119287998D01*
X165531639Y-119302559D01*
X165532361Y-119317262D01*
X165531639Y-119331965D01*
X165529479Y-119346526D01*
X165525902Y-119360805D01*
X165520943Y-119374665D01*
X165514649Y-119387972D01*
X165507081Y-119400598D01*
X165498313Y-119412421D01*
X165488427Y-119423328D01*
X165276295Y-119635460D01*
X165265388Y-119645346D01*
X165253565Y-119654114D01*
X165240939Y-119661682D01*
X165227632Y-119667976D01*
X165213772Y-119672935D01*
X165199493Y-119676512D01*
X165184932Y-119678672D01*
X165170229Y-119679394D01*
X165155526Y-119678672D01*
X165140965Y-119676512D01*
X165126686Y-119672935D01*
X165112826Y-119667976D01*
X165099519Y-119661682D01*
X165086893Y-119654114D01*
X165075070Y-119645346D01*
X165064163Y-119635460D01*
X164144925Y-118716222D01*
X164135039Y-118705315D01*
X164126271Y-118693492D01*
X164118703Y-118680866D01*
X164112409Y-118667559D01*
X164107450Y-118653699D01*
X164103873Y-118639420D01*
X164101713Y-118624859D01*
X164100991Y-118610156D01*
X164101713Y-118595453D01*
X164103873Y-118580892D01*
X164107450Y-118566613D01*
X164112409Y-118552753D01*
X164118703Y-118539446D01*
X164126271Y-118526820D01*
X164135039Y-118514997D01*
X164144925Y-118504090D01*
X164357057Y-118291958D01*
X164367964Y-118282072D01*
X164379787Y-118273304D01*
X164392413Y-118265736D01*
X164405720Y-118259442D01*
X164419580Y-118254483D01*
X164433859Y-118250906D01*
X164448420Y-118248746D01*
X164463123Y-118248024D01*
X164477826Y-118248746D01*
X164477826Y-118248746D01*
G37*
D26*
X164816676Y-118963709D03*
D13*
G36*
X165375851Y-117350721D02*
G01*
X165390412Y-117352881D01*
X165404691Y-117356458D01*
X165418551Y-117361417D01*
X165431858Y-117367711D01*
X165444484Y-117375279D01*
X165456307Y-117384047D01*
X165467214Y-117393933D01*
X166386452Y-118313171D01*
X166396338Y-118324078D01*
X166405106Y-118335901D01*
X166412674Y-118348527D01*
X166418968Y-118361834D01*
X166423927Y-118375694D01*
X166427504Y-118389973D01*
X166429664Y-118404534D01*
X166430386Y-118419237D01*
X166429664Y-118433940D01*
X166427504Y-118448501D01*
X166423927Y-118462780D01*
X166418968Y-118476640D01*
X166412674Y-118489947D01*
X166405106Y-118502573D01*
X166396338Y-118514396D01*
X166386452Y-118525303D01*
X166174320Y-118737435D01*
X166163413Y-118747321D01*
X166151590Y-118756089D01*
X166138964Y-118763657D01*
X166125657Y-118769951D01*
X166111797Y-118774910D01*
X166097518Y-118778487D01*
X166082957Y-118780647D01*
X166068254Y-118781369D01*
X166053551Y-118780647D01*
X166038990Y-118778487D01*
X166024711Y-118774910D01*
X166010851Y-118769951D01*
X165997544Y-118763657D01*
X165984918Y-118756089D01*
X165973095Y-118747321D01*
X165962188Y-118737435D01*
X165042950Y-117818197D01*
X165033064Y-117807290D01*
X165024296Y-117795467D01*
X165016728Y-117782841D01*
X165010434Y-117769534D01*
X165005475Y-117755674D01*
X165001898Y-117741395D01*
X164999738Y-117726834D01*
X164999016Y-117712131D01*
X164999738Y-117697428D01*
X165001898Y-117682867D01*
X165005475Y-117668588D01*
X165010434Y-117654728D01*
X165016728Y-117641421D01*
X165024296Y-117628795D01*
X165033064Y-117616972D01*
X165042950Y-117606065D01*
X165255082Y-117393933D01*
X165265989Y-117384047D01*
X165277812Y-117375279D01*
X165290438Y-117367711D01*
X165303745Y-117361417D01*
X165317605Y-117356458D01*
X165331884Y-117352881D01*
X165346445Y-117350721D01*
X165361148Y-117349999D01*
X165375851Y-117350721D01*
X165375851Y-117350721D01*
G37*
D26*
X165714701Y-118065684D03*
D27*
X151241495Y-113276555D03*
D13*
G36*
X153292105Y-112640159D02*
G01*
X150605099Y-115327165D01*
X149190885Y-113912951D01*
X151877891Y-111225945D01*
X153292105Y-112640159D01*
X153292105Y-112640159D01*
G37*
D28*
X155696267Y-117731327D03*
D13*
G36*
X156933704Y-117908104D02*
G01*
X155873044Y-118968764D01*
X154458830Y-117554550D01*
X155519490Y-116493890D01*
X156933704Y-117908104D01*
X156933704Y-117908104D01*
G37*
D28*
X154069922Y-119357673D03*
D13*
G36*
X155307359Y-119534450D02*
G01*
X154246699Y-120595110D01*
X152832485Y-119180896D01*
X153893145Y-118120236D01*
X155307359Y-119534450D01*
X155307359Y-119534450D01*
G37*
D28*
X157322613Y-116104982D03*
D13*
G36*
X158560050Y-116281759D02*
G01*
X157499390Y-117342419D01*
X156085176Y-115928205D01*
X157145836Y-114867545D01*
X158560050Y-116281759D01*
X158560050Y-116281759D01*
G37*
D26*
X105641495Y-69326554D03*
X107901495Y-66636554D03*
X110091495Y-78886555D03*
X172941495Y-126706555D03*
X163071495Y-116466554D03*
D29*
X175101496Y-137926555D02*
X175031496Y-137996555D01*
X175551496Y-137926555D02*
X175101496Y-137926555D01*
X175031496Y-137996555D02*
X173371495Y-137996554D01*
X173371495Y-137996554D02*
X172651495Y-138716554D01*
X172651495Y-138716554D02*
X172651495Y-140796554D01*
X156381935Y-122886994D02*
X156381934Y-121246993D01*
X156631495Y-123136555D02*
X156381935Y-122886994D01*
X156381934Y-121246993D02*
X154541496Y-119406555D01*
X157986029Y-121186555D02*
X156751496Y-122421088D01*
X158771495Y-121186554D02*
X157986029Y-121186555D01*
X156751496Y-122421088D02*
X156751496Y-123106555D01*
X132156842Y-102112215D02*
X131157157Y-102112216D01*
X154069922Y-119357673D02*
X153292105Y-118579856D01*
X148624483Y-118579855D02*
X132156842Y-102112215D01*
X153292105Y-118579856D02*
X148624483Y-118579855D01*
X131157157Y-102112216D02*
X128621495Y-99576554D01*
X128621495Y-99576554D02*
X128621496Y-98126555D01*
X128621496Y-98126555D02*
X118791495Y-88296554D01*
X118791495Y-88296554D02*
X118791495Y-85686555D01*
X118791495Y-85686555D02*
X121341496Y-83136555D01*
X162496361Y-120759759D02*
X162003156Y-120266555D01*
X163020624Y-120759760D02*
X162496361Y-120759759D01*
X162003156Y-120266555D02*
X159741496Y-120266555D01*
X159741496Y-120266555D02*
X158921495Y-121086555D01*
X161061775Y-125503991D02*
X159794338Y-124236555D01*
X159794338Y-124236555D02*
X159661495Y-124236555D01*
X167666315Y-123609401D02*
X166161495Y-122104581D01*
X166161495Y-122104581D02*
X166161495Y-121886555D01*
X166161495Y-121886555D02*
X166171495Y-121876555D01*
X169671495Y-126506554D02*
X172741495Y-126506555D01*
X172741495Y-126506555D02*
X172941495Y-126706555D01*
X161184408Y-118789468D02*
X163071495Y-116902381D01*
X163071495Y-116902381D02*
X163071495Y-116466554D01*
X158011354Y-119295045D02*
X160704955Y-119295045D01*
X157445670Y-119860729D02*
X158011354Y-119295045D01*
X160704955Y-119295045D02*
X161260000Y-118740000D01*
X161495670Y-122290729D02*
X165259271Y-122290729D01*
X165259271Y-122290729D02*
X165510000Y-122040000D01*
X162900253Y-127342470D02*
X166265581Y-127342470D01*
X166265581Y-127342470D02*
X166941495Y-126666555D01*
X166941495Y-126666555D02*
X166941495Y-124676555D01*
X164991496Y-125776555D02*
X162911495Y-123696554D01*
X162911495Y-123696554D02*
X162691495Y-123696555D01*
X159073117Y-117463642D02*
X158660204Y-117876555D01*
X159858582Y-117463642D02*
X159073117Y-117463642D01*
X158660204Y-117876555D02*
X156071496Y-117876555D01*
X155696267Y-117731327D02*
X151441495Y-113476555D01*
X151441495Y-113476555D02*
X151421495Y-113476555D01*
X132687156Y-101581901D02*
X132687156Y-99082215D01*
X151241495Y-113276555D02*
X144381809Y-113276554D01*
X144381809Y-113276554D02*
X132687156Y-101581901D01*
X132687156Y-99082215D02*
X131801496Y-98196555D01*
X141447074Y-100753851D02*
X148929777Y-108236555D01*
X133945087Y-100364943D02*
X134333995Y-100753851D01*
X134333995Y-100753851D02*
X141447074Y-100753851D01*
X148929777Y-108236555D02*
X150761495Y-108236555D01*
X98137545Y-55810502D02*
X99105443Y-55810503D01*
X97287546Y-54960504D02*
X98137545Y-55810502D01*
X99105443Y-55810503D02*
X105631495Y-62336555D01*
X105631495Y-62336555D02*
X105631496Y-67046554D01*
X105631496Y-67046554D02*
X103841495Y-68836555D01*
X103841495Y-71531303D02*
X111346746Y-79036555D01*
X103841495Y-68836555D02*
X103841495Y-71531303D01*
X111346746Y-79036555D02*
X115851495Y-79036554D01*
X115851495Y-79036554D02*
X119071495Y-75816554D01*
X119071495Y-75816554D02*
X122691496Y-75816554D01*
X122691496Y-75816554D02*
X130411496Y-83536555D01*
X130411496Y-83536555D02*
X130411496Y-85316555D01*
X130411496Y-85316555D02*
X129241496Y-86486555D01*
X129057546Y-87754687D02*
X134061495Y-92758636D01*
X129057546Y-86552605D02*
X129057546Y-87754687D01*
X134061495Y-92758636D02*
X134061495Y-100256555D01*
X170997321Y-125180728D02*
X168731495Y-122914902D01*
X168731495Y-122914902D02*
X168731496Y-122756555D01*
D30*
G36*
X152217132Y-119339856D02*
G01*
X152242983Y-119425076D01*
X152301948Y-119535390D01*
X152381300Y-119632081D01*
X153795514Y-121046295D01*
X153892205Y-121125647D01*
X154002519Y-121184612D01*
X154122217Y-121220922D01*
X154246699Y-121233182D01*
X154371181Y-121220922D01*
X154424062Y-121204881D01*
X154382138Y-121246805D01*
X154494389Y-121359056D01*
X154269886Y-121359056D01*
X153974795Y-121649803D01*
X153895442Y-121746494D01*
X153836478Y-121856809D01*
X153800168Y-121976507D01*
X153787908Y-122100988D01*
X153800168Y-122225469D01*
X153836478Y-122345168D01*
X153895442Y-122455482D01*
X153974795Y-122552173D01*
X154119626Y-122692660D01*
X154344132Y-122692660D01*
X155086064Y-121950728D01*
X155071922Y-121936586D01*
X155251527Y-121756981D01*
X155265669Y-121771123D01*
X155279812Y-121756981D01*
X155459417Y-121936586D01*
X155445274Y-121950728D01*
X155459417Y-121964871D01*
X155279812Y-122144476D01*
X155265669Y-122130333D01*
X154523737Y-122872265D01*
X154523737Y-123096771D01*
X154664224Y-123241602D01*
X154760915Y-123320955D01*
X154871229Y-123379919D01*
X154990928Y-123416229D01*
X155115409Y-123428489D01*
X155215504Y-123418631D01*
X155214698Y-123426814D01*
X155231642Y-123598849D01*
X155281823Y-123764273D01*
X155363312Y-123916728D01*
X155472978Y-124050356D01*
X155817693Y-124395071D01*
X155951321Y-124504737D01*
X156103776Y-124586226D01*
X156269200Y-124636407D01*
X156345903Y-124643962D01*
X156345903Y-124667307D01*
X157070157Y-125391561D01*
X157084300Y-125377419D01*
X157263905Y-125557024D01*
X157249762Y-125571166D01*
X157974016Y-126295420D01*
X158198523Y-126295420D01*
X158528969Y-125969318D01*
X158608322Y-125872627D01*
X158667286Y-125762313D01*
X158703596Y-125642614D01*
X158715856Y-125518133D01*
X158703596Y-125393652D01*
X158670059Y-125283094D01*
X158687311Y-125300346D01*
X158799563Y-125188094D01*
X158799563Y-125412597D01*
X159125665Y-125743044D01*
X159222356Y-125822397D01*
X159316678Y-125872813D01*
X159322903Y-125887841D01*
X159419756Y-126032791D01*
X159543025Y-126156060D01*
X159687975Y-126252913D01*
X159703755Y-126259449D01*
X159748843Y-126346512D01*
X159812493Y-126425528D01*
X160036999Y-126425528D01*
X160108891Y-126353636D01*
X160115841Y-126353636D01*
X160105505Y-126458585D01*
X160117765Y-126583067D01*
X160140237Y-126657147D01*
X160140237Y-126753272D01*
X160211949Y-126811039D01*
X160213040Y-126813079D01*
X160292392Y-126909770D01*
X160575234Y-127192612D01*
X160671925Y-127271964D01*
X160672403Y-127272219D01*
X160672659Y-127272699D01*
X160752011Y-127369390D01*
X161034853Y-127652232D01*
X161131544Y-127731584D01*
X161132024Y-127731840D01*
X161132279Y-127732318D01*
X161211631Y-127829009D01*
X161494473Y-128111851D01*
X161591164Y-128191203D01*
X161591642Y-128191458D01*
X161591898Y-128191938D01*
X161671250Y-128288629D01*
X161954092Y-128571471D01*
X162050783Y-128650823D01*
X162145105Y-128701240D01*
X162151330Y-128716268D01*
X162248183Y-128861218D01*
X162371452Y-128984487D01*
X162516402Y-129081340D01*
X162531430Y-129087565D01*
X162581846Y-129181887D01*
X162661199Y-129278578D01*
X162991646Y-129604680D01*
X163216149Y-129604680D01*
X163103897Y-129716932D01*
X163121149Y-129734184D01*
X163010591Y-129700647D01*
X162886110Y-129688387D01*
X162761629Y-129700647D01*
X162641930Y-129736957D01*
X162531616Y-129795921D01*
X162434925Y-129875274D01*
X162108823Y-130205720D01*
X162108823Y-130430227D01*
X162833077Y-131154481D01*
X162847220Y-131140339D01*
X163026825Y-131319944D01*
X163012682Y-131334086D01*
X163736936Y-132058340D01*
X163961443Y-132058340D01*
X164291889Y-131732238D01*
X164371242Y-131635547D01*
X164430206Y-131525233D01*
X164466516Y-131405534D01*
X164478776Y-131281053D01*
X164466516Y-131156572D01*
X164430206Y-131036873D01*
X164371242Y-130926559D01*
X164291889Y-130829868D01*
X164014476Y-130556799D01*
X163789972Y-130556799D01*
X163889993Y-130456778D01*
X163928865Y-130477555D01*
X164048563Y-130513864D01*
X164173044Y-130526125D01*
X164297526Y-130513864D01*
X164417224Y-130477555D01*
X164527538Y-130418591D01*
X164624229Y-130339238D01*
X164914976Y-130044147D01*
X164914976Y-129819640D01*
X164137689Y-129042353D01*
X164123547Y-129056496D01*
X163943942Y-128876891D01*
X163958084Y-128862748D01*
X163943942Y-128848606D01*
X164123547Y-128669001D01*
X164137689Y-128683143D01*
X164151832Y-128669001D01*
X164331437Y-128848606D01*
X164317294Y-128862748D01*
X165094581Y-129640035D01*
X165319088Y-129640035D01*
X165614179Y-129349288D01*
X165693532Y-129252597D01*
X165752496Y-129142283D01*
X165788805Y-129022585D01*
X165801066Y-128898103D01*
X165788805Y-128773622D01*
X165752496Y-128653924D01*
X165693532Y-128543609D01*
X165614179Y-128446918D01*
X165283732Y-128120816D01*
X165059229Y-128120816D01*
X165077575Y-128102470D01*
X165425092Y-128102470D01*
X165543519Y-128220897D01*
X165677147Y-128330563D01*
X165829602Y-128412052D01*
X165995026Y-128462233D01*
X166167061Y-128479177D01*
X166339096Y-128462233D01*
X166504520Y-128412052D01*
X166656975Y-128330563D01*
X166790603Y-128220897D01*
X167435838Y-127575662D01*
X167545504Y-127442034D01*
X167626993Y-127289579D01*
X167630556Y-127277831D01*
X169079823Y-127277831D01*
X169079823Y-127502337D01*
X169370570Y-127797428D01*
X169467261Y-127876781D01*
X169577576Y-127935745D01*
X169697274Y-127972055D01*
X169821755Y-127984315D01*
X169946236Y-127972055D01*
X170065935Y-127935745D01*
X170176249Y-127876781D01*
X170201214Y-127856292D01*
X170709548Y-127856292D01*
X170709548Y-128080798D01*
X171557546Y-128928796D01*
X172405544Y-128080798D01*
X172405544Y-127856292D01*
X172008731Y-127455134D01*
X171912040Y-127375781D01*
X171801726Y-127316817D01*
X171682027Y-127280508D01*
X171557546Y-127268248D01*
X171433065Y-127280508D01*
X171313366Y-127316817D01*
X171203052Y-127375781D01*
X171106361Y-127455134D01*
X170709548Y-127856292D01*
X170201214Y-127856292D01*
X170272940Y-127797428D01*
X170413427Y-127652597D01*
X170413427Y-127428091D01*
X169671495Y-126686159D01*
X169079823Y-127277831D01*
X167630556Y-127277831D01*
X167677174Y-127124155D01*
X167694118Y-126952120D01*
X167683076Y-126840009D01*
X167690498Y-126815541D01*
X167701495Y-126703888D01*
X167701495Y-126703878D01*
X167705171Y-126666555D01*
X167701495Y-126629232D01*
X167701495Y-126356294D01*
X168193734Y-126356294D01*
X168205994Y-126480775D01*
X168242304Y-126600473D01*
X168301268Y-126710788D01*
X168380621Y-126807479D01*
X168675712Y-127098226D01*
X168900218Y-127098226D01*
X169491890Y-126506554D01*
X168749958Y-125764622D01*
X168525452Y-125764622D01*
X168380621Y-125905109D01*
X168301268Y-126001800D01*
X168242304Y-126112114D01*
X168205994Y-126231813D01*
X168193734Y-126356294D01*
X167701495Y-126356294D01*
X167701495Y-125607962D01*
X167891227Y-125418230D01*
X167989234Y-125298808D01*
X168062060Y-125162561D01*
X168106282Y-125016779D01*
X168144351Y-125013030D01*
X168264049Y-124976721D01*
X168374363Y-124917756D01*
X168471054Y-124838403D01*
X168478958Y-124826155D01*
X168478958Y-124601649D01*
X167666316Y-123789006D01*
X167652174Y-123803149D01*
X167472569Y-123623544D01*
X167486711Y-123609401D01*
X167472568Y-123595259D01*
X167652174Y-123415654D01*
X167666316Y-123429796D01*
X167680459Y-123415654D01*
X167860064Y-123595259D01*
X167845921Y-123609401D01*
X168658564Y-124422043D01*
X168883070Y-124422043D01*
X168895318Y-124414139D01*
X168974671Y-124317448D01*
X169004129Y-124262337D01*
X169634129Y-124892337D01*
X169620524Y-125030468D01*
X169621330Y-125038651D01*
X169521235Y-125028793D01*
X169396754Y-125041053D01*
X169277055Y-125077363D01*
X169166741Y-125136327D01*
X169070050Y-125215680D01*
X168929563Y-125360511D01*
X168929563Y-125585017D01*
X169671495Y-126326949D01*
X169685638Y-126312807D01*
X169865243Y-126492412D01*
X169851100Y-126506554D01*
X170593032Y-127248486D01*
X170817538Y-127248486D01*
X170962369Y-127107999D01*
X171041722Y-127011308D01*
X171100686Y-126900994D01*
X171136996Y-126781295D01*
X171149256Y-126656814D01*
X171139398Y-126556719D01*
X171147581Y-126557525D01*
X171319616Y-126540581D01*
X171485040Y-126490400D01*
X171637495Y-126408911D01*
X171771123Y-126299245D01*
X172115838Y-125954530D01*
X172225504Y-125820902D01*
X172306993Y-125668447D01*
X172357174Y-125503023D01*
X172374118Y-125330988D01*
X172357174Y-125158953D01*
X172306993Y-124993529D01*
X172225504Y-124841074D01*
X172115838Y-124707446D01*
X171470603Y-124062211D01*
X171336975Y-123952545D01*
X171184520Y-123871056D01*
X171019096Y-123820875D01*
X170847061Y-123803931D01*
X170708930Y-123817536D01*
X170026207Y-123134813D01*
X170117502Y-123107119D01*
X170253749Y-123034293D01*
X170373171Y-122936286D01*
X170585303Y-122724154D01*
X170665407Y-122626547D01*
X175795861Y-127776063D01*
X176880794Y-129655135D01*
X177955206Y-131598168D01*
X178456788Y-132558458D01*
X178930194Y-133514430D01*
X179369427Y-134463187D01*
X179769519Y-135403692D01*
X180125644Y-136334906D01*
X180433063Y-137255724D01*
X180687239Y-138165057D01*
X180883755Y-139061897D01*
X181018451Y-139945356D01*
X181087889Y-140821819D01*
X181096208Y-141244665D01*
X181086847Y-141670650D01*
X181067169Y-141971628D01*
X180181841Y-142051582D01*
X178870137Y-142116914D01*
X177673364Y-142121778D01*
X176581638Y-142069004D01*
X175584504Y-141962597D01*
X174671308Y-141806116D01*
X173830867Y-141602862D01*
X173135647Y-141382389D01*
X173191496Y-141336555D01*
X173286469Y-141220830D01*
X173357041Y-141088801D01*
X173400498Y-140945540D01*
X173411495Y-140833887D01*
X173411495Y-140177221D01*
X173714318Y-140480044D01*
X174309677Y-140877850D01*
X174971205Y-141151864D01*
X175673479Y-141291555D01*
X176389511Y-141291555D01*
X177091785Y-141151864D01*
X177753313Y-140877850D01*
X178348672Y-140480044D01*
X178854984Y-139973732D01*
X179252790Y-139378373D01*
X179526804Y-138716845D01*
X179666495Y-138014571D01*
X179666495Y-137298539D01*
X179526804Y-136596265D01*
X179252790Y-135934737D01*
X178854984Y-135339378D01*
X178348672Y-134833066D01*
X177753313Y-134435260D01*
X177091785Y-134161246D01*
X176389511Y-134021555D01*
X175673479Y-134021555D01*
X174971205Y-134161246D01*
X174309677Y-134435260D01*
X173714318Y-134833066D01*
X173208006Y-135339378D01*
X172810200Y-135934737D01*
X172536186Y-136596265D01*
X172396495Y-137298539D01*
X172396495Y-137896753D01*
X172140497Y-138152751D01*
X172111494Y-138176553D01*
X172056366Y-138243728D01*
X172016521Y-138292278D01*
X171992544Y-138337136D01*
X171945949Y-138424308D01*
X171902492Y-138567569D01*
X171891495Y-138679222D01*
X171891495Y-138679232D01*
X171887819Y-138716554D01*
X171891495Y-138753877D01*
X171891496Y-140833887D01*
X171894517Y-140864558D01*
X171628329Y-140738313D01*
X170961560Y-140371330D01*
X170310119Y-139967394D01*
X169663792Y-139528204D01*
X169014100Y-139056768D01*
X167691072Y-138046759D01*
X162455433Y-132888224D01*
X162535864Y-132931215D01*
X162655563Y-132967525D01*
X162780044Y-132979785D01*
X162904525Y-132967525D01*
X163024224Y-132931215D01*
X163134538Y-132872251D01*
X163231229Y-132792898D01*
X163322409Y-132700503D01*
X166473259Y-132700503D01*
X166501931Y-132991614D01*
X166586845Y-133271537D01*
X166724738Y-133529517D01*
X166910310Y-133755637D01*
X167136430Y-133941209D01*
X167394410Y-134079102D01*
X167674333Y-134164016D01*
X167892494Y-134185503D01*
X168038394Y-134185503D01*
X168256555Y-134164016D01*
X168316021Y-134145977D01*
X168297982Y-134205444D01*
X168269310Y-134496555D01*
X168297982Y-134787666D01*
X168382896Y-135067589D01*
X168520789Y-135325569D01*
X168706361Y-135551689D01*
X168932481Y-135737261D01*
X169190461Y-135875154D01*
X169470384Y-135960068D01*
X169688545Y-135981555D01*
X169834445Y-135981555D01*
X170052606Y-135960068D01*
X170332529Y-135875154D01*
X170590509Y-135737261D01*
X170816629Y-135551689D01*
X171002201Y-135325569D01*
X171140094Y-135067589D01*
X171225008Y-134787666D01*
X171253680Y-134496555D01*
X171225008Y-134205444D01*
X171206969Y-134145977D01*
X171266435Y-134164016D01*
X171484596Y-134185503D01*
X171630496Y-134185503D01*
X171848657Y-134164016D01*
X172128580Y-134079102D01*
X172386560Y-133941209D01*
X172612680Y-133755637D01*
X172798252Y-133529517D01*
X172936145Y-133271537D01*
X173021059Y-132991614D01*
X173049731Y-132700503D01*
X173021059Y-132409392D01*
X173003020Y-132349926D01*
X173062486Y-132367965D01*
X173280647Y-132389452D01*
X173426547Y-132389452D01*
X173644708Y-132367965D01*
X173924631Y-132283051D01*
X174182611Y-132145158D01*
X174408731Y-131959586D01*
X174594303Y-131733466D01*
X174732196Y-131475486D01*
X174817110Y-131195563D01*
X174845782Y-130904452D01*
X174817110Y-130613341D01*
X174732196Y-130333418D01*
X174594303Y-130075438D01*
X174408731Y-129849318D01*
X174182611Y-129663746D01*
X173924631Y-129525853D01*
X173644708Y-129440939D01*
X173426547Y-129419452D01*
X173313387Y-129419452D01*
X173349130Y-129352581D01*
X173385439Y-129232882D01*
X173397699Y-129108401D01*
X173385439Y-128983920D01*
X173349130Y-128864221D01*
X173290166Y-128753907D01*
X173210813Y-128657216D01*
X172809655Y-128260403D01*
X172585149Y-128260403D01*
X171737151Y-129108401D01*
X171751294Y-129122544D01*
X171571689Y-129302149D01*
X171557546Y-129288006D01*
X171543404Y-129302149D01*
X171363799Y-129122544D01*
X171377941Y-129108401D01*
X170529943Y-128260403D01*
X170305437Y-128260403D01*
X169904279Y-128657216D01*
X169824926Y-128753907D01*
X169765962Y-128864221D01*
X169729653Y-128983920D01*
X169717393Y-129108401D01*
X169729653Y-129232882D01*
X169765962Y-129352581D01*
X169801705Y-129419452D01*
X169688545Y-129419452D01*
X169470384Y-129440939D01*
X169190461Y-129525853D01*
X168932481Y-129663746D01*
X168706361Y-129849318D01*
X168520789Y-130075438D01*
X168382896Y-130333418D01*
X168297982Y-130613341D01*
X168269310Y-130904452D01*
X168297982Y-131195563D01*
X168316021Y-131255029D01*
X168256555Y-131236990D01*
X168038394Y-131215503D01*
X167892494Y-131215503D01*
X167674333Y-131236990D01*
X167394410Y-131321904D01*
X167136430Y-131459797D01*
X166910310Y-131645369D01*
X166724738Y-131871489D01*
X166586845Y-132129469D01*
X166501931Y-132409392D01*
X166473259Y-132700503D01*
X163322409Y-132700503D01*
X163557331Y-132462452D01*
X163557331Y-132237945D01*
X162833077Y-131513691D01*
X162818935Y-131527834D01*
X162639330Y-131348229D01*
X162653472Y-131334086D01*
X161929218Y-130609832D01*
X161704711Y-130609832D01*
X161374265Y-130935934D01*
X161294912Y-131032625D01*
X161235948Y-131142939D01*
X161199638Y-131262638D01*
X161187378Y-131387119D01*
X161199638Y-131511600D01*
X161235948Y-131631299D01*
X161294912Y-131741613D01*
X161308549Y-131758230D01*
X160813757Y-131270724D01*
X160813757Y-131163143D01*
X160177891Y-130527277D01*
X160163749Y-130541420D01*
X159984144Y-130361815D01*
X159998286Y-130347672D01*
X160357496Y-130347672D01*
X160993362Y-130983538D01*
X161217868Y-130983538D01*
X161371538Y-130834212D01*
X161450891Y-130737521D01*
X161509855Y-130627207D01*
X161546165Y-130507509D01*
X161558425Y-130383027D01*
X161546165Y-130258546D01*
X161509855Y-130138848D01*
X161450891Y-130028533D01*
X161371538Y-129931842D01*
X161182513Y-129747162D01*
X160958007Y-129747162D01*
X160357496Y-130347672D01*
X159998286Y-130347672D01*
X159362420Y-129711806D01*
X159231538Y-129711806D01*
X158821387Y-129307695D01*
X159542025Y-129307695D01*
X159542025Y-129532201D01*
X160177891Y-130168067D01*
X160778401Y-129567556D01*
X160778401Y-129343050D01*
X160593721Y-129154025D01*
X160497030Y-129074672D01*
X160386715Y-129015708D01*
X160267017Y-128979398D01*
X160142536Y-128967138D01*
X160018054Y-128979398D01*
X159898356Y-129015708D01*
X159788042Y-129074672D01*
X159691351Y-129154025D01*
X159542025Y-129307695D01*
X158821387Y-129307695D01*
X158692437Y-129180644D01*
X158692437Y-129041823D01*
X158056571Y-128405957D01*
X158042429Y-128420100D01*
X157862824Y-128240495D01*
X157876966Y-128226352D01*
X158236176Y-128226352D01*
X158872042Y-128862218D01*
X159096548Y-128862218D01*
X159250218Y-128712892D01*
X159329571Y-128616201D01*
X159388535Y-128505887D01*
X159424845Y-128386189D01*
X159437105Y-128261707D01*
X159424845Y-128137226D01*
X159388535Y-128017528D01*
X159329571Y-127907213D01*
X159250218Y-127810522D01*
X159061193Y-127625842D01*
X158836687Y-127625842D01*
X158236176Y-128226352D01*
X157876966Y-128226352D01*
X157241100Y-127590486D01*
X157078511Y-127590486D01*
X156000204Y-126528058D01*
X156292870Y-126528058D01*
X156292870Y-126752565D01*
X156565939Y-127029978D01*
X156662630Y-127109331D01*
X156772944Y-127168295D01*
X156892643Y-127204605D01*
X157017124Y-127216865D01*
X157141605Y-127204605D01*
X157201701Y-127186375D01*
X157420705Y-127186375D01*
X157420705Y-127410881D01*
X158056571Y-128046747D01*
X158657081Y-127446236D01*
X158657081Y-127221730D01*
X158472401Y-127032705D01*
X158375710Y-126953352D01*
X158265395Y-126894388D01*
X158145697Y-126858078D01*
X158021216Y-126845818D01*
X157896734Y-126858078D01*
X157777036Y-126894388D01*
X157666722Y-126953352D01*
X157570031Y-127032705D01*
X157420705Y-127186375D01*
X157201701Y-127186375D01*
X157261304Y-127168295D01*
X157371618Y-127109331D01*
X157468309Y-127029978D01*
X157794411Y-126699532D01*
X157794411Y-126475025D01*
X157070157Y-125750771D01*
X156292870Y-126528058D01*
X156000204Y-126528058D01*
X155082835Y-125624199D01*
X155424458Y-125624199D01*
X155436718Y-125748680D01*
X155473028Y-125868379D01*
X155531992Y-125978693D01*
X155611345Y-126075384D01*
X155888758Y-126348453D01*
X156113265Y-126348453D01*
X156890552Y-125571166D01*
X156166298Y-124846912D01*
X155941791Y-124846912D01*
X155611345Y-125173014D01*
X155531992Y-125269705D01*
X155473028Y-125380019D01*
X155436718Y-125499718D01*
X155424458Y-125624199D01*
X155082835Y-125624199D01*
X148704558Y-119339854D01*
X152217132Y-119339856D01*
X152217132Y-119339856D01*
G37*
X152217132Y-119339856D02*
X152242983Y-119425076D01*
X152301948Y-119535390D01*
X152381300Y-119632081D01*
X153795514Y-121046295D01*
X153892205Y-121125647D01*
X154002519Y-121184612D01*
X154122217Y-121220922D01*
X154246699Y-121233182D01*
X154371181Y-121220922D01*
X154424062Y-121204881D01*
X154382138Y-121246805D01*
X154494389Y-121359056D01*
X154269886Y-121359056D01*
X153974795Y-121649803D01*
X153895442Y-121746494D01*
X153836478Y-121856809D01*
X153800168Y-121976507D01*
X153787908Y-122100988D01*
X153800168Y-122225469D01*
X153836478Y-122345168D01*
X153895442Y-122455482D01*
X153974795Y-122552173D01*
X154119626Y-122692660D01*
X154344132Y-122692660D01*
X155086064Y-121950728D01*
X155071922Y-121936586D01*
X155251527Y-121756981D01*
X155265669Y-121771123D01*
X155279812Y-121756981D01*
X155459417Y-121936586D01*
X155445274Y-121950728D01*
X155459417Y-121964871D01*
X155279812Y-122144476D01*
X155265669Y-122130333D01*
X154523737Y-122872265D01*
X154523737Y-123096771D01*
X154664224Y-123241602D01*
X154760915Y-123320955D01*
X154871229Y-123379919D01*
X154990928Y-123416229D01*
X155115409Y-123428489D01*
X155215504Y-123418631D01*
X155214698Y-123426814D01*
X155231642Y-123598849D01*
X155281823Y-123764273D01*
X155363312Y-123916728D01*
X155472978Y-124050356D01*
X155817693Y-124395071D01*
X155951321Y-124504737D01*
X156103776Y-124586226D01*
X156269200Y-124636407D01*
X156345903Y-124643962D01*
X156345903Y-124667307D01*
X157070157Y-125391561D01*
X157084300Y-125377419D01*
X157263905Y-125557024D01*
X157249762Y-125571166D01*
X157974016Y-126295420D01*
X158198523Y-126295420D01*
X158528969Y-125969318D01*
X158608322Y-125872627D01*
X158667286Y-125762313D01*
X158703596Y-125642614D01*
X158715856Y-125518133D01*
X158703596Y-125393652D01*
X158670059Y-125283094D01*
X158687311Y-125300346D01*
X158799563Y-125188094D01*
X158799563Y-125412597D01*
X159125665Y-125743044D01*
X159222356Y-125822397D01*
X159316678Y-125872813D01*
X159322903Y-125887841D01*
X159419756Y-126032791D01*
X159543025Y-126156060D01*
X159687975Y-126252913D01*
X159703755Y-126259449D01*
X159748843Y-126346512D01*
X159812493Y-126425528D01*
X160036999Y-126425528D01*
X160108891Y-126353636D01*
X160115841Y-126353636D01*
X160105505Y-126458585D01*
X160117765Y-126583067D01*
X160140237Y-126657147D01*
X160140237Y-126753272D01*
X160211949Y-126811039D01*
X160213040Y-126813079D01*
X160292392Y-126909770D01*
X160575234Y-127192612D01*
X160671925Y-127271964D01*
X160672403Y-127272219D01*
X160672659Y-127272699D01*
X160752011Y-127369390D01*
X161034853Y-127652232D01*
X161131544Y-127731584D01*
X161132024Y-127731840D01*
X161132279Y-127732318D01*
X161211631Y-127829009D01*
X161494473Y-128111851D01*
X161591164Y-128191203D01*
X161591642Y-128191458D01*
X161591898Y-128191938D01*
X161671250Y-128288629D01*
X161954092Y-128571471D01*
X162050783Y-128650823D01*
X162145105Y-128701240D01*
X162151330Y-128716268D01*
X162248183Y-128861218D01*
X162371452Y-128984487D01*
X162516402Y-129081340D01*
X162531430Y-129087565D01*
X162581846Y-129181887D01*
X162661199Y-129278578D01*
X162991646Y-129604680D01*
X163216149Y-129604680D01*
X163103897Y-129716932D01*
X163121149Y-129734184D01*
X163010591Y-129700647D01*
X162886110Y-129688387D01*
X162761629Y-129700647D01*
X162641930Y-129736957D01*
X162531616Y-129795921D01*
X162434925Y-129875274D01*
X162108823Y-130205720D01*
X162108823Y-130430227D01*
X162833077Y-131154481D01*
X162847220Y-131140339D01*
X163026825Y-131319944D01*
X163012682Y-131334086D01*
X163736936Y-132058340D01*
X163961443Y-132058340D01*
X164291889Y-131732238D01*
X164371242Y-131635547D01*
X164430206Y-131525233D01*
X164466516Y-131405534D01*
X164478776Y-131281053D01*
X164466516Y-131156572D01*
X164430206Y-131036873D01*
X164371242Y-130926559D01*
X164291889Y-130829868D01*
X164014476Y-130556799D01*
X163789972Y-130556799D01*
X163889993Y-130456778D01*
X163928865Y-130477555D01*
X164048563Y-130513864D01*
X164173044Y-130526125D01*
X164297526Y-130513864D01*
X164417224Y-130477555D01*
X164527538Y-130418591D01*
X164624229Y-130339238D01*
X164914976Y-130044147D01*
X164914976Y-129819640D01*
X164137689Y-129042353D01*
X164123547Y-129056496D01*
X163943942Y-128876891D01*
X163958084Y-128862748D01*
X163943942Y-128848606D01*
X164123547Y-128669001D01*
X164137689Y-128683143D01*
X164151832Y-128669001D01*
X164331437Y-128848606D01*
X164317294Y-128862748D01*
X165094581Y-129640035D01*
X165319088Y-129640035D01*
X165614179Y-129349288D01*
X165693532Y-129252597D01*
X165752496Y-129142283D01*
X165788805Y-129022585D01*
X165801066Y-128898103D01*
X165788805Y-128773622D01*
X165752496Y-128653924D01*
X165693532Y-128543609D01*
X165614179Y-128446918D01*
X165283732Y-128120816D01*
X165059229Y-128120816D01*
X165077575Y-128102470D01*
X165425092Y-128102470D01*
X165543519Y-128220897D01*
X165677147Y-128330563D01*
X165829602Y-128412052D01*
X165995026Y-128462233D01*
X166167061Y-128479177D01*
X166339096Y-128462233D01*
X166504520Y-128412052D01*
X166656975Y-128330563D01*
X166790603Y-128220897D01*
X167435838Y-127575662D01*
X167545504Y-127442034D01*
X167626993Y-127289579D01*
X167630556Y-127277831D01*
X169079823Y-127277831D01*
X169079823Y-127502337D01*
X169370570Y-127797428D01*
X169467261Y-127876781D01*
X169577576Y-127935745D01*
X169697274Y-127972055D01*
X169821755Y-127984315D01*
X169946236Y-127972055D01*
X170065935Y-127935745D01*
X170176249Y-127876781D01*
X170201214Y-127856292D01*
X170709548Y-127856292D01*
X170709548Y-128080798D01*
X171557546Y-128928796D01*
X172405544Y-128080798D01*
X172405544Y-127856292D01*
X172008731Y-127455134D01*
X171912040Y-127375781D01*
X171801726Y-127316817D01*
X171682027Y-127280508D01*
X171557546Y-127268248D01*
X171433065Y-127280508D01*
X171313366Y-127316817D01*
X171203052Y-127375781D01*
X171106361Y-127455134D01*
X170709548Y-127856292D01*
X170201214Y-127856292D01*
X170272940Y-127797428D01*
X170413427Y-127652597D01*
X170413427Y-127428091D01*
X169671495Y-126686159D01*
X169079823Y-127277831D01*
X167630556Y-127277831D01*
X167677174Y-127124155D01*
X167694118Y-126952120D01*
X167683076Y-126840009D01*
X167690498Y-126815541D01*
X167701495Y-126703888D01*
X167701495Y-126703878D01*
X167705171Y-126666555D01*
X167701495Y-126629232D01*
X167701495Y-126356294D01*
X168193734Y-126356294D01*
X168205994Y-126480775D01*
X168242304Y-126600473D01*
X168301268Y-126710788D01*
X168380621Y-126807479D01*
X168675712Y-127098226D01*
X168900218Y-127098226D01*
X169491890Y-126506554D01*
X168749958Y-125764622D01*
X168525452Y-125764622D01*
X168380621Y-125905109D01*
X168301268Y-126001800D01*
X168242304Y-126112114D01*
X168205994Y-126231813D01*
X168193734Y-126356294D01*
X167701495Y-126356294D01*
X167701495Y-125607962D01*
X167891227Y-125418230D01*
X167989234Y-125298808D01*
X168062060Y-125162561D01*
X168106282Y-125016779D01*
X168144351Y-125013030D01*
X168264049Y-124976721D01*
X168374363Y-124917756D01*
X168471054Y-124838403D01*
X168478958Y-124826155D01*
X168478958Y-124601649D01*
X167666316Y-123789006D01*
X167652174Y-123803149D01*
X167472569Y-123623544D01*
X167486711Y-123609401D01*
X167472568Y-123595259D01*
X167652174Y-123415654D01*
X167666316Y-123429796D01*
X167680459Y-123415654D01*
X167860064Y-123595259D01*
X167845921Y-123609401D01*
X168658564Y-124422043D01*
X168883070Y-124422043D01*
X168895318Y-124414139D01*
X168974671Y-124317448D01*
X169004129Y-124262337D01*
X169634129Y-124892337D01*
X169620524Y-125030468D01*
X169621330Y-125038651D01*
X169521235Y-125028793D01*
X169396754Y-125041053D01*
X169277055Y-125077363D01*
X169166741Y-125136327D01*
X169070050Y-125215680D01*
X168929563Y-125360511D01*
X168929563Y-125585017D01*
X169671495Y-126326949D01*
X169685638Y-126312807D01*
X169865243Y-126492412D01*
X169851100Y-126506554D01*
X170593032Y-127248486D01*
X170817538Y-127248486D01*
X170962369Y-127107999D01*
X171041722Y-127011308D01*
X171100686Y-126900994D01*
X171136996Y-126781295D01*
X171149256Y-126656814D01*
X171139398Y-126556719D01*
X171147581Y-126557525D01*
X171319616Y-126540581D01*
X171485040Y-126490400D01*
X171637495Y-126408911D01*
X171771123Y-126299245D01*
X172115838Y-125954530D01*
X172225504Y-125820902D01*
X172306993Y-125668447D01*
X172357174Y-125503023D01*
X172374118Y-125330988D01*
X172357174Y-125158953D01*
X172306993Y-124993529D01*
X172225504Y-124841074D01*
X172115838Y-124707446D01*
X171470603Y-124062211D01*
X171336975Y-123952545D01*
X171184520Y-123871056D01*
X171019096Y-123820875D01*
X170847061Y-123803931D01*
X170708930Y-123817536D01*
X170026207Y-123134813D01*
X170117502Y-123107119D01*
X170253749Y-123034293D01*
X170373171Y-122936286D01*
X170585303Y-122724154D01*
X170665407Y-122626547D01*
X175795861Y-127776063D01*
X176880794Y-129655135D01*
X177955206Y-131598168D01*
X178456788Y-132558458D01*
X178930194Y-133514430D01*
X179369427Y-134463187D01*
X179769519Y-135403692D01*
X180125644Y-136334906D01*
X180433063Y-137255724D01*
X180687239Y-138165057D01*
X180883755Y-139061897D01*
X181018451Y-139945356D01*
X181087889Y-140821819D01*
X181096208Y-141244665D01*
X181086847Y-141670650D01*
X181067169Y-141971628D01*
X180181841Y-142051582D01*
X178870137Y-142116914D01*
X177673364Y-142121778D01*
X176581638Y-142069004D01*
X175584504Y-141962597D01*
X174671308Y-141806116D01*
X173830867Y-141602862D01*
X173135647Y-141382389D01*
X173191496Y-141336555D01*
X173286469Y-141220830D01*
X173357041Y-141088801D01*
X173400498Y-140945540D01*
X173411495Y-140833887D01*
X173411495Y-140177221D01*
X173714318Y-140480044D01*
X174309677Y-140877850D01*
X174971205Y-141151864D01*
X175673479Y-141291555D01*
X176389511Y-141291555D01*
X177091785Y-141151864D01*
X177753313Y-140877850D01*
X178348672Y-140480044D01*
X178854984Y-139973732D01*
X179252790Y-139378373D01*
X179526804Y-138716845D01*
X179666495Y-138014571D01*
X179666495Y-137298539D01*
X179526804Y-136596265D01*
X179252790Y-135934737D01*
X178854984Y-135339378D01*
X178348672Y-134833066D01*
X177753313Y-134435260D01*
X177091785Y-134161246D01*
X176389511Y-134021555D01*
X175673479Y-134021555D01*
X174971205Y-134161246D01*
X174309677Y-134435260D01*
X173714318Y-134833066D01*
X173208006Y-135339378D01*
X172810200Y-135934737D01*
X172536186Y-136596265D01*
X172396495Y-137298539D01*
X172396495Y-137896753D01*
X172140497Y-138152751D01*
X172111494Y-138176553D01*
X172056366Y-138243728D01*
X172016521Y-138292278D01*
X171992544Y-138337136D01*
X171945949Y-138424308D01*
X171902492Y-138567569D01*
X171891495Y-138679222D01*
X171891495Y-138679232D01*
X171887819Y-138716554D01*
X171891495Y-138753877D01*
X171891496Y-140833887D01*
X171894517Y-140864558D01*
X171628329Y-140738313D01*
X170961560Y-140371330D01*
X170310119Y-139967394D01*
X169663792Y-139528204D01*
X169014100Y-139056768D01*
X167691072Y-138046759D01*
X162455433Y-132888224D01*
X162535864Y-132931215D01*
X162655563Y-132967525D01*
X162780044Y-132979785D01*
X162904525Y-132967525D01*
X163024224Y-132931215D01*
X163134538Y-132872251D01*
X163231229Y-132792898D01*
X163322409Y-132700503D01*
X166473259Y-132700503D01*
X166501931Y-132991614D01*
X166586845Y-133271537D01*
X166724738Y-133529517D01*
X166910310Y-133755637D01*
X167136430Y-133941209D01*
X167394410Y-134079102D01*
X167674333Y-134164016D01*
X167892494Y-134185503D01*
X168038394Y-134185503D01*
X168256555Y-134164016D01*
X168316021Y-134145977D01*
X168297982Y-134205444D01*
X168269310Y-134496555D01*
X168297982Y-134787666D01*
X168382896Y-135067589D01*
X168520789Y-135325569D01*
X168706361Y-135551689D01*
X168932481Y-135737261D01*
X169190461Y-135875154D01*
X169470384Y-135960068D01*
X169688545Y-135981555D01*
X169834445Y-135981555D01*
X170052606Y-135960068D01*
X170332529Y-135875154D01*
X170590509Y-135737261D01*
X170816629Y-135551689D01*
X171002201Y-135325569D01*
X171140094Y-135067589D01*
X171225008Y-134787666D01*
X171253680Y-134496555D01*
X171225008Y-134205444D01*
X171206969Y-134145977D01*
X171266435Y-134164016D01*
X171484596Y-134185503D01*
X171630496Y-134185503D01*
X171848657Y-134164016D01*
X172128580Y-134079102D01*
X172386560Y-133941209D01*
X172612680Y-133755637D01*
X172798252Y-133529517D01*
X172936145Y-133271537D01*
X173021059Y-132991614D01*
X173049731Y-132700503D01*
X173021059Y-132409392D01*
X173003020Y-132349926D01*
X173062486Y-132367965D01*
X173280647Y-132389452D01*
X173426547Y-132389452D01*
X173644708Y-132367965D01*
X173924631Y-132283051D01*
X174182611Y-132145158D01*
X174408731Y-131959586D01*
X174594303Y-131733466D01*
X174732196Y-131475486D01*
X174817110Y-131195563D01*
X174845782Y-130904452D01*
X174817110Y-130613341D01*
X174732196Y-130333418D01*
X174594303Y-130075438D01*
X174408731Y-129849318D01*
X174182611Y-129663746D01*
X173924631Y-129525853D01*
X173644708Y-129440939D01*
X173426547Y-129419452D01*
X173313387Y-129419452D01*
X173349130Y-129352581D01*
X173385439Y-129232882D01*
X173397699Y-129108401D01*
X173385439Y-128983920D01*
X173349130Y-128864221D01*
X173290166Y-128753907D01*
X173210813Y-128657216D01*
X172809655Y-128260403D01*
X172585149Y-128260403D01*
X171737151Y-129108401D01*
X171751294Y-129122544D01*
X171571689Y-129302149D01*
X171557546Y-129288006D01*
X171543404Y-129302149D01*
X171363799Y-129122544D01*
X171377941Y-129108401D01*
X170529943Y-128260403D01*
X170305437Y-128260403D01*
X169904279Y-128657216D01*
X169824926Y-128753907D01*
X169765962Y-128864221D01*
X169729653Y-128983920D01*
X169717393Y-129108401D01*
X169729653Y-129232882D01*
X169765962Y-129352581D01*
X169801705Y-129419452D01*
X169688545Y-129419452D01*
X169470384Y-129440939D01*
X169190461Y-129525853D01*
X168932481Y-129663746D01*
X168706361Y-129849318D01*
X168520789Y-130075438D01*
X168382896Y-130333418D01*
X168297982Y-130613341D01*
X168269310Y-130904452D01*
X168297982Y-131195563D01*
X168316021Y-131255029D01*
X168256555Y-131236990D01*
X168038394Y-131215503D01*
X167892494Y-131215503D01*
X167674333Y-131236990D01*
X167394410Y-131321904D01*
X167136430Y-131459797D01*
X166910310Y-131645369D01*
X166724738Y-131871489D01*
X166586845Y-132129469D01*
X166501931Y-132409392D01*
X166473259Y-132700503D01*
X163322409Y-132700503D01*
X163557331Y-132462452D01*
X163557331Y-132237945D01*
X162833077Y-131513691D01*
X162818935Y-131527834D01*
X162639330Y-131348229D01*
X162653472Y-131334086D01*
X161929218Y-130609832D01*
X161704711Y-130609832D01*
X161374265Y-130935934D01*
X161294912Y-131032625D01*
X161235948Y-131142939D01*
X161199638Y-131262638D01*
X161187378Y-131387119D01*
X161199638Y-131511600D01*
X161235948Y-131631299D01*
X161294912Y-131741613D01*
X161308549Y-131758230D01*
X160813757Y-131270724D01*
X160813757Y-131163143D01*
X160177891Y-130527277D01*
X160163749Y-130541420D01*
X159984144Y-130361815D01*
X159998286Y-130347672D01*
X160357496Y-130347672D01*
X160993362Y-130983538D01*
X161217868Y-130983538D01*
X161371538Y-130834212D01*
X161450891Y-130737521D01*
X161509855Y-130627207D01*
X161546165Y-130507509D01*
X161558425Y-130383027D01*
X161546165Y-130258546D01*
X161509855Y-130138848D01*
X161450891Y-130028533D01*
X161371538Y-129931842D01*
X161182513Y-129747162D01*
X160958007Y-129747162D01*
X160357496Y-130347672D01*
X159998286Y-130347672D01*
X159362420Y-129711806D01*
X159231538Y-129711806D01*
X158821387Y-129307695D01*
X159542025Y-129307695D01*
X159542025Y-129532201D01*
X160177891Y-130168067D01*
X160778401Y-129567556D01*
X160778401Y-129343050D01*
X160593721Y-129154025D01*
X160497030Y-129074672D01*
X160386715Y-129015708D01*
X160267017Y-128979398D01*
X160142536Y-128967138D01*
X160018054Y-128979398D01*
X159898356Y-129015708D01*
X159788042Y-129074672D01*
X159691351Y-129154025D01*
X159542025Y-129307695D01*
X158821387Y-129307695D01*
X158692437Y-129180644D01*
X158692437Y-129041823D01*
X158056571Y-128405957D01*
X158042429Y-128420100D01*
X157862824Y-128240495D01*
X157876966Y-128226352D01*
X158236176Y-128226352D01*
X158872042Y-128862218D01*
X159096548Y-128862218D01*
X159250218Y-128712892D01*
X159329571Y-128616201D01*
X159388535Y-128505887D01*
X159424845Y-128386189D01*
X159437105Y-128261707D01*
X159424845Y-128137226D01*
X159388535Y-128017528D01*
X159329571Y-127907213D01*
X159250218Y-127810522D01*
X159061193Y-127625842D01*
X158836687Y-127625842D01*
X158236176Y-128226352D01*
X157876966Y-128226352D01*
X157241100Y-127590486D01*
X157078511Y-127590486D01*
X156000204Y-126528058D01*
X156292870Y-126528058D01*
X156292870Y-126752565D01*
X156565939Y-127029978D01*
X156662630Y-127109331D01*
X156772944Y-127168295D01*
X156892643Y-127204605D01*
X157017124Y-127216865D01*
X157141605Y-127204605D01*
X157201701Y-127186375D01*
X157420705Y-127186375D01*
X157420705Y-127410881D01*
X158056571Y-128046747D01*
X158657081Y-127446236D01*
X158657081Y-127221730D01*
X158472401Y-127032705D01*
X158375710Y-126953352D01*
X158265395Y-126894388D01*
X158145697Y-126858078D01*
X158021216Y-126845818D01*
X157896734Y-126858078D01*
X157777036Y-126894388D01*
X157666722Y-126953352D01*
X157570031Y-127032705D01*
X157420705Y-127186375D01*
X157201701Y-127186375D01*
X157261304Y-127168295D01*
X157371618Y-127109331D01*
X157468309Y-127029978D01*
X157794411Y-126699532D01*
X157794411Y-126475025D01*
X157070157Y-125750771D01*
X156292870Y-126528058D01*
X156000204Y-126528058D01*
X155082835Y-125624199D01*
X155424458Y-125624199D01*
X155436718Y-125748680D01*
X155473028Y-125868379D01*
X155531992Y-125978693D01*
X155611345Y-126075384D01*
X155888758Y-126348453D01*
X156113265Y-126348453D01*
X156890552Y-125571166D01*
X156166298Y-124846912D01*
X155941791Y-124846912D01*
X155611345Y-125173014D01*
X155531992Y-125269705D01*
X155473028Y-125380019D01*
X155436718Y-125499718D01*
X155424458Y-125624199D01*
X155082835Y-125624199D01*
X148704558Y-119339854D01*
X152217132Y-119339856D01*
G36*
X160903998Y-121294946D02*
G01*
X160903998Y-121519452D01*
X161495670Y-122111124D01*
X161509813Y-122096982D01*
X161689418Y-122276587D01*
X161675275Y-122290729D01*
X161689418Y-122304872D01*
X161509813Y-122484477D01*
X161495670Y-122470334D01*
X160753738Y-123212266D01*
X160753738Y-123436772D01*
X160894225Y-123581603D01*
X160990916Y-123660956D01*
X161101230Y-123719920D01*
X161220929Y-123756230D01*
X161345410Y-123768490D01*
X161445505Y-123758632D01*
X161444699Y-123766815D01*
X161461643Y-123938850D01*
X161508294Y-124092638D01*
X161424119Y-124102038D01*
X161304904Y-124139906D01*
X161195368Y-124200303D01*
X161194903Y-124200695D01*
X161192611Y-124177428D01*
X161156302Y-124057730D01*
X161097338Y-123947415D01*
X161017985Y-123850724D01*
X160687538Y-123524622D01*
X160463032Y-123524622D01*
X159721100Y-124266554D01*
X159735243Y-124280697D01*
X159555638Y-124460302D01*
X159541495Y-124446159D01*
X159527353Y-124460302D01*
X159347748Y-124280697D01*
X159361890Y-124266554D01*
X158584603Y-123489267D01*
X158360096Y-123489267D01*
X158065005Y-123780014D01*
X157985652Y-123876705D01*
X157926688Y-123987019D01*
X157890379Y-124106717D01*
X157878118Y-124231199D01*
X157890379Y-124355680D01*
X157926688Y-124475378D01*
X157947465Y-124514250D01*
X157847444Y-124614271D01*
X157847444Y-124389767D01*
X157574375Y-124112354D01*
X157477684Y-124033001D01*
X157444555Y-124015293D01*
X157710012Y-123749836D01*
X157819678Y-123616208D01*
X157901167Y-123463753D01*
X157951348Y-123298329D01*
X157968292Y-123126294D01*
X157964241Y-123085155D01*
X158764208Y-123085155D01*
X158764208Y-123309662D01*
X159541495Y-124086949D01*
X160283427Y-123345017D01*
X160283427Y-123120511D01*
X159957325Y-122790064D01*
X159860634Y-122710711D01*
X159750319Y-122651747D01*
X159630621Y-122615438D01*
X159506140Y-122603177D01*
X159381658Y-122615438D01*
X159261960Y-122651747D01*
X159151646Y-122710711D01*
X159054955Y-122790064D01*
X158764208Y-123085155D01*
X157964241Y-123085155D01*
X157951348Y-122954259D01*
X157901167Y-122788835D01*
X157819678Y-122636380D01*
X157725618Y-122521768D01*
X157970004Y-122277382D01*
X157997694Y-122305072D01*
X158131322Y-122414738D01*
X158283777Y-122496227D01*
X158449201Y-122546408D01*
X158621236Y-122563352D01*
X158793271Y-122546408D01*
X158958695Y-122496227D01*
X159062037Y-122440989D01*
X160017909Y-122440989D01*
X160030169Y-122565470D01*
X160066479Y-122685169D01*
X160125443Y-122795483D01*
X160204796Y-122892174D01*
X160349627Y-123032661D01*
X160574133Y-123032661D01*
X161316065Y-122290729D01*
X160724393Y-121699057D01*
X160499887Y-121699057D01*
X160204796Y-121989804D01*
X160125443Y-122086495D01*
X160066479Y-122196810D01*
X160030169Y-122316508D01*
X160017909Y-122440989D01*
X159062037Y-122440989D01*
X159111150Y-122414738D01*
X159244778Y-122305072D01*
X159890013Y-121659837D01*
X159999679Y-121526209D01*
X160081168Y-121373754D01*
X160131349Y-121208330D01*
X160148293Y-121036295D01*
X160147334Y-121026555D01*
X161168438Y-121026555D01*
X160903998Y-121294946D01*
X160903998Y-121294946D01*
G37*
X160903998Y-121294946D02*
X160903998Y-121519452D01*
X161495670Y-122111124D01*
X161509813Y-122096982D01*
X161689418Y-122276587D01*
X161675275Y-122290729D01*
X161689418Y-122304872D01*
X161509813Y-122484477D01*
X161495670Y-122470334D01*
X160753738Y-123212266D01*
X160753738Y-123436772D01*
X160894225Y-123581603D01*
X160990916Y-123660956D01*
X161101230Y-123719920D01*
X161220929Y-123756230D01*
X161345410Y-123768490D01*
X161445505Y-123758632D01*
X161444699Y-123766815D01*
X161461643Y-123938850D01*
X161508294Y-124092638D01*
X161424119Y-124102038D01*
X161304904Y-124139906D01*
X161195368Y-124200303D01*
X161194903Y-124200695D01*
X161192611Y-124177428D01*
X161156302Y-124057730D01*
X161097338Y-123947415D01*
X161017985Y-123850724D01*
X160687538Y-123524622D01*
X160463032Y-123524622D01*
X159721100Y-124266554D01*
X159735243Y-124280697D01*
X159555638Y-124460302D01*
X159541495Y-124446159D01*
X159527353Y-124460302D01*
X159347748Y-124280697D01*
X159361890Y-124266554D01*
X158584603Y-123489267D01*
X158360096Y-123489267D01*
X158065005Y-123780014D01*
X157985652Y-123876705D01*
X157926688Y-123987019D01*
X157890379Y-124106717D01*
X157878118Y-124231199D01*
X157890379Y-124355680D01*
X157926688Y-124475378D01*
X157947465Y-124514250D01*
X157847444Y-124614271D01*
X157847444Y-124389767D01*
X157574375Y-124112354D01*
X157477684Y-124033001D01*
X157444555Y-124015293D01*
X157710012Y-123749836D01*
X157819678Y-123616208D01*
X157901167Y-123463753D01*
X157951348Y-123298329D01*
X157968292Y-123126294D01*
X157964241Y-123085155D01*
X158764208Y-123085155D01*
X158764208Y-123309662D01*
X159541495Y-124086949D01*
X160283427Y-123345017D01*
X160283427Y-123120511D01*
X159957325Y-122790064D01*
X159860634Y-122710711D01*
X159750319Y-122651747D01*
X159630621Y-122615438D01*
X159506140Y-122603177D01*
X159381658Y-122615438D01*
X159261960Y-122651747D01*
X159151646Y-122710711D01*
X159054955Y-122790064D01*
X158764208Y-123085155D01*
X157964241Y-123085155D01*
X157951348Y-122954259D01*
X157901167Y-122788835D01*
X157819678Y-122636380D01*
X157725618Y-122521768D01*
X157970004Y-122277382D01*
X157997694Y-122305072D01*
X158131322Y-122414738D01*
X158283777Y-122496227D01*
X158449201Y-122546408D01*
X158621236Y-122563352D01*
X158793271Y-122546408D01*
X158958695Y-122496227D01*
X159062037Y-122440989D01*
X160017909Y-122440989D01*
X160030169Y-122565470D01*
X160066479Y-122685169D01*
X160125443Y-122795483D01*
X160204796Y-122892174D01*
X160349627Y-123032661D01*
X160574133Y-123032661D01*
X161316065Y-122290729D01*
X160724393Y-121699057D01*
X160499887Y-121699057D01*
X160204796Y-121989804D01*
X160125443Y-122086495D01*
X160066479Y-122196810D01*
X160030169Y-122316508D01*
X160017909Y-122440989D01*
X159062037Y-122440989D01*
X159111150Y-122414738D01*
X159244778Y-122305072D01*
X159890013Y-121659837D01*
X159999679Y-121526209D01*
X160081168Y-121373754D01*
X160131349Y-121208330D01*
X160148293Y-121036295D01*
X160147334Y-121026555D01*
X161168438Y-121026555D01*
X160903998Y-121294946D01*
G36*
X168355577Y-120308134D02*
G01*
X167988580Y-119943582D01*
X167764074Y-119943582D01*
X167472255Y-120235401D01*
X167415787Y-120258878D01*
X167270965Y-120355921D01*
X167147857Y-120479353D01*
X167051195Y-120624430D01*
X167028545Y-120679111D01*
X166553016Y-121154640D01*
X166496548Y-121178117D01*
X166351726Y-121275160D01*
X166228618Y-121398592D01*
X166131956Y-121543669D01*
X166109306Y-121598350D01*
X165633777Y-122073879D01*
X165577309Y-122097356D01*
X165432487Y-122194399D01*
X165309379Y-122317831D01*
X165212717Y-122462908D01*
X165190067Y-122517589D01*
X164898523Y-122809133D01*
X164898523Y-123033639D01*
X165546359Y-123685819D01*
X165561772Y-123698468D01*
X165547348Y-123716044D01*
X165474522Y-123852291D01*
X165429677Y-124000128D01*
X165414534Y-124153873D01*
X165429677Y-124307618D01*
X165474522Y-124455455D01*
X165481196Y-124467942D01*
X165479214Y-124466882D01*
X165313790Y-124416701D01*
X165141755Y-124399757D01*
X164969720Y-124416701D01*
X164804296Y-124466882D01*
X164773230Y-124483487D01*
X164118046Y-123828304D01*
X164131168Y-123803754D01*
X164181349Y-123638330D01*
X164198293Y-123466295D01*
X164181349Y-123294260D01*
X164131168Y-123128836D01*
X164049679Y-122976381D01*
X163940013Y-122842753D01*
X163595298Y-122498038D01*
X163461670Y-122388372D01*
X163309215Y-122306883D01*
X163143791Y-122256702D01*
X162971756Y-122239758D01*
X162963573Y-122240564D01*
X162973431Y-122140469D01*
X162961171Y-122015988D01*
X162953200Y-121989710D01*
X163072596Y-122053529D01*
X163220433Y-122098374D01*
X163374178Y-122113517D01*
X163527923Y-122098374D01*
X163675760Y-122053529D01*
X163812007Y-121980703D01*
X163829583Y-121966279D01*
X163842232Y-121981692D01*
X164494412Y-122629528D01*
X164718918Y-122629528D01*
X165010737Y-122337709D01*
X165067205Y-122314232D01*
X165212027Y-122217189D01*
X165335135Y-122093757D01*
X165431797Y-121948680D01*
X165454447Y-121893999D01*
X165929976Y-121418470D01*
X165986444Y-121394993D01*
X166131266Y-121297950D01*
X166254374Y-121174518D01*
X166351036Y-121029441D01*
X166373686Y-120974760D01*
X166849215Y-120499231D01*
X166905683Y-120475754D01*
X167050505Y-120378711D01*
X167173613Y-120255279D01*
X167270275Y-120110202D01*
X167292925Y-120055521D01*
X167584469Y-119763977D01*
X167584469Y-119539471D01*
X166936633Y-118887291D01*
X166921220Y-118874642D01*
X166924007Y-118871246D01*
X168355577Y-120308134D01*
X168355577Y-120308134D01*
G37*
X168355577Y-120308134D02*
X167988580Y-119943582D01*
X167764074Y-119943582D01*
X167472255Y-120235401D01*
X167415787Y-120258878D01*
X167270965Y-120355921D01*
X167147857Y-120479353D01*
X167051195Y-120624430D01*
X167028545Y-120679111D01*
X166553016Y-121154640D01*
X166496548Y-121178117D01*
X166351726Y-121275160D01*
X166228618Y-121398592D01*
X166131956Y-121543669D01*
X166109306Y-121598350D01*
X165633777Y-122073879D01*
X165577309Y-122097356D01*
X165432487Y-122194399D01*
X165309379Y-122317831D01*
X165212717Y-122462908D01*
X165190067Y-122517589D01*
X164898523Y-122809133D01*
X164898523Y-123033639D01*
X165546359Y-123685819D01*
X165561772Y-123698468D01*
X165547348Y-123716044D01*
X165474522Y-123852291D01*
X165429677Y-124000128D01*
X165414534Y-124153873D01*
X165429677Y-124307618D01*
X165474522Y-124455455D01*
X165481196Y-124467942D01*
X165479214Y-124466882D01*
X165313790Y-124416701D01*
X165141755Y-124399757D01*
X164969720Y-124416701D01*
X164804296Y-124466882D01*
X164773230Y-124483487D01*
X164118046Y-123828304D01*
X164131168Y-123803754D01*
X164181349Y-123638330D01*
X164198293Y-123466295D01*
X164181349Y-123294260D01*
X164131168Y-123128836D01*
X164049679Y-122976381D01*
X163940013Y-122842753D01*
X163595298Y-122498038D01*
X163461670Y-122388372D01*
X163309215Y-122306883D01*
X163143791Y-122256702D01*
X162971756Y-122239758D01*
X162963573Y-122240564D01*
X162973431Y-122140469D01*
X162961171Y-122015988D01*
X162953200Y-121989710D01*
X163072596Y-122053529D01*
X163220433Y-122098374D01*
X163374178Y-122113517D01*
X163527923Y-122098374D01*
X163675760Y-122053529D01*
X163812007Y-121980703D01*
X163829583Y-121966279D01*
X163842232Y-121981692D01*
X164494412Y-122629528D01*
X164718918Y-122629528D01*
X165010737Y-122337709D01*
X165067205Y-122314232D01*
X165212027Y-122217189D01*
X165335135Y-122093757D01*
X165431797Y-121948680D01*
X165454447Y-121893999D01*
X165929976Y-121418470D01*
X165986444Y-121394993D01*
X166131266Y-121297950D01*
X166254374Y-121174518D01*
X166351036Y-121029441D01*
X166373686Y-120974760D01*
X166849215Y-120499231D01*
X166905683Y-120475754D01*
X167050505Y-120378711D01*
X167173613Y-120255279D01*
X167270275Y-120110202D01*
X167292925Y-120055521D01*
X167584469Y-119763977D01*
X167584469Y-119539471D01*
X166936633Y-118887291D01*
X166921220Y-118874642D01*
X166924007Y-118871246D01*
X168355577Y-120308134D01*
G36*
X159084780Y-118582159D02*
G01*
X159218408Y-118691825D01*
X159370863Y-118773314D01*
X159536287Y-118823495D01*
X159708322Y-118840439D01*
X159716505Y-118839633D01*
X159706647Y-118939728D01*
X159718907Y-119064209D01*
X159755217Y-119183908D01*
X159814181Y-119294222D01*
X159893534Y-119390913D01*
X160012752Y-119506555D01*
X159778819Y-119506555D01*
X159741496Y-119502879D01*
X159704171Y-119506555D01*
X159704163Y-119506555D01*
X159592510Y-119517552D01*
X159449249Y-119561009D01*
X159363514Y-119606836D01*
X159317220Y-119631581D01*
X159230493Y-119702755D01*
X159230488Y-119702760D01*
X159201495Y-119726554D01*
X159177701Y-119755547D01*
X159103577Y-119829671D01*
X159093791Y-119826702D01*
X158921756Y-119809758D01*
X158913573Y-119810564D01*
X158923431Y-119710469D01*
X158911171Y-119585988D01*
X158874861Y-119466289D01*
X158815897Y-119355975D01*
X158736544Y-119259284D01*
X158591713Y-119118797D01*
X158367207Y-119118797D01*
X157625275Y-119860729D01*
X157639418Y-119874872D01*
X157459813Y-120054477D01*
X157445670Y-120040334D01*
X157431528Y-120054477D01*
X157251923Y-119874872D01*
X157266065Y-119860729D01*
X157251923Y-119846587D01*
X157431528Y-119666982D01*
X157445670Y-119681124D01*
X158187602Y-118939192D01*
X158187602Y-118714686D01*
X158111814Y-118636555D01*
X158622882Y-118636555D01*
X158660204Y-118640231D01*
X158697526Y-118636555D01*
X158697537Y-118636555D01*
X158809190Y-118625558D01*
X158952451Y-118582101D01*
X159038648Y-118536027D01*
X159084780Y-118582159D01*
X159084780Y-118582159D01*
G37*
X159084780Y-118582159D02*
X159218408Y-118691825D01*
X159370863Y-118773314D01*
X159536287Y-118823495D01*
X159708322Y-118840439D01*
X159716505Y-118839633D01*
X159706647Y-118939728D01*
X159718907Y-119064209D01*
X159755217Y-119183908D01*
X159814181Y-119294222D01*
X159893534Y-119390913D01*
X160012752Y-119506555D01*
X159778819Y-119506555D01*
X159741496Y-119502879D01*
X159704171Y-119506555D01*
X159704163Y-119506555D01*
X159592510Y-119517552D01*
X159449249Y-119561009D01*
X159363514Y-119606836D01*
X159317220Y-119631581D01*
X159230493Y-119702755D01*
X159230488Y-119702760D01*
X159201495Y-119726554D01*
X159177701Y-119755547D01*
X159103577Y-119829671D01*
X159093791Y-119826702D01*
X158921756Y-119809758D01*
X158913573Y-119810564D01*
X158923431Y-119710469D01*
X158911171Y-119585988D01*
X158874861Y-119466289D01*
X158815897Y-119355975D01*
X158736544Y-119259284D01*
X158591713Y-119118797D01*
X158367207Y-119118797D01*
X157625275Y-119860729D01*
X157639418Y-119874872D01*
X157459813Y-120054477D01*
X157445670Y-120040334D01*
X157431528Y-120054477D01*
X157251923Y-119874872D01*
X157266065Y-119860729D01*
X157251923Y-119846587D01*
X157431528Y-119666982D01*
X157445670Y-119681124D01*
X158187602Y-118939192D01*
X158187602Y-118714686D01*
X158111814Y-118636555D01*
X158622882Y-118636555D01*
X158660204Y-118640231D01*
X158697526Y-118636555D01*
X158697537Y-118636555D01*
X158809190Y-118625558D01*
X158952451Y-118582101D01*
X159038648Y-118536027D01*
X159084780Y-118582159D01*
G36*
X106408989Y-63361178D02*
G01*
X106409677Y-63361738D01*
X106434361Y-63386084D01*
X106461873Y-63404194D01*
X106487437Y-63424988D01*
X106518097Y-63441204D01*
X106547068Y-63460275D01*
X106577595Y-63472673D01*
X106606714Y-63488075D01*
X106639951Y-63498000D01*
X106672083Y-63511050D01*
X106704431Y-63517253D01*
X106736007Y-63526682D01*
X106770538Y-63529931D01*
X106804601Y-63536463D01*
X106837554Y-63536236D01*
X106870346Y-63539321D01*
X106904839Y-63535772D01*
X106939530Y-63535533D01*
X106971799Y-63528883D01*
X107004570Y-63525511D01*
X107037720Y-63515297D01*
X107071686Y-63508297D01*
X107102036Y-63495480D01*
X107133522Y-63485779D01*
X107164032Y-63469300D01*
X107164843Y-63468957D01*
X107194092Y-63453063D01*
X107252244Y-63421653D01*
X107252912Y-63421100D01*
X107340727Y-63373381D01*
X110279459Y-65706908D01*
X110279044Y-65707249D01*
X107654845Y-68335792D01*
X107654845Y-68560299D01*
X110730229Y-71635683D01*
X110744372Y-71621541D01*
X110923977Y-71801146D01*
X110909834Y-71815288D01*
X113985218Y-74890672D01*
X114209725Y-74890672D01*
X116838268Y-72266473D01*
X116917621Y-72169782D01*
X116976585Y-72059468D01*
X117012895Y-71939769D01*
X117025155Y-71815288D01*
X117012895Y-71690807D01*
X117009127Y-71678384D01*
X117100090Y-71699727D01*
X117123538Y-71705909D01*
X117132784Y-71707398D01*
X117141924Y-71709542D01*
X117166010Y-71712747D01*
X117480293Y-71763344D01*
X117503360Y-71767763D01*
X117513493Y-71768689D01*
X117523532Y-71770305D01*
X117546959Y-71771746D01*
X117881134Y-71802278D01*
X117903048Y-71805027D01*
X117914586Y-71805334D01*
X117926098Y-71806386D01*
X117948216Y-71806230D01*
X118303289Y-71815684D01*
X118324155Y-71817017D01*
X118336907Y-71816579D01*
X118349652Y-71816918D01*
X118370491Y-71815424D01*
X118747785Y-71802455D01*
X118767036Y-71802603D01*
X118781394Y-71801300D01*
X118795795Y-71800805D01*
X118814868Y-71798262D01*
X119215647Y-71761892D01*
X119233436Y-71761104D01*
X119249126Y-71758854D01*
X119264915Y-71757421D01*
X119282411Y-71754080D01*
X119708011Y-71693043D01*
X119723873Y-71691600D01*
X119741299Y-71688269D01*
X119758855Y-71685751D01*
X119774317Y-71681957D01*
X119887790Y-71660265D01*
X164913243Y-116853010D01*
X164803897Y-116942748D01*
X164591765Y-117154880D01*
X164493758Y-117274302D01*
X164420932Y-117410549D01*
X164376087Y-117558386D01*
X164370106Y-117619114D01*
X164309378Y-117625095D01*
X164161541Y-117669940D01*
X164025294Y-117742766D01*
X163905872Y-117840773D01*
X163693740Y-118052905D01*
X163595733Y-118172327D01*
X163522907Y-118308574D01*
X163478062Y-118456411D01*
X163472081Y-118517140D01*
X163411352Y-118523121D01*
X163263515Y-118567966D01*
X163127268Y-118640792D01*
X163007846Y-118738799D01*
X162795714Y-118950931D01*
X162697707Y-119070353D01*
X162624881Y-119206600D01*
X162580036Y-119354437D01*
X162574055Y-119415165D01*
X162513327Y-119421146D01*
X162365490Y-119465991D01*
X162229243Y-119538817D01*
X162227354Y-119540367D01*
X162152142Y-119517552D01*
X162053494Y-119507836D01*
X162067939Y-119493391D01*
X161955688Y-119381140D01*
X162180191Y-119381140D01*
X162475282Y-119090393D01*
X162554635Y-118993702D01*
X162613599Y-118883387D01*
X162649909Y-118763689D01*
X162662169Y-118639208D01*
X162649909Y-118514727D01*
X162613599Y-118395028D01*
X162554635Y-118284714D01*
X162475282Y-118188023D01*
X162330451Y-118047536D01*
X162105945Y-118047536D01*
X161364013Y-118789468D01*
X161378156Y-118803611D01*
X161198551Y-118983216D01*
X161184408Y-118969073D01*
X161170266Y-118983216D01*
X160990661Y-118803611D01*
X161004803Y-118789468D01*
X160990661Y-118775326D01*
X161170266Y-118595721D01*
X161184408Y-118609863D01*
X161926340Y-117867931D01*
X161926340Y-117643425D01*
X161785853Y-117498594D01*
X161689162Y-117419241D01*
X161578848Y-117360277D01*
X161459149Y-117323967D01*
X161334668Y-117311707D01*
X161234573Y-117321565D01*
X161235379Y-117313382D01*
X161218435Y-117141347D01*
X161168254Y-116975923D01*
X161086765Y-116823468D01*
X160977099Y-116689840D01*
X160632384Y-116345125D01*
X160498756Y-116235459D01*
X160346301Y-116153970D01*
X160180877Y-116103789D01*
X160008842Y-116086845D01*
X159836807Y-116103789D01*
X159671383Y-116153970D01*
X159518928Y-116235459D01*
X159385300Y-116345125D01*
X159074185Y-116656240D01*
X159090588Y-116636253D01*
X159149552Y-116525938D01*
X159185861Y-116406240D01*
X159198122Y-116281759D01*
X159185861Y-116157277D01*
X159149552Y-116037579D01*
X159090588Y-115927265D01*
X159011235Y-115830574D01*
X158504012Y-115327695D01*
X158279505Y-115327695D01*
X157502218Y-116104982D01*
X157516361Y-116119125D01*
X157336756Y-116298730D01*
X157322613Y-116284587D01*
X157308471Y-116298730D01*
X157128866Y-116119125D01*
X157143008Y-116104982D01*
X156188944Y-115150918D01*
X155964438Y-115150918D01*
X155633991Y-115477020D01*
X155554638Y-115573711D01*
X155495674Y-115684026D01*
X155459365Y-115803724D01*
X155453595Y-115862308D01*
X155395008Y-115868078D01*
X155275310Y-115904388D01*
X155164996Y-115963353D01*
X155076072Y-116036331D01*
X153786549Y-114746807D01*
X156368549Y-114746807D01*
X156368549Y-114971313D01*
X157322613Y-115925377D01*
X158099900Y-115148090D01*
X158099900Y-114923583D01*
X157597021Y-114416360D01*
X157500330Y-114337007D01*
X157390016Y-114278043D01*
X157270318Y-114241734D01*
X157145836Y-114229473D01*
X157021355Y-114241734D01*
X156901657Y-114278043D01*
X156791342Y-114337007D01*
X156694651Y-114416360D01*
X156368549Y-114746807D01*
X153786549Y-114746807D01*
X152937188Y-113897446D01*
X153743290Y-113091344D01*
X153822642Y-112994653D01*
X153881607Y-112884339D01*
X153917917Y-112764641D01*
X153930177Y-112640159D01*
X153917917Y-112515677D01*
X153881607Y-112395979D01*
X153822642Y-112285665D01*
X153743290Y-112188974D01*
X152329076Y-110774760D01*
X152232385Y-110695408D01*
X152122071Y-110636443D01*
X152002373Y-110600133D01*
X151877891Y-110587873D01*
X151753409Y-110600133D01*
X151633711Y-110636443D01*
X151523397Y-110695408D01*
X151426706Y-110774760D01*
X149684910Y-112516556D01*
X148278777Y-112516555D01*
X148354043Y-112375742D01*
X148438957Y-112095819D01*
X148467629Y-111804708D01*
X148438957Y-111513597D01*
X148420918Y-111454130D01*
X148480384Y-111472169D01*
X148698545Y-111493656D01*
X148844445Y-111493656D01*
X149062606Y-111472169D01*
X149342529Y-111387255D01*
X149600509Y-111249362D01*
X149826629Y-111063790D01*
X150012201Y-110837670D01*
X150150094Y-110579690D01*
X150235008Y-110299767D01*
X150263680Y-110008656D01*
X150235008Y-109717545D01*
X150216969Y-109658079D01*
X150276435Y-109676118D01*
X150494596Y-109697605D01*
X150640496Y-109697605D01*
X150858657Y-109676118D01*
X151138580Y-109591204D01*
X151396560Y-109453311D01*
X151622680Y-109267739D01*
X151808252Y-109041619D01*
X151946145Y-108783639D01*
X152031059Y-108503716D01*
X152059731Y-108212605D01*
X152031059Y-107921494D01*
X151946145Y-107641571D01*
X151808252Y-107383591D01*
X151622680Y-107157471D01*
X151396560Y-106971899D01*
X151138580Y-106834006D01*
X150858657Y-106749092D01*
X150640496Y-106727605D01*
X150527336Y-106727605D01*
X150563079Y-106660734D01*
X150599388Y-106541035D01*
X150611648Y-106416554D01*
X150599388Y-106292073D01*
X150563079Y-106172374D01*
X150504115Y-106062060D01*
X150424762Y-105965369D01*
X150023604Y-105568556D01*
X149799098Y-105568556D01*
X148951100Y-106416554D01*
X148965243Y-106430697D01*
X148785638Y-106610302D01*
X148771495Y-106596159D01*
X148757353Y-106610302D01*
X148577748Y-106430697D01*
X148591890Y-106416554D01*
X147743892Y-105568556D01*
X147519386Y-105568556D01*
X147427485Y-105659461D01*
X146932469Y-105164445D01*
X147923497Y-105164445D01*
X147923497Y-105388951D01*
X148771495Y-106236949D01*
X149619493Y-105388951D01*
X149619493Y-105164445D01*
X149222680Y-104763287D01*
X149125989Y-104683934D01*
X149015675Y-104624970D01*
X148895976Y-104588661D01*
X148771495Y-104576401D01*
X148647014Y-104588661D01*
X148527315Y-104624970D01*
X148417001Y-104683934D01*
X148320310Y-104763287D01*
X147923497Y-105164445D01*
X146932469Y-105164445D01*
X142010878Y-100242854D01*
X141987075Y-100213850D01*
X141871350Y-100118877D01*
X141739321Y-100048305D01*
X141596060Y-100004848D01*
X141484407Y-99993851D01*
X141484397Y-99993851D01*
X141447074Y-99990175D01*
X141409752Y-99993851D01*
X135293036Y-99993851D01*
X135235764Y-99886705D01*
X135156412Y-99790014D01*
X134821495Y-99455097D01*
X134821495Y-94647179D01*
X135308526Y-94647179D01*
X135313078Y-94704028D01*
X135316668Y-94760990D01*
X135318160Y-94769801D01*
X135350515Y-94953173D01*
X135361950Y-94994110D01*
X135370805Y-95035698D01*
X135373570Y-95044196D01*
X135431835Y-95219139D01*
X135455224Y-95271621D01*
X135477795Y-95324480D01*
X135482145Y-95332287D01*
X135557065Y-95464582D01*
X135557735Y-95465534D01*
X135558209Y-95466593D01*
X135593732Y-95516709D01*
X135628928Y-95566744D01*
X135629764Y-95567542D01*
X135630440Y-95568496D01*
X135636342Y-95575206D01*
X135654374Y-95595423D01*
X135658970Y-95599659D01*
X135662745Y-95604625D01*
X135704843Y-95641944D01*
X135746215Y-95680080D01*
X135751536Y-95683337D01*
X135756212Y-95687482D01*
X135763483Y-95692678D01*
X135928148Y-95808647D01*
X135952100Y-95822229D01*
X135974412Y-95838340D01*
X136006288Y-95852956D01*
X136036801Y-95870259D01*
X136062924Y-95878927D01*
X136087950Y-95890402D01*
X136096418Y-95893257D01*
X136291157Y-95957408D01*
X136322682Y-95964474D01*
X136353399Y-95974485D01*
X136383479Y-95978100D01*
X136413039Y-95984725D01*
X136445334Y-95985533D01*
X136477413Y-95989388D01*
X136486348Y-95989521D01*
X136677079Y-95991027D01*
X136677487Y-95990990D01*
X136677886Y-95991032D01*
X136729687Y-95986300D01*
X136742417Y-95986606D01*
X136760052Y-95983552D01*
X136801481Y-95979820D01*
X136801865Y-95979707D01*
X136802274Y-95979670D01*
X136811039Y-95977931D01*
X136824179Y-95975229D01*
X136844513Y-95968927D01*
X136865491Y-95965294D01*
X136874088Y-95962857D01*
X136950895Y-95940507D01*
X136954570Y-95939035D01*
X136958444Y-95938259D01*
X137012491Y-95915840D01*
X137066849Y-95894071D01*
X137070163Y-95891917D01*
X137073817Y-95890401D01*
X137081668Y-95886133D01*
X137149617Y-95848578D01*
X137151443Y-95847322D01*
X137153463Y-95846434D01*
X137202884Y-95811928D01*
X137252518Y-95777777D01*
X137254058Y-95776198D01*
X137255876Y-95774928D01*
X137262628Y-95769074D01*
X137338442Y-95702414D01*
X137359058Y-95680365D01*
X137381797Y-95660512D01*
X137387877Y-95653963D01*
X137488286Y-95544295D01*
X137492100Y-95539211D01*
X137496749Y-95534867D01*
X137502604Y-95528116D01*
X137590298Y-95425592D01*
X137720629Y-95277052D01*
X137886960Y-95095633D01*
X138067515Y-94904838D01*
X138215263Y-94753620D01*
X138223272Y-94745661D01*
X138217359Y-94890395D01*
X138218707Y-94914051D01*
X138217176Y-94937695D01*
X138217534Y-94946624D01*
X138223269Y-95068414D01*
X138232068Y-95128758D01*
X138240563Y-95189037D01*
X138241272Y-95191877D01*
X138241292Y-95192013D01*
X138241340Y-95192149D01*
X138242728Y-95197707D01*
X138259239Y-95261912D01*
X138266768Y-95282573D01*
X138271621Y-95304018D01*
X138275067Y-95311776D01*
X138275105Y-95311935D01*
X138276284Y-95314514D01*
X138288102Y-95341119D01*
X138302004Y-95379269D01*
X138313403Y-95398075D01*
X138322329Y-95418168D01*
X138326097Y-95423519D01*
X138327021Y-95425541D01*
X138346163Y-95452121D01*
X138366750Y-95486084D01*
X138381579Y-95502312D01*
X138394242Y-95520295D01*
X138400123Y-95527024D01*
X138401433Y-95528502D01*
X138428199Y-95553329D01*
X138451009Y-95578291D01*
X138470153Y-95592394D01*
X138491307Y-95612148D01*
X138492226Y-95612719D01*
X138493009Y-95613445D01*
X138528035Y-95635034D01*
X138551573Y-95652374D01*
X138570146Y-95661105D01*
X138597419Y-95678041D01*
X138598422Y-95678419D01*
X138599339Y-95678984D01*
X138642077Y-95694919D01*
X138664612Y-95705513D01*
X138681535Y-95709725D01*
X138714307Y-95722070D01*
X138716267Y-95722582D01*
X138716374Y-95722622D01*
X138716495Y-95722642D01*
X138722953Y-95724329D01*
X138785717Y-95740257D01*
X138818662Y-95745263D01*
X138851000Y-95753252D01*
X138880249Y-95754620D01*
X138909205Y-95759020D01*
X138942487Y-95757532D01*
X138950007Y-95757884D01*
X138941180Y-95775309D01*
X138846396Y-95947739D01*
X138740593Y-96136676D01*
X138740571Y-96136727D01*
X138740152Y-96137465D01*
X138628981Y-96336646D01*
X138628956Y-96336703D01*
X138628504Y-96337503D01*
X138533443Y-96508436D01*
X138533421Y-96508487D01*
X138532945Y-96509332D01*
X138513771Y-96543941D01*
X138513763Y-96543959D01*
X138513626Y-96544203D01*
X138374876Y-96794916D01*
X138358354Y-96833167D01*
X138339362Y-96870285D01*
X138333633Y-96890402D01*
X138325348Y-96909583D01*
X138316571Y-96950312D01*
X138305150Y-96990415D01*
X138303438Y-97011256D01*
X138299035Y-97031686D01*
X138298336Y-97073352D01*
X138294922Y-97114901D01*
X138297290Y-97135671D01*
X138296939Y-97156575D01*
X138304350Y-97197605D01*
X138309070Y-97239004D01*
X138315425Y-97258913D01*
X138319142Y-97279492D01*
X138334377Y-97318290D01*
X138347051Y-97357995D01*
X138350643Y-97366177D01*
X138537801Y-97784513D01*
X138538544Y-97785816D01*
X138539029Y-97787242D01*
X138542774Y-97795355D01*
X138641339Y-98005093D01*
X138650314Y-98020166D01*
X138657085Y-98036349D01*
X138661377Y-98044187D01*
X138736445Y-98179032D01*
X138768423Y-98225205D01*
X138799486Y-98272006D01*
X138805179Y-98278894D01*
X138860000Y-98344286D01*
X138882375Y-98366217D01*
X138902518Y-98390239D01*
X138926879Y-98409838D01*
X138949202Y-98431719D01*
X138975421Y-98448893D01*
X138999837Y-98468537D01*
X139027536Y-98483030D01*
X139053688Y-98500160D01*
X139082737Y-98511912D01*
X139110509Y-98526443D01*
X139118817Y-98529735D01*
X139140358Y-98538098D01*
X139163356Y-98544527D01*
X139169478Y-98547004D01*
X139169790Y-98547064D01*
X139187131Y-98554207D01*
X139224237Y-98561547D01*
X139260652Y-98571727D01*
X139285350Y-98573636D01*
X139309663Y-98578445D01*
X139347485Y-98578437D01*
X139385186Y-98581351D01*
X139409794Y-98578425D01*
X139434570Y-98578420D01*
X139471658Y-98571069D01*
X139509219Y-98566603D01*
X139532791Y-98558952D01*
X139557092Y-98554136D01*
X139565628Y-98551492D01*
X139628886Y-98531412D01*
X139683667Y-98507920D01*
X139738645Y-98484926D01*
X139741039Y-98483317D01*
X139743682Y-98482184D01*
X139792821Y-98448524D01*
X139842321Y-98415264D01*
X139844354Y-98413225D01*
X139846731Y-98411596D01*
X139888443Y-98368985D01*
X139930493Y-98326792D01*
X139932090Y-98324397D01*
X139934106Y-98322338D01*
X139966771Y-98272399D01*
X139999800Y-98222878D01*
X140000900Y-98220222D01*
X140002480Y-98217807D01*
X140024811Y-98162504D01*
X140047605Y-98107483D01*
X140049192Y-98102126D01*
X140049248Y-98101987D01*
X140049275Y-98101845D01*
X140050143Y-98098915D01*
X140069047Y-98033431D01*
X140074462Y-98004222D01*
X140082848Y-97975704D01*
X140085822Y-97942941D01*
X140091814Y-97910617D01*
X140091452Y-97880907D01*
X140094139Y-97851309D01*
X140090694Y-97818604D01*
X140090294Y-97785720D01*
X140084168Y-97756641D01*
X140081055Y-97727090D01*
X140079195Y-97718350D01*
X140053057Y-97599597D01*
X140038278Y-97554147D01*
X140025606Y-97508066D01*
X140022349Y-97499745D01*
X139950486Y-97319855D01*
X139945830Y-97310864D01*
X139942705Y-97301235D01*
X139939073Y-97293070D01*
X139918854Y-97248461D01*
X139874463Y-97147328D01*
X139906093Y-97086496D01*
X140002480Y-96911925D01*
X140031335Y-96861366D01*
X140031464Y-96861078D01*
X140031652Y-96860812D01*
X140036019Y-96853016D01*
X140227852Y-96504893D01*
X140232803Y-96493373D01*
X140239488Y-96482765D01*
X140243436Y-96474748D01*
X140384059Y-96184096D01*
X140392204Y-96161980D01*
X140402977Y-96141024D01*
X140406209Y-96132693D01*
X140497913Y-95891358D01*
X140508630Y-95851929D01*
X140521994Y-95813314D01*
X140524018Y-95804610D01*
X140569089Y-95604438D01*
X140569395Y-95601981D01*
X140570149Y-95599638D01*
X140577096Y-95540050D01*
X140584503Y-95480487D01*
X140584326Y-95478031D01*
X140584613Y-95475573D01*
X140584714Y-95466637D01*
X140585441Y-95299475D01*
X140583123Y-95274723D01*
X140583732Y-95249876D01*
X140577312Y-95212689D01*
X140573793Y-95175113D01*
X140566713Y-95151290D01*
X140562484Y-95126791D01*
X140560051Y-95118192D01*
X140518721Y-94975886D01*
X140496029Y-94919138D01*
X140473558Y-94862260D01*
X140472391Y-94860024D01*
X140472345Y-94859909D01*
X140472274Y-94859799D01*
X140469423Y-94854337D01*
X140444137Y-94806697D01*
X140431391Y-94787483D01*
X140421116Y-94766855D01*
X140396951Y-94735565D01*
X140375091Y-94702610D01*
X140358863Y-94686245D01*
X140344771Y-94667997D01*
X140338599Y-94661535D01*
X140217757Y-94536741D01*
X140180213Y-94504878D01*
X140144020Y-94471483D01*
X140132671Y-94464529D01*
X140122525Y-94455918D01*
X140079521Y-94431961D01*
X140037518Y-94406224D01*
X140029452Y-94402378D01*
X139852428Y-94319463D01*
X139829082Y-94311197D01*
X139806864Y-94300231D01*
X139770337Y-94290397D01*
X139734685Y-94277773D01*
X139710174Y-94274198D01*
X139686253Y-94267758D01*
X139677429Y-94266349D01*
X139676785Y-94266251D01*
X139672445Y-94237333D01*
X139670996Y-94233294D01*
X139670301Y-94229050D01*
X139667942Y-94220431D01*
X139611054Y-94018060D01*
X139604852Y-94002154D01*
X139600968Y-93985530D01*
X139582206Y-93944073D01*
X139565679Y-93901687D01*
X139556509Y-93887293D01*
X139549468Y-93871736D01*
X139544952Y-93864025D01*
X139432697Y-93675345D01*
X139408655Y-93642676D01*
X139386900Y-93608416D01*
X139381347Y-93601415D01*
X139309153Y-93511673D01*
X139297033Y-93499304D01*
X139286781Y-93485351D01*
X139280765Y-93478742D01*
X139173891Y-93362959D01*
X139133920Y-93327357D01*
X139094963Y-93290649D01*
X139087854Y-93285234D01*
X138999754Y-93219094D01*
X138976988Y-93205254D01*
X138955925Y-93188955D01*
X138923753Y-93172891D01*
X138893023Y-93154209D01*
X138868011Y-93145057D01*
X138844176Y-93133156D01*
X138835807Y-93130022D01*
X138736812Y-93093729D01*
X138697945Y-93083653D01*
X138659871Y-93070881D01*
X138651148Y-93068941D01*
X138602374Y-93058446D01*
X138602035Y-93058407D01*
X138601715Y-93058305D01*
X138540086Y-93051301D01*
X138478282Y-93044212D01*
X138477946Y-93044239D01*
X138477608Y-93044201D01*
X138468672Y-93044126D01*
X138287566Y-93043863D01*
X138248316Y-93047654D01*
X138208894Y-93048602D01*
X138186293Y-93053644D01*
X138163239Y-93055871D01*
X138125472Y-93067214D01*
X138086986Y-93075800D01*
X138078516Y-93078647D01*
X137881534Y-93146385D01*
X137873304Y-93150149D01*
X137864563Y-93152490D01*
X137816576Y-93176094D01*
X137767944Y-93198336D01*
X137760603Y-93203626D01*
X137752483Y-93207620D01*
X137744920Y-93212381D01*
X137529099Y-93350361D01*
X137493391Y-93378452D01*
X137456227Y-93404601D01*
X137449496Y-93410479D01*
X137211864Y-93620950D01*
X137192651Y-93641649D01*
X137171318Y-93660182D01*
X137165222Y-93666716D01*
X136902815Y-93951921D01*
X136892828Y-93965167D01*
X136881036Y-93976855D01*
X136875383Y-93983775D01*
X136714285Y-94183769D01*
X136712294Y-94179397D01*
X136697523Y-94140398D01*
X136686471Y-94122672D01*
X136677817Y-94103663D01*
X136653501Y-94069795D01*
X136631436Y-94034407D01*
X136617150Y-94019164D01*
X136604970Y-94002200D01*
X136574533Y-93973694D01*
X136546020Y-93943272D01*
X136529054Y-93931100D01*
X136513803Y-93916817D01*
X136478406Y-93894765D01*
X136444530Y-93870462D01*
X136436765Y-93866041D01*
X136389432Y-93839527D01*
X136355554Y-93824687D01*
X136322974Y-93807192D01*
X136298484Y-93799688D01*
X136275021Y-93789410D01*
X136238916Y-93781435D01*
X136219184Y-93775389D01*
X136213160Y-93773278D01*
X136211543Y-93773048D01*
X136203549Y-93770598D01*
X136194778Y-93768888D01*
X136179580Y-93766034D01*
X136162295Y-93764511D01*
X136153055Y-93762470D01*
X136134520Y-93762063D01*
X136134413Y-93762054D01*
X136089504Y-93755653D01*
X136080574Y-93755324D01*
X136015411Y-93753377D01*
X135968560Y-93756562D01*
X135921597Y-93757465D01*
X135906348Y-93760791D01*
X135890792Y-93761848D01*
X135845468Y-93774068D01*
X135799560Y-93784080D01*
X135785247Y-93790304D01*
X135770193Y-93794363D01*
X135728094Y-93815159D01*
X135685016Y-93833892D01*
X135672194Y-93842772D01*
X135658204Y-93849682D01*
X135620932Y-93878270D01*
X135582328Y-93905004D01*
X135571472Y-93916207D01*
X135559095Y-93925701D01*
X135528094Y-93960975D01*
X135495409Y-93994706D01*
X135489895Y-94001739D01*
X135459692Y-94040821D01*
X135452796Y-94051816D01*
X135444280Y-94061619D01*
X135419655Y-94104652D01*
X135393323Y-94146635D01*
X135388693Y-94158762D01*
X135382244Y-94170032D01*
X135366446Y-94217028D01*
X135348770Y-94263325D01*
X135346584Y-94276117D01*
X135342446Y-94288427D01*
X135340500Y-94297149D01*
X135325641Y-94365992D01*
X135319024Y-94423361D01*
X135311558Y-94480669D01*
X135311337Y-94489603D01*
X135308526Y-94647179D01*
X134821495Y-94647179D01*
X134821495Y-92795969D01*
X134825172Y-92758636D01*
X134810498Y-92609650D01*
X134767041Y-92466389D01*
X134696469Y-92334360D01*
X134625294Y-92247633D01*
X134601496Y-92218635D01*
X134572499Y-92194838D01*
X130042773Y-87665112D01*
X130112681Y-87607740D01*
X130298253Y-87381620D01*
X130436146Y-87123640D01*
X130521060Y-86843717D01*
X130549732Y-86552606D01*
X130522880Y-86279973D01*
X130922499Y-85880354D01*
X130951497Y-85856556D01*
X131046470Y-85740831D01*
X131117042Y-85608802D01*
X131160499Y-85465541D01*
X131171496Y-85353888D01*
X131171496Y-85353878D01*
X131175172Y-85316555D01*
X131171496Y-85279232D01*
X131171496Y-83573877D01*
X131175172Y-83536554D01*
X131171496Y-83499231D01*
X131171496Y-83499222D01*
X131160499Y-83387569D01*
X131117042Y-83244308D01*
X131046470Y-83112279D01*
X130951497Y-82996554D01*
X130922500Y-82972757D01*
X123255300Y-75305557D01*
X123231497Y-75276553D01*
X123115772Y-75181580D01*
X122983743Y-75111008D01*
X122840482Y-75067551D01*
X122728829Y-75056554D01*
X122728819Y-75056554D01*
X122691496Y-75052878D01*
X122654174Y-75056554D01*
X119108820Y-75056554D01*
X119071495Y-75052878D01*
X119034170Y-75056554D01*
X119034162Y-75056554D01*
X118922509Y-75067551D01*
X118779248Y-75111008D01*
X118647219Y-75181580D01*
X118531494Y-75276553D01*
X118507696Y-75305551D01*
X115536694Y-78276554D01*
X111661550Y-78276556D01*
X111244815Y-77859821D01*
X113805613Y-75294784D01*
X113805613Y-75070277D01*
X110730229Y-71994893D01*
X110716087Y-72009036D01*
X110536482Y-71829431D01*
X110550624Y-71815288D01*
X107475240Y-68739904D01*
X107250733Y-68739904D01*
X104685695Y-71300702D01*
X104601495Y-71216502D01*
X104601495Y-69151356D01*
X106142504Y-67610348D01*
X106171497Y-67586554D01*
X106195291Y-67557561D01*
X106195295Y-67557557D01*
X106266470Y-67470830D01*
X106337042Y-67338801D01*
X106380499Y-67195540D01*
X106384292Y-67157029D01*
X106391496Y-67083886D01*
X106391496Y-67083879D01*
X106395172Y-67046554D01*
X106391496Y-67009228D01*
X106391494Y-63343835D01*
X106408989Y-63361178D01*
X106408989Y-63361178D01*
G37*
X106408989Y-63361178D02*
X106409677Y-63361738D01*
X106434361Y-63386084D01*
X106461873Y-63404194D01*
X106487437Y-63424988D01*
X106518097Y-63441204D01*
X106547068Y-63460275D01*
X106577595Y-63472673D01*
X106606714Y-63488075D01*
X106639951Y-63498000D01*
X106672083Y-63511050D01*
X106704431Y-63517253D01*
X106736007Y-63526682D01*
X106770538Y-63529931D01*
X106804601Y-63536463D01*
X106837554Y-63536236D01*
X106870346Y-63539321D01*
X106904839Y-63535772D01*
X106939530Y-63535533D01*
X106971799Y-63528883D01*
X107004570Y-63525511D01*
X107037720Y-63515297D01*
X107071686Y-63508297D01*
X107102036Y-63495480D01*
X107133522Y-63485779D01*
X107164032Y-63469300D01*
X107164843Y-63468957D01*
X107194092Y-63453063D01*
X107252244Y-63421653D01*
X107252912Y-63421100D01*
X107340727Y-63373381D01*
X110279459Y-65706908D01*
X110279044Y-65707249D01*
X107654845Y-68335792D01*
X107654845Y-68560299D01*
X110730229Y-71635683D01*
X110744372Y-71621541D01*
X110923977Y-71801146D01*
X110909834Y-71815288D01*
X113985218Y-74890672D01*
X114209725Y-74890672D01*
X116838268Y-72266473D01*
X116917621Y-72169782D01*
X116976585Y-72059468D01*
X117012895Y-71939769D01*
X117025155Y-71815288D01*
X117012895Y-71690807D01*
X117009127Y-71678384D01*
X117100090Y-71699727D01*
X117123538Y-71705909D01*
X117132784Y-71707398D01*
X117141924Y-71709542D01*
X117166010Y-71712747D01*
X117480293Y-71763344D01*
X117503360Y-71767763D01*
X117513493Y-71768689D01*
X117523532Y-71770305D01*
X117546959Y-71771746D01*
X117881134Y-71802278D01*
X117903048Y-71805027D01*
X117914586Y-71805334D01*
X117926098Y-71806386D01*
X117948216Y-71806230D01*
X118303289Y-71815684D01*
X118324155Y-71817017D01*
X118336907Y-71816579D01*
X118349652Y-71816918D01*
X118370491Y-71815424D01*
X118747785Y-71802455D01*
X118767036Y-71802603D01*
X118781394Y-71801300D01*
X118795795Y-71800805D01*
X118814868Y-71798262D01*
X119215647Y-71761892D01*
X119233436Y-71761104D01*
X119249126Y-71758854D01*
X119264915Y-71757421D01*
X119282411Y-71754080D01*
X119708011Y-71693043D01*
X119723873Y-71691600D01*
X119741299Y-71688269D01*
X119758855Y-71685751D01*
X119774317Y-71681957D01*
X119887790Y-71660265D01*
X164913243Y-116853010D01*
X164803897Y-116942748D01*
X164591765Y-117154880D01*
X164493758Y-117274302D01*
X164420932Y-117410549D01*
X164376087Y-117558386D01*
X164370106Y-117619114D01*
X164309378Y-117625095D01*
X164161541Y-117669940D01*
X164025294Y-117742766D01*
X163905872Y-117840773D01*
X163693740Y-118052905D01*
X163595733Y-118172327D01*
X163522907Y-118308574D01*
X163478062Y-118456411D01*
X163472081Y-118517140D01*
X163411352Y-118523121D01*
X163263515Y-118567966D01*
X163127268Y-118640792D01*
X163007846Y-118738799D01*
X162795714Y-118950931D01*
X162697707Y-119070353D01*
X162624881Y-119206600D01*
X162580036Y-119354437D01*
X162574055Y-119415165D01*
X162513327Y-119421146D01*
X162365490Y-119465991D01*
X162229243Y-119538817D01*
X162227354Y-119540367D01*
X162152142Y-119517552D01*
X162053494Y-119507836D01*
X162067939Y-119493391D01*
X161955688Y-119381140D01*
X162180191Y-119381140D01*
X162475282Y-119090393D01*
X162554635Y-118993702D01*
X162613599Y-118883387D01*
X162649909Y-118763689D01*
X162662169Y-118639208D01*
X162649909Y-118514727D01*
X162613599Y-118395028D01*
X162554635Y-118284714D01*
X162475282Y-118188023D01*
X162330451Y-118047536D01*
X162105945Y-118047536D01*
X161364013Y-118789468D01*
X161378156Y-118803611D01*
X161198551Y-118983216D01*
X161184408Y-118969073D01*
X161170266Y-118983216D01*
X160990661Y-118803611D01*
X161004803Y-118789468D01*
X160990661Y-118775326D01*
X161170266Y-118595721D01*
X161184408Y-118609863D01*
X161926340Y-117867931D01*
X161926340Y-117643425D01*
X161785853Y-117498594D01*
X161689162Y-117419241D01*
X161578848Y-117360277D01*
X161459149Y-117323967D01*
X161334668Y-117311707D01*
X161234573Y-117321565D01*
X161235379Y-117313382D01*
X161218435Y-117141347D01*
X161168254Y-116975923D01*
X161086765Y-116823468D01*
X160977099Y-116689840D01*
X160632384Y-116345125D01*
X160498756Y-116235459D01*
X160346301Y-116153970D01*
X160180877Y-116103789D01*
X160008842Y-116086845D01*
X159836807Y-116103789D01*
X159671383Y-116153970D01*
X159518928Y-116235459D01*
X159385300Y-116345125D01*
X159074185Y-116656240D01*
X159090588Y-116636253D01*
X159149552Y-116525938D01*
X159185861Y-116406240D01*
X159198122Y-116281759D01*
X159185861Y-116157277D01*
X159149552Y-116037579D01*
X159090588Y-115927265D01*
X159011235Y-115830574D01*
X158504012Y-115327695D01*
X158279505Y-115327695D01*
X157502218Y-116104982D01*
X157516361Y-116119125D01*
X157336756Y-116298730D01*
X157322613Y-116284587D01*
X157308471Y-116298730D01*
X157128866Y-116119125D01*
X157143008Y-116104982D01*
X156188944Y-115150918D01*
X155964438Y-115150918D01*
X155633991Y-115477020D01*
X155554638Y-115573711D01*
X155495674Y-115684026D01*
X155459365Y-115803724D01*
X155453595Y-115862308D01*
X155395008Y-115868078D01*
X155275310Y-115904388D01*
X155164996Y-115963353D01*
X155076072Y-116036331D01*
X153786549Y-114746807D01*
X156368549Y-114746807D01*
X156368549Y-114971313D01*
X157322613Y-115925377D01*
X158099900Y-115148090D01*
X158099900Y-114923583D01*
X157597021Y-114416360D01*
X157500330Y-114337007D01*
X157390016Y-114278043D01*
X157270318Y-114241734D01*
X157145836Y-114229473D01*
X157021355Y-114241734D01*
X156901657Y-114278043D01*
X156791342Y-114337007D01*
X156694651Y-114416360D01*
X156368549Y-114746807D01*
X153786549Y-114746807D01*
X152937188Y-113897446D01*
X153743290Y-113091344D01*
X153822642Y-112994653D01*
X153881607Y-112884339D01*
X153917917Y-112764641D01*
X153930177Y-112640159D01*
X153917917Y-112515677D01*
X153881607Y-112395979D01*
X153822642Y-112285665D01*
X153743290Y-112188974D01*
X152329076Y-110774760D01*
X152232385Y-110695408D01*
X152122071Y-110636443D01*
X152002373Y-110600133D01*
X151877891Y-110587873D01*
X151753409Y-110600133D01*
X151633711Y-110636443D01*
X151523397Y-110695408D01*
X151426706Y-110774760D01*
X149684910Y-112516556D01*
X148278777Y-112516555D01*
X148354043Y-112375742D01*
X148438957Y-112095819D01*
X148467629Y-111804708D01*
X148438957Y-111513597D01*
X148420918Y-111454130D01*
X148480384Y-111472169D01*
X148698545Y-111493656D01*
X148844445Y-111493656D01*
X149062606Y-111472169D01*
X149342529Y-111387255D01*
X149600509Y-111249362D01*
X149826629Y-111063790D01*
X150012201Y-110837670D01*
X150150094Y-110579690D01*
X150235008Y-110299767D01*
X150263680Y-110008656D01*
X150235008Y-109717545D01*
X150216969Y-109658079D01*
X150276435Y-109676118D01*
X150494596Y-109697605D01*
X150640496Y-109697605D01*
X150858657Y-109676118D01*
X151138580Y-109591204D01*
X151396560Y-109453311D01*
X151622680Y-109267739D01*
X151808252Y-109041619D01*
X151946145Y-108783639D01*
X152031059Y-108503716D01*
X152059731Y-108212605D01*
X152031059Y-107921494D01*
X151946145Y-107641571D01*
X151808252Y-107383591D01*
X151622680Y-107157471D01*
X151396560Y-106971899D01*
X151138580Y-106834006D01*
X150858657Y-106749092D01*
X150640496Y-106727605D01*
X150527336Y-106727605D01*
X150563079Y-106660734D01*
X150599388Y-106541035D01*
X150611648Y-106416554D01*
X150599388Y-106292073D01*
X150563079Y-106172374D01*
X150504115Y-106062060D01*
X150424762Y-105965369D01*
X150023604Y-105568556D01*
X149799098Y-105568556D01*
X148951100Y-106416554D01*
X148965243Y-106430697D01*
X148785638Y-106610302D01*
X148771495Y-106596159D01*
X148757353Y-106610302D01*
X148577748Y-106430697D01*
X148591890Y-106416554D01*
X147743892Y-105568556D01*
X147519386Y-105568556D01*
X147427485Y-105659461D01*
X146932469Y-105164445D01*
X147923497Y-105164445D01*
X147923497Y-105388951D01*
X148771495Y-106236949D01*
X149619493Y-105388951D01*
X149619493Y-105164445D01*
X149222680Y-104763287D01*
X149125989Y-104683934D01*
X149015675Y-104624970D01*
X148895976Y-104588661D01*
X148771495Y-104576401D01*
X148647014Y-104588661D01*
X148527315Y-104624970D01*
X148417001Y-104683934D01*
X148320310Y-104763287D01*
X147923497Y-105164445D01*
X146932469Y-105164445D01*
X142010878Y-100242854D01*
X141987075Y-100213850D01*
X141871350Y-100118877D01*
X141739321Y-100048305D01*
X141596060Y-100004848D01*
X141484407Y-99993851D01*
X141484397Y-99993851D01*
X141447074Y-99990175D01*
X141409752Y-99993851D01*
X135293036Y-99993851D01*
X135235764Y-99886705D01*
X135156412Y-99790014D01*
X134821495Y-99455097D01*
X134821495Y-94647179D01*
X135308526Y-94647179D01*
X135313078Y-94704028D01*
X135316668Y-94760990D01*
X135318160Y-94769801D01*
X135350515Y-94953173D01*
X135361950Y-94994110D01*
X135370805Y-95035698D01*
X135373570Y-95044196D01*
X135431835Y-95219139D01*
X135455224Y-95271621D01*
X135477795Y-95324480D01*
X135482145Y-95332287D01*
X135557065Y-95464582D01*
X135557735Y-95465534D01*
X135558209Y-95466593D01*
X135593732Y-95516709D01*
X135628928Y-95566744D01*
X135629764Y-95567542D01*
X135630440Y-95568496D01*
X135636342Y-95575206D01*
X135654374Y-95595423D01*
X135658970Y-95599659D01*
X135662745Y-95604625D01*
X135704843Y-95641944D01*
X135746215Y-95680080D01*
X135751536Y-95683337D01*
X135756212Y-95687482D01*
X135763483Y-95692678D01*
X135928148Y-95808647D01*
X135952100Y-95822229D01*
X135974412Y-95838340D01*
X136006288Y-95852956D01*
X136036801Y-95870259D01*
X136062924Y-95878927D01*
X136087950Y-95890402D01*
X136096418Y-95893257D01*
X136291157Y-95957408D01*
X136322682Y-95964474D01*
X136353399Y-95974485D01*
X136383479Y-95978100D01*
X136413039Y-95984725D01*
X136445334Y-95985533D01*
X136477413Y-95989388D01*
X136486348Y-95989521D01*
X136677079Y-95991027D01*
X136677487Y-95990990D01*
X136677886Y-95991032D01*
X136729687Y-95986300D01*
X136742417Y-95986606D01*
X136760052Y-95983552D01*
X136801481Y-95979820D01*
X136801865Y-95979707D01*
X136802274Y-95979670D01*
X136811039Y-95977931D01*
X136824179Y-95975229D01*
X136844513Y-95968927D01*
X136865491Y-95965294D01*
X136874088Y-95962857D01*
X136950895Y-95940507D01*
X136954570Y-95939035D01*
X136958444Y-95938259D01*
X137012491Y-95915840D01*
X137066849Y-95894071D01*
X137070163Y-95891917D01*
X137073817Y-95890401D01*
X137081668Y-95886133D01*
X137149617Y-95848578D01*
X137151443Y-95847322D01*
X137153463Y-95846434D01*
X137202884Y-95811928D01*
X137252518Y-95777777D01*
X137254058Y-95776198D01*
X137255876Y-95774928D01*
X137262628Y-95769074D01*
X137338442Y-95702414D01*
X137359058Y-95680365D01*
X137381797Y-95660512D01*
X137387877Y-95653963D01*
X137488286Y-95544295D01*
X137492100Y-95539211D01*
X137496749Y-95534867D01*
X137502604Y-95528116D01*
X137590298Y-95425592D01*
X137720629Y-95277052D01*
X137886960Y-95095633D01*
X138067515Y-94904838D01*
X138215263Y-94753620D01*
X138223272Y-94745661D01*
X138217359Y-94890395D01*
X138218707Y-94914051D01*
X138217176Y-94937695D01*
X138217534Y-94946624D01*
X138223269Y-95068414D01*
X138232068Y-95128758D01*
X138240563Y-95189037D01*
X138241272Y-95191877D01*
X138241292Y-95192013D01*
X138241340Y-95192149D01*
X138242728Y-95197707D01*
X138259239Y-95261912D01*
X138266768Y-95282573D01*
X138271621Y-95304018D01*
X138275067Y-95311776D01*
X138275105Y-95311935D01*
X138276284Y-95314514D01*
X138288102Y-95341119D01*
X138302004Y-95379269D01*
X138313403Y-95398075D01*
X138322329Y-95418168D01*
X138326097Y-95423519D01*
X138327021Y-95425541D01*
X138346163Y-95452121D01*
X138366750Y-95486084D01*
X138381579Y-95502312D01*
X138394242Y-95520295D01*
X138400123Y-95527024D01*
X138401433Y-95528502D01*
X138428199Y-95553329D01*
X138451009Y-95578291D01*
X138470153Y-95592394D01*
X138491307Y-95612148D01*
X138492226Y-95612719D01*
X138493009Y-95613445D01*
X138528035Y-95635034D01*
X138551573Y-95652374D01*
X138570146Y-95661105D01*
X138597419Y-95678041D01*
X138598422Y-95678419D01*
X138599339Y-95678984D01*
X138642077Y-95694919D01*
X138664612Y-95705513D01*
X138681535Y-95709725D01*
X138714307Y-95722070D01*
X138716267Y-95722582D01*
X138716374Y-95722622D01*
X138716495Y-95722642D01*
X138722953Y-95724329D01*
X138785717Y-95740257D01*
X138818662Y-95745263D01*
X138851000Y-95753252D01*
X138880249Y-95754620D01*
X138909205Y-95759020D01*
X138942487Y-95757532D01*
X138950007Y-95757884D01*
X138941180Y-95775309D01*
X138846396Y-95947739D01*
X138740593Y-96136676D01*
X138740571Y-96136727D01*
X138740152Y-96137465D01*
X138628981Y-96336646D01*
X138628956Y-96336703D01*
X138628504Y-96337503D01*
X138533443Y-96508436D01*
X138533421Y-96508487D01*
X138532945Y-96509332D01*
X138513771Y-96543941D01*
X138513763Y-96543959D01*
X138513626Y-96544203D01*
X138374876Y-96794916D01*
X138358354Y-96833167D01*
X138339362Y-96870285D01*
X138333633Y-96890402D01*
X138325348Y-96909583D01*
X138316571Y-96950312D01*
X138305150Y-96990415D01*
X138303438Y-97011256D01*
X138299035Y-97031686D01*
X138298336Y-97073352D01*
X138294922Y-97114901D01*
X138297290Y-97135671D01*
X138296939Y-97156575D01*
X138304350Y-97197605D01*
X138309070Y-97239004D01*
X138315425Y-97258913D01*
X138319142Y-97279492D01*
X138334377Y-97318290D01*
X138347051Y-97357995D01*
X138350643Y-97366177D01*
X138537801Y-97784513D01*
X138538544Y-97785816D01*
X138539029Y-97787242D01*
X138542774Y-97795355D01*
X138641339Y-98005093D01*
X138650314Y-98020166D01*
X138657085Y-98036349D01*
X138661377Y-98044187D01*
X138736445Y-98179032D01*
X138768423Y-98225205D01*
X138799486Y-98272006D01*
X138805179Y-98278894D01*
X138860000Y-98344286D01*
X138882375Y-98366217D01*
X138902518Y-98390239D01*
X138926879Y-98409838D01*
X138949202Y-98431719D01*
X138975421Y-98448893D01*
X138999837Y-98468537D01*
X139027536Y-98483030D01*
X139053688Y-98500160D01*
X139082737Y-98511912D01*
X139110509Y-98526443D01*
X139118817Y-98529735D01*
X139140358Y-98538098D01*
X139163356Y-98544527D01*
X139169478Y-98547004D01*
X139169790Y-98547064D01*
X139187131Y-98554207D01*
X139224237Y-98561547D01*
X139260652Y-98571727D01*
X139285350Y-98573636D01*
X139309663Y-98578445D01*
X139347485Y-98578437D01*
X139385186Y-98581351D01*
X139409794Y-98578425D01*
X139434570Y-98578420D01*
X139471658Y-98571069D01*
X139509219Y-98566603D01*
X139532791Y-98558952D01*
X139557092Y-98554136D01*
X139565628Y-98551492D01*
X139628886Y-98531412D01*
X139683667Y-98507920D01*
X139738645Y-98484926D01*
X139741039Y-98483317D01*
X139743682Y-98482184D01*
X139792821Y-98448524D01*
X139842321Y-98415264D01*
X139844354Y-98413225D01*
X139846731Y-98411596D01*
X139888443Y-98368985D01*
X139930493Y-98326792D01*
X139932090Y-98324397D01*
X139934106Y-98322338D01*
X139966771Y-98272399D01*
X139999800Y-98222878D01*
X140000900Y-98220222D01*
X140002480Y-98217807D01*
X140024811Y-98162504D01*
X140047605Y-98107483D01*
X140049192Y-98102126D01*
X140049248Y-98101987D01*
X140049275Y-98101845D01*
X140050143Y-98098915D01*
X140069047Y-98033431D01*
X140074462Y-98004222D01*
X140082848Y-97975704D01*
X140085822Y-97942941D01*
X140091814Y-97910617D01*
X140091452Y-97880907D01*
X140094139Y-97851309D01*
X140090694Y-97818604D01*
X140090294Y-97785720D01*
X140084168Y-97756641D01*
X140081055Y-97727090D01*
X140079195Y-97718350D01*
X140053057Y-97599597D01*
X140038278Y-97554147D01*
X140025606Y-97508066D01*
X140022349Y-97499745D01*
X139950486Y-97319855D01*
X139945830Y-97310864D01*
X139942705Y-97301235D01*
X139939073Y-97293070D01*
X139918854Y-97248461D01*
X139874463Y-97147328D01*
X139906093Y-97086496D01*
X140002480Y-96911925D01*
X140031335Y-96861366D01*
X140031464Y-96861078D01*
X140031652Y-96860812D01*
X140036019Y-96853016D01*
X140227852Y-96504893D01*
X140232803Y-96493373D01*
X140239488Y-96482765D01*
X140243436Y-96474748D01*
X140384059Y-96184096D01*
X140392204Y-96161980D01*
X140402977Y-96141024D01*
X140406209Y-96132693D01*
X140497913Y-95891358D01*
X140508630Y-95851929D01*
X140521994Y-95813314D01*
X140524018Y-95804610D01*
X140569089Y-95604438D01*
X140569395Y-95601981D01*
X140570149Y-95599638D01*
X140577096Y-95540050D01*
X140584503Y-95480487D01*
X140584326Y-95478031D01*
X140584613Y-95475573D01*
X140584714Y-95466637D01*
X140585441Y-95299475D01*
X140583123Y-95274723D01*
X140583732Y-95249876D01*
X140577312Y-95212689D01*
X140573793Y-95175113D01*
X140566713Y-95151290D01*
X140562484Y-95126791D01*
X140560051Y-95118192D01*
X140518721Y-94975886D01*
X140496029Y-94919138D01*
X140473558Y-94862260D01*
X140472391Y-94860024D01*
X140472345Y-94859909D01*
X140472274Y-94859799D01*
X140469423Y-94854337D01*
X140444137Y-94806697D01*
X140431391Y-94787483D01*
X140421116Y-94766855D01*
X140396951Y-94735565D01*
X140375091Y-94702610D01*
X140358863Y-94686245D01*
X140344771Y-94667997D01*
X140338599Y-94661535D01*
X140217757Y-94536741D01*
X140180213Y-94504878D01*
X140144020Y-94471483D01*
X140132671Y-94464529D01*
X140122525Y-94455918D01*
X140079521Y-94431961D01*
X140037518Y-94406224D01*
X140029452Y-94402378D01*
X139852428Y-94319463D01*
X139829082Y-94311197D01*
X139806864Y-94300231D01*
X139770337Y-94290397D01*
X139734685Y-94277773D01*
X139710174Y-94274198D01*
X139686253Y-94267758D01*
X139677429Y-94266349D01*
X139676785Y-94266251D01*
X139672445Y-94237333D01*
X139670996Y-94233294D01*
X139670301Y-94229050D01*
X139667942Y-94220431D01*
X139611054Y-94018060D01*
X139604852Y-94002154D01*
X139600968Y-93985530D01*
X139582206Y-93944073D01*
X139565679Y-93901687D01*
X139556509Y-93887293D01*
X139549468Y-93871736D01*
X139544952Y-93864025D01*
X139432697Y-93675345D01*
X139408655Y-93642676D01*
X139386900Y-93608416D01*
X139381347Y-93601415D01*
X139309153Y-93511673D01*
X139297033Y-93499304D01*
X139286781Y-93485351D01*
X139280765Y-93478742D01*
X139173891Y-93362959D01*
X139133920Y-93327357D01*
X139094963Y-93290649D01*
X139087854Y-93285234D01*
X138999754Y-93219094D01*
X138976988Y-93205254D01*
X138955925Y-93188955D01*
X138923753Y-93172891D01*
X138893023Y-93154209D01*
X138868011Y-93145057D01*
X138844176Y-93133156D01*
X138835807Y-93130022D01*
X138736812Y-93093729D01*
X138697945Y-93083653D01*
X138659871Y-93070881D01*
X138651148Y-93068941D01*
X138602374Y-93058446D01*
X138602035Y-93058407D01*
X138601715Y-93058305D01*
X138540086Y-93051301D01*
X138478282Y-93044212D01*
X138477946Y-93044239D01*
X138477608Y-93044201D01*
X138468672Y-93044126D01*
X138287566Y-93043863D01*
X138248316Y-93047654D01*
X138208894Y-93048602D01*
X138186293Y-93053644D01*
X138163239Y-93055871D01*
X138125472Y-93067214D01*
X138086986Y-93075800D01*
X138078516Y-93078647D01*
X137881534Y-93146385D01*
X137873304Y-93150149D01*
X137864563Y-93152490D01*
X137816576Y-93176094D01*
X137767944Y-93198336D01*
X137760603Y-93203626D01*
X137752483Y-93207620D01*
X137744920Y-93212381D01*
X137529099Y-93350361D01*
X137493391Y-93378452D01*
X137456227Y-93404601D01*
X137449496Y-93410479D01*
X137211864Y-93620950D01*
X137192651Y-93641649D01*
X137171318Y-93660182D01*
X137165222Y-93666716D01*
X136902815Y-93951921D01*
X136892828Y-93965167D01*
X136881036Y-93976855D01*
X136875383Y-93983775D01*
X136714285Y-94183769D01*
X136712294Y-94179397D01*
X136697523Y-94140398D01*
X136686471Y-94122672D01*
X136677817Y-94103663D01*
X136653501Y-94069795D01*
X136631436Y-94034407D01*
X136617150Y-94019164D01*
X136604970Y-94002200D01*
X136574533Y-93973694D01*
X136546020Y-93943272D01*
X136529054Y-93931100D01*
X136513803Y-93916817D01*
X136478406Y-93894765D01*
X136444530Y-93870462D01*
X136436765Y-93866041D01*
X136389432Y-93839527D01*
X136355554Y-93824687D01*
X136322974Y-93807192D01*
X136298484Y-93799688D01*
X136275021Y-93789410D01*
X136238916Y-93781435D01*
X136219184Y-93775389D01*
X136213160Y-93773278D01*
X136211543Y-93773048D01*
X136203549Y-93770598D01*
X136194778Y-93768888D01*
X136179580Y-93766034D01*
X136162295Y-93764511D01*
X136153055Y-93762470D01*
X136134520Y-93762063D01*
X136134413Y-93762054D01*
X136089504Y-93755653D01*
X136080574Y-93755324D01*
X136015411Y-93753377D01*
X135968560Y-93756562D01*
X135921597Y-93757465D01*
X135906348Y-93760791D01*
X135890792Y-93761848D01*
X135845468Y-93774068D01*
X135799560Y-93784080D01*
X135785247Y-93790304D01*
X135770193Y-93794363D01*
X135728094Y-93815159D01*
X135685016Y-93833892D01*
X135672194Y-93842772D01*
X135658204Y-93849682D01*
X135620932Y-93878270D01*
X135582328Y-93905004D01*
X135571472Y-93916207D01*
X135559095Y-93925701D01*
X135528094Y-93960975D01*
X135495409Y-93994706D01*
X135489895Y-94001739D01*
X135459692Y-94040821D01*
X135452796Y-94051816D01*
X135444280Y-94061619D01*
X135419655Y-94104652D01*
X135393323Y-94146635D01*
X135388693Y-94158762D01*
X135382244Y-94170032D01*
X135366446Y-94217028D01*
X135348770Y-94263325D01*
X135346584Y-94276117D01*
X135342446Y-94288427D01*
X135340500Y-94297149D01*
X135325641Y-94365992D01*
X135319024Y-94423361D01*
X135311558Y-94480669D01*
X135311337Y-94489603D01*
X135308526Y-94647179D01*
X134821495Y-94647179D01*
X134821495Y-92795969D01*
X134825172Y-92758636D01*
X134810498Y-92609650D01*
X134767041Y-92466389D01*
X134696469Y-92334360D01*
X134625294Y-92247633D01*
X134601496Y-92218635D01*
X134572499Y-92194838D01*
X130042773Y-87665112D01*
X130112681Y-87607740D01*
X130298253Y-87381620D01*
X130436146Y-87123640D01*
X130521060Y-86843717D01*
X130549732Y-86552606D01*
X130522880Y-86279973D01*
X130922499Y-85880354D01*
X130951497Y-85856556D01*
X131046470Y-85740831D01*
X131117042Y-85608802D01*
X131160499Y-85465541D01*
X131171496Y-85353888D01*
X131171496Y-85353878D01*
X131175172Y-85316555D01*
X131171496Y-85279232D01*
X131171496Y-83573877D01*
X131175172Y-83536554D01*
X131171496Y-83499231D01*
X131171496Y-83499222D01*
X131160499Y-83387569D01*
X131117042Y-83244308D01*
X131046470Y-83112279D01*
X130951497Y-82996554D01*
X130922500Y-82972757D01*
X123255300Y-75305557D01*
X123231497Y-75276553D01*
X123115772Y-75181580D01*
X122983743Y-75111008D01*
X122840482Y-75067551D01*
X122728829Y-75056554D01*
X122728819Y-75056554D01*
X122691496Y-75052878D01*
X122654174Y-75056554D01*
X119108820Y-75056554D01*
X119071495Y-75052878D01*
X119034170Y-75056554D01*
X119034162Y-75056554D01*
X118922509Y-75067551D01*
X118779248Y-75111008D01*
X118647219Y-75181580D01*
X118531494Y-75276553D01*
X118507696Y-75305551D01*
X115536694Y-78276554D01*
X111661550Y-78276556D01*
X111244815Y-77859821D01*
X113805613Y-75294784D01*
X113805613Y-75070277D01*
X110730229Y-71994893D01*
X110716087Y-72009036D01*
X110536482Y-71829431D01*
X110550624Y-71815288D01*
X107475240Y-68739904D01*
X107250733Y-68739904D01*
X104685695Y-71300702D01*
X104601495Y-71216502D01*
X104601495Y-69151356D01*
X106142504Y-67610348D01*
X106171497Y-67586554D01*
X106195291Y-67557561D01*
X106195295Y-67557557D01*
X106266470Y-67470830D01*
X106337042Y-67338801D01*
X106380499Y-67195540D01*
X106384292Y-67157029D01*
X106391496Y-67083886D01*
X106391496Y-67083879D01*
X106395172Y-67046554D01*
X106391496Y-67009228D01*
X106391494Y-63343835D01*
X106408989Y-63361178D01*
G36*
X129651496Y-83851358D02*
G01*
X129651497Y-85001752D01*
X129514000Y-85139249D01*
X129348658Y-85089093D01*
X129130497Y-85067606D01*
X129017337Y-85067606D01*
X129053080Y-85000735D01*
X129089389Y-84881036D01*
X129101649Y-84756555D01*
X129089389Y-84632074D01*
X129053080Y-84512375D01*
X128994116Y-84402061D01*
X128914763Y-84305370D01*
X128513605Y-83908557D01*
X128289099Y-83908557D01*
X127441101Y-84756555D01*
X127455244Y-84770698D01*
X127275639Y-84950303D01*
X127261496Y-84936160D01*
X127247354Y-84950303D01*
X127067749Y-84770698D01*
X127081891Y-84756555D01*
X126233893Y-83908557D01*
X126009387Y-83908557D01*
X125608229Y-84305370D01*
X125528876Y-84402061D01*
X125469912Y-84512375D01*
X125433603Y-84632074D01*
X125421343Y-84756555D01*
X125433603Y-84881036D01*
X125469912Y-85000735D01*
X125505655Y-85067606D01*
X125392495Y-85067606D01*
X125174334Y-85089093D01*
X124894411Y-85174007D01*
X124636431Y-85311900D01*
X124410311Y-85497472D01*
X124224739Y-85723592D01*
X124086846Y-85981572D01*
X124001932Y-86261495D01*
X123973260Y-86552606D01*
X124001932Y-86843717D01*
X124019971Y-86903183D01*
X123960505Y-86885144D01*
X123742344Y-86863657D01*
X123596444Y-86863657D01*
X123378283Y-86885144D01*
X123098360Y-86970058D01*
X122840380Y-87107951D01*
X122614260Y-87293523D01*
X122428688Y-87519643D01*
X122290795Y-87777623D01*
X122205881Y-88057546D01*
X122177209Y-88348657D01*
X122205881Y-88639768D01*
X122290795Y-88919691D01*
X122428688Y-89177671D01*
X122614260Y-89403791D01*
X122840380Y-89589363D01*
X123098360Y-89727256D01*
X123378283Y-89812170D01*
X123596444Y-89833657D01*
X123742344Y-89833657D01*
X123960505Y-89812170D01*
X124019971Y-89794131D01*
X124001932Y-89853598D01*
X123973260Y-90144709D01*
X124001932Y-90435820D01*
X124086846Y-90715743D01*
X124224739Y-90973723D01*
X124410311Y-91199843D01*
X124636431Y-91385415D01*
X124894411Y-91523308D01*
X125174334Y-91608222D01*
X125392495Y-91629709D01*
X125538395Y-91629709D01*
X125756556Y-91608222D01*
X126036479Y-91523308D01*
X126294459Y-91385415D01*
X126520579Y-91199843D01*
X126706151Y-90973723D01*
X126844044Y-90715743D01*
X126928958Y-90435820D01*
X126957630Y-90144709D01*
X126928958Y-89853598D01*
X126910919Y-89794131D01*
X126970385Y-89812170D01*
X127188546Y-89833657D01*
X127334446Y-89833657D01*
X127552607Y-89812170D01*
X127832530Y-89727256D01*
X128090510Y-89589363D01*
X128316630Y-89403791D01*
X128502202Y-89177671D01*
X128640095Y-88919691D01*
X128725009Y-88639768D01*
X128737814Y-88509756D01*
X133301495Y-93073438D01*
X133301496Y-98632796D01*
X133250955Y-98571211D01*
X133250951Y-98571207D01*
X133227157Y-98542214D01*
X133198164Y-98518420D01*
X133128263Y-98448519D01*
X133173409Y-98364059D01*
X133209719Y-98244361D01*
X133221979Y-98119879D01*
X133209719Y-97995397D01*
X133173409Y-97875699D01*
X133114444Y-97765385D01*
X133035092Y-97668694D01*
X132398696Y-97032298D01*
X132302005Y-96952946D01*
X132191691Y-96893981D01*
X132131122Y-96875608D01*
X132112749Y-96815039D01*
X132053784Y-96704725D01*
X131974432Y-96608034D01*
X131338036Y-95971638D01*
X131241345Y-95892286D01*
X131131031Y-95833321D01*
X131011333Y-95797011D01*
X130886851Y-95784751D01*
X130762369Y-95797011D01*
X130642671Y-95833321D01*
X130532357Y-95892286D01*
X130435666Y-95971638D01*
X130069365Y-96337939D01*
X130029888Y-96289836D01*
X129464202Y-95724150D01*
X129367511Y-95644798D01*
X129257197Y-95585833D01*
X129137499Y-95549523D01*
X129013017Y-95537263D01*
X128888535Y-95549523D01*
X128768837Y-95585833D01*
X128658523Y-95644798D01*
X128561832Y-95724150D01*
X127927862Y-96358120D01*
X119551495Y-87981753D01*
X119551495Y-86001356D01*
X119838168Y-85714684D01*
X121274555Y-87151071D01*
X121371246Y-87230423D01*
X121481560Y-87289388D01*
X121601258Y-87325698D01*
X121725740Y-87337958D01*
X121850222Y-87325698D01*
X121969920Y-87289388D01*
X122080234Y-87230423D01*
X122176925Y-87151071D01*
X125823550Y-83504446D01*
X126413498Y-83504446D01*
X126413498Y-83728952D01*
X127261496Y-84576950D01*
X128109494Y-83728952D01*
X128109494Y-83504446D01*
X127712681Y-83103288D01*
X127615990Y-83023935D01*
X127505676Y-82964971D01*
X127385977Y-82928662D01*
X127261496Y-82916402D01*
X127137015Y-82928662D01*
X127017316Y-82964971D01*
X126907002Y-83023935D01*
X126810311Y-83103288D01*
X126413498Y-83504446D01*
X125823550Y-83504446D01*
X126066012Y-83261984D01*
X126145364Y-83165293D01*
X126204329Y-83054979D01*
X126240639Y-82935281D01*
X126252899Y-82810799D01*
X126240639Y-82686317D01*
X126204329Y-82566619D01*
X126145364Y-82456305D01*
X126066012Y-82359614D01*
X121823371Y-78116973D01*
X121726680Y-78037621D01*
X121616366Y-77978656D01*
X121496668Y-77942346D01*
X121372186Y-77930086D01*
X121247704Y-77942346D01*
X121128006Y-77978656D01*
X121017692Y-78037621D01*
X120921001Y-78116973D01*
X117031914Y-82006060D01*
X116952562Y-82102751D01*
X116893597Y-82213065D01*
X116857287Y-82332763D01*
X116845027Y-82457245D01*
X116857287Y-82581727D01*
X116893597Y-82701425D01*
X116952562Y-82811739D01*
X117031914Y-82908430D01*
X118763367Y-84639883D01*
X118280493Y-85122756D01*
X118251495Y-85146554D01*
X118227697Y-85175552D01*
X118227696Y-85175553D01*
X118156521Y-85262279D01*
X118085949Y-85394309D01*
X118042493Y-85537569D01*
X118027819Y-85686555D01*
X118031496Y-85723887D01*
X118031495Y-88259231D01*
X118027819Y-88296554D01*
X118031495Y-88333876D01*
X118031495Y-88333886D01*
X118042492Y-88445539D01*
X118060132Y-88503690D01*
X118085949Y-88588800D01*
X118156521Y-88720830D01*
X118193682Y-88766110D01*
X118251494Y-88836555D01*
X118280498Y-88860358D01*
X126853061Y-97432921D01*
X126663043Y-97622939D01*
X110633637Y-81829593D01*
X110561568Y-81098097D01*
X110559766Y-81073297D01*
X110558270Y-81064623D01*
X110557409Y-81055879D01*
X110552564Y-81031526D01*
X110405634Y-80179329D01*
X110401269Y-80151400D01*
X110399920Y-80146186D01*
X110399007Y-80140892D01*
X110391514Y-80113703D01*
X110197367Y-79363454D01*
X110189746Y-79333147D01*
X110188951Y-79330932D01*
X110188364Y-79328663D01*
X110177639Y-79299410D01*
X109977736Y-78742348D01*
X110782957Y-79547569D01*
X110806746Y-79576556D01*
X110835733Y-79600345D01*
X110835742Y-79600354D01*
X110922469Y-79671528D01*
X110922471Y-79671529D01*
X111054500Y-79742101D01*
X111197761Y-79785558D01*
X111309414Y-79796555D01*
X111309422Y-79796555D01*
X111346745Y-79800231D01*
X111384068Y-79796555D01*
X115814163Y-79796553D01*
X115851495Y-79800230D01*
X115888828Y-79796553D01*
X116000481Y-79785556D01*
X116064106Y-79766256D01*
X116143741Y-79742100D01*
X116275771Y-79671528D01*
X116362497Y-79600353D01*
X116362498Y-79600352D01*
X116391496Y-79576554D01*
X116415294Y-79547556D01*
X119386297Y-76576554D01*
X122376695Y-76576554D01*
X129651496Y-83851358D01*
X129651496Y-83851358D01*
G37*
X129651496Y-83851358D02*
X129651497Y-85001752D01*
X129514000Y-85139249D01*
X129348658Y-85089093D01*
X129130497Y-85067606D01*
X129017337Y-85067606D01*
X129053080Y-85000735D01*
X129089389Y-84881036D01*
X129101649Y-84756555D01*
X129089389Y-84632074D01*
X129053080Y-84512375D01*
X128994116Y-84402061D01*
X128914763Y-84305370D01*
X128513605Y-83908557D01*
X128289099Y-83908557D01*
X127441101Y-84756555D01*
X127455244Y-84770698D01*
X127275639Y-84950303D01*
X127261496Y-84936160D01*
X127247354Y-84950303D01*
X127067749Y-84770698D01*
X127081891Y-84756555D01*
X126233893Y-83908557D01*
X126009387Y-83908557D01*
X125608229Y-84305370D01*
X125528876Y-84402061D01*
X125469912Y-84512375D01*
X125433603Y-84632074D01*
X125421343Y-84756555D01*
X125433603Y-84881036D01*
X125469912Y-85000735D01*
X125505655Y-85067606D01*
X125392495Y-85067606D01*
X125174334Y-85089093D01*
X124894411Y-85174007D01*
X124636431Y-85311900D01*
X124410311Y-85497472D01*
X124224739Y-85723592D01*
X124086846Y-85981572D01*
X124001932Y-86261495D01*
X123973260Y-86552606D01*
X124001932Y-86843717D01*
X124019971Y-86903183D01*
X123960505Y-86885144D01*
X123742344Y-86863657D01*
X123596444Y-86863657D01*
X123378283Y-86885144D01*
X123098360Y-86970058D01*
X122840380Y-87107951D01*
X122614260Y-87293523D01*
X122428688Y-87519643D01*
X122290795Y-87777623D01*
X122205881Y-88057546D01*
X122177209Y-88348657D01*
X122205881Y-88639768D01*
X122290795Y-88919691D01*
X122428688Y-89177671D01*
X122614260Y-89403791D01*
X122840380Y-89589363D01*
X123098360Y-89727256D01*
X123378283Y-89812170D01*
X123596444Y-89833657D01*
X123742344Y-89833657D01*
X123960505Y-89812170D01*
X124019971Y-89794131D01*
X124001932Y-89853598D01*
X123973260Y-90144709D01*
X124001932Y-90435820D01*
X124086846Y-90715743D01*
X124224739Y-90973723D01*
X124410311Y-91199843D01*
X124636431Y-91385415D01*
X124894411Y-91523308D01*
X125174334Y-91608222D01*
X125392495Y-91629709D01*
X125538395Y-91629709D01*
X125756556Y-91608222D01*
X126036479Y-91523308D01*
X126294459Y-91385415D01*
X126520579Y-91199843D01*
X126706151Y-90973723D01*
X126844044Y-90715743D01*
X126928958Y-90435820D01*
X126957630Y-90144709D01*
X126928958Y-89853598D01*
X126910919Y-89794131D01*
X126970385Y-89812170D01*
X127188546Y-89833657D01*
X127334446Y-89833657D01*
X127552607Y-89812170D01*
X127832530Y-89727256D01*
X128090510Y-89589363D01*
X128316630Y-89403791D01*
X128502202Y-89177671D01*
X128640095Y-88919691D01*
X128725009Y-88639768D01*
X128737814Y-88509756D01*
X133301495Y-93073438D01*
X133301496Y-98632796D01*
X133250955Y-98571211D01*
X133250951Y-98571207D01*
X133227157Y-98542214D01*
X133198164Y-98518420D01*
X133128263Y-98448519D01*
X133173409Y-98364059D01*
X133209719Y-98244361D01*
X133221979Y-98119879D01*
X133209719Y-97995397D01*
X133173409Y-97875699D01*
X133114444Y-97765385D01*
X133035092Y-97668694D01*
X132398696Y-97032298D01*
X132302005Y-96952946D01*
X132191691Y-96893981D01*
X132131122Y-96875608D01*
X132112749Y-96815039D01*
X132053784Y-96704725D01*
X131974432Y-96608034D01*
X131338036Y-95971638D01*
X131241345Y-95892286D01*
X131131031Y-95833321D01*
X131011333Y-95797011D01*
X130886851Y-95784751D01*
X130762369Y-95797011D01*
X130642671Y-95833321D01*
X130532357Y-95892286D01*
X130435666Y-95971638D01*
X130069365Y-96337939D01*
X130029888Y-96289836D01*
X129464202Y-95724150D01*
X129367511Y-95644798D01*
X129257197Y-95585833D01*
X129137499Y-95549523D01*
X129013017Y-95537263D01*
X128888535Y-95549523D01*
X128768837Y-95585833D01*
X128658523Y-95644798D01*
X128561832Y-95724150D01*
X127927862Y-96358120D01*
X119551495Y-87981753D01*
X119551495Y-86001356D01*
X119838168Y-85714684D01*
X121274555Y-87151071D01*
X121371246Y-87230423D01*
X121481560Y-87289388D01*
X121601258Y-87325698D01*
X121725740Y-87337958D01*
X121850222Y-87325698D01*
X121969920Y-87289388D01*
X122080234Y-87230423D01*
X122176925Y-87151071D01*
X125823550Y-83504446D01*
X126413498Y-83504446D01*
X126413498Y-83728952D01*
X127261496Y-84576950D01*
X128109494Y-83728952D01*
X128109494Y-83504446D01*
X127712681Y-83103288D01*
X127615990Y-83023935D01*
X127505676Y-82964971D01*
X127385977Y-82928662D01*
X127261496Y-82916402D01*
X127137015Y-82928662D01*
X127017316Y-82964971D01*
X126907002Y-83023935D01*
X126810311Y-83103288D01*
X126413498Y-83504446D01*
X125823550Y-83504446D01*
X126066012Y-83261984D01*
X126145364Y-83165293D01*
X126204329Y-83054979D01*
X126240639Y-82935281D01*
X126252899Y-82810799D01*
X126240639Y-82686317D01*
X126204329Y-82566619D01*
X126145364Y-82456305D01*
X126066012Y-82359614D01*
X121823371Y-78116973D01*
X121726680Y-78037621D01*
X121616366Y-77978656D01*
X121496668Y-77942346D01*
X121372186Y-77930086D01*
X121247704Y-77942346D01*
X121128006Y-77978656D01*
X121017692Y-78037621D01*
X120921001Y-78116973D01*
X117031914Y-82006060D01*
X116952562Y-82102751D01*
X116893597Y-82213065D01*
X116857287Y-82332763D01*
X116845027Y-82457245D01*
X116857287Y-82581727D01*
X116893597Y-82701425D01*
X116952562Y-82811739D01*
X117031914Y-82908430D01*
X118763367Y-84639883D01*
X118280493Y-85122756D01*
X118251495Y-85146554D01*
X118227697Y-85175552D01*
X118227696Y-85175553D01*
X118156521Y-85262279D01*
X118085949Y-85394309D01*
X118042493Y-85537569D01*
X118027819Y-85686555D01*
X118031496Y-85723887D01*
X118031495Y-88259231D01*
X118027819Y-88296554D01*
X118031495Y-88333876D01*
X118031495Y-88333886D01*
X118042492Y-88445539D01*
X118060132Y-88503690D01*
X118085949Y-88588800D01*
X118156521Y-88720830D01*
X118193682Y-88766110D01*
X118251494Y-88836555D01*
X118280498Y-88860358D01*
X126853061Y-97432921D01*
X126663043Y-97622939D01*
X110633637Y-81829593D01*
X110561568Y-81098097D01*
X110559766Y-81073297D01*
X110558270Y-81064623D01*
X110557409Y-81055879D01*
X110552564Y-81031526D01*
X110405634Y-80179329D01*
X110401269Y-80151400D01*
X110399920Y-80146186D01*
X110399007Y-80140892D01*
X110391514Y-80113703D01*
X110197367Y-79363454D01*
X110189746Y-79333147D01*
X110188951Y-79330932D01*
X110188364Y-79328663D01*
X110177639Y-79299410D01*
X109977736Y-78742348D01*
X110782957Y-79547569D01*
X110806746Y-79576556D01*
X110835733Y-79600345D01*
X110835742Y-79600354D01*
X110922469Y-79671528D01*
X110922471Y-79671529D01*
X111054500Y-79742101D01*
X111197761Y-79785558D01*
X111309414Y-79796555D01*
X111309422Y-79796555D01*
X111346745Y-79800231D01*
X111384068Y-79796555D01*
X115814163Y-79796553D01*
X115851495Y-79800230D01*
X115888828Y-79796553D01*
X116000481Y-79785556D01*
X116064106Y-79766256D01*
X116143741Y-79742100D01*
X116275771Y-79671528D01*
X116362497Y-79600353D01*
X116362498Y-79600352D01*
X116391496Y-79576554D01*
X116415294Y-79547556D01*
X119386297Y-76576554D01*
X122376695Y-76576554D01*
X129651496Y-83851358D01*
G36*
X94750629Y-51804039D02*
G01*
X94643497Y-51912344D01*
X94643497Y-52136850D01*
X95491495Y-52984848D01*
X95505638Y-52970706D01*
X95685243Y-53150311D01*
X95671100Y-53164453D01*
X95685243Y-53178596D01*
X95505638Y-53358201D01*
X95491495Y-53344058D01*
X95477353Y-53358201D01*
X95297748Y-53178596D01*
X95311890Y-53164453D01*
X94463892Y-52316455D01*
X94239386Y-52316455D01*
X93838228Y-52713268D01*
X93758875Y-52809959D01*
X93699911Y-52920273D01*
X93663602Y-53039972D01*
X93651342Y-53164453D01*
X93663602Y-53288934D01*
X93699911Y-53408633D01*
X93735654Y-53475504D01*
X93622494Y-53475504D01*
X93404333Y-53496991D01*
X93124410Y-53581905D01*
X92866430Y-53719798D01*
X92640310Y-53905370D01*
X92454738Y-54131490D01*
X92316845Y-54389470D01*
X92231931Y-54669393D01*
X92203259Y-54960504D01*
X92231931Y-55251615D01*
X92249970Y-55311081D01*
X92190504Y-55293042D01*
X91972343Y-55271555D01*
X91826443Y-55271555D01*
X91608282Y-55293042D01*
X91328359Y-55377956D01*
X91070379Y-55515849D01*
X90844259Y-55701421D01*
X90658687Y-55927541D01*
X90646273Y-55950765D01*
X87494844Y-52733798D01*
X91353533Y-48436436D01*
X94750629Y-51804039D01*
X94750629Y-51804039D01*
G37*
X94750629Y-51804039D02*
X94643497Y-51912344D01*
X94643497Y-52136850D01*
X95491495Y-52984848D01*
X95505638Y-52970706D01*
X95685243Y-53150311D01*
X95671100Y-53164453D01*
X95685243Y-53178596D01*
X95505638Y-53358201D01*
X95491495Y-53344058D01*
X95477353Y-53358201D01*
X95297748Y-53178596D01*
X95311890Y-53164453D01*
X94463892Y-52316455D01*
X94239386Y-52316455D01*
X93838228Y-52713268D01*
X93758875Y-52809959D01*
X93699911Y-52920273D01*
X93663602Y-53039972D01*
X93651342Y-53164453D01*
X93663602Y-53288934D01*
X93699911Y-53408633D01*
X93735654Y-53475504D01*
X93622494Y-53475504D01*
X93404333Y-53496991D01*
X93124410Y-53581905D01*
X92866430Y-53719798D01*
X92640310Y-53905370D01*
X92454738Y-54131490D01*
X92316845Y-54389470D01*
X92231931Y-54669393D01*
X92203259Y-54960504D01*
X92231931Y-55251615D01*
X92249970Y-55311081D01*
X92190504Y-55293042D01*
X91972343Y-55271555D01*
X91826443Y-55271555D01*
X91608282Y-55293042D01*
X91328359Y-55377956D01*
X91070379Y-55515849D01*
X90844259Y-55701421D01*
X90658687Y-55927541D01*
X90646273Y-55950765D01*
X87494844Y-52733798D01*
X91353533Y-48436436D01*
X94750629Y-51804039D01*
M02*
