G04 #@! TF.GenerationSoftware,KiCad,Pcbnew,5.1.2*
G04 #@! TF.CreationDate,2019-07-14T10:42:41-05:00*
G04 #@! TF.ProjectId,Master_Sword_(Ocarina_of_Time),4d617374-6572-45f5-9377-6f72645f284f,rev?*
G04 #@! TF.SameCoordinates,Original*
G04 #@! TF.FileFunction,Soldermask,Top*
G04 #@! TF.FilePolarity,Negative*
%FSLAX46Y46*%
G04 Gerber Fmt 4.6, Leading zero omitted, Abs format (unit mm)*
G04 Created by KiCad (PCBNEW 5.1.2) date 2019-07-14 10:42:41*
%MOMM*%
%LPD*%
G04 APERTURE LIST*
%ADD10C,0.010000*%
%ADD11C,6.400000*%
%ADD12C,2.100000*%
%ADD13C,2.100000*%
%ADD14C,0.100000*%
%ADD15C,0.900000*%
%ADD16C,1.300000*%
G04 APERTURE END LIST*
D10*
G36*
X82166020Y-47679978D02*
G01*
X82203862Y-47478058D01*
X82242220Y-47303401D01*
X82276561Y-47174943D01*
X82301913Y-47112177D01*
X82337944Y-47069348D01*
X82424384Y-46968426D01*
X82556168Y-46815278D01*
X82728230Y-46615771D01*
X82935502Y-46375771D01*
X83172919Y-46101146D01*
X83435415Y-45797762D01*
X83717923Y-45471486D01*
X83965259Y-45186010D01*
X85579684Y-43323167D01*
X86413223Y-43189866D01*
X87246761Y-43056565D01*
X88296749Y-43725782D01*
X89346737Y-44395000D01*
X89933952Y-44462867D01*
X90159593Y-44489381D01*
X90365396Y-44514362D01*
X90531470Y-44535338D01*
X90637925Y-44549840D01*
X90652003Y-44552020D01*
X90782840Y-44573306D01*
X91791166Y-47795872D01*
X98204666Y-54153863D01*
X98838752Y-54782434D01*
X99466505Y-55404674D01*
X100084485Y-56017176D01*
X100689252Y-56616533D01*
X101277367Y-57199336D01*
X101845388Y-57762178D01*
X102389877Y-58301650D01*
X102907392Y-58814346D01*
X103394494Y-59296858D01*
X103847743Y-59745778D01*
X104263698Y-60157697D01*
X104638920Y-60529210D01*
X104969968Y-60856906D01*
X105253403Y-61137380D01*
X105485784Y-61367223D01*
X105663671Y-61543027D01*
X105746889Y-61625172D01*
X106875613Y-62738490D01*
X107059223Y-62645120D01*
X107358779Y-62471433D01*
X107686856Y-62244417D01*
X108023403Y-61980092D01*
X108348371Y-61694479D01*
X108641712Y-61403598D01*
X108720878Y-61317335D01*
X108878634Y-61137567D01*
X109029950Y-60956835D01*
X109179372Y-60768330D01*
X109331446Y-60565244D01*
X109490716Y-60340767D01*
X109661729Y-60088092D01*
X109849030Y-59800409D01*
X110057164Y-59470910D01*
X110290678Y-59092786D01*
X110554116Y-58659228D01*
X110852025Y-58163429D01*
X111068323Y-57801167D01*
X111224492Y-57541673D01*
X111385567Y-57278513D01*
X111539628Y-57030846D01*
X111674757Y-56817832D01*
X111779035Y-56658632D01*
X111779348Y-56658167D01*
X112036270Y-56277167D01*
X112557732Y-56070982D01*
X113553655Y-55704703D01*
X114516234Y-55407966D01*
X115456714Y-55178341D01*
X116386341Y-55013395D01*
X117316361Y-54910697D01*
X118109894Y-54870667D01*
X118983670Y-54874034D01*
X119808137Y-54929856D01*
X120602972Y-55041502D01*
X121387853Y-55212346D01*
X122182459Y-55445756D01*
X122842666Y-55681442D01*
X122986539Y-55740379D01*
X123172609Y-55822329D01*
X123388471Y-55921226D01*
X123621719Y-56031003D01*
X123859949Y-56145594D01*
X124090755Y-56258932D01*
X124301732Y-56364951D01*
X124480475Y-56457585D01*
X124614578Y-56530766D01*
X124691638Y-56578429D01*
X124705333Y-56592337D01*
X124677889Y-56626780D01*
X124597879Y-56720703D01*
X124468789Y-56870125D01*
X124294102Y-57071068D01*
X124077304Y-57319554D01*
X123821879Y-57611604D01*
X123531312Y-57943239D01*
X123209088Y-58310480D01*
X122858690Y-58709348D01*
X122483604Y-59135866D01*
X122087315Y-59586054D01*
X121673306Y-60055933D01*
X121456250Y-60302112D01*
X121030605Y-60784761D01*
X120618163Y-61252453D01*
X120222665Y-61700944D01*
X119847853Y-62125990D01*
X119497470Y-62523348D01*
X119175255Y-62888774D01*
X118884953Y-63218025D01*
X118630303Y-63506855D01*
X118415049Y-63751023D01*
X118242931Y-63946284D01*
X118117691Y-64088394D01*
X118043072Y-64173109D01*
X118027276Y-64191068D01*
X117847385Y-64395862D01*
X116276031Y-64213521D01*
X114704676Y-64031181D01*
X114071269Y-64131328D01*
X113846119Y-64169199D01*
X113648649Y-64206680D01*
X113495010Y-64240378D01*
X113401353Y-64266902D01*
X113382569Y-64275988D01*
X113352640Y-64329956D01*
X113305091Y-64450884D01*
X113245051Y-64624177D01*
X113177652Y-64835243D01*
X113128787Y-64997834D01*
X113050361Y-65264433D01*
X112968719Y-65540212D01*
X112891738Y-65798676D01*
X112827295Y-66013327D01*
X112806127Y-66083176D01*
X112681957Y-66491185D01*
X112401452Y-66673941D01*
X112263275Y-66766082D01*
X112186961Y-66825801D01*
X112162356Y-66865190D01*
X112179305Y-66896343D01*
X112200723Y-66912989D01*
X112463092Y-67101095D01*
X112691396Y-67272952D01*
X112897293Y-67439559D01*
X113092444Y-67611911D01*
X113288507Y-67801007D01*
X113497142Y-68017843D01*
X113730010Y-68273417D01*
X113998768Y-68578726D01*
X114142358Y-68744334D01*
X114504819Y-69155506D01*
X114828888Y-69504015D01*
X115123368Y-69797493D01*
X115397060Y-70043573D01*
X115658766Y-70249884D01*
X115917288Y-70424060D01*
X116181428Y-70573730D01*
X116345548Y-70654608D01*
X116850315Y-70847353D01*
X117405039Y-70978121D01*
X118001329Y-71046283D01*
X118630794Y-71051211D01*
X119285043Y-70992279D01*
X119764729Y-70910363D01*
X120136958Y-70834377D01*
X124404356Y-75112772D01*
X124652597Y-75361691D01*
X124958820Y-75668816D01*
X125321254Y-76032369D01*
X125738127Y-76450573D01*
X126207668Y-76921649D01*
X126728105Y-77443821D01*
X127297668Y-78015310D01*
X127914586Y-78634339D01*
X128577086Y-79299130D01*
X129283398Y-80007906D01*
X130031750Y-80758888D01*
X130820371Y-81550300D01*
X131647491Y-82380363D01*
X132511337Y-83247300D01*
X133410138Y-84149333D01*
X134342124Y-85084684D01*
X135305522Y-86051577D01*
X136298563Y-87048232D01*
X137319473Y-88072873D01*
X138366483Y-89123722D01*
X139437820Y-90199000D01*
X140531714Y-91296932D01*
X141646394Y-92415738D01*
X142780087Y-93553641D01*
X143931024Y-94708864D01*
X145097432Y-95879628D01*
X146277540Y-97064156D01*
X147469577Y-98260671D01*
X148671773Y-99467395D01*
X149882354Y-100682550D01*
X151099551Y-101904358D01*
X152321592Y-103131042D01*
X152568394Y-103378783D01*
X176465034Y-127366398D01*
X177037477Y-128355449D01*
X177656092Y-129436758D01*
X178224005Y-130456190D01*
X178743134Y-131418197D01*
X179215398Y-132327232D01*
X179642718Y-133187745D01*
X180027010Y-134004189D01*
X180370196Y-134781015D01*
X180674192Y-135522676D01*
X180940919Y-136233623D01*
X181172295Y-136918307D01*
X181370240Y-137581181D01*
X181536671Y-138226697D01*
X181673509Y-138859306D01*
X181752047Y-139292834D01*
X181802410Y-139634218D01*
X181846113Y-140007772D01*
X181882114Y-140396500D01*
X181909367Y-140783402D01*
X181926829Y-141151483D01*
X181933455Y-141483743D01*
X181928201Y-141763185D01*
X181914578Y-141938667D01*
X181904971Y-142031821D01*
X181891438Y-142179414D01*
X181876712Y-142351483D01*
X181874976Y-142372584D01*
X181854058Y-142558179D01*
X181827412Y-142665455D01*
X181793472Y-142700655D01*
X181792750Y-142700667D01*
X181728959Y-142734370D01*
X181716055Y-142756269D01*
X181663072Y-142787178D01*
X181533139Y-142817368D01*
X181333974Y-142846344D01*
X181073292Y-142873611D01*
X180758810Y-142898676D01*
X180398244Y-142921042D01*
X179999313Y-142940217D01*
X179569731Y-142955705D01*
X179117216Y-142967011D01*
X178649484Y-142973642D01*
X178299333Y-142975247D01*
X177795443Y-142974070D01*
X177361914Y-142969483D01*
X176984476Y-142960523D01*
X176648859Y-142946229D01*
X176340792Y-142925637D01*
X176046006Y-142897786D01*
X175750230Y-142861712D01*
X175439195Y-142816454D01*
X175098629Y-142761048D01*
X175082000Y-142758236D01*
X174430407Y-142634957D01*
X173808875Y-142489131D01*
X173209261Y-142316782D01*
X172623424Y-142113933D01*
X172043220Y-141876607D01*
X172027779Y-141869300D01*
X172027779Y-136640178D01*
X172467716Y-136635214D01*
X172918217Y-136619874D01*
X173360968Y-136594548D01*
X173777655Y-136559624D01*
X174102534Y-136522031D01*
X174335053Y-136490047D01*
X174543911Y-136460006D01*
X174711869Y-136434486D01*
X174821687Y-136416066D01*
X174849316Y-136410347D01*
X174889244Y-136394678D01*
X174919491Y-136361578D01*
X174944050Y-136297195D01*
X174966918Y-136187676D01*
X174992088Y-136019169D01*
X175017070Y-135828658D01*
X175102086Y-135039902D01*
X175151861Y-134284014D01*
X175165983Y-133573547D01*
X175144040Y-132921055D01*
X175121667Y-132643270D01*
X175002244Y-131795803D01*
X174812350Y-130993286D01*
X174550134Y-130231076D01*
X174213747Y-129504527D01*
X173801336Y-128808995D01*
X173343503Y-128180334D01*
X173324604Y-128157503D01*
X173298513Y-128127577D01*
X173264305Y-128089626D01*
X173221057Y-128042723D01*
X173167845Y-127985939D01*
X173103744Y-127918344D01*
X173027831Y-127839010D01*
X172939182Y-127747009D01*
X172836873Y-127641411D01*
X172719980Y-127521288D01*
X172587578Y-127385711D01*
X172438745Y-127233752D01*
X172272557Y-127064481D01*
X172088088Y-126876971D01*
X171884416Y-126670291D01*
X171660617Y-126443514D01*
X171415765Y-126195711D01*
X171148939Y-125925953D01*
X170859213Y-125633311D01*
X170545664Y-125316857D01*
X170207368Y-124975662D01*
X169843401Y-124608797D01*
X169452839Y-124215333D01*
X169034757Y-123794342D01*
X168588233Y-123344894D01*
X168112343Y-122866062D01*
X167606161Y-122356917D01*
X167068765Y-121816529D01*
X166499230Y-121243970D01*
X165896633Y-120638312D01*
X165260050Y-119998625D01*
X164588556Y-119323981D01*
X163881228Y-118613451D01*
X163137142Y-117866107D01*
X162355373Y-117081019D01*
X161534999Y-116257259D01*
X160675095Y-115393898D01*
X159774737Y-114490008D01*
X158833001Y-113544659D01*
X157848963Y-112556923D01*
X156821700Y-111525872D01*
X155750287Y-110450576D01*
X154633801Y-109330107D01*
X153471318Y-108163537D01*
X152261913Y-106949935D01*
X151004662Y-105688374D01*
X149698643Y-104377925D01*
X148342931Y-103017659D01*
X146936601Y-101606648D01*
X145478731Y-100143962D01*
X143968395Y-98628674D01*
X142404671Y-97059853D01*
X140786635Y-95436573D01*
X139113361Y-93757903D01*
X137383927Y-92022915D01*
X135597409Y-90230680D01*
X133752882Y-88380270D01*
X132008329Y-86630167D01*
X120614538Y-75200167D01*
X120479498Y-74861500D01*
X120314949Y-74345111D01*
X120232477Y-73824673D01*
X120232174Y-73296723D01*
X120314133Y-72757798D01*
X120478447Y-72204437D01*
X120555868Y-72005649D01*
X120686233Y-71689797D01*
X120393768Y-71397332D01*
X120101302Y-71104867D01*
X119577568Y-71360859D01*
X118912344Y-71653867D01*
X118274635Y-71868381D01*
X117661258Y-72004811D01*
X117069031Y-72063570D01*
X116494769Y-72045068D01*
X115935292Y-71949716D01*
X115646000Y-71868901D01*
X115386260Y-71771024D01*
X115088866Y-71634131D01*
X114781714Y-71472792D01*
X114492701Y-71301578D01*
X114270166Y-71150350D01*
X114021136Y-70948370D01*
X113733016Y-70683821D01*
X113413431Y-70364745D01*
X113070007Y-69999185D01*
X112710370Y-69595183D01*
X112342147Y-69160782D01*
X112089168Y-68850167D01*
X111735917Y-68414350D01*
X111425301Y-68042454D01*
X111151933Y-67728673D01*
X110910427Y-67467196D01*
X110695396Y-67252216D01*
X110501453Y-67077925D01*
X110323211Y-66938514D01*
X110302822Y-66923995D01*
X110173280Y-66830030D01*
X110077056Y-66755083D01*
X110029826Y-66711559D01*
X110027655Y-66706224D01*
X110026705Y-66702376D01*
X110009622Y-66715843D01*
X109972988Y-66750129D01*
X109913386Y-66808738D01*
X109827399Y-66895175D01*
X109711608Y-67012943D01*
X109562596Y-67165546D01*
X109376946Y-67356490D01*
X109151240Y-67589277D01*
X108882059Y-67867412D01*
X108565988Y-68194399D01*
X108199607Y-68573742D01*
X107779499Y-69008945D01*
X107565710Y-69230476D01*
X107201921Y-69608111D01*
X106856309Y-69968142D01*
X106533239Y-70305945D01*
X106237075Y-70616900D01*
X105972179Y-70896383D01*
X105742916Y-71139772D01*
X105553649Y-71342444D01*
X105408742Y-71499779D01*
X105312559Y-71607153D01*
X105269464Y-71659944D01*
X105267686Y-71664642D01*
X105306103Y-71706077D01*
X105382185Y-71797185D01*
X105481674Y-71920763D01*
X105516085Y-71964305D01*
X105773452Y-72261720D01*
X106104842Y-72594298D01*
X106508155Y-72960134D01*
X106981291Y-73357325D01*
X107519128Y-73781643D01*
X107952851Y-74117395D01*
X108324862Y-74411807D01*
X108642911Y-74671955D01*
X108914743Y-74904914D01*
X109148107Y-75117760D01*
X109350750Y-75317567D01*
X109530419Y-75511411D01*
X109694861Y-75706368D01*
X109851824Y-75909512D01*
X109857491Y-75917144D01*
X110184179Y-76412635D01*
X110436545Y-76921760D01*
X110617954Y-77455202D01*
X110731769Y-78023646D01*
X110781355Y-78637774D01*
X110784176Y-78860147D01*
X110760174Y-79436945D01*
X110689707Y-80017143D01*
X110569753Y-80617122D01*
X110397291Y-81253266D01*
X110268403Y-81656000D01*
X110104697Y-82142834D01*
X110557598Y-82596539D01*
X111010500Y-83050244D01*
X111306833Y-82855896D01*
X111760312Y-82588007D01*
X112194460Y-82390773D01*
X112605002Y-82265403D01*
X112987665Y-82213104D01*
X113338173Y-82235084D01*
X113431990Y-82255221D01*
X113445651Y-82260412D01*
X113464463Y-82270974D01*
X113489615Y-82288067D01*
X113522297Y-82312850D01*
X113563698Y-82346484D01*
X113615007Y-82390126D01*
X113677412Y-82444938D01*
X113752105Y-82512077D01*
X113840273Y-82592704D01*
X113943106Y-82687977D01*
X114061792Y-82799057D01*
X114197523Y-82927103D01*
X114351485Y-83073274D01*
X114524870Y-83238729D01*
X114718865Y-83424628D01*
X114934661Y-83632131D01*
X115173446Y-83862396D01*
X115436410Y-84116583D01*
X115724741Y-84395853D01*
X116039630Y-84701363D01*
X116382265Y-85034273D01*
X116753835Y-85395743D01*
X117155530Y-85786933D01*
X117588539Y-86209001D01*
X118054051Y-86663107D01*
X118553255Y-87150410D01*
X119087342Y-87672070D01*
X119657498Y-88229247D01*
X120264915Y-88823099D01*
X120910781Y-89454787D01*
X121596286Y-90125468D01*
X122322618Y-90836304D01*
X123090967Y-91588453D01*
X123902523Y-92383075D01*
X124758473Y-93221329D01*
X125660008Y-94104374D01*
X126608317Y-95033370D01*
X127604589Y-96009477D01*
X128650013Y-97033853D01*
X129745779Y-98107659D01*
X130893075Y-99232053D01*
X132093091Y-100408195D01*
X133347016Y-101637245D01*
X134656039Y-102920361D01*
X136021350Y-104258703D01*
X137444138Y-105653432D01*
X138925591Y-107105705D01*
X139686820Y-107851950D01*
X140943473Y-109083867D01*
X142186357Y-110302267D01*
X143414058Y-111505768D01*
X144625163Y-112692984D01*
X145818260Y-113862530D01*
X146991935Y-115013021D01*
X148144775Y-116143074D01*
X149275368Y-117251303D01*
X150382300Y-118336323D01*
X151464159Y-119396750D01*
X152519532Y-120431199D01*
X153547006Y-121438285D01*
X154545168Y-122416624D01*
X155512604Y-123364831D01*
X156447904Y-124281520D01*
X157349652Y-125165309D01*
X158216437Y-126014811D01*
X159046845Y-126828642D01*
X159839463Y-127605417D01*
X160592880Y-128343752D01*
X161305681Y-129042261D01*
X161976454Y-129699561D01*
X162603786Y-130314266D01*
X163186263Y-130884992D01*
X163722474Y-131410354D01*
X164211005Y-131888967D01*
X164650444Y-132319446D01*
X165039376Y-132700408D01*
X165376390Y-133030466D01*
X165660073Y-133308237D01*
X165889011Y-133532335D01*
X166061793Y-133701376D01*
X166177003Y-133813976D01*
X166233231Y-133868748D01*
X166234333Y-133869813D01*
X166564463Y-134179558D01*
X166929139Y-134506263D01*
X167306516Y-134831199D01*
X167674750Y-135135636D01*
X168011998Y-135400847D01*
X168079430Y-135451744D01*
X168564947Y-135784769D01*
X169051840Y-136054321D01*
X169557478Y-136267270D01*
X170099230Y-136430485D01*
X170694465Y-136550837D01*
X170954500Y-136588924D01*
X171252857Y-136617422D01*
X171616722Y-136634377D01*
X172027779Y-136640178D01*
X172027779Y-141869300D01*
X171460508Y-141600829D01*
X170867145Y-141282621D01*
X170254990Y-140918009D01*
X169615899Y-140503014D01*
X168941732Y-140033662D01*
X168224344Y-139505975D01*
X167867953Y-139235166D01*
X167828277Y-139204288D01*
X167785108Y-139169658D01*
X167737283Y-139130135D01*
X167683636Y-139084578D01*
X167623005Y-139031847D01*
X167554224Y-138970800D01*
X167476130Y-138900297D01*
X167387560Y-138819196D01*
X167287348Y-138726357D01*
X167174331Y-138620639D01*
X167047345Y-138500900D01*
X166905225Y-138366000D01*
X166746809Y-138214798D01*
X166570931Y-138046153D01*
X166376428Y-137858924D01*
X166162135Y-137651970D01*
X165926889Y-137424150D01*
X165669526Y-137174324D01*
X165388881Y-136901349D01*
X165083791Y-136604086D01*
X164753091Y-136281394D01*
X164395617Y-135932131D01*
X164010206Y-135555156D01*
X163595694Y-135149329D01*
X163150915Y-134713509D01*
X162674708Y-134246554D01*
X162165906Y-133747324D01*
X161623346Y-133214679D01*
X161045865Y-132647475D01*
X160432298Y-132044574D01*
X159781481Y-131404834D01*
X159092250Y-130727115D01*
X158363441Y-130010274D01*
X157593891Y-129253171D01*
X156782434Y-128454666D01*
X155927907Y-127613618D01*
X155029146Y-126728884D01*
X154084987Y-125799325D01*
X153094266Y-124823800D01*
X152055819Y-123801168D01*
X150968482Y-122730287D01*
X149831090Y-121610016D01*
X148642480Y-120439216D01*
X147401488Y-119216745D01*
X146106949Y-117941461D01*
X144757700Y-116612225D01*
X143352577Y-115227895D01*
X141890415Y-113787329D01*
X140370050Y-112289388D01*
X139106635Y-111044588D01*
X137806353Y-109763530D01*
X136520654Y-108496984D01*
X135250864Y-107246256D01*
X133998311Y-106012647D01*
X132764321Y-104797463D01*
X131550221Y-103602007D01*
X130357337Y-102427583D01*
X129186997Y-101275496D01*
X128040526Y-100147048D01*
X126919252Y-99043544D01*
X125824500Y-97966288D01*
X124757599Y-96916584D01*
X123719875Y-95895735D01*
X122712653Y-94905046D01*
X121737262Y-93945820D01*
X120795027Y-93019362D01*
X119887275Y-92126975D01*
X119015334Y-91269963D01*
X118180529Y-90449630D01*
X117384188Y-89667280D01*
X116627636Y-88924217D01*
X115912201Y-88221744D01*
X115239210Y-87561167D01*
X114609989Y-86943788D01*
X114025865Y-86370911D01*
X113488164Y-85843841D01*
X112998213Y-85363881D01*
X112557339Y-84932335D01*
X112166869Y-84550508D01*
X111828129Y-84219703D01*
X111542446Y-83941223D01*
X111311146Y-83716373D01*
X111135557Y-83546457D01*
X111017005Y-83432779D01*
X110956816Y-83376643D01*
X110949107Y-83370500D01*
X110899693Y-83340158D01*
X110805217Y-83255901D01*
X110675964Y-83127883D01*
X110522222Y-82966258D01*
X110370124Y-82799000D01*
X109860898Y-82227500D01*
X109808724Y-81681993D01*
X109703163Y-80857940D01*
X109549127Y-80098831D01*
X109344247Y-79398597D01*
X109086152Y-78751169D01*
X108772475Y-78150479D01*
X108400843Y-77590457D01*
X108034588Y-77138445D01*
X107937008Y-77034955D01*
X107787885Y-76885890D01*
X107598663Y-76702252D01*
X107380785Y-76495043D01*
X107145695Y-76275266D01*
X106938830Y-76084916D01*
X106477337Y-75652774D01*
X106080822Y-75258538D01*
X105751044Y-74904083D01*
X105489767Y-74591289D01*
X105329975Y-74370386D01*
X105262952Y-74275706D01*
X105216503Y-74222298D01*
X105205718Y-74217504D01*
X105189514Y-74261848D01*
X105157611Y-74369210D01*
X105115521Y-74520645D01*
X105091587Y-74609948D01*
X104991348Y-74988500D01*
X103348166Y-75284834D01*
X103209845Y-75981379D01*
X103071523Y-76677923D01*
X103519162Y-78048509D01*
X103624524Y-78373220D01*
X103720304Y-78672486D01*
X103803557Y-78936780D01*
X103871334Y-79156570D01*
X103920688Y-79322328D01*
X103948672Y-79424524D01*
X103953817Y-79453869D01*
X103925340Y-79490430D01*
X103846187Y-79587134D01*
X103720231Y-79739372D01*
X103551344Y-79942533D01*
X103343397Y-80192007D01*
X103100262Y-80483183D01*
X102825812Y-80811452D01*
X102523918Y-81172202D01*
X102198452Y-81560825D01*
X101853286Y-81972708D01*
X101492291Y-82403243D01*
X101119340Y-82847818D01*
X100738305Y-83301825D01*
X100353057Y-83760651D01*
X99967469Y-84219687D01*
X99585411Y-84674324D01*
X99210757Y-85119949D01*
X98847378Y-85551954D01*
X98499145Y-85965728D01*
X98169932Y-86356661D01*
X97863608Y-86720142D01*
X97584048Y-87051561D01*
X97335122Y-87346308D01*
X97120701Y-87599773D01*
X96944660Y-87807345D01*
X96810868Y-87964414D01*
X96723198Y-88066369D01*
X96685522Y-88108602D01*
X96684536Y-88109442D01*
X96664001Y-88075584D01*
X96620627Y-87969655D01*
X96557278Y-87800258D01*
X96476819Y-87575993D01*
X96382113Y-87305461D01*
X96276026Y-86997262D01*
X96161420Y-86659999D01*
X96041162Y-86302271D01*
X95918114Y-85932680D01*
X95795142Y-85559827D01*
X95675109Y-85192312D01*
X95560880Y-84838737D01*
X95455320Y-84507702D01*
X95361292Y-84207809D01*
X95281661Y-83947658D01*
X95219291Y-83735851D01*
X95178973Y-83588558D01*
X95019169Y-82889511D01*
X94896518Y-82181747D01*
X94811100Y-81457855D01*
X94762995Y-80710421D01*
X94752286Y-79932030D01*
X94779053Y-79115272D01*
X94843379Y-78252731D01*
X94945343Y-77336996D01*
X95085027Y-76360652D01*
X95262513Y-75316288D01*
X95270039Y-75274966D01*
X95426419Y-74418432D01*
X95873626Y-74085544D01*
X96028964Y-73972086D01*
X96239992Y-73821126D01*
X96492373Y-73642749D01*
X96771771Y-73447039D01*
X97063847Y-73244082D01*
X97354265Y-73043962D01*
X97358000Y-73041401D01*
X97767490Y-72759225D01*
X98116732Y-72515200D01*
X98416452Y-72301305D01*
X98677372Y-72109524D01*
X98910216Y-71931836D01*
X99125707Y-71760223D01*
X99334571Y-71586667D01*
X99539438Y-71410222D01*
X100077451Y-70894618D01*
X100570542Y-70330497D01*
X101007716Y-69732372D01*
X101377977Y-69114753D01*
X101565313Y-68736756D01*
X101707821Y-68424044D01*
X95230557Y-61800272D01*
X94601336Y-61156805D01*
X93980033Y-60521407D01*
X93369871Y-59897376D01*
X92774074Y-59288010D01*
X92195867Y-58696607D01*
X91638471Y-58126465D01*
X91105111Y-57580882D01*
X90599011Y-57063155D01*
X90123394Y-56576582D01*
X89681484Y-56124462D01*
X89276504Y-55710091D01*
X88911679Y-55336769D01*
X88590230Y-55007792D01*
X88315384Y-54726459D01*
X88090362Y-54496068D01*
X87918388Y-54319916D01*
X87810917Y-54209745D01*
X86868541Y-53242990D01*
X85392854Y-52640565D01*
X83917166Y-52038140D01*
X83917166Y-50623555D01*
X82079046Y-48184455D01*
X82166020Y-47679978D01*
X82166020Y-47679978D01*
G37*
X82166020Y-47679978D02*
X82203862Y-47478058D01*
X82242220Y-47303401D01*
X82276561Y-47174943D01*
X82301913Y-47112177D01*
X82337944Y-47069348D01*
X82424384Y-46968426D01*
X82556168Y-46815278D01*
X82728230Y-46615771D01*
X82935502Y-46375771D01*
X83172919Y-46101146D01*
X83435415Y-45797762D01*
X83717923Y-45471486D01*
X83965259Y-45186010D01*
X85579684Y-43323167D01*
X86413223Y-43189866D01*
X87246761Y-43056565D01*
X88296749Y-43725782D01*
X89346737Y-44395000D01*
X89933952Y-44462867D01*
X90159593Y-44489381D01*
X90365396Y-44514362D01*
X90531470Y-44535338D01*
X90637925Y-44549840D01*
X90652003Y-44552020D01*
X90782840Y-44573306D01*
X91791166Y-47795872D01*
X98204666Y-54153863D01*
X98838752Y-54782434D01*
X99466505Y-55404674D01*
X100084485Y-56017176D01*
X100689252Y-56616533D01*
X101277367Y-57199336D01*
X101845388Y-57762178D01*
X102389877Y-58301650D01*
X102907392Y-58814346D01*
X103394494Y-59296858D01*
X103847743Y-59745778D01*
X104263698Y-60157697D01*
X104638920Y-60529210D01*
X104969968Y-60856906D01*
X105253403Y-61137380D01*
X105485784Y-61367223D01*
X105663671Y-61543027D01*
X105746889Y-61625172D01*
X106875613Y-62738490D01*
X107059223Y-62645120D01*
X107358779Y-62471433D01*
X107686856Y-62244417D01*
X108023403Y-61980092D01*
X108348371Y-61694479D01*
X108641712Y-61403598D01*
X108720878Y-61317335D01*
X108878634Y-61137567D01*
X109029950Y-60956835D01*
X109179372Y-60768330D01*
X109331446Y-60565244D01*
X109490716Y-60340767D01*
X109661729Y-60088092D01*
X109849030Y-59800409D01*
X110057164Y-59470910D01*
X110290678Y-59092786D01*
X110554116Y-58659228D01*
X110852025Y-58163429D01*
X111068323Y-57801167D01*
X111224492Y-57541673D01*
X111385567Y-57278513D01*
X111539628Y-57030846D01*
X111674757Y-56817832D01*
X111779035Y-56658632D01*
X111779348Y-56658167D01*
X112036270Y-56277167D01*
X112557732Y-56070982D01*
X113553655Y-55704703D01*
X114516234Y-55407966D01*
X115456714Y-55178341D01*
X116386341Y-55013395D01*
X117316361Y-54910697D01*
X118109894Y-54870667D01*
X118983670Y-54874034D01*
X119808137Y-54929856D01*
X120602972Y-55041502D01*
X121387853Y-55212346D01*
X122182459Y-55445756D01*
X122842666Y-55681442D01*
X122986539Y-55740379D01*
X123172609Y-55822329D01*
X123388471Y-55921226D01*
X123621719Y-56031003D01*
X123859949Y-56145594D01*
X124090755Y-56258932D01*
X124301732Y-56364951D01*
X124480475Y-56457585D01*
X124614578Y-56530766D01*
X124691638Y-56578429D01*
X124705333Y-56592337D01*
X124677889Y-56626780D01*
X124597879Y-56720703D01*
X124468789Y-56870125D01*
X124294102Y-57071068D01*
X124077304Y-57319554D01*
X123821879Y-57611604D01*
X123531312Y-57943239D01*
X123209088Y-58310480D01*
X122858690Y-58709348D01*
X122483604Y-59135866D01*
X122087315Y-59586054D01*
X121673306Y-60055933D01*
X121456250Y-60302112D01*
X121030605Y-60784761D01*
X120618163Y-61252453D01*
X120222665Y-61700944D01*
X119847853Y-62125990D01*
X119497470Y-62523348D01*
X119175255Y-62888774D01*
X118884953Y-63218025D01*
X118630303Y-63506855D01*
X118415049Y-63751023D01*
X118242931Y-63946284D01*
X118117691Y-64088394D01*
X118043072Y-64173109D01*
X118027276Y-64191068D01*
X117847385Y-64395862D01*
X116276031Y-64213521D01*
X114704676Y-64031181D01*
X114071269Y-64131328D01*
X113846119Y-64169199D01*
X113648649Y-64206680D01*
X113495010Y-64240378D01*
X113401353Y-64266902D01*
X113382569Y-64275988D01*
X113352640Y-64329956D01*
X113305091Y-64450884D01*
X113245051Y-64624177D01*
X113177652Y-64835243D01*
X113128787Y-64997834D01*
X113050361Y-65264433D01*
X112968719Y-65540212D01*
X112891738Y-65798676D01*
X112827295Y-66013327D01*
X112806127Y-66083176D01*
X112681957Y-66491185D01*
X112401452Y-66673941D01*
X112263275Y-66766082D01*
X112186961Y-66825801D01*
X112162356Y-66865190D01*
X112179305Y-66896343D01*
X112200723Y-66912989D01*
X112463092Y-67101095D01*
X112691396Y-67272952D01*
X112897293Y-67439559D01*
X113092444Y-67611911D01*
X113288507Y-67801007D01*
X113497142Y-68017843D01*
X113730010Y-68273417D01*
X113998768Y-68578726D01*
X114142358Y-68744334D01*
X114504819Y-69155506D01*
X114828888Y-69504015D01*
X115123368Y-69797493D01*
X115397060Y-70043573D01*
X115658766Y-70249884D01*
X115917288Y-70424060D01*
X116181428Y-70573730D01*
X116345548Y-70654608D01*
X116850315Y-70847353D01*
X117405039Y-70978121D01*
X118001329Y-71046283D01*
X118630794Y-71051211D01*
X119285043Y-70992279D01*
X119764729Y-70910363D01*
X120136958Y-70834377D01*
X124404356Y-75112772D01*
X124652597Y-75361691D01*
X124958820Y-75668816D01*
X125321254Y-76032369D01*
X125738127Y-76450573D01*
X126207668Y-76921649D01*
X126728105Y-77443821D01*
X127297668Y-78015310D01*
X127914586Y-78634339D01*
X128577086Y-79299130D01*
X129283398Y-80007906D01*
X130031750Y-80758888D01*
X130820371Y-81550300D01*
X131647491Y-82380363D01*
X132511337Y-83247300D01*
X133410138Y-84149333D01*
X134342124Y-85084684D01*
X135305522Y-86051577D01*
X136298563Y-87048232D01*
X137319473Y-88072873D01*
X138366483Y-89123722D01*
X139437820Y-90199000D01*
X140531714Y-91296932D01*
X141646394Y-92415738D01*
X142780087Y-93553641D01*
X143931024Y-94708864D01*
X145097432Y-95879628D01*
X146277540Y-97064156D01*
X147469577Y-98260671D01*
X148671773Y-99467395D01*
X149882354Y-100682550D01*
X151099551Y-101904358D01*
X152321592Y-103131042D01*
X152568394Y-103378783D01*
X176465034Y-127366398D01*
X177037477Y-128355449D01*
X177656092Y-129436758D01*
X178224005Y-130456190D01*
X178743134Y-131418197D01*
X179215398Y-132327232D01*
X179642718Y-133187745D01*
X180027010Y-134004189D01*
X180370196Y-134781015D01*
X180674192Y-135522676D01*
X180940919Y-136233623D01*
X181172295Y-136918307D01*
X181370240Y-137581181D01*
X181536671Y-138226697D01*
X181673509Y-138859306D01*
X181752047Y-139292834D01*
X181802410Y-139634218D01*
X181846113Y-140007772D01*
X181882114Y-140396500D01*
X181909367Y-140783402D01*
X181926829Y-141151483D01*
X181933455Y-141483743D01*
X181928201Y-141763185D01*
X181914578Y-141938667D01*
X181904971Y-142031821D01*
X181891438Y-142179414D01*
X181876712Y-142351483D01*
X181874976Y-142372584D01*
X181854058Y-142558179D01*
X181827412Y-142665455D01*
X181793472Y-142700655D01*
X181792750Y-142700667D01*
X181728959Y-142734370D01*
X181716055Y-142756269D01*
X181663072Y-142787178D01*
X181533139Y-142817368D01*
X181333974Y-142846344D01*
X181073292Y-142873611D01*
X180758810Y-142898676D01*
X180398244Y-142921042D01*
X179999313Y-142940217D01*
X179569731Y-142955705D01*
X179117216Y-142967011D01*
X178649484Y-142973642D01*
X178299333Y-142975247D01*
X177795443Y-142974070D01*
X177361914Y-142969483D01*
X176984476Y-142960523D01*
X176648859Y-142946229D01*
X176340792Y-142925637D01*
X176046006Y-142897786D01*
X175750230Y-142861712D01*
X175439195Y-142816454D01*
X175098629Y-142761048D01*
X175082000Y-142758236D01*
X174430407Y-142634957D01*
X173808875Y-142489131D01*
X173209261Y-142316782D01*
X172623424Y-142113933D01*
X172043220Y-141876607D01*
X172027779Y-141869300D01*
X172027779Y-136640178D01*
X172467716Y-136635214D01*
X172918217Y-136619874D01*
X173360968Y-136594548D01*
X173777655Y-136559624D01*
X174102534Y-136522031D01*
X174335053Y-136490047D01*
X174543911Y-136460006D01*
X174711869Y-136434486D01*
X174821687Y-136416066D01*
X174849316Y-136410347D01*
X174889244Y-136394678D01*
X174919491Y-136361578D01*
X174944050Y-136297195D01*
X174966918Y-136187676D01*
X174992088Y-136019169D01*
X175017070Y-135828658D01*
X175102086Y-135039902D01*
X175151861Y-134284014D01*
X175165983Y-133573547D01*
X175144040Y-132921055D01*
X175121667Y-132643270D01*
X175002244Y-131795803D01*
X174812350Y-130993286D01*
X174550134Y-130231076D01*
X174213747Y-129504527D01*
X173801336Y-128808995D01*
X173343503Y-128180334D01*
X173324604Y-128157503D01*
X173298513Y-128127577D01*
X173264305Y-128089626D01*
X173221057Y-128042723D01*
X173167845Y-127985939D01*
X173103744Y-127918344D01*
X173027831Y-127839010D01*
X172939182Y-127747009D01*
X172836873Y-127641411D01*
X172719980Y-127521288D01*
X172587578Y-127385711D01*
X172438745Y-127233752D01*
X172272557Y-127064481D01*
X172088088Y-126876971D01*
X171884416Y-126670291D01*
X171660617Y-126443514D01*
X171415765Y-126195711D01*
X171148939Y-125925953D01*
X170859213Y-125633311D01*
X170545664Y-125316857D01*
X170207368Y-124975662D01*
X169843401Y-124608797D01*
X169452839Y-124215333D01*
X169034757Y-123794342D01*
X168588233Y-123344894D01*
X168112343Y-122866062D01*
X167606161Y-122356917D01*
X167068765Y-121816529D01*
X166499230Y-121243970D01*
X165896633Y-120638312D01*
X165260050Y-119998625D01*
X164588556Y-119323981D01*
X163881228Y-118613451D01*
X163137142Y-117866107D01*
X162355373Y-117081019D01*
X161534999Y-116257259D01*
X160675095Y-115393898D01*
X159774737Y-114490008D01*
X158833001Y-113544659D01*
X157848963Y-112556923D01*
X156821700Y-111525872D01*
X155750287Y-110450576D01*
X154633801Y-109330107D01*
X153471318Y-108163537D01*
X152261913Y-106949935D01*
X151004662Y-105688374D01*
X149698643Y-104377925D01*
X148342931Y-103017659D01*
X146936601Y-101606648D01*
X145478731Y-100143962D01*
X143968395Y-98628674D01*
X142404671Y-97059853D01*
X140786635Y-95436573D01*
X139113361Y-93757903D01*
X137383927Y-92022915D01*
X135597409Y-90230680D01*
X133752882Y-88380270D01*
X132008329Y-86630167D01*
X120614538Y-75200167D01*
X120479498Y-74861500D01*
X120314949Y-74345111D01*
X120232477Y-73824673D01*
X120232174Y-73296723D01*
X120314133Y-72757798D01*
X120478447Y-72204437D01*
X120555868Y-72005649D01*
X120686233Y-71689797D01*
X120393768Y-71397332D01*
X120101302Y-71104867D01*
X119577568Y-71360859D01*
X118912344Y-71653867D01*
X118274635Y-71868381D01*
X117661258Y-72004811D01*
X117069031Y-72063570D01*
X116494769Y-72045068D01*
X115935292Y-71949716D01*
X115646000Y-71868901D01*
X115386260Y-71771024D01*
X115088866Y-71634131D01*
X114781714Y-71472792D01*
X114492701Y-71301578D01*
X114270166Y-71150350D01*
X114021136Y-70948370D01*
X113733016Y-70683821D01*
X113413431Y-70364745D01*
X113070007Y-69999185D01*
X112710370Y-69595183D01*
X112342147Y-69160782D01*
X112089168Y-68850167D01*
X111735917Y-68414350D01*
X111425301Y-68042454D01*
X111151933Y-67728673D01*
X110910427Y-67467196D01*
X110695396Y-67252216D01*
X110501453Y-67077925D01*
X110323211Y-66938514D01*
X110302822Y-66923995D01*
X110173280Y-66830030D01*
X110077056Y-66755083D01*
X110029826Y-66711559D01*
X110027655Y-66706224D01*
X110026705Y-66702376D01*
X110009622Y-66715843D01*
X109972988Y-66750129D01*
X109913386Y-66808738D01*
X109827399Y-66895175D01*
X109711608Y-67012943D01*
X109562596Y-67165546D01*
X109376946Y-67356490D01*
X109151240Y-67589277D01*
X108882059Y-67867412D01*
X108565988Y-68194399D01*
X108199607Y-68573742D01*
X107779499Y-69008945D01*
X107565710Y-69230476D01*
X107201921Y-69608111D01*
X106856309Y-69968142D01*
X106533239Y-70305945D01*
X106237075Y-70616900D01*
X105972179Y-70896383D01*
X105742916Y-71139772D01*
X105553649Y-71342444D01*
X105408742Y-71499779D01*
X105312559Y-71607153D01*
X105269464Y-71659944D01*
X105267686Y-71664642D01*
X105306103Y-71706077D01*
X105382185Y-71797185D01*
X105481674Y-71920763D01*
X105516085Y-71964305D01*
X105773452Y-72261720D01*
X106104842Y-72594298D01*
X106508155Y-72960134D01*
X106981291Y-73357325D01*
X107519128Y-73781643D01*
X107952851Y-74117395D01*
X108324862Y-74411807D01*
X108642911Y-74671955D01*
X108914743Y-74904914D01*
X109148107Y-75117760D01*
X109350750Y-75317567D01*
X109530419Y-75511411D01*
X109694861Y-75706368D01*
X109851824Y-75909512D01*
X109857491Y-75917144D01*
X110184179Y-76412635D01*
X110436545Y-76921760D01*
X110617954Y-77455202D01*
X110731769Y-78023646D01*
X110781355Y-78637774D01*
X110784176Y-78860147D01*
X110760174Y-79436945D01*
X110689707Y-80017143D01*
X110569753Y-80617122D01*
X110397291Y-81253266D01*
X110268403Y-81656000D01*
X110104697Y-82142834D01*
X110557598Y-82596539D01*
X111010500Y-83050244D01*
X111306833Y-82855896D01*
X111760312Y-82588007D01*
X112194460Y-82390773D01*
X112605002Y-82265403D01*
X112987665Y-82213104D01*
X113338173Y-82235084D01*
X113431990Y-82255221D01*
X113445651Y-82260412D01*
X113464463Y-82270974D01*
X113489615Y-82288067D01*
X113522297Y-82312850D01*
X113563698Y-82346484D01*
X113615007Y-82390126D01*
X113677412Y-82444938D01*
X113752105Y-82512077D01*
X113840273Y-82592704D01*
X113943106Y-82687977D01*
X114061792Y-82799057D01*
X114197523Y-82927103D01*
X114351485Y-83073274D01*
X114524870Y-83238729D01*
X114718865Y-83424628D01*
X114934661Y-83632131D01*
X115173446Y-83862396D01*
X115436410Y-84116583D01*
X115724741Y-84395853D01*
X116039630Y-84701363D01*
X116382265Y-85034273D01*
X116753835Y-85395743D01*
X117155530Y-85786933D01*
X117588539Y-86209001D01*
X118054051Y-86663107D01*
X118553255Y-87150410D01*
X119087342Y-87672070D01*
X119657498Y-88229247D01*
X120264915Y-88823099D01*
X120910781Y-89454787D01*
X121596286Y-90125468D01*
X122322618Y-90836304D01*
X123090967Y-91588453D01*
X123902523Y-92383075D01*
X124758473Y-93221329D01*
X125660008Y-94104374D01*
X126608317Y-95033370D01*
X127604589Y-96009477D01*
X128650013Y-97033853D01*
X129745779Y-98107659D01*
X130893075Y-99232053D01*
X132093091Y-100408195D01*
X133347016Y-101637245D01*
X134656039Y-102920361D01*
X136021350Y-104258703D01*
X137444138Y-105653432D01*
X138925591Y-107105705D01*
X139686820Y-107851950D01*
X140943473Y-109083867D01*
X142186357Y-110302267D01*
X143414058Y-111505768D01*
X144625163Y-112692984D01*
X145818260Y-113862530D01*
X146991935Y-115013021D01*
X148144775Y-116143074D01*
X149275368Y-117251303D01*
X150382300Y-118336323D01*
X151464159Y-119396750D01*
X152519532Y-120431199D01*
X153547006Y-121438285D01*
X154545168Y-122416624D01*
X155512604Y-123364831D01*
X156447904Y-124281520D01*
X157349652Y-125165309D01*
X158216437Y-126014811D01*
X159046845Y-126828642D01*
X159839463Y-127605417D01*
X160592880Y-128343752D01*
X161305681Y-129042261D01*
X161976454Y-129699561D01*
X162603786Y-130314266D01*
X163186263Y-130884992D01*
X163722474Y-131410354D01*
X164211005Y-131888967D01*
X164650444Y-132319446D01*
X165039376Y-132700408D01*
X165376390Y-133030466D01*
X165660073Y-133308237D01*
X165889011Y-133532335D01*
X166061793Y-133701376D01*
X166177003Y-133813976D01*
X166233231Y-133868748D01*
X166234333Y-133869813D01*
X166564463Y-134179558D01*
X166929139Y-134506263D01*
X167306516Y-134831199D01*
X167674750Y-135135636D01*
X168011998Y-135400847D01*
X168079430Y-135451744D01*
X168564947Y-135784769D01*
X169051840Y-136054321D01*
X169557478Y-136267270D01*
X170099230Y-136430485D01*
X170694465Y-136550837D01*
X170954500Y-136588924D01*
X171252857Y-136617422D01*
X171616722Y-136634377D01*
X172027779Y-136640178D01*
X172027779Y-141869300D01*
X171460508Y-141600829D01*
X170867145Y-141282621D01*
X170254990Y-140918009D01*
X169615899Y-140503014D01*
X168941732Y-140033662D01*
X168224344Y-139505975D01*
X167867953Y-139235166D01*
X167828277Y-139204288D01*
X167785108Y-139169658D01*
X167737283Y-139130135D01*
X167683636Y-139084578D01*
X167623005Y-139031847D01*
X167554224Y-138970800D01*
X167476130Y-138900297D01*
X167387560Y-138819196D01*
X167287348Y-138726357D01*
X167174331Y-138620639D01*
X167047345Y-138500900D01*
X166905225Y-138366000D01*
X166746809Y-138214798D01*
X166570931Y-138046153D01*
X166376428Y-137858924D01*
X166162135Y-137651970D01*
X165926889Y-137424150D01*
X165669526Y-137174324D01*
X165388881Y-136901349D01*
X165083791Y-136604086D01*
X164753091Y-136281394D01*
X164395617Y-135932131D01*
X164010206Y-135555156D01*
X163595694Y-135149329D01*
X163150915Y-134713509D01*
X162674708Y-134246554D01*
X162165906Y-133747324D01*
X161623346Y-133214679D01*
X161045865Y-132647475D01*
X160432298Y-132044574D01*
X159781481Y-131404834D01*
X159092250Y-130727115D01*
X158363441Y-130010274D01*
X157593891Y-129253171D01*
X156782434Y-128454666D01*
X155927907Y-127613618D01*
X155029146Y-126728884D01*
X154084987Y-125799325D01*
X153094266Y-124823800D01*
X152055819Y-123801168D01*
X150968482Y-122730287D01*
X149831090Y-121610016D01*
X148642480Y-120439216D01*
X147401488Y-119216745D01*
X146106949Y-117941461D01*
X144757700Y-116612225D01*
X143352577Y-115227895D01*
X141890415Y-113787329D01*
X140370050Y-112289388D01*
X139106635Y-111044588D01*
X137806353Y-109763530D01*
X136520654Y-108496984D01*
X135250864Y-107246256D01*
X133998311Y-106012647D01*
X132764321Y-104797463D01*
X131550221Y-103602007D01*
X130357337Y-102427583D01*
X129186997Y-101275496D01*
X128040526Y-100147048D01*
X126919252Y-99043544D01*
X125824500Y-97966288D01*
X124757599Y-96916584D01*
X123719875Y-95895735D01*
X122712653Y-94905046D01*
X121737262Y-93945820D01*
X120795027Y-93019362D01*
X119887275Y-92126975D01*
X119015334Y-91269963D01*
X118180529Y-90449630D01*
X117384188Y-89667280D01*
X116627636Y-88924217D01*
X115912201Y-88221744D01*
X115239210Y-87561167D01*
X114609989Y-86943788D01*
X114025865Y-86370911D01*
X113488164Y-85843841D01*
X112998213Y-85363881D01*
X112557339Y-84932335D01*
X112166869Y-84550508D01*
X111828129Y-84219703D01*
X111542446Y-83941223D01*
X111311146Y-83716373D01*
X111135557Y-83546457D01*
X111017005Y-83432779D01*
X110956816Y-83376643D01*
X110949107Y-83370500D01*
X110899693Y-83340158D01*
X110805217Y-83255901D01*
X110675964Y-83127883D01*
X110522222Y-82966258D01*
X110370124Y-82799000D01*
X109860898Y-82227500D01*
X109808724Y-81681993D01*
X109703163Y-80857940D01*
X109549127Y-80098831D01*
X109344247Y-79398597D01*
X109086152Y-78751169D01*
X108772475Y-78150479D01*
X108400843Y-77590457D01*
X108034588Y-77138445D01*
X107937008Y-77034955D01*
X107787885Y-76885890D01*
X107598663Y-76702252D01*
X107380785Y-76495043D01*
X107145695Y-76275266D01*
X106938830Y-76084916D01*
X106477337Y-75652774D01*
X106080822Y-75258538D01*
X105751044Y-74904083D01*
X105489767Y-74591289D01*
X105329975Y-74370386D01*
X105262952Y-74275706D01*
X105216503Y-74222298D01*
X105205718Y-74217504D01*
X105189514Y-74261848D01*
X105157611Y-74369210D01*
X105115521Y-74520645D01*
X105091587Y-74609948D01*
X104991348Y-74988500D01*
X103348166Y-75284834D01*
X103209845Y-75981379D01*
X103071523Y-76677923D01*
X103519162Y-78048509D01*
X103624524Y-78373220D01*
X103720304Y-78672486D01*
X103803557Y-78936780D01*
X103871334Y-79156570D01*
X103920688Y-79322328D01*
X103948672Y-79424524D01*
X103953817Y-79453869D01*
X103925340Y-79490430D01*
X103846187Y-79587134D01*
X103720231Y-79739372D01*
X103551344Y-79942533D01*
X103343397Y-80192007D01*
X103100262Y-80483183D01*
X102825812Y-80811452D01*
X102523918Y-81172202D01*
X102198452Y-81560825D01*
X101853286Y-81972708D01*
X101492291Y-82403243D01*
X101119340Y-82847818D01*
X100738305Y-83301825D01*
X100353057Y-83760651D01*
X99967469Y-84219687D01*
X99585411Y-84674324D01*
X99210757Y-85119949D01*
X98847378Y-85551954D01*
X98499145Y-85965728D01*
X98169932Y-86356661D01*
X97863608Y-86720142D01*
X97584048Y-87051561D01*
X97335122Y-87346308D01*
X97120701Y-87599773D01*
X96944660Y-87807345D01*
X96810868Y-87964414D01*
X96723198Y-88066369D01*
X96685522Y-88108602D01*
X96684536Y-88109442D01*
X96664001Y-88075584D01*
X96620627Y-87969655D01*
X96557278Y-87800258D01*
X96476819Y-87575993D01*
X96382113Y-87305461D01*
X96276026Y-86997262D01*
X96161420Y-86659999D01*
X96041162Y-86302271D01*
X95918114Y-85932680D01*
X95795142Y-85559827D01*
X95675109Y-85192312D01*
X95560880Y-84838737D01*
X95455320Y-84507702D01*
X95361292Y-84207809D01*
X95281661Y-83947658D01*
X95219291Y-83735851D01*
X95178973Y-83588558D01*
X95019169Y-82889511D01*
X94896518Y-82181747D01*
X94811100Y-81457855D01*
X94762995Y-80710421D01*
X94752286Y-79932030D01*
X94779053Y-79115272D01*
X94843379Y-78252731D01*
X94945343Y-77336996D01*
X95085027Y-76360652D01*
X95262513Y-75316288D01*
X95270039Y-75274966D01*
X95426419Y-74418432D01*
X95873626Y-74085544D01*
X96028964Y-73972086D01*
X96239992Y-73821126D01*
X96492373Y-73642749D01*
X96771771Y-73447039D01*
X97063847Y-73244082D01*
X97354265Y-73043962D01*
X97358000Y-73041401D01*
X97767490Y-72759225D01*
X98116732Y-72515200D01*
X98416452Y-72301305D01*
X98677372Y-72109524D01*
X98910216Y-71931836D01*
X99125707Y-71760223D01*
X99334571Y-71586667D01*
X99539438Y-71410222D01*
X100077451Y-70894618D01*
X100570542Y-70330497D01*
X101007716Y-69732372D01*
X101377977Y-69114753D01*
X101565313Y-68736756D01*
X101707821Y-68424044D01*
X95230557Y-61800272D01*
X94601336Y-61156805D01*
X93980033Y-60521407D01*
X93369871Y-59897376D01*
X92774074Y-59288010D01*
X92195867Y-58696607D01*
X91638471Y-58126465D01*
X91105111Y-57580882D01*
X90599011Y-57063155D01*
X90123394Y-56576582D01*
X89681484Y-56124462D01*
X89276504Y-55710091D01*
X88911679Y-55336769D01*
X88590230Y-55007792D01*
X88315384Y-54726459D01*
X88090362Y-54496068D01*
X87918388Y-54319916D01*
X87810917Y-54209745D01*
X86868541Y-53242990D01*
X85392854Y-52640565D01*
X83917166Y-52038140D01*
X83917166Y-50623555D01*
X82079046Y-48184455D01*
X82166020Y-47679978D01*
G36*
X111804761Y-80746400D02*
G01*
X111823462Y-80737162D01*
X111860862Y-80703676D01*
X111950661Y-80613655D01*
X112087632Y-80472590D01*
X112266547Y-80285976D01*
X112482178Y-80059305D01*
X112729299Y-79798070D01*
X113002681Y-79507766D01*
X113297097Y-79193884D01*
X113572771Y-78898949D01*
X113881139Y-78569668D01*
X114173140Y-78260123D01*
X114443569Y-77975685D01*
X114687219Y-77721719D01*
X114898886Y-77503595D01*
X115073363Y-77326679D01*
X115205446Y-77196339D01*
X115289929Y-77117943D01*
X115320975Y-77096239D01*
X115379105Y-77078291D01*
X115434333Y-77020894D01*
X115475842Y-76971230D01*
X115567611Y-76868391D01*
X115703394Y-76719062D01*
X115876944Y-76529927D01*
X116082017Y-76307669D01*
X116312364Y-76058972D01*
X116561742Y-75790520D01*
X116823902Y-75508997D01*
X117092600Y-75221086D01*
X117361589Y-74933473D01*
X117624623Y-74652840D01*
X117875455Y-74385871D01*
X118107841Y-74139250D01*
X118315533Y-73919662D01*
X118492286Y-73733789D01*
X118631853Y-73588316D01*
X118727989Y-73489927D01*
X118774446Y-73445305D01*
X118777583Y-73443334D01*
X118800494Y-73478507D01*
X118805867Y-73517417D01*
X118818474Y-73569516D01*
X118853397Y-73693501D01*
X118907895Y-73880386D01*
X118979225Y-74121182D01*
X119064648Y-74406903D01*
X119161419Y-74728561D01*
X119266799Y-75077170D01*
X119378045Y-75443741D01*
X119492415Y-75819289D01*
X119607169Y-76194824D01*
X119719563Y-76561361D01*
X119826857Y-76909913D01*
X119926308Y-77231491D01*
X120015176Y-77517108D01*
X120090718Y-77757778D01*
X120150192Y-77944513D01*
X120190858Y-78068326D01*
X120209973Y-78120230D01*
X120210086Y-78120423D01*
X120237125Y-78198621D01*
X120241409Y-78226256D01*
X120255213Y-78283404D01*
X120290618Y-78409379D01*
X120344082Y-78592166D01*
X120412060Y-78819745D01*
X120491009Y-79080098D01*
X120547441Y-79264167D01*
X120642037Y-79572056D01*
X120754244Y-79938328D01*
X120877144Y-80340330D01*
X121003818Y-80755411D01*
X121127345Y-81160919D01*
X121232802Y-81507834D01*
X121329517Y-81826070D01*
X121419819Y-82122601D01*
X121500373Y-82386519D01*
X121567842Y-82606916D01*
X121618891Y-82772885D01*
X121650184Y-82873519D01*
X121656821Y-82894250D01*
X121681643Y-82976751D01*
X121686881Y-83009848D01*
X121645292Y-83000425D01*
X121566575Y-82982336D01*
X121566575Y-82883889D01*
X121572666Y-82883430D01*
X121560652Y-82838744D01*
X121526104Y-82720542D01*
X121471267Y-82536272D01*
X121398383Y-82293377D01*
X121309697Y-81999304D01*
X121207451Y-81661498D01*
X121093889Y-81287405D01*
X120971255Y-80884470D01*
X120895572Y-80636286D01*
X120767741Y-80217929D01*
X120646633Y-79822597D01*
X120534614Y-79457953D01*
X120434053Y-79131657D01*
X120347319Y-78851370D01*
X120276780Y-78624753D01*
X120224805Y-78459468D01*
X120193761Y-78363175D01*
X120186355Y-78342133D01*
X120169690Y-78335975D01*
X120132233Y-78355689D01*
X120097252Y-78383559D01*
X120097252Y-78224638D01*
X120110565Y-78217326D01*
X120115509Y-78192398D01*
X120110591Y-78143922D01*
X120094319Y-78065966D01*
X120065200Y-77952600D01*
X120021741Y-77797892D01*
X119962450Y-77595910D01*
X119885833Y-77340723D01*
X119790397Y-77026399D01*
X119674650Y-76647007D01*
X119537100Y-76196615D01*
X119426812Y-75835167D01*
X119301100Y-75423627D01*
X119182273Y-75036057D01*
X119072703Y-74680102D01*
X118974767Y-74363406D01*
X118890836Y-74093613D01*
X118823286Y-73878369D01*
X118774489Y-73725318D01*
X118746821Y-73642104D01*
X118741831Y-73629362D01*
X118710142Y-73652321D01*
X118627255Y-73730784D01*
X118499452Y-73858093D01*
X118333015Y-74027587D01*
X118134226Y-74232606D01*
X117909367Y-74466490D01*
X117664720Y-74722579D01*
X117406567Y-74994214D01*
X117141191Y-75274734D01*
X116874872Y-75557480D01*
X116613894Y-75835791D01*
X116364539Y-76103007D01*
X116133087Y-76352470D01*
X115925822Y-76577518D01*
X115749026Y-76771492D01*
X115608980Y-76927731D01*
X115511966Y-77039577D01*
X115464267Y-77100368D01*
X115460405Y-77108181D01*
X115499485Y-77123981D01*
X115613615Y-77156691D01*
X115795287Y-77204455D01*
X116036990Y-77265418D01*
X116331214Y-77337725D01*
X116670449Y-77419520D01*
X117047186Y-77508948D01*
X117453914Y-77604153D01*
X117678000Y-77656072D01*
X118102279Y-77754083D01*
X118504484Y-77847097D01*
X118876532Y-77933239D01*
X119210341Y-78010631D01*
X119497828Y-78077399D01*
X119730912Y-78131666D01*
X119901509Y-78171555D01*
X120001538Y-78195191D01*
X120022030Y-78200191D01*
X120051492Y-78210139D01*
X120077063Y-78220265D01*
X120097252Y-78224638D01*
X120097252Y-78383559D01*
X120070063Y-78405222D01*
X119979256Y-78488522D01*
X119855891Y-78609535D01*
X119696046Y-78772210D01*
X119495797Y-78980494D01*
X119251224Y-79238333D01*
X118958404Y-79549676D01*
X118613413Y-79918470D01*
X118510622Y-80028611D01*
X118208881Y-80352856D01*
X117925824Y-80658570D01*
X117666506Y-80940191D01*
X117435983Y-81192152D01*
X117239308Y-81408891D01*
X117081537Y-81584841D01*
X116967725Y-81714440D01*
X116902926Y-81792121D01*
X116889592Y-81813037D01*
X116935300Y-81828102D01*
X117053814Y-81859277D01*
X117236205Y-81904521D01*
X117473545Y-81961793D01*
X117756908Y-82029053D01*
X118077366Y-82104261D01*
X118425990Y-82185376D01*
X118793854Y-82270356D01*
X119172029Y-82357163D01*
X119551588Y-82443755D01*
X119923604Y-82528091D01*
X120279149Y-82608132D01*
X120609295Y-82681836D01*
X120905114Y-82747163D01*
X121157679Y-82802072D01*
X121358063Y-82844523D01*
X121497337Y-82872476D01*
X121566575Y-82883889D01*
X121566575Y-82982336D01*
X121528439Y-82973572D01*
X121343542Y-82930956D01*
X121097820Y-82874245D01*
X120798495Y-82805106D01*
X120452787Y-82725207D01*
X120067915Y-82636217D01*
X119651100Y-82539802D01*
X119244333Y-82445677D01*
X118804132Y-82344383D01*
X118388829Y-82249949D01*
X118005687Y-82163951D01*
X117661969Y-82087965D01*
X117364938Y-82023568D01*
X117121858Y-81972335D01*
X116939990Y-81935842D01*
X116826600Y-81915666D01*
X116789000Y-81912874D01*
X116745947Y-81908288D01*
X116745690Y-81908240D01*
X116745690Y-81753101D01*
X116779253Y-81729280D01*
X116865085Y-81648722D01*
X116997950Y-81516833D01*
X117172610Y-81339016D01*
X117383829Y-81120676D01*
X117626369Y-80867218D01*
X117894993Y-80584046D01*
X118184464Y-80276564D01*
X118407105Y-80038601D01*
X118774616Y-79643909D01*
X119086595Y-79306842D01*
X119346111Y-79023916D01*
X119556232Y-78791644D01*
X119720026Y-78606545D01*
X119840564Y-78465131D01*
X119920913Y-78363920D01*
X119964142Y-78299427D01*
X119973321Y-78268166D01*
X119969471Y-78264575D01*
X119916213Y-78250419D01*
X119788210Y-78219159D01*
X119593243Y-78172623D01*
X119339090Y-78112634D01*
X119033530Y-78041020D01*
X118684343Y-77959606D01*
X118299308Y-77870217D01*
X117886205Y-77774680D01*
X117644970Y-77719050D01*
X117221543Y-77621949D01*
X116823288Y-77531476D01*
X116457758Y-77449290D01*
X116132506Y-77377048D01*
X115855084Y-77316406D01*
X115633046Y-77269021D01*
X115473944Y-77236552D01*
X115385330Y-77220655D01*
X115369187Y-77219701D01*
X115377453Y-77262487D01*
X115408123Y-77377246D01*
X115458501Y-77555094D01*
X115525888Y-77787144D01*
X115607586Y-78064510D01*
X115700897Y-78378308D01*
X115803123Y-78719650D01*
X115911566Y-79079652D01*
X116023528Y-79449428D01*
X116136311Y-79820092D01*
X116247217Y-80182758D01*
X116353549Y-80528541D01*
X116452607Y-80848554D01*
X116541693Y-81133913D01*
X116618111Y-81375731D01*
X116679162Y-81565122D01*
X116722147Y-81693202D01*
X116744370Y-81751083D01*
X116745690Y-81753101D01*
X116745690Y-81908240D01*
X116629161Y-81886366D01*
X116616067Y-81883682D01*
X116616067Y-81825334D01*
X116660149Y-81806967D01*
X116662000Y-81799806D01*
X116649968Y-81755675D01*
X116615367Y-81638009D01*
X116560437Y-81454221D01*
X116487420Y-81211727D01*
X116398557Y-80917941D01*
X116296088Y-80580277D01*
X116182255Y-80206149D01*
X116059299Y-79802972D01*
X115980656Y-79545556D01*
X115852509Y-79127139D01*
X115731177Y-78732440D01*
X115619009Y-78369001D01*
X115518352Y-78044359D01*
X115431556Y-77766055D01*
X115360968Y-77541630D01*
X115308938Y-77378623D01*
X115277812Y-77284573D01*
X115270166Y-77264411D01*
X115235046Y-77282839D01*
X115145002Y-77362487D01*
X115001730Y-77501621D01*
X114806922Y-77698511D01*
X114562274Y-77951424D01*
X114269481Y-78258628D01*
X113930237Y-78618391D01*
X113595075Y-78976599D01*
X113245038Y-79352132D01*
X112948852Y-79670705D01*
X112702419Y-79937088D01*
X112501644Y-80156052D01*
X112342431Y-80332367D01*
X112220683Y-80470803D01*
X112132303Y-80576131D01*
X112073197Y-80653122D01*
X112039267Y-80706545D01*
X112026416Y-80741171D01*
X112030550Y-80761771D01*
X112047572Y-80773115D01*
X112051315Y-80774421D01*
X112113865Y-80790937D01*
X112248075Y-80823697D01*
X112444721Y-80870578D01*
X112694581Y-80929457D01*
X112988431Y-80998210D01*
X113317051Y-81074715D01*
X113671216Y-81156848D01*
X114041704Y-81242486D01*
X114419293Y-81329506D01*
X114794760Y-81415784D01*
X115158883Y-81499197D01*
X115502438Y-81577622D01*
X115816203Y-81648936D01*
X116090955Y-81711014D01*
X116317473Y-81761735D01*
X116486533Y-81798975D01*
X116588912Y-81820610D01*
X116616067Y-81825334D01*
X116616067Y-81883682D01*
X116447342Y-81849086D01*
X116209190Y-81798425D01*
X115923406Y-81736360D01*
X115598690Y-81664868D01*
X115243743Y-81585926D01*
X114867266Y-81501511D01*
X114477960Y-81413600D01*
X114084524Y-81324170D01*
X113695660Y-81235199D01*
X113320069Y-81148664D01*
X112966450Y-81066541D01*
X112643505Y-80990808D01*
X112359934Y-80923442D01*
X112124438Y-80866420D01*
X111945717Y-80821719D01*
X111832473Y-80791316D01*
X111793666Y-80777752D01*
X111804761Y-80746400D01*
X111804761Y-80746400D01*
G37*
X111804761Y-80746400D02*
X111823462Y-80737162D01*
X111860862Y-80703676D01*
X111950661Y-80613655D01*
X112087632Y-80472590D01*
X112266547Y-80285976D01*
X112482178Y-80059305D01*
X112729299Y-79798070D01*
X113002681Y-79507766D01*
X113297097Y-79193884D01*
X113572771Y-78898949D01*
X113881139Y-78569668D01*
X114173140Y-78260123D01*
X114443569Y-77975685D01*
X114687219Y-77721719D01*
X114898886Y-77503595D01*
X115073363Y-77326679D01*
X115205446Y-77196339D01*
X115289929Y-77117943D01*
X115320975Y-77096239D01*
X115379105Y-77078291D01*
X115434333Y-77020894D01*
X115475842Y-76971230D01*
X115567611Y-76868391D01*
X115703394Y-76719062D01*
X115876944Y-76529927D01*
X116082017Y-76307669D01*
X116312364Y-76058972D01*
X116561742Y-75790520D01*
X116823902Y-75508997D01*
X117092600Y-75221086D01*
X117361589Y-74933473D01*
X117624623Y-74652840D01*
X117875455Y-74385871D01*
X118107841Y-74139250D01*
X118315533Y-73919662D01*
X118492286Y-73733789D01*
X118631853Y-73588316D01*
X118727989Y-73489927D01*
X118774446Y-73445305D01*
X118777583Y-73443334D01*
X118800494Y-73478507D01*
X118805867Y-73517417D01*
X118818474Y-73569516D01*
X118853397Y-73693501D01*
X118907895Y-73880386D01*
X118979225Y-74121182D01*
X119064648Y-74406903D01*
X119161419Y-74728561D01*
X119266799Y-75077170D01*
X119378045Y-75443741D01*
X119492415Y-75819289D01*
X119607169Y-76194824D01*
X119719563Y-76561361D01*
X119826857Y-76909913D01*
X119926308Y-77231491D01*
X120015176Y-77517108D01*
X120090718Y-77757778D01*
X120150192Y-77944513D01*
X120190858Y-78068326D01*
X120209973Y-78120230D01*
X120210086Y-78120423D01*
X120237125Y-78198621D01*
X120241409Y-78226256D01*
X120255213Y-78283404D01*
X120290618Y-78409379D01*
X120344082Y-78592166D01*
X120412060Y-78819745D01*
X120491009Y-79080098D01*
X120547441Y-79264167D01*
X120642037Y-79572056D01*
X120754244Y-79938328D01*
X120877144Y-80340330D01*
X121003818Y-80755411D01*
X121127345Y-81160919D01*
X121232802Y-81507834D01*
X121329517Y-81826070D01*
X121419819Y-82122601D01*
X121500373Y-82386519D01*
X121567842Y-82606916D01*
X121618891Y-82772885D01*
X121650184Y-82873519D01*
X121656821Y-82894250D01*
X121681643Y-82976751D01*
X121686881Y-83009848D01*
X121645292Y-83000425D01*
X121566575Y-82982336D01*
X121566575Y-82883889D01*
X121572666Y-82883430D01*
X121560652Y-82838744D01*
X121526104Y-82720542D01*
X121471267Y-82536272D01*
X121398383Y-82293377D01*
X121309697Y-81999304D01*
X121207451Y-81661498D01*
X121093889Y-81287405D01*
X120971255Y-80884470D01*
X120895572Y-80636286D01*
X120767741Y-80217929D01*
X120646633Y-79822597D01*
X120534614Y-79457953D01*
X120434053Y-79131657D01*
X120347319Y-78851370D01*
X120276780Y-78624753D01*
X120224805Y-78459468D01*
X120193761Y-78363175D01*
X120186355Y-78342133D01*
X120169690Y-78335975D01*
X120132233Y-78355689D01*
X120097252Y-78383559D01*
X120097252Y-78224638D01*
X120110565Y-78217326D01*
X120115509Y-78192398D01*
X120110591Y-78143922D01*
X120094319Y-78065966D01*
X120065200Y-77952600D01*
X120021741Y-77797892D01*
X119962450Y-77595910D01*
X119885833Y-77340723D01*
X119790397Y-77026399D01*
X119674650Y-76647007D01*
X119537100Y-76196615D01*
X119426812Y-75835167D01*
X119301100Y-75423627D01*
X119182273Y-75036057D01*
X119072703Y-74680102D01*
X118974767Y-74363406D01*
X118890836Y-74093613D01*
X118823286Y-73878369D01*
X118774489Y-73725318D01*
X118746821Y-73642104D01*
X118741831Y-73629362D01*
X118710142Y-73652321D01*
X118627255Y-73730784D01*
X118499452Y-73858093D01*
X118333015Y-74027587D01*
X118134226Y-74232606D01*
X117909367Y-74466490D01*
X117664720Y-74722579D01*
X117406567Y-74994214D01*
X117141191Y-75274734D01*
X116874872Y-75557480D01*
X116613894Y-75835791D01*
X116364539Y-76103007D01*
X116133087Y-76352470D01*
X115925822Y-76577518D01*
X115749026Y-76771492D01*
X115608980Y-76927731D01*
X115511966Y-77039577D01*
X115464267Y-77100368D01*
X115460405Y-77108181D01*
X115499485Y-77123981D01*
X115613615Y-77156691D01*
X115795287Y-77204455D01*
X116036990Y-77265418D01*
X116331214Y-77337725D01*
X116670449Y-77419520D01*
X117047186Y-77508948D01*
X117453914Y-77604153D01*
X117678000Y-77656072D01*
X118102279Y-77754083D01*
X118504484Y-77847097D01*
X118876532Y-77933239D01*
X119210341Y-78010631D01*
X119497828Y-78077399D01*
X119730912Y-78131666D01*
X119901509Y-78171555D01*
X120001538Y-78195191D01*
X120022030Y-78200191D01*
X120051492Y-78210139D01*
X120077063Y-78220265D01*
X120097252Y-78224638D01*
X120097252Y-78383559D01*
X120070063Y-78405222D01*
X119979256Y-78488522D01*
X119855891Y-78609535D01*
X119696046Y-78772210D01*
X119495797Y-78980494D01*
X119251224Y-79238333D01*
X118958404Y-79549676D01*
X118613413Y-79918470D01*
X118510622Y-80028611D01*
X118208881Y-80352856D01*
X117925824Y-80658570D01*
X117666506Y-80940191D01*
X117435983Y-81192152D01*
X117239308Y-81408891D01*
X117081537Y-81584841D01*
X116967725Y-81714440D01*
X116902926Y-81792121D01*
X116889592Y-81813037D01*
X116935300Y-81828102D01*
X117053814Y-81859277D01*
X117236205Y-81904521D01*
X117473545Y-81961793D01*
X117756908Y-82029053D01*
X118077366Y-82104261D01*
X118425990Y-82185376D01*
X118793854Y-82270356D01*
X119172029Y-82357163D01*
X119551588Y-82443755D01*
X119923604Y-82528091D01*
X120279149Y-82608132D01*
X120609295Y-82681836D01*
X120905114Y-82747163D01*
X121157679Y-82802072D01*
X121358063Y-82844523D01*
X121497337Y-82872476D01*
X121566575Y-82883889D01*
X121566575Y-82982336D01*
X121528439Y-82973572D01*
X121343542Y-82930956D01*
X121097820Y-82874245D01*
X120798495Y-82805106D01*
X120452787Y-82725207D01*
X120067915Y-82636217D01*
X119651100Y-82539802D01*
X119244333Y-82445677D01*
X118804132Y-82344383D01*
X118388829Y-82249949D01*
X118005687Y-82163951D01*
X117661969Y-82087965D01*
X117364938Y-82023568D01*
X117121858Y-81972335D01*
X116939990Y-81935842D01*
X116826600Y-81915666D01*
X116789000Y-81912874D01*
X116745947Y-81908288D01*
X116745690Y-81908240D01*
X116745690Y-81753101D01*
X116779253Y-81729280D01*
X116865085Y-81648722D01*
X116997950Y-81516833D01*
X117172610Y-81339016D01*
X117383829Y-81120676D01*
X117626369Y-80867218D01*
X117894993Y-80584046D01*
X118184464Y-80276564D01*
X118407105Y-80038601D01*
X118774616Y-79643909D01*
X119086595Y-79306842D01*
X119346111Y-79023916D01*
X119556232Y-78791644D01*
X119720026Y-78606545D01*
X119840564Y-78465131D01*
X119920913Y-78363920D01*
X119964142Y-78299427D01*
X119973321Y-78268166D01*
X119969471Y-78264575D01*
X119916213Y-78250419D01*
X119788210Y-78219159D01*
X119593243Y-78172623D01*
X119339090Y-78112634D01*
X119033530Y-78041020D01*
X118684343Y-77959606D01*
X118299308Y-77870217D01*
X117886205Y-77774680D01*
X117644970Y-77719050D01*
X117221543Y-77621949D01*
X116823288Y-77531476D01*
X116457758Y-77449290D01*
X116132506Y-77377048D01*
X115855084Y-77316406D01*
X115633046Y-77269021D01*
X115473944Y-77236552D01*
X115385330Y-77220655D01*
X115369187Y-77219701D01*
X115377453Y-77262487D01*
X115408123Y-77377246D01*
X115458501Y-77555094D01*
X115525888Y-77787144D01*
X115607586Y-78064510D01*
X115700897Y-78378308D01*
X115803123Y-78719650D01*
X115911566Y-79079652D01*
X116023528Y-79449428D01*
X116136311Y-79820092D01*
X116247217Y-80182758D01*
X116353549Y-80528541D01*
X116452607Y-80848554D01*
X116541693Y-81133913D01*
X116618111Y-81375731D01*
X116679162Y-81565122D01*
X116722147Y-81693202D01*
X116744370Y-81751083D01*
X116745690Y-81753101D01*
X116745690Y-81908240D01*
X116629161Y-81886366D01*
X116616067Y-81883682D01*
X116616067Y-81825334D01*
X116660149Y-81806967D01*
X116662000Y-81799806D01*
X116649968Y-81755675D01*
X116615367Y-81638009D01*
X116560437Y-81454221D01*
X116487420Y-81211727D01*
X116398557Y-80917941D01*
X116296088Y-80580277D01*
X116182255Y-80206149D01*
X116059299Y-79802972D01*
X115980656Y-79545556D01*
X115852509Y-79127139D01*
X115731177Y-78732440D01*
X115619009Y-78369001D01*
X115518352Y-78044359D01*
X115431556Y-77766055D01*
X115360968Y-77541630D01*
X115308938Y-77378623D01*
X115277812Y-77284573D01*
X115270166Y-77264411D01*
X115235046Y-77282839D01*
X115145002Y-77362487D01*
X115001730Y-77501621D01*
X114806922Y-77698511D01*
X114562274Y-77951424D01*
X114269481Y-78258628D01*
X113930237Y-78618391D01*
X113595075Y-78976599D01*
X113245038Y-79352132D01*
X112948852Y-79670705D01*
X112702419Y-79937088D01*
X112501644Y-80156052D01*
X112342431Y-80332367D01*
X112220683Y-80470803D01*
X112132303Y-80576131D01*
X112073197Y-80653122D01*
X112039267Y-80706545D01*
X112026416Y-80741171D01*
X112030550Y-80761771D01*
X112047572Y-80773115D01*
X112051315Y-80774421D01*
X112113865Y-80790937D01*
X112248075Y-80823697D01*
X112444721Y-80870578D01*
X112694581Y-80929457D01*
X112988431Y-80998210D01*
X113317051Y-81074715D01*
X113671216Y-81156848D01*
X114041704Y-81242486D01*
X114419293Y-81329506D01*
X114794760Y-81415784D01*
X115158883Y-81499197D01*
X115502438Y-81577622D01*
X115816203Y-81648936D01*
X116090955Y-81711014D01*
X116317473Y-81761735D01*
X116486533Y-81798975D01*
X116588912Y-81820610D01*
X116616067Y-81825334D01*
X116616067Y-81883682D01*
X116447342Y-81849086D01*
X116209190Y-81798425D01*
X115923406Y-81736360D01*
X115598690Y-81664868D01*
X115243743Y-81585926D01*
X114867266Y-81501511D01*
X114477960Y-81413600D01*
X114084524Y-81324170D01*
X113695660Y-81235199D01*
X113320069Y-81148664D01*
X112966450Y-81066541D01*
X112643505Y-80990808D01*
X112359934Y-80923442D01*
X112124438Y-80866420D01*
X111945717Y-80821719D01*
X111832473Y-80791316D01*
X111793666Y-80777752D01*
X111804761Y-80746400D01*
G36*
X117071824Y-81727095D02*
G01*
X117141091Y-81640200D01*
X117250196Y-81513530D01*
X117389911Y-81357900D01*
X117491973Y-81247190D01*
X117954240Y-80750793D01*
X118361878Y-80313342D01*
X118717830Y-79931706D01*
X119025041Y-79602752D01*
X119286456Y-79323349D01*
X119505019Y-79090366D01*
X119683673Y-78900670D01*
X119825364Y-78751130D01*
X119933035Y-78638614D01*
X120009632Y-78559990D01*
X120058097Y-78512126D01*
X120081377Y-78491891D01*
X120083333Y-78490862D01*
X120104397Y-78526711D01*
X120147287Y-78634491D01*
X120209112Y-78805151D01*
X120286980Y-79029646D01*
X120377997Y-79298925D01*
X120479272Y-79603942D01*
X120587911Y-79935647D01*
X120701023Y-80284994D01*
X120815715Y-80642934D01*
X120929094Y-81000419D01*
X121038269Y-81348400D01*
X121140345Y-81677830D01*
X121232432Y-81979661D01*
X121311636Y-82244845D01*
X121375066Y-82464332D01*
X121419827Y-82629076D01*
X121443029Y-82730029D01*
X121445666Y-82752436D01*
X121413728Y-82786365D01*
X121371583Y-82781865D01*
X121316915Y-82768136D01*
X121187821Y-82737306D01*
X120992383Y-82691263D01*
X120738686Y-82631893D01*
X120434812Y-82561082D01*
X120088845Y-82480715D01*
X119708870Y-82392680D01*
X119302969Y-82298862D01*
X119184980Y-82271632D01*
X118775322Y-82176813D01*
X118391051Y-82087282D01*
X118039991Y-82004904D01*
X117729965Y-81931541D01*
X117468796Y-81869059D01*
X117264307Y-81819319D01*
X117124322Y-81784186D01*
X117056663Y-81765524D01*
X117051620Y-81763399D01*
X117071824Y-81727095D01*
X117071824Y-81727095D01*
G37*
X117071824Y-81727095D02*
X117141091Y-81640200D01*
X117250196Y-81513530D01*
X117389911Y-81357900D01*
X117491973Y-81247190D01*
X117954240Y-80750793D01*
X118361878Y-80313342D01*
X118717830Y-79931706D01*
X119025041Y-79602752D01*
X119286456Y-79323349D01*
X119505019Y-79090366D01*
X119683673Y-78900670D01*
X119825364Y-78751130D01*
X119933035Y-78638614D01*
X120009632Y-78559990D01*
X120058097Y-78512126D01*
X120081377Y-78491891D01*
X120083333Y-78490862D01*
X120104397Y-78526711D01*
X120147287Y-78634491D01*
X120209112Y-78805151D01*
X120286980Y-79029646D01*
X120377997Y-79298925D01*
X120479272Y-79603942D01*
X120587911Y-79935647D01*
X120701023Y-80284994D01*
X120815715Y-80642934D01*
X120929094Y-81000419D01*
X121038269Y-81348400D01*
X121140345Y-81677830D01*
X121232432Y-81979661D01*
X121311636Y-82244845D01*
X121375066Y-82464332D01*
X121419827Y-82629076D01*
X121443029Y-82730029D01*
X121445666Y-82752436D01*
X121413728Y-82786365D01*
X121371583Y-82781865D01*
X121316915Y-82768136D01*
X121187821Y-82737306D01*
X120992383Y-82691263D01*
X120738686Y-82631893D01*
X120434812Y-82561082D01*
X120088845Y-82480715D01*
X119708870Y-82392680D01*
X119302969Y-82298862D01*
X119184980Y-82271632D01*
X118775322Y-82176813D01*
X118391051Y-82087282D01*
X118039991Y-82004904D01*
X117729965Y-81931541D01*
X117468796Y-81869059D01*
X117264307Y-81819319D01*
X117124322Y-81784186D01*
X117056663Y-81765524D01*
X117051620Y-81763399D01*
X117071824Y-81727095D01*
G36*
X115674861Y-77025761D02*
G01*
X115750497Y-76934710D01*
X115874013Y-76793068D01*
X116040358Y-76606393D01*
X116244484Y-76380239D01*
X116481342Y-76120163D01*
X116745884Y-75831721D01*
X117033061Y-75520470D01*
X117337823Y-75191965D01*
X117655124Y-74851763D01*
X117797258Y-74699959D01*
X118015516Y-74469397D01*
X118215810Y-74262139D01*
X118390780Y-74085461D01*
X118533065Y-73946636D01*
X118635304Y-73852938D01*
X118690136Y-73811643D01*
X118696809Y-73810959D01*
X118718289Y-73860091D01*
X118760856Y-73980697D01*
X118821524Y-74163077D01*
X118897310Y-74397533D01*
X118985231Y-74674364D01*
X119082301Y-74983871D01*
X119185538Y-75316356D01*
X119291956Y-75662119D01*
X119398572Y-76011460D01*
X119502401Y-76354680D01*
X119600460Y-76682080D01*
X119689764Y-76983961D01*
X119767330Y-77250622D01*
X119830173Y-77472366D01*
X119875309Y-77639492D01*
X119878444Y-77651689D01*
X119925035Y-77837022D01*
X119951633Y-77955406D01*
X119959993Y-78021719D01*
X119951870Y-78050838D01*
X119929018Y-78057641D01*
X119926326Y-78057667D01*
X119853519Y-78048238D01*
X119710339Y-78021445D01*
X119506395Y-77979530D01*
X119251294Y-77924733D01*
X118954644Y-77859295D01*
X118626055Y-77785459D01*
X118275135Y-77705465D01*
X117911491Y-77621555D01*
X117544732Y-77535970D01*
X117184466Y-77450950D01*
X116840302Y-77368738D01*
X116521848Y-77291575D01*
X116238711Y-77221701D01*
X116000502Y-77161358D01*
X115816826Y-77112788D01*
X115697294Y-77078231D01*
X115652151Y-77060666D01*
X115674861Y-77025761D01*
X115674861Y-77025761D01*
G37*
X115674861Y-77025761D02*
X115750497Y-76934710D01*
X115874013Y-76793068D01*
X116040358Y-76606393D01*
X116244484Y-76380239D01*
X116481342Y-76120163D01*
X116745884Y-75831721D01*
X117033061Y-75520470D01*
X117337823Y-75191965D01*
X117655124Y-74851763D01*
X117797258Y-74699959D01*
X118015516Y-74469397D01*
X118215810Y-74262139D01*
X118390780Y-74085461D01*
X118533065Y-73946636D01*
X118635304Y-73852938D01*
X118690136Y-73811643D01*
X118696809Y-73810959D01*
X118718289Y-73860091D01*
X118760856Y-73980697D01*
X118821524Y-74163077D01*
X118897310Y-74397533D01*
X118985231Y-74674364D01*
X119082301Y-74983871D01*
X119185538Y-75316356D01*
X119291956Y-75662119D01*
X119398572Y-76011460D01*
X119502401Y-76354680D01*
X119600460Y-76682080D01*
X119689764Y-76983961D01*
X119767330Y-77250622D01*
X119830173Y-77472366D01*
X119875309Y-77639492D01*
X119878444Y-77651689D01*
X119925035Y-77837022D01*
X119951633Y-77955406D01*
X119959993Y-78021719D01*
X119951870Y-78050838D01*
X119929018Y-78057641D01*
X119926326Y-78057667D01*
X119853519Y-78048238D01*
X119710339Y-78021445D01*
X119506395Y-77979530D01*
X119251294Y-77924733D01*
X118954644Y-77859295D01*
X118626055Y-77785459D01*
X118275135Y-77705465D01*
X117911491Y-77621555D01*
X117544732Y-77535970D01*
X117184466Y-77450950D01*
X116840302Y-77368738D01*
X116521848Y-77291575D01*
X116238711Y-77221701D01*
X116000502Y-77161358D01*
X115816826Y-77112788D01*
X115697294Y-77078231D01*
X115652151Y-77060666D01*
X115674861Y-77025761D01*
G36*
X112194552Y-80664240D02*
G01*
X112210635Y-80635853D01*
X112245076Y-80589252D01*
X112301372Y-80520575D01*
X112383021Y-80425956D01*
X112493522Y-80301533D01*
X112636373Y-80143439D01*
X112815072Y-79947812D01*
X113033117Y-79710788D01*
X113294007Y-79428501D01*
X113601239Y-79097088D01*
X113958312Y-78712684D01*
X114368723Y-78271426D01*
X114496948Y-78133641D01*
X114691989Y-77926097D01*
X114868482Y-77742135D01*
X115018219Y-77589999D01*
X115132991Y-77477932D01*
X115204588Y-77414180D01*
X115224713Y-77402765D01*
X115256540Y-77454630D01*
X115275579Y-77517292D01*
X115292148Y-77577564D01*
X115330830Y-77709689D01*
X115388893Y-77904583D01*
X115463601Y-78153159D01*
X115552220Y-78446333D01*
X115652016Y-78775019D01*
X115760256Y-79130134D01*
X115807685Y-79285334D01*
X115921493Y-79659524D01*
X116030019Y-80020295D01*
X116130134Y-80356957D01*
X116218711Y-80658824D01*
X116292620Y-80915207D01*
X116348733Y-81115418D01*
X116383920Y-81248768D01*
X116390122Y-81275000D01*
X116429137Y-81429980D01*
X116467668Y-81550807D01*
X116498391Y-81615083D01*
X116502590Y-81618959D01*
X116517163Y-81657484D01*
X116499395Y-81673009D01*
X116446987Y-81671224D01*
X116321914Y-81651390D01*
X116133698Y-81615704D01*
X115891860Y-81566366D01*
X115605919Y-81505576D01*
X115285397Y-81435532D01*
X114939814Y-81358435D01*
X114578691Y-81276484D01*
X114211549Y-81191877D01*
X113847909Y-81106815D01*
X113497291Y-81023496D01*
X113169216Y-80944121D01*
X112873205Y-80870887D01*
X112618779Y-80805996D01*
X112415458Y-80751645D01*
X112272762Y-80710035D01*
X112200214Y-80683365D01*
X112193327Y-80678279D01*
X112194552Y-80664240D01*
X112194552Y-80664240D01*
G37*
X112194552Y-80664240D02*
X112210635Y-80635853D01*
X112245076Y-80589252D01*
X112301372Y-80520575D01*
X112383021Y-80425956D01*
X112493522Y-80301533D01*
X112636373Y-80143439D01*
X112815072Y-79947812D01*
X113033117Y-79710788D01*
X113294007Y-79428501D01*
X113601239Y-79097088D01*
X113958312Y-78712684D01*
X114368723Y-78271426D01*
X114496948Y-78133641D01*
X114691989Y-77926097D01*
X114868482Y-77742135D01*
X115018219Y-77589999D01*
X115132991Y-77477932D01*
X115204588Y-77414180D01*
X115224713Y-77402765D01*
X115256540Y-77454630D01*
X115275579Y-77517292D01*
X115292148Y-77577564D01*
X115330830Y-77709689D01*
X115388893Y-77904583D01*
X115463601Y-78153159D01*
X115552220Y-78446333D01*
X115652016Y-78775019D01*
X115760256Y-79130134D01*
X115807685Y-79285334D01*
X115921493Y-79659524D01*
X116030019Y-80020295D01*
X116130134Y-80356957D01*
X116218711Y-80658824D01*
X116292620Y-80915207D01*
X116348733Y-81115418D01*
X116383920Y-81248768D01*
X116390122Y-81275000D01*
X116429137Y-81429980D01*
X116467668Y-81550807D01*
X116498391Y-81615083D01*
X116502590Y-81618959D01*
X116517163Y-81657484D01*
X116499395Y-81673009D01*
X116446987Y-81671224D01*
X116321914Y-81651390D01*
X116133698Y-81615704D01*
X115891860Y-81566366D01*
X115605919Y-81505576D01*
X115285397Y-81435532D01*
X114939814Y-81358435D01*
X114578691Y-81276484D01*
X114211549Y-81191877D01*
X113847909Y-81106815D01*
X113497291Y-81023496D01*
X113169216Y-80944121D01*
X112873205Y-80870887D01*
X112618779Y-80805996D01*
X112415458Y-80751645D01*
X112272762Y-80710035D01*
X112200214Y-80683365D01*
X112193327Y-80678279D01*
X112194552Y-80664240D01*
D11*
X176031495Y-137656555D03*
D12*
X169761495Y-134496555D03*
D13*
X169761495Y-134496555D02*
X169761495Y-134496555D01*
D12*
X167965444Y-132700503D03*
D13*
X167965444Y-132700503D02*
X167965444Y-132700503D01*
D12*
X171557546Y-132700503D03*
D13*
X171557546Y-132700503D02*
X171557546Y-132700503D01*
D12*
X169761495Y-130904452D03*
D13*
X169761495Y-130904452D02*
X169761495Y-130904452D01*
D12*
X173353597Y-130904452D03*
D13*
X173353597Y-130904452D02*
X173353597Y-130904452D01*
D12*
X171557546Y-129108401D03*
D14*
G36*
X170072622Y-129108401D02*
G01*
X171557546Y-127623477D01*
X173042470Y-129108401D01*
X171557546Y-130593325D01*
X170072622Y-129108401D01*
X170072622Y-129108401D01*
G37*
D12*
X148771495Y-106416554D03*
D14*
G36*
X147286571Y-106416554D02*
G01*
X148771495Y-104931630D01*
X150256419Y-106416554D01*
X148771495Y-107901478D01*
X147286571Y-106416554D01*
X147286571Y-106416554D01*
G37*
D12*
X150567546Y-108212605D03*
D13*
X150567546Y-108212605D02*
X150567546Y-108212605D01*
D12*
X146975444Y-108212605D03*
D13*
X146975444Y-108212605D02*
X146975444Y-108212605D01*
D12*
X148771495Y-110008656D03*
D13*
X148771495Y-110008656D02*
X148771495Y-110008656D01*
D12*
X145179393Y-110008656D03*
D13*
X145179393Y-110008656D02*
X145179393Y-110008656D01*
D12*
X146975444Y-111804708D03*
D13*
X146975444Y-111804708D02*
X146975444Y-111804708D01*
D12*
X127261496Y-84756555D03*
D14*
G36*
X125776572Y-84756555D02*
G01*
X127261496Y-83271631D01*
X128746420Y-84756555D01*
X127261496Y-86241479D01*
X125776572Y-84756555D01*
X125776572Y-84756555D01*
G37*
D12*
X129057547Y-86552606D03*
D13*
X129057547Y-86552606D02*
X129057547Y-86552606D01*
D12*
X125465445Y-86552606D03*
D13*
X125465445Y-86552606D02*
X125465445Y-86552606D01*
D12*
X127261496Y-88348657D03*
D13*
X127261496Y-88348657D02*
X127261496Y-88348657D01*
D12*
X123669394Y-88348657D03*
D13*
X123669394Y-88348657D02*
X123669394Y-88348657D01*
D12*
X125465445Y-90144709D03*
D13*
X125465445Y-90144709D02*
X125465445Y-90144709D01*
D12*
X93695444Y-58552607D03*
D13*
X93695444Y-58552607D02*
X93695444Y-58552607D01*
D12*
X91899393Y-56756555D03*
D13*
X91899393Y-56756555D02*
X91899393Y-56756555D01*
D12*
X95491495Y-56756555D03*
D13*
X95491495Y-56756555D02*
X95491495Y-56756555D01*
D12*
X93695444Y-54960504D03*
D13*
X93695444Y-54960504D02*
X93695444Y-54960504D01*
D12*
X97287546Y-54960504D03*
D13*
X97287546Y-54960504D02*
X97287546Y-54960504D01*
D12*
X95491495Y-53164453D03*
D14*
G36*
X94006571Y-53164453D02*
G01*
X95491495Y-51679529D01*
X96976419Y-53164453D01*
X95491495Y-54649377D01*
X94006571Y-53164453D01*
X94006571Y-53164453D01*
G37*
D15*
X160107180Y-125468636D03*
X162935607Y-128297063D03*
D16*
X131912155Y-101337215D03*
X129790835Y-99215895D03*
M02*
