G04 #@! TF.GenerationSoftware,KiCad,Pcbnew,5.1.2*
G04 #@! TF.CreationDate,2019-07-14T10:42:41-05:00*
G04 #@! TF.ProjectId,Master_Sword_(Ocarina_of_Time),4d617374-6572-45f5-9377-6f72645f284f,rev?*
G04 #@! TF.SameCoordinates,Original*
G04 #@! TF.FileFunction,Soldermask,Bot*
G04 #@! TF.FilePolarity,Negative*
%FSLAX46Y46*%
G04 Gerber Fmt 4.6, Leading zero omitted, Abs format (unit mm)*
G04 Created by KiCad (PCBNEW 5.1.2) date 2019-07-14 10:42:41*
%MOMM*%
%LPD*%
G04 APERTURE LIST*
%ADD10C,6.400000*%
%ADD11C,5.900000*%
%ADD12C,0.100000*%
%ADD13C,8.400000*%
%ADD14C,1.375000*%
%ADD15C,2.100000*%
%ADD16C,2.100000*%
%ADD17C,1.400000*%
%ADD18C,1.750000*%
%ADD19C,0.900000*%
%ADD20C,0.800000*%
%ADD21C,1.800000*%
%ADD22C,1.200000*%
%ADD23C,1.300000*%
%ADD24C,2.810000*%
%ADD25C,1.000000*%
%ADD26C,2.400000*%
%ADD27C,1.900000*%
G04 APERTURE END LIST*
D10*
X176031495Y-137656555D03*
D11*
X121548963Y-82634022D03*
D12*
G36*
X125897670Y-82810799D02*
G01*
X121725740Y-86982729D01*
X117200256Y-82457245D01*
X121372186Y-78285315D01*
X125897670Y-82810799D01*
X125897670Y-82810799D01*
G37*
D11*
X99911495Y-60996554D03*
D12*
G36*
X104260202Y-61173331D02*
G01*
X100088272Y-65345261D01*
X95562788Y-60819777D01*
X99734718Y-56647847D01*
X104260202Y-61173331D01*
X104260202Y-61173331D01*
G37*
D13*
X110730229Y-71815288D03*
D12*
G36*
X116669926Y-71815288D02*
G01*
X110730229Y-77754985D01*
X104790532Y-71815288D01*
X110730229Y-65875591D01*
X116669926Y-71815288D01*
X116669926Y-71815288D01*
G37*
G36*
X166501274Y-126123889D02*
G01*
X166534643Y-126128839D01*
X166567366Y-126137036D01*
X166599128Y-126148400D01*
X166629624Y-126162824D01*
X166658558Y-126180166D01*
X166685654Y-126200262D01*
X166710649Y-126222916D01*
X167196785Y-126709052D01*
X167219439Y-126734047D01*
X167239535Y-126761143D01*
X167256877Y-126790077D01*
X167271301Y-126820573D01*
X167282665Y-126852335D01*
X167290862Y-126885058D01*
X167295812Y-126918427D01*
X167297467Y-126952120D01*
X167295812Y-126985813D01*
X167290862Y-127019182D01*
X167282665Y-127051905D01*
X167271301Y-127083667D01*
X167256877Y-127114163D01*
X167239535Y-127143097D01*
X167219439Y-127170193D01*
X167196785Y-127195188D01*
X166410129Y-127981844D01*
X166385134Y-128004498D01*
X166358038Y-128024594D01*
X166329104Y-128041936D01*
X166298608Y-128056360D01*
X166266846Y-128067724D01*
X166234123Y-128075921D01*
X166200754Y-128080871D01*
X166167061Y-128082526D01*
X166133368Y-128080871D01*
X166099999Y-128075921D01*
X166067276Y-128067724D01*
X166035514Y-128056360D01*
X166005018Y-128041936D01*
X165976084Y-128024594D01*
X165948988Y-128004498D01*
X165923993Y-127981844D01*
X165437857Y-127495708D01*
X165415203Y-127470713D01*
X165395107Y-127443617D01*
X165377765Y-127414683D01*
X165363341Y-127384187D01*
X165351977Y-127352425D01*
X165343780Y-127319702D01*
X165338830Y-127286333D01*
X165337175Y-127252640D01*
X165338830Y-127218947D01*
X165343780Y-127185578D01*
X165351977Y-127152855D01*
X165363341Y-127121093D01*
X165377765Y-127090597D01*
X165395107Y-127061663D01*
X165415203Y-127034567D01*
X165437857Y-127009572D01*
X166224513Y-126222916D01*
X166249508Y-126200262D01*
X166276604Y-126180166D01*
X166305538Y-126162824D01*
X166336034Y-126148400D01*
X166367796Y-126137036D01*
X166400519Y-126128839D01*
X166433888Y-126123889D01*
X166467581Y-126122234D01*
X166501274Y-126123889D01*
X166501274Y-126123889D01*
G37*
D14*
X166317321Y-127102380D03*
D12*
G36*
X165175448Y-124798063D02*
G01*
X165208817Y-124803013D01*
X165241540Y-124811210D01*
X165273302Y-124822574D01*
X165303798Y-124836998D01*
X165332732Y-124854340D01*
X165359828Y-124874436D01*
X165384823Y-124897090D01*
X165870959Y-125383226D01*
X165893613Y-125408221D01*
X165913709Y-125435317D01*
X165931051Y-125464251D01*
X165945475Y-125494747D01*
X165956839Y-125526509D01*
X165965036Y-125559232D01*
X165969986Y-125592601D01*
X165971641Y-125626294D01*
X165969986Y-125659987D01*
X165965036Y-125693356D01*
X165956839Y-125726079D01*
X165945475Y-125757841D01*
X165931051Y-125788337D01*
X165913709Y-125817271D01*
X165893613Y-125844367D01*
X165870959Y-125869362D01*
X165084303Y-126656018D01*
X165059308Y-126678672D01*
X165032212Y-126698768D01*
X165003278Y-126716110D01*
X164972782Y-126730534D01*
X164941020Y-126741898D01*
X164908297Y-126750095D01*
X164874928Y-126755045D01*
X164841235Y-126756700D01*
X164807542Y-126755045D01*
X164774173Y-126750095D01*
X164741450Y-126741898D01*
X164709688Y-126730534D01*
X164679192Y-126716110D01*
X164650258Y-126698768D01*
X164623162Y-126678672D01*
X164598167Y-126656018D01*
X164112031Y-126169882D01*
X164089377Y-126144887D01*
X164069281Y-126117791D01*
X164051939Y-126088857D01*
X164037515Y-126058361D01*
X164026151Y-126026599D01*
X164017954Y-125993876D01*
X164013004Y-125960507D01*
X164011349Y-125926814D01*
X164013004Y-125893121D01*
X164017954Y-125859752D01*
X164026151Y-125827029D01*
X164037515Y-125795267D01*
X164051939Y-125764771D01*
X164069281Y-125735837D01*
X164089377Y-125708741D01*
X164112031Y-125683746D01*
X164898687Y-124897090D01*
X164923682Y-124874436D01*
X164950778Y-124854340D01*
X164979712Y-124836998D01*
X165010208Y-124822574D01*
X165041970Y-124811210D01*
X165074693Y-124803013D01*
X165108062Y-124798063D01*
X165141755Y-124796408D01*
X165175448Y-124798063D01*
X165175448Y-124798063D01*
G37*
D14*
X164991495Y-125776554D03*
D12*
G36*
X158955449Y-120208064D02*
G01*
X158988818Y-120213014D01*
X159021541Y-120221211D01*
X159053303Y-120232575D01*
X159083799Y-120246999D01*
X159112733Y-120264341D01*
X159139829Y-120284437D01*
X159164824Y-120307091D01*
X159650960Y-120793227D01*
X159673614Y-120818222D01*
X159693710Y-120845318D01*
X159711052Y-120874252D01*
X159725476Y-120904748D01*
X159736840Y-120936510D01*
X159745037Y-120969233D01*
X159749987Y-121002602D01*
X159751642Y-121036295D01*
X159749987Y-121069988D01*
X159745037Y-121103357D01*
X159736840Y-121136080D01*
X159725476Y-121167842D01*
X159711052Y-121198338D01*
X159693710Y-121227272D01*
X159673614Y-121254368D01*
X159650960Y-121279363D01*
X158864304Y-122066019D01*
X158839309Y-122088673D01*
X158812213Y-122108769D01*
X158783279Y-122126111D01*
X158752783Y-122140535D01*
X158721021Y-122151899D01*
X158688298Y-122160096D01*
X158654929Y-122165046D01*
X158621236Y-122166701D01*
X158587543Y-122165046D01*
X158554174Y-122160096D01*
X158521451Y-122151899D01*
X158489689Y-122140535D01*
X158459193Y-122126111D01*
X158430259Y-122108769D01*
X158403163Y-122088673D01*
X158378168Y-122066019D01*
X157892032Y-121579883D01*
X157869378Y-121554888D01*
X157849282Y-121527792D01*
X157831940Y-121498858D01*
X157817516Y-121468362D01*
X157806152Y-121436600D01*
X157797955Y-121403877D01*
X157793005Y-121370508D01*
X157791350Y-121336815D01*
X157793005Y-121303122D01*
X157797955Y-121269753D01*
X157806152Y-121237030D01*
X157817516Y-121205268D01*
X157831940Y-121174772D01*
X157849282Y-121145838D01*
X157869378Y-121118742D01*
X157892032Y-121093747D01*
X158678688Y-120307091D01*
X158703683Y-120284437D01*
X158730779Y-120264341D01*
X158759713Y-120246999D01*
X158790209Y-120232575D01*
X158821971Y-120221211D01*
X158854694Y-120213014D01*
X158888063Y-120208064D01*
X158921756Y-120206409D01*
X158955449Y-120208064D01*
X158955449Y-120208064D01*
G37*
D14*
X158771496Y-121186555D03*
D12*
G36*
X157629623Y-118882238D02*
G01*
X157662992Y-118887188D01*
X157695715Y-118895385D01*
X157727477Y-118906749D01*
X157757973Y-118921173D01*
X157786907Y-118938515D01*
X157814003Y-118958611D01*
X157838998Y-118981265D01*
X158325134Y-119467401D01*
X158347788Y-119492396D01*
X158367884Y-119519492D01*
X158385226Y-119548426D01*
X158399650Y-119578922D01*
X158411014Y-119610684D01*
X158419211Y-119643407D01*
X158424161Y-119676776D01*
X158425816Y-119710469D01*
X158424161Y-119744162D01*
X158419211Y-119777531D01*
X158411014Y-119810254D01*
X158399650Y-119842016D01*
X158385226Y-119872512D01*
X158367884Y-119901446D01*
X158347788Y-119928542D01*
X158325134Y-119953537D01*
X157538478Y-120740193D01*
X157513483Y-120762847D01*
X157486387Y-120782943D01*
X157457453Y-120800285D01*
X157426957Y-120814709D01*
X157395195Y-120826073D01*
X157362472Y-120834270D01*
X157329103Y-120839220D01*
X157295410Y-120840875D01*
X157261717Y-120839220D01*
X157228348Y-120834270D01*
X157195625Y-120826073D01*
X157163863Y-120814709D01*
X157133367Y-120800285D01*
X157104433Y-120782943D01*
X157077337Y-120762847D01*
X157052342Y-120740193D01*
X156566206Y-120254057D01*
X156543552Y-120229062D01*
X156523456Y-120201966D01*
X156506114Y-120173032D01*
X156491690Y-120142536D01*
X156480326Y-120110774D01*
X156472129Y-120078051D01*
X156467179Y-120044682D01*
X156465524Y-120010989D01*
X156467179Y-119977296D01*
X156472129Y-119943927D01*
X156480326Y-119911204D01*
X156491690Y-119879442D01*
X156506114Y-119848946D01*
X156523456Y-119820012D01*
X156543552Y-119792916D01*
X156566206Y-119767921D01*
X157352862Y-118981265D01*
X157377857Y-118958611D01*
X157404953Y-118938515D01*
X157433887Y-118921173D01*
X157464383Y-118906749D01*
X157496145Y-118895385D01*
X157528868Y-118887188D01*
X157562237Y-118882238D01*
X157595930Y-118880583D01*
X157629623Y-118882238D01*
X157629623Y-118882238D01*
G37*
D14*
X157445670Y-119860729D03*
D12*
G36*
X155449622Y-120972237D02*
G01*
X155482991Y-120977187D01*
X155515714Y-120985384D01*
X155547476Y-120996748D01*
X155577972Y-121011172D01*
X155606906Y-121028514D01*
X155634002Y-121048610D01*
X155658997Y-121071264D01*
X156145133Y-121557400D01*
X156167787Y-121582395D01*
X156187883Y-121609491D01*
X156205225Y-121638425D01*
X156219649Y-121668921D01*
X156231013Y-121700683D01*
X156239210Y-121733406D01*
X156244160Y-121766775D01*
X156245815Y-121800468D01*
X156244160Y-121834161D01*
X156239210Y-121867530D01*
X156231013Y-121900253D01*
X156219649Y-121932015D01*
X156205225Y-121962511D01*
X156187883Y-121991445D01*
X156167787Y-122018541D01*
X156145133Y-122043536D01*
X155358477Y-122830192D01*
X155333482Y-122852846D01*
X155306386Y-122872942D01*
X155277452Y-122890284D01*
X155246956Y-122904708D01*
X155215194Y-122916072D01*
X155182471Y-122924269D01*
X155149102Y-122929219D01*
X155115409Y-122930874D01*
X155081716Y-122929219D01*
X155048347Y-122924269D01*
X155015624Y-122916072D01*
X154983862Y-122904708D01*
X154953366Y-122890284D01*
X154924432Y-122872942D01*
X154897336Y-122852846D01*
X154872341Y-122830192D01*
X154386205Y-122344056D01*
X154363551Y-122319061D01*
X154343455Y-122291965D01*
X154326113Y-122263031D01*
X154311689Y-122232535D01*
X154300325Y-122200773D01*
X154292128Y-122168050D01*
X154287178Y-122134681D01*
X154285523Y-122100988D01*
X154287178Y-122067295D01*
X154292128Y-122033926D01*
X154300325Y-122001203D01*
X154311689Y-121969441D01*
X154326113Y-121938945D01*
X154343455Y-121910011D01*
X154363551Y-121882915D01*
X154386205Y-121857920D01*
X155172861Y-121071264D01*
X155197856Y-121048610D01*
X155224952Y-121028514D01*
X155253886Y-121011172D01*
X155284382Y-120996748D01*
X155316144Y-120985384D01*
X155348867Y-120977187D01*
X155382236Y-120972237D01*
X155415929Y-120970582D01*
X155449622Y-120972237D01*
X155449622Y-120972237D01*
G37*
D14*
X155265669Y-121950728D03*
D12*
G36*
X156775448Y-122298063D02*
G01*
X156808817Y-122303013D01*
X156841540Y-122311210D01*
X156873302Y-122322574D01*
X156903798Y-122336998D01*
X156932732Y-122354340D01*
X156959828Y-122374436D01*
X156984823Y-122397090D01*
X157470959Y-122883226D01*
X157493613Y-122908221D01*
X157513709Y-122935317D01*
X157531051Y-122964251D01*
X157545475Y-122994747D01*
X157556839Y-123026509D01*
X157565036Y-123059232D01*
X157569986Y-123092601D01*
X157571641Y-123126294D01*
X157569986Y-123159987D01*
X157565036Y-123193356D01*
X157556839Y-123226079D01*
X157545475Y-123257841D01*
X157531051Y-123288337D01*
X157513709Y-123317271D01*
X157493613Y-123344367D01*
X157470959Y-123369362D01*
X156684303Y-124156018D01*
X156659308Y-124178672D01*
X156632212Y-124198768D01*
X156603278Y-124216110D01*
X156572782Y-124230534D01*
X156541020Y-124241898D01*
X156508297Y-124250095D01*
X156474928Y-124255045D01*
X156441235Y-124256700D01*
X156407542Y-124255045D01*
X156374173Y-124250095D01*
X156341450Y-124241898D01*
X156309688Y-124230534D01*
X156279192Y-124216110D01*
X156250258Y-124198768D01*
X156223162Y-124178672D01*
X156198167Y-124156018D01*
X155712031Y-123669882D01*
X155689377Y-123644887D01*
X155669281Y-123617791D01*
X155651939Y-123588857D01*
X155637515Y-123558361D01*
X155626151Y-123526599D01*
X155617954Y-123493876D01*
X155613004Y-123460507D01*
X155611349Y-123426814D01*
X155613004Y-123393121D01*
X155617954Y-123359752D01*
X155626151Y-123327029D01*
X155637515Y-123295267D01*
X155651939Y-123264771D01*
X155669281Y-123235837D01*
X155689377Y-123208741D01*
X155712031Y-123183746D01*
X156498687Y-122397090D01*
X156523682Y-122374436D01*
X156550778Y-122354340D01*
X156579712Y-122336998D01*
X156610208Y-122322574D01*
X156641970Y-122311210D01*
X156674693Y-122303013D01*
X156708062Y-122298063D01*
X156741755Y-122296408D01*
X156775448Y-122298063D01*
X156775448Y-122298063D01*
G37*
D14*
X156591495Y-123276554D03*
D12*
G36*
X161368361Y-117810977D02*
G01*
X161401730Y-117815927D01*
X161434453Y-117824124D01*
X161466215Y-117835488D01*
X161496711Y-117849912D01*
X161525645Y-117867254D01*
X161552741Y-117887350D01*
X161577736Y-117910004D01*
X162063872Y-118396140D01*
X162086526Y-118421135D01*
X162106622Y-118448231D01*
X162123964Y-118477165D01*
X162138388Y-118507661D01*
X162149752Y-118539423D01*
X162157949Y-118572146D01*
X162162899Y-118605515D01*
X162164554Y-118639208D01*
X162162899Y-118672901D01*
X162157949Y-118706270D01*
X162149752Y-118738993D01*
X162138388Y-118770755D01*
X162123964Y-118801251D01*
X162106622Y-118830185D01*
X162086526Y-118857281D01*
X162063872Y-118882276D01*
X161277216Y-119668932D01*
X161252221Y-119691586D01*
X161225125Y-119711682D01*
X161196191Y-119729024D01*
X161165695Y-119743448D01*
X161133933Y-119754812D01*
X161101210Y-119763009D01*
X161067841Y-119767959D01*
X161034148Y-119769614D01*
X161000455Y-119767959D01*
X160967086Y-119763009D01*
X160934363Y-119754812D01*
X160902601Y-119743448D01*
X160872105Y-119729024D01*
X160843171Y-119711682D01*
X160816075Y-119691586D01*
X160791080Y-119668932D01*
X160304944Y-119182796D01*
X160282290Y-119157801D01*
X160262194Y-119130705D01*
X160244852Y-119101771D01*
X160230428Y-119071275D01*
X160219064Y-119039513D01*
X160210867Y-119006790D01*
X160205917Y-118973421D01*
X160204262Y-118939728D01*
X160205917Y-118906035D01*
X160210867Y-118872666D01*
X160219064Y-118839943D01*
X160230428Y-118808181D01*
X160244852Y-118777685D01*
X160262194Y-118748751D01*
X160282290Y-118721655D01*
X160304944Y-118696660D01*
X161091600Y-117910004D01*
X161116595Y-117887350D01*
X161143691Y-117867254D01*
X161172625Y-117849912D01*
X161203121Y-117835488D01*
X161234883Y-117824124D01*
X161267606Y-117815927D01*
X161300975Y-117810977D01*
X161334668Y-117809322D01*
X161368361Y-117810977D01*
X161368361Y-117810977D01*
G37*
D14*
X161184408Y-118789468D03*
D12*
G36*
X160042535Y-116485151D02*
G01*
X160075904Y-116490101D01*
X160108627Y-116498298D01*
X160140389Y-116509662D01*
X160170885Y-116524086D01*
X160199819Y-116541428D01*
X160226915Y-116561524D01*
X160251910Y-116584178D01*
X160738046Y-117070314D01*
X160760700Y-117095309D01*
X160780796Y-117122405D01*
X160798138Y-117151339D01*
X160812562Y-117181835D01*
X160823926Y-117213597D01*
X160832123Y-117246320D01*
X160837073Y-117279689D01*
X160838728Y-117313382D01*
X160837073Y-117347075D01*
X160832123Y-117380444D01*
X160823926Y-117413167D01*
X160812562Y-117444929D01*
X160798138Y-117475425D01*
X160780796Y-117504359D01*
X160760700Y-117531455D01*
X160738046Y-117556450D01*
X159951390Y-118343106D01*
X159926395Y-118365760D01*
X159899299Y-118385856D01*
X159870365Y-118403198D01*
X159839869Y-118417622D01*
X159808107Y-118428986D01*
X159775384Y-118437183D01*
X159742015Y-118442133D01*
X159708322Y-118443788D01*
X159674629Y-118442133D01*
X159641260Y-118437183D01*
X159608537Y-118428986D01*
X159576775Y-118417622D01*
X159546279Y-118403198D01*
X159517345Y-118385856D01*
X159490249Y-118365760D01*
X159465254Y-118343106D01*
X158979118Y-117856970D01*
X158956464Y-117831975D01*
X158936368Y-117804879D01*
X158919026Y-117775945D01*
X158904602Y-117745449D01*
X158893238Y-117713687D01*
X158885041Y-117680964D01*
X158880091Y-117647595D01*
X158878436Y-117613902D01*
X158880091Y-117580209D01*
X158885041Y-117546840D01*
X158893238Y-117514117D01*
X158904602Y-117482355D01*
X158919026Y-117451859D01*
X158936368Y-117422925D01*
X158956464Y-117395829D01*
X158979118Y-117370834D01*
X159765774Y-116584178D01*
X159790769Y-116561524D01*
X159817865Y-116541428D01*
X159846799Y-116524086D01*
X159877295Y-116509662D01*
X159909057Y-116498298D01*
X159941780Y-116490101D01*
X159975149Y-116485151D01*
X160008842Y-116483496D01*
X160042535Y-116485151D01*
X160042535Y-116485151D01*
G37*
D14*
X159858582Y-117463642D03*
D15*
X169761495Y-134496555D03*
D16*
X169761495Y-134496555D02*
X169761495Y-134496555D01*
D15*
X167965444Y-132700503D03*
D16*
X167965444Y-132700503D02*
X167965444Y-132700503D01*
D15*
X171557546Y-132700503D03*
D16*
X171557546Y-132700503D02*
X171557546Y-132700503D01*
D15*
X169761495Y-130904452D03*
D16*
X169761495Y-130904452D02*
X169761495Y-130904452D01*
D15*
X173353597Y-130904452D03*
D16*
X173353597Y-130904452D02*
X173353597Y-130904452D01*
D15*
X171557546Y-129108401D03*
D12*
G36*
X170072622Y-129108401D02*
G01*
X171557546Y-127623477D01*
X173042470Y-129108401D01*
X171557546Y-130593325D01*
X170072622Y-129108401D01*
X170072622Y-129108401D01*
G37*
D15*
X148771495Y-106416554D03*
D12*
G36*
X147286571Y-106416554D02*
G01*
X148771495Y-104931630D01*
X150256419Y-106416554D01*
X148771495Y-107901478D01*
X147286571Y-106416554D01*
X147286571Y-106416554D01*
G37*
D15*
X150567546Y-108212605D03*
D16*
X150567546Y-108212605D02*
X150567546Y-108212605D01*
D15*
X146975444Y-108212605D03*
D16*
X146975444Y-108212605D02*
X146975444Y-108212605D01*
D15*
X148771495Y-110008656D03*
D16*
X148771495Y-110008656D02*
X148771495Y-110008656D01*
D15*
X145179393Y-110008656D03*
D16*
X145179393Y-110008656D02*
X145179393Y-110008656D01*
D15*
X146975444Y-111804708D03*
D16*
X146975444Y-111804708D02*
X146975444Y-111804708D01*
D15*
X127261496Y-84756555D03*
D12*
G36*
X125776572Y-84756555D02*
G01*
X127261496Y-83271631D01*
X128746420Y-84756555D01*
X127261496Y-86241479D01*
X125776572Y-84756555D01*
X125776572Y-84756555D01*
G37*
D15*
X129057547Y-86552606D03*
D16*
X129057547Y-86552606D02*
X129057547Y-86552606D01*
D15*
X125465445Y-86552606D03*
D16*
X125465445Y-86552606D02*
X125465445Y-86552606D01*
D15*
X127261496Y-88348657D03*
D16*
X127261496Y-88348657D02*
X127261496Y-88348657D01*
D15*
X123669394Y-88348657D03*
D16*
X123669394Y-88348657D02*
X123669394Y-88348657D01*
D15*
X125465445Y-90144709D03*
D16*
X125465445Y-90144709D02*
X125465445Y-90144709D01*
D15*
X93695444Y-58552607D03*
D16*
X93695444Y-58552607D02*
X93695444Y-58552607D01*
D15*
X91899393Y-56756555D03*
D16*
X91899393Y-56756555D02*
X91899393Y-56756555D01*
D15*
X95491495Y-56756555D03*
D16*
X95491495Y-56756555D02*
X95491495Y-56756555D01*
D15*
X93695444Y-54960504D03*
D16*
X93695444Y-54960504D02*
X93695444Y-54960504D01*
D15*
X97287546Y-54960504D03*
D16*
X97287546Y-54960504D02*
X97287546Y-54960504D01*
D15*
X95491495Y-53164453D03*
D12*
G36*
X94006571Y-53164453D02*
G01*
X95491495Y-51679529D01*
X96976419Y-53164453D01*
X95491495Y-54649377D01*
X94006571Y-53164453D01*
X94006571Y-53164453D01*
G37*
D17*
X158056571Y-128226352D03*
D12*
G36*
X159081876Y-128261707D02*
G01*
X158091926Y-129251657D01*
X157031266Y-128190997D01*
X158021216Y-127201047D01*
X159081876Y-128261707D01*
X159081876Y-128261707D01*
G37*
D17*
X160177891Y-130347672D03*
D12*
G36*
X161203196Y-130383027D02*
G01*
X160213246Y-131372977D01*
X159152586Y-130312317D01*
X160142536Y-129322367D01*
X161203196Y-130383027D01*
X161203196Y-130383027D01*
G37*
D18*
X157070157Y-125571166D03*
D12*
G36*
X158360627Y-125518133D02*
G01*
X157017124Y-126861636D01*
X155779687Y-125624199D01*
X157123190Y-124280696D01*
X158360627Y-125518133D01*
X158360627Y-125518133D01*
G37*
D18*
X162833077Y-131334086D03*
D12*
G36*
X164123547Y-131281053D02*
G01*
X162780044Y-132624556D01*
X161542607Y-131387119D01*
X162886110Y-130043616D01*
X164123547Y-131281053D01*
X164123547Y-131281053D01*
G37*
D19*
X160107180Y-125468636D03*
X162935607Y-128297063D03*
D20*
X161061774Y-125503991D03*
D12*
G36*
X162122434Y-125009016D02*
G01*
X160566799Y-126564651D01*
X160001114Y-125998966D01*
X161556749Y-124443331D01*
X162122434Y-125009016D01*
X162122434Y-125009016D01*
G37*
D20*
X162900252Y-127342469D03*
D12*
G36*
X163960912Y-126847494D02*
G01*
X162405277Y-128403129D01*
X161839592Y-127837444D01*
X163395227Y-126281809D01*
X163960912Y-126847494D01*
X163960912Y-126847494D01*
G37*
D20*
X161521394Y-125963610D03*
D12*
G36*
X162582054Y-125468635D02*
G01*
X161026419Y-127024270D01*
X160460734Y-126458585D01*
X162016369Y-124902950D01*
X162582054Y-125468635D01*
X162582054Y-125468635D01*
G37*
D20*
X162440633Y-126882849D03*
D12*
G36*
X163501293Y-126387874D02*
G01*
X161945658Y-127943509D01*
X161379973Y-127377824D01*
X162935608Y-125822189D01*
X163501293Y-126387874D01*
X163501293Y-126387874D01*
G37*
D20*
X161981013Y-126423230D03*
D12*
G36*
X163041673Y-125928255D02*
G01*
X161486038Y-127483890D01*
X160920353Y-126918205D01*
X162475988Y-125362570D01*
X163041673Y-125928255D01*
X163041673Y-125928255D01*
G37*
D21*
X159541495Y-124266554D03*
D12*
G36*
X160849643Y-124301909D02*
G01*
X159576850Y-125574702D01*
X158233347Y-124231199D01*
X159506140Y-122958406D01*
X160849643Y-124301909D01*
X160849643Y-124301909D01*
G37*
D21*
X164137689Y-128862748D03*
D12*
G36*
X165445837Y-128898103D02*
G01*
X164173044Y-130170896D01*
X162829541Y-128827393D01*
X164102334Y-127554600D01*
X165445837Y-128898103D01*
X165445837Y-128898103D01*
G37*
G36*
X170880754Y-124202237D02*
G01*
X170914123Y-124207187D01*
X170946846Y-124215384D01*
X170978608Y-124226748D01*
X171009104Y-124241172D01*
X171038038Y-124258514D01*
X171065134Y-124278610D01*
X171090129Y-124301264D01*
X171876785Y-125087920D01*
X171899439Y-125112915D01*
X171919535Y-125140011D01*
X171936877Y-125168945D01*
X171951301Y-125199441D01*
X171962665Y-125231203D01*
X171970862Y-125263926D01*
X171975812Y-125297295D01*
X171977467Y-125330988D01*
X171975812Y-125364681D01*
X171970862Y-125398050D01*
X171962665Y-125430773D01*
X171951301Y-125462535D01*
X171936877Y-125493031D01*
X171919535Y-125521965D01*
X171899439Y-125549061D01*
X171876785Y-125574056D01*
X171390649Y-126060192D01*
X171365654Y-126082846D01*
X171338558Y-126102942D01*
X171309624Y-126120284D01*
X171279128Y-126134708D01*
X171247366Y-126146072D01*
X171214643Y-126154269D01*
X171181274Y-126159219D01*
X171147581Y-126160874D01*
X171113888Y-126159219D01*
X171080519Y-126154269D01*
X171047796Y-126146072D01*
X171016034Y-126134708D01*
X170985538Y-126120284D01*
X170956604Y-126102942D01*
X170929508Y-126082846D01*
X170904513Y-126060192D01*
X170117857Y-125273536D01*
X170095203Y-125248541D01*
X170075107Y-125221445D01*
X170057765Y-125192511D01*
X170043341Y-125162015D01*
X170031977Y-125130253D01*
X170023780Y-125097530D01*
X170018830Y-125064161D01*
X170017175Y-125030468D01*
X170018830Y-124996775D01*
X170023780Y-124963406D01*
X170031977Y-124930683D01*
X170043341Y-124898921D01*
X170057765Y-124868425D01*
X170075107Y-124839491D01*
X170095203Y-124812395D01*
X170117857Y-124787400D01*
X170603993Y-124301264D01*
X170628988Y-124278610D01*
X170656084Y-124258514D01*
X170685018Y-124241172D01*
X170715514Y-124226748D01*
X170747276Y-124215384D01*
X170779999Y-124207187D01*
X170813368Y-124202237D01*
X170847061Y-124200582D01*
X170880754Y-124202237D01*
X170880754Y-124202237D01*
G37*
D14*
X170997321Y-125180728D03*
D12*
G36*
X169554928Y-125528063D02*
G01*
X169588297Y-125533013D01*
X169621020Y-125541210D01*
X169652782Y-125552574D01*
X169683278Y-125566998D01*
X169712212Y-125584340D01*
X169739308Y-125604436D01*
X169764303Y-125627090D01*
X170550959Y-126413746D01*
X170573613Y-126438741D01*
X170593709Y-126465837D01*
X170611051Y-126494771D01*
X170625475Y-126525267D01*
X170636839Y-126557029D01*
X170645036Y-126589752D01*
X170649986Y-126623121D01*
X170651641Y-126656814D01*
X170649986Y-126690507D01*
X170645036Y-126723876D01*
X170636839Y-126756599D01*
X170625475Y-126788361D01*
X170611051Y-126818857D01*
X170593709Y-126847791D01*
X170573613Y-126874887D01*
X170550959Y-126899882D01*
X170064823Y-127386018D01*
X170039828Y-127408672D01*
X170012732Y-127428768D01*
X169983798Y-127446110D01*
X169953302Y-127460534D01*
X169921540Y-127471898D01*
X169888817Y-127480095D01*
X169855448Y-127485045D01*
X169821755Y-127486700D01*
X169788062Y-127485045D01*
X169754693Y-127480095D01*
X169721970Y-127471898D01*
X169690208Y-127460534D01*
X169659712Y-127446110D01*
X169630778Y-127428768D01*
X169603682Y-127408672D01*
X169578687Y-127386018D01*
X168792031Y-126599362D01*
X168769377Y-126574367D01*
X168749281Y-126547271D01*
X168731939Y-126518337D01*
X168717515Y-126487841D01*
X168706151Y-126456079D01*
X168697954Y-126423356D01*
X168693004Y-126389987D01*
X168691349Y-126356294D01*
X168693004Y-126322601D01*
X168697954Y-126289232D01*
X168706151Y-126256509D01*
X168717515Y-126224747D01*
X168731939Y-126194251D01*
X168749281Y-126165317D01*
X168769377Y-126138221D01*
X168792031Y-126113226D01*
X169278167Y-125627090D01*
X169303162Y-125604436D01*
X169330258Y-125584340D01*
X169359192Y-125566998D01*
X169389688Y-125552574D01*
X169421450Y-125541210D01*
X169454173Y-125533013D01*
X169487542Y-125528063D01*
X169521235Y-125526408D01*
X169554928Y-125528063D01*
X169554928Y-125528063D01*
G37*
D14*
X169671495Y-126506554D03*
D12*
G36*
X163005449Y-122638064D02*
G01*
X163038818Y-122643014D01*
X163071541Y-122651211D01*
X163103303Y-122662575D01*
X163133799Y-122676999D01*
X163162733Y-122694341D01*
X163189829Y-122714437D01*
X163214824Y-122737091D01*
X163700960Y-123223227D01*
X163723614Y-123248222D01*
X163743710Y-123275318D01*
X163761052Y-123304252D01*
X163775476Y-123334748D01*
X163786840Y-123366510D01*
X163795037Y-123399233D01*
X163799987Y-123432602D01*
X163801642Y-123466295D01*
X163799987Y-123499988D01*
X163795037Y-123533357D01*
X163786840Y-123566080D01*
X163775476Y-123597842D01*
X163761052Y-123628338D01*
X163743710Y-123657272D01*
X163723614Y-123684368D01*
X163700960Y-123709363D01*
X162914304Y-124496019D01*
X162889309Y-124518673D01*
X162862213Y-124538769D01*
X162833279Y-124556111D01*
X162802783Y-124570535D01*
X162771021Y-124581899D01*
X162738298Y-124590096D01*
X162704929Y-124595046D01*
X162671236Y-124596701D01*
X162637543Y-124595046D01*
X162604174Y-124590096D01*
X162571451Y-124581899D01*
X162539689Y-124570535D01*
X162509193Y-124556111D01*
X162480259Y-124538769D01*
X162453163Y-124518673D01*
X162428168Y-124496019D01*
X161942032Y-124009883D01*
X161919378Y-123984888D01*
X161899282Y-123957792D01*
X161881940Y-123928858D01*
X161867516Y-123898362D01*
X161856152Y-123866600D01*
X161847955Y-123833877D01*
X161843005Y-123800508D01*
X161841350Y-123766815D01*
X161843005Y-123733122D01*
X161847955Y-123699753D01*
X161856152Y-123667030D01*
X161867516Y-123635268D01*
X161881940Y-123604772D01*
X161899282Y-123575838D01*
X161919378Y-123548742D01*
X161942032Y-123523747D01*
X162728688Y-122737091D01*
X162753683Y-122714437D01*
X162780779Y-122694341D01*
X162809713Y-122676999D01*
X162840209Y-122662575D01*
X162871971Y-122651211D01*
X162904694Y-122643014D01*
X162938063Y-122638064D01*
X162971756Y-122636409D01*
X163005449Y-122638064D01*
X163005449Y-122638064D01*
G37*
D14*
X162821496Y-123616555D03*
D12*
G36*
X161679623Y-121312238D02*
G01*
X161712992Y-121317188D01*
X161745715Y-121325385D01*
X161777477Y-121336749D01*
X161807973Y-121351173D01*
X161836907Y-121368515D01*
X161864003Y-121388611D01*
X161888998Y-121411265D01*
X162375134Y-121897401D01*
X162397788Y-121922396D01*
X162417884Y-121949492D01*
X162435226Y-121978426D01*
X162449650Y-122008922D01*
X162461014Y-122040684D01*
X162469211Y-122073407D01*
X162474161Y-122106776D01*
X162475816Y-122140469D01*
X162474161Y-122174162D01*
X162469211Y-122207531D01*
X162461014Y-122240254D01*
X162449650Y-122272016D01*
X162435226Y-122302512D01*
X162417884Y-122331446D01*
X162397788Y-122358542D01*
X162375134Y-122383537D01*
X161588478Y-123170193D01*
X161563483Y-123192847D01*
X161536387Y-123212943D01*
X161507453Y-123230285D01*
X161476957Y-123244709D01*
X161445195Y-123256073D01*
X161412472Y-123264270D01*
X161379103Y-123269220D01*
X161345410Y-123270875D01*
X161311717Y-123269220D01*
X161278348Y-123264270D01*
X161245625Y-123256073D01*
X161213863Y-123244709D01*
X161183367Y-123230285D01*
X161154433Y-123212943D01*
X161127337Y-123192847D01*
X161102342Y-123170193D01*
X160616206Y-122684057D01*
X160593552Y-122659062D01*
X160573456Y-122631966D01*
X160556114Y-122603032D01*
X160541690Y-122572536D01*
X160530326Y-122540774D01*
X160522129Y-122508051D01*
X160517179Y-122474682D01*
X160515524Y-122440989D01*
X160517179Y-122407296D01*
X160522129Y-122373927D01*
X160530326Y-122341204D01*
X160541690Y-122309442D01*
X160556114Y-122278946D01*
X160573456Y-122250012D01*
X160593552Y-122222916D01*
X160616206Y-122197921D01*
X161402862Y-121411265D01*
X161427857Y-121388611D01*
X161454953Y-121368515D01*
X161483887Y-121351173D01*
X161514383Y-121336749D01*
X161546145Y-121325385D01*
X161578868Y-121317188D01*
X161612237Y-121312238D01*
X161645930Y-121310583D01*
X161679623Y-121312238D01*
X161679623Y-121312238D01*
G37*
D14*
X161495670Y-122290729D03*
D22*
X127351316Y-98402722D03*
D12*
G36*
X126467433Y-98438077D02*
G01*
X127386671Y-97518839D01*
X128235199Y-98367367D01*
X127315961Y-99286605D01*
X126467433Y-98438077D01*
X126467433Y-98438077D01*
G37*
D22*
X132725328Y-103776734D03*
D12*
G36*
X131841445Y-103812089D02*
G01*
X132760683Y-102892851D01*
X133609211Y-103741379D01*
X132689973Y-104660617D01*
X131841445Y-103812089D01*
X131841445Y-103812089D01*
G37*
D22*
X134358745Y-102157459D03*
D12*
G36*
X133474862Y-102192814D02*
G01*
X134394100Y-101273576D01*
X135242628Y-102122104D01*
X134323390Y-103041342D01*
X133474862Y-102192814D01*
X133474862Y-102192814D01*
G37*
D22*
X128977662Y-96776376D03*
D12*
G36*
X128093779Y-96811731D02*
G01*
X129013017Y-95892493D01*
X129861545Y-96741021D01*
X128942307Y-97660259D01*
X128093779Y-96811731D01*
X128093779Y-96811731D01*
G37*
D23*
X130763107Y-97182963D03*
D12*
G36*
X129720124Y-97306707D02*
G01*
X130886851Y-96139980D01*
X131806090Y-97059219D01*
X130639363Y-98225946D01*
X129720124Y-97306707D01*
X129720124Y-97306707D01*
G37*
D23*
X131823767Y-98243623D03*
D12*
G36*
X130780784Y-98367367D02*
G01*
X131947511Y-97200640D01*
X132866750Y-98119879D01*
X131700023Y-99286606D01*
X130780784Y-98367367D01*
X130780784Y-98367367D01*
G37*
D23*
X133945087Y-100364943D03*
D12*
G36*
X132902104Y-100488687D02*
G01*
X134068831Y-99321960D01*
X134988070Y-100241199D01*
X133821343Y-101407926D01*
X132902104Y-100488687D01*
X132902104Y-100488687D01*
G37*
D23*
X131912155Y-101337215D03*
X129790835Y-99215895D03*
D12*
G36*
X166514019Y-119177777D02*
G01*
X166542315Y-119181974D01*
X166570064Y-119188925D01*
X166596997Y-119198562D01*
X166622856Y-119210792D01*
X166647392Y-119225498D01*
X166670369Y-119242539D01*
X166691564Y-119261749D01*
X168266302Y-120836487D01*
X168285512Y-120857682D01*
X168302553Y-120880659D01*
X168317259Y-120905195D01*
X168329489Y-120931054D01*
X168339126Y-120957987D01*
X168346077Y-120985736D01*
X168350274Y-121014032D01*
X168351678Y-121042603D01*
X168350274Y-121071174D01*
X168346077Y-121099470D01*
X168339126Y-121127219D01*
X168329489Y-121154152D01*
X168317259Y-121180011D01*
X168302553Y-121204547D01*
X168285512Y-121227524D01*
X168266302Y-121248719D01*
X166203660Y-123311361D01*
X166182465Y-123330571D01*
X166159488Y-123347612D01*
X166134952Y-123362318D01*
X166109093Y-123374548D01*
X166082160Y-123384185D01*
X166054411Y-123391136D01*
X166026115Y-123395333D01*
X165997544Y-123396737D01*
X165968973Y-123395333D01*
X165940677Y-123391136D01*
X165912928Y-123384185D01*
X165885995Y-123374548D01*
X165860136Y-123362318D01*
X165835600Y-123347612D01*
X165812623Y-123330571D01*
X165791428Y-123311361D01*
X164216690Y-121736623D01*
X164197480Y-121715428D01*
X164180439Y-121692451D01*
X164165733Y-121667915D01*
X164153503Y-121642056D01*
X164143866Y-121615123D01*
X164136915Y-121587374D01*
X164132718Y-121559078D01*
X164131314Y-121530507D01*
X164132718Y-121501936D01*
X164136915Y-121473640D01*
X164143866Y-121445891D01*
X164153503Y-121418958D01*
X164165733Y-121393099D01*
X164180439Y-121368563D01*
X164197480Y-121345586D01*
X164216690Y-121324391D01*
X166279332Y-119261749D01*
X166300527Y-119242539D01*
X166323504Y-119225498D01*
X166348040Y-119210792D01*
X166373899Y-119198562D01*
X166400832Y-119188925D01*
X166428581Y-119181974D01*
X166456877Y-119177777D01*
X166485448Y-119176373D01*
X166514019Y-119177777D01*
X166514019Y-119177777D01*
G37*
D24*
X166241496Y-121286555D03*
D12*
G36*
X169133318Y-120857447D02*
G01*
X169157587Y-120861047D01*
X169181385Y-120867008D01*
X169204485Y-120875273D01*
X169226663Y-120885763D01*
X169247707Y-120898376D01*
X169267412Y-120912990D01*
X169285591Y-120929466D01*
X170346251Y-121990126D01*
X170362727Y-122008305D01*
X170377341Y-122028010D01*
X170389954Y-122049054D01*
X170400444Y-122071232D01*
X170408709Y-122094332D01*
X170414670Y-122118130D01*
X170418270Y-122142399D01*
X170419474Y-122166903D01*
X170418270Y-122191407D01*
X170414670Y-122215676D01*
X170408709Y-122239474D01*
X170400444Y-122262574D01*
X170389954Y-122284752D01*
X170377341Y-122305796D01*
X170362727Y-122325501D01*
X170346251Y-122343680D01*
X169992697Y-122697234D01*
X169974518Y-122713710D01*
X169954813Y-122728324D01*
X169933769Y-122740937D01*
X169911591Y-122751427D01*
X169888491Y-122759692D01*
X169864693Y-122765653D01*
X169840424Y-122769253D01*
X169815920Y-122770457D01*
X169791416Y-122769253D01*
X169767147Y-122765653D01*
X169743349Y-122759692D01*
X169720249Y-122751427D01*
X169698071Y-122740937D01*
X169677027Y-122728324D01*
X169657322Y-122713710D01*
X169639143Y-122697234D01*
X168578483Y-121636574D01*
X168562007Y-121618395D01*
X168547393Y-121598690D01*
X168534780Y-121577646D01*
X168524290Y-121555468D01*
X168516025Y-121532368D01*
X168510064Y-121508570D01*
X168506464Y-121484301D01*
X168505260Y-121459797D01*
X168506464Y-121435293D01*
X168510064Y-121411024D01*
X168516025Y-121387226D01*
X168524290Y-121364126D01*
X168534780Y-121341948D01*
X168547393Y-121320904D01*
X168562007Y-121301199D01*
X168578483Y-121283020D01*
X168932037Y-120929466D01*
X168950216Y-120912990D01*
X168969921Y-120898376D01*
X168990965Y-120885763D01*
X169013143Y-120875273D01*
X169036243Y-120867008D01*
X169060041Y-120861047D01*
X169084310Y-120857447D01*
X169108814Y-120856243D01*
X169133318Y-120857447D01*
X169133318Y-120857447D01*
G37*
D25*
X169462367Y-121813350D03*
D12*
G36*
X168235293Y-121755472D02*
G01*
X168259562Y-121759072D01*
X168283360Y-121765033D01*
X168306460Y-121773298D01*
X168328638Y-121783788D01*
X168349682Y-121796401D01*
X168369387Y-121811015D01*
X168387566Y-121827491D01*
X169448226Y-122888151D01*
X169464702Y-122906330D01*
X169479316Y-122926035D01*
X169491929Y-122947079D01*
X169502419Y-122969257D01*
X169510684Y-122992357D01*
X169516645Y-123016155D01*
X169520245Y-123040424D01*
X169521449Y-123064928D01*
X169520245Y-123089432D01*
X169516645Y-123113701D01*
X169510684Y-123137499D01*
X169502419Y-123160599D01*
X169491929Y-123182777D01*
X169479316Y-123203821D01*
X169464702Y-123223526D01*
X169448226Y-123241705D01*
X169094672Y-123595259D01*
X169076493Y-123611735D01*
X169056788Y-123626349D01*
X169035744Y-123638962D01*
X169013566Y-123649452D01*
X168990466Y-123657717D01*
X168966668Y-123663678D01*
X168942399Y-123667278D01*
X168917895Y-123668482D01*
X168893391Y-123667278D01*
X168869122Y-123663678D01*
X168845324Y-123657717D01*
X168822224Y-123649452D01*
X168800046Y-123638962D01*
X168779002Y-123626349D01*
X168759297Y-123611735D01*
X168741118Y-123595259D01*
X167680458Y-122534599D01*
X167663982Y-122516420D01*
X167649368Y-122496715D01*
X167636755Y-122475671D01*
X167626265Y-122453493D01*
X167618000Y-122430393D01*
X167612039Y-122406595D01*
X167608439Y-122382326D01*
X167607235Y-122357822D01*
X167608439Y-122333318D01*
X167612039Y-122309049D01*
X167618000Y-122285251D01*
X167626265Y-122262151D01*
X167636755Y-122239973D01*
X167649368Y-122218929D01*
X167663982Y-122199224D01*
X167680458Y-122181045D01*
X168034012Y-121827491D01*
X168052191Y-121811015D01*
X168071896Y-121796401D01*
X168092940Y-121783788D01*
X168115118Y-121773298D01*
X168138218Y-121765033D01*
X168162016Y-121759072D01*
X168186285Y-121755472D01*
X168210789Y-121754268D01*
X168235293Y-121755472D01*
X168235293Y-121755472D01*
G37*
D25*
X168564342Y-122711375D03*
D12*
G36*
X167337267Y-122653498D02*
G01*
X167361536Y-122657098D01*
X167385334Y-122663059D01*
X167408434Y-122671324D01*
X167430612Y-122681814D01*
X167451656Y-122694427D01*
X167471361Y-122709041D01*
X167489540Y-122725517D01*
X168550200Y-123786177D01*
X168566676Y-123804356D01*
X168581290Y-123824061D01*
X168593903Y-123845105D01*
X168604393Y-123867283D01*
X168612658Y-123890383D01*
X168618619Y-123914181D01*
X168622219Y-123938450D01*
X168623423Y-123962954D01*
X168622219Y-123987458D01*
X168618619Y-124011727D01*
X168612658Y-124035525D01*
X168604393Y-124058625D01*
X168593903Y-124080803D01*
X168581290Y-124101847D01*
X168566676Y-124121552D01*
X168550200Y-124139731D01*
X168196646Y-124493285D01*
X168178467Y-124509761D01*
X168158762Y-124524375D01*
X168137718Y-124536988D01*
X168115540Y-124547478D01*
X168092440Y-124555743D01*
X168068642Y-124561704D01*
X168044373Y-124565304D01*
X168019869Y-124566508D01*
X167995365Y-124565304D01*
X167971096Y-124561704D01*
X167947298Y-124555743D01*
X167924198Y-124547478D01*
X167902020Y-124536988D01*
X167880976Y-124524375D01*
X167861271Y-124509761D01*
X167843092Y-124493285D01*
X166782432Y-123432625D01*
X166765956Y-123414446D01*
X166751342Y-123394741D01*
X166738729Y-123373697D01*
X166728239Y-123351519D01*
X166719974Y-123328419D01*
X166714013Y-123304621D01*
X166710413Y-123280352D01*
X166709209Y-123255848D01*
X166710413Y-123231344D01*
X166714013Y-123207075D01*
X166719974Y-123183277D01*
X166728239Y-123160177D01*
X166738729Y-123137999D01*
X166751342Y-123116955D01*
X166765956Y-123097250D01*
X166782432Y-123079071D01*
X167135986Y-122725517D01*
X167154165Y-122709041D01*
X167173870Y-122694427D01*
X167194914Y-122681814D01*
X167217092Y-122671324D01*
X167240192Y-122663059D01*
X167263990Y-122657098D01*
X167288259Y-122653498D01*
X167312763Y-122652294D01*
X167337267Y-122653498D01*
X167337267Y-122653498D01*
G37*
D25*
X167666316Y-123609401D03*
D12*
G36*
X166439242Y-123551523D02*
G01*
X166463511Y-123555123D01*
X166487309Y-123561084D01*
X166510409Y-123569349D01*
X166532587Y-123579839D01*
X166553631Y-123592452D01*
X166573336Y-123607066D01*
X166591515Y-123623542D01*
X167652175Y-124684202D01*
X167668651Y-124702381D01*
X167683265Y-124722086D01*
X167695878Y-124743130D01*
X167706368Y-124765308D01*
X167714633Y-124788408D01*
X167720594Y-124812206D01*
X167724194Y-124836475D01*
X167725398Y-124860979D01*
X167724194Y-124885483D01*
X167720594Y-124909752D01*
X167714633Y-124933550D01*
X167706368Y-124956650D01*
X167695878Y-124978828D01*
X167683265Y-124999872D01*
X167668651Y-125019577D01*
X167652175Y-125037756D01*
X167298621Y-125391310D01*
X167280442Y-125407786D01*
X167260737Y-125422400D01*
X167239693Y-125435013D01*
X167217515Y-125445503D01*
X167194415Y-125453768D01*
X167170617Y-125459729D01*
X167146348Y-125463329D01*
X167121844Y-125464533D01*
X167097340Y-125463329D01*
X167073071Y-125459729D01*
X167049273Y-125453768D01*
X167026173Y-125445503D01*
X167003995Y-125435013D01*
X166982951Y-125422400D01*
X166963246Y-125407786D01*
X166945067Y-125391310D01*
X165884407Y-124330650D01*
X165867931Y-124312471D01*
X165853317Y-124292766D01*
X165840704Y-124271722D01*
X165830214Y-124249544D01*
X165821949Y-124226444D01*
X165815988Y-124202646D01*
X165812388Y-124178377D01*
X165811184Y-124153873D01*
X165812388Y-124129369D01*
X165815988Y-124105100D01*
X165821949Y-124081302D01*
X165830214Y-124058202D01*
X165840704Y-124036024D01*
X165853317Y-124014980D01*
X165867931Y-123995275D01*
X165884407Y-123977096D01*
X166237961Y-123623542D01*
X166256140Y-123607066D01*
X166275845Y-123592452D01*
X166296889Y-123579839D01*
X166319067Y-123569349D01*
X166342167Y-123561084D01*
X166365965Y-123555123D01*
X166390234Y-123551523D01*
X166414738Y-123550319D01*
X166439242Y-123551523D01*
X166439242Y-123551523D01*
G37*
D25*
X166768291Y-124507426D03*
D12*
G36*
X162691576Y-119803857D02*
G01*
X162715845Y-119807457D01*
X162739643Y-119813418D01*
X162762743Y-119821683D01*
X162784921Y-119832173D01*
X162805965Y-119844786D01*
X162825670Y-119859400D01*
X162843849Y-119875876D01*
X163904509Y-120936536D01*
X163920985Y-120954715D01*
X163935599Y-120974420D01*
X163948212Y-120995464D01*
X163958702Y-121017642D01*
X163966967Y-121040742D01*
X163972928Y-121064540D01*
X163976528Y-121088809D01*
X163977732Y-121113313D01*
X163976528Y-121137817D01*
X163972928Y-121162086D01*
X163966967Y-121185884D01*
X163958702Y-121208984D01*
X163948212Y-121231162D01*
X163935599Y-121252206D01*
X163920985Y-121271911D01*
X163904509Y-121290090D01*
X163550955Y-121643644D01*
X163532776Y-121660120D01*
X163513071Y-121674734D01*
X163492027Y-121687347D01*
X163469849Y-121697837D01*
X163446749Y-121706102D01*
X163422951Y-121712063D01*
X163398682Y-121715663D01*
X163374178Y-121716867D01*
X163349674Y-121715663D01*
X163325405Y-121712063D01*
X163301607Y-121706102D01*
X163278507Y-121697837D01*
X163256329Y-121687347D01*
X163235285Y-121674734D01*
X163215580Y-121660120D01*
X163197401Y-121643644D01*
X162136741Y-120582984D01*
X162120265Y-120564805D01*
X162105651Y-120545100D01*
X162093038Y-120524056D01*
X162082548Y-120501878D01*
X162074283Y-120478778D01*
X162068322Y-120454980D01*
X162064722Y-120430711D01*
X162063518Y-120406207D01*
X162064722Y-120381703D01*
X162068322Y-120357434D01*
X162074283Y-120333636D01*
X162082548Y-120310536D01*
X162093038Y-120288358D01*
X162105651Y-120267314D01*
X162120265Y-120247609D01*
X162136741Y-120229430D01*
X162490295Y-119875876D01*
X162508474Y-119859400D01*
X162528179Y-119844786D01*
X162549223Y-119832173D01*
X162571401Y-119821683D01*
X162594501Y-119813418D01*
X162618299Y-119807457D01*
X162642568Y-119803857D01*
X162667072Y-119802653D01*
X162691576Y-119803857D01*
X162691576Y-119803857D01*
G37*
D25*
X163020625Y-120759760D03*
D12*
G36*
X163589601Y-118905832D02*
G01*
X163613870Y-118909432D01*
X163637668Y-118915393D01*
X163660768Y-118923658D01*
X163682946Y-118934148D01*
X163703990Y-118946761D01*
X163723695Y-118961375D01*
X163741874Y-118977851D01*
X164802534Y-120038511D01*
X164819010Y-120056690D01*
X164833624Y-120076395D01*
X164846237Y-120097439D01*
X164856727Y-120119617D01*
X164864992Y-120142717D01*
X164870953Y-120166515D01*
X164874553Y-120190784D01*
X164875757Y-120215288D01*
X164874553Y-120239792D01*
X164870953Y-120264061D01*
X164864992Y-120287859D01*
X164856727Y-120310959D01*
X164846237Y-120333137D01*
X164833624Y-120354181D01*
X164819010Y-120373886D01*
X164802534Y-120392065D01*
X164448980Y-120745619D01*
X164430801Y-120762095D01*
X164411096Y-120776709D01*
X164390052Y-120789322D01*
X164367874Y-120799812D01*
X164344774Y-120808077D01*
X164320976Y-120814038D01*
X164296707Y-120817638D01*
X164272203Y-120818842D01*
X164247699Y-120817638D01*
X164223430Y-120814038D01*
X164199632Y-120808077D01*
X164176532Y-120799812D01*
X164154354Y-120789322D01*
X164133310Y-120776709D01*
X164113605Y-120762095D01*
X164095426Y-120745619D01*
X163034766Y-119684959D01*
X163018290Y-119666780D01*
X163003676Y-119647075D01*
X162991063Y-119626031D01*
X162980573Y-119603853D01*
X162972308Y-119580753D01*
X162966347Y-119556955D01*
X162962747Y-119532686D01*
X162961543Y-119508182D01*
X162962747Y-119483678D01*
X162966347Y-119459409D01*
X162972308Y-119435611D01*
X162980573Y-119412511D01*
X162991063Y-119390333D01*
X163003676Y-119369289D01*
X163018290Y-119349584D01*
X163034766Y-119331405D01*
X163388320Y-118977851D01*
X163406499Y-118961375D01*
X163426204Y-118946761D01*
X163447248Y-118934148D01*
X163469426Y-118923658D01*
X163492526Y-118915393D01*
X163516324Y-118909432D01*
X163540593Y-118905832D01*
X163565097Y-118904628D01*
X163589601Y-118905832D01*
X163589601Y-118905832D01*
G37*
D25*
X163918650Y-119861735D03*
D12*
G36*
X164487627Y-118007806D02*
G01*
X164511896Y-118011406D01*
X164535694Y-118017367D01*
X164558794Y-118025632D01*
X164580972Y-118036122D01*
X164602016Y-118048735D01*
X164621721Y-118063349D01*
X164639900Y-118079825D01*
X165700560Y-119140485D01*
X165717036Y-119158664D01*
X165731650Y-119178369D01*
X165744263Y-119199413D01*
X165754753Y-119221591D01*
X165763018Y-119244691D01*
X165768979Y-119268489D01*
X165772579Y-119292758D01*
X165773783Y-119317262D01*
X165772579Y-119341766D01*
X165768979Y-119366035D01*
X165763018Y-119389833D01*
X165754753Y-119412933D01*
X165744263Y-119435111D01*
X165731650Y-119456155D01*
X165717036Y-119475860D01*
X165700560Y-119494039D01*
X165347006Y-119847593D01*
X165328827Y-119864069D01*
X165309122Y-119878683D01*
X165288078Y-119891296D01*
X165265900Y-119901786D01*
X165242800Y-119910051D01*
X165219002Y-119916012D01*
X165194733Y-119919612D01*
X165170229Y-119920816D01*
X165145725Y-119919612D01*
X165121456Y-119916012D01*
X165097658Y-119910051D01*
X165074558Y-119901786D01*
X165052380Y-119891296D01*
X165031336Y-119878683D01*
X165011631Y-119864069D01*
X164993452Y-119847593D01*
X163932792Y-118786933D01*
X163916316Y-118768754D01*
X163901702Y-118749049D01*
X163889089Y-118728005D01*
X163878599Y-118705827D01*
X163870334Y-118682727D01*
X163864373Y-118658929D01*
X163860773Y-118634660D01*
X163859569Y-118610156D01*
X163860773Y-118585652D01*
X163864373Y-118561383D01*
X163870334Y-118537585D01*
X163878599Y-118514485D01*
X163889089Y-118492307D01*
X163901702Y-118471263D01*
X163916316Y-118451558D01*
X163932792Y-118433379D01*
X164286346Y-118079825D01*
X164304525Y-118063349D01*
X164324230Y-118048735D01*
X164345274Y-118036122D01*
X164367452Y-118025632D01*
X164390552Y-118017367D01*
X164414350Y-118011406D01*
X164438619Y-118007806D01*
X164463123Y-118006602D01*
X164487627Y-118007806D01*
X164487627Y-118007806D01*
G37*
D25*
X164816676Y-118963709D03*
D12*
G36*
X165385652Y-117109781D02*
G01*
X165409921Y-117113381D01*
X165433719Y-117119342D01*
X165456819Y-117127607D01*
X165478997Y-117138097D01*
X165500041Y-117150710D01*
X165519746Y-117165324D01*
X165537925Y-117181800D01*
X166598585Y-118242460D01*
X166615061Y-118260639D01*
X166629675Y-118280344D01*
X166642288Y-118301388D01*
X166652778Y-118323566D01*
X166661043Y-118346666D01*
X166667004Y-118370464D01*
X166670604Y-118394733D01*
X166671808Y-118419237D01*
X166670604Y-118443741D01*
X166667004Y-118468010D01*
X166661043Y-118491808D01*
X166652778Y-118514908D01*
X166642288Y-118537086D01*
X166629675Y-118558130D01*
X166615061Y-118577835D01*
X166598585Y-118596014D01*
X166245031Y-118949568D01*
X166226852Y-118966044D01*
X166207147Y-118980658D01*
X166186103Y-118993271D01*
X166163925Y-119003761D01*
X166140825Y-119012026D01*
X166117027Y-119017987D01*
X166092758Y-119021587D01*
X166068254Y-119022791D01*
X166043750Y-119021587D01*
X166019481Y-119017987D01*
X165995683Y-119012026D01*
X165972583Y-119003761D01*
X165950405Y-118993271D01*
X165929361Y-118980658D01*
X165909656Y-118966044D01*
X165891477Y-118949568D01*
X164830817Y-117888908D01*
X164814341Y-117870729D01*
X164799727Y-117851024D01*
X164787114Y-117829980D01*
X164776624Y-117807802D01*
X164768359Y-117784702D01*
X164762398Y-117760904D01*
X164758798Y-117736635D01*
X164757594Y-117712131D01*
X164758798Y-117687627D01*
X164762398Y-117663358D01*
X164768359Y-117639560D01*
X164776624Y-117616460D01*
X164787114Y-117594282D01*
X164799727Y-117573238D01*
X164814341Y-117553533D01*
X164830817Y-117535354D01*
X165184371Y-117181800D01*
X165202550Y-117165324D01*
X165222255Y-117150710D01*
X165243299Y-117138097D01*
X165265477Y-117127607D01*
X165288577Y-117119342D01*
X165312375Y-117113381D01*
X165336644Y-117109781D01*
X165361148Y-117108577D01*
X165385652Y-117109781D01*
X165385652Y-117109781D01*
G37*
D25*
X165714701Y-118065684D03*
D26*
X151241495Y-113276555D03*
D12*
G36*
X153574947Y-112640159D02*
G01*
X150605099Y-115610007D01*
X148908043Y-113912951D01*
X151877891Y-110943103D01*
X153574947Y-112640159D01*
X153574947Y-112640159D01*
G37*
D27*
X155696267Y-117731327D03*
D12*
G36*
X157216547Y-117908104D02*
G01*
X155873044Y-119251607D01*
X154175987Y-117554550D01*
X155519490Y-116211047D01*
X157216547Y-117908104D01*
X157216547Y-117908104D01*
G37*
D27*
X154069922Y-119357673D03*
D12*
G36*
X155590202Y-119534450D02*
G01*
X154246699Y-120877953D01*
X152549642Y-119180896D01*
X153893145Y-117837393D01*
X155590202Y-119534450D01*
X155590202Y-119534450D01*
G37*
D27*
X157322613Y-116104982D03*
D12*
G36*
X158842893Y-116281759D02*
G01*
X157499390Y-117625262D01*
X155802333Y-115928205D01*
X157145836Y-114584702D01*
X158842893Y-116281759D01*
X158842893Y-116281759D01*
G37*
M02*
