G04 #@! TF.GenerationSoftware,KiCad,Pcbnew,5.1.2*
G04 #@! TF.CreationDate,2019-07-14T10:42:41-05:00*
G04 #@! TF.ProjectId,Master_Sword_(Ocarina_of_Time),4d617374-6572-45f5-9377-6f72645f284f,rev?*
G04 #@! TF.SameCoordinates,Original*
G04 #@! TF.FileFunction,Legend,Bot*
G04 #@! TF.FilePolarity,Positive*
%FSLAX46Y46*%
G04 Gerber Fmt 4.6, Leading zero omitted, Abs format (unit mm)*
G04 Created by KiCad (PCBNEW 5.1.2) date 2019-07-14 10:42:41*
%MOMM*%
%LPD*%
G04 APERTURE LIST*
%ADD10C,0.100000*%
%ADD11C,0.150000*%
%ADD12C,0.120000*%
G04 APERTURE END LIST*
D10*
X133056818Y-87475007D02*
X132598882Y-87555820D01*
X132733569Y-87151759D02*
X132167884Y-87717444D01*
X132383383Y-87932943D01*
X132464195Y-87959881D01*
X132518070Y-87959881D01*
X132598882Y-87932943D01*
X132679694Y-87852131D01*
X132706632Y-87771319D01*
X132706632Y-87717444D01*
X132679694Y-87636632D01*
X132464195Y-87421133D01*
X133299255Y-87717444D02*
X132733569Y-88283129D01*
X133326192Y-88067630D01*
X133110693Y-88660253D01*
X133676378Y-88094568D01*
X133757190Y-88498629D02*
X134026564Y-88768003D01*
X133864940Y-88283129D02*
X133487816Y-89037377D01*
X134242064Y-88660253D01*
X134753874Y-89764687D02*
X134861624Y-89818561D01*
X134915499Y-89818561D01*
X134996311Y-89791624D01*
X135077123Y-89710812D01*
X135104061Y-89629999D01*
X135104061Y-89576125D01*
X135077123Y-89495312D01*
X134861624Y-89279813D01*
X134295938Y-89845499D01*
X134484500Y-90034061D01*
X134565312Y-90060998D01*
X134619187Y-90060998D01*
X134700000Y-90034061D01*
X134753874Y-89980186D01*
X134780812Y-89899374D01*
X134780812Y-89845499D01*
X134753874Y-89764687D01*
X134565312Y-89576125D01*
X135669746Y-90087935D02*
X135373435Y-90384247D01*
X135292622Y-90411184D01*
X135211810Y-90384247D01*
X135104061Y-90276497D01*
X135077123Y-90195685D01*
X135642809Y-90114873D02*
X135615871Y-90034061D01*
X135481184Y-89899374D01*
X135400372Y-89872436D01*
X135319560Y-89899374D01*
X135265685Y-89953248D01*
X135238748Y-90034061D01*
X135265685Y-90114873D01*
X135400372Y-90249560D01*
X135427309Y-90330372D01*
X136181557Y-90599746D02*
X135615871Y-91165431D01*
X136154619Y-90626683D02*
X136127682Y-90545871D01*
X136019932Y-90438122D01*
X135939120Y-90411184D01*
X135885245Y-90411184D01*
X135804433Y-90438122D01*
X135642809Y-90599746D01*
X135615871Y-90680558D01*
X135615871Y-90734433D01*
X135642809Y-90815245D01*
X135750558Y-90922995D01*
X135831370Y-90949932D01*
X136316244Y-91488680D02*
X136774179Y-91030744D01*
X136801117Y-90949932D01*
X136801117Y-90896057D01*
X136774179Y-90815245D01*
X136693367Y-90734433D01*
X136612555Y-90707496D01*
X136666430Y-91138494D02*
X136639492Y-91057682D01*
X136531743Y-90949932D01*
X136450931Y-90922995D01*
X136397056Y-90922995D01*
X136316244Y-90949932D01*
X136154619Y-91111557D01*
X136127682Y-91192369D01*
X136127682Y-91246244D01*
X136154619Y-91327056D01*
X136262369Y-91434805D01*
X136343181Y-91461743D01*
X137151303Y-91623367D02*
X137124366Y-91542555D01*
X137016616Y-91434805D01*
X136935804Y-91407868D01*
X136854992Y-91434805D01*
X136639492Y-91650305D01*
X136612555Y-91731117D01*
X136639492Y-91811929D01*
X136747242Y-91919679D01*
X136828054Y-91946616D01*
X136908866Y-91919679D01*
X136962741Y-91865804D01*
X136747242Y-91542555D01*
D11*
X174673643Y-131754642D02*
X174269582Y-132158703D01*
X174471613Y-131956673D02*
X175178720Y-132663780D01*
X175010361Y-132630108D01*
X174875674Y-132630108D01*
X174774659Y-132663780D01*
X151813643Y-109224641D02*
X151409582Y-109628702D01*
X151611613Y-109426672D02*
X152318720Y-110133779D01*
X152150361Y-110100107D01*
X152015674Y-110100107D01*
X151914659Y-110133779D01*
X130423643Y-87484642D02*
X130019582Y-87888703D01*
X130221613Y-87686673D02*
X130928720Y-88393780D01*
X130760361Y-88360108D01*
X130625674Y-88360108D01*
X130524659Y-88393780D01*
X98463643Y-55814642D02*
X98059582Y-56218703D01*
X98261613Y-56016673D02*
X98968720Y-56723780D01*
X98800361Y-56690108D01*
X98665674Y-56690108D01*
X98564659Y-56723780D01*
D10*
X151852857Y-117777308D02*
X151499304Y-117423755D01*
X151408390Y-117373247D01*
X151320843Y-117366513D01*
X151236664Y-117403552D01*
X151196258Y-117443958D01*
X151761943Y-116878272D02*
X151559913Y-117080303D01*
X152054888Y-117575278D01*
X152192942Y-116541555D02*
X152149169Y-116538188D01*
X152064989Y-116575227D01*
X152024583Y-116615633D01*
X151987544Y-116699812D01*
X151994279Y-116787359D01*
X152021216Y-116854702D01*
X152095294Y-116969186D01*
X152166004Y-117039897D01*
X152280488Y-117113975D01*
X152347832Y-117140912D01*
X152435378Y-117147646D01*
X152519558Y-117110607D01*
X152559964Y-117070201D01*
X152597003Y-116986022D01*
X152593636Y-116942249D01*
X152943822Y-116686343D02*
X152590269Y-116332790D01*
X152499355Y-116282282D01*
X152411808Y-116275548D01*
X152327629Y-116312587D01*
X152287223Y-116352993D01*
X152852908Y-115787308D02*
X152650878Y-115989338D01*
X153145852Y-116484313D01*
X153283907Y-115450590D02*
X153240133Y-115447223D01*
X153155954Y-115484262D01*
X153115548Y-115524668D01*
X153078509Y-115608847D01*
X153085243Y-115696394D01*
X153112181Y-115763737D01*
X153186259Y-115878221D01*
X153256969Y-115948932D01*
X153371453Y-116023010D01*
X153438797Y-116049947D01*
X153526343Y-116056682D01*
X153610523Y-116019643D01*
X153650929Y-115979237D01*
X153687968Y-115895057D01*
X153684600Y-115851284D01*
X154034787Y-115595379D02*
X153681233Y-115241825D01*
X153590320Y-115191318D01*
X153502773Y-115184583D01*
X153418594Y-115221622D01*
X153378188Y-115262028D01*
X153943873Y-114696343D02*
X153741842Y-114898373D01*
X154236817Y-115393348D01*
X154374871Y-114359625D02*
X154331098Y-114356258D01*
X154246919Y-114393297D01*
X154206513Y-114433703D01*
X154169474Y-114517882D01*
X154176208Y-114605429D01*
X154203145Y-114672773D01*
X154277223Y-114787257D01*
X154347934Y-114857967D01*
X154462418Y-114932045D01*
X154529761Y-114958982D01*
X154617308Y-114965717D01*
X154701487Y-114928678D01*
X154741893Y-114888272D01*
X154778932Y-114804092D01*
X154775565Y-114760319D01*
X155125751Y-114504414D02*
X154772198Y-114150860D01*
X154681284Y-114100353D01*
X154593738Y-114093618D01*
X154509558Y-114130657D01*
X154469152Y-114171063D01*
X155034838Y-113605378D02*
X154832807Y-113807409D01*
X155327782Y-114302383D01*
X155465836Y-113268661D02*
X155422063Y-113265293D01*
X155337883Y-113302332D01*
X155297477Y-113342738D01*
X155260438Y-113426918D01*
X155267173Y-113514464D01*
X155294110Y-113581808D01*
X155368188Y-113696292D01*
X155438899Y-113767002D01*
X155553383Y-113841080D01*
X155620726Y-113868018D01*
X155708273Y-113874752D01*
X155792452Y-113837713D01*
X155832858Y-113797307D01*
X155869897Y-113713128D01*
X155866530Y-113669354D01*
D11*
X144979092Y-98374387D02*
X144271985Y-99081494D01*
X145012763Y-98812120D01*
X144743389Y-99552899D01*
X145450496Y-98845792D01*
X146090259Y-99485555D02*
X145719870Y-99855944D01*
X145618855Y-99889616D01*
X145517840Y-99855944D01*
X145383153Y-99721257D01*
X145349481Y-99620242D01*
X146056588Y-99519227D02*
X146022916Y-99418212D01*
X145854557Y-99249853D01*
X145753542Y-99216181D01*
X145652527Y-99249853D01*
X145585183Y-99317196D01*
X145551511Y-99418212D01*
X145585183Y-99519227D01*
X145753542Y-99687586D01*
X145787214Y-99788601D01*
X146730023Y-100125318D02*
X146022916Y-100832425D01*
X146696351Y-100158990D02*
X146662679Y-100057975D01*
X146527992Y-99923288D01*
X146426977Y-99889616D01*
X146359633Y-99889616D01*
X146258618Y-99923288D01*
X146056588Y-100125318D01*
X146022916Y-100226334D01*
X146022916Y-100293677D01*
X146056588Y-100394692D01*
X146191275Y-100529379D01*
X146292290Y-100563051D01*
X147302442Y-100765082D02*
X147268771Y-100664066D01*
X147134084Y-100529379D01*
X147033068Y-100495708D01*
X146932053Y-100529379D01*
X146662679Y-100798753D01*
X146629007Y-100899769D01*
X146662679Y-101000784D01*
X146797366Y-101135471D01*
X146898381Y-101169143D01*
X146999397Y-101135471D01*
X147066740Y-101068127D01*
X146797366Y-100664066D01*
X147639160Y-101977265D02*
X147908534Y-102246639D01*
X148211580Y-101606875D02*
X147605488Y-102212967D01*
X147571816Y-102313982D01*
X147605488Y-102414997D01*
X147672832Y-102482341D01*
X148716656Y-102111952D02*
X148615641Y-102078280D01*
X148548297Y-102078280D01*
X148447282Y-102111952D01*
X148245251Y-102313982D01*
X148211580Y-102414997D01*
X148211580Y-102482341D01*
X148245251Y-102583356D01*
X148346267Y-102684371D01*
X148447282Y-102718043D01*
X148514625Y-102718043D01*
X148615641Y-102684371D01*
X148817671Y-102482341D01*
X148851343Y-102381326D01*
X148851343Y-102313982D01*
X148817671Y-102212967D01*
X148716656Y-102111952D01*
X149255404Y-102650700D02*
X148783999Y-103122104D01*
X148918686Y-102987417D02*
X148885015Y-103088432D01*
X148885015Y-103155776D01*
X148918686Y-103256791D01*
X148986030Y-103324135D01*
X150231885Y-103627180D02*
X149524778Y-104334287D01*
X149693137Y-104502646D01*
X149827824Y-104569990D01*
X149962511Y-104569990D01*
X150063526Y-104536318D01*
X150231885Y-104435303D01*
X150332900Y-104334287D01*
X150433915Y-104165929D01*
X150467587Y-104064913D01*
X150467587Y-103930226D01*
X150400244Y-103795539D01*
X150231885Y-103627180D01*
X151174694Y-104637333D02*
X151141022Y-104536318D01*
X151006335Y-104401631D01*
X150905320Y-104367959D01*
X150804305Y-104401631D01*
X150534931Y-104671005D01*
X150501259Y-104772020D01*
X150534931Y-104873035D01*
X150669618Y-105007722D01*
X150770633Y-105041394D01*
X150871648Y-105007722D01*
X150938992Y-104940379D01*
X150669618Y-104536318D01*
X150972663Y-105310768D02*
X151242037Y-105580142D01*
X151545083Y-104940379D02*
X150938992Y-105546470D01*
X150905320Y-105647486D01*
X150938992Y-105748501D01*
X151006335Y-105815844D01*
X152218518Y-105681157D02*
X152184846Y-105580142D01*
X152050159Y-105445455D01*
X151949144Y-105411783D01*
X151881801Y-105411783D01*
X151780785Y-105445455D01*
X151578755Y-105647486D01*
X151545083Y-105748501D01*
X151545083Y-105815844D01*
X151578755Y-105916860D01*
X151713442Y-106051547D01*
X151814457Y-106085218D01*
X152656251Y-106051547D02*
X152555236Y-106017875D01*
X152487892Y-106017875D01*
X152386877Y-106051547D01*
X152184846Y-106253577D01*
X152151175Y-106354592D01*
X152151175Y-106421936D01*
X152184846Y-106522951D01*
X152285862Y-106623966D01*
X152386877Y-106657638D01*
X152454220Y-106657638D01*
X152555236Y-106623966D01*
X152757266Y-106421936D01*
X152790938Y-106320921D01*
X152790938Y-106253577D01*
X152757266Y-106152562D01*
X152656251Y-106051547D01*
X152723594Y-107061699D02*
X153194999Y-106590295D01*
X152790938Y-106994356D02*
X152790938Y-107061699D01*
X152824610Y-107162714D01*
X152925625Y-107263730D01*
X153026640Y-107297401D01*
X153127655Y-107263730D01*
X153498045Y-106893340D01*
X153700075Y-108374897D02*
X153700075Y-108442241D01*
X153733747Y-108543256D01*
X153902106Y-108711615D01*
X154003121Y-108745287D01*
X154070464Y-108745287D01*
X154171480Y-108711615D01*
X154238823Y-108644271D01*
X154306167Y-108509584D01*
X154306167Y-107701462D01*
X154743899Y-108139195D01*
X154272495Y-109082004D02*
X154743899Y-109553409D01*
X155147960Y-108543256D01*
D12*
X97239683Y-71955032D02*
G75*
G02X110602950Y-85448307I-1358696J-14709498D01*
G01*
X97189135Y-71952115D02*
G75*
G02X96517383Y-71673867I-1J950000D01*
G01*
X110593402Y-85356382D02*
G75*
G03X110871650Y-86028134I950000J-1D01*
G01*
X114690027Y-86028135D02*
G75*
G02X110871650Y-86028134I-1909188J1909189D01*
G01*
X96517382Y-67855490D02*
G75*
G03X96517383Y-71673867I1909189J-1909188D01*
G01*
X99451876Y-64920997D02*
X96482027Y-67890845D01*
X117624520Y-83093641D02*
X114654672Y-86063490D01*
X106169390Y-58203482D02*
X103835938Y-60536935D01*
X116599215Y-60360158D02*
X106169390Y-58203482D01*
X117164901Y-59794473D02*
X116599215Y-60360158D01*
X122751044Y-65380616D02*
X117164901Y-59794473D01*
X122751044Y-65380616D02*
X122185359Y-65946302D01*
X122185359Y-65946302D02*
X124342035Y-76376127D01*
X124342035Y-76376127D02*
X122008582Y-78709579D01*
X165973612Y-125754579D02*
X166339296Y-126120263D01*
X164969520Y-126758671D02*
X165335204Y-127124355D01*
X158793471Y-120204438D02*
X158427787Y-119838754D01*
X157789379Y-121208530D02*
X157423695Y-120842846D01*
X155243694Y-122932845D02*
X155609378Y-123298529D01*
X156247786Y-121928753D02*
X156613470Y-122294437D01*
X160840699Y-117441667D02*
X161206383Y-117807351D01*
X159836607Y-118445759D02*
X160202291Y-118811443D01*
X161846663Y-131945734D02*
X162030511Y-131761886D01*
X164243755Y-130043616D02*
X165495334Y-128792037D01*
X165495334Y-128792037D02*
X165226633Y-128523337D01*
X159612206Y-122908909D02*
X158360627Y-124160488D01*
X156642357Y-126373732D02*
X156458509Y-126557580D01*
X159612206Y-122908909D02*
X159880906Y-123177610D01*
X170015204Y-125158753D02*
X169649520Y-125524437D01*
X171019296Y-126162845D02*
X170653612Y-126528529D01*
X162477787Y-122268754D02*
X162843471Y-122634438D01*
X161473695Y-123272846D02*
X161839379Y-123638530D01*
X170491208Y-121915880D02*
X166672831Y-118097503D01*
X165810161Y-124475607D02*
X163052444Y-121717890D01*
X149707073Y-116564601D02*
X150598027Y-115673647D01*
X154529541Y-111742133D02*
X153638587Y-112633087D01*
X152365794Y-119223323D02*
X149707073Y-116564601D01*
X158779253Y-115991845D02*
X154529541Y-111742133D01*
D11*
X121518658Y-62138026D02*
X121383971Y-62070682D01*
X121316628Y-62070682D01*
X121215612Y-62104354D01*
X121114597Y-62205369D01*
X121080925Y-62306385D01*
X121080925Y-62373728D01*
X121114597Y-62474743D01*
X121383971Y-62744117D01*
X122091078Y-62037011D01*
X121855376Y-61801308D01*
X121754360Y-61767637D01*
X121687017Y-61767637D01*
X121586002Y-61801308D01*
X121518658Y-61868652D01*
X121484986Y-61969667D01*
X121484986Y-62037011D01*
X121518658Y-62138026D01*
X121754360Y-62373728D01*
X121484986Y-61430919D02*
X121080925Y-61026858D01*
X120575849Y-61935995D02*
X121282956Y-61228888D01*
X119767727Y-61127873D02*
X120171788Y-61531934D01*
X119969757Y-61329904D02*
X120676864Y-60622797D01*
X120643192Y-60791156D01*
X120643192Y-60925843D01*
X120676864Y-61026858D01*
X164689712Y-128313299D02*
X164689712Y-128380643D01*
X164757056Y-128515330D01*
X164824399Y-128582673D01*
X164959086Y-128650017D01*
X165093773Y-128650017D01*
X165194788Y-128616345D01*
X165363147Y-128515330D01*
X165464162Y-128414315D01*
X165565178Y-128245956D01*
X165598849Y-128144941D01*
X165598849Y-128010254D01*
X165531506Y-127875567D01*
X165464162Y-127808223D01*
X165329475Y-127740880D01*
X165262132Y-127740880D01*
X163948933Y-127707208D02*
X164352994Y-128111269D01*
X164150964Y-127909238D02*
X164858071Y-127202131D01*
X164824399Y-127370490D01*
X164824399Y-127505177D01*
X164858071Y-127606192D01*
X163814246Y-126629712D02*
X163342842Y-127101116D01*
X164251979Y-126528696D02*
X163915262Y-127202131D01*
X163477529Y-126764399D01*
X159477339Y-120064022D02*
X159477339Y-120131366D01*
X159544683Y-120266053D01*
X159612026Y-120333396D01*
X159746713Y-120400740D01*
X159881400Y-120400740D01*
X159982415Y-120367068D01*
X160150774Y-120266053D01*
X160251789Y-120165038D01*
X160352805Y-119996679D01*
X160386476Y-119895664D01*
X160386476Y-119760977D01*
X160319133Y-119626290D01*
X160251789Y-119558946D01*
X160117102Y-119491603D01*
X160049759Y-119491603D01*
X158736560Y-119457931D02*
X159140621Y-119861992D01*
X158938591Y-119659961D02*
X159645698Y-118952854D01*
X159612026Y-119121213D01*
X159612026Y-119255900D01*
X159645698Y-119356915D01*
X158837576Y-118144732D02*
X158972263Y-118279419D01*
X159005934Y-118380435D01*
X159005934Y-118447778D01*
X158972263Y-118616137D01*
X158871247Y-118784496D01*
X158601873Y-119053870D01*
X158500858Y-119087541D01*
X158433515Y-119087541D01*
X158332499Y-119053870D01*
X158197812Y-118919183D01*
X158164141Y-118818167D01*
X158164141Y-118750824D01*
X158197812Y-118649809D01*
X158366171Y-118481450D01*
X158467186Y-118447778D01*
X158534530Y-118447778D01*
X158635545Y-118481450D01*
X158770232Y-118616137D01*
X158803904Y-118717152D01*
X158803904Y-118784496D01*
X158770232Y-118885511D01*
X154963886Y-124487473D02*
X154963886Y-124554817D01*
X155031230Y-124689504D01*
X155098573Y-124756847D01*
X155233260Y-124824191D01*
X155367947Y-124824191D01*
X155468962Y-124790519D01*
X155637321Y-124689504D01*
X155738336Y-124588489D01*
X155839352Y-124420130D01*
X155873023Y-124319115D01*
X155873023Y-124184428D01*
X155805680Y-124049741D01*
X155738336Y-123982397D01*
X155603649Y-123915054D01*
X155536306Y-123915054D01*
X154223107Y-123881382D02*
X154627168Y-124285443D01*
X154425138Y-124083412D02*
X155132245Y-123376305D01*
X155098573Y-123544664D01*
X155098573Y-123679351D01*
X155132245Y-123780366D01*
X154694512Y-122938573D02*
X154223107Y-122467168D01*
X153819046Y-123477321D01*
X162143526Y-117503661D02*
X162143526Y-117571005D01*
X162210870Y-117705692D01*
X162278213Y-117773035D01*
X162412900Y-117840379D01*
X162547587Y-117840379D01*
X162648602Y-117806707D01*
X162816961Y-117705692D01*
X162917976Y-117604677D01*
X163018992Y-117436318D01*
X163052663Y-117335303D01*
X163052663Y-117200616D01*
X162985320Y-117065929D01*
X162917976Y-116998585D01*
X162783289Y-116931242D01*
X162715946Y-116931242D01*
X161402747Y-116897570D02*
X161806808Y-117301631D01*
X161604778Y-117099600D02*
X162311885Y-116392493D01*
X162278213Y-116560852D01*
X162278213Y-116695539D01*
X162311885Y-116796554D01*
X161402747Y-116089448D02*
X161503763Y-116123119D01*
X161571106Y-116123119D01*
X161672121Y-116089448D01*
X161705793Y-116055776D01*
X161739465Y-115954761D01*
X161739465Y-115887417D01*
X161705793Y-115786402D01*
X161571106Y-115651715D01*
X161470091Y-115618043D01*
X161402747Y-115618043D01*
X161301732Y-115651715D01*
X161268060Y-115685387D01*
X161234389Y-115786402D01*
X161234389Y-115853745D01*
X161268060Y-115954761D01*
X161402747Y-116089448D01*
X161436419Y-116190463D01*
X161436419Y-116257806D01*
X161402747Y-116358822D01*
X161268060Y-116493509D01*
X161167045Y-116527180D01*
X161099702Y-116527180D01*
X160998686Y-116493509D01*
X160863999Y-116358822D01*
X160830328Y-116257806D01*
X160830328Y-116190463D01*
X160863999Y-116089448D01*
X160998686Y-115954761D01*
X161099702Y-115921089D01*
X161167045Y-115921089D01*
X161268060Y-115954761D01*
X158241765Y-121821985D02*
X158746841Y-122327061D01*
X158881528Y-122394404D01*
X159016215Y-122394404D01*
X159150902Y-122327061D01*
X159218246Y-122259717D01*
X158241765Y-123236198D02*
X158645826Y-122832137D01*
X158443796Y-123034168D02*
X157736689Y-122327061D01*
X157905048Y-122360733D01*
X158039735Y-122360733D01*
X158140750Y-122327061D01*
X157096926Y-122966824D02*
X157029582Y-123034168D01*
X156995910Y-123135183D01*
X156995910Y-123202526D01*
X157029582Y-123303542D01*
X157130597Y-123471900D01*
X157298956Y-123640259D01*
X157467315Y-123741274D01*
X157568330Y-123774946D01*
X157635674Y-123774946D01*
X157736689Y-123741274D01*
X157804032Y-123673931D01*
X157837704Y-123572916D01*
X157837704Y-123505572D01*
X157804032Y-123404557D01*
X157703017Y-123236198D01*
X157534658Y-123067839D01*
X157366300Y-122966824D01*
X157265284Y-122933152D01*
X157197941Y-122933152D01*
X157096926Y-122966824D01*
X169605414Y-124878945D02*
X169504399Y-124306525D01*
X170009475Y-124474884D02*
X169302369Y-123767777D01*
X169032994Y-124037151D01*
X168999323Y-124138166D01*
X168999323Y-124205510D01*
X169032994Y-124306525D01*
X169134010Y-124407540D01*
X169235025Y-124441212D01*
X169302369Y-124441212D01*
X169403384Y-124407540D01*
X169672758Y-124138166D01*
X168696277Y-124508556D02*
X168628933Y-124508556D01*
X168527918Y-124542227D01*
X168359559Y-124710586D01*
X168325888Y-124811602D01*
X168325888Y-124878945D01*
X168359559Y-124979960D01*
X168426903Y-125047304D01*
X168561590Y-125114647D01*
X169369712Y-125114647D01*
X168931979Y-125552380D01*
X160789826Y-124558100D02*
X161362246Y-124457085D01*
X161193887Y-124962161D02*
X161900994Y-124255055D01*
X161631620Y-123985680D01*
X161530605Y-123952009D01*
X161463261Y-123952009D01*
X161362246Y-123985680D01*
X161261231Y-124086696D01*
X161227559Y-124187711D01*
X161227559Y-124255055D01*
X161261231Y-124356070D01*
X161530605Y-124625444D01*
X160857169Y-123211230D02*
X161193887Y-123547948D01*
X160890841Y-123918337D01*
X160890841Y-123850993D01*
X160857169Y-123749978D01*
X160688811Y-123581619D01*
X160587795Y-123547948D01*
X160520452Y-123547948D01*
X160419437Y-123581619D01*
X160251078Y-123749978D01*
X160217406Y-123850993D01*
X160217406Y-123918337D01*
X160251078Y-124019352D01*
X160419437Y-124187711D01*
X160520452Y-124221383D01*
X160587795Y-124221383D01*
X135964992Y-99441946D02*
X136301709Y-100182724D01*
X135560931Y-99846007D01*
X135426244Y-99307259D02*
X134887496Y-98768511D01*
X133742656Y-98162419D02*
X134449763Y-97455312D01*
X134180389Y-97185938D01*
X134079374Y-97152267D01*
X134012030Y-97152267D01*
X133911015Y-97185938D01*
X133810000Y-97286954D01*
X133776328Y-97387969D01*
X133776328Y-97455312D01*
X133810000Y-97556328D01*
X134079374Y-97825702D01*
X132934534Y-97354297D02*
X133035549Y-97387969D01*
X133102893Y-97387969D01*
X133203908Y-97354297D01*
X133405938Y-97152267D01*
X133439610Y-97051251D01*
X133439610Y-96983908D01*
X133405938Y-96882893D01*
X133304923Y-96781877D01*
X133203908Y-96748206D01*
X133136564Y-96748206D01*
X133035549Y-96781877D01*
X132833519Y-96983908D01*
X132799847Y-97084923D01*
X132799847Y-97152267D01*
X132833519Y-97253282D01*
X132934534Y-97354297D01*
X132934534Y-96411488D02*
X132328442Y-96748206D01*
X132530473Y-96276801D01*
X132059068Y-96478832D01*
X132395786Y-95872740D01*
X131419305Y-95771725D02*
X131452977Y-95872740D01*
X131587664Y-96007427D01*
X131688679Y-96041099D01*
X131789694Y-96007427D01*
X132059068Y-95738053D01*
X132092740Y-95637038D01*
X132059068Y-95536023D01*
X131924381Y-95401336D01*
X131823366Y-95367664D01*
X131722351Y-95401336D01*
X131655007Y-95468679D01*
X131924381Y-95872740D01*
X131048916Y-95468679D02*
X131520320Y-94997275D01*
X131385633Y-95131962D02*
X131419305Y-95030946D01*
X131419305Y-94963603D01*
X131385633Y-94862588D01*
X131318290Y-94795244D01*
X169571632Y-119033914D02*
X168999212Y-119606334D01*
X168898197Y-119640006D01*
X168830853Y-119640006D01*
X168729838Y-119606334D01*
X168595151Y-119471647D01*
X168561479Y-119370632D01*
X168561479Y-119303288D01*
X168595151Y-119202273D01*
X169167571Y-118629853D01*
X168898197Y-118360479D02*
X168460464Y-117922747D01*
X168426792Y-118427823D01*
X168325777Y-118326808D01*
X168224762Y-118293136D01*
X168157418Y-118293136D01*
X168056403Y-118326808D01*
X167888044Y-118495166D01*
X167854372Y-118596182D01*
X167854372Y-118663525D01*
X167888044Y-118764540D01*
X168090075Y-118966571D01*
X168191090Y-119000243D01*
X168258433Y-119000243D01*
X157576835Y-112473482D02*
X157004415Y-113045902D01*
X156903400Y-113079574D01*
X156836056Y-113079574D01*
X156735041Y-113045902D01*
X156600354Y-112911215D01*
X156566682Y-112810200D01*
X156566682Y-112742856D01*
X156600354Y-112641841D01*
X157172774Y-112069421D01*
X156297308Y-111665360D02*
X155825904Y-112136765D01*
X156735041Y-111564345D02*
X156398323Y-112237780D01*
X155960591Y-111800047D01*
M02*
