M48
; DRILL file {KiCad 9.0.2} date 2025-06-25T14:11:03-0500
; FORMAT={-:-/ absolute / metric / decimal}
; #@! TF.CreationDate,2025-06-25T14:11:03-05:00
; #@! TF.GenerationSoftware,Kicad,Pcbnew,9.0.2
; #@! TF.FileFunction,Plated,1,2,PTH
FMAT,2
METRIC
; #@! TA.AperFunction,Plated,PTH,ViaDrill
T1C0.400
%
G90
G05
T1
X75.784Y-38.013
X75.784Y-75.899
X75.784Y-113.785
X75.784Y-151.672
X75.784Y-189.558
X77.584Y-46.013
X77.584Y-83.899
X77.584Y-121.785
X77.584Y-159.672
X77.584Y-197.558
X83.034Y-51.613
X83.034Y-89.499
X83.034Y-127.385
X83.034Y-165.272
X83.034Y-203.158
X83.084Y-58.463
X83.084Y-96.349
X83.084Y-134.235
X83.084Y-172.122
X83.084Y-210.008
X85.234Y-61.213
X85.234Y-99.099
X85.234Y-136.985
X85.234Y-174.872
X85.234Y-212.758
X88.674Y-54.839
X88.674Y-92.725
X88.674Y-130.611
X88.674Y-168.498
X88.674Y-206.384
X90.724Y-57.099
X90.724Y-94.986
X90.724Y-132.872
X90.724Y-170.758
X90.724Y-208.644
X91.434Y-57.563
X91.434Y-95.449
X91.434Y-133.335
X91.434Y-171.222
X91.434Y-209.108
X94.984Y-48.463
X94.984Y-86.349
X94.984Y-124.235
X94.984Y-162.122
X94.984Y-200.008
X95.119Y-35.71
X95.119Y-73.597
X95.119Y-111.483
X95.119Y-149.369
X95.119Y-187.255
X96.065Y-39.206
X96.065Y-77.092
X96.065Y-114.978
X96.065Y-152.864
X96.065Y-190.751
X96.484Y-36.663
X96.484Y-74.549
X96.484Y-112.435
X96.484Y-150.322
X96.484Y-188.208
X96.934Y-42.213
X96.934Y-80.099
X96.934Y-117.985
X96.934Y-155.872
X96.934Y-193.758
X99.184Y-45.923
X99.184Y-83.809
X99.184Y-121.696
X99.184Y-159.582
X99.184Y-197.468
X106.761Y-38.013
X106.761Y-75.899
X106.761Y-113.785
X106.761Y-151.672
X106.761Y-189.558
X108.561Y-46.013
X108.561Y-83.899
X108.561Y-121.785
X108.561Y-159.672
X108.561Y-197.558
X114.011Y-51.613
X114.011Y-89.499
X114.011Y-127.385
X114.011Y-165.272
X114.011Y-203.158
X114.061Y-58.463
X114.061Y-96.349
X114.061Y-134.235
X114.061Y-172.122
X114.061Y-210.008
X116.211Y-61.213
X116.211Y-99.099
X116.211Y-136.985
X116.211Y-174.872
X116.211Y-212.758
X119.651Y-54.839
X119.651Y-92.725
X119.651Y-130.611
X119.651Y-168.498
X119.651Y-206.384
X121.701Y-57.099
X121.701Y-94.986
X121.701Y-132.872
X121.701Y-170.758
X121.701Y-208.644
X122.411Y-57.563
X122.411Y-95.449
X122.411Y-133.335
X122.411Y-171.222
X122.411Y-209.108
X125.961Y-48.463
X125.961Y-86.349
X125.961Y-124.235
X125.961Y-162.122
X125.961Y-200.008
X126.097Y-35.71
X126.097Y-73.597
X126.097Y-111.483
X126.097Y-149.369
X126.097Y-187.255
X127.042Y-39.206
X127.042Y-77.092
X127.042Y-114.978
X127.042Y-152.864
X127.042Y-190.751
X127.461Y-36.663
X127.461Y-74.549
X127.461Y-112.435
X127.461Y-150.322
X127.461Y-188.208
X127.911Y-42.213
X127.911Y-80.099
X127.911Y-117.985
X127.911Y-155.872
X127.911Y-193.758
X130.161Y-45.923
X130.161Y-83.809
X130.161Y-121.696
X130.161Y-159.582
X130.161Y-197.468
X137.739Y-38.013
X137.739Y-75.899
X137.739Y-113.785
X137.739Y-151.672
X137.739Y-189.558
X139.539Y-46.013
X139.539Y-83.899
X139.539Y-121.785
X139.539Y-159.672
X139.539Y-197.558
X144.989Y-51.613
X144.989Y-89.499
X144.989Y-127.385
X144.989Y-165.272
X144.989Y-203.158
X145.039Y-58.463
X145.039Y-96.349
X145.039Y-134.235
X145.039Y-172.122
X145.039Y-210.008
X147.189Y-61.213
X147.189Y-99.099
X147.189Y-136.985
X147.189Y-174.872
X147.189Y-212.758
X150.629Y-54.839
X150.629Y-92.725
X150.629Y-130.611
X150.629Y-168.498
X150.629Y-206.384
X152.679Y-57.099
X152.679Y-94.986
X152.679Y-132.872
X152.679Y-170.758
X152.679Y-208.644
X153.389Y-57.563
X153.389Y-95.449
X153.389Y-133.335
X153.389Y-171.222
X153.389Y-209.108
X156.939Y-48.463
X156.939Y-86.349
X156.939Y-124.235
X156.939Y-162.122
X156.939Y-200.008
X157.074Y-35.71
X157.074Y-73.597
X157.074Y-111.483
X157.074Y-149.369
X157.074Y-187.255
X158.02Y-39.206
X158.02Y-77.092
X158.02Y-114.978
X158.02Y-152.864
X158.02Y-190.751
X158.439Y-36.663
X158.439Y-74.549
X158.439Y-112.435
X158.439Y-150.322
X158.439Y-188.208
X158.889Y-42.213
X158.889Y-80.099
X158.889Y-117.985
X158.889Y-155.872
X158.889Y-193.758
X161.139Y-45.923
X161.139Y-83.809
X161.139Y-121.696
X161.139Y-159.582
X161.139Y-197.468
X168.716Y-38.013
X168.716Y-75.899
X168.716Y-113.785
X168.716Y-151.672
X168.716Y-189.558
X170.516Y-46.013
X170.516Y-83.899
X170.516Y-121.785
X170.516Y-159.672
X170.516Y-197.558
X175.966Y-51.613
X175.966Y-89.499
X175.966Y-127.385
X175.966Y-165.272
X175.966Y-203.158
X176.016Y-58.463
X176.016Y-96.349
X176.016Y-134.235
X176.016Y-172.122
X176.016Y-210.008
X178.166Y-61.213
X178.166Y-99.099
X178.166Y-136.985
X178.166Y-174.872
X178.166Y-212.758
X181.606Y-54.839
X181.606Y-92.725
X181.606Y-130.611
X181.606Y-168.498
X181.606Y-206.384
X183.656Y-57.099
X183.656Y-94.986
X183.656Y-132.872
X183.656Y-170.758
X183.656Y-208.644
X184.366Y-57.563
X184.366Y-95.449
X184.366Y-133.335
X184.366Y-171.222
X184.366Y-209.108
X187.916Y-48.463
X187.916Y-86.349
X187.916Y-124.235
X187.916Y-162.122
X187.916Y-200.008
X188.051Y-35.71
X188.051Y-73.597
X188.051Y-111.483
X188.051Y-149.369
X188.051Y-187.255
X188.997Y-39.206
X188.997Y-77.092
X188.997Y-114.978
X188.997Y-152.864
X188.997Y-190.751
X189.416Y-36.663
X189.416Y-74.549
X189.416Y-112.435
X189.416Y-150.322
X189.416Y-188.208
X189.866Y-42.213
X189.866Y-80.099
X189.866Y-117.985
X189.866Y-155.872
X189.866Y-193.758
X192.116Y-45.923
X192.116Y-83.809
X192.116Y-121.696
X192.116Y-159.582
X192.116Y-197.468
X199.693Y-38.013
X199.693Y-75.899
X199.693Y-113.785
X199.693Y-151.672
X199.693Y-189.558
X201.493Y-46.013
X201.493Y-83.899
X201.493Y-121.785
X201.493Y-159.672
X201.493Y-197.558
X206.943Y-51.613
X206.943Y-89.499
X206.943Y-127.385
X206.943Y-165.272
X206.943Y-203.158
X206.993Y-58.463
X206.993Y-96.349
X206.993Y-134.235
X206.993Y-172.122
X206.993Y-210.008
X209.143Y-61.213
X209.143Y-99.099
X209.143Y-136.985
X209.143Y-174.872
X209.143Y-212.758
X212.583Y-54.839
X212.583Y-92.725
X212.583Y-130.611
X212.583Y-168.498
X212.583Y-206.384
X214.633Y-57.099
X214.633Y-94.986
X214.633Y-132.872
X214.633Y-170.758
X214.633Y-208.644
X215.343Y-57.563
X215.343Y-95.449
X215.343Y-133.335
X215.343Y-171.222
X215.343Y-209.108
X218.893Y-48.463
X218.893Y-86.349
X218.893Y-124.235
X218.893Y-162.122
X218.893Y-200.008
X219.029Y-35.71
X219.029Y-73.597
X219.029Y-111.483
X219.029Y-149.369
X219.029Y-187.255
X219.975Y-39.206
X219.975Y-77.092
X219.975Y-114.978
X219.975Y-152.864
X219.975Y-190.751
X220.393Y-36.663
X220.393Y-74.549
X220.393Y-112.435
X220.393Y-150.322
X220.393Y-188.208
X220.843Y-42.213
X220.843Y-80.099
X220.843Y-117.985
X220.843Y-155.872
X220.843Y-193.758
X223.093Y-45.923
X223.093Y-83.809
X223.093Y-121.696
X223.093Y-159.582
X223.093Y-197.468
M30
