M48
; DRILL file {KiCad 9.0.2} date 2025-06-25T14:11:03-0500
; FORMAT={-:-/ absolute / metric / decimal}
; #@! TF.CreationDate,2025-06-25T14:11:03-05:00
; #@! TF.GenerationSoftware,Kicad,Pcbnew,9.0.2
; #@! TF.FileFunction,NonPlated,1,2,NPTH
FMAT,2
METRIC
; #@! TA.AperFunction,NonPlated,NPTH,ComponentDrill
T1C0.500
; #@! TA.AperFunction,NonPlated,NPTH,ComponentDrill
T2C1.500
%
G90
G05
T1
X64.556Y-28.0
X64.556Y-215.431
X65.556Y-28.0
X65.556Y-215.431
X66.556Y-28.0
X66.556Y-215.431
X67.556Y-28.0
X67.556Y-215.431
X68.556Y-28.0
X68.556Y-215.431
X73.245Y-43.905
X73.245Y-81.791
X73.245Y-119.677
X73.245Y-157.563
X73.245Y-195.45
X73.613Y-44.889
X73.613Y-82.775
X73.613Y-120.661
X73.613Y-158.548
X73.613Y-196.434
X73.981Y-45.873
X73.981Y-83.759
X73.981Y-121.646
X73.981Y-159.532
X73.981Y-197.418
X74.349Y-46.857
X74.349Y-84.743
X74.349Y-122.63
X74.349Y-160.516
X74.349Y-198.402
X74.717Y-47.841
X74.717Y-85.728
X74.717Y-123.614
X74.717Y-161.5
X74.717Y-199.386
X79.692Y-62.771
X79.692Y-100.657
X79.692Y-138.543
X79.692Y-176.43
X79.692Y-214.316
X79.776Y-30.151
X79.776Y-68.038
X79.776Y-105.924
X79.776Y-143.81
X79.776Y-181.696
X80.689Y-62.622
X80.689Y-100.509
X80.689Y-138.395
X80.689Y-176.281
X80.689Y-214.167
X80.769Y-29.914
X80.769Y-67.8
X80.769Y-105.686
X80.769Y-143.573
X80.769Y-181.459
X81.686Y-62.474
X81.686Y-100.36
X81.686Y-138.247
X81.686Y-176.133
X81.686Y-214.019
X81.762Y-29.676
X81.762Y-67.563
X81.762Y-105.449
X81.762Y-143.335
X81.762Y-181.221
X82.683Y-62.326
X82.683Y-100.212
X82.683Y-138.098
X82.683Y-175.984
X82.683Y-213.871
X82.755Y-29.439
X82.755Y-67.325
X82.755Y-105.211
X82.755Y-143.098
X82.755Y-180.984
X83.681Y-62.177
X83.681Y-100.064
X83.681Y-137.95
X83.681Y-175.836
X83.681Y-213.722
X83.748Y-29.202
X83.748Y-67.088
X83.748Y-104.974
X83.748Y-142.86
X83.748Y-180.746
X89.336Y-28.812
X89.336Y-66.698
X89.336Y-104.584
X89.336Y-142.47
X89.336Y-180.357
X89.362Y-60.562
X89.362Y-98.448
X89.362Y-136.335
X89.362Y-174.221
X89.362Y-212.107
X90.305Y-59.784
X90.305Y-97.67
X90.305Y-135.556
X90.305Y-173.443
X90.305Y-211.329
X90.317Y-29.222
X90.317Y-67.108
X90.317Y-104.994
X90.317Y-142.88
X90.317Y-180.767
X91.247Y-59.005
X91.247Y-96.892
X91.247Y-134.778
X91.247Y-172.664
X91.247Y-210.55
X91.298Y-29.632
X91.298Y-67.518
X91.298Y-105.404
X91.298Y-143.29
X91.298Y-181.177
X92.19Y-58.227
X92.19Y-96.113
X92.19Y-134.0
X92.19Y-171.886
X92.19Y-209.772
X92.278Y-30.042
X92.278Y-67.928
X92.278Y-105.814
X92.278Y-143.7
X92.278Y-181.586
X93.133Y-57.449
X93.133Y-95.335
X93.133Y-133.221
X93.133Y-171.107
X93.133Y-208.994
X93.259Y-30.451
X93.259Y-68.338
X93.259Y-106.224
X93.259Y-144.11
X93.259Y-181.996
X99.078Y-47.885
X99.078Y-85.771
X99.078Y-123.657
X99.078Y-161.543
X99.078Y-199.43
X99.31Y-46.891
X99.31Y-84.777
X99.31Y-122.664
X99.31Y-160.55
X99.31Y-198.436
X99.542Y-45.898
X99.542Y-83.784
X99.542Y-121.67
X99.542Y-159.556
X99.542Y-197.443
X99.773Y-44.904
X99.773Y-82.79
X99.773Y-120.677
X99.773Y-158.563
X99.773Y-196.449
X100.005Y-43.911
X100.005Y-81.797
X100.005Y-119.683
X100.005Y-157.569
X100.005Y-195.456
X104.222Y-43.905
X104.222Y-81.791
X104.222Y-119.677
X104.222Y-157.563
X104.222Y-195.45
X104.59Y-44.889
X104.59Y-82.775
X104.59Y-120.661
X104.59Y-158.548
X104.59Y-196.434
X104.959Y-45.873
X104.959Y-83.759
X104.959Y-121.646
X104.959Y-159.532
X104.959Y-197.418
X105.327Y-46.857
X105.327Y-84.743
X105.327Y-122.63
X105.327Y-160.516
X105.327Y-198.402
X105.695Y-47.841
X105.695Y-85.728
X105.695Y-123.614
X105.695Y-161.5
X105.695Y-199.386
X110.669Y-62.771
X110.669Y-100.657
X110.669Y-138.543
X110.669Y-176.43
X110.669Y-214.316
X110.753Y-30.151
X110.753Y-68.038
X110.753Y-105.924
X110.753Y-143.81
X110.753Y-181.696
X111.666Y-62.622
X111.666Y-100.509
X111.666Y-138.395
X111.666Y-176.281
X111.666Y-214.167
X111.746Y-29.914
X111.746Y-67.8
X111.746Y-105.686
X111.746Y-143.573
X111.746Y-181.459
X112.664Y-62.474
X112.664Y-100.36
X112.664Y-138.247
X112.664Y-176.133
X112.664Y-214.019
X112.739Y-29.676
X112.739Y-67.563
X112.739Y-105.449
X112.739Y-143.335
X112.739Y-181.221
X113.661Y-62.326
X113.661Y-100.212
X113.661Y-138.098
X113.661Y-175.984
X113.661Y-213.871
X113.733Y-29.439
X113.733Y-67.325
X113.733Y-105.211
X113.733Y-143.098
X113.733Y-180.984
X114.658Y-62.177
X114.658Y-100.064
X114.658Y-137.95
X114.658Y-175.836
X114.658Y-213.722
X114.726Y-29.202
X114.726Y-67.088
X114.726Y-104.974
X114.726Y-142.86
X114.726Y-180.746
X120.314Y-28.812
X120.314Y-66.698
X120.314Y-104.584
X120.314Y-142.47
X120.314Y-180.357
X120.339Y-60.562
X120.339Y-98.448
X120.339Y-136.335
X120.339Y-174.221
X120.339Y-212.107
X121.282Y-59.784
X121.282Y-97.67
X121.282Y-135.556
X121.282Y-173.443
X121.282Y-211.329
X121.294Y-29.222
X121.294Y-67.108
X121.294Y-104.994
X121.294Y-142.88
X121.294Y-180.767
X122.225Y-59.005
X122.225Y-96.892
X122.225Y-134.778
X122.225Y-172.664
X122.225Y-210.55
X122.275Y-29.632
X122.275Y-67.518
X122.275Y-105.404
X122.275Y-143.29
X122.275Y-181.177
X123.168Y-58.227
X123.168Y-96.113
X123.168Y-134.0
X123.168Y-171.886
X123.168Y-209.772
X123.256Y-30.042
X123.256Y-67.928
X123.256Y-105.814
X123.256Y-143.7
X123.256Y-181.586
X124.11Y-57.449
X124.11Y-95.335
X124.11Y-133.221
X124.11Y-171.107
X124.11Y-208.994
X124.236Y-30.451
X124.236Y-68.338
X124.236Y-106.224
X124.236Y-144.11
X124.236Y-181.996
X130.056Y-47.885
X130.056Y-85.771
X130.056Y-123.657
X130.056Y-161.543
X130.056Y-199.43
X130.287Y-46.891
X130.287Y-84.777
X130.287Y-122.664
X130.287Y-160.55
X130.287Y-198.436
X130.519Y-45.898
X130.519Y-83.784
X130.519Y-121.67
X130.519Y-159.556
X130.519Y-197.443
X130.751Y-44.904
X130.751Y-82.79
X130.751Y-120.677
X130.751Y-158.563
X130.751Y-196.449
X130.983Y-43.911
X130.983Y-81.797
X130.983Y-119.683
X130.983Y-157.569
X130.983Y-195.456
X135.2Y-43.905
X135.2Y-81.791
X135.2Y-119.677
X135.2Y-157.563
X135.2Y-195.45
X135.568Y-44.889
X135.568Y-82.775
X135.568Y-120.661
X135.568Y-158.548
X135.568Y-196.434
X135.936Y-45.873
X135.936Y-83.759
X135.936Y-121.646
X135.936Y-159.532
X135.936Y-197.418
X136.304Y-46.857
X136.304Y-84.743
X136.304Y-122.63
X136.304Y-160.516
X136.304Y-198.402
X136.672Y-47.841
X136.672Y-85.728
X136.672Y-123.614
X136.672Y-161.5
X136.672Y-199.386
X141.646Y-62.771
X141.646Y-100.657
X141.646Y-138.543
X141.646Y-176.43
X141.646Y-214.316
X141.731Y-30.151
X141.731Y-68.038
X141.731Y-105.924
X141.731Y-143.81
X141.731Y-181.696
X142.644Y-62.622
X142.644Y-100.509
X142.644Y-138.395
X142.644Y-176.281
X142.644Y-214.167
X142.724Y-29.914
X142.724Y-67.8
X142.724Y-105.686
X142.724Y-143.573
X142.724Y-181.459
X143.641Y-62.474
X143.641Y-100.36
X143.641Y-138.247
X143.641Y-176.133
X143.641Y-214.019
X143.717Y-29.676
X143.717Y-67.563
X143.717Y-105.449
X143.717Y-143.335
X143.717Y-181.221
X144.638Y-62.326
X144.638Y-100.212
X144.638Y-138.098
X144.638Y-175.984
X144.638Y-213.871
X144.71Y-29.439
X144.71Y-67.325
X144.71Y-105.211
X144.71Y-143.098
X144.71Y-180.984
X145.636Y-62.177
X145.636Y-100.064
X145.636Y-137.95
X145.636Y-175.836
X145.636Y-213.722
X145.703Y-29.202
X145.703Y-67.088
X145.703Y-104.974
X145.703Y-142.86
X145.703Y-180.746
X151.291Y-28.812
X151.291Y-66.698
X151.291Y-104.584
X151.291Y-142.47
X151.291Y-180.357
X151.317Y-60.562
X151.317Y-98.448
X151.317Y-136.335
X151.317Y-174.221
X151.317Y-212.107
X152.259Y-59.784
X152.259Y-97.67
X152.259Y-135.556
X152.259Y-173.443
X152.259Y-211.329
X152.272Y-29.222
X152.272Y-67.108
X152.272Y-104.994
X152.272Y-142.88
X152.272Y-180.767
X153.202Y-59.005
X153.202Y-96.892
X153.202Y-134.778
X153.202Y-172.664
X153.202Y-210.55
X153.252Y-29.632
X153.252Y-67.518
X153.252Y-105.404
X153.252Y-143.29
X153.252Y-181.177
X154.145Y-58.227
X154.145Y-96.113
X154.145Y-134.0
X154.145Y-171.886
X154.145Y-209.772
X154.233Y-30.042
X154.233Y-67.928
X154.233Y-105.814
X154.233Y-143.7
X154.233Y-181.586
X155.088Y-57.449
X155.088Y-95.335
X155.088Y-133.221
X155.088Y-171.107
X155.088Y-208.994
X155.214Y-30.451
X155.214Y-68.338
X155.214Y-106.224
X155.214Y-144.11
X155.214Y-181.996
X161.033Y-47.885
X161.033Y-85.771
X161.033Y-123.657
X161.033Y-161.543
X161.033Y-199.43
X161.265Y-46.891
X161.265Y-84.777
X161.265Y-122.664
X161.265Y-160.55
X161.265Y-198.436
X161.497Y-45.898
X161.497Y-83.784
X161.497Y-121.67
X161.497Y-159.556
X161.497Y-197.443
X161.728Y-44.904
X161.728Y-82.79
X161.728Y-120.677
X161.728Y-158.563
X161.728Y-196.449
X161.96Y-43.911
X161.96Y-81.797
X161.96Y-119.683
X161.96Y-157.569
X161.96Y-195.456
X166.177Y-43.905
X166.177Y-81.791
X166.177Y-119.677
X166.177Y-157.563
X166.177Y-195.45
X166.545Y-44.889
X166.545Y-82.775
X166.545Y-120.661
X166.545Y-158.548
X166.545Y-196.434
X166.913Y-45.873
X166.913Y-83.759
X166.913Y-121.646
X166.913Y-159.532
X166.913Y-197.418
X167.281Y-46.857
X167.281Y-84.743
X167.281Y-122.63
X167.281Y-160.516
X167.281Y-198.402
X167.65Y-47.841
X167.65Y-85.728
X167.65Y-123.614
X167.65Y-161.5
X167.65Y-199.386
X172.624Y-62.771
X172.624Y-100.657
X172.624Y-138.543
X172.624Y-176.43
X172.624Y-214.316
X172.708Y-30.151
X172.708Y-68.038
X172.708Y-105.924
X172.708Y-143.81
X172.708Y-181.696
X173.621Y-62.622
X173.621Y-100.509
X173.621Y-138.395
X173.621Y-176.281
X173.621Y-214.167
X173.701Y-29.914
X173.701Y-67.8
X173.701Y-105.686
X173.701Y-143.573
X173.701Y-181.459
X174.618Y-62.474
X174.618Y-100.36
X174.618Y-138.247
X174.618Y-176.133
X174.618Y-214.019
X174.694Y-29.676
X174.694Y-67.563
X174.694Y-105.449
X174.694Y-143.335
X174.694Y-181.221
X175.616Y-62.326
X175.616Y-100.212
X175.616Y-138.098
X175.616Y-175.984
X175.616Y-213.871
X175.688Y-29.439
X175.688Y-67.325
X175.688Y-105.211
X175.688Y-143.098
X175.688Y-180.984
X176.613Y-62.177
X176.613Y-100.064
X176.613Y-137.95
X176.613Y-175.836
X176.613Y-213.722
X176.681Y-29.202
X176.681Y-67.088
X176.681Y-104.974
X176.681Y-142.86
X176.681Y-180.746
X182.269Y-28.812
X182.269Y-66.698
X182.269Y-104.584
X182.269Y-142.47
X182.269Y-180.357
X182.294Y-60.562
X182.294Y-98.448
X182.294Y-136.335
X182.294Y-174.221
X182.294Y-212.107
X183.237Y-59.784
X183.237Y-97.67
X183.237Y-135.556
X183.237Y-173.443
X183.237Y-211.329
X183.249Y-29.222
X183.249Y-67.108
X183.249Y-104.994
X183.249Y-142.88
X183.249Y-180.767
X184.18Y-59.005
X184.18Y-96.892
X184.18Y-134.778
X184.18Y-172.664
X184.18Y-210.55
X184.23Y-29.632
X184.23Y-67.518
X184.23Y-105.404
X184.23Y-143.29
X184.23Y-181.177
X185.122Y-58.227
X185.122Y-96.113
X185.122Y-134.0
X185.122Y-171.886
X185.122Y-209.772
X185.211Y-30.042
X185.211Y-67.928
X185.211Y-105.814
X185.211Y-143.7
X185.211Y-181.586
X186.065Y-57.449
X186.065Y-95.335
X186.065Y-133.221
X186.065Y-171.107
X186.065Y-208.994
X186.191Y-30.451
X186.191Y-68.338
X186.191Y-106.224
X186.191Y-144.11
X186.191Y-181.996
X192.011Y-47.885
X192.011Y-85.771
X192.011Y-123.657
X192.011Y-161.543
X192.011Y-199.43
X192.242Y-46.891
X192.242Y-84.777
X192.242Y-122.664
X192.242Y-160.55
X192.242Y-198.436
X192.474Y-45.898
X192.474Y-83.784
X192.474Y-121.67
X192.474Y-159.556
X192.474Y-197.443
X192.706Y-44.904
X192.706Y-82.79
X192.706Y-120.677
X192.706Y-158.563
X192.706Y-196.449
X192.938Y-43.911
X192.938Y-81.797
X192.938Y-119.683
X192.938Y-157.569
X192.938Y-195.456
X197.155Y-43.905
X197.155Y-81.791
X197.155Y-119.677
X197.155Y-157.563
X197.155Y-195.45
X197.523Y-44.889
X197.523Y-82.775
X197.523Y-120.661
X197.523Y-158.548
X197.523Y-196.434
X197.891Y-45.873
X197.891Y-83.759
X197.891Y-121.646
X197.891Y-159.532
X197.891Y-197.418
X198.259Y-46.857
X198.259Y-84.743
X198.259Y-122.63
X198.259Y-160.516
X198.259Y-198.402
X198.627Y-47.841
X198.627Y-85.728
X198.627Y-123.614
X198.627Y-161.5
X198.627Y-199.386
X203.601Y-62.771
X203.601Y-100.657
X203.601Y-138.543
X203.601Y-176.43
X203.601Y-214.316
X203.686Y-30.151
X203.686Y-68.038
X203.686Y-105.924
X203.686Y-143.81
X203.686Y-181.696
X204.599Y-62.622
X204.599Y-100.509
X204.599Y-138.395
X204.599Y-176.281
X204.599Y-214.167
X204.679Y-29.914
X204.679Y-67.8
X204.679Y-105.686
X204.679Y-143.573
X204.679Y-181.459
X205.596Y-62.474
X205.596Y-100.36
X205.596Y-138.247
X205.596Y-176.133
X205.596Y-214.019
X205.672Y-29.676
X205.672Y-67.563
X205.672Y-105.449
X205.672Y-143.335
X205.672Y-181.221
X206.593Y-62.326
X206.593Y-100.212
X206.593Y-138.098
X206.593Y-175.984
X206.593Y-213.871
X206.665Y-29.439
X206.665Y-67.325
X206.665Y-105.211
X206.665Y-143.098
X206.665Y-180.984
X207.59Y-62.177
X207.59Y-100.064
X207.59Y-137.95
X207.59Y-175.836
X207.59Y-213.722
X207.658Y-29.202
X207.658Y-67.088
X207.658Y-104.974
X207.658Y-142.86
X207.658Y-180.746
X213.246Y-28.812
X213.246Y-66.698
X213.246Y-104.584
X213.246Y-142.47
X213.246Y-180.357
X213.272Y-60.562
X213.272Y-98.448
X213.272Y-136.335
X213.272Y-174.221
X213.272Y-212.107
X214.214Y-59.784
X214.214Y-97.67
X214.214Y-135.556
X214.214Y-173.443
X214.214Y-211.329
X214.227Y-29.222
X214.227Y-67.108
X214.227Y-104.994
X214.227Y-142.88
X214.227Y-180.767
X215.157Y-59.005
X215.157Y-96.892
X215.157Y-134.778
X215.157Y-172.664
X215.157Y-210.55
X215.207Y-29.632
X215.207Y-67.518
X215.207Y-105.404
X215.207Y-143.29
X215.207Y-181.177
X216.1Y-58.227
X216.1Y-96.113
X216.1Y-134.0
X216.1Y-171.886
X216.1Y-209.772
X216.188Y-30.042
X216.188Y-67.928
X216.188Y-105.814
X216.188Y-143.7
X216.188Y-181.586
X217.043Y-57.449
X217.043Y-95.335
X217.043Y-133.221
X217.043Y-171.107
X217.043Y-208.994
X217.169Y-30.451
X217.169Y-68.338
X217.169Y-106.224
X217.169Y-144.11
X217.169Y-181.996
X222.988Y-47.885
X222.988Y-85.771
X222.988Y-123.657
X222.988Y-161.543
X222.988Y-199.43
X223.22Y-46.891
X223.22Y-84.777
X223.22Y-122.664
X223.22Y-160.55
X223.22Y-198.436
X223.451Y-45.898
X223.451Y-83.784
X223.451Y-121.67
X223.451Y-159.556
X223.451Y-197.443
X223.683Y-44.904
X223.683Y-82.79
X223.683Y-120.677
X223.683Y-158.563
X223.683Y-196.449
X223.915Y-43.911
X223.915Y-81.797
X223.915Y-119.683
X223.915Y-157.569
X223.915Y-195.456
X228.444Y-28.0
X228.444Y-215.431
X229.444Y-28.0
X229.444Y-215.431
X230.444Y-28.0
X230.444Y-215.431
X231.444Y-28.0
X231.444Y-215.431
X232.444Y-28.0
X232.444Y-215.431
T2
X66.556Y-22.5
X66.556Y-220.931
X230.444Y-22.5
X230.444Y-220.931
M30
