%TF.GenerationSoftware,KiCad,Pcbnew,8.0.0*%
%TF.CreationDate,2024-07-14T16:28:40-05:00*%
%TF.ProjectId,Rick,5269636b-2e6b-4696-9361-645f70636258,rev?*%
%TF.SameCoordinates,Original*%
%TF.FileFunction,Legend,Top*%
%TF.FilePolarity,Positive*%
%FSLAX46Y46*%
G04 Gerber Fmt 4.6, Leading zero omitted, Abs format (unit mm)*
G04 Created by KiCad (PCBNEW 8.0.0) date 2024-07-14 16:28:40*
%MOMM*%
%LPD*%
G01*
G04 APERTURE LIST*
%ADD10C,0.100000*%
%ADD11C,0.150000*%
%ADD12C,0.120000*%
G04 APERTURE END LIST*
D10*
X152500000Y-63000000D02*
X188000000Y-63000000D01*
X188000000Y-97000000D01*
X152500000Y-97000000D01*
X152500000Y-63000000D01*
D11*
X175914819Y-67333333D02*
X176629104Y-67333333D01*
X176629104Y-67333333D02*
X176771961Y-67380952D01*
X176771961Y-67380952D02*
X176867200Y-67476190D01*
X176867200Y-67476190D02*
X176914819Y-67619047D01*
X176914819Y-67619047D02*
X176914819Y-67714285D01*
X176010057Y-66904761D02*
X175962438Y-66857142D01*
X175962438Y-66857142D02*
X175914819Y-66761904D01*
X175914819Y-66761904D02*
X175914819Y-66523809D01*
X175914819Y-66523809D02*
X175962438Y-66428571D01*
X175962438Y-66428571D02*
X176010057Y-66380952D01*
X176010057Y-66380952D02*
X176105295Y-66333333D01*
X176105295Y-66333333D02*
X176200533Y-66333333D01*
X176200533Y-66333333D02*
X176343390Y-66380952D01*
X176343390Y-66380952D02*
X176914819Y-66952380D01*
X176914819Y-66952380D02*
X176914819Y-66333333D01*
D12*
%TO.C,J2*%
X175460000Y-65670000D02*
X175460000Y-67000000D01*
X174130000Y-65670000D02*
X175460000Y-65670000D01*
X172860000Y-65670000D02*
X165180000Y-65670000D01*
X172860000Y-65670000D02*
X172860000Y-68330000D01*
X165180000Y-65670000D02*
X165180000Y-68330000D01*
X172860000Y-68330000D02*
X165180000Y-68330000D01*
%TD*%
M02*
