M48
; DRILL file {KiCad 8.0.0} date 2024-07-14T16:28:38-0500
; FORMAT={-:-/ absolute / inch / decimal}
; #@! TF.CreationDate,2024-07-14T16:28:38-05:00
; #@! TF.GenerationSoftware,Kicad,Pcbnew,8.0.0
; #@! TF.FileFunction,Plated,1,2,PTH
FMAT,2
INCH
; #@! TA.AperFunction,Plated,PTH,ViaDrill
T1C0.0118
; #@! TA.AperFunction,Plated,PTH,ComponentDrill
T2C0.0394
%
G90
G05
T1
X6.0433Y-3.8976
X6.063Y-2.9528
X6.1024Y-2.5984
X6.1811Y-3.3465
X6.2992Y-3.7008
X6.3543Y-2.8681
X6.378Y-2.6772
X6.4173Y-3.1102
X6.4213Y-3.937
X6.4567Y-3.7008
X6.6535Y-2.7559
X6.6535Y-2.9528
X6.6929Y-2.5197
X6.6929Y-3.3071
X6.7205Y-2.8346
X6.7323Y-2.9921
X6.7677Y-3.8937
X6.8504Y-3.189
X7.0118Y-2.8406
X7.0994Y-3.1506
X7.1024Y-3.1142
X7.1063Y-3.0748
X7.126Y-2.5591
T2
X6.5555Y-2.6378
X6.6555Y-2.6378
X6.7555Y-2.6378
X6.8555Y-2.6378
M30
