%TF.GenerationSoftware,KiCad,Pcbnew,8.0.0*%
%TF.CreationDate,2024-07-14T16:28:40-05:00*%
%TF.ProjectId,Rick,5269636b-2e6b-4696-9361-645f70636258,rev?*%
%TF.SameCoordinates,Original*%
%TF.FileFunction,Copper,L1,Top*%
%TF.FilePolarity,Positive*%
%FSLAX46Y46*%
G04 Gerber Fmt 4.6, Leading zero omitted, Abs format (unit mm)*
G04 Created by KiCad (PCBNEW 8.0.0) date 2024-07-14 16:28:40*
%MOMM*%
%LPD*%
G01*
G04 APERTURE LIST*
%TA.AperFunction,ComponentPad*%
%ADD10R,1.700000X1.700000*%
%TD*%
%TA.AperFunction,ComponentPad*%
%ADD11O,1.700000X1.700000*%
%TD*%
%TA.AperFunction,ViaPad*%
%ADD12C,0.600000*%
%TD*%
%TA.AperFunction,Conductor*%
%ADD13C,0.200000*%
%TD*%
G04 APERTURE END LIST*
D10*
%TO.P,J2,1,Pin_1*%
%TO.N,SDA*%
X174130000Y-67000000D03*
D11*
%TO.P,J2,2,Pin_2*%
%TO.N,SCL*%
X171590000Y-67000000D03*
%TO.P,J2,3,Pin_3*%
%TO.N,Net-(J2-Pin_3)*%
X169050000Y-67000000D03*
%TO.P,J2,4,Pin_4*%
%TO.N,Net-(J2-Pin_4)*%
X166510000Y-67000000D03*
%TD*%
D12*
%TO.N,VSS*%
X169000000Y-75000000D03*
%TO.N,*%
X169000000Y-70000000D03*
X162000000Y-68000000D03*
%TO.N,VSS*%
X155000000Y-66000000D03*
X154000000Y-75000000D03*
X157000000Y-85000000D03*
X160000000Y-94000000D03*
X164000000Y-94000000D03*
X170000000Y-84000000D03*
X171000000Y-76000000D03*
X174000000Y-81000000D03*
X181000000Y-65000000D03*
X170000000Y-64000000D03*
X163000000Y-79000000D03*
%TO.N,Net-(D3-A)*%
X180324265Y-80024265D03*
X171900000Y-98900000D03*
%TO.N,Net-(D2-A)*%
X180400000Y-79100000D03*
X163100000Y-100000000D03*
%TO.N,Net-(D1-A)*%
X153500000Y-99000000D03*
X180500000Y-78100000D03*
%TO.N,Net-(J2-Pin_4)*%
X161400000Y-72850000D03*
%TO.N,VCC*%
X170700000Y-72000000D03*
X178100000Y-72150000D03*
%TD*%
D13*
%TO.N,Net-(D3-A)*%
X180324265Y-80024265D02*
X171900000Y-88448530D01*
X171900000Y-88448530D02*
X171900000Y-98900000D01*
%TO.N,Net-(D2-A)*%
X162800000Y-90600000D02*
X162800000Y-91400000D01*
X165000000Y-88400000D02*
X162800000Y-90600000D01*
X180400000Y-79100000D02*
X171100000Y-88400000D01*
X171100000Y-88400000D02*
X165000000Y-88400000D01*
X162800000Y-91400000D02*
X162800000Y-99700000D01*
X162800000Y-99700000D02*
X163100000Y-100000000D01*
%TO.N,Net-(D1-A)*%
X154300000Y-98200000D02*
X154300000Y-93900000D01*
X153500000Y-99000000D02*
X154300000Y-98200000D01*
X154300000Y-93900000D02*
X160200000Y-88000000D01*
X160200000Y-88000000D02*
X170600000Y-88000000D01*
X170600000Y-88000000D02*
X180500000Y-78100000D01*
%TO.N,Net-(J2-Pin_4)*%
X161750000Y-72500000D02*
X161750000Y-71760000D01*
X161400000Y-72850000D02*
X161750000Y-72500000D01*
X161750000Y-71760000D02*
X166510000Y-67000000D01*
%TO.N,VCC*%
X170700000Y-72000000D02*
X177950000Y-72000000D01*
X177950000Y-72000000D02*
X178100000Y-72150000D01*
%TD*%
%TA.AperFunction,Conductor*%
%TO.N,VSS*%
G36*
X186504043Y-62500765D02*
G01*
X186752895Y-62517075D01*
X186768953Y-62519190D01*
X186976105Y-62560395D01*
X187009535Y-62567045D01*
X187025202Y-62571243D01*
X187194947Y-62628863D01*
X187257481Y-62650091D01*
X187272458Y-62656294D01*
X187481799Y-62759529D01*
X187492460Y-62764787D01*
X187506508Y-62772897D01*
X187710464Y-62909177D01*
X187723328Y-62919048D01*
X187907749Y-63080781D01*
X187919218Y-63092250D01*
X188080951Y-63276671D01*
X188090825Y-63289539D01*
X188227102Y-63493492D01*
X188235212Y-63507539D01*
X188343702Y-63727534D01*
X188349909Y-63742520D01*
X188428756Y-63974797D01*
X188432954Y-63990464D01*
X188480807Y-64231035D01*
X188482925Y-64247116D01*
X188499235Y-64495956D01*
X188499500Y-64504066D01*
X188499500Y-101495933D01*
X188499235Y-101504043D01*
X188482925Y-101752883D01*
X188480807Y-101768964D01*
X188432954Y-102009535D01*
X188428756Y-102025202D01*
X188349909Y-102257479D01*
X188343702Y-102272465D01*
X188235212Y-102492460D01*
X188227102Y-102506507D01*
X188090825Y-102710460D01*
X188080951Y-102723328D01*
X187919218Y-102907749D01*
X187907749Y-102919218D01*
X187723328Y-103080951D01*
X187710460Y-103090825D01*
X187506507Y-103227102D01*
X187492460Y-103235212D01*
X187272465Y-103343702D01*
X187257479Y-103349909D01*
X187025202Y-103428756D01*
X187009535Y-103432954D01*
X186768964Y-103480807D01*
X186752883Y-103482925D01*
X186504043Y-103499235D01*
X186495933Y-103499500D01*
X154105728Y-103499500D01*
X154105712Y-103499499D01*
X154036290Y-103499499D01*
X154028182Y-103499234D01*
X153779347Y-103482928D01*
X153763265Y-103480811D01*
X153522682Y-103432959D01*
X153507015Y-103428761D01*
X153274740Y-103349917D01*
X153259755Y-103343710D01*
X153039754Y-103235221D01*
X153025706Y-103227110D01*
X152821750Y-103090832D01*
X152808882Y-103080959D01*
X152624459Y-102919227D01*
X152612989Y-102907757D01*
X152451255Y-102723337D01*
X152441381Y-102710469D01*
X152305103Y-102506517D01*
X152296993Y-102492470D01*
X152188498Y-102272467D01*
X152182291Y-102257482D01*
X152182290Y-102257479D01*
X152103440Y-102025196D01*
X152099248Y-102009551D01*
X152051390Y-101768953D01*
X152049275Y-101752898D01*
X152032997Y-101504537D01*
X152032733Y-101496457D01*
X152032733Y-101426564D01*
X152032667Y-101425588D01*
X152031669Y-100279902D01*
X154699500Y-100279902D01*
X154740140Y-100536493D01*
X154820422Y-100783576D01*
X154901534Y-100942764D01*
X154938366Y-101015051D01*
X155091069Y-101225229D01*
X155274771Y-101408931D01*
X155484949Y-101561634D01*
X155632445Y-101636787D01*
X155716423Y-101679577D01*
X155716425Y-101679577D01*
X155716428Y-101679579D01*
X155963507Y-101759860D01*
X156095706Y-101780797D01*
X156220098Y-101800500D01*
X156220103Y-101800500D01*
X156479902Y-101800500D01*
X156593298Y-101782539D01*
X156736493Y-101759860D01*
X156983572Y-101679579D01*
X157215051Y-101561634D01*
X157425229Y-101408931D01*
X157608931Y-101225229D01*
X157761634Y-101015051D01*
X157879579Y-100783572D01*
X157959860Y-100536493D01*
X157989473Y-100349521D01*
X158000500Y-100279902D01*
X158000500Y-100020097D01*
X157964899Y-99795325D01*
X157959860Y-99763507D01*
X157879579Y-99516428D01*
X157879577Y-99516424D01*
X157879577Y-99516423D01*
X157821408Y-99402262D01*
X157761634Y-99284949D01*
X157608931Y-99074771D01*
X157425229Y-98891069D01*
X157215051Y-98738366D01*
X157142764Y-98701534D01*
X156983576Y-98620422D01*
X156736493Y-98540140D01*
X156479902Y-98499500D01*
X156479897Y-98499500D01*
X156220103Y-98499500D01*
X156220098Y-98499500D01*
X155963506Y-98540140D01*
X155716423Y-98620422D01*
X155484945Y-98738368D01*
X155274774Y-98891066D01*
X155274768Y-98891071D01*
X155091071Y-99074768D01*
X155091066Y-99074774D01*
X154938368Y-99284945D01*
X154820422Y-99516423D01*
X154740140Y-99763506D01*
X154699500Y-100020097D01*
X154699500Y-100279902D01*
X152031669Y-100279902D01*
X152030554Y-99000003D01*
X152694435Y-99000003D01*
X152714630Y-99179249D01*
X152714631Y-99179254D01*
X152774211Y-99349523D01*
X152867341Y-99497737D01*
X152870184Y-99502262D01*
X152997738Y-99629816D01*
X153150478Y-99725789D01*
X153258267Y-99763506D01*
X153320745Y-99785368D01*
X153320750Y-99785369D01*
X153499996Y-99805565D01*
X153500000Y-99805565D01*
X153500004Y-99805565D01*
X153679249Y-99785369D01*
X153679252Y-99785368D01*
X153679255Y-99785368D01*
X153849522Y-99725789D01*
X154002262Y-99629816D01*
X154129816Y-99502262D01*
X154225789Y-99349522D01*
X154285368Y-99179255D01*
X154295161Y-99092329D01*
X154322226Y-99027918D01*
X154330690Y-99018543D01*
X154658506Y-98690728D01*
X154658511Y-98690724D01*
X154668714Y-98680520D01*
X154668716Y-98680520D01*
X154780520Y-98568716D01*
X154842873Y-98460717D01*
X154859577Y-98431785D01*
X154900501Y-98279057D01*
X154900501Y-98120943D01*
X154900501Y-98113348D01*
X154900500Y-98113330D01*
X154900500Y-94200097D01*
X154920185Y-94133058D01*
X154936819Y-94112416D01*
X160412416Y-88636819D01*
X160473739Y-88603334D01*
X160500097Y-88600500D01*
X163650903Y-88600500D01*
X163717942Y-88620185D01*
X163763697Y-88672989D01*
X163773641Y-88742147D01*
X163744616Y-88805703D01*
X163738584Y-88812181D01*
X162431286Y-90119478D01*
X162319481Y-90231282D01*
X162319479Y-90231285D01*
X162269361Y-90318094D01*
X162269359Y-90318096D01*
X162240425Y-90368209D01*
X162240424Y-90368210D01*
X162240423Y-90368215D01*
X162199499Y-90520943D01*
X162199499Y-90520945D01*
X162199499Y-90689046D01*
X162199500Y-90689059D01*
X162199500Y-99613330D01*
X162199499Y-99613348D01*
X162199499Y-99779054D01*
X162199498Y-99779054D01*
X162199499Y-99779057D01*
X162240423Y-99931785D01*
X162269358Y-99981901D01*
X162269359Y-99981905D01*
X162269361Y-99981905D01*
X162285046Y-100009074D01*
X162300877Y-100057187D01*
X162314630Y-100179249D01*
X162374210Y-100349521D01*
X162374211Y-100349522D01*
X162470184Y-100502262D01*
X162597738Y-100629816D01*
X162750478Y-100725789D01*
X162915612Y-100783572D01*
X162920745Y-100785368D01*
X162920750Y-100785369D01*
X163099996Y-100805565D01*
X163100000Y-100805565D01*
X163100004Y-100805565D01*
X163279249Y-100785369D01*
X163279252Y-100785368D01*
X163279255Y-100785368D01*
X163449522Y-100725789D01*
X163602262Y-100629816D01*
X163729816Y-100502262D01*
X163824177Y-100352086D01*
X163876509Y-100305798D01*
X163945563Y-100295149D01*
X164009411Y-100323524D01*
X164047784Y-100381914D01*
X164051642Y-100398663D01*
X164073472Y-100536493D01*
X164153755Y-100783576D01*
X164234867Y-100942764D01*
X164271699Y-101015051D01*
X164424402Y-101225229D01*
X164608104Y-101408931D01*
X164818282Y-101561634D01*
X164965778Y-101636787D01*
X165049756Y-101679577D01*
X165049758Y-101679577D01*
X165049761Y-101679579D01*
X165296840Y-101759860D01*
X165429039Y-101780797D01*
X165553431Y-101800500D01*
X165553436Y-101800500D01*
X165813235Y-101800500D01*
X165926631Y-101782539D01*
X166069826Y-101759860D01*
X166316905Y-101679579D01*
X166548384Y-101561634D01*
X166758562Y-101408931D01*
X166942264Y-101225229D01*
X167094967Y-101015051D01*
X167212912Y-100783572D01*
X167293193Y-100536493D01*
X167322806Y-100349521D01*
X167333833Y-100279902D01*
X173366166Y-100279902D01*
X173406806Y-100536493D01*
X173487088Y-100783576D01*
X173568200Y-100942764D01*
X173605032Y-101015051D01*
X173757735Y-101225229D01*
X173941437Y-101408931D01*
X174151615Y-101561634D01*
X174299111Y-101636787D01*
X174383089Y-101679577D01*
X174383091Y-101679577D01*
X174383094Y-101679579D01*
X174630173Y-101759860D01*
X174762372Y-101780797D01*
X174886764Y-101800500D01*
X174886769Y-101800500D01*
X175146568Y-101800500D01*
X175259964Y-101782539D01*
X175403159Y-101759860D01*
X175650238Y-101679579D01*
X175881717Y-101561634D01*
X176091895Y-101408931D01*
X176275597Y-101225229D01*
X176428300Y-101015051D01*
X176546245Y-100783572D01*
X176626526Y-100536493D01*
X176656139Y-100349521D01*
X176667166Y-100279902D01*
X182699500Y-100279902D01*
X182740140Y-100536493D01*
X182820422Y-100783576D01*
X182901534Y-100942764D01*
X182938366Y-101015051D01*
X183091069Y-101225229D01*
X183274771Y-101408931D01*
X183484949Y-101561634D01*
X183632445Y-101636787D01*
X183716423Y-101679577D01*
X183716425Y-101679577D01*
X183716428Y-101679579D01*
X183963507Y-101759860D01*
X184095706Y-101780797D01*
X184220098Y-101800500D01*
X184220103Y-101800500D01*
X184479902Y-101800500D01*
X184593298Y-101782539D01*
X184736493Y-101759860D01*
X184983572Y-101679579D01*
X185215051Y-101561634D01*
X185425229Y-101408931D01*
X185608931Y-101225229D01*
X185761634Y-101015051D01*
X185879579Y-100783572D01*
X185959860Y-100536493D01*
X185989473Y-100349521D01*
X186000500Y-100279902D01*
X186000500Y-100020097D01*
X185964899Y-99795325D01*
X185959860Y-99763507D01*
X185879579Y-99516428D01*
X185879577Y-99516424D01*
X185879577Y-99516423D01*
X185821408Y-99402262D01*
X185761634Y-99284949D01*
X185608931Y-99074771D01*
X185425229Y-98891069D01*
X185215051Y-98738366D01*
X185142764Y-98701534D01*
X184983576Y-98620422D01*
X184736493Y-98540140D01*
X184479902Y-98499500D01*
X184479897Y-98499500D01*
X184220103Y-98499500D01*
X184220098Y-98499500D01*
X183963506Y-98540140D01*
X183716423Y-98620422D01*
X183484945Y-98738368D01*
X183274774Y-98891066D01*
X183274768Y-98891071D01*
X183091071Y-99074768D01*
X183091066Y-99074774D01*
X182938368Y-99284945D01*
X182820422Y-99516423D01*
X182740140Y-99763506D01*
X182699500Y-100020097D01*
X182699500Y-100279902D01*
X176667166Y-100279902D01*
X176667166Y-100020097D01*
X176631565Y-99795325D01*
X176626526Y-99763507D01*
X176546245Y-99516428D01*
X176546243Y-99516424D01*
X176546243Y-99516423D01*
X176488074Y-99402262D01*
X176428300Y-99284949D01*
X176275597Y-99074771D01*
X176091895Y-98891069D01*
X175881717Y-98738366D01*
X175809430Y-98701534D01*
X175650242Y-98620422D01*
X175403159Y-98540140D01*
X175146568Y-98499500D01*
X175146563Y-98499500D01*
X174886769Y-98499500D01*
X174886764Y-98499500D01*
X174630172Y-98540140D01*
X174383089Y-98620422D01*
X174151611Y-98738368D01*
X173941440Y-98891066D01*
X173941434Y-98891071D01*
X173757737Y-99074768D01*
X173757732Y-99074774D01*
X173605034Y-99284945D01*
X173487088Y-99516423D01*
X173406806Y-99763506D01*
X173366166Y-100020097D01*
X173366166Y-100279902D01*
X167333833Y-100279902D01*
X167333833Y-100020097D01*
X167298232Y-99795325D01*
X167293193Y-99763507D01*
X167212912Y-99516428D01*
X167212910Y-99516424D01*
X167212910Y-99516423D01*
X167154741Y-99402262D01*
X167094967Y-99284949D01*
X166942264Y-99074771D01*
X166758562Y-98891069D01*
X166548384Y-98738366D01*
X166476097Y-98701534D01*
X166316909Y-98620422D01*
X166069826Y-98540140D01*
X165813235Y-98499500D01*
X165813230Y-98499500D01*
X165553436Y-98499500D01*
X165553431Y-98499500D01*
X165296839Y-98540140D01*
X165049756Y-98620422D01*
X164818278Y-98738368D01*
X164608107Y-98891066D01*
X164608101Y-98891071D01*
X164424404Y-99074768D01*
X164424399Y-99074774D01*
X164271701Y-99284945D01*
X164153755Y-99516424D01*
X164086839Y-99722367D01*
X164047401Y-99780042D01*
X163983042Y-99807240D01*
X163914196Y-99795325D01*
X163862720Y-99748080D01*
X163851866Y-99725002D01*
X163825789Y-99650478D01*
X163749971Y-99529815D01*
X163729816Y-99497738D01*
X163602262Y-99370184D01*
X163602260Y-99370182D01*
X163458527Y-99279868D01*
X163412237Y-99227534D01*
X163400500Y-99174875D01*
X163400500Y-90900097D01*
X163420185Y-90833058D01*
X163436819Y-90812416D01*
X165212416Y-89036819D01*
X165273739Y-89003334D01*
X165300097Y-89000500D01*
X171013331Y-89000500D01*
X171013347Y-89000501D01*
X171175500Y-89000501D01*
X171242539Y-89020186D01*
X171288294Y-89072990D01*
X171299500Y-89124501D01*
X171299500Y-98317587D01*
X171279815Y-98384626D01*
X171272450Y-98394896D01*
X171270186Y-98397734D01*
X171174211Y-98550476D01*
X171114631Y-98720745D01*
X171114630Y-98720750D01*
X171094435Y-98899996D01*
X171094435Y-98900003D01*
X171114630Y-99079249D01*
X171114631Y-99079254D01*
X171174211Y-99249523D01*
X171237045Y-99349522D01*
X171270184Y-99402262D01*
X171397738Y-99529816D01*
X171488080Y-99586582D01*
X171542765Y-99620943D01*
X171550478Y-99625789D01*
X171720745Y-99685368D01*
X171720750Y-99685369D01*
X171899996Y-99705565D01*
X171900000Y-99705565D01*
X171900004Y-99705565D01*
X172079249Y-99685369D01*
X172079252Y-99685368D01*
X172079255Y-99685368D01*
X172249522Y-99625789D01*
X172402262Y-99529816D01*
X172529816Y-99402262D01*
X172625789Y-99249522D01*
X172685368Y-99079255D01*
X172685873Y-99074774D01*
X172705565Y-98900003D01*
X172705565Y-98899996D01*
X172685369Y-98720750D01*
X172685368Y-98720745D01*
X172671293Y-98680520D01*
X172625789Y-98550478D01*
X172529816Y-98397738D01*
X172529814Y-98397736D01*
X172529813Y-98397734D01*
X172527550Y-98394896D01*
X172526659Y-98392715D01*
X172526111Y-98391842D01*
X172526264Y-98391745D01*
X172501144Y-98330209D01*
X172500500Y-98317587D01*
X172500500Y-88748626D01*
X172520185Y-88681587D01*
X172536814Y-88660950D01*
X180342800Y-80854963D01*
X180404121Y-80821480D01*
X180416576Y-80819428D01*
X180503520Y-80809633D01*
X180673787Y-80750054D01*
X180826527Y-80654081D01*
X180954081Y-80526527D01*
X181050054Y-80373787D01*
X181109633Y-80203520D01*
X181129830Y-80024265D01*
X181109633Y-79845010D01*
X181109632Y-79845008D01*
X181109631Y-79845002D01*
X181047754Y-79668170D01*
X181049649Y-79667506D01*
X181039893Y-79608291D01*
X181057972Y-79557451D01*
X181125789Y-79449522D01*
X181185368Y-79279255D01*
X181205565Y-79100000D01*
X181185368Y-78920745D01*
X181125789Y-78750478D01*
X181122286Y-78744903D01*
X181103284Y-78677666D01*
X181123650Y-78610831D01*
X181129512Y-78602745D01*
X181129814Y-78602263D01*
X181129816Y-78602262D01*
X181225789Y-78449522D01*
X181285368Y-78279255D01*
X181305565Y-78100000D01*
X181302419Y-78072082D01*
X181285369Y-77920750D01*
X181285368Y-77920745D01*
X181225788Y-77750476D01*
X181129815Y-77597737D01*
X181002262Y-77470184D01*
X180849523Y-77374211D01*
X180679254Y-77314631D01*
X180679249Y-77314630D01*
X180500004Y-77294435D01*
X180499996Y-77294435D01*
X180320750Y-77314630D01*
X180320745Y-77314631D01*
X180150476Y-77374211D01*
X179997737Y-77470184D01*
X179870184Y-77597737D01*
X179774210Y-77750478D01*
X179714630Y-77920750D01*
X179704837Y-78007668D01*
X179677770Y-78072082D01*
X179669298Y-78081465D01*
X170387584Y-87363181D01*
X170326261Y-87396666D01*
X170299903Y-87399500D01*
X160286669Y-87399500D01*
X160286653Y-87399499D01*
X160279057Y-87399499D01*
X160120943Y-87399499D01*
X160013587Y-87428265D01*
X159968210Y-87440424D01*
X159968209Y-87440425D01*
X159918096Y-87469359D01*
X159918095Y-87469360D01*
X159874689Y-87494420D01*
X159831285Y-87519479D01*
X159831282Y-87519481D01*
X153819481Y-93531282D01*
X153819479Y-93531285D01*
X153769361Y-93618094D01*
X153769359Y-93618096D01*
X153740425Y-93668209D01*
X153740424Y-93668210D01*
X153740423Y-93668215D01*
X153699499Y-93820943D01*
X153699499Y-93820945D01*
X153699499Y-93989046D01*
X153699500Y-93989059D01*
X153699500Y-97899902D01*
X153679815Y-97966941D01*
X153663181Y-97987583D01*
X153481465Y-98169298D01*
X153420142Y-98202783D01*
X153407668Y-98204837D01*
X153320750Y-98214630D01*
X153150478Y-98274210D01*
X152997737Y-98370184D01*
X152870184Y-98497737D01*
X152774211Y-98650476D01*
X152714631Y-98820745D01*
X152714630Y-98820750D01*
X152694435Y-98999996D01*
X152694435Y-99000003D01*
X152030554Y-99000003D01*
X152007774Y-72850003D01*
X160594435Y-72850003D01*
X160614630Y-73029249D01*
X160614631Y-73029254D01*
X160674211Y-73199523D01*
X160770184Y-73352262D01*
X160897738Y-73479816D01*
X161050478Y-73575789D01*
X161220745Y-73635368D01*
X161220750Y-73635369D01*
X161399996Y-73655565D01*
X161400000Y-73655565D01*
X161400004Y-73655565D01*
X161579249Y-73635369D01*
X161579252Y-73635368D01*
X161579255Y-73635368D01*
X161749522Y-73575789D01*
X161902262Y-73479816D01*
X162029816Y-73352262D01*
X162125789Y-73199522D01*
X162185368Y-73029255D01*
X162195161Y-72942330D01*
X162222226Y-72877920D01*
X162230418Y-72868847D01*
X162230514Y-72868721D01*
X162230520Y-72868716D01*
X162309577Y-72731784D01*
X162350501Y-72579057D01*
X162350501Y-72420942D01*
X162350501Y-72413347D01*
X162350500Y-72413329D01*
X162350500Y-72060097D01*
X162368146Y-72000003D01*
X169894435Y-72000003D01*
X169914630Y-72179249D01*
X169914631Y-72179254D01*
X169974211Y-72349523D01*
X170019087Y-72420942D01*
X170070184Y-72502262D01*
X170197738Y-72629816D01*
X170350478Y-72725789D01*
X170504878Y-72779816D01*
X170520745Y-72785368D01*
X170520750Y-72785369D01*
X170699996Y-72805565D01*
X170700000Y-72805565D01*
X170700004Y-72805565D01*
X170879249Y-72785369D01*
X170879252Y-72785368D01*
X170879255Y-72785368D01*
X171049522Y-72725789D01*
X171202262Y-72629816D01*
X171202267Y-72629810D01*
X171205097Y-72627555D01*
X171207275Y-72626665D01*
X171208158Y-72626111D01*
X171208255Y-72626265D01*
X171269783Y-72601145D01*
X171282412Y-72600500D01*
X177369190Y-72600500D01*
X177436229Y-72620185D01*
X177466135Y-72647185D01*
X177470183Y-72652261D01*
X177470184Y-72652262D01*
X177597738Y-72779816D01*
X177688080Y-72836582D01*
X177739216Y-72868713D01*
X177750478Y-72875789D01*
X177817429Y-72899216D01*
X177920745Y-72935368D01*
X177920750Y-72935369D01*
X178099996Y-72955565D01*
X178100000Y-72955565D01*
X178100004Y-72955565D01*
X178279249Y-72935369D01*
X178279252Y-72935368D01*
X178279255Y-72935368D01*
X178449522Y-72875789D01*
X178602262Y-72779816D01*
X178729816Y-72652262D01*
X178825789Y-72499522D01*
X178885368Y-72329255D01*
X178885369Y-72329249D01*
X178905565Y-72150003D01*
X178905565Y-72149996D01*
X178885369Y-71970750D01*
X178885368Y-71970745D01*
X178842788Y-71849059D01*
X178825789Y-71800478D01*
X178729816Y-71647738D01*
X178602262Y-71520184D01*
X178449523Y-71424211D01*
X178279254Y-71364631D01*
X178279249Y-71364630D01*
X178100004Y-71344435D01*
X178099996Y-71344435D01*
X177920750Y-71364630D01*
X177920745Y-71364631D01*
X177840983Y-71392542D01*
X177800028Y-71399500D01*
X171282412Y-71399500D01*
X171215373Y-71379815D01*
X171205097Y-71372445D01*
X171202263Y-71370185D01*
X171202262Y-71370184D01*
X171057908Y-71279480D01*
X171049523Y-71274211D01*
X170879254Y-71214631D01*
X170879249Y-71214630D01*
X170700004Y-71194435D01*
X170699996Y-71194435D01*
X170520750Y-71214630D01*
X170520745Y-71214631D01*
X170350476Y-71274211D01*
X170197737Y-71370184D01*
X170070184Y-71497737D01*
X169974211Y-71650476D01*
X169914631Y-71820745D01*
X169914630Y-71820750D01*
X169894435Y-71999996D01*
X169894435Y-72000003D01*
X162368146Y-72000003D01*
X162370185Y-71993058D01*
X162386819Y-71972416D01*
X164179986Y-70179249D01*
X164359232Y-70000003D01*
X168194435Y-70000003D01*
X168214630Y-70179249D01*
X168214631Y-70179254D01*
X168274211Y-70349523D01*
X168370184Y-70502262D01*
X168497738Y-70629816D01*
X168650478Y-70725789D01*
X168820745Y-70785368D01*
X168820750Y-70785369D01*
X168999996Y-70805565D01*
X169000000Y-70805565D01*
X169000004Y-70805565D01*
X169179249Y-70785369D01*
X169179252Y-70785368D01*
X169179255Y-70785368D01*
X169349522Y-70725789D01*
X169502262Y-70629816D01*
X169629816Y-70502262D01*
X169725789Y-70349522D01*
X169785368Y-70179255D01*
X169805565Y-70000000D01*
X169785368Y-69820745D01*
X169725789Y-69650478D01*
X169629816Y-69497738D01*
X169502262Y-69370184D01*
X169349523Y-69274211D01*
X169179254Y-69214631D01*
X169179249Y-69214630D01*
X169000004Y-69194435D01*
X168999996Y-69194435D01*
X168820750Y-69214630D01*
X168820745Y-69214631D01*
X168650476Y-69274211D01*
X168497737Y-69370184D01*
X168370184Y-69497737D01*
X168274211Y-69650476D01*
X168214631Y-69820745D01*
X168214630Y-69820750D01*
X168194435Y-69999996D01*
X168194435Y-70000003D01*
X164359232Y-70000003D01*
X166026470Y-68332764D01*
X166087791Y-68299281D01*
X166146242Y-68300672D01*
X166201990Y-68315609D01*
X166274592Y-68335063D01*
X166451034Y-68350500D01*
X166509999Y-68355659D01*
X166510000Y-68355659D01*
X166510001Y-68355659D01*
X166568966Y-68350500D01*
X166745408Y-68335063D01*
X166973663Y-68273903D01*
X167187830Y-68174035D01*
X167381401Y-68038495D01*
X167548495Y-67871401D01*
X167678425Y-67685842D01*
X167733002Y-67642217D01*
X167802500Y-67635023D01*
X167864855Y-67666546D01*
X167881575Y-67685842D01*
X167976038Y-67820750D01*
X168011505Y-67871401D01*
X168178599Y-68038495D01*
X168275384Y-68106265D01*
X168372165Y-68174032D01*
X168372167Y-68174033D01*
X168372170Y-68174035D01*
X168586337Y-68273903D01*
X168814592Y-68335063D01*
X168991034Y-68350500D01*
X169049999Y-68355659D01*
X169050000Y-68355659D01*
X169050001Y-68355659D01*
X169108966Y-68350500D01*
X169285408Y-68335063D01*
X169513663Y-68273903D01*
X169727830Y-68174035D01*
X169921401Y-68038495D01*
X170088495Y-67871401D01*
X170218425Y-67685842D01*
X170273002Y-67642217D01*
X170342500Y-67635023D01*
X170404855Y-67666546D01*
X170421575Y-67685842D01*
X170516038Y-67820750D01*
X170551505Y-67871401D01*
X170718599Y-68038495D01*
X170815384Y-68106265D01*
X170912165Y-68174032D01*
X170912167Y-68174033D01*
X170912170Y-68174035D01*
X171126337Y-68273903D01*
X171354592Y-68335063D01*
X171531034Y-68350500D01*
X171589999Y-68355659D01*
X171590000Y-68355659D01*
X171590001Y-68355659D01*
X171648966Y-68350500D01*
X171825408Y-68335063D01*
X172053663Y-68273903D01*
X172267830Y-68174035D01*
X172461401Y-68038495D01*
X172583329Y-67916566D01*
X172644648Y-67883084D01*
X172714340Y-67888068D01*
X172770274Y-67929939D01*
X172787189Y-67960917D01*
X172836202Y-68092328D01*
X172836206Y-68092335D01*
X172922452Y-68207544D01*
X172922455Y-68207547D01*
X173037664Y-68293793D01*
X173037671Y-68293797D01*
X173172517Y-68344091D01*
X173172516Y-68344091D01*
X173179444Y-68344835D01*
X173232127Y-68350500D01*
X175027872Y-68350499D01*
X175087483Y-68344091D01*
X175222331Y-68293796D01*
X175337546Y-68207546D01*
X175423796Y-68092331D01*
X175474091Y-67957483D01*
X175480500Y-67897873D01*
X175480499Y-66102128D01*
X175474091Y-66042517D01*
X175472810Y-66039083D01*
X175423797Y-65907671D01*
X175423793Y-65907664D01*
X175337547Y-65792455D01*
X175337544Y-65792452D01*
X175222335Y-65706206D01*
X175222328Y-65706202D01*
X175087482Y-65655908D01*
X175087483Y-65655908D01*
X175027883Y-65649501D01*
X175027881Y-65649500D01*
X175027873Y-65649500D01*
X175027864Y-65649500D01*
X173232129Y-65649500D01*
X173232123Y-65649501D01*
X173172516Y-65655908D01*
X173037671Y-65706202D01*
X173037664Y-65706206D01*
X172922455Y-65792452D01*
X172922452Y-65792455D01*
X172836206Y-65907664D01*
X172836203Y-65907669D01*
X172787189Y-66039083D01*
X172745317Y-66095016D01*
X172679853Y-66119433D01*
X172611580Y-66104581D01*
X172583326Y-66083430D01*
X172461402Y-65961506D01*
X172461395Y-65961501D01*
X172267834Y-65825967D01*
X172267830Y-65825965D01*
X172267828Y-65825964D01*
X172053663Y-65726097D01*
X172053659Y-65726096D01*
X172053655Y-65726094D01*
X171825413Y-65664938D01*
X171825403Y-65664936D01*
X171590001Y-65644341D01*
X171589999Y-65644341D01*
X171354596Y-65664936D01*
X171354586Y-65664938D01*
X171126344Y-65726094D01*
X171126335Y-65726098D01*
X170912171Y-65825964D01*
X170912169Y-65825965D01*
X170718597Y-65961505D01*
X170551505Y-66128597D01*
X170421575Y-66314158D01*
X170366998Y-66357783D01*
X170297500Y-66364977D01*
X170235145Y-66333454D01*
X170218425Y-66314158D01*
X170088494Y-66128597D01*
X169921402Y-65961506D01*
X169921395Y-65961501D01*
X169727834Y-65825967D01*
X169727830Y-65825965D01*
X169727828Y-65825964D01*
X169513663Y-65726097D01*
X169513659Y-65726096D01*
X169513655Y-65726094D01*
X169285413Y-65664938D01*
X169285403Y-65664936D01*
X169050001Y-65644341D01*
X169049999Y-65644341D01*
X168814596Y-65664936D01*
X168814586Y-65664938D01*
X168586344Y-65726094D01*
X168586335Y-65726098D01*
X168372171Y-65825964D01*
X168372169Y-65825965D01*
X168178597Y-65961505D01*
X168011505Y-66128597D01*
X167881575Y-66314158D01*
X167826998Y-66357783D01*
X167757500Y-66364977D01*
X167695145Y-66333454D01*
X167678425Y-66314158D01*
X167548494Y-66128597D01*
X167381402Y-65961506D01*
X167381395Y-65961501D01*
X167187834Y-65825967D01*
X167187830Y-65825965D01*
X167187828Y-65825964D01*
X166973663Y-65726097D01*
X166973659Y-65726096D01*
X166973655Y-65726094D01*
X166745413Y-65664938D01*
X166745403Y-65664936D01*
X166510001Y-65644341D01*
X166509999Y-65644341D01*
X166274596Y-65664936D01*
X166274586Y-65664938D01*
X166046344Y-65726094D01*
X166046335Y-65726098D01*
X165832171Y-65825964D01*
X165832169Y-65825965D01*
X165638597Y-65961505D01*
X165471505Y-66128597D01*
X165335965Y-66322169D01*
X165335964Y-66322171D01*
X165236098Y-66536335D01*
X165236094Y-66536344D01*
X165174938Y-66764586D01*
X165174936Y-66764596D01*
X165154341Y-66999999D01*
X165154341Y-67000000D01*
X165174936Y-67235403D01*
X165174938Y-67235413D01*
X165209327Y-67363755D01*
X165207664Y-67433605D01*
X165177233Y-67483529D01*
X161381286Y-71279478D01*
X161269480Y-71391283D01*
X161267023Y-71395539D01*
X161264737Y-71399500D01*
X161190423Y-71528215D01*
X161149499Y-71680943D01*
X161149499Y-71680945D01*
X161149499Y-71849046D01*
X161149500Y-71849059D01*
X161149500Y-72001579D01*
X161129815Y-72068618D01*
X161077011Y-72114373D01*
X161066464Y-72118616D01*
X161058388Y-72121442D01*
X161050474Y-72124212D01*
X160897737Y-72220184D01*
X160770184Y-72347737D01*
X160674211Y-72500476D01*
X160614631Y-72670745D01*
X160614630Y-72670750D01*
X160594435Y-72849996D01*
X160594435Y-72850003D01*
X152007774Y-72850003D01*
X152003549Y-68000003D01*
X161194435Y-68000003D01*
X161214630Y-68179249D01*
X161214631Y-68179254D01*
X161274211Y-68349523D01*
X161278067Y-68355659D01*
X161370184Y-68502262D01*
X161497738Y-68629816D01*
X161650478Y-68725789D01*
X161820745Y-68785368D01*
X161820750Y-68785369D01*
X161999996Y-68805565D01*
X162000000Y-68805565D01*
X162000004Y-68805565D01*
X162179249Y-68785369D01*
X162179252Y-68785368D01*
X162179255Y-68785368D01*
X162349522Y-68725789D01*
X162502262Y-68629816D01*
X162629816Y-68502262D01*
X162725789Y-68349522D01*
X162785368Y-68179255D01*
X162785956Y-68174035D01*
X162805565Y-68000003D01*
X162805565Y-67999996D01*
X162785369Y-67820750D01*
X162785368Y-67820745D01*
X162725788Y-67650476D01*
X162629815Y-67497737D01*
X162502262Y-67370184D01*
X162349523Y-67274211D01*
X162179254Y-67214631D01*
X162179249Y-67214630D01*
X162000004Y-67194435D01*
X161999996Y-67194435D01*
X161820750Y-67214630D01*
X161820745Y-67214631D01*
X161650476Y-67274211D01*
X161497737Y-67370184D01*
X161370184Y-67497737D01*
X161274211Y-67650476D01*
X161214631Y-67820745D01*
X161214630Y-67820750D01*
X161194435Y-67999996D01*
X161194435Y-68000003D01*
X152003549Y-68000003D01*
X152000503Y-64504102D01*
X152000767Y-64495919D01*
X152017075Y-64247102D01*
X152019190Y-64231048D01*
X152067045Y-63990462D01*
X152071243Y-63974797D01*
X152094337Y-63906762D01*
X152150093Y-63742512D01*
X152156291Y-63727547D01*
X152264790Y-63507533D01*
X152272893Y-63493498D01*
X152409182Y-63289527D01*
X152419039Y-63276681D01*
X152580786Y-63092244D01*
X152592244Y-63080786D01*
X152776681Y-62919039D01*
X152789527Y-62909182D01*
X152993498Y-62772893D01*
X153007533Y-62764790D01*
X153227547Y-62656291D01*
X153242512Y-62650093D01*
X153406762Y-62594337D01*
X153474797Y-62571243D01*
X153490464Y-62567045D01*
X153731048Y-62519190D01*
X153747102Y-62517075D01*
X153995957Y-62500765D01*
X154004067Y-62500500D01*
X154065892Y-62500500D01*
X186434108Y-62500500D01*
X186495933Y-62500500D01*
X186504043Y-62500765D01*
G37*
%TD.AperFunction*%
%TD*%
M02*
