<?xml version="1.0" standalone="no"?>
 <!DOCTYPE svg PUBLIC "-//W3C//DTD SVG 1.1//EN" 
 "http://www.w3.org/Graphics/SVG/1.1/DTD/svg11.dtd"> 
<svg xmlns="http://www.w3.org/2000/svg" version="1.1" 
    width="29.7002cm" height="21.0007cm" viewBox="0 0 116930 82680 ">
<title>SVG Picture created as ZoraSapphire-brd.svg date 2020/06/15 20:52:53 </title>
  <desc>Picture generated by PCBNEW </desc>
<g style="fill:#000000; fill-opacity:1;stroke:#000000; stroke-opacity:1;
stroke-linecap:round; stroke-linejoin:round; "
 transform="translate(0 0) scale(1 1)">
</g>
<g style="fill:#000000; fill-opacity:0.0; 
stroke:#000000; stroke-width:-0.000393701; stroke-opacity:1; 
stroke-linecap:round; stroke-linejoin:round;">
</g>
<g style="fill:#000000; fill-opacity:0.0; 
stroke:#000000; stroke-width:39.3701; stroke-opacity:1; 
stroke-linecap:round; stroke-linejoin:round;">
</g>
<g style="fill:#000000; fill-opacity:0.0; 
stroke:#000000; stroke-width:59.0551; stroke-opacity:1; 
stroke-linecap:round; stroke-linejoin:round;">
<rect x="69685.9" y="65357.2" width="42519.7" height="12598.4" rx="0" />
</g>
<g style="fill:#000000; fill-opacity:0.0; 
stroke:#000000; stroke-width:39.3701; stroke-opacity:1; 
stroke-linecap:round; stroke-linejoin:round;">
</g>
<g style="fill:#000000; fill-opacity:0.0; 
stroke:#000000; stroke-width:59.0551; stroke-opacity:1; 
stroke-linecap:round; stroke-linejoin:round;">
<rect x="3937.01" y="3937.01" width="109056" height="74806" rx="0" />
</g>
<g style="fill:#000000; fill-opacity:0.0; 
stroke:#000000; stroke-width:39.3701; stroke-opacity:1; 
stroke-linecap:round; stroke-linejoin:round;">
</g>
<g style="fill:#000000; fill-opacity:0.0; 
stroke:#000000; stroke-width:59.0551; stroke-opacity:1; 
stroke-linecap:round; stroke-linejoin:round;">
<rect x="4724.41" y="4724.41" width="107481" height="73231.2" rx="0" />
</g>
<g style="fill:#000000; fill-opacity:0.0; 
stroke:#000000; stroke-width:39.3701; stroke-opacity:1; 
stroke-linecap:round; stroke-linejoin:round;">
</g>
<g style="fill:#000000; fill-opacity:0.0; 
stroke:#000000; stroke-width:59.0551; stroke-opacity:1; 
stroke-linecap:round; stroke-linejoin:round;">
<path d="M23622 4724
L23622 3937
" />
</g>
<g style="fill:#000000; fill-opacity:0.0; 
stroke:#000000; stroke-width:39.3701; stroke-opacity:1; 
stroke-linecap:round; stroke-linejoin:round;">
</g>
<g style="fill:#000000; fill-opacity:0.0; 
stroke:#000000; stroke-width:59.0551; stroke-opacity:1; 
stroke-linecap:round; stroke-linejoin:round;">
<path d="M43307 4724
L43307 3937
" />
</g>
<g style="fill:#000000; fill-opacity:0.0; 
stroke:#000000; stroke-width:39.3701; stroke-opacity:1; 
stroke-linecap:round; stroke-linejoin:round;">
</g>
<g style="fill:#000000; fill-opacity:0.0; 
stroke:#000000; stroke-width:59.0551; stroke-opacity:1; 
stroke-linecap:round; stroke-linejoin:round;">
<path d="M62992 4724
L62992 3937
" />
</g>
<g style="fill:#000000; fill-opacity:0.0; 
stroke:#000000; stroke-width:39.3701; stroke-opacity:1; 
stroke-linecap:round; stroke-linejoin:round;">
</g>
<g style="fill:#000000; fill-opacity:0.0; 
stroke:#000000; stroke-width:59.0551; stroke-opacity:1; 
stroke-linecap:round; stroke-linejoin:round;">
<path d="M82677 4724
L82677 3937
" />
</g>
<g style="fill:#000000; fill-opacity:0.0; 
stroke:#000000; stroke-width:39.3701; stroke-opacity:1; 
stroke-linecap:round; stroke-linejoin:round;">
</g>
<g style="fill:#000000; fill-opacity:0.0; 
stroke:#000000; stroke-width:59.0551; stroke-opacity:1; 
stroke-linecap:round; stroke-linejoin:round;">
<path d="M102362 4724
L102362 3937
" />
</g>
<g style="fill:#000000; fill-opacity:0.0; 
stroke:#000000; stroke-width:39.3701; stroke-opacity:1; 
stroke-linecap:round; stroke-linejoin:round;">
</g>
<g style="fill:#000000; fill-opacity:0.0; 
stroke:#000000; stroke-width:59.0551; stroke-opacity:1; 
stroke-linecap:round; stroke-linejoin:round;">
<text x="13779.5" y="4586.61"
textLength="546.494" font-size="682.415" lengthAdjust="spacingAndGlyphs"
text-anchor="start" opacity="0">1</text>
<path d="M14199 4562
L13906 4562
" />
<path d="M14052 4562
L14052 4050
L14004 4123
L13955 4172
L13906 4196
" />
</g>
<g style="fill:#000000; fill-opacity:0.0; 
stroke:#000000; stroke-width:39.3701; stroke-opacity:1; 
stroke-linecap:round; stroke-linejoin:round;">
</g>
<g style="fill:#000000; fill-opacity:0.0; 
stroke:#000000; stroke-width:59.0551; stroke-opacity:1; 
stroke-linecap:round; stroke-linejoin:round;">
<text x="33464.6" y="4586.61"
textLength="546.494" font-size="682.415" lengthAdjust="spacingAndGlyphs"
text-anchor="start" opacity="0">2</text>
<path d="M33591 4099
L33615 4074
L33664 4050
L33786 4050
L33835 4074
L33859 4099
L33884 4147
L33884 4196
L33859 4269
L33567 4562
L33884 4562
" />
</g>
<g style="fill:#000000; fill-opacity:0.0; 
stroke:#000000; stroke-width:39.3701; stroke-opacity:1; 
stroke-linecap:round; stroke-linejoin:round;">
</g>
<g style="fill:#000000; fill-opacity:0.0; 
stroke:#000000; stroke-width:59.0551; stroke-opacity:1; 
stroke-linecap:round; stroke-linejoin:round;">
<text x="53149.6" y="4586.61"
textLength="546.494" font-size="682.415" lengthAdjust="spacingAndGlyphs"
text-anchor="start" opacity="0">3</text>
<path d="M53252 4050
L53569 4050
L53398 4245
L53471 4245
L53520 4269
L53544 4294
L53569 4342
L53569 4464
L53544 4513
L53520 4537
L53471 4562
L53325 4562
L53276 4537
L53252 4513
" />
</g>
<g style="fill:#000000; fill-opacity:0.0; 
stroke:#000000; stroke-width:39.3701; stroke-opacity:1; 
stroke-linecap:round; stroke-linejoin:round;">
</g>
<g style="fill:#000000; fill-opacity:0.0; 
stroke:#000000; stroke-width:59.0551; stroke-opacity:1; 
stroke-linecap:round; stroke-linejoin:round;">
<text x="72834.6" y="4586.61"
textLength="546.494" font-size="682.415" lengthAdjust="spacingAndGlyphs"
text-anchor="start" opacity="0">4</text>
<path d="M73205 4221
L73205 4562
" />
<path d="M73083 4026
L72961 4391
L73278 4391
" />
</g>
<g style="fill:#000000; fill-opacity:0.0; 
stroke:#000000; stroke-width:39.3701; stroke-opacity:1; 
stroke-linecap:round; stroke-linejoin:round;">
</g>
<g style="fill:#000000; fill-opacity:0.0; 
stroke:#000000; stroke-width:59.0551; stroke-opacity:1; 
stroke-linecap:round; stroke-linejoin:round;">
<text x="92519.7" y="4586.61"
textLength="546.494" font-size="682.415" lengthAdjust="spacingAndGlyphs"
text-anchor="start" opacity="0">5</text>
<path d="M92914 4050
L92671 4050
L92646 4294
L92671 4269
L92719 4245
L92841 4245
L92890 4269
L92914 4294
L92939 4342
L92939 4464
L92914 4513
L92890 4537
L92841 4562
L92719 4562
L92671 4537
L92646 4513
" />
</g>
<g style="fill:#000000; fill-opacity:0.0; 
stroke:#000000; stroke-width:39.3701; stroke-opacity:1; 
stroke-linecap:round; stroke-linejoin:round;">
</g>
<g style="fill:#000000; fill-opacity:0.0; 
stroke:#000000; stroke-width:59.0551; stroke-opacity:1; 
stroke-linecap:round; stroke-linejoin:round;">
<text x="112205" y="4586.61"
textLength="546.494" font-size="682.415" lengthAdjust="spacingAndGlyphs"
text-anchor="start" opacity="0">6</text>
<path d="M112575 4050
L112477 4050
L112429 4074
L112404 4099
L112356 4172
L112331 4269
L112331 4464
L112356 4513
L112380 4537
L112429 4562
L112526 4562
L112575 4537
L112599 4513
L112624 4464
L112624 4342
L112599 4294
L112575 4269
L112526 4245
L112429 4245
L112380 4269
L112356 4294
L112331 4342
" />
</g>
<g style="fill:#000000; fill-opacity:0.0; 
stroke:#000000; stroke-width:39.3701; stroke-opacity:1; 
stroke-linecap:round; stroke-linejoin:round;">
</g>
<g style="fill:#000000; fill-opacity:0.0; 
stroke:#000000; stroke-width:59.0551; stroke-opacity:1; 
stroke-linecap:round; stroke-linejoin:round;">
<path d="M23622 77955
L23622 78742
" />
</g>
<g style="fill:#000000; fill-opacity:0.0; 
stroke:#000000; stroke-width:39.3701; stroke-opacity:1; 
stroke-linecap:round; stroke-linejoin:round;">
</g>
<g style="fill:#000000; fill-opacity:0.0; 
stroke:#000000; stroke-width:59.0551; stroke-opacity:1; 
stroke-linecap:round; stroke-linejoin:round;">
<path d="M43307 77955
L43307 78742
" />
</g>
<g style="fill:#000000; fill-opacity:0.0; 
stroke:#000000; stroke-width:39.3701; stroke-opacity:1; 
stroke-linecap:round; stroke-linejoin:round;">
</g>
<g style="fill:#000000; fill-opacity:0.0; 
stroke:#000000; stroke-width:59.0551; stroke-opacity:1; 
stroke-linecap:round; stroke-linejoin:round;">
<path d="M62992 77955
L62992 78742
" />
</g>
<g style="fill:#000000; fill-opacity:0.0; 
stroke:#000000; stroke-width:39.3701; stroke-opacity:1; 
stroke-linecap:round; stroke-linejoin:round;">
</g>
<g style="fill:#000000; fill-opacity:0.0; 
stroke:#000000; stroke-width:59.0551; stroke-opacity:1; 
stroke-linecap:round; stroke-linejoin:round;">
<path d="M82677 77955
L82677 78742
" />
</g>
<g style="fill:#000000; fill-opacity:0.0; 
stroke:#000000; stroke-width:39.3701; stroke-opacity:1; 
stroke-linecap:round; stroke-linejoin:round;">
</g>
<g style="fill:#000000; fill-opacity:0.0; 
stroke:#000000; stroke-width:59.0551; stroke-opacity:1; 
stroke-linecap:round; stroke-linejoin:round;">
<path d="M102362 77955
L102362 78742
" />
</g>
<g style="fill:#000000; fill-opacity:0.0; 
stroke:#000000; stroke-width:39.3701; stroke-opacity:1; 
stroke-linecap:round; stroke-linejoin:round;">
</g>
<g style="fill:#000000; fill-opacity:0.0; 
stroke:#000000; stroke-width:59.0551; stroke-opacity:1; 
stroke-linecap:round; stroke-linejoin:round;">
<text x="13779.5" y="78605.2"
textLength="546.494" font-size="682.415" lengthAdjust="spacingAndGlyphs"
text-anchor="start" opacity="0">1</text>
<path d="M14199 78580
L13906 78580
" />
<path d="M14052 78580
L14052 78069
L14004 78142
L13955 78190
L13906 78215
" />
</g>
<g style="fill:#000000; fill-opacity:0.0; 
stroke:#000000; stroke-width:39.3701; stroke-opacity:1; 
stroke-linecap:round; stroke-linejoin:round;">
</g>
<g style="fill:#000000; fill-opacity:0.0; 
stroke:#000000; stroke-width:59.0551; stroke-opacity:1; 
stroke-linecap:round; stroke-linejoin:round;">
<text x="33464.6" y="78605.2"
textLength="546.494" font-size="682.415" lengthAdjust="spacingAndGlyphs"
text-anchor="start" opacity="0">2</text>
<path d="M33591 78117
L33615 78093
L33664 78069
L33786 78069
L33835 78093
L33859 78117
L33884 78166
L33884 78215
L33859 78288
L33567 78580
L33884 78580
" />
</g>
<g style="fill:#000000; fill-opacity:0.0; 
stroke:#000000; stroke-width:39.3701; stroke-opacity:1; 
stroke-linecap:round; stroke-linejoin:round;">
</g>
<g style="fill:#000000; fill-opacity:0.0; 
stroke:#000000; stroke-width:59.0551; stroke-opacity:1; 
stroke-linecap:round; stroke-linejoin:round;">
<text x="53149.6" y="78605.2"
textLength="546.494" font-size="682.415" lengthAdjust="spacingAndGlyphs"
text-anchor="start" opacity="0">3</text>
<path d="M53252 78069
L53569 78069
L53398 78263
L53471 78263
L53520 78288
L53544 78312
L53569 78361
L53569 78483
L53544 78532
L53520 78556
L53471 78580
L53325 78580
L53276 78556
L53252 78532
" />
</g>
<g style="fill:#000000; fill-opacity:0.0; 
stroke:#000000; stroke-width:39.3701; stroke-opacity:1; 
stroke-linecap:round; stroke-linejoin:round;">
</g>
<g style="fill:#000000; fill-opacity:0.0; 
stroke:#000000; stroke-width:59.0551; stroke-opacity:1; 
stroke-linecap:round; stroke-linejoin:round;">
<text x="72834.6" y="78605.2"
textLength="546.494" font-size="682.415" lengthAdjust="spacingAndGlyphs"
text-anchor="start" opacity="0">4</text>
<path d="M73205 78239
L73205 78580
" />
<path d="M73083 78044
L72961 78410
L73278 78410
" />
</g>
<g style="fill:#000000; fill-opacity:0.0; 
stroke:#000000; stroke-width:39.3701; stroke-opacity:1; 
stroke-linecap:round; stroke-linejoin:round;">
</g>
<g style="fill:#000000; fill-opacity:0.0; 
stroke:#000000; stroke-width:59.0551; stroke-opacity:1; 
stroke-linecap:round; stroke-linejoin:round;">
<text x="92519.7" y="78605.2"
textLength="546.494" font-size="682.415" lengthAdjust="spacingAndGlyphs"
text-anchor="start" opacity="0">5</text>
<path d="M92914 78069
L92671 78069
L92646 78312
L92671 78288
L92719 78263
L92841 78263
L92890 78288
L92914 78312
L92939 78361
L92939 78483
L92914 78532
L92890 78556
L92841 78580
L92719 78580
L92671 78556
L92646 78532
" />
</g>
<g style="fill:#000000; fill-opacity:0.0; 
stroke:#000000; stroke-width:39.3701; stroke-opacity:1; 
stroke-linecap:round; stroke-linejoin:round;">
</g>
<g style="fill:#000000; fill-opacity:0.0; 
stroke:#000000; stroke-width:59.0551; stroke-opacity:1; 
stroke-linecap:round; stroke-linejoin:round;">
<text x="112205" y="78605.2"
textLength="546.494" font-size="682.415" lengthAdjust="spacingAndGlyphs"
text-anchor="start" opacity="0">6</text>
<path d="M112575 78069
L112477 78069
L112429 78093
L112404 78117
L112356 78190
L112331 78288
L112331 78483
L112356 78532
L112380 78556
L112429 78580
L112526 78580
L112575 78556
L112599 78532
L112624 78483
L112624 78361
L112599 78312
L112575 78288
L112526 78263
L112429 78263
L112380 78288
L112356 78312
L112331 78361
" />
</g>
<g style="fill:#000000; fill-opacity:0.0; 
stroke:#000000; stroke-width:39.3701; stroke-opacity:1; 
stroke-linecap:round; stroke-linejoin:round;">
</g>
<g style="fill:#000000; fill-opacity:0.0; 
stroke:#000000; stroke-width:59.0551; stroke-opacity:1; 
stroke-linecap:round; stroke-linejoin:round;">
<path d="M3937 23622
L4724 23622
" />
</g>
<g style="fill:#000000; fill-opacity:0.0; 
stroke:#000000; stroke-width:39.3701; stroke-opacity:1; 
stroke-linecap:round; stroke-linejoin:round;">
</g>
<g style="fill:#000000; fill-opacity:0.0; 
stroke:#000000; stroke-width:59.0551; stroke-opacity:1; 
stroke-linecap:round; stroke-linejoin:round;">
<path d="M3937 43307
L4724 43307
" />
</g>
<g style="fill:#000000; fill-opacity:0.0; 
stroke:#000000; stroke-width:39.3701; stroke-opacity:1; 
stroke-linecap:round; stroke-linejoin:round;">
</g>
<g style="fill:#000000; fill-opacity:0.0; 
stroke:#000000; stroke-width:59.0551; stroke-opacity:1; 
stroke-linecap:round; stroke-linejoin:round;">
<path d="M3937 62992
L4724 62992
" />
</g>
<g style="fill:#000000; fill-opacity:0.0; 
stroke:#000000; stroke-width:39.3701; stroke-opacity:1; 
stroke-linecap:round; stroke-linejoin:round;">
</g>
<g style="fill:#000000; fill-opacity:0.0; 
stroke:#000000; stroke-width:59.0551; stroke-opacity:1; 
stroke-linecap:round; stroke-linejoin:round;">
<text x="4330.71" y="14035.4"
textLength="497.75" font-size="682.415" lengthAdjust="spacingAndGlyphs"
text-anchor="middle" opacity="0">A</text>
<path d="M4208 13864
L4452 13864
" />
<path d="M4160 14011
L4330 13499
L4501 14011
" />
</g>
<g style="fill:#000000; fill-opacity:0.0; 
stroke:#000000; stroke-width:39.3701; stroke-opacity:1; 
stroke-linecap:round; stroke-linejoin:round;">
</g>
<g style="fill:#000000; fill-opacity:0.0; 
stroke:#000000; stroke-width:59.0551; stroke-opacity:1; 
stroke-linecap:round; stroke-linejoin:round;">
<text x="4330.71" y="33720.5"
textLength="570.866" font-size="682.415" lengthAdjust="spacingAndGlyphs"
text-anchor="middle" opacity="0">B</text>
<path d="M4367 33428
L4440 33452
L4464 33476
L4489 33525
L4489 33598
L4464 33647
L4440 33671
L4391 33696
L4196 33696
L4196 33184
L4367 33184
L4416 33208
L4440 33233
L4464 33281
L4464 33330
L4440 33379
L4416 33403
L4367 33428
L4196 33428
" />
</g>
<g style="fill:#000000; fill-opacity:0.0; 
stroke:#000000; stroke-width:39.3701; stroke-opacity:1; 
stroke-linecap:round; stroke-linejoin:round;">
</g>
<g style="fill:#000000; fill-opacity:0.0; 
stroke:#000000; stroke-width:59.0551; stroke-opacity:1; 
stroke-linecap:round; stroke-linejoin:round;">
<text x="4330.71" y="53405.5"
textLength="570.866" font-size="682.415" lengthAdjust="spacingAndGlyphs"
text-anchor="middle" opacity="0">C</text>
<path d="M4489 53332
L4464 53356
L4391 53381
L4342 53381
L4269 53356
L4221 53308
L4196 53259
L4172 53161
L4172 53088
L4196 52991
L4221 52942
L4269 52893
L4342 52869
L4391 52869
L4464 52893
L4489 52918
" />
</g>
<g style="fill:#000000; fill-opacity:0.0; 
stroke:#000000; stroke-width:39.3701; stroke-opacity:1; 
stroke-linecap:round; stroke-linejoin:round;">
</g>
<g style="fill:#000000; fill-opacity:0.0; 
stroke:#000000; stroke-width:59.0551; stroke-opacity:1; 
stroke-linecap:round; stroke-linejoin:round;">
<text x="4330.71" y="73090.6"
textLength="570.866" font-size="682.415" lengthAdjust="spacingAndGlyphs"
text-anchor="middle" opacity="0">D</text>
<path d="M4196 73066
L4196 72554
L4318 72554
L4391 72578
L4440 72627
L4464 72676
L4489 72773
L4489 72846
L4464 72944
L4440 72993
L4391 73041
L4318 73066
L4196 73066
" />
</g>
<g style="fill:#000000; fill-opacity:0.0; 
stroke:#000000; stroke-width:39.3701; stroke-opacity:1; 
stroke-linecap:round; stroke-linejoin:round;">
</g>
<g style="fill:#000000; fill-opacity:0.0; 
stroke:#000000; stroke-width:59.0551; stroke-opacity:1; 
stroke-linecap:round; stroke-linejoin:round;">
<path d="M112992 23622
L112205 23622
" />
</g>
<g style="fill:#000000; fill-opacity:0.0; 
stroke:#000000; stroke-width:39.3701; stroke-opacity:1; 
stroke-linecap:round; stroke-linejoin:round;">
</g>
<g style="fill:#000000; fill-opacity:0.0; 
stroke:#000000; stroke-width:59.0551; stroke-opacity:1; 
stroke-linecap:round; stroke-linejoin:round;">
<path d="M112992 43307
L112205 43307
" />
</g>
<g style="fill:#000000; fill-opacity:0.0; 
stroke:#000000; stroke-width:39.3701; stroke-opacity:1; 
stroke-linecap:round; stroke-linejoin:round;">
</g>
<g style="fill:#000000; fill-opacity:0.0; 
stroke:#000000; stroke-width:59.0551; stroke-opacity:1; 
stroke-linecap:round; stroke-linejoin:round;">
<path d="M112992 62992
L112205 62992
" />
</g>
<g style="fill:#000000; fill-opacity:0.0; 
stroke:#000000; stroke-width:39.3701; stroke-opacity:1; 
stroke-linecap:round; stroke-linejoin:round;">
</g>
<g style="fill:#000000; fill-opacity:0.0; 
stroke:#000000; stroke-width:59.0551; stroke-opacity:1; 
stroke-linecap:round; stroke-linejoin:round;">
<text x="112599" y="14035.4"
textLength="497.75" font-size="682.415" lengthAdjust="spacingAndGlyphs"
text-anchor="middle" opacity="0">A</text>
<path d="M112477 13864
L112721 13864
" />
<path d="M112428 14011
L112599 13499
L112769 14011
" />
</g>
<g style="fill:#000000; fill-opacity:0.0; 
stroke:#000000; stroke-width:39.3701; stroke-opacity:1; 
stroke-linecap:round; stroke-linejoin:round;">
</g>
<g style="fill:#000000; fill-opacity:0.0; 
stroke:#000000; stroke-width:59.0551; stroke-opacity:1; 
stroke-linecap:round; stroke-linejoin:round;">
<text x="112599" y="33720.5"
textLength="570.866" font-size="682.415" lengthAdjust="spacingAndGlyphs"
text-anchor="middle" opacity="0">B</text>
<path d="M112635 33428
L112708 33452
L112733 33476
L112757 33525
L112757 33598
L112733 33647
L112708 33671
L112660 33696
L112465 33696
L112465 33184
L112635 33184
L112684 33208
L112708 33233
L112733 33281
L112733 33330
L112708 33379
L112684 33403
L112635 33428
L112465 33428
" />
</g>
<g style="fill:#000000; fill-opacity:0.0; 
stroke:#000000; stroke-width:39.3701; stroke-opacity:1; 
stroke-linecap:round; stroke-linejoin:round;">
</g>
<g style="fill:#000000; fill-opacity:0.0; 
stroke:#000000; stroke-width:59.0551; stroke-opacity:1; 
stroke-linecap:round; stroke-linejoin:round;">
<text x="112599" y="53405.5"
textLength="570.866" font-size="682.415" lengthAdjust="spacingAndGlyphs"
text-anchor="middle" opacity="0">C</text>
<path d="M112757 53332
L112733 53356
L112660 53381
L112611 53381
L112538 53356
L112489 53308
L112465 53259
L112440 53161
L112440 53088
L112465 52991
L112489 52942
L112538 52893
L112611 52869
L112660 52869
L112733 52893
L112757 52918
" />
</g>
<g style="fill:#000000; fill-opacity:0.0; 
stroke:#000000; stroke-width:39.3701; stroke-opacity:1; 
stroke-linecap:round; stroke-linejoin:round;">
</g>
<g style="fill:#000000; fill-opacity:0.0; 
stroke:#000000; stroke-width:59.0551; stroke-opacity:1; 
stroke-linecap:round; stroke-linejoin:round;">
<text x="112599" y="73090.6"
textLength="570.866" font-size="682.415" lengthAdjust="spacingAndGlyphs"
text-anchor="middle" opacity="0">D</text>
<path d="M112465 73066
L112465 72554
L112587 72554
L112660 72578
L112708 72627
L112733 72676
L112757 72773
L112757 72846
L112733 72944
L112708 72993
L112660 73041
L112587 73066
L112465 73066
" />
</g>
<g style="fill:#000000; fill-opacity:0.0; 
stroke:#000000; stroke-width:39.3701; stroke-opacity:1; 
stroke-linecap:round; stroke-linejoin:round;">
</g>
<g style="fill:#000000; fill-opacity:0.0; 
stroke:#000000; stroke-width:59.0551; stroke-opacity:1; 
stroke-linecap:round; stroke-linejoin:round;">
<text x="78741" y="76321.7"
textLength="2758.72" font-size="787.402" lengthAdjust="spacingAndGlyphs"
text-anchor="start" opacity="0">Date: </text>
<path d="M78911 76293
L78911 75703
L79051 75703
L79136 75731
L79192 75787
L79220 75843
L79248 75956
L79248 76040
L79220 76153
L79192 76209
L79136 76265
L79051 76293
L78911 76293
" />
<path d="M79754 76293
L79754 75984
L79726 75928
L79670 75899
L79557 75899
L79501 75928
" />
<path d="M79754 76265
L79698 76293
L79557 76293
L79501 76265
L79473 76209
L79473 76153
L79501 76096
L79557 76068
L79698 76068
L79754 76040
" />
<path d="M79951 75899
L80176 75899
" />
<path d="M80036 75703
L80036 76209
L80064 76265
L80120 76293
L80176 76293
" />
<path d="M80598 76265
L80542 76293
L80429 76293
L80373 76265
L80345 76209
L80345 75984
L80373 75928
L80429 75899
L80542 75899
L80598 75928
L80626 75984
L80626 76040
L80345 76096
" />
<path d="M80879 76237
L80907 76265
L80879 76293
L80851 76265
L80879 76237
L80879 76293
" />
<path d="M80879 75928
L80907 75956
L80879 75984
L80851 75956
L80879 75928
L80879 75984
" />
</g>
<g style="fill:#000000; fill-opacity:0.0; 
stroke:#000000; stroke-width:39.3701; stroke-opacity:1; 
stroke-linecap:round; stroke-linejoin:round;">
</g>
<g style="fill:#000000; fill-opacity:0.0; 
stroke:#000000; stroke-width:59.0551; stroke-opacity:1; 
stroke-linecap:round; stroke-linejoin:round;">
<path d="M69685 76577
L112205 76577
" />
</g>
<g style="fill:#000000; fill-opacity:0.0; 
stroke:#000000; stroke-width:39.3701; stroke-opacity:1; 
stroke-linecap:round; stroke-linejoin:round;">
</g>
<g style="fill:#000000; fill-opacity:0.0; 
stroke:#000000; stroke-width:59.0551; stroke-opacity:1; 
stroke-linecap:round; stroke-linejoin:round;">
<text x="70079.6" y="77424.1"
textLength="12348.1" font-size="787.402" lengthAdjust="spacingAndGlyphs"
text-anchor="start" opacity="0">KiCad E.D.A.  pcbnew 5.1.5</text>
<path d="M70249 77395
L70249 76805
" />
<path d="M70587 77395
L70334 77058
" />
<path d="M70587 76805
L70249 77142
" />
<path d="M70840 77395
L70840 77002
" />
<path d="M70840 76805
L70812 76833
L70840 76861
L70868 76833
L70840 76805
L70840 76861
" />
<path d="M71458 77339
L71430 77367
L71346 77395
L71290 77395
L71205 77367
L71149 77311
L71121 77255
L71093 77142
L71093 77058
L71121 76946
L71149 76889
L71205 76833
L71290 76805
L71346 76805
L71430 76833
L71458 76861
" />
<path d="M71965 77395
L71965 77086
L71937 77030
L71880 77002
L71768 77002
L71712 77030
" />
<path d="M71965 77367
L71908 77395
L71768 77395
L71712 77367
L71683 77311
L71683 77255
L71712 77199
L71768 77171
L71908 77171
L71965 77142
" />
<path d="M72499 77395
L72499 76805
" />
<path d="M72499 77367
L72443 77395
L72330 77395
L72274 77367
L72246 77339
L72218 77283
L72218 77114
L72246 77058
L72274 77030
L72330 77002
L72443 77002
L72499 77030
" />
<path d="M73230 77086
L73427 77086
" />
<path d="M73511 77395
L73230 77395
L73230 76805
L73511 76805
" />
<path d="M73764 77339
L73793 77367
L73764 77395
L73736 77367
L73764 77339
L73764 77395
" />
<path d="M74046 77395
L74046 76805
L74186 76805
L74271 76833
L74327 76889
L74355 76946
L74383 77058
L74383 77142
L74355 77255
L74327 77311
L74271 77367
L74186 77395
L74046 77395
" />
<path d="M74636 77339
L74664 77367
L74636 77395
L74608 77367
L74636 77339
L74636 77395
" />
<path d="M74889 77227
L75171 77227
" />
<path d="M74833 77395
L75030 76805
L75227 77395
" />
<path d="M75424 77339
L75452 77367
L75424 77395
L75395 77367
L75424 77339
L75424 77395
" />
<path d="M76605 77002
L76605 77592
" />
<path d="M76605 77030
L76661 77002
L76773 77002
L76830 77030
L76858 77058
L76886 77114
L76886 77283
L76858 77339
L76830 77367
L76773 77395
L76661 77395
L76605 77367
" />
<path d="M77392 77367
L77336 77395
L77223 77395
L77167 77367
L77139 77339
L77111 77283
L77111 77114
L77139 77058
L77167 77030
L77223 77002
L77336 77002
L77392 77030
" />
<path d="M77645 77395
L77645 76805
" />
<path d="M77645 77030
L77701 77002
L77814 77002
L77870 77030
L77898 77058
L77926 77114
L77926 77283
L77898 77339
L77870 77367
L77814 77395
L77701 77395
L77645 77367
" />
<path d="M78180 77002
L78180 77395
" />
<path d="M78180 77058
L78208 77030
L78264 77002
L78348 77002
L78404 77030
L78433 77086
L78433 77395
" />
<path d="M78939 77367
L78883 77395
L78770 77395
L78714 77367
L78686 77311
L78686 77086
L78714 77030
L78770 77002
L78883 77002
L78939 77030
L78967 77086
L78967 77142
L78686 77199
" />
<path d="M79164 77002
L79276 77395
L79389 77114
L79501 77395
L79614 77002
" />
<path d="M80570 76805
L80289 76805
L80260 77086
L80289 77058
L80345 77030
L80485 77030
L80542 77058
L80570 77086
L80598 77142
L80598 77283
L80570 77339
L80542 77367
L80485 77395
L80345 77395
L80289 77367
L80260 77339
" />
<path d="M80851 77339
L80879 77367
L80851 77395
L80823 77367
L80851 77339
L80851 77395
" />
<path d="M81442 77395
L81104 77395
" />
<path d="M81273 77395
L81273 76805
L81217 76889
L81160 76946
L81104 76974
" />
<path d="M81695 77339
L81723 77367
L81695 77395
L81667 77367
L81695 77339
L81695 77395
" />
<path d="M82257 76805
L81976 76805
L81948 77086
L81976 77058
L82032 77030
L82173 77030
L82229 77058
L82257 77086
L82285 77142
L82285 77283
L82257 77339
L82229 77367
L82173 77395
L82032 77395
L81976 77367
L81948 77339
" />
</g>
<g style="fill:#000000; fill-opacity:0.0; 
stroke:#000000; stroke-width:39.3701; stroke-opacity:1; 
stroke-linecap:round; stroke-linejoin:round;">
</g>
<g style="fill:#000000; fill-opacity:0.0; 
stroke:#000000; stroke-width:59.0551; stroke-opacity:1; 
stroke-linecap:round; stroke-linejoin:round;">
<path d="M69685 75396
L112205 75396
" />
</g>
<g style="fill:#000000; fill-opacity:0.0; 
stroke:#000000; stroke-width:39.3701; stroke-opacity:1; 
stroke-linecap:round; stroke-linejoin:round;">
</g>
<g style="fill:#000000; fill-opacity:0.0; 
stroke:#000000; stroke-width:118.11; stroke-opacity:1; 
stroke-linecap:round; stroke-linejoin:round;">
<text x="103544" y="76321.7"
textLength="2336.9" font-size="787.402" lengthAdjust="spacingAndGlyphs"
text-anchor="start" opacity="0">Rev: </text>
<path d="M104099 76293
L103902 76012
" />
<path d="M103761 76293
L103761 75703
L103986 75703
L104042 75731
L104070 75759
L104099 75815
L104099 75899
L104070 75956
L104042 75984
L103986 76012
L103761 76012
" />
<path d="M104577 76265
L104520 76293
L104408 76293
L104352 76265
L104323 76209
L104323 75984
L104352 75928
L104408 75899
L104520 75899
L104577 75928
L104605 75984
L104605 76040
L104323 76096
" />
<path d="M104802 75899
L104942 76293
L105083 75899
" />
<path d="M105308 76237
L105336 76265
L105308 76293
L105280 76265
L105308 76237
L105308 76293
" />
<path d="M105308 75928
L105336 75956
L105308 75984
L105280 75956
L105308 75928
L105308 75984
" />
</g>
<g style="fill:#000000; fill-opacity:0.0; 
stroke:#000000; stroke-width:39.3701; stroke-opacity:1; 
stroke-linecap:round; stroke-linejoin:round;">
</g>
<g style="fill:#000000; fill-opacity:0.0; 
stroke:#000000; stroke-width:59.0551; stroke-opacity:1; 
stroke-linecap:round; stroke-linejoin:round;">
<text x="70079.6" y="76321.7"
textLength="3781.21" font-size="787.402" lengthAdjust="spacingAndGlyphs"
text-anchor="start" opacity="0">Size: A4</text>
<path d="M70221 76265
L70305 76293
L70446 76293
L70502 76265
L70530 76237
L70559 76181
L70559 76124
L70530 76068
L70502 76040
L70446 76012
L70334 75984
L70277 75956
L70249 75928
L70221 75871
L70221 75815
L70249 75759
L70277 75731
L70334 75703
L70474 75703
L70559 75731
" />
<path d="M70812 76293
L70812 75899
" />
<path d="M70812 75703
L70784 75731
L70812 75759
L70840 75731
L70812 75703
L70812 75759
" />
<path d="M71037 75899
L71346 75899
L71037 76293
L71346 76293
" />
<path d="M71796 76265
L71740 76293
L71627 76293
L71571 76265
L71543 76209
L71543 75984
L71571 75928
L71627 75899
L71740 75899
L71796 75928
L71824 75984
L71824 76040
L71543 76096
" />
<path d="M72077 76237
L72105 76265
L72077 76293
L72049 76265
L72077 76237
L72077 76293
" />
<path d="M72077 75928
L72105 75956
L72077 75984
L72049 75956
L72077 75928
L72077 75984
" />
<path d="M72780 76124
L73061 76124
" />
<path d="M72724 76293
L72921 75703
L73118 76293
" />
<path d="M73568 75899
L73568 76293
" />
<path d="M73427 75674
L73286 76096
L73652 76096
" />
</g>
<g style="fill:#000000; fill-opacity:0.0; 
stroke:#000000; stroke-width:39.3701; stroke-opacity:1; 
stroke-linecap:round; stroke-linejoin:round;">
</g>
<g style="fill:#000000; fill-opacity:0.0; 
stroke:#000000; stroke-width:59.0551; stroke-opacity:1; 
stroke-linecap:round; stroke-linejoin:round;">
<text x="103544" y="77424.1"
textLength="3349.27" font-size="787.402" lengthAdjust="spacingAndGlyphs"
text-anchor="start" opacity="0">Id: 1/1</text>
<path d="M103714 77395
L103714 76805
" />
<path d="M104248 77395
L104248 76805
" />
<path d="M104248 77367
L104192 77395
L104079 77395
L104023 77367
L103995 77339
L103967 77283
L103967 77114
L103995 77058
L104023 77030
L104079 77002
L104192 77002
L104248 77030
" />
<path d="M104529 77339
L104557 77367
L104529 77395
L104501 77367
L104529 77339
L104529 77395
" />
<path d="M104529 77030
L104557 77058
L104529 77086
L104501 77058
L104529 77030
L104529 77086
" />
<path d="M105570 77395
L105232 77395
" />
<path d="M105401 77395
L105401 76805
L105345 76889
L105289 76946
L105232 76974
" />
<path d="M106245 76777
L105739 77536
" />
<path d="M106751 77395
L106413 77395
" />
<path d="M106582 77395
L106582 76805
L106526 76889
L106470 76946
L106413 76974
" />
</g>
<g style="fill:#000000; fill-opacity:0.0; 
stroke:#000000; stroke-width:39.3701; stroke-opacity:1; 
stroke-linecap:round; stroke-linejoin:round;">
</g>
<g style="fill:#000000; fill-opacity:0.0; 
stroke:#000000; stroke-width:59.0551; stroke-opacity:1; 
stroke-linecap:round; stroke-linejoin:round;">
<path d="M69685 73821
L112205 73821
" />
</g>
<g style="fill:#000000; fill-opacity:0.0; 
stroke:#000000; stroke-width:39.3701; stroke-opacity:1; 
stroke-linecap:round; stroke-linejoin:round;">
</g>
<g style="fill:#000000; fill-opacity:0.0; 
stroke:#000000; stroke-width:157.48; stroke-opacity:1; 
stroke-linecap:round; stroke-linejoin:round;">
<text x="70079.6" y="74924.1"
textLength="3701.14" font-size="1049.87" lengthAdjust="spacingAndGlyphs"
text-anchor="start" opacity="0">Title: </text>
<path d="M70360 74099
L70810 74099
" />
<path d="M70486 74886
L70585 74099
" />
<path d="M70974 74886
L71039 74361
" />
<path d="M71072 74099
L71030 74136
L71063 74174
L71105 74136
L71072 74099
L71063 74174
" />
<path d="M71302 74361
L71602 74361
" />
<path d="M71447 74099
L71363 74774
L71391 74849
L71461 74886
L71536 74886
" />
<path d="M71911 74886
L71841 74849
L71813 74774
L71897 74099
" />
<path d="M72516 74849
L72436 74886
L72286 74886
L72216 74849
L72187 74774
L72225 74474
L72272 74399
L72352 74361
L72501 74361
L72572 74399
L72600 74474
L72591 74549
L72206 74624
" />
<path d="M72895 74811
L72928 74849
L72886 74886
L72853 74849
L72895 74811
L72886 74886
" />
<path d="M72947 74399
L72980 74436
L72937 74474
L72905 74436
L72947 74399
L72937 74474
" />
</g>
<g style="fill:#000000; fill-opacity:0.0; 
stroke:#000000; stroke-width:39.3701; stroke-opacity:1; 
stroke-linecap:round; stroke-linejoin:round;">
</g>
<g style="fill:#000000; fill-opacity:0.0; 
stroke:#000000; stroke-width:59.0551; stroke-opacity:1; 
stroke-linecap:round; stroke-linejoin:round;">
<text x="70079.6" y="73408.3"
textLength="13028.1" font-size="787.402" lengthAdjust="spacingAndGlyphs"
text-anchor="start" opacity="0">File: ZoraSapphire.kicad_pcb</text>
<path d="M70446 73070
L70249 73070
" />
<path d="M70249 73380
L70249 72789
L70530 72789
" />
<path d="M70755 73380
L70755 72986
" />
<path d="M70755 72789
L70727 72817
L70755 72845
L70784 72817
L70755 72789
L70755 72845
" />
<path d="M71121 73380
L71065 73352
L71037 73295
L71037 72789
" />
<path d="M71571 73352
L71515 73380
L71402 73380
L71346 73352
L71318 73295
L71318 73070
L71346 73014
L71402 72986
L71515 72986
L71571 73014
L71599 73070
L71599 73127
L71318 73183
" />
<path d="M71852 73323
L71880 73352
L71852 73380
L71824 73352
L71852 73323
L71852 73380
" />
<path d="M71852 73014
L71880 73042
L71852 73070
L71824 73042
L71852 73014
L71852 73070
" />
<path d="M72527 72789
L72921 72789
L72527 73380
L72921 73380
" />
<path d="M73230 73380
L73174 73352
L73146 73323
L73118 73267
L73118 73099
L73146 73042
L73174 73014
L73230 72986
L73314 72986
L73371 73014
L73399 73042
L73427 73099
L73427 73267
L73399 73323
L73371 73352
L73314 73380
L73230 73380
" />
<path d="M73680 73380
L73680 72986
" />
<path d="M73680 73099
L73708 73042
L73736 73014
L73793 72986
L73849 72986
" />
<path d="M74299 73380
L74299 73070
L74271 73014
L74214 72986
L74102 72986
L74046 73014
" />
<path d="M74299 73352
L74242 73380
L74102 73380
L74046 73352
L74018 73295
L74018 73239
L74046 73183
L74102 73155
L74242 73155
L74299 73127
" />
<path d="M74552 73352
L74636 73380
L74777 73380
L74833 73352
L74861 73323
L74889 73267
L74889 73211
L74861 73155
L74833 73127
L74777 73099
L74664 73070
L74608 73042
L74580 73014
L74552 72958
L74552 72902
L74580 72845
L74608 72817
L74664 72789
L74805 72789
L74889 72817
" />
<path d="M75395 73380
L75395 73070
L75367 73014
L75311 72986
L75199 72986
L75142 73014
" />
<path d="M75395 73352
L75339 73380
L75199 73380
L75142 73352
L75114 73295
L75114 73239
L75142 73183
L75199 73155
L75339 73155
L75395 73127
" />
<path d="M75677 72986
L75677 73577
" />
<path d="M75677 73014
L75733 72986
L75845 72986
L75902 73014
L75930 73042
L75958 73099
L75958 73267
L75930 73323
L75902 73352
L75845 73380
L75733 73380
L75677 73352
" />
<path d="M76211 72986
L76211 73577
" />
<path d="M76211 73014
L76267 72986
L76380 72986
L76436 73014
L76464 73042
L76492 73099
L76492 73267
L76464 73323
L76436 73352
L76380 73380
L76267 73380
L76211 73352
" />
<path d="M76745 73380
L76745 72789
" />
<path d="M76998 73380
L76998 73070
L76970 73014
L76914 72986
L76830 72986
L76773 73014
L76745 73042
" />
<path d="M77280 73380
L77280 72986
" />
<path d="M77280 72789
L77251 72817
L77280 72845
L77308 72817
L77280 72789
L77280 72845
" />
<path d="M77561 73380
L77561 72986
" />
<path d="M77561 73099
L77589 73042
L77617 73014
L77673 72986
L77730 72986
" />
<path d="M78151 73352
L78095 73380
L77983 73380
L77926 73352
L77898 73295
L77898 73070
L77926 73014
L77983 72986
L78095 72986
L78151 73014
L78180 73070
L78180 73127
L77898 73183
" />
<path d="M78433 73323
L78461 73352
L78433 73380
L78404 73352
L78433 73323
L78433 73380
" />
<path d="M78714 73380
L78714 72789
" />
<path d="M78770 73155
L78939 73380
" />
<path d="M78939 72986
L78714 73211
" />
<path d="M79192 73380
L79192 72986
" />
<path d="M79192 72789
L79164 72817
L79192 72845
L79220 72817
L79192 72789
L79192 72845
" />
<path d="M79726 73352
L79670 73380
L79557 73380
L79501 73352
L79473 73323
L79445 73267
L79445 73099
L79473 73042
L79501 73014
L79557 72986
L79670 72986
L79726 73014
" />
<path d="M80232 73380
L80232 73070
L80204 73014
L80148 72986
L80036 72986
L79979 73014
" />
<path d="M80232 73352
L80176 73380
L80036 73380
L79979 73352
L79951 73295
L79951 73239
L79979 73183
L80036 73155
L80176 73155
L80232 73127
" />
<path d="M80767 73380
L80767 72789
" />
<path d="M80767 73352
L80710 73380
L80598 73380
L80542 73352
L80514 73323
L80485 73267
L80485 73099
L80514 73042
L80542 73014
L80598 72986
L80710 72986
L80767 73014
" />
<path d="M80907 73436
L81357 73436
" />
<path d="M81498 72986
L81498 73577
" />
<path d="M81498 73014
L81554 72986
L81667 72986
L81723 73014
L81751 73042
L81779 73099
L81779 73267
L81751 73323
L81723 73352
L81667 73380
L81554 73380
L81498 73352
" />
<path d="M82285 73352
L82229 73380
L82117 73380
L82060 73352
L82032 73323
L82004 73267
L82004 73099
L82032 73042
L82060 73014
L82117 72986
L82229 72986
L82285 73014
" />
<path d="M82538 73380
L82538 72789
" />
<path d="M82538 73014
L82595 72986
L82707 72986
L82763 73014
L82791 73042
L82820 73099
L82820 73267
L82791 73323
L82763 73352
L82707 73380
L82595 73380
L82538 73352
" />
</g>
<g style="fill:#000000; fill-opacity:0.0; 
stroke:#000000; stroke-width:39.3701; stroke-opacity:1; 
stroke-linecap:round; stroke-linejoin:round;">
</g>
<g style="fill:#000000; fill-opacity:0.0; 
stroke:#000000; stroke-width:59.0551; stroke-opacity:1; 
stroke-linecap:round; stroke-linejoin:round;">
<path d="M69685 71459
L112205 71459
" />
</g>
<g style="fill:#000000; fill-opacity:0.0; 
stroke:#000000; stroke-width:39.3701; stroke-opacity:1; 
stroke-linecap:round; stroke-linejoin:round;">
</g>
<g style="fill:#000000; fill-opacity:0.0; 
stroke:#000000; stroke-width:59.0551; stroke-opacity:1; 
stroke-linecap:round; stroke-linejoin:round;">
<text x="70079.6" y="72345.4"
textLength="3236.78" font-size="787.402" lengthAdjust="spacingAndGlyphs"
text-anchor="start" opacity="0">Sheet: </text>
<path d="M70221 72289
L70305 72317
L70446 72317
L70502 72289
L70530 72260
L70559 72204
L70559 72148
L70530 72092
L70502 72064
L70446 72036
L70334 72007
L70277 71979
L70249 71951
L70221 71895
L70221 71839
L70249 71782
L70277 71754
L70334 71726
L70474 71726
L70559 71754
" />
<path d="M70812 72317
L70812 71726
" />
<path d="M71065 72317
L71065 72007
L71037 71951
L70980 71923
L70896 71923
L70840 71951
L70812 71979
" />
<path d="M71571 72289
L71515 72317
L71402 72317
L71346 72289
L71318 72232
L71318 72007
L71346 71951
L71402 71923
L71515 71923
L71571 71951
L71599 72007
L71599 72064
L71318 72120
" />
<path d="M72077 72289
L72021 72317
L71908 72317
L71852 72289
L71824 72232
L71824 72007
L71852 71951
L71908 71923
L72021 71923
L72077 71951
L72105 72007
L72105 72064
L71824 72120
" />
<path d="M72274 71923
L72499 71923
" />
<path d="M72358 71726
L72358 72232
L72386 72289
L72443 72317
L72499 72317
" />
<path d="M72696 72260
L72724 72289
L72696 72317
L72668 72289
L72696 72260
L72696 72317
" />
<path d="M72696 71951
L72724 71979
L72696 72007
L72668 71979
L72696 71951
L72696 72007
" />
</g>
<g style="fill:#000000; fill-opacity:0.0; 
stroke:#000000; stroke-width:39.3701; stroke-opacity:1; 
stroke-linecap:round; stroke-linejoin:round;">
</g>
<g style="fill:#000000; fill-opacity:0.0; 
stroke:#000000; stroke-width:59.0551; stroke-opacity:1; 
stroke-linecap:round; stroke-linejoin:round;">
<path d="M77559 75396
L77559 76577
" />
</g>
<g style="fill:#000000; fill-opacity:0.0; 
stroke:#000000; stroke-width:39.3701; stroke-opacity:1; 
stroke-linecap:round; stroke-linejoin:round;">
</g>
<g style="fill:#000000; fill-opacity:0.0; 
stroke:#000000; stroke-width:59.0551; stroke-opacity:1; 
stroke-linecap:round; stroke-linejoin:round;">
<path d="M102756 75396
L102756 77955
" />
</g>
<g style="fill:#008400; fill-opacity:0.0; 
stroke:#008400; stroke-width:59.0551; stroke-opacity:1; 
stroke-linecap:round; stroke-linejoin:round;">
</g>
<g style="fill:#008400; fill-opacity:1.0; 
stroke:#008400; stroke-width:3.93701; stroke-opacity:1; 
stroke-linecap:round; stroke-linejoin:round;">
<path style="fill:#008400; fill-opacity:1.0; 
stroke:#008400; stroke-width:3.93701; stroke-opacity:1; 
stroke-linecap:round; stroke-linejoin:round;fill-rule:evenodd;"
d="M 55968.7,34846.1
55896.7,34882.5
55843.1,34935.1
55840.2,34939.5
55825.1,34967.1
55816.6,34996.5
55814.1,35036.2
55816.6,35094.7
55820.9,35149.2
55826.3,35231.2
55830.7,35332.7
55833.6,35440.1
55834.6,35527.2
55834.3,35618.5
55832.4,35683.1
55828.1,35727.4
55820.4,35758.1
55808.6,35781.7
55800.1,35793.9
55766.3,35827.3
55721.6,35842.9
55692.9,35846.2
55595.3,35838.6
55505.6,35800.4
55421.5,35730.2
55399.9,35706.2
55358.7,35661.5
55323.2,35629.2
55300.7,35615.9
55300,35615.9
55278,35628.9
55249.1,35661.8
55236.4,35680.5
55178.4,35755.6
55119.3,35800.5
55061.3,35814.6
55006.4,35797.2
54969.3,35763.9
54937.5,35721
54909.9,35670.7
54883.4,35606
54855.4,35520.3
54832.3,35440.9
54808.9,35357.9
54784.4,35271.5
54763.3,35197.4
54759,35182.5
54727.8,35074
54559.2,35009.7
54473.4,34978.7
54415,34962.1
54381.5,34959.1
54373.2,34962.8
54361.2,34986
54374.1,35009.5
54414.5,35035.3
54484.5,35065.4
54504,35072.7
54566.8,35097.2
54618.4,35119.6
54649.9,35136.1
54654.1,35139.3
54665.2,35161.4
54682.5,35209.3
54703.7,35276.6
54726.9,35356.8
54733.4,35380.6
54776.9,35530.9
54818.6,35651
54860.3,35743.7
54903.5,35812
54949.8,35858.7
55000.9,35886.8
55021.2,35893.1
55089.6,35894.2
55162,35868
55229.8,35818.1
55251,35795.6
55310.4,35726.2
55377.3,35795.8
55450,35861.4
55522.2,35901.9
55605.9,35923.1
55651,35928
55713,35930.5
55755.9,35924.4
55793.6,35906.9
55810.1,35896.3
55860.6,35845.9
55896.6,35772.2
55918.2,35673.7
55925.8,35549
55919.5,35396.6
55901.9,35233.5
55890.6,35134.6
55887.7,35062.4
55894.8,35011
55913.4,34974.4
55944.9,34946.8
55978.9,34928
56036,34910.3
56090.4,34917.6
56148.6,34951.7
56194.3,34992
56231.8,35025.6
56256.5,35037.7
56277.1,35031.9
56282.1,35028.5
56300.8,35010.9
56298.3,34991.6
56283.3,34968.3
56240.2,34923.7
56180.1,34881.6
56115.2,34849.1
56057.5,34833.2
56046.9,34832.5
Z" /> 
<g >
</g>
<g >
</g>
<g >
</g>
<g >
</g>
<g >
</g>
<g >
</g>
<g style="fill:#008400; fill-opacity:1.0; 
stroke:#008400; stroke-width:3.93701; stroke-opacity:1; 
stroke-linecap:round; stroke-linejoin:round;">
</g>
<g style="fill:#008400; fill-opacity:1.0; 
stroke:#008400; stroke-width:0; stroke-opacity:1; 
stroke-linecap:round; stroke-linejoin:round;">
<path style="fill:#008400; fill-opacity:1.0; 
stroke:#008400; stroke-width:0; stroke-opacity:1; 
stroke-linecap:round; stroke-linejoin:round;fill-rule:evenodd;"
d="M 55458.1,37486.8
55466.4,37487.9
55474.7,37489.8
55482.6,37492.6
55490.3,37496.1
55497.6,37500.3
55504.5,37505.3
55510.8,37510.9
55516.6,37517.1
55521.7,37523.8
55526.1,37531
55529.9,37538.6
55532.8,37546.5
55535,37554.7
55576.9,37752
55578.3,37760.4
55578.8,37768.8
55578.5,37777.3
55577.4,37785.6
55575.4,37793.9
55572.7,37801.9
55569.2,37809.5
55564.9,37816.8
55560,37823.7
55554.4,37830
55548.2,37835.8
55541.5,37840.9
55534.3,37845.4
55526.7,37849.1
55518.8,37852
55510.6,37854.2
55342.1,37890
55333.8,37891.3
55325.3,37891.9
55316.9,37891.6
55308.5,37890.4
55300.3,37888.5
55292.3,37885.7
55284.6,37882.2
55277.3,37878
55270.4,37873
55264.1,37867.4
55258.4,37861.3
55253.2,37854.5
55248.8,37847.3
55245.1,37839.7
55242.1,37831.8
55240,37823.7
55198,37626.3
55196.7,37618
55196.1,37609.5
55196.4,37601.1
55197.6,37592.7
55199.5,37584.5
55202.3,37576.5
55205.8,37568.8
55210,37561.5
55215,37554.6
55220.6,37548.3
55226.8,37542.5
55233.5,37537.4
55240.7,37533
55248.3,37529.3
55256.2,37526.3
55264.3,37524.1
55432.8,37488.3
55441.2,37487
55449.6,37486.5
Z" /> 
<path style="fill:#008400; fill-opacity:1.0; 
stroke:#008400; stroke-width:0; stroke-opacity:1; 
stroke-linecap:round; stroke-linejoin:round;fill-rule:evenodd;"
d="M 56064.6,37357.8
56073,37359
56081.2,37360.9
56089.2,37363.7
56096.9,37367.2
56104.2,37371.4
56111,37376.4
56117.4,37382
56123.1,37388.2
56128.2,37394.9
56132.7,37402.1
56136.4,37409.7
56139.3,37417.6
56141.5,37425.8
56183.5,37623.1
56184.8,37631.5
56185.3,37639.9
56185,37648.3
56183.9,37656.7
56181.9,37664.9
56179.2,37672.9
56175.7,37680.6
56171.4,37687.9
56166.5,37694.8
56160.9,37701.1
56154.7,37706.9
56148,37712
56140.8,37716.4
56133.2,37720.1
56125.3,37723.1
56117.1,37725.3
55948.6,37761.1
55940.3,37762.4
55931.9,37762.9
55923.4,37762.6
55915,37761.5
55906.8,37759.6
55898.8,37756.8
55891.1,37753.3
55883.8,37749.1
55877,37744.1
55870.6,37738.5
55864.9,37732.3
55859.8,37725.6
55855.3,37718.4
55851.6,37710.8
55848.7,37702.9
55846.5,37694.7
55804.5,37497.4
55803.2,37489
55802.7,37480.6
55803,37472.1
55804.1,37463.8
55806,37455.5
55808.8,37447.6
55812.3,37439.9
55816.6,37432.6
55821.5,37425.7
55827.1,37419.4
55833.3,37413.6
55840,37408.5
55847.2,37404.1
55854.8,37400.3
55862.7,37397.4
55870.9,37395.2
56039.4,37359.4
56047.7,37358.1
56056.1,37357.5
Z" /> 
</g>
<g >
</g>
<g style="fill:#008400; fill-opacity:1.0; 
stroke:#008400; stroke-width:0; stroke-opacity:1; 
stroke-linecap:round; stroke-linejoin:round;">
<path style="fill:#008400; fill-opacity:1.0; 
stroke:#008400; stroke-width:0; stroke-opacity:1; 
stroke-linecap:round; stroke-linejoin:round;fill-rule:evenodd;"
d="M 57621.8,34872.2
57630.1,34873.8
57638.3,34876.1
57646.1,34879.2
57653.7,34883
57660.8,34887.6
57667.4,34892.9
57673.4,34898.8
57678.9,34905.2
57683.7,34912.2
57687.8,34919.5
57691.2,34927.3
57693.8,34935.3
57738.4,35101.7
57740.1,35110
57741.1,35118.4
57741.2,35126.8
57740.6,35135.2
57739,35143.6
57736.7,35151.7
57733.6,35159.5
57729.8,35167.1
57725.2,35174.2
57719.9,35180.8
57714,35186.9
57707.6,35192.3
57700.6,35197.1
57693.3,35201.2
57685.5,35204.6
57677.5,35207.2
57482.6,35259.4
57474.3,35261.2
57465.9,35262.2
57457.5,35262.3
57449,35261.6
57440.7,35260.1
57432.6,35257.8
57424.7,35254.7
57417.2,35250.8
57410.1,35246.2
57403.5,35241
57397.4,35235.1
57391.9,35228.7
57387.1,35221.7
57383,35214.3
57379.7,35206.6
57377.1,35198.5
57332.5,35032.1
57330.7,35023.9
57329.8,35015.5
57329.6,35007
57330.3,34998.6
57331.8,34990.3
57334.1,34982.2
57337.2,34974.3
57341.1,34966.8
57345.7,34959.7
57350.9,34953.1
57356.8,34947
57363.3,34941.5
57370.2,34936.7
57377.6,34932.6
57385.4,34929.3
57393.4,34926.7
57588.3,34874.4
57596.6,34872.7
57605,34871.7
57613.4,34871.6
Z" /> 
<path style="fill:#008400; fill-opacity:1.0; 
stroke:#008400; stroke-width:0; stroke-opacity:1; 
stroke-linecap:round; stroke-linejoin:round;fill-rule:evenodd;"
d="M 57461.3,34273.3
57469.7,34274.8
57477.8,34277.1
57485.6,34280.2
57493.2,34284.1
57500.3,34288.7
57506.9,34293.9
57513,34299.8
57518.4,34306.3
57523.2,34313.2
57527.3,34320.6
57530.7,34328.3
57533.3,34336.4
57577.9,34502.8
57579.7,34511
57580.6,34519.4
57580.8,34527.9
57580.1,34536.3
57578.6,34544.6
57576.2,34552.7
57573.1,34560.6
57569.3,34568.1
57564.7,34575.2
57559.4,34581.8
57553.6,34587.9
57547.1,34593.4
57540.2,34598.2
57532.8,34602.3
57525,34605.7
57517,34608.2
57322.1,34660.5
57313.8,34662.2
57305.4,34663.2
57297,34663.4
57288.5,34662.7
57280.2,34661.2
57272.1,34658.8
57264.2,34655.7
57256.7,34651.9
57249.6,34647.3
57243,34642
57236.9,34636.2
57231.5,34629.7
57226.7,34622.8
57222.5,34615.4
57219.2,34607.6
57216.6,34599.6
57172,34433.2
57170.2,34424.9
57169.3,34416.5
57169.1,34408.1
57169.8,34399.7
57171.3,34391.3
57173.7,34383.2
57176.8,34375.4
57180.6,34367.8
57185.2,34360.7
57190.5,34354.1
57196.3,34348
57202.8,34342.6
57209.7,34337.8
57217.1,34333.7
57224.9,34330.3
57232.9,34327.7
57427.8,34275.5
57436.1,34273.7
57444.5,34272.7
57452.9,34272.6
Z" /> 
</g>
<g >
</g>
<g style="fill:#008400; fill-opacity:1.0; 
stroke:#008400; stroke-width:0; stroke-opacity:1; 
stroke-linecap:round; stroke-linejoin:round;">
<path style="fill:#008400; fill-opacity:1.0; 
stroke:#008400; stroke-width:0; stroke-opacity:1; 
stroke-linecap:round; stroke-linejoin:round;fill-rule:evenodd;"
d="M 62013.2,34950.4
62021.5,34951.4
62029.8,34953.2
62224.7,35005.4
62232.8,35008
62240.5,35011.4
62247.9,35015.5
62254.8,35020.3
62261.3,35025.7
62267.2,35031.8
62272.4,35038.4
62277,35045.5
62280.9,35053
62284,35060.9
62286.3,35069
62287.8,35077.4
62288.5,35085.8
62288.4,35094.2
62287.4,35102.6
62285.6,35110.9
62241,35277.3
62238.4,35285.3
62235.1,35293.1
62231,35300.4
62226.2,35307.4
62220.7,35313.8
62214.6,35319.7
62208,35325
62200.9,35329.6
62193.4,35333.4
62185.5,35336.5
62177.4,35338.8
62169.1,35340.4
62160.7,35341
62152.2,35340.9
62143.8,35339.9
62135.5,35338.2
61940.6,35285.9
61932.6,35283.3
61924.8,35280
61917.5,35275.9
61910.5,35271.1
61904.1,35265.6
61898.2,35259.5
61892.9,35252.9
61888.4,35245.8
61884.5,35238.3
61881.4,35230.4
61879.1,35222.3
61877.6,35214
61876.9,35205.6
61877,35197.1
61878,35188.7
61879.8,35180.5
61924.3,35014.1
61926.9,35006
61930.3,34998.3
61934.4,34990.9
61939.2,34983.9
61944.7,34977.5
61950.7,34971.6
61957.4,34966.4
61964.5,34961.8
61972,34957.9
61979.8,34954.8
61988,34952.5
61996.3,34951
62004.7,34950.3
Z" /> 
<path style="fill:#008400; fill-opacity:1.0; 
stroke:#008400; stroke-width:0; stroke-opacity:1; 
stroke-linecap:round; stroke-linejoin:round;fill-rule:evenodd;"
d="M 62173.6,34351.5
62182,34352.4
62190.3,34354.2
62385.2,34406.5
62393.2,34409
62401,34412.4
62408.4,34416.5
62415.3,34421.3
62421.8,34426.8
62427.7,34432.9
62432.9,34439.5
62437.5,34446.6
62441.3,34454.1
62444.5,34462
62446.8,34470.1
62448.3,34478.4
62449,34486.8
62448.8,34495.3
62447.9,34503.7
62446.1,34511.9
62401.5,34678.3
62398.9,34686.4
62395.6,34694.1
62391.5,34701.5
62386.6,34708.4
62381.2,34714.9
62375.1,34720.8
62368.5,34726
62361.4,34730.6
62353.9,34734.5
62346,34737.6
62337.9,34739.9
62329.6,34741.4
62321.1,34742.1
62312.7,34742
62304.3,34741
62296,34739.2
62101.1,34687
62093.1,34684.4
62085.3,34681
62077.9,34676.9
62071,34672.1
62064.6,34666.7
62058.7,34660.6
62053.4,34654
62048.8,34646.9
62045,34639.3
62041.9,34631.5
62039.6,34623.4
62038,34615
62037.4,34606.6
62037.5,34598.2
62038.5,34589.8
62040.2,34581.5
62084.8,34415.1
62087.4,34407.1
62090.8,34399.3
62094.9,34391.9
62099.7,34385
62105.1,34378.5
62111.2,34372.7
62117.8,34367.4
62124.9,34362.8
62132.5,34359
62140.3,34355.9
62148.5,34353.5
62156.8,34352
62165.2,34351.3
Z" /> 
</g>
<g >
</g>
<g style="fill:#008400; fill-opacity:1.0; 
stroke:#008400; stroke-width:0; stroke-opacity:1; 
stroke-linecap:round; stroke-linejoin:round;">
<path style="fill:#008400; fill-opacity:1.0; 
stroke:#008400; stroke-width:0; stroke-opacity:1; 
stroke-linecap:round; stroke-linejoin:round;fill-rule:evenodd;"
d="M 64090.6,37543.9
64098.9,37544.8
64107.2,37546.6
64273.6,37591.2
64281.6,37593.8
64289.4,37597.1
64296.8,37601.2
64303.7,37606.1
64310.2,37611.5
64316,37617.6
64321.3,37624.2
64325.9,37631.3
64329.7,37638.8
64332.8,37646.7
64335.2,37654.8
64336.7,37663.1
64337.4,37671.6
64337.2,37680
64336.3,37688.4
64334.5,37696.7
64282.3,37891.6
64279.7,37899.6
64276.3,37907.4
64272.2,37914.8
64267.4,37921.7
64261.9,37928.1
64255.9,37934
64249.2,37939.3
64242.1,37943.9
64234.6,37947.7
64226.8,37950.8
64218.6,37953.1
64210.3,37954.7
64201.9,37955.3
64193.4,37955.2
64185,37954.2
64176.8,37952.5
64010.4,37907.9
64002.4,37905.3
63994.6,37901.9
63987.2,37897.8
63980.3,37893
63973.8,37887.6
63967.9,37881.5
63962.7,37874.9
63958.1,37867.8
63954.3,37860.2
63951.1,37852.4
63948.8,37844.2
63947.3,37835.9
63946.6,37827.5
63946.8,37819.1
63947.7,37810.7
63949.5,37802.4
64001.7,37607.5
64004.3,37599.5
64007.7,37591.7
64011.8,37584.3
64016.6,37577.4
64022.1,37570.9
64028.1,37565
64034.8,37559.8
64041.9,37555.2
64049.4,37551.4
64057.2,37548.2
64065.4,37545.9
64073.7,37544.4
64082.1,37543.7
Z" /> 
<path style="fill:#008400; fill-opacity:1.0; 
stroke:#008400; stroke-width:0; stroke-opacity:1; 
stroke-linecap:round; stroke-linejoin:round;fill-rule:evenodd;"
d="M 63491.6,37383.4
63500,37384.3
63508.3,37386.1
63674.6,37430.7
63682.7,37433.3
63690.4,37436.6
63697.8,37440.8
63704.8,37445.6
63711.2,37451
63717.1,37457.1
63722.3,37463.7
63726.9,37470.8
63730.8,37478.3
63733.9,37486.2
63736.2,37494.3
63737.7,37502.6
63738.4,37511.1
63738.3,37519.5
63737.3,37527.9
63735.5,37536.2
63683.3,37731.1
63680.7,37739.1
63677.4,37746.9
63673.3,37754.3
63668.4,37761.2
63663,37767.7
63656.9,37773.5
63650.3,37778.8
63643.2,37783.4
63635.7,37787.2
63627.8,37790.3
63619.7,37792.7
63611.4,37794.2
63602.9,37794.9
63594.5,37794.7
63586.1,37793.8
63577.8,37792
63411.5,37747.4
63403.4,37744.8
63395.7,37741.4
63388.3,37737.3
63381.3,37732.5
63374.9,37727.1
63369,37721
63363.7,37714.4
63359.2,37707.3
63355.3,37699.7
63352.2,37691.9
63349.9,37683.8
63348.4,37675.4
63347.7,37667
63347.8,37658.6
63348.8,37650.2
63350.6,37641.9
63402.8,37447
63405.4,37439
63408.7,37431.2
63412.8,37423.8
63417.6,37416.9
63423.1,37410.4
63429.2,37404.6
63435.8,37399.3
63442.9,37394.7
63450.4,37390.9
63458.3,37387.8
63466.4,37385.4
63474.7,37383.9
63483.2,37383.2
Z" /> 
</g>
<g >
</g>
<g style="fill:#008400; fill-opacity:1.0; 
stroke:#008400; stroke-width:0; stroke-opacity:1; 
stroke-linecap:round; stroke-linejoin:round;">
<path style="fill:#008400; fill-opacity:1.0; 
stroke:#008400; stroke-width:0; stroke-opacity:1; 
stroke-linecap:round; stroke-linejoin:round;fill-rule:evenodd;"
d="M 58633.9,41021.7
59027.6,41021.7
59027.6,42261.8
58633.9,42261.8
Z" /> 
<path style="fill:#008400; fill-opacity:1.0; 
stroke:#008400; stroke-width:0; stroke-opacity:1; 
stroke-linecap:round; stroke-linejoin:round;fill-rule:evenodd;"
d="M 58633.9,43009.8
59027.6,43009.8
59027.6,44250
58633.9,44250
Z" /> 
<path style="fill:#008400; fill-opacity:1.0; 
stroke:#008400; stroke-width:0; stroke-opacity:1; 
stroke-linecap:round; stroke-linejoin:round;fill-rule:evenodd;"
d="M 59633.9,41021.7
60027.6,41021.7
60027.6,42261.8
59633.9,42261.8
Z" /> 
<path style="fill:#008400; fill-opacity:1.0; 
stroke:#008400; stroke-width:0; stroke-opacity:1; 
stroke-linecap:round; stroke-linejoin:round;fill-rule:evenodd;"
d="M 59633.9,43009.8
60027.6,43009.8
60027.6,44250
59633.9,44250
Z" /> 
<path style="fill:#008400; fill-opacity:1.0; 
stroke:#008400; stroke-width:0; stroke-opacity:1; 
stroke-linecap:round; stroke-linejoin:round;fill-rule:evenodd;"
d="M 60633.9,41021.7
61027.6,41021.7
61027.6,42261.8
60633.9,42261.8
Z" /> 
<path style="fill:#008400; fill-opacity:1.0; 
stroke:#008400; stroke-width:0; stroke-opacity:1; 
stroke-linecap:round; stroke-linejoin:round;fill-rule:evenodd;"
d="M 60633.9,43009.8
61027.6,43009.8
61027.6,44250
60633.9,44250
Z" /> 
</g>
<g >
</g>
<g style="fill:#008400; fill-opacity:1.0; 
stroke:#008400; stroke-width:0; stroke-opacity:1; 
stroke-linecap:round; stroke-linejoin:round;">
<path style="fill:#008400; fill-opacity:1.0; 
stroke:#008400; stroke-width:0; stroke-opacity:1; 
stroke-linecap:round; stroke-linejoin:round;fill-rule:evenodd;"
d="M 59303.1,37637.8
59500,37637.8
59500,37952.8
59303.1,37952.8
Z" /> 
<path style="fill:#008400; fill-opacity:1.0; 
stroke:#008400; stroke-width:0; stroke-opacity:1; 
stroke-linecap:round; stroke-linejoin:round;fill-rule:evenodd;"
d="M 59952.8,37637.8
60110.2,37637.8
60110.2,37952.8
59952.8,37952.8
Z" /> 
<path style="fill:#008400; fill-opacity:1.0; 
stroke:#008400; stroke-width:0; stroke-opacity:1; 
stroke-linecap:round; stroke-linejoin:round;fill-rule:evenodd;"
d="M 59637.8,37637.8
59795.3,37637.8
59795.3,37952.8
59637.8,37952.8
Z" /> 
<path style="fill:#008400; fill-opacity:1.0; 
stroke:#008400; stroke-width:0; stroke-opacity:1; 
stroke-linecap:round; stroke-linejoin:round;fill-rule:evenodd;"
d="M 60248,37637.8
60444.9,37637.8
60444.9,37952.8
60248,37952.8
Z" /> 
<path style="fill:#008400; fill-opacity:1.0; 
stroke:#008400; stroke-width:0; stroke-opacity:1; 
stroke-linecap:round; stroke-linejoin:round;fill-rule:evenodd;"
d="M 59637.8,38346.5
59795.3,38346.5
59795.3,38661.4
59637.8,38661.4
Z" /> 
<path style="fill:#008400; fill-opacity:1.0; 
stroke:#008400; stroke-width:0; stroke-opacity:1; 
stroke-linecap:round; stroke-linejoin:round;fill-rule:evenodd;"
d="M 59303.1,38346.5
59500,38346.5
59500,38661.4
59303.1,38661.4
Z" /> 
<path style="fill:#008400; fill-opacity:1.0; 
stroke:#008400; stroke-width:0; stroke-opacity:1; 
stroke-linecap:round; stroke-linejoin:round;fill-rule:evenodd;"
d="M 59952.8,38346.5
60110.2,38346.5
60110.2,38661.4
59952.8,38661.4
Z" /> 
<path style="fill:#008400; fill-opacity:1.0; 
stroke:#008400; stroke-width:0; stroke-opacity:1; 
stroke-linecap:round; stroke-linejoin:round;fill-rule:evenodd;"
d="M 60248,38346.5
60444.9,38346.5
60444.9,38661.4
60248,38661.4
Z" /> 
</g>
<g >
</g>
<g style="fill:#C2C2C2; fill-opacity:1.0; 
stroke:#C2C2C2; stroke-width:0; stroke-opacity:1; 
stroke-linecap:round; stroke-linejoin:round;">
<circle cx="63126" cy="36452.8" r="118.11" /> 
</g>
<g style="fill:#C2C2C2; fill-opacity:1.0; 
stroke:#C2C2C2; stroke-width:39.3701; stroke-opacity:1; 
stroke-linecap:round; stroke-linejoin:round;">
</g>
<g style="fill:#C2C2C2; fill-opacity:1.0; 
stroke:#C2C2C2; stroke-width:0; stroke-opacity:1; 
stroke-linecap:round; stroke-linejoin:round;">
<circle cx="56216.5" cy="36452.8" r="118.11" /> 
</g>
<g style="fill:#C2C2C2; fill-opacity:1.0; 
stroke:#C2C2C2; stroke-width:39.3701; stroke-opacity:1; 
stroke-linecap:round; stroke-linejoin:round;">
</g>
<g style="fill:#C2C2C2; fill-opacity:1.0; 
stroke:#C2C2C2; stroke-width:0; stroke-opacity:1; 
stroke-linecap:round; stroke-linejoin:round;">
<circle cx="60023.6" cy="40444.9" r="118.11" /> 
</g>
<g style="fill:#C2C2C2; fill-opacity:1.0; 
stroke:#C2C2C2; stroke-width:39.3701; stroke-opacity:1; 
stroke-linecap:round; stroke-linejoin:round;">
</g>
<g >
</g>
<g style="fill:#008400; fill-opacity:1.0; 
stroke:#008400; stroke-width:39.3701; stroke-opacity:1; 
stroke-linecap:round; stroke-linejoin:round;">
</g>
<g style="fill:#008400; fill-opacity:1.0; 
stroke:#008400; stroke-width:98.4252; stroke-opacity:1; 
stroke-linecap:round; stroke-linejoin:round;">
</g>
<g style="fill:#008400; fill-opacity:0.0; 
stroke:#008400; stroke-width:98.4252; stroke-opacity:1; 
stroke-linecap:round; stroke-linejoin:round;">
<path d="M59204 37795
L58724 37314
" />
<path d="M59401 37795
L59204 37795
" />
<path d="M58724 37314
L56248 37314
" />
<path d="M56248 37314
L56011 37551
" />
<path d="M59716 37539
L58980 36803
" />
<path d="M59716 37795
L59716 37539
" />
<path d="M58980 36803
L58185 36803
" />
<path d="M58185 36803
L57555 36173
" />
<path d="M57555 36173
L57555 35078
" />
<path d="M60031 37539
L60625 36944
" />
<path d="M60031 37795
L60031 37539
" />
<path d="M60625 36944
L61118 36944
" />
<path d="M61118 36944
L62114 35948
" />
<path d="M62114 35948
L62114 35149
" />
<path d="M60543 37795
L60988 37350
" />
<path d="M60346 37795
L60543 37795
" />
<path d="M60988 37350
L63307 37350
" />
<path d="M63307 37350
L63507 37551
" />
<path d="M63507 37551
L63507 37562
" />
<path d="M60149 38503
L60141 38496
" />
<path d="M60346 38503
L60149 38503
" />
<path d="M60141 38496
L59425 38496
" />
<path d="M59401 38503
L59401 40704
" />
<path d="M59401 40704
L58834 41271
" />
</g>
<g >
</g>
<g style="fill:#008400; fill-opacity:0.0; 
stroke:#008400; stroke-width:98.4252; stroke-opacity:1; 
stroke-linecap:round; stroke-linejoin:round;">
</g>
<g style="fill:#008400; fill-opacity:1.0; 
stroke:#008400; stroke-width:100; stroke-opacity:1; 
stroke-linecap:round; stroke-linejoin:round;">
<path style="fill:#008400; fill-opacity:1.0; 
stroke:#008400; stroke-width:100; stroke-opacity:1; 
stroke-linecap:round; stroke-linejoin:round;fill-rule:evenodd;"
d="M 60480.6,40328.8
60476.5,40337.7
60474.1,40347.2
60473.7,40357
60475.2,40366.7
60478.5,40375.9
60483.6,40384.3
60487.9,40389.3
60861.3,40770.4
60633.9,40770.4
60584.8,40775.3
60537.7,40789.6
60494.3,40812.8
60456.2,40844
60425,40882.1
60401.8,40925.5
60387.5,40972.6
60382.6,41021.7
60382.6,42261.8
60387.5,42310.8
60401.8,42357.9
60425,42401.4
60456.2,42439.4
60494.3,42470.7
60537.7,42493.9
60584.8,42508.2
60633.9,42513
61027.6,42513
61076.6,42508.2
61123.7,42493.9
61167.1,42470.7
61205.2,42439.4
61236.4,42401.4
61259.6,42357.9
61273.9,42310.8
61278.8,42261.8
61278.8,41196.5
62162.9,42098.9
61670.3,42515.5
61644.4,42500
61633.8,42492.2
61621.7,42486.5
61621.6,42486.5
61610,42481
61585.7,42469.6
61585.6,42469.6
61585.6,42469.5
61560.3,42463.3
61534.1,42456.8
61534.1,42456.8
61534,42456.8
61507.6,42455.6
61481,42454.3
61481,42454.3
61480.9,42454.3
61455.1,42458.2
61428.5,42462.3
61428.5,42462.3
61428.4,42462.3
61404.2,42471
61378.6,42480.3
61378.5,42480.3
61378.5,42480.3
61356.4,42493.6
61333.1,42507.7
61333,42507.8
61333,42507.8
61314.1,42525
61293.8,42543.5
61293.8,42543.5
61293.7,42543.6
61278.5,42564.3
61262.2,42586.2
61262.2,42586.3
61262.2,42586.3
61251.4,42609.4
61245.3,42622.3
61245.3,42622.3
61239.6,42634.4
61236.4,42647.3
61178.6,42810.4
61167.1,42801
61123.7,42777.8
61076.6,42763.5
61027.6,42758.6
60633.9,42758.6
60584.8,42763.5
60537.7,42777.8
60494.3,42801
60456.2,42832.2
60425,42870.3
60401.8,42913.7
60387.5,42960.8
60382.6,43009.8
60382.6,44250
60387.5,44299
60401.8,44346.1
60425,44389.6
60456.2,44427.6
60494.3,44458.9
60537.7,44482.1
60580.7,44495.1
60564.3,44541.1
59042.7,44514.9
59037.3,44500.2
59076.6,44496.4
59123.7,44482.1
59167.1,44458.9
59205.2,44427.6
59236.4,44389.6
59259.6,44346.1
59273.9,44299
59278.8,44250
59277.6,43742.4
59215.1,43679.9
58880.7,43679.9
58880.7,43687.8
58780.7,43687.8
58780.7,43679.9
58772.8,43679.9
58772.8,43579.9
58780.7,43579.9
58780.7,42822.3
58880.7,42822.3
58880.7,43579.9
59215.1,43579.9
59277.6,43517.4
59278.8,43009.8
59382.6,43009.8
59382.6,44250
59387.5,44299
59401.8,44346.1
59425,44389.6
59456.2,44427.6
59494.3,44458.9
59537.7,44482.1
59584.8,44496.4
59633.9,44501.2
60027.6,44501.2
60076.6,44496.4
60123.7,44482.1
60167.1,44458.9
60205.2,44427.6
60236.4,44389.6
60259.6,44346.1
60273.9,44299
60278.8,44250
60278.8,43009.8
60273.9,42960.8
60259.6,42913.7
60236.4,42870.3
60205.2,42832.2
60167.1,42801
60123.7,42777.8
60076.6,42763.5
60027.6,42758.6
59633.9,42758.6
59584.8,42763.5
59537.7,42777.8
59494.3,42801
59456.2,42832.2
59425,42870.3
59401.8,42913.7
59387.5,42960.8
59382.6,43009.8
59278.8,43009.8
59273.9,42960.8
59259.6,42913.7
59236.4,42870.3
59205.2,42832.2
59167.1,42801
59123.7,42777.8
59076.6,42763.5
59027.6,42758.6
58943.2,42759.8
58880.7,42822.3
58780.7,42822.3
58718.2,42759.8
58633.9,42758.6
58584.8,42763.5
58537.7,42777.8
58494.3,42801
58456.2,42832.2
58436.8,42855.9
58345.9,42607.1
58343.7,42597.5
58339.9,42589.1
58337.2,42580.3
58329,42564.9
58321.8,42549
58319.9,42546.2
58318.4,42543.2
58314.9,42538.5
58312.2,42533.4
58301.1,42520
58291,42505.8
58288.5,42503.4
58286.4,42500.7
58282.1,42496.8
58278.5,42492.4
58265,42481.3
58252.3,42469.4
58249.4,42467.6
58246.8,42465.3
58241.9,42462.3
58237.4,42458.7
58222,42450.5
58207.3,42441.2
58204.1,42440
58201.1,42438.3
58195.7,42436.4
58190.6,42433.6
58173.9,42428.6
58157.6,42422.4
58154.2,42421.8
58151,42420.7
58145.2,42419.9
58139.7,42418.2
58122.4,42416.5
58105.2,42413.6
58101.8,42413.7
58098.4,42413.3
58079.4,42414.3
58073.6,42414.3
58069.5,42414.7
58052.1,42415.2
58048.8,42416
58045.3,42416.2
58039.7,42417.6
58034,42418.2
58017.3,42423.3
58000.3,42427.2
57997.2,42428.6
57993.9,42429.5
57988.7,42432
57983.1,42433.6
57967.8,42441.8
57964,42443.5
57961.1,42445.2
57946,42452.5
57944.1,42453.9
57552.1,41976.3
58382.6,41170.2
58382.6,42261.8
58387.5,42310.8
58401.8,42357.9
58425,42401.4
58456.2,42439.4
58494.3,42470.7
58537.7,42493.9
58584.8,42508.2
58633.9,42513
59027.6,42513
59076.6,42508.2
59123.7,42493.9
59167.1,42470.7
59205.2,42439.4
59236.4,42401.4
59259.6,42357.9
59273.9,42310.8
59278.8,42261.8
59278.8,41250.7
59382.6,41146.8
59382.6,42261.8
59387.5,42310.8
59401.8,42357.9
59425,42401.4
59456.2,42439.4
59494.3,42470.7
59537.7,42493.9
59584.8,42508.2
59633.9,42513
60027.6,42513
60076.6,42508.2
60123.7,42493.9
60167.1,42470.7
60205.2,42439.4
60236.4,42401.4
60259.6,42357.9
60273.9,42310.8
60278.8,42261.8
60278.8,41021.7
60273.9,40972.6
60259.6,40925.5
60236.4,40882.1
60205.2,40844
60167.1,40812.8
60123.7,40789.6
60076.6,40775.3
60027.6,40770.4
59694.3,40770.4
59696.5,40763.4
59700.8,40719.4
59702.2,40704.7
59700.8,40690
59700.8,38912.6
59795.3,38912.6
59844.3,38907.8
59874,38898.8
59903.7,38907.8
59952.8,38912.6
60110.2,38912.6
60159.2,38907.8
60179.1,38901.8
60199,38907.8
60248,38912.6
60444.9,38912.6
60493.9,38907.8
60541,38893.5
60584.4,38870.3
60622.5,38839
60653.8,38801
60677,38757.6
60691.3,38710.4
60696.1,38661.4
60696.1,38346.5
60691.3,38297.4
60677,38250.3
60653.8,38206.9
60622.5,38168.8
60599.1,38149.6
60622.5,38130.4
60653.8,38092.3
60666.3,38068.8
60710.3,38045.3
60755.9,38007.9
60765.3,37996.5
61112.1,37649.6
62072.8,37649.6
Z" /> 
<path style="fill:#008400; fill-opacity:1.0; 
stroke:#008400; stroke-width:100; stroke-opacity:1; 
stroke-linecap:round; stroke-linejoin:round;fill-rule:evenodd;"
d="M 62754.4,33237.3
62716.9,34393.8
62706.3,34348
62685.9,34303.1
62657.3,34263.1
62621.3,34229.4
62579.5,34203.4
62533.4,34186.1
62461.1,34168
62384.6,34212.2
62304.4,34511.4
62617.9,34595.4
62694.4,34551.2
62711,34493.8
62714.4,34473.5
62713,34516.3
62711.4,34527.4
62712.1,34542.8
62712.1,34544.9
62712.8,34556
62714,34580.5
62714.5,34582.5
62714.7,34584.6
62721,34608.2
62727,34632
62727.9,34633.9
62728.4,34635.9
62739.3,34657.9
62749.8,34680
62751,34681.7
62752,34683.6
62766.9,34703
62781.5,34722.6
62783,34724
62784.3,34725.7
62802.7,34741.8
62820.9,34758.2
62822.7,34759.3
62824.3,34760.7
62845.5,34772.9
62866.5,34785.5
62868.4,34786.2
62870.3,34787.3
62893.4,34795.1
62916.5,34803.3
62918.6,34803.6
62920.6,34804.3
62944.8,34807.5
62969,34811.1
62971.2,34811
62973.3,34811.2
62997.7,34809.6
63008.8,34809.1
63010.9,34808.7
63026.3,34807.7
63037.1,34804.8
63090.7,34796.8
64422.7,37015.7
64403.2,37038.7
64393.9,37047.7
64386.1,37058.9
64385.8,37059.2
64378.5,37069.8
64363.6,37091.3
64363.4,37091.6
64363.2,37092
64352.8,37115.9
64342.3,37140
64342.2,37140.4
64342.1,37140.7
64336.6,37166.3
64331,37191.9
64331,37192.3
64330.9,37192.6
64330.5,37218.8
64330,37245
64330,37245.4
64330,37245.8
64334.7,37271.6
64339.4,37297.3
64339.5,37297.6
64339.6,37298
64349.2,37322.4
64358.8,37346.7
64359,37347.1
64359.1,37347.4
64365.2,37356.9
64363.8,37356.5
64287.2,37400.7
64203.2,37714.2
64502.4,37794.3
64579,37750.2
64599.4,37678.5
64607.4,37629.9
64605.8,37580.7
64594.6,37532.7
64592.6,37528.3
64983.2,37746.6
65343.9,38172.4
65331.5,38186.3
65330.9,38187.2
65330.2,38188
65317.5,38210.1
65304.6,38232.1
65304.2,38233.1
65303.7,38234
65302.9,38236.3
64506.4,38024.5
64520.7,37967.5
64476.5,37890.9
64177.4,37810.8
64175.3,37818.4
64078.7,37792.5
64080.8,37784.9
64073.2,37782.9
64099,37686.3
64106.6,37688.3
64190.6,37374.8
64146.4,37298.3
64089,37281.7
64040.5,37273.6
63991.2,37275.3
63943.3,37286.4
63912.4,37300.4
63906,37291.5
63857.7,37246.3
63801.5,37211.3
63739.7,37188.1
63573.3,37143.5
63514.8,37133.8
63474.1,37100.4
63422.1,37072.6
63365.7,37055.5
63321.8,37051.2
63321.8,37051.2
63307.1,37049.7
63292.4,37051.2
61435,37051.2
62315.4,36170.8
62326.8,36161.4
62364.2,36115.9
62391.9,36063.9
62409.1,36007.5
62413.4,35963.5
62413.4,35963.5
62414.8,35948.8
62413.4,35934.1
62413.4,35473.2
62425.5,35460.3
62460.4,35404.2
62483.7,35342.3
62528.3,35175.9
62539,35110.7
62536.9,35044.6
62521.8,34980.2
62517.3,34970.1
62544.9,34950.4
62578.5,34914.4
62604.5,34872.6
62621.9,34826.5
62636.2,34768.5
62592,34691.9
62278.5,34608
62276.5,34615.6
62179.9,34589.7
62181.9,34582.1
62174.3,34580
62200.2,34483.4
62207.8,34485.5
62288,34186.3
62243.8,34109.7
62201.3,34097.6
62412.7,33452.2
62422.1,33454.1
62436.5,33454.1
62450.8,33455.5
62463,33454.2
62475.2,33454.2
62489.3,33451.5
62503.6,33450
62515.3,33446.4
62527.4,33444
62540.6,33438.6
62554.4,33434.4
62565.2,33428.5
62576.5,33423.9
62588.5,33415.9
62601.1,33409.1
62610.5,33401.3
62620.8,33394.5
62631,33384.4
62642,33375.2
62649.7,33365.7
62658.4,33357
62666.5,33345.1
62675.5,33334
62681.3,33323.1
62688.1,33313
62693.6,33299.7
62700.3,33287
62707.6,33262.6
62715.6,33236.5
Z" /> 
<path style="fill:#008400; fill-opacity:1.0; 
stroke:#008400; stroke-width:100; stroke-opacity:1; 
stroke-linecap:round; stroke-linejoin:round;fill-rule:evenodd;"
d="M 57104.5,33278.5
57127.7,33282.6
57130.7,33282.5
57133.8,33283
57157.3,33282
57180.8,33281.5
57183.8,33280.9
57186.8,33280.7
57192.8,33279.3
57421.3,34017.6
57374.3,34031
57330.1,34107.6
57410.3,34406.7
57417.9,34404.7
57443.8,34501.3
57436.2,34503.3
57438.2,34510.9
57341.6,34536.8
57339.6,34529.2
57026.1,34613.2
56981.9,34689.8
56996.2,34747.8
57013.6,34793.9
57039.6,34835.7
57073.3,34871.6
57100.8,34891.4
57096.3,34901.4
57081.2,34965.8
57079.1,35031.9
57089.9,35097.2
57134.4,35263.5
57157.7,35325.4
57192.7,35381.6
57237.9,35429.8
57255.9,35442.8
57255.9,36158.5
57254.5,36173.2
57255.9,36187.9
57255.9,36187.9
57260.2,36231.9
57277.3,36288.3
57305.1,36340.3
57320.8,36359.4
57342.5,36385.8
57353.9,36395.2
57963.1,37004.3
57972.4,37015.7
56262.7,37015.7
56248,37014.3
56233.3,37015.7
56233.3,37015.7
56189.4,37020.1
56133,37037.2
56081,37065
56061.6,37080.9
56035.4,37102.4
56030.1,37108.9
55987.1,37113.7
55818.6,37149.5
55755.6,37169.5
55697.7,37201.5
55647.2,37244.1
55640.3,37252.7
55610.2,37237.1
55562.8,37223.4
55513.8,37219.2
55464.8,37224.7
55406.7,37238.3
55358.5,37312.4
55426,37629.9
55433.7,37628.2
55454.5,37726
55446.8,37727.7
55448.4,37735.4
55350.6,37756.2
55349,37748.5
55046,37812.9
54997.8,37887
55007.8,37937.9
54161.7,38125.3
54160.8,38123.5
54159.1,38118.6
54148.4,38100.1
54138.3,38081.2
54135,38077.2
54132.4,38072.7
54118.3,38056.7
54104.7,38040.1
54101.9,38037.7
54542.7,37562.6
54576.6,37545.3
54928.9,37545.3
54934.4,37594.3
54951.1,37666.9
55025.2,37715.1
55328.2,37650.7
55260.7,37333.2
55186.6,37285.1
55127.9,37296.3
55080.9,37311.2
55037.8,37335
55000.2,37366.8
54969.4,37405.2
54946.8,37449
54933.1,37496.3
54928.9,37545.3
54576.6,37545.3
55046,37306.7
55057.2,37302.4
55069.6,37294.6
55070.8,37294
55080.9,37287.6
55102.2,37274.3
55103.2,37273.3
55104.3,37272.6
55122.5,37255.1
55140.9,37237.8
55141.7,37236.7
55142.7,37235.8
55157.1,37215.1
55171.7,37194.6
55172.3,37193.4
55173.1,37192.2
55183.2,37169.1
55193.5,37146.1
55193.8,37144.8
55194.4,37143.6
55199.8,37118.9
55205.5,37094.4
55205.5,37093
55205.8,37091.7
55206.3,37066.5
55207.1,37041.3
55206.9,37040
55206.9,37038.6
55202.5,37013.8
55198.3,36988.9
55197.8,36987.6
55197.6,36986.3
55188.4,36962.8
55179.5,36939.2
55178.8,36938.1
55178.3,36936.8
55164.7,36915.6
55158.4,36905.5
55157.6,36904.4
55149.7,36892.1
55141.4,36883.4
55123.2,36859.9
55564,36170.7
55575.3,36173.2
55578.8,36173.6
55623.9,36178.5
55630.7,36178.6
55637.4,36179.6
55640.9,36179.8
55702.9,36182.3
55724,36181.1
55745,36180.4
55748.5,36180
55791.5,36173.8
55801.6,36171.4
55812.1,36170
55825.5,36165.5
55839.2,36162.2
55848.7,36157.8
55858.7,36154.5
55861.9,36153
55899.6,36135.5
55913.2,36127.5
55927.3,36120.5
55930.3,36118.6
55946.8,36107.9
55946.9,36107.9
55947,36107.8
55966.3,36092.4
55985.3,36077.4
55985.4,36077.3
55985.5,36077.2
55988,36074.7
56038.5,36024.4
56048.4,36012.4
56059.1,36001.1
56064,35993.4
56069.8,35986.4
56077.1,35972.7
56085.5,35959.6
56087,35956.5
56123,35882.8
56124.2,35879.4
56126,35876.4
56132.8,35856.4
56140.2,35836.7
56140.7,35833.2
56141.9,35829.8
56142.7,35826.4
56164.3,35727.9
56166.4,35710.1
56169.5,35692.5
56169.8,35689
56177.3,35564.2
56176.9,35553.1
56177.7,35542
56177.6,35538.5
56171.2,35386.1
56170.3,35379.6
56170.3,35373.1
56170,35369.6
56159.2,35269
56160.9,35269.7
56175.9,35276.5
56183.9,35278.3
56191.6,35281.2
56207.8,35283.8
56223.8,35287.6
56232,35287.8
56240.1,35289.2
56256.5,35288.6
56272.9,35289.2
56281.1,35287.8
56289.3,35287.5
56305.3,35283.8
56321.5,35281.2
56324.9,35280.2
56345.4,35274.4
56359,35269.1
56372.9,35264.9
56381.8,35260.2
56391.2,35256.5
56403.5,35248.7
56410.7,35244.9
56412.9,35243.8
56413.4,35243.4
56416.4,35241.9
56419.3,35239.9
56424.3,35236.5
56429.5,35232.1
56432.7,35230.1
56437.9,35225
56438,35225
56452.3,35214.3
56454.8,35211.9
56473.5,35194.3
56485.7,35180.4
56498.5,35167
56501.8,35161.9
56505.9,35157.3
56515.1,35141.2
56525.1,35125.7
56527.3,35119.9
56530.4,35114.6
56536.3,35097.1
56543.1,35079.9
56544.2,35073.9
56546.2,35068
56548.6,35049.7
56551.9,35031.5
56551.8,35025.4
56552.6,35019.3
56551.4,35000.8
56551.1,34982.4
56550.7,34978.9
56548.2,34959.6
56547.1,34954.6
56546.7,34949.5
56541.6,34930.7
56537.2,34911.6
56535.1,34907
56533.8,34902
56525.1,34884.6
56517.1,34866.7
56514.2,34862.6
56511.9,34858
56510,34855
56495,34831.7
56480.9,34813.9
56467,34795.9
56464.6,34793.3
56452.7,34781
56485.1,34730.3
56514,34736.6
56531.6,34741.6
56553.1,34743.3
56574.5,34745.8
56579.5,34745.4
56584.6,34745.8
56606,34743.3
56627.4,34741.5
56632.3,34740.1
56637.3,34739.6
56657.8,34732.9
56678.5,34727
56683,34724.7
56687.9,34723.2
56706.7,34712.6
56725.8,34702.8
56729.8,34699.7
56734.2,34697.2
56750.6,34683.2
56767.5,34669.9
56770.8,34666
56774.6,34662.7
56788,34645.8
56801.9,34629.4
56804.4,34625
56807.5,34621
56817.3,34601.8
56827.8,34583.1
56829.4,34578.2
56831.7,34573.7
56837.5,34553
56844.2,34532.5
56844.7,34527.5
56846.1,34522.6
56847.8,34501.1
56850.3,34479.7
56848.9,34461.5
56847,34366.4
56899.1,34366.4
56907.1,34415
56923.7,34472.4
57000.3,34516.6
57313.7,34432.6
57233.5,34133.4
57157,34089.2
57084.7,34107.4
57038.6,34124.7
56996.8,34150.7
56960.9,34184.4
56932.2,34224.4
56911.9,34269.3
56900.7,34317.2
56899.1,34366.4
56847,34366.4
56839.4,33966.8
57103,33278.2
Z" /> 
<path style="fill:#008400; fill-opacity:1.0; 
stroke:#008400; stroke-width:100; stroke-opacity:1; 
stroke-linecap:round; stroke-linejoin:round;fill-rule:evenodd;"
d="M 54160.1,35140.9
54165.8,35151.2
54174,35161.1
54181.4,35171.8
54189.7,35180
54197.2,35189
54207.3,35197.1
54216.6,35206.1
54226.4,35212.5
54235.5,35219.9
54238.4,35221.8
54278.7,35247.6
54295.5,35256.1
54311.9,35265.4
54315.1,35266.8
54385.2,35296.9
54389,35298.1
54392.5,35299.9
54395.8,35301.2
54413.8,35308
54454.4,35323.8
54462.5,35349.5
54484.3,35424.9
54490.3,35447.1
54490.4,35447.2
54490.4,35447.3
54491.3,35450.7
54534.8,35601
54536.7,35605.6
54537.8,35610.4
54538.9,35613.7
54580.7,35733.8
54584.5,35742.2
54587.4,35751.1
54588.8,35754.3
54630.5,35847
54638.5,35860.9
54645.5,35875.4
54647.3,35878.4
54690.5,35946.7
54691.1,35947.4
54691.6,35948.3
54706.2,35966.9
54720.7,35985.5
54721.5,35986.1
54722.1,35986.9
54724.5,35989.4
54770.9,36036.1
54778.4,36042.4
54785.2,36049.5
54797.3,36058
54808.7,36067.5
54817.3,36072.2
54825.3,36077.8
54828.4,36079.5
54879.5,36107.6
54901.6,36117.1
54923.7,36126.7
54924.7,36127
54924.7,36127
54924.8,36127
54927.1,36127.8
54947.4,36134
54956.3,36135.8
54964.9,36138.7
54980.3,36140.6
54995.6,36143.7
55004.7,36143.8
55013.7,36144.9
55017.2,36145
55085.6,36146.1
55104.9,36144.5
55124.3,36143.7
55129.4,36142.5
55134.6,36142.1
55153.2,36136.8
55172.1,36132.3
55175.4,36131.1
55247.8,36104.9
55256.6,36100.7
55265.8,36097.6
55278.7,36090.1
55292.1,36083.7
55300,36077.9
55308.4,36073
55311.3,36071
55311.5,36070.8
55320.7,36077.6
55322.3,36078.4
55323.6,36079.4
55326.7,36081.1
55398.9,36121.6
55405,36124.3
55410.7,36127.8
55427.5,36134.2
55443.9,36141.4
55450.4,36142.8
55456.7,36145.2
55460.1,36146.1
55463.7,36147
55058.5,36775.9
53993.4,35394.8
54153.5,35131.3
Z" /> 
<path style="fill:#008400; fill-opacity:1.0; 
stroke:#008400; stroke-width:100; stroke-opacity:1; 
stroke-linecap:round; stroke-linejoin:round;fill-rule:evenodd;"
d="M 56389.6,34709.5
56384.7,34717.2
56366.4,34704.5
Z" /> 
<path style="fill:#008400; fill-opacity:1.0; 
stroke:#008400; stroke-width:100; stroke-opacity:1; 
stroke-linecap:round; stroke-linejoin:round;fill-rule:evenodd;"
d="M 54023.6,37984.7
54016.9,37981.1
54012,37979.6
54007.3,37977.3
53986.6,37971.8
53966.1,37965.6
53961,37965
53956,37963.7
53934.6,37962.4
53913.3,37960.2
53908.1,37960.7
53902.9,37960.4
53881.7,37963.3
53873.6,37964
53868.6,37965
53850.3,37967.5
53842.6,37970.1
53677.6,38002.6
54293.1,37689.5
Z" /> 
</g>
</g>
<g style="fill:#FFFFFF; fill-opacity:1.0; 
stroke:#FFFFFF; stroke-width:100; stroke-opacity:1; 
stroke-linecap:round; stroke-linejoin:round;">
</g>
<g style="fill:#FFFFFF; fill-opacity:1.0; 
stroke:#FFFFFF; stroke-width:0; stroke-opacity:1; 
stroke-linecap:round; stroke-linejoin:round;">
<circle cx="63126" cy="36452.8" r="78.7402" /> 
</g>
<g style="fill:#FFFFFF; fill-opacity:1.0; 
stroke:#FFFFFF; stroke-width:39.3701; stroke-opacity:1; 
stroke-linecap:round; stroke-linejoin:round;">
</g>
<g style="fill:#FFFFFF; fill-opacity:1.0; 
stroke:#FFFFFF; stroke-width:0; stroke-opacity:1; 
stroke-linecap:round; stroke-linejoin:round;">
<circle cx="56216.5" cy="36452.8" r="78.7402" /> 
</g>
<g style="fill:#FFFFFF; fill-opacity:1.0; 
stroke:#FFFFFF; stroke-width:39.3701; stroke-opacity:1; 
stroke-linecap:round; stroke-linejoin:round;">
</g>
<g style="fill:#FFFFFF; fill-opacity:1.0; 
stroke:#FFFFFF; stroke-width:0; stroke-opacity:1; 
stroke-linecap:round; stroke-linejoin:round;">
<circle cx="60023.6" cy="40444.9" r="78.7402" /> 
</g>
<g style="fill:#FFFFFF; fill-opacity:1.0; 
stroke:#FFFFFF; stroke-width:39.3701; stroke-opacity:1; 
stroke-linecap:round; stroke-linejoin:round;">
</g>
<g style="fill:#000000; fill-opacity:1.0; 
stroke:#000000; stroke-width:39.3701; stroke-opacity:1; 
stroke-linecap:round; stroke-linejoin:round;">
</g>
<g style="fill:#C2C200; fill-opacity:1.0; 
stroke:#C2C200; stroke-width:39.3701; stroke-opacity:1; 
stroke-linecap:round; stroke-linejoin:round;">
</g>
<g style="fill:#C2C200; fill-opacity:0.0; 
stroke:#C2C200; stroke-width:39.3701; stroke-opacity:1; 
stroke-linecap:round; stroke-linejoin:round;">
<path d="M58086 42683
L58852 44781
" />
<path d="M58852 44781
L60753 44814
" />
<path d="M60753 44814
L61495 42724
" />
<path d="M61495 42724
L64309 44400
" />
<path d="M64309 44400
L63055 42905
" />
<path d="M63055 42905
L66091 41627
" />
<path d="M66091 41627
L65550 38345
" />
<path d="M65550 38345
L67414 38796
" />
<path d="M67414 38796
L64600 37223
" />
<path d="M64600 37223
L65878 35716
" />
<path d="M65878 35716
L65091 34224
" />
<path d="M65091 34224
L62982 34540
" />
<path d="M62982 34540
L63093 31083
" />
<path d="M63093 31083
L62449 33184
" />
<path d="M62449 33184
L59811 31439
" />
<path d="M59811 31439
L57148 33012
" />
<path d="M57148 33012
L56513 31062
" />
<path d="M56513 31062
L56579 34474
" />
<path d="M56579 34474
L54510 34024
" />
<path d="M54510 34024
L53666 35412
" />
<path d="M53666 35412
L54936 37059
" />
<path d="M54936 37059
L51827 38640
" />
<path d="M51827 38640
L53912 38231
" />
<path d="M53912 38231
L53392 41442
" />
<path d="M53392 41442
L56550 42864
" />
<path d="M56550 42864
L54998 44457
" />
<path d="M54998 44457
L58086 42683
" />
<path d="M58086 42683
L58086 42683
" />
<g >
</g>
<g >
</g>
<g >
</g>
<g >
</g>
<g >
</g>
<g >
</g>
<g >
</g>
<g >
</g>
<g >
</g>
<g >
</g>
<g >
</g>
<g >
</g>
</g> 
</svg>
