<?xml version="1.0" encoding="UTF-8" standalone="no"?>
<!-- Created with Inkscape (http://www.inkscape.org/) -->

<svg
   xmlns:dc="http://purl.org/dc/elements/1.1/"
   xmlns:cc="http://creativecommons.org/ns#"
   xmlns:rdf="http://www.w3.org/1999/02/22-rdf-syntax-ns#"
   xmlns:svg="http://www.w3.org/2000/svg"
   xmlns="http://www.w3.org/2000/svg"
   xmlns:sodipodi="http://sodipodi.sourceforge.net/DTD/sodipodi-0.dtd"
   xmlns:inkscape="http://www.inkscape.org/namespaces/inkscape"
   inkscape:version="0.92.4 5da689c313, 2019-01-14"
   sodipodi:docname="ZoraSapphire.svg"
   viewBox="0 0 40.0 40.0"
   height="40.0mm"
   width="40.0mm"
   id="svg2"
   version="1.1">
  <metadata
     id="metadata8">
    <rdf:RDF>
      <cc:Work
         rdf:about="">
        <dc:format>image/svg+xml</dc:format>
        <dc:type
           rdf:resource="http://purl.org/dc/dcmitype/StillImage" />
        <dc:title />
      </cc:Work>
    </rdf:RDF>
  </metadata>
  <defs
     id="defs6" />
  <sodipodi:namedview
     pagecolor="#ffffff"
     bordercolor="#666666"
     borderopacity="1"
     objecttolerance="10"
     gridtolerance="10"
     guidetolerance="10"
     inkscape:pageopacity="0"
     inkscape:pageshadow="2"
     inkscape:window-width="1920"
     inkscape:window-height="1019"
     id="namedview4"
     showgrid="false"
     inkscape:zoom="3.1786133"
     inkscape:cx="14.8348"
     inkscape:cy="67.555529"
     inkscape:window-x="0"
     inkscape:window-y="0"
     inkscape:window-maximized="1"
     inkscape:current-layer="g839"
     borderlayer="true"
     inkscape:document-units="mm">
    <inkscape:grid
       id="grid819"
       units="mm"
       type="xygrid"
       empspacing="1"
       spacingy="2.54"
       spacingx="2.54" />
  </sodipodi:namedview>
  <g
     id="g825"
     sodipodi:insensitive="true"
     inkscape:groupmode="layer"
     inkscape:label="[fixed] BG">
    <rect
       id="rect823"
       style="stroke:none;fill-opacity:1;fill:#FFFFFF"
       height="40.0"
       width="40.0"
       y="0"
       x="0" />
  </g>
  <g
     id="g827"
     inkscape:groupmode="layer"
     inkscape:label="Edge.Cuts"
     style="display:inline">
    <path
       style="fill:none;stroke:#000000;stroke-width:0.26458332px;stroke-linecap:butt;stroke-linejoin:miter;stroke-opacity:1"
       d="M15.950597 31.707354L17.896299 37.034626L22.724138 37.117866L24.607412 31.811406L31.755527 36.066978L28.57165 32.269217L36.281627 29.022912L34.908188 20.688647L39.642383 21.833178L32.49427 17.837725L35.740575 14.008749L33.742849 10.221393L28.384362 11.022564L28.668558 2.2421149L27.031735 7.5785651L20.331029 3.1461096L13.567892 7.1415623L11.955144 2.1888656L12.121621 10.856085L6.8671847 9.7115544L4.7237906 13.23879L7.9492866 17.42153L0.05202413 21.437792L5.3480803 20.39731L4.0266672 28.554693L12.048788 32.165168L8.105359 36.212645L15.950597 31.707354"
       id="path859"
       inkscape:connector-curvature="0"
       sodipodi:nodetypes="cccccccccccccccccccccccccccc" />
  </g>
  <g
     id="g829"
     inkscape:groupmode="layer"
     inkscape:label="B.Cu-disabled" />
  <g
     id="g831"
     inkscape:groupmode="layer"
     inkscape:label="B.Mask"
     style="display:none;opacity:0.98999999">
    <path
       inkscape:connector-curvature="0"
       id="path865"
       d="m 5.3480803,20.39731 8.7816727,-1.997727 4.328407,7.533094 -6.409372,6.232491 -8.0221208,-3.610475 z"
       style="fill:#000005;fill-opacity:1;stroke:none;stroke-width:0.26458332px;stroke-linecap:butt;stroke-linejoin:miter;stroke-opacity:1" />
    <path
       inkscape:connector-curvature="0"
       id="path871"
       d="m 13.567892,7.1415623 2.566716,8.1672637 8.262273,0.161861 2.634854,-7.8921219 -6.700706,-4.4324555 z"
       style="display:inline;fill:#000000;fill-opacity:1;stroke:none;stroke-width:0.26458332px;stroke-linecap:butt;stroke-linejoin:miter;stroke-opacity:1" />
    <path
       style="fill:#000003;fill-opacity:1;stroke:none;stroke-width:0.26458332px;stroke-linecap:butt;stroke-linejoin:miter;stroke-opacity:1"
       d="m 34.908188,20.688647 -8.432863,-2.238244 -4.392322,7.368359 6.488647,6.450453 7.709977,-3.246302 z"
       id="path874"
       inkscape:connector-curvature="0" />
  </g>
  <g
     id="g833"
     inkscape:groupmode="layer"
     inkscape:label="B.Silk-disabled" />
  <g
     id="g835"
     inkscape:groupmode="layer"
     inkscape:label="F.Cu"
     style="display:none">
    <path
       style="display:inline;fill:#ff0000;fill-opacity:1;stroke:none;stroke-width:0.26458332px;stroke-linecap:butt;stroke-linejoin:miter;stroke-opacity:1"
       d="M 0.05202413,21.437792 7.9492866,17.42153 4.7237906,13.23879 6.8671847,9.7115541 12.121621,10.856085 11.955144,2.1888656 l 1.612748,4.9526967 2.566716,8.1672637 8.262273,0.161861 4.271678,-13.2285721 -0.284197,8.7804491 5.358487,-0.801171 1.997726,3.787356 -3.246305,3.828976 7.148113,3.995453 -4.734195,-1.144531 -8.432863,-2.238244 -4.392322,7.368359 6.686165,6.513399 2.986359,3.734817 -7.148115,-4.255571 -1.883274,5.306459 -4.827839,-0.08324 -1.945702,-5.327272 -7.845238,4.505291 3.869653,-4.039861 6.483148,-6.240107 -4.328407,-7.533094 -8.7816727,1.997727 z"
       id="path830"
       inkscape:connector-curvature="0"
       sodipodi:nodetypes="cccccccccccccccccccccccccccccc" />
  </g>
  <g
     id="g837"
     inkscape:groupmode="layer"
     inkscape:label="F.Mask"
     style="display:none">
    <path
       style="fill:#000002;fill-opacity:1;stroke:none;stroke-width:0.26458332px;stroke-linecap:butt;stroke-linejoin:miter;stroke-opacity:1"
       d="m 5.3480803,20.39731 8.7816727,-1.997727 4.328407,7.533094 -6.409372,6.232491 -8.0221208,-3.610475 z"
       id="path862"
       inkscape:connector-curvature="0" />
    <path
       style="display:inline;fill:#00000b;fill-opacity:1;stroke:none;stroke-width:0.26458332px;stroke-linecap:butt;stroke-linejoin:miter;stroke-opacity:1"
       d="m 13.567892,7.1415623 2.566716,8.1672637 8.262273,0.161861 2.634854,-7.8921219 -6.700706,-4.4324555 z"
       id="path868"
       inkscape:connector-curvature="0" />
    <path
       inkscape:connector-curvature="0"
       id="path876"
       d="m 34.908188,20.688647 -8.432863,-2.238244 -4.392322,7.368359 6.488647,6.450453 7.709977,-3.246302 z"
       style="fill:#000000;fill-opacity:1;stroke:none;stroke-width:0.26458332px;stroke-linecap:butt;stroke-linejoin:miter;stroke-opacity:1" />
  </g>
  <g
     id="g839"
     inkscape:groupmode="layer"
     inkscape:label="F.Silk"
     style="display:inline">
    <path
       style="fill:#000000;stroke-width:0.36297619"
       d="M 46.253906 15.703125 C 46.055821 15.753657 46.068951 17.256589 46.197266 21.890625 C 46.302488 25.689458 46.489573 29.492058 46.615234 30.341797 C 46.896998 32.247426 47.339831 32.302466 48.072266 30.523438 C 48.38094 29.773668 48.864539 28.898833 49.146484 28.580078 C 49.588901 28.079849 49.583056 27.822527 49.109375 26.685547 C 48.807542 25.961046 48.560547 25.035116 48.560547 24.626953 C 48.560547 23.432852 47.093008 17.264119 46.525391 16.074219 C 46.409057 15.830322 46.319935 15.686284 46.253906 15.703125 z M 51.658203 26.197266 C 51.118532 26.558486 50.74567 26.861307 50.746094 26.978516 C 50.746226 27.021402 50.887423 27.48272 50.949219 27.707031 L 51.947266 27.115234 L 51.658203 26.197266 z M 104.25391 27.183594 C 103.85114 27.246234 103.21355 28.128597 102.4043 29.796875 C 101.01486 32.661252 100.81401 32.833538 101.6582 30.433594 C 102.19635 28.903756 102.32718 28.208261 101.8457 27.607422 L 101.31641 29.191406 L 101.87305 29.560547 L 91.845703 59.6875 L 89.863281 59.648438 L 89.835938 59.734375 C 89.036446 62.165118 87.890451 64.115644 86.970703 64.609375 C 85.043428 65.643938 82.660337 64.387624 79.685547 60.769531 C 79.18897 60.165797 78.874439 59.7609 78.638672 59.427734 L 60.402344 59.068359 L 53.083984 35.707031 C 52.898485 35.345221 52.741655 35.052665 52.525391 34.615234 C 51.422615 32.384612 51.132213 31.995827 51.279297 32.955078 C 52.206324 39.000694 52.251579 40.779587 51.53125 42.613281 C 49.955981 46.623364 48.936044 50.008361 48.574219 52.425781 C 48.050936 55.921776 47.873903 56.607422 47.496094 56.607422 C 47.116266 56.607422 45.89232 52.944706 45.314453 50.082031 C 44.669722 46.888115 43.452997 43.173542 42.855469 42.574219 C 42.442457 42.159933 42.407651 41.915529 42.714844 41.607422 C 43.714026 40.605216 42.721868 40.039086 38.675781 39.308594 C 37.037688 39.012808 34.391562 38.534042 32.796875 38.244141 C 31.202188 37.954251 28.826541 37.712657 27.517578 37.708984 L 25.136719 37.703125 L 21.986328 43.248047 C 18.51763 49.353428 18.503849 49.838135 21.833984 47.943359 C 23.956176 46.735865 26.173102 46.027739 26.732422 46.378906 C 26.934736 46.505936 27.118984 47.980914 27.142578 49.65625 C 27.173343 51.831863 27.393168 53.170051 27.908203 54.337891 C 28.804927 56.371454 28.808138 56.911724 27.935547 57.857422 C 27.270726 58.57797 27.047214 59.365097 27.136719 60.669922 C 27.15966 61.004523 27.759435 62.038638 28.46875 62.970703 C 29.202656 63.935076 29.710075 64.983503 29.646484 65.404297 C 29.566351 65.934429 28.407056 66.73305 25.548828 68.222656 C 23.356137 69.365412 20.05929 71.218945 18.224609 72.341797 C 15.031216 74.296209 8.3216703 77.691406 7.6523438 77.691406 C 7.4766562 77.691406 7.1290156 77.936457 6.8808594 78.236328 C 6.2253959 79.028502 7.0017617 78.954692 12.328125 77.720703 C 14.825123 77.142209 17.612991 76.556869 18.523438 76.419922 L 20.179688 76.171875 L 19.552734 80.839844 C 19.440015 81.679007 19.313483 82.548675 19.189453 83.414062 L 20.212891 77.091797 L 52.1875 69.818359 C 50.711057 69.98639 47.313046 70.568607 43.503906 71.324219 C 38.610457 72.294915 34.281485 73.150444 33.882812 73.224609 C 33.484143 73.298764 34.627856 72.804947 36.421875 72.128906 C 40.75131 70.497443 44.914137 68.35727 45.197266 67.617188 C 45.344516 67.232307 45.144876 66.832556 44.636719 66.494141 C 44.20312 66.205385 43.851563 65.838319 43.851562 65.677734 C 43.851562 65.393098 46.75452 64.381453 52.121094 62.796875 C 53.227985 62.470021 53.965638 62.280406 54.509766 62.275391 C 55.416648 62.267076 55.786166 62.774806 56.429688 64.033203 C 56.743878 64.647584 57.917455 66.540758 59.037109 68.240234 C 61.229258 71.567617 71.891666 95.079079 71.6875 96.134766 C 71.404943 97.595712 70.682934 96.607691 68.691406 92.039062 C 66.631919 87.314527 65.85393 86.037095 65.34375 86.548828 C 65.103296 86.790038 65.675732 90.369613 66.166016 91.6875 C 66.193702 91.761922 66.180441 91.752441 66.201172 91.8125 L 67.931641 94.824219 L 68.476562 95.503906 C 68.877332 96.003753 69.206372 96.617247 69.210938 96.867188 C 69.212348 96.946644 69.200963 96.970026 69.197266 97.027344 L 69.763672 98.013672 L 65.966797 101.70508 C 63.473855 104.63407 49.130937 119.63959 46.322266 122.22266 C 43.749352 124.58891 41.858889 126.70776 42.101562 126.95117 C 42.643025 127.49427 49.021648 124.96823 55.289062 121.72852 C 59.905476 119.34221 60.565661 119.287 61.271484 121.24414 C 61.465412 121.78182 61.774457 122.55129 61.958984 122.95117 C 62.805447 124.78533 63.879596 127.71378 65.457031 132.49219 C 66.801031 136.56347 67.303672 137.67383 67.808594 137.67383 C 68.161942 137.67383 68.552599 137.50853 68.675781 137.30859 C 69.092108 136.63294 70.087013 136.93909 71.298828 138.11719 C 72.218996 139.01175 72.950926 139.34943 74.394531 139.53906 C 77.427455 139.93742 81.542969 139.47979 81.542969 138.74414 C 81.542969 138.31087 74.982133 130.76562 74.605469 130.76562 C 73.7279 130.76562 74.496441 128.34959 75.847656 126.86133 L 76.587891 126.04688 L 77.888672 127.56445 C 79.353073 129.27316 80.765079 131.53156 82.798828 135.41602 C 83.562293 136.87422 84.483118 138.22725 84.845703 138.42188 C 85.868137 138.9707 86.015508 138.6061 88.923828 128.40234 C 89.607673 126.00308 90.276508 123.51541 90.410156 122.875 C 90.948187 120.29717 92.99096 119.11999 94.78125 120.35352 C 95.96894 121.17184 99.359893 122.30195 101.47656 122.58594 C 102.57291 122.73304 103.9305 123.0903 104.49219 123.37891 C 106.74001 124.53389 106.01519 123.46304 101.63672 119.15625 C 98.680608 116.24854 96.374897 113.59949 95.150391 111.70703 C 93.342181 108.91246 90.314151 105.24138 85.275391 99.730469 C 84.019181 98.356546 82.992187 97.084373 82.992188 96.902344 C 82.992188 96.720322 83.862373 95.308549 84.925781 93.765625 C 85.989208 92.222527 87.801843 89.452647 88.953125 87.609375 C 90.121978 85.73797 91.308596 84.120575 91.796875 83.603516 L 93.613281 80.556641 C 93.572064 80.538005 93.602862 80.405339 93.707031 80.130859 C 93.809078 79.861946 93.948156 79.678672 94.058594 79.652344 C 94.088873 79.645237 94.114442 79.65682 94.138672 79.673828 L 99.095703 71.357422 C 98.814962 71.776406 98.493429 72.296697 98.191406 72.826172 C 97.577501 73.902407 96.988733 74.783203 96.884766 74.783203 C 96.780791 74.783203 97.09483 74.088021 97.583984 73.238281 C 98.073138 72.388541 98.566589 70.874696 98.679688 69.875 C 99.038476 66.703991 99.395959 66.185909 102.07227 64.96875 C 103.94319 64.117869 104.40707 63.765526 104.07812 63.435547 C 103.46104 62.816585 103.55295 62.423828 104.3125 62.423828 C 105.09575 62.423828 109.25221 64.396041 110.43359 65.328125 C 111.13928 65.884906 111.17498 66.014454 110.67969 66.205078 C 110.21922 66.3823 110.14588 66.747078 110.32617 67.96875 C 110.45135 68.816766 110.56484 69.918974 110.57812 70.416016 C 110.59135 70.913054 110.75721 71.608247 110.94531 71.960938 C 111.21509 72.466533 111.14932 72.618125 110.5 72.503906 L 118.72656 74.6875 C 117.98786 74.455358 117.46431 74.258599 117.54883 74.173828 C 117.63598 74.086408 119.04738 74.268384 120.68555 74.580078 C 122.32373 74.891776 124.29545 75.148437 125.06836 75.148438 C 126.39922 75.148438 126.47031 75.089331 126.38867 74.083984 C 126.30106 73.005205 125.15648 71.38003 124.25977 71.060547 C 123.98855 70.963867 123.88223 70.75979 124.02344 70.607422 C 124.06123 70.566792 124.13494 70.546497 124.24023 70.546875 C 125.82014 70.552166 134.51913 74.92198 135.55273 76.324219 C 136.50691 77.618696 136.28197 77.935572 134.83398 77.333984 C 134.23097 77.083439 133.45178 76.959596 133.10156 77.060547 C 132.75135 77.161498 132.21891 77.326947 131.91992 77.425781 C 131.34629 77.615345 126.55004 76.658629 122.64453 75.726562 L 131.93555 78.193359 L 132.31445 80.496094 C 132.13285 78.778889 132.07405 77.690642 132.2207 77.691406 C 132.35367 77.692045 134.42243 78.174225 136.81445 78.761719 C 141.27304 79.856788 144.96875 80.480176 144.96875 80.136719 C 144.96875 79.821544 138.5451 76.076741 134.63867 74.115234 C 129.16546 71.366996 121.34163 67.790037 113.07422 64.251953 C 101.58498 59.335083 101.11523 59.102183 101.11523 58.386719 C 101.11523 58.034051 101.43924 57.642542 101.83789 57.515625 C 102.53078 57.295052 102.56445 56.965788 102.56445 50.039062 C 102.56445 46.053772 102.42322 42.792969 102.25 42.792969 C 102.07678 42.792969 101.23804 44.960195 100.38867 47.609375 C 97.759395 55.810156 96.504171 58.0625 94.556641 58.0625 C 92.840837 58.0625 92.371725 57.73527 92.835938 56.865234 C 93.059154 56.446871 93.953068 54.049803 94.824219 51.539062 C 95.69537 49.028321 96.326459 47.464638 96.226562 48.064453 L 96.044922 49.154297 L 96.671875 48.273438 C 97.016568 47.789057 97.999924 45.845175 98.855469 43.953125 C 99.711018 42.061086 100.74182 40.043457 101.14844 39.470703 C 102.17408 38.025948 104.73828 30.219718 104.73828 28.541016 C 104.73828 27.582027 104.56717 27.134873 104.25391 27.183594 z M 126.17773 39.400391 C 125.88803 39.390186 125.51639 39.405435 125.02148 39.427734 C 122.54088 39.539193 118.80866 40.196499 118.12305 40.642578 C 117.55269 41.01369 117.67539 41.140128 121.31836 43.912109 C 122.40926 44.742192 123.22266 45.647192 123.22266 46.033203 C 123.22266 47.600086 117.27894 51.191453 116.33789 50.193359 C 116.17582 50.021353 116.18153 49.062193 116.34961 48.0625 C 116.90823 44.741898 116.90704 44.739944 114.6543 43.894531 C 113.53007 43.472634 111.92855 43.034702 111.09375 42.919922 L 109.57422 42.710938 L 108.98438 46.660156 C 108.66062 48.831945 108.29943 51.736527 108.18164 53.115234 C 107.92686 56.098287 107.53046 56.970703 106.42773 56.970703 C 105.6015 56.970703 104.73633 57.5755 104.73633 58.154297 C 104.73633 58.475103 109.19951 60.637662 114.79492 63.027344 C 116.53992 63.772595 118.70064 64.837055 119.59766 65.394531 C 120.49467 65.952004 121.48338 66.412236 121.79492 66.416016 C 122.41708 66.423575 123.98714 64.878051 124.62695 63.628906 C 125.28323 62.347639 125.12024 59.477994 124.31445 58.152344 C 123.61044 56.994191 122.41804 56.581419 121.95312 57.335938 C 121.82906 57.537271 121.25351 57.948372 120.67578 58.248047 C 119.69982 58.754247 119.59819 58.741404 119.24219 58.074219 C 118.76007 57.170643 119.65658 52.937247 120.69141 51.230469 C 122.06101 48.971528 122.70003 49.678471 124.65039 55.603516 C 125.29141 57.550883 125.97504 59.242476 126.16992 59.363281 C 127.08352 59.929617 128.44155 58.927757 130.99805 55.802734 C 132.50158 53.964837 133.73242 52.172852 133.73242 51.820312 C 133.73242 51.192811 131.41409 49.337891 130.63086 49.337891 C 130.41289 49.337891 129.8958 48.969386 129.48242 48.519531 C 128.89934 47.884964 128.69745 47.089837 128.58203 44.974609 C 128.48826 43.256138 128.16978 41.711438 127.71875 40.794922 C 127.1824 39.70508 127.04692 39.431243 126.17773 39.400391 z M 34.205078 39.46875 C 36.2491 39.512252 38.052014 39.728197 39.863281 40.136719 L 40.769531 40.341797 L 39.681641 40.824219 C 38.647671 41.283367 33.946882 41.415585 30.740234 41.076172 C 29.564076 40.951674 28.279651 40.113663 28.667969 39.724609 C 28.746209 39.646222 30.276295 39.535839 32.070312 39.480469 C 32.81428 39.457414 33.523737 39.45401 34.205078 39.46875 z M 122.20703 40.267578 C 123.0127 40.220901 124.10383 40.459069 124.88281 40.935547 C 125.8645 41.535989 126.05074 41.920035 126.41211 44.107422 C 126.63831 45.476711 126.69487 46.726551 126.53711 46.884766 C 126.20311 47.219745 125.0332 46.041243 125.0332 45.369141 C 125.0332 45.117878 124.11128 44.052028 122.98438 43 C 121.76351 41.860276 121.04146 40.917641 121.19531 40.667969 C 121.344 40.426684 121.72363 40.295558 122.20703 40.267578 z M 32.080078 46.482422 C 32.889133 46.562775 34.079699 47.171688 35.814453 48.228516 C 37.439884 49.218741 39.375044 50.14392 40.115234 50.283203 C 41.540948 50.551512 44.935547 53.377472 44.935547 54.294922 C 44.935547 54.989493 44.863956 54.962141 42.355469 53.335938 C 41.121823 52.536182 39.907755 51.882813 39.65625 51.882812 C 38.931692 51.882812 38.840408 52.694613 39.425781 53.939453 C 39.72289 54.571076 39.865811 55.347942 39.744141 55.666016 C 39.212361 57.055997 38.414063 55.960788 38.414062 53.84375 C 38.414062 52.782221 38.229646 52.508139 37.183594 52.007812 C 35.524704 51.214359 34.393843 51.565021 32.609375 53.427734 C 30.751496 55.36707 30.452924 55.013697 30.445312 50.857422 C 30.439494 47.682725 30.731655 46.348506 32.080078 46.482422 z M 127.80469 49.0625 C 128.65626 49.019451 132.82247 51.354732 132.94727 52.009766 C 133.0227 52.405577 132.58237 53.195953 131.88281 53.919922 C 130.50153 55.349354 129.49148 55.498465 129.06445 54.335938 C 128.20872 52.006267 127.49254 49.295137 127.68164 49.105469 C 127.70659 49.080146 127.74792 49.065372 127.80469 49.0625 z M 100.20898 51.335938 L 100.38867 53.880859 C 100.52137 55.744408 100.43344 56.596617 100.06055 57.0625 C 99.514649 57.744516 97.851563 57.942821 97.851562 57.326172 C 97.851562 57.121662 98.381459 55.689493 99.029297 54.144531 L 100.20898 51.335938 z M 33.960938 58.429688 C 34.937758 58.417971 35.610933 61.213521 34.699219 61.496094 C 34.45005 61.573309 33.543641 61.719222 32.683594 61.818359 C 30.458533 62.074876 30.230488 61.228672 32.099609 59.642578 C 32.881266 58.979282 33.718794 58.432596 33.960938 58.429688 z M 96.289062 58.556641 C 96.977587 58.518127 96.941048 59.241885 96.101562 60.003906 C 95.271883 60.75689 95.088427 60.754735 94.798828 59.998047 C 94.531011 59.297973 94.806724 58.969252 95.949219 58.623047 C 96.076891 58.584345 96.190721 58.562121 96.289062 58.556641 z M 61.921875 64.251953 C 62.226127 64.225118 62.77444 64.539559 63.570312 65.148438 C 64.223672 65.648286 64.917676 66.058594 65.113281 66.058594 C 65.308872 66.058594 65.850002 66.463103 66.314453 66.958984 C 66.778912 67.45487 67.76335 68.176349 68.501953 68.5625 L 69.84375 69.265625 L 71.380859 68.345703 C 74.314207 66.591178 76.148986 67.455418 82.628906 73.638672 L 86.435547 77.269531 L 85.464844 80.117188 C 84.930993 81.682643 84.374444 83.275518 84.226562 83.658203 C 83.704978 85.008114 84.792864 83.855694 86.65625 81.085938 C 89.42435 76.971389 90.323517 76.232501 90.785156 77.691406 C 90.93218 78.155959 91.333138 78.417969 91.896484 78.417969 C 92.381386 78.417969 92.779297 78.609805 92.779297 78.84375 C 92.779297 79.295842 84.336586 92.230586 82.582031 94.466797 C 81.347675 96.039984 81.280721 96.890913 82.292969 98.181641 C 83.334894 99.510235 83.039636 99.390669 80.617188 97.503906 C 79.462013 96.604178 78.239308 95.869141 77.900391 95.869141 C 76.760292 95.869141 76.488808 99.304401 77.388672 102.34375 C 77.878022 103.99655 78.331232 104.55805 81.103516 106.95312 C 82.840159 108.45349 84.647709 110.36032 85.119141 111.18945 L 85.974609 112.69727 L 84.759766 112.45312 C 83.333274 112.167 80.477697 109.51945 79.125 107.22852 C 78.623268 106.37877 78.068398 105.68359 77.892578 105.68359 C 77.364332 105.68359 76.539357 107.22546 76.265625 108.72656 C 76.023811 110.05263 75.852002 110.2119 73.363281 111.36523 C 70.579856 112.65514 70.080008 112.71517 67.333984 112.11719 C 65.881051 111.8008 65.595013 111.59267 65.402344 110.71289 C 65.028813 109.00708 65.539756 107.70712 67.242188 106.03125 C 68.130631 105.15667 68.857422 104.31064 68.857422 104.15234 C 68.857422 103.51688 68.035042 103.93923 66.486328 105.37109 C 63.933144 107.73167 64.149129 106.71302 66.841797 103.69531 C 69.470024 100.74985 72.328354 98.391938 76.21875 95.958984 C 77.365893 95.241581 77.362431 95.551301 76.302734 88.960938 C 75.965185 86.861584 75.3643 84.162524 74.96875 82.962891 C 73.869251 79.628285 71.484324 75.122347 70.005859 73.585938 C 68.892203 72.428646 68.472926 72.222377 67.408203 72.3125 C 65.74396 72.453401 65.649318 73.18497 66.849609 76.630859 C 67.929564 79.731289 67.538841 79.600791 66.21875 76.419922 C 65.720914 75.220285 64.479499 72.306613 63.460938 69.947266 C 61.768745 66.027536 61.252517 64.310415 61.921875 64.251953 z M 26.785156 74.464844 C 26.91106 74.470135 27.019855 74.504018 27.080078 74.564453 C 27.200505 74.685209 26.985571 74.771507 26.603516 74.755859 C 26.181296 74.738474 26.097615 74.649235 26.386719 74.533203 C 26.517532 74.480668 26.659253 74.459666 26.785156 74.464844 z M 17.505859 74.808594 C 18.271447 74.833539 18.273068 74.84736 17.574219 75.148438 C 16.576626 75.57841 16.22139 75.57841 16.486328 75.148438 C 16.609526 74.9485 17.069118 74.794458 17.505859 74.808594 z M 22.71875 75.177734 C 22.844355 75.183404 22.963476 75.19848 23.072266 75.220703 C 23.480313 75.305176 23.143429 75.512603 22.195312 75.759766 C 21.348138 75.980603 20.65625 76.0166 20.65625 75.841797 C 20.65625 75.488071 21.839525 75.138817 22.71875 75.177734 z M 14.814453 75.912109 C 14.837735 75.951719 14.662541 76.093684 14.310547 76.371094 C 13.911875 76.685324 13.26 76.943076 12.861328 76.943359 C 12.278904 76.943779 12.244829 76.880712 12.681641 76.632812 C 12.980647 76.463152 13.632517 76.20732 14.130859 76.0625 C 14.570854 75.934639 14.791146 75.8725 14.814453 75.912109 z M 68.908203 82.132812 C 68.918738 82.129288 68.931522 82.133803 68.949219 82.146484 C 69.034145 82.207373 69.201133 82.455984 69.443359 82.904297 C 69.749955 83.4718 69.910448 84.026678 69.800781 84.136719 C 69.691062 84.246741 69.435399 83.894101 69.230469 83.353516 C 68.93594 82.576522 68.834462 82.157499 68.908203 82.132812 z M 70.853516 86.535156 C 70.948155 86.558589 71.067733 86.71392 71.15625 86.945312 C 71.401315 87.585878 71.193517 87.699151 70.835938 87.119141 C 70.704523 86.9059 70.676467 86.653868 70.771484 86.558594 C 70.794917 86.534783 70.821994 86.527597 70.853516 86.535156 z M 17.599609 93.222656 C 17.571688 93.396667 17.531921 93.635573 17.503906 93.8125 L 17.599609 93.222656 z M 16.763672 108.61914 C 17.553441 109.16829 18.507955 109.68164 18.951172 109.68164 C 19.023174 109.68164 19.62366 109.92546 20.544922 110.32031 L 16.763672 108.61914 z M 77.689453 112.22656 C 78.256224 112.22656 88.9299 118.18271 89.873047 119.02539 C 89.969727 119.11175 89.703657 119.45872 89.283203 119.79492 C 88.423032 120.48277 87.325201 123.89813 86.455078 128.58398 C 86.139488 130.28346 85.70069 132.24748 85.480469 132.94727 C 84.861208 134.91515 84.589663 134.9619 83.398438 133.3125 C 82.077504 131.48349 80.825796 128.28618 80.796875 126.66406 C 80.785536 126.02175 80.662083 124.84077 80.521484 124.04102 C 80.281106 122.67361 80.179181 122.57523 78.820312 122.4043 C 77.613303 122.25251 77.396922 122.10339 77.513672 121.49609 C 77.590585 121.09622 77.628875 118.84537 77.597656 116.49609 C 77.566286 114.14682 77.607589 112.22656 77.689453 112.22656 z M 75.595703 114.86914 C 76.0111 114.851 76.207576 115.08421 76.511719 115.46094 C 77.264756 116.3937 77.427132 118.74195 76.818359 119.88281 C 76.612375 120.26889 75.804221 120.91392 75.021484 121.31445 C 74.238748 121.715 72.980058 122.02656 72.224609 122.00977 C 70.659896 121.97499 66.814189 121.20196 66.464844 120.85156 C 65.902809 120.28782 66.869605 119.43425 70.193359 117.55664 C 73.604727 115.62954 74.903377 114.89971 75.595703 114.86914 z M 30.921875 114.99023 C 31.520684 115.26846 32.203922 115.58057 32.722656 115.82617 C 35.191727 116.99518 38.212002 118.33251 40.597656 119.34375 L 30.921875 114.99023 z M 70.748047 122.77344 C 72.502231 122.78175 73.141788 123.28529 72.572266 124.20703 C 72.323081 124.61029 72.119141 125.58629 72.119141 126.37695 C 72.119141 129.02572 70.948091 128.52391 70.488281 125.67773 C 70.342921 124.77802 70.073819 123.7542 69.890625 123.4043 C 69.605271 122.85934 69.728111 122.76887 70.748047 122.77344 z "
       transform="scale(0.26458333)"
       id="path869" />
  </g>
  <g
     id="g841"
     inkscape:groupmode="layer"
     inkscape:label="Drill" />
</svg>
