%TF.GenerationSoftware,KiCad,Pcbnew,8.0.3*%
%TF.CreationDate,2024-07-16T13:25:23-05:00*%
%TF.ProjectId,DumpsterPanel,44756d70-7374-4657-9250-616e656c2e6b,rev?*%
%TF.SameCoordinates,Original*%
%TF.FileFunction,Profile,NP*%
%FSLAX46Y46*%
G04 Gerber Fmt 4.6, Leading zero omitted, Abs format (unit mm)*
G04 Created by KiCad (PCBNEW 8.0.3) date 2024-07-16 13:25:23*
%MOMM*%
%LPD*%
G01*
G04 APERTURE LIST*
%TA.AperFunction,Profile*%
%ADD10C,0.100000*%
%TD*%
G04 APERTURE END LIST*
D10*
X213017786Y-30364004D02*
X213064064Y-30755637D01*
X228822645Y-48786279D02*
X231405144Y-48786279D01*
X178690791Y-153319805D02*
X178174847Y-153592058D01*
X227475536Y-164687846D02*
X227167069Y-163790429D01*
X105059353Y-163790429D02*
X104735505Y-162898472D01*
X143327086Y-72272409D02*
X143408526Y-71582575D01*
X131658920Y-155473314D02*
X131745165Y-155862546D01*
X185253384Y-77047572D02*
X185140972Y-76584023D01*
X229405144Y-139338722D02*
X227471506Y-136451631D01*
X189702572Y-57916458D02*
X206275555Y-67572559D01*
X225478538Y-68572559D02*
X225203340Y-68573562D01*
X141508699Y-27417596D02*
X140549894Y-27654765D01*
X172654497Y-157507517D02*
X172609321Y-157734600D01*
X143798196Y-68573562D02*
X143495614Y-68601299D01*
X105363790Y-94879072D02*
X105466215Y-94722837D01*
X91141911Y-31537302D02*
X91227406Y-31938540D01*
X175312431Y-72891102D02*
X174897360Y-72620559D01*
X212568599Y-33434907D02*
X212121277Y-33170258D01*
X107056625Y-45636195D02*
X107011156Y-45185634D01*
X173730976Y-72103861D02*
X173364482Y-72015068D01*
X89030554Y-158161822D02*
X89002948Y-158481825D01*
X102769646Y-154381675D02*
X102854630Y-154034639D01*
X142392937Y-27228415D02*
X141508699Y-27417596D01*
X88946142Y-194290236D02*
X88946142Y-192205272D01*
X224942712Y-115776005D02*
X224744820Y-115847462D01*
X106412159Y-132826922D02*
X106574062Y-132381719D01*
X228008822Y-164434934D02*
X227616961Y-164631606D01*
X208053858Y-37367063D02*
X207811004Y-37575399D01*
X85703288Y-162293076D02*
X84785545Y-163132915D01*
X218367453Y-153898325D02*
X217866543Y-154241360D01*
X150022999Y-131931397D02*
X149506465Y-133653793D01*
X109346039Y-95662414D02*
X108297428Y-99489017D01*
X102965389Y-112113809D02*
X103106409Y-111764089D01*
X144458431Y-27558971D02*
X144765325Y-27201309D01*
X104547222Y-145464318D02*
X105466279Y-144849195D01*
X143222434Y-156794408D02*
X143277011Y-156105860D01*
X186827116Y-176732178D02*
X186688812Y-176589086D01*
X227391384Y-135016527D02*
X227658677Y-134584424D01*
X110264385Y-176042630D02*
X109636749Y-178833363D01*
X220946286Y-111107058D02*
X220430873Y-111293778D01*
X215198795Y-113974705D02*
X214810398Y-113803959D01*
X200265272Y-79044362D02*
X194615852Y-82364411D01*
X140549894Y-152372442D02*
X140050222Y-152515903D01*
X106738625Y-84958510D02*
X106672976Y-84307613D01*
X132304581Y-30388003D02*
X131955222Y-30363321D01*
X143162586Y-68651374D02*
X142392937Y-68800974D01*
X91959338Y-113587627D02*
X91602009Y-113533121D01*
X91270901Y-115714279D02*
X91249353Y-115934958D01*
X144263840Y-117211648D02*
X144206105Y-116728696D01*
X106596718Y-123996834D02*
X106628154Y-122776568D01*
X106045939Y-122809075D02*
X105901106Y-122862375D01*
X160362223Y-119175163D02*
X159160149Y-119832038D01*
X144073394Y-151717677D02*
X143798196Y-151718680D01*
X102574439Y-72960742D02*
X102624514Y-72272409D01*
X91270901Y-74141720D02*
X91249353Y-74362399D01*
X130251867Y-157673272D02*
X130012750Y-157586540D01*
X193183723Y-45786279D02*
X189203572Y-45786279D01*
X146168851Y-61704077D02*
X147094058Y-58988212D01*
X138507063Y-69933699D02*
X137988219Y-70174687D01*
X213064064Y-72328196D02*
X213150309Y-72717428D01*
X143984743Y-69840147D02*
X144199733Y-69486885D01*
X106628662Y-83669775D02*
X106603853Y-83042746D01*
X185476734Y-64306237D02*
X185334663Y-64108596D01*
X225193883Y-74156545D02*
X225057414Y-74174979D01*
X184111098Y-154727693D02*
X184174790Y-154381675D01*
X176675194Y-29906238D02*
X176201626Y-30331064D01*
X187015334Y-93917336D02*
X186934116Y-93745768D01*
X93492216Y-72620559D02*
X93091079Y-72402146D01*
X143557202Y-70889521D02*
X143667961Y-70541250D01*
X171866027Y-75007466D02*
X171418705Y-74742817D01*
X129662068Y-75650851D02*
X129648714Y-75712466D01*
X184539514Y-67235315D02*
X185476734Y-64306237D01*
X129648714Y-34139907D02*
X129648714Y-25000000D01*
X228131432Y-133710913D02*
X228336333Y-133270083D01*
X184174790Y-71236557D02*
X184259774Y-70889521D01*
X229171429Y-170503956D02*
X229164341Y-170353872D01*
X170471214Y-115941974D02*
X170435698Y-116589263D01*
X65594856Y-173503956D02*
X68617855Y-173503956D01*
X172657794Y-155080998D02*
X172315214Y-155081681D01*
X226654938Y-145464318D02*
X227573995Y-144849195D01*
X188120073Y-48786279D02*
X189201572Y-48786279D01*
X106228617Y-50124965D02*
X106412159Y-49681804D01*
X90910070Y-155081681D02*
X90956348Y-155473314D01*
X137988219Y-153319805D02*
X137472275Y-153592058D01*
X221455366Y-69370785D02*
X220946286Y-69534499D01*
X227167069Y-163790429D02*
X226843221Y-162898472D01*
X102834996Y-74203446D02*
X102637104Y-74274903D01*
X145438077Y-162898472D02*
X145116504Y-162005706D01*
X132304581Y-71960562D02*
X131955222Y-71935880D01*
X91602009Y-71960562D02*
X91252650Y-71935880D01*
X144206105Y-75156137D02*
X144171010Y-74665152D01*
X167351286Y-67540938D02*
X167351286Y-68071559D01*
X227636688Y-52173209D02*
X227529688Y-52014501D01*
X144263840Y-34066530D02*
X144206105Y-33583578D01*
X103929519Y-188826273D02*
X104547222Y-187036877D01*
X103134370Y-67235315D02*
X104071590Y-64306237D01*
X224962346Y-154034639D02*
X225073105Y-153686368D01*
X146748511Y-164381634D02*
X146603678Y-164434934D01*
X184902305Y-69486885D02*
X185161003Y-69131530D01*
X106603853Y-83042746D02*
X106596718Y-82424275D01*
X182211271Y-152135273D02*
X181252466Y-152372442D01*
X188702572Y-97766163D02*
X186768934Y-94879072D01*
X89066070Y-74369415D02*
X89030554Y-75016704D01*
X180243714Y-27961940D02*
X179728301Y-28148660D01*
X130012750Y-116013981D02*
X129768642Y-115941974D01*
X147441197Y-43385951D02*
X147375548Y-42735054D01*
X146066362Y-94879072D02*
X146168787Y-94722837D01*
X91602009Y-30388003D02*
X91252650Y-30363321D01*
X225478538Y-151717677D02*
X225203340Y-151718680D01*
X107056625Y-128781313D02*
X107011156Y-128330752D01*
X184908677Y-75156137D02*
X184873582Y-74665152D01*
X211053858Y-109646118D02*
X211053858Y-109644118D01*
X146912960Y-81200133D02*
X146748511Y-81236516D01*
X148499000Y-90358838D02*
X148501000Y-90358838D01*
X227717906Y-52344777D02*
X227636688Y-52173209D01*
X144632091Y-64108596D02*
X145249794Y-62319200D01*
X88946142Y-109644118D02*
X88946142Y-109060154D01*
X172654497Y-32789840D02*
X172609321Y-33016923D01*
X171418705Y-33170258D02*
X170954439Y-32955595D01*
X106323287Y-139781147D02*
X106824612Y-139820296D01*
X150966957Y-134470071D02*
X150339321Y-137260804D01*
X106391486Y-58988212D02*
X106002721Y-58228203D01*
X225193883Y-32583986D02*
X225057414Y-32602420D01*
X224567730Y-68651374D02*
X223798081Y-68800974D01*
X102637104Y-157420021D02*
X102424915Y-157484890D01*
X213137216Y-33493101D02*
X213000990Y-33743597D01*
X147375548Y-167452731D02*
X147331234Y-166814893D01*
X91132014Y-157968787D02*
X91029500Y-158210778D01*
X172654497Y-74362399D02*
X172609321Y-74589482D01*
X129705520Y-158481825D02*
X129662068Y-158795969D01*
X185140972Y-118156582D02*
X185044579Y-117687348D01*
X172677329Y-73926743D02*
X172676045Y-74141720D01*
X144632091Y-188826273D02*
X145249794Y-187036877D01*
X185256468Y-110240878D02*
X185026845Y-110175239D01*
X224682155Y-72960742D02*
X224732230Y-72272409D01*
X191041893Y-137260804D02*
X190751183Y-137234973D01*
X143537568Y-32630887D02*
X143339676Y-32702344D01*
X137472275Y-28874381D02*
X136962309Y-29180648D01*
X144438400Y-76584023D02*
X144342007Y-76114789D01*
X228821761Y-48789646D02*
X228822645Y-48786279D01*
X183865158Y-27078815D02*
X183095509Y-27228415D01*
X136461399Y-154241360D02*
X135972622Y-154623915D01*
X71076007Y-45786279D02*
X65594856Y-45786279D01*
X130716133Y-74742817D02*
X130251867Y-74528154D01*
X172298418Y-116888715D02*
X171866027Y-116580025D01*
X103503533Y-116728696D02*
X103468438Y-116237711D01*
X90013561Y-74742817D02*
X89549295Y-74528154D01*
X143836942Y-191952992D02*
X144774162Y-189023914D01*
X88946142Y-192205272D02*
X103134370Y-191952992D01*
X176201626Y-30331064D02*
X175746345Y-30800915D01*
X184111098Y-71582575D02*
X184174790Y-71236557D01*
X91272185Y-32354184D02*
X91270901Y-32569161D01*
X229164341Y-45636195D02*
X229118872Y-45185634D01*
X228336333Y-133270083D02*
X228519875Y-132826922D01*
X167351286Y-25000000D02*
X167351286Y-37367063D01*
X143277011Y-72960742D02*
X143327086Y-72272409D01*
X91029500Y-158210778D02*
X90893274Y-158461274D01*
X167351286Y-109646118D02*
X167351286Y-120512181D01*
X85946142Y-37367063D02*
X85703288Y-37575399D01*
X65594856Y-170503956D02*
X65594856Y-131931397D01*
X108803893Y-175226352D02*
X110264385Y-176042630D01*
X225242086Y-150380433D02*
X226179306Y-147451355D01*
X91602009Y-113533121D02*
X91252650Y-113508439D01*
X107011156Y-128330752D02*
X106941244Y-127881042D01*
X144206105Y-33583578D02*
X144171010Y-33092593D01*
X148499000Y-170503956D02*
X147766285Y-170503956D01*
X189702572Y-99489017D02*
X206275555Y-109145118D01*
X187728431Y-139781147D02*
X188229756Y-139820296D01*
X172447737Y-114289987D02*
X172547055Y-114682420D01*
X146168851Y-103276636D02*
X147094058Y-100560771D01*
X92702682Y-155376518D02*
X92325832Y-155248979D01*
X186768934Y-178024190D02*
X186871359Y-177867955D01*
X93907287Y-31318543D02*
X93492216Y-31048000D01*
X186768934Y-94879072D02*
X186871359Y-94722837D01*
X131951925Y-74362399D02*
X131906749Y-74589482D01*
X147299290Y-82424275D02*
X147330726Y-81204009D01*
X165572983Y-192290236D02*
X167351286Y-192258615D01*
X185253384Y-35475013D02*
X185140972Y-35011464D01*
X103370822Y-68572559D02*
X103095624Y-68573562D01*
X226037235Y-147253714D02*
X226654938Y-145464318D01*
X191041893Y-95688245D02*
X190751183Y-95662414D01*
X141508699Y-152135273D02*
X140549894Y-152372442D01*
X172657794Y-113508439D02*
X172315214Y-113509122D01*
X201064795Y-77602604D02*
X199862721Y-78259479D01*
X134609859Y-72891102D02*
X134194788Y-72620559D01*
X90013561Y-157887935D02*
X89549295Y-157673272D01*
X102769646Y-29663998D02*
X102854630Y-29316962D01*
X144553896Y-151813437D02*
X144324273Y-151747798D01*
X93492216Y-114193118D02*
X93091079Y-113974705D01*
X91249353Y-157507517D02*
X91204177Y-157734600D01*
X146325320Y-52764585D02*
X146373724Y-52526449D01*
X144342007Y-117687348D02*
X144263840Y-117211648D01*
X231405144Y-45786279D02*
X229171429Y-45786279D01*
X225863575Y-152276648D02*
X226170469Y-151918986D01*
X85946142Y-151216677D02*
X85946142Y-151218677D01*
X224532631Y-115912331D02*
X224587393Y-115566741D01*
X143808981Y-153336648D02*
X143984743Y-152985265D01*
X187076296Y-52526449D02*
X187015334Y-52344777D01*
X129648714Y-68071559D02*
X129648714Y-67487595D01*
X213335122Y-31938540D02*
X213364283Y-32144211D01*
X144765325Y-110346427D02*
X144553896Y-110240878D01*
X103458190Y-157310467D02*
X103252848Y-157297155D01*
X140549894Y-110799883D02*
X140050222Y-110943344D01*
X131844483Y-31537302D02*
X131929978Y-31938540D01*
X167351286Y-192258615D02*
X167351286Y-194290236D01*
X144160762Y-157310467D02*
X143955420Y-157297155D01*
X211110664Y-116909266D02*
X211067212Y-117223410D01*
X105550961Y-134584424D02*
X105797738Y-134149123D01*
X106023716Y-133710913D02*
X106228617Y-133270083D01*
X149506465Y-92081234D02*
X150966957Y-92897512D01*
X102624514Y-113844968D02*
X102705954Y-113155134D01*
X188229756Y-56675178D02*
X188702572Y-56193604D01*
X103497161Y-27914326D02*
X103755859Y-27558971D01*
X147527184Y-98247737D02*
X148000000Y-97766163D01*
X147025859Y-139781147D02*
X147527184Y-139820296D01*
X184259774Y-70889521D02*
X184370533Y-70541250D01*
X89002948Y-75336707D02*
X88959496Y-75650851D01*
X152481151Y-170503956D02*
X148501000Y-170503956D01*
X185253384Y-160192690D02*
X185140972Y-159729141D01*
X211053858Y-192205272D02*
X225242086Y-191952992D01*
X180752794Y-69370785D02*
X180243714Y-69534499D01*
X213379901Y-115499302D02*
X213378617Y-115714279D01*
X184873582Y-116237711D02*
X184863334Y-115737908D01*
X107011156Y-86758193D02*
X106941244Y-86308483D01*
X142392937Y-110373533D02*
X141508699Y-110562714D01*
X213239730Y-157968787D02*
X213137216Y-158210778D01*
X228681778Y-49236601D02*
X228821761Y-48789646D01*
X228735870Y-39631450D02*
X228509674Y-39614581D01*
X90460883Y-158152584D02*
X90013561Y-157887935D01*
X214810398Y-113803959D02*
X214433548Y-113676420D01*
X103503533Y-75156137D02*
X103468438Y-74665152D01*
X187027892Y-135909703D02*
X187076296Y-135671567D01*
X213379901Y-32354184D02*
X213378617Y-32569161D01*
X187027892Y-94337144D02*
X187076296Y-94099008D01*
X91029500Y-75065660D02*
X90893274Y-75316156D01*
X107798428Y-131931397D02*
X109320427Y-131931397D01*
X95758827Y-112668801D02*
X95270050Y-113051356D01*
X146124544Y-93587060D02*
X145986240Y-93443968D01*
X104547222Y-103891759D02*
X105466279Y-103276636D01*
X211173786Y-74369415D02*
X211138270Y-75016704D01*
X171418705Y-116315376D02*
X170954439Y-116100713D01*
X167351286Y-120512181D02*
X167108432Y-120720517D01*
X220946286Y-27961940D02*
X220430873Y-28148660D01*
X145116504Y-37288029D02*
X144814863Y-36388190D01*
X153913280Y-40791852D02*
X152481151Y-45786279D01*
X149506465Y-50508675D02*
X150966957Y-51324953D01*
X96259737Y-29180648D02*
X95758827Y-29523683D01*
X172537158Y-74823669D02*
X172434644Y-75065660D01*
X224682155Y-31388183D02*
X224732230Y-30699850D01*
X186871423Y-144849195D02*
X187796630Y-142133330D01*
X187728431Y-98208588D02*
X188229756Y-98247737D01*
X184491311Y-74156545D02*
X184354842Y-74174979D01*
X224813670Y-30010016D02*
X224877362Y-29663998D01*
X148501000Y-173503956D02*
X150022999Y-173503956D01*
X107297428Y-56193604D02*
X105363790Y-53306513D01*
X228509674Y-39614581D02*
X228318104Y-39627574D01*
X105901106Y-81289816D02*
X105509245Y-81486488D01*
X92325832Y-113676420D02*
X91959338Y-113587627D01*
X184863334Y-74165349D02*
X184657992Y-74152037D01*
X170954439Y-32955595D02*
X170715322Y-32868863D01*
X228431003Y-56636029D02*
X228932328Y-56675178D01*
X180752794Y-152515903D02*
X180243714Y-152679617D01*
X136461399Y-29523683D02*
X135972622Y-29906238D01*
X225863575Y-27558971D02*
X226170469Y-27201309D01*
X221455366Y-152515903D02*
X220946286Y-152679617D01*
X184198186Y-110173858D02*
X183865158Y-110223933D01*
X225073105Y-112113809D02*
X225214125Y-111764089D01*
X179728301Y-28148660D02*
X179209635Y-28361140D01*
X184902305Y-152632003D02*
X185161003Y-152276648D01*
X184029658Y-72272409D02*
X184111098Y-71582575D01*
X144814863Y-36388190D02*
X144550812Y-35475013D01*
X166190689Y-79987797D02*
X160362223Y-77602604D01*
X185161003Y-27558971D02*
X185467897Y-27201309D01*
X99347650Y-27798226D02*
X98838570Y-27961940D01*
X91252650Y-155080998D02*
X90910070Y-155081681D01*
X147104530Y-164332258D02*
X146912960Y-164345251D01*
X103503533Y-33583578D02*
X103468438Y-33092593D01*
X224732230Y-72272409D02*
X224813670Y-71582575D01*
X106574062Y-49236601D02*
X106714045Y-48789646D01*
X103851324Y-110240878D02*
X103621701Y-110175239D01*
X144550812Y-35475013D02*
X144438400Y-35011464D01*
X225611249Y-75156137D02*
X225576154Y-74665152D01*
X208053858Y-67540938D02*
X208053858Y-68071559D01*
X225604877Y-152632003D02*
X225863575Y-152276648D01*
X185026845Y-68602680D02*
X184775966Y-68572559D01*
X106603853Y-166187864D02*
X106596718Y-165569393D01*
X68934177Y-137260804D02*
X68643467Y-137234973D01*
X213709725Y-113533121D02*
X213360366Y-113508439D01*
X147713728Y-45185634D02*
X147643816Y-44735924D01*
X107798428Y-90358838D02*
X109320427Y-90358838D01*
X129648714Y-117285025D02*
X129648714Y-109646118D01*
X172661711Y-115289329D02*
X172677329Y-115499302D01*
X229171429Y-128931397D02*
X229164341Y-128781313D01*
X103735828Y-76584023D02*
X103639435Y-76114789D01*
X188346388Y-169453601D02*
X188232581Y-168769835D01*
X182211271Y-27417596D02*
X181252466Y-27654765D01*
X143808981Y-111764089D02*
X143984743Y-111412706D01*
X103282171Y-111412706D02*
X103497161Y-111059444D01*
X105283668Y-176589086D02*
X105550961Y-176156983D01*
X185044579Y-159259907D02*
X184966412Y-158784207D01*
X139025729Y-111293778D02*
X138507063Y-111506258D01*
X186934116Y-52173209D02*
X186827116Y-52014501D01*
X188033298Y-81204009D02*
X187807102Y-81187140D01*
X105283668Y-51871409D02*
X105550961Y-51439306D01*
X107063713Y-45786279D02*
X107056625Y-45636195D01*
X227730464Y-94337144D02*
X227778868Y-94099008D01*
X224942712Y-157348564D02*
X224744820Y-157420021D01*
X208053858Y-109646118D02*
X208053858Y-120512181D01*
X142392937Y-68800974D02*
X141508699Y-68990155D01*
X106824612Y-139820296D02*
X107297428Y-139338722D01*
X229118872Y-169903311D02*
X229048960Y-169453601D01*
X184029658Y-30699850D02*
X184111098Y-30010016D01*
X172434644Y-116638219D02*
X172298418Y-116888715D01*
X211067212Y-75650851D02*
X211053858Y-75712466D01*
X126648714Y-162084740D02*
X126405860Y-162293076D01*
X167351286Y-68071559D02*
X167351286Y-68073559D01*
X102624514Y-155417527D02*
X102705954Y-154727693D01*
X172677329Y-32354184D02*
X172676045Y-32569161D01*
X144171010Y-157810270D02*
X144160762Y-157310467D01*
X229171429Y-87358838D02*
X229164341Y-87208754D01*
X175312431Y-31318543D02*
X174897360Y-31048000D01*
X144438400Y-159729141D02*
X144342007Y-159259907D01*
X219912207Y-153078817D02*
X219393363Y-153319805D01*
X191669529Y-176042630D02*
X191041893Y-178833363D01*
X129662068Y-117223410D02*
X129648714Y-117285025D01*
X67594856Y-99489017D02*
X84167839Y-109145118D01*
X228704434Y-123996834D02*
X228735870Y-122776568D01*
X147766285Y-45786279D02*
X147759197Y-45636195D01*
X225360564Y-115724596D02*
X225193883Y-115729104D01*
X108297428Y-57916458D02*
X124870411Y-67572559D01*
X105797738Y-134149123D02*
X106023716Y-133710913D01*
X144550812Y-77047572D02*
X144438400Y-76584023D01*
X88946142Y-67487595D02*
X103134370Y-67235315D01*
X129648714Y-109644118D02*
X129648714Y-109060154D01*
X68934177Y-95688245D02*
X68643467Y-95662414D01*
X186772964Y-123115287D02*
X186464497Y-122217870D01*
X188461769Y-87208754D02*
X188416300Y-86758193D01*
X172661711Y-73716770D02*
X172677329Y-73926743D01*
X106210388Y-164345251D02*
X106045939Y-164381634D01*
X143836942Y-150380433D02*
X144774162Y-147451355D01*
X225729417Y-27030121D02*
X225478538Y-27000000D01*
X102705954Y-30010016D02*
X102769646Y-29663998D01*
X143182249Y-115566741D02*
X143222434Y-115221849D01*
X106941244Y-169453601D02*
X106827437Y-168769835D01*
X174107826Y-30658841D02*
X173730976Y-30531302D01*
X225747151Y-34542230D02*
X225668984Y-34066530D01*
X183979583Y-156105860D02*
X184029658Y-155417527D01*
X118860128Y-162189480D02*
X113210708Y-165509529D01*
X229405144Y-180911281D02*
X227471506Y-178024190D01*
X189203572Y-90358838D02*
X190725571Y-90358838D01*
X126648714Y-109646118D02*
X126648714Y-120512181D01*
X188078120Y-125880172D02*
X188033806Y-125242334D01*
X144438400Y-118156582D02*
X144342007Y-117687348D01*
X213378617Y-157286838D02*
X213357069Y-157507517D01*
X102479677Y-73994182D02*
X102519862Y-73649290D01*
X225057414Y-32602420D02*
X224942712Y-32630887D01*
X172434644Y-75065660D02*
X172298418Y-75316156D01*
X171418705Y-157887935D02*
X170954439Y-157673272D01*
X105509245Y-39913929D02*
X105367820Y-39970169D01*
X126648714Y-78939622D02*
X126405860Y-79147958D01*
X219393363Y-28602128D02*
X218877419Y-28874381D01*
X185476734Y-147451355D02*
X185334663Y-147253714D01*
X85946142Y-109644118D02*
X85946142Y-109646118D01*
X225193883Y-157301663D02*
X225057414Y-157320097D01*
X227529688Y-52014501D02*
X227391384Y-51871409D01*
X214433548Y-72103861D02*
X214067054Y-72015068D01*
X172298418Y-158461274D02*
X171866027Y-158152584D01*
X208053858Y-68073559D02*
X208053858Y-78939622D01*
X193183723Y-170503956D02*
X189203572Y-170503956D01*
X97804491Y-69933699D02*
X97285647Y-70174687D01*
X225668984Y-117211648D02*
X225611249Y-116728696D01*
X118457577Y-119832038D02*
X118860128Y-120616921D01*
X187202882Y-51004005D02*
X187428860Y-50565795D01*
X228153655Y-164381634D02*
X228008822Y-164434934D01*
X228780692Y-84307613D02*
X228736378Y-83669775D01*
X103929519Y-105681155D02*
X104547222Y-103891759D01*
X98323157Y-111293778D02*
X97804491Y-111506258D01*
X147094058Y-183705889D02*
X146705293Y-182945880D01*
X190725571Y-48786279D02*
X190209037Y-50508675D01*
X225747151Y-117687348D02*
X225668984Y-117211648D01*
X143537568Y-74203446D02*
X143339676Y-74274903D01*
X227717906Y-93917336D02*
X227636688Y-93745768D01*
X185517435Y-161105867D02*
X185253384Y-160192690D01*
X106574062Y-132381719D02*
X106714045Y-131934764D01*
X102854630Y-29316962D02*
X102965389Y-28968691D01*
X129768642Y-157514533D02*
X129733126Y-158161822D01*
X147643816Y-44735924D02*
X147530009Y-44052158D01*
X133405254Y-113803959D02*
X133028404Y-113676420D01*
X143472218Y-71236557D02*
X143557202Y-70889521D01*
X184198186Y-27028740D02*
X183865158Y-27078815D01*
X214067054Y-155160186D02*
X213709725Y-155105680D01*
X108803893Y-133653793D02*
X110264385Y-134470071D01*
X150966957Y-92897512D02*
X150339321Y-95688245D01*
X184354842Y-32602420D02*
X184240140Y-32630887D01*
X213137216Y-158210778D02*
X213000990Y-158461274D01*
X228153655Y-81236516D02*
X228008822Y-81289816D01*
X129648714Y-192205272D02*
X143836942Y-191952992D01*
X102624514Y-72272409D02*
X102705954Y-71582575D01*
X225214125Y-111764089D02*
X225389887Y-111412706D01*
X146070392Y-164687846D02*
X145761925Y-163790429D01*
X147417501Y-48786279D02*
X148499000Y-48786279D01*
X225611249Y-158301255D02*
X225576154Y-157810270D01*
X131929978Y-115083658D02*
X131959139Y-115289329D01*
X187407865Y-58228203D02*
X187728431Y-56636029D01*
X208053858Y-109644118D02*
X208053858Y-109646118D01*
X227658677Y-134584424D02*
X227905454Y-134149123D01*
X91959338Y-30442509D02*
X91602009Y-30388003D01*
X211110664Y-75336707D02*
X211067212Y-75650851D01*
X211067212Y-117223410D02*
X211053858Y-117285025D01*
X77755005Y-161404597D02*
X78157556Y-162189480D01*
X224813670Y-71582575D02*
X224877362Y-71236557D01*
X91256567Y-115289329D02*
X91272185Y-115499302D01*
X224627578Y-156794408D02*
X224682155Y-156105860D01*
X224877362Y-71236557D02*
X224962346Y-70889521D01*
X150022999Y-173503956D02*
X149506465Y-175226352D01*
X90956348Y-30755637D02*
X91042593Y-31144869D01*
X107798428Y-45786279D02*
X107796428Y-45786279D01*
X137988219Y-111747246D02*
X137472275Y-112019499D01*
X146500310Y-92576564D02*
X146726288Y-92138354D01*
X228822645Y-173503956D02*
X231405144Y-173503956D01*
X106603853Y-124615305D02*
X106596718Y-123996834D01*
X143984743Y-152985265D02*
X144199733Y-152632003D01*
X185476734Y-189023914D02*
X185334663Y-188826273D01*
X65594856Y-25000000D02*
X85946142Y-25000000D01*
X129733126Y-33444145D02*
X129705520Y-33764148D01*
X106714045Y-131934764D02*
X106714929Y-131931397D01*
X225959040Y-151813437D02*
X225729417Y-151747798D01*
X185517435Y-36388190D02*
X185253384Y-35475013D01*
X177163971Y-112668801D02*
X176675194Y-113051356D01*
X110264385Y-92897512D02*
X109636749Y-95688245D01*
X170364640Y-158795969D02*
X170351286Y-158857584D01*
X224813670Y-154727693D02*
X224877362Y-154381675D01*
X228932328Y-56675178D02*
X229405144Y-56193604D01*
X143222434Y-115221849D02*
X143277011Y-114533301D01*
X102574439Y-114533301D02*
X102624514Y-113844968D01*
X105363790Y-136451631D02*
X105466215Y-136295396D01*
X130251867Y-116100713D02*
X130012750Y-116013981D01*
X126405860Y-162293076D02*
X125488117Y-163132915D01*
X148000000Y-180911281D02*
X146066362Y-178024190D01*
X189201572Y-170503956D02*
X188468857Y-170503956D01*
X172537158Y-33251110D02*
X172434644Y-33493101D01*
X228318104Y-39627574D02*
X228153655Y-39663957D01*
X106210388Y-81200133D02*
X106045939Y-81236516D01*
X104062753Y-110346427D02*
X103851324Y-110240878D01*
X172447737Y-72717428D02*
X172547055Y-73109861D01*
X199862721Y-36686920D02*
X200265272Y-37471803D01*
X144814863Y-77960749D02*
X144550812Y-77047572D01*
X172657794Y-30363321D02*
X172315214Y-30364004D01*
X160362223Y-77602604D02*
X159160149Y-78259479D01*
X228780692Y-167452731D02*
X228736378Y-166814893D01*
X207811004Y-120720517D02*
X206893261Y-121560356D01*
X97285647Y-28602128D02*
X96769703Y-28874381D01*
X166190689Y-121560356D02*
X160362223Y-119175163D01*
X102769646Y-112809116D02*
X102854630Y-112462080D01*
X228431003Y-139781147D02*
X228932328Y-139820296D01*
X184966412Y-117211648D02*
X184908677Y-116728696D01*
X228499202Y-100560771D02*
X228110437Y-99800762D01*
X174107826Y-72231400D02*
X173730976Y-72103861D01*
X118860128Y-79044362D02*
X113210708Y-82364411D01*
X150339321Y-178833363D02*
X150048611Y-178807532D01*
X217866543Y-112668801D02*
X217377766Y-113051356D01*
X129768642Y-74369415D02*
X129733126Y-75016704D01*
X150048611Y-95662414D02*
X149000000Y-99489017D01*
X224942712Y-32630887D02*
X224744820Y-32702344D01*
X144814863Y-161105867D02*
X144550812Y-160192690D01*
X103095624Y-27001003D02*
X102793042Y-27028740D01*
X150339321Y-54115686D02*
X150048611Y-54089855D01*
X131929978Y-73511099D02*
X131959139Y-73716770D01*
X190751183Y-95662414D02*
X189702572Y-99489017D01*
X78157556Y-37471803D02*
X72508136Y-40791852D01*
X138507063Y-28361140D02*
X137988219Y-28602128D01*
X228821761Y-131934764D02*
X228822645Y-131931397D01*
X146231544Y-52173209D02*
X146124544Y-52014501D01*
X130251867Y-32955595D02*
X130012750Y-32868863D01*
X147276634Y-49236601D02*
X147416617Y-48789646D01*
X105553485Y-52971082D02*
X105622748Y-52764585D01*
X143495614Y-110173858D02*
X143162586Y-110223933D01*
X144171010Y-116237711D02*
X144160762Y-115737908D01*
X143408526Y-71582575D02*
X143472218Y-71236557D01*
X184259774Y-154034639D02*
X184370533Y-153686368D01*
X170351286Y-109646118D02*
X170351286Y-109644118D01*
X214433548Y-155248979D02*
X214067054Y-155160186D01*
X212568599Y-75007466D02*
X212121277Y-74742817D01*
X189702572Y-141061576D02*
X206275555Y-150717677D01*
X228509674Y-81187140D02*
X228318104Y-81200133D01*
X105509245Y-164631606D02*
X105367820Y-164687846D01*
X215198795Y-155547264D02*
X214810398Y-155376518D01*
X146256057Y-136116200D02*
X146325320Y-135909703D01*
X186956105Y-176156983D02*
X187202882Y-175721682D01*
X175312431Y-156036220D02*
X174897360Y-155765677D01*
X106023716Y-50565795D02*
X106228617Y-50124965D01*
X103086167Y-157301663D02*
X102949698Y-157320097D01*
X106824612Y-98247737D02*
X107297428Y-97766163D01*
X90893274Y-75316156D02*
X90460883Y-75007466D01*
X184370533Y-153686368D02*
X184511553Y-153336648D01*
X143339676Y-74274903D02*
X143127487Y-74339772D01*
X228736378Y-42097216D02*
X228711569Y-41470187D01*
X109320427Y-90358838D02*
X108803893Y-92081234D01*
X146124544Y-52014501D02*
X145986240Y-51871409D01*
X131955222Y-155080998D02*
X131612642Y-155081681D01*
X184873582Y-157810270D02*
X184863334Y-157310467D01*
X188120073Y-173503956D02*
X189201572Y-173503956D01*
X220430873Y-111293778D02*
X219912207Y-111506258D01*
X188229756Y-98247737D02*
X188702572Y-97766163D01*
X144160762Y-115737908D02*
X143955420Y-115724596D01*
X134194788Y-155765677D02*
X133793651Y-155547264D01*
X218367453Y-29180648D02*
X217866543Y-29523683D01*
X107796428Y-90358838D02*
X107798428Y-90358838D01*
X229171429Y-45786279D02*
X229164341Y-45636195D01*
X143408526Y-154727693D02*
X143472218Y-154381675D01*
X147330726Y-164349127D02*
X147104530Y-164332258D01*
X190209037Y-92081234D02*
X191669529Y-92897512D01*
X147276634Y-90809160D02*
X147416617Y-90362205D01*
X187979206Y-173954278D02*
X188119189Y-173507323D01*
X170715322Y-74441422D02*
X170471214Y-74369415D01*
X226179306Y-147451355D02*
X226037235Y-147253714D01*
X187633761Y-91697524D02*
X187817303Y-91254363D01*
X96769703Y-70446940D02*
X96259737Y-70753207D01*
X225565906Y-32592790D02*
X225360564Y-32579478D01*
X147766285Y-87358838D02*
X147759197Y-87208754D01*
X208053858Y-120512181D02*
X207811004Y-120720517D01*
X146705293Y-99800762D02*
X147025859Y-98208588D01*
X107796428Y-128931397D02*
X107063713Y-128931397D01*
X170351286Y-25000000D02*
X208053858Y-25000000D01*
X208053858Y-151216677D02*
X208053858Y-151218677D01*
X90893274Y-116888715D02*
X90460883Y-116580025D01*
X91204177Y-74589482D02*
X91132014Y-74823669D01*
X231405144Y-25000000D02*
X231405144Y-45786279D01*
X226037235Y-188826273D02*
X226654938Y-187036877D01*
X186140649Y-162898472D02*
X185819076Y-162005706D01*
X165572983Y-67572559D02*
X167351286Y-67540938D01*
X96259737Y-112325766D02*
X95758827Y-112668801D01*
X147759197Y-87208754D02*
X147713728Y-86758193D01*
X102949698Y-32602420D02*
X102834996Y-32630887D01*
X187027892Y-177482262D02*
X187076296Y-177244126D01*
X184500768Y-151718680D02*
X184198186Y-151746417D01*
X89002948Y-158481825D02*
X88959496Y-158795969D01*
X144199733Y-27914326D02*
X144458431Y-27558971D01*
X113210708Y-123936970D02*
X111778579Y-128931397D01*
X143788739Y-157301663D02*
X143652270Y-157320097D01*
X105363790Y-178024190D02*
X105466215Y-177867955D01*
X224744820Y-157420021D02*
X224532631Y-157484890D01*
X131844483Y-114682420D02*
X131929978Y-115083658D01*
X184863334Y-32592790D02*
X184657992Y-32579478D01*
X131612642Y-30364004D02*
X131658920Y-30755637D01*
X133793651Y-30829587D02*
X133405254Y-30658841D01*
X207811004Y-79147958D02*
X206893261Y-79987797D01*
X107796428Y-131931397D02*
X107798428Y-131931397D01*
X131951925Y-157507517D02*
X131906749Y-157734600D01*
X171866027Y-158152584D02*
X171418705Y-157887935D01*
X105797738Y-51004005D02*
X106023716Y-50565795D01*
X147331234Y-125242334D02*
X147306425Y-124615305D01*
X132661910Y-113587627D02*
X132304581Y-113533121D01*
X140549894Y-27654765D02*
X140050222Y-27798226D01*
X103851324Y-27095760D02*
X103621701Y-27030121D01*
X105059353Y-122217870D02*
X104735505Y-121325913D01*
X187796630Y-142133330D02*
X187407865Y-141373321D01*
X148000000Y-139338722D02*
X146066362Y-136451631D01*
X228780692Y-125880172D02*
X228736378Y-125242334D01*
X94796482Y-113476182D02*
X94341201Y-113946033D01*
X131612642Y-155081681D02*
X131658920Y-155473314D01*
X212121277Y-116315376D02*
X211657011Y-116100713D01*
X94341201Y-72373474D02*
X93907287Y-72891102D01*
X147416617Y-48789646D02*
X147417501Y-48786279D01*
X146168787Y-177867955D02*
X146256057Y-177688759D01*
X99847322Y-110799883D02*
X99347650Y-110943344D01*
X225576154Y-157810270D02*
X225565906Y-157310467D01*
X106323287Y-98208588D02*
X106824612Y-98247737D01*
X109636749Y-137260804D02*
X109346039Y-137234973D01*
X145986240Y-51871409D02*
X146253533Y-51439306D01*
X103252848Y-157297155D02*
X103086167Y-157301663D01*
X92325832Y-30531302D02*
X91959338Y-30442509D01*
X129768642Y-115941974D02*
X129733126Y-116589263D01*
X184042248Y-157420021D02*
X183830059Y-157484890D01*
X184539514Y-191952992D02*
X185476734Y-189023914D01*
X225242086Y-67235315D02*
X226179306Y-64306237D01*
X143408526Y-113155134D02*
X143472218Y-112809116D01*
X172632550Y-73511099D02*
X172661711Y-73716770D01*
X91141911Y-73109861D02*
X91227406Y-73511099D01*
X147306425Y-124615305D02*
X147299290Y-123996834D01*
X143836942Y-108807874D02*
X144774162Y-105878796D01*
X131163455Y-116580025D02*
X130716133Y-116315376D01*
X218367453Y-70753207D02*
X217866543Y-71096242D01*
X170351286Y-75712466D02*
X170351286Y-68073559D01*
X133028404Y-155248979D02*
X132661910Y-155160186D01*
X106824612Y-181392855D02*
X107297428Y-180911281D01*
X213357069Y-157507517D02*
X213311893Y-157734600D01*
X124870411Y-67572559D02*
X126648714Y-67540938D01*
X137472275Y-70446940D02*
X136962309Y-70753207D01*
X185476734Y-105878796D02*
X185334663Y-105681155D01*
X126405860Y-120720517D02*
X125488117Y-121560356D01*
X227730464Y-135909703D02*
X227778868Y-135671567D01*
X68617855Y-131931397D02*
X68101321Y-133653793D01*
X227573995Y-61704077D02*
X228499202Y-58988212D01*
X101690365Y-68800974D02*
X100806127Y-68990155D01*
X89310178Y-116013981D02*
X89066070Y-115941974D01*
X105509245Y-123059047D02*
X105367820Y-123115287D01*
X137988219Y-70174687D02*
X137472275Y-70446940D01*
X184511553Y-28618971D02*
X184687315Y-28267588D01*
X172676045Y-32569161D02*
X172654497Y-32789840D01*
X102637104Y-115847462D02*
X102424915Y-115912331D01*
X106603853Y-41470187D02*
X106596718Y-40851716D01*
X218877419Y-112019499D02*
X218367453Y-112325766D01*
X139025729Y-28148660D02*
X138507063Y-28361140D01*
X231405144Y-173503956D02*
X231405144Y-194290236D01*
X178690791Y-111747246D02*
X178174847Y-112019499D01*
X188346388Y-86308483D02*
X188232581Y-85624717D01*
X189203572Y-87358838D02*
X189201572Y-87358838D01*
X188033806Y-125242334D02*
X188008997Y-124615305D01*
X84785545Y-38415238D02*
X78957079Y-36030045D01*
X94341201Y-113946033D02*
X93907287Y-114463661D01*
X144324273Y-110175239D02*
X144073394Y-110145118D01*
X132661910Y-72015068D02*
X132304581Y-71960562D01*
X107796428Y-48786279D02*
X107798428Y-48786279D01*
X216448917Y-113946033D02*
X216015003Y-114463661D01*
X189201572Y-131931397D02*
X189203572Y-131931397D01*
X189201572Y-48786279D02*
X189203572Y-48786279D01*
X91042593Y-72717428D02*
X91141911Y-73109861D01*
X124870411Y-192290236D02*
X126648714Y-192258615D01*
X218877419Y-153592058D02*
X218367453Y-153898325D01*
X69561813Y-92897512D02*
X68934177Y-95688245D01*
X131732072Y-75065660D02*
X131595846Y-75316156D01*
X179209635Y-69933699D02*
X178690791Y-70174687D01*
X227529688Y-176732178D02*
X227391384Y-176589086D01*
X103134370Y-150380433D02*
X104071590Y-147451355D01*
X183979583Y-72960742D02*
X184029658Y-72272409D01*
X143472218Y-112809116D02*
X143557202Y-112462080D01*
X187807102Y-122759699D02*
X187615532Y-122772692D01*
X224732230Y-30699850D02*
X224813670Y-30010016D01*
X143162586Y-110223933D02*
X142392937Y-110373533D01*
X188119189Y-48789646D02*
X188120073Y-48786279D01*
X109636749Y-54115686D02*
X109346039Y-54089855D01*
X147530009Y-127197276D02*
X147441197Y-126531069D01*
X147330726Y-81204009D02*
X147104530Y-81187140D01*
X187202882Y-92576564D02*
X187428860Y-92138354D01*
X183830059Y-74339772D02*
X183884821Y-73994182D01*
X131658920Y-30755637D02*
X131745165Y-31144869D01*
X78957079Y-36030045D02*
X77755005Y-36686920D01*
X143472218Y-29663998D02*
X143557202Y-29316962D01*
X187428860Y-50565795D02*
X187633761Y-50124965D01*
X131974757Y-32354184D02*
X131973473Y-32569161D01*
X106391486Y-100560771D02*
X106002721Y-99800762D01*
X213335122Y-115083658D02*
X213364283Y-115289329D01*
X152481151Y-45786279D02*
X148501000Y-45786279D01*
X214433548Y-30531302D02*
X214067054Y-30442509D01*
X145438077Y-121325913D02*
X145116504Y-120433147D01*
X180752794Y-110943344D02*
X180243714Y-111107058D01*
X145761925Y-163790429D02*
X145438077Y-162898472D01*
X84167839Y-192290236D02*
X85946142Y-192258615D01*
X126648714Y-109113497D02*
X126648714Y-109644118D01*
X184966412Y-75639089D02*
X184908677Y-75156137D01*
X149000000Y-182634135D02*
X165572983Y-192290236D01*
X147759197Y-170353872D02*
X147713728Y-169903311D01*
X188033806Y-42097216D02*
X188008997Y-41470187D01*
X185334663Y-147253714D02*
X185952366Y-145464318D01*
X68643467Y-178807532D02*
X67594856Y-182634135D01*
X188033298Y-164349127D02*
X187807102Y-164332258D01*
X105421972Y-135159619D02*
X105283668Y-135016527D01*
X88946142Y-25000000D02*
X126648714Y-25000000D01*
X226037235Y-105681155D02*
X226654938Y-103891759D01*
X88946142Y-150632713D02*
X103134370Y-150380433D01*
X91132014Y-74823669D02*
X91029500Y-75065660D01*
X201064795Y-160747722D02*
X199862721Y-161404597D01*
X88946142Y-158857584D02*
X88946142Y-151218677D01*
X147417501Y-90358838D02*
X148499000Y-90358838D01*
X102574439Y-31388183D02*
X102624514Y-30699850D01*
X181252466Y-69227324D02*
X180752794Y-69370785D01*
X229405144Y-56193604D02*
X227471506Y-53306513D01*
X144458431Y-110704089D02*
X144765325Y-110346427D01*
X106023716Y-175283472D02*
X106228617Y-174842642D01*
X91272185Y-157071861D02*
X91270901Y-157286838D01*
X89002948Y-33764148D02*
X88959496Y-34078292D01*
X213364283Y-73716770D02*
X213379901Y-73926743D01*
X173730976Y-113676420D02*
X173364482Y-113587627D01*
X213360366Y-155080998D02*
X213017786Y-155081681D01*
X131955222Y-113508439D02*
X131612642Y-113509122D01*
X175312431Y-114463661D02*
X174897360Y-114193118D01*
X91256567Y-32144211D02*
X91272185Y-32354184D01*
X227636688Y-176890886D02*
X227529688Y-176732178D01*
X72508136Y-40791852D02*
X71076007Y-45786279D01*
X206893261Y-163132915D02*
X201064795Y-160747722D01*
X231405144Y-87358838D02*
X229171429Y-87358838D01*
X213379901Y-157071861D02*
X213378617Y-157286838D01*
X190209037Y-133653793D02*
X191669529Y-134470071D01*
X146500310Y-51004005D02*
X146726288Y-50565795D01*
X224877362Y-154381675D02*
X224962346Y-154034639D01*
X150022999Y-90358838D02*
X149506465Y-92081234D01*
X174496223Y-72402146D02*
X174107826Y-72231400D01*
X227778868Y-135671567D02*
X227717906Y-135489895D01*
X91959338Y-155160186D02*
X91602009Y-155105680D01*
X106045939Y-39663957D02*
X105901106Y-39717257D01*
X144774162Y-64306237D02*
X144632091Y-64108596D01*
X143495614Y-27028740D02*
X143162586Y-27078815D01*
X102519862Y-115221849D02*
X102574439Y-114533301D01*
X135972622Y-71478797D02*
X135499054Y-71903623D01*
X167108432Y-120720517D02*
X166190689Y-121560356D01*
X103106409Y-153336648D02*
X103282171Y-152985265D01*
X177163971Y-154241360D02*
X176675194Y-154623915D01*
X228932328Y-98247737D02*
X229405144Y-97766163D01*
X146931189Y-91697524D02*
X147114731Y-91254363D01*
X103468438Y-157810270D02*
X103458190Y-157310467D01*
X131732072Y-116638219D02*
X131595846Y-116888715D01*
X184198186Y-151746417D02*
X183865158Y-151796492D01*
X153913280Y-123936970D02*
X152481151Y-128931397D01*
X118457577Y-36686920D02*
X118860128Y-37471803D01*
X102479677Y-32421623D02*
X102519862Y-32076731D01*
X89066070Y-157514533D02*
X89030554Y-158161822D01*
X174897360Y-31048000D02*
X174496223Y-30829587D01*
X106401958Y-164332258D02*
X106210388Y-164345251D01*
X185253384Y-118620131D02*
X185140972Y-118156582D01*
X227905454Y-134149123D02*
X228131432Y-133710913D01*
X95270050Y-71478797D02*
X94796482Y-71903623D01*
X90893274Y-33743597D02*
X90460883Y-33434907D01*
X216015003Y-31318543D02*
X215599932Y-31048000D01*
X184908677Y-158301255D02*
X184873582Y-157810270D01*
X220946286Y-152679617D02*
X220430873Y-152866337D01*
X188119189Y-90362205D02*
X188120073Y-90358838D01*
X146256057Y-94543641D02*
X146325320Y-94337144D01*
X226654938Y-187036877D02*
X227573995Y-186421754D01*
X185026845Y-151747798D02*
X184775966Y-151717677D01*
X131929978Y-31938540D02*
X131959139Y-32144211D01*
X226654938Y-103891759D02*
X227573995Y-103276636D01*
X186772964Y-164687846D02*
X186464497Y-163790429D01*
X147530009Y-85624717D02*
X147441197Y-84958510D01*
X146231544Y-135318327D02*
X146124544Y-135159619D01*
X226179306Y-189023914D02*
X226037235Y-188826273D01*
X188229756Y-139820296D02*
X188702572Y-139338722D01*
X147094058Y-100560771D02*
X146705293Y-99800762D01*
X143495614Y-151746417D02*
X143162586Y-151796492D01*
X130012750Y-157586540D02*
X129768642Y-157514533D01*
X188008997Y-41470187D02*
X188001862Y-40851716D01*
X104112291Y-77960749D02*
X103848240Y-77047572D01*
X225955956Y-35475013D02*
X225843544Y-35011464D01*
X187796630Y-100560771D02*
X187407865Y-99800762D01*
X227616961Y-39913929D02*
X227475536Y-39970169D01*
X173364482Y-113587627D02*
X173007153Y-113533121D01*
X221455366Y-27798226D02*
X220946286Y-27961940D01*
X147375548Y-125880172D02*
X147331234Y-125242334D01*
X89310178Y-32868863D02*
X89066070Y-32796856D01*
X189203572Y-48786279D02*
X190725571Y-48786279D01*
X145761925Y-39072752D02*
X145438077Y-38180795D01*
X105367820Y-81542728D02*
X105059353Y-80645311D01*
X185334663Y-188826273D02*
X185952366Y-187036877D01*
X211067212Y-158795969D02*
X211053858Y-158857584D01*
X146211817Y-81486488D02*
X146070392Y-81542728D01*
X101690365Y-151946092D02*
X100806127Y-152135273D01*
X185161003Y-110704089D02*
X185467897Y-110346427D01*
X102949698Y-157320097D02*
X102834996Y-157348564D01*
X228935153Y-44052158D02*
X228846341Y-43385951D01*
X188702572Y-139338722D02*
X186768934Y-136451631D01*
X225360564Y-32579478D02*
X225193883Y-32583986D01*
X225843544Y-35011464D02*
X225747151Y-34542230D01*
X146705293Y-182945880D02*
X147025859Y-181353706D01*
X131974757Y-73926743D02*
X131973473Y-74141720D01*
X184775966Y-68572559D02*
X184500768Y-68573562D01*
X144324273Y-27030121D02*
X144073394Y-27000000D01*
X228736378Y-125242334D02*
X228711569Y-124615305D01*
X236405144Y-199290236D02*
X236405144Y-20000000D01*
X129733126Y-75016704D02*
X129705520Y-75336707D01*
X103639435Y-159259907D02*
X103561268Y-158784207D01*
X183925006Y-73649290D02*
X183979583Y-72960742D01*
X105671152Y-135671567D02*
X105610190Y-135489895D01*
X147299290Y-40851716D02*
X147330726Y-39631450D01*
X229164341Y-170353872D02*
X229118872Y-169903311D01*
X228846341Y-43385951D02*
X228780692Y-42735054D01*
X90460883Y-33434907D02*
X90013561Y-33170258D01*
X85946142Y-192258615D02*
X85946142Y-194290236D01*
X143955420Y-74152037D02*
X143788739Y-74156545D01*
X126648714Y-120512181D02*
X126405860Y-120720517D01*
X129648714Y-151216677D02*
X129648714Y-150632713D01*
X185467897Y-110346427D02*
X185256468Y-110240878D01*
X224942712Y-74203446D02*
X224744820Y-74274903D01*
X178174847Y-28874381D02*
X177664881Y-29180648D01*
X225668984Y-158784207D02*
X225611249Y-158301255D01*
X143798196Y-27001003D02*
X143495614Y-27028740D01*
X101690365Y-27228415D02*
X100806127Y-27417596D01*
X126648714Y-67540938D02*
X126648714Y-68071559D01*
X227573931Y-177867955D02*
X227661201Y-177688759D01*
X143557202Y-29316962D02*
X143667961Y-28968691D01*
X190725571Y-173503956D02*
X190209037Y-175226352D01*
X108803893Y-50508675D02*
X110264385Y-51324953D01*
X98323157Y-28148660D02*
X97804491Y-28361140D01*
X147527184Y-139820296D02*
X148000000Y-139338722D01*
X90910070Y-113509122D02*
X90956348Y-113900755D01*
X226521648Y-37288029D02*
X226220007Y-36388190D01*
X225729417Y-151747798D02*
X225478538Y-151717677D01*
X187451083Y-164381634D02*
X187306250Y-164434934D01*
X224962346Y-112462080D02*
X225073105Y-112113809D01*
X177664881Y-70753207D02*
X177163971Y-71096242D01*
X145249794Y-187036877D02*
X146168851Y-186421754D01*
X187202882Y-134149123D02*
X187428860Y-133710913D01*
X119659651Y-36030045D02*
X118457577Y-36686920D01*
X95758827Y-29523683D02*
X95270050Y-29906238D01*
X167351286Y-109644118D02*
X167351286Y-109646118D01*
X107798428Y-128931397D02*
X107796428Y-128931397D01*
X186871359Y-136295396D02*
X186958629Y-136116200D01*
X215198795Y-72402146D02*
X214810398Y-72231400D01*
X150339321Y-137260804D02*
X150048611Y-137234973D01*
X91227406Y-31938540D02*
X91256567Y-32144211D01*
X159160149Y-119832038D02*
X159562700Y-120616921D01*
X103086167Y-32583986D02*
X102949698Y-32602420D01*
X147331234Y-166814893D02*
X147306425Y-166187864D01*
X225214125Y-70191530D02*
X225389887Y-69840147D01*
X227905454Y-92576564D02*
X228131432Y-92138354D01*
X102424915Y-157484890D02*
X102479677Y-157139300D01*
X190209037Y-175226352D02*
X191669529Y-176042630D01*
X189203572Y-170503956D02*
X189201572Y-170503956D01*
X143277011Y-31388183D02*
X143327086Y-30699850D01*
X184174790Y-154381675D02*
X184259774Y-154034639D01*
X91602009Y-155105680D02*
X91252650Y-155080998D01*
X170351286Y-109060154D02*
X184539514Y-108807874D01*
X200265272Y-162189480D02*
X194615852Y-165509529D01*
X105059353Y-39072752D02*
X104735505Y-38180795D01*
X201064795Y-36030045D02*
X199862721Y-36686920D01*
X224900758Y-151746417D02*
X224567730Y-151796492D01*
X146325320Y-135909703D02*
X146373724Y-135671567D01*
X173007153Y-155105680D02*
X172657794Y-155080998D01*
X143652270Y-74174979D02*
X143537568Y-74203446D01*
X131163455Y-75007466D02*
X130716133Y-74742817D01*
X213357069Y-115934958D02*
X213311893Y-116162041D01*
X105610190Y-135489895D02*
X105528972Y-135318327D01*
X225955956Y-160192690D02*
X225843544Y-159729141D01*
X229405144Y-97766163D02*
X227471506Y-94879072D01*
X140549894Y-69227324D02*
X140050222Y-69370785D01*
X226654938Y-62319200D02*
X227573995Y-61704077D01*
X172676045Y-157286838D02*
X172654497Y-157507517D01*
X102769646Y-71236557D02*
X102854630Y-70889521D01*
X221955038Y-110799883D02*
X221455366Y-110943344D01*
X131595846Y-158461274D02*
X131163455Y-158152584D01*
X199862721Y-161404597D02*
X200265272Y-162189480D01*
X186688812Y-51871409D02*
X186956105Y-51439306D01*
X228935153Y-127197276D02*
X228846341Y-126531069D01*
X146168787Y-94722837D02*
X146256057Y-94543641D01*
X106714929Y-173503956D02*
X107796428Y-173503956D01*
X185026845Y-110175239D02*
X184775966Y-110145118D01*
X131959139Y-156861888D02*
X131974757Y-157071861D01*
X102949698Y-115747538D02*
X102834996Y-115776005D01*
X78957079Y-77602604D02*
X77755005Y-78259479D01*
X170351286Y-151218677D02*
X170351286Y-151216677D01*
X223798081Y-151946092D02*
X222913843Y-152135273D01*
X146168851Y-144849195D02*
X147094058Y-142133330D01*
X143808981Y-70191530D02*
X143984743Y-69840147D01*
X227475536Y-39970169D02*
X227167069Y-39072752D01*
X213064064Y-113900755D02*
X213150309Y-114289987D01*
X225955956Y-77047572D02*
X225843544Y-76584023D01*
X191669529Y-134470071D02*
X191041893Y-137260804D01*
X167351286Y-37367063D02*
X167108432Y-37575399D01*
X106628662Y-42097216D02*
X106603853Y-41470187D01*
X167351286Y-151216677D02*
X167351286Y-151218677D01*
X188461769Y-45636195D02*
X188416300Y-45185634D01*
X93091079Y-155547264D02*
X92702682Y-155376518D01*
X130251867Y-74528154D02*
X130012750Y-74441422D01*
X131906749Y-157734600D02*
X131834586Y-157968787D01*
X228509674Y-122759699D02*
X228318104Y-122772692D01*
X148499000Y-87358838D02*
X147766285Y-87358838D01*
X172677329Y-115499302D02*
X172676045Y-115714279D01*
X184775966Y-110145118D02*
X184500768Y-110146121D01*
X103106409Y-111764089D02*
X103282171Y-111412706D01*
X214810398Y-72231400D02*
X214433548Y-72103861D01*
X144073394Y-110145118D02*
X143798196Y-110146121D01*
X225389887Y-69840147D02*
X225604877Y-69486885D01*
X91204177Y-33016923D02*
X91132014Y-33251110D01*
X184775966Y-151717677D02*
X184500768Y-151718680D01*
X146253533Y-93011865D02*
X146500310Y-92576564D01*
X135043773Y-30800915D02*
X134609859Y-31318543D01*
X173730976Y-30531302D02*
X173364482Y-30442509D01*
X148499000Y-173503956D02*
X148501000Y-173503956D01*
X184511553Y-111764089D02*
X184687315Y-111412706D01*
X167351286Y-194290236D02*
X129648714Y-194290236D01*
X102834996Y-115776005D02*
X102637104Y-115847462D01*
X136461399Y-112668801D02*
X135972622Y-113051356D01*
X227730464Y-52764585D02*
X227778868Y-52526449D01*
X144263840Y-158784207D02*
X144206105Y-158301255D01*
X184863334Y-115737908D02*
X184657992Y-115724596D01*
X108297428Y-99489017D02*
X124870411Y-109145118D01*
X186958629Y-177688759D02*
X187027892Y-177482262D01*
X131163455Y-158152584D02*
X130716133Y-157887935D01*
X172657794Y-71935880D02*
X172315214Y-71936563D01*
X106045939Y-164381634D02*
X105901106Y-164434934D01*
X109636749Y-178833363D02*
X109346039Y-178807532D01*
X170435698Y-116589263D02*
X170408092Y-116909266D01*
X179209635Y-28361140D02*
X178690791Y-28602128D01*
X105466279Y-103276636D02*
X106391486Y-100560771D01*
X146211817Y-164631606D02*
X146070392Y-164687846D01*
X102965389Y-70541250D02*
X103106409Y-70191530D01*
X174107826Y-113803959D02*
X173730976Y-113676420D01*
X186914389Y-164631606D02*
X186772964Y-164687846D01*
X133793651Y-155547264D02*
X133405254Y-155376518D01*
X188702572Y-180911281D02*
X186768934Y-178024190D01*
X129705520Y-116909266D02*
X129662068Y-117223410D01*
X191669529Y-92897512D02*
X191041893Y-95688245D01*
X147104530Y-81187140D02*
X146912960Y-81200133D01*
X229048960Y-86308483D02*
X228935153Y-85624717D01*
X105283668Y-135016527D02*
X105550961Y-134584424D01*
X228711569Y-124615305D02*
X228704434Y-123996834D01*
X226521648Y-162005706D02*
X226220007Y-161105867D01*
X147759197Y-45636195D02*
X147713728Y-45185634D01*
X144160762Y-32592790D02*
X143955420Y-32579478D01*
X147713728Y-169903311D02*
X147643816Y-169453601D01*
X224732230Y-155417527D02*
X224813670Y-154727693D01*
X224587393Y-32421623D02*
X224627578Y-32076731D01*
X106672976Y-84307613D02*
X106628662Y-83669775D01*
X65594856Y-45786279D02*
X65594856Y-25000000D01*
X211138270Y-33444145D02*
X211110664Y-33764148D01*
X147104530Y-39614581D02*
X146912960Y-39627574D01*
X190725571Y-131931397D02*
X190209037Y-133653793D01*
X135499054Y-113476182D02*
X135043773Y-113946033D01*
X105528972Y-135318327D02*
X105421972Y-135159619D01*
X129648714Y-109060154D02*
X143836942Y-108807874D01*
X165572983Y-109145118D02*
X167351286Y-109113497D01*
X103561268Y-117211648D02*
X103503533Y-116728696D01*
X185819076Y-78860588D02*
X185517435Y-77960749D01*
X144458431Y-152276648D02*
X144765325Y-151918986D01*
X140050222Y-110943344D02*
X139541142Y-111107058D01*
X129705520Y-33764148D02*
X129662068Y-34078292D01*
X146070392Y-123115287D02*
X145761925Y-122217870D01*
X225057414Y-157320097D02*
X224942712Y-157348564D01*
X225203340Y-151718680D02*
X224900758Y-151746417D01*
X217377766Y-71478797D02*
X216904198Y-71903623D01*
X217866543Y-154241360D02*
X217377766Y-154623915D01*
X147299290Y-165569393D02*
X147330726Y-164349127D01*
X143277011Y-156105860D02*
X143327086Y-155417527D01*
X107011156Y-45185634D02*
X106941244Y-44735924D01*
X134609859Y-156036220D02*
X134194788Y-155765677D01*
X171418705Y-74742817D02*
X170954439Y-74528154D01*
X226220007Y-119533308D02*
X225955956Y-118620131D01*
X104071590Y-189023914D02*
X103929519Y-188826273D01*
X129768642Y-32796856D02*
X129733126Y-33444145D01*
X102519862Y-73649290D02*
X102574439Y-72960742D01*
X144073394Y-68572559D02*
X143798196Y-68573562D01*
X104071590Y-64306237D02*
X103929519Y-64108596D01*
X215599932Y-31048000D02*
X215198795Y-30829587D01*
X211110664Y-33764148D02*
X211067212Y-34078292D01*
X106628662Y-166814893D02*
X106603853Y-166187864D01*
X227391384Y-93443968D02*
X227658677Y-93011865D01*
X226843221Y-121325913D02*
X226521648Y-120433147D01*
X178690791Y-70174687D02*
X178174847Y-70446940D01*
X227471506Y-94879072D02*
X227573931Y-94722837D01*
X126648714Y-151218677D02*
X126648714Y-162084740D01*
X150339321Y-95688245D02*
X150048611Y-95662414D01*
X104062753Y-27201309D02*
X103851324Y-27095760D01*
X175746345Y-72373474D02*
X175312431Y-72891102D01*
X187615532Y-81200133D02*
X187451083Y-81236516D01*
X228846341Y-168103628D02*
X228780692Y-167452731D01*
X211417894Y-157586540D02*
X211173786Y-157514533D01*
X187407865Y-141373321D02*
X187728431Y-139781147D01*
X213335122Y-156656217D02*
X213364283Y-156861888D01*
X103252848Y-115724596D02*
X103086167Y-115729104D01*
X90910070Y-71936563D02*
X90956348Y-72328196D01*
X186827116Y-135159619D02*
X186688812Y-135016527D01*
X106323287Y-56636029D02*
X106824612Y-56675178D01*
X228932328Y-181392855D02*
X229405144Y-180911281D01*
X200265272Y-120616921D02*
X194615852Y-123936970D01*
X187306250Y-122862375D02*
X186914389Y-123059047D01*
X185952366Y-145464318D02*
X186871423Y-144849195D01*
X228935153Y-168769835D02*
X228846341Y-168103628D01*
X141508699Y-68990155D02*
X140549894Y-69227324D01*
X144774162Y-189023914D02*
X144632091Y-188826273D01*
X148000000Y-97766163D02*
X146066362Y-94879072D01*
X94341201Y-30800915D02*
X93907287Y-31318543D01*
X102705954Y-154727693D02*
X102769646Y-154381675D01*
X213378617Y-32569161D02*
X213357069Y-32789840D01*
X172361492Y-113900755D02*
X172447737Y-114289987D01*
X225576154Y-33092593D02*
X225565906Y-32592790D01*
X131595846Y-116888715D02*
X131163455Y-116580025D01*
X98838570Y-27961940D02*
X98323157Y-28148660D01*
X186871359Y-94722837D02*
X186958629Y-94543641D01*
X227471506Y-178024190D02*
X227573931Y-177867955D01*
X228711569Y-166187864D02*
X228704434Y-165569393D01*
X108297428Y-182634135D02*
X124870411Y-192290236D01*
X144206105Y-116728696D02*
X144171010Y-116237711D01*
X147114731Y-174399481D02*
X147276634Y-173954278D01*
X224587393Y-73994182D02*
X224627578Y-73649290D01*
X229164341Y-128781313D02*
X229118872Y-128330752D01*
X106412159Y-49681804D02*
X106574062Y-49236601D01*
X135043773Y-72373474D02*
X134609859Y-72891102D01*
X211657011Y-74528154D02*
X211417894Y-74441422D01*
X226170469Y-27201309D02*
X225959040Y-27095760D01*
X211053858Y-151218677D02*
X211053858Y-151216677D01*
X147643816Y-86308483D02*
X147530009Y-85624717D01*
X185044579Y-117687348D02*
X184966412Y-117211648D01*
X185044579Y-76114789D02*
X184966412Y-75639089D01*
X172676045Y-74141720D02*
X172654497Y-74362399D01*
X223798081Y-27228415D02*
X222913843Y-27417596D01*
X211053858Y-75712466D02*
X211053858Y-68073559D01*
X186871423Y-103276636D02*
X187796630Y-100560771D01*
X184687315Y-152985265D02*
X184902305Y-152632003D01*
X167351286Y-68073559D02*
X167351286Y-78939622D01*
X225863575Y-69131530D02*
X226170469Y-68773868D01*
X177163971Y-71096242D02*
X176675194Y-71478797D01*
X170471214Y-74369415D02*
X170435698Y-75016704D01*
X108803893Y-92081234D02*
X110264385Y-92897512D01*
X88946142Y-151216677D02*
X88946142Y-150632713D01*
X145761925Y-122217870D02*
X145438077Y-121325913D01*
X125488117Y-38415238D02*
X119659651Y-36030045D01*
X183095509Y-27228415D02*
X182211271Y-27417596D01*
X206275555Y-192290236D02*
X208053858Y-192258615D01*
X170715322Y-32868863D02*
X170471214Y-32796856D01*
X85703288Y-37575399D02*
X84785545Y-38415238D01*
X194615852Y-165509529D02*
X193183723Y-170503956D01*
X106941244Y-86308483D02*
X106827437Y-85624717D01*
X225747151Y-159259907D02*
X225668984Y-158784207D01*
X189201572Y-45786279D02*
X188468857Y-45786279D01*
X226843221Y-38180795D02*
X226521648Y-37288029D01*
X172434644Y-33493101D02*
X172298418Y-33743597D01*
X143557202Y-154034639D02*
X143667961Y-153686368D01*
X170435698Y-75016704D02*
X170408092Y-75336707D01*
X85946142Y-120512181D02*
X85703288Y-120720517D01*
X225478538Y-27000000D02*
X225203340Y-27001003D01*
X188120073Y-90358838D02*
X189201572Y-90358838D01*
X171866027Y-116580025D02*
X171418705Y-116315376D01*
X170364640Y-34078292D02*
X170351286Y-34139907D01*
X187615532Y-122772692D02*
X187451083Y-122809075D01*
X106628662Y-125242334D02*
X106603853Y-124615305D01*
X147441197Y-126531069D02*
X147375548Y-125880172D01*
X219912207Y-69933699D02*
X219393363Y-70174687D01*
X146066362Y-53306513D02*
X146168787Y-53150278D01*
X147643816Y-169453601D02*
X147530009Y-168769835D01*
X184174790Y-29663998D02*
X184259774Y-29316962D01*
X85703288Y-79147958D02*
X84785545Y-79987797D01*
X187428860Y-133710913D02*
X187633761Y-133270083D01*
X225214125Y-28618971D02*
X225389887Y-28267588D01*
X207811004Y-37575399D02*
X206893261Y-38415238D01*
X139541142Y-152679617D02*
X139025729Y-152866337D01*
X216448917Y-155518592D02*
X216015003Y-156036220D01*
X103095624Y-151718680D02*
X102793042Y-151746417D01*
X145116504Y-78860588D02*
X144814863Y-77960749D01*
X199862721Y-119832038D02*
X200265272Y-120616921D01*
X183830059Y-115912331D02*
X183884821Y-115566741D01*
X105550961Y-176156983D02*
X105797738Y-175721682D01*
X213311893Y-74589482D02*
X213239730Y-74823669D01*
X170351286Y-151216677D02*
X170351286Y-150632713D01*
X85946142Y-68071559D02*
X85946142Y-68073559D01*
X88946142Y-151218677D02*
X88946142Y-151216677D01*
X91256567Y-156861888D02*
X91272185Y-157071861D01*
X106827437Y-168769835D02*
X106738625Y-168103628D01*
X144438400Y-35011464D02*
X144342007Y-34542230D01*
X228110437Y-182945880D02*
X228431003Y-181353706D01*
X172632550Y-115083658D02*
X172661711Y-115289329D01*
X101690365Y-110373533D02*
X100806127Y-110562714D01*
X225193883Y-115729104D02*
X225057414Y-115747538D01*
X224744820Y-32702344D02*
X224532631Y-32767213D01*
X147025859Y-98208588D02*
X147527184Y-98247737D01*
X143836942Y-67235315D02*
X144774162Y-64306237D01*
X96259737Y-70753207D02*
X95758827Y-71096242D01*
X135499054Y-30331064D02*
X135043773Y-30800915D01*
X220430873Y-69721219D02*
X219912207Y-69933699D01*
X104112291Y-161105867D02*
X103848240Y-160192690D01*
X102949698Y-74174979D02*
X102834996Y-74203446D01*
X145116504Y-162005706D02*
X144814863Y-161105867D01*
X184873582Y-74665152D02*
X184863334Y-74165349D01*
X104735505Y-162898472D02*
X104413932Y-162005706D01*
X186688812Y-176589086D02*
X186956105Y-176156983D01*
X105553485Y-177688759D02*
X105622748Y-177482262D01*
X103621701Y-68602680D02*
X103370822Y-68572559D01*
X135972622Y-29906238D02*
X135499054Y-30331064D01*
X229118872Y-128330752D02*
X229048960Y-127881042D01*
X213017786Y-155081681D02*
X213064064Y-155473314D01*
X103621701Y-110175239D02*
X103370822Y-110145118D01*
X216904198Y-155048741D02*
X216448917Y-155518592D01*
X147104530Y-122759699D02*
X146912960Y-122772692D01*
X145249794Y-145464318D02*
X146168851Y-144849195D01*
X216448917Y-30800915D02*
X216015003Y-31318543D01*
X172609321Y-33016923D02*
X172537158Y-33251110D01*
X187728431Y-56636029D02*
X188229756Y-56675178D01*
X186140649Y-79753354D02*
X185819076Y-78860588D01*
X172361492Y-155473314D02*
X172447737Y-155862546D01*
X188001862Y-40851716D02*
X188033298Y-39631450D01*
X187807102Y-39614581D02*
X187615532Y-39627574D01*
X213150309Y-31144869D02*
X213249627Y-31537302D01*
X65594856Y-194290236D02*
X65594856Y-173503956D01*
X214810398Y-155376518D02*
X214433548Y-155248979D01*
X226179306Y-64306237D02*
X226037235Y-64108596D01*
X94341201Y-155518592D02*
X93907287Y-156036220D01*
X186934116Y-93745768D02*
X186827116Y-93587060D01*
X228499202Y-183705889D02*
X228110437Y-182945880D01*
X216904198Y-113476182D02*
X216448917Y-113946033D01*
X213239730Y-33251110D02*
X213137216Y-33493101D01*
X211053858Y-158857584D02*
X211053858Y-151218677D01*
X147713728Y-86758193D02*
X147643816Y-86308483D01*
X225959040Y-27095760D02*
X225729417Y-27030121D01*
X92702682Y-30658841D02*
X92325832Y-30531302D01*
X213150309Y-155862546D02*
X213249627Y-156254979D01*
X184966412Y-34066530D02*
X184908677Y-33583578D01*
X91270901Y-157286838D02*
X91249353Y-157507517D01*
X137472275Y-153592058D02*
X136962309Y-153898325D01*
X187817303Y-174399481D02*
X187979206Y-173954278D01*
X214067054Y-30442509D02*
X213709725Y-30388003D01*
X187451083Y-39663957D02*
X187306250Y-39717257D01*
X228110437Y-141373321D02*
X228431003Y-139781147D01*
X134194788Y-114193118D02*
X133793651Y-113974705D01*
X147306425Y-41470187D02*
X147299290Y-40851716D01*
X93091079Y-30829587D02*
X92702682Y-30658841D01*
X143222434Y-73649290D02*
X143277011Y-72960742D01*
X103735828Y-35011464D02*
X103639435Y-34542230D01*
X131745165Y-72717428D02*
X131844483Y-73109861D01*
X184500768Y-27001003D02*
X184198186Y-27028740D01*
X89310178Y-74441422D02*
X89066070Y-74369415D01*
X215599932Y-72620559D02*
X215198795Y-72402146D01*
X177664881Y-29180648D02*
X177163971Y-29523683D01*
X146325320Y-94337144D02*
X146373724Y-94099008D01*
X88946142Y-75712466D02*
X88946142Y-68073559D01*
X105466215Y-136295396D02*
X105553485Y-136116200D01*
X109636749Y-95688245D02*
X109346039Y-95662414D01*
X188468857Y-45786279D02*
X188461769Y-45636195D01*
X228131432Y-175283472D02*
X228336333Y-174842642D01*
X211138270Y-75016704D02*
X211110664Y-75336707D01*
X147530009Y-44052158D02*
X147441197Y-43385951D01*
X174496223Y-30829587D02*
X174107826Y-30658841D01*
X186772964Y-81542728D02*
X186464497Y-80645311D01*
X143162586Y-151796492D02*
X142392937Y-151946092D01*
X146603678Y-122862375D02*
X146211817Y-123059047D01*
X146231544Y-176890886D02*
X146124544Y-176732178D01*
X186464497Y-163790429D02*
X186140649Y-162898472D01*
X149506465Y-133653793D02*
X150966957Y-134470071D01*
X224587393Y-115566741D02*
X224627578Y-115221849D01*
X109346039Y-178807532D02*
X108297428Y-182634135D01*
X106672976Y-167452731D02*
X106628662Y-166814893D01*
X225389887Y-111412706D02*
X225604877Y-111059444D01*
X144774162Y-147451355D02*
X144632091Y-147253714D01*
X143955420Y-115724596D02*
X143788739Y-115729104D01*
X215198795Y-30829587D02*
X214810398Y-30658841D01*
X129648714Y-109646118D02*
X129648714Y-109644118D01*
X143788739Y-32583986D02*
X143652270Y-32602420D01*
X184966412Y-158784207D02*
X184908677Y-158301255D01*
X109346039Y-137234973D02*
X108297428Y-141061576D01*
X102460014Y-68651374D02*
X101690365Y-68800974D01*
X103134370Y-191952992D02*
X104071590Y-189023914D01*
X146312762Y-135489895D02*
X146231544Y-135318327D01*
X211417894Y-74441422D02*
X211173786Y-74369415D01*
X211053858Y-68073559D02*
X211053858Y-68071559D01*
X152481151Y-87358838D02*
X148501000Y-87358838D01*
X150966957Y-51324953D02*
X150339321Y-54115686D01*
X91227406Y-73511099D02*
X91256567Y-73716770D01*
X144553896Y-68668319D02*
X144324273Y-68602680D01*
X65594856Y-87358838D02*
X65594856Y-48786279D01*
X146603678Y-164434934D02*
X146211817Y-164631606D01*
X143537568Y-157348564D02*
X143339676Y-157420021D01*
X148501000Y-48786279D02*
X150022999Y-48786279D01*
X103106409Y-28618971D02*
X103282171Y-28267588D01*
X92325832Y-155248979D02*
X91959338Y-155160186D01*
X94796482Y-30331064D02*
X94341201Y-30800915D01*
X174496223Y-155547264D02*
X174107826Y-155376518D01*
X129648714Y-158857584D02*
X129648714Y-151218677D01*
X213709725Y-155105680D02*
X213360366Y-155080998D01*
X227471506Y-136451631D02*
X227573931Y-136295396D01*
X226220007Y-36388190D02*
X225955956Y-35475013D01*
X228336333Y-91697524D02*
X228519875Y-91254363D01*
X225057414Y-74174979D02*
X224942712Y-74203446D01*
X172609321Y-74589482D02*
X172537158Y-74823669D01*
X187796630Y-58988212D02*
X187407865Y-58228203D01*
X172298418Y-33743597D02*
X171866027Y-33434907D01*
X212568599Y-158152584D02*
X212121277Y-157887935D01*
X167351286Y-162084740D02*
X167108432Y-162293076D01*
X103755859Y-152276648D02*
X104062753Y-151918986D01*
X146705293Y-141373321D02*
X147025859Y-139781147D01*
X145438077Y-38180795D02*
X145116504Y-37288029D01*
X188008997Y-166187864D02*
X188001862Y-165569393D01*
X99847322Y-152372442D02*
X99347650Y-152515903D01*
X231405144Y-128931397D02*
X229171429Y-128931397D01*
X145249794Y-103891759D02*
X146168851Y-103276636D01*
X102574439Y-156105860D02*
X102624514Y-155417527D01*
X170364640Y-117223410D02*
X170351286Y-117285025D01*
X187615532Y-39627574D02*
X187451083Y-39663957D01*
X131745165Y-114289987D02*
X131844483Y-114682420D01*
X186958629Y-136116200D02*
X187027892Y-135909703D01*
X187076296Y-177244126D02*
X187015334Y-177062454D01*
X225203340Y-110146121D02*
X224900758Y-110173858D01*
X187306250Y-81289816D02*
X186914389Y-81486488D01*
X137472275Y-112019499D02*
X136962309Y-112325766D01*
X189203572Y-131931397D02*
X190725571Y-131931397D01*
X219912207Y-28361140D02*
X219393363Y-28602128D01*
X92702682Y-72231400D02*
X92325832Y-72103861D01*
X85703288Y-120720517D02*
X84785545Y-121560356D01*
X107056625Y-87208754D02*
X107011156Y-86758193D01*
X145761925Y-80645311D02*
X145438077Y-79753354D01*
X179209635Y-111506258D02*
X178690791Y-111747246D01*
X187633761Y-50124965D02*
X187817303Y-49681804D01*
X125488117Y-79987797D02*
X119659651Y-77602604D01*
X105528972Y-176890886D02*
X105421972Y-176732178D01*
X78157556Y-162189480D02*
X72508136Y-165509529D01*
X105553485Y-94543641D02*
X105622748Y-94337144D01*
X227391384Y-176589086D02*
X227658677Y-176156983D01*
X90910070Y-30364004D02*
X90956348Y-30755637D01*
X225242086Y-191952992D02*
X226179306Y-189023914D01*
X172676045Y-115714279D02*
X172654497Y-115934958D01*
X131834586Y-157968787D02*
X131732072Y-158210778D01*
X91042593Y-31144869D02*
X91141911Y-31537302D01*
X144632091Y-105681155D02*
X145249794Y-103891759D01*
X185819076Y-162005706D02*
X185517435Y-161105867D01*
X228519875Y-91254363D02*
X228681778Y-90809160D01*
X85946142Y-194290236D02*
X65594856Y-194290236D01*
X78957079Y-119175163D02*
X77755005Y-119832038D01*
X221455366Y-110943344D02*
X220946286Y-111107058D01*
X143408526Y-30010016D02*
X143472218Y-29663998D01*
X104071590Y-147451355D02*
X103929519Y-147253714D01*
X183095509Y-110373533D02*
X182211271Y-110562714D01*
X185467897Y-151918986D02*
X185256468Y-151813437D01*
X107063713Y-128931397D02*
X107056625Y-128781313D01*
X131612642Y-113509122D02*
X131658920Y-113900755D01*
X227661201Y-177688759D02*
X227730464Y-177482262D01*
X170408092Y-75336707D02*
X170364640Y-75650851D01*
X136962309Y-29180648D02*
X136461399Y-29523683D01*
X172315214Y-30364004D02*
X172361492Y-30755637D01*
X93492216Y-31048000D02*
X93091079Y-30829587D01*
X188120073Y-131931397D02*
X189201572Y-131931397D01*
X227778868Y-94099008D02*
X227717906Y-93917336D01*
X85946142Y-78939622D02*
X85703288Y-79147958D01*
X148501000Y-45786279D02*
X148499000Y-45786279D01*
X105622748Y-94337144D02*
X105671152Y-94099008D01*
X189203572Y-173503956D02*
X190725571Y-173503956D01*
X147331234Y-42097216D02*
X147306425Y-41470187D01*
X145986240Y-93443968D02*
X146253533Y-93011865D01*
X148499000Y-45786279D02*
X147766285Y-45786279D01*
X187076296Y-94099008D02*
X187015334Y-93917336D01*
X200265272Y-37471803D02*
X194615852Y-40791852D01*
X98838570Y-111107058D02*
X98323157Y-111293778D01*
X211173786Y-157514533D02*
X211138270Y-158161822D01*
X88946142Y-68071559D02*
X88946142Y-67487595D01*
X94796482Y-155048741D02*
X94341201Y-155518592D01*
X129733126Y-116589263D02*
X129705520Y-116909266D01*
X147299290Y-123996834D02*
X147330726Y-122776568D01*
X172537158Y-116396228D02*
X172434644Y-116638219D01*
X148501000Y-90358838D02*
X150022999Y-90358838D01*
X106941244Y-44735924D02*
X106827437Y-44052158D01*
X178690791Y-28602128D02*
X178174847Y-28874381D01*
X143339676Y-115847462D02*
X143127487Y-115912331D01*
X147114731Y-132826922D02*
X147276634Y-132381719D01*
X224627578Y-115221849D02*
X224682155Y-114533301D01*
X98323157Y-152866337D02*
X97804491Y-153078817D01*
X106391486Y-183705889D02*
X106002721Y-182945880D01*
X188143769Y-126531069D02*
X188078120Y-125880172D01*
X172661711Y-32144211D02*
X172677329Y-32354184D01*
X170715322Y-157586540D02*
X170471214Y-157514533D01*
X146603678Y-81289816D02*
X146211817Y-81486488D01*
X144342007Y-34542230D02*
X144263840Y-34066530D01*
X184042248Y-115847462D02*
X183830059Y-115912331D01*
X206893261Y-79987797D02*
X201064795Y-77602604D01*
X130716133Y-33170258D02*
X130251867Y-32955595D01*
X177163971Y-29523683D02*
X176675194Y-29906238D01*
X184240140Y-74203446D02*
X184042248Y-74274903D01*
X227717906Y-177062454D02*
X227636688Y-176890886D01*
X133405254Y-155376518D02*
X133028404Y-155248979D01*
X90013561Y-116315376D02*
X89549295Y-116100713D01*
X159562700Y-37471803D02*
X153913280Y-40791852D01*
X217377766Y-154623915D02*
X216904198Y-155048741D01*
X105901106Y-39717257D02*
X105509245Y-39913929D01*
X90013561Y-33170258D02*
X89549295Y-32955595D01*
X126648714Y-37367063D02*
X126405860Y-37575399D01*
X166190689Y-38415238D02*
X160362223Y-36030045D01*
X187807102Y-164332258D02*
X187615532Y-164345251D01*
X228519875Y-174399481D02*
X228681778Y-173954278D01*
X146070392Y-81542728D02*
X145761925Y-80645311D01*
X103086167Y-74156545D02*
X102949698Y-74174979D01*
X147330726Y-122776568D02*
X147104530Y-122759699D01*
X144324273Y-151747798D02*
X144073394Y-151717677D01*
X103735828Y-159729141D02*
X103639435Y-159259907D01*
X102793042Y-27028740D02*
X102460014Y-27078815D01*
X183925006Y-156794408D02*
X183979583Y-156105860D01*
X185256468Y-151813437D02*
X185026845Y-151747798D01*
X108297428Y-141061576D02*
X124870411Y-150717677D01*
X139025729Y-152866337D02*
X138507063Y-153078817D01*
X185334663Y-105681155D02*
X185952366Y-103891759D01*
X131658920Y-113900755D02*
X131745165Y-114289987D01*
X170954439Y-157673272D02*
X170715322Y-157586540D01*
X188001862Y-123996834D02*
X188033298Y-122776568D01*
X185819076Y-120433147D02*
X185517435Y-119533308D01*
X225203340Y-27001003D02*
X224900758Y-27028740D01*
X144765325Y-27201309D02*
X144553896Y-27095760D01*
X146312762Y-177062454D02*
X146231544Y-176890886D01*
X143127487Y-32767213D02*
X143182249Y-32421623D01*
X228681778Y-90809160D02*
X228821761Y-90362205D01*
X131906749Y-33016923D02*
X131834586Y-33251110D01*
X224962346Y-70889521D02*
X225073105Y-70541250D01*
X68643467Y-54089855D02*
X67594856Y-57916458D01*
X147114731Y-49681804D02*
X147276634Y-49236601D01*
X227636688Y-135318327D02*
X227529688Y-135159619D01*
X227661201Y-136116200D02*
X227730464Y-135909703D01*
X184511553Y-153336648D02*
X184687315Y-152985265D01*
X144073394Y-27000000D02*
X143798196Y-27001003D01*
X211053858Y-117285025D02*
X211053858Y-109646118D01*
X227778868Y-177244126D02*
X227717906Y-177062454D01*
X187015334Y-52344777D02*
X186934116Y-52173209D01*
X190751183Y-137234973D02*
X189702572Y-141061576D01*
X188702572Y-56193604D02*
X186768934Y-53306513D01*
X103086167Y-115729104D02*
X102949698Y-115747538D01*
X211053858Y-67487595D02*
X225242086Y-67235315D01*
X184863334Y-157310467D02*
X184657992Y-157297155D01*
X172677329Y-157071861D02*
X172676045Y-157286838D01*
X103735828Y-118156582D02*
X103639435Y-117687348D01*
X135972622Y-154623915D02*
X135499054Y-155048741D01*
X159562700Y-120616921D02*
X153913280Y-123936970D01*
X143127487Y-74339772D02*
X143182249Y-73994182D01*
X190725571Y-90358838D02*
X190209037Y-92081234D01*
X191669529Y-51324953D02*
X191041893Y-54115686D01*
X184908677Y-116728696D02*
X184873582Y-116237711D01*
X183865158Y-110223933D02*
X183095509Y-110373533D01*
X102460014Y-110223933D02*
X101690365Y-110373533D01*
X103851324Y-151813437D02*
X103621701Y-151747798D01*
X103851324Y-68668319D02*
X103621701Y-68602680D01*
X206275555Y-67572559D02*
X208053858Y-67540938D01*
X189201572Y-87358838D02*
X188468857Y-87358838D01*
X133793651Y-113974705D02*
X133405254Y-113803959D01*
X225389887Y-28267588D02*
X225604877Y-27914326D01*
X105550961Y-93011865D02*
X105797738Y-92576564D01*
X91141911Y-114682420D02*
X91227406Y-115083658D01*
X170351286Y-68073559D02*
X170351286Y-68071559D01*
X146726288Y-50565795D02*
X146931189Y-50124965D01*
X145986240Y-176589086D02*
X146253533Y-176156983D01*
X187615532Y-164345251D02*
X187451083Y-164381634D01*
X172547055Y-156254979D02*
X172632550Y-156656217D01*
X213364283Y-156861888D02*
X213379901Y-157071861D01*
X184198186Y-68601299D02*
X183865158Y-68651374D01*
X103755859Y-69131530D02*
X104062753Y-68773868D01*
X185334663Y-64108596D02*
X185952366Y-62319200D01*
X143667961Y-112113809D02*
X143808981Y-111764089D01*
X225073105Y-153686368D02*
X225214125Y-153336648D01*
X188416300Y-86758193D02*
X188346388Y-86308483D01*
X144199733Y-111059444D02*
X144458431Y-110704089D01*
X225668984Y-75639089D02*
X225611249Y-75156137D01*
X184370533Y-28968691D02*
X184511553Y-28618971D01*
X107056625Y-170353872D02*
X107011156Y-169903311D01*
X167351286Y-78939622D02*
X167108432Y-79147958D01*
X149000000Y-57916458D02*
X165572983Y-67572559D01*
X183095509Y-151946092D02*
X182211271Y-152135273D01*
X184657992Y-32579478D02*
X184491311Y-32583986D01*
X90956348Y-72328196D02*
X91042593Y-72717428D01*
X172632550Y-31938540D02*
X172661711Y-32144211D01*
X186934116Y-135318327D02*
X186827116Y-135159619D01*
X187807102Y-81187140D02*
X187615532Y-81200133D01*
X144550812Y-160192690D02*
X144438400Y-159729141D01*
X147094058Y-142133330D02*
X146705293Y-141373321D01*
X179209635Y-153078817D02*
X178690791Y-153319805D01*
X188033298Y-122776568D02*
X187807102Y-122759699D01*
X172632550Y-156656217D02*
X172661711Y-156861888D01*
X224627578Y-73649290D02*
X224682155Y-72960742D01*
X103639435Y-76114789D02*
X103561268Y-75639089D01*
X143652270Y-115747538D02*
X143537568Y-115776005D01*
X213000990Y-116888715D02*
X212568599Y-116580025D01*
X170351286Y-158857584D02*
X170351286Y-151218677D01*
X227167069Y-122217870D02*
X226843221Y-121325913D01*
X105610190Y-52344777D02*
X105528972Y-52173209D01*
X188468857Y-87358838D02*
X188461769Y-87208754D01*
X229118872Y-45185634D02*
X229048960Y-44735924D01*
X213000990Y-158461274D02*
X212568599Y-158152584D01*
X172547055Y-31537302D02*
X172632550Y-31938540D01*
X225057414Y-115747538D02*
X224942712Y-115776005D01*
X229048960Y-44735924D02*
X228935153Y-44052158D01*
X91272185Y-115499302D02*
X91270901Y-115714279D01*
X68617855Y-48786279D02*
X68101321Y-50508675D01*
X208053858Y-109113497D02*
X208053858Y-109644118D01*
X132304581Y-113533121D02*
X131955222Y-113508439D01*
X177664881Y-112325766D02*
X177163971Y-112668801D01*
X211138270Y-116589263D02*
X211110664Y-116909266D01*
X91272185Y-73926743D02*
X91270901Y-74141720D01*
X106002721Y-141373321D02*
X106323287Y-139781147D01*
X212568599Y-116580025D02*
X212121277Y-116315376D01*
X110264385Y-134470071D02*
X109636749Y-137260804D01*
X184370533Y-70541250D02*
X184511553Y-70191530D01*
X186871423Y-186421754D02*
X187796630Y-183705889D01*
X143182249Y-73994182D02*
X143222434Y-73649290D01*
X134194788Y-72620559D02*
X133793651Y-72402146D01*
X102519862Y-32076731D02*
X102574439Y-31388183D01*
X174897360Y-155765677D02*
X174496223Y-155547264D01*
X229118872Y-86758193D02*
X229048960Y-86308483D01*
X208053858Y-192258615D02*
X208053858Y-194290236D01*
X102624514Y-30699850D02*
X102705954Y-30010016D01*
X143667961Y-28968691D02*
X143808981Y-28618971D01*
X104062753Y-151918986D02*
X103851324Y-151813437D01*
X184240140Y-32630887D02*
X184042248Y-32702344D01*
X126648714Y-150686056D02*
X126648714Y-151216677D01*
X119659651Y-160747722D02*
X118457577Y-161404597D01*
X143984743Y-111412706D02*
X144199733Y-111059444D01*
X139541142Y-111107058D02*
X139025729Y-111293778D01*
X135972622Y-113051356D02*
X135499054Y-113476182D01*
X105509245Y-81486488D02*
X105367820Y-81542728D01*
X77755005Y-119832038D02*
X78157556Y-120616921D01*
X219393363Y-70174687D02*
X218877419Y-70446940D01*
X214810398Y-30658841D02*
X214433548Y-30531302D01*
X228681778Y-132381719D02*
X228821761Y-131934764D01*
X65594856Y-48786279D02*
X68617855Y-48786279D01*
X106228617Y-133270083D02*
X106412159Y-132826922D01*
X185256468Y-27095760D02*
X185026845Y-27030121D01*
X184240140Y-115776005D02*
X184042248Y-115847462D01*
X213360366Y-71935880D02*
X213017786Y-71936563D01*
X146253533Y-176156983D02*
X146500310Y-175721682D01*
X146931189Y-50124965D02*
X147114731Y-49681804D01*
X217377766Y-113051356D02*
X216904198Y-113476182D01*
X131844483Y-156254979D02*
X131929978Y-156656217D01*
X85946142Y-109646118D02*
X85946142Y-120512181D01*
X170351286Y-194290236D02*
X170351286Y-192205272D01*
X144550812Y-118620131D02*
X144438400Y-118156582D01*
X211173786Y-115941974D02*
X211138270Y-116589263D01*
X103468438Y-33092593D02*
X103458190Y-32592790D01*
X229048960Y-127881042D02*
X228935153Y-127197276D01*
X227573931Y-94722837D02*
X227661201Y-94543641D01*
X208053858Y-151218677D02*
X208053858Y-162084740D01*
X185517435Y-77960749D02*
X185253384Y-77047572D01*
X187979206Y-90809160D02*
X188119189Y-90362205D01*
X228704434Y-82424275D02*
X228735870Y-81204009D01*
X103561268Y-158784207D02*
X103503533Y-158301255D01*
X225203340Y-68573562D02*
X224900758Y-68601299D01*
X131612642Y-71936563D02*
X131658920Y-72328196D01*
X105421972Y-176732178D02*
X105283668Y-176589086D01*
X227573931Y-136295396D02*
X227661201Y-136116200D01*
X206893261Y-121560356D02*
X201064795Y-119175163D01*
X227661201Y-94543641D02*
X227730464Y-94337144D01*
X219912207Y-111506258D02*
X219393363Y-111747246D01*
X143339676Y-32702344D02*
X143127487Y-32767213D01*
X213357069Y-74362399D02*
X213311893Y-74589482D01*
X213000990Y-75316156D02*
X212568599Y-75007466D01*
X227778868Y-52526449D02*
X227717906Y-52344777D01*
X143182249Y-32421623D02*
X143222434Y-32076731D01*
X147416617Y-131934764D02*
X147417501Y-131931397D01*
X146500310Y-134149123D02*
X146726288Y-133710913D01*
X146066362Y-136451631D02*
X146168787Y-136295396D01*
X227616961Y-164631606D02*
X227475536Y-164687846D01*
X227471506Y-53306513D02*
X227573931Y-53150278D01*
X106628154Y-81204009D02*
X106401958Y-81187140D01*
X222913843Y-68990155D02*
X221955038Y-69227324D01*
X129662068Y-34078292D02*
X129648714Y-34139907D01*
X194615852Y-40791852D02*
X193183723Y-45786279D01*
X218367453Y-112325766D02*
X217866543Y-112668801D01*
X103561268Y-34066530D02*
X103503533Y-33583578D01*
X106323287Y-181353706D02*
X106824612Y-181392855D01*
X186958629Y-52971082D02*
X187027892Y-52764585D01*
X185140972Y-76584023D02*
X185044579Y-76114789D01*
X173007153Y-113533121D02*
X172657794Y-113508439D01*
X147114731Y-91254363D02*
X147276634Y-90809160D01*
X201064795Y-119175163D02*
X199862721Y-119832038D01*
X186464497Y-122217870D02*
X186140649Y-121325913D01*
X105671152Y-94099008D02*
X105610190Y-93917336D01*
X106228617Y-174842642D02*
X106412159Y-174399481D01*
X143557202Y-112462080D02*
X143667961Y-112113809D01*
X184775966Y-27000000D02*
X184500768Y-27001003D01*
X187306250Y-39717257D02*
X186914389Y-39913929D01*
X129733126Y-158161822D02*
X129705520Y-158481825D01*
X105797738Y-175721682D02*
X106023716Y-175283472D01*
X211417894Y-32868863D02*
X211173786Y-32796856D01*
X103503533Y-158301255D02*
X103468438Y-157810270D01*
X183979583Y-114533301D02*
X184029658Y-113844968D01*
X105550961Y-51439306D02*
X105797738Y-51004005D01*
X222913843Y-152135273D02*
X221955038Y-152372442D01*
X227529688Y-135159619D02*
X227391384Y-135016527D01*
X132661910Y-155160186D02*
X132304581Y-155105680D01*
X188232581Y-127197276D02*
X188143769Y-126531069D01*
X106827437Y-127197276D02*
X106738625Y-126531069D01*
X107063713Y-87358838D02*
X107056625Y-87208754D01*
X131951925Y-32789840D02*
X131906749Y-33016923D01*
X129648714Y-25000000D02*
X167351286Y-25000000D01*
X188001862Y-165569393D02*
X188033298Y-164349127D01*
X173364482Y-155160186D02*
X173007153Y-155105680D01*
X103755859Y-110704089D02*
X104062753Y-110346427D01*
X187015334Y-177062454D02*
X186934116Y-176890886D01*
X188119189Y-173507323D02*
X188120073Y-173503956D01*
X140050222Y-69370785D02*
X139541142Y-69534499D01*
X105367820Y-123115287D02*
X105059353Y-122217870D01*
X147713728Y-128330752D02*
X147643816Y-127881042D01*
X194615852Y-82364411D02*
X193183723Y-87358838D01*
X146373724Y-52526449D02*
X146312762Y-52344777D01*
X228704434Y-40851716D02*
X228735870Y-39631450D01*
X183884821Y-32421623D02*
X183925006Y-32076731D01*
X143222434Y-32076731D02*
X143277011Y-31388183D01*
X146124544Y-176732178D02*
X145986240Y-176589086D01*
X184908677Y-33583578D02*
X184873582Y-33092593D01*
X225863575Y-110704089D02*
X226170469Y-110346427D01*
X225576154Y-116237711D02*
X225565906Y-115737908D01*
X147530009Y-168769835D02*
X147441197Y-168103628D01*
X136962309Y-70753207D02*
X136461399Y-71096242D01*
X102793042Y-151746417D02*
X102460014Y-151796492D01*
X143327086Y-155417527D02*
X143408526Y-154727693D01*
X106827437Y-85624717D02*
X106738625Y-84958510D01*
X190209037Y-50508675D02*
X191669529Y-51324953D01*
X84785545Y-163132915D02*
X78957079Y-160747722D01*
X206275555Y-150717677D02*
X208053858Y-150686056D01*
X102479677Y-157139300D02*
X102519862Y-156794408D01*
X119659651Y-77602604D02*
X118457577Y-78259479D01*
X146931189Y-174842642D02*
X147114731Y-174399481D01*
X106401958Y-39614581D02*
X106210388Y-39627574D01*
X93907287Y-114463661D02*
X93492216Y-114193118D01*
X222913843Y-27417596D02*
X221955038Y-27654765D01*
X218877419Y-70446940D02*
X218367453Y-70753207D01*
X228735870Y-122776568D02*
X228509674Y-122759699D01*
X228110437Y-58228203D02*
X228431003Y-56636029D01*
X184111098Y-113155134D02*
X184174790Y-112809116D01*
X88959496Y-158795969D02*
X88946142Y-158857584D01*
X103848240Y-77047572D02*
X103735828Y-76584023D01*
X78157556Y-79044362D02*
X72508136Y-82364411D01*
X188033298Y-39631450D02*
X187807102Y-39614581D01*
X124870411Y-109145118D02*
X126648714Y-109113497D01*
X104413932Y-78860588D02*
X104112291Y-77960749D01*
X106714929Y-131931397D02*
X107796428Y-131931397D01*
X228711569Y-41470187D02*
X228704434Y-40851716D01*
X144171010Y-33092593D02*
X144160762Y-32592790D01*
X224567730Y-151796492D02*
X223798081Y-151946092D01*
X105466215Y-177867955D02*
X105553485Y-177688759D01*
X124870411Y-150717677D02*
X126648714Y-150686056D01*
X103370822Y-27000000D02*
X103095624Y-27001003D01*
X146168851Y-186421754D02*
X147094058Y-183705889D01*
X229048960Y-169453601D02*
X228935153Y-168769835D01*
X172361492Y-30755637D02*
X172447737Y-31144869D01*
X106672976Y-42735054D02*
X106628662Y-42097216D01*
X227475536Y-81542728D02*
X227167069Y-80645311D01*
X228935153Y-85624717D02*
X228846341Y-84958510D01*
X226843221Y-79753354D02*
X226521648Y-78860588D01*
X146912960Y-122772692D02*
X146748511Y-122809075D01*
X102424915Y-74339772D02*
X102479677Y-73994182D01*
X105466215Y-94722837D02*
X105553485Y-94543641D01*
X170471214Y-157514533D02*
X170435698Y-158161822D01*
X188229756Y-181392855D02*
X188702572Y-180911281D01*
X211053858Y-194290236D02*
X211053858Y-192205272D01*
X180752794Y-27798226D02*
X180243714Y-27961940D01*
X213335122Y-73511099D02*
X213364283Y-73716770D01*
X213311893Y-157734600D02*
X213239730Y-157968787D01*
X216904198Y-71903623D02*
X216448917Y-72373474D01*
X136962309Y-112325766D02*
X136461399Y-112668801D01*
X131834586Y-116396228D02*
X131732072Y-116638219D01*
X68101321Y-133653793D02*
X69561813Y-134470071D01*
X88959496Y-34078292D02*
X88946142Y-34139907D01*
X126648714Y-68071559D02*
X126648714Y-68073559D01*
X224877362Y-112809116D02*
X224962346Y-112462080D01*
X103095624Y-68573562D02*
X102793042Y-68601299D01*
X224900758Y-110173858D02*
X224567730Y-110223933D01*
X189203572Y-128931397D02*
X189201572Y-128931397D01*
X103282171Y-28267588D02*
X103497161Y-27914326D01*
X106002721Y-99800762D02*
X106323287Y-98208588D01*
X106628154Y-122776568D02*
X106401958Y-122759699D01*
X130716133Y-157887935D02*
X130251867Y-157673272D01*
X146256057Y-52971082D02*
X146325320Y-52764585D01*
X186464497Y-39072752D02*
X186140649Y-38180795D01*
X211053858Y-68071559D02*
X211053858Y-67487595D01*
X105671152Y-52526449D02*
X105610190Y-52344777D01*
X129648714Y-75712466D02*
X129648714Y-68073559D01*
X184902305Y-27914326D02*
X185161003Y-27558971D01*
X231405144Y-194290236D02*
X211053858Y-194290236D01*
X183925006Y-32076731D02*
X183979583Y-31388183D01*
X148501000Y-131931397D02*
X150022999Y-131931397D01*
X213360366Y-30363321D02*
X213017786Y-30364004D01*
X213150309Y-114289987D02*
X213249627Y-114682420D01*
X184042248Y-74274903D02*
X183830059Y-74339772D01*
X228711569Y-83042746D02*
X228704434Y-82424275D01*
X227616961Y-81486488D02*
X227475536Y-81542728D01*
X129648714Y-194290236D02*
X129648714Y-192205272D01*
X105610190Y-93917336D02*
X105528972Y-93745768D01*
X176675194Y-71478797D02*
X176201626Y-71903623D01*
X187407865Y-99800762D02*
X187728431Y-98208588D01*
X125488117Y-163132915D02*
X119659651Y-160747722D01*
X213017786Y-71936563D02*
X213064064Y-72328196D01*
X147094058Y-58988212D02*
X146705293Y-58228203D01*
X102637104Y-32702344D02*
X102424915Y-32767213D01*
X107297428Y-139338722D02*
X105363790Y-136451631D01*
X143327086Y-113844968D02*
X143408526Y-113155134D01*
X144458431Y-69131530D02*
X144765325Y-68773868D01*
X227167069Y-39072752D02*
X226843221Y-38180795D01*
X170364640Y-75650851D02*
X170351286Y-75712466D01*
X225565906Y-115737908D02*
X225360564Y-115724596D01*
X103755859Y-27558971D02*
X104062753Y-27201309D01*
X224732230Y-113844968D02*
X224813670Y-113155134D01*
X131973473Y-74141720D02*
X131951925Y-74362399D01*
X68101321Y-92081234D02*
X69561813Y-92897512D01*
X131745165Y-155862546D02*
X131844483Y-156254979D01*
X172298418Y-75316156D02*
X171866027Y-75007466D01*
X88959496Y-117223410D02*
X88946142Y-117285025D01*
X131973473Y-32569161D02*
X131951925Y-32789840D01*
X102519862Y-156794408D02*
X102574439Y-156105860D01*
X186464497Y-80645311D02*
X186140649Y-79753354D01*
X131959139Y-73716770D02*
X131974757Y-73926743D01*
X186956105Y-93011865D02*
X187202882Y-92576564D01*
X88946142Y-109060154D02*
X103134370Y-108807874D01*
X89549295Y-157673272D02*
X89310178Y-157586540D01*
X199862721Y-78259479D02*
X200265272Y-79044362D01*
X67594856Y-57916458D02*
X84167839Y-67572559D01*
X222913843Y-110562714D02*
X221955038Y-110799883D01*
X187979206Y-132381719D02*
X188119189Y-131934764D01*
X104413932Y-120433147D02*
X104112291Y-119533308D01*
X188461769Y-128781313D02*
X188416300Y-128330752D01*
X172361492Y-72328196D02*
X172447737Y-72717428D01*
X188468857Y-128931397D02*
X188461769Y-128781313D01*
X91204177Y-157734600D02*
X91132014Y-157968787D01*
X185161003Y-152276648D02*
X185467897Y-151918986D01*
X103468438Y-116237711D02*
X103458190Y-115737908D01*
X170954439Y-74528154D02*
X170715322Y-74441422D01*
X71076007Y-87358838D02*
X65594856Y-87358838D01*
X106412159Y-174399481D02*
X106574062Y-173954278D01*
X213064064Y-155473314D02*
X213150309Y-155862546D01*
X188008997Y-124615305D02*
X188001862Y-123996834D01*
X213379901Y-73926743D02*
X213378617Y-74141720D01*
X96769703Y-112019499D02*
X96259737Y-112325766D01*
X106941244Y-127881042D02*
X106827437Y-127197276D01*
X103134370Y-108807874D02*
X104071590Y-105878796D01*
X85946142Y-151218677D02*
X85946142Y-162084740D01*
X187451083Y-81236516D02*
X187306250Y-81289816D01*
X77755005Y-78259479D02*
X78157556Y-79044362D01*
X131906749Y-74589482D02*
X131834586Y-74823669D01*
X131973473Y-115714279D02*
X131951925Y-115934958D01*
X179728301Y-69721219D02*
X179209635Y-69933699D01*
X183830059Y-32767213D02*
X183884821Y-32421623D01*
X143495614Y-68601299D02*
X143162586Y-68651374D01*
X225214125Y-153336648D02*
X225389887Y-152985265D01*
X176201626Y-71903623D02*
X175746345Y-72373474D01*
X131959139Y-115289329D02*
X131974757Y-115499302D01*
X224900758Y-68601299D02*
X224567730Y-68651374D01*
X159562700Y-162189480D02*
X153913280Y-165509529D01*
X105610190Y-177062454D02*
X105528972Y-176890886D01*
X150048611Y-137234973D02*
X149000000Y-141061576D01*
X106714045Y-173507323D02*
X106714929Y-173503956D01*
X103468438Y-74665152D02*
X103458190Y-74165349D01*
X208053858Y-150686056D02*
X208053858Y-151216677D01*
X103497161Y-152632003D02*
X103755859Y-152276648D01*
X130012750Y-74441422D02*
X129768642Y-74369415D01*
X216015003Y-72891102D02*
X215599932Y-72620559D01*
X68643467Y-95662414D02*
X67594856Y-99489017D01*
X180243714Y-69534499D02*
X179728301Y-69721219D01*
X184687315Y-111412706D02*
X184902305Y-111059444D01*
X125488117Y-121560356D02*
X119659651Y-119175163D01*
X188416300Y-128330752D02*
X188346388Y-127881042D01*
X91256567Y-73716770D02*
X91272185Y-73926743D01*
X102854630Y-154034639D02*
X102965389Y-153686368D01*
X143277011Y-114533301D02*
X143327086Y-113844968D01*
X143798196Y-151718680D02*
X143495614Y-151746417D01*
X107798428Y-48786279D02*
X109320427Y-48786279D01*
X126648714Y-151216677D02*
X126648714Y-151218677D01*
X77755005Y-36686920D02*
X78157556Y-37471803D01*
X213709725Y-30388003D02*
X213360366Y-30363321D01*
X68617855Y-90358838D02*
X68101321Y-92081234D01*
X106210388Y-122772692D02*
X106045939Y-122809075D01*
X144160762Y-74165349D02*
X143955420Y-74152037D01*
X130716133Y-116315376D02*
X130251867Y-116100713D01*
X172661711Y-156861888D02*
X172677329Y-157071861D01*
X208053858Y-78939622D02*
X207811004Y-79147958D01*
X146312762Y-93917336D02*
X146231544Y-93745768D01*
X131844483Y-73109861D02*
X131929978Y-73511099D01*
X146211817Y-39913929D02*
X146070392Y-39970169D01*
X91227406Y-115083658D02*
X91256567Y-115289329D01*
X149000000Y-141061576D02*
X165572983Y-150717677D01*
X111778579Y-87358838D02*
X107798428Y-87358838D01*
X187633761Y-133270083D02*
X187817303Y-132826922D01*
X211138270Y-158161822D02*
X211110664Y-158481825D01*
X172654497Y-115934958D02*
X172609321Y-116162041D01*
X228336333Y-50124965D02*
X228519875Y-49681804D01*
X105466279Y-61704077D02*
X106391486Y-58988212D01*
X178174847Y-153592058D02*
X177664881Y-153898325D01*
X166190689Y-163132915D02*
X160362223Y-160747722D01*
X97804491Y-28361140D02*
X97285647Y-28602128D01*
X159160149Y-36686920D02*
X159562700Y-37471803D01*
X97285647Y-70174687D02*
X96769703Y-70446940D01*
X106628154Y-164349127D02*
X106401958Y-164332258D01*
X183925006Y-115221849D02*
X183979583Y-114533301D01*
X147416617Y-173507323D02*
X147417501Y-173503956D01*
X225959040Y-110240878D02*
X225729417Y-110175239D01*
X143808981Y-28618971D02*
X143984743Y-28267588D01*
X217377766Y-29906238D02*
X216904198Y-30331064D01*
X186871423Y-61704077D02*
X187796630Y-58988212D01*
X102834996Y-157348564D02*
X102637104Y-157420021D01*
X106628154Y-39631450D02*
X106401958Y-39614581D01*
X106714045Y-48789646D02*
X106714929Y-48786279D01*
X89066070Y-115941974D02*
X89030554Y-116589263D01*
X186827116Y-52014501D02*
X186688812Y-51871409D01*
X228735870Y-81204009D02*
X228509674Y-81187140D01*
X170715322Y-116013981D02*
X170471214Y-115941974D01*
X227573931Y-53150278D02*
X227661201Y-52971082D01*
X227658677Y-176156983D02*
X227905454Y-175721682D01*
X227905454Y-175721682D02*
X228131432Y-175283472D01*
X216015003Y-114463661D02*
X215599932Y-114193118D01*
X228008822Y-122862375D02*
X227616961Y-123059047D01*
X103106409Y-70191530D02*
X103282171Y-69840147D01*
X231405144Y-90358838D02*
X231405144Y-128931397D01*
X213150309Y-72717428D02*
X213249627Y-73109861D01*
X188468857Y-170503956D02*
X188461769Y-170353872D01*
X227475536Y-123115287D02*
X227167069Y-122217870D01*
X226170469Y-110346427D02*
X225959040Y-110240878D01*
X186688812Y-93443968D02*
X186956105Y-93011865D01*
X103561268Y-75639089D02*
X103503533Y-75156137D01*
X188232581Y-168769835D02*
X188143769Y-168103628D01*
X85946142Y-150686056D02*
X85946142Y-151216677D01*
X147416617Y-90362205D02*
X147417501Y-90358838D01*
X212121277Y-157887935D02*
X211657011Y-157673272D01*
X144632091Y-147253714D02*
X145249794Y-145464318D01*
X102793042Y-68601299D02*
X102460014Y-68651374D01*
X231405144Y-48786279D02*
X231405144Y-87358838D01*
X147331234Y-83669775D02*
X147306425Y-83042746D01*
X134609859Y-31318543D02*
X134194788Y-31048000D01*
X224567730Y-110223933D02*
X223798081Y-110373533D01*
X159562700Y-79044362D02*
X153913280Y-82364411D01*
X144765325Y-151918986D02*
X144553896Y-151813437D01*
X106596718Y-165569393D02*
X106628154Y-164349127D01*
X68643467Y-137234973D02*
X67594856Y-141061576D01*
X228008822Y-39717257D02*
X227616961Y-39913929D01*
X191041893Y-178833363D02*
X190751183Y-178807532D01*
X107297428Y-97766163D02*
X105363790Y-94879072D01*
X109320427Y-48786279D02*
X108803893Y-50508675D01*
X95270050Y-29906238D02*
X94796482Y-30331064D01*
X179728301Y-152866337D02*
X179209635Y-153078817D01*
X109346039Y-54089855D02*
X108297428Y-57916458D01*
X149000000Y-99489017D02*
X165572983Y-109145118D01*
X220946286Y-69534499D02*
X220430873Y-69721219D01*
X91132014Y-116396228D02*
X91029500Y-116638219D01*
X212121277Y-74742817D02*
X211657011Y-74528154D01*
X102854630Y-70889521D02*
X102965389Y-70541250D01*
X144263840Y-75639089D02*
X144206105Y-75156137D01*
X89310178Y-157586540D02*
X89066070Y-157514533D01*
X90956348Y-113900755D02*
X91042593Y-114289987D01*
X228318104Y-164345251D02*
X228153655Y-164381634D01*
X60594856Y-20000000D02*
X60594856Y-199290236D01*
X143162586Y-27078815D02*
X142392937Y-27228415D01*
X170351286Y-192205272D02*
X184539514Y-191952992D01*
X184539514Y-150380433D02*
X185476734Y-147451355D01*
X170351286Y-68071559D02*
X170351286Y-67487595D01*
X103848240Y-35475013D02*
X103735828Y-35011464D01*
X95758827Y-154241360D02*
X95270050Y-154623915D01*
X227905454Y-51004005D02*
X228131432Y-50565795D01*
X126648714Y-109644118D02*
X126648714Y-109646118D01*
X185517435Y-119533308D02*
X185253384Y-118620131D01*
X103497161Y-69486885D02*
X103755859Y-69131530D01*
X220430873Y-152866337D02*
X219912207Y-153078817D01*
X228822645Y-131931397D02*
X231405144Y-131931397D01*
X89030554Y-75016704D02*
X89002948Y-75336707D01*
X111778579Y-45786279D02*
X107798428Y-45786279D01*
X150966957Y-176042630D02*
X150339321Y-178833363D01*
X184500768Y-110146121D02*
X184198186Y-110173858D01*
X106827437Y-44052158D02*
X106738625Y-43385951D01*
X143652270Y-157320097D02*
X143537568Y-157348564D01*
X176201626Y-155048741D02*
X175746345Y-155518592D01*
X103458190Y-115737908D02*
X103252848Y-115724596D01*
X147276634Y-132381719D02*
X147416617Y-131934764D01*
X137988219Y-28602128D02*
X137472275Y-28874381D01*
X106714929Y-48786279D02*
X107796428Y-48786279D01*
X228110437Y-99800762D02*
X228431003Y-98208588D01*
X226843221Y-162898472D02*
X226521648Y-162005706D01*
X143667961Y-70541250D02*
X143808981Y-70191530D01*
X148499000Y-48786279D02*
X148501000Y-48786279D01*
X97804491Y-153078817D02*
X97285647Y-153319805D01*
X93091079Y-72402146D02*
X92702682Y-72231400D01*
X105528972Y-52173209D02*
X105421972Y-52014501D01*
X185467897Y-27201309D02*
X185256468Y-27095760D01*
X106738625Y-43385951D02*
X106672976Y-42735054D01*
X147766285Y-170503956D02*
X147759197Y-170353872D01*
X218877419Y-28874381D02*
X218367453Y-29180648D01*
X183095509Y-68800974D02*
X182211271Y-68990155D01*
X143339676Y-157420021D02*
X143127487Y-157484890D01*
X172447737Y-31144869D02*
X172547055Y-31537302D01*
X214067054Y-72015068D02*
X213709725Y-71960562D01*
X226521648Y-78860588D02*
X226220007Y-77960749D01*
X228499202Y-58988212D02*
X228110437Y-58228203D01*
X143127487Y-115912331D02*
X143182249Y-115566741D01*
X225576154Y-74665152D02*
X225565906Y-74165349D01*
X143955420Y-32579478D02*
X143788739Y-32583986D01*
X146312762Y-52344777D02*
X146231544Y-52173209D01*
X106596718Y-40851716D02*
X106628154Y-39631450D01*
X167108432Y-79147958D02*
X166190689Y-79987797D01*
X118860128Y-120616921D02*
X113210708Y-123936970D01*
X102460014Y-151796492D02*
X101690365Y-151946092D01*
X147527184Y-181392855D02*
X148000000Y-180911281D01*
X106045939Y-81236516D02*
X105901106Y-81289816D01*
X188078120Y-84307613D02*
X188033806Y-83669775D01*
X144765325Y-68773868D02*
X144553896Y-68668319D01*
X104735505Y-121325913D02*
X104413932Y-120433147D01*
X78957079Y-160747722D02*
X77755005Y-161404597D01*
X102965389Y-28968691D02*
X103106409Y-28618971D01*
X146912960Y-39627574D02*
X146748511Y-39663957D01*
X188008997Y-83042746D02*
X188001862Y-82424275D01*
X219393363Y-153319805D02*
X218877419Y-153592058D01*
X104112291Y-36388190D02*
X103848240Y-35475013D01*
X183865158Y-151796492D02*
X183095509Y-151946092D01*
X135499054Y-71903623D02*
X135043773Y-72373474D01*
X187633761Y-174842642D02*
X187817303Y-174399481D01*
X167351286Y-151218677D02*
X167351286Y-162084740D01*
X179728301Y-111293778D02*
X179209635Y-111506258D01*
X131163455Y-33434907D02*
X130716133Y-33170258D01*
X96769703Y-28874381D02*
X96259737Y-29180648D01*
X208053858Y-194290236D02*
X170351286Y-194290236D01*
X107011156Y-169903311D02*
X106941244Y-169453601D01*
X188001862Y-82424275D02*
X188033298Y-81204009D01*
X91029500Y-33493101D02*
X90893274Y-33743597D01*
X208053858Y-25000000D02*
X208053858Y-37367063D01*
X146253533Y-134584424D02*
X146500310Y-134149123D01*
X188033806Y-83669775D02*
X188008997Y-83042746D01*
X187817303Y-49681804D02*
X187979206Y-49236601D01*
X189201572Y-173503956D02*
X189203572Y-173503956D01*
X228499202Y-142133330D02*
X228110437Y-141373321D01*
X184657992Y-115724596D02*
X184491311Y-115729104D01*
X183884821Y-115566741D02*
X183925006Y-115221849D01*
X105622748Y-52764585D02*
X105671152Y-52526449D01*
X225565906Y-157310467D02*
X225360564Y-157297155D01*
X71076007Y-128931397D02*
X65594856Y-128931397D01*
X72508136Y-82364411D02*
X71076007Y-87358838D01*
X213239730Y-74823669D02*
X213137216Y-75065660D01*
X143652270Y-32602420D02*
X143537568Y-32630887D01*
X146373724Y-94099008D02*
X146312762Y-93917336D01*
X106714929Y-90358838D02*
X107796428Y-90358838D01*
X228932328Y-139820296D02*
X229405144Y-139338722D01*
X152481151Y-128931397D02*
X148501000Y-128931397D01*
X135043773Y-155518592D02*
X134609859Y-156036220D01*
X188143769Y-84958510D02*
X188078120Y-84307613D01*
X185140972Y-159729141D02*
X185044579Y-159259907D01*
X147417501Y-173503956D02*
X148499000Y-173503956D01*
X228846341Y-84958510D02*
X228780692Y-84307613D01*
X126648714Y-68073559D02*
X126648714Y-78939622D01*
X146168787Y-136295396D02*
X146256057Y-136116200D01*
X211110664Y-158481825D02*
X211067212Y-158795969D01*
X216904198Y-30331064D02*
X216448917Y-30800915D01*
X213709725Y-71960562D02*
X213360366Y-71935880D01*
X184687315Y-28267588D02*
X184902305Y-27914326D01*
X91959338Y-72015068D02*
X91602009Y-71960562D01*
X193183723Y-128931397D02*
X189203572Y-128931397D01*
X213311893Y-33016923D02*
X213239730Y-33251110D01*
X145986240Y-135016527D02*
X146253533Y-134584424D01*
X184240140Y-157348564D02*
X184042248Y-157420021D01*
X185952366Y-103891759D02*
X186871423Y-103276636D01*
X150048611Y-178807532D02*
X149000000Y-182634135D01*
X133028404Y-72103861D02*
X132661910Y-72015068D01*
X103370822Y-151717677D02*
X103095624Y-151718680D01*
X111778579Y-170503956D02*
X107798428Y-170503956D01*
X170351286Y-150632713D02*
X184539514Y-150380433D01*
X228736378Y-83669775D02*
X228711569Y-83042746D01*
X131974757Y-115499302D02*
X131973473Y-115714279D01*
X186768934Y-136451631D02*
X186871359Y-136295396D01*
X180243714Y-152679617D02*
X179728301Y-152866337D01*
X227529688Y-93587060D02*
X227391384Y-93443968D01*
X131745165Y-31144869D02*
X131844483Y-31537302D01*
X225360564Y-157297155D02*
X225193883Y-157301663D01*
X96259737Y-153898325D02*
X95758827Y-154241360D01*
X100806127Y-68990155D02*
X99847322Y-69227324D01*
X103252848Y-32579478D02*
X103086167Y-32583986D01*
X216015003Y-156036220D02*
X215599932Y-155765677D01*
X187728431Y-181353706D02*
X188229756Y-181392855D01*
X89030554Y-116589263D02*
X89002948Y-116909266D01*
X183865158Y-68651374D02*
X183095509Y-68800974D01*
X146070392Y-39970169D02*
X145761925Y-39072752D01*
X105421972Y-52014501D02*
X105283668Y-51871409D01*
X143788739Y-74156545D02*
X143652270Y-74174979D01*
X144342007Y-159259907D02*
X144263840Y-158784207D01*
X228821761Y-173507323D02*
X228822645Y-173503956D01*
X193183723Y-87358838D02*
X189203572Y-87358838D01*
X172609321Y-116162041D02*
X172537158Y-116396228D01*
X176675194Y-154623915D02*
X176201626Y-155048741D01*
X227730464Y-177482262D02*
X227778868Y-177244126D01*
X224682155Y-114533301D02*
X224732230Y-113844968D01*
X91252650Y-113508439D02*
X90910070Y-113509122D01*
X146726288Y-175283472D02*
X146931189Y-174842642D01*
X91132014Y-33251110D02*
X91029500Y-33493101D01*
X177664881Y-153898325D02*
X177163971Y-154241360D01*
X129662068Y-158795969D02*
X129648714Y-158857584D01*
X113210708Y-165509529D02*
X111778579Y-170503956D01*
X147759197Y-128781313D02*
X147713728Y-128330752D01*
X105421972Y-93587060D02*
X105283668Y-93443968D01*
X213239730Y-116396228D02*
X213137216Y-116638219D01*
X67594856Y-182634135D02*
X84167839Y-192290236D01*
X67594856Y-141061576D02*
X84167839Y-150717677D01*
X175746345Y-113946033D02*
X175312431Y-114463661D01*
X175746345Y-30800915D02*
X175312431Y-31318543D01*
X229164341Y-87208754D02*
X229118872Y-86758193D01*
X107798428Y-170503956D02*
X107796428Y-170503956D01*
X183884821Y-73994182D02*
X183925006Y-73649290D01*
X185467897Y-68773868D02*
X185256468Y-68668319D01*
X106412159Y-91254363D02*
X106574062Y-90809160D01*
X107297428Y-180911281D02*
X105363790Y-178024190D01*
X106574062Y-173954278D02*
X106714045Y-173507323D01*
X226220007Y-161105867D02*
X225955956Y-160192690D01*
X184902305Y-111059444D02*
X185161003Y-110704089D01*
X228431003Y-98208588D02*
X228932328Y-98247737D01*
X225604877Y-69486885D02*
X225863575Y-69131530D01*
X146748511Y-39663957D02*
X146603678Y-39717257D01*
X213137216Y-116638219D02*
X213000990Y-116888715D01*
X170351286Y-109644118D02*
X170351286Y-109060154D01*
X132304581Y-155105680D02*
X131955222Y-155080998D01*
X228318104Y-122772692D02*
X228153655Y-122809075D01*
X221955038Y-69227324D02*
X221455366Y-69370785D01*
X221955038Y-27654765D02*
X221455366Y-27798226D01*
X65594856Y-128931397D02*
X65594856Y-90358838D01*
X186140649Y-38180795D02*
X185819076Y-37288029D01*
X129705520Y-75336707D02*
X129662068Y-75650851D01*
X208053858Y-68071559D02*
X208053858Y-68073559D01*
X146325320Y-177482262D02*
X146373724Y-177244126D01*
X185161003Y-69131530D02*
X185467897Y-68773868D01*
X131834586Y-33251110D02*
X131732072Y-33493101D01*
X194615852Y-123936970D02*
X193183723Y-128931397D01*
X214433548Y-113676420D02*
X214067054Y-113587627D01*
X186934116Y-176890886D02*
X186827116Y-176732178D01*
X184259774Y-29316962D02*
X184370533Y-28968691D01*
X146373724Y-135671567D02*
X146312762Y-135489895D01*
X105466279Y-144849195D02*
X106391486Y-142133330D01*
X186688812Y-135016527D02*
X186956105Y-134584424D01*
X223798081Y-110373533D02*
X222913843Y-110562714D01*
X109320427Y-173503956D02*
X108803893Y-175226352D01*
X170471214Y-32796856D02*
X170435698Y-33444145D01*
X224813670Y-113155134D02*
X224877362Y-112809116D01*
X170351286Y-34139907D02*
X170351286Y-25000000D01*
X89549295Y-116100713D02*
X89310178Y-116013981D01*
X171866027Y-33434907D02*
X171418705Y-33170258D01*
X211053858Y-151216677D02*
X211053858Y-150632713D01*
X184511553Y-70191530D02*
X184687315Y-69840147D01*
X99847322Y-27654765D02*
X99347650Y-27798226D01*
X105059353Y-80645311D02*
X104735505Y-79753354D01*
X109320427Y-131931397D02*
X108803893Y-133653793D01*
X225611249Y-33583578D02*
X225576154Y-33092593D01*
X227636688Y-93745768D02*
X227529688Y-93587060D01*
X102965389Y-153686368D02*
X103106409Y-153336648D01*
X65594856Y-131931397D02*
X68617855Y-131931397D01*
X102793042Y-110173858D02*
X102460014Y-110223933D01*
X69561813Y-176042630D02*
X68934177Y-178833363D01*
X228681778Y-173954278D02*
X228821761Y-173507323D01*
X144206105Y-158301255D02*
X144171010Y-157810270D01*
X223798081Y-68800974D02*
X222913843Y-68990155D01*
X146603678Y-39717257D02*
X146211817Y-39913929D01*
X213364283Y-115289329D02*
X213379901Y-115499302D01*
X226521648Y-120433147D02*
X226220007Y-119533308D01*
X107796428Y-45786279D02*
X107063713Y-45786279D01*
X106002721Y-182945880D02*
X106323287Y-181353706D01*
X106023716Y-92138354D02*
X106228617Y-91697524D01*
X191041893Y-54115686D02*
X190751183Y-54089855D01*
X147375548Y-84307613D02*
X147331234Y-83669775D01*
X211053858Y-25000000D02*
X231405144Y-25000000D01*
X102705954Y-113155134D02*
X102769646Y-112809116D01*
X97804491Y-111506258D02*
X97285647Y-111747246D01*
X143788739Y-115729104D02*
X143652270Y-115747538D01*
X189702572Y-182634135D02*
X206275555Y-192290236D01*
X227658677Y-93011865D02*
X227905454Y-92576564D01*
X118860128Y-37471803D02*
X113210708Y-40791852D01*
X133405254Y-72231400D02*
X133028404Y-72103861D01*
X188143769Y-43385951D02*
X188078120Y-42735054D01*
X187796630Y-183705889D02*
X187407865Y-182945880D01*
X143127487Y-157484890D02*
X143182249Y-157139300D01*
X225389887Y-152985265D02*
X225604877Y-152632003D01*
X189201572Y-90358838D02*
X189203572Y-90358838D01*
X139541142Y-27961940D02*
X139025729Y-28148660D01*
X102834996Y-32630887D02*
X102637104Y-32702344D01*
X213137216Y-75065660D02*
X213000990Y-75316156D01*
X224587393Y-157139300D02*
X224627578Y-156794408D01*
X224567730Y-27078815D02*
X223798081Y-27228415D01*
X184491311Y-32583986D02*
X184354842Y-32602420D01*
X160362223Y-160747722D02*
X159160149Y-161404597D01*
X147643816Y-127881042D02*
X147530009Y-127197276D01*
X146211817Y-123059047D02*
X146070392Y-123115287D01*
X107798428Y-87358838D02*
X107796428Y-87358838D01*
X104735505Y-79753354D02*
X104413932Y-78860588D01*
X184873582Y-33092593D02*
X184863334Y-32592790D01*
X225959040Y-68668319D02*
X225729417Y-68602680D01*
X188416300Y-45185634D02*
X188346388Y-44735924D01*
X167108432Y-162293076D02*
X166190689Y-163132915D01*
X185819076Y-37288029D02*
X185517435Y-36388190D01*
X211657011Y-157673272D02*
X211417894Y-157586540D01*
X147306425Y-166187864D02*
X147299290Y-165569393D01*
X185140972Y-35011464D02*
X185044579Y-34542230D01*
X105466279Y-186421754D02*
X106391486Y-183705889D01*
X100806127Y-27417596D02*
X99847322Y-27654765D01*
X90460883Y-116580025D02*
X90013561Y-116315376D01*
X147441197Y-84958510D02*
X147375548Y-84307613D01*
X103095624Y-110146121D02*
X102793042Y-110173858D01*
X102424915Y-32767213D02*
X102479677Y-32421623D01*
X213360366Y-113508439D02*
X213017786Y-113509122D01*
X228735870Y-164349127D02*
X228509674Y-164332258D01*
X104547222Y-187036877D02*
X105466279Y-186421754D01*
X68934177Y-178833363D02*
X68643467Y-178807532D01*
X224744820Y-115847462D02*
X224532631Y-115912331D01*
X186914389Y-123059047D02*
X186772964Y-123115287D01*
X84167839Y-67572559D02*
X85946142Y-67540938D01*
X144814863Y-119533308D02*
X144550812Y-118620131D01*
X69561813Y-51324953D02*
X68934177Y-54115686D01*
X85946142Y-68073559D02*
X85946142Y-78939622D01*
X184491311Y-157301663D02*
X184354842Y-157320097D01*
X146726288Y-92138354D02*
X146931189Y-91697524D01*
X88946142Y-34139907D02*
X88946142Y-25000000D01*
X185952366Y-62319200D02*
X186871423Y-61704077D01*
X153913280Y-165509529D02*
X152481151Y-170503956D01*
X91249353Y-115934958D02*
X91204177Y-116162041D01*
X236405144Y-20000000D02*
X60594856Y-20000000D01*
X190751183Y-178807532D02*
X189702572Y-182634135D01*
X106401958Y-81187140D02*
X106210388Y-81200133D01*
X93492216Y-155765677D02*
X93091079Y-155547264D01*
X131955222Y-30363321D02*
X131612642Y-30364004D01*
X129648714Y-67487595D02*
X143836942Y-67235315D01*
X100806127Y-152135273D02*
X99847322Y-152372442D01*
X107796428Y-87358838D02*
X107063713Y-87358838D01*
X102479677Y-115566741D02*
X102519862Y-115221849D01*
X84167839Y-109145118D02*
X85946142Y-109113497D01*
X216448917Y-72373474D02*
X216015003Y-72891102D01*
X93907287Y-72891102D02*
X93492216Y-72620559D01*
X172609321Y-157734600D02*
X172537158Y-157968787D01*
X167351286Y-109113497D02*
X167351286Y-109644118D01*
X93907287Y-156036220D02*
X93492216Y-155765677D01*
X217866543Y-29523683D02*
X217377766Y-29906238D01*
X91252650Y-71935880D02*
X90910070Y-71936563D01*
X186914389Y-81486488D02*
X186772964Y-81542728D01*
X167351286Y-150686056D02*
X167351286Y-151216677D01*
X60594856Y-199290236D02*
X236405144Y-199290236D01*
X215599932Y-114193118D02*
X215198795Y-113974705D01*
X231405144Y-170503956D02*
X229171429Y-170503956D01*
X213000990Y-33743597D02*
X212568599Y-33434907D01*
X131658920Y-72328196D02*
X131745165Y-72717428D01*
X188346388Y-127881042D02*
X188232581Y-127197276D01*
X135043773Y-113946033D02*
X134609859Y-114463661D01*
X134194788Y-31048000D02*
X133793651Y-30829587D01*
X104735505Y-38180795D02*
X104413932Y-37288029D01*
X212121277Y-33170258D02*
X211657011Y-32955595D01*
X143984743Y-28267588D02*
X144199733Y-27914326D01*
X126648714Y-194290236D02*
X88946142Y-194290236D01*
X178174847Y-112019499D02*
X177664881Y-112325766D01*
X107063713Y-170503956D02*
X107056625Y-170353872D01*
X147441197Y-168103628D02*
X147375548Y-167452731D01*
X148000000Y-56193604D02*
X146066362Y-53306513D01*
X106002721Y-58228203D02*
X106323287Y-56636029D01*
X88946142Y-68073559D02*
X88946142Y-68071559D01*
X148499000Y-128931397D02*
X147766285Y-128931397D01*
X188346388Y-44735924D02*
X188232581Y-44052158D01*
X225604877Y-111059444D02*
X225863575Y-110704089D01*
X186768934Y-53306513D02*
X186871359Y-53150278D01*
X146373724Y-177244126D02*
X146312762Y-177062454D01*
X147375548Y-42735054D02*
X147331234Y-42097216D01*
X184657992Y-157297155D02*
X184491311Y-157301663D01*
X174897360Y-72620559D02*
X174496223Y-72402146D01*
X211053858Y-34139907D02*
X211053858Y-25000000D01*
X131959139Y-32144211D02*
X131974757Y-32354184D01*
X91029500Y-116638219D02*
X90893274Y-116888715D01*
X228704434Y-165569393D02*
X228735870Y-164349127D01*
X187407865Y-182945880D02*
X187728431Y-181353706D01*
X188232581Y-85624717D02*
X188143769Y-84958510D01*
X228519875Y-132826922D02*
X228681778Y-132381719D01*
X184491311Y-115729104D02*
X184354842Y-115747538D01*
X174107826Y-155376518D02*
X173730976Y-155248979D01*
X143182249Y-157139300D02*
X143222434Y-156794408D01*
X225843544Y-76584023D02*
X225747151Y-76114789D01*
X219393363Y-111747246D02*
X218877419Y-112019499D01*
X187817303Y-91254363D02*
X187979206Y-90809160D01*
X98838570Y-152679617D02*
X98323157Y-152866337D01*
X206275555Y-109145118D02*
X208053858Y-109113497D01*
X150048611Y-54089855D02*
X149000000Y-57916458D01*
X180243714Y-111107058D02*
X179728301Y-111293778D01*
X211053858Y-109644118D02*
X211053858Y-109060154D01*
X106574062Y-90809160D02*
X106714045Y-90362205D01*
X226170469Y-68773868D02*
X225959040Y-68668319D01*
X225729417Y-110175239D02*
X225478538Y-110145118D01*
X91204177Y-116162041D02*
X91132014Y-116396228D01*
X103282171Y-69840147D02*
X103497161Y-69486885D01*
X213378617Y-115714279D02*
X213357069Y-115934958D01*
X107796428Y-170503956D02*
X107063713Y-170503956D01*
X221955038Y-152372442D02*
X221455366Y-152515903D01*
X225242086Y-108807874D02*
X226179306Y-105878796D01*
X146748511Y-81236516D02*
X146603678Y-81289816D01*
X131955222Y-71935880D02*
X131612642Y-71936563D01*
X187817303Y-132826922D02*
X187979206Y-132381719D01*
X228519875Y-49681804D02*
X228681778Y-49236601D01*
X207811004Y-162293076D02*
X206893261Y-163132915D01*
X183830059Y-157484890D02*
X183884821Y-157139300D01*
X84785545Y-121560356D02*
X78957079Y-119175163D01*
X113210708Y-82364411D02*
X111778579Y-87358838D01*
X172447737Y-155862546D02*
X172547055Y-156254979D01*
X184259774Y-112462080D02*
X184370533Y-112113809D01*
X146748511Y-122809075D02*
X146603678Y-122862375D01*
X145116504Y-120433147D02*
X144814863Y-119533308D01*
X213357069Y-32789840D02*
X213311893Y-33016923D01*
X170954439Y-116100713D02*
X170715322Y-116013981D01*
X105283668Y-93443968D02*
X105550961Y-93011865D01*
X85946142Y-25000000D02*
X85946142Y-37367063D01*
X89066070Y-32796856D02*
X89030554Y-33444145D01*
X178174847Y-70446940D02*
X177664881Y-70753207D01*
X228318104Y-81200133D02*
X228153655Y-81236516D01*
X170351286Y-67487595D02*
X184539514Y-67235315D01*
X146931189Y-133270083D02*
X147114731Y-132826922D01*
X160362223Y-36030045D02*
X159160149Y-36686920D01*
X167108432Y-37575399D02*
X166190689Y-38415238D01*
X103497161Y-111059444D02*
X103755859Y-110704089D01*
X104062753Y-68773868D02*
X103851324Y-68668319D01*
X134609859Y-114463661D02*
X134194788Y-114193118D01*
X186140649Y-121325913D02*
X185819076Y-120433147D01*
X106738625Y-126531069D02*
X106672976Y-125880172D01*
X184687315Y-69840147D02*
X184902305Y-69486885D01*
X172547055Y-73109861D02*
X172632550Y-73511099D01*
X103929519Y-147253714D02*
X104547222Y-145464318D01*
X225360564Y-74152037D02*
X225193883Y-74156545D01*
X211173786Y-32796856D02*
X211138270Y-33444145D01*
X173364482Y-30442509D02*
X173007153Y-30388003D01*
X147330726Y-39631450D02*
X147104530Y-39614581D01*
X99347650Y-69370785D02*
X98838570Y-69534499D01*
X148501000Y-170503956D02*
X148499000Y-170503956D01*
X187202882Y-175721682D02*
X187428860Y-175283472D01*
X184174790Y-112809116D02*
X184259774Y-112462080D01*
X188078120Y-167452731D02*
X188033806Y-166814893D01*
X225073105Y-28968691D02*
X225214125Y-28618971D01*
X78157556Y-120616921D02*
X72508136Y-123936970D01*
X96769703Y-153592058D02*
X96259737Y-153898325D01*
X105622748Y-177482262D02*
X105671152Y-177244126D01*
X225747151Y-76114789D02*
X225668984Y-75639089D01*
X213249627Y-73109861D02*
X213335122Y-73511099D01*
X184354842Y-157320097D02*
X184240140Y-157348564D01*
X88946142Y-117285025D02*
X88946142Y-109646118D01*
X188033806Y-166814893D02*
X188008997Y-166187864D01*
X89030554Y-33444145D02*
X89002948Y-33764148D01*
X227661201Y-52971082D02*
X227730464Y-52764585D01*
X173007153Y-71960562D02*
X172657794Y-71935880D01*
X90956348Y-155473314D02*
X91042593Y-155862546D01*
X131834586Y-74823669D02*
X131732072Y-75065660D01*
X217866543Y-71096242D02*
X217377766Y-71478797D01*
X89549295Y-32955595D02*
X89310178Y-32868863D01*
X91042593Y-155862546D02*
X91141911Y-156254979D01*
X126648714Y-25000000D02*
X126648714Y-37367063D01*
X225668984Y-34066530D02*
X225611249Y-33583578D01*
X85946142Y-162084740D02*
X85703288Y-162293076D01*
X150022999Y-48786279D02*
X149506465Y-50508675D01*
X188119189Y-131934764D02*
X188120073Y-131931397D01*
X95758827Y-71096242D02*
X95270050Y-71478797D01*
X145249794Y-62319200D02*
X146168851Y-61704077D01*
X225073105Y-70541250D02*
X225214125Y-70191530D01*
X184354842Y-74174979D02*
X184240140Y-74203446D01*
X84167839Y-150717677D02*
X85946142Y-150686056D01*
X227717906Y-135489895D02*
X227636688Y-135318327D01*
X110264385Y-51324953D02*
X109636749Y-54115686D01*
X139541142Y-69534499D02*
X139025729Y-69721219D01*
X104413932Y-37288029D02*
X104112291Y-36388190D01*
X186956105Y-134584424D02*
X187202882Y-134149123D01*
X106824612Y-56675178D02*
X107297428Y-56193604D01*
X103458190Y-32592790D02*
X103252848Y-32579478D01*
X185026845Y-27030121D02*
X184775966Y-27000000D01*
X228780692Y-42735054D02*
X228736378Y-42097216D01*
X105671152Y-177244126D02*
X105610190Y-177062454D01*
X208053858Y-162084740D02*
X207811004Y-162293076D01*
X184029658Y-155417527D02*
X184111098Y-154727693D01*
X147417501Y-131931397D02*
X148499000Y-131931397D01*
X106210388Y-39627574D02*
X106045939Y-39663957D01*
X185952366Y-187036877D02*
X186871423Y-186421754D01*
X146168787Y-53150278D02*
X146256057Y-52971082D01*
X68101321Y-175226352D02*
X69561813Y-176042630D01*
X111778579Y-128931397D02*
X107798428Y-128931397D01*
X65594856Y-90358838D02*
X68617855Y-90358838D01*
X184029658Y-113844968D02*
X184111098Y-113155134D01*
X188078120Y-42735054D02*
X188033806Y-42097216D01*
X172315214Y-113509122D02*
X172361492Y-113900755D01*
X103282171Y-152985265D02*
X103497161Y-152632003D01*
X133793651Y-72402146D02*
X133405254Y-72231400D01*
X106714045Y-90362205D02*
X106714929Y-90358838D01*
X211417894Y-116013981D02*
X211173786Y-115941974D01*
X92325832Y-72103861D02*
X91959338Y-72015068D01*
X225955956Y-118620131D02*
X225843544Y-118156582D01*
X186871359Y-53150278D02*
X186958629Y-52971082D01*
X107798428Y-173503956D02*
X109320427Y-173503956D01*
X213364283Y-32144211D02*
X213379901Y-32354184D01*
X159160149Y-161404597D02*
X159562700Y-162189480D01*
X88946142Y-109646118D02*
X88946142Y-109644118D01*
X189203572Y-45786279D02*
X189201572Y-45786279D01*
X226220007Y-77960749D02*
X225955956Y-77047572D01*
X102637104Y-74274903D02*
X102424915Y-74339772D01*
X228846341Y-126531069D02*
X228780692Y-125880172D01*
X187428860Y-92138354D02*
X187633761Y-91697524D01*
X142392937Y-151946092D02*
X141508699Y-152135273D01*
X106228617Y-91697524D02*
X106412159Y-91254363D01*
X228431003Y-181353706D02*
X228932328Y-181392855D01*
X215599932Y-155765677D02*
X215198795Y-155547264D01*
X146726288Y-133710913D02*
X146931189Y-133270083D01*
X227573995Y-103276636D02*
X228499202Y-100560771D01*
X99347650Y-110943344D02*
X98838570Y-111107058D01*
X133028404Y-113676420D02*
X132661910Y-113587627D01*
X103458190Y-74165349D02*
X103252848Y-74152037D01*
X98323157Y-69721219D02*
X97804491Y-69933699D01*
X144342007Y-76114789D02*
X144263840Y-75639089D01*
X129648714Y-68073559D02*
X129648714Y-68071559D01*
X100806127Y-110562714D02*
X99847322Y-110799883D01*
X213249627Y-156254979D02*
X213335122Y-156656217D01*
X93091079Y-113974705D02*
X92702682Y-113803959D01*
X138507063Y-111506258D02*
X137988219Y-111747246D01*
X90460883Y-75007466D02*
X90013561Y-74742817D01*
X227167069Y-80645311D02*
X226843221Y-79753354D01*
X147766285Y-128931397D02*
X147759197Y-128781313D01*
X231405144Y-131931397D02*
X231405144Y-170503956D01*
X172537158Y-157968787D02*
X172434644Y-158210778D01*
X227573995Y-144849195D02*
X228499202Y-142133330D01*
X131732072Y-158210778D02*
X131595846Y-158461274D01*
X172547055Y-114682420D02*
X172632550Y-115083658D01*
X170408092Y-158481825D02*
X170364640Y-158795969D01*
X159160149Y-78259479D02*
X159562700Y-79044362D01*
X228336333Y-174842642D02*
X228519875Y-174399481D01*
X104112291Y-119533308D02*
X103848240Y-118620131D01*
X214067054Y-113587627D02*
X213709725Y-113533121D01*
X211657011Y-32955595D02*
X211417894Y-32868863D01*
X131595846Y-75316156D02*
X131163455Y-75007466D01*
X226037235Y-64108596D02*
X226654938Y-62319200D01*
X225565906Y-74165349D02*
X225360564Y-74152037D01*
X131929978Y-156656217D02*
X131959139Y-156861888D01*
X211067212Y-34078292D02*
X211053858Y-34139907D01*
X148499000Y-131931397D02*
X148501000Y-131931397D01*
X104547222Y-62319200D02*
X105466279Y-61704077D01*
X126405860Y-79147958D02*
X125488117Y-79987797D01*
X131732072Y-33493101D02*
X131595846Y-33743597D01*
X184500768Y-68573562D02*
X184198186Y-68601299D01*
X220430873Y-28148660D02*
X219912207Y-28361140D01*
X89002948Y-116909266D02*
X88959496Y-117223410D01*
X188416300Y-169903311D02*
X188346388Y-169453601D01*
X146705293Y-58228203D02*
X147025859Y-56636029D01*
X113210708Y-40791852D02*
X111778579Y-45786279D01*
X103252848Y-74152037D02*
X103086167Y-74156545D01*
X129648714Y-151218677D02*
X129648714Y-151216677D01*
X106596718Y-82424275D02*
X106628154Y-81204009D01*
X213378617Y-74141720D02*
X213357069Y-74362399D01*
X228131432Y-50565795D02*
X228336333Y-50124965D01*
X228153655Y-122809075D02*
X228008822Y-122862375D01*
X181252466Y-27654765D02*
X180752794Y-27798226D01*
X144171010Y-74665152D02*
X144160762Y-74165349D01*
X213064064Y-30755637D02*
X213150309Y-31144869D01*
X95270050Y-113051356D02*
X94796482Y-113476182D01*
X146912960Y-164345251D02*
X146748511Y-164381634D01*
X224877362Y-29663998D02*
X224962346Y-29316962D01*
X131906749Y-116162041D02*
X131834586Y-116396228D01*
X91249353Y-74362399D02*
X91204177Y-74589482D01*
X170351286Y-117285025D02*
X170351286Y-109646118D01*
X228736378Y-166814893D02*
X228711569Y-166187864D01*
X99847322Y-69227324D02*
X99347650Y-69370785D01*
X141508699Y-110562714D02*
X140549894Y-110799883D01*
X138507063Y-153078817D02*
X137988219Y-153319805D01*
X170408092Y-116909266D02*
X170364640Y-117223410D01*
X144324273Y-68602680D02*
X144073394Y-68572559D01*
X186827116Y-93587060D02*
X186688812Y-93443968D01*
X85946142Y-109113497D02*
X85946142Y-109644118D01*
X173730976Y-155248979D02*
X173364482Y-155160186D01*
X213249627Y-31537302D02*
X213335122Y-31938540D01*
X225843544Y-159729141D02*
X225747151Y-159259907D01*
X186772964Y-39970169D02*
X186464497Y-39072752D01*
X102705954Y-71582575D02*
X102769646Y-71236557D01*
X143798196Y-110146121D02*
X143495614Y-110173858D01*
X176201626Y-113476182D02*
X175746345Y-113946033D01*
X118457577Y-78259479D02*
X118860128Y-79044362D01*
X103929519Y-64108596D02*
X104547222Y-62319200D01*
X144199733Y-152632003D02*
X144458431Y-152276648D01*
X105466215Y-53150278D02*
X105553485Y-52971082D01*
X105901106Y-122862375D02*
X105509245Y-123059047D01*
X228008822Y-81289816D02*
X227616961Y-81486488D01*
X104413932Y-162005706D02*
X104112291Y-161105867D01*
X103621701Y-151747798D02*
X103370822Y-151717677D01*
X143472218Y-154381675D02*
X143557202Y-154034639D01*
X181252466Y-110799883D02*
X180752794Y-110943344D01*
X211053858Y-109060154D02*
X225242086Y-108807874D01*
X226179306Y-105878796D02*
X226037235Y-105681155D01*
X147527184Y-56675178D02*
X148000000Y-56193604D01*
X183979583Y-31388183D02*
X184029658Y-30699850D01*
X213311893Y-116162041D02*
X213239730Y-116396228D01*
X143327086Y-30699850D02*
X143408526Y-30010016D01*
X68934177Y-54115686D02*
X68643467Y-54089855D01*
X136962309Y-153898325D02*
X136461399Y-154241360D01*
X225604877Y-27914326D02*
X225863575Y-27558971D01*
X139025729Y-69721219D02*
X138507063Y-69933699D01*
X228131432Y-92138354D02*
X228336333Y-91697524D01*
X91249353Y-32789840D02*
X91204177Y-33016923D01*
X71076007Y-170503956D02*
X65594856Y-170503956D01*
X227391384Y-51871409D02*
X227658677Y-51439306D01*
X103621701Y-27030121D02*
X103370822Y-27000000D01*
X105363790Y-53306513D02*
X105466215Y-53150278D01*
X131595846Y-33743597D02*
X131163455Y-33434907D01*
X147025859Y-181353706D02*
X147527184Y-181392855D01*
X103639435Y-34542230D02*
X103561268Y-34066530D01*
X227658677Y-51439306D02*
X227905454Y-51004005D01*
X181252466Y-152372442D02*
X180752794Y-152515903D01*
X228153655Y-39663957D02*
X228008822Y-39717257D01*
X130012750Y-32868863D02*
X129768642Y-32796856D01*
X104071590Y-105878796D02*
X103929519Y-105681155D01*
X225729417Y-68602680D02*
X225478538Y-68572559D01*
X131951925Y-115934958D02*
X131906749Y-116162041D01*
X147025859Y-56636029D02*
X147527184Y-56675178D01*
X133028404Y-30531302D02*
X132661910Y-30442509D01*
X103639435Y-117687348D02*
X103561268Y-117211648D01*
X184657992Y-74152037D02*
X184491311Y-74156545D01*
X106672976Y-125880172D02*
X106628662Y-125242334D01*
X172315214Y-71936563D02*
X172361492Y-72328196D01*
X147276634Y-173954278D02*
X147416617Y-173507323D01*
X225843544Y-118156582D02*
X225747151Y-117687348D01*
X105622748Y-135909703D02*
X105671152Y-135671567D01*
X184111098Y-30010016D02*
X184174790Y-29663998D01*
X187076296Y-135671567D02*
X187015334Y-135489895D01*
X118457577Y-161404597D02*
X118860128Y-162189480D01*
X144553896Y-27095760D02*
X144324273Y-27030121D01*
X72508136Y-165509529D02*
X71076007Y-170503956D01*
X131974757Y-157071861D02*
X131973473Y-157286838D01*
X228821761Y-90362205D02*
X228822645Y-90358838D01*
X146124544Y-135159619D02*
X145986240Y-135016527D01*
X173007153Y-30388003D02*
X172657794Y-30363321D01*
X68617855Y-173503956D02*
X68101321Y-175226352D01*
X105367820Y-164687846D02*
X105059353Y-163790429D01*
X140050222Y-152515903D02*
X139541142Y-152679617D01*
X186956105Y-51439306D02*
X187202882Y-51004005D01*
X165572983Y-150717677D02*
X167351286Y-150686056D01*
X185044579Y-34542230D02*
X184966412Y-34066530D01*
X131973473Y-157286838D02*
X131951925Y-157507517D01*
X105367820Y-39970169D02*
X105059353Y-39072752D01*
X105797738Y-92576564D02*
X106023716Y-92138354D01*
X92702682Y-113803959D02*
X92325832Y-113676420D01*
X187451083Y-122809075D02*
X187306250Y-122862375D01*
X89549295Y-74528154D02*
X89310178Y-74441422D01*
X68101321Y-50508675D02*
X69561813Y-51324953D01*
X190751183Y-54089855D02*
X189702572Y-57916458D01*
X211053858Y-150632713D02*
X225242086Y-150380433D01*
X227616961Y-123059047D02*
X227475536Y-123115287D01*
X140050222Y-27798226D02*
X139541142Y-27961940D01*
X224532631Y-74339772D02*
X224587393Y-73994182D01*
X184370533Y-112113809D02*
X184511553Y-111764089D01*
X224744820Y-74274903D02*
X224532631Y-74339772D01*
X133405254Y-30658841D02*
X133028404Y-30531302D01*
X186958629Y-94543641D02*
X187027892Y-94337144D01*
X146500310Y-175721682D02*
X146726288Y-175283472D01*
X187015334Y-135489895D02*
X186934116Y-135318327D01*
X224532631Y-32767213D02*
X224587393Y-32421623D01*
X228509674Y-164332258D02*
X228318104Y-164345251D01*
X148501000Y-128931397D02*
X148499000Y-128931397D01*
X91227406Y-156656217D02*
X91256567Y-156861888D01*
X135499054Y-155048741D02*
X135043773Y-155518592D01*
X143537568Y-115776005D02*
X143339676Y-115847462D01*
X172434644Y-158210778D02*
X172298418Y-158461274D01*
X126648714Y-192258615D02*
X126648714Y-194290236D01*
X188461769Y-170353872D02*
X188416300Y-169903311D01*
X132661910Y-30442509D02*
X132304581Y-30388003D01*
X186871359Y-177867955D02*
X186958629Y-177688759D01*
X107796428Y-173503956D02*
X107798428Y-173503956D01*
X182211271Y-110562714D02*
X181252466Y-110799883D01*
X98838570Y-69534499D02*
X98323157Y-69721219D01*
X187979206Y-49236601D02*
X188119189Y-48789646D01*
X187428860Y-175283472D02*
X187633761Y-174842642D01*
X174897360Y-114193118D02*
X174496223Y-113974705D01*
X146253533Y-51439306D02*
X146500310Y-51004005D01*
X143955420Y-157297155D02*
X143788739Y-157301663D01*
X225478538Y-110145118D02*
X225203340Y-110146121D01*
X103848240Y-160192690D02*
X103735828Y-159729141D01*
X97285647Y-111747246D02*
X96769703Y-112019499D01*
X145438077Y-79753354D02*
X145116504Y-78860588D01*
X85946142Y-67540938D02*
X85946142Y-68071559D01*
X119659651Y-119175163D02*
X118457577Y-119832038D01*
X144553896Y-110240878D02*
X144324273Y-110175239D01*
X102424915Y-115912331D02*
X102479677Y-115566741D01*
X91252650Y-30363321D02*
X90910070Y-30364004D01*
X105901106Y-164434934D02*
X105509245Y-164631606D01*
X143667961Y-153686368D02*
X143808981Y-153336648D01*
X213249627Y-114682420D02*
X213335122Y-115083658D01*
X224682155Y-156105860D02*
X224732230Y-155417527D01*
X147306425Y-83042746D02*
X147299290Y-82424275D01*
X228822645Y-90358838D02*
X231405144Y-90358838D01*
X99347650Y-152515903D02*
X98838570Y-152679617D01*
X172315214Y-155081681D02*
X172361492Y-155473314D01*
X105528972Y-93745768D02*
X105421972Y-93587060D01*
X187027892Y-52764585D02*
X187076296Y-52526449D01*
X187306250Y-164434934D02*
X186914389Y-164631606D01*
X175746345Y-155518592D02*
X175312431Y-156036220D01*
X227573995Y-186421754D02*
X228499202Y-183705889D01*
X188232581Y-44052158D02*
X188143769Y-43385951D01*
X146066362Y-178024190D02*
X146168787Y-177867955D01*
X106391486Y-142133330D02*
X106002721Y-141373321D01*
X153913280Y-82364411D02*
X152481151Y-87358838D01*
X94796482Y-71903623D02*
X94341201Y-72373474D01*
X174496223Y-113974705D02*
X174107826Y-113803959D01*
X102854630Y-112462080D02*
X102965389Y-112113809D01*
X84785545Y-79987797D02*
X78957079Y-77602604D01*
X224900758Y-27028740D02*
X224567730Y-27078815D01*
X72508136Y-123936970D02*
X71076007Y-128931397D01*
X102460014Y-27078815D02*
X101690365Y-27228415D01*
X146231544Y-93745768D02*
X146124544Y-93587060D01*
X206893261Y-38415238D02*
X201064795Y-36030045D01*
X144199733Y-69486885D02*
X144458431Y-69131530D01*
X176675194Y-113051356D02*
X176201626Y-113476182D01*
X188143769Y-168103628D02*
X188078120Y-167452731D01*
X91270901Y-32569161D02*
X91249353Y-32789840D01*
X184354842Y-115747538D02*
X184240140Y-115776005D01*
X106738625Y-168103628D02*
X106672976Y-167452731D01*
X211657011Y-116100713D02*
X211417894Y-116013981D01*
X189201572Y-128931397D02*
X188468857Y-128931397D01*
X170408092Y-33764148D02*
X170364640Y-34078292D01*
X185256468Y-68668319D02*
X185026845Y-68602680D01*
X186914389Y-39913929D02*
X186772964Y-39970169D01*
X129648714Y-150632713D02*
X143836942Y-150380433D01*
X149506465Y-175226352D02*
X150966957Y-176042630D01*
X213017786Y-113509122D02*
X213064064Y-113900755D01*
X225611249Y-116728696D02*
X225576154Y-116237711D01*
X106401958Y-122759699D02*
X106210388Y-122772692D01*
X95270050Y-154623915D02*
X94796482Y-155048741D01*
X88959496Y-75650851D02*
X88946142Y-75712466D01*
X182211271Y-68990155D02*
X181252466Y-69227324D01*
X226170469Y-151918986D02*
X225959040Y-151813437D01*
X91141911Y-156254979D02*
X91227406Y-156656217D01*
X224627578Y-32076731D02*
X224682155Y-31388183D01*
X103848240Y-118620131D02*
X103735828Y-118156582D01*
X224962346Y-29316962D02*
X225073105Y-28968691D01*
X144774162Y-105878796D02*
X144632091Y-105681155D01*
X224532631Y-157484890D02*
X224587393Y-157139300D01*
X69561813Y-134470071D02*
X68934177Y-137260804D01*
X136461399Y-71096242D02*
X135972622Y-71478797D01*
X170435698Y-33444145D02*
X170408092Y-33764148D01*
X146256057Y-177688759D02*
X146325320Y-177482262D01*
X97285647Y-153319805D02*
X96769703Y-153592058D01*
X170435698Y-158161822D02*
X170408092Y-158481825D01*
X103370822Y-110145118D02*
X103095624Y-110146121D01*
X184042248Y-32702344D02*
X183830059Y-32767213D01*
X90893274Y-158461274D02*
X90460883Y-158152584D01*
X184539514Y-108807874D02*
X185476734Y-105878796D01*
X148501000Y-87358838D02*
X148499000Y-87358838D01*
X91042593Y-114289987D02*
X91141911Y-114682420D01*
X173364482Y-72015068D02*
X173007153Y-71960562D01*
X183884821Y-157139300D02*
X183925006Y-156794408D01*
X126405860Y-37575399D02*
X125488117Y-38415238D01*
X105553485Y-136116200D02*
X105622748Y-135909703D01*
M02*
