M48
; DRILL file {KiCad 8.0.3} date 2024-07-16T13:25:30-0500
; FORMAT={-:-/ absolute / inch / decimal}
; #@! TF.CreationDate,2024-07-16T13:25:30-05:00
; #@! TF.GenerationSoftware,Kicad,Pcbnew,8.0.3
; #@! TF.FileFunction,Plated,1,2,PTH
FMAT,2
INCH
; #@! TA.AperFunction,Plated,PTH,ViaDrill
T1C0.0157
%
G90
G05
T1
X3.1235Y-2.4387
X3.1235Y-4.0754
X3.1235Y-5.7121
X3.1235Y-7.3488
X3.1707Y-2.5239
X3.1707Y-4.1606
X3.1707Y-5.7973
X3.1707Y-7.434
X3.2202Y-1.9872
X3.2202Y-3.6239
X3.2202Y-5.2606
X3.2202Y-6.8973
X3.2716Y-1.6723
X3.2716Y-3.309
X3.2716Y-4.9457
X3.2716Y-6.5824
X3.4002Y-2.0092
X3.4002Y-3.6459
X3.4002Y-5.2826
X3.4002Y-6.9193
X3.4523Y-2.1132
X3.4523Y-3.7499
X3.4523Y-5.3866
X3.4523Y-7.0233
X4.7259Y-2.4387
X4.7259Y-4.0754
X4.7259Y-5.7121
X4.7259Y-7.3488
X4.7732Y-2.5239
X4.7732Y-4.1606
X4.7732Y-5.7973
X4.7732Y-7.434
X4.8226Y-1.9872
X4.8226Y-3.6239
X4.8226Y-5.2606
X4.8226Y-6.8973
X4.874Y-1.6723
X4.874Y-3.309
X4.874Y-4.9457
X4.874Y-6.5824
X5.0027Y-2.0092
X5.0027Y-3.6459
X5.0027Y-5.2826
X5.0027Y-6.9193
X5.0548Y-2.1132
X5.0548Y-3.7499
X5.0548Y-5.3866
X5.0548Y-7.0233
X6.3284Y-2.4387
X6.3284Y-4.0754
X6.3284Y-5.7121
X6.3284Y-7.3488
X6.3756Y-2.5239
X6.3756Y-4.1606
X6.3756Y-5.7973
X6.3756Y-7.434
X6.4251Y-1.9872
X6.4251Y-3.6239
X6.4251Y-5.2606
X6.4251Y-6.8973
X6.4765Y-1.6723
X6.4765Y-3.309
X6.4765Y-4.9457
X6.4765Y-6.5824
X6.6051Y-2.0092
X6.6051Y-3.6459
X6.6051Y-5.2826
X6.6051Y-6.9193
X6.6572Y-2.1132
X6.6572Y-3.7499
X6.6572Y-5.3866
X6.6572Y-7.0233
X7.9309Y-2.4387
X7.9309Y-4.0754
X7.9309Y-5.7121
X7.9309Y-7.3488
X7.9781Y-2.5239
X7.9781Y-4.1606
X7.9781Y-5.7973
X7.9781Y-7.434
X8.0276Y-1.9872
X8.0276Y-3.6239
X8.0276Y-5.2606
X8.0276Y-6.8973
X8.0789Y-1.6723
X8.0789Y-3.309
X8.0789Y-4.9457
X8.0789Y-6.5824
X8.2076Y-2.0092
X8.2076Y-3.6459
X8.2076Y-5.2826
X8.2076Y-6.9193
X8.2597Y-2.1132
X8.2597Y-3.7499
X8.2597Y-5.3866
X8.2597Y-7.0233
M30
