M48
; DRILL file {KiCad 9.0.3} date 2025-07-24T14:02:11-0500
; FORMAT={-:-/ absolute / metric / decimal}
; #@! TF.CreationDate,2025-07-24T14:02:11-05:00
; #@! TF.GenerationSoftware,Kicad,Pcbnew,9.0.3
; #@! TF.FileFunction,NonPlated,1,2,NPTH
FMAT,2
METRIC
; #@! TA.AperFunction,NonPlated,NPTH,ComponentDrill
T1C0.500
; #@! TA.AperFunction,NonPlated,NPTH,ComponentDrill
T2C0.900
%
G90
G05
T1
X61.095Y-27.0
X61.095Y-192.29
X62.095Y-27.0
X62.095Y-192.29
X63.095Y-27.0
X63.095Y-192.29
X64.095Y-27.0
X64.095Y-192.29
X65.095Y-27.0
X65.095Y-192.29
X67.595Y-20.5
X67.595Y-21.5
X67.595Y-22.5
X67.595Y-23.5
X67.595Y-24.5
X67.595Y-194.79
X67.595Y-195.79
X67.595Y-196.79
X67.595Y-197.79
X67.595Y-198.79
X68.666Y-49.323
X68.666Y-90.895
X68.666Y-132.468
X68.666Y-174.04
X68.984Y-48.262
X68.984Y-89.835
X68.984Y-131.407
X68.984Y-172.98
X69.302Y-47.202
X69.302Y-88.774
X69.302Y-130.347
X69.302Y-171.919
X70.042Y-46.643
X70.042Y-88.216
X70.042Y-129.788
X70.042Y-171.361
X71.098Y-46.424
X71.098Y-87.996
X71.098Y-129.569
X71.098Y-171.142
X71.406Y-45.361
X71.406Y-86.933
X71.406Y-128.506
X71.406Y-170.078
X85.443Y-67.35
X85.443Y-108.922
X85.443Y-150.495
X85.443Y-192.068
X85.697Y-37.844
X85.697Y-79.417
X85.697Y-120.99
X85.697Y-162.562
X86.443Y-67.332
X86.443Y-108.905
X86.443Y-150.477
X86.443Y-192.05
X86.553Y-37.11
X86.553Y-78.682
X86.553Y-120.255
X86.553Y-161.827
X87.417Y-36.383
X87.417Y-77.955
X87.417Y-119.528
X87.417Y-161.1
X87.443Y-67.314
X87.443Y-108.887
X87.443Y-150.459
X87.443Y-192.032
X88.282Y-35.658
X88.282Y-77.231
X88.282Y-118.803
X88.282Y-160.376
X88.443Y-67.297
X88.443Y-108.869
X88.443Y-150.442
X88.443Y-192.014
X88.968Y-34.785
X88.968Y-76.358
X88.968Y-117.93
X88.968Y-159.503
X89.248Y-33.694
X89.248Y-75.266
X89.248Y-116.839
X89.248Y-158.411
X89.443Y-67.279
X89.443Y-108.851
X89.443Y-150.424
X89.443Y-191.996
X106.394Y-49.219
X106.394Y-90.792
X106.394Y-132.364
X106.394Y-173.937
X106.714Y-47.934
X106.714Y-89.506
X106.714Y-131.079
X106.714Y-172.651
X106.84Y-45.296
X106.84Y-86.869
X106.84Y-128.441
X106.84Y-170.014
X106.87Y-46.62
X106.87Y-88.192
X106.87Y-129.765
X106.87Y-171.338
X109.368Y-49.323
X109.368Y-90.895
X109.368Y-132.468
X109.368Y-174.04
X109.686Y-48.262
X109.686Y-89.835
X109.686Y-131.407
X109.686Y-172.98
X110.004Y-47.202
X110.004Y-88.774
X110.004Y-130.347
X110.004Y-171.919
X110.744Y-46.643
X110.744Y-88.216
X110.744Y-129.788
X110.744Y-171.361
X111.8Y-46.424
X111.8Y-87.996
X111.8Y-129.569
X111.8Y-171.142
X112.109Y-45.361
X112.109Y-86.933
X112.109Y-128.506
X112.109Y-170.078
X126.145Y-67.35
X126.145Y-108.922
X126.145Y-150.495
X126.145Y-192.068
X126.399Y-37.844
X126.399Y-79.417
X126.399Y-120.99
X126.399Y-162.562
X127.145Y-67.332
X127.145Y-108.905
X127.145Y-150.477
X127.145Y-192.05
X127.256Y-37.11
X127.256Y-78.682
X127.256Y-120.255
X127.256Y-161.827
X128.119Y-36.383
X128.119Y-77.955
X128.119Y-119.528
X128.119Y-161.1
X128.145Y-67.314
X128.145Y-108.887
X128.145Y-150.459
X128.145Y-192.032
X128.985Y-35.658
X128.985Y-77.231
X128.985Y-118.803
X128.985Y-160.376
X129.145Y-67.297
X129.145Y-108.869
X129.145Y-150.442
X129.145Y-192.014
X129.671Y-34.785
X129.671Y-76.358
X129.671Y-117.93
X129.671Y-159.503
X129.95Y-33.694
X129.95Y-75.266
X129.95Y-116.839
X129.95Y-158.411
X130.145Y-67.279
X130.145Y-108.851
X130.145Y-150.424
X130.145Y-191.996
X147.097Y-49.219
X147.097Y-90.792
X147.097Y-132.364
X147.097Y-173.937
X147.416Y-47.934
X147.416Y-89.506
X147.416Y-131.079
X147.416Y-172.651
X147.543Y-45.296
X147.543Y-86.869
X147.543Y-128.441
X147.543Y-170.014
X147.573Y-46.62
X147.573Y-88.192
X147.573Y-129.765
X147.573Y-171.338
X150.071Y-49.323
X150.071Y-90.895
X150.071Y-132.468
X150.071Y-174.04
X150.389Y-48.262
X150.389Y-89.835
X150.389Y-131.407
X150.389Y-172.98
X150.707Y-47.202
X150.707Y-88.774
X150.707Y-130.347
X150.707Y-171.919
X151.447Y-46.643
X151.447Y-88.216
X151.447Y-129.788
X151.447Y-171.361
X152.503Y-46.424
X152.503Y-87.996
X152.503Y-129.569
X152.503Y-171.142
X152.811Y-45.361
X152.811Y-86.933
X152.811Y-128.506
X152.811Y-170.078
X166.848Y-67.35
X166.848Y-108.922
X166.848Y-150.495
X166.848Y-192.068
X167.102Y-37.844
X167.102Y-79.417
X167.102Y-120.99
X167.102Y-162.562
X167.848Y-67.332
X167.848Y-108.905
X167.848Y-150.477
X167.848Y-192.05
X167.959Y-37.11
X167.959Y-78.682
X167.959Y-120.255
X167.959Y-161.827
X168.822Y-36.383
X168.822Y-77.955
X168.822Y-119.528
X168.822Y-161.1
X168.848Y-67.314
X168.848Y-108.887
X168.848Y-150.459
X168.848Y-192.032
X169.687Y-35.658
X169.687Y-77.231
X169.687Y-118.803
X169.687Y-160.376
X169.848Y-67.297
X169.848Y-108.869
X169.848Y-150.442
X169.848Y-192.014
X170.373Y-34.785
X170.373Y-76.358
X170.373Y-117.93
X170.373Y-159.503
X170.653Y-33.694
X170.653Y-75.266
X170.653Y-116.839
X170.653Y-158.411
X170.848Y-67.279
X170.848Y-108.851
X170.848Y-150.424
X170.848Y-191.996
X187.8Y-49.219
X187.8Y-90.792
X187.8Y-132.364
X187.8Y-173.937
X188.119Y-47.934
X188.119Y-89.506
X188.119Y-131.079
X188.119Y-172.651
X188.245Y-45.296
X188.245Y-86.869
X188.245Y-128.441
X188.245Y-170.014
X188.275Y-46.62
X188.275Y-88.192
X188.275Y-129.765
X188.275Y-171.338
X190.774Y-49.323
X190.774Y-90.895
X190.774Y-132.468
X190.774Y-174.04
X191.092Y-48.262
X191.092Y-89.835
X191.092Y-131.407
X191.092Y-172.98
X191.41Y-47.202
X191.41Y-88.774
X191.41Y-130.347
X191.41Y-171.919
X192.149Y-46.643
X192.149Y-88.216
X192.149Y-129.788
X192.149Y-171.361
X193.205Y-87.996
X193.205Y-129.569
X193.205Y-171.141
X193.206Y-46.424
X193.514Y-45.361
X193.514Y-86.933
X193.514Y-128.506
X193.514Y-170.078
X207.55Y-67.35
X207.55Y-108.922
X207.55Y-150.495
X207.55Y-192.068
X207.805Y-37.844
X207.805Y-79.417
X207.805Y-120.99
X207.805Y-162.562
X208.55Y-67.332
X208.55Y-108.905
X208.55Y-150.477
X208.55Y-192.05
X208.661Y-37.11
X208.661Y-78.682
X208.661Y-120.255
X208.661Y-161.827
X209.524Y-36.383
X209.524Y-77.955
X209.524Y-119.528
X209.524Y-161.1
X209.55Y-67.314
X209.55Y-108.887
X209.55Y-150.459
X209.55Y-192.032
X210.39Y-35.658
X210.39Y-77.231
X210.39Y-118.803
X210.39Y-160.376
X210.55Y-67.297
X210.55Y-108.869
X210.55Y-150.442
X210.55Y-192.014
X211.076Y-34.785
X211.076Y-76.358
X211.076Y-117.93
X211.076Y-159.503
X211.355Y-33.694
X211.355Y-75.266
X211.355Y-116.839
X211.355Y-158.411
X211.55Y-67.279
X211.55Y-108.851
X211.55Y-150.424
X211.55Y-191.996
X228.502Y-49.219
X228.502Y-90.792
X228.502Y-132.364
X228.502Y-173.937
X228.821Y-47.934
X228.821Y-89.506
X228.821Y-131.079
X228.821Y-172.651
X228.948Y-45.296
X228.948Y-86.869
X228.948Y-128.441
X228.948Y-170.014
X228.978Y-46.62
X228.978Y-88.192
X228.978Y-129.765
X228.978Y-171.338
X229.405Y-20.5
X229.405Y-21.5
X229.405Y-22.5
X229.405Y-23.5
X229.405Y-24.5
X229.405Y-194.79
X229.405Y-195.79
X229.405Y-196.79
X229.405Y-197.79
X229.405Y-198.79
X231.905Y-27.0
X231.905Y-192.29
X232.905Y-27.0
X232.905Y-192.29
X233.905Y-27.0
X233.905Y-192.29
X234.905Y-27.0
X234.905Y-192.29
X235.905Y-27.0
X235.905Y-192.29
T2
X70.978Y-57.886
X70.978Y-99.459
X70.978Y-141.031
X70.978Y-182.604
X73.576Y-59.386
X73.576Y-100.959
X73.576Y-142.531
X73.576Y-184.104
X111.68Y-57.886
X111.68Y-99.459
X111.68Y-141.031
X111.68Y-182.604
X114.278Y-59.386
X114.278Y-100.959
X114.278Y-142.531
X114.278Y-184.104
X152.383Y-57.886
X152.383Y-99.459
X152.383Y-141.031
X152.383Y-182.604
X154.981Y-59.386
X154.981Y-100.959
X154.981Y-142.531
X154.981Y-184.104
X193.085Y-57.886
X193.085Y-99.459
X193.085Y-141.031
X193.085Y-182.604
X195.683Y-59.386
X195.683Y-100.959
X195.683Y-142.531
X195.683Y-184.104
M30
