M48
; DRILL file {KiCad 8.0.3} date 2024-07-16T13:25:30-0500
; FORMAT={-:-/ absolute / inch / decimal}
; #@! TF.CreationDate,2024-07-16T13:25:30-05:00
; #@! TF.GenerationSoftware,Kicad,Pcbnew,8.0.3
; #@! TF.FileFunction,NonPlated,1,2,NPTH
FMAT,2
INCH
; #@! TA.AperFunction,NonPlated,NPTH,ComponentDrill
T1C0.0197
; #@! TA.AperFunction,NonPlated,NPTH,ComponentDrill
T2C0.0354
%
G90
G05
T1
X2.4053Y-1.063
X2.4053Y-7.5705
X2.4447Y-1.063
X2.4447Y-7.5705
X2.484Y-1.063
X2.484Y-7.5705
X2.5234Y-1.063
X2.5234Y-7.5705
X2.5628Y-1.063
X2.5628Y-7.5705
X2.6612Y-0.8071
X2.6612Y-0.8465
X2.6612Y-0.8858
X2.6612Y-0.9252
X2.6612Y-0.9646
X2.6612Y-7.6689
X2.6612Y-7.7083
X2.6612Y-7.7476
X2.6612Y-7.787
X2.6612Y-7.8264
X2.7034Y-1.9418
X2.7034Y-3.5786
X2.7034Y-5.2153
X2.7034Y-6.852
X2.7159Y-1.9001
X2.7159Y-3.5368
X2.7159Y-5.1735
X2.7159Y-6.8102
X2.7284Y-1.8583
X2.7284Y-3.4951
X2.7284Y-5.1318
X2.7284Y-6.7685
X2.7575Y-1.8363
X2.7575Y-3.4731
X2.7575Y-5.1098
X2.7575Y-6.7465
X2.7991Y-1.8277
X2.7991Y-3.4644
X2.7991Y-5.1011
X2.7991Y-6.7379
X2.8113Y-1.7859
X2.8113Y-3.4226
X2.8113Y-5.0593
X2.8113Y-6.696
X3.3639Y-2.6516
X3.3639Y-4.2883
X3.3639Y-5.925
X3.3639Y-7.5617
X3.3739Y-1.4899
X3.3739Y-3.1267
X3.3739Y-4.7634
X3.3739Y-6.4001
X3.4033Y-2.6509
X3.4033Y-4.2876
X3.4033Y-5.9243
X3.4033Y-7.561
X3.4076Y-1.461
X3.4076Y-3.0977
X3.4076Y-4.7344
X3.4076Y-6.3712
X3.4416Y-1.4324
X3.4416Y-3.0691
X3.4416Y-4.7058
X3.4416Y-6.3425
X3.4426Y-2.6502
X3.4426Y-4.2869
X3.4426Y-5.9236
X3.4426Y-7.5603
X3.4757Y-1.4039
X3.4757Y-3.0406
X3.4757Y-4.6773
X3.4757Y-6.314
X3.482Y-2.6495
X3.482Y-4.2862
X3.482Y-5.9229
X3.482Y-7.5596
X3.5027Y-1.3695
X3.5027Y-3.0062
X3.5027Y-4.6429
X3.5027Y-6.2796
X3.5137Y-1.3265
X3.5137Y-2.9632
X3.5137Y-4.6
X3.5137Y-6.2367
X3.5214Y-2.6488
X3.5214Y-4.2855
X3.5214Y-5.9222
X3.5214Y-7.5589
X4.1888Y-1.9378
X4.1888Y-3.5745
X4.1888Y-5.2112
X4.1888Y-6.8479
X4.2013Y-1.8872
X4.2013Y-3.5239
X4.2013Y-5.1606
X4.2013Y-6.7973
X4.2063Y-1.7833
X4.2063Y-3.42
X4.2063Y-5.0567
X4.2063Y-6.6935
X4.2075Y-1.8354
X4.2075Y-3.4721
X4.2075Y-5.1089
X4.2075Y-6.7456
X4.3058Y-1.9418
X4.3058Y-3.5786
X4.3058Y-5.2153
X4.3058Y-6.852
X4.3184Y-1.9001
X4.3184Y-3.5368
X4.3184Y-5.1735
X4.3184Y-6.8102
X4.3309Y-1.8583
X4.3309Y-3.4951
X4.3309Y-5.1318
X4.3309Y-6.7685
X4.36Y-1.8363
X4.36Y-3.4731
X4.36Y-5.1098
X4.36Y-6.7465
X4.4016Y-1.8277
X4.4016Y-3.4644
X4.4016Y-5.1011
X4.4016Y-6.7379
X4.4137Y-1.7859
X4.4137Y-3.4226
X4.4137Y-5.0593
X4.4137Y-6.696
X4.9663Y-2.6516
X4.9663Y-4.2883
X4.9663Y-5.925
X4.9663Y-7.5617
X4.9764Y-1.4899
X4.9764Y-3.1267
X4.9764Y-4.7634
X4.9764Y-6.4001
X5.0057Y-2.6509
X5.0057Y-4.2876
X5.0057Y-5.9243
X5.0057Y-7.561
X5.0101Y-1.461
X5.0101Y-3.0977
X5.0101Y-4.7344
X5.0101Y-6.3712
X5.0441Y-1.4324
X5.0441Y-3.0691
X5.0441Y-4.7058
X5.0441Y-6.3425
X5.0451Y-2.6502
X5.0451Y-4.2869
X5.0451Y-5.9236
X5.0451Y-7.5603
X5.0781Y-1.4039
X5.0781Y-3.0406
X5.0781Y-4.6773
X5.0781Y-6.314
X5.0845Y-2.6495
X5.0845Y-4.2862
X5.0845Y-5.9229
X5.0845Y-7.5596
X5.1051Y-1.3695
X5.1051Y-3.0062
X5.1051Y-4.6429
X5.1051Y-6.2796
X5.1161Y-1.3265
X5.1161Y-2.9632
X5.1161Y-4.6
X5.1161Y-6.2367
X5.1238Y-2.6488
X5.1238Y-4.2855
X5.1238Y-5.9222
X5.1238Y-7.5589
X5.7912Y-1.9378
X5.7912Y-3.5745
X5.7912Y-5.2112
X5.7912Y-6.8479
X5.8038Y-1.8872
X5.8038Y-3.5239
X5.8038Y-5.1606
X5.8038Y-6.7973
X5.8088Y-1.7833
X5.8088Y-3.42
X5.8088Y-5.0567
X5.8088Y-6.6935
X5.81Y-1.8354
X5.81Y-3.4721
X5.81Y-5.1089
X5.81Y-6.7456
X5.9083Y-1.9418
X5.9083Y-3.5786
X5.9083Y-5.2153
X5.9083Y-6.852
X5.9208Y-1.9001
X5.9208Y-3.5368
X5.9208Y-5.1735
X5.9208Y-6.8102
X5.9333Y-1.8583
X5.9333Y-3.4951
X5.9333Y-5.1318
X5.9333Y-6.7685
X5.9625Y-1.8363
X5.9625Y-3.4731
X5.9625Y-5.1098
X5.9625Y-6.7465
X6.0041Y-1.8277
X6.0041Y-3.4644
X6.0041Y-5.1011
X6.0041Y-6.7379
X6.0162Y-1.7859
X6.0162Y-3.4226
X6.0162Y-5.0593
X6.0162Y-6.696
X6.5688Y-2.6516
X6.5688Y-4.2883
X6.5688Y-5.925
X6.5688Y-7.5617
X6.5788Y-1.4899
X6.5788Y-3.1267
X6.5788Y-4.7634
X6.5788Y-6.4001
X6.6082Y-2.6509
X6.6082Y-4.2876
X6.6082Y-5.9243
X6.6082Y-7.561
X6.6125Y-1.461
X6.6125Y-3.0977
X6.6125Y-4.7344
X6.6125Y-6.3712
X6.6465Y-1.4324
X6.6465Y-3.0691
X6.6465Y-4.7058
X6.6465Y-6.3425
X6.6475Y-2.6502
X6.6475Y-4.2869
X6.6475Y-5.9236
X6.6475Y-7.5603
X6.6806Y-1.4039
X6.6806Y-3.0406
X6.6806Y-4.6773
X6.6806Y-6.314
X6.6869Y-2.6495
X6.6869Y-4.2862
X6.6869Y-5.9229
X6.6869Y-7.5596
X6.7076Y-1.3695
X6.7076Y-3.0062
X6.7076Y-4.6429
X6.7076Y-6.2796
X6.7186Y-1.3265
X6.7186Y-2.9632
X6.7186Y-4.6
X6.7186Y-6.2367
X6.7263Y-2.6488
X6.7263Y-4.2855
X6.7263Y-5.9222
X6.7263Y-7.5589
X7.3937Y-1.9378
X7.3937Y-3.5745
X7.3937Y-5.2112
X7.3937Y-6.8479
X7.4063Y-1.8872
X7.4063Y-3.5239
X7.4063Y-5.1606
X7.4063Y-6.7973
X7.4112Y-1.7833
X7.4112Y-3.42
X7.4112Y-5.0567
X7.4112Y-6.6935
X7.4124Y-1.8354
X7.4124Y-3.4721
X7.4124Y-5.1089
X7.4124Y-6.7456
X7.5108Y-1.9418
X7.5108Y-3.5786
X7.5108Y-5.2153
X7.5108Y-6.852
X7.5233Y-1.9001
X7.5233Y-3.5368
X7.5233Y-5.1735
X7.5233Y-6.8102
X7.5358Y-1.8583
X7.5358Y-3.4951
X7.5358Y-5.1318
X7.5358Y-6.7685
X7.5649Y-1.8363
X7.5649Y-3.4731
X7.5649Y-5.1098
X7.5649Y-6.7465
X7.6065Y-3.4644
X7.6065Y-5.1011
X7.6065Y-6.7378
X7.6065Y-1.8277
X7.6187Y-1.7859
X7.6187Y-3.4226
X7.6187Y-5.0593
X7.6187Y-6.696
X8.1713Y-2.6516
X8.1713Y-4.2883
X8.1713Y-5.925
X8.1713Y-7.5617
X8.1813Y-1.4899
X8.1813Y-3.1267
X8.1813Y-4.7634
X8.1813Y-6.4001
X8.2106Y-2.6509
X8.2106Y-4.2876
X8.2106Y-5.9243
X8.2106Y-7.561
X8.215Y-1.461
X8.215Y-3.0977
X8.215Y-4.7344
X8.215Y-6.3712
X8.249Y-1.4324
X8.249Y-3.0691
X8.249Y-4.7058
X8.249Y-6.3425
X8.25Y-2.6502
X8.25Y-4.2869
X8.25Y-5.9236
X8.25Y-7.5603
X8.2831Y-1.4039
X8.2831Y-3.0406
X8.2831Y-4.6773
X8.2831Y-6.314
X8.2894Y-2.6495
X8.2894Y-4.2862
X8.2894Y-5.9229
X8.2894Y-7.5596
X8.3101Y-1.3695
X8.3101Y-3.0062
X8.3101Y-4.6429
X8.3101Y-6.2796
X8.3211Y-1.3265
X8.3211Y-2.9632
X8.3211Y-4.6
X8.3211Y-6.2367
X8.3287Y-2.6488
X8.3287Y-4.2855
X8.3287Y-5.9222
X8.3287Y-7.5589
X8.9961Y-1.9378
X8.9961Y-3.5745
X8.9961Y-5.2112
X8.9961Y-6.8479
X9.0087Y-1.8872
X9.0087Y-3.5239
X9.0087Y-5.1606
X9.0087Y-6.7973
X9.0137Y-1.7833
X9.0137Y-3.42
X9.0137Y-5.0567
X9.0137Y-6.6935
X9.0149Y-1.8354
X9.0149Y-3.4721
X9.0149Y-5.1089
X9.0149Y-6.7456
X9.0317Y-0.8071
X9.0317Y-0.8465
X9.0317Y-0.8858
X9.0317Y-0.9252
X9.0317Y-0.9646
X9.0317Y-7.6689
X9.0317Y-7.7083
X9.0317Y-7.7476
X9.0317Y-7.787
X9.0317Y-7.8264
X9.1301Y-1.063
X9.1301Y-7.5705
X9.1695Y-1.063
X9.1695Y-7.5705
X9.2089Y-1.063
X9.2089Y-7.5705
X9.2482Y-1.063
X9.2482Y-7.5705
X9.2876Y-1.063
X9.2876Y-7.5705
T2
X2.7944Y-2.279
X2.7944Y-3.9157
X2.7944Y-5.5524
X2.7944Y-7.1891
X2.8967Y-2.338
X2.8967Y-3.9748
X2.8967Y-5.6115
X2.8967Y-7.2482
X4.3969Y-2.279
X4.3969Y-3.9157
X4.3969Y-5.5524
X4.3969Y-7.1891
X4.4991Y-2.338
X4.4991Y-3.9748
X4.4991Y-5.6115
X4.4991Y-7.2482
X5.9993Y-2.279
X5.9993Y-3.9157
X5.9993Y-5.5524
X5.9993Y-7.1891
X6.1016Y-2.338
X6.1016Y-3.9748
X6.1016Y-5.6115
X6.1016Y-7.2482
X7.6018Y-2.279
X7.6018Y-3.9157
X7.6018Y-5.5524
X7.6018Y-7.1891
X7.7041Y-2.338
X7.7041Y-3.9748
X7.7041Y-5.6115
X7.7041Y-7.2482
M30
