<?xml version="1.0" encoding="UTF-8" standalone="no"?>
<!-- Created with Inkscape (http://www.inkscape.org/) -->

<svg
   width="325.55704mm"
   height="327.19586mm"
   viewBox="0 0 325.55704 327.19586"
   version="1.1"
   id="svg1"
   xml:space="preserve"
   inkscape:version="1.3 (0e150ed6c4, 2023-07-21)"
   sodipodi:docname="Budda.svg"
   xmlns:inkscape="http://www.inkscape.org/namespaces/inkscape"
   xmlns:sodipodi="http://sodipodi.sourceforge.net/DTD/sodipodi-0.dtd"
   xmlns:xlink="http://www.w3.org/1999/xlink"
   xmlns="http://www.w3.org/2000/svg"
   xmlns:svg="http://www.w3.org/2000/svg"><sodipodi:namedview
     id="namedview1"
     pagecolor="#ffffff"
     bordercolor="#666666"
     borderopacity="1.0"
     inkscape:showpageshadow="2"
     inkscape:pageopacity="0.0"
     inkscape:pagecheckerboard="0"
     inkscape:deskcolor="#d1d1d1"
     inkscape:document-units="mm"
     inkscape:zoom="0.51717104"
     inkscape:cx="757.00295"
     inkscape:cy="625.5184"
     inkscape:window-width="1920"
     inkscape:window-height="1017"
     inkscape:window-x="-8"
     inkscape:window-y="-8"
     inkscape:window-maximized="1"
     inkscape:current-layer="layer1" /><defs
     id="defs1" /><g
     inkscape:label="Layer 1"
     inkscape:groupmode="layer"
     id="layer1"
     transform="translate(57.896159,-0.61150959)"><path
       id="path2"
       style="fill:none;stroke:none;stroke-width:0.186547"
       d="M 253.75902,164.22275 A 148.88156,148.88156 0 0 1 104.87746,313.10431 148.88156,148.88156 0 0 1 -44.004105,164.22275 148.88156,148.88156 0 0 1 104.87746,15.341187 148.88156,148.88156 0 0 1 253.75902,164.22275 Z" /><path
       style="fill:#000000"
       d="m 132.07175,270.66926 c -1.60073,-0.19467 -4.33917,-0.65754 -6.08542,-1.0286 -3.81144,-0.8099 -5.07643,-0.82986 -9.39271,-0.14821 -8.67909,1.37064 -18.925126,-0.0447 -25.956173,-3.58548 -2.801071,-1.4106 -3.658449,-1.30792 -10.754346,1.28795 -5.186673,1.89742 -9.00255,2.75428 -14.009834,3.14591 -3.699123,0.28932 -4.404336,0.26734 -8.79968,-0.27434 -2.628053,-0.32388 -5.104672,-0.71943 -5.503598,-0.879 -0.398926,-0.15957 -2.504749,-0.44936 -4.679608,-0.64397 -2.174858,-0.19462 -4.734702,-0.58375 -5.688541,-0.86475 -1.118902,-0.32962 -2.954695,-0.5644 -5.173837,-0.66169 -6.282441,-0.27542 -13.17286,-1.73947 -17.78371,-3.77861 -1.81122,-0.801 -5.89177,-3.31635 -7.8463,-4.83662 -4.2211896,-3.28334 -7.6040596,-8.71604 -8.8088896,-14.14657 -0.52437,-2.36352 -0.58677,-7.6938 -0.11487,-9.81209 0.92469,-4.15072 3.18697,-8.32715 5.89485,-10.88258 2.8627496,-2.70157 6.7650096,-4.96881 9.7412096,-5.6597 2.11102,-0.49004 2.87601,-0.94987 4.44001,-2.66889 0.86821,-0.95426 1.97024,-1.81715 2.91042,-2.27883 1.35266,-0.66424 1.81406,-0.74656 4.351135,-0.77628 2.775101,-0.0325 2.858707,-0.0514 3.771127,-0.85253 0.558835,-0.49066 1.691001,-1.04948 2.822635,-1.3932 2.41363,-0.73312 5.748758,-0.58042 8.602298,0.39385 l 1.894499,0.64684 0.582346,-0.61988 c 0.32029,-0.34094 1.432297,-1.05675 2.471126,-1.5907 1.038829,-0.53396 2.36503,-1.35687 2.947113,-1.8287 0.582084,-0.47183 1.296459,-0.98374 1.5875,-1.13758 0.291042,-0.15384 1.191932,-0.91649 2.001979,-1.69478 0.810046,-0.77829 1.762632,-1.6066 2.116858,-1.8407 0.354226,-0.23409 1.239273,-1.60331 1.966772,-3.0427 l 1.322724,-2.61709 0.08798,-3.41402 c 0.09621,-3.73359 -0.06531,-5.18494 -0.577049,-5.18494 -0.18304,0 -0.85167,0.73576 -1.485845,1.63502 -2.807786,3.98144 -7.68853,8.07463 -11.792317,9.88952 -4.45279,1.96923 -9.029817,1.54679 -12.360121,-1.14081 -3.131893,-2.52747 -4.482951,-5.67091 -4.519817,-10.51602 -0.02648,-3.48058 0.234465,-5.08333 2.067718,-12.7 0.770558,-3.20145 1.485252,-6.21712 1.588208,-6.70147 0.177885,-0.83684 0.08171,-0.98471 -1.934207,-2.97373 -2.351876,-2.3205 -3.492955,-4.27309 -3.688905,-6.31238 -0.160072,-1.6659 0.479328,-3.06192 2.493291,-5.44367 3.34878,-3.96032 5.008867,-7.1595 9.267432,-17.85937 3.419803,-8.59244 5.788101,-12.67298 9.443997,-16.27187 3.624109,-3.5676 6.709302,-5.22425 15.642969,-8.39975 4.96098,-1.76339 12.493294,-3.95609 16.465504,-4.79319 4.879859,-1.02838 5.777347,-1.66225 6.421148,-4.53502 0.457021,-2.039317 0.06549,-2.344322 -0.673937,-0.525 -0.781192,1.92208 -1.351807,2.72196 -2.498567,3.50244 -1.586731,1.07992 -4.167721,0.59002 -5.304833,-1.0069 -1.017441,-1.42887 -1.168267,-3.26726 -0.566075,-6.899736 1.103604,-6.657046 1.038369,-7.789585 -0.759967,-13.193892 -2.121656,-6.375936 -2.849238,-10.24636 -2.298184,-12.225353 0.161855,-0.581269 0.04962,-0.886528 -0.596508,-1.622429 -0.904138,-1.029757 -1.038874,-2.21646 -0.392399,-3.456101 0.347426,-0.666203 0.350313,-0.823245 0.02188,-1.190625 -0.208083,-0.232759 -0.463459,-0.998722 -0.567502,-1.702139 -0.158964,-1.074722 -0.09935,-1.400435 0.373362,-2.039807 0.693533,-0.938054 0.696394,-1.079244 0.03337,-1.646945 -0.82431,-0.705796 -0.726598,-2.386978 0.17699,-3.045196 0.682619,-0.497254 0.69528,-0.553246 0.379849,-1.679855 -0.411453,-1.469566 -0.123302,-2.302407 1.147388,-3.316293 0.588291,-0.469399 0.941593,-0.979597 0.941598,-1.359748 1.2e-5,-0.961819 0.696512,-2.060028 1.671236,-2.635129 0.493251,-0.291026 1.245884,-1.048881 1.672518,-1.684123 0.512842,-0.763603 1.229261,-1.379593 2.114179,-1.817808 0.736164,-0.364552 1.707383,-0.933902 2.158263,-1.265222 0.450881,-0.33132 1.239601,-0.777812 1.752713,-0.992204 0.916448,-0.382917 0.932249,-0.415675 0.894397,-1.854343 -0.03704,-1.407931 0.0092,-1.512958 1.195243,-2.717151 0.861023,-0.874168 1.357181,-1.668162 1.642236,-2.628047 0.311442,-1.048739 0.669981,-1.581686 1.509494,-2.24377 0.605568,-0.477584 1.717886,-1.480363 2.471816,-2.228399 1.07704,-1.068619 1.619028,-1.40093 2.529243,-1.550767 0.637153,-0.104885 1.678819,-0.4251 2.314814,-0.711589 0.725212,-0.326677 1.563722,-0.488345 2.248962,-0.433608 0.61005,0.04873 1.74839,-0.135934 2.57747,-0.41813 1.43858,-0.489657 1.5293,-0.490647 2.91041,-0.03177 0.8212,0.272842 2.0651,0.453381 2.93412,0.425857 0.88055,-0.02789 1.81679,0.109997 2.24896,0.331217 0.40721,0.208448 1.27617,0.466685 1.93102,0.57386 1.67622,0.274341 2.43688,0.734163 3.01523,1.822734 0.27593,0.519354 0.71197,1.011018 0.96897,1.092588 0.68919,0.218741 2.41982,1.652037 2.92547,2.422858 0.24196,0.368847 0.51021,1.110138 0.59611,1.647314 0.10668,0.667151 0.40628,1.161592 0.94533,1.560133 0.87439,0.646459 1.4554,2.273451 1.18979,3.331724 -0.18653,0.7432 0.61541,1.430099 3.58604,3.071607 0.98376,0.543609 2.53989,1.800172 3.76809,3.042708 2.07666,2.100912 2.58413,2.859775 2.58413,3.86428 0,0.287398 0.47625,0.975586 1.05833,1.529309 0.86469,0.82256 1.05834,1.186885 1.05834,1.991171 0,0.541422 -0.12974,1.226813 -0.2883,1.523091 -0.23848,0.445599 -0.16989,0.662275 0.39688,1.253855 0.77994,0.814082 0.91667,2.350963 0.3071,3.45173 -0.31365,0.566384 -0.29564,0.767659 0.14167,1.583582 0.65294,1.218251 0.63376,2.157609 -0.0621,3.042279 -0.47197,0.60001 -0.51479,0.821906 -0.26458,1.371047 0.5397,1.184528 0.36661,2.625362 -0.42909,3.571696 -0.67697,0.805128 -0.72133,1.004575 -0.63742,2.865926 0.10574,2.345836 -0.18568,3.624977 -2.26352,9.935365 -1.34915,4.09736 -1.49188,4.757101 -1.60274,7.408333 -0.0897,2.145629 0.0263,3.887761 0.44171,6.629719 0.32142,2.121826 0.48865,4.110546 0.38934,4.630206 -0.5998,3.13874 -2.99401,4.92415 -4.96757,3.70442 -1.7808,-1.10059 -3.00682,-2.823 -3.44802,-4.84403 -0.21122,-0.967568 -0.50272,-0.918142 -0.88925,0.15078 -0.25784,0.71306 -0.24182,1.13363 0.0851,2.23458 0.88626,2.98436 3.68554,4.13785 7.53454,3.10474 2.56364,-0.68811 4.52571,-0.38788 5.63931,0.8629 0.4119,0.46264 0.69886,0.51921 2.02428,0.39903 2.49168,-0.22594 3.34546,0.0553 4.90648,1.61634 1.06394,1.06394 1.50087,1.34029 1.88223,1.19048 1.79333,-0.70447 3.81362,0.1962 4.79435,2.13738 0.5326,1.0542 0.73618,1.21129 1.98332,1.53046 0.76438,0.19562 1.98558,0.70822 2.71376,1.13911 0.72819,0.43089 2.3247,1.27371 3.54781,1.87292 2.8048,1.37409 5.61832,4.07578 7.95617,7.63992 2.19182,3.3415 3.09697,5.18794 4.86387,9.92188 1.59644,4.27723 2.44556,7.45849 2.71891,10.18645 0.22363,2.23177 0.30948,2.43744 2.00253,4.79721 1.67361,2.33266 2.42754,3.97898 3.1786,6.94097 0.47967,1.89171 0.5266,2.64795 0.38742,6.24291 l -0.15835,4.09046 1.01605,2.25954 c 1.30454,2.90107 1.62497,4.52227 1.57094,7.94808 -0.047,2.97958 -0.12069,2.68953 2.55313,10.04806 0.62124,1.70971 0.70333,2.27349 0.60469,4.15286 -0.10373,1.97623 -0.23832,2.42327 -1.4755,4.90089 -1.44993,2.9037 -2.17459,5.27133 -2.17459,7.10495 0,0.96038 0.1482,1.26807 1.00104,2.07847 0.55057,0.52318 1.71143,1.33771 2.57969,1.81009 1.89786,1.03253 2.16917,1.25 3.07605,2.46552 0.48099,0.64468 1.06706,1.04837 1.85208,1.27573 0.63164,0.18293 2.2309,0.85333 3.55391,1.48977 2.97186,1.42963 4.93657,3.39603 5.87514,5.88019 0.54485,1.4421 0.72269,1.65386 1.71979,2.04787 3.44677,1.362 7.18172,4.89585 8.92561,8.44501 1.78941,3.64179 2.20381,5.67604 2.2153,10.87454 0.0115,5.19501 -0.24528,6.46375 -2.10704,10.41176 -2.65918,5.63898 -6.27834,9.16093 -12.91818,12.57119 -5.85819,3.0088 -10.72825,4.19338 -21.32964,5.18816 -3.12869,0.29357 -6.40291,0.70299 -7.27604,0.90981 -3.2694,0.77443 -7.81638,1.27329 -12.30312,1.34981 -3.49058,0.0595 -5.21736,0.21256 -7.01576,0.62175 -4.79364,1.09072 -11.16734,1.35222 -16.66445,0.68371 z m 12.82463,-2.4894 c 0.21406,-0.13538 0.32231,-0.31305 0.24053,-0.39482 -0.0818,-0.0818 -1.62613,-0.32892 -3.43192,-0.54921 -5.15435,-0.6288 -11.06496,-2.29315 -18.7513,-5.2801 -5.47367,-2.12709 -12.70825,-5.96642 -15.53272,-8.24307 -0.60657,-0.48893 -1.17043,-0.88896 -1.25302,-0.88896 -0.36276,0 -1.48204,2.06956 -1.33148,2.46192 0.17368,0.45261 2.87491,2.70508 4.87799,4.0676 2.09506,1.4251 6.01863,3.24781 8.53621,3.96554 1.3442,0.38321 2.50353,0.78011 2.57629,0.882 0.0728,0.10189 0.31088,0.25324 0.52916,0.33633 0.40088,0.15261 -3.46847,0.3464 -5.42395,0.27166 -1.38642,-0.053 -9.34242,-3.72541 -12.09274,-5.58191 -1.12122,-0.75683 -2.14309,-1.37606 -2.27082,-1.37606 -0.12774,0 -0.62869,0.49331 -1.11322,1.09625 l -0.880976,1.09625 0.902836,0.74546 c 1.09184,0.90152 4.16071,2.42596 6.84032,3.39788 2.65586,0.9633 2.81232,1.46729 0.37989,1.22368 -2.84499,-0.28493 -6.83738,-1.44502 -10.569914,-3.07134 l -1.34212,-0.58479 -1.758917,0.93342 -1.758917,0.93341 0.640604,0.41974 c 1.316458,0.86257 4.842031,2.06956 7.928994,2.71449 4.32814,0.90425 10.37573,1.11469 14.92081,0.51921 4.42295,-0.57948 6.41192,-0.54051 11.32931,0.22198 2.30488,0.3574 4.786,0.69313 5.51361,0.74606 2.93234,0.21335 11.93157,0.16751 12.29546,-0.0626 z m -73.017337,-1.29065 c 5.835091,-1.53011 9.767904,-3.44717 13.657051,-6.65718 2.323203,-1.91752 7.938447,-8.0344 9.655144,-10.51769 3.059983,-4.42642 7.189762,-14.39512 8.081272,-19.50702 0.70353,-4.03403 0.14599,-7.71605 -1.32433,-8.7459 -1.00645,-0.70494 -4.464697,-0.30234 -5.01218,0.58351 -0.07868,0.12731 0.03853,1.00266 0.260467,1.94522 0.783696,3.32833 -0.46297,12.12824 -2.447234,17.27444 -1.289746,3.34496 -3.584333,7.62266 -5.277873,9.83932 -3.148512,4.12104 -8.940496,9.41923 -12.432942,11.37298 -1.780378,0.99598 -6.722989,2.78222 -7.698523,2.78222 -0.349718,0 -0.635852,-0.10012 -0.635852,-0.2225 0,-0.12237 1.386812,-0.96385 3.081804,-1.86995 3.935374,-2.10375 6.667473,-4.17275 10.147362,-7.68451 4.305942,-4.34539 6.893619,-8.44277 10.165958,-16.097 1.937091,-4.53098 2.894349,-7.7589 3.363957,-11.34343 0.280032,-2.13748 0.264807,-2.56306 -0.128534,-3.59301 -0.879418,-2.30273 -2.705002,-3.2768 -4.405548,-2.35066 -0.710328,0.38686 -0.908445,0.64986 -0.850502,1.12906 0.04155,0.34359 0.143222,2.05346 0.225945,3.79971 0.181674,3.83509 -0.444773,7.83605 -1.914932,12.23019 -2.033814,6.07885 -4.929491,10.50092 -11.199764,17.10348 -4.346916,4.57728 -11.874997,8.77055 -17.349287,9.66386 -2.766791,0.45149 -4.365625,0.8495 -4.365625,1.08675 0,0.41977 4.456501,0.75477 8.863541,0.66629 3.979337,-0.0799 4.848721,-0.18229 7.540625,-0.88818 z m 85.310557,-0.54472 c 0.74462,-0.29159 0.41839,-0.4064 -3.81889,-1.34395 -14.02671,-3.10357 -28.22441,-8.76742 -39.26109,-15.66233 l -3.71501,-2.32086 -0.62896,0.58807 c -1.20214,1.124 -1.2299,1.445 -0.23051,2.66463 1.13057,1.37971 6.37382,4.98913 9.57203,6.58932 5.22648,2.61502 11.17991,4.91693 16.84099,6.51161 7.45271,2.09937 19.25477,3.7515 21.24144,2.97351 z m -103.221983,-2.6478 c 2.450058,-0.39677 7.768251,-2.15749 10.503093,-3.47732 4.03904,-1.94923 7.253475,-4.30872 11.141098,-8.1779 3.861254,-3.84294 6.104212,-6.81652 8.390789,-11.12402 2.509653,-4.72773 4.241356,-9.6222 4.458856,-12.60246 0.202963,-2.78106 -0.0219,-3.95165 -0.865237,-4.50423 -0.624207,-0.40899 -0.735055,-0.39983 -1.929015,0.15939 -1.218036,0.57049 -1.314548,0.57708 -2.509618,0.17135 -0.683577,-0.23208 -1.460774,-0.42197 -1.727106,-0.42197 -0.913177,0 -1.849088,1.07535 -3.287515,3.77731 -2.813928,5.28572 -4.301825,8.00718 -4.805951,8.7904 -2.331598,3.62241 -7.836522,9.40523 -11.636352,12.22375 -4.34188,3.2206 -12.000019,6.77661 -17.867448,8.29666 -4.25227,1.10161 -11.266348,1.76328 -14.618228,1.37901 -3.0355,-0.34801 -2.59851,0.15182 0.992187,1.13485 2.094849,0.5735 10.971998,0.83651 13.538328,0.40111 0.994128,-0.16867 3.533911,-0.79298 5.643963,-1.38736 9.979101,-2.81101 17.076982,-7.22835 24.293527,-15.11899 3.156144,-3.45096 5.46785,-6.93743 8.629231,-13.01445 0.681325,-1.30968 1.351022,-2.49436 1.488215,-2.6326 1.12944,-1.1381 -1.413673,7.94348 -3.25631,11.62844 -1.179464,2.35872 -4.40396,7.13375 -6.357238,9.41418 -3.400433,3.96997 -8.588265,7.87101 -14.214092,10.68841 -2.877105,1.44086 -3.787918,1.78506 -9.128125,3.44963 -1.74625,0.54432 -3.413125,1.09334 -3.704166,1.22005 -0.715387,0.31146 4.507335,0.10243 6.827114,-0.27324 z m 116.016813,-0.55782 c 2.82052,-0.29712 4.86837,-0.75844 4.68487,-1.05534 -0.17839,-0.28864 -1.27181,-0.45595 -6.03768,-0.92382 -8.1758,-0.80263 -15.33322,-2.57539 -25.02232,-6.19757 -4.08973,-1.5289 -15.45043,-7.02946 -23.60621,-11.42951 -2.12661,-1.14731 -4.13282,-2.08602 -4.45823,-2.08602 -0.80729,0 -2.39082,1.62755 -2.39082,2.45729 0,1.56816 8.06377,6.71523 15.875,10.13295 4.99525,2.18562 13.09608,4.93189 19.44687,6.5927 8.54517,2.23468 15.93336,3.09663 21.50852,2.50932 z m -152.609547,-6.2937 c 0,-0.11652 -0.51647,-0.46278 -1.1477,-0.76945 -3.99043,-1.9387 -7.9542396,-7.23057 -9.4310196,-12.59081 -0.99876,-3.62522 -0.67817,-8.47213 0.65667,-9.92777 0.25191,-0.27471 0.29447,0.0627 0.20023,1.5875 -0.21138,3.42049 1.13654,7.34121 3.5917096,10.44723 1.24141,1.5705 3.961,3.44094 6.39469,4.39805 4.87431,1.91693 12.311677,2.88629 17.330207,2.25875 3.673834,-0.4594 9.34028,-2.52248 14.816666,-5.39457 l 2.38125,-1.24884 -1.956828,1.82328 c -1.076255,1.00281 -2.147817,1.92869 -2.38125,2.05753 -0.873937,0.48233 -4.790047,3.14193 -4.790047,3.25312 0,0.0637 0.118163,0.0427 0.262585,-0.0465 0.144422,-0.0893 0.998477,-0.2808 1.897899,-0.42565 2.957072,-0.47622 7.398634,-2.95394 12.788474,-7.13405 1.164166,-0.90287 2.632553,-1.86353 3.263081,-2.13479 1.182695,-0.50881 2.085188,-0.66499 1.346798,-0.23307 -0.485298,0.28388 -1.461284,2.3152 -1.225613,2.55087 0.346948,0.34695 2.076904,-1.10484 5.777769,-4.84875 5.129845,-5.1895 8.181476,-9.31987 9.380962,-12.6971 0.564562,-1.58957 0.404999,-2.10228 -0.812582,-2.61102 -0.752544,-0.31443 -1.158425,-0.33116 -2.125685,-0.0876 -1.378967,0.34723 -1.626799,0.64891 -3.395484,4.13319 -1.325279,2.61078 -3.191617,5.43728 -4.155764,6.29374 -0.720029,0.6396 -0.689593,0.55906 0.851725,-2.25388 0.67776,-1.23693 1.420499,-2.81453 1.65053,-3.5058 1.183082,-3.55525 0.774583,-4.29941 -2.360116,-4.29941 -2.314493,0 -2.595334,0.20367 -4.75351,3.4472 -1.394456,2.09574 -3.419214,4.23772 -4.606399,4.87308 -0.453941,0.24295 -0.326379,-0.0252 0.517771,-1.08854 1.32876,-1.67372 2.895475,-4.81357 2.895475,-5.80281 0,-1.61663 -2.211124,-1.98669 -5.424758,-0.90791 -2.16295,0.72608 -3.511934,1.46301 -7.672116,4.19114 -4.611897,3.02436 -10.348968,5.43088 -14.2875,5.99316 -3.768483,0.538 -3.754829,0.19612 0.04127,-1.03326 3.583672,-1.16058 8.493203,-3.55046 13.492934,-6.56812 2.160565,-1.30404 4.315254,-2.56872 4.788196,-2.8104 0.472943,-0.24168 0.859896,-0.53995 0.859896,-0.66282 0,-0.12287 -0.531448,-0.3722 -1.180995,-0.55406 -2.107458,-0.59005 -5.913859,0.22661 -9.523486,2.04326 -2.343818,1.1796 -10.217742,4.57169 -10.582872,4.55911 -0.859883,-0.0296 3.95559,-3.1141 8.190479,-5.24628 l 2.645833,-1.33212 -2.38125,-0.013 c -2.561117,-0.014 -5.122944,0.51701 -10.703085,2.2184 -1.666595,0.50815 -3.076505,0.87757 -3.133135,0.82094 -0.21092,-0.21092 2.092427,-1.53815 4.354495,-2.50914 3.449635,-1.48074 7.447761,-2.34702 11.069225,-2.39838 l 1.322917,-0.0188 -0.752727,-0.40789 c -1.001277,-0.54258 -5.170309,-1.5804 -7.317065,-1.82147 -1.905266,-0.21395 -4.235522,-0.98733 -5.369705,-1.78212 -0.650171,-0.45562 -1.00173,-0.49608 -2.91042,-0.33494 -6.96457,0.58799 -11.61597,2.20303 -15.6187,5.42307 -4.5707096,3.67695 -6.5754596,8.24694 -6.6170496,15.08412 -0.0211,3.47584 0.005,3.646 0.96088,6.32898 1.2903,3.62049 2.00842,4.8061 4.26293,7.03809 1.3787196,1.36495 2.5367096,2.19861 4.3656996,3.14294 2.95133,1.5238 4.25762,1.99457 4.25762,1.53438 z m 8.37059,-8.23848 c -1.28977,-0.28198 -2.95665,-0.81219 -3.70417,-1.17826 -1.62572,-0.79613 -3.50031,-2.64267 -3.76115,-3.70487 -0.17376,-0.7076 -0.13992,-0.75424 0.44553,-0.61403 0.34846,0.0835 1.60692,0.51114 2.79656,0.9504 2.80142,1.0344 6.82769,1.62002 11.137978,1.62002 6.754472,0 11.291154,-1.56014 18.434473,-6.33951 3.746026,-2.50635 5.173933,-3.32648 5.173933,-2.9717 0,0.45383 -4.140998,4.67023 -6.34249,6.45799 -2.62956,2.13537 -6.887546,4.3229 -10.458551,5.37306 -2.056969,0.60491 -2.99378,0.7152 -6.879166,0.80992 -3.75431,0.0915 -4.885603,0.0249 -6.842947,-0.40302 z m 153.464417,7.50282 c 3.54259,-0.4072 6.30164,-1.1316 9.10986,-2.39186 2.5807,-1.15815 1.8704,-1.49411 -1.6107,-0.76184 -2.7532,0.57916 -9.57596,0.79092 -13.4946,0.41885 -4.02991,-0.38264 -10.31937,-1.60353 -13.89062,-2.69641 -3.81154,-1.16641 -10.62905,-4.62259 -11.88258,-6.02394 -0.80147,-0.89598 -0.33422,-0.92399 1.33862,-0.0803 3.26914,1.64888 11.74619,3.81844 18.87834,4.8316 1.23692,0.17571 4.21348,0.31548 6.61458,0.31058 8.41746,-0.0172 13.32549,-1.4168 19.51586,-5.56542 3.81929,-2.55959 5.50488,-4.8577 6.29932,-8.58841 0.44983,-2.11242 0.35522,-3.38595 -0.41866,-5.63526 -0.27345,-0.79481 -0.3915,-1.44511 -0.26232,-1.44511 0.12918,0 0.7631,0.68461 1.40872,1.52136 2.09563,2.71601 2.92893,3.13047 2.33967,1.16369 -0.61156,-2.0412 -3.66257,-5.28905 -6.17785,-6.57644 -1.84294,-0.94326 -5.40397,-1.66544 -8.18541,-1.66001 -5.07521,0.01 -12.05372,1.36368 -15.14252,2.9375 -2.05977,1.0495 -2.24684,1.09284 -5.58264,1.29319 -1.89831,0.11402 -3.80865,0.32331 -4.24521,0.4651 l -0.79375,0.25779 0.79375,0.23277 c 1.01771,0.29844 7.72599,0.29874 13.46406,6e-4 5.05053,-0.26241 5.56436,-0.0162 1.80713,0.86588 -2.89789,0.68034 -7.9125,1.05053 -11.03786,0.81483 -1.3228,-0.0998 -3.4985,-0.51011 -4.89479,-0.9232 -1.97526,-0.58437 -3.08016,-0.74858 -5.15938,-0.76677 -2.86827,-0.0251 -4.19542,0.20954 -4.0394,0.7142 0.12967,0.4194 7.00395,2.67784 10.3894,3.41328 2.23405,0.48532 3.53117,0.57766 8.33438,0.59331 3.1287,0.0102 6.58151,-0.0795 7.67291,-0.19931 2.37453,-0.26068 2.24958,0.0113 -0.44661,0.97211 -3.1476,1.12169 -6.17409,1.5755 -9.47526,1.42078 -3.744,-0.17548 -6.31544,-0.73167 -9.99826,-2.16256 -1.63148,-0.63388 -4.78573,-1.66292 -7.00944,-2.28676 l -4.04312,-1.13425 -3.10063,0.33619 c -2.86669,0.31082 -3.82792,0.58117 -3.44123,0.96786 0.0843,0.0843 1.08841,0.49473 2.23132,0.91205 2.35727,0.86071 11.52511,4.72585 11.73194,4.94616 0.17051,0.18162 -2.32182,-0.10775 -3.82021,-0.44355 -0.99215,-0.22234 -3.49788,-1.15424 -10.72849,-3.98998 -1.09141,-0.42804 -2.24364,-0.77761 -2.56051,-0.77682 -0.51664,0.001 -1.70344,0.39914 -6.39436,2.14365 -0.77784,0.28927 -2.54451,0.75851 -3.92595,1.04275 -1.38143,0.28424 -2.62025,0.5839 -2.75294,0.6659 -1.05869,0.65431 1.53687,2.77764 7.83012,6.40553 1.01951,0.58772 2.08575,1.32505 2.36942,1.6385 0.89694,0.99111 -5.6256,-1.49638 -8.98557,-3.42681 -5.3283,-3.06129 -5.21433,-3.01007 -6.26044,-2.81382 -1.27205,0.23864 -2.7354,1.25016 -2.7354,1.89081 0,1.64409 10.14148,6.89634 21.46662,11.11751 9.50083,3.54121 20.78219,6.0069 29.46567,6.44011 3.8371,0.19143 4.73312,0.1548 9.43502,-0.38565 z M 169.1471,245.9346 c -1.59908,-0.25083 -2.28264,-0.60338 -2.28264,-1.17726 0,-0.23536 0.95756,-0.37894 3.37343,-0.50582 10.1927,-0.53532 12.80103,-0.86776 15.9846,-2.03731 0.82426,-0.3028 1.71723,-0.50717 1.98437,-0.45414 1.38007,0.27393 -2.99407,2.86331 -6.43653,3.81026 -1.8326,0.50411 -10.19354,0.74538 -12.62323,0.36427 z m 23.17646,-6.47132 c 3.29389,-2.2097 4.55406,-3.95359 4.88674,-6.76254 0.20378,-1.72059 0.6597,-1.33772 0.70758,0.59421 0.0397,1.60315 -0.56019,3.21845 -1.78752,4.813 -0.88591,1.15098 -3.50826,2.54437 -4.78912,2.54471 -0.73243,1.9e-4 -0.65977,-0.0878 0.98232,-1.18938 z m -82.86341,-5.43976 c 5.44433,-1.09142 12.84976,-3.458 15.55907,-4.97226 1.10221,-0.61604 2.6869,-2.61508 2.6869,-3.38945 0,-0.25997 0.6692,-0.30095 2.97657,-0.18227 3.58044,0.18417 7.50413,-0.44411 16.88307,-2.70339 3.28296,-0.79083 6.55957,-1.43787 7.28136,-1.43787 1.08729,0 3.05628,0.41836 5.71879,1.21509 0.39059,0.11688 0.41614,0.0219 0.19844,-0.73715 -0.48552,-1.69288 -0.53717,-1.66057 2.80243,-1.75307 l 3.05107,-0.0845 0.82069,0.87825 0.82069,0.87826 -1.26271,0.18167 c -1.39122,0.20017 -1.86501,0.51288 -1.64515,1.08584 0.18839,0.49092 1.38162,0.71686 3.78581,0.71686 1.67571,0 1.98109,-0.0731 2.22718,-0.53287 0.71274,-1.33178 -0.95505,-4.23084 -3.25033,-5.6499 -1.08246,-0.66923 -1.64395,-0.80727 -4.09626,-1.00703 -1.56302,-0.12733 -3.5885,-0.46671 -4.50106,-0.75418 -2.09877,-0.66116 -5.48228,-0.68668 -10.37934,-0.0783 -1.96453,0.24407 -5.35781,0.44852 -7.54062,0.45435 -4.39099,0.0117 -3.44227,0.23645 -12.17083,-2.883 -2.46971,-0.88263 -2.82219,-0.94024 -5.29499,-0.86537 -2.26578,0.0686 -2.86785,0.18722 -4.16037,0.81959 -0.83117,0.40665 -1.91039,1.2057 -2.39825,1.77566 -1.08642,1.26924 -2.34995,3.79104 -2.43385,4.85756 -0.0729,0.92722 -0.39845,1.06938 -5.27231,2.30266 -4.24925,1.07523 -4.0974,0.96848 -3.80447,2.67439 0.13221,0.76998 0.2388,2.82872 0.23687,4.57497 -0.003,2.88001 0.15933,5.15938 0.36787,5.15938 0.0442,0 1.30142,-0.24477 2.79373,-0.54393 z m 97.49488,-5.47868 c -0.26168,-1.04261 -1.5472,-2.75672 -3.201,-4.26819 -1.65552,-1.51306 -5.78809,-3.6692 -8.44687,-4.4071 -2.36404,-0.6561 -9.75956,-0.81628 -13.50839,-0.29257 -3.69776,0.51657 -6.52816,1.15687 -7.16169,1.62012 -0.47649,0.34842 -0.47287,0.39932 0.11448,1.60825 l 0.60654,1.24845 1.40001,-0.16454 c 0.77,-0.0905 2.34151,-0.49183 3.49224,-0.89184 2.04418,-0.71059 2.21983,-0.72636 7.64848,-0.68653 5.99656,0.044 8.17244,0.34649 10.77657,1.49816 1.86385,0.82428 4.71004,2.72345 6.55364,4.373 1.53496,1.37341 2.00441,1.47209 1.72599,0.36279 z M 74.113077,222.78895 c 0.89079,-0.10794 1.705899,-0.0304 2.439288,0.23208 1.036723,0.37103 1.129591,0.3631 1.580377,-0.13502 0.263411,-0.29106 0.791242,-0.7137 1.172958,-0.93918 l 0.694028,-0.40997 -0.975772,-2.41439 c -1.65606,-4.09766 -3.50705,-5.3304 -7.938663,-5.28708 -2.333216,0.0228 -4.297169,0.56656 -8.453555,2.34046 -1.408189,0.601 -1.967113,0.70478 -3.19575,0.59337 -1.585437,-0.14376 -11.72912,-2.80219 -16.457781,-4.31321 -4.663777,-1.49029 -7.353603,-1.12236 -10.33078,1.41309 -1.651615,1.40656 -2.156782,2.29503 -1.895906,3.33444 0.249456,0.99391 0.955706,1.31024 2.171483,0.97259 0.543583,-0.15096 1.702708,-0.27863 2.575833,-0.28371 l 1.587499,-0.009 -0.827193,-0.75305 c -0.454956,-0.41417 -0.982392,-0.80477 -1.17208,-0.868 -0.214379,-0.0715 -0.274848,-0.29748 -0.159798,-0.5973 0.164345,-0.42828 0.39948,-0.4632 2.098121,-0.31163 1.052169,0.0939 2.954831,0.24529 4.228138,0.33646 l 2.315104,0.16576 8.69e-4,0.8232 c 8.65e-4,0.82005 0.0092,0.82482 2.182812,1.24971 1.461141,0.28561 3.230801,0.92496 5.356943,1.93538 3.026641,1.43837 5.285006,2.27964 9.624072,3.58509 1.903915,0.57282 1.986301,0.57598 3.402815,0.13043 1.679563,-0.52829 4.479255,-0.42337 5.422957,0.20322 0.526737,0.34974 0.713903,0.3279 1.900214,-0.22172 0.723759,-0.33533 1.917954,-0.68263 2.653767,-0.77179 z m 13.02958,-1.1995 c 2.28977,-0.52522 1.94177,-0.90737 -1.139861,-1.25173 -1.514827,-0.16928 -3.001921,-0.44034 -3.304654,-0.60236 -0.499101,-0.26711 -0.533824,-0.23695 -0.372401,0.32344 0.09791,0.33991 0.540454,0.95677 0.983424,1.3708 0.865172,0.80864 0.983445,0.81357 3.833492,0.15985 z m 9.362541,-1.75095 c 1.461159,-0.96695 4.577652,-1.17541 6.929012,-0.46347 l 1.61348,0.48852 3.32557,-0.86122 c 1.82907,-0.47367 3.53104,-1.065 3.78216,-1.31407 0.25113,-0.24907 0.5339,-0.8394 0.62839,-1.31183 l 0.17179,-0.85898 h -4.71577 c -4.22192,0 -4.93887,0.0669 -6.84609,0.63913 -4.548365,1.36459 -6.890885,1.59907 -11.126156,1.1137 -4.943106,-0.56649 -8.152985,-0.7536 -8.526512,-0.49703 -0.246974,0.16965 -0.256159,0.47272 -0.03847,1.26946 0.353505,1.29384 0.38928,1.3316 0.877671,0.92627 0.316123,-0.26236 1.019346,-0.23466 3.512123,0.13831 1.714272,0.25649 4.247951,0.53597 5.630399,0.62107 1.382448,0.0851 2.751666,0.29992 3.042708,0.4774 0.67555,0.41195 0.50915,0.44707 1.739698,-0.36726 z m 98.935642,-3.26013 c -0.3135,-0.58578 -2.60941,-2.37008 -3.83784,-2.98264 -1.49519,-0.74557 -2.66071,-0.82802 -11.90625,-0.8422 -10.19171,-0.0156 -10.23343,-0.0204 -16.66875,-1.89879 -3.19471,-0.93251 -7.60051,-2.86036 -10.05417,-4.39943 -0.7276,-0.45639 -2.27542,-1.56026 -3.43958,-2.45303 -3.21106,-2.4625 -5.96202,-4.24664 -8.78128,-5.6951 -1.88687,-0.96942 -2.36509,-1.31056 -1.83719,-1.31056 1.50556,0 7.50071,2.72807 12.04625,5.4816 3.6637,2.21935 8.88403,4.8068 11.80138,5.84936 3.49771,1.24995 5.96292,1.80355 9.61918,2.16014 3.31881,0.32368 12.73811,0.35596 12.73811,0.0436 0,-0.43731 -1.02537,-1.14119 -2.15779,-1.48124 -0.63222,-0.18984 -2.8759,-0.54381 -4.98596,-0.78659 -10.17885,-1.17117 -13.35508,-2.25226 -22.23269,-7.56736 -7.57238,-4.53365 -11.91571,-6.3378 -16.23652,-6.7444 -3.94259,-0.37101 -3.92848,-0.36686 -3.74415,-1.10128 0.0921,-0.36685 0.0464,-0.81285 -0.10158,-0.99111 -0.30467,-0.3671 -0.6769,-7.47957 -0.63119,-12.06069 0.026,-2.60549 0.20242,-3.78408 1.2278,-8.20208 0.6586,-2.83766 1.32063,-5.81422 1.47118,-6.61458 0.51456,-2.73544 2.27483,-16.51825 2.53435,-19.84375 0.0852,-1.09141 0.32677,-4.06797 0.53689,-6.61459 0.71615,-8.67972 0.98929,-17.97469 0.66671,-22.68842 -0.29704,-4.34069 -0.57743,-5.62199 -1.23029,-5.62199 -0.19157,0 -0.54924,0.30667 -0.79483,0.68149 -0.46268,0.70613 -0.42825,0.21476 -1.40767,20.0883 -0.31929,6.47878 -0.84943,11.63271 -1.48315,14.41896 -0.5399,2.37378 -1.03198,2.76341 -0.79597,0.63026 0.77167,-6.97452 1.2061,-25.24329 0.70826,-29.78335 -0.36689,-3.3458 -0.88302,-5.24163 -1.60484,-5.89487 -0.44792,-0.40537 -0.63807,-0.42835 -1.29447,-0.15646 -0.42318,0.17528 -1.07281,0.63747 -1.44363,1.02708 l -0.67421,0.70838 -0.15671,6.61458 c -0.0862,3.63802 -0.27178,7.86474 -0.41243,9.39271 -0.34597,3.75849 -0.8579,7.95823 -0.95788,7.85825 -0.0449,-0.0449 -0.15033,-3.17079 -0.23434,-6.94648 -0.24073,-10.81852 -0.77645,-16.88027 -1.53448,-17.36276 -0.36205,-0.23045 -1.47764,0.35135 -2.19774,1.14616 -0.52725,0.58195 -0.57252,0.99809 -0.72944,6.70587 -0.38225,13.90335 -0.76671,22.50683 -1.01978,22.82031 -0.14684,0.18191 -0.56852,0.33073 -0.93705,0.33073 h -0.67007 l 0.17291,-7.47448 c 0.0951,-4.11096 0.25075,-10.06408 0.34588,-13.22916 0.14168,-4.71387 0.10896,-5.75469 -0.18086,-5.75469 -0.1946,0 -1.13546,0.40236 -2.09081,0.89412 -3.52813,1.81612 -8.74065,3.33405 -11.46042,3.33736 -0.83675,10e-4 -1.52078,-0.0874 -1.52007,-0.19658 7.1e-4,-0.10914 1.12719,-0.46097 2.50329,-0.78183 4.1712,-0.97259 8.87251,-3.3191 8.87251,-4.42843 0,-0.62887 -0.89493,-0.70758 -1.99826,-0.17577 -3.08679,1.48785 -11.00693,2.32796 -15.08492,1.60008 -2.588602,-0.46204 -5.961151,-1.62931 -7.226098,-2.50103 -1.663592,-1.14644 -1.709367,-1.64042 -0.07528,-0.81236 3.501843,1.77452 10.213348,2.68546 14.103418,1.91423 2.67619,-0.53057 5.08997,-1.50048 5.20369,-2.09095 0.10245,-0.532 -0.87992,-0.57914 -4.57984,-0.21976 -2.6843,0.26072 -6.86754,-0.10389 -9.26042,-0.80715 -2.782337,-0.81771 -5.962572,-2.4097 -7.077605,-3.54296 -0.984928,-1.00103 -1.416442,-1.91152 -0.529167,-1.11654 0.766694,0.68694 4.25667,2.33662 6.122088,2.89384 2.062824,0.61619 8.046594,0.99081 8.336394,0.5219 0.11245,-0.18194 -0.38783,-0.44454 -1.35224,-0.70981 -2.98945,-0.82227 -5.53414,-1.76918 -8.145304,-3.03097 -2.7344,-1.32134 -5.862138,-3.52677 -6.601103,-4.65458 -0.55402,-0.84554 -0.939522,-0.81874 -0.939522,0.0653 0,1.01735 -0.911588,2.75902 -2.028831,3.87626 -1.142305,1.1423 -3.015448,1.89842 -6.437835,2.59871 -1.382448,0.28288 -3.108854,0.68391 -3.836458,0.89117 -0.727604,0.20727 -2.573073,0.68349 -4.101042,1.05828 -4.18255,1.02591 -12.436271,4.08989 -16.526396,6.13499 -4.285032,2.14255 -7.381545,4.88333 -9.821655,8.69332 -1.304987,2.03761 -3.660796,6.81193 -4.821548,9.77143 -3.420599,8.7213 -7.012404,15.93826 -9.629217,19.34784 -1.522243,1.98341 -2.516726,3.84985 -1.822767,3.42096 0.132503,-0.0819 1.471956,-0.39143 2.976562,-0.68787 3.684939,-0.72599 5.144802,-1.20822 6.651783,-2.19724 1.052292,-0.69061 1.446483,-1.19695 2.296885,-2.95036 1.522593,-3.13936 1.801814,-3.91176 2.67517,-7.4002 1.250341,-4.99422 2.515789,-9.11626 3.415665,-11.12609 0.825292,-1.84326 2.370379,-4.4585 2.536148,-4.29273 0.04815,0.0482 -0.21704,1.03495 -0.589323,2.19287 -0.372283,1.15793 -1.248139,4.84376 -1.946346,8.19074 -0.698207,3.34698 -1.745698,7.54393 -2.327757,9.32656 -0.582059,1.78263 -0.974855,3.24115 -0.87288,3.24115 0.101976,0 0.714736,-0.33941 1.36169,-0.75425 2.280822,-1.46249 5.325777,-5.20115 7.117541,-8.73906 0.322815,-0.63741 1.607418,-2.18522 2.854673,-3.43958 1.700612,-1.7103 3.141544,-3.60402 5.761787,-7.57232 1.921727,-2.91042 3.804469,-5.88698 4.183872,-6.61458 1.51035,-2.8965 7.677678,-12.39581 9.276011,-14.2875 0.58388,-0.69105 0.671164,-0.72529 0.67459,-0.26459 0.0072,0.96664 -1.269242,4.15578 -2.261402,5.65008 -1.478925,2.22742 -2.355067,3.75196 -4.735794,8.24055 -1.196344,2.25557 -3.159724,5.94651 -4.363066,8.20208 -1.203342,2.25557 -2.466938,4.91682 -2.807993,5.91389 -0.705811,2.06343 -0.77785,2.08161 1.941547,-0.48993 1.96269,-1.85598 5.829415,-4.36844 7.965688,-5.17582 3.555323,-1.3437 6.382617,-1.89075 9.964657,-1.92806 2.18957,-0.0228 3.968435,0.0985 4.894791,0.33386 2.675211,0.67962 6.845808,2.5879 10.650536,4.87322 2.073093,1.24521 4.662223,2.62662 5.753633,3.0698 1.0914,0.44318 2.1332,1.00838 2.3151,1.25602 0.45546,0.62005 0.41465,1.96363 -0.0811,2.67148 l -0.41188,0.58804 h 6.85317 c 6.65607,0 6.86765,0.0162 7.35719,0.56298 0.47607,0.53177 0.66861,0.55374 3.47179,0.39622 l 2.96776,-0.16678 0.34977,0.66756 c 0.59649,1.13844 4.05079,4.48484 5.19397,5.03173 0.7721,0.36937 1.03734,0.63457 0.91676,0.91662 -0.38031,0.88958 -0.64737,17.89678 -0.47571,30.29479 0.10075,7.27604 0.19832,14.56286 0.21684,16.19293 0.0206,1.81131 -0.0772,3.0745 -0.25153,3.24854 -0.18815,0.18787 -2.52918,0.28601 -6.87917,0.28839 -7.97973,0.004 -9.37657,0.20067 -11.49517,1.61542 -1.44963,0.96802 -1.73732,1.05616 -3.88837,1.19135 -1.83053,0.11505 -2.81807,0.0274 -4.65891,-0.41355 -2.81039,-0.67317 -5.18244,-0.72045 -6.430571,-0.12817 -1.523782,0.72308 -2.234382,2.26886 -1.1947,2.59884 0.269377,0.0855 1.28807,-0.0297 2.263761,-0.25597 2.0549,-0.47656 3.21769,-0.33201 4.41095,0.54836 0.46492,0.343 1.51365,0.75855 2.33052,0.92342 0.81686,0.16488 1.87896,0.52713 2.36022,0.80501 1.21907,0.70387 3.27488,0.64602 6.7979,-0.19128 4.2755,-1.01616 6.83656,-1.38936 9.65729,-1.4073 4.15835,-0.0264 9.82525,-1.08381 10.5612,-1.97058 0.24468,-0.29482 0.12144,-0.48252 -0.61609,-0.93834 -0.99928,-0.61759 -1.34544,-1.29963 -1.08157,-2.13103 0.37416,-1.17887 1.94224,-0.41547 5.41697,2.63718 2.86442,2.51648 7.18135,5.69399 8.9879,6.61563 1.94809,0.99384 4.99952,1.85801 8.39281,2.37686 8.62528,1.31885 9.66618,1.54612 11.51384,2.51402 1.78465,0.93489 1.79961,0.93756 5.25567,0.93756 1.90625,0 5.63019,-0.19136 8.2754,-0.42525 5.44553,-0.48148 8.6145,-0.36403 10.76262,0.39891 1.98647,0.70553 2.48379,0.71233 2.11805,0.0289 z M 55.299612,136.80391 c 0.08581,-1.30969 0.277878,-2.79797 0.426825,-3.30729 0.22918,-0.78368 2.929906,-5.67726 2.920094,-5.29106 -0.0018,0.0724 -0.366701,1.32231 -0.810803,2.77752 -0.444102,1.45521 -1.086478,3.76001 -1.427502,5.12178 -0.873049,3.48625 -1.309245,3.7613 -1.108614,0.69905 z m -26.833541,78.38281 1.061114,-1.38906 -1.328858,-0.0805 c -1.826154,-0.11063 -3.906784,0.54483 -4.941894,1.55684 -0.46996,0.45947 -0.85447,0.94034 -0.85447,1.06859 0,0.12826 1.12567,0.23319 2.5015,0.23319 h 2.501493 z m 70.334325,0.0439 c 1.055026,-0.19254 1.918234,-0.41592 1.918234,-0.49639 0,-0.17682 -1.596922,-0.7003 -4.101047,-1.34436 -2.505848,-0.64449 -5.884118,-2.09443 -8.585213,-3.68473 -2.28009,-1.34243 -5.155373,-2.48937 -6.988618,-2.78774 -1.831103,-0.29803 -2.779329,-1.8892 -1.996976,-3.35104 0.158712,-0.29656 1.26004,-1.0107 2.447396,-1.58698 l 2.158829,-1.04779 -3.118888,0.14 c -3.041735,0.13654 -3.123935,0.1255 -3.322957,-0.44615 -0.112239,-0.32238 -0.13749,-13.14724 -0.05611,-28.49968 l 0.147958,-27.91355 1.936292,-0.0781 c 2.071297,-0.0835 2.461744,-0.49684 0.894111,-0.94643 -1.264997,-0.3628 -2.958876,0.22569 -4.246262,1.47523 l -1.097682,1.06541 v 5.92039 5.92038 l -0.899306,1.17816 c -0.534465,0.70019 -1.2481,2.2307 -1.759056,3.7726 -0.472862,1.42695 -1.332127,3.66601 -1.909479,4.9757 -2.191801,4.97197 -2.482074,6.36295 -1.385284,6.63822 0.821249,0.20612 2.061638,-0.0814 1.847289,-0.42827 -0.09723,-0.15733 0.61006,-0.25683 1.825647,-0.25683 1.091407,0 2.055799,0.11557 2.143095,0.25681 0.08729,0.14125 -0.03733,0.63593 -0.276942,1.09929 -0.268077,0.51841 -0.382191,1.17197 -0.296658,1.69905 0.181659,1.11943 -0.226666,1.66553 -2.189742,2.9286 -1.554965,1.00049 -2.146679,1.78016 -1.68991,2.22671 0.123597,0.12083 1.09527,0.0394 2.159274,-0.18097 2.213691,-0.45847 2.695655,-0.36452 2.695655,0.52548 0,0.99367 -0.941539,1.95058 -3.067032,3.11712 -1.078028,0.59166 -1.960051,1.20131 -1.960051,1.35478 0,0.28449 2.949839,0.12997 4.167187,-0.21828 0.576959,-0.16506 0.595313,-0.1131 0.595313,1.68523 0,1.77461 -0.03877,1.88957 -0.888985,2.63607 -0.488942,0.4293 -1.59027,1.17032 -2.447396,1.64673 -5.258053,2.92251 -5.370199,3.69309 -0.290078,1.99317 1.52209,-0.50932 2.901184,-0.92604 3.064655,-0.92604 0.191402,0 0.29722,0.65486 0.29722,1.83937 v 1.83938 l -1.241759,0.8726 c -0.682968,0.47994 -2.081247,1.35366 -3.107286,1.94161 -1.026039,0.58795 -1.901506,1.25584 -1.945482,1.48419 -0.13945,0.7241 1.27957,1.08749 3.451756,0.88394 1.82928,-0.17142 2.006375,-0.14114 2.708893,0.46314 1.098437,0.94484 0.75399,1.36994 -1.630389,2.01215 -2.708438,0.7295 -9.183564,2.04591 -11.854001,2.40995 -2.220383,0.3027 -2.68627,0.52342 -2.442979,1.15743 0.392897,1.02387 4.643487,0.85442 12.853865,-0.51243 2.965367,-0.49367 5.503726,-0.89758 5.640798,-0.89758 0.137072,0 0.211175,0.25988 0.164674,0.5775 -0.0948,0.64752 -0.360554,0.74459 -4.18559,1.5288 -6.158601,1.26265 -9.922347,1.62991 -16.536457,1.61358 -5.547679,-0.0137 -6.463914,0.0428 -7.251576,0.44732 -0.495867,0.25466 -0.88985,0.58027 -0.875518,0.7236 0.05023,0.50235 9.896972,2.77647 12.037243,2.78002 0.892974,0.001 1.744855,-0.24048 2.900422,-0.82381 2.1746,-1.09773 5.553317,-1.77172 10.406821,-2.07594 2.193525,-0.1375 4.574775,-0.38264 5.291667,-0.54475 2.633552,-0.59556 7.88325,-0.17818 6.729288,0.53501 -0.1838,0.1136 -1.664989,0.28969 -3.29153,0.39132 -1.626542,0.10163 -3.355257,0.26616 -3.84159,0.36563 l -0.884242,0.18085 1.304814,1.41904 1.304813,1.41904 4.555006,-0.051 c 3.36403,-0.0377 4.555005,0.031 4.555005,0.26263 0,0.40933 6.735818,0.19257 9.458854,-0.30438 z m 8.665104,-3.90968 1.32292,-0.18137 -2.11667,-0.35596 c -1.16417,-0.19577 -2.77151,-0.65311 -3.57187,-1.01631 -0.80037,-0.3632 -2.43358,-0.93538 -3.629368,-1.27151 -1.195784,-0.33613 -2.565003,-0.90451 -3.042708,-1.26307 -0.477705,-0.35855 -2.59496,-1.33936 -4.705012,-2.17957 -4.466625,-1.77858 -6.976804,-2.14535 -9.109231,-1.33097 -1.928119,0.73636 -1.734091,1.0959 0.84719,1.56987 1.798515,0.33024 3.208119,0.86492 6.660735,2.52652 4.71749,2.27033 7.027073,3.06802 9.935684,3.43163 2.2621,0.28279 5.62728,0.31492 7.40833,0.0707 z m 60.84093,-7.94124 c -0.13824,-0.1273 -1.42558,-1.10957 -2.86076,-2.18281 -1.43517,-1.07324 -3.74357,-2.80162 -5.12977,-3.84085 -2.85744,-2.14222 -5.86517,-3.96194 -8.00353,-4.84227 -2.00208,-0.82422 -2.1845,-1.07419 -0.78052,-1.06952 1.69475,0.006 3.95556,0.59442 7.41228,1.93041 3.149,1.21706 10.72762,4.84003 13.1577,6.29006 0.77051,0.45976 1.47771,0.75914 1.57155,0.6653 0.25286,-0.25286 -2.16158,-2.64032 -4.42767,-4.37819 -2.76608,-2.12131 -5.61134,-3.91281 -7.89958,-4.97391 -1.07054,-0.49643 -2.3207,-1.1422 -2.77812,-1.43503 l -0.83168,-0.53244 1.90039,0.13972 c 3.54609,0.26072 9.20676,2.51541 14.18558,5.65024 1.2802,0.80605 2.39617,1.39702 2.47993,1.31327 0.0838,-0.0838 -0.53799,-0.93853 -1.38166,-1.89948 -1.86585,-2.12523 -5.8156,-4.82451 -9.44518,-6.45489 -1.41883,-0.63732 -2.57968,-1.27813 -2.57968,-1.424 0,-0.45346 4.20347,0.005 6.55291,0.71485 1.203,0.36343 3.2866,1.12441 4.6302,1.69107 1.34361,0.56666 2.64747,1.10292 2.89747,1.19169 0.89451,0.3176 0.71028,-0.30103 -0.39172,-1.31534 -2.36394,-2.17584 -5.0014,-3.59072 -8.88517,-4.76652 -2.01429,-0.60982 -2.77612,-0.69646 -6.32455,-0.71922 -2.21892,-0.0142 -4.03462,-0.11212 -4.03489,-0.21752 -0.001,-0.4159 1.66395,-1.01501 3.54992,-1.27733 2.32807,-0.3238 7.92487,0.0208 11.14669,0.68626 2.33895,0.48312 5.06015,1.44863 6.3775,2.26279 0.97368,0.60177 1.00696,0.55428 0.61091,-0.87171 -0.5926,-2.13369 -3.81019,-3.75105 -9.65658,-4.85399 -4.13659,-0.78038 -9.9644,-0.17021 -13.30261,1.39279 -0.77327,0.36206 -1.47422,0.59001 -1.55766,0.50657 -0.40642,-0.40641 2.03967,-1.9942 6.62997,-4.30359 5.72828,-2.88192 8.36738,-4.6218 10.88314,-7.17496 2.00314,-2.03291 2.81944,-3.3694 3.75688,-6.15101 0.57461,-1.70503 0.65192,-2.31918 0.54947,-4.36563 -0.11203,-2.23815 -0.76264,-4.63042 -1.25929,-4.63042 -0.11296,0 -0.28841,0.68461 -0.3899,1.52135 -0.10149,0.83675 -0.48154,2.41433 -0.84457,3.50573 -2.13664,6.42365 -6.02897,10.48165 -13.98083,14.57589 -6.2553,3.22072 -8.63123,5.24587 -10.24713,8.73427 -0.94227,2.03416 -1.51995,2.58021 -5.78607,5.46935 -0.66909,0.45313 -1.42347,1.13971 -1.6764,1.52573 -0.27572,0.42079 -1.24542,1.05984 -2.42149,1.5958 -1.07889,0.49166 -1.96162,1.016 -1.96162,1.1652 0,0.15059 0.61791,0.27215 1.38906,0.27326 3.91544,0.006 7.22512,1.13162 16.04743,5.45948 5.11455,2.50899 9.78784,4.64701 11.93226,5.45897 0.64577,0.24452 1.45626,0.21738 1.17739,-0.0394 z m -71.41101,-0.58372 c 0.09723,-0.15732 0.550738,-0.51406 1.007803,-0.79277 l 0.831027,-0.50673 -4.881562,-9.9e-4 c -5.254535,-10e-4 -5.80734,0.21779 -2.262188,0.89559 1.164167,0.22257 2.354792,0.45527 2.645833,0.51711 1.065184,0.22631 2.486946,0.16632 2.659087,-0.11221 z m 14.59813,-0.94813 c 0.14437,-0.43607 -2.92473,-0.72394 -4.99853,-0.46885 l -1.67535,0.20608 1.05833,0.33609 c 1.3145,0.41745 5.47104,0.36317 5.61555,-0.0733 z m 12.98841,-2.56502 0.71062,-0.71047 0.0872,-13.04511 0.0872,-13.04511 -0.9563,-0.83965 -0.95631,-0.83965 -3.23194,-0.009 c -5.01451,-0.0143 -29.456941,-0.0166 -31.63496,-0.003 -1.851803,0.0116 -1.987655,0.0551 -2.844271,0.91175 l -0.899583,0.89959 v 12.8852 12.88521 l 0.934469,0.93447 0.934469,0.93447 18.529396,-0.12403 18.52939,-0.12403 z m -36.584327,-2.7971 c -0.08372,-0.13546 -0.0015,-0.34382 0.182822,-0.46302 0.394218,-0.25499 33.959445,-0.28259 34.213905,-0.0281 0.67222,0.67222 -0.85014,0.73745 -17.21011,0.73745 -10.227916,0 -17.095219,-0.0984 -17.186617,-0.2463 z m -0.143591,-4.9583 c 0,-0.28889 3.092594,-0.35165 17.330208,-0.35165 15.45729,0 17.33021,0.0442 17.33021,0.40904 0,0.36542 -1.84817,0.40292 -17.33021,0.35165 -14.208826,-0.047 -17.330208,-0.12073 -17.330208,-0.40904 z m 0,-4.71727 c 0,-0.34863 2.034216,-0.39644 16.734898,-0.39326 9.20419,0.002 17.00278,0.0754 17.3302,0.16315 0.32743,0.0877 0.59532,0.26471 0.59532,0.39326 0,0.13286 -7.47853,0.23372 -17.33021,0.23372 -15.22824,0 -17.330208,-0.0481 -17.330208,-0.39687 z m 0.311329,-4.76865 c 0.07538,-0.35511 1.87831,-0.40423 15.166799,-0.41321 20.7059,-0.014 19.18229,-0.0473 19.18229,0.41936 0,0.34871 -2.08943,0.39687 -17.21732,0.39687 -15.28201,0 -17.207699,-0.0453 -17.131769,-0.40302 z m -0.167738,-5.35166 c -0.100797,-0.26253 3.47693,-0.33073 17.349257,-0.33073 12.15022,0 17.44787,0.0851 17.38312,0.27938 -0.14611,0.43833 -34.564257,0.48922 -34.732377,0.0513 z m -5.964424,18.32239 v -1.45521 h -1.5875 -1.5875 v 1.45521 1.45521 h 1.5875 1.5875 z m 49.212501,-0.1606 v -1.29461 h -1.45521 -1.45521 v 1.30771 1.3077 l 1.12448,0.0824 c 1.68058,0.12315 1.78594,0.0404 1.78594,-1.4032 z m -91.158885,0.68127 c 1.515146,-0.44046 4.337796,-2.03152 6.227636,-3.51037 4.335426,-3.39256 9.24487,-9.5499 13.276066,-16.65059 1.94124,-3.41936 4.987594,-9.50753 5.662203,-11.31596 0.561829,-1.50609 1.623184,-3.49364 1.985038,-3.71728 0.512947,-0.31702 0.190165,-0.66758 -1.313669,-1.42671 -2.612979,-1.31903 -3.118885,-2.20904 -1.419535,-2.49731 1.152833,-0.19556 3.168273,-1.59934 4.105817,-2.85976 1.307137,-1.75728 2.214126,-6.90138 1.660921,-9.42011 -0.179107,-0.81547 -0.153711,-0.84862 0.650183,-0.84862 0.460114,0 1.649585,-0.35683 2.643268,-0.79296 2.203541,-0.96714 4.208821,-1.45408 5.083775,-1.23448 0.359499,0.0902 1.595542,0.77975 2.746762,1.53227 2.556731,1.67126 3.57189,2.11251 4.902374,2.13088 1.080253,0.0149 2.359419,-0.6304 2.336649,-1.17879 -0.01613,-0.38853 -5.757201,-4.66994 -7.262562,-5.41607 -0.582083,-0.2885 -1.713177,-0.73552 -2.513542,-0.99337 -1.734908,-0.55893 -1.818676,-0.6186 -1.315254,-0.93698 0.65106,-0.41174 1.719743,-0.28747 3.746882,0.43569 3.289531,1.17352 4.959804,2.22167 7.647497,4.79907 1.40304,1.34546 2.979603,2.62538 3.503472,2.84427 1.36036,0.56839 2.898529,0.51467 3.474109,-0.12134 0.623643,-0.68912 0.384291,-1.198 -0.862684,-1.83416 -0.566322,-0.28892 -2.097252,-1.57674 -3.402068,-2.86182 -1.920071,-1.89104 -2.897394,-2.61253 -5.126001,-3.7842 -1.743983,-0.91688 -2.575667,-1.48195 -2.268298,-1.54114 0.960452,-0.18497 2.765594,0.25961 4.554194,1.12162 1.725291,0.83151 2.624064,1.55185 8.0198,6.42762 2.074433,1.87453 3.365042,2.4936 4.383652,2.10273 0.69666,-0.26734 0.43182,-1.14399 -0.58196,-1.92632 -0.944764,-0.72906 -3.561694,-3.0792 -5.764577,-5.17688 -1.320661,-1.25759 -3.897016,-2.61935 -6.483764,-3.42706 -3.619598,-1.13021 -10.271091,-0.60812 -14.461515,1.13513 -2.673001,1.11199 -6.413167,3.65438 -8.017784,5.45011 -1.993893,2.23136 -2.777534,3.52423 -6.168661,10.1772 -3.357861,6.5877 -4.858611,8.94946 -8.254277,12.98989 -0.586008,0.69728 -2.732344,2.65352 -4.769636,4.3472 -4.979204,4.13941 -6.519838,5.65032 -8.249295,8.09014 -1.377313,1.94303 -2.172087,2.48223 -1.987957,1.34868 0.188803,-1.16232 2.027182,-4.5658 3.351655,-6.20507 0.784885,-0.97144 2.988659,-3.05143 4.897276,-4.6222 5.531088,-4.55203 10.029748,-10.14302 10.479402,-13.02393 0.153967,-0.98646 0.114527,-1.12419 -0.321328,-1.12215 -0.27326,0.001 -1.389805,0.48309 -2.481212,1.07069 -2.242069,1.2071 -7.600815,3.84431 -11.422736,5.62149 -1.906615,0.88657 -2.658417,1.3823 -2.94831,1.94411 -0.214013,0.41475 -0.768699,2.65909 -1.232635,4.98742 -0.463935,2.32834 -1.361754,6.31693 -1.995152,8.86354 -1.705158,6.85569 -2.057746,9.00159 -2.086717,12.7 -0.03217,4.10751 0.457116,5.87835 2.097149,7.58999 1.018018,1.06246 1.189764,1.14126 2.487223,1.14126 0.766532,0 2.021189,-0.18241 2.788126,-0.40537 z m 98.918135,-12.37399 c 1.3146,-4.09302 1.8861,-6.34955 2.66027,-10.50397 1.60306,-8.60241 3.35558,-25.30924 3.87173,-36.90937 0.14892,-3.34698 0.44713,-8.69788 0.66267,-11.89089 0.59091,-8.75342 0.50074,-11.26015 -0.40505,-11.26015 -0.48031,0 -1.0765,1.2735 -1.31665,2.81244 -0.1333,0.85425 -0.36817,4.41068 -0.52193,7.90318 -0.82015,18.62879 -1.31318,25.27635 -2.80617,37.83542 -0.90923,7.64851 -2.07484,14.31231 -3.8024,21.73831 -0.44553,1.91513 -0.80522,3.82013 -0.7993,4.23333 l 0.0108,0.75127 0.74715,-0.87311 c 0.46875,-0.54778 1.1018,-1.9773 1.69893,-3.83646 z m 8.95577,-2.41764 c 0.0982,-0.13643 1.05071,-1.13039 2.11667,-2.20881 1.7659,-1.78655 3.77155,-3.23362 9.24638,-6.67127 5.20056,-3.26543 9.75189,-9.53592 11.17798,-15.40021 0.41472,-1.70538 0.59782,-4.43352 0.27595,-4.11166 -0.0855,0.0855 -0.6678,1.29304 -1.29396,2.68337 -1.20088,2.66645 -3.46174,6.2316 -5.2147,8.22307 -1.15807,1.31563 -3.85659,3.5532 -6.6973,5.5533 -3.02206,2.12777 -7.77836,7.0913 -9.35805,9.76577 -1.42371,2.41039 -1.76076,3.45693 -0.89456,2.77761 0.25467,-0.19972 0.54338,-0.47475 0.64159,-0.61117 z m 8.3252,-13.45058 c 2.43467,-1.89774 3.27423,-2.75194 4.82533,-4.90948 3.97784,-5.53308 6.30912,-12.0714 6.5743,-18.43835 0.13191,-3.16712 -0.17621,-6.28865 -0.76161,-7.71583 -0.26864,-0.65492 -0.34881,-0.30089 -0.65634,2.89838 -0.99171,10.31689 -5.18769,19.0365 -13.2099,27.45134 -3.65099,3.82969 -4.52982,4.94208 -6.10234,7.72415 -1.60593,2.84119 -0.85988,2.52957 2.86789,-1.19789 1.93334,-1.93316 4.84153,-4.54871 6.46267,-5.81232 z m -5.12414,-1.29481 c 4.79725,-5.30221 7.76342,-10.70682 9.85293,-17.95281 1.17855,-4.08697 1.6178,-6.9337 1.85701,-12.03503 0.19787,-4.21993 -0.10557,-7.40699 -0.86889,-9.12601 l -0.41121,-0.92604 -0.22801,1.4552 c -0.92403,5.89742 -1.80954,9.00122 -3.58555,12.56771 -2.32706,4.67311 -8.10061,14.49916 -7.38447,12.56771 0.0809,-0.21828 1.22251,-3.07062 2.53683,-6.33852 4.65085,-11.56375 5.40706,-14.46117 5.42383,-20.78127 0.01,-3.61124 -0.0597,-4.36331 -0.47129,-5.11782 -0.26539,-0.48646 -0.54751,-0.8195 -0.62694,-0.74008 -0.0794,0.0794 -0.24862,1.17265 -0.376,2.42939 -0.28384,2.80033 -1.63825,8.82132 -2.51888,11.19768 -1.4276,3.85229 -2.85326,7.24446 -2.93794,6.99042 -0.0492,-0.14764 0.38348,-2.27879 0.96155,-4.73589 1.39799,-5.94227 1.69477,-8.0479 1.7111,-12.14037 0.01,-2.49446 -0.0981,-3.7263 -0.39333,-4.48302 -0.65183,-1.67089 -0.95929,-1.44962 -1.15459,0.83092 -0.30684,3.58299 -2.41233,13.19112 -2.70431,12.34078 -0.058,-0.16893 0.003,-2.66924 0.1357,-5.55624 0.24605,-5.35519 0.18276,-7.43437 -0.23989,-7.88171 -0.14498,-0.15345 -0.23748,-0.0498 -0.23748,0.26621 0,0.28465 -0.17088,2.00511 -0.37974,3.82323 -0.65175,5.67368 -0.93564,9.25009 -1.06048,13.35983 -0.18899,6.22182 -0.42714,11.61336 -0.67348,15.24718 -0.14342,2.11552 -0.13022,3.71677 0.036,4.36562 0.14435,0.56359 0.32598,1.2842 0.40362,1.60137 0.0776,0.31717 -0.12208,1.78666 -0.44381,3.26553 -0.38302,1.76054 -0.49524,2.77861 -0.32504,2.9488 0.26823,0.26823 2.67971,-3.06428 5.15055,-7.1177 0.68881,-1.13 1.72184,-2.76892 2.29563,-3.64205 0.57379,-0.87312 1.19019,-1.91492 1.36978,-2.3151 0.36868,-0.82158 0.7724,-0.96076 0.76745,-0.26459 -0.006,0.86503 -2.56569,6.80262 -3.9634,9.19427 -3.67483,6.28813 -4.81088,8.41484 -4.9487,9.26413 -0.0823,0.50728 -0.0448,0.91308 0.0834,0.90177 0.12818,-0.0113 1.63482,-1.56988 3.3481,-3.4635 z m -31.87687,-0.37901 0.61899,-0.40558 -0.0838,-9.62673 c -0.0649,-7.45649 -0.16133,-9.70419 -0.42775,-9.97036 -0.26606,-0.26582 -2.06352,-0.34363 -7.9375,-0.34363 -6.70591,0 -7.75775,0.0572 -8.99834,0.48951 -1.50092,0.52301 -2.536006,0.45974 -3.870634,-0.23657 -0.714402,-0.37272 -0.798611,-0.36796 -1.037325,0.0586 -0.995111,1.77816 -2.208745,2.05145 -4.537227,1.02168 l -1.472369,-0.65115 0.07576,9.3614 0.07576,9.36139 0.628193,0.66837 c 0.345507,0.36761 0.881288,0.70448 1.190625,0.74861 0.309338,0.0441 6.096124,0.0464 12.859527,0.005 10.51493,-0.0642 12.3868,-0.13389 12.91608,-0.48068 z m -11.20236,-1.23245 c -0.0703,-0.18316 -0.0963,-4.14198 -0.0578,-8.79739 l 0.07,-8.46438 3.175,-0.0766 c 1.74625,-0.0421 3.44289,-0.0101 3.77031,0.0712 l 0.59531,0.14781 v 8.72621 8.72621 h -3.71247 c -2.73951,0 -3.74596,-0.0873 -3.84026,-0.33302 z M 82.733362,146.65085 c -0.202111,-0.64006 -0.236525,-0.0966 -0.138782,2.1916 0.07148,1.67349 0.157782,4.59052 0.191771,6.48229 0.04095,2.27888 0.08778,1.53931 0.138783,-2.1916 0.04525,-3.30971 -0.03381,-5.98205 -0.191772,-6.48229 z m 43.914428,6.68952 v -1.85208 h -0.92604 -0.92604 v 1.70221 c 0,1.65386 0.0207,1.70535 0.7276,1.81244 0.40018,0.0606 0.8169,0.12807 0.92604,0.14987 0.10914,0.0218 0.19844,-0.79379 0.19844,-1.81244 z m -21.96041,-11.3736 c 0.74292,-0.4736 -0.0832,-1.14501 -2.0049,-1.62954 -2.29831,-0.57946 -2.36905,-0.58197 -1.94311,-0.0687 0.39655,0.47781 2.88299,1.95523 3.28655,1.95284 0.14552,-8.7e-4 0.44317,-0.11542 0.66146,-0.25457 z m 4.55333,-38.76208 c 1.84672,-0.90425 5.21761,-3.980459 6.61235,-6.034309 2.09427,-3.083946 5.5044,-11.423331 6.00928,-14.695526 0.33205,-2.152055 0.13483,-4.514412 -0.39382,-4.717273 -0.18844,-0.07231 -1.15402,0.26196 -2.14574,0.742825 -2.98144,1.445649 -6.15879,1.106761 -7.88853,-0.841372 -0.29104,-0.327787 -0.4101,-0.542806 -0.26458,-0.477819 0.14552,0.06499 0.95258,0.439569 1.79348,0.832405 0.99533,0.464986 1.91869,0.700413 2.64583,0.674605 0.88811,-0.03152 0.95432,-0.06234 0.32319,-0.150444 -0.43657,-0.06094 -1.83402,-0.586856 -3.10545,-1.168701 -1.27144,-0.581845 -2.44786,-0.973749 -2.61428,-0.870897 -0.58963,0.364414 -0.11702,4.518144 0.81063,7.124477 0.46615,1.309687 1.0857,3.095625 1.3768,3.96875 0.29109,0.873125 0.77334,2.22102 1.07166,2.995324 0.29832,0.774303 0.54241,1.692048 0.54241,2.039432 0,0.969313 -2.45851,4.654278 -3.51895,5.27442 -0.72473,0.423821 -1.5067,0.554254 -3.79487,0.632988 -3.21644,0.110674 -4.4805,-0.15281 -5.71449,-1.191146 -0.80476,-0.677162 -1.739959,-2.148551 -1.511072,-2.377438 0.06483,-0.06483 0.708212,0.249107 1.429742,0.697634 1.38255,0.859443 1.94095,0.947534 5.38376,0.849315 1.66828,-0.04759 2.18075,-0.175769 3.10885,-0.777565 0.61122,-0.396317 1.1113,-0.813036 1.1113,-0.926042 0,-0.2779 -1.65374,-0.256556 -3.4955,0.04511 -0.98009,0.160535 -1.8169,0.153805 -2.38125,-0.01915 -1.53266,-0.469711 -6.058065,-0.746942 -6.610231,-0.40495 -1.100288,0.681481 -1.407305,-1.566664 -0.357339,-2.616631 0.867353,-0.867353 1.387637,-0.82041 1.599527,0.144318 0.200476,0.912763 0.642305,0.995851 2.086583,0.392394 1.07537,-0.449317 1.91306,-0.332541 3.38052,0.471247 l 0.96919,0.530864 0.97044,-0.599768 c 0.81807,-0.505592 1.21635,-0.577469 2.53654,-0.457758 0.86136,0.0781 1.5661,0.09682 1.5661,0.0416 0,-0.244677 -1.58367,-0.874466 -2.97559,-1.183323 -1.35873,-0.301492 -1.57356,-0.289239 -2.02051,0.115245 -0.47679,0.431488 -0.5301,0.41431 -1.14245,-0.368139 -0.54637,-0.698124 -0.89673,-0.856441 -2.34512,-1.059669 -1.40387,-0.196981 -1.83052,-0.381192 -2.430391,-1.049357 -1.051283,-1.170961 -1.031242,-2.920404 0.04579,-3.997439 0.425371,-0.425368 0.971731,-0.773397 1.214141,-0.773397 0.35836,0 0.3127,0.152178 -0.24423,0.81405 -0.72757,0.864675 -0.912431,2.187957 -0.35425,2.535847 0.18191,0.11337 0.92605,0.289226 1.65365,0.390791 0.7276,0.101564 1.79983,0.265731 2.38271,0.364815 0.88902,0.151123 1.14403,0.08708 1.58249,-0.397412 0.49165,-0.543272 0.52299,-0.980781 0.5277,-7.368349 0.005,-6.571766 0.0252,-6.835512 0.63196,-8.177635 1.14661,-2.536403 4.32098,-4.627518 7.53821,-4.965798 1.99824,-0.210108 4.84478,0.342986 6.75998,1.313495 l 1.36467,0.691527 -0.0627,-1.265769 c -0.0345,-0.696173 0.0272,-2.277801 0.13716,-3.514728 0.24591,-2.767048 -0.14566,-3.72324 -1.95626,-4.777081 -2.37318,-1.381279 -6.4834,-2.457277 -9.0965,-2.381333 -1.24105,0.03607 -2.14767,-0.08898 -2.80978,-0.387548 -0.89831,-0.405084 -1.04355,-0.406648 -1.79261,-0.01929 -1.01766,0.526252 -1.78632,0.531392 -3.2312,0.02161 -1.0113,-0.356807 -1.19919,-0.356807 -1.74375,0 -0.78924,0.517133 -2.555233,0.511928 -3.565514,-0.01051 -0.738942,-0.382122 -0.85415,-0.373005 -1.671736,0.132291 -0.990524,0.612177 -1.803363,0.678137 -3.04083,0.246753 -0.748688,-0.260994 -0.924963,-0.224527 -1.492656,0.308793 -0.455483,0.427905 -1.061871,0.639413 -2.073752,0.723326 -1.198612,0.0994 -1.521363,0.242109 -1.994331,0.881832 -0.451679,0.610929 -0.767163,0.763243 -1.580886,0.763243 -0.978087,0 -1.022883,0.03931 -1.182552,1.037828 -0.103384,0.646532 -0.466276,1.33815 -0.96249,1.834364 -0.587217,0.587216 -0.83663,1.131453 -0.949111,2.071025 -0.08392,0.70097 -0.303244,1.691209 -0.487393,2.200532 -0.221054,0.611394 -0.350446,2.724029 -0.380814,6.217708 -0.0253,2.910417 -0.113774,5.94651 -0.196612,6.746875 -0.134466,1.29918 0.197804,4.116967 0.613078,5.199153 0.115997,0.302283 0.0022,0.381202 -0.453085,0.314233 -0.49715,-0.07313 -0.759826,-0.499405 -1.440923,-2.338386 -0.458117,-1.236927 -1.153302,-2.79438 -1.544856,-3.461006 -0.391554,-0.666626 -0.783992,-1.79772 -0.872084,-2.513541 -0.08809,-0.715822 -0.388538,-1.627217 -0.667656,-2.025322 -0.479487,-0.683891 -0.483795,-0.778779 -0.07807,-1.719792 l 0.429414,-0.995964 0.490907,1.124479 c 0.269999,0.618464 0.604268,1.12448 0.74282,1.12448 0.279665,0 1.621869,-1.512785 1.621869,-1.827992 0,-0.282667 -1.828446,-0.810304 -2.24889,-0.648965 -0.196671,0.07547 -0.425133,-0.105465 -0.523162,-0.414325 -0.38573,-1.215329 -1.461281,-0.280591 -1.461281,1.269969 0,1.596827 1.417034,6.859431 3.072552,11.410895 0.999503,2.747902 1.010395,2.819862 1.001171,6.614583 -0.0074,3.031934 -0.130323,4.324096 -0.586316,6.161809 -0.773519,3.11738 -0.751567,4.17345 0.107987,5.19497 0.924208,1.09836 1.903052,1.08257 3.104006,-0.0501 1.806093,-1.70336 2.419374,-5.538261 1.504269,-9.406329 -0.320775,-1.355891 -0.51189,-2.536594 -0.424699,-2.623785 0.223436,-0.223435 0.20418,-0.255038 1.845202,3.028393 2.901008,5.804472 7.373703,9.694121 11.873222,10.325471 0.798023,0.11198 0.992188,0.0547 0.992188,-0.29249 0,-0.23744 0.02976,-0.42671 0.06615,-0.4206 0.03638,0.006 0.959114,0.24309 2.050524,0.52662 2.68554,0.69767 5.2444,0.55458 7.19917,-0.40258 z M 82.109598,100.5119 c -0.316684,-0.31669 -0.186671,-2.167609 0.383316,-5.457052 0.307838,-1.776557 0.600359,-3.274579 0.650048,-3.328936 0.04969,-0.05436 0.26317,-0.03251 0.474404,0.04855 0.890143,0.34158 0.784846,6.212021 -0.148153,8.259728 -0.282259,0.61949 -0.974581,0.86274 -1.359615,0.47771 z M 92.905547,78.997165 c -0.783519,-0.310504 -1.817177,-1.032708 -2.513541,-1.756179 -1.218771,-1.266213 -1.129608,-1.272308 0.674344,-0.0461 1.04925,0.713212 3.720388,1.559372 4.746926,1.503725 0.296848,-0.01609 -0.08657,-0.182152 -0.852051,-0.369022 -0.765476,-0.186871 -2.194226,-0.843527 -3.174999,-1.459236 -0.980774,-0.615709 -2.140413,-1.150972 -2.576976,-1.189472 -1.060486,-0.09352 -1.035749,-0.07389 -0.661458,-0.524887 0.447785,-0.539548 1.473849,-0.498505 3.307292,0.132291 1.840516,0.633231 4.419865,0.68587 6.482291,0.132292 3.145835,-0.844378 3.700175,-0.230759 1.55531,1.721629 -2.501216,2.276757 -4.550167,2.820716 -6.987138,1.854959 z m 9.665163,-5.649446 c -1.13467,-1.649976 -2.21709,-2.403663 -4.436608,-3.089201 -3.439719,-1.062421 -6.597908,-0.43848 -9.973695,1.970432 -0.970831,0.69277 -1.836798,1.187931 -1.924372,1.100356 -0.294506,-0.294505 1.053997,-2.759858 2.018027,-3.689387 3.468689,-3.344551 9.652145,-3.315184 13.147138,0.06244 1.13635,1.098191 2.30292,3.431567 2.17959,4.359614 -0.0755,0.567873 -0.17845,0.495051 -1.01008,-0.714254 z m 1.52135,-4.430629 c -0.67867,-0.395288 -1.25677,-1.666758 -1.25677,-2.764142 0,-1.36336 1.17212,-2.508505 2.55934,-2.500445 2.4636,0.01431 3.58119,2.713073 1.91117,4.615119 -0.66252,0.754564 -1.00755,0.933693 -1.78594,0.927202 -0.53063,-0.0044 -1.17314,-0.129405 -1.4278,-0.277734 z m 23.44786,30.382132 c -1.14196,-2.776066 -1.182,-2.831634 -1.03275,-1.433422 0.16198,1.517592 0.85028,3.08707 1.35383,3.08707 0.26825,0 0.18697,-0.41859 -0.32108,-1.653648 z M 110.04563,86.632264 c 0.4201,-0.56486 0.46037,-0.799551 0.21568,-1.256771 -0.54935,-1.026472 -1.61368,-0.632585 -1.94575,0.720083 -0.35944,1.464183 0.77789,1.816996 1.73007,0.536688 z M 81.597075,78.050775 c 0.390373,-0.818621 0.398458,-0.973681 0.06187,-1.186574 -0.789769,-0.499524 -1.313232,-0.292602 -1.313232,0.519112 0,1.774868 0.576616,2.082427 1.251366,0.667462 z M 118.03203,75.5295 c 1.21672,-0.306374 3.05951,-1.638186 3.05951,-2.211154 0,-0.735456 -2.26025,-2.446169 -3.68287,-2.78745 -3.3047,-0.792786 -6.26171,0.706853 -7.40447,3.755159 -0.2574,0.686594 -0.22664,0.724993 0.71281,0.889808 0.54,0.09474 1.39854,0.26589 1.90786,0.380341 1.38857,0.312028 4.11541,0.298562 5.40716,-0.0267 z M 81.363263,69.319002 c 0.459061,-1.007527 0.397115,-1.125734 -0.773767,-1.476539 -0.90091,-0.269919 -1.118723,-0.260749 -1.318865,0.05553 -0.381341,0.602612 -0.286116,1.882377 0.178244,2.395489 0.381606,0.42167 0.487824,0.430362 1.017554,0.08327 0.32531,-0.21315 0.728885,-0.689135 0.896834,-1.057744 z m -3.188746,-1.182967 c 0.675962,-1.183631 0.591063,-1.578998 -0.339065,-1.578998 -1.178399,0 -1.763041,1.053234 -1.1846,2.13406 0.415643,0.776637 0.854431,0.616789 1.523665,-0.555062 z m 2.985295,-2.881562 c 0.96123,-0.96123 1.000266,-1.780413 0.104294,-2.188645 -0.561562,-0.255864 -0.784817,-0.218552 -1.389062,0.232151 -0.890864,0.66449 -1.021497,1.241557 -0.471183,2.081442 0.54757,0.835696 0.814285,0.816718 1.755951,-0.124948 z m 48.887668,-0.04239 c 0.50307,-0.636572 0.55995,-0.860762 0.29833,-1.175986 -0.65818,-0.793059 -1.84594,-0.277563 -1.84594,0.801152 0,0.521228 0.45623,1.208609 0.78052,1.175986 0.08,-0.0081 0.42523,-0.36857 0.76709,-0.801152 z M 78.178776,64.127208 c 0.08782,-0.760196 -0.592196,-2.332671 -1.008762,-2.332671 -0.138429,0 -0.451559,0.305039 -0.695844,0.677865 -0.415297,0.633824 -0.415418,0.738125 -0.0019,1.605348 0.554549,1.1629 1.574433,1.192459 1.706475,0.04946 z m 1.490472,-2.391543 c 0.612907,-0.875047 0.540433,-2.245917 -0.129986,-2.458699 -1.127591,-0.357884 -1.835758,0.980884 -1.184766,2.239764 0.496786,0.960678 0.764043,1.005182 1.314752,0.218935 z m 3.516379,-1.416906 c 0.7062,-1.240132 0.740682,-1.767204 0.172361,-2.634572 -0.560119,-0.85485 -1.249456,-0.826602 -1.841324,0.07545 -0.583601,0.889455 -0.579083,2.232174 0.01054,3.132049 0.557344,0.850613 0.918912,0.725704 1.658426,-0.572931 z m 45.330333,-0.134315 c 0.53985,-0.758152 0.55021,-0.847416 0.14534,-1.252285 -0.54876,-0.548768 -1.23753,-0.182387 -1.60704,0.854842 -0.19526,0.548093 -0.16427,0.773161 0.13229,0.96073 0.58477,0.369861 0.6996,0.321206 1.32941,-0.563287 z M 77.352094,59.102583 c 0.709639,-0.666671 0.754346,-0.981487 0.239387,-1.685735 -0.366002,-0.500537 -0.383322,-0.500716 -0.926041,-0.0096 -0.560328,0.507089 -0.684223,1.09176 -0.392465,1.85207 0.210861,0.549493 0.34864,0.529477 1.079119,-0.156773 z m 9.065432,-1.323152 c 0.694413,-0.745365 0.976362,-2.209318 0.529257,-2.748046 -0.591694,-0.712948 -1.65215,-0.359053 -2.183892,0.728808 -0.441268,0.902764 -0.445784,1.038659 -0.05935,1.785938 0.494043,0.955373 0.979689,1.021477 1.713987,0.2333 z m -5.735285,-0.939457 c 0.559783,-0.958481 0.429553,-1.779191 -0.348387,-2.195531 -1.100595,-0.589021 -2.030435,1.399126 -1.244916,2.661831 0.446989,0.718524 0.994996,0.558143 1.593303,-0.4663 z m 44.110529,0.0628 0.89462,-0.923013 -0.62425,-0.664487 c -0.74621,-0.794296 -1.4702,-0.854203 -1.84562,-0.152715 -0.50274,0.939366 -0.26714,2.663227 0.36397,2.663227 0.17416,0 0.71924,-0.415355 1.21128,-0.923012 z M 90.07852,56.278973 c 0.429366,-0.272431 1.379689,-2.026909 1.379689,-2.547169 0,-0.215454 -0.281586,-0.576236 -0.625745,-0.801738 -0.760402,-0.498235 -1.752654,-0.205756 -2.390263,0.704559 -0.592059,0.845282 -0.529092,1.463865 0.225856,2.218814 0.700926,0.700925 0.887648,0.757259 1.410463,0.425534 z m 30.30456,-1.151625 c 0.8627,-0.990369 0.92967,-1.168256 0.61707,-1.639055 -0.19286,-0.290464 -0.5396,-0.647303 -0.77054,-0.792976 -0.59912,-0.377917 -1.73149,0.199294 -1.92815,0.982853 -0.16773,0.668297 0.48267,2.560117 0.88015,2.560117 0.12856,0 0.66922,-0.499922 1.20147,-1.110939 z M 94.996201,54.980892 c 0.20712,-0.400526 0.626896,-0.95476 0.932836,-1.231632 0.670839,-0.607101 0.692819,-0.890278 0.118373,-1.525035 -0.999282,-1.104193 -3.332431,-0.05363 -3.332431,1.500521 0,0.500745 0.244506,0.974487 0.709286,1.374273 0.910467,0.783151 1.113767,0.767873 1.571936,-0.118127 z m 5.548779,-0.948599 c 0.87162,-1.265542 0.95772,-1.520842 0.66891,-1.983301 -0.67981,-1.088558 -2.431449,-0.894994 -3.253439,0.359521 -0.449375,0.685833 -0.449393,0.760775 -4.23e-4,1.756414 0.43732,0.969801 1.099882,1.619437 1.438329,1.410265 0.08043,-0.04971 0.596415,-0.744014 1.146623,-1.542899 z M 83.510402,54.86548 c 0.651396,-0.699191 0.72906,-2.373806 0.133032,-2.868465 -0.340165,-0.282312 -0.535899,-0.213288 -1.200345,0.423292 -1.026399,0.983352 -1.240975,1.833393 -0.632523,2.505725 0.606317,0.669972 1.033424,0.654758 1.699836,-0.06055 z m 21.929308,-0.725181 c 0.60486,-0.717332 1.09975,-1.526957 1.09975,-1.799167 0,-1.276533 -1.62119,-1.512679 -2.9144,-0.424517 -0.70642,0.594409 -0.81309,0.831627 -0.67791,1.507523 0.17724,0.88622 0.83726,2.020399 1.17574,2.020399 0.11939,0 0.71196,-0.586907 1.31682,-1.304238 z m 10.34461,0.09571 0.8679,-1.208531 -0.60458,-0.643553 c -0.77361,-0.82347 -1.42376,-0.814526 -2.26951,0.03122 -0.73904,0.739047 -0.70288,1.676575 0.099,2.566372 0.63236,0.7017 0.95982,0.573701 1.9072,-0.745509 z m -37.293212,0.06977 c 0.355238,-0.630073 0.349993,-0.743824 -0.05287,-1.146684 -0.802009,-0.802009 -1.588136,0.348353 -1.102642,1.613529 0.219695,0.572517 0.672701,0.389495 1.155508,-0.466845 z m 32.188122,-0.118011 c 1.17453,-1.477473 1.18951,-1.534469 0.59992,-2.284005 -0.68208,-0.867128 -1.14882,-0.870758 -2.26732,-0.01763 -0.99268,0.757151 -1.10089,1.391283 -0.43095,2.5254 0.60626,1.026326 1.15073,0.968265 2.09835,-0.223761 z m 14.89102,-1.557035 c 0.66277,-0.842567 0.67927,-1.100926 0.11049,-1.729423 -0.54081,-0.597595 -1.82735,-0.638654 -2.04735,-0.06534 -0.74732,1.94749 0.73574,3.321744 1.93686,1.794763 z m -37.907951,-0.755301 1.282368,-1.187857 -0.753523,-0.673829 c -0.875972,-0.783329 -1.57439,-0.696981 -2.487623,0.307555 -0.660783,0.726846 -0.716291,1.066423 -0.337277,2.063306 0.363041,0.954871 0.82647,0.852101 2.296055,-0.509175 z m -6.806627,0.226134 c 0.863345,-1.097564 0.561259,-2.742443 -0.503657,-2.742443 -0.7024,0 -0.903562,0.439817 -0.832149,1.819396 0.09564,1.847549 0.427961,2.077186 1.335806,0.923047 z m 12.182222,-1.702865 c 1.687486,-1.333881 1.744445,-2.095353 0.185535,-2.480365 -0.671091,-0.165742 -1.162165,-0.157365 -1.455209,0.02483 -0.481479,0.299343 -1.632928,1.885097 -1.632928,2.248838 0,0.300813 0.994744,1.283789 1.299158,1.283789 0.132453,0 0.854003,-0.48469 1.603444,-1.077088 z m 27.239596,0.39211 c 0.91029,-0.765961 1.04717,-1.593265 0.35103,-2.121709 -1.08829,-0.826134 -2.4474,-0.149088 -2.4474,1.219188 0,0.721029 0.57689,1.587499 1.05694,1.587499 0.12396,0 0.5917,-0.30824 1.03943,-0.684978 z m -20.9018,-1.476447 1.43519,-1.35733 -0.60461,-0.489581 c -0.332529,-0.269269 -0.990523,-0.48958 -1.462204,-0.48958 -1.08936,0 -2.628769,1.021707 -2.74359,1.820922 -0.09947,0.692331 0.868759,1.886191 1.523124,1.878072 0.229295,-0.0028 1.062736,-0.615971 1.85209,-1.362503 z m 16.17635,0.288193 0.85497,-1.079483 -0.66838,-0.668374 c -1.23244,-1.232444 -3.13719,-0.208321 -2.71811,1.46144 0.4249,1.692917 1.33592,1.79599 2.53152,0.286417 z m -4.35055,-2.060353 c -0.2572,-0.284207 -0.75756,-0.589505 -1.11191,-0.678441 -0.7345,-0.184346 -2.0834,0.416066 -2.32001,1.032664 -0.22557,0.587811 0.22555,1.604928 0.93096,2.099017 0.58585,0.410348 0.64804,0.38406 1.78778,-0.755682 1.14246,-1.142451 1.16563,-1.197608 0.71318,-1.697558 z m -26.243549,1.684627 c 0.667249,-0.509323 1.339121,-0.926041 1.493048,-0.926041 0.37511,0 0.195864,-1.387033 -0.195849,-1.515515 -0.169552,-0.05561 -0.38601,0.143801 -0.481016,0.443141 -0.132215,0.41657 -0.319909,0.507318 -0.800046,0.386812 -0.485677,-0.121898 -0.879273,0.07759 -1.743332,0.883575 -1.885004,1.758312 -0.427432,2.372692 1.727195,0.728028 z M 105.2928,48.978002 c 0.54014,-0.646179 0.98208,-1.297965 0.98208,-1.448414 0,-0.150448 -0.3505,-0.454791 -0.77888,-0.676317 -0.60362,-0.312143 -0.94585,-0.339296 -1.52087,-0.12067 -1.61965,0.615787 -2.08122,1.655679 -1.25713,2.832234 0.64644,0.922917 1.46964,0.735298 2.5748,-0.586833 z m 20.73037,-0.280929 c 0.22809,-0.594393 -0.10708,-1.638773 -0.58475,-1.822072 -1.27711,-0.490073 -2.58713,1.110727 -1.53722,1.878437 0.63855,0.466924 1.93437,0.432503 2.12197,-0.05636 z M 90.588825,47.151422 91.805306,46.002053 91.234882,45.43163 c -0.788416,-0.788416 -1.269901,-0.717613 -2.33017,0.342657 -0.898107,0.898106 -0.906239,0.92631 -0.495914,1.719791 0.229442,0.443692 0.540102,0.806712 0.690357,0.806712 0.150254,0 0.820606,-0.517216 1.48967,-1.149368 z m -7.500672,0.336414 c 0.785077,-0.617542 0.939638,-1.568296 0.254952,-1.568296 -0.66217,0 -1.409896,0.793504 -1.409896,1.496215 0,0.763746 0.255373,0.779684 1.154944,0.07208 z m 37.958427,-0.47658 c 0.19989,-0.126715 0.31419,-0.553602 0.26459,-0.988136 -0.0807,-0.707027 -0.18011,-0.771052 -1.31076,-0.844321 -1.37762,-0.08927 -1.71672,0.280145 -1.28925,1.404495 0.19723,0.518747 0.43519,0.658297 1.11706,0.655109 0.47655,-0.0022 1.02481,-0.104444 1.21836,-0.227147 z M 95.889979,46.187021 c 1.916438,-1.168475 0.476177,-2.777253 -1.628026,-1.818514 -0.669678,0.305125 -1.229643,1.409266 -1.021428,2.014052 0.173574,0.504162 1.684789,0.39263 2.649454,-0.195538 z m -9.049345,-0.43841 c 1.079002,-1.164263 0.786909,-1.999912 -0.605979,-1.733645 -0.77235,0.147644 -1.117183,0.775412 -0.938726,1.70895 0.174743,0.91411 0.712456,0.922706 1.544705,0.0247 z m 29.285796,-0.09542 0.86407,-0.795518 -0.62462,-0.527399 c -1.32044,-1.114908 -3.47977,-0.308043 -3.11073,1.162366 0.29061,1.157874 1.70228,1.236809 2.87128,0.160551 z m -15.67585,-0.21023 c 1.53748,-0.751862 1.29772,-2.169252 -0.36694,-2.169252 -1.161335,0 -2.010848,0.658371 -2.010848,1.558405 0,0.404058 0.07937,0.814025 0.176388,0.911039 0.299643,0.299643 1.235872,0.171975 2.2014,-0.300192 z m 4.39654,0.103584 c 0.0787,-0.205149 0.42423,-0.44355 0.76781,-0.529782 0.63321,-0.158925 1.09023,-0.996304 0.80003,-1.465856 -0.27486,-0.444733 -1.89757,-0.61071 -2.55962,-0.261808 -1.15175,0.606974 -1.30958,1.282575 -0.49088,2.101276 0.61743,0.617435 1.27891,0.68711 1.48266,0.15617 z m 5.59494,-0.15327 c 1.47303,-0.898125 0.92218,-2.119566 -0.95589,-2.119566 -1.01424,0 -1.69937,0.661256 -1.4681,1.416942 0.41327,1.350394 1.05601,1.5367 2.42399,0.702624 z m 14.83335,-0.588984 c 0.0668,-0.579077 -0.0457,-0.750648 -0.58027,-0.884805 -0.84919,-0.213132 -1.22235,0.02528 -1.22235,0.780949 0,0.792363 0.23621,0.995245 1.04843,0.900525 0.50916,-0.05938 0.69137,-0.251851 0.75419,-0.796669 z M 90.549821,43.90376 c 1.198548,-0.914178 1.236826,-1.754577 0.07465,-1.639006 -0.945968,0.09407 -1.981635,1.243846 -1.724345,1.914332 0.224874,0.586013 0.603201,0.522872 1.649693,-0.275326 z m 30.916959,0.267679 c 0.52797,-0.202601 0.54188,-0.995134 0.025,-1.424105 -0.55434,-0.460056 -1.194,-0.135262 -1.194,0.606261 0,0.92817 0.31223,1.146612 1.16899,0.817844 z M 95.228521,43.223865 c 0.400182,-0.153418 0.727604,-0.339741 0.727604,-0.414051 0,-0.442606 -1.170736,-1.917359 -1.5221,-1.917359 -1.025852,0 -1.675278,1.325578 -1.224692,2.499787 0.167991,0.437775 0.513159,0.408992 2.019188,-0.168377 z M 118.39712,42.67852 c 0.0672,-0.58434 -0.0568,-0.780885 -0.63026,-0.998925 -0.80313,-0.305352 -1.49979,-0.15945 -1.97549,0.413731 -0.58849,0.709087 0.50023,1.445144 1.99288,1.347342 0.36962,-0.02422 0.5544,-0.254002 0.61287,-0.762148 z m -5.32628,-0.244686 c 0.8171,-0.767623 0.77189,-1.333057 -0.15014,-1.877714 -0.73018,-0.431326 -0.79189,-0.427321 -1.45521,0.09445 -0.88236,0.694066 -0.87408,1.120755 0.0349,1.798936 0.90369,0.674226 0.83536,0.674908 1.57045,-0.01567 z M 98.883567,42.295518 c 1.371213,-0.809994 1.188833,-1.93223 -0.314006,-1.93223 -0.858233,0 -1.934903,0.909474 -1.655849,1.398713 0.638147,1.118805 0.871877,1.182108 1.969855,0.533517 z m 4.989753,-0.500541 c 0.97682,-0.821932 1.02415,-1.28183 0.18831,-1.829494 -0.73034,-0.478538 -1.59829,-0.248891 -2.3928,0.633099 -0.42055,0.466854 -0.45468,0.671043 -0.20411,1.220989 0.39756,0.872548 1.35402,0.862781 2.4086,-0.02459 z m 4.99447,0.367478 c 0.48325,-0.483249 0.3798,-1.396187 -0.21968,-1.938709 -0.42431,-0.384001 -0.68737,-0.433319 -1.25205,-0.234731 -0.88216,0.310237 -1.36986,1.475629 -0.86972,2.078257 0.40485,0.487821 1.8885,0.548133 2.34145,0.09518 z M 92.872676,38.675718 c 0.874103,-1.742017 -0.113597,-2.367196 -1.670352,-1.057273 -0.675155,0.568106 -1.860782,2.376358 -1.860782,2.837962 0,0.06281 0.684609,-0.09314 1.521354,-0.346548 1.292566,-0.391459 1.594806,-0.607132 2.00978,-1.434141 z m 27.305524,1.043854 c 0.51149,-0.780625 0.13508,-1.737534 -0.68347,-1.737534 -0.58288,0 -0.67684,0.610992 -0.26182,1.702567 0.31896,0.838931 0.41616,0.842527 0.94529,0.03497 z m -3.73081,-1.339882 c 0.22285,-1.486095 0.0784,-1.720568 -1.06001,-1.720568 -0.85232,0 -0.91042,0.05534 -0.91042,0.86717 0,1.042143 0.6408,2.043246 1.30788,2.043246 0.37088,0 0.52585,-0.278302 0.66255,-1.189848 z m -19.153416,0.06537 c 0.612109,-0.733739 0.665516,-1.935854 0.09572,-2.154505 -1.304234,-0.500481 -2.756486,0.231305 -2.756486,1.388987 0,0.399207 0.142875,0.868705 0.3175,1.04333 0.526488,0.526488 1.798058,0.375733 2.343266,-0.277812 z m 4.562686,-0.264583 c 0.90038,-1.217747 1.00895,-1.67965 0.49777,-2.117737 -0.7498,-0.642577 -1.37116,-0.740153 -2.14967,-0.337572 -1.215988,0.628812 -1.417919,1.724001 -0.498348,2.702839 0.787868,0.838648 1.399168,0.768276 2.150248,-0.24753 z m 9.97665,-0.24344 0.79925,-1.103336 -0.57913,-0.616456 c -0.31852,-0.339051 -0.82954,-0.616456 -1.1356,-0.616456 -0.75182,0 -1.73277,0.720477 -1.73155,1.271774 0.002,0.679183 0.9963,2.167809 1.44867,2.167809 0.21951,0 0.75877,-0.496501 1.19836,-1.103335 z m -5.00892,0.06536 c 0.42537,-0.425369 0.7734,-1.017937 0.7734,-1.316817 0,-0.789451 -1.11865,-1.436278 -2.10811,-1.218956 -1.36436,0.299664 -1.64797,1.650121 -0.59771,2.846149 0.5741,0.653786 1.04368,0.578364 1.93242,-0.310376 z M 94.777527,35.215946 c 0.791547,-0.791547 0.809391,-1.060606 0.103148,-1.555277 -0.691137,-0.484092 -1.440717,-0.292559 -2.091149,0.534332 -0.737676,0.937803 -0.386588,1.515898 0.995813,1.639685 0.188516,0.01688 0.635,-0.261553 0.992188,-0.61874 z m 23.288013,-0.264975 c 0.55158,-0.841822 0.30393,-1.20226 -0.82607,-1.20226 -0.98926,0 -1.06913,0.155956 -0.60338,1.178176 0.38708,0.849537 0.88312,0.857895 1.42945,0.02408 z m -19.168939,-0.16002 c 0.602812,-0.322615 1.080986,-1.390767 0.869415,-1.942112 -0.285144,-0.743074 -1.423084,-0.754679 -2.380688,-0.02428 -1.127952,0.86033 -1.139102,1.374948 -0.04014,1.852602 1.056106,0.459027 0.924381,0.449366 1.551414,0.113788 z m 9.938559,-0.579225 c 0.88504,-0.983227 0.92378,-1.44796 0.17012,-2.040787 -0.37681,-0.296395 -0.88472,-0.5389 -1.1287,-0.5389 -0.68653,0 -1.60935,0.989254 -1.42096,1.523247 0.22486,0.637351 1.17005,1.651752 1.53905,1.651752 0.16755,0 0.54577,-0.26789 0.84049,-0.595312 z m 5.10332,0.08354 c 0.4272,-0.798231 0.33732,-1.044833 -0.586,-1.607794 -1.01597,-0.619448 -1.2619,-0.642032 -1.90116,-0.174592 -0.3917,0.286421 -0.42596,0.454421 -0.18459,0.90541 0.75614,1.412875 2.14157,1.867627 2.67175,0.876976 z m -10.10577,-0.163255 c 0.98177,-0.687664 1.23457,-1.404832 0.70245,-1.992816 -0.58613,-0.647674 -1.34365,-0.64171 -2.42747,0.01911 -0.95262,0.580825 -1.08336,1.169519 -0.42202,1.900296 0.53571,0.591953 1.36617,0.620347 2.14704,0.07341 z m -6.877123,-2.1181 c 0.618228,-0.433024 0.783925,-1.287911 0.306782,-1.582801 -0.423133,-0.261512 -1.306244,0.66756 -1.306244,1.374227 0,0.727804 0.198897,0.769311 0.999462,0.208574 z m 18.278243,-0.469726 c 0.41968,-0.505684 -0.1616,-1.188992 -1.18182,-1.389248 -1.29336,-0.253872 -1.45715,0.733342 -0.23651,1.425522 0.7025,0.398362 1.06531,0.389083 1.41833,-0.03627 z M 101.4535,30.955577 c 0.33483,-0.234523 0.58804,-0.690241 0.58804,-1.058333 0,-0.562417 -0.12038,-0.646455 -0.92604,-0.646455 -1.293432,0 -2.477528,1.270736 -1.807986,1.940277 0.31898,0.318981 1.546726,0.184255 2.145986,-0.235489 z m 9.10971,0.08115 c 0.71479,-0.561887 0.83522,-1.451105 0.23969,-1.769823 -1.69279,-0.905955 -3.34414,0.623449 -1.82332,1.688674 0.71149,0.498344 1.03202,0.514769 1.58363,0.08115 z M 106.26557,30.5911 c 0.15064,-0.281475 0.27389,-0.755456 0.27389,-1.053292 0,-1.206292 -2.63301,-0.870608 -2.87117,0.366046 -0.2098,1.089413 2.06054,1.69015 2.59728,0.687246 z"
       id="path1" /><text
       xml:space="preserve"
       style="font-style:normal;font-variant:normal;font-weight:normal;font-stretch:normal;font-size:19.4028px;line-height:1.25;font-family:sans-serif;-inkscape-font-specification:'sans-serif, Normal';font-variant-ligatures:normal;font-variant-caps:normal;font-variant-numeric:normal;font-variant-east-asian:normal;text-align:start;letter-spacing:0px;word-spacing:0px;writing-mode:lr-tb;text-anchor:start;fill:#000000;fill-opacity:1;stroke:none;stroke-width:0.5597"
       id="text1"><textPath
         xlink:href="#path2"
         id="textPath2"><tspan
           id="tspan1"
           style="font-style:normal;font-variant:normal;font-weight:normal;font-stretch:normal;font-size:19.4028px;font-family:sans-serif;-inkscape-font-specification:'sans-serif, Normal';font-variant-ligatures:normal;font-variant-caps:normal;font-variant-numeric:normal;font-variant-east-asian:normal;stroke-width:0.5597">Jesus saves but Budda makes incremental backups Jesus saves but Budda makes incremental backups</tspan></textPath></text></g></svg>
