<?xml version="1.0" encoding="UTF-8" standalone="no"?>
<!-- Created with Inkscape (http://www.inkscape.org/) -->

<svg
   width="44.987034mm"
   height="76.883896mm"
   viewBox="0 0 44.987034 76.883896"
   version="1.1"
   id="svg1"
   xml:space="preserve"
   sodipodi:docname="Korok_Fsilk.svg"
   inkscape:version="1.4.2 (ebf0e940d0, 2025-05-08)"
   xmlns:inkscape="http://www.inkscape.org/namespaces/inkscape"
   xmlns:sodipodi="http://sodipodi.sourceforge.net/DTD/sodipodi-0.dtd"
   xmlns="http://www.w3.org/2000/svg"
   xmlns:svg="http://www.w3.org/2000/svg"><sodipodi:namedview
     id="namedview1"
     pagecolor="#ffffff"
     bordercolor="#000000"
     borderopacity="0.25"
     inkscape:showpageshadow="2"
     inkscape:pageopacity="0.0"
     inkscape:pagecheckerboard="0"
     inkscape:deskcolor="#d1d1d1"
     inkscape:document-units="mm"
     inkscape:zoom="3.1550347"
     inkscape:cx="-13.470533"
     inkscape:cy="196.82826"
     inkscape:window-width="1920"
     inkscape:window-height="1003"
     inkscape:window-x="1920"
     inkscape:window-y="0"
     inkscape:window-maximized="1"
     inkscape:current-layer="layer1" /><defs
     id="defs1" /><g
     inkscape:label="Layer 1"
     inkscape:groupmode="layer"
     id="layer1"
     transform="translate(-90.74776,-110.07723)"><path
       style="fill:#000000;stroke:#000000;stroke-width:0.499999;stroke-opacity:1;fill-opacity:1"
       d="m 109.15095,157.07769 c -5.27802,-6.71751 -6.79055,-6.74667 -9.390324,-11.18751 l -0.356605,12.25294 c 3.619219,-0.0685 8.506809,0.84495 9.746929,-1.06543 z"
       id="path2"
       sodipodi:nodetypes="cccc" /><path
       style="fill:#000000;fill-opacity:1;stroke:#000000;stroke-width:0.499999;stroke-opacity:1"
       d="m 99.563328,159.78818 c -4.576439,3.80826 -6.827868,9.10596 -8.532079,14.14304 4.562338,-2.51105 6.851832,-4.01939 7.810107,-4.94041 0.382285,2.27284 -0.06575,6.56624 0.907126,10.47706 3.790128,-3.38549 2.129788,-9.47334 2.002248,-10.46361 0.62342,-6.74196 6.13283,-4.51933 7.05006,-4.68645 3.87142,0.20376 8.85401,-0.50162 11.61425,0.61128 1.76036,1.26806 2.20059,3.66766 3.45385,5.78036 2.28071,1.91787 4.51165,3.90096 4.61801,2.96727 -0.91137,-6.33776 -3.76148,-8.79803 -5.64222,-13.19705 l -0.0533,-3.08158 c -8.50841,7.14131 -15.5088,1.78765 -23.228042,2.39009 z m -2.011939,-33.14449 c 1.074807,-0.55336 2.677251,-1.65434 3.752061,-1.30297 -0.13647,2.4712 -0.41205,4.09539 -1.479153,6.11666 -1.127142,-1.8643 -1.659583,-3.18585 -2.272908,-4.81369 z m 25.712111,21.55159 -5.72861,2.14431 c 2.1515,-2.39417 3.94895,-3.35577 6.369,-5.60893 z m -5.48721,38.10471 c -1.15522,-0.29919 -1.91718,-2.69583 -2.7733,-4.59028 -1.54264,0.89687 -3.29403,1.09741 -4.89238,0.72622 0.16537,-6.38661 2.91823,-10.58956 11.96242,-9.48307 -0.19095,5.11236 -0.29965,10.85211 -4.29674,13.34713 z"
       id="path3"
       sodipodi:nodetypes="cccccccccccccccccccccccccc" /><path
       style="fill:#000000;fill-opacity:1;stroke:#000000;stroke-width:0.499999;stroke-opacity:1"
       d="m 129.55901,127.28664 c -1.4421,2.93142 -2.47598,5.46335 -4.58759,8.21651 -0.7203,-3.80886 -1.71987,-7.61216 -0.91343,-11.21995 3.3814,0.77431 4.08868,1.91408 5.50102,3.00344 z"
       id="path7"
       sodipodi:nodetypes="cccc" /><path
       id="path1"
       style="fill:none;fill-opacity:1;stroke:#000000;stroke-width:0.319999;stroke-opacity:1"
       d="m 101.30092,118.65028 0.1912,2.19935 c 0.24113,3.73155 0.22165,7.37604 -1.3069,10.5177 -2.39422,4.17582 -2.29805,9.39546 -0.0372,14.76448 2.725,4.61808 4.46694,4.47984 11.19054,13.00024 4.29978,-8.92323 8.51872,-10.35647 12.66383,-14.71693 1.20918,-2.38649 0.98505,-5.47727 0.98805,-8.75813 -0.59113,-3.79199 -1.65688,-7.52093 -1.06143,-11.47113 0.0289,-0.66551 0.89957,-2.19301 0.0837,-1.99368 -2.01306,0.20467 -4.06149,0.89761 -6.45439,2.38694 -2.75288,1.50662 -3.8164,2.50449 -5.1542,4.7687 -0.55075,-1.86354 -1.49303,-3.65574 -2.30529,-4.4819 -2.93268,-2.07201 -7.19048,-6.31224 -8.79791,-6.21564 z"
       sodipodi:nodetypes="ccccccccccccc" /><ellipse
       style="fill:#8a0000;fill-opacity:1;stroke:none;stroke-width:0.366945;stroke-opacity:1"
       id="path4"
       cx="109.65278"
       cy="133.63101"
       rx="1.0602467"
       ry="1.20705" /><ellipse
       style="fill:#8a0000;fill-opacity:1;stroke:none;stroke-width:0.36404;stroke-opacity:1"
       id="path5"
       cx="114.9377"
       cy="133.72888"
       rx="0.66877097"
       ry="0.81557429" /><path
       style="fill:#8a0000;fill-opacity:1;stroke:none;stroke-width:0.32;stroke-opacity:1"
       d="m 109.37548,144.16824 1.1418,2.08787 c 0.17915,0.22056 3.63203,-0.8482 5.44804,-1.2723 0.2675,-0.0328 0.34399,-0.91906 -0.0979,-0.94607 l -6.57594,-0.002 z"
       id="path6"
       sodipodi:nodetypes="cccccc" /></g></svg>
