<?xml version="1.0" encoding="UTF-8" standalone="no"?>
<!-- Created with Inkscape (http://www.inkscape.org/) -->

<svg
   width="44.987034mm"
   height="76.883896mm"
   viewBox="0 0 44.987034 76.883896"
   version="1.1"
   id="svg1"
   xml:space="preserve"
   sodipodi:docname="Korok_edgecuts.svg"
   inkscape:version="1.4.2 (ebf0e940d0, 2025-05-08)"
   xmlns:inkscape="http://www.inkscape.org/namespaces/inkscape"
   xmlns:sodipodi="http://sodipodi.sourceforge.net/DTD/sodipodi-0.dtd"
   xmlns="http://www.w3.org/2000/svg"
   xmlns:svg="http://www.w3.org/2000/svg"><sodipodi:namedview
     id="namedview1"
     pagecolor="#ffffff"
     bordercolor="#000000"
     borderopacity="0.25"
     inkscape:showpageshadow="2"
     inkscape:pageopacity="0.0"
     inkscape:pagecheckerboard="0"
     inkscape:deskcolor="#d1d1d1"
     inkscape:document-units="mm"
     inkscape:zoom="0.60245826"
     inkscape:cx="-58.095311"
     inkscape:cy="144.40834"
     inkscape:window-width="1920"
     inkscape:window-height="1003"
     inkscape:window-x="1920"
     inkscape:window-y="0"
     inkscape:window-maximized="1"
     inkscape:current-layer="layer1" /><defs
     id="defs1" /><g
     inkscape:label="Layer 1"
     inkscape:groupmode="layer"
     id="layer1"
     transform="translate(-90.74776,-110.07723)"><path
       style="fill:none;stroke:#ff0000;stroke-width:0.319999"
       d="m 93.677292,116.20261 c 0.61724,4.29232 3.19456,9.65377 6.120372,15.2053 -2.394221,4.17582 -2.361956,8.91593 -0.191261,14.15336 l -0.478156,14.05772 c -4.141358,3.97745 -6.392787,9.27515 -8.096998,14.31223 4.562338,-2.51105 6.851832,-4.01939 7.810107,-4.94041 0.669206,3.9787 -1.884508,14.14921 5.355324,17.78733 1.75392,-1.07764 2.12636,-2.90882 2.77329,-4.59028 2.71381,0.56349 5.42322,1.03913 8.03298,-0.47815 0.85612,1.89445 1.61808,4.29109 2.7733,4.59028 4.80215,-2.99755 4.10342,-11.18061 4.78154,-16.35287 2.21945,1.55258 5.80254,4.84069 5.92911,3.7296 -0.91137,-6.33776 -3.76148,-8.79803 -5.64222,-13.19705 l 0.86067,-16.63976 c 1.03821,-2.17224 0.83044,-5.34127 0.86068,-8.31988 6.26349,-8.35175 9.7223,-16.70351 10.99755,-25.05526 -1.33535,-1.19932 -3.88671,2.66819 -5.83348,4.01649 l -4.11212,-1.72135 c -1.48209,0.28135 0.70129,3.4427 1.05193,5.16406 l -4.01649,3.82523 c -1.22612,0.004 -3.15369,0.90144 -5.54659,2.39077 -2.727,-0.70639 -5.02474,0.0181 -7.4592,0.2869 -2.93268,-2.07201 -7.1906,-6.3126 -8.79803,-6.21601 l 0.19126,2.19951 c -2.215136,-1.7856 -4.618611,-3.26986 -7.363568,-4.20776 z"
       id="path1"
       sodipodi:nodetypes="ccccccccccccccccccccccccc" /></g></svg>
