<?xml version="1.0" encoding="UTF-8" standalone="no"?>
<!-- Created with Inkscape (http://www.inkscape.org/) -->

<svg
   width="44.987034mm"
   height="76.883896mm"
   viewBox="0 0 44.987034 76.883896"
   version="1.1"
   id="svg1"
   xml:space="preserve"
   sodipodi:docname="Korok_Fcu.svg"
   inkscape:version="1.4.2 (ebf0e940d0, 2025-05-08)"
   xmlns:inkscape="http://www.inkscape.org/namespaces/inkscape"
   xmlns:sodipodi="http://sodipodi.sourceforge.net/DTD/sodipodi-0.dtd"
   xmlns="http://www.w3.org/2000/svg"
   xmlns:svg="http://www.w3.org/2000/svg"><sodipodi:namedview
     id="namedview1"
     pagecolor="#ffffff"
     bordercolor="#000000"
     borderopacity="0.25"
     inkscape:showpageshadow="2"
     inkscape:pageopacity="0.0"
     inkscape:pagecheckerboard="0"
     inkscape:deskcolor="#d1d1d1"
     inkscape:document-units="mm"
     inkscape:zoom="2.7930327"
     inkscape:cx="1.6111519"
     inkscape:cy="128.53412"
     inkscape:window-width="1920"
     inkscape:window-height="1003"
     inkscape:window-x="1920"
     inkscape:window-y="0"
     inkscape:window-maximized="1"
     inkscape:current-layer="layer1" /><defs
     id="defs1" /><g
     inkscape:label="Layer 1"
     inkscape:groupmode="layer"
     id="layer1"
     transform="translate(-90.74776,-110.07723)"><path
       id="path1-9"
       style="fill:#b70000;fill-opacity:1;stroke:none;stroke-width:0.319999;stroke-opacity:1"
       d="m 101.09752,118.30308 0.19068,2.19935 c 0.24113,3.73155 0.22216,7.37605 -1.306378,10.51771 -2.291281,3.99628 -2.301697,8.94874 -0.316777,14.07304 l -0.648022,-2.1239 c 2.014037,-2.00172 3.191677,-2.57077 4.766117,-3.81889 -1.85292,0.0427 -4.037973,-0.91617 -5.477185,-0.18397 l 0.157613,-2.31769 c 2.242622,0.54203 3.978072,1.80941 7.110682,1.08004 1.95938,-1.26222 4.5507,-1.89223 5.63531,-4.02921 l -0.31574,3.00188 c -4.62519,1.54333 -7.90908,5.06694 -11.089765,8.74262 0.04592,0.11353 0.09269,0.22688 0.14056,0.34055 2.724985,4.61808 4.466925,4.47984 11.190535,13.00024 4.29978,-8.92323 8.51871,-10.35647 12.66382,-14.71693 1.20918,-2.38649 0.98506,-5.47726 0.98806,-8.75812 -0.59113,-3.79199 -1.65689,-7.52094 -1.06144,-11.47114 0.0289,-0.66551 0.89959,-2.193 0.0837,-1.99367 -2.01306,0.20467 -4.06149,0.8976 -6.45439,2.38693 -2.75288,1.50662 -3.81641,2.50449 -5.15421,4.7687 -0.55075,-1.86354 -1.49302,-3.65573 -2.30528,-4.48189 -2.93239,-2.0718 -7.19011,-6.31135 -8.79791,-6.21565 z m 22.19967,8.12767 1.18494,7.97936 c 0.0381,1.09065 0.01,2.14748 -0.0656,3.19567 0.0491,0.0574 0.0971,0.11556 0.14469,0.17519 0.0597,0.67415 -0.19027,1.4246 -0.37362,2.10633 -0.11869,0.95063 -0.26269,1.91004 -0.41651,2.89749 -0.68392,1.25122 -1.75502,2.07546 -3.20911,3.3967 l -4.02921,3.61166 c -0.4392,-5.13439 -1.77941,-5.97308 -3.13728,-8.35143 l 0.10801,-0.12195 c -0.39897,0.32712 -0.89897,0.5059 -1.4149,0.50591 -1.23231,-1.4e-4 -2.23125,-0.99908 -2.23139,-2.23139 -1.4e-4,-1.2325 0.99889,-2.23176 2.23139,-2.2319 0.63019,-9e-5 1.23104,0.26626 1.65416,0.73328 l -0.031,-0.10386 c 3.56497,0.97985 6.39166,4.36069 10.33012,2.53938 0.0325,-0.20398 0.0855,-0.42008 0.14573,-0.64389 0.0952,-0.76282 0.17435,-1.52 0.22893,-2.28152 -2.75782,-3.22555 -7.89898,-3.03918 -11.4422,-3.01118 l -0.0791,-1.8433 c 3.73982,0.12982 8.39502,1.42987 11.4239,0.3317 l -0.67655,-4.39767 c -2.83721,-0.4931 -7.10381,1.92194 -10.56339,2.88103 l 0.39533,-1.55391 c 3.27426,-1.19383 7.09704,-1.68246 9.82265,-3.5817 z m -22.80584,3.68712 c 2.95405,0.81311 6.82158,0.20758 10.34976,0 l 0.15813,1.52755 c -4.46179,-0.7275 -8.0469,0.64966 -11.850959,1.50069 z m 8.98033,9.69088 c 0.16537,0.49299 0.24589,1.07082 0.60565,1.36942 -1.44774,2.16832 -3.15786,3.44154 -4.66018,10.23659 -1.35545,-1.33299 -2.43589,-2.38935 -3.55534,-3.66334 4.17354,0.21412 4.95969,-5.1763 7.60987,-7.94267 z m 4.82503,0.10955 c -0.0458,0.31255 -0.15751,0.61181 -0.32763,0.87799 l 0.0584,-0.0656 c 2.04686,2.2122 3.27686,5.21404 6.07273,6.05306 l 0.64974,-0.65803 c -0.85432,-5.52821 -4.06603,-4.64049 -6.45324,-6.20739 z m -3.58738,1.76062 1.2113,0.36845 c 1.28124,3.08428 -3.27717,10.41078 2.12164,10.13084 -1.50263,2.04013 -2.19405,2.88154 -3.06919,5.01131 -1.38794,-1.77529 -2.12764,-2.46408 -3.78527,-4.05957 4.47088,-0.77801 2.15241,-7.52986 3.52152,-11.45103 z"
       sodipodi:nodetypes="cccccccccccccccccccccccccccccccccscccccccccccccccccccccccccccccccccccccc" /></g></svg>
