<?xml version="1.0" encoding="UTF-8" standalone="no"?>
<!-- Created with Inkscape (http://www.inkscape.org/) -->

<svg
   width="210mm"
   height="297mm"
   viewBox="0 0 210 297"
   version="1.1"
   id="svg1"
   inkscape:version="1.3.2 (091e20ef0f, 2023-11-25, custom)"
   sodipodi:docname="TVCase.svg"
   xml:space="preserve"
   xmlns:inkscape="http://www.inkscape.org/namespaces/inkscape"
   xmlns:sodipodi="http://sodipodi.sourceforge.net/DTD/sodipodi-0.dtd"
   xmlns="http://www.w3.org/2000/svg"
   xmlns:svg="http://www.w3.org/2000/svg"><sodipodi:namedview
     id="namedview1"
     pagecolor="#ffffff"
     bordercolor="#666666"
     borderopacity="1.0"
     inkscape:showpageshadow="2"
     inkscape:pageopacity="0.0"
     inkscape:pagecheckerboard="0"
     inkscape:deskcolor="#d1d1d1"
     inkscape:document-units="mm"
     inkscape:zoom="2.2170867"
     inkscape:cx="380.2287"
     inkscape:cy="357.00002"
     inkscape:window-width="1920"
     inkscape:window-height="1003"
     inkscape:window-x="1920"
     inkscape:window-y="0"
     inkscape:window-maximized="1"
     inkscape:current-layer="layer1" /><defs
     id="defs1" /><g
     inkscape:label="Layer 1"
     inkscape:groupmode="layer"
     id="layer1"><g
       id="g3"
       transform="translate(0,-0.13308334)"
       style="stroke-width:0.3;stroke-dasharray:none;fill:none;stroke:#000000;stroke-opacity:1"><rect
         style="fill:none;stroke:#000000;stroke-width:0.3;stroke-dasharray:none;stroke-opacity:1"
         id="rect1"
         width="44.655128"
         height="49.655128"
         x="38.369915"
         y="71.424019"
         ry="4.8957124" /><rect
         style="fill:none;stroke:#000000;stroke-width:0.3;stroke-dasharray:none;stroke-opacity:1"
         id="rect2"
         width="37.209843"
         height="41.709843"
         x="42.092556"
         y="75.39666"
         ry="2.8640459" /></g><rect
       style="fill:none;stroke:#000000;stroke-width:0.3;stroke-dasharray:none;stroke-opacity:1"
       id="rect3"
       width="44.655128"
       height="49.655128"
       x="83.412598"
       y="71.290939"
       ry="4.8957124" /><rect
       style="fill:none;stroke:#000000;stroke-width:0.3;stroke-dasharray:none;stroke-opacity:1"
       id="rect4"
       width="31.8908"
       height="19.3708"
       x="89.794762"
       y="82.383102"
       ry="0" /><path
       id="path4"
       style="fill:#ff0000;fill-opacity:1;stroke:none;stroke-width:0.3;stroke-dasharray:none;stroke-opacity:1"
       d="m 110.70644,107.30824 a 3.554873,3.554873 0 0 0 -1.48157,0.32401 l 4.17856,5.54488 a 3.554873,3.554873 0 0 0 0.85783,-2.31407 3.554873,3.554873 0 0 0 -3.55482,-3.55482 z m -2.697,1.24023 a 3.554873,3.554873 0 0 0 -0.85783,2.31459 3.554873,3.554873 0 0 0 3.55483,3.55482 3.554873,3.554873 0 0 0 1.48208,-0.32349 z" /><path
       id="circle4"
       style="fill:#ff0000;fill-opacity:1;stroke:none;stroke-width:0.3;stroke-dasharray:none;stroke-opacity:1"
       d="m 120.14565,107.30824 a 3.554873,3.554873 0 0 0 -3.5264,3.16001 l 6.89932,-0.72502 a 3.554873,3.554873 0 0 0 -3.37292,-2.43499 z m 3.5264,3.94963 -6.89363,0.7245 a 3.554873,3.554873 0 0 0 3.36723,2.43551 3.554873,3.554873 0 0 0 3.5264,-3.16001 z" /><path
       style="fill:#ff0000;stroke-width:1.16125;fill-opacity:1"
       d="m 89.145645,80.722109 c -1.589752,-0.692449 -1.908944,-2.966659 -0.544998,-3.882921 0.629943,-0.423175 1.765622,-0.473522 2.296325,-0.101796 0.296583,0.207735 0.33833,0.335139 0.255115,0.778678 -0.122605,0.653528 0.107067,0.967274 0.708037,0.967274 0.732273,0 1.717675,-1.050643 2.541094,-2.709343 l 0.71123,-1.432716 h 0.756996 c 0.661622,0 0.742793,0.03383 0.644261,0.268467 -0.451598,1.075423 -0.689004,1.77513 -0.624241,1.839886 0.0418,0.04184 0.303295,-0.05665 0.581031,-0.218849 0.606242,-0.35407 0.856376,-0.949614 0.648605,-1.544332 -0.287015,-0.821594 -2.303908,-1.047741 -3.160214,-0.354348 -0.290626,0.235338 -0.314827,0.319364 -0.149372,0.51872 0.440451,0.530715 -0.448916,1.331371 -1.478886,1.331371 -1.182071,0 -1.864317,-0.589229 -1.869984,-1.615019 -0.0023,-0.339821 0.102654,-0.769377 0.232424,-0.954568 0.755381,-1.078456 5.143617,-1.044885 7.316048,0.05597 0.774357,0.392395 1.34431,1.113837 1.345297,1.702878 8.82e-4,0.517045 -0.847341,1.372517 -1.655722,1.66989 -1.025987,0.37742 -1.05438,0.433533 -0.571695,1.130044 0.448568,0.647287 1.241841,1.232407 1.670818,1.232407 0.389007,0 0.295887,0.438298 -0.198074,0.932259 -0.507118,0.507125 -1.142902,0.585372 -1.83755,0.226154 -0.548018,-0.283389 -0.924286,-0.861044 -1.253105,-1.923797 l -0.260898,-0.843235 -0.236047,0.564931 c -0.386941,0.926086 -1.412301,1.914258 -2.350544,2.265299 -0.975369,0.364934 -2.785816,0.414728 -3.515951,0.0967 z m 0.489582,-1.884631 c -0.215458,-0.215463 -0.360533,0.140285 -0.199026,0.488087 l 0.177276,0.38179 0.04993,-0.395919 c 0.02741,-0.217754 0.01475,-0.431036 -0.0281,-0.473958 z m 0.285076,-0.354138 c -0.05214,-0.08438 -0.159777,-0.15341 -0.239171,-0.15341 -0.07943,0 -0.144355,0.06904 -0.144355,0.15341 0,0.08438 0.107648,0.15341 0.239159,0.15341 0.131546,0 0.196507,-0.06904 0.144367,-0.15341 z m 19.559797,2.291031 c -1.60727,-0.677901 -2.03186,-2.779134 -0.78592,-3.889408 0.46372,-0.413229 1.87808,-0.519722 2.39595,-0.180401 0.33796,0.221443 0.37454,0.327897 0.29138,0.847958 -0.0815,0.509992 -0.0466,0.620667 0.24514,0.776815 1.06159,0.568146 2.39523,-0.670241 3.38574,-3.143925 0.56226,-1.404172 0.49786,-1.556742 -0.57299,-1.35755 -0.70724,0.131557 -0.73861,0.158768 -0.69623,0.604071 0.13658,1.435479 -2.26287,2.147367 -3.25673,0.966229 -0.54634,-0.649286 -0.52985,-1.403636 0.0432,-1.976698 0.69835,-0.698347 1.46037,-0.823368 4.1663,-0.683553 3.12047,0.161233 4.4166,0.170299 5.0223,0.03513 0.44791,-0.09996 0.50661,-0.07146 0.59732,0.290011 0.0553,0.220472 0.0369,0.581009 -0.0409,0.801191 -0.1328,0.375682 -0.20265,0.400333 -1.13425,0.400333 -0.54601,0 -1.28789,-0.05287 -1.64862,-0.11749 -0.47818,-0.08565 -0.67353,-0.06488 -0.72108,0.0767 -1.86738,5.561344 -2.70202,6.567916 -5.52648,6.664899 -0.75937,0.02607 -1.55324,-0.02536 -1.76413,-0.114314 z m 1.30773,-1.497324 c -0.16665,-0.03435 -0.38047,-0.16841 -0.47516,-0.297912 -0.12982,-0.177537 -0.20058,-0.189492 -0.28765,-0.0486 -0.16096,0.260435 0.35582,0.60404 0.74688,0.496595 0.30871,-0.08482 0.30922,-0.08964 0.0159,-0.150084 z m -0.20325,-0.824389 c -0.14318,-0.143182 -0.225,-0.143182 -0.36819,0 -0.14318,0.143182 -0.1023,0.184092 0.1841,0.184092 0.28636,0 0.32727,-0.04091 0.18409,-0.184092 z m -9.33757,-0.05768 c -0.33752,-0.337516 -0.38266,-0.488628 -0.30933,-1.035514 0.181,-1.34965 1.90212,-2.119415 2.77876,-1.24278 0.30745,0.307446 0.30546,0.592617 -0.006,0.904367 -0.22723,0.227229 -0.26201,0.226769 -0.43202,-0.0057 -0.28628,-0.391519 -0.76964,-0.215347 -0.82889,0.302112 -0.0583,0.509545 0.19915,0.732005 0.70136,0.605959 0.38144,-0.09573 0.44332,0.09227 0.18764,0.570033 -0.25658,0.47943 -1.57545,0.41734 -2.09124,-0.09845 z m 2.4601,0.107776 c 0.0454,-0.137237 0.40795,-1.129709 0.80569,-2.205495 l 0.72317,-1.955973 h 0.74134 c 0.40774,0 0.74134,0.02261 0.74134,0.05026 0,0.02764 -0.17258,0.474993 -0.38352,0.994114 -0.21093,0.519123 -0.38352,0.979748 -0.38352,1.023612 0,0.192771 0.39378,0.05154 0.7257,-0.260285 0.28356,-0.266387 0.41861,-0.30436 0.62352,-0.175318 0.42122,0.265252 0.39768,0.666679 -0.0676,1.152293 -0.42279,0.441291 -0.42755,0.464753 -0.18145,0.893578 0.30629,0.533672 0.24018,0.617221 -0.48837,0.617221 -0.36965,0 -0.66016,-0.105941 -0.84223,-0.307125 -0.27754,-0.30667 -0.2782,-0.306631 -0.44566,0.02696 -0.13353,0.265998 -0.31888,0.340369 -0.90935,0.364885 -0.62403,0.02591 -0.72854,-0.0088 -0.6591,-0.218729 z m 2.45339,-0.709752 c 0.0485,-0.126562 0.0288,-0.230114 -0.0439,-0.230114 -0.0727,0 -0.17192,0.103549 -0.22048,0.230114 -0.0485,0.126564 -0.0288,0.230115 0.0439,0.230115 0.0727,0 0.17191,-0.103549 0.22049,-0.230115 z m -0.47126,-0.690343 c -0.077,-0.294316 -0.35127,-0.438072 -0.35127,-0.184091 0,0.10687 0.3128,0.490911 0.39984,0.490911 0.0174,0 -0.005,-0.138069 -0.0485,-0.30682 z m -6.488879,1.302515 c -0.229114,-0.276069 -0.139257,-1.134722 0.204531,-1.954506 0.228627,-0.545161 0.277818,-0.575285 0.939428,-0.575285 0.384,0 0.69818,0.03192 0.69818,0.07095 0,0.03902 -0.14508,0.45869 -0.32239,0.932595 -0.17731,0.473905 -0.29109,1.025312 -0.25285,1.225347 0.0431,0.22563 -0.0139,0.395737 -0.15039,0.448091 -0.404175,0.155095 -0.922324,0.08678 -1.116509,-0.147192 z m 0.826569,-2.90597 c -0.119495,-0.311393 0.0584,-0.54428 0.41579,-0.54428 0.37351,0 0.5688,0.44198 0.27696,0.626773 -0.31849,0.201665 -0.59642,0.168569 -0.69275,-0.0825 z"
       id="path85"
       sodipodi:nodetypes="sssssscssssssssccsssssssscsssscsccccssssssssscsssssssccsscssssssssssssscsscscssccsscssssssssssssssssssssssssssssscssssssss" /><path
       d="m 119.45847,80.88123 c -0.0285,-0.02845 -0.0197,-0.162854 0.0193,-0.298813 0.34119,-1.189689 0.0449,-3.397492 -0.4687,-3.492389 -0.18431,-0.03402 -0.20817,0.173909 -0.0491,0.428513 0.14187,0.227164 -0.0207,0.542315 -0.39341,0.762453 -0.66689,0.393954 -1.59928,-0.165222 -1.59858,-0.958728 6.7e-4,-0.776318 0.63952,-1.31882 1.55791,-1.322965 1.0063,-0.0046 1.73663,0.770501 1.83074,1.942817 0.0256,0.318078 0.0764,0.545683 0.11299,0.505783 0.0367,-0.03983 0.25437,-0.521065 0.48385,-1.069256 0.22948,-0.548191 0.51793,-1.091331 0.64102,-1.206957 0.25212,-0.23686 0.74261,-0.283008 0.97327,-0.09162 0.20794,0.172585 0.17834,0.302842 -0.14866,0.653969 -0.1624,0.174385 -0.48806,0.766541 -0.73484,1.336169 -0.99754,2.302584 -1.37449,2.862609 -1.92675,2.862609 -0.13605,0 -0.27061,-0.02322 -0.299,-0.05168 z"
       style="fill:#ff0000;stroke-width:0.679272;fill-opacity:1"
       id="path1" /></g></svg>
