G04 #@! TF.GenerationSoftware,KiCad,Pcbnew,8.0.3*
G04 #@! TF.CreationDate,2024-07-15T14:19:08-05:00*
G04 #@! TF.ProjectId,DumpsterElectroFire,44756d70-7374-4657-9245-6c656374726f,rev?*
G04 #@! TF.SameCoordinates,Original*
G04 #@! TF.FileFunction,Soldermask,Top*
G04 #@! TF.FilePolarity,Negative*
%FSLAX46Y46*%
G04 Gerber Fmt 4.6, Leading zero omitted, Abs format (unit mm)*
G04 Created by KiCad (PCBNEW 8.0.3) date 2024-07-15 14:19:08*
%MOMM*%
%LPD*%
G01*
G04 APERTURE LIST*
%ADD10C,0.010000*%
%ADD11C,1.300000*%
G04 APERTURE END LIST*
D10*
X153276301Y-80519626D02*
X153376061Y-80537141D01*
X153415151Y-80584003D01*
X153401611Y-80674670D01*
X153343479Y-80823600D01*
X153315119Y-80889767D01*
X153098004Y-81491483D01*
X152953116Y-82113142D01*
X152912883Y-82396616D01*
X152892696Y-82640095D01*
X152887359Y-82893729D01*
X152897989Y-83168532D01*
X152925705Y-83475514D01*
X152971624Y-83825688D01*
X153036865Y-84230067D01*
X153122546Y-84699661D01*
X153173330Y-84962000D01*
X153232324Y-85262477D01*
X153287380Y-85543489D01*
X153335923Y-85791852D01*
X153375379Y-85994380D01*
X153403175Y-86137890D01*
X153415499Y-86202481D01*
X153445500Y-86363462D01*
X153593667Y-86250797D01*
X153762577Y-86137275D01*
X153936837Y-86045160D01*
X154101854Y-85979013D01*
X154243040Y-85943391D01*
X154345801Y-85942853D01*
X154395549Y-85981957D01*
X154398000Y-85999491D01*
X154415263Y-86090263D01*
X154463404Y-86244028D01*
X154536956Y-86447310D01*
X154630450Y-86686634D01*
X154738416Y-86948526D01*
X154855385Y-87219511D01*
X154975889Y-87486113D01*
X155094459Y-87734857D01*
X155136660Y-87819500D01*
X155294563Y-88124224D01*
X155455392Y-88417733D01*
X155626089Y-88710949D01*
X155813596Y-89014795D01*
X156024855Y-89340191D01*
X156266808Y-89698060D01*
X156546397Y-90099322D01*
X156870566Y-90554900D01*
X156912620Y-90613500D01*
X157117902Y-90899572D01*
X157321525Y-91183793D01*
X157514259Y-91453245D01*
X157686876Y-91695010D01*
X157830143Y-91896172D01*
X157934831Y-92043812D01*
X157948661Y-92063417D01*
X158060403Y-92219195D01*
X158154824Y-92345591D01*
X158221284Y-92428701D01*
X158248357Y-92455000D01*
X158288978Y-92429041D01*
X158376534Y-92359879D01*
X158494700Y-92260591D01*
X158539963Y-92221409D01*
X158735973Y-92058702D01*
X158893454Y-91949792D01*
X159029898Y-91884994D01*
X159162801Y-91854626D01*
X159210117Y-91850433D01*
X159314664Y-91851617D01*
X159367257Y-91887509D01*
X159399813Y-91981229D01*
X159401861Y-91989334D01*
X159645242Y-92902466D01*
X159902907Y-93753103D01*
X160182625Y-94563168D01*
X160492169Y-95354580D01*
X160839310Y-96149262D01*
X160994110Y-96480697D01*
X161280511Y-97125523D01*
X161508767Y-97737530D01*
X161685612Y-98338295D01*
X161817783Y-98949394D01*
X161874140Y-99299569D01*
X161907302Y-99604666D01*
X161930255Y-99969270D01*
X161942792Y-100368818D01*
X161944703Y-100778742D01*
X161935780Y-101174477D01*
X161915814Y-101531457D01*
X161894911Y-101747167D01*
X161860218Y-101995070D01*
X161811563Y-102288402D01*
X161753282Y-102605354D01*
X161689712Y-102924119D01*
X161625191Y-103222887D01*
X161564055Y-103479853D01*
X161514141Y-103661862D01*
X161433633Y-103925557D01*
X161576038Y-104013569D01*
X161767991Y-104169799D01*
X161913434Y-104363715D01*
X161996680Y-104572478D01*
X162007999Y-104642477D01*
X161998725Y-104889028D01*
X161930590Y-105188151D01*
X161806065Y-105534044D01*
X161627617Y-105920909D01*
X161397715Y-106342945D01*
X161118830Y-106794352D01*
X161043085Y-106909107D01*
X160659380Y-107483334D01*
X160433523Y-107483334D01*
X160374747Y-107486217D01*
X160236898Y-107494620D01*
X160025361Y-107508171D01*
X159745526Y-107526501D01*
X159402778Y-107549238D01*
X159002505Y-107576012D01*
X158550096Y-107606452D01*
X158050936Y-107640188D01*
X157510414Y-107676847D01*
X156933916Y-107716061D01*
X156326831Y-107757458D01*
X155694545Y-107800668D01*
X155042446Y-107845319D01*
X154375921Y-107891042D01*
X153700359Y-107937465D01*
X153021145Y-107984217D01*
X152343667Y-108030929D01*
X151673313Y-108077229D01*
X151015471Y-108122747D01*
X150375527Y-108167111D01*
X149758869Y-108209952D01*
X149170884Y-108250898D01*
X148616959Y-108289579D01*
X148102483Y-108325624D01*
X147632842Y-108358663D01*
X147213424Y-108388324D01*
X146849616Y-108414237D01*
X146546805Y-108436032D01*
X146310379Y-108453337D01*
X146145726Y-108465782D01*
X146085275Y-108470624D01*
X145879382Y-108487829D01*
X141269858Y-104364626D01*
X140735544Y-103886332D01*
X140218773Y-103423052D01*
X139723046Y-102977957D01*
X139251864Y-102554219D01*
X138808729Y-102155011D01*
X138397143Y-101783503D01*
X138020606Y-101442868D01*
X137682621Y-101136278D01*
X137386688Y-100866904D01*
X137136310Y-100637919D01*
X136934988Y-100452494D01*
X136786223Y-100313801D01*
X136693517Y-100225012D01*
X136660372Y-100189299D01*
X136660334Y-100189051D01*
X136675974Y-100128131D01*
X136720326Y-99998662D01*
X136789532Y-99810250D01*
X136879734Y-99572499D01*
X136987076Y-99295013D01*
X137107700Y-98987396D01*
X137237751Y-98659252D01*
X137373371Y-98320187D01*
X137510703Y-97979804D01*
X137645889Y-97647707D01*
X137775074Y-97333502D01*
X137894400Y-97046792D01*
X138000010Y-96797182D01*
X138088048Y-96594275D01*
X138154655Y-96447678D01*
X138193670Y-96370834D01*
X138325775Y-96151579D01*
X138490447Y-95888297D01*
X138690429Y-95576795D01*
X138928463Y-95212880D01*
X139207292Y-94792357D01*
X139529658Y-94311035D01*
X139888374Y-93779389D01*
X140131027Y-93420041D01*
X140330161Y-93120996D01*
X140489865Y-92872541D01*
X140614224Y-92664964D01*
X140707325Y-92488551D01*
X140773256Y-92333589D01*
X140816103Y-92190367D01*
X140839953Y-92049171D01*
X140848894Y-91900288D01*
X140847011Y-91734006D01*
X140838393Y-91540612D01*
X140837534Y-91523667D01*
X140809924Y-91203061D01*
X140761798Y-90861494D01*
X140705075Y-90571939D01*
X140662162Y-90385827D01*
X140627359Y-90233092D01*
X140604508Y-90130709D01*
X140597334Y-90095689D01*
X140635766Y-90089641D01*
X140735467Y-90085522D01*
X140845788Y-90084334D01*
X141123594Y-90101208D01*
X141449196Y-90148220D01*
X141793553Y-90219955D01*
X142127620Y-90310997D01*
X142218807Y-90340363D01*
X142382808Y-90394806D01*
X142513509Y-90437246D01*
X142592351Y-90461705D01*
X142606751Y-90465334D01*
X142620461Y-90426979D01*
X142642839Y-90325763D01*
X142669362Y-90182455D01*
X142672924Y-90161546D01*
X142704059Y-89763291D01*
X142661630Y-89361235D01*
X142543881Y-88946905D01*
X142349052Y-88511832D01*
X142318616Y-88454500D01*
X142149174Y-88140232D01*
X142015720Y-87891702D01*
X141913774Y-87700277D01*
X141838855Y-87557327D01*
X141786482Y-87454218D01*
X141752177Y-87382320D01*
X141731458Y-87333001D01*
X141721898Y-87304823D01*
X141715198Y-87260541D01*
X141735601Y-87227006D01*
X141797453Y-87196896D01*
X141915102Y-87162892D01*
X142076676Y-87123819D01*
X142617720Y-87029496D01*
X143156748Y-87003766D01*
X143709195Y-87047081D01*
X144290494Y-87159896D01*
X144418726Y-87192739D01*
X144592949Y-87237254D01*
X144733552Y-87269660D01*
X144822683Y-87286048D01*
X144844819Y-87285997D01*
X144866424Y-87241984D01*
X144912834Y-87139770D01*
X144975237Y-86998859D01*
X144995885Y-86951667D01*
X145263386Y-86408104D01*
X145595302Y-85848554D01*
X145978719Y-85291505D01*
X146400722Y-84755447D01*
X146848398Y-84258867D01*
X146946000Y-84159797D01*
X147371432Y-83754467D01*
X147817763Y-83369028D01*
X148294727Y-82996670D01*
X148812059Y-82630578D01*
X149379494Y-82263941D01*
X150006767Y-81889947D01*
X150703612Y-81501783D01*
X150878794Y-81407625D01*
X151327917Y-81171333D01*
X151713255Y-80977026D01*
X152042665Y-80821567D01*
X152324003Y-80701817D01*
X152565123Y-80614636D01*
X152773882Y-80556886D01*
X152958135Y-80525428D01*
X153107830Y-80517000D01*
X153276301Y-80519626D01*
G36*
X153276301Y-80519626D02*
G01*
X153376061Y-80537141D01*
X153415151Y-80584003D01*
X153401611Y-80674670D01*
X153343479Y-80823600D01*
X153315119Y-80889767D01*
X153098004Y-81491483D01*
X152953116Y-82113142D01*
X152912883Y-82396616D01*
X152892696Y-82640095D01*
X152887359Y-82893729D01*
X152897989Y-83168532D01*
X152925705Y-83475514D01*
X152971624Y-83825688D01*
X153036865Y-84230067D01*
X153122546Y-84699661D01*
X153173330Y-84962000D01*
X153232324Y-85262477D01*
X153287380Y-85543489D01*
X153335923Y-85791852D01*
X153375379Y-85994380D01*
X153403175Y-86137890D01*
X153415499Y-86202481D01*
X153445500Y-86363462D01*
X153593667Y-86250797D01*
X153762577Y-86137275D01*
X153936837Y-86045160D01*
X154101854Y-85979013D01*
X154243040Y-85943391D01*
X154345801Y-85942853D01*
X154395549Y-85981957D01*
X154398000Y-85999491D01*
X154415263Y-86090263D01*
X154463404Y-86244028D01*
X154536956Y-86447310D01*
X154630450Y-86686634D01*
X154738416Y-86948526D01*
X154855385Y-87219511D01*
X154975889Y-87486113D01*
X155094459Y-87734857D01*
X155136660Y-87819500D01*
X155294563Y-88124224D01*
X155455392Y-88417733D01*
X155626089Y-88710949D01*
X155813596Y-89014795D01*
X156024855Y-89340191D01*
X156266808Y-89698060D01*
X156546397Y-90099322D01*
X156870566Y-90554900D01*
X156912620Y-90613500D01*
X157117902Y-90899572D01*
X157321525Y-91183793D01*
X157514259Y-91453245D01*
X157686876Y-91695010D01*
X157830143Y-91896172D01*
X157934831Y-92043812D01*
X157948661Y-92063417D01*
X158060403Y-92219195D01*
X158154824Y-92345591D01*
X158221284Y-92428701D01*
X158248357Y-92455000D01*
X158288978Y-92429041D01*
X158376534Y-92359879D01*
X158494700Y-92260591D01*
X158539963Y-92221409D01*
X158735973Y-92058702D01*
X158893454Y-91949792D01*
X159029898Y-91884994D01*
X159162801Y-91854626D01*
X159210117Y-91850433D01*
X159314664Y-91851617D01*
X159367257Y-91887509D01*
X159399813Y-91981229D01*
X159401861Y-91989334D01*
X159645242Y-92902466D01*
X159902907Y-93753103D01*
X160182625Y-94563168D01*
X160492169Y-95354580D01*
X160839310Y-96149262D01*
X160994110Y-96480697D01*
X161280511Y-97125523D01*
X161508767Y-97737530D01*
X161685612Y-98338295D01*
X161817783Y-98949394D01*
X161874140Y-99299569D01*
X161907302Y-99604666D01*
X161930255Y-99969270D01*
X161942792Y-100368818D01*
X161944703Y-100778742D01*
X161935780Y-101174477D01*
X161915814Y-101531457D01*
X161894911Y-101747167D01*
X161860218Y-101995070D01*
X161811563Y-102288402D01*
X161753282Y-102605354D01*
X161689712Y-102924119D01*
X161625191Y-103222887D01*
X161564055Y-103479853D01*
X161514141Y-103661862D01*
X161433633Y-103925557D01*
X161576038Y-104013569D01*
X161767991Y-104169799D01*
X161913434Y-104363715D01*
X161996680Y-104572478D01*
X162007999Y-104642477D01*
X161998725Y-104889028D01*
X161930590Y-105188151D01*
X161806065Y-105534044D01*
X161627617Y-105920909D01*
X161397715Y-106342945D01*
X161118830Y-106794352D01*
X161043085Y-106909107D01*
X160659380Y-107483334D01*
X160433523Y-107483334D01*
X160374747Y-107486217D01*
X160236898Y-107494620D01*
X160025361Y-107508171D01*
X159745526Y-107526501D01*
X159402778Y-107549238D01*
X159002505Y-107576012D01*
X158550096Y-107606452D01*
X158050936Y-107640188D01*
X157510414Y-107676847D01*
X156933916Y-107716061D01*
X156326831Y-107757458D01*
X155694545Y-107800668D01*
X155042446Y-107845319D01*
X154375921Y-107891042D01*
X153700359Y-107937465D01*
X153021145Y-107984217D01*
X152343667Y-108030929D01*
X151673313Y-108077229D01*
X151015471Y-108122747D01*
X150375527Y-108167111D01*
X149758869Y-108209952D01*
X149170884Y-108250898D01*
X148616959Y-108289579D01*
X148102483Y-108325624D01*
X147632842Y-108358663D01*
X147213424Y-108388324D01*
X146849616Y-108414237D01*
X146546805Y-108436032D01*
X146310379Y-108453337D01*
X146145726Y-108465782D01*
X146085275Y-108470624D01*
X145879382Y-108487829D01*
X141269858Y-104364626D01*
X140735544Y-103886332D01*
X140218773Y-103423052D01*
X139723046Y-102977957D01*
X139251864Y-102554219D01*
X138808729Y-102155011D01*
X138397143Y-101783503D01*
X138020606Y-101442868D01*
X137682621Y-101136278D01*
X137386688Y-100866904D01*
X137136310Y-100637919D01*
X136934988Y-100452494D01*
X136786223Y-100313801D01*
X136693517Y-100225012D01*
X136660372Y-100189299D01*
X136660334Y-100189051D01*
X136675974Y-100128131D01*
X136720326Y-99998662D01*
X136789532Y-99810250D01*
X136879734Y-99572499D01*
X136987076Y-99295013D01*
X137107700Y-98987396D01*
X137237751Y-98659252D01*
X137373371Y-98320187D01*
X137510703Y-97979804D01*
X137645889Y-97647707D01*
X137775074Y-97333502D01*
X137894400Y-97046792D01*
X138000010Y-96797182D01*
X138088048Y-96594275D01*
X138154655Y-96447678D01*
X138193670Y-96370834D01*
X138325775Y-96151579D01*
X138490447Y-95888297D01*
X138690429Y-95576795D01*
X138928463Y-95212880D01*
X139207292Y-94792357D01*
X139529658Y-94311035D01*
X139888374Y-93779389D01*
X140131027Y-93420041D01*
X140330161Y-93120996D01*
X140489865Y-92872541D01*
X140614224Y-92664964D01*
X140707325Y-92488551D01*
X140773256Y-92333589D01*
X140816103Y-92190367D01*
X140839953Y-92049171D01*
X140848894Y-91900288D01*
X140847011Y-91734006D01*
X140838393Y-91540612D01*
X140837534Y-91523667D01*
X140809924Y-91203061D01*
X140761798Y-90861494D01*
X140705075Y-90571939D01*
X140662162Y-90385827D01*
X140627359Y-90233092D01*
X140604508Y-90130709D01*
X140597334Y-90095689D01*
X140635766Y-90089641D01*
X140735467Y-90085522D01*
X140845788Y-90084334D01*
X141123594Y-90101208D01*
X141449196Y-90148220D01*
X141793553Y-90219955D01*
X142127620Y-90310997D01*
X142218807Y-90340363D01*
X142382808Y-90394806D01*
X142513509Y-90437246D01*
X142592351Y-90461705D01*
X142606751Y-90465334D01*
X142620461Y-90426979D01*
X142642839Y-90325763D01*
X142669362Y-90182455D01*
X142672924Y-90161546D01*
X142704059Y-89763291D01*
X142661630Y-89361235D01*
X142543881Y-88946905D01*
X142349052Y-88511832D01*
X142318616Y-88454500D01*
X142149174Y-88140232D01*
X142015720Y-87891702D01*
X141913774Y-87700277D01*
X141838855Y-87557327D01*
X141786482Y-87454218D01*
X141752177Y-87382320D01*
X141731458Y-87333001D01*
X141721898Y-87304823D01*
X141715198Y-87260541D01*
X141735601Y-87227006D01*
X141797453Y-87196896D01*
X141915102Y-87162892D01*
X142076676Y-87123819D01*
X142617720Y-87029496D01*
X143156748Y-87003766D01*
X143709195Y-87047081D01*
X144290494Y-87159896D01*
X144418726Y-87192739D01*
X144592949Y-87237254D01*
X144733552Y-87269660D01*
X144822683Y-87286048D01*
X144844819Y-87285997D01*
X144866424Y-87241984D01*
X144912834Y-87139770D01*
X144975237Y-86998859D01*
X144995885Y-86951667D01*
X145263386Y-86408104D01*
X145595302Y-85848554D01*
X145978719Y-85291505D01*
X146400722Y-84755447D01*
X146848398Y-84258867D01*
X146946000Y-84159797D01*
X147371432Y-83754467D01*
X147817763Y-83369028D01*
X148294727Y-82996670D01*
X148812059Y-82630578D01*
X149379494Y-82263941D01*
X150006767Y-81889947D01*
X150703612Y-81501783D01*
X150878794Y-81407625D01*
X151327917Y-81171333D01*
X151713255Y-80977026D01*
X152042665Y-80821567D01*
X152324003Y-80701817D01*
X152565123Y-80614636D01*
X152773882Y-80556886D01*
X152958135Y-80525428D01*
X153107830Y-80517000D01*
X153276301Y-80519626D01*
G37*
D11*
X133008195Y-119880437D03*
X130097307Y-119154671D03*
M02*
