G04 #@! TF.GenerationSoftware,KiCad,Pcbnew,8.0.3*
G04 #@! TF.CreationDate,2024-07-15T14:19:08-05:00*
G04 #@! TF.ProjectId,DumpsterElectroFire,44756d70-7374-4657-9245-6c656374726f,rev?*
G04 #@! TF.SameCoordinates,Original*
G04 #@! TF.FileFunction,Legend,Bot*
G04 #@! TF.FilePolarity,Positive*
%FSLAX46Y46*%
G04 Gerber Fmt 4.6, Leading zero omitted, Abs format (unit mm)*
G04 Created by KiCad (PCBNEW 8.0.3) date 2024-07-15 14:19:08*
%MOMM*%
%LPD*%
G01*
G04 APERTURE LIST*
%ADD10C,0.300000*%
%ADD11C,0.150000*%
%ADD12C,0.010000*%
%ADD13C,0.120000*%
G04 APERTURE END LIST*
D10*
X140678572Y-115178328D02*
X139821429Y-115178328D01*
X140250000Y-115178328D02*
X140250000Y-113678328D01*
X140250000Y-113678328D02*
X140107143Y-113892614D01*
X140107143Y-113892614D02*
X139964286Y-114035471D01*
X139964286Y-114035471D02*
X139821429Y-114106900D01*
D11*
X155761904Y-110254819D02*
X155761904Y-111064342D01*
X155761904Y-111064342D02*
X155714285Y-111159580D01*
X155714285Y-111159580D02*
X155666666Y-111207200D01*
X155666666Y-111207200D02*
X155571428Y-111254819D01*
X155571428Y-111254819D02*
X155380952Y-111254819D01*
X155380952Y-111254819D02*
X155285714Y-111207200D01*
X155285714Y-111207200D02*
X155238095Y-111159580D01*
X155238095Y-111159580D02*
X155190476Y-111064342D01*
X155190476Y-111064342D02*
X155190476Y-110254819D01*
X154761904Y-110350057D02*
X154714285Y-110302438D01*
X154714285Y-110302438D02*
X154619047Y-110254819D01*
X154619047Y-110254819D02*
X154380952Y-110254819D01*
X154380952Y-110254819D02*
X154285714Y-110302438D01*
X154285714Y-110302438D02*
X154238095Y-110350057D01*
X154238095Y-110350057D02*
X154190476Y-110445295D01*
X154190476Y-110445295D02*
X154190476Y-110540533D01*
X154190476Y-110540533D02*
X154238095Y-110683390D01*
X154238095Y-110683390D02*
X154809523Y-111254819D01*
X154809523Y-111254819D02*
X154190476Y-111254819D01*
X159179580Y-116333333D02*
X159227200Y-116285714D01*
X159227200Y-116285714D02*
X159274819Y-116142857D01*
X159274819Y-116142857D02*
X159274819Y-116047619D01*
X159274819Y-116047619D02*
X159227200Y-115904762D01*
X159227200Y-115904762D02*
X159131961Y-115809524D01*
X159131961Y-115809524D02*
X159036723Y-115761905D01*
X159036723Y-115761905D02*
X158846247Y-115714286D01*
X158846247Y-115714286D02*
X158703390Y-115714286D01*
X158703390Y-115714286D02*
X158512914Y-115761905D01*
X158512914Y-115761905D02*
X158417676Y-115809524D01*
X158417676Y-115809524D02*
X158322438Y-115904762D01*
X158322438Y-115904762D02*
X158274819Y-116047619D01*
X158274819Y-116047619D02*
X158274819Y-116142857D01*
X158274819Y-116142857D02*
X158322438Y-116285714D01*
X158322438Y-116285714D02*
X158370057Y-116333333D01*
X158370057Y-116714286D02*
X158322438Y-116761905D01*
X158322438Y-116761905D02*
X158274819Y-116857143D01*
X158274819Y-116857143D02*
X158274819Y-117095238D01*
X158274819Y-117095238D02*
X158322438Y-117190476D01*
X158322438Y-117190476D02*
X158370057Y-117238095D01*
X158370057Y-117238095D02*
X158465295Y-117285714D01*
X158465295Y-117285714D02*
X158560533Y-117285714D01*
X158560533Y-117285714D02*
X158703390Y-117238095D01*
X158703390Y-117238095D02*
X159274819Y-116666667D01*
X159274819Y-116666667D02*
X159274819Y-117285714D01*
X139624819Y-116891666D02*
X140339104Y-116891666D01*
X140339104Y-116891666D02*
X140481961Y-116844047D01*
X140481961Y-116844047D02*
X140577200Y-116748809D01*
X140577200Y-116748809D02*
X140624819Y-116605952D01*
X140624819Y-116605952D02*
X140624819Y-116510714D01*
X140624819Y-117891666D02*
X140624819Y-117320238D01*
X140624819Y-117605952D02*
X139624819Y-117605952D01*
X139624819Y-117605952D02*
X139767676Y-117510714D01*
X139767676Y-117510714D02*
X139862914Y-117415476D01*
X139862914Y-117415476D02*
X139910533Y-117320238D01*
X132654819Y-105559523D02*
X132178628Y-105226190D01*
X132654819Y-104988095D02*
X131654819Y-104988095D01*
X131654819Y-104988095D02*
X131654819Y-105369047D01*
X131654819Y-105369047D02*
X131702438Y-105464285D01*
X131702438Y-105464285D02*
X131750057Y-105511904D01*
X131750057Y-105511904D02*
X131845295Y-105559523D01*
X131845295Y-105559523D02*
X131988152Y-105559523D01*
X131988152Y-105559523D02*
X132083390Y-105511904D01*
X132083390Y-105511904D02*
X132131009Y-105464285D01*
X132131009Y-105464285D02*
X132178628Y-105369047D01*
X132178628Y-105369047D02*
X132178628Y-104988095D01*
X132654819Y-105988095D02*
X131654819Y-105988095D01*
X131654819Y-105988095D02*
X132654819Y-106559523D01*
X132654819Y-106559523D02*
X131654819Y-106559523D01*
X132654819Y-107559523D02*
X132654819Y-106988095D01*
X132654819Y-107273809D02*
X131654819Y-107273809D01*
X131654819Y-107273809D02*
X131797676Y-107178571D01*
X131797676Y-107178571D02*
X131892914Y-107083333D01*
X131892914Y-107083333D02*
X131940533Y-106988095D01*
X135274819Y-98374405D02*
X134274819Y-98374405D01*
X134274819Y-98374405D02*
X134274819Y-98612500D01*
X134274819Y-98612500D02*
X134322438Y-98755357D01*
X134322438Y-98755357D02*
X134417676Y-98850595D01*
X134417676Y-98850595D02*
X134512914Y-98898214D01*
X134512914Y-98898214D02*
X134703390Y-98945833D01*
X134703390Y-98945833D02*
X134846247Y-98945833D01*
X134846247Y-98945833D02*
X135036723Y-98898214D01*
X135036723Y-98898214D02*
X135131961Y-98850595D01*
X135131961Y-98850595D02*
X135227200Y-98755357D01*
X135227200Y-98755357D02*
X135274819Y-98612500D01*
X135274819Y-98612500D02*
X135274819Y-98374405D01*
X135274819Y-99898214D02*
X135274819Y-99326786D01*
X135274819Y-99612500D02*
X134274819Y-99612500D01*
X134274819Y-99612500D02*
X134417676Y-99517262D01*
X134417676Y-99517262D02*
X134512914Y-99422024D01*
X134512914Y-99422024D02*
X134560533Y-99326786D01*
X158888094Y-110834819D02*
X158888094Y-109834819D01*
X158888094Y-109834819D02*
X158649999Y-109834819D01*
X158649999Y-109834819D02*
X158507142Y-109882438D01*
X158507142Y-109882438D02*
X158411904Y-109977676D01*
X158411904Y-109977676D02*
X158364285Y-110072914D01*
X158364285Y-110072914D02*
X158316666Y-110263390D01*
X158316666Y-110263390D02*
X158316666Y-110406247D01*
X158316666Y-110406247D02*
X158364285Y-110596723D01*
X158364285Y-110596723D02*
X158411904Y-110691961D01*
X158411904Y-110691961D02*
X158507142Y-110787200D01*
X158507142Y-110787200D02*
X158649999Y-110834819D01*
X158649999Y-110834819D02*
X158888094Y-110834819D01*
X157935713Y-109930057D02*
X157888094Y-109882438D01*
X157888094Y-109882438D02*
X157792856Y-109834819D01*
X157792856Y-109834819D02*
X157554761Y-109834819D01*
X157554761Y-109834819D02*
X157459523Y-109882438D01*
X157459523Y-109882438D02*
X157411904Y-109930057D01*
X157411904Y-109930057D02*
X157364285Y-110025295D01*
X157364285Y-110025295D02*
X157364285Y-110120533D01*
X157364285Y-110120533D02*
X157411904Y-110263390D01*
X157411904Y-110263390D02*
X157983332Y-110834819D01*
X157983332Y-110834819D02*
X157364285Y-110834819D01*
X149675594Y-111734819D02*
X149675594Y-110734819D01*
X149675594Y-110734819D02*
X149437499Y-110734819D01*
X149437499Y-110734819D02*
X149294642Y-110782438D01*
X149294642Y-110782438D02*
X149199404Y-110877676D01*
X149199404Y-110877676D02*
X149151785Y-110972914D01*
X149151785Y-110972914D02*
X149104166Y-111163390D01*
X149104166Y-111163390D02*
X149104166Y-111306247D01*
X149104166Y-111306247D02*
X149151785Y-111496723D01*
X149151785Y-111496723D02*
X149199404Y-111591961D01*
X149199404Y-111591961D02*
X149294642Y-111687200D01*
X149294642Y-111687200D02*
X149437499Y-111734819D01*
X149437499Y-111734819D02*
X149675594Y-111734819D01*
X148770832Y-110734819D02*
X148151785Y-110734819D01*
X148151785Y-110734819D02*
X148485118Y-111115771D01*
X148485118Y-111115771D02*
X148342261Y-111115771D01*
X148342261Y-111115771D02*
X148247023Y-111163390D01*
X148247023Y-111163390D02*
X148199404Y-111211009D01*
X148199404Y-111211009D02*
X148151785Y-111306247D01*
X148151785Y-111306247D02*
X148151785Y-111544342D01*
X148151785Y-111544342D02*
X148199404Y-111639580D01*
X148199404Y-111639580D02*
X148247023Y-111687200D01*
X148247023Y-111687200D02*
X148342261Y-111734819D01*
X148342261Y-111734819D02*
X148627975Y-111734819D01*
X148627975Y-111734819D02*
X148723213Y-111687200D01*
X148723213Y-111687200D02*
X148770832Y-111639580D01*
X139139143Y-106604680D02*
X139846249Y-105897573D01*
X139846249Y-105897573D02*
X139677891Y-105729214D01*
X139677891Y-105729214D02*
X139543204Y-105661871D01*
X139543204Y-105661871D02*
X139408517Y-105661871D01*
X139408517Y-105661871D02*
X139307501Y-105695543D01*
X139307501Y-105695543D02*
X139139143Y-105796558D01*
X139139143Y-105796558D02*
X139038127Y-105897573D01*
X139038127Y-105897573D02*
X138937112Y-106065932D01*
X138937112Y-106065932D02*
X138903440Y-106166947D01*
X138903440Y-106166947D02*
X138903440Y-106301634D01*
X138903440Y-106301634D02*
X138970784Y-106436321D01*
X138970784Y-106436321D02*
X139139143Y-106604680D01*
X138600395Y-105123123D02*
X138128990Y-105594527D01*
X139038127Y-105022108D02*
X138701410Y-105695543D01*
X138701410Y-105695543D02*
X138263677Y-105257810D01*
D12*
X135548000Y-112020666D02*
X136288834Y-112020666D01*
X136288834Y-112338166D01*
X135548000Y-112338166D01*
X135548000Y-112658580D01*
X135913125Y-112651831D01*
X136278250Y-112645083D01*
X136284469Y-112798541D01*
X136290688Y-112952000D01*
X135548000Y-112952000D01*
X135548000Y-113269500D01*
X136288834Y-113269500D01*
X136288834Y-113587000D01*
X135548000Y-113587000D01*
X135548000Y-113904500D01*
X136288834Y-113904500D01*
X136288834Y-114200833D01*
X136006038Y-114200833D01*
X135996745Y-114200840D01*
X135881618Y-114202012D01*
X135773574Y-114204904D01*
X135684362Y-114209104D01*
X135625731Y-114214198D01*
X135613546Y-114215879D01*
X135563484Y-114225335D01*
X135534037Y-114243050D01*
X135514432Y-114279832D01*
X135493899Y-114346490D01*
X135444148Y-114484788D01*
X135339854Y-114672337D01*
X135200699Y-114837021D01*
X135028589Y-114976258D01*
X134975577Y-115008449D01*
X134883760Y-115054653D01*
X134788138Y-115094195D01*
X134701933Y-115121793D01*
X134638363Y-115132166D01*
X134636594Y-115132175D01*
X134621810Y-115134357D01*
X134611076Y-115144370D01*
X134603744Y-115167965D01*
X134599167Y-115210892D01*
X134596699Y-115278901D01*
X134595692Y-115377742D01*
X134595500Y-115513166D01*
X134595500Y-115894166D01*
X134299167Y-115894166D01*
X134299167Y-115153333D01*
X133981667Y-115153333D01*
X133981667Y-115894166D01*
X133664167Y-115894166D01*
X133664167Y-115153333D01*
X133367834Y-115153333D01*
X133367834Y-115894166D01*
X133050334Y-115894166D01*
X133050334Y-115153333D01*
X132732834Y-115153333D01*
X132732834Y-115894166D01*
X132442775Y-115894166D01*
X132429181Y-115719541D01*
X132428026Y-115704007D01*
X132421696Y-115591272D01*
X132417204Y-115464796D01*
X132415461Y-115349125D01*
X132415334Y-115153333D01*
X132119000Y-115153333D01*
X132119000Y-115894166D01*
X131801500Y-115894166D01*
X131801500Y-115153333D01*
X131480789Y-115153333D01*
X131491553Y-115883583D01*
X131187667Y-115896021D01*
X131187667Y-115153333D01*
X130870167Y-115153333D01*
X130870167Y-115894166D01*
X130552667Y-115894166D01*
X130552667Y-115153333D01*
X130256334Y-115153333D01*
X130256334Y-115894166D01*
X129938834Y-115894166D01*
X129938834Y-115137577D01*
X129859459Y-115124743D01*
X129795456Y-115108662D01*
X129688685Y-115066611D01*
X129573913Y-115008152D01*
X129464674Y-114940383D01*
X129374501Y-114870402D01*
X129250994Y-114739540D01*
X129139921Y-114568860D01*
X129056174Y-114368934D01*
X128998699Y-114194484D01*
X128266667Y-114220960D01*
X128266667Y-113904500D01*
X129007500Y-113904500D01*
X129007500Y-113587000D01*
X128266667Y-113587000D01*
X128266667Y-113269500D01*
X129007500Y-113269500D01*
X129007500Y-112952000D01*
X128266667Y-112952000D01*
X128266667Y-112655666D01*
X128430709Y-112655557D01*
X128456886Y-112655394D01*
X128564817Y-112652928D01*
X128686797Y-112648122D01*
X128801125Y-112641781D01*
X129007500Y-112628115D01*
X129007500Y-112338166D01*
X128266667Y-112338166D01*
X128266667Y-112020666D01*
X129007500Y-112020666D01*
X129007500Y-111703166D01*
X128266667Y-111703166D01*
X128266667Y-111385666D01*
X129007500Y-111385666D01*
X129007500Y-111089333D01*
X128266667Y-111089333D01*
X128266667Y-110771833D01*
X129007500Y-110771833D01*
X129007500Y-110454333D01*
X128266667Y-110454333D01*
X128266667Y-110136833D01*
X129007500Y-110136833D01*
X129007500Y-109819333D01*
X128266667Y-109819333D01*
X128266667Y-109523976D01*
X128639980Y-109518196D01*
X129013292Y-109512416D01*
X129018705Y-109491250D01*
X129335584Y-109491250D01*
X129335584Y-114232583D01*
X129395301Y-114361796D01*
X129435381Y-114435714D01*
X129536627Y-114567551D01*
X129662441Y-114681492D01*
X129801250Y-114766015D01*
X129928250Y-114825250D01*
X132224834Y-114829346D01*
X132342231Y-114829546D01*
X132711438Y-114830036D01*
X133040914Y-114830223D01*
X133332665Y-114830090D01*
X133588696Y-114829617D01*
X133811016Y-114828786D01*
X134001628Y-114827578D01*
X134162541Y-114825973D01*
X134295760Y-114823955D01*
X134403292Y-114821503D01*
X134487142Y-114818599D01*
X134549317Y-114815224D01*
X134591823Y-114811359D01*
X134616667Y-114806987D01*
X134640699Y-114799973D01*
X134813771Y-114726408D01*
X134959670Y-114621332D01*
X135075971Y-114487453D01*
X135160248Y-114327481D01*
X135210077Y-114144122D01*
X135210160Y-114143604D01*
X135213368Y-114101539D01*
X135216297Y-114020754D01*
X135218947Y-113904771D01*
X135221317Y-113757115D01*
X135223409Y-113581310D01*
X135225220Y-113380880D01*
X135226753Y-113159349D01*
X135228006Y-112920241D01*
X135228980Y-112667080D01*
X135229675Y-112403391D01*
X135230091Y-112132697D01*
X135230227Y-111858523D01*
X135230084Y-111584392D01*
X135229661Y-111313829D01*
X135228960Y-111050357D01*
X135227979Y-110797501D01*
X135226719Y-110558785D01*
X135225179Y-110337733D01*
X135223360Y-110137869D01*
X135221262Y-109962717D01*
X135218885Y-109815801D01*
X135216228Y-109700645D01*
X135213292Y-109620773D01*
X135210077Y-109579710D01*
X135197579Y-109516944D01*
X135135760Y-109341944D01*
X135039053Y-109190212D01*
X134909193Y-109064053D01*
X134747916Y-108965774D01*
X134606084Y-108898583D01*
X132341250Y-108891987D01*
X132249349Y-108891720D01*
X131889399Y-108890712D01*
X131568719Y-108889947D01*
X131284835Y-108889506D01*
X131035276Y-108889470D01*
X130817567Y-108889923D01*
X130629236Y-108890946D01*
X130467809Y-108892621D01*
X130330813Y-108895029D01*
X130215775Y-108898254D01*
X130120222Y-108902376D01*
X130041681Y-108907478D01*
X129977678Y-108913642D01*
X129925740Y-108920949D01*
X129883395Y-108929482D01*
X129848168Y-108939322D01*
X129817587Y-108950553D01*
X129789179Y-108963254D01*
X129760470Y-108977509D01*
X129675331Y-109030755D01*
X129564584Y-109127294D01*
X129467322Y-109241394D01*
X129396420Y-109359543D01*
X129335584Y-109491250D01*
X129018705Y-109491250D01*
X129041580Y-109401810D01*
X129086536Y-109267062D01*
X129180363Y-109087888D01*
X129304665Y-108926797D01*
X129453372Y-108791269D01*
X129620412Y-108688781D01*
X129628100Y-108685129D01*
X129713634Y-108648075D01*
X129794960Y-108618329D01*
X129855422Y-108602038D01*
X129938834Y-108587945D01*
X129938834Y-107872000D01*
X130256334Y-107872000D01*
X130256334Y-108570500D01*
X130552667Y-108570500D01*
X130552667Y-107872000D01*
X130870167Y-107872000D01*
X130870167Y-108570500D01*
X131187667Y-108570500D01*
X131187667Y-107872000D01*
X131484000Y-107872000D01*
X131484000Y-108570500D01*
X131801500Y-108570500D01*
X131801500Y-107872000D01*
X132119000Y-107872000D01*
X132119000Y-108570500D01*
X132272459Y-108570520D01*
X132425917Y-108570540D01*
X132418804Y-108221270D01*
X132411692Y-107872000D01*
X132732834Y-107872000D01*
X132732834Y-108570500D01*
X133050334Y-108570500D01*
X133050334Y-107872000D01*
X133367834Y-107872000D01*
X133367834Y-108570500D01*
X133664167Y-108570500D01*
X133664167Y-107872000D01*
X133981667Y-107872000D01*
X133981667Y-108570500D01*
X134299167Y-108570500D01*
X134299167Y-107872000D01*
X134595500Y-107872000D01*
X134595500Y-108581648D01*
X134706625Y-108607991D01*
X134864406Y-108659959D01*
X135028629Y-108750677D01*
X135187588Y-108879808D01*
X135322697Y-109029523D01*
X135425502Y-109198260D01*
X135497015Y-109390783D01*
X135533774Y-109523000D01*
X136288834Y-109523000D01*
X136288834Y-109819333D01*
X135548000Y-109819333D01*
X135548000Y-110136833D01*
X136288834Y-110136833D01*
X136288834Y-110454333D01*
X135548000Y-110454333D01*
X135548000Y-110771833D01*
X136290688Y-110771833D01*
X136284469Y-110925291D01*
X136278250Y-111078750D01*
X135548000Y-111090332D01*
X135548000Y-111385666D01*
X136288834Y-111385666D01*
X136288834Y-111703166D01*
X135548000Y-111703166D01*
X135548000Y-111858523D01*
X135548000Y-112020666D01*
G36*
X135548000Y-112020666D02*
G01*
X136288834Y-112020666D01*
X136288834Y-112338166D01*
X135548000Y-112338166D01*
X135548000Y-112658580D01*
X135913125Y-112651831D01*
X136278250Y-112645083D01*
X136284469Y-112798541D01*
X136290688Y-112952000D01*
X135548000Y-112952000D01*
X135548000Y-113269500D01*
X136288834Y-113269500D01*
X136288834Y-113587000D01*
X135548000Y-113587000D01*
X135548000Y-113904500D01*
X136288834Y-113904500D01*
X136288834Y-114200833D01*
X136006038Y-114200833D01*
X135996745Y-114200840D01*
X135881618Y-114202012D01*
X135773574Y-114204904D01*
X135684362Y-114209104D01*
X135625731Y-114214198D01*
X135613546Y-114215879D01*
X135563484Y-114225335D01*
X135534037Y-114243050D01*
X135514432Y-114279832D01*
X135493899Y-114346490D01*
X135444148Y-114484788D01*
X135339854Y-114672337D01*
X135200699Y-114837021D01*
X135028589Y-114976258D01*
X134975577Y-115008449D01*
X134883760Y-115054653D01*
X134788138Y-115094195D01*
X134701933Y-115121793D01*
X134638363Y-115132166D01*
X134636594Y-115132175D01*
X134621810Y-115134357D01*
X134611076Y-115144370D01*
X134603744Y-115167965D01*
X134599167Y-115210892D01*
X134596699Y-115278901D01*
X134595692Y-115377742D01*
X134595500Y-115513166D01*
X134595500Y-115894166D01*
X134299167Y-115894166D01*
X134299167Y-115153333D01*
X133981667Y-115153333D01*
X133981667Y-115894166D01*
X133664167Y-115894166D01*
X133664167Y-115153333D01*
X133367834Y-115153333D01*
X133367834Y-115894166D01*
X133050334Y-115894166D01*
X133050334Y-115153333D01*
X132732834Y-115153333D01*
X132732834Y-115894166D01*
X132442775Y-115894166D01*
X132429181Y-115719541D01*
X132428026Y-115704007D01*
X132421696Y-115591272D01*
X132417204Y-115464796D01*
X132415461Y-115349125D01*
X132415334Y-115153333D01*
X132119000Y-115153333D01*
X132119000Y-115894166D01*
X131801500Y-115894166D01*
X131801500Y-115153333D01*
X131480789Y-115153333D01*
X131491553Y-115883583D01*
X131187667Y-115896021D01*
X131187667Y-115153333D01*
X130870167Y-115153333D01*
X130870167Y-115894166D01*
X130552667Y-115894166D01*
X130552667Y-115153333D01*
X130256334Y-115153333D01*
X130256334Y-115894166D01*
X129938834Y-115894166D01*
X129938834Y-115137577D01*
X129859459Y-115124743D01*
X129795456Y-115108662D01*
X129688685Y-115066611D01*
X129573913Y-115008152D01*
X129464674Y-114940383D01*
X129374501Y-114870402D01*
X129250994Y-114739540D01*
X129139921Y-114568860D01*
X129056174Y-114368934D01*
X128998699Y-114194484D01*
X128266667Y-114220960D01*
X128266667Y-113904500D01*
X129007500Y-113904500D01*
X129007500Y-113587000D01*
X128266667Y-113587000D01*
X128266667Y-113269500D01*
X129007500Y-113269500D01*
X129007500Y-112952000D01*
X128266667Y-112952000D01*
X128266667Y-112655666D01*
X128430709Y-112655557D01*
X128456886Y-112655394D01*
X128564817Y-112652928D01*
X128686797Y-112648122D01*
X128801125Y-112641781D01*
X129007500Y-112628115D01*
X129007500Y-112338166D01*
X128266667Y-112338166D01*
X128266667Y-112020666D01*
X129007500Y-112020666D01*
X129007500Y-111703166D01*
X128266667Y-111703166D01*
X128266667Y-111385666D01*
X129007500Y-111385666D01*
X129007500Y-111089333D01*
X128266667Y-111089333D01*
X128266667Y-110771833D01*
X129007500Y-110771833D01*
X129007500Y-110454333D01*
X128266667Y-110454333D01*
X128266667Y-110136833D01*
X129007500Y-110136833D01*
X129007500Y-109819333D01*
X128266667Y-109819333D01*
X128266667Y-109523976D01*
X128639980Y-109518196D01*
X129013292Y-109512416D01*
X129018705Y-109491250D01*
X129335584Y-109491250D01*
X129335584Y-114232583D01*
X129395301Y-114361796D01*
X129435381Y-114435714D01*
X129536627Y-114567551D01*
X129662441Y-114681492D01*
X129801250Y-114766015D01*
X129928250Y-114825250D01*
X132224834Y-114829346D01*
X132342231Y-114829546D01*
X132711438Y-114830036D01*
X133040914Y-114830223D01*
X133332665Y-114830090D01*
X133588696Y-114829617D01*
X133811016Y-114828786D01*
X134001628Y-114827578D01*
X134162541Y-114825973D01*
X134295760Y-114823955D01*
X134403292Y-114821503D01*
X134487142Y-114818599D01*
X134549317Y-114815224D01*
X134591823Y-114811359D01*
X134616667Y-114806987D01*
X134640699Y-114799973D01*
X134813771Y-114726408D01*
X134959670Y-114621332D01*
X135075971Y-114487453D01*
X135160248Y-114327481D01*
X135210077Y-114144122D01*
X135210160Y-114143604D01*
X135213368Y-114101539D01*
X135216297Y-114020754D01*
X135218947Y-113904771D01*
X135221317Y-113757115D01*
X135223409Y-113581310D01*
X135225220Y-113380880D01*
X135226753Y-113159349D01*
X135228006Y-112920241D01*
X135228980Y-112667080D01*
X135229675Y-112403391D01*
X135230091Y-112132697D01*
X135230227Y-111858523D01*
X135230084Y-111584392D01*
X135229661Y-111313829D01*
X135228960Y-111050357D01*
X135227979Y-110797501D01*
X135226719Y-110558785D01*
X135225179Y-110337733D01*
X135223360Y-110137869D01*
X135221262Y-109962717D01*
X135218885Y-109815801D01*
X135216228Y-109700645D01*
X135213292Y-109620773D01*
X135210077Y-109579710D01*
X135197579Y-109516944D01*
X135135760Y-109341944D01*
X135039053Y-109190212D01*
X134909193Y-109064053D01*
X134747916Y-108965774D01*
X134606084Y-108898583D01*
X132341250Y-108891987D01*
X132249349Y-108891720D01*
X131889399Y-108890712D01*
X131568719Y-108889947D01*
X131284835Y-108889506D01*
X131035276Y-108889470D01*
X130817567Y-108889923D01*
X130629236Y-108890946D01*
X130467809Y-108892621D01*
X130330813Y-108895029D01*
X130215775Y-108898254D01*
X130120222Y-108902376D01*
X130041681Y-108907478D01*
X129977678Y-108913642D01*
X129925740Y-108920949D01*
X129883395Y-108929482D01*
X129848168Y-108939322D01*
X129817587Y-108950553D01*
X129789179Y-108963254D01*
X129760470Y-108977509D01*
X129675331Y-109030755D01*
X129564584Y-109127294D01*
X129467322Y-109241394D01*
X129396420Y-109359543D01*
X129335584Y-109491250D01*
X129018705Y-109491250D01*
X129041580Y-109401810D01*
X129086536Y-109267062D01*
X129180363Y-109087888D01*
X129304665Y-108926797D01*
X129453372Y-108791269D01*
X129620412Y-108688781D01*
X129628100Y-108685129D01*
X129713634Y-108648075D01*
X129794960Y-108618329D01*
X129855422Y-108602038D01*
X129938834Y-108587945D01*
X129938834Y-107872000D01*
X130256334Y-107872000D01*
X130256334Y-108570500D01*
X130552667Y-108570500D01*
X130552667Y-107872000D01*
X130870167Y-107872000D01*
X130870167Y-108570500D01*
X131187667Y-108570500D01*
X131187667Y-107872000D01*
X131484000Y-107872000D01*
X131484000Y-108570500D01*
X131801500Y-108570500D01*
X131801500Y-107872000D01*
X132119000Y-107872000D01*
X132119000Y-108570500D01*
X132272459Y-108570520D01*
X132425917Y-108570540D01*
X132418804Y-108221270D01*
X132411692Y-107872000D01*
X132732834Y-107872000D01*
X132732834Y-108570500D01*
X133050334Y-108570500D01*
X133050334Y-107872000D01*
X133367834Y-107872000D01*
X133367834Y-108570500D01*
X133664167Y-108570500D01*
X133664167Y-107872000D01*
X133981667Y-107872000D01*
X133981667Y-108570500D01*
X134299167Y-108570500D01*
X134299167Y-107872000D01*
X134595500Y-107872000D01*
X134595500Y-108581648D01*
X134706625Y-108607991D01*
X134864406Y-108659959D01*
X135028629Y-108750677D01*
X135187588Y-108879808D01*
X135322697Y-109029523D01*
X135425502Y-109198260D01*
X135497015Y-109390783D01*
X135533774Y-109523000D01*
X136288834Y-109523000D01*
X136288834Y-109819333D01*
X135548000Y-109819333D01*
X135548000Y-110136833D01*
X136288834Y-110136833D01*
X136288834Y-110454333D01*
X135548000Y-110454333D01*
X135548000Y-110771833D01*
X136290688Y-110771833D01*
X136284469Y-110925291D01*
X136278250Y-111078750D01*
X135548000Y-111090332D01*
X135548000Y-111385666D01*
X136288834Y-111385666D01*
X136288834Y-111703166D01*
X135548000Y-111703166D01*
X135548000Y-111858523D01*
X135548000Y-112020666D01*
G37*
X134172167Y-114179666D02*
X133770000Y-114179666D01*
X133770000Y-114010333D01*
X134024000Y-114010333D01*
X134024000Y-113756333D01*
X134172167Y-113756333D01*
X134172167Y-114179666D01*
G36*
X134172167Y-114179666D02*
G01*
X133770000Y-114179666D01*
X133770000Y-114010333D01*
X134024000Y-114010333D01*
X134024000Y-113756333D01*
X134172167Y-113756333D01*
X134172167Y-114179666D01*
G37*
X133156167Y-114179666D02*
X132500000Y-114179666D01*
X132500000Y-114010333D01*
X133156167Y-114010333D01*
X133156167Y-114179666D01*
G36*
X133156167Y-114179666D02*
G01*
X132500000Y-114179666D01*
X132500000Y-114010333D01*
X133156167Y-114010333D01*
X133156167Y-114179666D01*
G37*
X131886167Y-114179666D02*
X131230000Y-114179666D01*
X131230000Y-114010333D01*
X131886167Y-114010333D01*
X131886167Y-114179666D01*
G36*
X131886167Y-114179666D02*
G01*
X131230000Y-114179666D01*
X131230000Y-114010333D01*
X131886167Y-114010333D01*
X131886167Y-114179666D01*
G37*
X130362167Y-114010333D02*
X130616167Y-114010333D01*
X130616167Y-114179666D01*
X130192834Y-114179666D01*
X130192834Y-113756333D01*
X130362167Y-113756333D01*
X130362167Y-114010333D01*
G36*
X130362167Y-114010333D02*
G01*
X130616167Y-114010333D01*
X130616167Y-114179666D01*
X130192834Y-114179666D01*
X130192834Y-113756333D01*
X130362167Y-113756333D01*
X130362167Y-114010333D01*
G37*
X134172167Y-113142500D02*
X134024000Y-113142500D01*
X134024000Y-112486333D01*
X134172167Y-112486333D01*
X134172167Y-113142500D01*
G36*
X134172167Y-113142500D02*
G01*
X134024000Y-113142500D01*
X134024000Y-112486333D01*
X134172167Y-112486333D01*
X134172167Y-113142500D01*
G37*
X130362167Y-113142500D02*
X130192834Y-113142500D01*
X130192834Y-112486333D01*
X130362167Y-112486333D01*
X130362167Y-113142500D01*
G36*
X130362167Y-113142500D02*
G01*
X130192834Y-113142500D01*
X130192834Y-112486333D01*
X130362167Y-112486333D01*
X130362167Y-113142500D01*
G37*
X134172167Y-111851333D02*
X134024000Y-111851333D01*
X134024000Y-111195166D01*
X134172167Y-111195166D01*
X134172167Y-111851333D01*
G36*
X134172167Y-111851333D02*
G01*
X134024000Y-111851333D01*
X134024000Y-111195166D01*
X134172167Y-111195166D01*
X134172167Y-111851333D01*
G37*
X130362167Y-111851333D02*
X130192834Y-111851333D01*
X130192834Y-111195166D01*
X130362167Y-111195166D01*
X130362167Y-111851333D01*
G36*
X130362167Y-111851333D02*
G01*
X130192834Y-111851333D01*
X130192834Y-111195166D01*
X130362167Y-111195166D01*
X130362167Y-111851333D01*
G37*
X134172167Y-110581333D02*
X134024000Y-110581333D01*
X134024000Y-110327333D01*
X133770000Y-110327333D01*
X133770000Y-110158000D01*
X134172167Y-110158000D01*
X134172167Y-110581333D01*
G36*
X134172167Y-110581333D02*
G01*
X134024000Y-110581333D01*
X134024000Y-110327333D01*
X133770000Y-110327333D01*
X133770000Y-110158000D01*
X134172167Y-110158000D01*
X134172167Y-110581333D01*
G37*
X130612153Y-110247958D02*
X130618723Y-110327333D01*
X130362167Y-110327333D01*
X130362167Y-110581333D01*
X130191301Y-110581333D01*
X130203417Y-110168583D01*
X130605584Y-110168583D01*
X130612153Y-110247958D01*
G36*
X130612153Y-110247958D02*
G01*
X130618723Y-110327333D01*
X130362167Y-110327333D01*
X130362167Y-110581333D01*
X130191301Y-110581333D01*
X130203417Y-110168583D01*
X130605584Y-110168583D01*
X130612153Y-110247958D01*
G37*
X133156167Y-110327333D02*
X132500000Y-110327333D01*
X132500000Y-110158000D01*
X133156167Y-110158000D01*
X133156167Y-110327333D01*
G36*
X133156167Y-110327333D02*
G01*
X132500000Y-110327333D01*
X132500000Y-110158000D01*
X133156167Y-110158000D01*
X133156167Y-110327333D01*
G37*
X131886167Y-110327333D02*
X131230000Y-110327333D01*
X131230000Y-110158000D01*
X131886167Y-110158000D01*
X131886167Y-110327333D01*
G36*
X131886167Y-110327333D02*
G01*
X131230000Y-110327333D01*
X131230000Y-110158000D01*
X131886167Y-110158000D01*
X131886167Y-110327333D01*
G37*
X134526937Y-109252307D02*
X134625194Y-109287909D01*
X134700183Y-109355701D01*
X134748024Y-109451392D01*
X134764834Y-109570693D01*
X134764750Y-109577846D01*
X134742243Y-109685966D01*
X134683797Y-109778725D01*
X134595079Y-109846900D01*
X134590545Y-109849200D01*
X134491306Y-109877912D01*
X134394756Y-109869429D01*
X134307735Y-109828435D01*
X134237084Y-109759617D01*
X134189641Y-109667659D01*
X134172246Y-109557248D01*
X134175335Y-109505621D01*
X134206830Y-109398484D01*
X134269353Y-109317290D01*
X134359219Y-109265835D01*
X134472741Y-109247912D01*
X134526937Y-109252307D01*
G36*
X134526937Y-109252307D02*
G01*
X134625194Y-109287909D01*
X134700183Y-109355701D01*
X134748024Y-109451392D01*
X134764834Y-109570693D01*
X134764750Y-109577846D01*
X134742243Y-109685966D01*
X134683797Y-109778725D01*
X134595079Y-109846900D01*
X134590545Y-109849200D01*
X134491306Y-109877912D01*
X134394756Y-109869429D01*
X134307735Y-109828435D01*
X134237084Y-109759617D01*
X134189641Y-109667659D01*
X134172246Y-109557248D01*
X134175335Y-109505621D01*
X134206830Y-109398484D01*
X134269353Y-109317290D01*
X134359219Y-109265835D01*
X134472741Y-109247912D01*
X134526937Y-109252307D01*
G37*
D13*
X157200000Y-111615000D02*
X155000000Y-111615000D01*
X152800000Y-111615000D02*
X155000000Y-111615000D01*
X157200000Y-118385000D02*
X155000000Y-118385000D01*
X152800000Y-118385000D02*
X155000000Y-118385000D01*
X159190000Y-112315000D02*
X158860000Y-112075000D01*
X159190000Y-111835000D01*
X159190000Y-112315000D01*
G36*
X159190000Y-112315000D02*
G01*
X158860000Y-112075000D01*
X159190000Y-111835000D01*
X159190000Y-112315000D01*
G37*
X159765000Y-116761252D02*
X159765000Y-116238748D01*
X161235000Y-116761252D02*
X161235000Y-116238748D01*
D12*
X152115491Y-81907080D02*
X152123901Y-81936860D01*
X152117625Y-81956391D01*
X152102330Y-82025790D01*
X152081975Y-82158729D01*
X152059501Y-82334459D01*
X152042593Y-82485958D01*
X152019328Y-82791853D01*
X152016295Y-83092270D01*
X152035487Y-83398678D01*
X152078895Y-83722548D01*
X152148514Y-84075350D01*
X152246335Y-84468553D01*
X152374353Y-84913629D01*
X152534559Y-85422048D01*
X152573267Y-85540334D01*
X152731216Y-86034068D01*
X152854738Y-86450632D01*
X152943876Y-86790187D01*
X152998672Y-87052897D01*
X153019169Y-87238923D01*
X153019334Y-87253049D01*
X153021900Y-87321759D01*
X153041002Y-87351116D01*
X153093738Y-87341500D01*
X153197212Y-87293295D01*
X153265966Y-87258567D01*
X153423276Y-87187426D01*
X153592785Y-87124321D01*
X153754308Y-87075082D01*
X153887661Y-87045540D01*
X153972657Y-87041525D01*
X153989680Y-87049516D01*
X154015892Y-87103739D01*
X154059977Y-87218079D01*
X154114186Y-87371956D01*
X154138738Y-87445334D01*
X154264811Y-87799238D01*
X154413255Y-88159970D01*
X154587706Y-88533634D01*
X154791802Y-88926330D01*
X155029178Y-89344162D01*
X155303473Y-89793232D01*
X155618323Y-90279643D01*
X155977366Y-90809496D01*
X156384237Y-91388895D01*
X156842575Y-92023941D01*
X156977161Y-92207834D01*
X157171845Y-92473785D01*
X157362832Y-92735884D01*
X157540494Y-92980828D01*
X157695202Y-93195311D01*
X157817325Y-93366030D01*
X157887246Y-93465249D01*
X157988707Y-93604109D01*
X158074674Y-93708682D01*
X158132938Y-93764761D01*
X158148864Y-93769719D01*
X158184445Y-93722391D01*
X158241068Y-93621677D01*
X158293140Y-93517054D01*
X158397496Y-93340519D01*
X158523939Y-93227349D01*
X158698082Y-93156317D01*
X158742037Y-93145024D01*
X158782984Y-93133542D01*
X158814249Y-93128436D01*
X158839772Y-93139871D01*
X158863493Y-93178014D01*
X158889350Y-93253030D01*
X158921284Y-93375086D01*
X158963234Y-93554349D01*
X159019139Y-93800984D01*
X159051455Y-93943500D01*
X159166814Y-94433997D01*
X159277050Y-94861387D01*
X159389169Y-95246356D01*
X159510179Y-95609592D01*
X159647088Y-95971780D01*
X159806905Y-96353606D01*
X159996636Y-96775758D01*
X160049841Y-96890615D01*
X160324286Y-97517884D01*
X160541990Y-98105517D01*
X160707030Y-98672780D01*
X160823485Y-99238938D01*
X160895433Y-99823257D01*
X160926953Y-100445002D01*
X160924843Y-101023973D01*
X160889754Y-101723947D01*
X160817643Y-102373423D01*
X160704730Y-102999769D01*
X160582423Y-103502803D01*
X160481880Y-103875773D01*
X160988310Y-104382203D01*
X160962287Y-104877852D01*
X160950975Y-105085309D01*
X160940078Y-105271204D01*
X160930924Y-105413638D01*
X160925382Y-105485500D01*
X160928542Y-105521131D01*
X160948654Y-105564762D01*
X160991867Y-105622326D01*
X161064334Y-105699756D01*
X161172203Y-105802983D01*
X161321626Y-105937939D01*
X161518753Y-106110558D01*
X161769736Y-106326770D01*
X162015167Y-106536596D01*
X162335017Y-106809057D01*
X162596462Y-107031578D01*
X162804882Y-107209895D01*
X162965657Y-107349748D01*
X163084165Y-107456874D01*
X163165786Y-107537010D01*
X163215899Y-107595894D01*
X163239885Y-107639265D01*
X163243121Y-107672860D01*
X163230988Y-107702416D01*
X163208865Y-107733672D01*
X163182132Y-107772365D01*
X163178852Y-107777809D01*
X163117854Y-107870422D01*
X163053434Y-107927960D01*
X162959844Y-107965074D01*
X162811333Y-107996411D01*
X162786937Y-108000774D01*
X162627374Y-108029061D01*
X162649093Y-108225281D01*
X162661021Y-108343919D01*
X162677556Y-108522917D01*
X162696534Y-108738238D01*
X162715791Y-108965847D01*
X162716249Y-108971389D01*
X162761686Y-109521278D01*
X163034010Y-109803356D01*
X163153562Y-109933099D01*
X163246231Y-110044922D01*
X163298665Y-110122152D01*
X163305623Y-110142467D01*
X163303288Y-110198222D01*
X163297053Y-110327140D01*
X163287494Y-110517836D01*
X163275188Y-110758927D01*
X163260712Y-111039027D01*
X163244644Y-111346752D01*
X163242645Y-111384834D01*
X163226326Y-111699642D01*
X163211567Y-111992308D01*
X163198956Y-112250543D01*
X163189080Y-112462057D01*
X163182526Y-112614563D01*
X163179881Y-112695771D01*
X163179856Y-112698750D01*
X163165122Y-112774570D01*
X163116391Y-112871879D01*
X163026032Y-113002735D01*
X162886412Y-113179194D01*
X162840658Y-113234561D01*
X162501983Y-113641790D01*
X162453843Y-114512650D01*
X162405703Y-115383511D01*
X162498476Y-115458634D01*
X162591248Y-115533756D01*
X162543157Y-116994128D01*
X162531078Y-117337670D01*
X162518484Y-117654102D01*
X162505880Y-117933523D01*
X162493775Y-118166035D01*
X162482677Y-118341739D01*
X162473092Y-118450736D01*
X162466783Y-118483332D01*
X162422319Y-118500230D01*
X162301427Y-118540359D01*
X162108681Y-118602317D01*
X161848657Y-118684701D01*
X161525929Y-118786110D01*
X161145075Y-118905141D01*
X160710668Y-119040392D01*
X160227284Y-119190462D01*
X159699499Y-119353947D01*
X159131888Y-119529447D01*
X158529025Y-119715558D01*
X157895487Y-119910879D01*
X157235849Y-120114008D01*
X156554686Y-120323542D01*
X155856573Y-120538080D01*
X155146086Y-120756220D01*
X154427799Y-120976558D01*
X153706289Y-121197694D01*
X152986131Y-121418226D01*
X152271900Y-121636750D01*
X151568171Y-121851866D01*
X150879519Y-122062170D01*
X150210521Y-122266261D01*
X149565751Y-122462737D01*
X148949784Y-122650196D01*
X148367197Y-122827235D01*
X147822563Y-122992453D01*
X147320459Y-123144447D01*
X146865460Y-123281815D01*
X146462141Y-123403156D01*
X146115078Y-123507067D01*
X145828845Y-123592146D01*
X145608019Y-123656991D01*
X145457174Y-123700200D01*
X145380886Y-123720370D01*
X145372718Y-123721730D01*
X145314503Y-123710983D01*
X145180295Y-123680715D01*
X144976121Y-123632415D01*
X144708006Y-123567575D01*
X144381977Y-123487684D01*
X144004059Y-123394233D01*
X143580278Y-123288711D01*
X143116660Y-123172609D01*
X142619231Y-123047416D01*
X142094017Y-122914624D01*
X141547043Y-122775722D01*
X141539713Y-122773857D01*
X140994589Y-122635060D01*
X140472734Y-122502077D01*
X139980003Y-122376407D01*
X139522254Y-122259547D01*
X139105344Y-122152998D01*
X138735128Y-122058257D01*
X138417465Y-121976824D01*
X138158209Y-121910198D01*
X137963219Y-121859876D01*
X137838350Y-121827359D01*
X137789459Y-121814145D01*
X137789179Y-121814043D01*
X137790336Y-121771009D01*
X137805968Y-121651268D01*
X137834962Y-121461336D01*
X137876205Y-121207726D01*
X137928585Y-120896951D01*
X137990991Y-120535526D01*
X138062310Y-120129965D01*
X138141429Y-119686781D01*
X138227236Y-119212488D01*
X138318308Y-118715287D01*
X138409895Y-118216121D01*
X138496240Y-117741343D01*
X138576199Y-117297498D01*
X138648631Y-116891129D01*
X138712392Y-116528781D01*
X138766340Y-116216996D01*
X138809332Y-115962319D01*
X138840226Y-115771293D01*
X138857879Y-115650463D01*
X138861180Y-115606402D01*
X138817541Y-115594159D01*
X138696159Y-115564464D01*
X138501898Y-115518433D01*
X138239622Y-115457180D01*
X137914193Y-115381820D01*
X137530476Y-115293468D01*
X137093334Y-115193237D01*
X136607630Y-115082242D01*
X136078228Y-114961599D01*
X135509991Y-114832421D01*
X134907784Y-114695823D01*
X134276469Y-114552920D01*
X133620909Y-114404826D01*
X133429485Y-114361637D01*
X132767552Y-114212300D01*
X132128230Y-114067994D01*
X131516402Y-113929827D01*
X130936952Y-113798902D01*
X130394764Y-113676328D01*
X129894723Y-113563208D01*
X129441711Y-113460649D01*
X129040613Y-113369757D01*
X128696313Y-113291638D01*
X128413694Y-113227397D01*
X128197641Y-113178140D01*
X128053036Y-113144973D01*
X127984765Y-113129002D01*
X127979981Y-113127758D01*
X127952425Y-113080350D01*
X127937634Y-112980548D01*
X127936834Y-112948735D01*
X127936834Y-112784163D01*
X126455198Y-112434525D01*
X126425872Y-112269513D01*
X126418559Y-112186814D01*
X126411829Y-112031281D01*
X126405925Y-111814747D01*
X126401087Y-111549044D01*
X126397558Y-111246005D01*
X126395578Y-110917462D01*
X126395264Y-110771000D01*
X126394059Y-109517330D01*
X126476334Y-109517330D01*
X126481617Y-110175915D01*
X126485204Y-110458100D01*
X126491509Y-110790488D01*
X126499764Y-111138687D01*
X126509197Y-111468303D01*
X126513367Y-111594112D01*
X126539834Y-112353723D01*
X128021500Y-112697167D01*
X128034378Y-112874224D01*
X128049255Y-112988562D01*
X128085235Y-113046214D01*
X128162509Y-113075153D01*
X128182545Y-113079510D01*
X128303621Y-113105490D01*
X128495332Y-113147572D01*
X128751779Y-113204420D01*
X129067065Y-113274699D01*
X129435292Y-113357074D01*
X129850563Y-113450209D01*
X130306980Y-113552770D01*
X130798645Y-113663422D01*
X131319661Y-113780828D01*
X131864130Y-113903654D01*
X132426153Y-114030565D01*
X132999835Y-114160225D01*
X133579276Y-114291299D01*
X134158579Y-114422453D01*
X134731847Y-114552350D01*
X135293182Y-114679655D01*
X135836686Y-114803034D01*
X136356462Y-114921151D01*
X136846611Y-115032671D01*
X137301237Y-115136259D01*
X137714441Y-115230579D01*
X138080326Y-115314296D01*
X138392994Y-115386076D01*
X138646547Y-115444582D01*
X138835089Y-115488480D01*
X138952720Y-115516435D01*
X138993524Y-115527079D01*
X138988035Y-115569654D01*
X138968277Y-115688969D01*
X138935418Y-115878518D01*
X138890629Y-116131795D01*
X138835078Y-116442292D01*
X138769934Y-116803502D01*
X138696367Y-117208920D01*
X138615545Y-117652039D01*
X138528638Y-118126351D01*
X138436846Y-118625179D01*
X138345068Y-119124283D01*
X138258310Y-119598793D01*
X138177734Y-120042193D01*
X138104500Y-120447964D01*
X138039770Y-120809589D01*
X137984703Y-121120551D01*
X137940461Y-121374331D01*
X137908206Y-121564412D01*
X137889097Y-121684276D01*
X137884291Y-121727403D01*
X137930590Y-121743564D01*
X138052042Y-121778138D01*
X138241576Y-121829354D01*
X138492118Y-121895440D01*
X138796596Y-121974624D01*
X139147939Y-122065134D01*
X139539074Y-122165201D01*
X139962929Y-122273052D01*
X140412431Y-122386915D01*
X140880509Y-122505020D01*
X141360090Y-122625594D01*
X141844101Y-122746867D01*
X142325471Y-122867067D01*
X142797128Y-122984422D01*
X143251998Y-123097162D01*
X143683011Y-123203514D01*
X144083093Y-123301707D01*
X144445172Y-123389970D01*
X144762176Y-123466532D01*
X145027033Y-123529620D01*
X145232671Y-123577464D01*
X145372017Y-123608292D01*
X145438000Y-123620333D01*
X145441667Y-123620349D01*
X145491929Y-123606350D01*
X145619280Y-123568585D01*
X145819900Y-123508222D01*
X146089966Y-123426432D01*
X146425658Y-123324383D01*
X146823152Y-123203246D01*
X147278628Y-123064190D01*
X147788264Y-122908384D01*
X148348239Y-122736998D01*
X148954731Y-122551201D01*
X149603917Y-122352163D01*
X150291978Y-122141053D01*
X151015090Y-121919041D01*
X151769434Y-121687296D01*
X152551185Y-121446988D01*
X153356525Y-121199285D01*
X153949983Y-121016663D01*
X154768866Y-120764516D01*
X155566242Y-120518788D01*
X156338333Y-120280652D01*
X157081363Y-120051280D01*
X157791556Y-119831844D01*
X158465136Y-119623515D01*
X159098327Y-119427466D01*
X159687351Y-119244869D01*
X160228433Y-119076897D01*
X160717797Y-118924720D01*
X161151666Y-118789512D01*
X161526263Y-118672444D01*
X161837814Y-118574688D01*
X162082540Y-118497417D01*
X162256667Y-118441802D01*
X162356417Y-118409016D01*
X162380119Y-118400151D01*
X162387827Y-118352008D01*
X162396941Y-118229368D01*
X162407004Y-118042382D01*
X162417557Y-117801199D01*
X162428142Y-117515970D01*
X162438301Y-117196844D01*
X162444544Y-116972834D01*
X162454458Y-116592499D01*
X162461812Y-116287781D01*
X162466278Y-116049657D01*
X162467528Y-115869108D01*
X162465235Y-115737112D01*
X162459071Y-115644648D01*
X162448708Y-115582695D01*
X162433819Y-115542232D01*
X162414076Y-115514237D01*
X162390731Y-115491167D01*
X162360788Y-115461135D01*
X162338978Y-115427154D01*
X162324824Y-115377580D01*
X162317847Y-115300773D01*
X162317569Y-115185090D01*
X162323511Y-115018888D01*
X162335196Y-114790526D01*
X162350632Y-114515066D01*
X162371535Y-114179171D01*
X162392069Y-113920922D01*
X162413035Y-113733308D01*
X162435232Y-113609316D01*
X162459462Y-113541933D01*
X162462142Y-113537877D01*
X162515138Y-113469329D01*
X162607756Y-113355104D01*
X162724682Y-113213950D01*
X162798334Y-113126266D01*
X163073500Y-112800409D01*
X163137000Y-111468457D01*
X163200500Y-110136504D01*
X162929218Y-109836386D01*
X162657935Y-109536268D01*
X162603225Y-108894217D01*
X162576982Y-108588104D01*
X162558303Y-108355871D01*
X162548666Y-108186951D01*
X162549548Y-108070774D01*
X162562426Y-107996774D01*
X162588778Y-107954384D01*
X162630082Y-107933034D01*
X162687815Y-107922159D01*
X162740149Y-107914916D01*
X162876508Y-107875813D01*
X163003490Y-107809002D01*
X163097439Y-107730321D01*
X163134698Y-107655609D01*
X163134565Y-107650841D01*
X163102853Y-107616643D01*
X163013664Y-107534124D01*
X162874198Y-107409604D01*
X162691655Y-107249402D01*
X162473235Y-107059835D01*
X162226138Y-106847223D01*
X161957563Y-106617884D01*
X161956326Y-106616831D01*
X160780524Y-105616496D01*
X160835248Y-105304498D01*
X160864195Y-105100358D01*
X160884663Y-104881896D01*
X160891653Y-104721329D01*
X160870257Y-104498121D01*
X160795379Y-104318531D01*
X160655667Y-104162560D01*
X160515030Y-104057926D01*
X160355243Y-103952184D01*
X160435066Y-103668009D01*
X160507678Y-103383229D01*
X160582648Y-103043611D01*
X160654948Y-102676228D01*
X160719548Y-102308154D01*
X160771418Y-101966465D01*
X160805530Y-101678233D01*
X160806350Y-101669334D01*
X160848822Y-100792052D01*
X160813109Y-99945487D01*
X160698786Y-99126860D01*
X160505429Y-98333393D01*
X160232612Y-97562307D01*
X160147400Y-97362404D01*
X159971933Y-96964412D01*
X159827013Y-96633760D01*
X159708568Y-96360520D01*
X159612527Y-96134765D01*
X159534819Y-95946569D01*
X159471373Y-95786005D01*
X159418117Y-95643146D01*
X159370980Y-95508065D01*
X159325891Y-95370835D01*
X159309483Y-95319334D01*
X159247241Y-95111269D01*
X159173413Y-94846322D01*
X159094875Y-94550243D01*
X159018505Y-94248777D01*
X158970255Y-94049334D01*
X158905442Y-93777206D01*
X158855667Y-93576875D01*
X158817008Y-93437620D01*
X158785543Y-93348722D01*
X158757348Y-93299460D01*
X158728502Y-93279115D01*
X158695082Y-93276966D01*
X158687923Y-93277727D01*
X158559190Y-93326302D01*
X158446965Y-93444050D01*
X158344699Y-93636690D01*
X158267097Y-93781250D01*
X158185289Y-93875567D01*
X158110858Y-93910170D01*
X158055390Y-93875587D01*
X158054470Y-93873975D01*
X158014506Y-93813307D01*
X157925673Y-93686431D01*
X157789362Y-93495278D01*
X157606965Y-93241775D01*
X157379871Y-92927850D01*
X157109472Y-92555433D01*
X156797158Y-92126452D01*
X156541476Y-91775913D01*
X156072707Y-91123131D01*
X155659111Y-90523911D01*
X155296642Y-89971302D01*
X154981256Y-89458355D01*
X154708908Y-88978120D01*
X154475551Y-88523645D01*
X154277143Y-88087981D01*
X154109636Y-87664178D01*
X154049835Y-87494826D01*
X153929500Y-87142151D01*
X153781334Y-87164877D01*
X153674949Y-87194933D01*
X153522584Y-87254835D01*
X153352243Y-87333263D01*
X153301647Y-87358801D01*
X153151747Y-87435241D01*
X153032785Y-87494082D01*
X152962884Y-87526440D01*
X152952397Y-87530000D01*
X152940519Y-87492811D01*
X152934767Y-87401753D01*
X152934667Y-87386510D01*
X152919868Y-87189980D01*
X152874795Y-86934427D01*
X152798431Y-86615817D01*
X152689761Y-86230113D01*
X152547770Y-85773280D01*
X152464703Y-85519167D01*
X152325695Y-85093902D01*
X152213472Y-84734465D01*
X152125239Y-84427353D01*
X152058200Y-84159063D01*
X152009560Y-83916091D01*
X151976525Y-83684935D01*
X151956298Y-83452091D01*
X151946086Y-83204056D01*
X151943319Y-83000334D01*
X151944125Y-82757617D01*
X151948687Y-82530841D01*
X151956331Y-82339999D01*
X151966382Y-82205085D01*
X151971356Y-82168801D01*
X152002879Y-81993436D01*
X151831866Y-82031860D01*
X151733440Y-82066868D01*
X151573925Y-82138966D01*
X151364967Y-82241905D01*
X151118210Y-82369434D01*
X150845299Y-82515305D01*
X150557879Y-82673268D01*
X150267595Y-82837073D01*
X149986090Y-83000471D01*
X149725011Y-83157212D01*
X149657931Y-83198573D01*
X148833793Y-83753497D01*
X148074043Y-84354409D01*
X147381112Y-84998586D01*
X146757433Y-85683307D01*
X146205441Y-86405847D01*
X145727566Y-87163485D01*
X145326242Y-87953498D01*
X145246818Y-88135256D01*
X145202324Y-88242322D01*
X145164202Y-88320790D01*
X145121239Y-88370174D01*
X145062223Y-88389986D01*
X144975943Y-88379742D01*
X144851186Y-88338953D01*
X144676741Y-88267134D01*
X144441395Y-88163799D01*
X144282037Y-88093400D01*
X144045424Y-87989919D01*
X143869928Y-87916513D01*
X143739414Y-87868605D01*
X143637748Y-87841616D01*
X143548796Y-87830971D01*
X143456424Y-87832091D01*
X143380083Y-87837505D01*
X143236521Y-87852145D01*
X143129624Y-87868858D01*
X143085156Y-87882733D01*
X143087197Y-87930274D01*
X143110801Y-88040968D01*
X143151809Y-88197304D01*
X143195409Y-88346957D01*
X143379178Y-89053222D01*
X143492347Y-89725907D01*
X143534583Y-90361639D01*
X143505552Y-90957051D01*
X143475527Y-91173468D01*
X143442357Y-91358978D01*
X143410160Y-91513159D01*
X143383205Y-91616902D01*
X143369123Y-91649980D01*
X143320908Y-91645197D01*
X143213068Y-91607154D01*
X143060912Y-91542003D01*
X142879751Y-91455892D01*
X142854153Y-91443121D01*
X142469784Y-91258166D01*
X142149247Y-91121375D01*
X141888014Y-91030959D01*
X141700632Y-90987877D01*
X141536765Y-90962662D01*
X141563633Y-91130690D01*
X141616163Y-91630856D01*
X141611519Y-92103299D01*
X141593229Y-92281252D01*
X141553215Y-92536155D01*
X141501497Y-92764266D01*
X141431300Y-92981746D01*
X141335847Y-93204753D01*
X141208365Y-93449446D01*
X141042076Y-93731984D01*
X140869608Y-94007000D01*
X140740579Y-94211478D01*
X140576252Y-94475710D01*
X140384596Y-94786674D01*
X140173578Y-95131348D01*
X139951167Y-95496709D01*
X139725332Y-95869735D01*
X139504040Y-96237404D01*
X139465417Y-96301822D01*
X139239480Y-96678541D01*
X139052567Y-96988834D01*
X138900376Y-97239019D01*
X138778609Y-97435414D01*
X138682965Y-97584335D01*
X138609144Y-97692101D01*
X138552845Y-97765028D01*
X138509768Y-97809435D01*
X138475613Y-97831638D01*
X138446079Y-97837954D01*
X138421402Y-97835552D01*
X138360938Y-97827181D01*
X138223629Y-97809698D01*
X138016706Y-97783983D01*
X137747399Y-97750916D01*
X137422939Y-97711377D01*
X137050556Y-97666247D01*
X136637481Y-97616403D01*
X136190944Y-97562727D01*
X135718175Y-97506098D01*
X135479618Y-97477596D01*
X134918674Y-97410773D01*
X134435230Y-97353595D01*
X134022739Y-97305456D01*
X133674659Y-97265751D01*
X133384445Y-97233871D01*
X133145550Y-97209213D01*
X132951433Y-97191167D01*
X132795546Y-97179130D01*
X132671347Y-97172493D01*
X132572290Y-97170651D01*
X132491831Y-97172997D01*
X132423425Y-97178925D01*
X132360528Y-97187828D01*
X132357534Y-97188320D01*
X132212944Y-97218331D01*
X132108369Y-97251737D01*
X132065028Y-97281641D01*
X132064836Y-97283454D01*
X132075872Y-97349228D01*
X132103692Y-97468838D01*
X132141324Y-97614853D01*
X132181797Y-97759843D01*
X132206874Y-97842265D01*
X132204754Y-97867504D01*
X132184225Y-97909117D01*
X132141676Y-97971122D01*
X132073497Y-98057538D01*
X131976077Y-98172382D01*
X131845805Y-98319674D01*
X131679069Y-98503430D01*
X131472259Y-98727670D01*
X131221765Y-98996411D01*
X130923974Y-99313672D01*
X130575277Y-99683470D01*
X130172061Y-100109824D01*
X130114518Y-100170598D01*
X127993780Y-102410167D01*
X128020309Y-105479334D01*
X128024944Y-105984129D01*
X128029892Y-106466031D01*
X128035050Y-106918062D01*
X128040315Y-107333246D01*
X128045581Y-107704606D01*
X128050745Y-108025167D01*
X128055702Y-108287950D01*
X128060348Y-108485980D01*
X128064579Y-108612279D01*
X128067785Y-108658099D01*
X128071515Y-108696084D01*
X128060572Y-108730942D01*
X128025540Y-108768481D01*
X127957006Y-108814510D01*
X127845555Y-108874835D01*
X127681772Y-108955264D01*
X127456244Y-109061605D01*
X127282533Y-109142514D01*
X126476334Y-109517330D01*
X126394059Y-109517330D01*
X126393982Y-109437500D01*
X127966542Y-108717834D01*
X127940764Y-106664667D01*
X127934736Y-106205986D01*
X127928017Y-105732218D01*
X127920855Y-105258489D01*
X127913496Y-104799926D01*
X127906189Y-104371655D01*
X127899179Y-103988804D01*
X127892714Y-103666500D01*
X127889233Y-103509863D01*
X127863479Y-102408225D01*
X129842038Y-100313696D01*
X130180259Y-99955675D01*
X130504579Y-99612415D01*
X130809799Y-99289417D01*
X131090716Y-98992182D01*
X131342132Y-98726211D01*
X131558846Y-98497006D01*
X131735656Y-98310069D01*
X131867363Y-98170899D01*
X131948765Y-98085000D01*
X131969126Y-98063589D01*
X132117654Y-97908012D01*
X132027494Y-97573873D01*
X131985517Y-97413305D01*
X131953955Y-97283049D01*
X131938186Y-97205616D01*
X131937334Y-97196522D01*
X131976113Y-97170996D01*
X132079625Y-97139971D01*
X132228629Y-97108759D01*
X132295689Y-97097563D01*
X132367249Y-97086906D01*
X132436453Y-97078639D01*
X132509896Y-97073353D01*
X132594175Y-97071636D01*
X132695886Y-97074076D01*
X132821625Y-97081262D01*
X132977989Y-97093782D01*
X133171574Y-97112226D01*
X133408977Y-97137182D01*
X133696794Y-97169238D01*
X134041620Y-97208983D01*
X134450053Y-97257006D01*
X134928688Y-97313895D01*
X135484122Y-97380239D01*
X135544773Y-97387491D01*
X136030256Y-97445490D01*
X136490990Y-97500425D01*
X136920097Y-97551482D01*
X137310701Y-97597849D01*
X137655923Y-97638711D01*
X137948887Y-97673257D01*
X138182716Y-97700673D01*
X138350530Y-97720145D01*
X138445455Y-97730861D01*
X138464711Y-97732750D01*
X138492680Y-97697620D01*
X138558245Y-97598230D01*
X138656021Y-97443269D01*
X138780624Y-97241422D01*
X138926668Y-97001376D01*
X139088768Y-96731819D01*
X139180069Y-96578750D01*
X139395398Y-96218886D01*
X139639845Y-95813984D01*
X139898364Y-95388727D01*
X140155914Y-94967796D01*
X140397451Y-94575875D01*
X140565735Y-94305109D01*
X140793332Y-93939078D01*
X140979481Y-93633300D01*
X141128368Y-93376715D01*
X141244184Y-93158263D01*
X141331116Y-92966883D01*
X141393352Y-92791516D01*
X141435081Y-92621100D01*
X141460492Y-92444576D01*
X141473772Y-92250882D01*
X141479111Y-92028960D01*
X141480182Y-91890334D01*
X141479059Y-91647130D01*
X141473737Y-91419393D01*
X141464990Y-91227275D01*
X141453593Y-91090929D01*
X141448029Y-91054250D01*
X141412558Y-90874334D01*
X141559987Y-90874334D01*
X141752943Y-90898627D01*
X142005241Y-90969354D01*
X142307652Y-91083279D01*
X142650948Y-91237169D01*
X142789685Y-91305195D01*
X142976123Y-91396868D01*
X143133785Y-91471013D01*
X143248233Y-91521091D01*
X143305027Y-91540565D01*
X143308386Y-91540058D01*
X143334504Y-91475323D01*
X143360976Y-91343715D01*
X143386111Y-91163003D01*
X143408218Y-90950955D01*
X143425604Y-90725342D01*
X143436578Y-90503930D01*
X143439447Y-90304491D01*
X143436271Y-90197000D01*
X143420877Y-89959119D01*
X143400153Y-89740269D01*
X143371275Y-89526955D01*
X143331422Y-89305682D01*
X143277773Y-89062954D01*
X143207506Y-88785276D01*
X143117799Y-88459153D01*
X143005831Y-88071089D01*
X142957217Y-87905790D01*
X142977190Y-87842410D01*
X143069992Y-87791720D01*
X143224272Y-87757338D01*
X143428680Y-87742882D01*
X143468901Y-87742672D01*
X143562288Y-87744341D01*
X143645740Y-87751425D01*
X143732119Y-87768237D01*
X143834288Y-87799088D01*
X143965108Y-87848293D01*
X144137443Y-87920164D01*
X144364155Y-88019012D01*
X144586534Y-88117404D01*
X144757080Y-88190877D01*
X144901223Y-88248981D01*
X144999951Y-88284271D01*
X145031034Y-88291448D01*
X145069441Y-88254734D01*
X145127884Y-88157325D01*
X145195897Y-88017507D01*
X145221133Y-87959305D01*
X145543044Y-87288251D01*
X145941817Y-86619158D01*
X146409984Y-85961504D01*
X146940073Y-85324769D01*
X147524615Y-84718431D01*
X148156141Y-84151971D01*
X148338506Y-84003287D01*
X148621147Y-83787161D01*
X148939823Y-83559781D01*
X149284795Y-83326802D01*
X149646324Y-83093881D01*
X150014671Y-82866673D01*
X150380098Y-82650833D01*
X150732864Y-82452018D01*
X151063233Y-82275882D01*
X151361463Y-82128082D01*
X151617817Y-82014274D01*
X151822555Y-81940112D01*
X151936361Y-81913913D01*
X152058812Y-81900798D01*
X152115491Y-81907080D01*
G36*
X152115491Y-81907080D02*
G01*
X152123901Y-81936860D01*
X152117625Y-81956391D01*
X152102330Y-82025790D01*
X152081975Y-82158729D01*
X152059501Y-82334459D01*
X152042593Y-82485958D01*
X152019328Y-82791853D01*
X152016295Y-83092270D01*
X152035487Y-83398678D01*
X152078895Y-83722548D01*
X152148514Y-84075350D01*
X152246335Y-84468553D01*
X152374353Y-84913629D01*
X152534559Y-85422048D01*
X152573267Y-85540334D01*
X152731216Y-86034068D01*
X152854738Y-86450632D01*
X152943876Y-86790187D01*
X152998672Y-87052897D01*
X153019169Y-87238923D01*
X153019334Y-87253049D01*
X153021900Y-87321759D01*
X153041002Y-87351116D01*
X153093738Y-87341500D01*
X153197212Y-87293295D01*
X153265966Y-87258567D01*
X153423276Y-87187426D01*
X153592785Y-87124321D01*
X153754308Y-87075082D01*
X153887661Y-87045540D01*
X153972657Y-87041525D01*
X153989680Y-87049516D01*
X154015892Y-87103739D01*
X154059977Y-87218079D01*
X154114186Y-87371956D01*
X154138738Y-87445334D01*
X154264811Y-87799238D01*
X154413255Y-88159970D01*
X154587706Y-88533634D01*
X154791802Y-88926330D01*
X155029178Y-89344162D01*
X155303473Y-89793232D01*
X155618323Y-90279643D01*
X155977366Y-90809496D01*
X156384237Y-91388895D01*
X156842575Y-92023941D01*
X156977161Y-92207834D01*
X157171845Y-92473785D01*
X157362832Y-92735884D01*
X157540494Y-92980828D01*
X157695202Y-93195311D01*
X157817325Y-93366030D01*
X157887246Y-93465249D01*
X157988707Y-93604109D01*
X158074674Y-93708682D01*
X158132938Y-93764761D01*
X158148864Y-93769719D01*
X158184445Y-93722391D01*
X158241068Y-93621677D01*
X158293140Y-93517054D01*
X158397496Y-93340519D01*
X158523939Y-93227349D01*
X158698082Y-93156317D01*
X158742037Y-93145024D01*
X158782984Y-93133542D01*
X158814249Y-93128436D01*
X158839772Y-93139871D01*
X158863493Y-93178014D01*
X158889350Y-93253030D01*
X158921284Y-93375086D01*
X158963234Y-93554349D01*
X159019139Y-93800984D01*
X159051455Y-93943500D01*
X159166814Y-94433997D01*
X159277050Y-94861387D01*
X159389169Y-95246356D01*
X159510179Y-95609592D01*
X159647088Y-95971780D01*
X159806905Y-96353606D01*
X159996636Y-96775758D01*
X160049841Y-96890615D01*
X160324286Y-97517884D01*
X160541990Y-98105517D01*
X160707030Y-98672780D01*
X160823485Y-99238938D01*
X160895433Y-99823257D01*
X160926953Y-100445002D01*
X160924843Y-101023973D01*
X160889754Y-101723947D01*
X160817643Y-102373423D01*
X160704730Y-102999769D01*
X160582423Y-103502803D01*
X160481880Y-103875773D01*
X160988310Y-104382203D01*
X160962287Y-104877852D01*
X160950975Y-105085309D01*
X160940078Y-105271204D01*
X160930924Y-105413638D01*
X160925382Y-105485500D01*
X160928542Y-105521131D01*
X160948654Y-105564762D01*
X160991867Y-105622326D01*
X161064334Y-105699756D01*
X161172203Y-105802983D01*
X161321626Y-105937939D01*
X161518753Y-106110558D01*
X161769736Y-106326770D01*
X162015167Y-106536596D01*
X162335017Y-106809057D01*
X162596462Y-107031578D01*
X162804882Y-107209895D01*
X162965657Y-107349748D01*
X163084165Y-107456874D01*
X163165786Y-107537010D01*
X163215899Y-107595894D01*
X163239885Y-107639265D01*
X163243121Y-107672860D01*
X163230988Y-107702416D01*
X163208865Y-107733672D01*
X163182132Y-107772365D01*
X163178852Y-107777809D01*
X163117854Y-107870422D01*
X163053434Y-107927960D01*
X162959844Y-107965074D01*
X162811333Y-107996411D01*
X162786937Y-108000774D01*
X162627374Y-108029061D01*
X162649093Y-108225281D01*
X162661021Y-108343919D01*
X162677556Y-108522917D01*
X162696534Y-108738238D01*
X162715791Y-108965847D01*
X162716249Y-108971389D01*
X162761686Y-109521278D01*
X163034010Y-109803356D01*
X163153562Y-109933099D01*
X163246231Y-110044922D01*
X163298665Y-110122152D01*
X163305623Y-110142467D01*
X163303288Y-110198222D01*
X163297053Y-110327140D01*
X163287494Y-110517836D01*
X163275188Y-110758927D01*
X163260712Y-111039027D01*
X163244644Y-111346752D01*
X163242645Y-111384834D01*
X163226326Y-111699642D01*
X163211567Y-111992308D01*
X163198956Y-112250543D01*
X163189080Y-112462057D01*
X163182526Y-112614563D01*
X163179881Y-112695771D01*
X163179856Y-112698750D01*
X163165122Y-112774570D01*
X163116391Y-112871879D01*
X163026032Y-113002735D01*
X162886412Y-113179194D01*
X162840658Y-113234561D01*
X162501983Y-113641790D01*
X162453843Y-114512650D01*
X162405703Y-115383511D01*
X162498476Y-115458634D01*
X162591248Y-115533756D01*
X162543157Y-116994128D01*
X162531078Y-117337670D01*
X162518484Y-117654102D01*
X162505880Y-117933523D01*
X162493775Y-118166035D01*
X162482677Y-118341739D01*
X162473092Y-118450736D01*
X162466783Y-118483332D01*
X162422319Y-118500230D01*
X162301427Y-118540359D01*
X162108681Y-118602317D01*
X161848657Y-118684701D01*
X161525929Y-118786110D01*
X161145075Y-118905141D01*
X160710668Y-119040392D01*
X160227284Y-119190462D01*
X159699499Y-119353947D01*
X159131888Y-119529447D01*
X158529025Y-119715558D01*
X157895487Y-119910879D01*
X157235849Y-120114008D01*
X156554686Y-120323542D01*
X155856573Y-120538080D01*
X155146086Y-120756220D01*
X154427799Y-120976558D01*
X153706289Y-121197694D01*
X152986131Y-121418226D01*
X152271900Y-121636750D01*
X151568171Y-121851866D01*
X150879519Y-122062170D01*
X150210521Y-122266261D01*
X149565751Y-122462737D01*
X148949784Y-122650196D01*
X148367197Y-122827235D01*
X147822563Y-122992453D01*
X147320459Y-123144447D01*
X146865460Y-123281815D01*
X146462141Y-123403156D01*
X146115078Y-123507067D01*
X145828845Y-123592146D01*
X145608019Y-123656991D01*
X145457174Y-123700200D01*
X145380886Y-123720370D01*
X145372718Y-123721730D01*
X145314503Y-123710983D01*
X145180295Y-123680715D01*
X144976121Y-123632415D01*
X144708006Y-123567575D01*
X144381977Y-123487684D01*
X144004059Y-123394233D01*
X143580278Y-123288711D01*
X143116660Y-123172609D01*
X142619231Y-123047416D01*
X142094017Y-122914624D01*
X141547043Y-122775722D01*
X141539713Y-122773857D01*
X140994589Y-122635060D01*
X140472734Y-122502077D01*
X139980003Y-122376407D01*
X139522254Y-122259547D01*
X139105344Y-122152998D01*
X138735128Y-122058257D01*
X138417465Y-121976824D01*
X138158209Y-121910198D01*
X137963219Y-121859876D01*
X137838350Y-121827359D01*
X137789459Y-121814145D01*
X137789179Y-121814043D01*
X137790336Y-121771009D01*
X137805968Y-121651268D01*
X137834962Y-121461336D01*
X137876205Y-121207726D01*
X137928585Y-120896951D01*
X137990991Y-120535526D01*
X138062310Y-120129965D01*
X138141429Y-119686781D01*
X138227236Y-119212488D01*
X138318308Y-118715287D01*
X138409895Y-118216121D01*
X138496240Y-117741343D01*
X138576199Y-117297498D01*
X138648631Y-116891129D01*
X138712392Y-116528781D01*
X138766340Y-116216996D01*
X138809332Y-115962319D01*
X138840226Y-115771293D01*
X138857879Y-115650463D01*
X138861180Y-115606402D01*
X138817541Y-115594159D01*
X138696159Y-115564464D01*
X138501898Y-115518433D01*
X138239622Y-115457180D01*
X137914193Y-115381820D01*
X137530476Y-115293468D01*
X137093334Y-115193237D01*
X136607630Y-115082242D01*
X136078228Y-114961599D01*
X135509991Y-114832421D01*
X134907784Y-114695823D01*
X134276469Y-114552920D01*
X133620909Y-114404826D01*
X133429485Y-114361637D01*
X132767552Y-114212300D01*
X132128230Y-114067994D01*
X131516402Y-113929827D01*
X130936952Y-113798902D01*
X130394764Y-113676328D01*
X129894723Y-113563208D01*
X129441711Y-113460649D01*
X129040613Y-113369757D01*
X128696313Y-113291638D01*
X128413694Y-113227397D01*
X128197641Y-113178140D01*
X128053036Y-113144973D01*
X127984765Y-113129002D01*
X127979981Y-113127758D01*
X127952425Y-113080350D01*
X127937634Y-112980548D01*
X127936834Y-112948735D01*
X127936834Y-112784163D01*
X126455198Y-112434525D01*
X126425872Y-112269513D01*
X126418559Y-112186814D01*
X126411829Y-112031281D01*
X126405925Y-111814747D01*
X126401087Y-111549044D01*
X126397558Y-111246005D01*
X126395578Y-110917462D01*
X126395264Y-110771000D01*
X126394059Y-109517330D01*
X126476334Y-109517330D01*
X126481617Y-110175915D01*
X126485204Y-110458100D01*
X126491509Y-110790488D01*
X126499764Y-111138687D01*
X126509197Y-111468303D01*
X126513367Y-111594112D01*
X126539834Y-112353723D01*
X128021500Y-112697167D01*
X128034378Y-112874224D01*
X128049255Y-112988562D01*
X128085235Y-113046214D01*
X128162509Y-113075153D01*
X128182545Y-113079510D01*
X128303621Y-113105490D01*
X128495332Y-113147572D01*
X128751779Y-113204420D01*
X129067065Y-113274699D01*
X129435292Y-113357074D01*
X129850563Y-113450209D01*
X130306980Y-113552770D01*
X130798645Y-113663422D01*
X131319661Y-113780828D01*
X131864130Y-113903654D01*
X132426153Y-114030565D01*
X132999835Y-114160225D01*
X133579276Y-114291299D01*
X134158579Y-114422453D01*
X134731847Y-114552350D01*
X135293182Y-114679655D01*
X135836686Y-114803034D01*
X136356462Y-114921151D01*
X136846611Y-115032671D01*
X137301237Y-115136259D01*
X137714441Y-115230579D01*
X138080326Y-115314296D01*
X138392994Y-115386076D01*
X138646547Y-115444582D01*
X138835089Y-115488480D01*
X138952720Y-115516435D01*
X138993524Y-115527079D01*
X138988035Y-115569654D01*
X138968277Y-115688969D01*
X138935418Y-115878518D01*
X138890629Y-116131795D01*
X138835078Y-116442292D01*
X138769934Y-116803502D01*
X138696367Y-117208920D01*
X138615545Y-117652039D01*
X138528638Y-118126351D01*
X138436846Y-118625179D01*
X138345068Y-119124283D01*
X138258310Y-119598793D01*
X138177734Y-120042193D01*
X138104500Y-120447964D01*
X138039770Y-120809589D01*
X137984703Y-121120551D01*
X137940461Y-121374331D01*
X137908206Y-121564412D01*
X137889097Y-121684276D01*
X137884291Y-121727403D01*
X137930590Y-121743564D01*
X138052042Y-121778138D01*
X138241576Y-121829354D01*
X138492118Y-121895440D01*
X138796596Y-121974624D01*
X139147939Y-122065134D01*
X139539074Y-122165201D01*
X139962929Y-122273052D01*
X140412431Y-122386915D01*
X140880509Y-122505020D01*
X141360090Y-122625594D01*
X141844101Y-122746867D01*
X142325471Y-122867067D01*
X142797128Y-122984422D01*
X143251998Y-123097162D01*
X143683011Y-123203514D01*
X144083093Y-123301707D01*
X144445172Y-123389970D01*
X144762176Y-123466532D01*
X145027033Y-123529620D01*
X145232671Y-123577464D01*
X145372017Y-123608292D01*
X145438000Y-123620333D01*
X145441667Y-123620349D01*
X145491929Y-123606350D01*
X145619280Y-123568585D01*
X145819900Y-123508222D01*
X146089966Y-123426432D01*
X146425658Y-123324383D01*
X146823152Y-123203246D01*
X147278628Y-123064190D01*
X147788264Y-122908384D01*
X148348239Y-122736998D01*
X148954731Y-122551201D01*
X149603917Y-122352163D01*
X150291978Y-122141053D01*
X151015090Y-121919041D01*
X151769434Y-121687296D01*
X152551185Y-121446988D01*
X153356525Y-121199285D01*
X153949983Y-121016663D01*
X154768866Y-120764516D01*
X155566242Y-120518788D01*
X156338333Y-120280652D01*
X157081363Y-120051280D01*
X157791556Y-119831844D01*
X158465136Y-119623515D01*
X159098327Y-119427466D01*
X159687351Y-119244869D01*
X160228433Y-119076897D01*
X160717797Y-118924720D01*
X161151666Y-118789512D01*
X161526263Y-118672444D01*
X161837814Y-118574688D01*
X162082540Y-118497417D01*
X162256667Y-118441802D01*
X162356417Y-118409016D01*
X162380119Y-118400151D01*
X162387827Y-118352008D01*
X162396941Y-118229368D01*
X162407004Y-118042382D01*
X162417557Y-117801199D01*
X162428142Y-117515970D01*
X162438301Y-117196844D01*
X162444544Y-116972834D01*
X162454458Y-116592499D01*
X162461812Y-116287781D01*
X162466278Y-116049657D01*
X162467528Y-115869108D01*
X162465235Y-115737112D01*
X162459071Y-115644648D01*
X162448708Y-115582695D01*
X162433819Y-115542232D01*
X162414076Y-115514237D01*
X162390731Y-115491167D01*
X162360788Y-115461135D01*
X162338978Y-115427154D01*
X162324824Y-115377580D01*
X162317847Y-115300773D01*
X162317569Y-115185090D01*
X162323511Y-115018888D01*
X162335196Y-114790526D01*
X162350632Y-114515066D01*
X162371535Y-114179171D01*
X162392069Y-113920922D01*
X162413035Y-113733308D01*
X162435232Y-113609316D01*
X162459462Y-113541933D01*
X162462142Y-113537877D01*
X162515138Y-113469329D01*
X162607756Y-113355104D01*
X162724682Y-113213950D01*
X162798334Y-113126266D01*
X163073500Y-112800409D01*
X163137000Y-111468457D01*
X163200500Y-110136504D01*
X162929218Y-109836386D01*
X162657935Y-109536268D01*
X162603225Y-108894217D01*
X162576982Y-108588104D01*
X162558303Y-108355871D01*
X162548666Y-108186951D01*
X162549548Y-108070774D01*
X162562426Y-107996774D01*
X162588778Y-107954384D01*
X162630082Y-107933034D01*
X162687815Y-107922159D01*
X162740149Y-107914916D01*
X162876508Y-107875813D01*
X163003490Y-107809002D01*
X163097439Y-107730321D01*
X163134698Y-107655609D01*
X163134565Y-107650841D01*
X163102853Y-107616643D01*
X163013664Y-107534124D01*
X162874198Y-107409604D01*
X162691655Y-107249402D01*
X162473235Y-107059835D01*
X162226138Y-106847223D01*
X161957563Y-106617884D01*
X161956326Y-106616831D01*
X160780524Y-105616496D01*
X160835248Y-105304498D01*
X160864195Y-105100358D01*
X160884663Y-104881896D01*
X160891653Y-104721329D01*
X160870257Y-104498121D01*
X160795379Y-104318531D01*
X160655667Y-104162560D01*
X160515030Y-104057926D01*
X160355243Y-103952184D01*
X160435066Y-103668009D01*
X160507678Y-103383229D01*
X160582648Y-103043611D01*
X160654948Y-102676228D01*
X160719548Y-102308154D01*
X160771418Y-101966465D01*
X160805530Y-101678233D01*
X160806350Y-101669334D01*
X160848822Y-100792052D01*
X160813109Y-99945487D01*
X160698786Y-99126860D01*
X160505429Y-98333393D01*
X160232612Y-97562307D01*
X160147400Y-97362404D01*
X159971933Y-96964412D01*
X159827013Y-96633760D01*
X159708568Y-96360520D01*
X159612527Y-96134765D01*
X159534819Y-95946569D01*
X159471373Y-95786005D01*
X159418117Y-95643146D01*
X159370980Y-95508065D01*
X159325891Y-95370835D01*
X159309483Y-95319334D01*
X159247241Y-95111269D01*
X159173413Y-94846322D01*
X159094875Y-94550243D01*
X159018505Y-94248777D01*
X158970255Y-94049334D01*
X158905442Y-93777206D01*
X158855667Y-93576875D01*
X158817008Y-93437620D01*
X158785543Y-93348722D01*
X158757348Y-93299460D01*
X158728502Y-93279115D01*
X158695082Y-93276966D01*
X158687923Y-93277727D01*
X158559190Y-93326302D01*
X158446965Y-93444050D01*
X158344699Y-93636690D01*
X158267097Y-93781250D01*
X158185289Y-93875567D01*
X158110858Y-93910170D01*
X158055390Y-93875587D01*
X158054470Y-93873975D01*
X158014506Y-93813307D01*
X157925673Y-93686431D01*
X157789362Y-93495278D01*
X157606965Y-93241775D01*
X157379871Y-92927850D01*
X157109472Y-92555433D01*
X156797158Y-92126452D01*
X156541476Y-91775913D01*
X156072707Y-91123131D01*
X155659111Y-90523911D01*
X155296642Y-89971302D01*
X154981256Y-89458355D01*
X154708908Y-88978120D01*
X154475551Y-88523645D01*
X154277143Y-88087981D01*
X154109636Y-87664178D01*
X154049835Y-87494826D01*
X153929500Y-87142151D01*
X153781334Y-87164877D01*
X153674949Y-87194933D01*
X153522584Y-87254835D01*
X153352243Y-87333263D01*
X153301647Y-87358801D01*
X153151747Y-87435241D01*
X153032785Y-87494082D01*
X152962884Y-87526440D01*
X152952397Y-87530000D01*
X152940519Y-87492811D01*
X152934767Y-87401753D01*
X152934667Y-87386510D01*
X152919868Y-87189980D01*
X152874795Y-86934427D01*
X152798431Y-86615817D01*
X152689761Y-86230113D01*
X152547770Y-85773280D01*
X152464703Y-85519167D01*
X152325695Y-85093902D01*
X152213472Y-84734465D01*
X152125239Y-84427353D01*
X152058200Y-84159063D01*
X152009560Y-83916091D01*
X151976525Y-83684935D01*
X151956298Y-83452091D01*
X151946086Y-83204056D01*
X151943319Y-83000334D01*
X151944125Y-82757617D01*
X151948687Y-82530841D01*
X151956331Y-82339999D01*
X151966382Y-82205085D01*
X151971356Y-82168801D01*
X152002879Y-81993436D01*
X151831866Y-82031860D01*
X151733440Y-82066868D01*
X151573925Y-82138966D01*
X151364967Y-82241905D01*
X151118210Y-82369434D01*
X150845299Y-82515305D01*
X150557879Y-82673268D01*
X150267595Y-82837073D01*
X149986090Y-83000471D01*
X149725011Y-83157212D01*
X149657931Y-83198573D01*
X148833793Y-83753497D01*
X148074043Y-84354409D01*
X147381112Y-84998586D01*
X146757433Y-85683307D01*
X146205441Y-86405847D01*
X145727566Y-87163485D01*
X145326242Y-87953498D01*
X145246818Y-88135256D01*
X145202324Y-88242322D01*
X145164202Y-88320790D01*
X145121239Y-88370174D01*
X145062223Y-88389986D01*
X144975943Y-88379742D01*
X144851186Y-88338953D01*
X144676741Y-88267134D01*
X144441395Y-88163799D01*
X144282037Y-88093400D01*
X144045424Y-87989919D01*
X143869928Y-87916513D01*
X143739414Y-87868605D01*
X143637748Y-87841616D01*
X143548796Y-87830971D01*
X143456424Y-87832091D01*
X143380083Y-87837505D01*
X143236521Y-87852145D01*
X143129624Y-87868858D01*
X143085156Y-87882733D01*
X143087197Y-87930274D01*
X143110801Y-88040968D01*
X143151809Y-88197304D01*
X143195409Y-88346957D01*
X143379178Y-89053222D01*
X143492347Y-89725907D01*
X143534583Y-90361639D01*
X143505552Y-90957051D01*
X143475527Y-91173468D01*
X143442357Y-91358978D01*
X143410160Y-91513159D01*
X143383205Y-91616902D01*
X143369123Y-91649980D01*
X143320908Y-91645197D01*
X143213068Y-91607154D01*
X143060912Y-91542003D01*
X142879751Y-91455892D01*
X142854153Y-91443121D01*
X142469784Y-91258166D01*
X142149247Y-91121375D01*
X141888014Y-91030959D01*
X141700632Y-90987877D01*
X141536765Y-90962662D01*
X141563633Y-91130690D01*
X141616163Y-91630856D01*
X141611519Y-92103299D01*
X141593229Y-92281252D01*
X141553215Y-92536155D01*
X141501497Y-92764266D01*
X141431300Y-92981746D01*
X141335847Y-93204753D01*
X141208365Y-93449446D01*
X141042076Y-93731984D01*
X140869608Y-94007000D01*
X140740579Y-94211478D01*
X140576252Y-94475710D01*
X140384596Y-94786674D01*
X140173578Y-95131348D01*
X139951167Y-95496709D01*
X139725332Y-95869735D01*
X139504040Y-96237404D01*
X139465417Y-96301822D01*
X139239480Y-96678541D01*
X139052567Y-96988834D01*
X138900376Y-97239019D01*
X138778609Y-97435414D01*
X138682965Y-97584335D01*
X138609144Y-97692101D01*
X138552845Y-97765028D01*
X138509768Y-97809435D01*
X138475613Y-97831638D01*
X138446079Y-97837954D01*
X138421402Y-97835552D01*
X138360938Y-97827181D01*
X138223629Y-97809698D01*
X138016706Y-97783983D01*
X137747399Y-97750916D01*
X137422939Y-97711377D01*
X137050556Y-97666247D01*
X136637481Y-97616403D01*
X136190944Y-97562727D01*
X135718175Y-97506098D01*
X135479618Y-97477596D01*
X134918674Y-97410773D01*
X134435230Y-97353595D01*
X134022739Y-97305456D01*
X133674659Y-97265751D01*
X133384445Y-97233871D01*
X133145550Y-97209213D01*
X132951433Y-97191167D01*
X132795546Y-97179130D01*
X132671347Y-97172493D01*
X132572290Y-97170651D01*
X132491831Y-97172997D01*
X132423425Y-97178925D01*
X132360528Y-97187828D01*
X132357534Y-97188320D01*
X132212944Y-97218331D01*
X132108369Y-97251737D01*
X132065028Y-97281641D01*
X132064836Y-97283454D01*
X132075872Y-97349228D01*
X132103692Y-97468838D01*
X132141324Y-97614853D01*
X132181797Y-97759843D01*
X132206874Y-97842265D01*
X132204754Y-97867504D01*
X132184225Y-97909117D01*
X132141676Y-97971122D01*
X132073497Y-98057538D01*
X131976077Y-98172382D01*
X131845805Y-98319674D01*
X131679069Y-98503430D01*
X131472259Y-98727670D01*
X131221765Y-98996411D01*
X130923974Y-99313672D01*
X130575277Y-99683470D01*
X130172061Y-100109824D01*
X130114518Y-100170598D01*
X127993780Y-102410167D01*
X128020309Y-105479334D01*
X128024944Y-105984129D01*
X128029892Y-106466031D01*
X128035050Y-106918062D01*
X128040315Y-107333246D01*
X128045581Y-107704606D01*
X128050745Y-108025167D01*
X128055702Y-108287950D01*
X128060348Y-108485980D01*
X128064579Y-108612279D01*
X128067785Y-108658099D01*
X128071515Y-108696084D01*
X128060572Y-108730942D01*
X128025540Y-108768481D01*
X127957006Y-108814510D01*
X127845555Y-108874835D01*
X127681772Y-108955264D01*
X127456244Y-109061605D01*
X127282533Y-109142514D01*
X126476334Y-109517330D01*
X126394059Y-109517330D01*
X126393982Y-109437500D01*
X127966542Y-108717834D01*
X127940764Y-106664667D01*
X127934736Y-106205986D01*
X127928017Y-105732218D01*
X127920855Y-105258489D01*
X127913496Y-104799926D01*
X127906189Y-104371655D01*
X127899179Y-103988804D01*
X127892714Y-103666500D01*
X127889233Y-103509863D01*
X127863479Y-102408225D01*
X129842038Y-100313696D01*
X130180259Y-99955675D01*
X130504579Y-99612415D01*
X130809799Y-99289417D01*
X131090716Y-98992182D01*
X131342132Y-98726211D01*
X131558846Y-98497006D01*
X131735656Y-98310069D01*
X131867363Y-98170899D01*
X131948765Y-98085000D01*
X131969126Y-98063589D01*
X132117654Y-97908012D01*
X132027494Y-97573873D01*
X131985517Y-97413305D01*
X131953955Y-97283049D01*
X131938186Y-97205616D01*
X131937334Y-97196522D01*
X131976113Y-97170996D01*
X132079625Y-97139971D01*
X132228629Y-97108759D01*
X132295689Y-97097563D01*
X132367249Y-97086906D01*
X132436453Y-97078639D01*
X132509896Y-97073353D01*
X132594175Y-97071636D01*
X132695886Y-97074076D01*
X132821625Y-97081262D01*
X132977989Y-97093782D01*
X133171574Y-97112226D01*
X133408977Y-97137182D01*
X133696794Y-97169238D01*
X134041620Y-97208983D01*
X134450053Y-97257006D01*
X134928688Y-97313895D01*
X135484122Y-97380239D01*
X135544773Y-97387491D01*
X136030256Y-97445490D01*
X136490990Y-97500425D01*
X136920097Y-97551482D01*
X137310701Y-97597849D01*
X137655923Y-97638711D01*
X137948887Y-97673257D01*
X138182716Y-97700673D01*
X138350530Y-97720145D01*
X138445455Y-97730861D01*
X138464711Y-97732750D01*
X138492680Y-97697620D01*
X138558245Y-97598230D01*
X138656021Y-97443269D01*
X138780624Y-97241422D01*
X138926668Y-97001376D01*
X139088768Y-96731819D01*
X139180069Y-96578750D01*
X139395398Y-96218886D01*
X139639845Y-95813984D01*
X139898364Y-95388727D01*
X140155914Y-94967796D01*
X140397451Y-94575875D01*
X140565735Y-94305109D01*
X140793332Y-93939078D01*
X140979481Y-93633300D01*
X141128368Y-93376715D01*
X141244184Y-93158263D01*
X141331116Y-92966883D01*
X141393352Y-92791516D01*
X141435081Y-92621100D01*
X141460492Y-92444576D01*
X141473772Y-92250882D01*
X141479111Y-92028960D01*
X141480182Y-91890334D01*
X141479059Y-91647130D01*
X141473737Y-91419393D01*
X141464990Y-91227275D01*
X141453593Y-91090929D01*
X141448029Y-91054250D01*
X141412558Y-90874334D01*
X141559987Y-90874334D01*
X141752943Y-90898627D01*
X142005241Y-90969354D01*
X142307652Y-91083279D01*
X142650948Y-91237169D01*
X142789685Y-91305195D01*
X142976123Y-91396868D01*
X143133785Y-91471013D01*
X143248233Y-91521091D01*
X143305027Y-91540565D01*
X143308386Y-91540058D01*
X143334504Y-91475323D01*
X143360976Y-91343715D01*
X143386111Y-91163003D01*
X143408218Y-90950955D01*
X143425604Y-90725342D01*
X143436578Y-90503930D01*
X143439447Y-90304491D01*
X143436271Y-90197000D01*
X143420877Y-89959119D01*
X143400153Y-89740269D01*
X143371275Y-89526955D01*
X143331422Y-89305682D01*
X143277773Y-89062954D01*
X143207506Y-88785276D01*
X143117799Y-88459153D01*
X143005831Y-88071089D01*
X142957217Y-87905790D01*
X142977190Y-87842410D01*
X143069992Y-87791720D01*
X143224272Y-87757338D01*
X143428680Y-87742882D01*
X143468901Y-87742672D01*
X143562288Y-87744341D01*
X143645740Y-87751425D01*
X143732119Y-87768237D01*
X143834288Y-87799088D01*
X143965108Y-87848293D01*
X144137443Y-87920164D01*
X144364155Y-88019012D01*
X144586534Y-88117404D01*
X144757080Y-88190877D01*
X144901223Y-88248981D01*
X144999951Y-88284271D01*
X145031034Y-88291448D01*
X145069441Y-88254734D01*
X145127884Y-88157325D01*
X145195897Y-88017507D01*
X145221133Y-87959305D01*
X145543044Y-87288251D01*
X145941817Y-86619158D01*
X146409984Y-85961504D01*
X146940073Y-85324769D01*
X147524615Y-84718431D01*
X148156141Y-84151971D01*
X148338506Y-84003287D01*
X148621147Y-83787161D01*
X148939823Y-83559781D01*
X149284795Y-83326802D01*
X149646324Y-83093881D01*
X150014671Y-82866673D01*
X150380098Y-82650833D01*
X150732864Y-82452018D01*
X151063233Y-82275882D01*
X151361463Y-82128082D01*
X151617817Y-82014274D01*
X151822555Y-81940112D01*
X151936361Y-81913913D01*
X152058812Y-81900798D01*
X152115491Y-81907080D01*
G37*
X153264860Y-80554297D02*
X153404718Y-80578525D01*
X153468201Y-80617143D01*
X153468141Y-80645814D01*
X153229512Y-81221576D01*
X153057885Y-81763843D01*
X152950454Y-82287035D01*
X152904415Y-82805567D01*
X152916963Y-83333858D01*
X152925579Y-83434836D01*
X152949644Y-83638097D01*
X152988125Y-83901944D01*
X153037388Y-84204245D01*
X153093800Y-84522867D01*
X153153728Y-84835676D01*
X153163494Y-84884167D01*
X153220410Y-85168160D01*
X153272992Y-85437061D01*
X153318306Y-85675339D01*
X153353414Y-85867460D01*
X153375381Y-85997892D01*
X153379559Y-86027167D01*
X153402523Y-86192571D01*
X153425585Y-86284778D01*
X153458964Y-86314650D01*
X153512879Y-86293049D01*
X153582193Y-86242554D01*
X153768873Y-86125395D01*
X153989966Y-86023245D01*
X154201348Y-85955962D01*
X154233869Y-85949286D01*
X154309975Y-85939253D01*
X154357289Y-85955947D01*
X154392146Y-86016661D01*
X154430882Y-86138686D01*
X154438897Y-86166318D01*
X154628979Y-86729470D01*
X154884887Y-87336015D01*
X155203536Y-87980155D01*
X155581843Y-88656089D01*
X156016725Y-89358018D01*
X156505097Y-90080142D01*
X156564663Y-90164379D01*
X156897231Y-90631647D01*
X157197846Y-91052110D01*
X157464351Y-91422810D01*
X157694585Y-91740788D01*
X157886390Y-92003085D01*
X158037606Y-92206743D01*
X158146076Y-92348804D01*
X158209638Y-92426308D01*
X158225814Y-92440667D01*
X158269556Y-92414640D01*
X158358845Y-92345644D01*
X158476255Y-92247309D01*
X158505396Y-92221983D01*
X158776784Y-92016405D01*
X159039158Y-91885491D01*
X159228735Y-91833713D01*
X159363303Y-91808990D01*
X159431938Y-92114245D01*
X159626944Y-92884489D01*
X159874062Y-93699099D01*
X160167196Y-94540960D01*
X160500246Y-95392959D01*
X160867115Y-96237981D01*
X161012857Y-96551031D01*
X161305102Y-97210705D01*
X161536855Y-97836244D01*
X161713259Y-98446993D01*
X161839459Y-99062298D01*
X161920601Y-99701504D01*
X161947652Y-100066189D01*
X161960985Y-100938550D01*
X161899896Y-101818158D01*
X161763373Y-102715416D01*
X161630808Y-103324994D01*
X161480928Y-103943488D01*
X161733815Y-104196375D01*
X161889721Y-104370798D01*
X161984901Y-104533018D01*
X162026400Y-104707311D01*
X162021262Y-104917952D01*
X161994598Y-105095038D01*
X161974490Y-105237787D01*
X161969935Y-105346087D01*
X161980540Y-105393723D01*
X162019691Y-105426870D01*
X162116414Y-105508380D01*
X162263459Y-105632152D01*
X162453574Y-105792086D01*
X162679507Y-105982081D01*
X162934006Y-106196039D01*
X163209821Y-106427857D01*
X163264000Y-106473388D01*
X163543253Y-106708121D01*
X163802730Y-106926353D01*
X164035150Y-107121951D01*
X164233229Y-107288779D01*
X164389685Y-107420703D01*
X164497235Y-107511590D01*
X164548596Y-107555304D01*
X164551375Y-107557747D01*
X164550554Y-107607945D01*
X164516240Y-107709335D01*
X164458550Y-107840536D01*
X164387603Y-107980168D01*
X164313517Y-108106851D01*
X164249436Y-108195744D01*
X164173000Y-108242995D01*
X164048484Y-108282452D01*
X163980279Y-108294966D01*
X163846827Y-108321754D01*
X163783301Y-108359095D01*
X163772559Y-108393723D01*
X163776211Y-108457779D01*
X163785963Y-108590598D01*
X163800597Y-108776590D01*
X163818896Y-109000167D01*
X163833775Y-109177068D01*
X163894432Y-109890302D01*
X164186195Y-110214234D01*
X164477958Y-110538167D01*
X164406286Y-111984305D01*
X164334615Y-113430443D01*
X163617819Y-114274475D01*
X163570077Y-115193632D01*
X163522334Y-116112789D01*
X163620089Y-116204145D01*
X163717844Y-116295500D01*
X163669523Y-117829283D01*
X163656848Y-118197606D01*
X163643229Y-118532611D01*
X163629168Y-118825499D01*
X163615164Y-119067470D01*
X163601719Y-119249726D01*
X163589333Y-119363468D01*
X163580184Y-119399565D01*
X163535803Y-119415791D01*
X163414760Y-119455374D01*
X163221376Y-119516977D01*
X162959976Y-119599263D01*
X162634882Y-119700894D01*
X162250415Y-119820532D01*
X161810900Y-119956839D01*
X161320658Y-120108479D01*
X160784013Y-120274113D01*
X160205287Y-120452404D01*
X159588802Y-120642015D01*
X158938882Y-120841607D01*
X158259849Y-121049843D01*
X157556026Y-121265386D01*
X157062167Y-121416457D01*
X156294669Y-121651131D01*
X155518937Y-121888331D01*
X154741813Y-122125967D01*
X153970135Y-122361946D01*
X153210743Y-122594176D01*
X152470477Y-122820565D01*
X151756176Y-123039023D01*
X151074681Y-123247456D01*
X150432830Y-123443773D01*
X149837464Y-123625882D01*
X149295422Y-123791692D01*
X148813544Y-123939110D01*
X148398669Y-124066044D01*
X148057638Y-124170403D01*
X148045167Y-124174220D01*
X147596460Y-124310994D01*
X147169711Y-124440005D01*
X146772139Y-124559140D01*
X146410960Y-124666288D01*
X146093392Y-124759336D01*
X145826652Y-124836172D01*
X145617958Y-124894685D01*
X145474526Y-124932761D01*
X145403575Y-124948288D01*
X145399334Y-124948537D01*
X145344965Y-124937993D01*
X145213843Y-124908058D01*
X145011311Y-124860047D01*
X144742713Y-124795274D01*
X144413390Y-124715055D01*
X144028686Y-124620704D01*
X143593944Y-124513537D01*
X143114506Y-124394868D01*
X142595716Y-124266011D01*
X142042916Y-124128283D01*
X141461449Y-123982997D01*
X140856659Y-123831469D01*
X140679167Y-123786921D01*
X140067025Y-123633186D01*
X139475650Y-123484591D01*
X138910487Y-123342508D01*
X138376984Y-123208309D01*
X137880586Y-123083367D01*
X137426740Y-122969054D01*
X137020890Y-122866743D01*
X136668483Y-122777807D01*
X136374965Y-122703616D01*
X136145783Y-122645545D01*
X135986382Y-122604966D01*
X135902208Y-122583250D01*
X135893176Y-122580824D01*
X135721519Y-122533288D01*
X136288002Y-119675164D01*
X136382747Y-119196012D01*
X136472133Y-118741769D01*
X136554864Y-118319163D01*
X136629643Y-117934925D01*
X136695173Y-117595785D01*
X136750156Y-117308472D01*
X136793298Y-117079716D01*
X136823299Y-116916246D01*
X136838865Y-116824792D01*
X136840659Y-116807169D01*
X136798646Y-116795809D01*
X136679530Y-116765126D01*
X136488333Y-116716387D01*
X136230076Y-116650859D01*
X135909781Y-116569809D01*
X135532471Y-116474504D01*
X135103166Y-116366210D01*
X134626888Y-116246195D01*
X134108660Y-116115726D01*
X133553504Y-115976069D01*
X132966440Y-115828492D01*
X132352490Y-115674261D01*
X131869104Y-115552900D01*
X126911375Y-114308503D01*
X126887068Y-113847743D01*
X126875999Y-113659955D01*
X126864747Y-113506326D01*
X126854761Y-113404721D01*
X126848522Y-113372744D01*
X126804769Y-113359266D01*
X126691370Y-113330182D01*
X126521244Y-113288641D01*
X126307306Y-113237793D01*
X126062474Y-113180788D01*
X126041705Y-113176002D01*
X125249128Y-112993500D01*
X125249110Y-112908834D01*
X125331122Y-112908834D01*
X126062478Y-113074723D01*
X126361129Y-113141231D01*
X126587964Y-113192418D01*
X126752740Y-113235644D01*
X126865211Y-113278272D01*
X126935133Y-113327666D01*
X126972262Y-113391186D01*
X126986353Y-113476197D01*
X126987162Y-113590059D01*
X126984444Y-113740136D01*
X126984334Y-113770437D01*
X126984334Y-114231970D01*
X131957905Y-115475071D01*
X132590221Y-115633428D01*
X133199491Y-115786629D01*
X133780696Y-115933381D01*
X134328815Y-116072390D01*
X134838830Y-116202362D01*
X135305721Y-116322004D01*
X135724468Y-116430020D01*
X136090051Y-116525119D01*
X136397451Y-116606005D01*
X136641648Y-116671385D01*
X136817623Y-116719966D01*
X136920355Y-116750453D01*
X136946411Y-116760836D01*
X136940880Y-116808563D01*
X136920000Y-116932418D01*
X136885084Y-117125515D01*
X136837446Y-117380970D01*
X136778397Y-117691900D01*
X136709250Y-118051420D01*
X136631318Y-118452646D01*
X136545913Y-118888693D01*
X136454347Y-119352677D01*
X136401560Y-119618667D01*
X136307294Y-120094436D01*
X136218575Y-120545537D01*
X136136700Y-120965156D01*
X136062969Y-121346476D01*
X135998678Y-121682685D01*
X135945127Y-121966965D01*
X135903615Y-122192503D01*
X135875438Y-122352482D01*
X135861897Y-122440089D01*
X135861194Y-122455000D01*
X135907062Y-122471052D01*
X136028936Y-122505575D01*
X136220555Y-122557016D01*
X136475660Y-122623824D01*
X136787989Y-122704448D01*
X137151285Y-122797334D01*
X137559285Y-122900932D01*
X138005731Y-123013689D01*
X138484363Y-123134054D01*
X138988920Y-123260475D01*
X139513142Y-123391400D01*
X140050771Y-123525277D01*
X140595545Y-123660554D01*
X141141205Y-123795680D01*
X141681491Y-123929102D01*
X142210143Y-124059269D01*
X142720901Y-124184628D01*
X143207505Y-124303629D01*
X143663695Y-124414719D01*
X144083211Y-124516346D01*
X144459794Y-124606959D01*
X144787182Y-124685005D01*
X145059117Y-124748933D01*
X145269339Y-124797191D01*
X145411587Y-124828227D01*
X145479601Y-124840489D01*
X145484000Y-124840510D01*
X145533992Y-124826252D01*
X145661236Y-124788339D01*
X145862025Y-124727900D01*
X146132654Y-124646062D01*
X146469416Y-124543956D01*
X146868605Y-124422710D01*
X147326517Y-124283454D01*
X147839443Y-124127317D01*
X148403679Y-123955427D01*
X149015517Y-123768915D01*
X149671254Y-123568909D01*
X150367181Y-123356537D01*
X151099593Y-123132930D01*
X151864784Y-122899217D01*
X152659049Y-122656526D01*
X153478680Y-122405986D01*
X154319972Y-122148727D01*
X154522167Y-122086884D01*
X155367043Y-121828370D01*
X156190535Y-121576228D01*
X156988977Y-121331588D01*
X157758701Y-121095579D01*
X158496040Y-120869331D01*
X159197328Y-120653973D01*
X159858898Y-120450635D01*
X160477083Y-120260446D01*
X161048216Y-120084537D01*
X161568630Y-119924036D01*
X162034658Y-119780074D01*
X162442633Y-119653779D01*
X162788888Y-119546282D01*
X163069757Y-119458712D01*
X163281572Y-119392199D01*
X163420666Y-119347872D01*
X163483374Y-119326860D01*
X163486688Y-119325380D01*
X163495485Y-119277660D01*
X163506083Y-119155110D01*
X163517968Y-118967534D01*
X163530621Y-118724736D01*
X163543528Y-118436519D01*
X163556171Y-118112690D01*
X163566629Y-117807308D01*
X163614382Y-116318558D01*
X163517070Y-116239759D01*
X163419758Y-116160961D01*
X163472931Y-115193819D01*
X163526105Y-114226678D01*
X163876026Y-113816279D01*
X164225947Y-113405879D01*
X164252088Y-113030356D01*
X164261624Y-112879194D01*
X164274050Y-112660982D01*
X164288436Y-112393250D01*
X164303850Y-112093528D01*
X164319364Y-111779346D01*
X164327492Y-111609078D01*
X164376756Y-110563322D01*
X164081953Y-110247651D01*
X163787151Y-109931979D01*
X163727423Y-109134406D01*
X163708635Y-108881980D01*
X163692190Y-108658082D01*
X163679090Y-108476611D01*
X163670338Y-108351465D01*
X163666938Y-108296544D01*
X163666931Y-108296234D01*
X163704428Y-108267010D01*
X163802475Y-108232586D01*
X163911043Y-108206580D01*
X164044322Y-108177807D01*
X164139049Y-108153455D01*
X164170407Y-108141346D01*
X164202185Y-108092314D01*
X164257528Y-107996241D01*
X164323173Y-107877484D01*
X164385855Y-107760398D01*
X164432311Y-107669342D01*
X164449334Y-107629152D01*
X164418062Y-107597654D01*
X164328787Y-107517550D01*
X164188317Y-107394713D01*
X164003461Y-107235012D01*
X163781028Y-107044321D01*
X163527826Y-106828512D01*
X163250665Y-106593454D01*
X163133553Y-106494459D01*
X162803092Y-106214794D01*
X162532307Y-105984024D01*
X162315692Y-105797007D01*
X162147742Y-105648604D01*
X162022950Y-105533673D01*
X161935812Y-105447074D01*
X161880822Y-105383666D01*
X161852474Y-105338309D01*
X161845262Y-105305861D01*
X161847572Y-105293718D01*
X161864200Y-105209746D01*
X161881141Y-105068858D01*
X161895184Y-104898733D01*
X161897282Y-104865014D01*
X161917192Y-104525861D01*
X161733346Y-104333841D01*
X161618403Y-104220334D01*
X161511046Y-104125142D01*
X161450990Y-104080026D01*
X161352479Y-104018231D01*
X161483738Y-103512701D01*
X161667123Y-102707297D01*
X161788654Y-101933190D01*
X161851038Y-101166899D01*
X161856980Y-100384945D01*
X161854335Y-100297854D01*
X161816741Y-99672964D01*
X161745030Y-99089793D01*
X161634443Y-98529651D01*
X161480222Y-97973850D01*
X161277610Y-97403698D01*
X161021848Y-96800506D01*
X160894114Y-96525834D01*
X160398328Y-95407646D01*
X159964623Y-94270129D01*
X159600157Y-93132772D01*
X159457817Y-92615363D01*
X159398966Y-92392821D01*
X159346385Y-92200429D01*
X159304136Y-92052552D01*
X159276281Y-91963554D01*
X159268078Y-91944300D01*
X159205393Y-91936223D01*
X159093604Y-91969651D01*
X158951386Y-92035352D01*
X158797414Y-92124093D01*
X158650363Y-92226641D01*
X158581041Y-92283946D01*
X158420196Y-92427799D01*
X158309410Y-92520209D01*
X158232388Y-92562325D01*
X158172837Y-92555294D01*
X158114461Y-92500264D01*
X158040967Y-92398383D01*
X157990163Y-92325569D01*
X157912628Y-92216600D01*
X157794029Y-92050689D01*
X157642793Y-91839586D01*
X157467345Y-91595043D01*
X157276114Y-91328813D01*
X157077526Y-91052648D01*
X157040602Y-91001334D01*
X156721629Y-90556259D01*
X156447552Y-90169505D01*
X156212160Y-89831891D01*
X156009242Y-89534235D01*
X155832585Y-89267358D01*
X155675980Y-89022078D01*
X155533214Y-88789214D01*
X155456207Y-88659470D01*
X155268164Y-88323471D01*
X155075301Y-87951051D01*
X154888036Y-87564350D01*
X154716789Y-87185512D01*
X154571979Y-86836680D01*
X154476510Y-86577500D01*
X154411510Y-86390284D01*
X154353652Y-86232381D01*
X154309553Y-86121298D01*
X154286829Y-86075514D01*
X154221318Y-86061086D01*
X154101595Y-86089785D01*
X153942630Y-86155931D01*
X153759396Y-86253846D01*
X153666866Y-86310688D01*
X153534728Y-86389320D01*
X153428658Y-86441262D01*
X153369208Y-86456632D01*
X153365917Y-86455393D01*
X153341878Y-86403849D01*
X153317409Y-86293149D01*
X153299995Y-86165940D01*
X153281787Y-86033584D01*
X153249270Y-85839175D01*
X153206172Y-85603381D01*
X153156223Y-85346873D01*
X153122198Y-85180500D01*
X153043731Y-84803492D01*
X152980900Y-84496029D01*
X152931974Y-84244791D01*
X152895225Y-84036457D01*
X152868920Y-83857708D01*
X152851330Y-83695221D01*
X152840724Y-83535677D01*
X152835373Y-83365754D01*
X152833545Y-83172132D01*
X152833492Y-82958000D01*
X152834810Y-82670519D01*
X152839214Y-82448976D01*
X152848464Y-82274656D01*
X152864322Y-82128841D01*
X152888549Y-81992813D01*
X152922905Y-81847856D01*
X152946253Y-81759409D01*
X153013696Y-81531732D01*
X153095810Y-81287366D01*
X153178098Y-81068675D01*
X153203552Y-81007664D01*
X153348958Y-80671344D01*
X153244283Y-80645072D01*
X153088892Y-80632224D01*
X152881957Y-80651973D01*
X152648319Y-80700401D01*
X152412822Y-80773588D01*
X152400432Y-80778208D01*
X152199828Y-80861411D01*
X151939576Y-80981150D01*
X151632717Y-81130550D01*
X151292295Y-81302736D01*
X150931354Y-81490835D01*
X150562934Y-81687972D01*
X150200081Y-81887272D01*
X149855836Y-82081862D01*
X149543242Y-82264868D01*
X149315167Y-82404296D01*
X148460363Y-82980884D01*
X147683815Y-83589307D01*
X146985580Y-84229499D01*
X146365718Y-84901399D01*
X145824287Y-85604941D01*
X145361346Y-86340062D01*
X144976954Y-87106699D01*
X144972158Y-87117590D01*
X144892381Y-87287501D01*
X144832113Y-87386261D01*
X144784907Y-87423308D01*
X144764334Y-87421694D01*
X144604087Y-87370239D01*
X144385017Y-87313272D01*
X144132262Y-87256196D01*
X143870960Y-87204416D01*
X143626248Y-87163334D01*
X143464823Y-87142378D01*
X143031036Y-87122629D01*
X142577952Y-87148313D01*
X142144171Y-87216378D01*
X141961328Y-87261195D01*
X141719489Y-87328605D01*
X141783043Y-87482219D01*
X141827646Y-87576357D01*
X141904505Y-87724739D01*
X142003494Y-87908315D01*
X142114487Y-88108034D01*
X142134735Y-88143834D01*
X142253453Y-88359498D01*
X142367354Y-88577658D01*
X142463960Y-88773711D01*
X142530790Y-88923057D01*
X142533791Y-88930522D01*
X142664104Y-89363692D01*
X142716277Y-89804694D01*
X142689331Y-90240075D01*
X142644868Y-90455384D01*
X142605409Y-90607935D01*
X142189973Y-90468783D01*
X141881431Y-90376250D01*
X141557856Y-90297984D01*
X141244631Y-90238998D01*
X140967138Y-90204300D01*
X140813897Y-90197135D01*
X140691858Y-90201311D01*
X140636209Y-90218957D01*
X140628894Y-90257434D01*
X140632476Y-90271084D01*
X140699068Y-90527767D01*
X140761035Y-90834033D01*
X140812423Y-91154804D01*
X140847278Y-91455006D01*
X140857023Y-91594000D01*
X140865157Y-91773684D01*
X140868221Y-91929707D01*
X140862493Y-92070372D01*
X140844247Y-92203982D01*
X140809762Y-92338838D01*
X140755313Y-92483245D01*
X140677177Y-92645504D01*
X140571630Y-92833919D01*
X140434949Y-93056793D01*
X140263410Y-93322427D01*
X140053290Y-93639125D01*
X139800865Y-94015189D01*
X139711889Y-94147428D01*
X139480063Y-94493215D01*
X139250445Y-94838057D01*
X139030143Y-95171111D01*
X138826267Y-95481539D01*
X138645926Y-95758500D01*
X138496229Y-95991154D01*
X138384284Y-96168660D01*
X138353415Y-96218917D01*
X138217569Y-96438281D01*
X138114931Y-96592586D01*
X138038260Y-96691153D01*
X137980312Y-96743301D01*
X137934225Y-96758354D01*
X137877998Y-96753760D01*
X137744504Y-96740574D01*
X137540631Y-96719534D01*
X137273264Y-96691375D01*
X136949287Y-96656836D01*
X136575588Y-96616653D01*
X136159051Y-96571564D01*
X135706562Y-96522304D01*
X135225007Y-96469612D01*
X134794834Y-96422329D01*
X131746834Y-96086616D01*
X130816798Y-97011840D01*
X131126230Y-97323351D01*
X131435662Y-97634863D01*
X129167954Y-100020623D01*
X126900245Y-102406383D01*
X126889373Y-105304681D01*
X126878500Y-108202978D01*
X126143641Y-108510876D01*
X125912781Y-108608035D01*
X125710501Y-108693988D01*
X125549105Y-108763440D01*
X125440894Y-108811096D01*
X125398171Y-108831660D01*
X125398029Y-108831803D01*
X125395313Y-108875431D01*
X125391683Y-108995469D01*
X125387294Y-109183668D01*
X125382303Y-109431777D01*
X125376867Y-109731548D01*
X125371142Y-110074731D01*
X125365286Y-110453076D01*
X125359454Y-110858334D01*
X125359198Y-110876834D01*
X125331122Y-112908834D01*
X125249110Y-112908834D01*
X125248898Y-111952617D01*
X125250144Y-111585187D01*
X125253757Y-111164818D01*
X125259325Y-110723193D01*
X125266435Y-110291996D01*
X125274678Y-109902908D01*
X125276409Y-109833579D01*
X125304152Y-108755425D01*
X126793834Y-108123871D01*
X126815000Y-105224465D01*
X126836167Y-102325059D01*
X129048083Y-100000159D01*
X129401927Y-99627801D01*
X129738281Y-99272993D01*
X130052647Y-98940532D01*
X130340526Y-98635216D01*
X130597420Y-98361843D01*
X130818830Y-98125210D01*
X131000258Y-97930115D01*
X131137206Y-97781357D01*
X131225174Y-97683733D01*
X131259664Y-97642041D01*
X131260000Y-97641090D01*
X131232678Y-97597518D01*
X131159191Y-97508126D01*
X131052255Y-97387930D01*
X130977162Y-97307098D01*
X130694324Y-97007274D01*
X131205432Y-96496167D01*
X131716540Y-95985059D01*
X132726520Y-96095600D01*
X132988924Y-96124265D01*
X133320556Y-96160402D01*
X133706466Y-96202389D01*
X134131705Y-96248601D01*
X134581325Y-96297414D01*
X135040377Y-96347203D01*
X135493910Y-96396345D01*
X135705000Y-96419199D01*
X136109426Y-96463098D01*
X136492183Y-96504889D01*
X136844184Y-96543562D01*
X137156343Y-96578108D01*
X137419571Y-96607517D01*
X137624781Y-96630779D01*
X137762886Y-96646885D01*
X137821667Y-96654334D01*
X137914129Y-96661617D01*
X137975178Y-96637054D01*
X138031856Y-96563413D01*
X138071218Y-96495289D01*
X138173857Y-96320143D01*
X138319396Y-96083893D01*
X138502378Y-95794933D01*
X138717350Y-95461660D01*
X138958856Y-95092470D01*
X139221441Y-94695757D01*
X139499649Y-94279918D01*
X139784042Y-93859210D01*
X139980093Y-93568069D01*
X140163936Y-93290080D01*
X140329200Y-93035257D01*
X140469516Y-92813612D01*
X140578513Y-92635159D01*
X140649822Y-92509912D01*
X140672773Y-92462210D01*
X140739350Y-92204672D01*
X140764744Y-91878378D01*
X140749239Y-91488391D01*
X140693122Y-91039771D01*
X140596680Y-90537578D01*
X140553327Y-90349577D01*
X140493434Y-90099986D01*
X140967300Y-90125491D01*
X141162841Y-90137077D01*
X141320364Y-90150724D01*
X141461233Y-90170555D01*
X141606813Y-90200694D01*
X141778471Y-90245262D01*
X141997572Y-90308385D01*
X142150543Y-90353850D01*
X142316537Y-90399473D01*
X142451115Y-90429111D01*
X142534550Y-90438766D01*
X142550825Y-90434953D01*
X142565353Y-90382287D01*
X142580040Y-90265172D01*
X142592687Y-90103796D01*
X142598041Y-90001985D01*
X142604389Y-89825672D01*
X142604448Y-89671437D01*
X142594753Y-89529264D01*
X142571843Y-89389137D01*
X142532255Y-89241041D01*
X142472528Y-89074960D01*
X142389197Y-88880879D01*
X142278803Y-88648781D01*
X142137881Y-88368653D01*
X141962970Y-88030478D01*
X141825572Y-87767455D01*
X141735854Y-87588289D01*
X141667049Y-87435775D01*
X141625636Y-87325451D01*
X141618096Y-87272852D01*
X141618880Y-87271854D01*
X141694995Y-87232190D01*
X141838140Y-87188986D01*
X142030949Y-87145490D01*
X142256057Y-87104947D01*
X142496098Y-87070602D01*
X142733707Y-87045702D01*
X142880500Y-87036031D01*
X143442548Y-87042316D01*
X143996341Y-87117286D01*
X144482639Y-87238265D01*
X144625552Y-87278629D01*
X144731764Y-87304694D01*
X144780236Y-87311349D01*
X144781098Y-87310750D01*
X144800709Y-87268605D01*
X144846274Y-87166562D01*
X144909915Y-87022338D01*
X144950699Y-86929330D01*
X145197653Y-86428848D01*
X145506796Y-85906824D01*
X145865475Y-85381303D01*
X146261037Y-84870329D01*
X146680830Y-84391949D01*
X146859834Y-84206587D01*
X147286227Y-83799878D01*
X147743981Y-83406599D01*
X148240499Y-83021747D01*
X148783183Y-82640321D01*
X149379436Y-82257317D01*
X150036661Y-81867732D01*
X150762260Y-81466566D01*
X151437636Y-81113075D01*
X151859387Y-80906173D01*
X152221509Y-80748568D01*
X152531299Y-80637699D01*
X152796053Y-80571002D01*
X153023068Y-80545914D01*
X153053269Y-80545578D01*
X153264860Y-80554297D01*
G36*
X153264860Y-80554297D02*
G01*
X153404718Y-80578525D01*
X153468201Y-80617143D01*
X153468141Y-80645814D01*
X153229512Y-81221576D01*
X153057885Y-81763843D01*
X152950454Y-82287035D01*
X152904415Y-82805567D01*
X152916963Y-83333858D01*
X152925579Y-83434836D01*
X152949644Y-83638097D01*
X152988125Y-83901944D01*
X153037388Y-84204245D01*
X153093800Y-84522867D01*
X153153728Y-84835676D01*
X153163494Y-84884167D01*
X153220410Y-85168160D01*
X153272992Y-85437061D01*
X153318306Y-85675339D01*
X153353414Y-85867460D01*
X153375381Y-85997892D01*
X153379559Y-86027167D01*
X153402523Y-86192571D01*
X153425585Y-86284778D01*
X153458964Y-86314650D01*
X153512879Y-86293049D01*
X153582193Y-86242554D01*
X153768873Y-86125395D01*
X153989966Y-86023245D01*
X154201348Y-85955962D01*
X154233869Y-85949286D01*
X154309975Y-85939253D01*
X154357289Y-85955947D01*
X154392146Y-86016661D01*
X154430882Y-86138686D01*
X154438897Y-86166318D01*
X154628979Y-86729470D01*
X154884887Y-87336015D01*
X155203536Y-87980155D01*
X155581843Y-88656089D01*
X156016725Y-89358018D01*
X156505097Y-90080142D01*
X156564663Y-90164379D01*
X156897231Y-90631647D01*
X157197846Y-91052110D01*
X157464351Y-91422810D01*
X157694585Y-91740788D01*
X157886390Y-92003085D01*
X158037606Y-92206743D01*
X158146076Y-92348804D01*
X158209638Y-92426308D01*
X158225814Y-92440667D01*
X158269556Y-92414640D01*
X158358845Y-92345644D01*
X158476255Y-92247309D01*
X158505396Y-92221983D01*
X158776784Y-92016405D01*
X159039158Y-91885491D01*
X159228735Y-91833713D01*
X159363303Y-91808990D01*
X159431938Y-92114245D01*
X159626944Y-92884489D01*
X159874062Y-93699099D01*
X160167196Y-94540960D01*
X160500246Y-95392959D01*
X160867115Y-96237981D01*
X161012857Y-96551031D01*
X161305102Y-97210705D01*
X161536855Y-97836244D01*
X161713259Y-98446993D01*
X161839459Y-99062298D01*
X161920601Y-99701504D01*
X161947652Y-100066189D01*
X161960985Y-100938550D01*
X161899896Y-101818158D01*
X161763373Y-102715416D01*
X161630808Y-103324994D01*
X161480928Y-103943488D01*
X161733815Y-104196375D01*
X161889721Y-104370798D01*
X161984901Y-104533018D01*
X162026400Y-104707311D01*
X162021262Y-104917952D01*
X161994598Y-105095038D01*
X161974490Y-105237787D01*
X161969935Y-105346087D01*
X161980540Y-105393723D01*
X162019691Y-105426870D01*
X162116414Y-105508380D01*
X162263459Y-105632152D01*
X162453574Y-105792086D01*
X162679507Y-105982081D01*
X162934006Y-106196039D01*
X163209821Y-106427857D01*
X163264000Y-106473388D01*
X163543253Y-106708121D01*
X163802730Y-106926353D01*
X164035150Y-107121951D01*
X164233229Y-107288779D01*
X164389685Y-107420703D01*
X164497235Y-107511590D01*
X164548596Y-107555304D01*
X164551375Y-107557747D01*
X164550554Y-107607945D01*
X164516240Y-107709335D01*
X164458550Y-107840536D01*
X164387603Y-107980168D01*
X164313517Y-108106851D01*
X164249436Y-108195744D01*
X164173000Y-108242995D01*
X164048484Y-108282452D01*
X163980279Y-108294966D01*
X163846827Y-108321754D01*
X163783301Y-108359095D01*
X163772559Y-108393723D01*
X163776211Y-108457779D01*
X163785963Y-108590598D01*
X163800597Y-108776590D01*
X163818896Y-109000167D01*
X163833775Y-109177068D01*
X163894432Y-109890302D01*
X164186195Y-110214234D01*
X164477958Y-110538167D01*
X164406286Y-111984305D01*
X164334615Y-113430443D01*
X163617819Y-114274475D01*
X163570077Y-115193632D01*
X163522334Y-116112789D01*
X163620089Y-116204145D01*
X163717844Y-116295500D01*
X163669523Y-117829283D01*
X163656848Y-118197606D01*
X163643229Y-118532611D01*
X163629168Y-118825499D01*
X163615164Y-119067470D01*
X163601719Y-119249726D01*
X163589333Y-119363468D01*
X163580184Y-119399565D01*
X163535803Y-119415791D01*
X163414760Y-119455374D01*
X163221376Y-119516977D01*
X162959976Y-119599263D01*
X162634882Y-119700894D01*
X162250415Y-119820532D01*
X161810900Y-119956839D01*
X161320658Y-120108479D01*
X160784013Y-120274113D01*
X160205287Y-120452404D01*
X159588802Y-120642015D01*
X158938882Y-120841607D01*
X158259849Y-121049843D01*
X157556026Y-121265386D01*
X157062167Y-121416457D01*
X156294669Y-121651131D01*
X155518937Y-121888331D01*
X154741813Y-122125967D01*
X153970135Y-122361946D01*
X153210743Y-122594176D01*
X152470477Y-122820565D01*
X151756176Y-123039023D01*
X151074681Y-123247456D01*
X150432830Y-123443773D01*
X149837464Y-123625882D01*
X149295422Y-123791692D01*
X148813544Y-123939110D01*
X148398669Y-124066044D01*
X148057638Y-124170403D01*
X148045167Y-124174220D01*
X147596460Y-124310994D01*
X147169711Y-124440005D01*
X146772139Y-124559140D01*
X146410960Y-124666288D01*
X146093392Y-124759336D01*
X145826652Y-124836172D01*
X145617958Y-124894685D01*
X145474526Y-124932761D01*
X145403575Y-124948288D01*
X145399334Y-124948537D01*
X145344965Y-124937993D01*
X145213843Y-124908058D01*
X145011311Y-124860047D01*
X144742713Y-124795274D01*
X144413390Y-124715055D01*
X144028686Y-124620704D01*
X143593944Y-124513537D01*
X143114506Y-124394868D01*
X142595716Y-124266011D01*
X142042916Y-124128283D01*
X141461449Y-123982997D01*
X140856659Y-123831469D01*
X140679167Y-123786921D01*
X140067025Y-123633186D01*
X139475650Y-123484591D01*
X138910487Y-123342508D01*
X138376984Y-123208309D01*
X137880586Y-123083367D01*
X137426740Y-122969054D01*
X137020890Y-122866743D01*
X136668483Y-122777807D01*
X136374965Y-122703616D01*
X136145783Y-122645545D01*
X135986382Y-122604966D01*
X135902208Y-122583250D01*
X135893176Y-122580824D01*
X135721519Y-122533288D01*
X136288002Y-119675164D01*
X136382747Y-119196012D01*
X136472133Y-118741769D01*
X136554864Y-118319163D01*
X136629643Y-117934925D01*
X136695173Y-117595785D01*
X136750156Y-117308472D01*
X136793298Y-117079716D01*
X136823299Y-116916246D01*
X136838865Y-116824792D01*
X136840659Y-116807169D01*
X136798646Y-116795809D01*
X136679530Y-116765126D01*
X136488333Y-116716387D01*
X136230076Y-116650859D01*
X135909781Y-116569809D01*
X135532471Y-116474504D01*
X135103166Y-116366210D01*
X134626888Y-116246195D01*
X134108660Y-116115726D01*
X133553504Y-115976069D01*
X132966440Y-115828492D01*
X132352490Y-115674261D01*
X131869104Y-115552900D01*
X126911375Y-114308503D01*
X126887068Y-113847743D01*
X126875999Y-113659955D01*
X126864747Y-113506326D01*
X126854761Y-113404721D01*
X126848522Y-113372744D01*
X126804769Y-113359266D01*
X126691370Y-113330182D01*
X126521244Y-113288641D01*
X126307306Y-113237793D01*
X126062474Y-113180788D01*
X126041705Y-113176002D01*
X125249128Y-112993500D01*
X125249110Y-112908834D01*
X125331122Y-112908834D01*
X126062478Y-113074723D01*
X126361129Y-113141231D01*
X126587964Y-113192418D01*
X126752740Y-113235644D01*
X126865211Y-113278272D01*
X126935133Y-113327666D01*
X126972262Y-113391186D01*
X126986353Y-113476197D01*
X126987162Y-113590059D01*
X126984444Y-113740136D01*
X126984334Y-113770437D01*
X126984334Y-114231970D01*
X131957905Y-115475071D01*
X132590221Y-115633428D01*
X133199491Y-115786629D01*
X133780696Y-115933381D01*
X134328815Y-116072390D01*
X134838830Y-116202362D01*
X135305721Y-116322004D01*
X135724468Y-116430020D01*
X136090051Y-116525119D01*
X136397451Y-116606005D01*
X136641648Y-116671385D01*
X136817623Y-116719966D01*
X136920355Y-116750453D01*
X136946411Y-116760836D01*
X136940880Y-116808563D01*
X136920000Y-116932418D01*
X136885084Y-117125515D01*
X136837446Y-117380970D01*
X136778397Y-117691900D01*
X136709250Y-118051420D01*
X136631318Y-118452646D01*
X136545913Y-118888693D01*
X136454347Y-119352677D01*
X136401560Y-119618667D01*
X136307294Y-120094436D01*
X136218575Y-120545537D01*
X136136700Y-120965156D01*
X136062969Y-121346476D01*
X135998678Y-121682685D01*
X135945127Y-121966965D01*
X135903615Y-122192503D01*
X135875438Y-122352482D01*
X135861897Y-122440089D01*
X135861194Y-122455000D01*
X135907062Y-122471052D01*
X136028936Y-122505575D01*
X136220555Y-122557016D01*
X136475660Y-122623824D01*
X136787989Y-122704448D01*
X137151285Y-122797334D01*
X137559285Y-122900932D01*
X138005731Y-123013689D01*
X138484363Y-123134054D01*
X138988920Y-123260475D01*
X139513142Y-123391400D01*
X140050771Y-123525277D01*
X140595545Y-123660554D01*
X141141205Y-123795680D01*
X141681491Y-123929102D01*
X142210143Y-124059269D01*
X142720901Y-124184628D01*
X143207505Y-124303629D01*
X143663695Y-124414719D01*
X144083211Y-124516346D01*
X144459794Y-124606959D01*
X144787182Y-124685005D01*
X145059117Y-124748933D01*
X145269339Y-124797191D01*
X145411587Y-124828227D01*
X145479601Y-124840489D01*
X145484000Y-124840510D01*
X145533992Y-124826252D01*
X145661236Y-124788339D01*
X145862025Y-124727900D01*
X146132654Y-124646062D01*
X146469416Y-124543956D01*
X146868605Y-124422710D01*
X147326517Y-124283454D01*
X147839443Y-124127317D01*
X148403679Y-123955427D01*
X149015517Y-123768915D01*
X149671254Y-123568909D01*
X150367181Y-123356537D01*
X151099593Y-123132930D01*
X151864784Y-122899217D01*
X152659049Y-122656526D01*
X153478680Y-122405986D01*
X154319972Y-122148727D01*
X154522167Y-122086884D01*
X155367043Y-121828370D01*
X156190535Y-121576228D01*
X156988977Y-121331588D01*
X157758701Y-121095579D01*
X158496040Y-120869331D01*
X159197328Y-120653973D01*
X159858898Y-120450635D01*
X160477083Y-120260446D01*
X161048216Y-120084537D01*
X161568630Y-119924036D01*
X162034658Y-119780074D01*
X162442633Y-119653779D01*
X162788888Y-119546282D01*
X163069757Y-119458712D01*
X163281572Y-119392199D01*
X163420666Y-119347872D01*
X163483374Y-119326860D01*
X163486688Y-119325380D01*
X163495485Y-119277660D01*
X163506083Y-119155110D01*
X163517968Y-118967534D01*
X163530621Y-118724736D01*
X163543528Y-118436519D01*
X163556171Y-118112690D01*
X163566629Y-117807308D01*
X163614382Y-116318558D01*
X163517070Y-116239759D01*
X163419758Y-116160961D01*
X163472931Y-115193819D01*
X163526105Y-114226678D01*
X163876026Y-113816279D01*
X164225947Y-113405879D01*
X164252088Y-113030356D01*
X164261624Y-112879194D01*
X164274050Y-112660982D01*
X164288436Y-112393250D01*
X164303850Y-112093528D01*
X164319364Y-111779346D01*
X164327492Y-111609078D01*
X164376756Y-110563322D01*
X164081953Y-110247651D01*
X163787151Y-109931979D01*
X163727423Y-109134406D01*
X163708635Y-108881980D01*
X163692190Y-108658082D01*
X163679090Y-108476611D01*
X163670338Y-108351465D01*
X163666938Y-108296544D01*
X163666931Y-108296234D01*
X163704428Y-108267010D01*
X163802475Y-108232586D01*
X163911043Y-108206580D01*
X164044322Y-108177807D01*
X164139049Y-108153455D01*
X164170407Y-108141346D01*
X164202185Y-108092314D01*
X164257528Y-107996241D01*
X164323173Y-107877484D01*
X164385855Y-107760398D01*
X164432311Y-107669342D01*
X164449334Y-107629152D01*
X164418062Y-107597654D01*
X164328787Y-107517550D01*
X164188317Y-107394713D01*
X164003461Y-107235012D01*
X163781028Y-107044321D01*
X163527826Y-106828512D01*
X163250665Y-106593454D01*
X163133553Y-106494459D01*
X162803092Y-106214794D01*
X162532307Y-105984024D01*
X162315692Y-105797007D01*
X162147742Y-105648604D01*
X162022950Y-105533673D01*
X161935812Y-105447074D01*
X161880822Y-105383666D01*
X161852474Y-105338309D01*
X161845262Y-105305861D01*
X161847572Y-105293718D01*
X161864200Y-105209746D01*
X161881141Y-105068858D01*
X161895184Y-104898733D01*
X161897282Y-104865014D01*
X161917192Y-104525861D01*
X161733346Y-104333841D01*
X161618403Y-104220334D01*
X161511046Y-104125142D01*
X161450990Y-104080026D01*
X161352479Y-104018231D01*
X161483738Y-103512701D01*
X161667123Y-102707297D01*
X161788654Y-101933190D01*
X161851038Y-101166899D01*
X161856980Y-100384945D01*
X161854335Y-100297854D01*
X161816741Y-99672964D01*
X161745030Y-99089793D01*
X161634443Y-98529651D01*
X161480222Y-97973850D01*
X161277610Y-97403698D01*
X161021848Y-96800506D01*
X160894114Y-96525834D01*
X160398328Y-95407646D01*
X159964623Y-94270129D01*
X159600157Y-93132772D01*
X159457817Y-92615363D01*
X159398966Y-92392821D01*
X159346385Y-92200429D01*
X159304136Y-92052552D01*
X159276281Y-91963554D01*
X159268078Y-91944300D01*
X159205393Y-91936223D01*
X159093604Y-91969651D01*
X158951386Y-92035352D01*
X158797414Y-92124093D01*
X158650363Y-92226641D01*
X158581041Y-92283946D01*
X158420196Y-92427799D01*
X158309410Y-92520209D01*
X158232388Y-92562325D01*
X158172837Y-92555294D01*
X158114461Y-92500264D01*
X158040967Y-92398383D01*
X157990163Y-92325569D01*
X157912628Y-92216600D01*
X157794029Y-92050689D01*
X157642793Y-91839586D01*
X157467345Y-91595043D01*
X157276114Y-91328813D01*
X157077526Y-91052648D01*
X157040602Y-91001334D01*
X156721629Y-90556259D01*
X156447552Y-90169505D01*
X156212160Y-89831891D01*
X156009242Y-89534235D01*
X155832585Y-89267358D01*
X155675980Y-89022078D01*
X155533214Y-88789214D01*
X155456207Y-88659470D01*
X155268164Y-88323471D01*
X155075301Y-87951051D01*
X154888036Y-87564350D01*
X154716789Y-87185512D01*
X154571979Y-86836680D01*
X154476510Y-86577500D01*
X154411510Y-86390284D01*
X154353652Y-86232381D01*
X154309553Y-86121298D01*
X154286829Y-86075514D01*
X154221318Y-86061086D01*
X154101595Y-86089785D01*
X153942630Y-86155931D01*
X153759396Y-86253846D01*
X153666866Y-86310688D01*
X153534728Y-86389320D01*
X153428658Y-86441262D01*
X153369208Y-86456632D01*
X153365917Y-86455393D01*
X153341878Y-86403849D01*
X153317409Y-86293149D01*
X153299995Y-86165940D01*
X153281787Y-86033584D01*
X153249270Y-85839175D01*
X153206172Y-85603381D01*
X153156223Y-85346873D01*
X153122198Y-85180500D01*
X153043731Y-84803492D01*
X152980900Y-84496029D01*
X152931974Y-84244791D01*
X152895225Y-84036457D01*
X152868920Y-83857708D01*
X152851330Y-83695221D01*
X152840724Y-83535677D01*
X152835373Y-83365754D01*
X152833545Y-83172132D01*
X152833492Y-82958000D01*
X152834810Y-82670519D01*
X152839214Y-82448976D01*
X152848464Y-82274656D01*
X152864322Y-82128841D01*
X152888549Y-81992813D01*
X152922905Y-81847856D01*
X152946253Y-81759409D01*
X153013696Y-81531732D01*
X153095810Y-81287366D01*
X153178098Y-81068675D01*
X153203552Y-81007664D01*
X153348958Y-80671344D01*
X153244283Y-80645072D01*
X153088892Y-80632224D01*
X152881957Y-80651973D01*
X152648319Y-80700401D01*
X152412822Y-80773588D01*
X152400432Y-80778208D01*
X152199828Y-80861411D01*
X151939576Y-80981150D01*
X151632717Y-81130550D01*
X151292295Y-81302736D01*
X150931354Y-81490835D01*
X150562934Y-81687972D01*
X150200081Y-81887272D01*
X149855836Y-82081862D01*
X149543242Y-82264868D01*
X149315167Y-82404296D01*
X148460363Y-82980884D01*
X147683815Y-83589307D01*
X146985580Y-84229499D01*
X146365718Y-84901399D01*
X145824287Y-85604941D01*
X145361346Y-86340062D01*
X144976954Y-87106699D01*
X144972158Y-87117590D01*
X144892381Y-87287501D01*
X144832113Y-87386261D01*
X144784907Y-87423308D01*
X144764334Y-87421694D01*
X144604087Y-87370239D01*
X144385017Y-87313272D01*
X144132262Y-87256196D01*
X143870960Y-87204416D01*
X143626248Y-87163334D01*
X143464823Y-87142378D01*
X143031036Y-87122629D01*
X142577952Y-87148313D01*
X142144171Y-87216378D01*
X141961328Y-87261195D01*
X141719489Y-87328605D01*
X141783043Y-87482219D01*
X141827646Y-87576357D01*
X141904505Y-87724739D01*
X142003494Y-87908315D01*
X142114487Y-88108034D01*
X142134735Y-88143834D01*
X142253453Y-88359498D01*
X142367354Y-88577658D01*
X142463960Y-88773711D01*
X142530790Y-88923057D01*
X142533791Y-88930522D01*
X142664104Y-89363692D01*
X142716277Y-89804694D01*
X142689331Y-90240075D01*
X142644868Y-90455384D01*
X142605409Y-90607935D01*
X142189973Y-90468783D01*
X141881431Y-90376250D01*
X141557856Y-90297984D01*
X141244631Y-90238998D01*
X140967138Y-90204300D01*
X140813897Y-90197135D01*
X140691858Y-90201311D01*
X140636209Y-90218957D01*
X140628894Y-90257434D01*
X140632476Y-90271084D01*
X140699068Y-90527767D01*
X140761035Y-90834033D01*
X140812423Y-91154804D01*
X140847278Y-91455006D01*
X140857023Y-91594000D01*
X140865157Y-91773684D01*
X140868221Y-91929707D01*
X140862493Y-92070372D01*
X140844247Y-92203982D01*
X140809762Y-92338838D01*
X140755313Y-92483245D01*
X140677177Y-92645504D01*
X140571630Y-92833919D01*
X140434949Y-93056793D01*
X140263410Y-93322427D01*
X140053290Y-93639125D01*
X139800865Y-94015189D01*
X139711889Y-94147428D01*
X139480063Y-94493215D01*
X139250445Y-94838057D01*
X139030143Y-95171111D01*
X138826267Y-95481539D01*
X138645926Y-95758500D01*
X138496229Y-95991154D01*
X138384284Y-96168660D01*
X138353415Y-96218917D01*
X138217569Y-96438281D01*
X138114931Y-96592586D01*
X138038260Y-96691153D01*
X137980312Y-96743301D01*
X137934225Y-96758354D01*
X137877998Y-96753760D01*
X137744504Y-96740574D01*
X137540631Y-96719534D01*
X137273264Y-96691375D01*
X136949287Y-96656836D01*
X136575588Y-96616653D01*
X136159051Y-96571564D01*
X135706562Y-96522304D01*
X135225007Y-96469612D01*
X134794834Y-96422329D01*
X131746834Y-96086616D01*
X130816798Y-97011840D01*
X131126230Y-97323351D01*
X131435662Y-97634863D01*
X129167954Y-100020623D01*
X126900245Y-102406383D01*
X126889373Y-105304681D01*
X126878500Y-108202978D01*
X126143641Y-108510876D01*
X125912781Y-108608035D01*
X125710501Y-108693988D01*
X125549105Y-108763440D01*
X125440894Y-108811096D01*
X125398171Y-108831660D01*
X125398029Y-108831803D01*
X125395313Y-108875431D01*
X125391683Y-108995469D01*
X125387294Y-109183668D01*
X125382303Y-109431777D01*
X125376867Y-109731548D01*
X125371142Y-110074731D01*
X125365286Y-110453076D01*
X125359454Y-110858334D01*
X125359198Y-110876834D01*
X125331122Y-112908834D01*
X125249110Y-112908834D01*
X125248898Y-111952617D01*
X125250144Y-111585187D01*
X125253757Y-111164818D01*
X125259325Y-110723193D01*
X125266435Y-110291996D01*
X125274678Y-109902908D01*
X125276409Y-109833579D01*
X125304152Y-108755425D01*
X126793834Y-108123871D01*
X126815000Y-105224465D01*
X126836167Y-102325059D01*
X129048083Y-100000159D01*
X129401927Y-99627801D01*
X129738281Y-99272993D01*
X130052647Y-98940532D01*
X130340526Y-98635216D01*
X130597420Y-98361843D01*
X130818830Y-98125210D01*
X131000258Y-97930115D01*
X131137206Y-97781357D01*
X131225174Y-97683733D01*
X131259664Y-97642041D01*
X131260000Y-97641090D01*
X131232678Y-97597518D01*
X131159191Y-97508126D01*
X131052255Y-97387930D01*
X130977162Y-97307098D01*
X130694324Y-97007274D01*
X131205432Y-96496167D01*
X131716540Y-95985059D01*
X132726520Y-96095600D01*
X132988924Y-96124265D01*
X133320556Y-96160402D01*
X133706466Y-96202389D01*
X134131705Y-96248601D01*
X134581325Y-96297414D01*
X135040377Y-96347203D01*
X135493910Y-96396345D01*
X135705000Y-96419199D01*
X136109426Y-96463098D01*
X136492183Y-96504889D01*
X136844184Y-96543562D01*
X137156343Y-96578108D01*
X137419571Y-96607517D01*
X137624781Y-96630779D01*
X137762886Y-96646885D01*
X137821667Y-96654334D01*
X137914129Y-96661617D01*
X137975178Y-96637054D01*
X138031856Y-96563413D01*
X138071218Y-96495289D01*
X138173857Y-96320143D01*
X138319396Y-96083893D01*
X138502378Y-95794933D01*
X138717350Y-95461660D01*
X138958856Y-95092470D01*
X139221441Y-94695757D01*
X139499649Y-94279918D01*
X139784042Y-93859210D01*
X139980093Y-93568069D01*
X140163936Y-93290080D01*
X140329200Y-93035257D01*
X140469516Y-92813612D01*
X140578513Y-92635159D01*
X140649822Y-92509912D01*
X140672773Y-92462210D01*
X140739350Y-92204672D01*
X140764744Y-91878378D01*
X140749239Y-91488391D01*
X140693122Y-91039771D01*
X140596680Y-90537578D01*
X140553327Y-90349577D01*
X140493434Y-90099986D01*
X140967300Y-90125491D01*
X141162841Y-90137077D01*
X141320364Y-90150724D01*
X141461233Y-90170555D01*
X141606813Y-90200694D01*
X141778471Y-90245262D01*
X141997572Y-90308385D01*
X142150543Y-90353850D01*
X142316537Y-90399473D01*
X142451115Y-90429111D01*
X142534550Y-90438766D01*
X142550825Y-90434953D01*
X142565353Y-90382287D01*
X142580040Y-90265172D01*
X142592687Y-90103796D01*
X142598041Y-90001985D01*
X142604389Y-89825672D01*
X142604448Y-89671437D01*
X142594753Y-89529264D01*
X142571843Y-89389137D01*
X142532255Y-89241041D01*
X142472528Y-89074960D01*
X142389197Y-88880879D01*
X142278803Y-88648781D01*
X142137881Y-88368653D01*
X141962970Y-88030478D01*
X141825572Y-87767455D01*
X141735854Y-87588289D01*
X141667049Y-87435775D01*
X141625636Y-87325451D01*
X141618096Y-87272852D01*
X141618880Y-87271854D01*
X141694995Y-87232190D01*
X141838140Y-87188986D01*
X142030949Y-87145490D01*
X142256057Y-87104947D01*
X142496098Y-87070602D01*
X142733707Y-87045702D01*
X142880500Y-87036031D01*
X143442548Y-87042316D01*
X143996341Y-87117286D01*
X144482639Y-87238265D01*
X144625552Y-87278629D01*
X144731764Y-87304694D01*
X144780236Y-87311349D01*
X144781098Y-87310750D01*
X144800709Y-87268605D01*
X144846274Y-87166562D01*
X144909915Y-87022338D01*
X144950699Y-86929330D01*
X145197653Y-86428848D01*
X145506796Y-85906824D01*
X145865475Y-85381303D01*
X146261037Y-84870329D01*
X146680830Y-84391949D01*
X146859834Y-84206587D01*
X147286227Y-83799878D01*
X147743981Y-83406599D01*
X148240499Y-83021747D01*
X148783183Y-82640321D01*
X149379436Y-82257317D01*
X150036661Y-81867732D01*
X150762260Y-81466566D01*
X151437636Y-81113075D01*
X151859387Y-80906173D01*
X152221509Y-80748568D01*
X152531299Y-80637699D01*
X152796053Y-80571002D01*
X153023068Y-80545914D01*
X153053269Y-80545578D01*
X153264860Y-80554297D01*
G37*
D13*
X141170000Y-114625000D02*
X141170000Y-119825000D01*
X148910000Y-114625000D02*
X148910000Y-119825000D01*
X141740000Y-113185000D02*
X141740000Y-114625000D01*
X141170000Y-114625000D02*
X141740000Y-114625000D01*
X141170000Y-119825000D02*
X141740000Y-119825000D01*
X148340000Y-114625000D02*
X148910000Y-114625000D01*
X148340000Y-119825000D02*
X148910000Y-119825000D01*
X143260000Y-114625000D02*
X144280000Y-114625000D01*
X143260000Y-119825000D02*
X144280000Y-119825000D01*
X145800000Y-114625000D02*
X146820000Y-114625000D01*
X145800000Y-119825000D02*
X146820000Y-119825000D01*
X136680000Y-106750000D02*
X136680000Y-105750000D01*
X133320000Y-106750000D02*
X133320000Y-105750000D01*
X135515000Y-99912500D02*
X135515000Y-97627500D01*
X135515000Y-97627500D02*
X136985000Y-97627500D01*
X136985000Y-97627500D02*
X136985000Y-99912500D01*
X156665000Y-108215000D02*
X158950000Y-108215000D01*
X156665000Y-109685000D02*
X156665000Y-108215000D01*
X158950000Y-109685000D02*
X156665000Y-109685000D01*
X149737500Y-110585000D02*
X147452500Y-110585000D01*
X147452500Y-110585000D02*
X147452500Y-109115000D01*
X147452500Y-109115000D02*
X149737500Y-109115000D01*
X139419670Y-103180223D02*
X141035409Y-104795962D01*
X138380223Y-104219670D02*
X139419670Y-103180223D01*
X139995962Y-105835409D02*
X138380223Y-104219670D01*
M02*
