G04 #@! TF.GenerationSoftware,KiCad,Pcbnew,8.0.3*
G04 #@! TF.CreationDate,2024-07-15T14:19:07-05:00*
G04 #@! TF.ProjectId,DumpsterElectroFire,44756d70-7374-4657-9245-6c656374726f,rev?*
G04 #@! TF.SameCoordinates,Original*
G04 #@! TF.FileFunction,Paste,Bot*
G04 #@! TF.FilePolarity,Positive*
%FSLAX46Y46*%
G04 Gerber Fmt 4.6, Leading zero omitted, Abs format (unit mm)*
G04 Created by KiCad (PCBNEW 8.0.3) date 2024-07-15 14:19:07*
%MOMM*%
%LPD*%
G01*
G04 APERTURE LIST*
G04 Aperture macros list*
%AMRoundRect*
0 Rectangle with rounded corners*
0 $1 Rounding radius*
0 $2 $3 $4 $5 $6 $7 $8 $9 X,Y pos of 4 corners*
0 Add a 4 corners polygon primitive as box body*
4,1,4,$2,$3,$4,$5,$6,$7,$8,$9,$2,$3,0*
0 Add four circle primitives for the rounded corners*
1,1,$1+$1,$2,$3*
1,1,$1+$1,$4,$5*
1,1,$1+$1,$6,$7*
1,1,$1+$1,$8,$9*
0 Add four rect primitives between the rounded corners*
20,1,$1+$1,$2,$3,$4,$5,0*
20,1,$1+$1,$4,$5,$6,$7,0*
20,1,$1+$1,$6,$7,$8,$9,0*
20,1,$1+$1,$8,$9,$2,$3,0*%
%AMRotRect*
0 Rectangle, with rotation*
0 The origin of the aperture is its center*
0 $1 length*
0 $2 width*
0 $3 Rotation angle, in degrees counterclockwise*
0 Add horizontal line*
21,1,$1,$2,0,0,$3*%
G04 Aperture macros list end*
%ADD10RoundRect,0.100000X0.637500X0.100000X-0.637500X0.100000X-0.637500X-0.100000X0.637500X-0.100000X0*%
%ADD11RoundRect,0.250000X-0.475000X0.250000X-0.475000X-0.250000X0.475000X-0.250000X0.475000X0.250000X0*%
%ADD12R,1.000000X3.150000*%
%ADD13R,0.500000X0.800000*%
%ADD14R,0.400000X0.800000*%
%ADD15RotRect,0.800000X0.900000X346.000000*%
%ADD16RotRect,0.900000X1.250000X346.000000*%
%ADD17RoundRect,0.218750X-0.256250X0.218750X-0.256250X-0.218750X0.256250X-0.218750X0.256250X0.218750X0*%
%ADD18RoundRect,0.218750X-0.218750X-0.256250X0.218750X-0.256250X0.218750X0.256250X-0.218750X0.256250X0*%
%ADD19RoundRect,0.218750X-0.335876X-0.026517X-0.026517X-0.335876X0.335876X0.026517X0.026517X0.335876X0*%
G04 APERTURE END LIST*
D10*
X157862500Y-112075000D03*
X157862500Y-112725000D03*
X157862500Y-113375000D03*
X157862500Y-114025000D03*
X157862500Y-114675000D03*
X157862500Y-115325000D03*
X157862500Y-115975000D03*
X157862500Y-116625000D03*
X157862500Y-117275000D03*
X157862500Y-117925000D03*
X152137500Y-117925000D03*
X152137500Y-117275000D03*
X152137500Y-116625000D03*
X152137500Y-115975000D03*
X152137500Y-115325000D03*
X152137500Y-114675000D03*
X152137500Y-114025000D03*
X152137500Y-113375000D03*
X152137500Y-112725000D03*
X152137500Y-112075000D03*
D11*
X160500000Y-115550000D03*
X160500000Y-117450000D03*
D12*
X142500000Y-114700000D03*
X142500000Y-119750000D03*
X145040000Y-114700000D03*
X145040000Y-119750000D03*
X147580000Y-114700000D03*
X147580000Y-119750000D03*
D13*
X133800000Y-105350000D03*
D14*
X135400000Y-105350000D03*
X134600000Y-105350000D03*
D13*
X136200000Y-105350000D03*
D14*
X134600000Y-107150000D03*
D13*
X133800000Y-107150000D03*
D14*
X135400000Y-107150000D03*
D13*
X136200000Y-107150000D03*
D15*
X127587417Y-119714091D03*
X134961665Y-121552697D03*
X135527788Y-119323436D03*
X128143837Y-117482411D03*
D16*
X129883670Y-116911351D03*
X131339113Y-117274234D03*
X134250000Y-118000000D03*
D17*
X136250000Y-98325000D03*
X136250000Y-99900000D03*
D18*
X158937500Y-108950000D03*
X157362500Y-108950000D03*
X148150000Y-109850000D03*
X149725000Y-109850000D03*
D19*
X140506847Y-105306847D03*
X139393153Y-104193153D03*
M02*
