<?xml version="1.0" standalone="no"?>
 <!DOCTYPE svg PUBLIC "-//W3C//DTD SVG 1.1//EN" 
 "http://www.w3.org/Graphics/SVG/1.1/DTD/svg11.dtd"> 
<svg xmlns="http://www.w3.org/2000/svg" version="1.1" 
    width="29.7002cm" height="21.0007cm" viewBox="0 0 116930 82680 ">
<title>SVG Picture created as Goron's_Ruby-brd.svg date 2020/06/15 20:51:28 </title>
  <desc>Picture generated by PCBNEW </desc>
<g style="fill:#000000; fill-opacity:1;stroke:#000000; stroke-opacity:1;
stroke-linecap:round; stroke-linejoin:round; "
 transform="translate(0 0) scale(1 1)">
</g>
<g style="fill:#000000; fill-opacity:0.0; 
stroke:#000000; stroke-width:-0.000393701; stroke-opacity:1; 
stroke-linecap:round; stroke-linejoin:round;">
</g>
<g style="fill:#000000; fill-opacity:0.0; 
stroke:#000000; stroke-width:39.3701; stroke-opacity:1; 
stroke-linecap:round; stroke-linejoin:round;">
</g>
<g style="fill:#000000; fill-opacity:0.0; 
stroke:#000000; stroke-width:59.0551; stroke-opacity:1; 
stroke-linecap:round; stroke-linejoin:round;">
<rect x="69685.9" y="65357.2" width="42519.7" height="12598.4" rx="0" />
</g>
<g style="fill:#000000; fill-opacity:0.0; 
stroke:#000000; stroke-width:39.3701; stroke-opacity:1; 
stroke-linecap:round; stroke-linejoin:round;">
</g>
<g style="fill:#000000; fill-opacity:0.0; 
stroke:#000000; stroke-width:59.0551; stroke-opacity:1; 
stroke-linecap:round; stroke-linejoin:round;">
<rect x="3937.01" y="3937.01" width="109056" height="74806" rx="0" />
</g>
<g style="fill:#000000; fill-opacity:0.0; 
stroke:#000000; stroke-width:39.3701; stroke-opacity:1; 
stroke-linecap:round; stroke-linejoin:round;">
</g>
<g style="fill:#000000; fill-opacity:0.0; 
stroke:#000000; stroke-width:59.0551; stroke-opacity:1; 
stroke-linecap:round; stroke-linejoin:round;">
<rect x="4724.41" y="4724.41" width="107481" height="73231.2" rx="0" />
</g>
<g style="fill:#000000; fill-opacity:0.0; 
stroke:#000000; stroke-width:39.3701; stroke-opacity:1; 
stroke-linecap:round; stroke-linejoin:round;">
</g>
<g style="fill:#000000; fill-opacity:0.0; 
stroke:#000000; stroke-width:59.0551; stroke-opacity:1; 
stroke-linecap:round; stroke-linejoin:round;">
<path d="M23622 4724
L23622 3937
" />
</g>
<g style="fill:#000000; fill-opacity:0.0; 
stroke:#000000; stroke-width:39.3701; stroke-opacity:1; 
stroke-linecap:round; stroke-linejoin:round;">
</g>
<g style="fill:#000000; fill-opacity:0.0; 
stroke:#000000; stroke-width:59.0551; stroke-opacity:1; 
stroke-linecap:round; stroke-linejoin:round;">
<path d="M43307 4724
L43307 3937
" />
</g>
<g style="fill:#000000; fill-opacity:0.0; 
stroke:#000000; stroke-width:39.3701; stroke-opacity:1; 
stroke-linecap:round; stroke-linejoin:round;">
</g>
<g style="fill:#000000; fill-opacity:0.0; 
stroke:#000000; stroke-width:59.0551; stroke-opacity:1; 
stroke-linecap:round; stroke-linejoin:round;">
<path d="M62992 4724
L62992 3937
" />
</g>
<g style="fill:#000000; fill-opacity:0.0; 
stroke:#000000; stroke-width:39.3701; stroke-opacity:1; 
stroke-linecap:round; stroke-linejoin:round;">
</g>
<g style="fill:#000000; fill-opacity:0.0; 
stroke:#000000; stroke-width:59.0551; stroke-opacity:1; 
stroke-linecap:round; stroke-linejoin:round;">
<path d="M82677 4724
L82677 3937
" />
</g>
<g style="fill:#000000; fill-opacity:0.0; 
stroke:#000000; stroke-width:39.3701; stroke-opacity:1; 
stroke-linecap:round; stroke-linejoin:round;">
</g>
<g style="fill:#000000; fill-opacity:0.0; 
stroke:#000000; stroke-width:59.0551; stroke-opacity:1; 
stroke-linecap:round; stroke-linejoin:round;">
<path d="M102362 4724
L102362 3937
" />
</g>
<g style="fill:#000000; fill-opacity:0.0; 
stroke:#000000; stroke-width:39.3701; stroke-opacity:1; 
stroke-linecap:round; stroke-linejoin:round;">
</g>
<g style="fill:#000000; fill-opacity:0.0; 
stroke:#000000; stroke-width:59.0551; stroke-opacity:1; 
stroke-linecap:round; stroke-linejoin:round;">
<text x="13779.5" y="4586.61"
textLength="546.494" font-size="682.415" lengthAdjust="spacingAndGlyphs"
text-anchor="start" opacity="0">1</text>
<path d="M14199 4562
L13906 4562
" />
<path d="M14052 4562
L14052 4050
L14004 4123
L13955 4172
L13906 4196
" />
</g>
<g style="fill:#000000; fill-opacity:0.0; 
stroke:#000000; stroke-width:39.3701; stroke-opacity:1; 
stroke-linecap:round; stroke-linejoin:round;">
</g>
<g style="fill:#000000; fill-opacity:0.0; 
stroke:#000000; stroke-width:59.0551; stroke-opacity:1; 
stroke-linecap:round; stroke-linejoin:round;">
<text x="33464.6" y="4586.61"
textLength="546.494" font-size="682.415" lengthAdjust="spacingAndGlyphs"
text-anchor="start" opacity="0">2</text>
<path d="M33591 4099
L33615 4074
L33664 4050
L33786 4050
L33835 4074
L33859 4099
L33884 4147
L33884 4196
L33859 4269
L33567 4562
L33884 4562
" />
</g>
<g style="fill:#000000; fill-opacity:0.0; 
stroke:#000000; stroke-width:39.3701; stroke-opacity:1; 
stroke-linecap:round; stroke-linejoin:round;">
</g>
<g style="fill:#000000; fill-opacity:0.0; 
stroke:#000000; stroke-width:59.0551; stroke-opacity:1; 
stroke-linecap:round; stroke-linejoin:round;">
<text x="53149.6" y="4586.61"
textLength="546.494" font-size="682.415" lengthAdjust="spacingAndGlyphs"
text-anchor="start" opacity="0">3</text>
<path d="M53252 4050
L53569 4050
L53398 4245
L53471 4245
L53520 4269
L53544 4294
L53569 4342
L53569 4464
L53544 4513
L53520 4537
L53471 4562
L53325 4562
L53276 4537
L53252 4513
" />
</g>
<g style="fill:#000000; fill-opacity:0.0; 
stroke:#000000; stroke-width:39.3701; stroke-opacity:1; 
stroke-linecap:round; stroke-linejoin:round;">
</g>
<g style="fill:#000000; fill-opacity:0.0; 
stroke:#000000; stroke-width:59.0551; stroke-opacity:1; 
stroke-linecap:round; stroke-linejoin:round;">
<text x="72834.6" y="4586.61"
textLength="546.494" font-size="682.415" lengthAdjust="spacingAndGlyphs"
text-anchor="start" opacity="0">4</text>
<path d="M73205 4221
L73205 4562
" />
<path d="M73083 4026
L72961 4391
L73278 4391
" />
</g>
<g style="fill:#000000; fill-opacity:0.0; 
stroke:#000000; stroke-width:39.3701; stroke-opacity:1; 
stroke-linecap:round; stroke-linejoin:round;">
</g>
<g style="fill:#000000; fill-opacity:0.0; 
stroke:#000000; stroke-width:59.0551; stroke-opacity:1; 
stroke-linecap:round; stroke-linejoin:round;">
<text x="92519.7" y="4586.61"
textLength="546.494" font-size="682.415" lengthAdjust="spacingAndGlyphs"
text-anchor="start" opacity="0">5</text>
<path d="M92914 4050
L92671 4050
L92646 4294
L92671 4269
L92719 4245
L92841 4245
L92890 4269
L92914 4294
L92939 4342
L92939 4464
L92914 4513
L92890 4537
L92841 4562
L92719 4562
L92671 4537
L92646 4513
" />
</g>
<g style="fill:#000000; fill-opacity:0.0; 
stroke:#000000; stroke-width:39.3701; stroke-opacity:1; 
stroke-linecap:round; stroke-linejoin:round;">
</g>
<g style="fill:#000000; fill-opacity:0.0; 
stroke:#000000; stroke-width:59.0551; stroke-opacity:1; 
stroke-linecap:round; stroke-linejoin:round;">
<text x="112205" y="4586.61"
textLength="546.494" font-size="682.415" lengthAdjust="spacingAndGlyphs"
text-anchor="start" opacity="0">6</text>
<path d="M112575 4050
L112477 4050
L112429 4074
L112404 4099
L112356 4172
L112331 4269
L112331 4464
L112356 4513
L112380 4537
L112429 4562
L112526 4562
L112575 4537
L112599 4513
L112624 4464
L112624 4342
L112599 4294
L112575 4269
L112526 4245
L112429 4245
L112380 4269
L112356 4294
L112331 4342
" />
</g>
<g style="fill:#000000; fill-opacity:0.0; 
stroke:#000000; stroke-width:39.3701; stroke-opacity:1; 
stroke-linecap:round; stroke-linejoin:round;">
</g>
<g style="fill:#000000; fill-opacity:0.0; 
stroke:#000000; stroke-width:59.0551; stroke-opacity:1; 
stroke-linecap:round; stroke-linejoin:round;">
<path d="M23622 77955
L23622 78742
" />
</g>
<g style="fill:#000000; fill-opacity:0.0; 
stroke:#000000; stroke-width:39.3701; stroke-opacity:1; 
stroke-linecap:round; stroke-linejoin:round;">
</g>
<g style="fill:#000000; fill-opacity:0.0; 
stroke:#000000; stroke-width:59.0551; stroke-opacity:1; 
stroke-linecap:round; stroke-linejoin:round;">
<path d="M43307 77955
L43307 78742
" />
</g>
<g style="fill:#000000; fill-opacity:0.0; 
stroke:#000000; stroke-width:39.3701; stroke-opacity:1; 
stroke-linecap:round; stroke-linejoin:round;">
</g>
<g style="fill:#000000; fill-opacity:0.0; 
stroke:#000000; stroke-width:59.0551; stroke-opacity:1; 
stroke-linecap:round; stroke-linejoin:round;">
<path d="M62992 77955
L62992 78742
" />
</g>
<g style="fill:#000000; fill-opacity:0.0; 
stroke:#000000; stroke-width:39.3701; stroke-opacity:1; 
stroke-linecap:round; stroke-linejoin:round;">
</g>
<g style="fill:#000000; fill-opacity:0.0; 
stroke:#000000; stroke-width:59.0551; stroke-opacity:1; 
stroke-linecap:round; stroke-linejoin:round;">
<path d="M82677 77955
L82677 78742
" />
</g>
<g style="fill:#000000; fill-opacity:0.0; 
stroke:#000000; stroke-width:39.3701; stroke-opacity:1; 
stroke-linecap:round; stroke-linejoin:round;">
</g>
<g style="fill:#000000; fill-opacity:0.0; 
stroke:#000000; stroke-width:59.0551; stroke-opacity:1; 
stroke-linecap:round; stroke-linejoin:round;">
<path d="M102362 77955
L102362 78742
" />
</g>
<g style="fill:#000000; fill-opacity:0.0; 
stroke:#000000; stroke-width:39.3701; stroke-opacity:1; 
stroke-linecap:round; stroke-linejoin:round;">
</g>
<g style="fill:#000000; fill-opacity:0.0; 
stroke:#000000; stroke-width:59.0551; stroke-opacity:1; 
stroke-linecap:round; stroke-linejoin:round;">
<text x="13779.5" y="78605.2"
textLength="546.494" font-size="682.415" lengthAdjust="spacingAndGlyphs"
text-anchor="start" opacity="0">1</text>
<path d="M14199 78580
L13906 78580
" />
<path d="M14052 78580
L14052 78069
L14004 78142
L13955 78190
L13906 78215
" />
</g>
<g style="fill:#000000; fill-opacity:0.0; 
stroke:#000000; stroke-width:39.3701; stroke-opacity:1; 
stroke-linecap:round; stroke-linejoin:round;">
</g>
<g style="fill:#000000; fill-opacity:0.0; 
stroke:#000000; stroke-width:59.0551; stroke-opacity:1; 
stroke-linecap:round; stroke-linejoin:round;">
<text x="33464.6" y="78605.2"
textLength="546.494" font-size="682.415" lengthAdjust="spacingAndGlyphs"
text-anchor="start" opacity="0">2</text>
<path d="M33591 78117
L33615 78093
L33664 78069
L33786 78069
L33835 78093
L33859 78117
L33884 78166
L33884 78215
L33859 78288
L33567 78580
L33884 78580
" />
</g>
<g style="fill:#000000; fill-opacity:0.0; 
stroke:#000000; stroke-width:39.3701; stroke-opacity:1; 
stroke-linecap:round; stroke-linejoin:round;">
</g>
<g style="fill:#000000; fill-opacity:0.0; 
stroke:#000000; stroke-width:59.0551; stroke-opacity:1; 
stroke-linecap:round; stroke-linejoin:round;">
<text x="53149.6" y="78605.2"
textLength="546.494" font-size="682.415" lengthAdjust="spacingAndGlyphs"
text-anchor="start" opacity="0">3</text>
<path d="M53252 78069
L53569 78069
L53398 78263
L53471 78263
L53520 78288
L53544 78312
L53569 78361
L53569 78483
L53544 78532
L53520 78556
L53471 78580
L53325 78580
L53276 78556
L53252 78532
" />
</g>
<g style="fill:#000000; fill-opacity:0.0; 
stroke:#000000; stroke-width:39.3701; stroke-opacity:1; 
stroke-linecap:round; stroke-linejoin:round;">
</g>
<g style="fill:#000000; fill-opacity:0.0; 
stroke:#000000; stroke-width:59.0551; stroke-opacity:1; 
stroke-linecap:round; stroke-linejoin:round;">
<text x="72834.6" y="78605.2"
textLength="546.494" font-size="682.415" lengthAdjust="spacingAndGlyphs"
text-anchor="start" opacity="0">4</text>
<path d="M73205 78239
L73205 78580
" />
<path d="M73083 78044
L72961 78410
L73278 78410
" />
</g>
<g style="fill:#000000; fill-opacity:0.0; 
stroke:#000000; stroke-width:39.3701; stroke-opacity:1; 
stroke-linecap:round; stroke-linejoin:round;">
</g>
<g style="fill:#000000; fill-opacity:0.0; 
stroke:#000000; stroke-width:59.0551; stroke-opacity:1; 
stroke-linecap:round; stroke-linejoin:round;">
<text x="92519.7" y="78605.2"
textLength="546.494" font-size="682.415" lengthAdjust="spacingAndGlyphs"
text-anchor="start" opacity="0">5</text>
<path d="M92914 78069
L92671 78069
L92646 78312
L92671 78288
L92719 78263
L92841 78263
L92890 78288
L92914 78312
L92939 78361
L92939 78483
L92914 78532
L92890 78556
L92841 78580
L92719 78580
L92671 78556
L92646 78532
" />
</g>
<g style="fill:#000000; fill-opacity:0.0; 
stroke:#000000; stroke-width:39.3701; stroke-opacity:1; 
stroke-linecap:round; stroke-linejoin:round;">
</g>
<g style="fill:#000000; fill-opacity:0.0; 
stroke:#000000; stroke-width:59.0551; stroke-opacity:1; 
stroke-linecap:round; stroke-linejoin:round;">
<text x="112205" y="78605.2"
textLength="546.494" font-size="682.415" lengthAdjust="spacingAndGlyphs"
text-anchor="start" opacity="0">6</text>
<path d="M112575 78069
L112477 78069
L112429 78093
L112404 78117
L112356 78190
L112331 78288
L112331 78483
L112356 78532
L112380 78556
L112429 78580
L112526 78580
L112575 78556
L112599 78532
L112624 78483
L112624 78361
L112599 78312
L112575 78288
L112526 78263
L112429 78263
L112380 78288
L112356 78312
L112331 78361
" />
</g>
<g style="fill:#000000; fill-opacity:0.0; 
stroke:#000000; stroke-width:39.3701; stroke-opacity:1; 
stroke-linecap:round; stroke-linejoin:round;">
</g>
<g style="fill:#000000; fill-opacity:0.0; 
stroke:#000000; stroke-width:59.0551; stroke-opacity:1; 
stroke-linecap:round; stroke-linejoin:round;">
<path d="M3937 23622
L4724 23622
" />
</g>
<g style="fill:#000000; fill-opacity:0.0; 
stroke:#000000; stroke-width:39.3701; stroke-opacity:1; 
stroke-linecap:round; stroke-linejoin:round;">
</g>
<g style="fill:#000000; fill-opacity:0.0; 
stroke:#000000; stroke-width:59.0551; stroke-opacity:1; 
stroke-linecap:round; stroke-linejoin:round;">
<path d="M3937 43307
L4724 43307
" />
</g>
<g style="fill:#000000; fill-opacity:0.0; 
stroke:#000000; stroke-width:39.3701; stroke-opacity:1; 
stroke-linecap:round; stroke-linejoin:round;">
</g>
<g style="fill:#000000; fill-opacity:0.0; 
stroke:#000000; stroke-width:59.0551; stroke-opacity:1; 
stroke-linecap:round; stroke-linejoin:round;">
<path d="M3937 62992
L4724 62992
" />
</g>
<g style="fill:#000000; fill-opacity:0.0; 
stroke:#000000; stroke-width:39.3701; stroke-opacity:1; 
stroke-linecap:round; stroke-linejoin:round;">
</g>
<g style="fill:#000000; fill-opacity:0.0; 
stroke:#000000; stroke-width:59.0551; stroke-opacity:1; 
stroke-linecap:round; stroke-linejoin:round;">
<text x="4330.71" y="14035.4"
textLength="497.75" font-size="682.415" lengthAdjust="spacingAndGlyphs"
text-anchor="middle" opacity="0">A</text>
<path d="M4208 13864
L4452 13864
" />
<path d="M4160 14011
L4330 13499
L4501 14011
" />
</g>
<g style="fill:#000000; fill-opacity:0.0; 
stroke:#000000; stroke-width:39.3701; stroke-opacity:1; 
stroke-linecap:round; stroke-linejoin:round;">
</g>
<g style="fill:#000000; fill-opacity:0.0; 
stroke:#000000; stroke-width:59.0551; stroke-opacity:1; 
stroke-linecap:round; stroke-linejoin:round;">
<text x="4330.71" y="33720.5"
textLength="570.866" font-size="682.415" lengthAdjust="spacingAndGlyphs"
text-anchor="middle" opacity="0">B</text>
<path d="M4367 33428
L4440 33452
L4464 33476
L4489 33525
L4489 33598
L4464 33647
L4440 33671
L4391 33696
L4196 33696
L4196 33184
L4367 33184
L4416 33208
L4440 33233
L4464 33281
L4464 33330
L4440 33379
L4416 33403
L4367 33428
L4196 33428
" />
</g>
<g style="fill:#000000; fill-opacity:0.0; 
stroke:#000000; stroke-width:39.3701; stroke-opacity:1; 
stroke-linecap:round; stroke-linejoin:round;">
</g>
<g style="fill:#000000; fill-opacity:0.0; 
stroke:#000000; stroke-width:59.0551; stroke-opacity:1; 
stroke-linecap:round; stroke-linejoin:round;">
<text x="4330.71" y="53405.5"
textLength="570.866" font-size="682.415" lengthAdjust="spacingAndGlyphs"
text-anchor="middle" opacity="0">C</text>
<path d="M4489 53332
L4464 53356
L4391 53381
L4342 53381
L4269 53356
L4221 53308
L4196 53259
L4172 53161
L4172 53088
L4196 52991
L4221 52942
L4269 52893
L4342 52869
L4391 52869
L4464 52893
L4489 52918
" />
</g>
<g style="fill:#000000; fill-opacity:0.0; 
stroke:#000000; stroke-width:39.3701; stroke-opacity:1; 
stroke-linecap:round; stroke-linejoin:round;">
</g>
<g style="fill:#000000; fill-opacity:0.0; 
stroke:#000000; stroke-width:59.0551; stroke-opacity:1; 
stroke-linecap:round; stroke-linejoin:round;">
<text x="4330.71" y="73090.6"
textLength="570.866" font-size="682.415" lengthAdjust="spacingAndGlyphs"
text-anchor="middle" opacity="0">D</text>
<path d="M4196 73066
L4196 72554
L4318 72554
L4391 72578
L4440 72627
L4464 72676
L4489 72773
L4489 72846
L4464 72944
L4440 72993
L4391 73041
L4318 73066
L4196 73066
" />
</g>
<g style="fill:#000000; fill-opacity:0.0; 
stroke:#000000; stroke-width:39.3701; stroke-opacity:1; 
stroke-linecap:round; stroke-linejoin:round;">
</g>
<g style="fill:#000000; fill-opacity:0.0; 
stroke:#000000; stroke-width:59.0551; stroke-opacity:1; 
stroke-linecap:round; stroke-linejoin:round;">
<path d="M112992 23622
L112205 23622
" />
</g>
<g style="fill:#000000; fill-opacity:0.0; 
stroke:#000000; stroke-width:39.3701; stroke-opacity:1; 
stroke-linecap:round; stroke-linejoin:round;">
</g>
<g style="fill:#000000; fill-opacity:0.0; 
stroke:#000000; stroke-width:59.0551; stroke-opacity:1; 
stroke-linecap:round; stroke-linejoin:round;">
<path d="M112992 43307
L112205 43307
" />
</g>
<g style="fill:#000000; fill-opacity:0.0; 
stroke:#000000; stroke-width:39.3701; stroke-opacity:1; 
stroke-linecap:round; stroke-linejoin:round;">
</g>
<g style="fill:#000000; fill-opacity:0.0; 
stroke:#000000; stroke-width:59.0551; stroke-opacity:1; 
stroke-linecap:round; stroke-linejoin:round;">
<path d="M112992 62992
L112205 62992
" />
</g>
<g style="fill:#000000; fill-opacity:0.0; 
stroke:#000000; stroke-width:39.3701; stroke-opacity:1; 
stroke-linecap:round; stroke-linejoin:round;">
</g>
<g style="fill:#000000; fill-opacity:0.0; 
stroke:#000000; stroke-width:59.0551; stroke-opacity:1; 
stroke-linecap:round; stroke-linejoin:round;">
<text x="112599" y="14035.4"
textLength="497.75" font-size="682.415" lengthAdjust="spacingAndGlyphs"
text-anchor="middle" opacity="0">A</text>
<path d="M112477 13864
L112721 13864
" />
<path d="M112428 14011
L112599 13499
L112769 14011
" />
</g>
<g style="fill:#000000; fill-opacity:0.0; 
stroke:#000000; stroke-width:39.3701; stroke-opacity:1; 
stroke-linecap:round; stroke-linejoin:round;">
</g>
<g style="fill:#000000; fill-opacity:0.0; 
stroke:#000000; stroke-width:59.0551; stroke-opacity:1; 
stroke-linecap:round; stroke-linejoin:round;">
<text x="112599" y="33720.5"
textLength="570.866" font-size="682.415" lengthAdjust="spacingAndGlyphs"
text-anchor="middle" opacity="0">B</text>
<path d="M112635 33428
L112708 33452
L112733 33476
L112757 33525
L112757 33598
L112733 33647
L112708 33671
L112660 33696
L112465 33696
L112465 33184
L112635 33184
L112684 33208
L112708 33233
L112733 33281
L112733 33330
L112708 33379
L112684 33403
L112635 33428
L112465 33428
" />
</g>
<g style="fill:#000000; fill-opacity:0.0; 
stroke:#000000; stroke-width:39.3701; stroke-opacity:1; 
stroke-linecap:round; stroke-linejoin:round;">
</g>
<g style="fill:#000000; fill-opacity:0.0; 
stroke:#000000; stroke-width:59.0551; stroke-opacity:1; 
stroke-linecap:round; stroke-linejoin:round;">
<text x="112599" y="53405.5"
textLength="570.866" font-size="682.415" lengthAdjust="spacingAndGlyphs"
text-anchor="middle" opacity="0">C</text>
<path d="M112757 53332
L112733 53356
L112660 53381
L112611 53381
L112538 53356
L112489 53308
L112465 53259
L112440 53161
L112440 53088
L112465 52991
L112489 52942
L112538 52893
L112611 52869
L112660 52869
L112733 52893
L112757 52918
" />
</g>
<g style="fill:#000000; fill-opacity:0.0; 
stroke:#000000; stroke-width:39.3701; stroke-opacity:1; 
stroke-linecap:round; stroke-linejoin:round;">
</g>
<g style="fill:#000000; fill-opacity:0.0; 
stroke:#000000; stroke-width:59.0551; stroke-opacity:1; 
stroke-linecap:round; stroke-linejoin:round;">
<text x="112599" y="73090.6"
textLength="570.866" font-size="682.415" lengthAdjust="spacingAndGlyphs"
text-anchor="middle" opacity="0">D</text>
<path d="M112465 73066
L112465 72554
L112587 72554
L112660 72578
L112708 72627
L112733 72676
L112757 72773
L112757 72846
L112733 72944
L112708 72993
L112660 73041
L112587 73066
L112465 73066
" />
</g>
<g style="fill:#000000; fill-opacity:0.0; 
stroke:#000000; stroke-width:39.3701; stroke-opacity:1; 
stroke-linecap:round; stroke-linejoin:round;">
</g>
<g style="fill:#000000; fill-opacity:0.0; 
stroke:#000000; stroke-width:59.0551; stroke-opacity:1; 
stroke-linecap:round; stroke-linejoin:round;">
<text x="78741" y="76321.7"
textLength="2758.72" font-size="787.402" lengthAdjust="spacingAndGlyphs"
text-anchor="start" opacity="0">Date: </text>
<path d="M78911 76293
L78911 75703
L79051 75703
L79136 75731
L79192 75787
L79220 75843
L79248 75956
L79248 76040
L79220 76153
L79192 76209
L79136 76265
L79051 76293
L78911 76293
" />
<path d="M79754 76293
L79754 75984
L79726 75928
L79670 75899
L79557 75899
L79501 75928
" />
<path d="M79754 76265
L79698 76293
L79557 76293
L79501 76265
L79473 76209
L79473 76153
L79501 76096
L79557 76068
L79698 76068
L79754 76040
" />
<path d="M79951 75899
L80176 75899
" />
<path d="M80036 75703
L80036 76209
L80064 76265
L80120 76293
L80176 76293
" />
<path d="M80598 76265
L80542 76293
L80429 76293
L80373 76265
L80345 76209
L80345 75984
L80373 75928
L80429 75899
L80542 75899
L80598 75928
L80626 75984
L80626 76040
L80345 76096
" />
<path d="M80879 76237
L80907 76265
L80879 76293
L80851 76265
L80879 76237
L80879 76293
" />
<path d="M80879 75928
L80907 75956
L80879 75984
L80851 75956
L80879 75928
L80879 75984
" />
</g>
<g style="fill:#000000; fill-opacity:0.0; 
stroke:#000000; stroke-width:39.3701; stroke-opacity:1; 
stroke-linecap:round; stroke-linejoin:round;">
</g>
<g style="fill:#000000; fill-opacity:0.0; 
stroke:#000000; stroke-width:59.0551; stroke-opacity:1; 
stroke-linecap:round; stroke-linejoin:round;">
<path d="M69685 76577
L112205 76577
" />
</g>
<g style="fill:#000000; fill-opacity:0.0; 
stroke:#000000; stroke-width:39.3701; stroke-opacity:1; 
stroke-linecap:round; stroke-linejoin:round;">
</g>
<g style="fill:#000000; fill-opacity:0.0; 
stroke:#000000; stroke-width:59.0551; stroke-opacity:1; 
stroke-linecap:round; stroke-linejoin:round;">
<text x="70079.6" y="77424.1"
textLength="12348.1" font-size="787.402" lengthAdjust="spacingAndGlyphs"
text-anchor="start" opacity="0">KiCad E.D.A.  pcbnew 5.1.5</text>
<path d="M70249 77395
L70249 76805
" />
<path d="M70587 77395
L70334 77058
" />
<path d="M70587 76805
L70249 77142
" />
<path d="M70840 77395
L70840 77002
" />
<path d="M70840 76805
L70812 76833
L70840 76861
L70868 76833
L70840 76805
L70840 76861
" />
<path d="M71458 77339
L71430 77367
L71346 77395
L71290 77395
L71205 77367
L71149 77311
L71121 77255
L71093 77142
L71093 77058
L71121 76946
L71149 76889
L71205 76833
L71290 76805
L71346 76805
L71430 76833
L71458 76861
" />
<path d="M71965 77395
L71965 77086
L71937 77030
L71880 77002
L71768 77002
L71712 77030
" />
<path d="M71965 77367
L71908 77395
L71768 77395
L71712 77367
L71683 77311
L71683 77255
L71712 77199
L71768 77171
L71908 77171
L71965 77142
" />
<path d="M72499 77395
L72499 76805
" />
<path d="M72499 77367
L72443 77395
L72330 77395
L72274 77367
L72246 77339
L72218 77283
L72218 77114
L72246 77058
L72274 77030
L72330 77002
L72443 77002
L72499 77030
" />
<path d="M73230 77086
L73427 77086
" />
<path d="M73511 77395
L73230 77395
L73230 76805
L73511 76805
" />
<path d="M73764 77339
L73793 77367
L73764 77395
L73736 77367
L73764 77339
L73764 77395
" />
<path d="M74046 77395
L74046 76805
L74186 76805
L74271 76833
L74327 76889
L74355 76946
L74383 77058
L74383 77142
L74355 77255
L74327 77311
L74271 77367
L74186 77395
L74046 77395
" />
<path d="M74636 77339
L74664 77367
L74636 77395
L74608 77367
L74636 77339
L74636 77395
" />
<path d="M74889 77227
L75171 77227
" />
<path d="M74833 77395
L75030 76805
L75227 77395
" />
<path d="M75424 77339
L75452 77367
L75424 77395
L75395 77367
L75424 77339
L75424 77395
" />
<path d="M76605 77002
L76605 77592
" />
<path d="M76605 77030
L76661 77002
L76773 77002
L76830 77030
L76858 77058
L76886 77114
L76886 77283
L76858 77339
L76830 77367
L76773 77395
L76661 77395
L76605 77367
" />
<path d="M77392 77367
L77336 77395
L77223 77395
L77167 77367
L77139 77339
L77111 77283
L77111 77114
L77139 77058
L77167 77030
L77223 77002
L77336 77002
L77392 77030
" />
<path d="M77645 77395
L77645 76805
" />
<path d="M77645 77030
L77701 77002
L77814 77002
L77870 77030
L77898 77058
L77926 77114
L77926 77283
L77898 77339
L77870 77367
L77814 77395
L77701 77395
L77645 77367
" />
<path d="M78180 77002
L78180 77395
" />
<path d="M78180 77058
L78208 77030
L78264 77002
L78348 77002
L78404 77030
L78433 77086
L78433 77395
" />
<path d="M78939 77367
L78883 77395
L78770 77395
L78714 77367
L78686 77311
L78686 77086
L78714 77030
L78770 77002
L78883 77002
L78939 77030
L78967 77086
L78967 77142
L78686 77199
" />
<path d="M79164 77002
L79276 77395
L79389 77114
L79501 77395
L79614 77002
" />
<path d="M80570 76805
L80289 76805
L80260 77086
L80289 77058
L80345 77030
L80485 77030
L80542 77058
L80570 77086
L80598 77142
L80598 77283
L80570 77339
L80542 77367
L80485 77395
L80345 77395
L80289 77367
L80260 77339
" />
<path d="M80851 77339
L80879 77367
L80851 77395
L80823 77367
L80851 77339
L80851 77395
" />
<path d="M81442 77395
L81104 77395
" />
<path d="M81273 77395
L81273 76805
L81217 76889
L81160 76946
L81104 76974
" />
<path d="M81695 77339
L81723 77367
L81695 77395
L81667 77367
L81695 77339
L81695 77395
" />
<path d="M82257 76805
L81976 76805
L81948 77086
L81976 77058
L82032 77030
L82173 77030
L82229 77058
L82257 77086
L82285 77142
L82285 77283
L82257 77339
L82229 77367
L82173 77395
L82032 77395
L81976 77367
L81948 77339
" />
</g>
<g style="fill:#000000; fill-opacity:0.0; 
stroke:#000000; stroke-width:39.3701; stroke-opacity:1; 
stroke-linecap:round; stroke-linejoin:round;">
</g>
<g style="fill:#000000; fill-opacity:0.0; 
stroke:#000000; stroke-width:59.0551; stroke-opacity:1; 
stroke-linecap:round; stroke-linejoin:round;">
<path d="M69685 75396
L112205 75396
" />
</g>
<g style="fill:#000000; fill-opacity:0.0; 
stroke:#000000; stroke-width:39.3701; stroke-opacity:1; 
stroke-linecap:round; stroke-linejoin:round;">
</g>
<g style="fill:#000000; fill-opacity:0.0; 
stroke:#000000; stroke-width:118.11; stroke-opacity:1; 
stroke-linecap:round; stroke-linejoin:round;">
<text x="103544" y="76321.7"
textLength="2336.9" font-size="787.402" lengthAdjust="spacingAndGlyphs"
text-anchor="start" opacity="0">Rev: </text>
<path d="M104099 76293
L103902 76012
" />
<path d="M103761 76293
L103761 75703
L103986 75703
L104042 75731
L104070 75759
L104099 75815
L104099 75899
L104070 75956
L104042 75984
L103986 76012
L103761 76012
" />
<path d="M104577 76265
L104520 76293
L104408 76293
L104352 76265
L104323 76209
L104323 75984
L104352 75928
L104408 75899
L104520 75899
L104577 75928
L104605 75984
L104605 76040
L104323 76096
" />
<path d="M104802 75899
L104942 76293
L105083 75899
" />
<path d="M105308 76237
L105336 76265
L105308 76293
L105280 76265
L105308 76237
L105308 76293
" />
<path d="M105308 75928
L105336 75956
L105308 75984
L105280 75956
L105308 75928
L105308 75984
" />
</g>
<g style="fill:#000000; fill-opacity:0.0; 
stroke:#000000; stroke-width:39.3701; stroke-opacity:1; 
stroke-linecap:round; stroke-linejoin:round;">
</g>
<g style="fill:#000000; fill-opacity:0.0; 
stroke:#000000; stroke-width:59.0551; stroke-opacity:1; 
stroke-linecap:round; stroke-linejoin:round;">
<text x="70079.6" y="76321.7"
textLength="3781.21" font-size="787.402" lengthAdjust="spacingAndGlyphs"
text-anchor="start" opacity="0">Size: A4</text>
<path d="M70221 76265
L70305 76293
L70446 76293
L70502 76265
L70530 76237
L70559 76181
L70559 76124
L70530 76068
L70502 76040
L70446 76012
L70334 75984
L70277 75956
L70249 75928
L70221 75871
L70221 75815
L70249 75759
L70277 75731
L70334 75703
L70474 75703
L70559 75731
" />
<path d="M70812 76293
L70812 75899
" />
<path d="M70812 75703
L70784 75731
L70812 75759
L70840 75731
L70812 75703
L70812 75759
" />
<path d="M71037 75899
L71346 75899
L71037 76293
L71346 76293
" />
<path d="M71796 76265
L71740 76293
L71627 76293
L71571 76265
L71543 76209
L71543 75984
L71571 75928
L71627 75899
L71740 75899
L71796 75928
L71824 75984
L71824 76040
L71543 76096
" />
<path d="M72077 76237
L72105 76265
L72077 76293
L72049 76265
L72077 76237
L72077 76293
" />
<path d="M72077 75928
L72105 75956
L72077 75984
L72049 75956
L72077 75928
L72077 75984
" />
<path d="M72780 76124
L73061 76124
" />
<path d="M72724 76293
L72921 75703
L73118 76293
" />
<path d="M73568 75899
L73568 76293
" />
<path d="M73427 75674
L73286 76096
L73652 76096
" />
</g>
<g style="fill:#000000; fill-opacity:0.0; 
stroke:#000000; stroke-width:39.3701; stroke-opacity:1; 
stroke-linecap:round; stroke-linejoin:round;">
</g>
<g style="fill:#000000; fill-opacity:0.0; 
stroke:#000000; stroke-width:59.0551; stroke-opacity:1; 
stroke-linecap:round; stroke-linejoin:round;">
<text x="103544" y="77424.1"
textLength="3349.27" font-size="787.402" lengthAdjust="spacingAndGlyphs"
text-anchor="start" opacity="0">Id: 1/1</text>
<path d="M103714 77395
L103714 76805
" />
<path d="M104248 77395
L104248 76805
" />
<path d="M104248 77367
L104192 77395
L104079 77395
L104023 77367
L103995 77339
L103967 77283
L103967 77114
L103995 77058
L104023 77030
L104079 77002
L104192 77002
L104248 77030
" />
<path d="M104529 77339
L104557 77367
L104529 77395
L104501 77367
L104529 77339
L104529 77395
" />
<path d="M104529 77030
L104557 77058
L104529 77086
L104501 77058
L104529 77030
L104529 77086
" />
<path d="M105570 77395
L105232 77395
" />
<path d="M105401 77395
L105401 76805
L105345 76889
L105289 76946
L105232 76974
" />
<path d="M106245 76777
L105739 77536
" />
<path d="M106751 77395
L106413 77395
" />
<path d="M106582 77395
L106582 76805
L106526 76889
L106470 76946
L106413 76974
" />
</g>
<g style="fill:#000000; fill-opacity:0.0; 
stroke:#000000; stroke-width:39.3701; stroke-opacity:1; 
stroke-linecap:round; stroke-linejoin:round;">
</g>
<g style="fill:#000000; fill-opacity:0.0; 
stroke:#000000; stroke-width:59.0551; stroke-opacity:1; 
stroke-linecap:round; stroke-linejoin:round;">
<path d="M69685 73821
L112205 73821
" />
</g>
<g style="fill:#000000; fill-opacity:0.0; 
stroke:#000000; stroke-width:39.3701; stroke-opacity:1; 
stroke-linecap:round; stroke-linejoin:round;">
</g>
<g style="fill:#000000; fill-opacity:0.0; 
stroke:#000000; stroke-width:157.48; stroke-opacity:1; 
stroke-linecap:round; stroke-linejoin:round;">
<text x="70079.6" y="74924.1"
textLength="3701.14" font-size="1049.87" lengthAdjust="spacingAndGlyphs"
text-anchor="start" opacity="0">Title: </text>
<path d="M70360 74099
L70810 74099
" />
<path d="M70486 74886
L70585 74099
" />
<path d="M70974 74886
L71039 74361
" />
<path d="M71072 74099
L71030 74136
L71063 74174
L71105 74136
L71072 74099
L71063 74174
" />
<path d="M71302 74361
L71602 74361
" />
<path d="M71447 74099
L71363 74774
L71391 74849
L71461 74886
L71536 74886
" />
<path d="M71911 74886
L71841 74849
L71813 74774
L71897 74099
" />
<path d="M72516 74849
L72436 74886
L72286 74886
L72216 74849
L72187 74774
L72225 74474
L72272 74399
L72352 74361
L72501 74361
L72572 74399
L72600 74474
L72591 74549
L72206 74624
" />
<path d="M72895 74811
L72928 74849
L72886 74886
L72853 74849
L72895 74811
L72886 74886
" />
<path d="M72947 74399
L72980 74436
L72937 74474
L72905 74436
L72947 74399
L72937 74474
" />
</g>
<g style="fill:#000000; fill-opacity:0.0; 
stroke:#000000; stroke-width:39.3701; stroke-opacity:1; 
stroke-linecap:round; stroke-linejoin:round;">
</g>
<g style="fill:#000000; fill-opacity:0.0; 
stroke:#000000; stroke-width:59.0551; stroke-opacity:1; 
stroke-linecap:round; stroke-linejoin:round;">
<text x="70079.6" y="73408.3"
textLength="13056.2" font-size="787.402" lengthAdjust="spacingAndGlyphs"
text-anchor="start" opacity="0">File: Goron's_Ruby.kicad_pcb</text>
<path d="M70446 73070
L70249 73070
" />
<path d="M70249 73380
L70249 72789
L70530 72789
" />
<path d="M70755 73380
L70755 72986
" />
<path d="M70755 72789
L70727 72817
L70755 72845
L70784 72817
L70755 72789
L70755 72845
" />
<path d="M71121 73380
L71065 73352
L71037 73295
L71037 72789
" />
<path d="M71571 73352
L71515 73380
L71402 73380
L71346 73352
L71318 73295
L71318 73070
L71346 73014
L71402 72986
L71515 72986
L71571 73014
L71599 73070
L71599 73127
L71318 73183
" />
<path d="M71852 73323
L71880 73352
L71852 73380
L71824 73352
L71852 73323
L71852 73380
" />
<path d="M71852 73014
L71880 73042
L71852 73070
L71824 73042
L71852 73014
L71852 73070
" />
<path d="M72893 72817
L72836 72789
L72752 72789
L72668 72817
L72611 72874
L72583 72930
L72555 73042
L72555 73127
L72583 73239
L72611 73295
L72668 73352
L72752 73380
L72808 73380
L72893 73352
L72921 73323
L72921 73127
L72808 73127
" />
<path d="M73258 73380
L73202 73352
L73174 73323
L73146 73267
L73146 73099
L73174 73042
L73202 73014
L73258 72986
L73343 72986
L73399 73014
L73427 73042
L73455 73099
L73455 73267
L73427 73323
L73399 73352
L73343 73380
L73258 73380
" />
<path d="M73708 73380
L73708 72986
" />
<path d="M73708 73099
L73736 73042
L73764 73014
L73821 72986
L73877 72986
" />
<path d="M74158 73380
L74102 73352
L74074 73323
L74046 73267
L74046 73099
L74074 73042
L74102 73014
L74158 72986
L74242 72986
L74299 73014
L74327 73042
L74355 73099
L74355 73267
L74327 73323
L74299 73352
L74242 73380
L74158 73380
" />
<path d="M74608 72986
L74608 73380
" />
<path d="M74608 73042
L74636 73014
L74692 72986
L74777 72986
L74833 73014
L74861 73070
L74861 73380
" />
<path d="M75171 72789
L75114 72902
" />
<path d="M75395 73352
L75452 73380
L75564 73380
L75620 73352
L75649 73295
L75649 73267
L75620 73211
L75564 73183
L75480 73183
L75424 73155
L75395 73099
L75395 73070
L75424 73014
L75480 72986
L75564 72986
L75620 73014
" />
<path d="M75761 73436
L76211 73436
" />
<path d="M76689 73380
L76492 73099
" />
<path d="M76352 73380
L76352 72789
L76577 72789
L76633 72817
L76661 72845
L76689 72902
L76689 72986
L76661 73042
L76633 73070
L76577 73099
L76352 73099
" />
<path d="M77195 72986
L77195 73380
" />
<path d="M76942 72986
L76942 73295
L76970 73352
L77027 73380
L77111 73380
L77167 73352
L77195 73323
" />
<path d="M77476 73380
L77476 72789
" />
<path d="M77476 73014
L77533 72986
L77645 72986
L77701 73014
L77730 73042
L77758 73099
L77758 73267
L77730 73323
L77701 73352
L77645 73380
L77533 73380
L77476 73352
" />
<path d="M77955 72986
L78095 73380
" />
<path d="M78236 72986
L78095 73380
L78039 73520
L78011 73548
L77955 73577
" />
<path d="M78461 73323
L78489 73352
L78461 73380
L78433 73352
L78461 73323
L78461 73380
" />
<path d="M78742 73380
L78742 72789
" />
<path d="M78798 73155
L78967 73380
" />
<path d="M78967 72986
L78742 73211
" />
<path d="M79220 73380
L79220 72986
" />
<path d="M79220 72789
L79192 72817
L79220 72845
L79248 72817
L79220 72789
L79220 72845
" />
<path d="M79754 73352
L79698 73380
L79586 73380
L79529 73352
L79501 73323
L79473 73267
L79473 73099
L79501 73042
L79529 73014
L79586 72986
L79698 72986
L79754 73014
" />
<path d="M80260 73380
L80260 73070
L80232 73014
L80176 72986
L80064 72986
L80007 73014
" />
<path d="M80260 73352
L80204 73380
L80064 73380
L80007 73352
L79979 73295
L79979 73239
L80007 73183
L80064 73155
L80204 73155
L80260 73127
" />
<path d="M80795 73380
L80795 72789
" />
<path d="M80795 73352
L80739 73380
L80626 73380
L80570 73352
L80542 73323
L80514 73267
L80514 73099
L80542 73042
L80570 73014
L80626 72986
L80739 72986
L80795 73014
" />
<path d="M80935 73436
L81385 73436
" />
<path d="M81526 72986
L81526 73577
" />
<path d="M81526 73014
L81582 72986
L81695 72986
L81751 73014
L81779 73042
L81807 73099
L81807 73267
L81779 73323
L81751 73352
L81695 73380
L81582 73380
L81526 73352
" />
<path d="M82313 73352
L82257 73380
L82145 73380
L82088 73352
L82060 73323
L82032 73267
L82032 73099
L82060 73042
L82088 73014
L82145 72986
L82257 72986
L82313 73014
" />
<path d="M82566 73380
L82566 72789
" />
<path d="M82566 73014
L82623 72986
L82735 72986
L82791 73014
L82820 73042
L82848 73099
L82848 73267
L82820 73323
L82791 73352
L82735 73380
L82623 73380
L82566 73352
" />
</g>
<g style="fill:#000000; fill-opacity:0.0; 
stroke:#000000; stroke-width:39.3701; stroke-opacity:1; 
stroke-linecap:round; stroke-linejoin:round;">
</g>
<g style="fill:#000000; fill-opacity:0.0; 
stroke:#000000; stroke-width:59.0551; stroke-opacity:1; 
stroke-linecap:round; stroke-linejoin:round;">
<path d="M69685 71459
L112205 71459
" />
</g>
<g style="fill:#000000; fill-opacity:0.0; 
stroke:#000000; stroke-width:39.3701; stroke-opacity:1; 
stroke-linecap:round; stroke-linejoin:round;">
</g>
<g style="fill:#000000; fill-opacity:0.0; 
stroke:#000000; stroke-width:59.0551; stroke-opacity:1; 
stroke-linecap:round; stroke-linejoin:round;">
<text x="70079.6" y="72345.4"
textLength="3236.78" font-size="787.402" lengthAdjust="spacingAndGlyphs"
text-anchor="start" opacity="0">Sheet: </text>
<path d="M70221 72289
L70305 72317
L70446 72317
L70502 72289
L70530 72260
L70559 72204
L70559 72148
L70530 72092
L70502 72064
L70446 72036
L70334 72007
L70277 71979
L70249 71951
L70221 71895
L70221 71839
L70249 71782
L70277 71754
L70334 71726
L70474 71726
L70559 71754
" />
<path d="M70812 72317
L70812 71726
" />
<path d="M71065 72317
L71065 72007
L71037 71951
L70980 71923
L70896 71923
L70840 71951
L70812 71979
" />
<path d="M71571 72289
L71515 72317
L71402 72317
L71346 72289
L71318 72232
L71318 72007
L71346 71951
L71402 71923
L71515 71923
L71571 71951
L71599 72007
L71599 72064
L71318 72120
" />
<path d="M72077 72289
L72021 72317
L71908 72317
L71852 72289
L71824 72232
L71824 72007
L71852 71951
L71908 71923
L72021 71923
L72077 71951
L72105 72007
L72105 72064
L71824 72120
" />
<path d="M72274 71923
L72499 71923
" />
<path d="M72358 71726
L72358 72232
L72386 72289
L72443 72317
L72499 72317
" />
<path d="M72696 72260
L72724 72289
L72696 72317
L72668 72289
L72696 72260
L72696 72317
" />
<path d="M72696 71951
L72724 71979
L72696 72007
L72668 71979
L72696 71951
L72696 72007
" />
</g>
<g style="fill:#000000; fill-opacity:0.0; 
stroke:#000000; stroke-width:39.3701; stroke-opacity:1; 
stroke-linecap:round; stroke-linejoin:round;">
</g>
<g style="fill:#000000; fill-opacity:0.0; 
stroke:#000000; stroke-width:59.0551; stroke-opacity:1; 
stroke-linecap:round; stroke-linejoin:round;">
<path d="M77559 75396
L77559 76577
" />
</g>
<g style="fill:#000000; fill-opacity:0.0; 
stroke:#000000; stroke-width:39.3701; stroke-opacity:1; 
stroke-linecap:round; stroke-linejoin:round;">
</g>
<g style="fill:#000000; fill-opacity:0.0; 
stroke:#000000; stroke-width:59.0551; stroke-opacity:1; 
stroke-linecap:round; stroke-linejoin:round;">
<path d="M102756 75396
L102756 77955
" />
</g>
<g style="fill:#008400; fill-opacity:0.0; 
stroke:#008400; stroke-width:59.0551; stroke-opacity:1; 
stroke-linecap:round; stroke-linejoin:round;">
</g>
<g style="fill:#008400; fill-opacity:1.0; 
stroke:#008400; stroke-width:3.93701; stroke-opacity:1; 
stroke-linecap:round; stroke-linejoin:round;">
<path style="fill:#008400; fill-opacity:1.0; 
stroke:#008400; stroke-width:3.93701; stroke-opacity:1; 
stroke-linecap:round; stroke-linejoin:round;fill-rule:evenodd;"
d="M 60968.7,45196.5
60896.7,45232.9
60843.1,45285.5
60840.2,45289.9
60825.1,45317.5
60816.6,45346.9
60814.1,45386.6
60816.6,45445.1
60820.9,45499.6
60826.3,45581.6
60830.7,45683.1
60833.6,45790.5
60834.6,45877.6
60834.3,45968.9
60832.4,46033.5
60828.1,46077.8
60820.4,46108.5
60808.6,46132.1
60800.1,46144.3
60766.3,46177.7
60721.6,46193.3
60692.9,46196.5
60595.3,46189
60505.6,46150.7
60421.5,46080.6
60399.9,46056.6
60358.7,46011.9
60323.2,45979.6
60300.7,45966.3
60300,45966.3
60278,45979.3
60249.1,46012.2
60236.4,46030.9
60178.4,46106
60119.3,46150.9
60061.3,46165
60006.4,46147.6
59969.3,46114.3
59937.5,46071.4
59909.9,46021
59883.4,45956.4
59855.4,45870.7
59832.3,45791.3
59808.9,45708.3
59784.4,45621.9
59763.3,45547.8
59759,45532.9
59727.8,45424.4
59559.2,45360.1
59473.4,45329.1
59415,45312.5
59381.5,45309.5
59373.2,45313.2
59361.2,45336.4
59374.1,45359.9
59414.5,45385.7
59484.5,45415.8
59504,45423.1
59566.8,45447.6
59618.4,45470
59649.9,45486.5
59654.1,45489.7
59665.2,45511.8
59682.5,45559.7
59703.7,45627
59726.9,45707.2
59733.4,45731
59776.9,45881.3
59818.6,46001.4
59860.3,46094.1
59903.5,46162.4
59949.8,46209.1
60000.9,46237.2
60021.2,46243.5
60089.6,46244.6
60162,46218.4
60229.8,46168.5
60251,46146
60310.4,46076.6
60377.3,46146.2
60450,46211.8
60522.2,46252.3
60605.9,46273.5
60651,46278.4
60713,46280.9
60755.9,46274.8
60793.6,46257.3
60810.1,46246.7
60860.6,46196.3
60896.6,46122.6
60918.2,46024.1
60925.8,45899.4
60919.5,45746.9
60901.9,45583.9
60890.6,45485
60887.7,45412.8
60894.8,45361.4
60913.4,45324.8
60944.9,45297.2
60978.9,45278.4
61036,45260.7
61090.4,45267.9
61148.6,45302.1
61194.3,45342.4
61231.8,45376
61256.5,45388.1
61277.1,45382.3
61282.1,45378.9
61300.8,45361.3
61298.3,45342
61283.3,45318.7
61240.2,45274
61180.1,45232
61115.2,45199.5
61057.5,45183.5
61046.9,45182.9
Z" /> 
<g >
</g>
<g >
</g>
<g >
</g>
<g >
</g>
<g >
</g>
<g >
</g>
<g style="fill:#008400; fill-opacity:1.0; 
stroke:#008400; stroke-width:3.93701; stroke-opacity:1; 
stroke-linecap:round; stroke-linejoin:round;">
</g>
<g style="fill:#008400; fill-opacity:1.0; 
stroke:#008400; stroke-width:0; stroke-opacity:1; 
stroke-linecap:round; stroke-linejoin:round;">
<path style="fill:#008400; fill-opacity:1.0; 
stroke:#008400; stroke-width:0; stroke-opacity:1; 
stroke-linecap:round; stroke-linejoin:round;fill-rule:evenodd;"
d="M 53905,41207.3
53913.3,41208.8
53921.4,41211.2
53929.3,41214.3
53936.8,41218.2
53943.9,41222.8
53950.5,41228.1
53956.5,41234
53961.9,41240.5
53966.7,41247.5
53970.8,41254.9
54046.3,41409.7
54049.6,41417.4
54052.2,41425.5
54053.9,41433.8
54054.9,41442.2
54055,41450.6
54054.2,41459
54052.7,41467.4
54050.3,41475.5
54047.2,41483.3
54043.3,41490.8
54038.7,41497.9
54033.4,41504.5
54027.5,41510.5
54021,41516
54014.1,41520.8
54006.6,41524.8
53825.3,41613.3
53817.5,41616.6
53809.5,41619.2
53801.2,41620.9
53792.8,41621.8
53784.4,41621.9
53775.9,41621.2
53767.6,41619.7
53759.5,41617.3
53751.7,41614.2
53744.2,41610.3
53737.1,41605.7
53730.5,41600.4
53724.4,41594.5
53719,41588
53714.2,41581
53710.1,41573.6
53634.6,41418.8
53631.3,41411.1
53628.8,41403
53627,41394.7
53626.1,41386.3
53626,41377.9
53626.7,41369.5
53628.3,41361.1
53630.6,41353
53633.7,41345.2
53637.6,41337.7
53642.3,41330.6
53647.5,41324
53653.4,41318
53659.9,41312.5
53666.9,41307.7
53674.3,41303.7
53855.6,41215.2
53863.4,41211.9
53871.5,41209.3
53879.7,41207.6
53888.1,41206.7
53896.6,41206.6
Z" /> 
<path style="fill:#008400; fill-opacity:1.0; 
stroke:#008400; stroke-width:0; stroke-opacity:1; 
stroke-linecap:round; stroke-linejoin:round;fill-rule:evenodd;"
d="M 54176.8,41764.6
54185.1,41766.2
54193.3,41768.5
54201.1,41771.7
54208.6,41775.5
54215.7,41780.2
54222.3,41785.4
54228.3,41791.3
54233.8,41797.8
54238.5,41804.8
54242.6,41812.2
54318.1,41967
54321.5,41974.8
54324,41982.8
54325.8,41991.1
54326.7,41999.5
54326.8,42007.9
54326.1,42016.4
54324.5,42024.7
54322.1,42032.8
54319,42040.6
54315.1,42048.1
54310.5,42055.2
54305.2,42061.8
54299.3,42067.9
54292.8,42073.3
54285.9,42078.1
54278.5,42082.2
54097.1,42170.6
54089.4,42173.9
54081.3,42176.5
54073,42178.2
54064.6,42179.2
54056.2,42179.3
54047.8,42178.5
54039.4,42177
54031.3,42174.6
54023.5,42171.5
54016,42167.6
54008.9,42163
54002.3,42157.7
53996.3,42151.8
53990.8,42145.3
53986,42138.4
53982,42131
53906.5,41976.1
53903.1,41968.4
53900.6,41960.3
53898.8,41952.1
53897.9,41943.7
53897.8,41935.2
53898.5,41926.8
53900.1,41918.5
53902.4,41910.4
53905.6,41902.5
53909.5,41895
53914.1,41887.9
53919.4,41881.3
53925.3,41875.3
53931.7,41869.8
53938.7,41865.1
53946.1,41861
54127.5,41772.5
54135.2,41769.2
54143.3,41766.7
54151.6,41764.9
54160,41764
54168.4,41763.9
Z" /> 
</g>
<g >
</g>
<g style="fill:#008400; fill-opacity:1.0; 
stroke:#008400; stroke-width:0; stroke-opacity:1; 
stroke-linecap:round; stroke-linejoin:round;">
<path style="fill:#008400; fill-opacity:1.0; 
stroke:#008400; stroke-width:0; stroke-opacity:1; 
stroke-linecap:round; stroke-linejoin:round;fill-rule:evenodd;"
d="M 53237.8,38041.3
53246.1,38042.7
53254.3,38045
53262.1,38048
53269.7,38051.8
53276.8,38056.3
53283.5,38061.5
53289.6,38067.4
53295.2,38073.8
53419.4,38232.8
53424.2,38239.7
53428.4,38247
53431.8,38254.7
53434.5,38262.8
53436.4,38271
53437.4,38279.4
53437.6,38287.8
53437,38296.3
53435.6,38304.6
53433.3,38312.8
53430.3,38320.6
53426.5,38328.2
53422,38335.3
53416.8,38342
53410.9,38348.1
53404.5,38353.6
53268.8,38459.7
53261.9,38464.6
53254.5,38468.7
53246.8,38472.2
53238.8,38474.8
53230.6,38476.7
53222.2,38477.7
53213.7,38477.9
53205.3,38477.3
53197,38475.9
53188.8,38473.6
53180.9,38470.6
53173.4,38466.8
53166.2,38462.3
53159.6,38457.1
53153.4,38451.2
53147.9,38444.8
53023.7,38285.9
53018.8,38278.9
53014.7,38271.6
53011.2,38263.9
53008.6,38255.8
53006.7,38247.6
53005.7,38239.2
53005.5,38230.8
53006.1,38222.3
53007.5,38214
53009.8,38205.9
53012.8,38198
53016.6,38190.4
53021.1,38183.3
53026.3,38176.6
53032.1,38170.5
53038.5,38165
53174.3,38058.9
53181.2,38054
53188.5,38049.9
53196.3,38046.5
53204.3,38043.8
53212.5,38041.9
53220.9,38040.9
53229.4,38040.7
Z" /> 
<path style="fill:#008400; fill-opacity:1.0; 
stroke:#008400; stroke-width:0; stroke-opacity:1; 
stroke-linecap:round; stroke-linejoin:round;fill-rule:evenodd;"
d="M 53726.4,37659.5
53734.7,37661
53742.9,37663.2
53750.8,37666.3
53758.3,37670.1
53765.5,37674.6
53772.1,37679.8
53778.3,37685.6
53783.8,37692
53908,37851
53912.9,37857.9
53917,37865.3
53920.5,37873
53923.1,37881
53925,37889.3
53926,37897.6
53926.2,37906.1
53925.6,37914.5
53924.2,37922.8
53921.9,37931
53918.9,37938.9
53915.1,37946.4
53910.6,37953.6
53905.4,37960.2
53899.6,37966.4
53893.2,37971.9
53757.4,38077.9
53750.5,38082.8
53743.2,38087
53735.4,38090.4
53727.4,38093.1
53719.2,38094.9
53710.8,38096
53702.3,38096.2
53693.9,38095.5
53685.6,38094.1
53677.4,38091.9
53669.6,38088.8
53662,38085
53654.9,38080.5
53648.2,38075.3
53642.1,38069.5
53636.5,38063.1
53512.3,37904.1
53507.5,37897.2
53503.3,37889.8
53499.9,37882.1
53497.2,37874.1
53495.3,37865.8
53494.3,37857.5
53494.1,37849
53494.7,37840.6
53496.1,37832.2
53498.4,37824.1
53501.4,37816.2
53505.2,37808.7
53509.7,37801.5
53514.9,37794.9
53520.8,37788.7
53527.2,37783.2
53662.9,37677.2
53669.8,37672.3
53677.2,37668.1
53684.9,37664.7
53692.9,37662
53701.1,37660.2
53709.5,37659.1
53718,37658.9
Z" /> 
</g>
<g >
</g>
<g style="fill:#008400; fill-opacity:1.0; 
stroke:#008400; stroke-width:0; stroke-opacity:1; 
stroke-linecap:round; stroke-linejoin:round;">
<path style="fill:#008400; fill-opacity:1.0; 
stroke:#008400; stroke-width:0; stroke-opacity:1; 
stroke-linecap:round; stroke-linejoin:round;fill-rule:evenodd;"
d="M 61484,41321.7
61492.4,41322.6
61500.7,41324.4
61508.7,41326.9
61516.5,41330.3
61697.8,41418.7
61705.3,41422.8
61712.2,41427.6
61718.7,41433
61724.6,41439
61729.9,41445.6
61734.5,41452.7
61738.4,41460.2
61741.5,41468.1
61743.9,41476.2
61745.4,41484.5
61746.2,41492.9
61746.1,41501.4
61745.1,41509.8
61743.4,41518
61740.8,41526.1
61737.5,41533.9
61662,41688.7
61657.9,41696.1
61653.1,41703.1
61647.7,41709.5
61641.7,41715.4
61635.1,41720.7
61628,41725.3
61620.5,41729.2
61612.6,41732.4
61604.5,41734.7
61596.2,41736.3
61587.8,41737
61579.3,41736.9
61570.9,41736
61562.7,41734.2
61554.6,41731.7
61546.8,41728.3
61365.5,41639.9
61358.1,41635.8
61351.1,41631
61344.6,41625.6
61338.7,41619.5
61333.5,41612.9
61328.8,41605.9
61324.9,41598.4
61321.8,41590.5
61319.5,41582.4
61317.9,41574.1
61317.2,41565.7
61317.3,41557.2
61318.2,41548.8
61320,41540.5
61322.5,41532.5
61325.8,41524.7
61401.3,41369.9
61405.4,41362.5
61410.2,41355.5
61415.6,41349.1
61421.7,41343.2
61428.3,41337.9
61435.4,41333.3
61442.9,41329.4
61450.7,41326.2
61458.8,41323.9
61467.1,41322.3
61475.6,41321.6
Z" /> 
<path style="fill:#008400; fill-opacity:1.0; 
stroke:#008400; stroke-width:0; stroke-opacity:1; 
stroke-linecap:round; stroke-linejoin:round;fill-rule:evenodd;"
d="M 61212.2,41879
61220.6,41880
61228.8,41881.7
61236.9,41884.2
61244.7,41887.6
61426,41976
61433.4,41980.1
61440.4,41984.9
61446.9,41990.3
61452.8,41996.4
61458.1,42003
61462.7,42010
61466.6,42017.5
61469.7,42025.4
61472.1,42033.5
61473.6,42041.8
61474.3,42050.2
61474.2,42058.7
61473.3,42067.1
61471.6,42075.4
61469,42083.4
61465.7,42091.2
61390.2,42246
61386.1,42253.4
61381.3,42260.4
61375.9,42266.8
61369.8,42272.7
61363.2,42278
61356.2,42282.6
61348.6,42286.5
61340.8,42289.7
61332.7,42292
61324.4,42293.6
61316,42294.3
61307.5,42294.2
61299.1,42293.3
61290.8,42291.5
61282.8,42289
61275,42285.7
61093.7,42197.2
61086.3,42193.1
61079.3,42188.3
61072.8,42182.9
61066.9,42176.9
61061.6,42170.3
61057,42163.2
61053.1,42155.7
61050,42147.8
61047.6,42139.7
61046.1,42131.4
61045.4,42123
61045.5,42114.5
61046.4,42106.1
61048.1,42097.9
61050.7,42089.8
61054,42082
61129.5,41927.2
61133.6,41919.8
61138.4,41912.9
61143.8,41906.4
61149.9,41900.5
61156.5,41895.2
61163.5,41890.6
61171,41886.7
61178.9,41883.6
61187,41881.2
61195.3,41879.6
61203.7,41878.9
Z" /> 
</g>
<g >
</g>
<g style="fill:#008400; fill-opacity:1.0; 
stroke:#008400; stroke-width:0; stroke-opacity:1; 
stroke-linecap:round; stroke-linejoin:round;">
<path style="fill:#008400; fill-opacity:1.0; 
stroke:#008400; stroke-width:0; stroke-opacity:1; 
stroke-linecap:round; stroke-linejoin:round;fill-rule:evenodd;"
d="M 62517.3,38168.3
62525.6,38169.7
62533.8,38171.9
62541.7,38175
62549.2,38178.7
62556.4,38183.2
62697.5,38282
62704.2,38287.2
62710.3,38293
62715.8,38299.4
62720.7,38306.3
62724.9,38313.7
62728.4,38321.4
62731,38329.4
62732.9,38337.6
62734,38346
62734.2,38354.5
62733.6,38362.9
62732.2,38371.2
62729.9,38379.4
62726.9,38387.3
62723.1,38394.8
62718.6,38402
62602.9,38567.3
62597.7,38573.9
62591.9,38580.1
62585.5,38585.6
62578.6,38590.5
62571.3,38594.7
62563.6,38598.1
62555.6,38600.8
62547.3,38602.7
62538.9,38603.7
62530.5,38604
62522.1,38603.4
62513.7,38601.9
62505.6,38599.7
62497.7,38596.7
62490.1,38592.9
62483,38588.4
62341.9,38489.6
62335.2,38484.4
62329.1,38478.6
62323.5,38472.2
62318.6,38465.3
62314.5,38458
62311,38450.3
62308.3,38442.3
62306.5,38434
62305.4,38425.6
62305.2,38417.2
62305.8,38408.8
62307.2,38400.4
62309.4,38392.3
62312.4,38384.4
62316.2,38376.8
62320.7,38369.7
62436.5,38204.4
62441.6,38197.7
62447.4,38191.6
62453.8,38186
62460.7,38181.2
62468.1,38177
62475.8,38173.5
62483.8,38170.8
62492,38169
62500.4,38167.9
62508.9,38167.7
Z" /> 
<path style="fill:#008400; fill-opacity:1.0; 
stroke:#008400; stroke-width:0; stroke-opacity:1; 
stroke-linecap:round; stroke-linejoin:round;fill-rule:evenodd;"
d="M 62009.4,37812.6
62017.7,37814
62025.9,37816.3
62033.8,37819.3
62041.3,37823.1
62048.5,37827.6
62189.6,37926.4
62196.2,37931.6
62202.4,37937.4
62207.9,37943.8
62212.8,37950.6
62217,37958
62220.4,37965.7
62223.1,37973.7
62225,37982
62226,37990.4
62226.3,37998.8
62225.7,38007.2
62224.2,38015.6
62222,38023.7
62219,38031.6
62215.2,38039.2
62210.7,38046.3
62095,38211.6
62089.8,38218.3
62084,38224.4
62077.6,38230
62070.7,38234.8
62063.4,38239
62055.6,38242.5
62047.6,38245.1
62039.4,38247
62031,38248.1
62022.5,38248.3
62014.1,38247.7
62005.8,38246.3
61997.6,38244.1
61989.7,38241
61982.2,38237.3
61975,38232.8
61833.9,38134
61827.3,38128.8
61821.1,38123
61815.6,38116.6
61810.7,38109.7
61806.5,38102.3
61803.1,38094.6
61800.4,38086.6
61798.5,38078.4
61797.5,38070
61797.2,38061.5
61797.8,38053.1
61799.3,38044.8
61801.5,38036.6
61804.5,38028.7
61808.3,38021.2
61812.8,38014
61928.5,37848.7
61933.7,37842.1
61939.5,37835.9
61945.9,37830.4
61952.8,37825.5
61960.1,37821.3
61967.9,37817.9
61975.9,37815.2
61984.1,37813.3
61992.5,37812.3
62000.9,37812
Z" /> 
</g>
<g >
</g>
<g style="fill:#008400; fill-opacity:1.0; 
stroke:#008400; stroke-width:0; stroke-opacity:1; 
stroke-linecap:round; stroke-linejoin:round;">
<path style="fill:#008400; fill-opacity:1.0; 
stroke:#008400; stroke-width:0; stroke-opacity:1; 
stroke-linecap:round; stroke-linejoin:round;fill-rule:evenodd;"
d="M 56480.3,45078.7
56874,45078.7
56874,46318.9
56480.3,46318.9
Z" /> 
<path style="fill:#008400; fill-opacity:1.0; 
stroke:#008400; stroke-width:0; stroke-opacity:1; 
stroke-linecap:round; stroke-linejoin:round;fill-rule:evenodd;"
d="M 56480.3,47066.9
56874,47066.9
56874,48307.1
56480.3,48307.1
Z" /> 
<path style="fill:#008400; fill-opacity:1.0; 
stroke:#008400; stroke-width:0; stroke-opacity:1; 
stroke-linecap:round; stroke-linejoin:round;fill-rule:evenodd;"
d="M 57480.3,45078.7
57874,45078.7
57874,46318.9
57480.3,46318.9
Z" /> 
<path style="fill:#008400; fill-opacity:1.0; 
stroke:#008400; stroke-width:0; stroke-opacity:1; 
stroke-linecap:round; stroke-linejoin:round;fill-rule:evenodd;"
d="M 57480.3,47066.9
57874,47066.9
57874,48307.1
57480.3,48307.1
Z" /> 
<path style="fill:#008400; fill-opacity:1.0; 
stroke:#008400; stroke-width:0; stroke-opacity:1; 
stroke-linecap:round; stroke-linejoin:round;fill-rule:evenodd;"
d="M 58480.3,45078.7
58874,45078.7
58874,46318.9
58480.3,46318.9
Z" /> 
<path style="fill:#008400; fill-opacity:1.0; 
stroke:#008400; stroke-width:0; stroke-opacity:1; 
stroke-linecap:round; stroke-linejoin:round;fill-rule:evenodd;"
d="M 58480.3,47066.9
58874,47066.9
58874,48307.1
58480.3,48307.1
Z" /> 
</g>
<g >
</g>
<g style="fill:#008400; fill-opacity:1.0; 
stroke:#008400; stroke-width:0; stroke-opacity:1; 
stroke-linecap:round; stroke-linejoin:round;">
<path style="fill:#008400; fill-opacity:1.0; 
stroke:#008400; stroke-width:0; stroke-opacity:1; 
stroke-linecap:round; stroke-linejoin:round;fill-rule:evenodd;"
d="M 55511.8,44547.2
55511.8,44744.1
55196.9,44744.1
55196.9,44547.2
Z" /> 
<path style="fill:#008400; fill-opacity:1.0; 
stroke:#008400; stroke-width:0; stroke-opacity:1; 
stroke-linecap:round; stroke-linejoin:round;fill-rule:evenodd;"
d="M 55511.8,45196.9
55511.8,45354.3
55196.9,45354.3
55196.9,45196.9
Z" /> 
<path style="fill:#008400; fill-opacity:1.0; 
stroke:#008400; stroke-width:0; stroke-opacity:1; 
stroke-linecap:round; stroke-linejoin:round;fill-rule:evenodd;"
d="M 55511.8,44881.9
55511.8,45039.4
55196.9,45039.4
55196.9,44881.9
Z" /> 
<path style="fill:#008400; fill-opacity:1.0; 
stroke:#008400; stroke-width:0; stroke-opacity:1; 
stroke-linecap:round; stroke-linejoin:round;fill-rule:evenodd;"
d="M 55511.8,45492.1
55511.8,45689
55196.9,45689
55196.9,45492.1
Z" /> 
<path style="fill:#008400; fill-opacity:1.0; 
stroke:#008400; stroke-width:0; stroke-opacity:1; 
stroke-linecap:round; stroke-linejoin:round;fill-rule:evenodd;"
d="M 54803.1,44881.9
54803.1,45039.4
54488.2,45039.4
54488.2,44881.9
Z" /> 
<path style="fill:#008400; fill-opacity:1.0; 
stroke:#008400; stroke-width:0; stroke-opacity:1; 
stroke-linecap:round; stroke-linejoin:round;fill-rule:evenodd;"
d="M 54803.1,44547.2
54803.1,44744.1
54488.2,44744.1
54488.2,44547.2
Z" /> 
<path style="fill:#008400; fill-opacity:1.0; 
stroke:#008400; stroke-width:0; stroke-opacity:1; 
stroke-linecap:round; stroke-linejoin:round;fill-rule:evenodd;"
d="M 54803.1,45196.9
54803.1,45354.3
54488.2,45354.3
54488.2,45196.9
Z" /> 
<path style="fill:#008400; fill-opacity:1.0; 
stroke:#008400; stroke-width:0; stroke-opacity:1; 
stroke-linecap:round; stroke-linejoin:round;fill-rule:evenodd;"
d="M 54803.1,45492.1
54803.1,45689
54488.2,45689
54488.2,45492.1
Z" /> 
</g>
<g >
</g>
<g style="fill:#C2C2C2; fill-opacity:1.0; 
stroke:#C2C2C2; stroke-width:0; stroke-opacity:1; 
stroke-linecap:round; stroke-linejoin:round;">
<circle cx="60874" cy="42559.1" r="118.11" /> 
</g>
<g style="fill:#C2C2C2; fill-opacity:1.0; 
stroke:#C2C2C2; stroke-width:39.3701; stroke-opacity:1; 
stroke-linecap:round; stroke-linejoin:round;">
</g>
<g style="fill:#C2C2C2; fill-opacity:1.0; 
stroke:#C2C2C2; stroke-width:0; stroke-opacity:1; 
stroke-linecap:round; stroke-linejoin:round;">
<circle cx="62527.6" cy="39815" r="118.11" /> 
</g>
<g style="fill:#C2C2C2; fill-opacity:1.0; 
stroke:#C2C2C2; stroke-width:39.3701; stroke-opacity:1; 
stroke-linecap:round; stroke-linejoin:round;">
</g>
<g style="fill:#C2C2C2; fill-opacity:1.0; 
stroke:#C2C2C2; stroke-width:0; stroke-opacity:1; 
stroke-linecap:round; stroke-linejoin:round;">
<circle cx="55818.9" cy="47090.6" r="118.11" /> 
</g>
<g style="fill:#C2C2C2; fill-opacity:1.0; 
stroke:#C2C2C2; stroke-width:39.3701; stroke-opacity:1; 
stroke-linecap:round; stroke-linejoin:round;">
</g>
<g style="fill:#C2C2C2; fill-opacity:1.0; 
stroke:#C2C2C2; stroke-width:0; stroke-opacity:1; 
stroke-linecap:round; stroke-linejoin:round;">
<circle cx="53547.2" cy="40696.9" r="118.11" /> 
</g>
<g style="fill:#C2C2C2; fill-opacity:1.0; 
stroke:#C2C2C2; stroke-width:39.3701; stroke-opacity:1; 
stroke-linecap:round; stroke-linejoin:round;">
</g>
<g style="fill:#C2C2C2; fill-opacity:1.0; 
stroke:#C2C2C2; stroke-width:0; stroke-opacity:1; 
stroke-linecap:round; stroke-linejoin:round;">
<circle cx="52311" cy="38086.6" r="118.11" /> 
</g>
<g style="fill:#C2C2C2; fill-opacity:1.0; 
stroke:#C2C2C2; stroke-width:39.3701; stroke-opacity:1; 
stroke-linecap:round; stroke-linejoin:round;">
</g>
<g >
</g>
<g style="fill:#008400; fill-opacity:1.0; 
stroke:#008400; stroke-width:39.3701; stroke-opacity:1; 
stroke-linecap:round; stroke-linejoin:round;">
</g>
<g style="fill:#008400; fill-opacity:1.0; 
stroke:#008400; stroke-width:98.4252; stroke-opacity:1; 
stroke-linecap:round; stroke-linejoin:round;">
</g>
<g style="fill:#008400; fill-opacity:0.0; 
stroke:#008400; stroke-width:98.4252; stroke-opacity:1; 
stroke-linecap:round; stroke-linejoin:round;">
<path d="M54842 46476
L54842 46464
" />
<path d="M54161 45546
L54161 45051
" />
<path d="M54842 46464
L54332 45954
" />
<path d="M54332 45954
L54161 45546
" />
<path d="M53549 37716
L53188 37716
" />
<path d="M53710 37877
L53549 37716
" />
<path d="M53188 37716
L53149 37677
" />
<path d="M55354 43976
L55354 44606
" />
<path d="M54112 41971
L54527 42598
" />
<path d="M54527 42598
L55354 43976
" />
<path d="M55068 44846
L55183 44960
" />
<path d="M52755 38724
L53031 40866
" />
<path d="M55183 44960
L55314 44960
" />
<path d="M53221 38259
L52755 38724
" />
<path d="M53031 40866
L53740 42204
" />
<path d="M53740 42204
L55068 44124
" />
<path d="M55068 44124
L55068 44846
" />
<path d="M55610 45275
L56314 44570
" />
<path d="M56314 44570
L59562 44570
" />
<path d="M55354 45275
L55610 45275
" />
<path d="M61732 41692
L61614 41574
" />
<path d="M59562 44570
L61732 42401
" />
<path d="M61732 42401
L61732 41692
" />
<path d="M62244 37795
L62047 37992
" />
<path d="M61889 42543
L62062 42232
" />
<path d="M62062 42232
L62846 40603
" />
<path d="M59657 44775
L61889 42543
" />
<path d="M56425 44775
L59657 44775
" />
<path d="M55354 45590
L55610 45590
" />
<path d="M55610 45590
L56425 44775
" />
<path d="M62846 40603
L63165 39795
" />
<path d="M62858 37795
L62244 37795
" />
<path d="M63165 39795
L63271 39353
" />
<path d="M63271 39353
L63271 38208
" />
<path d="M63271 38208
L62858 37795
" />
<path d="M54645 44645
L54645 45511
" />
<path d="M54645 45511
L55275 46141
" />
<path d="M55275 46141
L56692 46141
" />
</g>
<g >
</g>
<g style="fill:#008400; fill-opacity:0.0; 
stroke:#008400; stroke-width:98.4252; stroke-opacity:1; 
stroke-linecap:round; stroke-linejoin:round;">
</g>
<g style="fill:#008400; fill-opacity:1.0; 
stroke:#008400; stroke-width:100; stroke-opacity:1; 
stroke-linecap:round; stroke-linejoin:round;">
<path style="fill:#008400; fill-opacity:1.0; 
stroke:#008400; stroke-width:100; stroke-opacity:1; 
stroke-linecap:round; stroke-linejoin:round;fill-rule:evenodd;"
d="M 57229.1,45078.7
57229.1,46318.9
57233.9,46367.9
57248.2,46415
57271.4,46458.5
57302.7,46496.5
57340.8,46527.8
57384.2,46551
57431.3,46565.3
57480.3,46570.1
57874,46570.1
57923,46565.3
57970.1,46551
58013.6,46527.8
58051.6,46496.5
58082.9,46458.5
58106.1,46415
58120.4,46367.9
58125.2,46318.9
58125.2,45078.7
58124.8,45074.8
58229.5,45074.8
58229.1,45078.7
58229.1,46318.9
58233.9,46367.9
58248.2,46415
58271.4,46458.5
58302.7,46496.5
58340.8,46527.8
58384.2,46551
58431.3,46565.3
58480.3,46570.1
58874,46570.1
58923,46565.3
58970.1,46551
59013.6,46527.8
59051.6,46496.5
59082.9,46458.5
59106.1,46415
59120.4,46367.9
59125.2,46318.9
59125.2,45422.4
59129.9,45433.4
59138.9,45455.1
59139.9,45457
59139.9,45457.1
59140,45457.1
59140.6,45458.2
59153.5,45481.7
59160.1,45491.3
59165.8,45501.6
59174,45511.5
59181.4,45522.2
59189.7,45530.4
59197.2,45539.3
59207.3,45547.5
59216.6,45556.5
59226.4,45562.9
59235.5,45570.3
59238.4,45572.2
59278.7,45598
59295.5,45606.5
59311.9,45615.8
59315.1,45617.2
59385.2,45647.3
59389,45648.5
59392.5,45650.3
59395.8,45651.6
59413.8,45658.4
59454.4,45674.2
59462.5,45699.9
59484.3,45775.3
59490.3,45797.5
59490.4,45797.6
59490.4,45797.7
59491.3,45801.1
59534.8,45951.4
59536.7,45956
59537.8,45960.8
59538.9,45964.1
59580.7,46084.2
59584.5,46092.6
59587.4,46101.4
59588.8,46104.7
59630.5,46197.4
59638.5,46211.3
59645.5,46225.8
59647.3,46228.8
59690.5,46297.1
59691.1,46297.8
59691.6,46298.7
59706.2,46317.2
59720.7,46335.9
59721.5,46336.5
59722.1,46337.3
59724.5,46339.8
59770.9,46386.5
59778.4,46392.8
59785.2,46399.9
59797.3,46408.4
59808.7,46417.9
59817.3,46422.6
59825.3,46428.2
59828.4,46429.9
59879.5,46458
59901.6,46467.5
59923.7,46477.1
59924.7,46477.4
59924.7,46477.4
59924.8,46477.4
59927.1,46478.1
59947.4,46484.4
59956.3,46486.2
59964.9,46489.1
59980.3,46491
59995.6,46494.1
60004.7,46494.2
60013.7,46495.3
60017.2,46495.4
60085.6,46496.5
60104.9,46494.9
60124.3,46494.1
60129.4,46492.9
60134.6,46492.5
60153.2,46487.2
60172.1,46482.7
60175.4,46481.5
60247.8,46455.3
60256.6,46451.1
60265.8,46448
60278.7,46440.5
60292.1,46434.1
60300,46428.3
60308.4,46423.4
60311.3,46421.4
60311.5,46421.2
60320.7,46428
60322.3,46428.8
60323.6,46429.8
60326.7,46431.5
60398.9,46472
60405,46474.7
60410.7,46478.2
60427.5,46484.6
60443.9,46491.8
60450.4,46493.2
60456.7,46495.6
60460.1,46496.5
60543.9,46517.8
60559.7,46520.2
60575.3,46523.6
60578.8,46524
60623.9,46528.9
60630.7,46529
60637.4,46530
60640.9,46530.2
60702.9,46532.7
60724,46531.5
60745,46530.8
60746.6,46530.6
60726.7,46575.5
59125.2,47929.7
59125.2,47066.9
59120.4,47017.9
59106.1,46970.8
59082.9,46927.4
59051.6,46889.3
59013.6,46858.1
58970.1,46834.8
58923,46820.5
58874,46815.7
58480.3,46815.7
58431.3,46820.5
58384.2,46834.8
58340.8,46858.1
58302.7,46889.3
58271.4,46927.4
58248.2,46970.8
58233.9,47017.9
58229.1,47066.9
58229.1,48307.1
58233.9,48356.1
58248.2,48403.2
58271.4,48446.7
58302.7,48484.7
58340.8,48516
58384.2,48539.2
58399.1,48543.7
57688.7,49144.5
56978.7,48534.6
57013.6,48516
57051.6,48484.7
57082.9,48446.7
57106.1,48403.2
57120.4,48356.1
57125.2,48307.1
57124,47799.5
57061.5,47737
56727.2,47737
56727.2,47744.9
56627.2,47744.9
56627.2,47737
56292.8,47737
56230.3,47799.5
56230.1,47891.7
55269.8,47066.9
56229.1,47066.9
56230.3,47574.5
56292.8,47637
56627.2,47637
56627.2,46879.4
56727.2,46879.4
56727.2,47637
57061.5,47637
57124,47574.5
57125.2,47066.9
57229.1,47066.9
57229.1,48307.1
57233.9,48356.1
57248.2,48403.2
57271.4,48446.7
57302.7,48484.7
57340.8,48516
57384.2,48539.2
57431.3,48553.5
57480.3,48558.3
57874,48558.3
57923,48553.5
57970.1,48539.2
58013.6,48516
58051.6,48484.7
58082.9,48446.7
58106.1,48403.2
58120.4,48356.1
58125.2,48307.1
58125.2,47066.9
58120.4,47017.9
58106.1,46970.8
58082.9,46927.4
58051.6,46889.3
58013.6,46858.1
57970.1,46834.8
57923,46820.5
57874,46815.7
57480.3,46815.7
57431.3,46820.5
57384.2,46834.8
57340.8,46858.1
57302.7,46889.3
57271.4,46927.4
57248.2,46970.8
57233.9,47017.9
57229.1,47066.9
57125.2,47066.9
57120.4,47017.9
57106.1,46970.8
57082.9,46927.4
57051.6,46889.3
57013.6,46858.1
56970.1,46834.8
56923,46820.5
56874,46815.7
56789.7,46816.9
56727.2,46879.4
56627.2,46879.4
56564.7,46816.9
56480.3,46815.7
56431.3,46820.5
56384.2,46834.8
56340.8,46858.1
56302.7,46889.3
56271.4,46927.4
56248.2,46970.8
56233.9,47017.9
56229.1,47066.9
55269.8,47066.9
54739.1,46611.1
54457.2,45937.1
54488.2,45940.2
54650.9,45940.2
55053.6,46342.9
55063,46354.3
55108.6,46391.7
55160.5,46419.5
55216.9,46436.6
55260.9,46440.9
55260.9,46440.9
55275.6,46442.4
55290.3,46440.9
56262.1,46440.9
56271.4,46458.5
56302.7,46496.5
56340.8,46527.8
56384.2,46551
56431.3,46565.3
56480.3,46570.1
56874,46570.1
56923,46565.3
56970.1,46551
57013.6,46527.8
57051.6,46496.5
57082.9,46458.5
57106.1,46415
57120.4,46367.9
57125.2,46318.9
57125.2,45078.7
57124.8,45074.8
57229.5,45074.8
Z" /> 
<path style="fill:#008400; fill-opacity:1.0; 
stroke:#008400; stroke-width:100; stroke-opacity:1; 
stroke-linecap:round; stroke-linejoin:round;fill-rule:evenodd;"
d="M 53433.4,37604.5
53440.2,37613.2
53352.5,37602.4
53304.6,37638.3
53269,37672.2
53240.7,37712.5
53220.7,37757.6
53213.3,37790.6
53202.3,37790.4
53137.1,37801.7
53075.5,37825.6
53019.6,37861
52883.9,37967
52836,38012.6
52798,38066.7
52771.2,38127.2
52756.7,38191.7
52755.2,38257.8
52761.8,38295.9
52562,38495.7
52558.3,38498.3
52541.2,38516.5
52533.9,38523.8
52531.1,38527.2
52517.9,38541.2
52512.4,38549.9
52505.9,38557.9
52496.8,38574.9
52486.6,38591.2
52483,38600.8
52478.1,38609.9
52472.5,38628.3
52465.7,38646.3
52464,38656.4
52461,38666.3
52459.1,38685.4
52455.9,38704.4
52456.3,38714.7
52455.2,38724.9
52457.1,38744.1
52457.3,38748.6
52458.6,38758.7
52461,38783.6
52462.3,38787.9
52732.2,40884.7
52732.2,40894.4
52736,40913.9
52736.6,40918.9
52738.8,40928.3
52743.4,40952.3
52745.4,40957
52746.5,40962
52756.5,40984.2
52760.2,40993.1
52762.5,40997.6
52770.7,41015.7
52776.3,41023.6
53463.4,42321.4
53464.3,42324.3
53477.1,42347.4
53482.6,42357.7
53484.3,42360.3
53485.8,42363
53492.4,42372.5
53507,42394.5
53509.2,42396.7
54769.7,44217.5
54769.7,44296
54488.2,44296
54439.2,44300.9
54392.1,44315.2
54348.6,44338.4
54310.6,44369.6
54279.3,44407.7
54256.1,44451.1
54241.8,44498.2
54237,44547.2
54237,44744.1
54241.8,44793.1
54247.8,44813
54241.8,44832.9
54237,44881.9
54237,45039.4
54241.8,45088.4
54250.8,45118.1
54241.8,45147.8
54237,45196.9
54237,45354.3
54241.8,45403.3
54247.8,45423.2
54245.5,45430.9
50910,37455.7
Z" /> 
<path style="fill:#008400; fill-opacity:1.0; 
stroke:#008400; stroke-width:100; stroke-opacity:1; 
stroke-linecap:round; stroke-linejoin:round;fill-rule:evenodd;"
d="M 61330.2,42056.5
61326.7,42063.6
61333.8,42067
61289.9,42156.9
61282.9,42153.5
61147.1,42431.9
61175.9,42515.4
61188.7,42522
60114.3,43596.4
60827.2,42324.7
60828.1,42325.9
60864.2,42359.4
60906.1,42385.2
60973.6,42416.8
61057.2,42388
61193,42109.6
61185.9,42106.2
61229.7,42016.3
61236.8,42019.8
61240.3,42012.7
Z" /> 
<path style="fill:#008400; fill-opacity:1.0; 
stroke:#008400; stroke-width:100; stroke-opacity:1; 
stroke-linecap:round; stroke-linejoin:round;fill-rule:evenodd;"
d="M 62593.8,38367.1
62589.3,38373.5
62843,38551.2
62930.1,38535.9
62972.4,38477.4
62972.4,39317.8
62879.3,39705
62572.1,40483.9
62023.9,41623.4
62010.1,41577.9
61992.3,41544.7
61996.8,41516.7
61994.3,41450.6
61979,41386.3
61951.5,41326.2
61912.7,41272.6
61864.3,41227.6
61808,41192.9
61626.6,41104.5
61564.6,41081.4
61527.5,41075.5
62787.7,38827.6
62791.6,38818.6
62793.7,38809
62793.9,38799.2
62792.2,38789.6
62788.7,38780.5
62783.4,38772.2
62774.8,38763.7
62772.7,38762.1
62801,38720.2
62785.7,38633.1
62532,38455.5
62527.4,38461.9
62445.5,38404.6
62450,38398.1
62443.6,38393.6
62501,38311.7
62507.4,38316.2
62511.9,38309.7
Z" /> 
<path style="fill:#008400; fill-opacity:1.0; 
stroke:#008400; stroke-width:100; stroke-opacity:1; 
stroke-linecap:round; stroke-linejoin:round;fill-rule:evenodd;"
d="M 53819.2,40953.5
53756.5,40985.4
53727.7,41069
53863.5,41347.4
53870.6,41343.9
53914.4,41433.8
53907.3,41437.3
53910.8,41444.4
53820.9,41488.2
53817.4,41481.1
53810.4,41484.6
53766.5,41394.7
53773.6,41391.2
53637.8,41112.8
53554.3,41084.1
53499.1,41109.9
53321.3,40774.1
53187.3,39733
Z" /> 
<path style="fill:#008400; fill-opacity:1.0; 
stroke:#008400; stroke-width:100; stroke-opacity:1; 
stroke-linecap:round; stroke-linejoin:round;fill-rule:evenodd;"
d="M 53718.8,37807.4
53725,37802.5
53786.6,37881.3
53780.3,37886.2
53785.2,37892.4
53706.4,37953.9
53701.5,37947.7
53695.3,37952.6
53633.8,37873.8
53640,37868.9
53635.1,37862.7
53713.9,37801.2
Z" /> 
</g>
</g>
<g style="fill:#FFFFFF; fill-opacity:1.0; 
stroke:#FFFFFF; stroke-width:100; stroke-opacity:1; 
stroke-linecap:round; stroke-linejoin:round;">
</g>
<g style="fill:#FFFFFF; fill-opacity:1.0; 
stroke:#FFFFFF; stroke-width:0; stroke-opacity:1; 
stroke-linecap:round; stroke-linejoin:round;">
<circle cx="60874" cy="42559.1" r="78.7402" /> 
</g>
<g style="fill:#FFFFFF; fill-opacity:1.0; 
stroke:#FFFFFF; stroke-width:39.3701; stroke-opacity:1; 
stroke-linecap:round; stroke-linejoin:round;">
</g>
<g style="fill:#FFFFFF; fill-opacity:1.0; 
stroke:#FFFFFF; stroke-width:0; stroke-opacity:1; 
stroke-linecap:round; stroke-linejoin:round;">
<circle cx="62527.6" cy="39815" r="78.7402" /> 
</g>
<g style="fill:#FFFFFF; fill-opacity:1.0; 
stroke:#FFFFFF; stroke-width:39.3701; stroke-opacity:1; 
stroke-linecap:round; stroke-linejoin:round;">
</g>
<g style="fill:#FFFFFF; fill-opacity:1.0; 
stroke:#FFFFFF; stroke-width:0; stroke-opacity:1; 
stroke-linecap:round; stroke-linejoin:round;">
<circle cx="55818.9" cy="47090.6" r="78.7402" /> 
</g>
<g style="fill:#FFFFFF; fill-opacity:1.0; 
stroke:#FFFFFF; stroke-width:39.3701; stroke-opacity:1; 
stroke-linecap:round; stroke-linejoin:round;">
</g>
<g style="fill:#FFFFFF; fill-opacity:1.0; 
stroke:#FFFFFF; stroke-width:0; stroke-opacity:1; 
stroke-linecap:round; stroke-linejoin:round;">
<circle cx="53547.2" cy="40696.9" r="78.7402" /> 
</g>
<g style="fill:#FFFFFF; fill-opacity:1.0; 
stroke:#FFFFFF; stroke-width:39.3701; stroke-opacity:1; 
stroke-linecap:round; stroke-linejoin:round;">
</g>
<g style="fill:#FFFFFF; fill-opacity:1.0; 
stroke:#FFFFFF; stroke-width:0; stroke-opacity:1; 
stroke-linecap:round; stroke-linejoin:round;">
<circle cx="52311" cy="38086.6" r="78.7402" /> 
</g>
<g style="fill:#FFFFFF; fill-opacity:1.0; 
stroke:#FFFFFF; stroke-width:39.3701; stroke-opacity:1; 
stroke-linecap:round; stroke-linejoin:round;">
</g>
<g style="fill:#000000; fill-opacity:1.0; 
stroke:#000000; stroke-width:39.3701; stroke-opacity:1; 
stroke-linecap:round; stroke-linejoin:round;">
</g>
<g style="fill:#C2C200; fill-opacity:1.0; 
stroke:#C2C200; stroke-width:39.3701; stroke-opacity:1; 
stroke-linecap:round; stroke-linejoin:round;">
</g>
<g style="fill:#C2C200; fill-opacity:0.0; 
stroke:#C2C200; stroke-width:39.3701; stroke-opacity:1; 
stroke-linecap:round; stroke-linejoin:round;">
<path d="M50494 37161
L54514 46774
" />
<path d="M54514 46774
L57687 49498
" />
<path d="M57687 49498
L60948 46741
" />
<path d="M60948 46741
L65261 37008
" />
<path d="M65261 37008
L60787 37355
" />
<path d="M60787 37355
L57885 35086
" />
<path d="M57885 35086
L54826 37416
" />
<path d="M54826 37416
L50494 37161
" />
<path d="M50494 37161
L50494 37161
" />
<g >
</g>
<g >
</g>
<g >
</g>
<g >
</g>
<g >
</g>
<g >
</g>
<g >
</g>
<g >
</g>
<g >
</g>
<g >
</g>
<g >
</g>
<g >
</g>
</g> 
</svg>
