<?xml version="1.0" standalone="no"?>
 <!DOCTYPE svg PUBLIC "-//W3C//DTD SVG 1.1//EN" 
 "http://www.w3.org/Graphics/SVG/1.1/DTD/svg11.dtd"> 
<svg xmlns="http://www.w3.org/2000/svg" version="1.1" 
    width="29.7002cm" height="21.0007cm" viewBox="0 0 116930 82680 ">
<title>SVG Picture created as Master_Sword_(Ocarina_of_Time)-B_SilkS.svg date 2020/06/15 20:50:16 </title>
  <desc>Picture generated by PCBNEW </desc>
<g style="fill:#000000; fill-opacity:1;stroke:#000000; stroke-opacity:1;
stroke-linecap:round; stroke-linejoin:round; "
 transform="translate(0 0) scale(1 1)">
</g>
<g style="fill:#000000; fill-opacity:0.0; 
stroke:#000000; stroke-width:-0.000393701; stroke-opacity:1; 
stroke-linecap:round; stroke-linejoin:round;">
</g>
<g style="fill:#000000; fill-opacity:0.0; 
stroke:#000000; stroke-width:39.3701; stroke-opacity:1; 
stroke-linecap:round; stroke-linejoin:round;">
</g>
<g style="fill:#000000; fill-opacity:0.0; 
stroke:#000000; stroke-width:59.0551; stroke-opacity:1; 
stroke-linecap:round; stroke-linejoin:round;">
<rect x="69685.9" y="65357.2" width="42519.7" height="12598.4" rx="0" />
</g>
<g style="fill:#000000; fill-opacity:0.0; 
stroke:#000000; stroke-width:39.3701; stroke-opacity:1; 
stroke-linecap:round; stroke-linejoin:round;">
</g>
<g style="fill:#000000; fill-opacity:0.0; 
stroke:#000000; stroke-width:59.0551; stroke-opacity:1; 
stroke-linecap:round; stroke-linejoin:round;">
<rect x="3937.01" y="3937.01" width="109056" height="74806" rx="0" />
</g>
<g style="fill:#000000; fill-opacity:0.0; 
stroke:#000000; stroke-width:39.3701; stroke-opacity:1; 
stroke-linecap:round; stroke-linejoin:round;">
</g>
<g style="fill:#000000; fill-opacity:0.0; 
stroke:#000000; stroke-width:59.0551; stroke-opacity:1; 
stroke-linecap:round; stroke-linejoin:round;">
<rect x="4724.41" y="4724.41" width="107481" height="73231.2" rx="0" />
</g>
<g style="fill:#000000; fill-opacity:0.0; 
stroke:#000000; stroke-width:39.3701; stroke-opacity:1; 
stroke-linecap:round; stroke-linejoin:round;">
</g>
<g style="fill:#000000; fill-opacity:0.0; 
stroke:#000000; stroke-width:59.0551; stroke-opacity:1; 
stroke-linecap:round; stroke-linejoin:round;">
<path d="M23622 4724
L23622 3937
" />
</g>
<g style="fill:#000000; fill-opacity:0.0; 
stroke:#000000; stroke-width:39.3701; stroke-opacity:1; 
stroke-linecap:round; stroke-linejoin:round;">
</g>
<g style="fill:#000000; fill-opacity:0.0; 
stroke:#000000; stroke-width:59.0551; stroke-opacity:1; 
stroke-linecap:round; stroke-linejoin:round;">
<path d="M43307 4724
L43307 3937
" />
</g>
<g style="fill:#000000; fill-opacity:0.0; 
stroke:#000000; stroke-width:39.3701; stroke-opacity:1; 
stroke-linecap:round; stroke-linejoin:round;">
</g>
<g style="fill:#000000; fill-opacity:0.0; 
stroke:#000000; stroke-width:59.0551; stroke-opacity:1; 
stroke-linecap:round; stroke-linejoin:round;">
<path d="M62992 4724
L62992 3937
" />
</g>
<g style="fill:#000000; fill-opacity:0.0; 
stroke:#000000; stroke-width:39.3701; stroke-opacity:1; 
stroke-linecap:round; stroke-linejoin:round;">
</g>
<g style="fill:#000000; fill-opacity:0.0; 
stroke:#000000; stroke-width:59.0551; stroke-opacity:1; 
stroke-linecap:round; stroke-linejoin:round;">
<path d="M82677 4724
L82677 3937
" />
</g>
<g style="fill:#000000; fill-opacity:0.0; 
stroke:#000000; stroke-width:39.3701; stroke-opacity:1; 
stroke-linecap:round; stroke-linejoin:round;">
</g>
<g style="fill:#000000; fill-opacity:0.0; 
stroke:#000000; stroke-width:59.0551; stroke-opacity:1; 
stroke-linecap:round; stroke-linejoin:round;">
<path d="M102362 4724
L102362 3937
" />
</g>
<g style="fill:#000000; fill-opacity:0.0; 
stroke:#000000; stroke-width:39.3701; stroke-opacity:1; 
stroke-linecap:round; stroke-linejoin:round;">
</g>
<g style="fill:#000000; fill-opacity:0.0; 
stroke:#000000; stroke-width:59.0551; stroke-opacity:1; 
stroke-linecap:round; stroke-linejoin:round;">
<text x="13779.5" y="4586.61"
textLength="546.494" font-size="682.415" lengthAdjust="spacingAndGlyphs"
text-anchor="start" opacity="0">1</text>
<path d="M14199 4562
L13906 4562
" />
<path d="M14052 4562
L14052 4050
L14004 4123
L13955 4172
L13906 4196
" />
</g>
<g style="fill:#000000; fill-opacity:0.0; 
stroke:#000000; stroke-width:39.3701; stroke-opacity:1; 
stroke-linecap:round; stroke-linejoin:round;">
</g>
<g style="fill:#000000; fill-opacity:0.0; 
stroke:#000000; stroke-width:59.0551; stroke-opacity:1; 
stroke-linecap:round; stroke-linejoin:round;">
<text x="33464.6" y="4586.61"
textLength="546.494" font-size="682.415" lengthAdjust="spacingAndGlyphs"
text-anchor="start" opacity="0">2</text>
<path d="M33591 4099
L33615 4074
L33664 4050
L33786 4050
L33835 4074
L33859 4099
L33884 4147
L33884 4196
L33859 4269
L33567 4562
L33884 4562
" />
</g>
<g style="fill:#000000; fill-opacity:0.0; 
stroke:#000000; stroke-width:39.3701; stroke-opacity:1; 
stroke-linecap:round; stroke-linejoin:round;">
</g>
<g style="fill:#000000; fill-opacity:0.0; 
stroke:#000000; stroke-width:59.0551; stroke-opacity:1; 
stroke-linecap:round; stroke-linejoin:round;">
<text x="53149.6" y="4586.61"
textLength="546.494" font-size="682.415" lengthAdjust="spacingAndGlyphs"
text-anchor="start" opacity="0">3</text>
<path d="M53252 4050
L53569 4050
L53398 4245
L53471 4245
L53520 4269
L53544 4294
L53569 4342
L53569 4464
L53544 4513
L53520 4537
L53471 4562
L53325 4562
L53276 4537
L53252 4513
" />
</g>
<g style="fill:#000000; fill-opacity:0.0; 
stroke:#000000; stroke-width:39.3701; stroke-opacity:1; 
stroke-linecap:round; stroke-linejoin:round;">
</g>
<g style="fill:#000000; fill-opacity:0.0; 
stroke:#000000; stroke-width:59.0551; stroke-opacity:1; 
stroke-linecap:round; stroke-linejoin:round;">
<text x="72834.6" y="4586.61"
textLength="546.494" font-size="682.415" lengthAdjust="spacingAndGlyphs"
text-anchor="start" opacity="0">4</text>
<path d="M73205 4221
L73205 4562
" />
<path d="M73083 4026
L72961 4391
L73278 4391
" />
</g>
<g style="fill:#000000; fill-opacity:0.0; 
stroke:#000000; stroke-width:39.3701; stroke-opacity:1; 
stroke-linecap:round; stroke-linejoin:round;">
</g>
<g style="fill:#000000; fill-opacity:0.0; 
stroke:#000000; stroke-width:59.0551; stroke-opacity:1; 
stroke-linecap:round; stroke-linejoin:round;">
<text x="92519.7" y="4586.61"
textLength="546.494" font-size="682.415" lengthAdjust="spacingAndGlyphs"
text-anchor="start" opacity="0">5</text>
<path d="M92914 4050
L92671 4050
L92646 4294
L92671 4269
L92719 4245
L92841 4245
L92890 4269
L92914 4294
L92939 4342
L92939 4464
L92914 4513
L92890 4537
L92841 4562
L92719 4562
L92671 4537
L92646 4513
" />
</g>
<g style="fill:#000000; fill-opacity:0.0; 
stroke:#000000; stroke-width:39.3701; stroke-opacity:1; 
stroke-linecap:round; stroke-linejoin:round;">
</g>
<g style="fill:#000000; fill-opacity:0.0; 
stroke:#000000; stroke-width:59.0551; stroke-opacity:1; 
stroke-linecap:round; stroke-linejoin:round;">
<text x="112205" y="4586.61"
textLength="546.494" font-size="682.415" lengthAdjust="spacingAndGlyphs"
text-anchor="start" opacity="0">6</text>
<path d="M112575 4050
L112477 4050
L112429 4074
L112404 4099
L112356 4172
L112331 4269
L112331 4464
L112356 4513
L112380 4537
L112429 4562
L112526 4562
L112575 4537
L112599 4513
L112624 4464
L112624 4342
L112599 4294
L112575 4269
L112526 4245
L112429 4245
L112380 4269
L112356 4294
L112331 4342
" />
</g>
<g style="fill:#000000; fill-opacity:0.0; 
stroke:#000000; stroke-width:39.3701; stroke-opacity:1; 
stroke-linecap:round; stroke-linejoin:round;">
</g>
<g style="fill:#000000; fill-opacity:0.0; 
stroke:#000000; stroke-width:59.0551; stroke-opacity:1; 
stroke-linecap:round; stroke-linejoin:round;">
<path d="M23622 77955
L23622 78742
" />
</g>
<g style="fill:#000000; fill-opacity:0.0; 
stroke:#000000; stroke-width:39.3701; stroke-opacity:1; 
stroke-linecap:round; stroke-linejoin:round;">
</g>
<g style="fill:#000000; fill-opacity:0.0; 
stroke:#000000; stroke-width:59.0551; stroke-opacity:1; 
stroke-linecap:round; stroke-linejoin:round;">
<path d="M43307 77955
L43307 78742
" />
</g>
<g style="fill:#000000; fill-opacity:0.0; 
stroke:#000000; stroke-width:39.3701; stroke-opacity:1; 
stroke-linecap:round; stroke-linejoin:round;">
</g>
<g style="fill:#000000; fill-opacity:0.0; 
stroke:#000000; stroke-width:59.0551; stroke-opacity:1; 
stroke-linecap:round; stroke-linejoin:round;">
<path d="M62992 77955
L62992 78742
" />
</g>
<g style="fill:#000000; fill-opacity:0.0; 
stroke:#000000; stroke-width:39.3701; stroke-opacity:1; 
stroke-linecap:round; stroke-linejoin:round;">
</g>
<g style="fill:#000000; fill-opacity:0.0; 
stroke:#000000; stroke-width:59.0551; stroke-opacity:1; 
stroke-linecap:round; stroke-linejoin:round;">
<path d="M82677 77955
L82677 78742
" />
</g>
<g style="fill:#000000; fill-opacity:0.0; 
stroke:#000000; stroke-width:39.3701; stroke-opacity:1; 
stroke-linecap:round; stroke-linejoin:round;">
</g>
<g style="fill:#000000; fill-opacity:0.0; 
stroke:#000000; stroke-width:59.0551; stroke-opacity:1; 
stroke-linecap:round; stroke-linejoin:round;">
<path d="M102362 77955
L102362 78742
" />
</g>
<g style="fill:#000000; fill-opacity:0.0; 
stroke:#000000; stroke-width:39.3701; stroke-opacity:1; 
stroke-linecap:round; stroke-linejoin:round;">
</g>
<g style="fill:#000000; fill-opacity:0.0; 
stroke:#000000; stroke-width:59.0551; stroke-opacity:1; 
stroke-linecap:round; stroke-linejoin:round;">
<text x="13779.5" y="78605.2"
textLength="546.494" font-size="682.415" lengthAdjust="spacingAndGlyphs"
text-anchor="start" opacity="0">1</text>
<path d="M14199 78580
L13906 78580
" />
<path d="M14052 78580
L14052 78069
L14004 78142
L13955 78190
L13906 78215
" />
</g>
<g style="fill:#000000; fill-opacity:0.0; 
stroke:#000000; stroke-width:39.3701; stroke-opacity:1; 
stroke-linecap:round; stroke-linejoin:round;">
</g>
<g style="fill:#000000; fill-opacity:0.0; 
stroke:#000000; stroke-width:59.0551; stroke-opacity:1; 
stroke-linecap:round; stroke-linejoin:round;">
<text x="33464.6" y="78605.2"
textLength="546.494" font-size="682.415" lengthAdjust="spacingAndGlyphs"
text-anchor="start" opacity="0">2</text>
<path d="M33591 78117
L33615 78093
L33664 78069
L33786 78069
L33835 78093
L33859 78117
L33884 78166
L33884 78215
L33859 78288
L33567 78580
L33884 78580
" />
</g>
<g style="fill:#000000; fill-opacity:0.0; 
stroke:#000000; stroke-width:39.3701; stroke-opacity:1; 
stroke-linecap:round; stroke-linejoin:round;">
</g>
<g style="fill:#000000; fill-opacity:0.0; 
stroke:#000000; stroke-width:59.0551; stroke-opacity:1; 
stroke-linecap:round; stroke-linejoin:round;">
<text x="53149.6" y="78605.2"
textLength="546.494" font-size="682.415" lengthAdjust="spacingAndGlyphs"
text-anchor="start" opacity="0">3</text>
<path d="M53252 78069
L53569 78069
L53398 78263
L53471 78263
L53520 78288
L53544 78312
L53569 78361
L53569 78483
L53544 78532
L53520 78556
L53471 78580
L53325 78580
L53276 78556
L53252 78532
" />
</g>
<g style="fill:#000000; fill-opacity:0.0; 
stroke:#000000; stroke-width:39.3701; stroke-opacity:1; 
stroke-linecap:round; stroke-linejoin:round;">
</g>
<g style="fill:#000000; fill-opacity:0.0; 
stroke:#000000; stroke-width:59.0551; stroke-opacity:1; 
stroke-linecap:round; stroke-linejoin:round;">
<text x="72834.6" y="78605.2"
textLength="546.494" font-size="682.415" lengthAdjust="spacingAndGlyphs"
text-anchor="start" opacity="0">4</text>
<path d="M73205 78239
L73205 78580
" />
<path d="M73083 78044
L72961 78410
L73278 78410
" />
</g>
<g style="fill:#000000; fill-opacity:0.0; 
stroke:#000000; stroke-width:39.3701; stroke-opacity:1; 
stroke-linecap:round; stroke-linejoin:round;">
</g>
<g style="fill:#000000; fill-opacity:0.0; 
stroke:#000000; stroke-width:59.0551; stroke-opacity:1; 
stroke-linecap:round; stroke-linejoin:round;">
<text x="92519.7" y="78605.2"
textLength="546.494" font-size="682.415" lengthAdjust="spacingAndGlyphs"
text-anchor="start" opacity="0">5</text>
<path d="M92914 78069
L92671 78069
L92646 78312
L92671 78288
L92719 78263
L92841 78263
L92890 78288
L92914 78312
L92939 78361
L92939 78483
L92914 78532
L92890 78556
L92841 78580
L92719 78580
L92671 78556
L92646 78532
" />
</g>
<g style="fill:#000000; fill-opacity:0.0; 
stroke:#000000; stroke-width:39.3701; stroke-opacity:1; 
stroke-linecap:round; stroke-linejoin:round;">
</g>
<g style="fill:#000000; fill-opacity:0.0; 
stroke:#000000; stroke-width:59.0551; stroke-opacity:1; 
stroke-linecap:round; stroke-linejoin:round;">
<text x="112205" y="78605.2"
textLength="546.494" font-size="682.415" lengthAdjust="spacingAndGlyphs"
text-anchor="start" opacity="0">6</text>
<path d="M112575 78069
L112477 78069
L112429 78093
L112404 78117
L112356 78190
L112331 78288
L112331 78483
L112356 78532
L112380 78556
L112429 78580
L112526 78580
L112575 78556
L112599 78532
L112624 78483
L112624 78361
L112599 78312
L112575 78288
L112526 78263
L112429 78263
L112380 78288
L112356 78312
L112331 78361
" />
</g>
<g style="fill:#000000; fill-opacity:0.0; 
stroke:#000000; stroke-width:39.3701; stroke-opacity:1; 
stroke-linecap:round; stroke-linejoin:round;">
</g>
<g style="fill:#000000; fill-opacity:0.0; 
stroke:#000000; stroke-width:59.0551; stroke-opacity:1; 
stroke-linecap:round; stroke-linejoin:round;">
<path d="M3937 23622
L4724 23622
" />
</g>
<g style="fill:#000000; fill-opacity:0.0; 
stroke:#000000; stroke-width:39.3701; stroke-opacity:1; 
stroke-linecap:round; stroke-linejoin:round;">
</g>
<g style="fill:#000000; fill-opacity:0.0; 
stroke:#000000; stroke-width:59.0551; stroke-opacity:1; 
stroke-linecap:round; stroke-linejoin:round;">
<path d="M3937 43307
L4724 43307
" />
</g>
<g style="fill:#000000; fill-opacity:0.0; 
stroke:#000000; stroke-width:39.3701; stroke-opacity:1; 
stroke-linecap:round; stroke-linejoin:round;">
</g>
<g style="fill:#000000; fill-opacity:0.0; 
stroke:#000000; stroke-width:59.0551; stroke-opacity:1; 
stroke-linecap:round; stroke-linejoin:round;">
<path d="M3937 62992
L4724 62992
" />
</g>
<g style="fill:#000000; fill-opacity:0.0; 
stroke:#000000; stroke-width:39.3701; stroke-opacity:1; 
stroke-linecap:round; stroke-linejoin:round;">
</g>
<g style="fill:#000000; fill-opacity:0.0; 
stroke:#000000; stroke-width:59.0551; stroke-opacity:1; 
stroke-linecap:round; stroke-linejoin:round;">
<text x="4330.71" y="14035.4"
textLength="497.75" font-size="682.415" lengthAdjust="spacingAndGlyphs"
text-anchor="middle" opacity="0">A</text>
<path d="M4208 13864
L4452 13864
" />
<path d="M4160 14011
L4330 13499
L4501 14011
" />
</g>
<g style="fill:#000000; fill-opacity:0.0; 
stroke:#000000; stroke-width:39.3701; stroke-opacity:1; 
stroke-linecap:round; stroke-linejoin:round;">
</g>
<g style="fill:#000000; fill-opacity:0.0; 
stroke:#000000; stroke-width:59.0551; stroke-opacity:1; 
stroke-linecap:round; stroke-linejoin:round;">
<text x="4330.71" y="33720.5"
textLength="570.866" font-size="682.415" lengthAdjust="spacingAndGlyphs"
text-anchor="middle" opacity="0">B</text>
<path d="M4367 33428
L4440 33452
L4464 33476
L4489 33525
L4489 33598
L4464 33647
L4440 33671
L4391 33696
L4196 33696
L4196 33184
L4367 33184
L4416 33208
L4440 33233
L4464 33281
L4464 33330
L4440 33379
L4416 33403
L4367 33428
L4196 33428
" />
</g>
<g style="fill:#000000; fill-opacity:0.0; 
stroke:#000000; stroke-width:39.3701; stroke-opacity:1; 
stroke-linecap:round; stroke-linejoin:round;">
</g>
<g style="fill:#000000; fill-opacity:0.0; 
stroke:#000000; stroke-width:59.0551; stroke-opacity:1; 
stroke-linecap:round; stroke-linejoin:round;">
<text x="4330.71" y="53405.5"
textLength="570.866" font-size="682.415" lengthAdjust="spacingAndGlyphs"
text-anchor="middle" opacity="0">C</text>
<path d="M4489 53332
L4464 53356
L4391 53381
L4342 53381
L4269 53356
L4221 53308
L4196 53259
L4172 53161
L4172 53088
L4196 52991
L4221 52942
L4269 52893
L4342 52869
L4391 52869
L4464 52893
L4489 52918
" />
</g>
<g style="fill:#000000; fill-opacity:0.0; 
stroke:#000000; stroke-width:39.3701; stroke-opacity:1; 
stroke-linecap:round; stroke-linejoin:round;">
</g>
<g style="fill:#000000; fill-opacity:0.0; 
stroke:#000000; stroke-width:59.0551; stroke-opacity:1; 
stroke-linecap:round; stroke-linejoin:round;">
<text x="4330.71" y="73090.6"
textLength="570.866" font-size="682.415" lengthAdjust="spacingAndGlyphs"
text-anchor="middle" opacity="0">D</text>
<path d="M4196 73066
L4196 72554
L4318 72554
L4391 72578
L4440 72627
L4464 72676
L4489 72773
L4489 72846
L4464 72944
L4440 72993
L4391 73041
L4318 73066
L4196 73066
" />
</g>
<g style="fill:#000000; fill-opacity:0.0; 
stroke:#000000; stroke-width:39.3701; stroke-opacity:1; 
stroke-linecap:round; stroke-linejoin:round;">
</g>
<g style="fill:#000000; fill-opacity:0.0; 
stroke:#000000; stroke-width:59.0551; stroke-opacity:1; 
stroke-linecap:round; stroke-linejoin:round;">
<path d="M112992 23622
L112205 23622
" />
</g>
<g style="fill:#000000; fill-opacity:0.0; 
stroke:#000000; stroke-width:39.3701; stroke-opacity:1; 
stroke-linecap:round; stroke-linejoin:round;">
</g>
<g style="fill:#000000; fill-opacity:0.0; 
stroke:#000000; stroke-width:59.0551; stroke-opacity:1; 
stroke-linecap:round; stroke-linejoin:round;">
<path d="M112992 43307
L112205 43307
" />
</g>
<g style="fill:#000000; fill-opacity:0.0; 
stroke:#000000; stroke-width:39.3701; stroke-opacity:1; 
stroke-linecap:round; stroke-linejoin:round;">
</g>
<g style="fill:#000000; fill-opacity:0.0; 
stroke:#000000; stroke-width:59.0551; stroke-opacity:1; 
stroke-linecap:round; stroke-linejoin:round;">
<path d="M112992 62992
L112205 62992
" />
</g>
<g style="fill:#000000; fill-opacity:0.0; 
stroke:#000000; stroke-width:39.3701; stroke-opacity:1; 
stroke-linecap:round; stroke-linejoin:round;">
</g>
<g style="fill:#000000; fill-opacity:0.0; 
stroke:#000000; stroke-width:59.0551; stroke-opacity:1; 
stroke-linecap:round; stroke-linejoin:round;">
<text x="112599" y="14035.4"
textLength="497.75" font-size="682.415" lengthAdjust="spacingAndGlyphs"
text-anchor="middle" opacity="0">A</text>
<path d="M112477 13864
L112721 13864
" />
<path d="M112428 14011
L112599 13499
L112769 14011
" />
</g>
<g style="fill:#000000; fill-opacity:0.0; 
stroke:#000000; stroke-width:39.3701; stroke-opacity:1; 
stroke-linecap:round; stroke-linejoin:round;">
</g>
<g style="fill:#000000; fill-opacity:0.0; 
stroke:#000000; stroke-width:59.0551; stroke-opacity:1; 
stroke-linecap:round; stroke-linejoin:round;">
<text x="112599" y="33720.5"
textLength="570.866" font-size="682.415" lengthAdjust="spacingAndGlyphs"
text-anchor="middle" opacity="0">B</text>
<path d="M112635 33428
L112708 33452
L112733 33476
L112757 33525
L112757 33598
L112733 33647
L112708 33671
L112660 33696
L112465 33696
L112465 33184
L112635 33184
L112684 33208
L112708 33233
L112733 33281
L112733 33330
L112708 33379
L112684 33403
L112635 33428
L112465 33428
" />
</g>
<g style="fill:#000000; fill-opacity:0.0; 
stroke:#000000; stroke-width:39.3701; stroke-opacity:1; 
stroke-linecap:round; stroke-linejoin:round;">
</g>
<g style="fill:#000000; fill-opacity:0.0; 
stroke:#000000; stroke-width:59.0551; stroke-opacity:1; 
stroke-linecap:round; stroke-linejoin:round;">
<text x="112599" y="53405.5"
textLength="570.866" font-size="682.415" lengthAdjust="spacingAndGlyphs"
text-anchor="middle" opacity="0">C</text>
<path d="M112757 53332
L112733 53356
L112660 53381
L112611 53381
L112538 53356
L112489 53308
L112465 53259
L112440 53161
L112440 53088
L112465 52991
L112489 52942
L112538 52893
L112611 52869
L112660 52869
L112733 52893
L112757 52918
" />
</g>
<g style="fill:#000000; fill-opacity:0.0; 
stroke:#000000; stroke-width:39.3701; stroke-opacity:1; 
stroke-linecap:round; stroke-linejoin:round;">
</g>
<g style="fill:#000000; fill-opacity:0.0; 
stroke:#000000; stroke-width:59.0551; stroke-opacity:1; 
stroke-linecap:round; stroke-linejoin:round;">
<text x="112599" y="73090.6"
textLength="570.866" font-size="682.415" lengthAdjust="spacingAndGlyphs"
text-anchor="middle" opacity="0">D</text>
<path d="M112465 73066
L112465 72554
L112587 72554
L112660 72578
L112708 72627
L112733 72676
L112757 72773
L112757 72846
L112733 72944
L112708 72993
L112660 73041
L112587 73066
L112465 73066
" />
</g>
<g style="fill:#000000; fill-opacity:0.0; 
stroke:#000000; stroke-width:39.3701; stroke-opacity:1; 
stroke-linecap:round; stroke-linejoin:round;">
</g>
<g style="fill:#000000; fill-opacity:0.0; 
stroke:#000000; stroke-width:59.0551; stroke-opacity:1; 
stroke-linecap:round; stroke-linejoin:round;">
<text x="78741" y="76321.7"
textLength="2758.72" font-size="787.402" lengthAdjust="spacingAndGlyphs"
text-anchor="start" opacity="0">Date: </text>
<path d="M78911 76293
L78911 75703
L79051 75703
L79136 75731
L79192 75787
L79220 75843
L79248 75956
L79248 76040
L79220 76153
L79192 76209
L79136 76265
L79051 76293
L78911 76293
" />
<path d="M79754 76293
L79754 75984
L79726 75928
L79670 75899
L79557 75899
L79501 75928
" />
<path d="M79754 76265
L79698 76293
L79557 76293
L79501 76265
L79473 76209
L79473 76153
L79501 76096
L79557 76068
L79698 76068
L79754 76040
" />
<path d="M79951 75899
L80176 75899
" />
<path d="M80036 75703
L80036 76209
L80064 76265
L80120 76293
L80176 76293
" />
<path d="M80598 76265
L80542 76293
L80429 76293
L80373 76265
L80345 76209
L80345 75984
L80373 75928
L80429 75899
L80542 75899
L80598 75928
L80626 75984
L80626 76040
L80345 76096
" />
<path d="M80879 76237
L80907 76265
L80879 76293
L80851 76265
L80879 76237
L80879 76293
" />
<path d="M80879 75928
L80907 75956
L80879 75984
L80851 75956
L80879 75928
L80879 75984
" />
</g>
<g style="fill:#000000; fill-opacity:0.0; 
stroke:#000000; stroke-width:39.3701; stroke-opacity:1; 
stroke-linecap:round; stroke-linejoin:round;">
</g>
<g style="fill:#000000; fill-opacity:0.0; 
stroke:#000000; stroke-width:59.0551; stroke-opacity:1; 
stroke-linecap:round; stroke-linejoin:round;">
<path d="M69685 76577
L112205 76577
" />
</g>
<g style="fill:#000000; fill-opacity:0.0; 
stroke:#000000; stroke-width:39.3701; stroke-opacity:1; 
stroke-linecap:round; stroke-linejoin:round;">
</g>
<g style="fill:#000000; fill-opacity:0.0; 
stroke:#000000; stroke-width:59.0551; stroke-opacity:1; 
stroke-linecap:round; stroke-linejoin:round;">
<text x="70079.6" y="77424.1"
textLength="12348.1" font-size="787.402" lengthAdjust="spacingAndGlyphs"
text-anchor="start" opacity="0">KiCad E.D.A.  pcbnew 5.1.5</text>
<path d="M70249 77395
L70249 76805
" />
<path d="M70587 77395
L70334 77058
" />
<path d="M70587 76805
L70249 77142
" />
<path d="M70840 77395
L70840 77002
" />
<path d="M70840 76805
L70812 76833
L70840 76861
L70868 76833
L70840 76805
L70840 76861
" />
<path d="M71458 77339
L71430 77367
L71346 77395
L71290 77395
L71205 77367
L71149 77311
L71121 77255
L71093 77142
L71093 77058
L71121 76946
L71149 76889
L71205 76833
L71290 76805
L71346 76805
L71430 76833
L71458 76861
" />
<path d="M71965 77395
L71965 77086
L71937 77030
L71880 77002
L71768 77002
L71712 77030
" />
<path d="M71965 77367
L71908 77395
L71768 77395
L71712 77367
L71683 77311
L71683 77255
L71712 77199
L71768 77171
L71908 77171
L71965 77142
" />
<path d="M72499 77395
L72499 76805
" />
<path d="M72499 77367
L72443 77395
L72330 77395
L72274 77367
L72246 77339
L72218 77283
L72218 77114
L72246 77058
L72274 77030
L72330 77002
L72443 77002
L72499 77030
" />
<path d="M73230 77086
L73427 77086
" />
<path d="M73511 77395
L73230 77395
L73230 76805
L73511 76805
" />
<path d="M73764 77339
L73793 77367
L73764 77395
L73736 77367
L73764 77339
L73764 77395
" />
<path d="M74046 77395
L74046 76805
L74186 76805
L74271 76833
L74327 76889
L74355 76946
L74383 77058
L74383 77142
L74355 77255
L74327 77311
L74271 77367
L74186 77395
L74046 77395
" />
<path d="M74636 77339
L74664 77367
L74636 77395
L74608 77367
L74636 77339
L74636 77395
" />
<path d="M74889 77227
L75171 77227
" />
<path d="M74833 77395
L75030 76805
L75227 77395
" />
<path d="M75424 77339
L75452 77367
L75424 77395
L75395 77367
L75424 77339
L75424 77395
" />
<path d="M76605 77002
L76605 77592
" />
<path d="M76605 77030
L76661 77002
L76773 77002
L76830 77030
L76858 77058
L76886 77114
L76886 77283
L76858 77339
L76830 77367
L76773 77395
L76661 77395
L76605 77367
" />
<path d="M77392 77367
L77336 77395
L77223 77395
L77167 77367
L77139 77339
L77111 77283
L77111 77114
L77139 77058
L77167 77030
L77223 77002
L77336 77002
L77392 77030
" />
<path d="M77645 77395
L77645 76805
" />
<path d="M77645 77030
L77701 77002
L77814 77002
L77870 77030
L77898 77058
L77926 77114
L77926 77283
L77898 77339
L77870 77367
L77814 77395
L77701 77395
L77645 77367
" />
<path d="M78180 77002
L78180 77395
" />
<path d="M78180 77058
L78208 77030
L78264 77002
L78348 77002
L78404 77030
L78433 77086
L78433 77395
" />
<path d="M78939 77367
L78883 77395
L78770 77395
L78714 77367
L78686 77311
L78686 77086
L78714 77030
L78770 77002
L78883 77002
L78939 77030
L78967 77086
L78967 77142
L78686 77199
" />
<path d="M79164 77002
L79276 77395
L79389 77114
L79501 77395
L79614 77002
" />
<path d="M80570 76805
L80289 76805
L80260 77086
L80289 77058
L80345 77030
L80485 77030
L80542 77058
L80570 77086
L80598 77142
L80598 77283
L80570 77339
L80542 77367
L80485 77395
L80345 77395
L80289 77367
L80260 77339
" />
<path d="M80851 77339
L80879 77367
L80851 77395
L80823 77367
L80851 77339
L80851 77395
" />
<path d="M81442 77395
L81104 77395
" />
<path d="M81273 77395
L81273 76805
L81217 76889
L81160 76946
L81104 76974
" />
<path d="M81695 77339
L81723 77367
L81695 77395
L81667 77367
L81695 77339
L81695 77395
" />
<path d="M82257 76805
L81976 76805
L81948 77086
L81976 77058
L82032 77030
L82173 77030
L82229 77058
L82257 77086
L82285 77142
L82285 77283
L82257 77339
L82229 77367
L82173 77395
L82032 77395
L81976 77367
L81948 77339
" />
</g>
<g style="fill:#000000; fill-opacity:0.0; 
stroke:#000000; stroke-width:39.3701; stroke-opacity:1; 
stroke-linecap:round; stroke-linejoin:round;">
</g>
<g style="fill:#000000; fill-opacity:0.0; 
stroke:#000000; stroke-width:59.0551; stroke-opacity:1; 
stroke-linecap:round; stroke-linejoin:round;">
<path d="M69685 75396
L112205 75396
" />
</g>
<g style="fill:#000000; fill-opacity:0.0; 
stroke:#000000; stroke-width:39.3701; stroke-opacity:1; 
stroke-linecap:round; stroke-linejoin:round;">
</g>
<g style="fill:#000000; fill-opacity:0.0; 
stroke:#000000; stroke-width:118.11; stroke-opacity:1; 
stroke-linecap:round; stroke-linejoin:round;">
<text x="103544" y="76321.7"
textLength="2336.9" font-size="787.402" lengthAdjust="spacingAndGlyphs"
text-anchor="start" opacity="0">Rev: </text>
<path d="M104099 76293
L103902 76012
" />
<path d="M103761 76293
L103761 75703
L103986 75703
L104042 75731
L104070 75759
L104099 75815
L104099 75899
L104070 75956
L104042 75984
L103986 76012
L103761 76012
" />
<path d="M104577 76265
L104520 76293
L104408 76293
L104352 76265
L104323 76209
L104323 75984
L104352 75928
L104408 75899
L104520 75899
L104577 75928
L104605 75984
L104605 76040
L104323 76096
" />
<path d="M104802 75899
L104942 76293
L105083 75899
" />
<path d="M105308 76237
L105336 76265
L105308 76293
L105280 76265
L105308 76237
L105308 76293
" />
<path d="M105308 75928
L105336 75956
L105308 75984
L105280 75956
L105308 75928
L105308 75984
" />
</g>
<g style="fill:#000000; fill-opacity:0.0; 
stroke:#000000; stroke-width:39.3701; stroke-opacity:1; 
stroke-linecap:round; stroke-linejoin:round;">
</g>
<g style="fill:#000000; fill-opacity:0.0; 
stroke:#000000; stroke-width:59.0551; stroke-opacity:1; 
stroke-linecap:round; stroke-linejoin:round;">
<text x="70079.6" y="76321.7"
textLength="3781.21" font-size="787.402" lengthAdjust="spacingAndGlyphs"
text-anchor="start" opacity="0">Size: A4</text>
<path d="M70221 76265
L70305 76293
L70446 76293
L70502 76265
L70530 76237
L70559 76181
L70559 76124
L70530 76068
L70502 76040
L70446 76012
L70334 75984
L70277 75956
L70249 75928
L70221 75871
L70221 75815
L70249 75759
L70277 75731
L70334 75703
L70474 75703
L70559 75731
" />
<path d="M70812 76293
L70812 75899
" />
<path d="M70812 75703
L70784 75731
L70812 75759
L70840 75731
L70812 75703
L70812 75759
" />
<path d="M71037 75899
L71346 75899
L71037 76293
L71346 76293
" />
<path d="M71796 76265
L71740 76293
L71627 76293
L71571 76265
L71543 76209
L71543 75984
L71571 75928
L71627 75899
L71740 75899
L71796 75928
L71824 75984
L71824 76040
L71543 76096
" />
<path d="M72077 76237
L72105 76265
L72077 76293
L72049 76265
L72077 76237
L72077 76293
" />
<path d="M72077 75928
L72105 75956
L72077 75984
L72049 75956
L72077 75928
L72077 75984
" />
<path d="M72780 76124
L73061 76124
" />
<path d="M72724 76293
L72921 75703
L73118 76293
" />
<path d="M73568 75899
L73568 76293
" />
<path d="M73427 75674
L73286 76096
L73652 76096
" />
</g>
<g style="fill:#000000; fill-opacity:0.0; 
stroke:#000000; stroke-width:39.3701; stroke-opacity:1; 
stroke-linecap:round; stroke-linejoin:round;">
</g>
<g style="fill:#000000; fill-opacity:0.0; 
stroke:#000000; stroke-width:59.0551; stroke-opacity:1; 
stroke-linecap:round; stroke-linejoin:round;">
<text x="103544" y="77424.1"
textLength="3349.27" font-size="787.402" lengthAdjust="spacingAndGlyphs"
text-anchor="start" opacity="0">Id: 1/1</text>
<path d="M103714 77395
L103714 76805
" />
<path d="M104248 77395
L104248 76805
" />
<path d="M104248 77367
L104192 77395
L104079 77395
L104023 77367
L103995 77339
L103967 77283
L103967 77114
L103995 77058
L104023 77030
L104079 77002
L104192 77002
L104248 77030
" />
<path d="M104529 77339
L104557 77367
L104529 77395
L104501 77367
L104529 77339
L104529 77395
" />
<path d="M104529 77030
L104557 77058
L104529 77086
L104501 77058
L104529 77030
L104529 77086
" />
<path d="M105570 77395
L105232 77395
" />
<path d="M105401 77395
L105401 76805
L105345 76889
L105289 76946
L105232 76974
" />
<path d="M106245 76777
L105739 77536
" />
<path d="M106751 77395
L106413 77395
" />
<path d="M106582 77395
L106582 76805
L106526 76889
L106470 76946
L106413 76974
" />
</g>
<g style="fill:#000000; fill-opacity:0.0; 
stroke:#000000; stroke-width:39.3701; stroke-opacity:1; 
stroke-linecap:round; stroke-linejoin:round;">
</g>
<g style="fill:#000000; fill-opacity:0.0; 
stroke:#000000; stroke-width:59.0551; stroke-opacity:1; 
stroke-linecap:round; stroke-linejoin:round;">
<path d="M69685 73821
L112205 73821
" />
</g>
<g style="fill:#000000; fill-opacity:0.0; 
stroke:#000000; stroke-width:39.3701; stroke-opacity:1; 
stroke-linecap:round; stroke-linejoin:round;">
</g>
<g style="fill:#000000; fill-opacity:0.0; 
stroke:#000000; stroke-width:157.48; stroke-opacity:1; 
stroke-linecap:round; stroke-linejoin:round;">
<text x="70079.6" y="74924.1"
textLength="3701.14" font-size="1049.87" lengthAdjust="spacingAndGlyphs"
text-anchor="start" opacity="0">Title: </text>
<path d="M70360 74099
L70810 74099
" />
<path d="M70486 74886
L70585 74099
" />
<path d="M70974 74886
L71039 74361
" />
<path d="M71072 74099
L71030 74136
L71063 74174
L71105 74136
L71072 74099
L71063 74174
" />
<path d="M71302 74361
L71602 74361
" />
<path d="M71447 74099
L71363 74774
L71391 74849
L71461 74886
L71536 74886
" />
<path d="M71911 74886
L71841 74849
L71813 74774
L71897 74099
" />
<path d="M72516 74849
L72436 74886
L72286 74886
L72216 74849
L72187 74774
L72225 74474
L72272 74399
L72352 74361
L72501 74361
L72572 74399
L72600 74474
L72591 74549
L72206 74624
" />
<path d="M72895 74811
L72928 74849
L72886 74886
L72853 74849
L72895 74811
L72886 74886
" />
<path d="M72947 74399
L72980 74436
L72937 74474
L72905 74436
L72947 74399
L72937 74474
" />
</g>
<g style="fill:#000000; fill-opacity:0.0; 
stroke:#000000; stroke-width:39.3701; stroke-opacity:1; 
stroke-linecap:round; stroke-linejoin:round;">
</g>
<g style="fill:#000000; fill-opacity:0.0; 
stroke:#000000; stroke-width:59.0551; stroke-opacity:1; 
stroke-linecap:round; stroke-linejoin:round;">
<text x="70079.6" y="73408.3"
textLength="21548.9" font-size="787.402" lengthAdjust="spacingAndGlyphs"
text-anchor="start" opacity="0">File: Master_Sword_(Ocarina_of_Time).kicad_pcb</text>
<path d="M70446 73070
L70249 73070
" />
<path d="M70249 73380
L70249 72789
L70530 72789
" />
<path d="M70755 73380
L70755 72986
" />
<path d="M70755 72789
L70727 72817
L70755 72845
L70784 72817
L70755 72789
L70755 72845
" />
<path d="M71121 73380
L71065 73352
L71037 73295
L71037 72789
" />
<path d="M71571 73352
L71515 73380
L71402 73380
L71346 73352
L71318 73295
L71318 73070
L71346 73014
L71402 72986
L71515 72986
L71571 73014
L71599 73070
L71599 73127
L71318 73183
" />
<path d="M71852 73323
L71880 73352
L71852 73380
L71824 73352
L71852 73323
L71852 73380
" />
<path d="M71852 73014
L71880 73042
L71852 73070
L71824 73042
L71852 73014
L71852 73070
" />
<path d="M72583 73380
L72583 72789
L72780 73211
L72977 72789
L72977 73380
" />
<path d="M73511 73380
L73511 73070
L73483 73014
L73427 72986
L73314 72986
L73258 73014
" />
<path d="M73511 73352
L73455 73380
L73314 73380
L73258 73352
L73230 73295
L73230 73239
L73258 73183
L73314 73155
L73455 73155
L73511 73127
" />
<path d="M73764 73352
L73821 73380
L73933 73380
L73989 73352
L74018 73295
L74018 73267
L73989 73211
L73933 73183
L73849 73183
L73793 73155
L73764 73099
L73764 73070
L73793 73014
L73849 72986
L73933 72986
L73989 73014
" />
<path d="M74186 72986
L74411 72986
" />
<path d="M74271 72789
L74271 73295
L74299 73352
L74355 73380
L74411 73380
" />
<path d="M74833 73352
L74777 73380
L74664 73380
L74608 73352
L74580 73295
L74580 73070
L74608 73014
L74664 72986
L74777 72986
L74833 73014
L74861 73070
L74861 73127
L74580 73183
" />
<path d="M75114 73380
L75114 72986
" />
<path d="M75114 73099
L75142 73042
L75171 73014
L75227 72986
L75283 72986
" />
<path d="M75339 73436
L75789 73436
" />
<path d="M75902 73352
L75986 73380
L76127 73380
L76183 73352
L76211 73323
L76239 73267
L76239 73211
L76211 73155
L76183 73127
L76127 73099
L76014 73070
L75958 73042
L75930 73014
L75902 72958
L75902 72902
L75930 72845
L75958 72817
L76014 72789
L76155 72789
L76239 72817
" />
<path d="M76436 72986
L76548 73380
L76661 73099
L76773 73380
L76886 72986
" />
<path d="M77195 73380
L77139 73352
L77111 73323
L77083 73267
L77083 73099
L77111 73042
L77139 73014
L77195 72986
L77280 72986
L77336 73014
L77364 73042
L77392 73099
L77392 73267
L77364 73323
L77336 73352
L77280 73380
L77195 73380
" />
<path d="M77645 73380
L77645 72986
" />
<path d="M77645 73099
L77673 73042
L77701 73014
L77758 72986
L77814 72986
" />
<path d="M78264 73380
L78264 72789
" />
<path d="M78264 73352
L78208 73380
L78095 73380
L78039 73352
L78011 73323
L77983 73267
L77983 73099
L78011 73042
L78039 73014
L78095 72986
L78208 72986
L78264 73014
" />
<path d="M78404 73436
L78854 73436
" />
<path d="M79164 73605
L79136 73577
L79079 73492
L79051 73436
L79023 73352
L78995 73211
L78995 73099
L79023 72958
L79051 72874
L79079 72817
L79136 72733
L79164 72705
" />
<path d="M79501 72789
L79614 72789
L79670 72817
L79726 72874
L79754 72986
L79754 73183
L79726 73295
L79670 73352
L79614 73380
L79501 73380
L79445 73352
L79389 73295
L79361 73183
L79361 72986
L79389 72874
L79445 72817
L79501 72789
" />
<path d="M80260 73352
L80204 73380
L80092 73380
L80036 73352
L80007 73323
L79979 73267
L79979 73099
L80007 73042
L80036 73014
L80092 72986
L80204 72986
L80260 73014
" />
<path d="M80767 73380
L80767 73070
L80739 73014
L80682 72986
L80570 72986
L80514 73014
" />
<path d="M80767 73352
L80710 73380
L80570 73380
L80514 73352
L80485 73295
L80485 73239
L80514 73183
L80570 73155
L80710 73155
L80767 73127
" />
<path d="M81048 73380
L81048 72986
" />
<path d="M81048 73099
L81076 73042
L81104 73014
L81160 72986
L81217 72986
" />
<path d="M81413 73380
L81413 72986
" />
<path d="M81413 72789
L81385 72817
L81413 72845
L81442 72817
L81413 72789
L81413 72845
" />
<path d="M81695 72986
L81695 73380
" />
<path d="M81695 73042
L81723 73014
L81779 72986
L81863 72986
L81920 73014
L81948 73070
L81948 73380
" />
<path d="M82482 73380
L82482 73070
L82454 73014
L82398 72986
L82285 72986
L82229 73014
" />
<path d="M82482 73352
L82426 73380
L82285 73380
L82229 73352
L82201 73295
L82201 73239
L82229 73183
L82285 73155
L82426 73155
L82482 73127
" />
<path d="M82623 73436
L83073 73436
" />
<path d="M83298 73380
L83241 73352
L83213 73323
L83185 73267
L83185 73099
L83213 73042
L83241 73014
L83298 72986
L83382 72986
L83438 73014
L83466 73042
L83494 73099
L83494 73267
L83466 73323
L83438 73352
L83382 73380
L83298 73380
" />
<path d="M83663 72986
L83888 72986
" />
<path d="M83748 73380
L83748 72874
L83776 72817
L83832 72789
L83888 72789
" />
<path d="M83944 73436
L84394 73436
" />
<path d="M84451 72789
L84788 72789
" />
<path d="M84619 73380
L84619 72789
" />
<path d="M84985 73380
L84985 72986
" />
<path d="M84985 72789
L84957 72817
L84985 72845
L85013 72817
L84985 72789
L84985 72845
" />
<path d="M85266 73380
L85266 72986
" />
<path d="M85266 73042
L85294 73014
L85350 72986
L85435 72986
L85491 73014
L85519 73070
L85519 73380
" />
<path d="M85519 73070
L85547 73014
L85604 72986
L85688 72986
L85744 73014
L85772 73070
L85772 73380
" />
<path d="M86278 73352
L86222 73380
L86110 73380
L86054 73352
L86025 73295
L86025 73070
L86054 73014
L86110 72986
L86222 72986
L86278 73014
L86307 73070
L86307 73127
L86025 73183
" />
<path d="M86503 73605
L86532 73577
L86588 73492
L86616 73436
L86644 73352
L86672 73211
L86672 73099
L86644 72958
L86616 72874
L86588 72817
L86532 72733
L86503 72705
" />
<path d="M86953 73323
L86982 73352
L86953 73380
L86925 73352
L86953 73323
L86953 73380
" />
<path d="M87235 73380
L87235 72789
" />
<path d="M87291 73155
L87460 73380
" />
<path d="M87460 72986
L87235 73211
" />
<path d="M87713 73380
L87713 72986
" />
<path d="M87713 72789
L87685 72817
L87713 72845
L87741 72817
L87713 72789
L87713 72845
" />
<path d="M88247 73352
L88191 73380
L88078 73380
L88022 73352
L87994 73323
L87966 73267
L87966 73099
L87994 73042
L88022 73014
L88078 72986
L88191 72986
L88247 73014
" />
<path d="M88753 73380
L88753 73070
L88725 73014
L88669 72986
L88556 72986
L88500 73014
" />
<path d="M88753 73352
L88697 73380
L88556 73380
L88500 73352
L88472 73295
L88472 73239
L88500 73183
L88556 73155
L88697 73155
L88753 73127
" />
<path d="M89287 73380
L89287 72789
" />
<path d="M89287 73352
L89231 73380
L89119 73380
L89063 73352
L89034 73323
L89006 73267
L89006 73099
L89034 73042
L89063 73014
L89119 72986
L89231 72986
L89287 73014
" />
<path d="M89428 73436
L89878 73436
" />
<path d="M90019 72986
L90019 73577
" />
<path d="M90019 73014
L90075 72986
L90187 72986
L90244 73014
L90272 73042
L90300 73099
L90300 73267
L90272 73323
L90244 73352
L90187 73380
L90075 73380
L90019 73352
" />
<path d="M90806 73352
L90750 73380
L90637 73380
L90581 73352
L90553 73323
L90525 73267
L90525 73099
L90553 73042
L90581 73014
L90637 72986
L90750 72986
L90806 73014
" />
<path d="M91059 73380
L91059 72789
" />
<path d="M91059 73014
L91115 72986
L91228 72986
L91284 73014
L91312 73042
L91340 73099
L91340 73267
L91312 73323
L91284 73352
L91228 73380
L91115 73380
L91059 73352
" />
</g>
<g style="fill:#000000; fill-opacity:0.0; 
stroke:#000000; stroke-width:39.3701; stroke-opacity:1; 
stroke-linecap:round; stroke-linejoin:round;">
</g>
<g style="fill:#000000; fill-opacity:0.0; 
stroke:#000000; stroke-width:59.0551; stroke-opacity:1; 
stroke-linecap:round; stroke-linejoin:round;">
<path d="M69685 71459
L112205 71459
" />
</g>
<g style="fill:#000000; fill-opacity:0.0; 
stroke:#000000; stroke-width:39.3701; stroke-opacity:1; 
stroke-linecap:round; stroke-linejoin:round;">
</g>
<g style="fill:#000000; fill-opacity:0.0; 
stroke:#000000; stroke-width:59.0551; stroke-opacity:1; 
stroke-linecap:round; stroke-linejoin:round;">
<text x="70079.6" y="72345.4"
textLength="3236.78" font-size="787.402" lengthAdjust="spacingAndGlyphs"
text-anchor="start" opacity="0">Sheet: </text>
<path d="M70221 72289
L70305 72317
L70446 72317
L70502 72289
L70530 72260
L70559 72204
L70559 72148
L70530 72092
L70502 72064
L70446 72036
L70334 72007
L70277 71979
L70249 71951
L70221 71895
L70221 71839
L70249 71782
L70277 71754
L70334 71726
L70474 71726
L70559 71754
" />
<path d="M70812 72317
L70812 71726
" />
<path d="M71065 72317
L71065 72007
L71037 71951
L70980 71923
L70896 71923
L70840 71951
L70812 71979
" />
<path d="M71571 72289
L71515 72317
L71402 72317
L71346 72289
L71318 72232
L71318 72007
L71346 71951
L71402 71923
L71515 71923
L71571 71951
L71599 72007
L71599 72064
L71318 72120
" />
<path d="M72077 72289
L72021 72317
L71908 72317
L71852 72289
L71824 72232
L71824 72007
L71852 71951
L71908 71923
L72021 71923
L72077 71951
L72105 72007
L72105 72064
L71824 72120
" />
<path d="M72274 71923
L72499 71923
" />
<path d="M72358 71726
L72358 72232
L72386 72289
L72443 72317
L72499 72317
" />
<path d="M72696 72260
L72724 72289
L72696 72317
L72668 72289
L72696 72260
L72696 72317
" />
<path d="M72696 71951
L72724 71979
L72696 72007
L72668 71979
L72696 71951
L72696 72007
" />
</g>
<g style="fill:#000000; fill-opacity:0.0; 
stroke:#000000; stroke-width:39.3701; stroke-opacity:1; 
stroke-linecap:round; stroke-linejoin:round;">
</g>
<g style="fill:#000000; fill-opacity:0.0; 
stroke:#000000; stroke-width:59.0551; stroke-opacity:1; 
stroke-linecap:round; stroke-linejoin:round;">
<path d="M77559 75396
L77559 76577
" />
</g>
<g style="fill:#000000; fill-opacity:0.0; 
stroke:#000000; stroke-width:39.3701; stroke-opacity:1; 
stroke-linecap:round; stroke-linejoin:round;">
</g>
<g style="fill:#000000; fill-opacity:0.0; 
stroke:#000000; stroke-width:59.0551; stroke-opacity:1; 
stroke-linecap:round; stroke-linejoin:round;">
<path d="M102756 75396
L102756 77955
" />
</g>
<g style="fill:#840084; fill-opacity:0.0; 
stroke:#840084; stroke-width:59.0551; stroke-opacity:1; 
stroke-linecap:round; stroke-linejoin:round;">
</g>
<g style="fill:#840084; fill-opacity:0.0; 
stroke:#840084; stroke-width:39.3701; stroke-opacity:1; 
stroke-linecap:round; stroke-linejoin:round;">
<g transform="rotate(-135 53031.5 35287.4)">
<text x="53031.5" y="35444.9"
textLength="-2565.62" font-size="-419.947" lengthAdjust="spacingAndGlyphs"
text-anchor="middle" opacity="0">RMA Badge</text>
</g>
<path d="M52384 34438
L52204 34470
" />
<path d="M52257 34311
L52034 34534
L52119 34619
L52151 34629
L52172 34629
L52204 34619
L52236 34587
L52246 34555
L52246 34534
L52236 34502
L52151 34417
" />
<path d="M52480 34534
L52257 34757
L52490 34672
L52405 34905
L52628 34682
" />
<path d="M52660 34841
L52766 34948
" />
<path d="M52702 34757
L52554 35054
L52851 34905
" />
<path d="M53052 35340
L53095 35361
L53116 35361
L53148 35351
L53179 35319
L53190 35287
L53190 35266
L53179 35234
L53095 35149
L52872 35372
L52946 35446
L52978 35457
L52999 35457
L53031 35446
L53052 35425
L53063 35393
L53063 35372
L53052 35340
L52978 35266
" />
<path d="M53413 35467
L53296 35584
L53264 35594
L53232 35584
L53190 35541
L53179 35510
" />
<path d="M53402 35478
L53392 35446
L53339 35393
L53307 35382
L53275 35393
L53254 35414
L53243 35446
L53254 35478
L53307 35531
L53317 35563
" />
<path d="M53614 35669
L53392 35891
" />
<path d="M53604 35679
L53593 35647
L53551 35605
L53519 35594
L53498 35594
L53466 35605
L53402 35669
L53392 35701
L53392 35722
L53402 35754
L53445 35796
L53476 35807
" />
<path d="M53667 36019
L53848 35838
L53858 35807
L53858 35785
L53848 35754
L53816 35722
L53784 35711
" />
<path d="M53805 35881
L53795 35849
L53752 35807
L53720 35796
L53699 35796
L53667 35807
L53604 35870
L53593 35902
L53593 35923
L53604 35955
L53646 35997
L53678 36008
" />
<path d="M53996 36072
L53985 36040
L53943 35997
L53911 35987
L53879 35997
L53795 36082
L53784 36114
L53795 36146
L53837 36188
L53869 36199
L53901 36188
L53922 36167
L53837 36040
" />
</g>
<g style="fill:#840084; fill-opacity:0.0; 
stroke:#840084; stroke-width:59.0551; stroke-opacity:1; 
stroke-linecap:round; stroke-linejoin:round;">
<g transform="rotate(-225 68815.5 52077.4)">
<text x="68815.5" y="52274.2"
textLength="-323.772" font-size="-524.934" lengthAdjust="spacingAndGlyphs"
text-anchor="middle" opacity="0">1</text>
</g>
<path d="M68769 51871
L68610 52030
" />
<path d="M68689 51951
L68968 52229
L68901 52216
L68848 52216
L68808 52229
" />
<g transform="rotate(-225 59815.5 43207.3)">
<text x="59815.5" y="43404.2"
textLength="-298.181" font-size="-524.934" lengthAdjust="spacingAndGlyphs"
text-anchor="middle" opacity="0">1</text>
</g>
<path d="M59769 43001
L59610 43160
" />
<path d="M59689 43081
L59968 43359
L59901 43346
L59848 43346
L59808 43359
" />
<g transform="rotate(-225 51394.3 34648.2)">
<text x="51394.3" y="34845.1"
textLength="-298.181" font-size="-524.934" lengthAdjust="spacingAndGlyphs"
text-anchor="middle" opacity="0">1</text>
</g>
<path d="M51347 34442
L51188 34601
" />
<path d="M51268 34522
L51546 34800
L51480 34787
L51427 34787
L51387 34800
" />
<g transform="rotate(-225 38811.6 22179.7)">
<text x="38811.6" y="22376.6"
textLength="-298.181" font-size="-524.934" lengthAdjust="spacingAndGlyphs"
text-anchor="middle" opacity="0">1</text>
</g>
<path d="M38765 21974
L38606 22133
" />
<path d="M38685 22053
L38964 22332
L38897 22318
L38844 22318
L38804 22332
" />
</g>
<g style="fill:#840084; fill-opacity:0.0; 
stroke:#840084; stroke-width:39.3701; stroke-opacity:1; 
stroke-linecap:round; stroke-linejoin:round;">
<g transform="rotate(-225 60449.4 45490.8)">
<text x="60449.4" y="45628.6"
textLength="-2352.92" font-size="-314.961" lengthAdjust="spacingAndGlyphs"
text-anchor="middle" opacity="0">JLCJLCJLCJLC</text>
</g>
<path d="M59784 46369
L59645 46229
L59609 46209
L59575 46207
L59541 46221
L59526 46237
" />
<path d="M59748 46015
L59669 46094
L59864 46289
" />
<path d="M59918 45882
L59901 45881
L59868 45895
L59852 45911
L59837 45944
L59840 45979
L59850 46005
L59880 46050
L59907 46078
L59952 46107
L59979 46118
L60013 46121
L60047 46106
L60062 46090
L60077 46057
L60076 46040
" />
<path d="M60214 45939
L60074 45800
L60039 45780
L60004 45777
L59971 45792
L59955 45808
" />
<path d="M60178 45585
L60098 45665
L60293 45859
" />
<path d="M60347 45452
L60330 45451
L60297 45466
L60281 45482
L60267 45515
L60269 45549
L60280 45576
L60309 45621
L60337 45649
L60382 45678
L60408 45688
L60443 45691
L60476 45677
L60492 45661
L60507 45627
L60505 45610
" />
<path d="M60643 45509
L60504 45370
L60468 45350
L60434 45348
L60401 45362
L60385 45378
" />
<path d="M60607 45156
L60528 45235
L60723 45430
" />
<path d="M60777 45023
L60760 45022
L60727 45036
L60711 45052
L60696 45085
L60699 45120
L60709 45146
L60739 45191
L60766 45219
L60811 45248
L60838 45259
L60872 45262
L60906 45247
L60922 45231
L60936 45198
L60935 45181
" />
<path d="M61073 45080
L60933 44941
L60898 44921
L60863 44918
L60830 44933
L60814 44949
" />
<path d="M61037 44726
L60957 44806
L61152 45000
" />
<path d="M61207 44593
L61189 44592
L61156 44607
L61140 44623
L61126 44656
L61128 44690
L61139 44717
L61168 44762
L61196 44790
L61241 44819
L61268 44829
L61302 44832
L61335 44817
L61351 44802
L61366 44768
L61364 44751
" />
</g>
<g style="fill:#840084; fill-opacity:0.0; 
stroke:#840084; stroke-width:59.0551; stroke-opacity:1; 
stroke-linecap:round; stroke-linejoin:round;">
<g transform="rotate(-135 59000.6 40904.2)">
<text x="59000.6" y="41101"
textLength="-5929.32" font-size="-524.934" lengthAdjust="spacingAndGlyphs"
text-anchor="middle" opacity="0">Made for Defcon 27</text>
</g>
<path d="M57078 38730
L56799 39008
L57091 38902
L56985 39194
L57263 38915
" />
<path d="M57515 39167
L57370 39313
L57330 39326
L57290 39313
L57237 39260
L57224 39220
" />
<path d="M57502 39180
L57489 39141
L57423 39074
L57383 39061
L57343 39074
L57317 39101
L57303 39141
L57317 39180
L57383 39247
L57396 39286
" />
<path d="M57767 39419
L57489 39697
" />
<path d="M57754 39432
L57741 39392
L57688 39339
L57648 39326
L57621 39326
L57582 39339
L57502 39419
L57489 39459
L57489 39485
L57502 39525
L57555 39578
L57595 39591
" />
<path d="M57993 39671
L57979 39631
L57926 39578
L57887 39565
L57847 39578
L57741 39684
L57727 39724
L57741 39764
L57794 39817
L57834 39830
L57873 39817
L57900 39790
L57794 39631
" />
<path d="M58125 40148
L58231 40254
" />
<path d="M58351 40002
L58112 40241
L58099 40281
L58112 40320
L58138 40347
" />
<path d="M58549 40201
L58510 40188
L58483 40188
L58443 40201
L58364 40281
L58351 40320
L58351 40347
L58364 40387
L58404 40426
L58443 40440
L58470 40440
L58510 40426
L58589 40347
L58602 40307
L58602 40281
L58589 40241
L58549 40201
" />
<path d="M58761 40413
L58576 40599
" />
<path d="M58629 40546
L58616 40585
L58616 40612
L58629 40652
L58655 40678
" />
<path d="M59146 40798
L58868 41076
L58934 41142
L58987 41169
L59040 41169
L59080 41156
L59146 41116
L59186 41076
L59225 41010
L59239 40970
L59239 40917
L59212 40864
L59146 40798
" />
<path d="M59517 41195
L59504 41156
L59451 41103
L59411 41089
L59371 41103
L59265 41209
L59252 41248
L59265 41288
L59318 41341
L59358 41354
L59398 41341
L59424 41315
L59318 41156
" />
<path d="M59438 41460
L59544 41566
" />
<path d="M59663 41315
L59424 41553
L59411 41593
L59424 41633
L59451 41659
" />
<path d="M59928 41606
L59915 41566
L59862 41513
L59822 41500
L59795 41500
L59756 41513
L59676 41593
L59663 41633
L59663 41659
L59676 41699
L59729 41752
L59769 41765
" />
<path d="M60100 41752
L60061 41739
L60034 41739
L59994 41752
L59915 41832
L59902 41871
L59902 41898
L59915 41938
L59955 41977
L59994 41991
L60021 41991
L60061 41977
L60140 41898
L60153 41858
L60153 41832
L60140 41792
L60100 41752
" />
<path d="M60127 42150
L60312 41964
" />
<path d="M60153 42123
L60153 42150
L60167 42190
L60206 42229
L60246 42243
L60286 42229
L60432 42083
" />
<path d="M60511 42667
L60511 42693
L60525 42733
L60591 42799
L60631 42813
L60657 42813
L60697 42799
L60723 42773
L60750 42720
L60750 42402
L60922 42574
" />
<path d="M60737 42945
L60922 43131
L61081 42733
" />
</g>
<g style="fill:#840084; fill-opacity:0.0; 
stroke:#840084; stroke-width:47.2441; stroke-opacity:1; 
stroke-linecap:round; stroke-linejoin:round;">
<path d="M43544.5 33641.1 A5815.79 5815.79 0.0 0 0 38283.3 28328.8 " />
<path d="M37999 28218.1 A374.016 374.016 0.0 0 0 38263.4 28327.6 " />
<path d="M43540.7 33604.9 A374.016 374.016 0.0 0 0 43650.3 33869.3 " />
<path d="M43650.3 33869.3 A1062.99 1062.99 0.0 0 0 45153.6 33869.3 " />
<path d="M37999 26714.8 A1062.99 1062.99 0.0 0 0 37999 28218.1 " />
<path d="M39154 25559
L37985 26728
" />
<path d="M46308 32714
L45139 33883
" />
<path d="M41798 22914
L40880 23833
" />
<path d="M45905 23763
L41798 22914
" />
<path d="M46127 23541
L45905 23763
" />
<path d="M48327 25740
L46127 23541
" />
<path d="M48327 25740
L48104 25963
" />
<path d="M48104 25963
L48953 30069
" />
<path d="M48953 30069
L48034 30988
" />
<path d="M65343 49509
L65487 49653
" />
<path d="M64948 49904
L65092 50048
" />
<path d="M62517 47324
L62373 47180
" />
<path d="M62121 47719
L61977 47575
" />
<path d="M61119 48398
L61263 48542
" />
<path d="M61514 48003
L61658 48147
" />
<path d="M63323 46236
L63467 46380
" />
<path d="M62927 46632
L63071 46776
" />
<path d="M63719 51947
L63791 51874
" />
<path d="M64662 51198
L65155 50705
" />
<path d="M65155 50705
L65049 50599
" />
<path d="M62839 48389
L62346 48882
" />
<path d="M61670 49753
L61597 49825
" />
<path d="M62839 48389
L62945 48495
" />
<path d="M66935 49275
L66791 49419
" />
<path d="M67330 49670
L67186 49814
" />
<path d="M63967 48137
L64111 48281
" />
<path d="M63572 48532
L63716 48676
" />
<path d="M67122 47998
L65619 46495
" />
<path d="M65279 49006
L64193 47920
" />
<path d="M58939 45891
L59290 45540
" />
<path d="M60838 43992
L60487 44343
" />
<path d="M59986 46938
L58939 45891
" />
<path d="M62511 45666
L60838 43992
" />
</g>
<g style="fill:#840084; fill-opacity:0.0; 
stroke:#840084; stroke-width:59.0551; stroke-opacity:1; 
stroke-linecap:round; stroke-linejoin:round;">
<g transform="rotate(45 47603.4 24264.9)">
<text x="47603.4" y="24461.8"
textLength="-991.845" font-size="-524.934" lengthAdjust="spacingAndGlyphs"
text-anchor="middle" opacity="0">BT1</text>
</g>
<path d="M47841 24463
L47788 24437
L47762 24437
L47722 24450
L47682 24490
L47669 24530
L47669 24556
L47682 24596
L47788 24702
L48067 24424
L47974 24331
L47934 24317
L47908 24317
L47868 24331
L47841 24357
L47828 24397
L47828 24424
L47841 24463
L47934 24556
" />
<path d="M47828 24185
L47669 24026
" />
<path d="M47470 24384
L47749 24105
" />
<path d="M47152 24066
L47311 24225
" />
<path d="M47232 24145
L47510 23867
L47497 23933
L47497 23986
L47510 24026
" />
<g transform="rotate(45 64758.9 50238.7)">
<text x="64758.9" y="50435.5"
textLength="-1066.84" font-size="-524.934" lengthAdjust="spacingAndGlyphs"
text-anchor="middle" opacity="0">C14</text>
</g>
<path d="M64838 50517
L64838 50543
L64864 50596
L64891 50623
L64944 50649
L64997 50649
L65037 50636
L65103 50596
L65143 50556
L65183 50490
L65196 50450
L65196 50397
L65169 50344
L65143 50318
L65090 50291
L65063 50291
" />
<path d="M64546 50278
L64705 50437
" />
<path d="M64626 50357
L64904 50079
L64891 50145
L64891 50198
L64904 50238
" />
<path d="M64493 49854
L64308 50039
" />
<path d="M64666 49814
L64533 50079
L64361 49907
" />
<g transform="rotate(45 62706.8 46990.9)">
<text x="62706.8" y="47187.8"
textLength="-1066.84" font-size="-524.934" lengthAdjust="spacingAndGlyphs"
text-anchor="middle" opacity="0">C16</text>
</g>
<path d="M62786 47269
L62786 47295
L62812 47348
L62839 47375
L62892 47401
L62945 47401
L62985 47388
L63051 47348
L63091 47309
L63131 47242
L63144 47203
L63144 47149
L63117 47096
L63091 47070
L63038 47043
L63011 47043
" />
<path d="M62494 47030
L62653 47189
" />
<path d="M62574 47110
L62852 46831
L62839 46898
L62839 46951
L62852 46990
" />
<path d="M62534 46513
L62587 46566
L62600 46606
L62600 46632
L62587 46699
L62547 46765
L62441 46871
L62401 46884
L62375 46884
L62335 46871
L62282 46818
L62269 46778
L62269 46752
L62282 46712
L62348 46646
L62388 46632
L62415 46632
L62454 46646
L62507 46699
L62521 46739
L62521 46765
L62507 46805
" />
<g transform="rotate(45 60929.9 48732.4)">
<text x="60929.9" y="48929.3"
textLength="-1066.84" font-size="-524.934" lengthAdjust="spacingAndGlyphs"
text-anchor="middle" opacity="0">C17</text>
</g>
<path d="M61009 49010
L61009 49037
L61035 49090
L61062 49116
L61115 49143
L61168 49143
L61208 49130
L61274 49090
L61314 49050
L61354 48984
L61367 48944
L61367 48891
L61340 48838
L61314 48811
L61261 48785
L61234 48785
" />
<path d="M60717 48772
L60876 48931
" />
<path d="M60797 48851
L61075 48573
L61062 48639
L61062 48692
L61075 48732
" />
<path d="M60903 48401
L60717 48215
L60558 48613
" />
<g transform="rotate(45 63756.5 45982.9)">
<text x="63756.5" y="46179.7"
textLength="-1066.84" font-size="-524.934" lengthAdjust="spacingAndGlyphs"
text-anchor="middle" opacity="0">C18</text>
</g>
<path d="M63836 46261
L63836 46287
L63862 46340
L63889 46367
L63942 46393
L63995 46393
L64034 46380
L64101 46340
L64140 46301
L64180 46234
L64193 46195
L64193 46141
L64167 46088
L64140 46062
L64087 46035
L64061 46035
" />
<path d="M63544 46022
L63703 46181
" />
<path d="M63623 46102
L63902 45823
L63889 45890
L63889 45943
L63902 45982
" />
<path d="M63544 45704
L63584 45717
L63610 45717
L63650 45704
L63663 45691
L63676 45651
L63676 45624
L63663 45585
L63610 45532
L63570 45518
L63544 45518
L63504 45532
L63491 45545
L63478 45585
L63478 45611
L63491 45651
L63544 45704
L63557 45744
L63557 45770
L63544 45810
L63491 45863
L63451 45876
L63425 45876
L63385 45863
L63332 45810
L63319 45770
L63319 45744
L63332 45704
L63385 45651
L63425 45638
L63451 45638
L63491 45651
" />
<g transform="rotate(-45 62227 48339.2)">
<text x="62227" y="48536.1"
textLength="-973.097" font-size="-524.934" lengthAdjust="spacingAndGlyphs"
text-anchor="middle" opacity="0">J10</text>
</g>
<path d="M62299 47961
L62498 48160
L62551 48186
L62604 48186
L62657 48160
L62684 48133
" />
<path d="M62299 48518
L62458 48359
" />
<path d="M62379 48438
L62101 48160
L62167 48173
L62220 48173
L62260 48160
" />
<path d="M61849 48412
L61822 48438
L61809 48478
L61809 48504
L61822 48544
L61862 48610
L61928 48677
L61995 48717
L62034 48730
L62061 48730
L62101 48717
L62127 48690
L62140 48650
L62140 48624
L62127 48584
L62087 48518
L62021 48451
L61955 48412
L61915 48398
L61888 48398
L61849 48412
" />
<g transform="rotate(-45 66601.4 49085.4)">
<text x="66601.4" y="49282.2"
textLength="-691.882" font-size="-524.934" lengthAdjust="spacingAndGlyphs"
text-anchor="middle" opacity="0">R2</text>
</g>
<path d="M66773 49164
L66734 48939
" />
<path d="M66932 49005
L66654 48727
L66548 48833
L66535 48873
L66535 48899
L66548 48939
L66588 48979
L66627 48992
L66654 48992
L66694 48979
L66800 48873
" />
<path d="M66415 49019
L66389 49019
L66349 49032
L66283 49098
L66270 49138
L66270 49164
L66283 49204
L66309 49231
L66362 49257
L66680 49257
L66508 49430
" />
<g transform="rotate(45 63382.6 48866.3)">
<text x="63382.6" y="49063.1"
textLength="-691.882" font-size="-524.934" lengthAdjust="spacingAndGlyphs"
text-anchor="middle" opacity="0">R5</text>
</g>
<path d="M63303 49038
L63528 48998
" />
<path d="M63462 49197
L63740 48919
L63634 48813
L63594 48800
L63568 48800
L63528 48813
L63488 48853
L63475 48892
L63475 48919
L63488 48959
L63594 49065
" />
<path d="M63329 48508
L63462 48640
L63342 48786
L63342 48760
L63329 48720
L63263 48654
L63223 48640
L63197 48640
L63157 48654
L63090 48720
L63077 48760
L63077 48786
L63090 48826
L63157 48892
L63197 48906
L63223 48906
" />
<g transform="rotate(45 52681.1 38421.3)">
<text x="52681.1" y="38618.1"
textLength="-2941.6" font-size="-524.934" lengthAdjust="spacingAndGlyphs"
text-anchor="middle" opacity="0">&lt;- Power</text>
</g>
<path d="M53529 39150
L53662 39442
L53370 39309
" />
<path d="M53317 39097
L53105 38885
" />
<path d="M52654 38646
L52932 38368
L52826 38262
L52787 38248
L52760 38248
L52720 38262
L52681 38301
L52667 38341
L52667 38368
L52681 38408
L52787 38514
" />
<path d="M52336 38328
L52376 38341
L52402 38341
L52442 38328
L52522 38248
L52535 38209
L52535 38182
L52522 38142
L52482 38103
L52442 38089
L52415 38089
L52376 38103
L52296 38182
L52283 38222
L52283 38248
L52296 38288
L52336 38328
" />
<path d="M52336 37957
L52097 38089
L52177 37904
L51991 37983
L52124 37745
" />
<path d="M51739 37705
L51753 37745
L51806 37798
L51845 37811
L51885 37798
L51991 37692
L52005 37652
L51991 37612
L51938 37559
L51898 37546
L51859 37559
L51832 37586
L51938 37745
" />
<path d="M51594 37586
L51779 37400
" />
<path d="M51726 37453
L51739 37413
L51739 37387
L51726 37347
L51700 37320
" />
<g transform="rotate(45 66395.9 46804.1)">
<text x="66395.9" y="47000.9"
textLength="-710.63" font-size="-524.934" lengthAdjust="spacingAndGlyphs"
text-anchor="middle" opacity="0">U3</text>
</g>
<path d="M66760 46863
L66535 47089
L66495 47102
L66468 47102
L66429 47089
L66376 47036
L66362 46996
L66362 46969
L66376 46930
L66601 46704
" />
<path d="M66495 46598
L66323 46426
L66309 46625
L66269 46585
L66230 46572
L66203 46572
L66163 46585
L66097 46651
L66084 46691
L66084 46717
L66097 46757
L66177 46837
L66216 46850
L66243 46850
" />
<g transform="rotate(45 61673.6 44221.2)">
<text x="61673.6" y="44418.1"
textLength="-710.63" font-size="-524.934" lengthAdjust="spacingAndGlyphs"
text-anchor="middle" opacity="0">U4</text>
</g>
<path d="M62038 44280
L61812 44506
L61772 44519
L61746 44519
L61706 44506
L61653 44453
L61640 44413
L61640 44386
L61653 44347
L61879 44121
" />
<path d="M61534 43962
L61348 44148
" />
<path d="M61706 43922
L61574 44188
L61401 44015
" />
<g >
</g>
</g> 
</svg>
