G04 #@! TF.GenerationSoftware,KiCad,Pcbnew,5.1.2*
G04 #@! TF.CreationDate,2019-07-09T10:26:50-05:00*
G04 #@! TF.ProjectId,KokiriEmerald,4b6f6b69-7269-4456-9d65-72616c642e6b,rev?*
G04 #@! TF.SameCoordinates,Original*
G04 #@! TF.FileFunction,Legend,Top*
G04 #@! TF.FilePolarity,Positive*
%FSLAX46Y46*%
G04 Gerber Fmt 4.6, Leading zero omitted, Abs format (unit mm)*
G04 Created by KiCad (PCBNEW 5.1.2) date 2019-07-09 10:26:50*
%MOMM*%
%LPD*%
G04 APERTURE LIST*
%ADD10C,0.010000*%
G04 APERTURE END LIST*
D10*
G36*
X152218098Y-101420662D02*
G01*
X152196620Y-101503527D01*
X152128683Y-101599779D01*
X152019977Y-101716619D01*
X151905140Y-101839827D01*
X151893085Y-101852744D01*
X151802624Y-101958768D01*
X151704828Y-102087244D01*
X151614271Y-102217103D01*
X151545526Y-102327276D01*
X151513169Y-102396693D01*
X151512333Y-102403176D01*
X151493227Y-102472009D01*
X151441118Y-102598708D01*
X151363815Y-102766960D01*
X151269129Y-102960450D01*
X151164873Y-103162865D01*
X151058856Y-103357893D01*
X151035132Y-103399833D01*
X150958088Y-103528806D01*
X150843469Y-103712530D01*
X150697762Y-103941214D01*
X150527453Y-104205065D01*
X150339028Y-104494293D01*
X150138973Y-104799107D01*
X149933774Y-105109715D01*
X149729919Y-105416325D01*
X149533892Y-105709147D01*
X149352180Y-105978390D01*
X149191270Y-106214260D01*
X149057648Y-106406969D01*
X148957799Y-106546723D01*
X148903827Y-106617167D01*
X148728177Y-106827499D01*
X148585431Y-106998554D01*
X148454175Y-107155996D01*
X148409321Y-107209833D01*
X148305631Y-107338831D01*
X148208740Y-107466562D01*
X148177614Y-107510148D01*
X148075668Y-107638459D01*
X147918875Y-107811090D01*
X147717335Y-108018043D01*
X147481149Y-108249320D01*
X147220417Y-108494925D01*
X146945240Y-108744861D01*
X146805289Y-108868418D01*
X146554557Y-109086973D01*
X146355963Y-109256571D01*
X146197944Y-109384026D01*
X146068937Y-109476154D01*
X145957378Y-109539770D01*
X145851704Y-109581689D01*
X145740352Y-109608726D01*
X145611759Y-109627696D01*
X145494424Y-109641017D01*
X145269580Y-109669666D01*
X145032235Y-109706332D01*
X144824550Y-109744344D01*
X144774757Y-109754917D01*
X144514698Y-109810161D01*
X144282325Y-109852723D01*
X144046744Y-109887346D01*
X143777058Y-109918774D01*
X143574833Y-109939157D01*
X143348896Y-109964228D01*
X143120558Y-109994929D01*
X142923242Y-110026534D01*
X142834000Y-110043888D01*
X142462376Y-110119412D01*
X142122952Y-110176032D01*
X141767530Y-110221388D01*
X141606333Y-110238467D01*
X141364425Y-110264341D01*
X141157618Y-110290541D01*
X140954764Y-110321767D01*
X140724716Y-110362719D01*
X140505667Y-110404574D01*
X140375245Y-110426039D01*
X140184575Y-110452471D01*
X139957687Y-110480749D01*
X139718612Y-110507750D01*
X139680167Y-110511813D01*
X139427896Y-110540512D01*
X139170899Y-110573709D01*
X138938173Y-110607428D01*
X138758719Y-110637689D01*
X138748833Y-110639588D01*
X138409882Y-110702561D01*
X138123978Y-110748397D01*
X137862189Y-110781109D01*
X137595579Y-110804712D01*
X137521167Y-110809901D01*
X137310430Y-110828786D01*
X137095556Y-110855983D01*
X136916547Y-110886269D01*
X136886167Y-110892779D01*
X136573079Y-110956892D01*
X136242944Y-111009891D01*
X135870674Y-111055444D01*
X135573833Y-111084661D01*
X135356766Y-111106065D01*
X135153935Y-111129041D01*
X134989703Y-111150656D01*
X134896500Y-111166212D01*
X134523791Y-111240522D01*
X134208962Y-111294762D01*
X133928591Y-111332499D01*
X133659258Y-111357297D01*
X133626500Y-111359578D01*
X133390841Y-111382954D01*
X133118134Y-111421382D01*
X132853162Y-111468197D01*
X132747422Y-111490439D01*
X132389166Y-111564768D01*
X132109604Y-111609216D01*
X131908879Y-111623768D01*
X131787138Y-111608410D01*
X131756341Y-111589940D01*
X131732777Y-111510758D01*
X131758443Y-111397720D01*
X131825550Y-111279558D01*
X131847746Y-111252744D01*
X131896233Y-111183569D01*
X131966972Y-111065414D01*
X132038576Y-110935167D01*
X132113507Y-110793003D01*
X132213791Y-110602596D01*
X132325371Y-110390640D01*
X132417531Y-110215500D01*
X132530858Y-110002626D01*
X132648475Y-109785942D01*
X132755012Y-109593550D01*
X132822718Y-109474667D01*
X132920340Y-109306058D01*
X133018159Y-109135602D01*
X133090028Y-109009000D01*
X133180860Y-108862927D01*
X133282036Y-108721888D01*
X133316565Y-108679443D01*
X133389994Y-108586286D01*
X133432096Y-108518025D01*
X133436000Y-108504355D01*
X133464997Y-108454473D01*
X133536716Y-108373329D01*
X133628245Y-108283152D01*
X133716674Y-108206167D01*
X133779093Y-108164600D01*
X133788547Y-108162333D01*
X133843386Y-108145351D01*
X133950891Y-108100857D01*
X134086114Y-108039261D01*
X134227946Y-107982739D01*
X134421888Y-107924030D01*
X134676670Y-107860905D01*
X135001018Y-107791137D01*
X135256333Y-107740581D01*
X135563697Y-107680877D01*
X135880338Y-107618668D01*
X136183640Y-107558447D01*
X136450986Y-107504705D01*
X136659760Y-107461936D01*
X136674500Y-107458863D01*
X137010075Y-107390184D01*
X137373007Y-107318357D01*
X137745631Y-107246676D01*
X138110285Y-107178437D01*
X138449303Y-107116932D01*
X138745022Y-107065457D01*
X138979779Y-107027305D01*
X139025004Y-107020509D01*
X139194585Y-106991725D01*
X139360686Y-106957510D01*
X139427171Y-106941278D01*
X139552613Y-106909874D01*
X139725321Y-106869184D01*
X139909748Y-106827565D01*
X139925233Y-106824164D01*
X140081980Y-106786689D01*
X140203639Y-106751731D01*
X140268948Y-106725573D01*
X140274017Y-106721085D01*
X140270658Y-106677825D01*
X140202558Y-106638406D01*
X140066707Y-106602405D01*
X139860095Y-106569400D01*
X139579714Y-106538969D01*
X139222554Y-106510689D01*
X138785607Y-106484137D01*
X138473667Y-106468375D01*
X138040505Y-106444418D01*
X137689532Y-106417349D01*
X137418314Y-106386835D01*
X137224418Y-106352544D01*
X137105412Y-106314143D01*
X137060082Y-106275177D01*
X137067825Y-106187412D01*
X137147579Y-106099011D01*
X137287389Y-106020209D01*
X137406724Y-105978437D01*
X137576026Y-105921757D01*
X137742084Y-105852504D01*
X137817500Y-105814281D01*
X137959678Y-105744520D01*
X138132008Y-105674097D01*
X138219667Y-105643432D01*
X138392872Y-105581136D01*
X138569385Y-105507918D01*
X138643000Y-105473435D01*
X138803152Y-105407590D01*
X138973990Y-105357312D01*
X139024000Y-105347330D01*
X139171554Y-105314317D01*
X139350066Y-105262344D01*
X139468500Y-105221698D01*
X139620778Y-105176666D01*
X139817739Y-105133966D01*
X140029395Y-105098483D01*
X140225759Y-105075102D01*
X140376842Y-105068710D01*
X140399833Y-105069969D01*
X140455576Y-105072341D01*
X140579340Y-105076451D01*
X140754511Y-105081780D01*
X140964476Y-105087811D01*
X141034833Y-105089764D01*
X141276771Y-105099327D01*
X141512875Y-105113758D01*
X141718005Y-105131198D01*
X141867018Y-105149792D01*
X141881500Y-105152295D01*
X142317615Y-105202275D01*
X142718573Y-105183972D01*
X143101410Y-105095771D01*
X143311140Y-105016572D01*
X143446203Y-104964046D01*
X143597694Y-104912214D01*
X143617167Y-104906148D01*
X143769053Y-104856408D01*
X143964006Y-104788253D01*
X144166368Y-104714419D01*
X144336833Y-104649094D01*
X144410977Y-104623197D01*
X144545352Y-104579451D01*
X144719154Y-104524538D01*
X144866000Y-104479084D01*
X145061946Y-104417388D01*
X145240110Y-104358452D01*
X145377206Y-104310131D01*
X145437500Y-104286283D01*
X145539385Y-104244448D01*
X145690629Y-104186318D01*
X145860690Y-104123602D01*
X145882000Y-104115933D01*
X146106847Y-104031623D01*
X146335887Y-103939551D01*
X146543537Y-103850436D01*
X146704211Y-103774995D01*
X146738713Y-103757019D01*
X146818805Y-103720931D01*
X146936353Y-103675250D01*
X147060448Y-103631097D01*
X147160184Y-103599590D01*
X147200327Y-103590949D01*
X147229734Y-103626137D01*
X147253496Y-103693959D01*
X147251666Y-103806986D01*
X147211399Y-103961837D01*
X147143012Y-104131116D01*
X147056823Y-104287425D01*
X147001679Y-104362614D01*
X146932496Y-104470111D01*
X146898670Y-104572284D01*
X146898000Y-104584271D01*
X146902639Y-104643556D01*
X146931250Y-104663446D01*
X147005874Y-104649282D01*
X147077917Y-104627876D01*
X147229887Y-104566897D01*
X147440881Y-104460281D01*
X147702187Y-104313187D01*
X148005093Y-104130778D01*
X148340889Y-103918213D01*
X148700863Y-103680653D01*
X148866500Y-103568284D01*
X149222710Y-103324501D01*
X149520947Y-103120111D01*
X149773208Y-102946842D01*
X149991491Y-102796418D01*
X150187795Y-102660563D01*
X150374117Y-102531003D01*
X150562456Y-102399464D01*
X150644500Y-102342018D01*
X150850711Y-102198336D01*
X151049162Y-102061476D01*
X151222043Y-101943620D01*
X151351543Y-101856955D01*
X151390763Y-101831477D01*
X151539766Y-101735451D01*
X151711693Y-101623262D01*
X151814097Y-101555759D01*
X151945190Y-101472132D01*
X152057232Y-101406370D01*
X152117186Y-101376556D01*
X152191308Y-101372282D01*
X152218098Y-101420662D01*
X152218098Y-101420662D01*
G37*
X152218098Y-101420662D02*
X152196620Y-101503527D01*
X152128683Y-101599779D01*
X152019977Y-101716619D01*
X151905140Y-101839827D01*
X151893085Y-101852744D01*
X151802624Y-101958768D01*
X151704828Y-102087244D01*
X151614271Y-102217103D01*
X151545526Y-102327276D01*
X151513169Y-102396693D01*
X151512333Y-102403176D01*
X151493227Y-102472009D01*
X151441118Y-102598708D01*
X151363815Y-102766960D01*
X151269129Y-102960450D01*
X151164873Y-103162865D01*
X151058856Y-103357893D01*
X151035132Y-103399833D01*
X150958088Y-103528806D01*
X150843469Y-103712530D01*
X150697762Y-103941214D01*
X150527453Y-104205065D01*
X150339028Y-104494293D01*
X150138973Y-104799107D01*
X149933774Y-105109715D01*
X149729919Y-105416325D01*
X149533892Y-105709147D01*
X149352180Y-105978390D01*
X149191270Y-106214260D01*
X149057648Y-106406969D01*
X148957799Y-106546723D01*
X148903827Y-106617167D01*
X148728177Y-106827499D01*
X148585431Y-106998554D01*
X148454175Y-107155996D01*
X148409321Y-107209833D01*
X148305631Y-107338831D01*
X148208740Y-107466562D01*
X148177614Y-107510148D01*
X148075668Y-107638459D01*
X147918875Y-107811090D01*
X147717335Y-108018043D01*
X147481149Y-108249320D01*
X147220417Y-108494925D01*
X146945240Y-108744861D01*
X146805289Y-108868418D01*
X146554557Y-109086973D01*
X146355963Y-109256571D01*
X146197944Y-109384026D01*
X146068937Y-109476154D01*
X145957378Y-109539770D01*
X145851704Y-109581689D01*
X145740352Y-109608726D01*
X145611759Y-109627696D01*
X145494424Y-109641017D01*
X145269580Y-109669666D01*
X145032235Y-109706332D01*
X144824550Y-109744344D01*
X144774757Y-109754917D01*
X144514698Y-109810161D01*
X144282325Y-109852723D01*
X144046744Y-109887346D01*
X143777058Y-109918774D01*
X143574833Y-109939157D01*
X143348896Y-109964228D01*
X143120558Y-109994929D01*
X142923242Y-110026534D01*
X142834000Y-110043888D01*
X142462376Y-110119412D01*
X142122952Y-110176032D01*
X141767530Y-110221388D01*
X141606333Y-110238467D01*
X141364425Y-110264341D01*
X141157618Y-110290541D01*
X140954764Y-110321767D01*
X140724716Y-110362719D01*
X140505667Y-110404574D01*
X140375245Y-110426039D01*
X140184575Y-110452471D01*
X139957687Y-110480749D01*
X139718612Y-110507750D01*
X139680167Y-110511813D01*
X139427896Y-110540512D01*
X139170899Y-110573709D01*
X138938173Y-110607428D01*
X138758719Y-110637689D01*
X138748833Y-110639588D01*
X138409882Y-110702561D01*
X138123978Y-110748397D01*
X137862189Y-110781109D01*
X137595579Y-110804712D01*
X137521167Y-110809901D01*
X137310430Y-110828786D01*
X137095556Y-110855983D01*
X136916547Y-110886269D01*
X136886167Y-110892779D01*
X136573079Y-110956892D01*
X136242944Y-111009891D01*
X135870674Y-111055444D01*
X135573833Y-111084661D01*
X135356766Y-111106065D01*
X135153935Y-111129041D01*
X134989703Y-111150656D01*
X134896500Y-111166212D01*
X134523791Y-111240522D01*
X134208962Y-111294762D01*
X133928591Y-111332499D01*
X133659258Y-111357297D01*
X133626500Y-111359578D01*
X133390841Y-111382954D01*
X133118134Y-111421382D01*
X132853162Y-111468197D01*
X132747422Y-111490439D01*
X132389166Y-111564768D01*
X132109604Y-111609216D01*
X131908879Y-111623768D01*
X131787138Y-111608410D01*
X131756341Y-111589940D01*
X131732777Y-111510758D01*
X131758443Y-111397720D01*
X131825550Y-111279558D01*
X131847746Y-111252744D01*
X131896233Y-111183569D01*
X131966972Y-111065414D01*
X132038576Y-110935167D01*
X132113507Y-110793003D01*
X132213791Y-110602596D01*
X132325371Y-110390640D01*
X132417531Y-110215500D01*
X132530858Y-110002626D01*
X132648475Y-109785942D01*
X132755012Y-109593550D01*
X132822718Y-109474667D01*
X132920340Y-109306058D01*
X133018159Y-109135602D01*
X133090028Y-109009000D01*
X133180860Y-108862927D01*
X133282036Y-108721888D01*
X133316565Y-108679443D01*
X133389994Y-108586286D01*
X133432096Y-108518025D01*
X133436000Y-108504355D01*
X133464997Y-108454473D01*
X133536716Y-108373329D01*
X133628245Y-108283152D01*
X133716674Y-108206167D01*
X133779093Y-108164600D01*
X133788547Y-108162333D01*
X133843386Y-108145351D01*
X133950891Y-108100857D01*
X134086114Y-108039261D01*
X134227946Y-107982739D01*
X134421888Y-107924030D01*
X134676670Y-107860905D01*
X135001018Y-107791137D01*
X135256333Y-107740581D01*
X135563697Y-107680877D01*
X135880338Y-107618668D01*
X136183640Y-107558447D01*
X136450986Y-107504705D01*
X136659760Y-107461936D01*
X136674500Y-107458863D01*
X137010075Y-107390184D01*
X137373007Y-107318357D01*
X137745631Y-107246676D01*
X138110285Y-107178437D01*
X138449303Y-107116932D01*
X138745022Y-107065457D01*
X138979779Y-107027305D01*
X139025004Y-107020509D01*
X139194585Y-106991725D01*
X139360686Y-106957510D01*
X139427171Y-106941278D01*
X139552613Y-106909874D01*
X139725321Y-106869184D01*
X139909748Y-106827565D01*
X139925233Y-106824164D01*
X140081980Y-106786689D01*
X140203639Y-106751731D01*
X140268948Y-106725573D01*
X140274017Y-106721085D01*
X140270658Y-106677825D01*
X140202558Y-106638406D01*
X140066707Y-106602405D01*
X139860095Y-106569400D01*
X139579714Y-106538969D01*
X139222554Y-106510689D01*
X138785607Y-106484137D01*
X138473667Y-106468375D01*
X138040505Y-106444418D01*
X137689532Y-106417349D01*
X137418314Y-106386835D01*
X137224418Y-106352544D01*
X137105412Y-106314143D01*
X137060082Y-106275177D01*
X137067825Y-106187412D01*
X137147579Y-106099011D01*
X137287389Y-106020209D01*
X137406724Y-105978437D01*
X137576026Y-105921757D01*
X137742084Y-105852504D01*
X137817500Y-105814281D01*
X137959678Y-105744520D01*
X138132008Y-105674097D01*
X138219667Y-105643432D01*
X138392872Y-105581136D01*
X138569385Y-105507918D01*
X138643000Y-105473435D01*
X138803152Y-105407590D01*
X138973990Y-105357312D01*
X139024000Y-105347330D01*
X139171554Y-105314317D01*
X139350066Y-105262344D01*
X139468500Y-105221698D01*
X139620778Y-105176666D01*
X139817739Y-105133966D01*
X140029395Y-105098483D01*
X140225759Y-105075102D01*
X140376842Y-105068710D01*
X140399833Y-105069969D01*
X140455576Y-105072341D01*
X140579340Y-105076451D01*
X140754511Y-105081780D01*
X140964476Y-105087811D01*
X141034833Y-105089764D01*
X141276771Y-105099327D01*
X141512875Y-105113758D01*
X141718005Y-105131198D01*
X141867018Y-105149792D01*
X141881500Y-105152295D01*
X142317615Y-105202275D01*
X142718573Y-105183972D01*
X143101410Y-105095771D01*
X143311140Y-105016572D01*
X143446203Y-104964046D01*
X143597694Y-104912214D01*
X143617167Y-104906148D01*
X143769053Y-104856408D01*
X143964006Y-104788253D01*
X144166368Y-104714419D01*
X144336833Y-104649094D01*
X144410977Y-104623197D01*
X144545352Y-104579451D01*
X144719154Y-104524538D01*
X144866000Y-104479084D01*
X145061946Y-104417388D01*
X145240110Y-104358452D01*
X145377206Y-104310131D01*
X145437500Y-104286283D01*
X145539385Y-104244448D01*
X145690629Y-104186318D01*
X145860690Y-104123602D01*
X145882000Y-104115933D01*
X146106847Y-104031623D01*
X146335887Y-103939551D01*
X146543537Y-103850436D01*
X146704211Y-103774995D01*
X146738713Y-103757019D01*
X146818805Y-103720931D01*
X146936353Y-103675250D01*
X147060448Y-103631097D01*
X147160184Y-103599590D01*
X147200327Y-103590949D01*
X147229734Y-103626137D01*
X147253496Y-103693959D01*
X147251666Y-103806986D01*
X147211399Y-103961837D01*
X147143012Y-104131116D01*
X147056823Y-104287425D01*
X147001679Y-104362614D01*
X146932496Y-104470111D01*
X146898670Y-104572284D01*
X146898000Y-104584271D01*
X146902639Y-104643556D01*
X146931250Y-104663446D01*
X147005874Y-104649282D01*
X147077917Y-104627876D01*
X147229887Y-104566897D01*
X147440881Y-104460281D01*
X147702187Y-104313187D01*
X148005093Y-104130778D01*
X148340889Y-103918213D01*
X148700863Y-103680653D01*
X148866500Y-103568284D01*
X149222710Y-103324501D01*
X149520947Y-103120111D01*
X149773208Y-102946842D01*
X149991491Y-102796418D01*
X150187795Y-102660563D01*
X150374117Y-102531003D01*
X150562456Y-102399464D01*
X150644500Y-102342018D01*
X150850711Y-102198336D01*
X151049162Y-102061476D01*
X151222043Y-101943620D01*
X151351543Y-101856955D01*
X151390763Y-101831477D01*
X151539766Y-101735451D01*
X151711693Y-101623262D01*
X151814097Y-101555759D01*
X151945190Y-101472132D01*
X152057232Y-101406370D01*
X152117186Y-101376556D01*
X152191308Y-101372282D01*
X152218098Y-101420662D01*
G36*
X152735213Y-82868900D02*
G01*
X152871141Y-82927140D01*
X153003683Y-83004601D01*
X153187082Y-83113895D01*
X153397075Y-83230874D01*
X153560006Y-83315881D01*
X153699283Y-83394325D01*
X153848503Y-83498289D01*
X154020129Y-83637739D01*
X154226625Y-83822642D01*
X154411880Y-83997146D01*
X154716625Y-84278093D01*
X154971810Y-84490863D01*
X155177774Y-84635678D01*
X155334850Y-84712764D01*
X155443377Y-84722344D01*
X155475098Y-84705850D01*
X155546688Y-84676211D01*
X155643079Y-84703443D01*
X155783594Y-84752299D01*
X155871628Y-84744685D01*
X155908094Y-84677681D01*
X155893904Y-84548365D01*
X155829970Y-84353816D01*
X155785944Y-84245922D01*
X155721535Y-84075765D01*
X155685535Y-83939899D01*
X155682963Y-83860489D01*
X155742580Y-83793552D01*
X155847979Y-83782170D01*
X155947324Y-83813771D01*
X156031001Y-83854095D01*
X156150211Y-83911526D01*
X156188953Y-83930187D01*
X156290657Y-83995512D01*
X156390823Y-84097573D01*
X156497489Y-84247446D01*
X156618693Y-84456208D01*
X156739288Y-84688500D01*
X156816796Y-84866981D01*
X156840083Y-84995270D01*
X156809196Y-85088165D01*
X156740721Y-85150129D01*
X156653261Y-85236258D01*
X156578505Y-85355772D01*
X156571387Y-85371834D01*
X156523153Y-85509884D01*
X156508305Y-85632511D01*
X156531551Y-85757349D01*
X156597597Y-85902033D01*
X156711151Y-86084198D01*
X156793417Y-86203699D01*
X157019090Y-86518286D01*
X157263645Y-86846772D01*
X157514949Y-87173725D01*
X157760867Y-87483714D01*
X157989267Y-87761308D01*
X158188015Y-87991076D01*
X158264929Y-88075167D01*
X158397235Y-88222190D01*
X158507444Y-88355489D01*
X158582140Y-88458179D01*
X158607006Y-88505732D01*
X158599219Y-88614342D01*
X158534688Y-88762988D01*
X158524301Y-88781116D01*
X158453344Y-88922891D01*
X158380574Y-89101598D01*
X158315294Y-89290026D01*
X158266807Y-89460963D01*
X158244417Y-89587201D01*
X158243879Y-89601283D01*
X158227363Y-89692007D01*
X158207844Y-89728283D01*
X158165623Y-89801706D01*
X158108001Y-89935213D01*
X158042574Y-90107403D01*
X157976940Y-90296877D01*
X157918696Y-90482236D01*
X157875440Y-90642081D01*
X157862918Y-90699833D01*
X157814699Y-90890569D01*
X157746113Y-91092846D01*
X157706924Y-91186555D01*
X157640508Y-91350837D01*
X157571947Y-91552657D01*
X157519158Y-91736888D01*
X157464447Y-91923449D01*
X157398447Y-92106510D01*
X157335848Y-92245622D01*
X157266158Y-92408251D01*
X157218468Y-92585853D01*
X157193774Y-92760522D01*
X157193073Y-92914351D01*
X157217360Y-93029432D01*
X157267631Y-93087858D01*
X157288787Y-93091667D01*
X157348486Y-93056420D01*
X157375500Y-93007000D01*
X157413689Y-92931572D01*
X157449153Y-92933284D01*
X157474127Y-93004760D01*
X157481333Y-93107511D01*
X157449967Y-93350964D01*
X157358008Y-93638575D01*
X157287833Y-93800647D01*
X157243340Y-93986772D01*
X157250462Y-94082070D01*
X157256086Y-94238270D01*
X157230493Y-94441045D01*
X157179217Y-94660694D01*
X157107792Y-94867517D01*
X157101254Y-94882895D01*
X157059782Y-95013710D01*
X157022251Y-95192417D01*
X156996240Y-95382317D01*
X156994712Y-95398833D01*
X156965915Y-95613869D01*
X156919804Y-95845554D01*
X156869286Y-96033833D01*
X156816025Y-96233869D01*
X156770486Y-96466111D01*
X156744037Y-96666442D01*
X156717858Y-96867314D01*
X156677662Y-97072015D01*
X156632102Y-97236564D01*
X156631619Y-97237942D01*
X156585621Y-97393007D01*
X156537426Y-97594378D01*
X156495842Y-97804412D01*
X156487461Y-97854167D01*
X156448044Y-98064077D01*
X156398764Y-98278243D01*
X156348913Y-98457112D01*
X156338320Y-98489167D01*
X156282273Y-98679642D01*
X156232990Y-98894542D01*
X156211444Y-99018534D01*
X156177048Y-99202366D01*
X156124717Y-99418514D01*
X156066444Y-99618031D01*
X156006809Y-99828209D01*
X155954264Y-100061047D01*
X155921767Y-100255246D01*
X155872892Y-100504443D01*
X155793034Y-100763791D01*
X155750782Y-100869344D01*
X155666391Y-101090923D01*
X155625764Y-101282082D01*
X155618667Y-101412264D01*
X155613714Y-101556753D01*
X155589713Y-101651630D01*
X155532944Y-101731782D01*
X155467486Y-101796751D01*
X155362278Y-101880995D01*
X155267735Y-101932175D01*
X155234652Y-101939333D01*
X155167528Y-101958401D01*
X155153000Y-101983437D01*
X155128610Y-102046476D01*
X155072567Y-102112985D01*
X155010561Y-102158873D01*
X154968283Y-102160051D01*
X154966830Y-102158007D01*
X154957371Y-102085383D01*
X154965622Y-102052295D01*
X154967182Y-101964804D01*
X154947127Y-101907827D01*
X154929694Y-101832626D01*
X154945624Y-101814140D01*
X155067974Y-101814140D01*
X155097437Y-101869660D01*
X155158729Y-101886809D01*
X155208586Y-101845145D01*
X155216500Y-101809385D01*
X155181310Y-101752119D01*
X155142417Y-101735726D01*
X155082989Y-101753892D01*
X155067974Y-101814140D01*
X154945624Y-101814140D01*
X154983623Y-101770045D01*
X154986201Y-101768173D01*
X155050928Y-101694890D01*
X155068333Y-101640025D01*
X155090974Y-101567330D01*
X155148880Y-101456903D01*
X155194563Y-101384787D01*
X155248046Y-101302104D01*
X155283860Y-101228477D01*
X155305615Y-101144302D01*
X155316922Y-101029977D01*
X155321392Y-100865900D01*
X155322456Y-100690500D01*
X155330727Y-100312481D01*
X155352140Y-99871019D01*
X155384930Y-99386013D01*
X155427333Y-98877365D01*
X155477587Y-98364974D01*
X155533926Y-97868741D01*
X155594587Y-97408567D01*
X155639526Y-97113333D01*
X155695556Y-96814649D01*
X155772679Y-96468640D01*
X155866097Y-96092088D01*
X155971009Y-95701772D01*
X156082620Y-95314473D01*
X156196129Y-94946969D01*
X156306739Y-94616043D01*
X156409651Y-94338472D01*
X156480858Y-94171167D01*
X156610174Y-93866956D01*
X156687319Y-93619657D01*
X156713420Y-93420395D01*
X156689602Y-93260294D01*
X156616993Y-93130481D01*
X156613500Y-93126280D01*
X156544551Y-93028989D01*
X156508983Y-92948808D01*
X156507667Y-92937307D01*
X156474521Y-92889795D01*
X156418793Y-92887639D01*
X156344977Y-92934650D01*
X156274213Y-93055424D01*
X156204312Y-93254311D01*
X156169046Y-93384234D01*
X156116734Y-93523200D01*
X156047261Y-93643937D01*
X155997176Y-93732816D01*
X155931324Y-93878776D01*
X155859868Y-94058298D01*
X155816957Y-94176869D01*
X155732542Y-94411852D01*
X155632224Y-94679191D01*
X155533219Y-94933324D01*
X155499164Y-95017833D01*
X155388159Y-95295857D01*
X155257311Y-95633551D01*
X155114373Y-96010542D01*
X154967101Y-96406459D01*
X154878774Y-96647667D01*
X154823744Y-96780987D01*
X154767051Y-96891716D01*
X154748237Y-96920558D01*
X154702374Y-96971966D01*
X154666730Y-96983828D01*
X154640443Y-96949559D01*
X154622652Y-96862572D01*
X154612497Y-96716280D01*
X154609115Y-96504098D01*
X154611647Y-96219440D01*
X154617658Y-95921865D01*
X154634397Y-95281162D01*
X154653025Y-94720486D01*
X154673824Y-94235211D01*
X154697078Y-93820712D01*
X154723071Y-93472363D01*
X154752088Y-93185540D01*
X154784412Y-92955618D01*
X154807096Y-92835583D01*
X154853691Y-92600454D01*
X154899721Y-92339326D01*
X154936760Y-92100633D01*
X154943329Y-92052416D01*
X154978106Y-91846381D01*
X155025701Y-91639933D01*
X155077099Y-91470976D01*
X155088814Y-91440667D01*
X155152914Y-91277630D01*
X155212012Y-91115620D01*
X155237794Y-91038500D01*
X155278833Y-90922070D01*
X155315808Y-90839614D01*
X155323977Y-90826833D01*
X155351209Y-90769413D01*
X155395678Y-90652392D01*
X155449486Y-90497023D01*
X155471922Y-90428695D01*
X155533684Y-90249015D01*
X155596523Y-90084928D01*
X155649344Y-89964917D01*
X155661525Y-89941861D01*
X155709456Y-89840352D01*
X155770839Y-89686502D01*
X155834434Y-89508957D01*
X155851461Y-89457817D01*
X155906052Y-89287150D01*
X155935796Y-89173617D01*
X155942508Y-89093995D01*
X155928003Y-89025060D01*
X155894097Y-88943588D01*
X155892025Y-88938990D01*
X155831236Y-88823062D01*
X155771435Y-88737504D01*
X155756992Y-88723165D01*
X155690966Y-88641090D01*
X155626777Y-88529172D01*
X156170445Y-88529172D01*
X156175677Y-88638509D01*
X156199147Y-88720435D01*
X156221049Y-88741627D01*
X156289438Y-88739406D01*
X156397362Y-88715419D01*
X156505711Y-88679269D01*
X156541663Y-88662910D01*
X156523254Y-88631142D01*
X156462154Y-88556969D01*
X156409176Y-88497661D01*
X156316154Y-88410755D01*
X156242021Y-88367735D01*
X156216429Y-88368350D01*
X156183884Y-88427446D01*
X156170445Y-88529172D01*
X155626777Y-88529172D01*
X155612784Y-88504775D01*
X155535624Y-88340765D01*
X155472666Y-88175607D01*
X155453527Y-88111906D01*
X155359046Y-87895610D01*
X155192238Y-87688666D01*
X154947987Y-87485270D01*
X154831155Y-87405992D01*
X154661356Y-87284044D01*
X154497727Y-87145903D01*
X154371018Y-87017922D01*
X154353148Y-86996289D01*
X154219639Y-86832488D01*
X154054603Y-86637812D01*
X153869683Y-86425202D01*
X153676522Y-86207600D01*
X153486763Y-85997947D01*
X153312048Y-85809183D01*
X153164020Y-85654251D01*
X153054321Y-85546092D01*
X153024378Y-85519327D01*
X152891850Y-85443340D01*
X152698891Y-85381343D01*
X152620925Y-85364543D01*
X152433101Y-85316741D01*
X152242430Y-85249339D01*
X152125283Y-85195025D01*
X151982716Y-85117567D01*
X151850583Y-85046571D01*
X151793952Y-85016564D01*
X151693981Y-84981490D01*
X151540096Y-84946657D01*
X151362803Y-84918774D01*
X151333428Y-84915308D01*
X151170106Y-84894853D01*
X151039429Y-84874439D01*
X150964223Y-84857753D01*
X150956559Y-84854470D01*
X150922058Y-84787963D01*
X150935248Y-84678119D01*
X150993153Y-84549430D01*
X150993750Y-84548455D01*
X151052291Y-84470819D01*
X151157605Y-84348722D01*
X151299988Y-84192078D01*
X151469737Y-84010798D01*
X151657148Y-83814796D01*
X151852517Y-83613982D01*
X152046140Y-83418271D01*
X152228312Y-83237574D01*
X152389332Y-83081803D01*
X152519493Y-82960872D01*
X152609094Y-82884692D01*
X152643850Y-82862886D01*
X152735213Y-82868900D01*
X152735213Y-82868900D01*
G37*
X152735213Y-82868900D02*
X152871141Y-82927140D01*
X153003683Y-83004601D01*
X153187082Y-83113895D01*
X153397075Y-83230874D01*
X153560006Y-83315881D01*
X153699283Y-83394325D01*
X153848503Y-83498289D01*
X154020129Y-83637739D01*
X154226625Y-83822642D01*
X154411880Y-83997146D01*
X154716625Y-84278093D01*
X154971810Y-84490863D01*
X155177774Y-84635678D01*
X155334850Y-84712764D01*
X155443377Y-84722344D01*
X155475098Y-84705850D01*
X155546688Y-84676211D01*
X155643079Y-84703443D01*
X155783594Y-84752299D01*
X155871628Y-84744685D01*
X155908094Y-84677681D01*
X155893904Y-84548365D01*
X155829970Y-84353816D01*
X155785944Y-84245922D01*
X155721535Y-84075765D01*
X155685535Y-83939899D01*
X155682963Y-83860489D01*
X155742580Y-83793552D01*
X155847979Y-83782170D01*
X155947324Y-83813771D01*
X156031001Y-83854095D01*
X156150211Y-83911526D01*
X156188953Y-83930187D01*
X156290657Y-83995512D01*
X156390823Y-84097573D01*
X156497489Y-84247446D01*
X156618693Y-84456208D01*
X156739288Y-84688500D01*
X156816796Y-84866981D01*
X156840083Y-84995270D01*
X156809196Y-85088165D01*
X156740721Y-85150129D01*
X156653261Y-85236258D01*
X156578505Y-85355772D01*
X156571387Y-85371834D01*
X156523153Y-85509884D01*
X156508305Y-85632511D01*
X156531551Y-85757349D01*
X156597597Y-85902033D01*
X156711151Y-86084198D01*
X156793417Y-86203699D01*
X157019090Y-86518286D01*
X157263645Y-86846772D01*
X157514949Y-87173725D01*
X157760867Y-87483714D01*
X157989267Y-87761308D01*
X158188015Y-87991076D01*
X158264929Y-88075167D01*
X158397235Y-88222190D01*
X158507444Y-88355489D01*
X158582140Y-88458179D01*
X158607006Y-88505732D01*
X158599219Y-88614342D01*
X158534688Y-88762988D01*
X158524301Y-88781116D01*
X158453344Y-88922891D01*
X158380574Y-89101598D01*
X158315294Y-89290026D01*
X158266807Y-89460963D01*
X158244417Y-89587201D01*
X158243879Y-89601283D01*
X158227363Y-89692007D01*
X158207844Y-89728283D01*
X158165623Y-89801706D01*
X158108001Y-89935213D01*
X158042574Y-90107403D01*
X157976940Y-90296877D01*
X157918696Y-90482236D01*
X157875440Y-90642081D01*
X157862918Y-90699833D01*
X157814699Y-90890569D01*
X157746113Y-91092846D01*
X157706924Y-91186555D01*
X157640508Y-91350837D01*
X157571947Y-91552657D01*
X157519158Y-91736888D01*
X157464447Y-91923449D01*
X157398447Y-92106510D01*
X157335848Y-92245622D01*
X157266158Y-92408251D01*
X157218468Y-92585853D01*
X157193774Y-92760522D01*
X157193073Y-92914351D01*
X157217360Y-93029432D01*
X157267631Y-93087858D01*
X157288787Y-93091667D01*
X157348486Y-93056420D01*
X157375500Y-93007000D01*
X157413689Y-92931572D01*
X157449153Y-92933284D01*
X157474127Y-93004760D01*
X157481333Y-93107511D01*
X157449967Y-93350964D01*
X157358008Y-93638575D01*
X157287833Y-93800647D01*
X157243340Y-93986772D01*
X157250462Y-94082070D01*
X157256086Y-94238270D01*
X157230493Y-94441045D01*
X157179217Y-94660694D01*
X157107792Y-94867517D01*
X157101254Y-94882895D01*
X157059782Y-95013710D01*
X157022251Y-95192417D01*
X156996240Y-95382317D01*
X156994712Y-95398833D01*
X156965915Y-95613869D01*
X156919804Y-95845554D01*
X156869286Y-96033833D01*
X156816025Y-96233869D01*
X156770486Y-96466111D01*
X156744037Y-96666442D01*
X156717858Y-96867314D01*
X156677662Y-97072015D01*
X156632102Y-97236564D01*
X156631619Y-97237942D01*
X156585621Y-97393007D01*
X156537426Y-97594378D01*
X156495842Y-97804412D01*
X156487461Y-97854167D01*
X156448044Y-98064077D01*
X156398764Y-98278243D01*
X156348913Y-98457112D01*
X156338320Y-98489167D01*
X156282273Y-98679642D01*
X156232990Y-98894542D01*
X156211444Y-99018534D01*
X156177048Y-99202366D01*
X156124717Y-99418514D01*
X156066444Y-99618031D01*
X156006809Y-99828209D01*
X155954264Y-100061047D01*
X155921767Y-100255246D01*
X155872892Y-100504443D01*
X155793034Y-100763791D01*
X155750782Y-100869344D01*
X155666391Y-101090923D01*
X155625764Y-101282082D01*
X155618667Y-101412264D01*
X155613714Y-101556753D01*
X155589713Y-101651630D01*
X155532944Y-101731782D01*
X155467486Y-101796751D01*
X155362278Y-101880995D01*
X155267735Y-101932175D01*
X155234652Y-101939333D01*
X155167528Y-101958401D01*
X155153000Y-101983437D01*
X155128610Y-102046476D01*
X155072567Y-102112985D01*
X155010561Y-102158873D01*
X154968283Y-102160051D01*
X154966830Y-102158007D01*
X154957371Y-102085383D01*
X154965622Y-102052295D01*
X154967182Y-101964804D01*
X154947127Y-101907827D01*
X154929694Y-101832626D01*
X154945624Y-101814140D01*
X155067974Y-101814140D01*
X155097437Y-101869660D01*
X155158729Y-101886809D01*
X155208586Y-101845145D01*
X155216500Y-101809385D01*
X155181310Y-101752119D01*
X155142417Y-101735726D01*
X155082989Y-101753892D01*
X155067974Y-101814140D01*
X154945624Y-101814140D01*
X154983623Y-101770045D01*
X154986201Y-101768173D01*
X155050928Y-101694890D01*
X155068333Y-101640025D01*
X155090974Y-101567330D01*
X155148880Y-101456903D01*
X155194563Y-101384787D01*
X155248046Y-101302104D01*
X155283860Y-101228477D01*
X155305615Y-101144302D01*
X155316922Y-101029977D01*
X155321392Y-100865900D01*
X155322456Y-100690500D01*
X155330727Y-100312481D01*
X155352140Y-99871019D01*
X155384930Y-99386013D01*
X155427333Y-98877365D01*
X155477587Y-98364974D01*
X155533926Y-97868741D01*
X155594587Y-97408567D01*
X155639526Y-97113333D01*
X155695556Y-96814649D01*
X155772679Y-96468640D01*
X155866097Y-96092088D01*
X155971009Y-95701772D01*
X156082620Y-95314473D01*
X156196129Y-94946969D01*
X156306739Y-94616043D01*
X156409651Y-94338472D01*
X156480858Y-94171167D01*
X156610174Y-93866956D01*
X156687319Y-93619657D01*
X156713420Y-93420395D01*
X156689602Y-93260294D01*
X156616993Y-93130481D01*
X156613500Y-93126280D01*
X156544551Y-93028989D01*
X156508983Y-92948808D01*
X156507667Y-92937307D01*
X156474521Y-92889795D01*
X156418793Y-92887639D01*
X156344977Y-92934650D01*
X156274213Y-93055424D01*
X156204312Y-93254311D01*
X156169046Y-93384234D01*
X156116734Y-93523200D01*
X156047261Y-93643937D01*
X155997176Y-93732816D01*
X155931324Y-93878776D01*
X155859868Y-94058298D01*
X155816957Y-94176869D01*
X155732542Y-94411852D01*
X155632224Y-94679191D01*
X155533219Y-94933324D01*
X155499164Y-95017833D01*
X155388159Y-95295857D01*
X155257311Y-95633551D01*
X155114373Y-96010542D01*
X154967101Y-96406459D01*
X154878774Y-96647667D01*
X154823744Y-96780987D01*
X154767051Y-96891716D01*
X154748237Y-96920558D01*
X154702374Y-96971966D01*
X154666730Y-96983828D01*
X154640443Y-96949559D01*
X154622652Y-96862572D01*
X154612497Y-96716280D01*
X154609115Y-96504098D01*
X154611647Y-96219440D01*
X154617658Y-95921865D01*
X154634397Y-95281162D01*
X154653025Y-94720486D01*
X154673824Y-94235211D01*
X154697078Y-93820712D01*
X154723071Y-93472363D01*
X154752088Y-93185540D01*
X154784412Y-92955618D01*
X154807096Y-92835583D01*
X154853691Y-92600454D01*
X154899721Y-92339326D01*
X154936760Y-92100633D01*
X154943329Y-92052416D01*
X154978106Y-91846381D01*
X155025701Y-91639933D01*
X155077099Y-91470976D01*
X155088814Y-91440667D01*
X155152914Y-91277630D01*
X155212012Y-91115620D01*
X155237794Y-91038500D01*
X155278833Y-90922070D01*
X155315808Y-90839614D01*
X155323977Y-90826833D01*
X155351209Y-90769413D01*
X155395678Y-90652392D01*
X155449486Y-90497023D01*
X155471922Y-90428695D01*
X155533684Y-90249015D01*
X155596523Y-90084928D01*
X155649344Y-89964917D01*
X155661525Y-89941861D01*
X155709456Y-89840352D01*
X155770839Y-89686502D01*
X155834434Y-89508957D01*
X155851461Y-89457817D01*
X155906052Y-89287150D01*
X155935796Y-89173617D01*
X155942508Y-89093995D01*
X155928003Y-89025060D01*
X155894097Y-88943588D01*
X155892025Y-88938990D01*
X155831236Y-88823062D01*
X155771435Y-88737504D01*
X155756992Y-88723165D01*
X155690966Y-88641090D01*
X155626777Y-88529172D01*
X156170445Y-88529172D01*
X156175677Y-88638509D01*
X156199147Y-88720435D01*
X156221049Y-88741627D01*
X156289438Y-88739406D01*
X156397362Y-88715419D01*
X156505711Y-88679269D01*
X156541663Y-88662910D01*
X156523254Y-88631142D01*
X156462154Y-88556969D01*
X156409176Y-88497661D01*
X156316154Y-88410755D01*
X156242021Y-88367735D01*
X156216429Y-88368350D01*
X156183884Y-88427446D01*
X156170445Y-88529172D01*
X155626777Y-88529172D01*
X155612784Y-88504775D01*
X155535624Y-88340765D01*
X155472666Y-88175607D01*
X155453527Y-88111906D01*
X155359046Y-87895610D01*
X155192238Y-87688666D01*
X154947987Y-87485270D01*
X154831155Y-87405992D01*
X154661356Y-87284044D01*
X154497727Y-87145903D01*
X154371018Y-87017922D01*
X154353148Y-86996289D01*
X154219639Y-86832488D01*
X154054603Y-86637812D01*
X153869683Y-86425202D01*
X153676522Y-86207600D01*
X153486763Y-85997947D01*
X153312048Y-85809183D01*
X153164020Y-85654251D01*
X153054321Y-85546092D01*
X153024378Y-85519327D01*
X152891850Y-85443340D01*
X152698891Y-85381343D01*
X152620925Y-85364543D01*
X152433101Y-85316741D01*
X152242430Y-85249339D01*
X152125283Y-85195025D01*
X151982716Y-85117567D01*
X151850583Y-85046571D01*
X151793952Y-85016564D01*
X151693981Y-84981490D01*
X151540096Y-84946657D01*
X151362803Y-84918774D01*
X151333428Y-84915308D01*
X151170106Y-84894853D01*
X151039429Y-84874439D01*
X150964223Y-84857753D01*
X150956559Y-84854470D01*
X150922058Y-84787963D01*
X150935248Y-84678119D01*
X150993153Y-84549430D01*
X150993750Y-84548455D01*
X151052291Y-84470819D01*
X151157605Y-84348722D01*
X151299988Y-84192078D01*
X151469737Y-84010798D01*
X151657148Y-83814796D01*
X151852517Y-83613982D01*
X152046140Y-83418271D01*
X152228312Y-83237574D01*
X152389332Y-83081803D01*
X152519493Y-82960872D01*
X152609094Y-82884692D01*
X152643850Y-82862886D01*
X152735213Y-82868900D01*
G36*
X134121158Y-93584080D02*
G01*
X134334509Y-93648015D01*
X134515500Y-93725106D01*
X134745351Y-93824241D01*
X134992561Y-93918447D01*
X135234296Y-94000066D01*
X135447718Y-94061444D01*
X135609991Y-94094925D01*
X135623499Y-94096550D01*
X135737394Y-94119560D01*
X135830167Y-94171761D01*
X135930815Y-94271472D01*
X135967008Y-94313539D01*
X136204491Y-94628647D01*
X136427992Y-94987750D01*
X136557516Y-95233810D01*
X136671075Y-95450697D01*
X136796172Y-95661993D01*
X136919657Y-95847361D01*
X137028381Y-95986462D01*
X137074801Y-96033833D01*
X137176746Y-96091874D01*
X137335103Y-96127720D01*
X137451406Y-96139667D01*
X137603275Y-96154192D01*
X137688665Y-96173524D01*
X137725740Y-96204426D01*
X137732833Y-96244480D01*
X137694994Y-96322382D01*
X137605833Y-96365070D01*
X137433985Y-96422635D01*
X137329193Y-96481839D01*
X137274732Y-96556534D01*
X137254225Y-96656273D01*
X137264385Y-96785043D01*
X137323645Y-96899161D01*
X137440274Y-97005932D01*
X137622542Y-97112666D01*
X137878718Y-97226670D01*
X137917172Y-97242124D01*
X138145229Y-97328321D01*
X138312708Y-97376481D01*
X138435132Y-97385676D01*
X138528023Y-97354980D01*
X138606905Y-97283465D01*
X138669739Y-97197173D01*
X138780691Y-97054164D01*
X138905285Y-96952706D01*
X139061897Y-96884323D01*
X139268903Y-96840538D01*
X139494831Y-96816594D01*
X139765753Y-96802606D01*
X139968281Y-96811274D01*
X140116354Y-96845521D01*
X140223912Y-96908270D01*
X140292175Y-96983771D01*
X140369951Y-97153169D01*
X140374208Y-97343809D01*
X140304048Y-97560652D01*
X140158576Y-97808657D01*
X140137596Y-97838532D01*
X139992099Y-97991779D01*
X139809617Y-98085534D01*
X139575209Y-98126343D01*
X139473676Y-98129333D01*
X139273393Y-98153099D01*
X139141202Y-98223768D01*
X139082009Y-98326637D01*
X139041974Y-98417032D01*
X138964099Y-98545551D01*
X138864774Y-98685295D01*
X138858577Y-98693338D01*
X138742066Y-98846018D01*
X138627739Y-98999450D01*
X138545135Y-99113704D01*
X138454898Y-99228859D01*
X138329406Y-99372641D01*
X138194713Y-99515286D01*
X138185301Y-99524773D01*
X138058513Y-99655043D01*
X137945138Y-99776723D01*
X137867075Y-99866224D01*
X137859833Y-99875328D01*
X137804264Y-99943275D01*
X137704556Y-100061931D01*
X137572064Y-100218063D01*
X137418144Y-100398434D01*
X137254151Y-100589811D01*
X137091439Y-100778959D01*
X136941364Y-100952643D01*
X136815281Y-101097628D01*
X136724545Y-101200680D01*
X136690177Y-101238611D01*
X136597099Y-101288614D01*
X136444595Y-101319541D01*
X136255724Y-101331418D01*
X136053543Y-101324273D01*
X135861109Y-101298133D01*
X135701481Y-101253026D01*
X135666592Y-101237396D01*
X135539715Y-101173626D01*
X135371902Y-101088927D01*
X135197692Y-101000731D01*
X135183697Y-100993633D01*
X135035602Y-100921175D01*
X134914508Y-100866833D01*
X134841627Y-100839986D01*
X134833152Y-100838667D01*
X134777733Y-100818193D01*
X134670814Y-100763850D01*
X134532933Y-100686256D01*
X134494747Y-100663703D01*
X134339447Y-100565862D01*
X134235661Y-100481115D01*
X134159367Y-100384314D01*
X134086543Y-100250309D01*
X134072709Y-100221871D01*
X134007256Y-100071984D01*
X133960913Y-99938798D01*
X133944000Y-99853675D01*
X133925164Y-99758234D01*
X133877085Y-99626628D01*
X133841006Y-99548910D01*
X133767462Y-99379399D01*
X133704175Y-99193415D01*
X133687043Y-99128986D01*
X133635437Y-98955045D01*
X133566729Y-98776772D01*
X133541302Y-98722000D01*
X133474010Y-98560276D01*
X133415704Y-98376416D01*
X133399121Y-98308050D01*
X133360266Y-98161392D01*
X133313970Y-98036171D01*
X133289951Y-97990341D01*
X133246830Y-97898116D01*
X133199676Y-97757902D01*
X133168955Y-97642160D01*
X133120977Y-97470273D01*
X133061688Y-97302794D01*
X133024845Y-97219036D01*
X132967696Y-97069742D01*
X132924744Y-96895250D01*
X132915505Y-96833421D01*
X132867845Y-96632440D01*
X132782519Y-96457097D01*
X132713245Y-96324449D01*
X132677231Y-96194373D01*
X132675500Y-96165509D01*
X132677000Y-96033833D01*
X132737500Y-96139667D01*
X132798000Y-96245500D01*
X132804375Y-96118500D01*
X132804485Y-95950469D01*
X132779997Y-95839103D01*
X132724559Y-95758389D01*
X132713904Y-95747996D01*
X132673799Y-95698099D01*
X132652830Y-95629335D01*
X132647878Y-95520053D01*
X132655828Y-95348604D01*
X132656005Y-95345830D01*
X132672676Y-95168587D01*
X132696970Y-95008370D01*
X132723893Y-94897477D01*
X132726347Y-94890833D01*
X132775844Y-94808765D01*
X132871968Y-94683716D01*
X133000986Y-94530625D01*
X133149169Y-94364434D01*
X133302786Y-94200083D01*
X133448106Y-94052510D01*
X133571397Y-93936657D01*
X133658930Y-93867464D01*
X133675110Y-93858509D01*
X133750345Y-93804165D01*
X133774667Y-93755302D01*
X133803691Y-93684629D01*
X133855084Y-93624679D01*
X133962773Y-93576517D01*
X134121158Y-93584080D01*
X134121158Y-93584080D01*
G37*
X134121158Y-93584080D02*
X134334509Y-93648015D01*
X134515500Y-93725106D01*
X134745351Y-93824241D01*
X134992561Y-93918447D01*
X135234296Y-94000066D01*
X135447718Y-94061444D01*
X135609991Y-94094925D01*
X135623499Y-94096550D01*
X135737394Y-94119560D01*
X135830167Y-94171761D01*
X135930815Y-94271472D01*
X135967008Y-94313539D01*
X136204491Y-94628647D01*
X136427992Y-94987750D01*
X136557516Y-95233810D01*
X136671075Y-95450697D01*
X136796172Y-95661993D01*
X136919657Y-95847361D01*
X137028381Y-95986462D01*
X137074801Y-96033833D01*
X137176746Y-96091874D01*
X137335103Y-96127720D01*
X137451406Y-96139667D01*
X137603275Y-96154192D01*
X137688665Y-96173524D01*
X137725740Y-96204426D01*
X137732833Y-96244480D01*
X137694994Y-96322382D01*
X137605833Y-96365070D01*
X137433985Y-96422635D01*
X137329193Y-96481839D01*
X137274732Y-96556534D01*
X137254225Y-96656273D01*
X137264385Y-96785043D01*
X137323645Y-96899161D01*
X137440274Y-97005932D01*
X137622542Y-97112666D01*
X137878718Y-97226670D01*
X137917172Y-97242124D01*
X138145229Y-97328321D01*
X138312708Y-97376481D01*
X138435132Y-97385676D01*
X138528023Y-97354980D01*
X138606905Y-97283465D01*
X138669739Y-97197173D01*
X138780691Y-97054164D01*
X138905285Y-96952706D01*
X139061897Y-96884323D01*
X139268903Y-96840538D01*
X139494831Y-96816594D01*
X139765753Y-96802606D01*
X139968281Y-96811274D01*
X140116354Y-96845521D01*
X140223912Y-96908270D01*
X140292175Y-96983771D01*
X140369951Y-97153169D01*
X140374208Y-97343809D01*
X140304048Y-97560652D01*
X140158576Y-97808657D01*
X140137596Y-97838532D01*
X139992099Y-97991779D01*
X139809617Y-98085534D01*
X139575209Y-98126343D01*
X139473676Y-98129333D01*
X139273393Y-98153099D01*
X139141202Y-98223768D01*
X139082009Y-98326637D01*
X139041974Y-98417032D01*
X138964099Y-98545551D01*
X138864774Y-98685295D01*
X138858577Y-98693338D01*
X138742066Y-98846018D01*
X138627739Y-98999450D01*
X138545135Y-99113704D01*
X138454898Y-99228859D01*
X138329406Y-99372641D01*
X138194713Y-99515286D01*
X138185301Y-99524773D01*
X138058513Y-99655043D01*
X137945138Y-99776723D01*
X137867075Y-99866224D01*
X137859833Y-99875328D01*
X137804264Y-99943275D01*
X137704556Y-100061931D01*
X137572064Y-100218063D01*
X137418144Y-100398434D01*
X137254151Y-100589811D01*
X137091439Y-100778959D01*
X136941364Y-100952643D01*
X136815281Y-101097628D01*
X136724545Y-101200680D01*
X136690177Y-101238611D01*
X136597099Y-101288614D01*
X136444595Y-101319541D01*
X136255724Y-101331418D01*
X136053543Y-101324273D01*
X135861109Y-101298133D01*
X135701481Y-101253026D01*
X135666592Y-101237396D01*
X135539715Y-101173626D01*
X135371902Y-101088927D01*
X135197692Y-101000731D01*
X135183697Y-100993633D01*
X135035602Y-100921175D01*
X134914508Y-100866833D01*
X134841627Y-100839986D01*
X134833152Y-100838667D01*
X134777733Y-100818193D01*
X134670814Y-100763850D01*
X134532933Y-100686256D01*
X134494747Y-100663703D01*
X134339447Y-100565862D01*
X134235661Y-100481115D01*
X134159367Y-100384314D01*
X134086543Y-100250309D01*
X134072709Y-100221871D01*
X134007256Y-100071984D01*
X133960913Y-99938798D01*
X133944000Y-99853675D01*
X133925164Y-99758234D01*
X133877085Y-99626628D01*
X133841006Y-99548910D01*
X133767462Y-99379399D01*
X133704175Y-99193415D01*
X133687043Y-99128986D01*
X133635437Y-98955045D01*
X133566729Y-98776772D01*
X133541302Y-98722000D01*
X133474010Y-98560276D01*
X133415704Y-98376416D01*
X133399121Y-98308050D01*
X133360266Y-98161392D01*
X133313970Y-98036171D01*
X133289951Y-97990341D01*
X133246830Y-97898116D01*
X133199676Y-97757902D01*
X133168955Y-97642160D01*
X133120977Y-97470273D01*
X133061688Y-97302794D01*
X133024845Y-97219036D01*
X132967696Y-97069742D01*
X132924744Y-96895250D01*
X132915505Y-96833421D01*
X132867845Y-96632440D01*
X132782519Y-96457097D01*
X132713245Y-96324449D01*
X132677231Y-96194373D01*
X132675500Y-96165509D01*
X132677000Y-96033833D01*
X132737500Y-96139667D01*
X132798000Y-96245500D01*
X132804375Y-96118500D01*
X132804485Y-95950469D01*
X132779997Y-95839103D01*
X132724559Y-95758389D01*
X132713904Y-95747996D01*
X132673799Y-95698099D01*
X132652830Y-95629335D01*
X132647878Y-95520053D01*
X132655828Y-95348604D01*
X132656005Y-95345830D01*
X132672676Y-95168587D01*
X132696970Y-95008370D01*
X132723893Y-94897477D01*
X132726347Y-94890833D01*
X132775844Y-94808765D01*
X132871968Y-94683716D01*
X133000986Y-94530625D01*
X133149169Y-94364434D01*
X133302786Y-94200083D01*
X133448106Y-94052510D01*
X133571397Y-93936657D01*
X133658930Y-93867464D01*
X133675110Y-93858509D01*
X133750345Y-93804165D01*
X133774667Y-93755302D01*
X133803691Y-93684629D01*
X133855084Y-93624679D01*
X133962773Y-93576517D01*
X134121158Y-93584080D01*
G36*
X145711517Y-95242444D02*
G01*
X145818500Y-95267937D01*
X145996989Y-95326956D01*
X146128896Y-95408130D01*
X146221569Y-95498186D01*
X146529149Y-95778239D01*
X146878114Y-95986726D01*
X147260798Y-96119641D01*
X147486703Y-96159537D01*
X147666567Y-96190304D01*
X147811406Y-96243202D01*
X147947354Y-96332430D01*
X148100543Y-96472187D01*
X148145242Y-96517345D01*
X148281711Y-96642292D01*
X148394137Y-96716384D01*
X148450093Y-96732333D01*
X148593950Y-96715672D01*
X148791258Y-96670770D01*
X149018768Y-96605246D01*
X149253234Y-96526718D01*
X149471410Y-96442808D01*
X149650047Y-96361134D01*
X149737811Y-96310264D01*
X149945722Y-96208744D01*
X150146719Y-96191429D01*
X150342364Y-96258468D01*
X150507618Y-96383785D01*
X150585390Y-96450661D01*
X150652586Y-96474456D01*
X150745609Y-96462368D01*
X150815142Y-96444592D01*
X151057592Y-96398016D01*
X151237415Y-96403966D01*
X151353104Y-96461706D01*
X151403150Y-96570499D01*
X151387526Y-96724190D01*
X151289554Y-96936300D01*
X151116976Y-97140388D01*
X150879834Y-97326705D01*
X150616346Y-97472616D01*
X150234135Y-97692393D01*
X149988333Y-97888145D01*
X149815525Y-98031556D01*
X149631081Y-98160811D01*
X149451318Y-98266855D01*
X149292554Y-98340632D01*
X149171108Y-98373086D01*
X149122325Y-98368725D01*
X149074088Y-98327695D01*
X149072372Y-98243846D01*
X149078773Y-98211239D01*
X149083080Y-98067524D01*
X149042577Y-97933822D01*
X148968911Y-97838406D01*
X148914058Y-97811390D01*
X148828272Y-97802617D01*
X148687432Y-97798910D01*
X148521037Y-97801002D01*
X148510389Y-97801345D01*
X148328672Y-97801960D01*
X148221233Y-97788158D01*
X148178718Y-97758730D01*
X148178616Y-97758431D01*
X148129376Y-97696624D01*
X148077159Y-97660362D01*
X148013784Y-97643312D01*
X147934440Y-97664084D01*
X147816633Y-97729593D01*
X147783416Y-97750633D01*
X147593175Y-97896316D01*
X147402734Y-98092260D01*
X147203975Y-98348058D01*
X146988781Y-98673304D01*
X146951391Y-98733886D01*
X146795452Y-98979644D01*
X146659868Y-99175182D01*
X146549970Y-99313536D01*
X146471086Y-99387742D01*
X146442590Y-99398685D01*
X146353642Y-99356512D01*
X146273600Y-99241831D01*
X146207919Y-99066729D01*
X146162052Y-98843294D01*
X146151454Y-98753491D01*
X146127722Y-98595184D01*
X146092607Y-98457915D01*
X146062915Y-98388463D01*
X146018816Y-98331399D01*
X145962394Y-98305147D01*
X145867205Y-98302975D01*
X145763343Y-98312175D01*
X145525871Y-98367828D01*
X145317249Y-98487314D01*
X145126029Y-98678601D01*
X145012355Y-98834989D01*
X144890212Y-99000980D01*
X144746409Y-99169094D01*
X144635273Y-99280980D01*
X144429335Y-99467427D01*
X144504642Y-99664617D01*
X144547476Y-99812874D01*
X144553343Y-99924872D01*
X144522638Y-99984140D01*
X144496912Y-99989214D01*
X144440580Y-99977429D01*
X144330278Y-99949993D01*
X144234064Y-99924657D01*
X144098933Y-99884360D01*
X143995751Y-99846411D01*
X143958898Y-99827211D01*
X143895382Y-99794893D01*
X143780431Y-99749809D01*
X143687924Y-99717928D01*
X143487194Y-99643945D01*
X143264944Y-99547990D01*
X143034257Y-99437354D01*
X142808217Y-99319328D01*
X142599906Y-99201203D01*
X142422408Y-99090271D01*
X142288806Y-98993822D01*
X142212183Y-98919148D01*
X142199000Y-98888169D01*
X142235404Y-98813104D01*
X142330924Y-98767597D01*
X142465023Y-98752507D01*
X142617163Y-98768694D01*
X142766805Y-98817015D01*
X142845859Y-98861117D01*
X142989716Y-98935628D01*
X143175156Y-99002064D01*
X143361466Y-99047696D01*
X143484026Y-99060667D01*
X143549329Y-99037103D01*
X143647581Y-98978267D01*
X143680667Y-98954833D01*
X143840661Y-98872081D01*
X143974641Y-98847090D01*
X144141414Y-98826464D01*
X144288165Y-98761308D01*
X144435405Y-98639719D01*
X144551890Y-98512138D01*
X144654472Y-98386916D01*
X144711304Y-98297328D01*
X144733464Y-98216245D01*
X144732033Y-98116543D01*
X144728690Y-98079262D01*
X144684511Y-97884845D01*
X144599228Y-97712109D01*
X144486577Y-97582137D01*
X144361889Y-97516354D01*
X144186402Y-97443304D01*
X144036278Y-97302730D01*
X143930293Y-97130452D01*
X150242333Y-97130452D01*
X150263201Y-97218068D01*
X150317152Y-97236340D01*
X150391204Y-97186963D01*
X150454464Y-97102750D01*
X150515123Y-96974133D01*
X150536449Y-96863654D01*
X150516990Y-96791522D01*
X150478049Y-96774667D01*
X150406275Y-96810684D01*
X150330514Y-96899757D01*
X150269629Y-97013414D01*
X150242483Y-97123185D01*
X150242333Y-97130452D01*
X143930293Y-97130452D01*
X143903393Y-97086727D01*
X143888357Y-97055654D01*
X143765883Y-96755536D01*
X143703439Y-96492171D01*
X143697532Y-96246338D01*
X143716937Y-96112530D01*
X143764000Y-95937901D01*
X143834295Y-95809236D01*
X143943420Y-95712184D01*
X144106975Y-95632391D01*
X144313702Y-95563443D01*
X144518965Y-95500867D01*
X144666053Y-95451143D01*
X144778400Y-95404578D01*
X144879441Y-95351480D01*
X144990328Y-95283607D01*
X145173749Y-95212908D01*
X145413179Y-95199205D01*
X145711517Y-95242444D01*
X145711517Y-95242444D01*
G37*
X145711517Y-95242444D02*
X145818500Y-95267937D01*
X145996989Y-95326956D01*
X146128896Y-95408130D01*
X146221569Y-95498186D01*
X146529149Y-95778239D01*
X146878114Y-95986726D01*
X147260798Y-96119641D01*
X147486703Y-96159537D01*
X147666567Y-96190304D01*
X147811406Y-96243202D01*
X147947354Y-96332430D01*
X148100543Y-96472187D01*
X148145242Y-96517345D01*
X148281711Y-96642292D01*
X148394137Y-96716384D01*
X148450093Y-96732333D01*
X148593950Y-96715672D01*
X148791258Y-96670770D01*
X149018768Y-96605246D01*
X149253234Y-96526718D01*
X149471410Y-96442808D01*
X149650047Y-96361134D01*
X149737811Y-96310264D01*
X149945722Y-96208744D01*
X150146719Y-96191429D01*
X150342364Y-96258468D01*
X150507618Y-96383785D01*
X150585390Y-96450661D01*
X150652586Y-96474456D01*
X150745609Y-96462368D01*
X150815142Y-96444592D01*
X151057592Y-96398016D01*
X151237415Y-96403966D01*
X151353104Y-96461706D01*
X151403150Y-96570499D01*
X151387526Y-96724190D01*
X151289554Y-96936300D01*
X151116976Y-97140388D01*
X150879834Y-97326705D01*
X150616346Y-97472616D01*
X150234135Y-97692393D01*
X149988333Y-97888145D01*
X149815525Y-98031556D01*
X149631081Y-98160811D01*
X149451318Y-98266855D01*
X149292554Y-98340632D01*
X149171108Y-98373086D01*
X149122325Y-98368725D01*
X149074088Y-98327695D01*
X149072372Y-98243846D01*
X149078773Y-98211239D01*
X149083080Y-98067524D01*
X149042577Y-97933822D01*
X148968911Y-97838406D01*
X148914058Y-97811390D01*
X148828272Y-97802617D01*
X148687432Y-97798910D01*
X148521037Y-97801002D01*
X148510389Y-97801345D01*
X148328672Y-97801960D01*
X148221233Y-97788158D01*
X148178718Y-97758730D01*
X148178616Y-97758431D01*
X148129376Y-97696624D01*
X148077159Y-97660362D01*
X148013784Y-97643312D01*
X147934440Y-97664084D01*
X147816633Y-97729593D01*
X147783416Y-97750633D01*
X147593175Y-97896316D01*
X147402734Y-98092260D01*
X147203975Y-98348058D01*
X146988781Y-98673304D01*
X146951391Y-98733886D01*
X146795452Y-98979644D01*
X146659868Y-99175182D01*
X146549970Y-99313536D01*
X146471086Y-99387742D01*
X146442590Y-99398685D01*
X146353642Y-99356512D01*
X146273600Y-99241831D01*
X146207919Y-99066729D01*
X146162052Y-98843294D01*
X146151454Y-98753491D01*
X146127722Y-98595184D01*
X146092607Y-98457915D01*
X146062915Y-98388463D01*
X146018816Y-98331399D01*
X145962394Y-98305147D01*
X145867205Y-98302975D01*
X145763343Y-98312175D01*
X145525871Y-98367828D01*
X145317249Y-98487314D01*
X145126029Y-98678601D01*
X145012355Y-98834989D01*
X144890212Y-99000980D01*
X144746409Y-99169094D01*
X144635273Y-99280980D01*
X144429335Y-99467427D01*
X144504642Y-99664617D01*
X144547476Y-99812874D01*
X144553343Y-99924872D01*
X144522638Y-99984140D01*
X144496912Y-99989214D01*
X144440580Y-99977429D01*
X144330278Y-99949993D01*
X144234064Y-99924657D01*
X144098933Y-99884360D01*
X143995751Y-99846411D01*
X143958898Y-99827211D01*
X143895382Y-99794893D01*
X143780431Y-99749809D01*
X143687924Y-99717928D01*
X143487194Y-99643945D01*
X143264944Y-99547990D01*
X143034257Y-99437354D01*
X142808217Y-99319328D01*
X142599906Y-99201203D01*
X142422408Y-99090271D01*
X142288806Y-98993822D01*
X142212183Y-98919148D01*
X142199000Y-98888169D01*
X142235404Y-98813104D01*
X142330924Y-98767597D01*
X142465023Y-98752507D01*
X142617163Y-98768694D01*
X142766805Y-98817015D01*
X142845859Y-98861117D01*
X142989716Y-98935628D01*
X143175156Y-99002064D01*
X143361466Y-99047696D01*
X143484026Y-99060667D01*
X143549329Y-99037103D01*
X143647581Y-98978267D01*
X143680667Y-98954833D01*
X143840661Y-98872081D01*
X143974641Y-98847090D01*
X144141414Y-98826464D01*
X144288165Y-98761308D01*
X144435405Y-98639719D01*
X144551890Y-98512138D01*
X144654472Y-98386916D01*
X144711304Y-98297328D01*
X144733464Y-98216245D01*
X144732033Y-98116543D01*
X144728690Y-98079262D01*
X144684511Y-97884845D01*
X144599228Y-97712109D01*
X144486577Y-97582137D01*
X144361889Y-97516354D01*
X144186402Y-97443304D01*
X144036278Y-97302730D01*
X143930293Y-97130452D01*
X150242333Y-97130452D01*
X150263201Y-97218068D01*
X150317152Y-97236340D01*
X150391204Y-97186963D01*
X150454464Y-97102750D01*
X150515123Y-96974133D01*
X150536449Y-96863654D01*
X150516990Y-96791522D01*
X150478049Y-96774667D01*
X150406275Y-96810684D01*
X150330514Y-96899757D01*
X150269629Y-97013414D01*
X150242483Y-97123185D01*
X150242333Y-97130452D01*
X143930293Y-97130452D01*
X143903393Y-97086727D01*
X143888357Y-97055654D01*
X143765883Y-96755536D01*
X143703439Y-96492171D01*
X143697532Y-96246338D01*
X143716937Y-96112530D01*
X143764000Y-95937901D01*
X143834295Y-95809236D01*
X143943420Y-95712184D01*
X144106975Y-95632391D01*
X144313702Y-95563443D01*
X144518965Y-95500867D01*
X144666053Y-95451143D01*
X144778400Y-95404578D01*
X144879441Y-95351480D01*
X144990328Y-95283607D01*
X145173749Y-95212908D01*
X145413179Y-95199205D01*
X145711517Y-95242444D01*
G36*
X145490970Y-76855640D02*
G01*
X145568514Y-76893779D01*
X145586830Y-76905659D01*
X145767957Y-77042250D01*
X145876698Y-77171886D01*
X145920106Y-77315042D01*
X145905234Y-77492190D01*
X145853569Y-77680053D01*
X145810058Y-77888323D01*
X145832170Y-78044981D01*
X145921498Y-78151813D01*
X146079637Y-78210606D01*
X146308181Y-78223149D01*
X146336782Y-78221831D01*
X146493374Y-78207890D01*
X146598987Y-78178451D01*
X146687267Y-78120702D01*
X146747797Y-78065306D01*
X146837839Y-77986902D01*
X146907363Y-77959690D01*
X146970698Y-77990139D01*
X147042173Y-78084718D01*
X147129440Y-78237614D01*
X147190884Y-78358761D01*
X147223610Y-78458465D01*
X147233229Y-78569263D01*
X147225357Y-78723694D01*
X147221472Y-78771056D01*
X147151839Y-79258565D01*
X147030873Y-79679347D01*
X146858311Y-80034206D01*
X146766808Y-80168553D01*
X146645354Y-80338566D01*
X146574062Y-80468949D01*
X146546485Y-80583028D01*
X146556175Y-80704131D01*
X146586331Y-80821430D01*
X146627625Y-81026500D01*
X146619574Y-81222147D01*
X146558576Y-81433286D01*
X146469418Y-81629730D01*
X146375474Y-81854276D01*
X146344619Y-82040915D01*
X146375799Y-82207006D01*
X146428100Y-82310983D01*
X146485173Y-82423161D01*
X146508743Y-82534688D01*
X146496554Y-82662763D01*
X146446354Y-82824588D01*
X146355888Y-83037363D01*
X146323834Y-83106703D01*
X146227820Y-83325514D01*
X146176352Y-83483650D01*
X146169564Y-83592520D01*
X146207587Y-83663532D01*
X146290555Y-83708094D01*
X146330983Y-83719741D01*
X146437716Y-83724028D01*
X146558322Y-83679689D01*
X146707549Y-83579769D01*
X146816311Y-83490796D01*
X146978335Y-83382098D01*
X147140043Y-83325333D01*
X147282189Y-83324498D01*
X147376938Y-83374319D01*
X147410875Y-83420997D01*
X147417188Y-83477182D01*
X147390484Y-83554953D01*
X147325369Y-83666392D01*
X147216452Y-83823578D01*
X147113672Y-83964036D01*
X147003152Y-84119729D01*
X146932926Y-84246181D01*
X146904927Y-84359731D01*
X146921091Y-84476716D01*
X146983349Y-84613472D01*
X147093638Y-84786337D01*
X147234508Y-84984833D01*
X147388634Y-85201259D01*
X147568216Y-85458146D01*
X147752235Y-85725180D01*
X147919675Y-85972050D01*
X147938962Y-86000833D01*
X148087552Y-86218118D01*
X148241616Y-86435152D01*
X148385635Y-86630593D01*
X148504093Y-86783095D01*
X148533892Y-86819136D01*
X148638266Y-86946142D01*
X148717274Y-87049276D01*
X148757899Y-87111287D01*
X148760667Y-87119623D01*
X148796181Y-87153617D01*
X148886097Y-87202366D01*
X148940583Y-87226383D01*
X149064359Y-87280015D01*
X149161617Y-87326572D01*
X149184000Y-87338915D01*
X149278669Y-87389880D01*
X149311000Y-87404991D01*
X149511841Y-87534800D01*
X149665145Y-87730361D01*
X149715807Y-87831197D01*
X149771329Y-87966443D01*
X149808791Y-88076264D01*
X149819000Y-88125871D01*
X149851637Y-88171280D01*
X149893083Y-88172462D01*
X149923179Y-88160634D01*
X149943452Y-88132678D01*
X149953249Y-88079114D01*
X149951916Y-87990463D01*
X149938798Y-87857245D01*
X149913241Y-87669979D01*
X149874592Y-87419185D01*
X149822195Y-87095383D01*
X149816263Y-87059167D01*
X149735249Y-86593960D01*
X149649589Y-86155373D01*
X149561542Y-85752336D01*
X149473365Y-85393780D01*
X149387316Y-85088636D01*
X149305654Y-84845835D01*
X149230635Y-84674308D01*
X149200662Y-84624222D01*
X149048545Y-84339426D01*
X148977985Y-84042615D01*
X148971926Y-83926500D01*
X148963916Y-83814074D01*
X148942985Y-83644450D01*
X148912610Y-83443492D01*
X148887024Y-83294911D01*
X148835944Y-82980962D01*
X148812385Y-82733580D01*
X148818911Y-82538428D01*
X148858085Y-82381167D01*
X148932474Y-82247459D01*
X149044640Y-82122967D01*
X149106554Y-82067473D01*
X149225199Y-81985316D01*
X149383724Y-81901029D01*
X149559864Y-81823484D01*
X149731354Y-81761551D01*
X149875930Y-81724100D01*
X149971326Y-81720004D01*
X149975636Y-81721211D01*
X150034858Y-81767589D01*
X150118523Y-81866587D01*
X150209083Y-81997306D01*
X150213931Y-82005026D01*
X150299630Y-82138837D01*
X150360360Y-82214690D01*
X150415437Y-82246788D01*
X150484176Y-82249336D01*
X150537449Y-82242932D01*
X150619547Y-82214611D01*
X150758044Y-82148432D01*
X150938448Y-82052826D01*
X151146269Y-81936225D01*
X151367012Y-81807062D01*
X151586186Y-81673766D01*
X151789299Y-81544771D01*
X151961859Y-81428508D01*
X152057792Y-81358383D01*
X152157306Y-81301449D01*
X152238331Y-81280667D01*
X152331203Y-81314309D01*
X152444179Y-81401520D01*
X152556481Y-81521724D01*
X152647333Y-81654347D01*
X152676498Y-81714583D01*
X152714761Y-81815597D01*
X152716503Y-81860983D01*
X152678549Y-81872939D01*
X152653799Y-81873333D01*
X152488733Y-81915428D01*
X152325023Y-82040765D01*
X152181515Y-82221939D01*
X152059868Y-82395836D01*
X151928952Y-82561944D01*
X151780791Y-82727602D01*
X151607410Y-82900153D01*
X151400834Y-83086937D01*
X151153088Y-83295294D01*
X150856195Y-83532565D01*
X150502180Y-83806091D01*
X150263500Y-83987289D01*
X150086290Y-84123170D01*
X149928581Y-84247798D01*
X149805424Y-84349017D01*
X149731868Y-84414672D01*
X149723750Y-84423235D01*
X149658595Y-84545199D01*
X149670812Y-84680965D01*
X149761297Y-84838149D01*
X149774545Y-84855164D01*
X149890499Y-85066245D01*
X149924591Y-85210235D01*
X149945342Y-85344408D01*
X149978502Y-85527937D01*
X150017965Y-85727562D01*
X150030874Y-85789167D01*
X150070853Y-85981993D01*
X150106828Y-86164420D01*
X150132785Y-86305654D01*
X150138366Y-86339500D01*
X150172733Y-86528881D01*
X150220561Y-86750648D01*
X150276966Y-86986217D01*
X150337069Y-87217002D01*
X150395988Y-87424418D01*
X150448840Y-87589878D01*
X150490746Y-87694799D01*
X150497608Y-87707252D01*
X150581817Y-87807464D01*
X150706537Y-87914801D01*
X150784909Y-87968582D01*
X150956073Y-88099690D01*
X151053509Y-88243968D01*
X151088062Y-88418532D01*
X151088495Y-88447575D01*
X151101930Y-88545989D01*
X151138426Y-88698675D01*
X151191564Y-88880533D01*
X151225949Y-88985038D01*
X151300829Y-89189693D01*
X151371742Y-89342139D01*
X151455960Y-89472128D01*
X151570758Y-89609411D01*
X151619210Y-89662371D01*
X151833886Y-89897233D01*
X151991217Y-90078217D01*
X152094194Y-90210838D01*
X152145810Y-90300615D01*
X152149056Y-90353064D01*
X152106924Y-90373701D01*
X152022407Y-90368044D01*
X151999760Y-90364071D01*
X151864445Y-90358338D01*
X151762249Y-90384519D01*
X151713829Y-90419507D01*
X151689185Y-90473156D01*
X151683273Y-90568019D01*
X151689858Y-90708205D01*
X151702502Y-90859214D01*
X151727129Y-90958762D01*
X151779588Y-91038994D01*
X151875731Y-91132059D01*
X151916785Y-91168454D01*
X152060573Y-91280925D01*
X152243465Y-91404419D01*
X152428011Y-91513792D01*
X152443667Y-91522214D01*
X152618764Y-91622892D01*
X152751558Y-91722565D01*
X152871417Y-91846827D01*
X152991794Y-91999888D01*
X153159128Y-92245322D01*
X153293288Y-92495735D01*
X153402996Y-92772310D01*
X153496975Y-93096227D01*
X153563434Y-93388000D01*
X153639888Y-93706950D01*
X153727906Y-93994958D01*
X153819352Y-94225442D01*
X153820779Y-94228477D01*
X153889545Y-94380954D01*
X153941078Y-94508051D01*
X153966455Y-94587358D01*
X153967667Y-94597306D01*
X153953556Y-94666541D01*
X153917161Y-94784707D01*
X153881962Y-94883889D01*
X153768795Y-95095058D01*
X153593717Y-95310564D01*
X153376063Y-95510921D01*
X153135170Y-95676642D01*
X153050012Y-95722328D01*
X152887239Y-95817258D01*
X152732542Y-95930909D01*
X152640360Y-96016954D01*
X152512400Y-96132083D01*
X152398822Y-96181791D01*
X152311089Y-96161435D01*
X152302555Y-96153778D01*
X152285950Y-96098029D01*
X152275806Y-95988521D01*
X152274333Y-95922424D01*
X152238754Y-95639204D01*
X152194058Y-95517785D01*
X152552273Y-95517785D01*
X152556611Y-95540156D01*
X152604565Y-95618262D01*
X152677434Y-95619840D01*
X152741040Y-95566913D01*
X152773187Y-95492758D01*
X152747131Y-95397580D01*
X152698248Y-95320326D01*
X152657730Y-95293000D01*
X152599969Y-95329520D01*
X152560093Y-95415993D01*
X152552273Y-95517785D01*
X152194058Y-95517785D01*
X152129848Y-95343357D01*
X151981977Y-95082352D01*
X151903475Y-94953482D01*
X151852479Y-94842176D01*
X151820280Y-94719705D01*
X151798172Y-94557339D01*
X151787035Y-94439231D01*
X151763300Y-94158291D01*
X151749576Y-93947431D01*
X151747787Y-93792450D01*
X151759856Y-93679146D01*
X151787706Y-93593321D01*
X151833261Y-93520773D01*
X151898443Y-93447303D01*
X151925083Y-93419931D01*
X152027399Y-93308477D01*
X152081334Y-93220125D01*
X152101939Y-93121891D01*
X152104586Y-93026564D01*
X152064347Y-92769139D01*
X151947322Y-92495873D01*
X151757601Y-92215990D01*
X151731020Y-92183451D01*
X151599663Y-91989981D01*
X151489877Y-91762157D01*
X151414245Y-91531243D01*
X151385348Y-91328499D01*
X151385333Y-91324511D01*
X151343674Y-91114043D01*
X151220367Y-90918004D01*
X151152238Y-90848000D01*
X151053095Y-90726766D01*
X150942312Y-90542884D01*
X150829723Y-90315602D01*
X150725160Y-90064171D01*
X150665696Y-89895500D01*
X150596919Y-89703451D01*
X150515563Y-89503276D01*
X150451407Y-89363550D01*
X150380334Y-89202017D01*
X150304999Y-89000498D01*
X150241151Y-88801273D01*
X150238520Y-88792050D01*
X150159421Y-88549723D01*
X150082961Y-88391116D01*
X150008660Y-88315340D01*
X149977698Y-88308000D01*
X149960293Y-88347075D01*
X149953988Y-88453093D01*
X149957486Y-88609240D01*
X149969495Y-88798704D01*
X149988718Y-89004674D01*
X150013863Y-89210336D01*
X150043633Y-89398878D01*
X150072232Y-89535667D01*
X150120222Y-89750296D01*
X150166618Y-89989430D01*
X150196643Y-90170667D01*
X150229046Y-90340151D01*
X150280095Y-90510430D01*
X150357904Y-90703787D01*
X150470589Y-90942507D01*
X150497281Y-90996167D01*
X150601832Y-91208144D01*
X150674109Y-91367334D01*
X150721096Y-91495965D01*
X150749773Y-91616267D01*
X150767121Y-91750468D01*
X150778039Y-91890093D01*
X150804542Y-92276019D01*
X150671604Y-92374304D01*
X150582029Y-92454869D01*
X150546113Y-92538432D01*
X150561213Y-92647933D01*
X150622403Y-92801294D01*
X150673063Y-92929864D01*
X150703248Y-93039091D01*
X150706867Y-93070500D01*
X150676892Y-93142980D01*
X150595801Y-93253601D01*
X150478090Y-93386991D01*
X150338255Y-93527781D01*
X150190792Y-93660597D01*
X150050197Y-93770070D01*
X150041319Y-93776234D01*
X149943646Y-93846729D01*
X149889816Y-93906614D01*
X149866765Y-93984323D01*
X149861432Y-94108289D01*
X149861333Y-94168017D01*
X149849317Y-94356593D01*
X149809645Y-94471545D01*
X149736881Y-94520947D01*
X149628660Y-94513656D01*
X149532119Y-94457266D01*
X149427303Y-94349682D01*
X149335495Y-94219051D01*
X149277977Y-94093521D01*
X149268667Y-94037535D01*
X149299443Y-93940614D01*
X149373552Y-93846581D01*
X149374500Y-93845752D01*
X149441430Y-93768625D01*
X149473366Y-93672996D01*
X149471433Y-93541288D01*
X149436757Y-93355923D01*
X149412274Y-93256179D01*
X149360841Y-92934892D01*
X149381047Y-92654373D01*
X149472658Y-92416960D01*
X149501260Y-92372346D01*
X149621419Y-92198957D01*
X149554848Y-91892191D01*
X149505250Y-91708722D01*
X149431415Y-91488500D01*
X149346779Y-91270592D01*
X149318894Y-91206129D01*
X149229588Y-90991483D01*
X149141975Y-90756318D01*
X149071544Y-90542850D01*
X149056619Y-90491297D01*
X148994061Y-90273746D01*
X148939986Y-90112995D01*
X148883435Y-89983440D01*
X148813447Y-89859479D01*
X148733925Y-89737484D01*
X148656269Y-89618063D01*
X148598992Y-89522236D01*
X148579734Y-89483484D01*
X148549023Y-89438731D01*
X148518828Y-89465812D01*
X148491131Y-89551909D01*
X148467913Y-89684201D01*
X148451154Y-89849869D01*
X148442837Y-90036094D01*
X148444943Y-90230056D01*
X148450200Y-90321646D01*
X148459565Y-90530731D01*
X148445416Y-90681116D01*
X148399489Y-90797382D01*
X148313518Y-90904110D01*
X148227384Y-90984292D01*
X148114329Y-91115995D01*
X148083097Y-91222802D01*
X148071293Y-91340927D01*
X148042852Y-91478556D01*
X148039514Y-91490903D01*
X147958491Y-91639503D01*
X147822098Y-91755383D01*
X147658895Y-91816946D01*
X147602086Y-91821667D01*
X147512796Y-91842806D01*
X147490667Y-91885167D01*
X147512242Y-91941521D01*
X147530582Y-91948667D01*
X147572444Y-91982533D01*
X147647983Y-92074376D01*
X147747334Y-92209561D01*
X147860632Y-92373452D01*
X147978010Y-92551413D01*
X148089602Y-92728811D01*
X148185545Y-92891009D01*
X148255971Y-93023373D01*
X148258273Y-93028167D01*
X148338644Y-93210141D01*
X148373831Y-93330848D01*
X148364380Y-93400270D01*
X148310838Y-93428395D01*
X148280289Y-93430333D01*
X148200032Y-93403457D01*
X148072271Y-93330117D01*
X147911742Y-93221247D01*
X147733181Y-93087782D01*
X147551325Y-92940654D01*
X147380911Y-92790798D01*
X147259425Y-92672909D01*
X147115826Y-92539454D01*
X147004393Y-92470615D01*
X146937050Y-92456667D01*
X146781384Y-92496549D01*
X146654037Y-92614697D01*
X146557142Y-92808859D01*
X146534368Y-92881462D01*
X146478643Y-93036332D01*
X146408948Y-93171876D01*
X146359591Y-93237530D01*
X146213388Y-93328722D01*
X146017418Y-93375110D01*
X145791657Y-93379893D01*
X145556082Y-93346269D01*
X145330669Y-93277436D01*
X145135395Y-93176593D01*
X144990236Y-93046938D01*
X144966792Y-93014532D01*
X144878695Y-92825043D01*
X144818015Y-92583554D01*
X144787003Y-92317847D01*
X144787911Y-92055703D01*
X144822991Y-91824905D01*
X144861320Y-91713155D01*
X144931090Y-91580900D01*
X145027281Y-91424038D01*
X145094930Y-91324725D01*
X145227546Y-91090911D01*
X145289487Y-90868223D01*
X145319747Y-90689880D01*
X145351911Y-90565343D01*
X145400819Y-90478908D01*
X145481313Y-90414873D01*
X145608236Y-90357535D01*
X145796428Y-90291190D01*
X145853064Y-90271943D01*
X146095130Y-90172457D01*
X146255564Y-90064561D01*
X146337275Y-89944467D01*
X146343172Y-89808385D01*
X146298577Y-89691633D01*
X146230209Y-89588493D01*
X146125362Y-89458746D01*
X146000522Y-89319688D01*
X145872176Y-89188616D01*
X145756808Y-89082824D01*
X145670906Y-89019608D01*
X145649101Y-89010266D01*
X145569278Y-88972208D01*
X145448666Y-88894196D01*
X145310582Y-88791581D01*
X145281367Y-88768197D01*
X145057503Y-88600290D01*
X144856483Y-88485746D01*
X144648685Y-88411478D01*
X144404488Y-88364397D01*
X144351803Y-88357479D01*
X144079412Y-88304513D01*
X143865001Y-88222770D01*
X143844433Y-88211463D01*
X143682711Y-88138714D01*
X143502827Y-88085448D01*
X143450385Y-88075941D01*
X143256089Y-88015975D01*
X143096047Y-87905230D01*
X142982545Y-87759580D01*
X142927868Y-87594898D01*
X142944304Y-87427059D01*
X142945492Y-87423638D01*
X142968494Y-87369992D01*
X143003464Y-87337348D01*
X143069084Y-87320541D01*
X143184039Y-87314409D01*
X143343157Y-87313748D01*
X143567144Y-87324039D01*
X143812374Y-87350492D01*
X144026498Y-87387429D01*
X144030236Y-87388266D01*
X144202412Y-87424434D01*
X144318714Y-87439380D01*
X144405062Y-87433758D01*
X144487372Y-87408223D01*
X144506755Y-87400315D01*
X144631619Y-87319496D01*
X144704995Y-87196105D01*
X144709346Y-87167179D01*
X146505396Y-87167179D01*
X146514282Y-87255437D01*
X146523958Y-87301548D01*
X146537352Y-87402293D01*
X146549361Y-87570148D01*
X146559167Y-87787556D01*
X146565955Y-88036962D01*
X146568768Y-88265667D01*
X146570841Y-88543764D01*
X146574634Y-88750005D01*
X146581450Y-88897196D01*
X146592593Y-88998146D01*
X146609363Y-89065663D01*
X146633066Y-89112556D01*
X146658123Y-89144083D01*
X146756107Y-89223629D01*
X146862517Y-89243441D01*
X146987359Y-89200576D01*
X147140638Y-89092088D01*
X147287582Y-88958853D01*
X147425370Y-88828284D01*
X147521206Y-88747670D01*
X147592716Y-88706811D01*
X147657529Y-88695506D01*
X147729754Y-88702981D01*
X147849533Y-88743495D01*
X147992091Y-88820645D01*
X148075798Y-88879044D01*
X148192065Y-88959391D01*
X148289975Y-89009229D01*
X148335515Y-89018134D01*
X148381568Y-88970401D01*
X148409422Y-88864361D01*
X148416673Y-88724889D01*
X148400917Y-88576857D01*
X148384592Y-88510450D01*
X148308470Y-88281897D01*
X148219749Y-88050386D01*
X148128988Y-87841306D01*
X148046746Y-87680045D01*
X148023228Y-87641579D01*
X147949868Y-87511101D01*
X147896374Y-87383710D01*
X147888214Y-87355500D01*
X147857101Y-87267765D01*
X147795955Y-87125347D01*
X147713892Y-86948636D01*
X147628752Y-86775269D01*
X147482038Y-86508868D01*
X147340290Y-86298527D01*
X147209309Y-86151316D01*
X147094894Y-86074304D01*
X147045669Y-86064333D01*
X146972097Y-86102491D01*
X146899316Y-86202526D01*
X146841924Y-86342784D01*
X146831635Y-86381833D01*
X146797844Y-86480128D01*
X146735611Y-86624311D01*
X146657296Y-86786084D01*
X146642536Y-86814715D01*
X146563356Y-86972137D01*
X146519698Y-87081186D01*
X146505396Y-87167179D01*
X144709346Y-87167179D01*
X144731801Y-87017902D01*
X144725640Y-86855692D01*
X144710328Y-86742344D01*
X144680380Y-86630922D01*
X144628421Y-86503846D01*
X144547077Y-86343536D01*
X144428974Y-86132409D01*
X144404131Y-86089194D01*
X144266561Y-85842744D01*
X144173748Y-85653220D01*
X144122672Y-85507653D01*
X144110312Y-85393069D01*
X144133649Y-85296499D01*
X144189661Y-85204970D01*
X144196261Y-85196460D01*
X144292562Y-85099078D01*
X144422937Y-84997938D01*
X144561830Y-84909730D01*
X144683690Y-84851142D01*
X144747166Y-84836667D01*
X144821727Y-84863548D01*
X144925657Y-84931920D01*
X144982295Y-84978742D01*
X145122878Y-85093509D01*
X145279602Y-85206328D01*
X145322987Y-85234475D01*
X145468170Y-85330414D01*
X145628445Y-85443742D01*
X145696647Y-85494566D01*
X145847920Y-85589342D01*
X146002777Y-85636833D01*
X146178614Y-85637374D01*
X146392830Y-85591299D01*
X146626938Y-85512445D01*
X146674677Y-85487771D01*
X146696861Y-85445260D01*
X146697393Y-85363115D01*
X146680172Y-85219538D01*
X146679822Y-85216975D01*
X146620767Y-84925236D01*
X146530765Y-84706790D01*
X146404839Y-84554346D01*
X146238009Y-84460610D01*
X146146089Y-84435183D01*
X146007199Y-84370007D01*
X145903394Y-84269228D01*
X145778569Y-84139740D01*
X145600116Y-83998105D01*
X145393486Y-83862430D01*
X145184126Y-83750823D01*
X145158520Y-83739240D01*
X145017811Y-83687166D01*
X144908019Y-83677128D01*
X144820132Y-83694680D01*
X144624498Y-83727659D01*
X144380356Y-83735253D01*
X144119550Y-83718770D01*
X143873922Y-83679519D01*
X143765333Y-83651333D01*
X143448259Y-83580584D01*
X143181386Y-83577441D01*
X142978304Y-83634837D01*
X142852561Y-83681881D01*
X142751441Y-83682705D01*
X142662804Y-83629139D01*
X142574513Y-83513014D01*
X142474430Y-83326159D01*
X142452625Y-83281037D01*
X142299364Y-82935465D01*
X142158787Y-82571615D01*
X142042068Y-82220335D01*
X141965829Y-81936833D01*
X141921442Y-81766258D01*
X141869768Y-81601120D01*
X141838670Y-81518071D01*
X141792201Y-81356136D01*
X141801154Y-81235095D01*
X141862961Y-81165836D01*
X141924640Y-81153666D01*
X142034382Y-81183113D01*
X142112100Y-81236100D01*
X142205173Y-81299065D01*
X142336133Y-81354961D01*
X142376684Y-81367168D01*
X142476613Y-81404868D01*
X142582270Y-81471128D01*
X142708746Y-81577469D01*
X142871132Y-81735411D01*
X142907364Y-81772279D01*
X143053230Y-81927059D01*
X143182309Y-82074234D01*
X143279291Y-82195727D01*
X143325219Y-82265628D01*
X143440601Y-82450639D01*
X143576280Y-82576330D01*
X143653376Y-82621945D01*
X143784234Y-82664211D01*
X143900300Y-82639899D01*
X144014156Y-82543337D01*
X144107680Y-82417020D01*
X144198197Y-82279661D01*
X144280824Y-82155226D01*
X144323772Y-82091235D01*
X144417683Y-81882695D01*
X144430381Y-81657622D01*
X144362709Y-81420342D01*
X144215511Y-81175186D01*
X144123528Y-81063422D01*
X143935799Y-80814347D01*
X143821094Y-80560696D01*
X143770046Y-80278401D01*
X143765333Y-80143102D01*
X143762193Y-80019848D01*
X143743866Y-79932797D01*
X143696992Y-79855457D01*
X143608212Y-79761333D01*
X143539724Y-79695702D01*
X143333889Y-79488971D01*
X143152874Y-79285431D01*
X143007656Y-79098853D01*
X142909217Y-78943013D01*
X142874483Y-78861217D01*
X142845234Y-78703675D01*
X142835504Y-78525544D01*
X142845050Y-78359663D01*
X142873630Y-78238873D01*
X142879178Y-78227350D01*
X142935702Y-78172818D01*
X143049938Y-78096428D01*
X143202208Y-78010662D01*
X143291859Y-77965550D01*
X143624465Y-77776332D01*
X143920799Y-77540769D01*
X143955764Y-77508221D01*
X144122595Y-77355944D01*
X144265612Y-77242595D01*
X144408230Y-77154844D01*
X144573864Y-77079362D01*
X144785928Y-77002818D01*
X144921456Y-76958449D01*
X145138287Y-76891621D01*
X145293633Y-76853151D01*
X145405268Y-76841627D01*
X145490970Y-76855640D01*
X145490970Y-76855640D01*
G37*
X145490970Y-76855640D02*
X145568514Y-76893779D01*
X145586830Y-76905659D01*
X145767957Y-77042250D01*
X145876698Y-77171886D01*
X145920106Y-77315042D01*
X145905234Y-77492190D01*
X145853569Y-77680053D01*
X145810058Y-77888323D01*
X145832170Y-78044981D01*
X145921498Y-78151813D01*
X146079637Y-78210606D01*
X146308181Y-78223149D01*
X146336782Y-78221831D01*
X146493374Y-78207890D01*
X146598987Y-78178451D01*
X146687267Y-78120702D01*
X146747797Y-78065306D01*
X146837839Y-77986902D01*
X146907363Y-77959690D01*
X146970698Y-77990139D01*
X147042173Y-78084718D01*
X147129440Y-78237614D01*
X147190884Y-78358761D01*
X147223610Y-78458465D01*
X147233229Y-78569263D01*
X147225357Y-78723694D01*
X147221472Y-78771056D01*
X147151839Y-79258565D01*
X147030873Y-79679347D01*
X146858311Y-80034206D01*
X146766808Y-80168553D01*
X146645354Y-80338566D01*
X146574062Y-80468949D01*
X146546485Y-80583028D01*
X146556175Y-80704131D01*
X146586331Y-80821430D01*
X146627625Y-81026500D01*
X146619574Y-81222147D01*
X146558576Y-81433286D01*
X146469418Y-81629730D01*
X146375474Y-81854276D01*
X146344619Y-82040915D01*
X146375799Y-82207006D01*
X146428100Y-82310983D01*
X146485173Y-82423161D01*
X146508743Y-82534688D01*
X146496554Y-82662763D01*
X146446354Y-82824588D01*
X146355888Y-83037363D01*
X146323834Y-83106703D01*
X146227820Y-83325514D01*
X146176352Y-83483650D01*
X146169564Y-83592520D01*
X146207587Y-83663532D01*
X146290555Y-83708094D01*
X146330983Y-83719741D01*
X146437716Y-83724028D01*
X146558322Y-83679689D01*
X146707549Y-83579769D01*
X146816311Y-83490796D01*
X146978335Y-83382098D01*
X147140043Y-83325333D01*
X147282189Y-83324498D01*
X147376938Y-83374319D01*
X147410875Y-83420997D01*
X147417188Y-83477182D01*
X147390484Y-83554953D01*
X147325369Y-83666392D01*
X147216452Y-83823578D01*
X147113672Y-83964036D01*
X147003152Y-84119729D01*
X146932926Y-84246181D01*
X146904927Y-84359731D01*
X146921091Y-84476716D01*
X146983349Y-84613472D01*
X147093638Y-84786337D01*
X147234508Y-84984833D01*
X147388634Y-85201259D01*
X147568216Y-85458146D01*
X147752235Y-85725180D01*
X147919675Y-85972050D01*
X147938962Y-86000833D01*
X148087552Y-86218118D01*
X148241616Y-86435152D01*
X148385635Y-86630593D01*
X148504093Y-86783095D01*
X148533892Y-86819136D01*
X148638266Y-86946142D01*
X148717274Y-87049276D01*
X148757899Y-87111287D01*
X148760667Y-87119623D01*
X148796181Y-87153617D01*
X148886097Y-87202366D01*
X148940583Y-87226383D01*
X149064359Y-87280015D01*
X149161617Y-87326572D01*
X149184000Y-87338915D01*
X149278669Y-87389880D01*
X149311000Y-87404991D01*
X149511841Y-87534800D01*
X149665145Y-87730361D01*
X149715807Y-87831197D01*
X149771329Y-87966443D01*
X149808791Y-88076264D01*
X149819000Y-88125871D01*
X149851637Y-88171280D01*
X149893083Y-88172462D01*
X149923179Y-88160634D01*
X149943452Y-88132678D01*
X149953249Y-88079114D01*
X149951916Y-87990463D01*
X149938798Y-87857245D01*
X149913241Y-87669979D01*
X149874592Y-87419185D01*
X149822195Y-87095383D01*
X149816263Y-87059167D01*
X149735249Y-86593960D01*
X149649589Y-86155373D01*
X149561542Y-85752336D01*
X149473365Y-85393780D01*
X149387316Y-85088636D01*
X149305654Y-84845835D01*
X149230635Y-84674308D01*
X149200662Y-84624222D01*
X149048545Y-84339426D01*
X148977985Y-84042615D01*
X148971926Y-83926500D01*
X148963916Y-83814074D01*
X148942985Y-83644450D01*
X148912610Y-83443492D01*
X148887024Y-83294911D01*
X148835944Y-82980962D01*
X148812385Y-82733580D01*
X148818911Y-82538428D01*
X148858085Y-82381167D01*
X148932474Y-82247459D01*
X149044640Y-82122967D01*
X149106554Y-82067473D01*
X149225199Y-81985316D01*
X149383724Y-81901029D01*
X149559864Y-81823484D01*
X149731354Y-81761551D01*
X149875930Y-81724100D01*
X149971326Y-81720004D01*
X149975636Y-81721211D01*
X150034858Y-81767589D01*
X150118523Y-81866587D01*
X150209083Y-81997306D01*
X150213931Y-82005026D01*
X150299630Y-82138837D01*
X150360360Y-82214690D01*
X150415437Y-82246788D01*
X150484176Y-82249336D01*
X150537449Y-82242932D01*
X150619547Y-82214611D01*
X150758044Y-82148432D01*
X150938448Y-82052826D01*
X151146269Y-81936225D01*
X151367012Y-81807062D01*
X151586186Y-81673766D01*
X151789299Y-81544771D01*
X151961859Y-81428508D01*
X152057792Y-81358383D01*
X152157306Y-81301449D01*
X152238331Y-81280667D01*
X152331203Y-81314309D01*
X152444179Y-81401520D01*
X152556481Y-81521724D01*
X152647333Y-81654347D01*
X152676498Y-81714583D01*
X152714761Y-81815597D01*
X152716503Y-81860983D01*
X152678549Y-81872939D01*
X152653799Y-81873333D01*
X152488733Y-81915428D01*
X152325023Y-82040765D01*
X152181515Y-82221939D01*
X152059868Y-82395836D01*
X151928952Y-82561944D01*
X151780791Y-82727602D01*
X151607410Y-82900153D01*
X151400834Y-83086937D01*
X151153088Y-83295294D01*
X150856195Y-83532565D01*
X150502180Y-83806091D01*
X150263500Y-83987289D01*
X150086290Y-84123170D01*
X149928581Y-84247798D01*
X149805424Y-84349017D01*
X149731868Y-84414672D01*
X149723750Y-84423235D01*
X149658595Y-84545199D01*
X149670812Y-84680965D01*
X149761297Y-84838149D01*
X149774545Y-84855164D01*
X149890499Y-85066245D01*
X149924591Y-85210235D01*
X149945342Y-85344408D01*
X149978502Y-85527937D01*
X150017965Y-85727562D01*
X150030874Y-85789167D01*
X150070853Y-85981993D01*
X150106828Y-86164420D01*
X150132785Y-86305654D01*
X150138366Y-86339500D01*
X150172733Y-86528881D01*
X150220561Y-86750648D01*
X150276966Y-86986217D01*
X150337069Y-87217002D01*
X150395988Y-87424418D01*
X150448840Y-87589878D01*
X150490746Y-87694799D01*
X150497608Y-87707252D01*
X150581817Y-87807464D01*
X150706537Y-87914801D01*
X150784909Y-87968582D01*
X150956073Y-88099690D01*
X151053509Y-88243968D01*
X151088062Y-88418532D01*
X151088495Y-88447575D01*
X151101930Y-88545989D01*
X151138426Y-88698675D01*
X151191564Y-88880533D01*
X151225949Y-88985038D01*
X151300829Y-89189693D01*
X151371742Y-89342139D01*
X151455960Y-89472128D01*
X151570758Y-89609411D01*
X151619210Y-89662371D01*
X151833886Y-89897233D01*
X151991217Y-90078217D01*
X152094194Y-90210838D01*
X152145810Y-90300615D01*
X152149056Y-90353064D01*
X152106924Y-90373701D01*
X152022407Y-90368044D01*
X151999760Y-90364071D01*
X151864445Y-90358338D01*
X151762249Y-90384519D01*
X151713829Y-90419507D01*
X151689185Y-90473156D01*
X151683273Y-90568019D01*
X151689858Y-90708205D01*
X151702502Y-90859214D01*
X151727129Y-90958762D01*
X151779588Y-91038994D01*
X151875731Y-91132059D01*
X151916785Y-91168454D01*
X152060573Y-91280925D01*
X152243465Y-91404419D01*
X152428011Y-91513792D01*
X152443667Y-91522214D01*
X152618764Y-91622892D01*
X152751558Y-91722565D01*
X152871417Y-91846827D01*
X152991794Y-91999888D01*
X153159128Y-92245322D01*
X153293288Y-92495735D01*
X153402996Y-92772310D01*
X153496975Y-93096227D01*
X153563434Y-93388000D01*
X153639888Y-93706950D01*
X153727906Y-93994958D01*
X153819352Y-94225442D01*
X153820779Y-94228477D01*
X153889545Y-94380954D01*
X153941078Y-94508051D01*
X153966455Y-94587358D01*
X153967667Y-94597306D01*
X153953556Y-94666541D01*
X153917161Y-94784707D01*
X153881962Y-94883889D01*
X153768795Y-95095058D01*
X153593717Y-95310564D01*
X153376063Y-95510921D01*
X153135170Y-95676642D01*
X153050012Y-95722328D01*
X152887239Y-95817258D01*
X152732542Y-95930909D01*
X152640360Y-96016954D01*
X152512400Y-96132083D01*
X152398822Y-96181791D01*
X152311089Y-96161435D01*
X152302555Y-96153778D01*
X152285950Y-96098029D01*
X152275806Y-95988521D01*
X152274333Y-95922424D01*
X152238754Y-95639204D01*
X152194058Y-95517785D01*
X152552273Y-95517785D01*
X152556611Y-95540156D01*
X152604565Y-95618262D01*
X152677434Y-95619840D01*
X152741040Y-95566913D01*
X152773187Y-95492758D01*
X152747131Y-95397580D01*
X152698248Y-95320326D01*
X152657730Y-95293000D01*
X152599969Y-95329520D01*
X152560093Y-95415993D01*
X152552273Y-95517785D01*
X152194058Y-95517785D01*
X152129848Y-95343357D01*
X151981977Y-95082352D01*
X151903475Y-94953482D01*
X151852479Y-94842176D01*
X151820280Y-94719705D01*
X151798172Y-94557339D01*
X151787035Y-94439231D01*
X151763300Y-94158291D01*
X151749576Y-93947431D01*
X151747787Y-93792450D01*
X151759856Y-93679146D01*
X151787706Y-93593321D01*
X151833261Y-93520773D01*
X151898443Y-93447303D01*
X151925083Y-93419931D01*
X152027399Y-93308477D01*
X152081334Y-93220125D01*
X152101939Y-93121891D01*
X152104586Y-93026564D01*
X152064347Y-92769139D01*
X151947322Y-92495873D01*
X151757601Y-92215990D01*
X151731020Y-92183451D01*
X151599663Y-91989981D01*
X151489877Y-91762157D01*
X151414245Y-91531243D01*
X151385348Y-91328499D01*
X151385333Y-91324511D01*
X151343674Y-91114043D01*
X151220367Y-90918004D01*
X151152238Y-90848000D01*
X151053095Y-90726766D01*
X150942312Y-90542884D01*
X150829723Y-90315602D01*
X150725160Y-90064171D01*
X150665696Y-89895500D01*
X150596919Y-89703451D01*
X150515563Y-89503276D01*
X150451407Y-89363550D01*
X150380334Y-89202017D01*
X150304999Y-89000498D01*
X150241151Y-88801273D01*
X150238520Y-88792050D01*
X150159421Y-88549723D01*
X150082961Y-88391116D01*
X150008660Y-88315340D01*
X149977698Y-88308000D01*
X149960293Y-88347075D01*
X149953988Y-88453093D01*
X149957486Y-88609240D01*
X149969495Y-88798704D01*
X149988718Y-89004674D01*
X150013863Y-89210336D01*
X150043633Y-89398878D01*
X150072232Y-89535667D01*
X150120222Y-89750296D01*
X150166618Y-89989430D01*
X150196643Y-90170667D01*
X150229046Y-90340151D01*
X150280095Y-90510430D01*
X150357904Y-90703787D01*
X150470589Y-90942507D01*
X150497281Y-90996167D01*
X150601832Y-91208144D01*
X150674109Y-91367334D01*
X150721096Y-91495965D01*
X150749773Y-91616267D01*
X150767121Y-91750468D01*
X150778039Y-91890093D01*
X150804542Y-92276019D01*
X150671604Y-92374304D01*
X150582029Y-92454869D01*
X150546113Y-92538432D01*
X150561213Y-92647933D01*
X150622403Y-92801294D01*
X150673063Y-92929864D01*
X150703248Y-93039091D01*
X150706867Y-93070500D01*
X150676892Y-93142980D01*
X150595801Y-93253601D01*
X150478090Y-93386991D01*
X150338255Y-93527781D01*
X150190792Y-93660597D01*
X150050197Y-93770070D01*
X150041319Y-93776234D01*
X149943646Y-93846729D01*
X149889816Y-93906614D01*
X149866765Y-93984323D01*
X149861432Y-94108289D01*
X149861333Y-94168017D01*
X149849317Y-94356593D01*
X149809645Y-94471545D01*
X149736881Y-94520947D01*
X149628660Y-94513656D01*
X149532119Y-94457266D01*
X149427303Y-94349682D01*
X149335495Y-94219051D01*
X149277977Y-94093521D01*
X149268667Y-94037535D01*
X149299443Y-93940614D01*
X149373552Y-93846581D01*
X149374500Y-93845752D01*
X149441430Y-93768625D01*
X149473366Y-93672996D01*
X149471433Y-93541288D01*
X149436757Y-93355923D01*
X149412274Y-93256179D01*
X149360841Y-92934892D01*
X149381047Y-92654373D01*
X149472658Y-92416960D01*
X149501260Y-92372346D01*
X149621419Y-92198957D01*
X149554848Y-91892191D01*
X149505250Y-91708722D01*
X149431415Y-91488500D01*
X149346779Y-91270592D01*
X149318894Y-91206129D01*
X149229588Y-90991483D01*
X149141975Y-90756318D01*
X149071544Y-90542850D01*
X149056619Y-90491297D01*
X148994061Y-90273746D01*
X148939986Y-90112995D01*
X148883435Y-89983440D01*
X148813447Y-89859479D01*
X148733925Y-89737484D01*
X148656269Y-89618063D01*
X148598992Y-89522236D01*
X148579734Y-89483484D01*
X148549023Y-89438731D01*
X148518828Y-89465812D01*
X148491131Y-89551909D01*
X148467913Y-89684201D01*
X148451154Y-89849869D01*
X148442837Y-90036094D01*
X148444943Y-90230056D01*
X148450200Y-90321646D01*
X148459565Y-90530731D01*
X148445416Y-90681116D01*
X148399489Y-90797382D01*
X148313518Y-90904110D01*
X148227384Y-90984292D01*
X148114329Y-91115995D01*
X148083097Y-91222802D01*
X148071293Y-91340927D01*
X148042852Y-91478556D01*
X148039514Y-91490903D01*
X147958491Y-91639503D01*
X147822098Y-91755383D01*
X147658895Y-91816946D01*
X147602086Y-91821667D01*
X147512796Y-91842806D01*
X147490667Y-91885167D01*
X147512242Y-91941521D01*
X147530582Y-91948667D01*
X147572444Y-91982533D01*
X147647983Y-92074376D01*
X147747334Y-92209561D01*
X147860632Y-92373452D01*
X147978010Y-92551413D01*
X148089602Y-92728811D01*
X148185545Y-92891009D01*
X148255971Y-93023373D01*
X148258273Y-93028167D01*
X148338644Y-93210141D01*
X148373831Y-93330848D01*
X148364380Y-93400270D01*
X148310838Y-93428395D01*
X148280289Y-93430333D01*
X148200032Y-93403457D01*
X148072271Y-93330117D01*
X147911742Y-93221247D01*
X147733181Y-93087782D01*
X147551325Y-92940654D01*
X147380911Y-92790798D01*
X147259425Y-92672909D01*
X147115826Y-92539454D01*
X147004393Y-92470615D01*
X146937050Y-92456667D01*
X146781384Y-92496549D01*
X146654037Y-92614697D01*
X146557142Y-92808859D01*
X146534368Y-92881462D01*
X146478643Y-93036332D01*
X146408948Y-93171876D01*
X146359591Y-93237530D01*
X146213388Y-93328722D01*
X146017418Y-93375110D01*
X145791657Y-93379893D01*
X145556082Y-93346269D01*
X145330669Y-93277436D01*
X145135395Y-93176593D01*
X144990236Y-93046938D01*
X144966792Y-93014532D01*
X144878695Y-92825043D01*
X144818015Y-92583554D01*
X144787003Y-92317847D01*
X144787911Y-92055703D01*
X144822991Y-91824905D01*
X144861320Y-91713155D01*
X144931090Y-91580900D01*
X145027281Y-91424038D01*
X145094930Y-91324725D01*
X145227546Y-91090911D01*
X145289487Y-90868223D01*
X145319747Y-90689880D01*
X145351911Y-90565343D01*
X145400819Y-90478908D01*
X145481313Y-90414873D01*
X145608236Y-90357535D01*
X145796428Y-90291190D01*
X145853064Y-90271943D01*
X146095130Y-90172457D01*
X146255564Y-90064561D01*
X146337275Y-89944467D01*
X146343172Y-89808385D01*
X146298577Y-89691633D01*
X146230209Y-89588493D01*
X146125362Y-89458746D01*
X146000522Y-89319688D01*
X145872176Y-89188616D01*
X145756808Y-89082824D01*
X145670906Y-89019608D01*
X145649101Y-89010266D01*
X145569278Y-88972208D01*
X145448666Y-88894196D01*
X145310582Y-88791581D01*
X145281367Y-88768197D01*
X145057503Y-88600290D01*
X144856483Y-88485746D01*
X144648685Y-88411478D01*
X144404488Y-88364397D01*
X144351803Y-88357479D01*
X144079412Y-88304513D01*
X143865001Y-88222770D01*
X143844433Y-88211463D01*
X143682711Y-88138714D01*
X143502827Y-88085448D01*
X143450385Y-88075941D01*
X143256089Y-88015975D01*
X143096047Y-87905230D01*
X142982545Y-87759580D01*
X142927868Y-87594898D01*
X142944304Y-87427059D01*
X142945492Y-87423638D01*
X142968494Y-87369992D01*
X143003464Y-87337348D01*
X143069084Y-87320541D01*
X143184039Y-87314409D01*
X143343157Y-87313748D01*
X143567144Y-87324039D01*
X143812374Y-87350492D01*
X144026498Y-87387429D01*
X144030236Y-87388266D01*
X144202412Y-87424434D01*
X144318714Y-87439380D01*
X144405062Y-87433758D01*
X144487372Y-87408223D01*
X144506755Y-87400315D01*
X144631619Y-87319496D01*
X144704995Y-87196105D01*
X144709346Y-87167179D01*
X146505396Y-87167179D01*
X146514282Y-87255437D01*
X146523958Y-87301548D01*
X146537352Y-87402293D01*
X146549361Y-87570148D01*
X146559167Y-87787556D01*
X146565955Y-88036962D01*
X146568768Y-88265667D01*
X146570841Y-88543764D01*
X146574634Y-88750005D01*
X146581450Y-88897196D01*
X146592593Y-88998146D01*
X146609363Y-89065663D01*
X146633066Y-89112556D01*
X146658123Y-89144083D01*
X146756107Y-89223629D01*
X146862517Y-89243441D01*
X146987359Y-89200576D01*
X147140638Y-89092088D01*
X147287582Y-88958853D01*
X147425370Y-88828284D01*
X147521206Y-88747670D01*
X147592716Y-88706811D01*
X147657529Y-88695506D01*
X147729754Y-88702981D01*
X147849533Y-88743495D01*
X147992091Y-88820645D01*
X148075798Y-88879044D01*
X148192065Y-88959391D01*
X148289975Y-89009229D01*
X148335515Y-89018134D01*
X148381568Y-88970401D01*
X148409422Y-88864361D01*
X148416673Y-88724889D01*
X148400917Y-88576857D01*
X148384592Y-88510450D01*
X148308470Y-88281897D01*
X148219749Y-88050386D01*
X148128988Y-87841306D01*
X148046746Y-87680045D01*
X148023228Y-87641579D01*
X147949868Y-87511101D01*
X147896374Y-87383710D01*
X147888214Y-87355500D01*
X147857101Y-87267765D01*
X147795955Y-87125347D01*
X147713892Y-86948636D01*
X147628752Y-86775269D01*
X147482038Y-86508868D01*
X147340290Y-86298527D01*
X147209309Y-86151316D01*
X147094894Y-86074304D01*
X147045669Y-86064333D01*
X146972097Y-86102491D01*
X146899316Y-86202526D01*
X146841924Y-86342784D01*
X146831635Y-86381833D01*
X146797844Y-86480128D01*
X146735611Y-86624311D01*
X146657296Y-86786084D01*
X146642536Y-86814715D01*
X146563356Y-86972137D01*
X146519698Y-87081186D01*
X146505396Y-87167179D01*
X144709346Y-87167179D01*
X144731801Y-87017902D01*
X144725640Y-86855692D01*
X144710328Y-86742344D01*
X144680380Y-86630922D01*
X144628421Y-86503846D01*
X144547077Y-86343536D01*
X144428974Y-86132409D01*
X144404131Y-86089194D01*
X144266561Y-85842744D01*
X144173748Y-85653220D01*
X144122672Y-85507653D01*
X144110312Y-85393069D01*
X144133649Y-85296499D01*
X144189661Y-85204970D01*
X144196261Y-85196460D01*
X144292562Y-85099078D01*
X144422937Y-84997938D01*
X144561830Y-84909730D01*
X144683690Y-84851142D01*
X144747166Y-84836667D01*
X144821727Y-84863548D01*
X144925657Y-84931920D01*
X144982295Y-84978742D01*
X145122878Y-85093509D01*
X145279602Y-85206328D01*
X145322987Y-85234475D01*
X145468170Y-85330414D01*
X145628445Y-85443742D01*
X145696647Y-85494566D01*
X145847920Y-85589342D01*
X146002777Y-85636833D01*
X146178614Y-85637374D01*
X146392830Y-85591299D01*
X146626938Y-85512445D01*
X146674677Y-85487771D01*
X146696861Y-85445260D01*
X146697393Y-85363115D01*
X146680172Y-85219538D01*
X146679822Y-85216975D01*
X146620767Y-84925236D01*
X146530765Y-84706790D01*
X146404839Y-84554346D01*
X146238009Y-84460610D01*
X146146089Y-84435183D01*
X146007199Y-84370007D01*
X145903394Y-84269228D01*
X145778569Y-84139740D01*
X145600116Y-83998105D01*
X145393486Y-83862430D01*
X145184126Y-83750823D01*
X145158520Y-83739240D01*
X145017811Y-83687166D01*
X144908019Y-83677128D01*
X144820132Y-83694680D01*
X144624498Y-83727659D01*
X144380356Y-83735253D01*
X144119550Y-83718770D01*
X143873922Y-83679519D01*
X143765333Y-83651333D01*
X143448259Y-83580584D01*
X143181386Y-83577441D01*
X142978304Y-83634837D01*
X142852561Y-83681881D01*
X142751441Y-83682705D01*
X142662804Y-83629139D01*
X142574513Y-83513014D01*
X142474430Y-83326159D01*
X142452625Y-83281037D01*
X142299364Y-82935465D01*
X142158787Y-82571615D01*
X142042068Y-82220335D01*
X141965829Y-81936833D01*
X141921442Y-81766258D01*
X141869768Y-81601120D01*
X141838670Y-81518071D01*
X141792201Y-81356136D01*
X141801154Y-81235095D01*
X141862961Y-81165836D01*
X141924640Y-81153666D01*
X142034382Y-81183113D01*
X142112100Y-81236100D01*
X142205173Y-81299065D01*
X142336133Y-81354961D01*
X142376684Y-81367168D01*
X142476613Y-81404868D01*
X142582270Y-81471128D01*
X142708746Y-81577469D01*
X142871132Y-81735411D01*
X142907364Y-81772279D01*
X143053230Y-81927059D01*
X143182309Y-82074234D01*
X143279291Y-82195727D01*
X143325219Y-82265628D01*
X143440601Y-82450639D01*
X143576280Y-82576330D01*
X143653376Y-82621945D01*
X143784234Y-82664211D01*
X143900300Y-82639899D01*
X144014156Y-82543337D01*
X144107680Y-82417020D01*
X144198197Y-82279661D01*
X144280824Y-82155226D01*
X144323772Y-82091235D01*
X144417683Y-81882695D01*
X144430381Y-81657622D01*
X144362709Y-81420342D01*
X144215511Y-81175186D01*
X144123528Y-81063422D01*
X143935799Y-80814347D01*
X143821094Y-80560696D01*
X143770046Y-80278401D01*
X143765333Y-80143102D01*
X143762193Y-80019848D01*
X143743866Y-79932797D01*
X143696992Y-79855457D01*
X143608212Y-79761333D01*
X143539724Y-79695702D01*
X143333889Y-79488971D01*
X143152874Y-79285431D01*
X143007656Y-79098853D01*
X142909217Y-78943013D01*
X142874483Y-78861217D01*
X142845234Y-78703675D01*
X142835504Y-78525544D01*
X142845050Y-78359663D01*
X142873630Y-78238873D01*
X142879178Y-78227350D01*
X142935702Y-78172818D01*
X143049938Y-78096428D01*
X143202208Y-78010662D01*
X143291859Y-77965550D01*
X143624465Y-77776332D01*
X143920799Y-77540769D01*
X143955764Y-77508221D01*
X144122595Y-77355944D01*
X144265612Y-77242595D01*
X144408230Y-77154844D01*
X144573864Y-77079362D01*
X144785928Y-77002818D01*
X144921456Y-76958449D01*
X145138287Y-76891621D01*
X145293633Y-76853151D01*
X145405268Y-76841627D01*
X145490970Y-76855640D01*
G36*
X139138951Y-92083332D02*
G01*
X139143056Y-92109158D01*
X139134299Y-92185213D01*
X139100045Y-92318256D01*
X139046339Y-92486703D01*
X139005080Y-92601711D01*
X138925894Y-92835358D01*
X138886944Y-93026074D01*
X138892912Y-93191413D01*
X138948480Y-93348928D01*
X139058332Y-93516173D01*
X139227149Y-93710702D01*
X139329492Y-93817884D01*
X139447629Y-93924703D01*
X139597123Y-94039357D01*
X139758099Y-94148960D01*
X139910683Y-94240626D01*
X140035000Y-94301470D01*
X140102915Y-94319333D01*
X140173177Y-94347762D01*
X140186220Y-94428494D01*
X140145422Y-94554697D01*
X140054156Y-94719539D01*
X139915799Y-94916188D01*
X139733724Y-95137811D01*
X139655179Y-95225621D01*
X139410517Y-95447775D01*
X139148453Y-95603414D01*
X138880035Y-95688752D01*
X138616310Y-95700004D01*
X138412046Y-95651575D01*
X138239671Y-95564661D01*
X138115393Y-95459248D01*
X138054555Y-95349535D01*
X138050971Y-95317371D01*
X138065525Y-95221990D01*
X138100893Y-95094297D01*
X138112612Y-95060167D01*
X138154498Y-94911473D01*
X138170129Y-94756534D01*
X138158280Y-94577361D01*
X138117723Y-94355964D01*
X138047233Y-94074355D01*
X138044790Y-94065333D01*
X137966663Y-93772612D01*
X137910315Y-93546415D01*
X137873639Y-93372040D01*
X137854528Y-93234784D01*
X137850878Y-93119943D01*
X137860582Y-93012815D01*
X137879240Y-92909644D01*
X137945150Y-92696827D01*
X138050304Y-92538154D01*
X138207686Y-92421842D01*
X138430278Y-92336107D01*
X138543125Y-92307123D01*
X138757876Y-92245741D01*
X138927098Y-92174027D01*
X139002833Y-92125234D01*
X139085161Y-92060079D01*
X139123551Y-92046912D01*
X139138951Y-92083332D01*
X139138951Y-92083332D01*
G37*
X139138951Y-92083332D02*
X139143056Y-92109158D01*
X139134299Y-92185213D01*
X139100045Y-92318256D01*
X139046339Y-92486703D01*
X139005080Y-92601711D01*
X138925894Y-92835358D01*
X138886944Y-93026074D01*
X138892912Y-93191413D01*
X138948480Y-93348928D01*
X139058332Y-93516173D01*
X139227149Y-93710702D01*
X139329492Y-93817884D01*
X139447629Y-93924703D01*
X139597123Y-94039357D01*
X139758099Y-94148960D01*
X139910683Y-94240626D01*
X140035000Y-94301470D01*
X140102915Y-94319333D01*
X140173177Y-94347762D01*
X140186220Y-94428494D01*
X140145422Y-94554697D01*
X140054156Y-94719539D01*
X139915799Y-94916188D01*
X139733724Y-95137811D01*
X139655179Y-95225621D01*
X139410517Y-95447775D01*
X139148453Y-95603414D01*
X138880035Y-95688752D01*
X138616310Y-95700004D01*
X138412046Y-95651575D01*
X138239671Y-95564661D01*
X138115393Y-95459248D01*
X138054555Y-95349535D01*
X138050971Y-95317371D01*
X138065525Y-95221990D01*
X138100893Y-95094297D01*
X138112612Y-95060167D01*
X138154498Y-94911473D01*
X138170129Y-94756534D01*
X138158280Y-94577361D01*
X138117723Y-94355964D01*
X138047233Y-94074355D01*
X138044790Y-94065333D01*
X137966663Y-93772612D01*
X137910315Y-93546415D01*
X137873639Y-93372040D01*
X137854528Y-93234784D01*
X137850878Y-93119943D01*
X137860582Y-93012815D01*
X137879240Y-92909644D01*
X137945150Y-92696827D01*
X138050304Y-92538154D01*
X138207686Y-92421842D01*
X138430278Y-92336107D01*
X138543125Y-92307123D01*
X138757876Y-92245741D01*
X138927098Y-92174027D01*
X139002833Y-92125234D01*
X139085161Y-92060079D01*
X139123551Y-92046912D01*
X139138951Y-92083332D01*
G36*
X147889867Y-93974032D02*
G01*
X148083225Y-93997378D01*
X148230383Y-94061070D01*
X148366339Y-94181479D01*
X148390254Y-94208082D01*
X148541019Y-94416676D01*
X148614862Y-94617015D01*
X148618346Y-94811402D01*
X148572342Y-95012338D01*
X148499035Y-95134987D01*
X148396417Y-95181860D01*
X148326750Y-95176249D01*
X148263923Y-95147064D01*
X148252667Y-95127510D01*
X148223291Y-95059112D01*
X148147422Y-94956445D01*
X148043447Y-94839639D01*
X147929754Y-94728819D01*
X147824729Y-94644115D01*
X147792627Y-94623916D01*
X147645250Y-94517432D01*
X147538994Y-94394375D01*
X147491602Y-94276145D01*
X147490667Y-94259683D01*
X147516661Y-94187307D01*
X147580209Y-94093251D01*
X147589851Y-94081745D01*
X147666657Y-94009049D01*
X147753407Y-93977452D01*
X147886450Y-93973906D01*
X147889867Y-93974032D01*
X147889867Y-93974032D01*
G37*
X147889867Y-93974032D02*
X148083225Y-93997378D01*
X148230383Y-94061070D01*
X148366339Y-94181479D01*
X148390254Y-94208082D01*
X148541019Y-94416676D01*
X148614862Y-94617015D01*
X148618346Y-94811402D01*
X148572342Y-95012338D01*
X148499035Y-95134987D01*
X148396417Y-95181860D01*
X148326750Y-95176249D01*
X148263923Y-95147064D01*
X148252667Y-95127510D01*
X148223291Y-95059112D01*
X148147422Y-94956445D01*
X148043447Y-94839639D01*
X147929754Y-94728819D01*
X147824729Y-94644115D01*
X147792627Y-94623916D01*
X147645250Y-94517432D01*
X147538994Y-94394375D01*
X147491602Y-94276145D01*
X147490667Y-94259683D01*
X147516661Y-94187307D01*
X147580209Y-94093251D01*
X147589851Y-94081745D01*
X147666657Y-94009049D01*
X147753407Y-93977452D01*
X147886450Y-93973906D01*
X147889867Y-93974032D01*
G36*
X143908556Y-93935494D02*
G01*
X144017838Y-94034181D01*
X144072493Y-94175756D01*
X144061444Y-94342565D01*
X144052753Y-94370666D01*
X143988719Y-94508533D01*
X143891940Y-94661954D01*
X143776971Y-94813418D01*
X143658365Y-94945414D01*
X143550678Y-95040429D01*
X143468464Y-95080952D01*
X143462079Y-95081333D01*
X143414264Y-95051001D01*
X143405123Y-95038391D01*
X143397546Y-94975268D01*
X143406875Y-94859992D01*
X143420717Y-94773807D01*
X143451691Y-94592010D01*
X143480511Y-94392850D01*
X143489623Y-94319333D01*
X143530534Y-94106719D01*
X143597422Y-93970389D01*
X143693632Y-93905042D01*
X143755726Y-93897346D01*
X143908556Y-93935494D01*
X143908556Y-93935494D01*
G37*
X143908556Y-93935494D02*
X144017838Y-94034181D01*
X144072493Y-94175756D01*
X144061444Y-94342565D01*
X144052753Y-94370666D01*
X143988719Y-94508533D01*
X143891940Y-94661954D01*
X143776971Y-94813418D01*
X143658365Y-94945414D01*
X143550678Y-95040429D01*
X143468464Y-95080952D01*
X143462079Y-95081333D01*
X143414264Y-95051001D01*
X143405123Y-95038391D01*
X143397546Y-94975268D01*
X143406875Y-94859992D01*
X143420717Y-94773807D01*
X143451691Y-94592010D01*
X143480511Y-94392850D01*
X143489623Y-94319333D01*
X143530534Y-94106719D01*
X143597422Y-93970389D01*
X143693632Y-93905042D01*
X143755726Y-93897346D01*
X143908556Y-93935494D01*
G36*
X142753196Y-93581887D02*
G01*
X142813355Y-93627402D01*
X142882482Y-93722739D01*
X142938844Y-93842000D01*
X142961000Y-93937208D01*
X142932694Y-93998892D01*
X142858426Y-94100349D01*
X142754170Y-94223625D01*
X142635900Y-94350768D01*
X142519592Y-94463825D01*
X142421220Y-94544842D01*
X142418874Y-94546478D01*
X142247276Y-94643928D01*
X142081609Y-94700535D01*
X141944120Y-94710191D01*
X141887157Y-94692495D01*
X141796889Y-94600596D01*
X141721527Y-94443815D01*
X141671118Y-94245250D01*
X141657382Y-94130924D01*
X141669550Y-94077840D01*
X141709353Y-94065333D01*
X141742741Y-94061329D01*
X141787644Y-94044953D01*
X141855547Y-94009659D01*
X141957936Y-93948900D01*
X142106298Y-93856130D01*
X142312117Y-93724803D01*
X142354341Y-93697727D01*
X142525863Y-93600831D01*
X142653862Y-93562976D01*
X142753196Y-93581887D01*
X142753196Y-93581887D01*
G37*
X142753196Y-93581887D02*
X142813355Y-93627402D01*
X142882482Y-93722739D01*
X142938844Y-93842000D01*
X142961000Y-93937208D01*
X142932694Y-93998892D01*
X142858426Y-94100349D01*
X142754170Y-94223625D01*
X142635900Y-94350768D01*
X142519592Y-94463825D01*
X142421220Y-94544842D01*
X142418874Y-94546478D01*
X142247276Y-94643928D01*
X142081609Y-94700535D01*
X141944120Y-94710191D01*
X141887157Y-94692495D01*
X141796889Y-94600596D01*
X141721527Y-94443815D01*
X141671118Y-94245250D01*
X141657382Y-94130924D01*
X141669550Y-94077840D01*
X141709353Y-94065333D01*
X141742741Y-94061329D01*
X141787644Y-94044953D01*
X141855547Y-94009659D01*
X141957936Y-93948900D01*
X142106298Y-93856130D01*
X142312117Y-93724803D01*
X142354341Y-93697727D01*
X142525863Y-93600831D01*
X142653862Y-93562976D01*
X142753196Y-93581887D01*
G36*
X140480506Y-89616197D02*
G01*
X140535931Y-89632870D01*
X140702699Y-89679641D01*
X140892154Y-89726055D01*
X140972094Y-89743437D01*
X141132807Y-89786710D01*
X141282378Y-89843672D01*
X141343620Y-89875223D01*
X141456722Y-89973790D01*
X141584078Y-90132626D01*
X141712654Y-90331854D01*
X141829416Y-90551593D01*
X141908636Y-90736963D01*
X141940695Y-90821474D01*
X141963723Y-90889813D01*
X141976891Y-90955356D01*
X141979367Y-91031476D01*
X141970318Y-91131549D01*
X141948915Y-91268948D01*
X141914324Y-91457047D01*
X141865715Y-91709222D01*
X141839882Y-91842833D01*
X141775586Y-92153837D01*
X141712672Y-92400145D01*
X141643625Y-92601259D01*
X141560929Y-92776682D01*
X141457070Y-92945915D01*
X141365253Y-93074496D01*
X141297755Y-93187676D01*
X141273822Y-93302584D01*
X141293735Y-93441435D01*
X141357773Y-93626443D01*
X141372691Y-93663167D01*
X141443872Y-93848979D01*
X141474193Y-93974975D01*
X141461736Y-94056517D01*
X141404586Y-94108966D01*
X141312685Y-94144194D01*
X141199976Y-94173841D01*
X141122883Y-94186658D01*
X141111601Y-94186103D01*
X141045293Y-94188847D01*
X140912039Y-94208354D01*
X140727357Y-94242205D01*
X140643250Y-94259079D01*
X140565011Y-94254905D01*
X140548000Y-94216805D01*
X140573870Y-94144131D01*
X140590938Y-94128459D01*
X140651309Y-94058250D01*
X140716744Y-93932500D01*
X140775370Y-93778624D01*
X140815315Y-93624037D01*
X140819094Y-93601621D01*
X140858648Y-93446181D01*
X140920072Y-93298746D01*
X140935653Y-93271401D01*
X140980290Y-93187652D01*
X141002782Y-93102398D01*
X141006398Y-92988924D01*
X140994406Y-92820514D01*
X140992862Y-92803780D01*
X140938125Y-92461686D01*
X140835552Y-92161134D01*
X140672944Y-91866863D01*
X140664046Y-91853243D01*
X140548346Y-91631139D01*
X140444874Y-91333778D01*
X140405710Y-91189815D01*
X140347984Y-90985190D01*
X140283535Y-90791521D01*
X140221923Y-90636139D01*
X140189190Y-90570760D01*
X140098822Y-90363959D01*
X140057131Y-90148920D01*
X140063257Y-89945022D01*
X140116337Y-89771646D01*
X140215511Y-89648171D01*
X140230677Y-89637491D01*
X140302045Y-89599519D01*
X140374335Y-89592587D01*
X140480506Y-89616197D01*
X140480506Y-89616197D01*
G37*
X140480506Y-89616197D02*
X140535931Y-89632870D01*
X140702699Y-89679641D01*
X140892154Y-89726055D01*
X140972094Y-89743437D01*
X141132807Y-89786710D01*
X141282378Y-89843672D01*
X141343620Y-89875223D01*
X141456722Y-89973790D01*
X141584078Y-90132626D01*
X141712654Y-90331854D01*
X141829416Y-90551593D01*
X141908636Y-90736963D01*
X141940695Y-90821474D01*
X141963723Y-90889813D01*
X141976891Y-90955356D01*
X141979367Y-91031476D01*
X141970318Y-91131549D01*
X141948915Y-91268948D01*
X141914324Y-91457047D01*
X141865715Y-91709222D01*
X141839882Y-91842833D01*
X141775586Y-92153837D01*
X141712672Y-92400145D01*
X141643625Y-92601259D01*
X141560929Y-92776682D01*
X141457070Y-92945915D01*
X141365253Y-93074496D01*
X141297755Y-93187676D01*
X141273822Y-93302584D01*
X141293735Y-93441435D01*
X141357773Y-93626443D01*
X141372691Y-93663167D01*
X141443872Y-93848979D01*
X141474193Y-93974975D01*
X141461736Y-94056517D01*
X141404586Y-94108966D01*
X141312685Y-94144194D01*
X141199976Y-94173841D01*
X141122883Y-94186658D01*
X141111601Y-94186103D01*
X141045293Y-94188847D01*
X140912039Y-94208354D01*
X140727357Y-94242205D01*
X140643250Y-94259079D01*
X140565011Y-94254905D01*
X140548000Y-94216805D01*
X140573870Y-94144131D01*
X140590938Y-94128459D01*
X140651309Y-94058250D01*
X140716744Y-93932500D01*
X140775370Y-93778624D01*
X140815315Y-93624037D01*
X140819094Y-93601621D01*
X140858648Y-93446181D01*
X140920072Y-93298746D01*
X140935653Y-93271401D01*
X140980290Y-93187652D01*
X141002782Y-93102398D01*
X141006398Y-92988924D01*
X140994406Y-92820514D01*
X140992862Y-92803780D01*
X140938125Y-92461686D01*
X140835552Y-92161134D01*
X140672944Y-91866863D01*
X140664046Y-91853243D01*
X140548346Y-91631139D01*
X140444874Y-91333778D01*
X140405710Y-91189815D01*
X140347984Y-90985190D01*
X140283535Y-90791521D01*
X140221923Y-90636139D01*
X140189190Y-90570760D01*
X140098822Y-90363959D01*
X140057131Y-90148920D01*
X140063257Y-89945022D01*
X140116337Y-89771646D01*
X140215511Y-89648171D01*
X140230677Y-89637491D01*
X140302045Y-89599519D01*
X140374335Y-89592587D01*
X140480506Y-89616197D01*
G36*
X136710487Y-92367809D02*
G01*
X136881749Y-92463888D01*
X136914103Y-92490026D01*
X137057475Y-92656056D01*
X137138263Y-92865334D01*
X137161333Y-93104745D01*
X137131798Y-93398014D01*
X137048692Y-93668646D01*
X136929914Y-93876742D01*
X136857178Y-93961381D01*
X136786895Y-94004310D01*
X136698488Y-94006931D01*
X136571382Y-93970647D01*
X136420500Y-93911476D01*
X136270790Y-93840113D01*
X136141826Y-93761360D01*
X136075070Y-93705578D01*
X135992926Y-93582240D01*
X135911795Y-93406788D01*
X135839010Y-93203280D01*
X135781902Y-92995777D01*
X135747804Y-92808338D01*
X135744048Y-92665024D01*
X135749298Y-92636588D01*
X135790741Y-92573862D01*
X135887262Y-92535057D01*
X135959394Y-92521695D01*
X136119321Y-92485268D01*
X136290911Y-92428448D01*
X136338652Y-92408725D01*
X136536073Y-92350356D01*
X136710487Y-92367809D01*
X136710487Y-92367809D01*
G37*
X136710487Y-92367809D02*
X136881749Y-92463888D01*
X136914103Y-92490026D01*
X137057475Y-92656056D01*
X137138263Y-92865334D01*
X137161333Y-93104745D01*
X137131798Y-93398014D01*
X137048692Y-93668646D01*
X136929914Y-93876742D01*
X136857178Y-93961381D01*
X136786895Y-94004310D01*
X136698488Y-94006931D01*
X136571382Y-93970647D01*
X136420500Y-93911476D01*
X136270790Y-93840113D01*
X136141826Y-93761360D01*
X136075070Y-93705578D01*
X135992926Y-93582240D01*
X135911795Y-93406788D01*
X135839010Y-93203280D01*
X135781902Y-92995777D01*
X135747804Y-92808338D01*
X135744048Y-92665024D01*
X135749298Y-92636588D01*
X135790741Y-92573862D01*
X135887262Y-92535057D01*
X135959394Y-92521695D01*
X136119321Y-92485268D01*
X136290911Y-92428448D01*
X136338652Y-92408725D01*
X136536073Y-92350356D01*
X136710487Y-92367809D01*
G36*
X135340256Y-85168183D02*
G01*
X135388045Y-85228233D01*
X135430888Y-85302572D01*
X135575222Y-85475248D01*
X135704104Y-85557917D01*
X135806422Y-85615511D01*
X135872864Y-85681986D01*
X135911046Y-85776208D01*
X135928581Y-85917045D01*
X135933085Y-86123364D01*
X135933088Y-86125285D01*
X135941204Y-86321560D01*
X135961605Y-86525985D01*
X135982718Y-86656553D01*
X136010413Y-86862478D01*
X135999406Y-87013932D01*
X135951304Y-87102519D01*
X135893573Y-87122667D01*
X135835438Y-87163140D01*
X135792024Y-87284935D01*
X135763245Y-87488610D01*
X135749013Y-87774726D01*
X135747938Y-88054000D01*
X135774735Y-88464408D01*
X135849774Y-88868290D01*
X135978624Y-89291526D01*
X136060900Y-89508353D01*
X136121667Y-89675419D01*
X136166537Y-89827948D01*
X136187169Y-89936936D01*
X136187667Y-89949192D01*
X136161204Y-90058964D01*
X136087360Y-90214424D01*
X135997167Y-90363488D01*
X135908506Y-90504686D01*
X135841829Y-90622701D01*
X135808484Y-90697054D01*
X135806667Y-90707224D01*
X135822890Y-90772592D01*
X135864955Y-90887188D01*
X135910885Y-90996575D01*
X135997739Y-91209618D01*
X136041650Y-91370041D01*
X136043870Y-91497441D01*
X136005649Y-91611414D01*
X135955402Y-91693846D01*
X135829820Y-91845362D01*
X135701577Y-91949070D01*
X135588567Y-91990768D01*
X135580948Y-91991000D01*
X135523580Y-91958272D01*
X135447738Y-91875643D01*
X135414626Y-91829375D01*
X135282637Y-91608118D01*
X135140390Y-91332177D01*
X135001125Y-91028210D01*
X134922738Y-90839012D01*
X134820933Y-90571865D01*
X134715501Y-90276946D01*
X134611449Y-89970102D01*
X134513785Y-89667179D01*
X134427520Y-89384023D01*
X134357659Y-89136481D01*
X134309214Y-88940398D01*
X134290017Y-88837167D01*
X134242435Y-88605692D01*
X134158221Y-88396369D01*
X134087293Y-88268404D01*
X133972667Y-88044251D01*
X133925946Y-87869959D01*
X133924757Y-87842955D01*
X133950639Y-87710731D01*
X134019095Y-87539445D01*
X134116341Y-87353219D01*
X134228593Y-87176173D01*
X134342066Y-87032431D01*
X134434379Y-86951142D01*
X134562631Y-86825936D01*
X134669121Y-86626248D01*
X134750091Y-86360324D01*
X134782693Y-86186811D01*
X134830679Y-85959134D01*
X134901492Y-85731141D01*
X134987061Y-85521299D01*
X135079318Y-85348075D01*
X135170191Y-85229935D01*
X135215885Y-85195525D01*
X135291309Y-85161482D01*
X135340256Y-85168183D01*
X135340256Y-85168183D01*
G37*
X135340256Y-85168183D02*
X135388045Y-85228233D01*
X135430888Y-85302572D01*
X135575222Y-85475248D01*
X135704104Y-85557917D01*
X135806422Y-85615511D01*
X135872864Y-85681986D01*
X135911046Y-85776208D01*
X135928581Y-85917045D01*
X135933085Y-86123364D01*
X135933088Y-86125285D01*
X135941204Y-86321560D01*
X135961605Y-86525985D01*
X135982718Y-86656553D01*
X136010413Y-86862478D01*
X135999406Y-87013932D01*
X135951304Y-87102519D01*
X135893573Y-87122667D01*
X135835438Y-87163140D01*
X135792024Y-87284935D01*
X135763245Y-87488610D01*
X135749013Y-87774726D01*
X135747938Y-88054000D01*
X135774735Y-88464408D01*
X135849774Y-88868290D01*
X135978624Y-89291526D01*
X136060900Y-89508353D01*
X136121667Y-89675419D01*
X136166537Y-89827948D01*
X136187169Y-89936936D01*
X136187667Y-89949192D01*
X136161204Y-90058964D01*
X136087360Y-90214424D01*
X135997167Y-90363488D01*
X135908506Y-90504686D01*
X135841829Y-90622701D01*
X135808484Y-90697054D01*
X135806667Y-90707224D01*
X135822890Y-90772592D01*
X135864955Y-90887188D01*
X135910885Y-90996575D01*
X135997739Y-91209618D01*
X136041650Y-91370041D01*
X136043870Y-91497441D01*
X136005649Y-91611414D01*
X135955402Y-91693846D01*
X135829820Y-91845362D01*
X135701577Y-91949070D01*
X135588567Y-91990768D01*
X135580948Y-91991000D01*
X135523580Y-91958272D01*
X135447738Y-91875643D01*
X135414626Y-91829375D01*
X135282637Y-91608118D01*
X135140390Y-91332177D01*
X135001125Y-91028210D01*
X134922738Y-90839012D01*
X134820933Y-90571865D01*
X134715501Y-90276946D01*
X134611449Y-89970102D01*
X134513785Y-89667179D01*
X134427520Y-89384023D01*
X134357659Y-89136481D01*
X134309214Y-88940398D01*
X134290017Y-88837167D01*
X134242435Y-88605692D01*
X134158221Y-88396369D01*
X134087293Y-88268404D01*
X133972667Y-88044251D01*
X133925946Y-87869959D01*
X133924757Y-87842955D01*
X133950639Y-87710731D01*
X134019095Y-87539445D01*
X134116341Y-87353219D01*
X134228593Y-87176173D01*
X134342066Y-87032431D01*
X134434379Y-86951142D01*
X134562631Y-86825936D01*
X134669121Y-86626248D01*
X134750091Y-86360324D01*
X134782693Y-86186811D01*
X134830679Y-85959134D01*
X134901492Y-85731141D01*
X134987061Y-85521299D01*
X135079318Y-85348075D01*
X135170191Y-85229935D01*
X135215885Y-85195525D01*
X135291309Y-85161482D01*
X135340256Y-85168183D01*
G36*
X137280989Y-88762836D02*
G01*
X137350737Y-88777807D01*
X137479935Y-88818662D01*
X137557140Y-88875018D01*
X137614372Y-88972857D01*
X137627341Y-89002247D01*
X137673771Y-89136811D01*
X137720175Y-89313984D01*
X137752239Y-89472167D01*
X137785177Y-89665988D01*
X137819392Y-89866680D01*
X137842297Y-90000561D01*
X137875150Y-90142058D01*
X137928582Y-90254939D01*
X138020620Y-90371487D01*
X138090508Y-90445061D01*
X138200363Y-90568814D01*
X138285427Y-90686324D01*
X138326249Y-90769420D01*
X138384393Y-90889030D01*
X138488325Y-91016792D01*
X138609478Y-91122065D01*
X138699156Y-91169365D01*
X138813210Y-91221508D01*
X138937659Y-91302736D01*
X139050132Y-91395071D01*
X139128258Y-91480530D01*
X139151000Y-91532510D01*
X139148946Y-91577057D01*
X139131423Y-91597503D01*
X139081387Y-91593142D01*
X138981792Y-91563270D01*
X138854086Y-91520226D01*
X138740706Y-91475258D01*
X138639116Y-91416124D01*
X138531802Y-91329118D01*
X138401248Y-91200534D01*
X138279260Y-91070429D01*
X138027173Y-90789847D01*
X137792208Y-90515032D01*
X137584667Y-90258779D01*
X137414854Y-90033884D01*
X137293072Y-89853141D01*
X137275989Y-89824462D01*
X137204729Y-89678809D01*
X137170068Y-89534632D01*
X137161333Y-89358515D01*
X137154513Y-89188716D01*
X137136902Y-89030004D01*
X137119409Y-88944428D01*
X137100625Y-88838376D01*
X137109042Y-88768135D01*
X137113133Y-88762600D01*
X137171721Y-88751417D01*
X137280989Y-88762836D01*
X137280989Y-88762836D01*
G37*
X137280989Y-88762836D02*
X137350737Y-88777807D01*
X137479935Y-88818662D01*
X137557140Y-88875018D01*
X137614372Y-88972857D01*
X137627341Y-89002247D01*
X137673771Y-89136811D01*
X137720175Y-89313984D01*
X137752239Y-89472167D01*
X137785177Y-89665988D01*
X137819392Y-89866680D01*
X137842297Y-90000561D01*
X137875150Y-90142058D01*
X137928582Y-90254939D01*
X138020620Y-90371487D01*
X138090508Y-90445061D01*
X138200363Y-90568814D01*
X138285427Y-90686324D01*
X138326249Y-90769420D01*
X138384393Y-90889030D01*
X138488325Y-91016792D01*
X138609478Y-91122065D01*
X138699156Y-91169365D01*
X138813210Y-91221508D01*
X138937659Y-91302736D01*
X139050132Y-91395071D01*
X139128258Y-91480530D01*
X139151000Y-91532510D01*
X139148946Y-91577057D01*
X139131423Y-91597503D01*
X139081387Y-91593142D01*
X138981792Y-91563270D01*
X138854086Y-91520226D01*
X138740706Y-91475258D01*
X138639116Y-91416124D01*
X138531802Y-91329118D01*
X138401248Y-91200534D01*
X138279260Y-91070429D01*
X138027173Y-90789847D01*
X137792208Y-90515032D01*
X137584667Y-90258779D01*
X137414854Y-90033884D01*
X137293072Y-89853141D01*
X137275989Y-89824462D01*
X137204729Y-89678809D01*
X137170068Y-89534632D01*
X137161333Y-89358515D01*
X137154513Y-89188716D01*
X137136902Y-89030004D01*
X137119409Y-88944428D01*
X137100625Y-88838376D01*
X137109042Y-88768135D01*
X137113133Y-88762600D01*
X137171721Y-88751417D01*
X137280989Y-88762836D01*
G36*
X153493214Y-91307660D02*
G01*
X153541017Y-91392640D01*
X153544333Y-91422962D01*
X153513613Y-91442006D01*
X153447326Y-91428582D01*
X153384282Y-91390673D01*
X153383467Y-91389867D01*
X153335771Y-91317677D01*
X153364288Y-91277583D01*
X153412804Y-91271333D01*
X153493214Y-91307660D01*
X153493214Y-91307660D01*
G37*
X153493214Y-91307660D02*
X153541017Y-91392640D01*
X153544333Y-91422962D01*
X153513613Y-91442006D01*
X153447326Y-91428582D01*
X153384282Y-91390673D01*
X153383467Y-91389867D01*
X153335771Y-91317677D01*
X153364288Y-91277583D01*
X153412804Y-91271333D01*
X153493214Y-91307660D01*
G36*
X153983176Y-89565744D02*
G01*
X154068891Y-89627537D01*
X154155443Y-89730100D01*
X154225093Y-89855575D01*
X154236705Y-89885372D01*
X154279189Y-90010345D01*
X154335717Y-90184460D01*
X154395968Y-90375773D01*
X154413177Y-90431581D01*
X154478911Y-90669666D01*
X154505496Y-90834639D01*
X154490580Y-90929639D01*
X154431811Y-90957807D01*
X154326837Y-90922281D01*
X154173307Y-90826201D01*
X154137000Y-90800308D01*
X154004024Y-90691632D01*
X153891553Y-90577909D01*
X153831858Y-90496465D01*
X153782895Y-90351567D01*
X153761895Y-90170862D01*
X153766724Y-89978018D01*
X153795249Y-89796701D01*
X153845335Y-89650580D01*
X153914850Y-89563323D01*
X153916038Y-89562578D01*
X153983176Y-89565744D01*
X153983176Y-89565744D01*
G37*
X153983176Y-89565744D02*
X154068891Y-89627537D01*
X154155443Y-89730100D01*
X154225093Y-89855575D01*
X154236705Y-89885372D01*
X154279189Y-90010345D01*
X154335717Y-90184460D01*
X154395968Y-90375773D01*
X154413177Y-90431581D01*
X154478911Y-90669666D01*
X154505496Y-90834639D01*
X154490580Y-90929639D01*
X154431811Y-90957807D01*
X154326837Y-90922281D01*
X154173307Y-90826201D01*
X154137000Y-90800308D01*
X154004024Y-90691632D01*
X153891553Y-90577909D01*
X153831858Y-90496465D01*
X153782895Y-90351567D01*
X153761895Y-90170862D01*
X153766724Y-89978018D01*
X153795249Y-89796701D01*
X153845335Y-89650580D01*
X153914850Y-89563323D01*
X153916038Y-89562578D01*
X153983176Y-89565744D01*
G36*
X151558098Y-85480079D02*
G01*
X151748564Y-85604712D01*
X151799916Y-85647524D01*
X151915027Y-85733006D01*
X152068835Y-85829068D01*
X152189905Y-85895120D01*
X152326287Y-85972713D01*
X152433585Y-86049684D01*
X152484406Y-86103688D01*
X152503217Y-86179875D01*
X152518004Y-86317855D01*
X152526779Y-86494782D01*
X152528333Y-86609128D01*
X152532435Y-86802482D01*
X152543456Y-86974493D01*
X152559465Y-87100506D01*
X152570036Y-87142174D01*
X152616982Y-87227347D01*
X152702588Y-87351352D01*
X152809601Y-87489443D01*
X152826096Y-87509436D01*
X152932382Y-87640355D01*
X152990781Y-87725757D01*
X153009312Y-87783709D01*
X152995994Y-87832278D01*
X152980626Y-87857590D01*
X152887102Y-87943696D01*
X152783044Y-87954634D01*
X152689029Y-87889028D01*
X152680587Y-87877656D01*
X152629029Y-87772022D01*
X152613000Y-87691007D01*
X152589991Y-87598445D01*
X152533028Y-87482978D01*
X152516501Y-87457010D01*
X152450576Y-87373040D01*
X152375620Y-87323264D01*
X152262390Y-87292672D01*
X152167251Y-87277746D01*
X151972361Y-87245804D01*
X151838699Y-87204489D01*
X151743110Y-87137519D01*
X151662437Y-87028610D01*
X151573524Y-86861479D01*
X151572574Y-86859576D01*
X151489733Y-86702316D01*
X151410229Y-86565984D01*
X151349009Y-86475928D01*
X151340477Y-86465922D01*
X151243619Y-86322041D01*
X151168307Y-86138146D01*
X151119615Y-85938983D01*
X151102619Y-85749296D01*
X151122395Y-85593833D01*
X151149348Y-85534036D01*
X151252334Y-85443667D01*
X151390636Y-85426040D01*
X151558098Y-85480079D01*
X151558098Y-85480079D01*
G37*
X151558098Y-85480079D02*
X151748564Y-85604712D01*
X151799916Y-85647524D01*
X151915027Y-85733006D01*
X152068835Y-85829068D01*
X152189905Y-85895120D01*
X152326287Y-85972713D01*
X152433585Y-86049684D01*
X152484406Y-86103688D01*
X152503217Y-86179875D01*
X152518004Y-86317855D01*
X152526779Y-86494782D01*
X152528333Y-86609128D01*
X152532435Y-86802482D01*
X152543456Y-86974493D01*
X152559465Y-87100506D01*
X152570036Y-87142174D01*
X152616982Y-87227347D01*
X152702588Y-87351352D01*
X152809601Y-87489443D01*
X152826096Y-87509436D01*
X152932382Y-87640355D01*
X152990781Y-87725757D01*
X153009312Y-87783709D01*
X152995994Y-87832278D01*
X152980626Y-87857590D01*
X152887102Y-87943696D01*
X152783044Y-87954634D01*
X152689029Y-87889028D01*
X152680587Y-87877656D01*
X152629029Y-87772022D01*
X152613000Y-87691007D01*
X152589991Y-87598445D01*
X152533028Y-87482978D01*
X152516501Y-87457010D01*
X152450576Y-87373040D01*
X152375620Y-87323264D01*
X152262390Y-87292672D01*
X152167251Y-87277746D01*
X151972361Y-87245804D01*
X151838699Y-87204489D01*
X151743110Y-87137519D01*
X151662437Y-87028610D01*
X151573524Y-86861479D01*
X151572574Y-86859576D01*
X151489733Y-86702316D01*
X151410229Y-86565984D01*
X151349009Y-86475928D01*
X151340477Y-86465922D01*
X151243619Y-86322041D01*
X151168307Y-86138146D01*
X151119615Y-85938983D01*
X151102619Y-85749296D01*
X151122395Y-85593833D01*
X151149348Y-85534036D01*
X151252334Y-85443667D01*
X151390636Y-85426040D01*
X151558098Y-85480079D01*
G36*
X139037620Y-84917832D02*
G01*
X139136248Y-84991387D01*
X139252139Y-85109114D01*
X139371890Y-85256952D01*
X139482096Y-85420841D01*
X139510833Y-85470215D01*
X139618523Y-85632007D01*
X139742643Y-85744401D01*
X139847934Y-85806791D01*
X140060121Y-85954080D01*
X140194268Y-86133293D01*
X140249972Y-86343848D01*
X140251667Y-86391350D01*
X140216751Y-86577600D01*
X140121041Y-86716609D01*
X139978093Y-86801640D01*
X139801464Y-86825956D01*
X139604710Y-86782818D01*
X139531339Y-86749362D01*
X139425258Y-86670933D01*
X139322766Y-86541826D01*
X139227793Y-86378945D01*
X139091965Y-86096510D01*
X138985201Y-85819703D01*
X138909444Y-85559640D01*
X138866638Y-85327434D01*
X138858726Y-85134200D01*
X138887651Y-84991050D01*
X138955355Y-84909101D01*
X138969657Y-84902510D01*
X139037620Y-84917832D01*
X139037620Y-84917832D01*
G37*
X139037620Y-84917832D02*
X139136248Y-84991387D01*
X139252139Y-85109114D01*
X139371890Y-85256952D01*
X139482096Y-85420841D01*
X139510833Y-85470215D01*
X139618523Y-85632007D01*
X139742643Y-85744401D01*
X139847934Y-85806791D01*
X140060121Y-85954080D01*
X140194268Y-86133293D01*
X140249972Y-86343848D01*
X140251667Y-86391350D01*
X140216751Y-86577600D01*
X140121041Y-86716609D01*
X139978093Y-86801640D01*
X139801464Y-86825956D01*
X139604710Y-86782818D01*
X139531339Y-86749362D01*
X139425258Y-86670933D01*
X139322766Y-86541826D01*
X139227793Y-86378945D01*
X139091965Y-86096510D01*
X138985201Y-85819703D01*
X138909444Y-85559640D01*
X138866638Y-85327434D01*
X138858726Y-85134200D01*
X138887651Y-84991050D01*
X138955355Y-84909101D01*
X138969657Y-84902510D01*
X139037620Y-84917832D01*
G36*
X137797452Y-80754442D02*
G01*
X137841167Y-80968369D01*
X137834303Y-81228410D01*
X137780292Y-81515480D01*
X137682570Y-81810493D01*
X137561859Y-82063833D01*
X137450197Y-82300711D01*
X137354869Y-82570050D01*
X137284786Y-82841040D01*
X137248858Y-83082870D01*
X137246000Y-83156022D01*
X137228623Y-83324392D01*
X137165863Y-83472720D01*
X137121832Y-83541383D01*
X137040113Y-83682322D01*
X136957247Y-83860094D01*
X136906228Y-83993510D01*
X136832153Y-84186614D01*
X136738553Y-84395281D01*
X136675352Y-84519167D01*
X136588318Y-84692416D01*
X136507936Y-84876866D01*
X136464229Y-84995394D01*
X136407410Y-85132823D01*
X136340142Y-85242270D01*
X136301852Y-85281144D01*
X136212749Y-85334650D01*
X136157133Y-85333961D01*
X136113474Y-85291750D01*
X136064590Y-85218528D01*
X136004996Y-85114967D01*
X136003316Y-85111833D01*
X135908093Y-84954562D01*
X135817033Y-84859993D01*
X135709593Y-84809846D01*
X135649101Y-84796678D01*
X135545389Y-84773191D01*
X135502888Y-84732927D01*
X135498727Y-84649170D01*
X135500608Y-84623233D01*
X135566415Y-84293471D01*
X135712809Y-83946950D01*
X135829894Y-83746342D01*
X135948474Y-83573998D01*
X136038920Y-83475617D01*
X136107296Y-83447710D01*
X136159668Y-83486788D01*
X136186103Y-83541388D01*
X136241227Y-83643726D01*
X136308499Y-83666241D01*
X136404812Y-83613641D01*
X136415524Y-83605350D01*
X136508528Y-83488252D01*
X136526333Y-83394261D01*
X136519355Y-83314765D01*
X136482270Y-83279425D01*
X136390855Y-83270510D01*
X136357000Y-83270333D01*
X136246574Y-83263466D01*
X136197689Y-83235100D01*
X136187667Y-83182883D01*
X136216599Y-83059466D01*
X136291363Y-82920816D01*
X136393908Y-82789292D01*
X136506182Y-82687249D01*
X136610136Y-82637043D01*
X136629888Y-82635175D01*
X136749027Y-82604855D01*
X136885849Y-82528369D01*
X137006713Y-82426891D01*
X137054164Y-82368147D01*
X137099894Y-82268603D01*
X137145336Y-82122187D01*
X137184595Y-81956176D01*
X137211779Y-81797848D01*
X137220994Y-81674481D01*
X137214530Y-81625889D01*
X137166206Y-81547384D01*
X137090404Y-81462605D01*
X137003138Y-81340622D01*
X136996492Y-81214845D01*
X137071334Y-81083759D01*
X137228530Y-80945844D01*
X137468948Y-80799583D01*
X137469368Y-80799358D01*
X137756237Y-80646039D01*
X137797452Y-80754442D01*
X137797452Y-80754442D01*
G37*
X137797452Y-80754442D02*
X137841167Y-80968369D01*
X137834303Y-81228410D01*
X137780292Y-81515480D01*
X137682570Y-81810493D01*
X137561859Y-82063833D01*
X137450197Y-82300711D01*
X137354869Y-82570050D01*
X137284786Y-82841040D01*
X137248858Y-83082870D01*
X137246000Y-83156022D01*
X137228623Y-83324392D01*
X137165863Y-83472720D01*
X137121832Y-83541383D01*
X137040113Y-83682322D01*
X136957247Y-83860094D01*
X136906228Y-83993510D01*
X136832153Y-84186614D01*
X136738553Y-84395281D01*
X136675352Y-84519167D01*
X136588318Y-84692416D01*
X136507936Y-84876866D01*
X136464229Y-84995394D01*
X136407410Y-85132823D01*
X136340142Y-85242270D01*
X136301852Y-85281144D01*
X136212749Y-85334650D01*
X136157133Y-85333961D01*
X136113474Y-85291750D01*
X136064590Y-85218528D01*
X136004996Y-85114967D01*
X136003316Y-85111833D01*
X135908093Y-84954562D01*
X135817033Y-84859993D01*
X135709593Y-84809846D01*
X135649101Y-84796678D01*
X135545389Y-84773191D01*
X135502888Y-84732927D01*
X135498727Y-84649170D01*
X135500608Y-84623233D01*
X135566415Y-84293471D01*
X135712809Y-83946950D01*
X135829894Y-83746342D01*
X135948474Y-83573998D01*
X136038920Y-83475617D01*
X136107296Y-83447710D01*
X136159668Y-83486788D01*
X136186103Y-83541388D01*
X136241227Y-83643726D01*
X136308499Y-83666241D01*
X136404812Y-83613641D01*
X136415524Y-83605350D01*
X136508528Y-83488252D01*
X136526333Y-83394261D01*
X136519355Y-83314765D01*
X136482270Y-83279425D01*
X136390855Y-83270510D01*
X136357000Y-83270333D01*
X136246574Y-83263466D01*
X136197689Y-83235100D01*
X136187667Y-83182883D01*
X136216599Y-83059466D01*
X136291363Y-82920816D01*
X136393908Y-82789292D01*
X136506182Y-82687249D01*
X136610136Y-82637043D01*
X136629888Y-82635175D01*
X136749027Y-82604855D01*
X136885849Y-82528369D01*
X137006713Y-82426891D01*
X137054164Y-82368147D01*
X137099894Y-82268603D01*
X137145336Y-82122187D01*
X137184595Y-81956176D01*
X137211779Y-81797848D01*
X137220994Y-81674481D01*
X137214530Y-81625889D01*
X137166206Y-81547384D01*
X137090404Y-81462605D01*
X137003138Y-81340622D01*
X136996492Y-81214845D01*
X137071334Y-81083759D01*
X137228530Y-80945844D01*
X137468948Y-80799583D01*
X137469368Y-80799358D01*
X137756237Y-80646039D01*
X137797452Y-80754442D01*
G36*
X140494867Y-77750037D02*
G01*
X140501046Y-77751259D01*
X140586812Y-77772960D01*
X140599468Y-77797459D01*
X140560126Y-77831875D01*
X140526596Y-77864999D01*
X140546715Y-77887330D01*
X140632974Y-77906574D01*
X140697039Y-77916328D01*
X140937840Y-77965748D01*
X141100733Y-78034425D01*
X141190804Y-78124870D01*
X141207792Y-78168540D01*
X141199863Y-78283228D01*
X141113447Y-78370072D01*
X140971176Y-78422238D01*
X140899114Y-78456028D01*
X140776206Y-78531543D01*
X140618314Y-78638373D01*
X140441304Y-78766108D01*
X140399676Y-78797258D01*
X140183904Y-78964705D01*
X140034133Y-79096469D01*
X139945292Y-79202881D01*
X139912311Y-79294273D01*
X139930120Y-79380974D01*
X139993647Y-79473318D01*
X140042044Y-79525942D01*
X140124382Y-79630804D01*
X140152645Y-79731488D01*
X140123412Y-79842149D01*
X140033260Y-79976944D01*
X139895412Y-80132496D01*
X139739360Y-80304058D01*
X139642617Y-80437930D01*
X139603044Y-80554664D01*
X139618504Y-80674816D01*
X139686857Y-80818941D01*
X139804583Y-81005500D01*
X139897306Y-81166041D01*
X139989582Y-81357546D01*
X140041929Y-81486648D01*
X140094093Y-81642180D01*
X140116498Y-81757213D01*
X140112645Y-81869110D01*
X140089791Y-81997196D01*
X140048511Y-82224374D01*
X140036764Y-82392127D01*
X140059077Y-82521921D01*
X140119977Y-82635221D01*
X140223993Y-82753492D01*
X140255967Y-82785091D01*
X140478397Y-83027952D01*
X140637850Y-83267603D01*
X140718468Y-83439667D01*
X140802000Y-83613321D01*
X140924539Y-83825612D01*
X141069584Y-84051247D01*
X141220633Y-84264930D01*
X141361185Y-84441369D01*
X141400358Y-84484882D01*
X141502564Y-84601545D01*
X141576272Y-84700245D01*
X141606255Y-84760489D01*
X141606333Y-84762166D01*
X141569948Y-84854447D01*
X141463985Y-84905732D01*
X141293229Y-84915498D01*
X141062469Y-84883225D01*
X140886667Y-84840587D01*
X140612923Y-84756791D01*
X140414474Y-84675604D01*
X140282208Y-84592985D01*
X140242410Y-84554892D01*
X140181582Y-84456827D01*
X140108269Y-84291973D01*
X140027859Y-84076297D01*
X139945740Y-83825770D01*
X139867300Y-83556359D01*
X139797928Y-83284035D01*
X139767206Y-83146477D01*
X139711749Y-82907465D01*
X139646214Y-82661073D01*
X139579665Y-82439807D01*
X139532371Y-82304242D01*
X139401117Y-81948793D01*
X139306709Y-81655481D01*
X139246153Y-81411734D01*
X139216457Y-81204979D01*
X139214628Y-81022645D01*
X139217845Y-80982738D01*
X139228880Y-80821254D01*
X139221519Y-80722196D01*
X139193457Y-80664869D01*
X139181122Y-80653099D01*
X139134672Y-80632385D01*
X139074367Y-80651498D01*
X138981883Y-80718713D01*
X138920224Y-80770885D01*
X138748977Y-80903169D01*
X138615290Y-80967277D01*
X138509865Y-80965551D01*
X138423401Y-80900332D01*
X138420423Y-80896705D01*
X138381250Y-80836242D01*
X138358530Y-80760438D01*
X138349419Y-80648551D01*
X138351072Y-80479839D01*
X138353482Y-80408520D01*
X138362676Y-80219334D01*
X138378363Y-80087749D01*
X138407907Y-79986703D01*
X138458669Y-79889136D01*
X138520818Y-79793446D01*
X138625676Y-79631364D01*
X138684854Y-79520129D01*
X138704653Y-79443756D01*
X138691374Y-79386260D01*
X138685449Y-79375854D01*
X138629740Y-79335211D01*
X138527981Y-79328641D01*
X138372035Y-79357365D01*
X138153765Y-79422606D01*
X137986833Y-79480750D01*
X137803282Y-79546747D01*
X137643132Y-79603781D01*
X137527126Y-79644495D01*
X137482977Y-79659448D01*
X137442436Y-79666942D01*
X137420994Y-79645969D01*
X137415749Y-79580418D01*
X137423796Y-79454177D01*
X137431124Y-79371704D01*
X137463949Y-79093088D01*
X137508685Y-78886806D01*
X137572185Y-78740675D01*
X137661304Y-78642514D01*
X137782896Y-78580140D01*
X137892991Y-78550840D01*
X138008852Y-78500017D01*
X138083491Y-78435787D01*
X138208556Y-78295417D01*
X138341977Y-78170997D01*
X138459952Y-78083764D01*
X138502468Y-78061976D01*
X138589815Y-78040399D01*
X138731632Y-78018509D01*
X138897863Y-78000909D01*
X138904635Y-78000356D01*
X139133035Y-77980214D01*
X139299154Y-77959564D01*
X139425264Y-77933503D01*
X139533636Y-77897127D01*
X139646542Y-77845532D01*
X139676758Y-77830356D01*
X139917427Y-77749075D01*
X140198997Y-77721451D01*
X140494867Y-77750037D01*
X140494867Y-77750037D01*
G37*
X140494867Y-77750037D02*
X140501046Y-77751259D01*
X140586812Y-77772960D01*
X140599468Y-77797459D01*
X140560126Y-77831875D01*
X140526596Y-77864999D01*
X140546715Y-77887330D01*
X140632974Y-77906574D01*
X140697039Y-77916328D01*
X140937840Y-77965748D01*
X141100733Y-78034425D01*
X141190804Y-78124870D01*
X141207792Y-78168540D01*
X141199863Y-78283228D01*
X141113447Y-78370072D01*
X140971176Y-78422238D01*
X140899114Y-78456028D01*
X140776206Y-78531543D01*
X140618314Y-78638373D01*
X140441304Y-78766108D01*
X140399676Y-78797258D01*
X140183904Y-78964705D01*
X140034133Y-79096469D01*
X139945292Y-79202881D01*
X139912311Y-79294273D01*
X139930120Y-79380974D01*
X139993647Y-79473318D01*
X140042044Y-79525942D01*
X140124382Y-79630804D01*
X140152645Y-79731488D01*
X140123412Y-79842149D01*
X140033260Y-79976944D01*
X139895412Y-80132496D01*
X139739360Y-80304058D01*
X139642617Y-80437930D01*
X139603044Y-80554664D01*
X139618504Y-80674816D01*
X139686857Y-80818941D01*
X139804583Y-81005500D01*
X139897306Y-81166041D01*
X139989582Y-81357546D01*
X140041929Y-81486648D01*
X140094093Y-81642180D01*
X140116498Y-81757213D01*
X140112645Y-81869110D01*
X140089791Y-81997196D01*
X140048511Y-82224374D01*
X140036764Y-82392127D01*
X140059077Y-82521921D01*
X140119977Y-82635221D01*
X140223993Y-82753492D01*
X140255967Y-82785091D01*
X140478397Y-83027952D01*
X140637850Y-83267603D01*
X140718468Y-83439667D01*
X140802000Y-83613321D01*
X140924539Y-83825612D01*
X141069584Y-84051247D01*
X141220633Y-84264930D01*
X141361185Y-84441369D01*
X141400358Y-84484882D01*
X141502564Y-84601545D01*
X141576272Y-84700245D01*
X141606255Y-84760489D01*
X141606333Y-84762166D01*
X141569948Y-84854447D01*
X141463985Y-84905732D01*
X141293229Y-84915498D01*
X141062469Y-84883225D01*
X140886667Y-84840587D01*
X140612923Y-84756791D01*
X140414474Y-84675604D01*
X140282208Y-84592985D01*
X140242410Y-84554892D01*
X140181582Y-84456827D01*
X140108269Y-84291973D01*
X140027859Y-84076297D01*
X139945740Y-83825770D01*
X139867300Y-83556359D01*
X139797928Y-83284035D01*
X139767206Y-83146477D01*
X139711749Y-82907465D01*
X139646214Y-82661073D01*
X139579665Y-82439807D01*
X139532371Y-82304242D01*
X139401117Y-81948793D01*
X139306709Y-81655481D01*
X139246153Y-81411734D01*
X139216457Y-81204979D01*
X139214628Y-81022645D01*
X139217845Y-80982738D01*
X139228880Y-80821254D01*
X139221519Y-80722196D01*
X139193457Y-80664869D01*
X139181122Y-80653099D01*
X139134672Y-80632385D01*
X139074367Y-80651498D01*
X138981883Y-80718713D01*
X138920224Y-80770885D01*
X138748977Y-80903169D01*
X138615290Y-80967277D01*
X138509865Y-80965551D01*
X138423401Y-80900332D01*
X138420423Y-80896705D01*
X138381250Y-80836242D01*
X138358530Y-80760438D01*
X138349419Y-80648551D01*
X138351072Y-80479839D01*
X138353482Y-80408520D01*
X138362676Y-80219334D01*
X138378363Y-80087749D01*
X138407907Y-79986703D01*
X138458669Y-79889136D01*
X138520818Y-79793446D01*
X138625676Y-79631364D01*
X138684854Y-79520129D01*
X138704653Y-79443756D01*
X138691374Y-79386260D01*
X138685449Y-79375854D01*
X138629740Y-79335211D01*
X138527981Y-79328641D01*
X138372035Y-79357365D01*
X138153765Y-79422606D01*
X137986833Y-79480750D01*
X137803282Y-79546747D01*
X137643132Y-79603781D01*
X137527126Y-79644495D01*
X137482977Y-79659448D01*
X137442436Y-79666942D01*
X137420994Y-79645969D01*
X137415749Y-79580418D01*
X137423796Y-79454177D01*
X137431124Y-79371704D01*
X137463949Y-79093088D01*
X137508685Y-78886806D01*
X137572185Y-78740675D01*
X137661304Y-78642514D01*
X137782896Y-78580140D01*
X137892991Y-78550840D01*
X138008852Y-78500017D01*
X138083491Y-78435787D01*
X138208556Y-78295417D01*
X138341977Y-78170997D01*
X138459952Y-78083764D01*
X138502468Y-78061976D01*
X138589815Y-78040399D01*
X138731632Y-78018509D01*
X138897863Y-78000909D01*
X138904635Y-78000356D01*
X139133035Y-77980214D01*
X139299154Y-77959564D01*
X139425264Y-77933503D01*
X139533636Y-77897127D01*
X139646542Y-77845532D01*
X139676758Y-77830356D01*
X139917427Y-77749075D01*
X140198997Y-77721451D01*
X140494867Y-77750037D01*
G36*
X137696640Y-83247516D02*
G01*
X137838688Y-83323250D01*
X138001975Y-83474117D01*
X138096628Y-83662046D01*
X138127447Y-83897953D01*
X138125240Y-83974988D01*
X138104408Y-84163868D01*
X138060515Y-84283164D01*
X137982335Y-84347129D01*
X137858641Y-84370013D01*
X137813292Y-84371000D01*
X137682698Y-84360245D01*
X137602931Y-84319384D01*
X137563010Y-84270361D01*
X137464105Y-84047815D01*
X137418357Y-83767309D01*
X137415333Y-83664188D01*
X137432823Y-83444694D01*
X137485415Y-83302182D01*
X137573293Y-83236505D01*
X137696640Y-83247516D01*
X137696640Y-83247516D01*
G37*
X137696640Y-83247516D02*
X137838688Y-83323250D01*
X138001975Y-83474117D01*
X138096628Y-83662046D01*
X138127447Y-83897953D01*
X138125240Y-83974988D01*
X138104408Y-84163868D01*
X138060515Y-84283164D01*
X137982335Y-84347129D01*
X137858641Y-84370013D01*
X137813292Y-84371000D01*
X137682698Y-84360245D01*
X137602931Y-84319384D01*
X137563010Y-84270361D01*
X137464105Y-84047815D01*
X137418357Y-83767309D01*
X137415333Y-83664188D01*
X137432823Y-83444694D01*
X137485415Y-83302182D01*
X137573293Y-83236505D01*
X137696640Y-83247516D01*
G36*
X138408053Y-82988498D02*
G01*
X138476284Y-83049753D01*
X138539017Y-83167200D01*
X138592644Y-83321686D01*
X138633556Y-83494060D01*
X138658147Y-83665170D01*
X138662807Y-83815864D01*
X138643928Y-83926990D01*
X138597903Y-83979398D01*
X138594872Y-83980123D01*
X138523548Y-83959367D01*
X138443424Y-83889685D01*
X138437235Y-83882054D01*
X138367043Y-83759303D01*
X138328719Y-83636455D01*
X138293407Y-83367699D01*
X138281366Y-83174285D01*
X138293365Y-83049937D01*
X138330174Y-82988377D01*
X138392560Y-82983326D01*
X138408053Y-82988498D01*
X138408053Y-82988498D01*
G37*
X138408053Y-82988498D02*
X138476284Y-83049753D01*
X138539017Y-83167200D01*
X138592644Y-83321686D01*
X138633556Y-83494060D01*
X138658147Y-83665170D01*
X138662807Y-83815864D01*
X138643928Y-83926990D01*
X138597903Y-83979398D01*
X138594872Y-83980123D01*
X138523548Y-83959367D01*
X138443424Y-83889685D01*
X138437235Y-83882054D01*
X138367043Y-83759303D01*
X138328719Y-83636455D01*
X138293407Y-83367699D01*
X138281366Y-83174285D01*
X138293365Y-83049937D01*
X138330174Y-82988377D01*
X138392560Y-82983326D01*
X138408053Y-82988498D01*
G36*
X149013832Y-78023072D02*
G01*
X149172909Y-78070303D01*
X149226333Y-78092407D01*
X149380496Y-78158155D01*
X149536058Y-78217233D01*
X149579214Y-78231814D01*
X149717386Y-78295201D01*
X149857640Y-78387437D01*
X149887717Y-78412260D01*
X149980734Y-78483176D01*
X150079847Y-78527688D01*
X150213896Y-78555744D01*
X150349153Y-78571430D01*
X150575870Y-78605386D01*
X150721372Y-78655333D01*
X150787743Y-78722109D01*
X150792667Y-78750322D01*
X150767498Y-78807103D01*
X150705167Y-78895302D01*
X150686833Y-78917720D01*
X150598626Y-79074922D01*
X150594075Y-79239528D01*
X150673115Y-79414738D01*
X150676250Y-79419413D01*
X150802471Y-79543898D01*
X150960678Y-79610821D01*
X151112060Y-79610431D01*
X151189458Y-79578009D01*
X151311392Y-79511925D01*
X151452346Y-79426071D01*
X151461310Y-79420297D01*
X151601317Y-79324566D01*
X151681701Y-79252343D01*
X151717453Y-79187123D01*
X151724000Y-79131056D01*
X151708312Y-79026557D01*
X151676888Y-78964488D01*
X151651975Y-78895704D01*
X151661104Y-78866689D01*
X151726648Y-78833568D01*
X151838386Y-78841314D01*
X151971642Y-78884463D01*
X152101745Y-78957553D01*
X152114739Y-78967136D01*
X152252816Y-79045899D01*
X152406305Y-79098798D01*
X152422500Y-79101989D01*
X152559226Y-79140837D01*
X152719963Y-79206848D01*
X152803500Y-79249242D01*
X152951484Y-79321967D01*
X153096668Y-79378521D01*
X153163333Y-79397052D01*
X153266798Y-79426843D01*
X153418446Y-79480626D01*
X153595371Y-79549083D01*
X153774668Y-79622900D01*
X153933432Y-79692762D01*
X154048758Y-79749354D01*
X154087177Y-79772766D01*
X154141174Y-79835466D01*
X154206526Y-79940089D01*
X154224243Y-79973383D01*
X154276358Y-80134528D01*
X154275380Y-80289418D01*
X154222856Y-80410839D01*
X154197915Y-80436145D01*
X154114815Y-80451226D01*
X153976751Y-80407982D01*
X153787784Y-80308787D01*
X153551975Y-80156016D01*
X153273384Y-79952044D01*
X153001691Y-79736683D01*
X152853002Y-79630335D01*
X152752135Y-79588963D01*
X152703471Y-79609629D01*
X152711391Y-79689393D01*
X152780278Y-79825315D01*
X152807173Y-79867176D01*
X152879206Y-79959212D01*
X152997283Y-80092296D01*
X153145770Y-80249471D01*
X153309036Y-80413779D01*
X153329730Y-80434000D01*
X153543191Y-80654886D01*
X153726143Y-80869853D01*
X153870293Y-81067356D01*
X153967350Y-81235850D01*
X154009020Y-81363793D01*
X154010000Y-81381070D01*
X153976999Y-81437760D01*
X153881057Y-81443322D01*
X153726765Y-81397694D01*
X153696031Y-81385247D01*
X153588736Y-81346558D01*
X153519078Y-81346396D01*
X153449303Y-81384761D01*
X153448608Y-81385247D01*
X153321500Y-81442199D01*
X153191190Y-81427774D01*
X153040322Y-81339937D01*
X153036333Y-81336931D01*
X152932948Y-81252401D01*
X152796364Y-81132425D01*
X152653732Y-81000943D01*
X152634167Y-80982350D01*
X152445035Y-80810705D01*
X152294307Y-80701637D01*
X152166407Y-80652498D01*
X152045760Y-80660637D01*
X151916790Y-80723404D01*
X151767808Y-80834956D01*
X151619047Y-80949127D01*
X151464949Y-81055106D01*
X151357772Y-81119353D01*
X151247544Y-81173981D01*
X151167689Y-81192513D01*
X151079077Y-81177276D01*
X150974996Y-81142128D01*
X150826458Y-81100113D01*
X150700610Y-81097439D01*
X150571283Y-81139366D01*
X150412308Y-81231156D01*
X150360037Y-81265756D01*
X150213116Y-81357880D01*
X150113422Y-81398317D01*
X150043060Y-81389487D01*
X149984136Y-81333810D01*
X149972761Y-81318140D01*
X149931361Y-81235470D01*
X149944154Y-81167094D01*
X150019774Y-81101411D01*
X150166856Y-81026822D01*
X150200678Y-81011949D01*
X150408203Y-80891903D01*
X150534942Y-80746839D01*
X150580818Y-80576847D01*
X150581000Y-80564575D01*
X150543034Y-80444528D01*
X150441421Y-80320422D01*
X150294587Y-80208988D01*
X150120958Y-80126961D01*
X150087439Y-80116366D01*
X149935389Y-80058649D01*
X149801463Y-79985106D01*
X149744913Y-79940428D01*
X149698478Y-79890842D01*
X149668805Y-79841427D01*
X149653426Y-79774286D01*
X149649875Y-79671523D01*
X149655686Y-79515242D01*
X149664447Y-79356616D01*
X149675197Y-79147695D01*
X149677936Y-79006234D01*
X149670946Y-78915262D01*
X149652507Y-78857805D01*
X149620901Y-78816893D01*
X149608605Y-78805318D01*
X149523373Y-78757283D01*
X149392573Y-78732418D01*
X149205168Y-78730052D01*
X148950121Y-78749515D01*
X148857534Y-78759651D01*
X148686305Y-78775456D01*
X148572984Y-78773321D01*
X148492299Y-78751091D01*
X148444784Y-78724453D01*
X148350957Y-78623772D01*
X148337863Y-78497585D01*
X148405502Y-78345891D01*
X148524086Y-78199414D01*
X148636993Y-78087853D01*
X148724184Y-78028154D01*
X148812093Y-78005485D01*
X148873336Y-78003452D01*
X149013832Y-78023072D01*
X149013832Y-78023072D01*
G37*
X149013832Y-78023072D02*
X149172909Y-78070303D01*
X149226333Y-78092407D01*
X149380496Y-78158155D01*
X149536058Y-78217233D01*
X149579214Y-78231814D01*
X149717386Y-78295201D01*
X149857640Y-78387437D01*
X149887717Y-78412260D01*
X149980734Y-78483176D01*
X150079847Y-78527688D01*
X150213896Y-78555744D01*
X150349153Y-78571430D01*
X150575870Y-78605386D01*
X150721372Y-78655333D01*
X150787743Y-78722109D01*
X150792667Y-78750322D01*
X150767498Y-78807103D01*
X150705167Y-78895302D01*
X150686833Y-78917720D01*
X150598626Y-79074922D01*
X150594075Y-79239528D01*
X150673115Y-79414738D01*
X150676250Y-79419413D01*
X150802471Y-79543898D01*
X150960678Y-79610821D01*
X151112060Y-79610431D01*
X151189458Y-79578009D01*
X151311392Y-79511925D01*
X151452346Y-79426071D01*
X151461310Y-79420297D01*
X151601317Y-79324566D01*
X151681701Y-79252343D01*
X151717453Y-79187123D01*
X151724000Y-79131056D01*
X151708312Y-79026557D01*
X151676888Y-78964488D01*
X151651975Y-78895704D01*
X151661104Y-78866689D01*
X151726648Y-78833568D01*
X151838386Y-78841314D01*
X151971642Y-78884463D01*
X152101745Y-78957553D01*
X152114739Y-78967136D01*
X152252816Y-79045899D01*
X152406305Y-79098798D01*
X152422500Y-79101989D01*
X152559226Y-79140837D01*
X152719963Y-79206848D01*
X152803500Y-79249242D01*
X152951484Y-79321967D01*
X153096668Y-79378521D01*
X153163333Y-79397052D01*
X153266798Y-79426843D01*
X153418446Y-79480626D01*
X153595371Y-79549083D01*
X153774668Y-79622900D01*
X153933432Y-79692762D01*
X154048758Y-79749354D01*
X154087177Y-79772766D01*
X154141174Y-79835466D01*
X154206526Y-79940089D01*
X154224243Y-79973383D01*
X154276358Y-80134528D01*
X154275380Y-80289418D01*
X154222856Y-80410839D01*
X154197915Y-80436145D01*
X154114815Y-80451226D01*
X153976751Y-80407982D01*
X153787784Y-80308787D01*
X153551975Y-80156016D01*
X153273384Y-79952044D01*
X153001691Y-79736683D01*
X152853002Y-79630335D01*
X152752135Y-79588963D01*
X152703471Y-79609629D01*
X152711391Y-79689393D01*
X152780278Y-79825315D01*
X152807173Y-79867176D01*
X152879206Y-79959212D01*
X152997283Y-80092296D01*
X153145770Y-80249471D01*
X153309036Y-80413779D01*
X153329730Y-80434000D01*
X153543191Y-80654886D01*
X153726143Y-80869853D01*
X153870293Y-81067356D01*
X153967350Y-81235850D01*
X154009020Y-81363793D01*
X154010000Y-81381070D01*
X153976999Y-81437760D01*
X153881057Y-81443322D01*
X153726765Y-81397694D01*
X153696031Y-81385247D01*
X153588736Y-81346558D01*
X153519078Y-81346396D01*
X153449303Y-81384761D01*
X153448608Y-81385247D01*
X153321500Y-81442199D01*
X153191190Y-81427774D01*
X153040322Y-81339937D01*
X153036333Y-81336931D01*
X152932948Y-81252401D01*
X152796364Y-81132425D01*
X152653732Y-81000943D01*
X152634167Y-80982350D01*
X152445035Y-80810705D01*
X152294307Y-80701637D01*
X152166407Y-80652498D01*
X152045760Y-80660637D01*
X151916790Y-80723404D01*
X151767808Y-80834956D01*
X151619047Y-80949127D01*
X151464949Y-81055106D01*
X151357772Y-81119353D01*
X151247544Y-81173981D01*
X151167689Y-81192513D01*
X151079077Y-81177276D01*
X150974996Y-81142128D01*
X150826458Y-81100113D01*
X150700610Y-81097439D01*
X150571283Y-81139366D01*
X150412308Y-81231156D01*
X150360037Y-81265756D01*
X150213116Y-81357880D01*
X150113422Y-81398317D01*
X150043060Y-81389487D01*
X149984136Y-81333810D01*
X149972761Y-81318140D01*
X149931361Y-81235470D01*
X149944154Y-81167094D01*
X150019774Y-81101411D01*
X150166856Y-81026822D01*
X150200678Y-81011949D01*
X150408203Y-80891903D01*
X150534942Y-80746839D01*
X150580818Y-80576847D01*
X150581000Y-80564575D01*
X150543034Y-80444528D01*
X150441421Y-80320422D01*
X150294587Y-80208988D01*
X150120958Y-80126961D01*
X150087439Y-80116366D01*
X149935389Y-80058649D01*
X149801463Y-79985106D01*
X149744913Y-79940428D01*
X149698478Y-79890842D01*
X149668805Y-79841427D01*
X149653426Y-79774286D01*
X149649875Y-79671523D01*
X149655686Y-79515242D01*
X149664447Y-79356616D01*
X149675197Y-79147695D01*
X149677936Y-79006234D01*
X149670946Y-78915262D01*
X149652507Y-78857805D01*
X149620901Y-78816893D01*
X149608605Y-78805318D01*
X149523373Y-78757283D01*
X149392573Y-78732418D01*
X149205168Y-78730052D01*
X148950121Y-78749515D01*
X148857534Y-78759651D01*
X148686305Y-78775456D01*
X148572984Y-78773321D01*
X148492299Y-78751091D01*
X148444784Y-78724453D01*
X148350957Y-78623772D01*
X148337863Y-78497585D01*
X148405502Y-78345891D01*
X148524086Y-78199414D01*
X148636993Y-78087853D01*
X148724184Y-78028154D01*
X148812093Y-78005485D01*
X148873336Y-78003452D01*
X149013832Y-78023072D01*
G36*
X148643564Y-80196049D02*
G01*
X148811351Y-80282512D01*
X148979556Y-80446498D01*
X149100040Y-80613969D01*
X149200770Y-80782322D01*
X149252686Y-80900263D01*
X149259108Y-80984089D01*
X149223354Y-81050099D01*
X149194583Y-81078166D01*
X149006557Y-81202079D01*
X148807556Y-81248457D01*
X148582769Y-81219853D01*
X148507047Y-81196678D01*
X148342235Y-81121076D01*
X148197061Y-81020036D01*
X148090647Y-80910134D01*
X148042118Y-80807946D01*
X148041000Y-80792704D01*
X148065244Y-80687591D01*
X148126663Y-80548776D01*
X148208288Y-80407650D01*
X148293149Y-80295601D01*
X148326981Y-80263723D01*
X148480630Y-80189116D01*
X148643564Y-80196049D01*
X148643564Y-80196049D01*
G37*
X148643564Y-80196049D02*
X148811351Y-80282512D01*
X148979556Y-80446498D01*
X149100040Y-80613969D01*
X149200770Y-80782322D01*
X149252686Y-80900263D01*
X149259108Y-80984089D01*
X149223354Y-81050099D01*
X149194583Y-81078166D01*
X149006557Y-81202079D01*
X148807556Y-81248457D01*
X148582769Y-81219853D01*
X148507047Y-81196678D01*
X148342235Y-81121076D01*
X148197061Y-81020036D01*
X148090647Y-80910134D01*
X148042118Y-80807946D01*
X148041000Y-80792704D01*
X148065244Y-80687591D01*
X148126663Y-80548776D01*
X148208288Y-80407650D01*
X148293149Y-80295601D01*
X148326981Y-80263723D01*
X148480630Y-80189116D01*
X148643564Y-80196049D01*
G36*
X142349348Y-78033781D02*
G01*
X142386037Y-78046696D01*
X142433703Y-78071842D01*
X142443702Y-78107080D01*
X142409737Y-78166247D01*
X142325509Y-78263181D01*
X142251917Y-78341348D01*
X142142164Y-78439344D01*
X141995529Y-78547529D01*
X141832945Y-78653051D01*
X141675340Y-78743061D01*
X141543647Y-78804711D01*
X141463555Y-78825333D01*
X141443099Y-78789377D01*
X141437763Y-78730083D01*
X141473113Y-78642605D01*
X141566793Y-78532809D01*
X141701949Y-78417309D01*
X141860333Y-78313505D01*
X141962676Y-78246624D01*
X142081329Y-78157039D01*
X142105223Y-78137417D01*
X142208171Y-78057316D01*
X142279612Y-78025980D01*
X142349348Y-78033781D01*
X142349348Y-78033781D01*
G37*
X142349348Y-78033781D02*
X142386037Y-78046696D01*
X142433703Y-78071842D01*
X142443702Y-78107080D01*
X142409737Y-78166247D01*
X142325509Y-78263181D01*
X142251917Y-78341348D01*
X142142164Y-78439344D01*
X141995529Y-78547529D01*
X141832945Y-78653051D01*
X141675340Y-78743061D01*
X141543647Y-78804711D01*
X141463555Y-78825333D01*
X141443099Y-78789377D01*
X141437763Y-78730083D01*
X141473113Y-78642605D01*
X141566793Y-78532809D01*
X141701949Y-78417309D01*
X141860333Y-78313505D01*
X141962676Y-78246624D01*
X142081329Y-78157039D01*
X142105223Y-78137417D01*
X142208171Y-78057316D01*
X142279612Y-78025980D01*
X142349348Y-78033781D01*
M02*
