G04 #@! TF.GenerationSoftware,KiCad,Pcbnew,9.0.2*
G04 #@! TF.CreationDate,2025-06-24T15:09:58-05:00*
G04 #@! TF.ProjectId,KokiriEmerald,4b6f6b69-7269-4456-9d65-72616c642e6b,rev?*
G04 #@! TF.SameCoordinates,Original*
G04 #@! TF.FileFunction,Copper,L2,Bot*
G04 #@! TF.FilePolarity,Positive*
%FSLAX46Y46*%
G04 Gerber Fmt 4.6, Leading zero omitted, Abs format (unit mm)*
G04 Created by KiCad (PCBNEW 9.0.2) date 2025-06-24 15:09:58*
%MOMM*%
%LPD*%
G01*
G04 APERTURE LIST*
G04 Aperture macros list*
%AMRoundRect*
0 Rectangle with rounded corners*
0 $1 Rounding radius*
0 $2 $3 $4 $5 $6 $7 $8 $9 X,Y pos of 4 corners*
0 Add a 4 corners polygon primitive as box body*
4,1,4,$2,$3,$4,$5,$6,$7,$8,$9,$2,$3,0*
0 Add four circle primitives for the rounded corners*
1,1,$1+$1,$2,$3*
1,1,$1+$1,$4,$5*
1,1,$1+$1,$6,$7*
1,1,$1+$1,$8,$9*
0 Add four rect primitives between the rounded corners*
20,1,$1+$1,$2,$3,$4,$5,0*
20,1,$1+$1,$4,$5,$6,$7,0*
20,1,$1+$1,$6,$7,$8,$9,0*
20,1,$1+$1,$8,$9,$2,$3,0*%
G04 Aperture macros list end*
G04 #@! TA.AperFunction,SMDPad,CuDef*
%ADD10R,1.000000X3.150000*%
G04 #@! TD*
G04 #@! TA.AperFunction,SMDPad,CuDef*
%ADD11RoundRect,0.218750X0.139794X-0.306551X0.324689X0.089959X-0.139794X0.306551X-0.324689X-0.089959X0*%
G04 #@! TD*
G04 #@! TA.AperFunction,SMDPad,CuDef*
%ADD12RoundRect,0.218750X0.032211X0.335378X-0.326168X0.084438X-0.032211X-0.335378X0.326168X-0.084438X0*%
G04 #@! TD*
G04 #@! TA.AperFunction,SMDPad,CuDef*
%ADD13RoundRect,0.218750X0.306551X0.139794X-0.089959X0.324689X-0.306551X-0.139794X0.089959X-0.324689X0*%
G04 #@! TD*
G04 #@! TA.AperFunction,SMDPad,CuDef*
%ADD14RoundRect,0.218750X0.315613X-0.117915X0.165979X0.293200X-0.315613X0.117915X-0.165979X-0.293200X0*%
G04 #@! TD*
G04 #@! TA.AperFunction,SMDPad,CuDef*
%ADD15R,0.500000X0.800000*%
G04 #@! TD*
G04 #@! TA.AperFunction,SMDPad,CuDef*
%ADD16R,0.400000X0.800000*%
G04 #@! TD*
G04 #@! TA.AperFunction,SMDPad,CuDef*
%ADD17RoundRect,0.100000X-0.100000X0.637500X-0.100000X-0.637500X0.100000X-0.637500X0.100000X0.637500X0*%
G04 #@! TD*
G04 #@! TA.AperFunction,SMDPad,CuDef*
%ADD18RoundRect,0.250000X-0.250000X-0.475000X0.250000X-0.475000X0.250000X0.475000X-0.250000X0.475000X0*%
G04 #@! TD*
G04 #@! TA.AperFunction,ViaPad*
%ADD19C,0.600000*%
G04 #@! TD*
G04 #@! TA.AperFunction,Conductor*
%ADD20C,0.250000*%
G04 #@! TD*
G04 APERTURE END LIST*
D10*
X110660000Y-101150000D03*
X110660000Y-106200000D03*
X113200000Y-101150000D03*
X113200000Y-106200000D03*
X115740000Y-101150000D03*
X115740000Y-106200000D03*
D11*
X102542188Y-84288716D03*
X103207812Y-82861284D03*
D12*
X120270083Y-96973308D03*
X118979917Y-97876692D03*
D13*
X108213717Y-98482812D03*
X106786283Y-97817188D03*
D14*
X103144341Y-92315009D03*
X102605659Y-90834991D03*
D15*
X122250000Y-91800001D03*
D16*
X121449999Y-91799999D03*
X120650000Y-91800000D03*
D15*
X119850000Y-91799999D03*
X119850000Y-89999999D03*
D16*
X120650001Y-90000001D03*
X121450000Y-90000000D03*
D15*
X122250000Y-90000001D03*
D17*
X117225000Y-82275000D03*
X117875000Y-82275000D03*
X118525000Y-82275000D03*
X119175000Y-82275000D03*
X119825000Y-82275000D03*
X120475000Y-82275000D03*
X121125000Y-82275000D03*
X121775000Y-82275000D03*
X122425000Y-82275000D03*
X123075000Y-82275000D03*
X123075000Y-88000000D03*
X122425000Y-88000000D03*
X121775000Y-88000000D03*
X121125000Y-88000000D03*
X120475000Y-88000000D03*
X119825000Y-88000000D03*
X119175000Y-88000000D03*
X118525000Y-88000000D03*
X117875000Y-88000000D03*
X117225000Y-88000000D03*
D18*
X119950000Y-80100000D03*
X121850000Y-80100000D03*
D19*
X117500000Y-105150000D03*
X125000000Y-93600000D03*
X122550000Y-84250000D03*
X101850000Y-85600000D03*
X103650000Y-93600000D03*
X109100000Y-99200000D03*
X121050000Y-96050000D03*
X117500000Y-85050000D03*
X118700000Y-84200000D03*
X124850000Y-91200000D03*
X123050000Y-93250000D03*
X118650000Y-103200000D03*
X114650000Y-102100000D03*
X121185492Y-83297412D03*
X109150000Y-106050000D03*
X111300000Y-108800000D03*
D20*
X116699000Y-88849000D02*
X116699000Y-85851000D01*
X118000000Y-90150000D02*
X116699000Y-88849000D01*
X116699000Y-85851000D02*
X117500000Y-85050000D01*
X115885795Y-99150000D02*
X118000000Y-97035796D01*
X118000000Y-97035796D02*
X118000000Y-90150000D01*
X112660000Y-99150000D02*
X115885795Y-99150000D01*
X110660000Y-101150000D02*
X112660000Y-99150000D01*
X118700000Y-84200000D02*
X121237499Y-84200000D01*
X121125000Y-83236920D02*
X121185492Y-83297412D01*
X121237499Y-84200000D02*
X122425000Y-83012499D01*
X121125000Y-82275000D02*
X121125000Y-83236920D01*
X118525000Y-97150020D02*
X118525000Y-88000000D01*
X118108101Y-97566919D02*
X118525000Y-97150020D01*
X118108101Y-97706899D02*
X118108101Y-97566919D01*
X115740000Y-100075000D02*
X118108101Y-97706899D01*
X115740000Y-101150000D02*
X115740000Y-100075000D01*
X119850000Y-93375000D02*
X119850000Y-91799999D01*
X121086802Y-94611802D02*
X119850000Y-93375000D01*
X118979917Y-97876692D02*
X119294048Y-97562561D01*
X119294048Y-96767754D02*
X121086802Y-94975000D01*
X119294048Y-97562561D02*
X119294048Y-96767754D01*
X121086802Y-94975000D02*
X121086802Y-94611802D01*
X122425000Y-83012499D02*
X122425000Y-82275000D01*
X105000000Y-78500000D02*
X103207812Y-82861284D01*
X105836435Y-78000000D02*
X105000000Y-78500000D01*
X111550000Y-76650000D02*
X105836435Y-78000000D01*
X113950000Y-76000000D02*
X111550000Y-76650000D01*
X116400000Y-83000000D02*
X116400000Y-77450000D01*
X118600000Y-85200000D02*
X116400000Y-83000000D01*
X122850000Y-85200000D02*
X118600000Y-85200000D01*
X124850000Y-87200000D02*
X122850000Y-85200000D01*
X124850000Y-91200000D02*
X124850000Y-87200000D01*
X116400000Y-77450000D02*
X113950000Y-76000000D01*
X122250000Y-92450000D02*
X123050000Y-93250000D01*
X122250000Y-91800001D02*
X122250000Y-92450000D01*
X102235062Y-91205588D02*
X102605659Y-90834991D01*
X102235062Y-96091286D02*
X102235062Y-91205588D01*
X110700000Y-103503000D02*
X109646776Y-103503000D01*
X109646776Y-103503000D02*
X102235062Y-96091286D01*
X106786283Y-97817188D02*
X106786283Y-100003283D01*
X106786283Y-100003283D02*
X109834000Y-103051000D01*
X120650000Y-93300000D02*
X120650000Y-91800000D01*
X121925000Y-94575000D02*
X120650000Y-93300000D01*
X121925000Y-97525000D02*
X121925000Y-94575000D01*
X116399000Y-103051000D02*
X121925000Y-97525000D01*
X114350000Y-103051000D02*
X116399000Y-103051000D01*
X114388604Y-103525000D02*
X110750000Y-103525000D01*
X114413604Y-103550000D02*
X114388604Y-103525000D01*
X114786396Y-103550000D02*
X114413604Y-103550000D01*
X116561396Y-103525000D02*
X114811396Y-103525000D01*
X114811396Y-103525000D02*
X114786396Y-103550000D01*
X122375000Y-97711396D02*
X116561396Y-103525000D01*
X122375000Y-94075000D02*
X122375000Y-97711396D01*
X121449999Y-93149999D02*
X122375000Y-94075000D01*
X121449999Y-91799999D02*
X121449999Y-93149999D01*
X124200000Y-97650000D02*
X124200000Y-89125000D01*
X118650000Y-103200000D02*
X124200000Y-97650000D01*
X124200000Y-89125000D02*
X123075000Y-88000000D01*
X123700000Y-90012499D02*
X122425000Y-88737499D01*
X123700000Y-97189792D02*
X123700000Y-90012499D01*
X116789792Y-104100000D02*
X123700000Y-97189792D01*
X122425000Y-88737499D02*
X122425000Y-88000000D01*
X113200000Y-106200000D02*
X115300000Y-104100000D01*
X115300000Y-104100000D02*
X116789792Y-104100000D01*
X113700000Y-101150000D02*
X114650000Y-102100000D01*
X113200000Y-101150000D02*
X113700000Y-101150000D01*
X121125000Y-81275000D02*
X119950000Y-80100000D01*
X121125000Y-82275000D02*
X121125000Y-81275000D01*
X114350000Y-103051000D02*
X109834000Y-103051000D01*
X111651000Y-103051000D02*
X109834000Y-103051000D01*
X114350000Y-103051000D02*
X111651000Y-103051000D01*
X119175000Y-89324999D02*
X119175000Y-88000000D01*
X119850000Y-89999999D02*
X119175000Y-89324999D01*
X119825000Y-88725309D02*
X119825000Y-88000000D01*
X120650001Y-90000001D02*
X120650001Y-89550310D01*
X120650001Y-89550310D02*
X119825000Y-88725309D01*
X120475000Y-88737499D02*
X120475000Y-88000000D01*
X121450000Y-89712499D02*
X120475000Y-88737499D01*
X121450000Y-90000000D02*
X121450000Y-89712499D01*
X121976000Y-89274000D02*
X122250000Y-89548000D01*
X121661501Y-89274000D02*
X121976000Y-89274000D01*
X122250000Y-89548000D02*
X122250000Y-90000001D01*
X121125000Y-88737499D02*
X121661501Y-89274000D01*
X121125000Y-88000000D02*
X121125000Y-88737499D01*
X122425000Y-82275000D02*
X122425000Y-80675000D01*
X122425000Y-80675000D02*
X121850000Y-80100000D01*
X113200000Y-101150000D02*
X113200000Y-100075000D01*
G04 #@! TA.AperFunction,Conductor*
G36*
X109303830Y-104038415D02*
G01*
X109324444Y-104049528D01*
X109346701Y-104064400D01*
X109461991Y-104112155D01*
X109584377Y-104136499D01*
X109584381Y-104136500D01*
X109584382Y-104136500D01*
X109653388Y-104136500D01*
X109720427Y-104156185D01*
X109766182Y-104208989D01*
X109776126Y-104278147D01*
X109752654Y-104334811D01*
X109716649Y-104382906D01*
X109716645Y-104382913D01*
X109666403Y-104517620D01*
X109666401Y-104517627D01*
X109660000Y-104577155D01*
X109660000Y-105950000D01*
X111660000Y-105950000D01*
X111660000Y-104577172D01*
X111659999Y-104577155D01*
X111653598Y-104517627D01*
X111653596Y-104517620D01*
X111603354Y-104382913D01*
X111603352Y-104382910D01*
X111583815Y-104356812D01*
X111559397Y-104291348D01*
X111574248Y-104223075D01*
X111623652Y-104173669D01*
X111683081Y-104158500D01*
X112166302Y-104158500D01*
X112233341Y-104178185D01*
X112279096Y-104230989D01*
X112289040Y-104300147D01*
X112265569Y-104356811D01*
X112249111Y-104378795D01*
X112198011Y-104515795D01*
X112198011Y-104515797D01*
X112191500Y-104576345D01*
X112191500Y-107823654D01*
X112198011Y-107884202D01*
X112198011Y-107884204D01*
X112247575Y-108017086D01*
X112249111Y-108021204D01*
X112336739Y-108138261D01*
X112453796Y-108225889D01*
X112568297Y-108268596D01*
X112590793Y-108276987D01*
X112590799Y-108276989D01*
X112618050Y-108279918D01*
X112651345Y-108283499D01*
X112651362Y-108283500D01*
X113748638Y-108283500D01*
X113748654Y-108283499D01*
X113775692Y-108280591D01*
X113809201Y-108276989D01*
X113809207Y-108276987D01*
X113831703Y-108268596D01*
X113946204Y-108225889D01*
X114063261Y-108138261D01*
X114150889Y-108021204D01*
X114201989Y-107884201D01*
X114205591Y-107850692D01*
X114208499Y-107823654D01*
X114208500Y-107823637D01*
X114208500Y-106138766D01*
X114228185Y-106071727D01*
X114244819Y-106051085D01*
X114519819Y-105776085D01*
X114581142Y-105742600D01*
X114650834Y-105747584D01*
X114706767Y-105789456D01*
X114731184Y-105854920D01*
X114731500Y-105863766D01*
X114731500Y-107823654D01*
X114738011Y-107884202D01*
X114738011Y-107884204D01*
X114787575Y-108017086D01*
X114789111Y-108021204D01*
X114876739Y-108138261D01*
X114993796Y-108225889D01*
X115093110Y-108262931D01*
X115130793Y-108276987D01*
X115130799Y-108276989D01*
X115172017Y-108281420D01*
X115236566Y-108308157D01*
X115276414Y-108365549D01*
X115278908Y-108435374D01*
X115243256Y-108495463D01*
X115237704Y-108500333D01*
X114380379Y-109208113D01*
X114319685Y-109235139D01*
X99957501Y-111372251D01*
X99888295Y-111362647D01*
X99835267Y-111317153D01*
X99815252Y-111250211D01*
X99829998Y-111190952D01*
X101638141Y-107822844D01*
X109660000Y-107822844D01*
X109666401Y-107882372D01*
X109666403Y-107882379D01*
X109716645Y-108017086D01*
X109716649Y-108017093D01*
X109802809Y-108132187D01*
X109802812Y-108132190D01*
X109917906Y-108218350D01*
X109917913Y-108218354D01*
X110052620Y-108268596D01*
X110052627Y-108268598D01*
X110112155Y-108274999D01*
X110112172Y-108275000D01*
X110410000Y-108275000D01*
X110910000Y-108275000D01*
X111207828Y-108275000D01*
X111207844Y-108274999D01*
X111267372Y-108268598D01*
X111267379Y-108268596D01*
X111402086Y-108218354D01*
X111402093Y-108218350D01*
X111517187Y-108132190D01*
X111517190Y-108132187D01*
X111603350Y-108017093D01*
X111603354Y-108017086D01*
X111653596Y-107882379D01*
X111653598Y-107882372D01*
X111659999Y-107822844D01*
X111660000Y-107822827D01*
X111660000Y-106450000D01*
X110910000Y-106450000D01*
X110910000Y-108275000D01*
X110410000Y-108275000D01*
X110410000Y-106450000D01*
X109660000Y-106450000D01*
X109660000Y-107822844D01*
X101638141Y-107822844D01*
X102287333Y-106613565D01*
X102336383Y-106563812D01*
X102354082Y-106555731D01*
X109109019Y-104091923D01*
X109114560Y-104090050D01*
X109132604Y-104084418D01*
X109141593Y-104084418D01*
X109145670Y-104080339D01*
X109153778Y-104077809D01*
X109159823Y-104072675D01*
X109164923Y-104068668D01*
X109168750Y-104063990D01*
X109171714Y-104061270D01*
X109234417Y-104030446D01*
X109303830Y-104038415D01*
G37*
G04 #@! TD.AperFunction*
G04 #@! TA.AperFunction,Conductor*
G36*
X124520737Y-98327681D02*
G01*
X124576670Y-98369553D01*
X124601087Y-98435017D01*
X124598161Y-98472034D01*
X123942975Y-101280600D01*
X123908575Y-101341414D01*
X123901161Y-101348053D01*
X116951444Y-107085523D01*
X116887214Y-107113023D01*
X116818312Y-107101432D01*
X116766615Y-107054431D01*
X116748500Y-106989899D01*
X116748500Y-104855888D01*
X116768185Y-104788849D01*
X116820989Y-104743094D01*
X116848309Y-104734270D01*
X116852180Y-104733500D01*
X116852186Y-104733500D01*
X116974577Y-104709155D01*
X117089867Y-104661400D01*
X117193625Y-104592071D01*
X117958472Y-103827223D01*
X118019793Y-103793740D01*
X118089484Y-103798724D01*
X118129594Y-103824501D01*
X118129896Y-103824134D01*
X118133051Y-103826723D01*
X118133832Y-103827225D01*
X118134605Y-103827998D01*
X118134612Y-103828004D01*
X118267030Y-103916482D01*
X118267031Y-103916482D01*
X118267032Y-103916483D01*
X118414169Y-103977430D01*
X118565654Y-104007562D01*
X118570365Y-104008499D01*
X118570369Y-104008500D01*
X118570370Y-104008500D01*
X118729631Y-104008500D01*
X118729632Y-104008499D01*
X118885831Y-103977430D01*
X119032968Y-103916483D01*
X119165389Y-103828003D01*
X119278003Y-103715389D01*
X119366483Y-103582968D01*
X119427430Y-103435831D01*
X119449231Y-103326222D01*
X119481615Y-103264315D01*
X119483111Y-103262791D01*
X124389722Y-98356182D01*
X124451045Y-98322697D01*
X124520737Y-98327681D01*
G37*
G04 #@! TD.AperFunction*
G04 #@! TA.AperFunction,Conductor*
G36*
X103612533Y-79975737D02*
G01*
X103652473Y-80033066D01*
X103655078Y-80102887D01*
X103649575Y-80119544D01*
X102969944Y-81773424D01*
X102926255Y-81827950D01*
X102897661Y-81842815D01*
X102739408Y-81900414D01*
X102668388Y-81947124D01*
X102597369Y-81993834D01*
X102597368Y-81993834D01*
X102597368Y-81993835D01*
X102480703Y-82117491D01*
X102480702Y-82117493D01*
X102429384Y-82203468D01*
X102429384Y-82203469D01*
X102203530Y-82687815D01*
X102203529Y-82687816D01*
X102170659Y-82782385D01*
X102150922Y-82951244D01*
X102170658Y-83120100D01*
X102170660Y-83120107D01*
X102186590Y-83163876D01*
X102191021Y-83233605D01*
X102157050Y-83294660D01*
X102112481Y-83322806D01*
X102077627Y-83335492D01*
X101937245Y-83427822D01*
X101821948Y-83550029D01*
X101821941Y-83550039D01*
X101771224Y-83635005D01*
X101764191Y-83650085D01*
X101764192Y-83650086D01*
X102535460Y-84009734D01*
X102587899Y-84055906D01*
X102607051Y-84123100D01*
X102595437Y-84174520D01*
X102542187Y-84288714D01*
X102542187Y-84288715D01*
X102656383Y-84341966D01*
X102708822Y-84388138D01*
X102727974Y-84455332D01*
X102716360Y-84506753D01*
X102372559Y-85244032D01*
X102421635Y-85266917D01*
X102515096Y-85299403D01*
X102515095Y-85299403D01*
X102681981Y-85318909D01*
X102856038Y-85298565D01*
X102856282Y-85300657D01*
X102915666Y-85303796D01*
X102972369Y-85344620D01*
X102997998Y-85409619D01*
X102986949Y-85473025D01*
X102213318Y-87137601D01*
X102104766Y-87371167D01*
X102720727Y-88944926D01*
X102996696Y-89650015D01*
X103002799Y-89719618D01*
X102970304Y-89781471D01*
X102909526Y-89815937D01*
X102856154Y-89816649D01*
X102835455Y-89812375D01*
X102665518Y-89817321D01*
X102615049Y-89830060D01*
X102568443Y-89841824D01*
X102568440Y-89841824D01*
X102568436Y-89841826D01*
X101995774Y-90050260D01*
X101905658Y-90093886D01*
X101772300Y-90199333D01*
X101772293Y-90199339D01*
X101666861Y-90332680D01*
X101666853Y-90332693D01*
X101595008Y-90486767D01*
X101595008Y-90486768D01*
X101560630Y-90653257D01*
X101565576Y-90823195D01*
X101590081Y-90920275D01*
X101590083Y-90920283D01*
X101614315Y-90986859D01*
X101619411Y-91053459D01*
X101601562Y-91143195D01*
X101601562Y-96153684D01*
X101625905Y-96276063D01*
X101625907Y-96276071D01*
X101673660Y-96391358D01*
X101673665Y-96391367D01*
X101742990Y-96495118D01*
X101742993Y-96495122D01*
X108718291Y-103470419D01*
X108751776Y-103531742D01*
X108746792Y-103601434D01*
X108704920Y-103657367D01*
X108639456Y-103681784D01*
X108571183Y-103666932D01*
X108569826Y-103666180D01*
X102448271Y-100223396D01*
X102399487Y-100173376D01*
X102392911Y-100158750D01*
X98199291Y-88944926D01*
X98194246Y-88875239D01*
X98208692Y-88838389D01*
X100845121Y-84378674D01*
X101493856Y-84378674D01*
X101513362Y-84545559D01*
X101513363Y-84545561D01*
X101570826Y-84703442D01*
X101663156Y-84843823D01*
X101785363Y-84959120D01*
X101785373Y-84959127D01*
X101870341Y-85009846D01*
X101919405Y-85032724D01*
X101919406Y-85032723D01*
X102209955Y-84409638D01*
X101552882Y-84103239D01*
X101545855Y-84118312D01*
X101545854Y-84118315D01*
X101513362Y-84211790D01*
X101493856Y-84378674D01*
X100845121Y-84378674D01*
X103428139Y-80009308D01*
X103479199Y-79961618D01*
X103547939Y-79949102D01*
X103612533Y-79975737D01*
G37*
G04 #@! TD.AperFunction*
G04 #@! TA.AperFunction,Conductor*
G36*
X109416388Y-98206868D02*
G01*
X110818460Y-98829162D01*
X110871749Y-98874350D01*
X110892148Y-98941176D01*
X110873180Y-99008422D01*
X110820868Y-99054738D01*
X110768155Y-99066500D01*
X110111345Y-99066500D01*
X110050797Y-99073011D01*
X110050795Y-99073011D01*
X109913795Y-99124111D01*
X109796739Y-99211739D01*
X109709111Y-99328795D01*
X109658011Y-99465795D01*
X109658011Y-99465797D01*
X109651500Y-99526345D01*
X109651500Y-101673233D01*
X109631815Y-101740272D01*
X109579011Y-101786027D01*
X109509853Y-101795971D01*
X109446297Y-101766946D01*
X109439819Y-101760914D01*
X107456102Y-99777197D01*
X107441398Y-99750269D01*
X107424806Y-99724451D01*
X107423914Y-99718250D01*
X107422617Y-99715874D01*
X107419783Y-99689516D01*
X107419783Y-99472115D01*
X108028241Y-99472115D01*
X108028241Y-99472116D01*
X108043319Y-99479147D01*
X108136791Y-99511637D01*
X108303675Y-99531143D01*
X108470560Y-99511637D01*
X108470562Y-99511636D01*
X108628443Y-99454173D01*
X108768824Y-99361843D01*
X108884121Y-99239636D01*
X108884128Y-99239626D01*
X108934847Y-99154658D01*
X108957725Y-99105593D01*
X108334639Y-98815043D01*
X108028241Y-99472115D01*
X107419783Y-99472115D01*
X107419783Y-99383028D01*
X107439468Y-99315989D01*
X107492272Y-99270234D01*
X107561430Y-99260290D01*
X107569721Y-99262760D01*
X107575086Y-99260807D01*
X107934735Y-98489539D01*
X107980907Y-98437100D01*
X108048101Y-98417948D01*
X108099522Y-98429562D01*
X108213716Y-98482812D01*
X108266967Y-98368616D01*
X108313139Y-98316177D01*
X108380333Y-98297025D01*
X108431754Y-98308639D01*
X109169033Y-98652438D01*
X109191916Y-98603369D01*
X109191917Y-98603367D01*
X109224404Y-98509903D01*
X109243910Y-98343019D01*
X109242927Y-98334610D01*
X109254692Y-98265738D01*
X109301824Y-98214159D01*
X109369360Y-98196250D01*
X109416388Y-98206868D01*
G37*
G04 #@! TD.AperFunction*
G04 #@! TA.AperFunction,Conductor*
G36*
X103393526Y-92301453D02*
G01*
X103421674Y-92346025D01*
X103699907Y-93110463D01*
X103699908Y-93110464D01*
X103750777Y-93091950D01*
X103839847Y-93048830D01*
X103971647Y-92944615D01*
X103971652Y-92944610D01*
X104048043Y-92847998D01*
X104105064Y-92807619D01*
X104174863Y-92804479D01*
X104235279Y-92839573D01*
X104260782Y-92879711D01*
X104484344Y-93450903D01*
X105700251Y-96557500D01*
X106159300Y-96761244D01*
X106212587Y-96806430D01*
X106232987Y-96873256D01*
X106214020Y-96940501D01*
X106199188Y-96959674D01*
X106109010Y-97055257D01*
X106057688Y-97141235D01*
X105800141Y-97693551D01*
X105767268Y-97788124D01*
X105747531Y-97956981D01*
X105767268Y-98125840D01*
X105796760Y-98206868D01*
X105825414Y-98285593D01*
X105918833Y-98427631D01*
X105928870Y-98437100D01*
X106042490Y-98544296D01*
X106042496Y-98544300D01*
X106092336Y-98574049D01*
X106139812Y-98625311D01*
X106152783Y-98680524D01*
X106152783Y-98813741D01*
X106133098Y-98880780D01*
X106080294Y-98926535D01*
X106011136Y-98936479D01*
X105947580Y-98907454D01*
X105941102Y-98901422D01*
X102904881Y-95865201D01*
X102871396Y-95803878D01*
X102868562Y-95777520D01*
X102868562Y-93450903D01*
X102888247Y-93383864D01*
X102941051Y-93338109D01*
X102988956Y-93326955D01*
X103083240Y-93324211D01*
X103179185Y-93299993D01*
X103179189Y-93299991D01*
X103230061Y-93281476D01*
X102951828Y-92517035D01*
X102947397Y-92447306D01*
X102981367Y-92386251D01*
X103025939Y-92358103D01*
X103262741Y-92271914D01*
X103332470Y-92267483D01*
X103393526Y-92301453D01*
G37*
G04 #@! TD.AperFunction*
G04 #@! TA.AperFunction,Conductor*
G36*
X121210834Y-95849385D02*
G01*
X121266767Y-95891257D01*
X121291184Y-95956721D01*
X121291500Y-95965567D01*
X121291500Y-96511998D01*
X121271815Y-96579037D01*
X121219011Y-96624792D01*
X121199713Y-96627566D01*
X120515051Y-97106972D01*
X120506473Y-97109864D01*
X120499872Y-97116060D01*
X120473882Y-97120855D01*
X120448845Y-97129299D01*
X120440065Y-97127095D01*
X120431162Y-97128738D01*
X120406708Y-97118722D01*
X120381078Y-97112289D01*
X120373172Y-97104986D01*
X120366505Y-97102256D01*
X120342353Y-97076520D01*
X120212106Y-96890508D01*
X120189779Y-96824302D01*
X120206789Y-96756535D01*
X120225993Y-96731712D01*
X120327496Y-96630209D01*
X120344042Y-96616326D01*
X120894642Y-96230792D01*
X120885244Y-96217371D01*
X120862917Y-96151165D01*
X120879927Y-96083397D01*
X120899131Y-96058574D01*
X121079821Y-95877884D01*
X121141142Y-95844401D01*
X121210834Y-95849385D01*
G37*
G04 #@! TD.AperFunction*
G04 #@! TA.AperFunction,Conductor*
G36*
X123511777Y-83510097D02*
G01*
X123522974Y-83521992D01*
X126812508Y-87513766D01*
X126812966Y-87514321D01*
X126828181Y-87537726D01*
X127026874Y-87935112D01*
X127039249Y-88003877D01*
X127036723Y-88018737D01*
X125078258Y-96414024D01*
X125043858Y-96474838D01*
X124982040Y-96507401D01*
X124912431Y-96501372D01*
X124857131Y-96458668D01*
X124833697Y-96392845D01*
X124833500Y-96385853D01*
X124833500Y-92129385D01*
X124853185Y-92062346D01*
X124905989Y-92016591D01*
X124933301Y-92007769D01*
X125085831Y-91977430D01*
X125232968Y-91916483D01*
X125365389Y-91828003D01*
X125478003Y-91715389D01*
X125566483Y-91582968D01*
X125627430Y-91435831D01*
X125658500Y-91279630D01*
X125658500Y-91120370D01*
X125627430Y-90964169D01*
X125566483Y-90817032D01*
X125504397Y-90724112D01*
X125483520Y-90657434D01*
X125483500Y-90655222D01*
X125483500Y-87137605D01*
X125483499Y-87137601D01*
X125459156Y-87015222D01*
X125459155Y-87015215D01*
X125411400Y-86899925D01*
X125411399Y-86899924D01*
X125411396Y-86899918D01*
X125342072Y-86796168D01*
X125299588Y-86753684D01*
X125253833Y-86707929D01*
X124307300Y-85761396D01*
X123253836Y-84707931D01*
X123253832Y-84707928D01*
X123150081Y-84638603D01*
X123150072Y-84638598D01*
X123034785Y-84590845D01*
X123034777Y-84590843D01*
X122912398Y-84566500D01*
X122912394Y-84566500D01*
X122066265Y-84566500D01*
X121999226Y-84546815D01*
X121953471Y-84494011D01*
X121943527Y-84424853D01*
X121972552Y-84361297D01*
X121978584Y-84354819D01*
X122158883Y-84174520D01*
X122783440Y-83549961D01*
X122844761Y-83516478D01*
X122887301Y-83514705D01*
X122935115Y-83521000D01*
X123214884Y-83520999D01*
X123214886Y-83520999D01*
X123333842Y-83505339D01*
X123333841Y-83505339D01*
X123333850Y-83505338D01*
X123379832Y-83486291D01*
X123449298Y-83478823D01*
X123511777Y-83510097D01*
G37*
G04 #@! TD.AperFunction*
G04 #@! TA.AperFunction,Conductor*
G36*
X111845691Y-99609695D02*
G01*
X112117204Y-99731860D01*
X112131220Y-99743869D01*
X112148012Y-99751538D01*
X112157618Y-99766485D01*
X112171115Y-99778049D01*
X112176415Y-99795734D01*
X112186396Y-99811264D01*
X112191307Y-99845419D01*
X112191498Y-99846057D01*
X112191500Y-99846762D01*
X112191500Y-100054963D01*
X112171498Y-100123084D01*
X112117842Y-100169577D01*
X112074490Y-100180642D01*
X111931991Y-100190834D01*
X111931986Y-100190835D01*
X111838032Y-100225879D01*
X111767217Y-100230943D01*
X111704904Y-100196918D01*
X111670879Y-100134606D01*
X111668000Y-100107823D01*
X111668000Y-99724603D01*
X111688002Y-99656482D01*
X111741658Y-99609989D01*
X111811932Y-99599885D01*
X111845691Y-99609695D01*
G37*
G04 #@! TD.AperFunction*
M02*
