G04 #@! TF.GenerationSoftware,KiCad,Pcbnew,5.1.2*
G04 #@! TF.CreationDate,2019-07-09T10:26:50-05:00*
G04 #@! TF.ProjectId,KokiriEmerald,4b6f6b69-7269-4456-9d65-72616c642e6b,rev?*
G04 #@! TF.SameCoordinates,Original*
G04 #@! TF.FileFunction,Legend,Bot*
G04 #@! TF.FilePolarity,Positive*
%FSLAX46Y46*%
G04 Gerber Fmt 4.6, Leading zero omitted, Abs format (unit mm)*
G04 Created by KiCad (PCBNEW 5.1.2) date 2019-07-09 10:26:50*
%MOMM*%
%LPD*%
G04 APERTURE LIST*
%ADD10C,0.100000*%
%ADD11C,0.150000*%
%ADD12C,0.120000*%
G04 APERTURE END LIST*
D10*
X110626666Y-103910000D02*
X110626666Y-103310000D01*
X110593333Y-103243333D01*
X110526666Y-103210000D01*
X110493333Y-103210000D01*
X110626666Y-104143333D02*
X110593333Y-104110000D01*
X110626666Y-104076666D01*
X110660000Y-104110000D01*
X110626666Y-104143333D01*
X110626666Y-104076666D01*
X111060000Y-103443333D02*
X110993333Y-103476666D01*
X110960000Y-103543333D01*
X110960000Y-104143333D01*
X111626666Y-103476666D02*
X111560000Y-103443333D01*
X111426666Y-103443333D01*
X111360000Y-103476666D01*
X111326666Y-103510000D01*
X111293333Y-103576666D01*
X111293333Y-103776666D01*
X111326666Y-103843333D01*
X111360000Y-103876666D01*
X111426666Y-103910000D01*
X111560000Y-103910000D01*
X111626666Y-103876666D01*
X111926666Y-103910000D02*
X111926666Y-103310000D01*
X111893333Y-103243333D01*
X111826666Y-103210000D01*
X111793333Y-103210000D01*
X111926666Y-104143333D02*
X111893333Y-104110000D01*
X111926666Y-104076666D01*
X111960000Y-104110000D01*
X111926666Y-104143333D01*
X111926666Y-104076666D01*
X112360000Y-103443333D02*
X112293333Y-103476666D01*
X112260000Y-103543333D01*
X112260000Y-104143333D01*
X112926666Y-103476666D02*
X112860000Y-103443333D01*
X112726666Y-103443333D01*
X112660000Y-103476666D01*
X112626666Y-103510000D01*
X112593333Y-103576666D01*
X112593333Y-103776666D01*
X112626666Y-103843333D01*
X112660000Y-103876666D01*
X112726666Y-103910000D01*
X112860000Y-103910000D01*
X112926666Y-103876666D01*
X113226666Y-103910000D02*
X113226666Y-103310000D01*
X113193333Y-103243333D01*
X113126666Y-103210000D01*
X113093333Y-103210000D01*
X113226666Y-104143333D02*
X113193333Y-104110000D01*
X113226666Y-104076666D01*
X113260000Y-104110000D01*
X113226666Y-104143333D01*
X113226666Y-104076666D01*
X113660000Y-103443333D02*
X113593333Y-103476666D01*
X113560000Y-103543333D01*
X113560000Y-104143333D01*
X114226666Y-103476666D02*
X114160000Y-103443333D01*
X114026666Y-103443333D01*
X113960000Y-103476666D01*
X113926666Y-103510000D01*
X113893333Y-103576666D01*
X113893333Y-103776666D01*
X113926666Y-103843333D01*
X113960000Y-103876666D01*
X114026666Y-103910000D01*
X114160000Y-103910000D01*
X114226666Y-103876666D01*
X114526666Y-103910000D02*
X114526666Y-103310000D01*
X114493333Y-103243333D01*
X114426666Y-103210000D01*
X114393333Y-103210000D01*
X114526666Y-104143333D02*
X114493333Y-104110000D01*
X114526666Y-104076666D01*
X114560000Y-104110000D01*
X114526666Y-104143333D01*
X114526666Y-104076666D01*
X114960000Y-103443333D02*
X114893333Y-103476666D01*
X114860000Y-103543333D01*
X114860000Y-104143333D01*
X115526666Y-103476666D02*
X115460000Y-103443333D01*
X115326666Y-103443333D01*
X115260000Y-103476666D01*
X115226666Y-103510000D01*
X115193333Y-103576666D01*
X115193333Y-103776666D01*
X115226666Y-103843333D01*
X115260000Y-103876666D01*
X115326666Y-103910000D01*
X115460000Y-103910000D01*
X115526666Y-103876666D01*
D11*
X106804285Y-101702380D02*
X107375714Y-101702380D01*
X107090000Y-101702380D02*
X107090000Y-100702380D01*
X107185238Y-100845238D01*
X107280476Y-100940476D01*
X107375714Y-100988095D01*
D10*
X107906666Y-107441666D02*
X107906666Y-106741666D01*
X107673333Y-107241666D01*
X107440000Y-106741666D01*
X107440000Y-107441666D01*
X106806666Y-107441666D02*
X106806666Y-107075000D01*
X106840000Y-107008333D01*
X106906666Y-106975000D01*
X107040000Y-106975000D01*
X107106666Y-107008333D01*
X106806666Y-107408333D02*
X106873333Y-107441666D01*
X107040000Y-107441666D01*
X107106666Y-107408333D01*
X107140000Y-107341666D01*
X107140000Y-107275000D01*
X107106666Y-107208333D01*
X107040000Y-107175000D01*
X106873333Y-107175000D01*
X106806666Y-107141666D01*
X106173333Y-107441666D02*
X106173333Y-106741666D01*
X106173333Y-107408333D02*
X106240000Y-107441666D01*
X106373333Y-107441666D01*
X106440000Y-107408333D01*
X106473333Y-107375000D01*
X106506666Y-107308333D01*
X106506666Y-107108333D01*
X106473333Y-107041666D01*
X106440000Y-107008333D01*
X106373333Y-106975000D01*
X106240000Y-106975000D01*
X106173333Y-107008333D01*
X105573333Y-107408333D02*
X105640000Y-107441666D01*
X105773333Y-107441666D01*
X105840000Y-107408333D01*
X105873333Y-107341666D01*
X105873333Y-107075000D01*
X105840000Y-107008333D01*
X105773333Y-106975000D01*
X105640000Y-106975000D01*
X105573333Y-107008333D01*
X105540000Y-107075000D01*
X105540000Y-107141666D01*
X105873333Y-107208333D01*
X104806666Y-106975000D02*
X104540000Y-106975000D01*
X104706666Y-107441666D02*
X104706666Y-106841666D01*
X104673333Y-106775000D01*
X104606666Y-106741666D01*
X104540000Y-106741666D01*
X104206666Y-107441666D02*
X104273333Y-107408333D01*
X104306666Y-107375000D01*
X104340000Y-107308333D01*
X104340000Y-107108333D01*
X104306666Y-107041666D01*
X104273333Y-107008333D01*
X104206666Y-106975000D01*
X104106666Y-106975000D01*
X104040000Y-107008333D01*
X104006666Y-107041666D01*
X103973333Y-107108333D01*
X103973333Y-107308333D01*
X104006666Y-107375000D01*
X104040000Y-107408333D01*
X104106666Y-107441666D01*
X104206666Y-107441666D01*
X103673333Y-107441666D02*
X103673333Y-106975000D01*
X103673333Y-107108333D02*
X103640000Y-107041666D01*
X103606666Y-107008333D01*
X103540000Y-106975000D01*
X103473333Y-106975000D01*
X108290000Y-108591666D02*
X108290000Y-107891666D01*
X108123333Y-107891666D01*
X108023333Y-107925000D01*
X107956666Y-107991666D01*
X107923333Y-108058333D01*
X107890000Y-108191666D01*
X107890000Y-108291666D01*
X107923333Y-108425000D01*
X107956666Y-108491666D01*
X108023333Y-108558333D01*
X108123333Y-108591666D01*
X108290000Y-108591666D01*
X107323333Y-108558333D02*
X107390000Y-108591666D01*
X107523333Y-108591666D01*
X107590000Y-108558333D01*
X107623333Y-108491666D01*
X107623333Y-108225000D01*
X107590000Y-108158333D01*
X107523333Y-108125000D01*
X107390000Y-108125000D01*
X107323333Y-108158333D01*
X107290000Y-108225000D01*
X107290000Y-108291666D01*
X107623333Y-108358333D01*
X107090000Y-108125000D02*
X106823333Y-108125000D01*
X106990000Y-108591666D02*
X106990000Y-107991666D01*
X106956666Y-107925000D01*
X106890000Y-107891666D01*
X106823333Y-107891666D01*
X106290000Y-108558333D02*
X106356666Y-108591666D01*
X106490000Y-108591666D01*
X106556666Y-108558333D01*
X106590000Y-108525000D01*
X106623333Y-108458333D01*
X106623333Y-108258333D01*
X106590000Y-108191666D01*
X106556666Y-108158333D01*
X106490000Y-108125000D01*
X106356666Y-108125000D01*
X106290000Y-108158333D01*
X105890000Y-108591666D02*
X105956666Y-108558333D01*
X105990000Y-108525000D01*
X106023333Y-108458333D01*
X106023333Y-108258333D01*
X105990000Y-108191666D01*
X105956666Y-108158333D01*
X105890000Y-108125000D01*
X105790000Y-108125000D01*
X105723333Y-108158333D01*
X105690000Y-108191666D01*
X105656666Y-108258333D01*
X105656666Y-108458333D01*
X105690000Y-108525000D01*
X105723333Y-108558333D01*
X105790000Y-108591666D01*
X105890000Y-108591666D01*
X105356666Y-108125000D02*
X105356666Y-108591666D01*
X105356666Y-108191666D02*
X105323333Y-108158333D01*
X105256666Y-108125000D01*
X105156666Y-108125000D01*
X105090000Y-108158333D01*
X105056666Y-108225000D01*
X105056666Y-108591666D01*
X104223333Y-107958333D02*
X104190000Y-107925000D01*
X104123333Y-107891666D01*
X103956666Y-107891666D01*
X103890000Y-107925000D01*
X103856666Y-107958333D01*
X103823333Y-108025000D01*
X103823333Y-108091666D01*
X103856666Y-108191666D01*
X104256666Y-108591666D01*
X103823333Y-108591666D01*
X103590000Y-107891666D02*
X103123333Y-107891666D01*
X103423333Y-108591666D01*
D12*
X119683235Y-96835302D02*
X121433647Y-95366532D01*
X120628133Y-97961387D02*
X119683235Y-96835302D01*
X122378544Y-96492618D02*
X120628133Y-97961387D01*
X105579387Y-100073184D02*
X106152964Y-99254032D01*
X102827036Y-98145968D02*
X103400613Y-97326816D01*
X113960000Y-106275000D02*
X114980000Y-106275000D01*
X113960000Y-101075000D02*
X114980000Y-101075000D01*
X111420000Y-106275000D02*
X112440000Y-106275000D01*
X111420000Y-101075000D02*
X112440000Y-101075000D01*
X116500000Y-106275000D02*
X117070000Y-106275000D01*
X116500000Y-101075000D02*
X117070000Y-101075000D01*
X109330000Y-106275000D02*
X109900000Y-106275000D01*
X109330000Y-101075000D02*
X109900000Y-101075000D01*
X109900000Y-99635000D02*
X109900000Y-101075000D01*
X117070000Y-101075000D02*
X117070000Y-106275000D01*
X109330000Y-101075000D02*
X109330000Y-106275000D01*
X107618474Y-97339088D02*
X109689388Y-98304770D01*
X106997226Y-98671360D02*
X107618474Y-97339088D01*
X109068139Y-99637043D02*
X106997226Y-98671360D01*
X103387717Y-91206853D02*
X104169233Y-93354051D01*
X104169233Y-93354051D02*
X102787885Y-93856820D01*
X102787885Y-93856820D02*
X102006369Y-91709623D01*
D11*
X123433427Y-97105265D02*
X122790640Y-96339220D01*
X122608248Y-96492265D01*
X122529422Y-96620570D01*
X122517683Y-96754744D01*
X122542423Y-96858310D01*
X122628380Y-97034832D01*
X122720207Y-97144267D01*
X122879121Y-97259571D01*
X122976817Y-97301919D01*
X123110992Y-97313658D01*
X123251036Y-97258309D01*
X123433427Y-97105265D01*
X122266121Y-98084750D02*
X122703861Y-97717443D01*
X122484991Y-97901097D02*
X121842204Y-97135052D01*
X122006987Y-97183269D01*
X122141162Y-97195008D01*
X122244727Y-97170269D01*
X121180987Y-98125015D02*
X121609512Y-98635711D01*
X121118507Y-97680144D02*
X121760032Y-98074274D01*
X121285814Y-98472190D01*
X103456609Y-96593870D02*
X103257729Y-96047687D01*
X103784367Y-96125783D02*
X102965215Y-95552206D01*
X102746710Y-95864264D01*
X102731091Y-95969592D01*
X102742785Y-96035912D01*
X102793486Y-96129546D01*
X102910508Y-96211485D01*
X103015835Y-96227104D01*
X103082156Y-96215410D01*
X103175789Y-96164709D01*
X103394295Y-95852651D01*
X103210791Y-96944935D02*
X102391639Y-96371358D01*
X102883033Y-97413022D01*
X102063881Y-96839445D01*
X101896077Y-97245137D02*
X101829756Y-97256831D01*
X101736123Y-97307532D01*
X101599557Y-97502568D01*
X101583938Y-97607896D01*
X101595632Y-97674216D01*
X101646333Y-97767850D01*
X101724348Y-97822476D01*
X101868683Y-97865408D01*
X102664527Y-97725080D01*
X102309456Y-98232174D01*
X107992380Y-105116666D02*
X108706666Y-105116666D01*
X108849523Y-105069047D01*
X108944761Y-104973809D01*
X108992380Y-104830952D01*
X108992380Y-104735714D01*
X108992380Y-106116666D02*
X108992380Y-105545238D01*
X108992380Y-105830952D02*
X107992380Y-105830952D01*
X108135238Y-105735714D01*
X108230476Y-105640476D01*
X108278095Y-105545238D01*
X108958705Y-100852007D02*
X109381323Y-99945699D01*
X109165535Y-99845076D01*
X109015938Y-99827859D01*
X108889374Y-99873925D01*
X108805967Y-99940116D01*
X108682311Y-100092621D01*
X108621937Y-100222093D01*
X108584595Y-100414848D01*
X108587504Y-100521288D01*
X108633569Y-100647852D01*
X108742917Y-100751384D01*
X108958705Y-100852007D01*
X107577664Y-100208017D02*
X108095554Y-100449514D01*
X107836609Y-100328766D02*
X108259228Y-99422458D01*
X108285169Y-99592180D01*
X108331234Y-99718744D01*
X108397425Y-99802151D01*
X107439235Y-99040089D02*
X107352920Y-98999839D01*
X107246480Y-99002748D01*
X107183198Y-99025780D01*
X107099791Y-99091971D01*
X106976135Y-99244476D01*
X106875511Y-99460264D01*
X106838170Y-99653019D01*
X106841078Y-99759458D01*
X106864111Y-99822740D01*
X106930302Y-99906147D01*
X107016617Y-99946397D01*
X107123056Y-99943488D01*
X107186338Y-99920456D01*
X107269745Y-99854265D01*
X107393402Y-99701760D01*
X107494025Y-99485972D01*
X107531366Y-99293218D01*
X107528458Y-99186778D01*
X107505425Y-99123496D01*
X107439235Y-99040089D01*
X104304630Y-93016681D02*
X105244322Y-92674661D01*
X105162889Y-92450925D01*
X105069282Y-92332970D01*
X104947214Y-92276048D01*
X104841433Y-92263875D01*
X104646157Y-92284274D01*
X104511915Y-92333134D01*
X104349213Y-92443028D01*
X104276005Y-92520349D01*
X104219084Y-92642416D01*
X104223196Y-92792945D01*
X104304630Y-93016681D01*
X103783456Y-91584769D02*
X103978896Y-92121736D01*
X103881176Y-91853252D02*
X104820869Y-91511232D01*
X104719200Y-91649587D01*
X104662279Y-91771655D01*
X104650105Y-91877436D01*
X104503361Y-90917344D02*
X104531821Y-90856310D01*
X104543995Y-90750529D01*
X104462562Y-90526792D01*
X104385241Y-90453584D01*
X104324207Y-90425124D01*
X104218426Y-90412950D01*
X104128932Y-90445523D01*
X104010976Y-90539130D01*
X103669449Y-91271538D01*
X103457723Y-90689823D01*
M02*
