M48
; DRILL file {KiCad 9.0.3} date 2025-07-24T13:44:47-0500
; FORMAT={-:-/ absolute / metric / decimal}
; #@! TF.CreationDate,2025-07-24T13:44:47-05:00
; #@! TF.GenerationSoftware,Kicad,Pcbnew,9.0.3
; #@! TF.FileFunction,NonPlated,1,2,NPTH
FMAT,2
METRIC
; #@! TA.AperFunction,NonPlated,NPTH,ComponentDrill
T1C0.500
; #@! TA.AperFunction,NonPlated,NPTH,ComponentDrill
T2C1.500
%
G90
G05
T1
X111.383Y-28.0
X111.383Y-160.508
X112.383Y-28.0
X112.383Y-160.508
X113.383Y-28.0
X113.383Y-160.508
X114.383Y-28.0
X114.383Y-160.508
X115.383Y-28.0
X115.383Y-160.508
X119.083Y-32.806
X119.083Y-33.806
X119.083Y-34.806
X119.083Y-35.806
X119.083Y-36.806
X119.083Y-39.612
X119.083Y-40.612
X119.083Y-41.612
X119.083Y-42.612
X119.083Y-43.612
X119.083Y-55.224
X119.083Y-56.224
X119.083Y-57.224
X119.083Y-58.224
X119.083Y-59.224
X119.083Y-62.03
X119.083Y-63.03
X119.083Y-64.03
X119.083Y-65.03
X119.083Y-66.03
X119.083Y-77.642
X119.083Y-78.642
X119.083Y-79.642
X119.083Y-80.642
X119.083Y-81.642
X119.083Y-84.448
X119.083Y-85.448
X119.083Y-86.448
X119.083Y-87.448
X119.083Y-88.448
X119.083Y-100.06
X119.083Y-101.06
X119.083Y-102.06
X119.083Y-103.06
X119.083Y-104.06
X119.083Y-106.866
X119.083Y-107.866
X119.083Y-108.866
X119.083Y-109.866
X119.083Y-110.866
X119.083Y-122.478
X119.083Y-123.478
X119.083Y-124.478
X119.083Y-125.478
X119.083Y-126.478
X119.083Y-129.284
X119.083Y-130.284
X119.083Y-131.284
X119.083Y-132.284
X119.083Y-133.284
X119.083Y-144.896
X119.083Y-145.896
X119.083Y-146.896
X119.083Y-147.896
X119.083Y-148.896
X119.083Y-151.702
X119.083Y-152.702
X119.083Y-153.702
X119.083Y-154.702
X119.083Y-155.702
X123.537Y-28.2
X123.537Y-48.218
X123.537Y-50.618
X123.537Y-70.636
X123.537Y-73.036
X123.537Y-93.054
X123.537Y-95.454
X123.537Y-115.472
X123.537Y-117.872
X123.537Y-137.89
X123.537Y-140.29
X123.537Y-160.308
X124.537Y-28.2
X124.537Y-48.218
X124.537Y-50.618
X124.537Y-70.636
X124.537Y-73.036
X124.537Y-93.054
X124.537Y-95.454
X124.537Y-115.472
X124.537Y-117.872
X124.537Y-137.89
X124.537Y-140.29
X124.537Y-160.308
X125.537Y-28.2
X125.537Y-48.218
X125.537Y-50.618
X125.537Y-70.636
X125.537Y-73.036
X125.537Y-93.054
X125.537Y-95.454
X125.537Y-115.472
X125.537Y-117.872
X125.537Y-137.89
X125.537Y-140.29
X125.537Y-160.308
X126.537Y-28.2
X126.537Y-48.218
X126.537Y-50.618
X126.537Y-70.636
X126.537Y-73.036
X126.537Y-93.054
X126.537Y-95.454
X126.537Y-115.472
X126.537Y-117.872
X126.537Y-137.89
X126.537Y-140.29
X126.537Y-160.308
X127.537Y-28.2
X127.537Y-48.218
X127.537Y-50.618
X127.537Y-70.636
X127.537Y-73.036
X127.537Y-93.054
X127.537Y-95.454
X127.537Y-115.472
X127.537Y-117.872
X127.537Y-137.89
X127.537Y-140.29
X127.537Y-160.308
X131.991Y-32.806
X131.991Y-33.806
X131.991Y-34.806
X131.991Y-35.806
X131.991Y-36.806
X131.991Y-39.612
X131.991Y-40.612
X131.991Y-41.612
X131.991Y-42.612
X131.991Y-43.612
X131.991Y-55.224
X131.991Y-56.224
X131.991Y-57.224
X131.991Y-58.224
X131.991Y-59.224
X131.991Y-62.03
X131.991Y-63.03
X131.991Y-64.03
X131.991Y-65.03
X131.991Y-66.03
X131.991Y-77.642
X131.991Y-78.642
X131.991Y-79.642
X131.991Y-80.642
X131.991Y-81.642
X131.991Y-84.448
X131.991Y-85.448
X131.991Y-86.448
X131.991Y-87.448
X131.991Y-88.448
X131.991Y-100.06
X131.991Y-101.06
X131.991Y-102.06
X131.991Y-103.06
X131.991Y-104.06
X131.991Y-106.866
X131.991Y-107.866
X131.991Y-108.866
X131.991Y-109.866
X131.991Y-110.866
X131.991Y-122.478
X131.991Y-123.478
X131.991Y-124.478
X131.991Y-125.478
X131.991Y-126.478
X131.991Y-129.284
X131.991Y-130.284
X131.991Y-131.284
X131.991Y-132.284
X131.991Y-133.284
X131.991Y-144.896
X131.991Y-145.896
X131.991Y-146.896
X131.991Y-147.896
X131.991Y-148.896
X131.991Y-151.702
X131.991Y-152.702
X131.991Y-153.702
X131.991Y-154.702
X131.991Y-155.702
X134.391Y-32.806
X134.391Y-33.806
X134.391Y-34.806
X134.391Y-35.806
X134.391Y-36.806
X134.391Y-39.612
X134.391Y-40.612
X134.391Y-41.612
X134.391Y-42.612
X134.391Y-43.612
X134.391Y-55.224
X134.391Y-56.224
X134.391Y-57.224
X134.391Y-58.224
X134.391Y-59.224
X134.391Y-62.03
X134.391Y-63.03
X134.391Y-64.03
X134.391Y-65.03
X134.391Y-66.03
X134.391Y-77.642
X134.391Y-78.642
X134.391Y-79.642
X134.391Y-80.642
X134.391Y-81.642
X134.391Y-84.448
X134.391Y-85.448
X134.391Y-86.448
X134.391Y-87.448
X134.391Y-88.448
X134.391Y-100.06
X134.391Y-101.06
X134.391Y-102.06
X134.391Y-103.06
X134.391Y-104.06
X134.391Y-106.866
X134.391Y-107.866
X134.391Y-108.866
X134.391Y-109.866
X134.391Y-110.866
X134.391Y-122.478
X134.391Y-123.478
X134.391Y-124.478
X134.391Y-125.478
X134.391Y-126.478
X134.391Y-129.284
X134.391Y-130.284
X134.391Y-131.284
X134.391Y-132.284
X134.391Y-133.284
X134.391Y-144.896
X134.391Y-145.896
X134.391Y-146.896
X134.391Y-147.896
X134.391Y-148.896
X134.391Y-151.702
X134.391Y-152.702
X134.391Y-153.702
X134.391Y-154.702
X134.391Y-155.702
X138.846Y-28.2
X138.846Y-48.218
X138.846Y-50.618
X138.846Y-70.636
X138.846Y-73.036
X138.846Y-93.054
X138.846Y-95.454
X138.846Y-115.472
X138.846Y-117.872
X138.846Y-137.89
X138.846Y-140.29
X138.846Y-160.308
X139.846Y-28.2
X139.846Y-48.218
X139.846Y-50.618
X139.846Y-70.636
X139.846Y-73.036
X139.846Y-93.054
X139.846Y-95.454
X139.846Y-115.472
X139.846Y-117.872
X139.846Y-137.89
X139.846Y-140.29
X139.846Y-160.308
X140.846Y-28.2
X140.846Y-48.218
X140.846Y-50.618
X140.846Y-70.636
X140.846Y-73.036
X140.846Y-93.054
X140.846Y-95.454
X140.846Y-115.472
X140.846Y-117.872
X140.846Y-137.89
X140.846Y-140.29
X140.846Y-160.308
X141.846Y-28.2
X141.846Y-48.218
X141.846Y-50.618
X141.846Y-70.636
X141.846Y-73.036
X141.846Y-93.054
X141.846Y-95.454
X141.846Y-115.472
X141.846Y-117.872
X141.846Y-137.89
X141.846Y-140.29
X141.846Y-160.308
X142.846Y-28.2
X142.846Y-48.218
X142.846Y-50.618
X142.846Y-70.636
X142.846Y-73.036
X142.846Y-93.054
X142.846Y-95.454
X142.846Y-115.472
X142.846Y-117.872
X142.846Y-137.89
X142.846Y-140.29
X142.846Y-160.308
X147.3Y-32.806
X147.3Y-33.806
X147.3Y-34.806
X147.3Y-35.806
X147.3Y-36.806
X147.3Y-39.612
X147.3Y-40.612
X147.3Y-41.612
X147.3Y-42.612
X147.3Y-43.612
X147.3Y-55.224
X147.3Y-56.224
X147.3Y-57.224
X147.3Y-58.224
X147.3Y-59.224
X147.3Y-62.03
X147.3Y-63.03
X147.3Y-64.03
X147.3Y-65.03
X147.3Y-66.03
X147.3Y-77.642
X147.3Y-78.642
X147.3Y-79.642
X147.3Y-80.642
X147.3Y-81.642
X147.3Y-84.448
X147.3Y-85.448
X147.3Y-86.448
X147.3Y-87.448
X147.3Y-88.448
X147.3Y-100.06
X147.3Y-101.06
X147.3Y-102.06
X147.3Y-103.06
X147.3Y-104.06
X147.3Y-106.866
X147.3Y-107.866
X147.3Y-108.866
X147.3Y-109.866
X147.3Y-110.866
X147.3Y-122.478
X147.3Y-123.478
X147.3Y-124.478
X147.3Y-125.478
X147.3Y-126.478
X147.3Y-129.284
X147.3Y-130.284
X147.3Y-131.284
X147.3Y-132.284
X147.3Y-133.284
X147.3Y-144.896
X147.3Y-145.896
X147.3Y-146.896
X147.3Y-147.896
X147.3Y-148.896
X147.3Y-151.702
X147.3Y-152.702
X147.3Y-153.702
X147.3Y-154.702
X147.3Y-155.702
X149.7Y-32.806
X149.7Y-33.806
X149.7Y-34.806
X149.7Y-35.806
X149.7Y-36.806
X149.7Y-39.612
X149.7Y-40.612
X149.7Y-41.612
X149.7Y-42.612
X149.7Y-43.612
X149.7Y-55.224
X149.7Y-56.224
X149.7Y-57.224
X149.7Y-58.224
X149.7Y-59.224
X149.7Y-62.03
X149.7Y-63.03
X149.7Y-64.03
X149.7Y-65.03
X149.7Y-66.03
X149.7Y-77.642
X149.7Y-78.642
X149.7Y-79.642
X149.7Y-80.642
X149.7Y-81.642
X149.7Y-84.448
X149.7Y-85.448
X149.7Y-86.448
X149.7Y-87.448
X149.7Y-88.448
X149.7Y-100.06
X149.7Y-101.06
X149.7Y-102.06
X149.7Y-103.06
X149.7Y-104.06
X149.7Y-106.866
X149.7Y-107.866
X149.7Y-108.866
X149.7Y-109.866
X149.7Y-110.866
X149.7Y-122.478
X149.7Y-123.478
X149.7Y-124.478
X149.7Y-125.478
X149.7Y-126.478
X149.7Y-129.284
X149.7Y-130.284
X149.7Y-131.284
X149.7Y-132.284
X149.7Y-133.284
X149.7Y-144.896
X149.7Y-145.896
X149.7Y-146.896
X149.7Y-147.896
X149.7Y-148.896
X149.7Y-151.702
X149.7Y-152.702
X149.7Y-153.702
X149.7Y-154.702
X149.7Y-155.702
X154.154Y-28.2
X154.154Y-48.218
X154.154Y-50.618
X154.154Y-70.636
X154.154Y-73.036
X154.154Y-93.054
X154.154Y-95.454
X154.154Y-115.472
X154.154Y-117.872
X154.154Y-137.89
X154.154Y-140.29
X154.154Y-160.308
X155.154Y-28.2
X155.154Y-48.218
X155.154Y-50.618
X155.154Y-70.636
X155.154Y-73.036
X155.154Y-93.054
X155.154Y-95.454
X155.154Y-115.472
X155.154Y-117.872
X155.154Y-137.89
X155.154Y-140.29
X155.154Y-160.308
X156.154Y-28.2
X156.154Y-48.218
X156.154Y-50.618
X156.154Y-70.636
X156.154Y-73.036
X156.154Y-93.054
X156.154Y-95.454
X156.154Y-115.472
X156.154Y-117.872
X156.154Y-137.89
X156.154Y-140.29
X156.154Y-160.308
X157.154Y-28.2
X157.154Y-48.218
X157.154Y-50.618
X157.154Y-70.636
X157.154Y-73.036
X157.154Y-93.054
X157.154Y-95.454
X157.154Y-115.472
X157.154Y-117.872
X157.154Y-137.89
X157.154Y-140.29
X157.154Y-160.308
X158.154Y-28.2
X158.154Y-48.218
X158.154Y-50.618
X158.154Y-70.636
X158.154Y-73.036
X158.154Y-93.054
X158.154Y-95.454
X158.154Y-115.472
X158.154Y-117.872
X158.154Y-137.89
X158.154Y-140.29
X158.154Y-160.308
X162.609Y-32.806
X162.609Y-33.806
X162.609Y-34.806
X162.609Y-35.806
X162.609Y-36.806
X162.609Y-39.612
X162.609Y-40.612
X162.609Y-41.612
X162.609Y-42.612
X162.609Y-43.612
X162.609Y-55.224
X162.609Y-56.224
X162.609Y-57.224
X162.609Y-58.224
X162.609Y-59.224
X162.609Y-62.03
X162.609Y-63.03
X162.609Y-64.03
X162.609Y-65.03
X162.609Y-66.03
X162.609Y-77.642
X162.609Y-78.642
X162.609Y-79.642
X162.609Y-80.642
X162.609Y-81.642
X162.609Y-84.448
X162.609Y-85.448
X162.609Y-86.448
X162.609Y-87.448
X162.609Y-88.448
X162.609Y-100.06
X162.609Y-101.06
X162.609Y-102.06
X162.609Y-103.06
X162.609Y-104.06
X162.609Y-106.866
X162.609Y-107.866
X162.609Y-108.866
X162.609Y-109.866
X162.609Y-110.866
X162.609Y-122.478
X162.609Y-123.478
X162.609Y-124.478
X162.609Y-125.478
X162.609Y-126.478
X162.609Y-129.284
X162.609Y-130.284
X162.609Y-131.284
X162.609Y-132.284
X162.609Y-133.284
X162.609Y-144.896
X162.609Y-145.896
X162.609Y-146.896
X162.609Y-147.896
X162.609Y-148.896
X162.609Y-151.702
X162.609Y-152.702
X162.609Y-153.702
X162.609Y-154.702
X162.609Y-155.702
X165.009Y-32.806
X165.009Y-33.806
X165.009Y-34.806
X165.009Y-35.806
X165.009Y-36.806
X165.009Y-39.612
X165.009Y-40.612
X165.009Y-41.612
X165.009Y-42.612
X165.009Y-43.612
X165.009Y-55.224
X165.009Y-56.224
X165.009Y-57.224
X165.009Y-58.224
X165.009Y-59.224
X165.009Y-62.03
X165.009Y-63.03
X165.009Y-64.03
X165.009Y-65.03
X165.009Y-66.03
X165.009Y-77.642
X165.009Y-78.642
X165.009Y-79.642
X165.009Y-80.642
X165.009Y-81.642
X165.009Y-84.448
X165.009Y-85.448
X165.009Y-86.448
X165.009Y-87.448
X165.009Y-88.448
X165.009Y-100.06
X165.009Y-101.06
X165.009Y-102.06
X165.009Y-103.06
X165.009Y-104.06
X165.009Y-106.866
X165.009Y-107.866
X165.009Y-108.866
X165.009Y-109.866
X165.009Y-110.866
X165.009Y-122.478
X165.009Y-123.478
X165.009Y-124.478
X165.009Y-125.478
X165.009Y-126.478
X165.009Y-129.284
X165.009Y-130.284
X165.009Y-131.284
X165.009Y-132.284
X165.009Y-133.284
X165.009Y-144.896
X165.009Y-145.896
X165.009Y-146.896
X165.009Y-147.896
X165.009Y-148.896
X165.009Y-151.702
X165.009Y-152.702
X165.009Y-153.702
X165.009Y-154.702
X165.009Y-155.702
X169.463Y-28.2
X169.463Y-48.218
X169.463Y-50.618
X169.463Y-70.636
X169.463Y-73.036
X169.463Y-93.054
X169.463Y-95.454
X169.463Y-115.472
X169.463Y-117.872
X169.463Y-137.89
X169.463Y-140.29
X169.463Y-160.308
X170.463Y-28.2
X170.463Y-48.218
X170.463Y-50.618
X170.463Y-70.636
X170.463Y-73.036
X170.463Y-93.054
X170.463Y-95.454
X170.463Y-115.472
X170.463Y-117.872
X170.463Y-137.89
X170.463Y-140.29
X170.463Y-160.308
X171.463Y-28.2
X171.463Y-48.218
X171.463Y-50.618
X171.463Y-70.636
X171.463Y-73.036
X171.463Y-93.054
X171.463Y-95.454
X171.463Y-115.472
X171.463Y-117.872
X171.463Y-137.89
X171.463Y-140.29
X171.463Y-160.308
X172.463Y-28.2
X172.463Y-48.218
X172.463Y-50.618
X172.463Y-70.636
X172.463Y-73.036
X172.463Y-93.054
X172.463Y-95.454
X172.463Y-115.472
X172.463Y-117.872
X172.463Y-137.89
X172.463Y-140.29
X172.463Y-160.308
X173.463Y-28.2
X173.463Y-48.218
X173.463Y-50.618
X173.463Y-70.636
X173.463Y-73.036
X173.463Y-93.054
X173.463Y-95.454
X173.463Y-115.472
X173.463Y-117.872
X173.463Y-137.89
X173.463Y-140.29
X173.463Y-160.308
X177.917Y-32.806
X177.917Y-33.806
X177.917Y-34.806
X177.917Y-35.806
X177.917Y-36.806
X177.917Y-39.612
X177.917Y-40.612
X177.917Y-41.612
X177.917Y-42.612
X177.917Y-43.612
X177.917Y-55.224
X177.917Y-56.224
X177.917Y-57.224
X177.917Y-58.224
X177.917Y-59.224
X177.917Y-62.03
X177.917Y-63.03
X177.917Y-64.03
X177.917Y-65.03
X177.917Y-66.03
X177.917Y-77.642
X177.917Y-78.642
X177.917Y-79.642
X177.917Y-80.642
X177.917Y-81.642
X177.917Y-84.448
X177.917Y-85.448
X177.917Y-86.448
X177.917Y-87.448
X177.917Y-88.448
X177.917Y-100.06
X177.917Y-101.06
X177.917Y-102.06
X177.917Y-103.06
X177.917Y-104.06
X177.917Y-106.866
X177.917Y-107.866
X177.917Y-108.866
X177.917Y-109.866
X177.917Y-110.866
X177.917Y-122.478
X177.917Y-123.478
X177.917Y-124.478
X177.917Y-125.478
X177.917Y-126.478
X177.917Y-129.284
X177.917Y-130.284
X177.917Y-131.284
X177.917Y-132.284
X177.917Y-133.284
X177.917Y-144.896
X177.917Y-145.896
X177.917Y-146.896
X177.917Y-147.896
X177.917Y-148.896
X177.917Y-151.702
X177.917Y-152.702
X177.917Y-153.702
X177.917Y-154.702
X177.917Y-155.702
X181.617Y-28.0
X181.617Y-160.508
X182.617Y-28.0
X182.617Y-160.508
X183.617Y-28.0
X183.617Y-160.508
X184.617Y-28.0
X184.617Y-160.508
X185.617Y-28.0
X185.617Y-160.508
T2
X113.383Y-22.5
X113.383Y-166.008
X183.617Y-22.5
X183.617Y-166.008
M30
