%TF.GenerationSoftware,KiCad,Pcbnew,(6.0.11)*%
%TF.CreationDate,2023-04-07T14:31:01-05:00*%
%TF.ProjectId,GamePip-Back,47616d65-5069-4702-9d42-61636b2e6b69,rev?*%
%TF.SameCoordinates,Original*%
%TF.FileFunction,Paste,Top*%
%TF.FilePolarity,Positive*%
%FSLAX46Y46*%
G04 Gerber Fmt 4.6, Leading zero omitted, Abs format (unit mm)*
G04 Created by KiCad (PCBNEW (6.0.11)) date 2023-04-07 14:31:01*
%MOMM*%
%LPD*%
G01*
G04 APERTURE LIST*
G04 Aperture macros list*
%AMRoundRect*
0 Rectangle with rounded corners*
0 $1 Rounding radius*
0 $2 $3 $4 $5 $6 $7 $8 $9 X,Y pos of 4 corners*
0 Add a 4 corners polygon primitive as box body*
4,1,4,$2,$3,$4,$5,$6,$7,$8,$9,$2,$3,0*
0 Add four circle primitives for the rounded corners*
1,1,$1+$1,$2,$3*
1,1,$1+$1,$4,$5*
1,1,$1+$1,$6,$7*
1,1,$1+$1,$8,$9*
0 Add four rect primitives between the rounded corners*
20,1,$1+$1,$2,$3,$4,$5,0*
20,1,$1+$1,$4,$5,$6,$7,0*
20,1,$1+$1,$6,$7,$8,$9,0*
20,1,$1+$1,$8,$9,$2,$3,0*%
%AMRotRect*
0 Rectangle, with rotation*
0 The origin of the aperture is its center*
0 $1 length*
0 $2 width*
0 $3 Rotation angle, in degrees counterclockwise*
0 Add horizontal line*
21,1,$1,$2,0,0,$3*%
G04 Aperture macros list end*
%ADD10R,2.000000X1.000000*%
%ADD11R,1.000000X1.000000*%
%ADD12R,1.100000X0.900000*%
%ADD13R,0.900000X1.500000*%
%ADD14R,1.500000X0.900000*%
%ADD15R,0.900000X0.900000*%
%ADD16R,2.000000X0.650000*%
%ADD17R,0.900000X1.250000*%
%ADD18R,0.800000X0.900000*%
%ADD19RotRect,1.300000X1.200000X315.000000*%
%ADD20RotRect,1.200000X1.300000X315.000000*%
%ADD21R,1.200000X0.850000*%
%ADD22R,0.850000X1.200000*%
%ADD23R,0.800000X0.500000*%
%ADD24R,0.800000X0.400000*%
%ADD25RoundRect,0.250000X0.262500X0.450000X-0.262500X0.450000X-0.262500X-0.450000X0.262500X-0.450000X0*%
%ADD26RoundRect,0.250000X-0.262500X-0.450000X0.262500X-0.450000X0.262500X0.450000X-0.262500X0.450000X0*%
%ADD27RoundRect,0.150000X-0.587500X-0.150000X0.587500X-0.150000X0.587500X0.150000X-0.587500X0.150000X0*%
%ADD28R,0.250000X1.400000*%
%ADD29O,1.000000X2.100000*%
%ADD30O,1.000000X1.800000*%
%ADD31R,1.100000X0.250000*%
%ADD32R,1.600000X2.000000*%
%ADD33R,1.100000X0.700000*%
%ADD34R,0.700000X1.100000*%
%ADD35R,0.900000X1.200000*%
%ADD36RoundRect,0.250000X0.250000X0.475000X-0.250000X0.475000X-0.250000X-0.475000X0.250000X-0.475000X0*%
%ADD37RoundRect,0.250000X-0.250000X-0.475000X0.250000X-0.475000X0.250000X0.475000X-0.250000X0.475000X0*%
G04 APERTURE END LIST*
D10*
%TO.C,SW7*%
X126900000Y-118100000D03*
X126900000Y-122500000D03*
X138800000Y-122500000D03*
X138800000Y-118100000D03*
%TD*%
%TO.C,SW5*%
X101400000Y-131200000D03*
X101400000Y-127200000D03*
D11*
X101400000Y-126300000D03*
D12*
X104250000Y-127350000D03*
X98550000Y-127350000D03*
X98550000Y-131050000D03*
X104250000Y-131050000D03*
D11*
X101400000Y-132200000D03*
%TD*%
D10*
%TO.C,SW6*%
X188300000Y-129200000D03*
X188300000Y-125200000D03*
D11*
X188300000Y-124300000D03*
D12*
X191150000Y-125350000D03*
X185450000Y-125350000D03*
X185450000Y-129050000D03*
X191150000Y-129050000D03*
D11*
X188300000Y-130200000D03*
%TD*%
D10*
%TO.C,SW4*%
X173900000Y-133400000D03*
X173900000Y-129400000D03*
D11*
X173900000Y-128500000D03*
D12*
X176750000Y-129550000D03*
X171050000Y-129550000D03*
X171050000Y-133250000D03*
X176750000Y-133250000D03*
D11*
X173900000Y-134400000D03*
%TD*%
D10*
%TO.C,SW3*%
X88900000Y-131100000D03*
X88900000Y-127100000D03*
D11*
X88900000Y-126200000D03*
D12*
X91750000Y-127250000D03*
X86050000Y-127250000D03*
X86050000Y-130950000D03*
X91750000Y-130950000D03*
D11*
X88900000Y-132100000D03*
%TD*%
D10*
%TO.C,SW2*%
X95200000Y-137200000D03*
X95200000Y-133200000D03*
D11*
X95200000Y-132300000D03*
D12*
X98050000Y-133350000D03*
X92350000Y-133350000D03*
X92350000Y-137050000D03*
X98050000Y-137050000D03*
D11*
X95200000Y-138200000D03*
%TD*%
D10*
%TO.C,SW1*%
X95200000Y-125100000D03*
X95200000Y-121100000D03*
D11*
X95200000Y-120200000D03*
D12*
X98050000Y-121250000D03*
X92350000Y-121250000D03*
X92350000Y-124950000D03*
X98050000Y-124950000D03*
D11*
X95200000Y-126100000D03*
%TD*%
D13*
%TO.C,U2*%
X133450000Y-143750000D03*
X132180000Y-143750000D03*
X130910000Y-143750000D03*
X129640000Y-143750000D03*
X128370000Y-143750000D03*
X127100000Y-143750000D03*
X125830000Y-143750000D03*
X124560000Y-143750000D03*
X123290000Y-143750000D03*
X122020000Y-143750000D03*
X120750000Y-143750000D03*
X119480000Y-143750000D03*
X118210000Y-143750000D03*
X116940000Y-143750000D03*
D14*
X134700000Y-141985000D03*
X134700000Y-140715000D03*
X134700000Y-139445000D03*
X134700000Y-138175000D03*
X134700000Y-136905000D03*
X134700000Y-135635000D03*
X134700000Y-134365000D03*
X134700000Y-133095000D03*
X134700000Y-131825000D03*
X134700000Y-130555000D03*
D13*
X133450000Y-126250000D03*
X132180000Y-126250000D03*
X130910000Y-126250000D03*
X129640000Y-126250000D03*
X128370000Y-126250000D03*
X127100000Y-126250000D03*
X125830000Y-126250000D03*
X124560000Y-126250000D03*
X123290000Y-126250000D03*
X122020000Y-126250000D03*
X120750000Y-126250000D03*
X119480000Y-126250000D03*
X118210000Y-126250000D03*
X116940000Y-126250000D03*
D15*
X124660000Y-136500000D03*
D14*
X134700000Y-129285000D03*
X134700000Y-128015000D03*
D15*
X124660000Y-135100000D03*
X123260000Y-135100000D03*
X123260000Y-136500000D03*
X123260000Y-137900000D03*
X124660000Y-137900000D03*
X126060000Y-137900000D03*
X126060000Y-136500000D03*
X126060000Y-135100000D03*
%TD*%
D16*
%TO.C,U1*%
X178490000Y-79450000D03*
X178490000Y-80400000D03*
X178490000Y-81350000D03*
X181910000Y-81350000D03*
X181910000Y-80400000D03*
X181910000Y-79450000D03*
%TD*%
D17*
%TO.C,SW10*%
X181650000Y-60125000D03*
X183150000Y-60125000D03*
X186150000Y-60125000D03*
D18*
X180100000Y-59150000D03*
X180100000Y-56850000D03*
X187700000Y-56850000D03*
X187710000Y-59150000D03*
%TD*%
D19*
%TO.C,SW9*%
X198777596Y-62536439D03*
X200863561Y-64622404D03*
X202649006Y-66407848D03*
X196992152Y-60750994D03*
D20*
X208164439Y-62872314D03*
X205265301Y-65771452D03*
D21*
X208665301Y-58134699D03*
D20*
X200527686Y-55235561D03*
X197628548Y-58134699D03*
D22*
X205265301Y-54734699D03*
%TD*%
D23*
%TO.C,RN1*%
X144900000Y-144900000D03*
D24*
X144900000Y-144100000D03*
X144900000Y-143300000D03*
D23*
X144900000Y-142500000D03*
X143100000Y-142500000D03*
D24*
X143100000Y-143300000D03*
X143100000Y-144100000D03*
D23*
X143100000Y-144900000D03*
%TD*%
D25*
%TO.C,R12*%
X179325000Y-90200000D03*
X177500000Y-90200000D03*
%TD*%
D26*
%TO.C,R11*%
X159187500Y-119800000D03*
X161012500Y-119800000D03*
%TD*%
D25*
%TO.C,R10*%
X107312500Y-139700000D03*
X105487500Y-139700000D03*
%TD*%
D26*
%TO.C,R9*%
X86375000Y-104200000D03*
X88200000Y-104200000D03*
%TD*%
%TO.C,R8*%
X86375000Y-100800000D03*
X88200000Y-100800000D03*
%TD*%
D25*
%TO.C,R7*%
X92800000Y-100800000D03*
X90975000Y-100800000D03*
%TD*%
D26*
%TO.C,R6*%
X90975000Y-94200000D03*
X92800000Y-94200000D03*
%TD*%
D25*
%TO.C,R5*%
X92800000Y-90800000D03*
X90975000Y-90800000D03*
%TD*%
D26*
%TO.C,R4*%
X168175000Y-75400000D03*
X170000000Y-75400000D03*
%TD*%
%TO.C,R3*%
X86375000Y-97600000D03*
X88200000Y-97600000D03*
%TD*%
%TO.C,R2*%
X86375000Y-94200000D03*
X88200000Y-94200000D03*
%TD*%
%TO.C,R1*%
X88200000Y-90800000D03*
X86375000Y-90800000D03*
%TD*%
D27*
%TO.C,Q2*%
X90462500Y-104050000D03*
X90462500Y-105950000D03*
X92337500Y-105000000D03*
%TD*%
%TO.C,Q1*%
X168262500Y-69650000D03*
X168262500Y-71550000D03*
X170137500Y-70600000D03*
%TD*%
D28*
%TO.C,J2*%
X129075000Y-147412500D03*
X129875000Y-147412500D03*
X131150000Y-147412500D03*
X132150000Y-147412500D03*
X132650000Y-147412500D03*
X130650000Y-147412500D03*
X134925000Y-147412500D03*
X135725000Y-147412500D03*
X135475000Y-147412500D03*
X134675000Y-147412500D03*
X134150000Y-147412500D03*
X133150000Y-147412500D03*
X131650000Y-147412500D03*
X133650000Y-147412500D03*
X130125000Y-147412500D03*
X129325000Y-147412500D03*
D29*
X136720000Y-148112500D03*
D30*
X128080000Y-152262500D03*
D29*
X128080000Y-148112500D03*
D30*
X136720000Y-152262500D03*
%TD*%
D31*
%TO.C,J1*%
X126150000Y-96050000D03*
X126150000Y-95550000D03*
X126150000Y-95050000D03*
X126150000Y-94550000D03*
X126150000Y-94050000D03*
X126150000Y-93550000D03*
X126150000Y-93050000D03*
X126150000Y-92550000D03*
X126150000Y-92050000D03*
X126150000Y-91550000D03*
X126150000Y-91050000D03*
X126150000Y-90550000D03*
X126150000Y-90050000D03*
X126150000Y-89550000D03*
X126150000Y-89050000D03*
X126150000Y-88550000D03*
X126150000Y-88050000D03*
X126150000Y-87550000D03*
X126150000Y-87050000D03*
X126150000Y-86550000D03*
X126150000Y-86050000D03*
X126150000Y-85550000D03*
X126150000Y-85050000D03*
X126150000Y-84550000D03*
X126150000Y-84050000D03*
X126150000Y-83550000D03*
X126150000Y-83050000D03*
X126150000Y-82550000D03*
X126150000Y-82050000D03*
X126150000Y-81550000D03*
X126150000Y-81050000D03*
X126150000Y-80550000D03*
X126150000Y-80050000D03*
X126150000Y-79550000D03*
X126150000Y-79050000D03*
X126150000Y-78550000D03*
X126150000Y-78050000D03*
X126150000Y-77550000D03*
X126150000Y-77050000D03*
X126150000Y-76550000D03*
D32*
X123370000Y-74725000D03*
X123370000Y-97875000D03*
%TD*%
D33*
%TO.C,D3*%
X179200000Y-95700000D03*
X179200000Y-93100000D03*
X177600000Y-95700000D03*
X177600000Y-93100000D03*
%TD*%
D34*
%TO.C,D2*%
X158805000Y-125970000D03*
X161405000Y-125970000D03*
X158805000Y-124370000D03*
X161405000Y-124370000D03*
%TD*%
D35*
%TO.C,D1*%
X170850000Y-66200000D03*
X167550000Y-66200000D03*
%TD*%
D36*
%TO.C,C9*%
X107250000Y-143100000D03*
X105350000Y-143100000D03*
%TD*%
%TO.C,C8*%
X118200000Y-146800000D03*
X116300000Y-146800000D03*
%TD*%
D37*
%TO.C,C7*%
X120350000Y-146800000D03*
X122250000Y-146800000D03*
%TD*%
%TO.C,C6*%
X138000000Y-144700000D03*
X139900000Y-144700000D03*
%TD*%
D36*
%TO.C,C5*%
X126400000Y-146800000D03*
X124500000Y-146800000D03*
%TD*%
%TO.C,C4*%
X174900000Y-79800000D03*
X173000000Y-79800000D03*
%TD*%
D37*
%TO.C,C3*%
X185700000Y-79600000D03*
X187600000Y-79600000D03*
%TD*%
%TO.C,C2*%
X187600000Y-83000000D03*
X185700000Y-83000000D03*
%TD*%
%TO.C,C1*%
X90850000Y-87400000D03*
X92750000Y-87400000D03*
%TD*%
M02*
