%TF.GenerationSoftware,KiCad,Pcbnew,(6.0.11)*%
%TF.CreationDate,2023-04-07T14:31:02-05:00*%
%TF.ProjectId,GamePip-Back,47616d65-5069-4702-9d42-61636b2e6b69,rev?*%
%TF.SameCoordinates,Original*%
%TF.FileFunction,Soldermask,Top*%
%TF.FilePolarity,Negative*%
%FSLAX46Y46*%
G04 Gerber Fmt 4.6, Leading zero omitted, Abs format (unit mm)*
G04 Created by KiCad (PCBNEW (6.0.11)) date 2023-04-07 14:31:02*
%MOMM*%
%LPD*%
G01*
G04 APERTURE LIST*
G04 Aperture macros list*
%AMRoundRect*
0 Rectangle with rounded corners*
0 $1 Rounding radius*
0 $2 $3 $4 $5 $6 $7 $8 $9 X,Y pos of 4 corners*
0 Add a 4 corners polygon primitive as box body*
4,1,4,$2,$3,$4,$5,$6,$7,$8,$9,$2,$3,0*
0 Add four circle primitives for the rounded corners*
1,1,$1+$1,$2,$3*
1,1,$1+$1,$4,$5*
1,1,$1+$1,$6,$7*
1,1,$1+$1,$8,$9*
0 Add four rect primitives between the rounded corners*
20,1,$1+$1,$2,$3,$4,$5,0*
20,1,$1+$1,$4,$5,$6,$7,0*
20,1,$1+$1,$6,$7,$8,$9,0*
20,1,$1+$1,$8,$9,$2,$3,0*%
G04 Aperture macros list end*
%ADD10C,0.200000*%
%ADD11RoundRect,0.200000X-1.000000X-0.500000X1.000000X-0.500000X1.000000X0.500000X-1.000000X0.500000X0*%
%ADD12RoundRect,0.200000X-0.500000X-0.500000X0.500000X-0.500000X0.500000X0.500000X-0.500000X0.500000X0*%
%ADD13RoundRect,0.200000X-0.550000X-0.450000X0.550000X-0.450000X0.550000X0.450000X-0.550000X0.450000X0*%
%ADD14RoundRect,0.200000X0.450000X-0.750000X0.450000X0.750000X-0.450000X0.750000X-0.450000X-0.750000X0*%
%ADD15RoundRect,0.200000X0.750000X0.450000X-0.750000X0.450000X-0.750000X-0.450000X0.750000X-0.450000X0*%
%ADD16RoundRect,0.200000X-0.450000X0.750000X-0.450000X-0.750000X0.450000X-0.750000X0.450000X0.750000X0*%
%ADD17RoundRect,0.200000X-0.450000X0.450000X-0.450000X-0.450000X0.450000X-0.450000X0.450000X0.450000X0*%
%ADD18RoundRect,0.200000X-1.000000X-0.325000X1.000000X-0.325000X1.000000X0.325000X-1.000000X0.325000X0*%
%ADD19C,1.300000*%
%ADD20RoundRect,0.200000X-0.450000X-0.625000X0.450000X-0.625000X0.450000X0.625000X-0.450000X0.625000X0*%
%ADD21RoundRect,0.200000X-0.400000X-0.450000X0.400000X-0.450000X0.400000X0.450000X-0.400000X0.450000X0*%
%ADD22RoundRect,0.200000X-0.883883X0.035355X0.035355X-0.883883X0.883883X-0.035355X-0.035355X0.883883X0*%
%ADD23C,2.000000*%
%ADD24RoundRect,0.200000X-0.883883X-0.035355X-0.035355X-0.883883X0.883883X0.035355X0.035355X0.883883X0*%
%ADD25RoundRect,0.200000X-0.600000X-0.425000X0.600000X-0.425000X0.600000X0.425000X-0.600000X0.425000X0*%
%ADD26RoundRect,0.200000X-0.425000X0.600000X-0.425000X-0.600000X0.425000X-0.600000X0.425000X0.600000X0*%
%ADD27RoundRect,0.200000X0.400000X0.250000X-0.400000X0.250000X-0.400000X-0.250000X0.400000X-0.250000X0*%
%ADD28RoundRect,0.200000X0.400000X0.200000X-0.400000X0.200000X-0.400000X-0.200000X0.400000X-0.200000X0*%
%ADD29RoundRect,0.450000X0.262500X0.450000X-0.262500X0.450000X-0.262500X-0.450000X0.262500X-0.450000X0*%
%ADD30RoundRect,0.450000X-0.262500X-0.450000X0.262500X-0.450000X0.262500X0.450000X-0.262500X0.450000X0*%
%ADD31RoundRect,0.350000X-0.587500X-0.150000X0.587500X-0.150000X0.587500X0.150000X-0.587500X0.150000X0*%
%ADD32RoundRect,0.200000X0.850000X0.850000X-0.850000X0.850000X-0.850000X-0.850000X0.850000X-0.850000X0*%
%ADD33O,2.100000X2.100000*%
%ADD34RoundRect,0.200000X0.850000X-0.850000X0.850000X0.850000X-0.850000X0.850000X-0.850000X-0.850000X0*%
%ADD35C,6.600000*%
%ADD36RoundRect,0.200000X-0.850000X-0.850000X0.850000X-0.850000X0.850000X0.850000X-0.850000X0.850000X0*%
%ADD37C,1.050000*%
%ADD38RoundRect,0.200000X-0.125000X-0.700000X0.125000X-0.700000X0.125000X0.700000X-0.125000X0.700000X0*%
%ADD39O,1.400000X2.500000*%
%ADD40O,1.400000X2.200000*%
%ADD41RoundRect,0.200000X-0.550000X0.125000X-0.550000X-0.125000X0.550000X-0.125000X0.550000X0.125000X0*%
%ADD42RoundRect,0.200000X-0.800000X1.000000X-0.800000X-1.000000X0.800000X-1.000000X0.800000X1.000000X0*%
%ADD43RoundRect,0.200000X0.550000X-0.350000X0.550000X0.350000X-0.550000X0.350000X-0.550000X-0.350000X0*%
%ADD44RoundRect,0.200000X-0.350000X-0.550000X0.350000X-0.550000X0.350000X0.550000X-0.350000X0.550000X0*%
%ADD45RoundRect,0.200000X0.450000X0.600000X-0.450000X0.600000X-0.450000X-0.600000X0.450000X-0.600000X0*%
%ADD46RoundRect,0.450000X0.250000X0.475000X-0.250000X0.475000X-0.250000X-0.475000X0.250000X-0.475000X0*%
%ADD47RoundRect,0.450000X-0.250000X-0.475000X0.250000X-0.475000X0.250000X0.475000X-0.250000X0.475000X0*%
G04 APERTURE END LIST*
D10*
%TO.C,SW7*%
X136195128Y-121987221D02*
X141095128Y-121998945D01*
X129300000Y-121500000D02*
X129300000Y-118700000D01*
X128700000Y-119100000D02*
X128700000Y-121900000D01*
X129900000Y-119300000D02*
X129900000Y-121800000D01*
X135195128Y-121087221D02*
X135195128Y-118887221D01*
X137595128Y-121487221D02*
X137595128Y-118687221D01*
X139395128Y-119087221D02*
X139395128Y-121887221D01*
X140595128Y-119087221D02*
X140595128Y-121887221D01*
X136395128Y-121487221D02*
X136395128Y-118687221D01*
X128100000Y-121500000D02*
X128100000Y-118700000D01*
X135795128Y-119087221D02*
X135795128Y-121887221D01*
X124500000Y-121500000D02*
X124500000Y-118700000D01*
X136995128Y-119087221D02*
X136995128Y-121987221D01*
X125100000Y-119100000D02*
X125100000Y-122000000D01*
X141095128Y-118587221D02*
X136195128Y-118587221D01*
X129200000Y-118600000D02*
X124300000Y-118600000D01*
X126900000Y-121500000D02*
X126900000Y-118700000D01*
X123300000Y-121100000D02*
X123300000Y-118900000D01*
X130500000Y-120700000D02*
X130500000Y-119300000D01*
X141795128Y-119287221D02*
X141795128Y-121787221D01*
X141195128Y-121487221D02*
X141195128Y-118687221D01*
X138795128Y-121487221D02*
X138795128Y-118687221D01*
X139995128Y-121487221D02*
X139995128Y-118687221D01*
X138195128Y-119087221D02*
X138195128Y-121887221D01*
X127500000Y-119100000D02*
X127500000Y-121900000D01*
X124300000Y-122000000D02*
X129200000Y-122011724D01*
X142395128Y-120687221D02*
X142395128Y-119287221D01*
X126300000Y-119100000D02*
X126300000Y-121900000D01*
X123900000Y-119100000D02*
X123900000Y-121900000D01*
X125700000Y-121500000D02*
X125700000Y-118700000D01*
X136195128Y-118587216D02*
G75*
G03*
X134495128Y-119987221I2J-1732144D01*
G01*
X141095128Y-121998942D02*
G75*
G03*
X142795128Y-120587221I2J1729432D01*
G01*
X122623411Y-120600000D02*
G75*
G03*
X124300000Y-122000000I1676588J303910D01*
G01*
X130888356Y-120000000D02*
G75*
G03*
X129200000Y-118600000I-1688355J-318051D01*
G01*
X129200000Y-122011725D02*
G75*
G03*
X130900000Y-120600000I1J1729432D01*
G01*
X134518541Y-120587220D02*
G75*
G03*
X136195128Y-121987221I1676589J303910D01*
G01*
X142783483Y-119987221D02*
G75*
G03*
X141095128Y-118587221I-1688353J-318049D01*
G01*
X124300000Y-118599999D02*
G75*
G03*
X122600000Y-120000000I-1J-1732142D01*
G01*
%TO.C,SW5*%
X101400000Y-127700000D02*
X101400000Y-130450000D01*
X102900000Y-127950000D02*
X102900000Y-130950000D01*
X99900000Y-127950000D02*
X99900000Y-130950000D01*
X102400000Y-126950000D02*
X102400000Y-130450000D01*
X100900000Y-127950000D02*
X100900000Y-130700000D01*
X100400000Y-126950000D02*
X100400000Y-130450000D01*
X101900000Y-127950000D02*
X101900000Y-130700000D01*
X103650000Y-128950000D02*
G75*
G03*
X99150000Y-128950000I-2250000J0D01*
G01*
X99150000Y-129450000D02*
G75*
G03*
X103650000Y-129450000I2250000J0D01*
G01*
%TO.C,SW6*%
X188300000Y-125700000D02*
X188300000Y-128450000D01*
X189800000Y-125950000D02*
X189800000Y-128950000D01*
X186800000Y-125950000D02*
X186800000Y-128950000D01*
X189300000Y-124950000D02*
X189300000Y-128450000D01*
X187800000Y-125950000D02*
X187800000Y-128700000D01*
X187300000Y-124950000D02*
X187300000Y-128450000D01*
X188800000Y-125950000D02*
X188800000Y-128700000D01*
X190550000Y-126950000D02*
G75*
G03*
X186050000Y-126950000I-2250000J0D01*
G01*
X186050000Y-127450000D02*
G75*
G03*
X190550000Y-127450000I2250000J0D01*
G01*
%TO.C,SW4*%
X173900000Y-129900000D02*
X173900000Y-132650000D01*
X175400000Y-130150000D02*
X175400000Y-133150000D01*
X172400000Y-130150000D02*
X172400000Y-133150000D01*
X174900000Y-129150000D02*
X174900000Y-132650000D01*
X173400000Y-130150000D02*
X173400000Y-132900000D01*
X172900000Y-129150000D02*
X172900000Y-132650000D01*
X174400000Y-130150000D02*
X174400000Y-132900000D01*
X176150000Y-131150000D02*
G75*
G03*
X171650000Y-131150000I-2250000J0D01*
G01*
X171650000Y-131650000D02*
G75*
G03*
X176150000Y-131650000I2250000J0D01*
G01*
%TO.C,SW3*%
X88900000Y-127600000D02*
X88900000Y-130350000D01*
X90400000Y-127850000D02*
X90400000Y-130850000D01*
X87400000Y-127850000D02*
X87400000Y-130850000D01*
X89900000Y-126850000D02*
X89900000Y-130350000D01*
X88400000Y-127850000D02*
X88400000Y-130600000D01*
X87900000Y-126850000D02*
X87900000Y-130350000D01*
X89400000Y-127850000D02*
X89400000Y-130600000D01*
X91150000Y-128850000D02*
G75*
G03*
X86650000Y-128850000I-2250000J0D01*
G01*
X86650000Y-129350000D02*
G75*
G03*
X91150000Y-129350000I2250000J0D01*
G01*
%TO.C,SW2*%
X95200000Y-133700000D02*
X95200000Y-136450000D01*
X96700000Y-133950000D02*
X96700000Y-136950000D01*
X93700000Y-133950000D02*
X93700000Y-136950000D01*
X96200000Y-132950000D02*
X96200000Y-136450000D01*
X94700000Y-133950000D02*
X94700000Y-136700000D01*
X94200000Y-132950000D02*
X94200000Y-136450000D01*
X95700000Y-133950000D02*
X95700000Y-136700000D01*
X97450000Y-134950000D02*
G75*
G03*
X92950000Y-134950000I-2250000J0D01*
G01*
X92950000Y-135450000D02*
G75*
G03*
X97450000Y-135450000I2250000J0D01*
G01*
%TO.C,SW1*%
X95200000Y-121600000D02*
X95200000Y-124350000D01*
X96700000Y-121850000D02*
X96700000Y-124850000D01*
X93700000Y-121850000D02*
X93700000Y-124850000D01*
X96200000Y-120850000D02*
X96200000Y-124350000D01*
X94700000Y-121850000D02*
X94700000Y-124600000D01*
X94200000Y-120850000D02*
X94200000Y-124350000D01*
X95700000Y-121850000D02*
X95700000Y-124600000D01*
X97450000Y-122850000D02*
G75*
G03*
X92950000Y-122850000I-2250000J0D01*
G01*
X92950000Y-123350000D02*
G75*
G03*
X97450000Y-123350000I2250000J0D01*
G01*
%TD*%
D11*
%TO.C,SW7*%
X126900000Y-118100000D03*
X126900000Y-122500000D03*
X138800000Y-122500000D03*
X138800000Y-118100000D03*
%TD*%
%TO.C,SW5*%
X101400000Y-131200000D03*
X101400000Y-127200000D03*
D12*
X101400000Y-126300000D03*
D13*
X104250000Y-127350000D03*
X98550000Y-127350000D03*
X98550000Y-131050000D03*
X104250000Y-131050000D03*
D12*
X101400000Y-132200000D03*
%TD*%
D11*
%TO.C,SW6*%
X188300000Y-129200000D03*
X188300000Y-125200000D03*
D12*
X188300000Y-124300000D03*
D13*
X191150000Y-125350000D03*
X185450000Y-125350000D03*
X185450000Y-129050000D03*
X191150000Y-129050000D03*
D12*
X188300000Y-130200000D03*
%TD*%
D11*
%TO.C,SW4*%
X173900000Y-133400000D03*
X173900000Y-129400000D03*
D12*
X173900000Y-128500000D03*
D13*
X176750000Y-129550000D03*
X171050000Y-129550000D03*
X171050000Y-133250000D03*
X176750000Y-133250000D03*
D12*
X173900000Y-134400000D03*
%TD*%
D11*
%TO.C,SW3*%
X88900000Y-131100000D03*
X88900000Y-127100000D03*
D12*
X88900000Y-126200000D03*
D13*
X91750000Y-127250000D03*
X86050000Y-127250000D03*
X86050000Y-130950000D03*
X91750000Y-130950000D03*
D12*
X88900000Y-132100000D03*
%TD*%
D11*
%TO.C,SW2*%
X95200000Y-137200000D03*
X95200000Y-133200000D03*
D12*
X95200000Y-132300000D03*
D13*
X98050000Y-133350000D03*
X92350000Y-133350000D03*
X92350000Y-137050000D03*
X98050000Y-137050000D03*
D12*
X95200000Y-138200000D03*
%TD*%
D11*
%TO.C,SW1*%
X95200000Y-125100000D03*
X95200000Y-121100000D03*
D12*
X95200000Y-120200000D03*
D13*
X98050000Y-121250000D03*
X92350000Y-121250000D03*
X92350000Y-124950000D03*
X98050000Y-124950000D03*
D12*
X95200000Y-126100000D03*
%TD*%
D14*
%TO.C,U2*%
X133450000Y-143750000D03*
X132180000Y-143750000D03*
X130910000Y-143750000D03*
X129640000Y-143750000D03*
X128370000Y-143750000D03*
X127100000Y-143750000D03*
X125830000Y-143750000D03*
X124560000Y-143750000D03*
X123290000Y-143750000D03*
X122020000Y-143750000D03*
X120750000Y-143750000D03*
X119480000Y-143750000D03*
X118210000Y-143750000D03*
X116940000Y-143750000D03*
D15*
X134700000Y-141985000D03*
X134700000Y-140715000D03*
X134700000Y-139445000D03*
X134700000Y-138175000D03*
X134700000Y-136905000D03*
X134700000Y-135635000D03*
X134700000Y-134365000D03*
X134700000Y-133095000D03*
X134700000Y-131825000D03*
X134700000Y-130555000D03*
D16*
X133450000Y-126250000D03*
X132180000Y-126250000D03*
X130910000Y-126250000D03*
X129640000Y-126250000D03*
X128370000Y-126250000D03*
X127100000Y-126250000D03*
X125830000Y-126250000D03*
X124560000Y-126250000D03*
X123290000Y-126250000D03*
X122020000Y-126250000D03*
X120750000Y-126250000D03*
X119480000Y-126250000D03*
X118210000Y-126250000D03*
X116940000Y-126250000D03*
D17*
X124660000Y-136500000D03*
D15*
X134700000Y-129285000D03*
X134700000Y-128015000D03*
D17*
X124660000Y-135100000D03*
X123260000Y-135100000D03*
X123260000Y-136500000D03*
X123260000Y-137900000D03*
X124660000Y-137900000D03*
X126060000Y-137900000D03*
X126060000Y-136500000D03*
X126060000Y-135100000D03*
%TD*%
D18*
%TO.C,U1*%
X178490000Y-79450000D03*
X178490000Y-80400000D03*
X178490000Y-81350000D03*
X181910000Y-81350000D03*
X181910000Y-80400000D03*
X181910000Y-79450000D03*
%TD*%
D19*
%TO.C,SW10*%
X185400000Y-58000000D03*
X182400000Y-58000000D03*
D20*
X181650000Y-60125000D03*
X183150000Y-60125000D03*
X186150000Y-60125000D03*
D21*
X180100000Y-59150000D03*
X180100000Y-56850000D03*
X187700000Y-56850000D03*
X187710000Y-59150000D03*
%TD*%
D22*
%TO.C,SW9*%
X198777596Y-62536439D03*
X200863561Y-64622404D03*
X202649006Y-66407848D03*
X196992152Y-60750994D03*
D23*
X199962000Y-59195359D03*
D24*
X208164439Y-62872314D03*
X205265301Y-65771452D03*
D23*
X204204641Y-63438000D03*
D25*
X208665301Y-58134699D03*
D24*
X200527686Y-55235561D03*
X197628548Y-58134699D03*
D26*
X205265301Y-54734699D03*
%TD*%
D27*
%TO.C,RN1*%
X144900000Y-144900000D03*
D28*
X144900000Y-144100000D03*
X144900000Y-143300000D03*
D27*
X144900000Y-142500000D03*
X143100000Y-142500000D03*
D28*
X143100000Y-143300000D03*
X143100000Y-144100000D03*
D27*
X143100000Y-144900000D03*
%TD*%
D29*
%TO.C,R12*%
X179325000Y-90200000D03*
X177500000Y-90200000D03*
%TD*%
D30*
%TO.C,R11*%
X159187500Y-119800000D03*
X161012500Y-119800000D03*
%TD*%
D29*
%TO.C,R10*%
X107312500Y-139700000D03*
X105487500Y-139700000D03*
%TD*%
D30*
%TO.C,R9*%
X86375000Y-104200000D03*
X88200000Y-104200000D03*
%TD*%
%TO.C,R8*%
X86375000Y-100800000D03*
X88200000Y-100800000D03*
%TD*%
D29*
%TO.C,R7*%
X92800000Y-100800000D03*
X90975000Y-100800000D03*
%TD*%
D30*
%TO.C,R6*%
X90975000Y-94200000D03*
X92800000Y-94200000D03*
%TD*%
D29*
%TO.C,R5*%
X92800000Y-90800000D03*
X90975000Y-90800000D03*
%TD*%
D30*
%TO.C,R4*%
X168175000Y-75400000D03*
X170000000Y-75400000D03*
%TD*%
%TO.C,R3*%
X86375000Y-97600000D03*
X88200000Y-97600000D03*
%TD*%
%TO.C,R2*%
X86375000Y-94200000D03*
X88200000Y-94200000D03*
%TD*%
%TO.C,R1*%
X88200000Y-90800000D03*
X86375000Y-90800000D03*
%TD*%
D31*
%TO.C,Q2*%
X90462500Y-104050000D03*
X90462500Y-105950000D03*
X92337500Y-105000000D03*
%TD*%
%TO.C,Q1*%
X168262500Y-69650000D03*
X168262500Y-71550000D03*
X170137500Y-70600000D03*
%TD*%
D32*
%TO.C,J14*%
X179375000Y-72325000D03*
D33*
X179375000Y-69785000D03*
X179375000Y-67245000D03*
%TD*%
D34*
%TO.C,J13*%
X84475000Y-71210000D03*
D33*
X84475000Y-73750000D03*
X87015000Y-71210000D03*
X87015000Y-73750000D03*
X89555000Y-71210000D03*
X89555000Y-73750000D03*
%TD*%
D35*
%TO.C,J12*%
X88200000Y-115200000D03*
%TD*%
%TO.C,J11*%
X200800000Y-115200000D03*
%TD*%
%TO.C,J10*%
X200900000Y-73900000D03*
%TD*%
%TO.C,J9*%
X88100000Y-83600000D03*
%TD*%
D36*
%TO.C,J8*%
X79200000Y-85120000D03*
D33*
X79200000Y-87660000D03*
X79200000Y-90200000D03*
X79200000Y-92740000D03*
%TD*%
D36*
%TO.C,J3*%
X169000000Y-82960000D03*
D33*
X169000000Y-85500000D03*
X169000000Y-88040000D03*
%TD*%
D37*
%TO.C,J2*%
X135290000Y-148612500D03*
X129510000Y-148612500D03*
D38*
X129075000Y-147412500D03*
X129875000Y-147412500D03*
X131150000Y-147412500D03*
X132150000Y-147412500D03*
X132650000Y-147412500D03*
X130650000Y-147412500D03*
X134925000Y-147412500D03*
X135725000Y-147412500D03*
X135475000Y-147412500D03*
X134675000Y-147412500D03*
X134150000Y-147412500D03*
X133150000Y-147412500D03*
X131650000Y-147412500D03*
X133650000Y-147412500D03*
X130125000Y-147412500D03*
X129325000Y-147412500D03*
D39*
X136720000Y-148112500D03*
D40*
X128080000Y-152262500D03*
D39*
X128080000Y-148112500D03*
D40*
X136720000Y-152262500D03*
%TD*%
D41*
%TO.C,J1*%
X126150000Y-96050000D03*
X126150000Y-95550000D03*
X126150000Y-95050000D03*
X126150000Y-94550000D03*
X126150000Y-94050000D03*
X126150000Y-93550000D03*
X126150000Y-93050000D03*
X126150000Y-92550000D03*
X126150000Y-92050000D03*
X126150000Y-91550000D03*
X126150000Y-91050000D03*
X126150000Y-90550000D03*
X126150000Y-90050000D03*
X126150000Y-89550000D03*
X126150000Y-89050000D03*
X126150000Y-88550000D03*
X126150000Y-88050000D03*
X126150000Y-87550000D03*
X126150000Y-87050000D03*
X126150000Y-86550000D03*
X126150000Y-86050000D03*
X126150000Y-85550000D03*
X126150000Y-85050000D03*
X126150000Y-84550000D03*
X126150000Y-84050000D03*
X126150000Y-83550000D03*
X126150000Y-83050000D03*
X126150000Y-82550000D03*
X126150000Y-82050000D03*
X126150000Y-81550000D03*
X126150000Y-81050000D03*
X126150000Y-80550000D03*
X126150000Y-80050000D03*
X126150000Y-79550000D03*
X126150000Y-79050000D03*
X126150000Y-78550000D03*
X126150000Y-78050000D03*
X126150000Y-77550000D03*
X126150000Y-77050000D03*
X126150000Y-76550000D03*
D42*
X123370000Y-74725000D03*
X123370000Y-97875000D03*
%TD*%
D43*
%TO.C,D3*%
X179200000Y-95700000D03*
X179200000Y-93100000D03*
X177600000Y-95700000D03*
X177600000Y-93100000D03*
%TD*%
D44*
%TO.C,D2*%
X158805000Y-125970000D03*
X161405000Y-125970000D03*
X158805000Y-124370000D03*
X161405000Y-124370000D03*
%TD*%
D45*
%TO.C,D1*%
X170850000Y-66200000D03*
X167550000Y-66200000D03*
%TD*%
D46*
%TO.C,C9*%
X107250000Y-143100000D03*
X105350000Y-143100000D03*
%TD*%
%TO.C,C8*%
X118200000Y-146800000D03*
X116300000Y-146800000D03*
%TD*%
D47*
%TO.C,C7*%
X120350000Y-146800000D03*
X122250000Y-146800000D03*
%TD*%
%TO.C,C6*%
X138000000Y-144700000D03*
X139900000Y-144700000D03*
%TD*%
D46*
%TO.C,C5*%
X126400000Y-146800000D03*
X124500000Y-146800000D03*
%TD*%
%TO.C,C4*%
X174900000Y-79800000D03*
X173000000Y-79800000D03*
%TD*%
D47*
%TO.C,C3*%
X185700000Y-79600000D03*
X187600000Y-79600000D03*
%TD*%
%TO.C,C2*%
X187600000Y-83000000D03*
X185700000Y-83000000D03*
%TD*%
%TO.C,C1*%
X90850000Y-87400000D03*
X92750000Y-87400000D03*
%TD*%
D23*
%TO.C,BT1*%
X124525000Y-59075000D03*
X138625000Y-59075000D03*
%TD*%
M02*
