M48
; DRILL file {KiCad (6.0.11)} date Fri 07 Apr 2023 02:31:06 PM CDT
; FORMAT={-:-/ absolute / inch / decimal}
; #@! TF.CreationDate,2023-04-07T14:31:06-05:00
; #@! TF.GenerationSoftware,Kicad,Pcbnew,(6.0.11)
; #@! TF.FileFunction,Plated,1,2,PTH
FMAT,2
INCH
; #@! TA.AperFunction,Plated,PTH,ViaDrill
T1C0.0157
; #@! TA.AperFunction,Plated,PTH,ComponentDrill
T2C0.0236
; #@! TA.AperFunction,Plated,PTH,ComponentDrill
T3C0.0315
; #@! TA.AperFunction,Plated,PTH,ComponentDrill
T4C0.0394
; #@! TA.AperFunction,Plated,PTH,ComponentDrill
T5C0.1661
%
G90
G05
T1
X3.189Y-3.8189
X3.2283Y-3.563
X3.3425Y-4.0236
X3.3661Y-3.7795
X3.4803Y-3.6417
X3.4843Y-3.5039
X3.4843Y-3.7795
X3.7008Y-3.3937
X3.7008Y-3.4291
X3.7008Y-3.4685
X3.7402Y-3.878
X3.7402Y-5.0984
X3.748Y-3.7047
X3.7992Y-3.5236
X3.9016Y-4.0315
X3.9016Y-4.063
X3.9173Y-4.8622
X3.9469Y-4.5374
X3.9567Y-3.6614
X4.0472Y-4.2283
X4.0551Y-5.2953
X4.1535Y-4.9724
X4.1535Y-5.5689
X4.1732Y-5.7244
X4.1929Y-5.1772
X4.1998Y-3.0069
X4.5246Y-5.7648
X4.5787Y-4.8228
X4.6142Y-4.8228
X4.6161Y-4.9016
X4.626Y-5.7185
X4.6496Y-4.8228
X4.6654Y-5.3248
X4.689Y-5.7165
X4.7244Y-4.0945
X4.7244Y-4.3307
X4.7638Y-4.1929
X4.7638Y-4.3307
X4.7638Y-5.3228
X4.7953Y-5.3228
X4.8031Y-4.1929
X4.8031Y-4.3307
X4.8228Y-4.3701
X4.8425Y-4.1929
X4.8622Y-3.1693
X4.8622Y-3.622
X4.9134Y-5.0748
X4.9213Y-4.8425
X4.9488Y-5.0748
X4.9606Y-5.9154
X4.9882Y-5.0748
X5.0Y-5.5039
X5.0276Y-5.4685
X5.0305Y-5.1142
X5.0472Y-3.1929
X5.0472Y-3.6043
X5.0551Y-4.8898
X5.0551Y-5.3228
X5.0591Y-3.0512
X5.0709Y-4.5197
X5.0719Y-3.7077
X5.1024Y-4.5197
X5.1024Y-4.8898
X5.1083Y-5.3937
X5.1181Y-3.1988
X5.1535Y-4.5236
X5.1535Y-4.8898
X5.1673Y-5.8622
X5.1693Y-5.5394
X5.1811Y-5.5787
X5.185Y-4.8543
X5.2244Y-4.8937
X5.248Y-4.6654
X5.2559Y-6.0039
X5.276Y-5.9164
X5.2785Y-4.8976
X5.3701Y-5.9134
X5.374Y-5.748
X5.4646Y-5.4252
X5.4724Y-5.7933
X5.5118Y-5.9547
X5.5906Y-4.8425
X5.7598Y-4.7874
X5.7992Y-4.7874
X5.8386Y-4.7874
X6.2697Y-4.498
X6.312Y-3.7077
X6.4016Y-5.4488
X6.6181Y-3.0512
X6.6654Y-2.8583
X6.8406Y-3.061
X6.9291Y-3.1988
X6.9449Y-3.0217
X6.9488Y-3.0709
X6.9488Y-3.1594
X7.7559Y-2.5394
T3
X4.9026Y-2.3258
X5.4577Y-2.3258
T4
X3.1181Y-3.3512
X3.1181Y-3.4512
X3.1181Y-3.5512
X3.1181Y-3.6512
X3.3258Y-2.8035
X3.3258Y-2.9035
X3.4258Y-2.8035
X3.4258Y-2.9035
X3.5258Y-2.8035
X3.5258Y-2.9035
X6.6535Y-3.2661
X6.6535Y-3.3661
X6.6535Y-3.4661
X7.062Y-2.6474
X7.062Y-2.7474
X7.062Y-2.8474
T5
X3.4685Y-3.2913
X3.4724Y-4.5354
X7.9055Y-4.5354
X7.9094Y-2.9094
T2
G00X5.0425Y-5.8095
M15
G01X5.0425Y-5.8529
M16
G05
G00X5.0425Y-5.9788
M15
G01X5.0425Y-6.0103
M16
G05
G00X5.3827Y-5.8095
M15
G01X5.3827Y-5.8529
M16
G05
G00X5.3827Y-5.9788
M15
G01X5.3827Y-6.0103
M16
G05
T0
M30
