%TF.GenerationSoftware,KiCad,Pcbnew,7.0.6*%
%TF.CreationDate,2023-08-09T23:01:59-05:00*%
%TF.ProjectId,BlueTeamCon_Main,426c7565-5465-4616-9d43-6f6e5f4d6169,rev?*%
%TF.SameCoordinates,Original*%
%TF.FileFunction,Copper,L1,Top*%
%TF.FilePolarity,Positive*%
%FSLAX46Y46*%
G04 Gerber Fmt 4.6, Leading zero omitted, Abs format (unit mm)*
G04 Created by KiCad (PCBNEW 7.0.6) date 2023-08-09 23:01:59*
%MOMM*%
%LPD*%
G01*
G04 APERTURE LIST*
G04 Aperture macros list*
%AMRoundRect*
0 Rectangle with rounded corners*
0 $1 Rounding radius*
0 $2 $3 $4 $5 $6 $7 $8 $9 X,Y pos of 4 corners*
0 Add a 4 corners polygon primitive as box body*
4,1,4,$2,$3,$4,$5,$6,$7,$8,$9,$2,$3,0*
0 Add four circle primitives for the rounded corners*
1,1,$1+$1,$2,$3*
1,1,$1+$1,$4,$5*
1,1,$1+$1,$6,$7*
1,1,$1+$1,$8,$9*
0 Add four rect primitives between the rounded corners*
20,1,$1+$1,$2,$3,$4,$5,0*
20,1,$1+$1,$4,$5,$6,$7,0*
20,1,$1+$1,$6,$7,$8,$9,0*
20,1,$1+$1,$8,$9,$2,$3,0*%
%AMHorizOval*
0 Thick line with rounded ends*
0 $1 width*
0 $2 $3 position (X,Y) of the first rounded end (center of the circle)*
0 $4 $5 position (X,Y) of the second rounded end (center of the circle)*
0 Add line between two ends*
20,1,$1,$2,$3,$4,$5,0*
0 Add two circle primitives to create the rounded ends*
1,1,$1,$2,$3*
1,1,$1,$4,$5*%
%AMRotRect*
0 Rectangle, with rotation*
0 The origin of the aperture is its center*
0 $1 length*
0 $2 width*
0 $3 Rotation angle, in degrees counterclockwise*
0 Add horizontal line*
21,1,$1,$2,0,0,$3*%
G04 Aperture macros list end*
%TA.AperFunction,EtchedComponent*%
%ADD10C,0.200000*%
%TD*%
%TA.AperFunction,SMDPad,CuDef*%
%ADD11C,5.000000*%
%TD*%
%TA.AperFunction,SMDPad,CuDef*%
%ADD12RotRect,0.900000X1.250000X315.000000*%
%TD*%
%TA.AperFunction,SMDPad,CuDef*%
%ADD13RotRect,0.800000X0.900000X315.000000*%
%TD*%
%TA.AperFunction,SMDPad,CuDef*%
%ADD14R,0.500000X0.800000*%
%TD*%
%TA.AperFunction,SMDPad,CuDef*%
%ADD15R,0.400000X0.800000*%
%TD*%
%TA.AperFunction,SMDPad,CuDef*%
%ADD16RoundRect,0.250000X-0.250000X-0.475000X0.250000X-0.475000X0.250000X0.475000X-0.250000X0.475000X0*%
%TD*%
%TA.AperFunction,ComponentPad*%
%ADD17C,6.200000*%
%TD*%
%TA.AperFunction,SMDPad,CuDef*%
%ADD18RoundRect,0.250000X-0.262500X-0.450000X0.262500X-0.450000X0.262500X0.450000X-0.262500X0.450000X0*%
%TD*%
%TA.AperFunction,SMDPad,CuDef*%
%ADD19R,0.700000X1.100000*%
%TD*%
%TA.AperFunction,SMDPad,CuDef*%
%ADD20RoundRect,0.218750X-0.218750X-0.381250X0.218750X-0.381250X0.218750X0.381250X-0.218750X0.381250X0*%
%TD*%
%TA.AperFunction,SMDPad,CuDef*%
%ADD21R,2.000000X1.000000*%
%TD*%
%TA.AperFunction,SMDPad,CuDef*%
%ADD22R,1.100000X0.900000*%
%TD*%
%TA.AperFunction,SMDPad,CuDef*%
%ADD23R,1.000000X1.000000*%
%TD*%
%TA.AperFunction,SMDPad,CuDef*%
%ADD24RoundRect,0.150000X-0.587500X-0.150000X0.587500X-0.150000X0.587500X0.150000X-0.587500X0.150000X0*%
%TD*%
%TA.AperFunction,SMDPad,CuDef*%
%ADD25R,0.800000X0.500000*%
%TD*%
%TA.AperFunction,SMDPad,CuDef*%
%ADD26R,0.800000X0.400000*%
%TD*%
%TA.AperFunction,ComponentPad*%
%ADD27R,1.700000X1.700000*%
%TD*%
%TA.AperFunction,ComponentPad*%
%ADD28O,1.700000X1.700000*%
%TD*%
%TA.AperFunction,ComponentPad*%
%ADD29RotRect,1.700000X1.700000X45.000000*%
%TD*%
%TA.AperFunction,ComponentPad*%
%ADD30HorizOval,1.700000X0.000000X0.000000X0.000000X0.000000X0*%
%TD*%
%TA.AperFunction,SMDPad,CuDef*%
%ADD31R,1.800000X1.100000*%
%TD*%
%TA.AperFunction,SMDPad,CuDef*%
%ADD32R,1.400000X0.250000*%
%TD*%
%TA.AperFunction,ComponentPad*%
%ADD33O,2.100000X1.000000*%
%TD*%
%TA.AperFunction,ComponentPad*%
%ADD34O,1.800000X1.000000*%
%TD*%
%TA.AperFunction,SMDPad,CuDef*%
%ADD35R,1.600000X3.000000*%
%TD*%
%TA.AperFunction,SMDPad,CuDef*%
%ADD36R,0.900000X1.500000*%
%TD*%
%TA.AperFunction,SMDPad,CuDef*%
%ADD37R,1.500000X0.900000*%
%TD*%
%TA.AperFunction,SMDPad,CuDef*%
%ADD38R,1.100000X1.100000*%
%TD*%
%TA.AperFunction,SMDPad,CuDef*%
%ADD39RoundRect,0.250000X0.250000X0.475000X-0.250000X0.475000X-0.250000X-0.475000X0.250000X-0.475000X0*%
%TD*%
%TA.AperFunction,ComponentPad*%
%ADD40C,1.800000*%
%TD*%
%TA.AperFunction,ViaPad*%
%ADD41C,0.600000*%
%TD*%
%TA.AperFunction,Conductor*%
%ADD42C,0.250000*%
%TD*%
%TA.AperFunction,Conductor*%
%ADD43C,0.200000*%
%TD*%
G04 APERTURE END LIST*
D10*
%TO.C,SW3*%
X175500000Y-91600000D02*
X175500000Y-88600000D01*
X175500000Y-91600000D02*
X175600000Y-91850000D01*
X176000000Y-87850000D02*
X176000000Y-87650000D01*
X176000000Y-87850000D02*
X176000000Y-91100000D01*
X176500000Y-91350000D02*
X176500000Y-88600000D01*
X177000000Y-88350000D02*
X177000000Y-91100000D01*
X177500000Y-91350000D02*
X177500000Y-88600000D01*
X178000000Y-87850000D02*
X178000000Y-87650000D01*
X178000000Y-87850000D02*
X178000000Y-91100000D01*
X178500000Y-91600000D02*
X178400000Y-91850000D01*
X178500000Y-91600000D02*
X178500000Y-88600000D01*
X179250000Y-89600000D02*
G75*
G03*
X174750000Y-89600000I-2250000J0D01*
G01*
X174750000Y-90100000D02*
G75*
G03*
X179250000Y-90100000I2250000J0D01*
G01*
%TO.C,SW4*%
X175400000Y-106350000D02*
X175400000Y-103350000D01*
X175400000Y-106350000D02*
X175500000Y-106600000D01*
X175900000Y-102600000D02*
X175900000Y-102400000D01*
X175900000Y-102600000D02*
X175900000Y-105850000D01*
X176400000Y-106100000D02*
X176400000Y-103350000D01*
X176900000Y-103100000D02*
X176900000Y-105850000D01*
X177400000Y-106100000D02*
X177400000Y-103350000D01*
X177900000Y-102600000D02*
X177900000Y-102400000D01*
X177900000Y-102600000D02*
X177900000Y-105850000D01*
X178400000Y-106350000D02*
X178300000Y-106600000D01*
X178400000Y-106350000D02*
X178400000Y-103350000D01*
X179150000Y-104350000D02*
G75*
G03*
X174650000Y-104350000I-2250000J0D01*
G01*
X174650000Y-104850000D02*
G75*
G03*
X179150000Y-104850000I2250000J0D01*
G01*
%TD*%
D11*
%TO.P,J8,1,Pin_1*%
%TO.N,Net-(IC1-IO4)*%
X193100000Y-91725000D03*
%TD*%
D12*
%TO.P,SW2,1,A*%
%TO.N,VDD*%
X179806408Y-77311612D03*
%TO.P,SW2,2,B*%
%TO.N,PwrTest*%
X180867068Y-78372272D03*
%TO.P,SW2,3,C*%
%TO.N,unconnected-(SW2-C-Pad3)*%
X182988388Y-80493592D03*
D13*
%TO.P,SW2,4*%
%TO.N,N/C*%
X181026167Y-73899821D03*
X179399821Y-75526167D03*
X186400179Y-79273833D03*
X184780904Y-80907250D03*
%TD*%
D14*
%TO.P,RN2,1,R1.1*%
%TO.N,Net-(D4-A)*%
X132000000Y-81800000D03*
D15*
%TO.P,RN2,2,R2.1*%
%TO.N,Net-(D3-A)*%
X131200000Y-81800000D03*
%TO.P,RN2,3,R3.1*%
%TO.N,Net-(D2-A)*%
X130400000Y-81800000D03*
D14*
%TO.P,RN2,4,R4.1*%
%TO.N,Net-(D1-A)*%
X129600000Y-81800000D03*
%TO.P,RN2,5,R4.2*%
%TO.N,VCC*%
X129600000Y-83600000D03*
D15*
%TO.P,RN2,6,R3.2*%
X130400000Y-83600000D03*
%TO.P,RN2,7,R2.2*%
X131200000Y-83600000D03*
D14*
%TO.P,RN2,8,R1.2*%
X132000000Y-83600000D03*
%TD*%
D16*
%TO.P,C7,1*%
%TO.N,Reset*%
X125900000Y-118400000D03*
%TO.P,C7,2*%
%TO.N,VSS*%
X127800000Y-118400000D03*
%TD*%
D14*
%TO.P,RN1,1,R1.1*%
%TO.N,unconnected-(RN1-R1.1-Pad1)*%
X99500000Y-96250000D03*
D15*
%TO.P,RN1,2,R2.1*%
%TO.N,unconnected-(RN1-R2.1-Pad2)*%
X98700000Y-96250000D03*
%TO.P,RN1,3,R3.1*%
%TO.N,VSS*%
X97900000Y-96250000D03*
D14*
%TO.P,RN1,4,R4.1*%
X97100000Y-96250000D03*
%TO.P,RN1,5,R4.2*%
%TO.N,Net-(J6-CC2)*%
X97100000Y-98050000D03*
D15*
%TO.P,RN1,6,R3.2*%
%TO.N,Net-(J6-CC1)*%
X97900000Y-98050000D03*
%TO.P,RN1,7,R2.2*%
%TO.N,unconnected-(RN1-R2.2-Pad7)*%
X98700000Y-98050000D03*
D14*
%TO.P,RN1,8,R1.2*%
%TO.N,unconnected-(RN1-R1.2-Pad8)*%
X99500000Y-98050000D03*
%TD*%
D17*
%TO.P,J2,1,Pin_1*%
%TO.N,unconnected-(J2-Pin_1-Pad1)*%
X101600001Y-88200000D03*
%TD*%
D18*
%TO.P,R1,1*%
%TO.N,Reset*%
X125875000Y-115000000D03*
%TO.P,R1,2*%
%TO.N,VCC*%
X127700000Y-115000000D03*
%TD*%
D19*
%TO.P,D1,1,RK*%
%TO.N,R1*%
X122300000Y-76500000D03*
%TO.P,D1,2,GK*%
%TO.N,G1*%
X124900000Y-76500000D03*
%TO.P,D1,3,A*%
%TO.N,Net-(D1-A)*%
X122300000Y-78100000D03*
%TO.P,D1,4,BK*%
%TO.N,B1*%
X124900000Y-78100000D03*
%TD*%
%TO.P,D2,1,RK*%
%TO.N,R2*%
X137600000Y-76600000D03*
%TO.P,D2,2,GK*%
%TO.N,G2*%
X140200000Y-76600000D03*
%TO.P,D2,3,A*%
%TO.N,Net-(D2-A)*%
X137600000Y-78200000D03*
%TO.P,D2,4,BK*%
%TO.N,B2*%
X140200000Y-78200000D03*
%TD*%
D20*
%TO.P,L1,1*%
%TO.N,PwrTest*%
X137637500Y-88300000D03*
%TO.P,L1,2*%
%TO.N,Net-(U1-LX)*%
X139762500Y-88300000D03*
%TD*%
D19*
%TO.P,D3,1,RK*%
%TO.N,R3*%
X153000000Y-76600000D03*
%TO.P,D3,2,GK*%
%TO.N,G3*%
X155600000Y-76600000D03*
%TO.P,D3,3,A*%
%TO.N,Net-(D3-A)*%
X153000000Y-78200000D03*
%TO.P,D3,4,BK*%
%TO.N,B3*%
X155600000Y-78200000D03*
%TD*%
D21*
%TO.P,SW3,*%
%TO.N,*%
X177000000Y-87850000D03*
X177000000Y-91850000D03*
D22*
%TO.P,SW3,1,1*%
%TO.N,A_Btn*%
X174150000Y-88000000D03*
D23*
X177000000Y-86950000D03*
D22*
X179850000Y-88000000D03*
%TO.P,SW3,2,2*%
%TO.N,Net-(RN3-R4.1)*%
X174150000Y-91700000D03*
D23*
X177000000Y-92850000D03*
D22*
X179850000Y-91700000D03*
%TD*%
D16*
%TO.P,C5,1*%
%TO.N,VCC*%
X125600000Y-90000000D03*
%TO.P,C5,2*%
%TO.N,VSS*%
X127500000Y-90000000D03*
%TD*%
D17*
%TO.P,J1,1,Pin_1*%
%TO.N,unconnected-(J1-Pin_1-Pad1)*%
X191600000Y-88175000D03*
%TD*%
D24*
%TO.P,U1,1,VSS*%
%TO.N,VSS*%
X143225000Y-87750000D03*
%TO.P,U1,2,LX*%
%TO.N,Net-(U1-LX)*%
X143225000Y-89650000D03*
%TO.P,U1,3,VOUT*%
%TO.N,VCC*%
X145100000Y-88700000D03*
%TD*%
D19*
%TO.P,D4,1,RK*%
%TO.N,R4*%
X168300000Y-76500000D03*
%TO.P,D4,2,GK*%
%TO.N,G4*%
X170900000Y-76500000D03*
%TO.P,D4,3,A*%
%TO.N,Net-(D4-A)*%
X168300000Y-78100000D03*
%TO.P,D4,4,BK*%
%TO.N,B4*%
X170900000Y-78100000D03*
%TD*%
D25*
%TO.P,RN3,1,R1.1*%
%TO.N,unconnected-(RN3-R1.1-Pad1)*%
X168500000Y-90200000D03*
D26*
%TO.P,RN3,2,R2.1*%
%TO.N,unconnected-(RN3-R2.1-Pad2)*%
X168500000Y-89400000D03*
%TO.P,RN3,3,R3.1*%
%TO.N,Net-(RN3-R3.1)*%
X168500000Y-88600000D03*
D25*
%TO.P,RN3,4,R4.1*%
%TO.N,Net-(RN3-R4.1)*%
X168500000Y-87800000D03*
%TO.P,RN3,5,R4.2*%
%TO.N,VCC*%
X166700000Y-87800000D03*
D26*
%TO.P,RN3,6,R3.2*%
X166700000Y-88600000D03*
%TO.P,RN3,7,R2.2*%
X166700000Y-89400000D03*
D25*
%TO.P,RN3,8,R1.2*%
X166700000Y-90200000D03*
%TD*%
D16*
%TO.P,C4,1*%
%TO.N,VCC*%
X148500000Y-90300000D03*
%TO.P,C4,2*%
%TO.N,VSS*%
X150400000Y-90300000D03*
%TD*%
D17*
%TO.P,J3,1,Pin_1*%
%TO.N,unconnected-(J3-Pin_1-Pad1)*%
X146600000Y-137375000D03*
%TD*%
D27*
%TO.P,J4,1,Pin_1*%
%TO.N,VSS*%
X143400000Y-96200000D03*
D28*
%TO.P,J4,2,Pin_2*%
%TO.N,VCC*%
X145940000Y-96200000D03*
%TO.P,J4,3,Pin_3*%
%TO.N,SCK*%
X148480000Y-96200000D03*
%TO.P,J4,4,Pin_4*%
%TO.N,SDA*%
X151020000Y-96200000D03*
%TD*%
D16*
%TO.P,C3,1*%
%TO.N,PwrTest*%
X148500000Y-86900000D03*
%TO.P,C3,2*%
%TO.N,VSS*%
X150400000Y-86900000D03*
%TD*%
D29*
%TO.P,J5,1,Pin_1*%
%TO.N,VCC*%
X120411433Y-117211433D03*
D30*
%TO.P,J5,2,Pin_2*%
%TO.N,TX*%
X122207484Y-119007484D03*
%TO.P,J5,3,Pin_3*%
%TO.N,RX*%
X124003535Y-120803535D03*
%TO.P,J5,4,Pin_4*%
%TO.N,VSS*%
X125799587Y-122599587D03*
%TO.P,J5,5,Pin_5*%
%TO.N,Reset*%
X127595638Y-124395638D03*
%TD*%
D31*
%TO.P,SW1,1,1*%
%TO.N,Boot*%
X108700000Y-82100000D03*
X114900000Y-82100000D03*
%TO.P,SW1,2,2*%
%TO.N,VSS*%
X108700000Y-85800000D03*
X114900000Y-85800000D03*
%TD*%
D32*
%TO.P,J6,A1,GND*%
%TO.N,VSS*%
X100187500Y-102875000D03*
%TO.P,J6,A4,VBUS*%
%TO.N,+5V*%
X100187500Y-103675000D03*
%TO.P,J6,A5,CC1*%
%TO.N,Net-(J6-CC1)*%
X100187500Y-104950000D03*
%TO.P,J6,A6,D+*%
%TO.N,/D+*%
X100187500Y-105950000D03*
%TO.P,J6,A7,D-*%
%TO.N,/D-*%
X100187500Y-106450000D03*
%TO.P,J6,A8,SBU1*%
%TO.N,unconnected-(J6-SBU1-PadA8)*%
X100187500Y-104450000D03*
%TO.P,J6,A9,VBUS*%
%TO.N,+5V*%
X100187500Y-108725000D03*
%TO.P,J6,A12,GND*%
%TO.N,VSS*%
X100187500Y-109525000D03*
%TO.P,J6,B1,GND*%
X100187500Y-109275000D03*
%TO.P,J6,B4,VBUS*%
%TO.N,+5V*%
X100187500Y-108475000D03*
%TO.P,J6,B5,CC2*%
%TO.N,Net-(J6-CC2)*%
X100187500Y-107950000D03*
%TO.P,J6,B6,D+*%
%TO.N,/D+*%
X100187500Y-106950000D03*
%TO.P,J6,B7,D-*%
%TO.N,/D-*%
X100187500Y-105450000D03*
%TO.P,J6,B8,SBU2*%
%TO.N,unconnected-(J6-SBU2-PadB8)*%
X100187500Y-107450000D03*
%TO.P,J6,B9,VBUS*%
%TO.N,+5V*%
X100187500Y-103925000D03*
%TO.P,J6,B12,GND*%
%TO.N,VSS*%
X100187500Y-103125000D03*
D33*
%TO.P,J6,S1,SHIELD*%
X99487500Y-101880000D03*
D34*
X95337500Y-101880000D03*
D33*
X99487500Y-110520000D03*
D34*
X95337500Y-110520000D03*
%TD*%
D21*
%TO.P,SW4,*%
%TO.N,*%
X176900000Y-102600000D03*
X176900000Y-106600000D03*
D22*
%TO.P,SW4,1,1*%
%TO.N,B*%
X174050000Y-102750000D03*
D23*
X176900000Y-101700000D03*
D22*
X179750000Y-102750000D03*
%TO.P,SW4,2,2*%
%TO.N,Net-(RN3-R3.1)*%
X174050000Y-106450000D03*
D23*
X176900000Y-107600000D03*
D22*
X179750000Y-106450000D03*
%TD*%
D35*
%TO.P,BZ1,1,-*%
%TO.N,Buzzer*%
X193200000Y-103300000D03*
%TO.P,BZ1,2,+*%
%TO.N,VSS*%
X193200000Y-111300000D03*
%TD*%
D36*
%TO.P,IC1,1,GND_1*%
%TO.N,VSS*%
X127700000Y-94300000D03*
%TO.P,IC1,2,3V3*%
%TO.N,VCC*%
X126200000Y-94300000D03*
%TO.P,IC1,3,IO0*%
%TO.N,Boot*%
X124700000Y-94300000D03*
%TO.P,IC1,4,IO1*%
%TO.N,BL*%
X123200000Y-94300000D03*
%TO.P,IC1,5,IO2*%
%TO.N,/SK6812*%
X121700000Y-94300000D03*
%TO.P,IC1,6,IO3*%
%TO.N,Net-(IC1-IO3)*%
X120200000Y-94300000D03*
%TO.P,IC1,7,IO4*%
%TO.N,Net-(IC1-IO4)*%
X118700000Y-94300000D03*
%TO.P,IC1,8,IO5*%
%TO.N,unconnected-(IC1-IO5-Pad8)*%
X117200000Y-94300000D03*
%TO.P,IC1,9,IO6*%
%TO.N,unconnected-(IC1-IO6-Pad9)*%
X115700000Y-94300000D03*
%TO.P,IC1,10,IO7*%
%TO.N,B4*%
X114200000Y-94300000D03*
%TO.P,IC1,11,IO8*%
%TO.N,G4*%
X112700000Y-94300000D03*
%TO.P,IC1,12,IO9*%
%TO.N,R4*%
X111200000Y-94300000D03*
%TO.P,IC1,13,IO10*%
%TO.N,B3*%
X109700000Y-94300000D03*
%TO.P,IC1,14,IO11*%
%TO.N,G3*%
X108200000Y-94300000D03*
%TO.P,IC1,15,IO12*%
%TO.N,R3*%
X106700000Y-94300000D03*
%TO.P,IC1,16,IO13*%
%TO.N,A_Btn*%
X105200000Y-94300000D03*
D37*
%TO.P,IC1,17,IO14*%
%TO.N,B*%
X104450000Y-96300000D03*
%TO.P,IC1,18,IO15*%
%TO.N,SDA*%
X104450000Y-97800000D03*
%TO.P,IC1,19,IO16*%
%TO.N,SCK*%
X104450000Y-99300000D03*
%TO.P,IC1,20,IO17*%
%TO.N,unconnected-(IC1-IO17-Pad20)*%
X104450000Y-100800000D03*
%TO.P,IC1,21,IO18*%
%TO.N,unconnected-(IC1-IO18-Pad21)*%
X104450000Y-102300000D03*
%TO.P,IC1,22,IO19*%
%TO.N,unconnected-(IC1-IO19-Pad22)*%
X104450000Y-103800000D03*
%TO.P,IC1,23,IO20*%
%TO.N,/D+*%
X104450000Y-105300000D03*
%TO.P,IC1,24,IO21*%
%TO.N,/D-*%
X104450000Y-106800000D03*
%TO.P,IC1,25,IO26*%
%TO.N,Buzzer*%
X104450000Y-108300000D03*
%TO.P,IC1,26,GND_2*%
%TO.N,VSS*%
X104450000Y-109800000D03*
D36*
%TO.P,IC1,27,IO33*%
%TO.N,B1*%
X105200000Y-111800000D03*
%TO.P,IC1,28,IO34*%
%TO.N,R1*%
X106700000Y-111800000D03*
%TO.P,IC1,29,IO35*%
%TO.N,G1*%
X108200000Y-111800000D03*
%TO.P,IC1,30,IO36*%
%TO.N,G2*%
X109700000Y-111800000D03*
%TO.P,IC1,31,IO37*%
%TO.N,B2*%
X111200000Y-111800000D03*
%TO.P,IC1,32,IO38*%
%TO.N,R2*%
X112700000Y-111800000D03*
%TO.P,IC1,33,IO39*%
%TO.N,unconnected-(IC1-IO39-Pad33)*%
X114200000Y-111800000D03*
%TO.P,IC1,34,IO40*%
%TO.N,unconnected-(IC1-IO40-Pad34)*%
X115700000Y-111800000D03*
%TO.P,IC1,35,IO41*%
%TO.N,unconnected-(IC1-IO41-Pad35)*%
X117200000Y-111800000D03*
%TO.P,IC1,36,IO42*%
%TO.N,unconnected-(IC1-IO42-Pad36)*%
X118700000Y-111800000D03*
%TO.P,IC1,37,TXD0*%
%TO.N,TX*%
X120200000Y-111800000D03*
%TO.P,IC1,38,RXD0*%
%TO.N,RX*%
X121700000Y-111800000D03*
%TO.P,IC1,39,IO45*%
%TO.N,unconnected-(IC1-IO45-Pad39)*%
X123200000Y-111800000D03*
%TO.P,IC1,40,IO46*%
%TO.N,unconnected-(IC1-IO46-Pad40)*%
X124700000Y-111800000D03*
%TO.P,IC1,41,EN*%
%TO.N,Reset*%
X126200000Y-111800000D03*
%TO.P,IC1,42,GND_3*%
%TO.N,VSS*%
X127700000Y-111800000D03*
D38*
%TO.P,IC1,43,GND_4*%
X119650000Y-101860000D03*
%TO.P,IC1,44,GND_5*%
X119650000Y-100360000D03*
%TO.P,IC1,45,GND_6*%
X118150000Y-100360000D03*
%TO.P,IC1,46,GND_7*%
X118150000Y-101860000D03*
%TO.P,IC1,47,GND_8*%
X118150000Y-103360000D03*
%TO.P,IC1,48,GND_9*%
X119650000Y-103360000D03*
%TO.P,IC1,49,GND_10*%
X121150000Y-103360000D03*
%TO.P,IC1,50,GND_11*%
X121150000Y-101860000D03*
%TO.P,IC1,51,GND_12*%
X121150000Y-100360000D03*
%TD*%
D11*
%TO.P,J7,1,Pin_1*%
%TO.N,Net-(IC1-IO3)*%
X98800000Y-91200000D03*
%TD*%
D39*
%TO.P,C6,1*%
%TO.N,VCC*%
X123200000Y-90000000D03*
%TO.P,C6,2*%
%TO.N,VSS*%
X121300000Y-90000000D03*
%TD*%
D40*
%TO.P,BT1,1,+*%
%TO.N,VDD*%
X139525000Y-71875000D03*
%TO.P,BT1,2,-*%
%TO.N,VSS*%
X153625000Y-71875000D03*
%TD*%
D41*
%TO.N,VSS*%
X124000000Y-102750000D03*
X120000000Y-88500000D03*
X130000000Y-119500000D03*
X107750000Y-88500000D03*
X126750000Y-88750000D03*
X153250000Y-91250000D03*
X124750000Y-109000000D03*
X119250000Y-83000000D03*
X118250000Y-114500000D03*
X117000000Y-90750000D03*
X111000000Y-100750000D03*
X126500000Y-83000000D03*
X118500000Y-106000000D03*
X130000000Y-114500000D03*
X153000000Y-87250000D03*
X146000000Y-84500000D03*
X127750000Y-121000000D03*
X146250000Y-87500000D03*
X124500000Y-114000000D03*
X120750000Y-108750000D03*
%TO.N,Buzzer*%
X131700000Y-117100000D03*
X106700000Y-108300000D03*
%TO.N,/D+*%
X98750000Y-107250000D03*
X98750000Y-105750000D03*
%TO.N,VCC*%
X128600000Y-88500000D03*
X129600000Y-84600000D03*
X126800000Y-117300000D03*
%TO.N,R1*%
X123924500Y-80700000D03*
X111400000Y-105300000D03*
%TO.N,G1*%
X126000000Y-78200000D03*
X112500000Y-105400000D03*
%TO.N,Net-(D1-A)*%
X129200000Y-80400000D03*
X126700000Y-79400000D03*
%TO.N,B1*%
X110300000Y-105200000D03*
X123800000Y-78400000D03*
%TO.N,R2*%
X137787442Y-82395736D03*
X115900000Y-105400000D03*
%TO.N,G2*%
X137700000Y-81000000D03*
X113500000Y-105400000D03*
%TO.N,B2*%
X139100000Y-81000000D03*
X114700000Y-105400000D03*
%TO.N,Net-(D3-A)*%
X150300000Y-79500000D03*
X131500000Y-80300000D03*
%TO.N,Net-(D4-A)*%
X166100000Y-80300000D03*
X132700000Y-80400000D03*
%TO.N,Boot*%
X116600000Y-83400000D03*
X121500000Y-92200000D03*
%TO.N,Net-(IC1-IO3)*%
X102300000Y-92500000D03*
X118675000Y-92425000D03*
%TO.N,Net-(IC1-IO4)*%
X146800000Y-94000000D03*
X144900000Y-93900000D03*
X172700000Y-94100000D03*
X128100000Y-96100000D03*
X165300000Y-94100000D03*
X126300000Y-97900000D03*
%TO.N,A_Btn*%
X133000000Y-115500000D03*
X107200000Y-97300000D03*
%TO.N,B*%
X106300000Y-97100000D03*
X132600000Y-116200000D03*
%TO.N,SDA*%
X124050000Y-97050000D03*
%TO.N,SCK*%
X124700000Y-97600000D03*
%TD*%
D42*
%TO.N,VDD*%
X139525000Y-71875000D02*
X141700000Y-69700000D01*
X172194796Y-69700000D02*
X179806408Y-77311612D01*
X141700000Y-69700000D02*
X172194796Y-69700000D01*
%TO.N,VSS*%
X100187500Y-102580000D02*
X99487500Y-101880000D01*
X100187500Y-109820000D02*
X99487500Y-110520000D01*
X100187500Y-103125000D02*
X100187500Y-102580000D01*
X126750000Y-88750000D02*
X126750000Y-89250000D01*
X127700000Y-111800000D02*
X127700000Y-111500000D01*
X125200000Y-109000000D02*
X124750000Y-109000000D01*
X126750000Y-89250000D02*
X127500000Y-90000000D01*
X100187500Y-109275000D02*
X100187500Y-109820000D01*
X127700000Y-111500000D02*
X125200000Y-109000000D01*
%TO.N,Buzzer*%
X133500000Y-117100000D02*
X131700000Y-117100000D01*
X173650000Y-116650000D02*
X170300000Y-116650000D01*
X193200000Y-103300000D02*
X187000000Y-103300000D01*
X106700000Y-108300000D02*
X104450000Y-108300000D01*
X187000000Y-103300000D02*
X175300000Y-115000000D01*
X175300000Y-115000000D02*
X173650000Y-116650000D01*
X170300000Y-116650000D02*
X134150000Y-116650000D01*
X134150000Y-116650000D02*
X133600000Y-117200000D01*
X133600000Y-117200000D02*
X133500000Y-117100000D01*
D43*
%TO.N,/D-*%
X99087500Y-105150000D02*
X99387500Y-105450000D01*
X104450000Y-106800000D02*
X104100000Y-106450000D01*
X98150000Y-105501471D02*
X98501471Y-105150000D01*
X98601471Y-106450000D02*
X98150000Y-105998529D01*
X98150000Y-105998529D02*
X98150000Y-105501471D01*
X104100000Y-106450000D02*
X100187500Y-106450000D01*
X100187500Y-106450000D02*
X98601471Y-106450000D01*
X99387500Y-105450000D02*
X100187500Y-105450000D01*
X98501471Y-105150000D02*
X99087500Y-105150000D01*
%TO.N,/D+*%
X98950000Y-105950000D02*
X100187500Y-105950000D01*
X103800000Y-105950000D02*
X100187500Y-105950000D01*
X104450000Y-105300000D02*
X103800000Y-105950000D01*
X98750000Y-107250000D02*
X99050000Y-106950000D01*
X99050000Y-106950000D02*
X100187500Y-106950000D01*
X98750000Y-105750000D02*
X98950000Y-105950000D01*
D42*
%TO.N,PwrTest*%
X148500000Y-86900000D02*
X147800000Y-86200000D01*
X142200000Y-86200000D02*
X141025000Y-87375000D01*
X138562500Y-87375000D02*
X137637500Y-88300000D01*
X147800000Y-86200000D02*
X142200000Y-86200000D01*
X150000000Y-85400000D02*
X148500000Y-86900000D01*
X141025000Y-87375000D02*
X138562500Y-87375000D01*
X173839340Y-85400000D02*
X150000000Y-85400000D01*
X180867068Y-78372272D02*
X173839340Y-85400000D01*
%TO.N,VCC*%
X127200000Y-97700000D02*
X126200000Y-96700000D01*
X128200000Y-88100000D02*
X126100000Y-88100000D01*
X146700000Y-90300000D02*
X145100000Y-88700000D01*
X166700000Y-90200000D02*
X166700000Y-87800000D01*
X125600000Y-90000000D02*
X123200000Y-90000000D01*
X148500000Y-90300000D02*
X149550000Y-89250000D01*
X148500000Y-90300000D02*
X146700000Y-90300000D01*
X128400000Y-88300000D02*
X128200000Y-88100000D01*
X128600000Y-88500000D02*
X128400000Y-88300000D01*
X126200000Y-90600000D02*
X125600000Y-90000000D01*
X125600000Y-90000000D02*
X125600000Y-88600000D01*
X149550000Y-89250000D02*
X166550000Y-89250000D01*
X129600000Y-83600000D02*
X132000000Y-83600000D01*
X145940000Y-92860000D02*
X148500000Y-90300000D01*
X126200000Y-96700000D02*
X126200000Y-94300000D01*
X148500000Y-90300000D02*
X130400000Y-90300000D01*
X127700000Y-115000000D02*
X128475000Y-114225000D01*
X127700000Y-116400000D02*
X127700000Y-115000000D01*
X128475000Y-110725000D02*
X127200000Y-109450000D01*
X129600000Y-84600000D02*
X129600000Y-83600000D01*
X128475000Y-114225000D02*
X128475000Y-110725000D01*
X126800000Y-117300000D02*
X127700000Y-116400000D01*
X125600000Y-88600000D02*
X125950000Y-88250000D01*
X127200000Y-109450000D02*
X127200000Y-97700000D01*
X166550000Y-89250000D02*
X166700000Y-89400000D01*
X126100000Y-88100000D02*
X125950000Y-88250000D01*
X126200000Y-94300000D02*
X126200000Y-90600000D01*
X130400000Y-90300000D02*
X128400000Y-88300000D01*
X145940000Y-96200000D02*
X145940000Y-92860000D01*
%TO.N,Reset*%
X125900000Y-118400000D02*
X125900000Y-115025000D01*
X125875000Y-115000000D02*
X126200000Y-114675000D01*
X127595638Y-124395638D02*
X127125000Y-123925000D01*
X126200000Y-114675000D02*
X126200000Y-111800000D01*
X127125000Y-119625000D02*
X125900000Y-118400000D01*
X125900000Y-115025000D02*
X125875000Y-115000000D01*
X127125000Y-123925000D02*
X127125000Y-119625000D01*
%TO.N,R1*%
X106700000Y-111800000D02*
X106700000Y-111100000D01*
X121000000Y-79600000D02*
X121000000Y-77000000D01*
X106700000Y-111100000D02*
X111400000Y-106400000D01*
X121000000Y-77000000D02*
X121500000Y-76500000D01*
X122100000Y-80700000D02*
X121000000Y-79600000D01*
X111400000Y-106400000D02*
X111400000Y-105300000D01*
X121500000Y-76500000D02*
X122300000Y-76500000D01*
X123924500Y-80700000D02*
X122100000Y-80700000D01*
%TO.N,G1*%
X112500000Y-105400000D02*
X112500000Y-106600000D01*
X124900000Y-76500000D02*
X126000000Y-77600000D01*
X126000000Y-77600000D02*
X126000000Y-78200000D01*
X108200000Y-110900000D02*
X108200000Y-111800000D01*
X112500000Y-106600000D02*
X108200000Y-110900000D01*
%TO.N,Net-(D1-A)*%
X129200000Y-80400000D02*
X129600000Y-80800000D01*
X123600000Y-79400000D02*
X122300000Y-78100000D01*
X129600000Y-80800000D02*
X129600000Y-81800000D01*
X126700000Y-79400000D02*
X123600000Y-79400000D01*
%TO.N,B1*%
X105200000Y-111500000D02*
X110300000Y-106400000D01*
X110300000Y-106400000D02*
X110300000Y-105200000D01*
X124600000Y-78400000D02*
X124900000Y-78100000D01*
X123800000Y-78400000D02*
X124600000Y-78400000D01*
X105200000Y-111800000D02*
X105200000Y-111500000D01*
%TO.N,R2*%
X138600000Y-78700000D02*
X138600000Y-77600000D01*
X137787442Y-82395736D02*
X137516706Y-82125000D01*
X115800000Y-108100000D02*
X115900000Y-108000000D01*
X136941116Y-82125000D02*
X136575000Y-81758884D01*
X136575000Y-81758884D02*
X136575000Y-80725000D01*
X115900000Y-108000000D02*
X115900000Y-105400000D01*
X137516706Y-82125000D02*
X136941116Y-82125000D01*
X136575000Y-80725000D02*
X138600000Y-78700000D01*
X112700000Y-111800000D02*
X112700000Y-111200000D01*
X112700000Y-111200000D02*
X115800000Y-108100000D01*
X138600000Y-77600000D02*
X137600000Y-76600000D01*
%TO.N,G2*%
X139300000Y-77500000D02*
X140200000Y-76600000D01*
X109700000Y-111800000D02*
X109700000Y-111500000D01*
X137700000Y-81000000D02*
X139300000Y-79400000D01*
X109700000Y-111500000D02*
X113500000Y-107700000D01*
X113500000Y-107700000D02*
X113500000Y-105400000D01*
X139300000Y-79400000D02*
X139300000Y-77500000D01*
%TO.N,Net-(D2-A)*%
X132600000Y-78200000D02*
X130400000Y-80400000D01*
X130400000Y-80400000D02*
X130400000Y-81800000D01*
X137600000Y-78200000D02*
X132600000Y-78200000D01*
%TO.N,B2*%
X114700000Y-108000000D02*
X114700000Y-105400000D01*
X139100000Y-81000000D02*
X140200000Y-79900000D01*
X140200000Y-79900000D02*
X140200000Y-78200000D01*
X111200000Y-111500000D02*
X114700000Y-108000000D01*
X111200000Y-111800000D02*
X111200000Y-111500000D01*
%TO.N,R3*%
X132875000Y-85225000D02*
X134400000Y-83700000D01*
X116200000Y-87300000D02*
X118275000Y-85225000D01*
X134400000Y-83700000D02*
X138600000Y-83700000D01*
X106700000Y-94000000D02*
X113400000Y-87300000D01*
X106700000Y-94300000D02*
X106700000Y-94000000D01*
X145700000Y-76600000D02*
X153000000Y-76600000D01*
X113400000Y-87300000D02*
X116200000Y-87300000D01*
X118275000Y-85225000D02*
X132875000Y-85225000D01*
X138600000Y-83700000D02*
X145700000Y-76600000D01*
%TO.N,G3*%
X138800000Y-84200000D02*
X142700000Y-80300000D01*
X133036396Y-85700000D02*
X134536396Y-84200000D01*
X113586396Y-87750000D02*
X116386396Y-87750000D01*
X108200000Y-93136396D02*
X113586396Y-87750000D01*
X134536396Y-84200000D02*
X138800000Y-84200000D01*
X152450000Y-80300000D02*
X154900000Y-77850000D01*
X154900000Y-77850000D02*
X154900000Y-77300000D01*
X108200000Y-94300000D02*
X108200000Y-93136396D01*
X154900000Y-77300000D02*
X155600000Y-76600000D01*
X118436396Y-85700000D02*
X133036396Y-85700000D01*
X116386396Y-87750000D02*
X118436396Y-85700000D01*
X142700000Y-80300000D02*
X152450000Y-80300000D01*
%TO.N,Net-(D3-A)*%
X153000000Y-78200000D02*
X151600000Y-78200000D01*
X151600000Y-78200000D02*
X150300000Y-79500000D01*
X131500000Y-80300000D02*
X131200000Y-80600000D01*
X131200000Y-80600000D02*
X131200000Y-81800000D01*
%TO.N,B3*%
X113800000Y-88200000D02*
X116600000Y-88200000D01*
X138986396Y-84650000D02*
X142886396Y-80750000D01*
X118600000Y-86200000D02*
X133172792Y-86200000D01*
X109700000Y-94300000D02*
X109700000Y-92300000D01*
X133172792Y-86200000D02*
X134722792Y-84650000D01*
X153050000Y-80750000D02*
X155600000Y-78200000D01*
X116600000Y-88200000D02*
X118600000Y-86200000D01*
X142886396Y-80750000D02*
X153050000Y-80750000D01*
X134722792Y-84650000D02*
X138986396Y-84650000D01*
X109700000Y-92300000D02*
X113800000Y-88200000D01*
%TO.N,R4*%
X139200000Y-85100000D02*
X143100000Y-81200000D01*
X133450000Y-86650000D02*
X135000000Y-85100000D01*
X118786396Y-86650000D02*
X133450000Y-86650000D01*
X111200000Y-91436396D02*
X113986396Y-88650000D01*
X143100000Y-81200000D02*
X159900000Y-81200000D01*
X116786396Y-88650000D02*
X118786396Y-86650000D01*
X135000000Y-85100000D02*
X139200000Y-85100000D01*
X111200000Y-94300000D02*
X111200000Y-91436396D01*
X164600000Y-76500000D02*
X168300000Y-76500000D01*
X113986396Y-88650000D02*
X116786396Y-88650000D01*
X159900000Y-81200000D02*
X164600000Y-76500000D01*
%TO.N,G4*%
X135186396Y-85550000D02*
X139386396Y-85550000D01*
X112700000Y-94300000D02*
X112700000Y-90600000D01*
X114200000Y-89100000D02*
X117000000Y-89100000D01*
X143286396Y-81650000D02*
X166300000Y-81650000D01*
X119000000Y-87100000D02*
X133636396Y-87100000D01*
X170225000Y-77175000D02*
X170900000Y-76500000D01*
X112700000Y-90600000D02*
X114200000Y-89100000D01*
X166300000Y-81650000D02*
X170225000Y-77725000D01*
X170225000Y-77725000D02*
X170225000Y-77175000D01*
X117000000Y-89100000D02*
X119000000Y-87100000D01*
X133636396Y-87100000D02*
X135186396Y-85550000D01*
X139386396Y-85550000D02*
X143286396Y-81650000D01*
%TO.N,Net-(D4-A)*%
X132000000Y-81100000D02*
X132000000Y-81800000D01*
X132700000Y-80400000D02*
X132000000Y-81100000D01*
X168300000Y-78100000D02*
X166100000Y-80300000D01*
%TO.N,B4*%
X133822792Y-87550000D02*
X135372792Y-86000000D01*
X115200000Y-89550000D02*
X117186396Y-89550000D01*
X114200000Y-90550000D02*
X115200000Y-89550000D01*
X166900000Y-82100000D02*
X170900000Y-78100000D01*
X119186396Y-87550000D02*
X133822792Y-87550000D01*
X139572792Y-86000000D02*
X143472792Y-82100000D01*
X117186396Y-89550000D02*
X119186396Y-87550000D01*
X114200000Y-94300000D02*
X114200000Y-90550000D01*
X143472792Y-82100000D02*
X166900000Y-82100000D01*
X135372792Y-86000000D02*
X139572792Y-86000000D01*
%TO.N,Boot*%
X121500000Y-92200000D02*
X122800000Y-92200000D01*
X116600000Y-83400000D02*
X116600000Y-82650000D01*
X116050000Y-82100000D02*
X114900000Y-82100000D01*
X114900000Y-82100000D02*
X108700000Y-82100000D01*
X122800000Y-92200000D02*
X124700000Y-94100000D01*
X116600000Y-82650000D02*
X116050000Y-82100000D01*
X124700000Y-94100000D02*
X124700000Y-94300000D01*
%TO.N,Net-(IC1-IO3)*%
X120200000Y-93950000D02*
X120200000Y-94300000D01*
X99225000Y-91625000D02*
X101425000Y-91625000D01*
X101425000Y-91625000D02*
X102300000Y-92500000D01*
X98800000Y-91200000D02*
X99225000Y-91625000D01*
X118675000Y-92425000D02*
X120200000Y-93950000D01*
%TO.N,Net-(IC1-IO4)*%
X128575000Y-95625000D02*
X128575000Y-93048222D01*
X130823222Y-90800000D02*
X141800000Y-90800000D01*
X146900000Y-94100000D02*
X146800000Y-94000000D01*
X120475000Y-96425000D02*
X124825000Y-96425000D01*
X118700000Y-94650000D02*
X120475000Y-96425000D01*
X141800000Y-90800000D02*
X144900000Y-93900000D01*
X128575000Y-93048222D02*
X130823222Y-90800000D01*
X193100000Y-91725000D02*
X190725000Y-94100000D01*
X190725000Y-94100000D02*
X172700000Y-94100000D01*
X128100000Y-96100000D02*
X128575000Y-95625000D01*
X118700000Y-94300000D02*
X118700000Y-94650000D01*
X124825000Y-96425000D02*
X126300000Y-97900000D01*
X165300000Y-94100000D02*
X146900000Y-94100000D01*
%TO.N,A_Btn*%
X175200000Y-86950000D02*
X174150000Y-88000000D01*
X105200000Y-94600000D02*
X105200000Y-94300000D01*
X173375000Y-87225000D02*
X167425000Y-87225000D01*
X174150000Y-88000000D02*
X173375000Y-87225000D01*
X178800000Y-86950000D02*
X177000000Y-86950000D01*
X179850000Y-88000000D02*
X178800000Y-86950000D01*
X177000000Y-86950000D02*
X175200000Y-86950000D01*
X156200000Y-113500000D02*
X154200000Y-115500000D01*
X154100000Y-115500000D02*
X133000000Y-115500000D01*
X107200000Y-97300000D02*
X107200000Y-96600000D01*
X107200000Y-96600000D02*
X105200000Y-94600000D01*
X154200000Y-115500000D02*
X154100000Y-115500000D01*
X167425000Y-102275000D02*
X156200000Y-113500000D01*
X167425000Y-87225000D02*
X167425000Y-102275000D01*
%TO.N,B*%
X105500000Y-96300000D02*
X104450000Y-96300000D01*
X176900000Y-101700000D02*
X175100000Y-101700000D01*
X179750000Y-102750000D02*
X178700000Y-101700000D01*
X180625000Y-103625000D02*
X181300000Y-104300000D01*
X173400000Y-116200000D02*
X132600000Y-116200000D01*
X106300000Y-97100000D02*
X105500000Y-96300000D01*
X178700000Y-101700000D02*
X176900000Y-101700000D01*
X181400000Y-108200000D02*
X173400000Y-116200000D01*
X181300000Y-104300000D02*
X181400000Y-104400000D01*
X179750000Y-102750000D02*
X180625000Y-103625000D01*
X181400000Y-104400000D02*
X181400000Y-108200000D01*
X175100000Y-101700000D02*
X174050000Y-102750000D01*
%TO.N,SDA*%
X104575000Y-97925000D02*
X104450000Y-97800000D01*
X124050000Y-97050000D02*
X123175000Y-97925000D01*
X123175000Y-97925000D02*
X104575000Y-97925000D01*
%TO.N,SCK*%
X124700000Y-97600000D02*
X124700000Y-97800000D01*
X124700000Y-97800000D02*
X123200000Y-99300000D01*
X123200000Y-99300000D02*
X104450000Y-99300000D01*
%TO.N,TX*%
X122207484Y-114107484D02*
X120200000Y-112100000D01*
X120200000Y-112100000D02*
X120200000Y-111800000D01*
X122207484Y-119007484D02*
X122207484Y-114107484D01*
%TO.N,RX*%
X121700000Y-111800000D02*
X121700000Y-112100000D01*
X121700000Y-112100000D02*
X124003535Y-114403535D01*
X124003535Y-114403535D02*
X124003535Y-120803535D01*
%TO.N,Net-(J6-CC1)*%
X101162500Y-104950000D02*
X100187500Y-104950000D01*
X97900000Y-98050000D02*
X97900000Y-98575774D01*
X101212500Y-101888274D02*
X101212500Y-104900000D01*
X101212500Y-104900000D02*
X101162500Y-104950000D01*
X97900000Y-98575774D02*
X101212500Y-101888274D01*
%TO.N,Net-(J6-CC2)*%
X100187500Y-107950000D02*
X98566116Y-107950000D01*
X97100000Y-106483884D02*
X97100000Y-98050000D01*
X98566116Y-107950000D02*
X97100000Y-106483884D01*
%TO.N,Net-(U1-LX)*%
X141875000Y-88300000D02*
X143225000Y-89650000D01*
X139762500Y-88300000D02*
X141875000Y-88300000D01*
%TO.N,Net-(RN3-R3.1)*%
X175100000Y-107500000D02*
X175100000Y-107600000D01*
X170300000Y-102700000D02*
X174050000Y-106450000D01*
X168500000Y-88600000D02*
X169150000Y-88600000D01*
X174050000Y-106450000D02*
X175100000Y-107500000D01*
X175100000Y-107600000D02*
X176900000Y-107600000D01*
X176900000Y-107600000D02*
X178600000Y-107600000D01*
X169150000Y-88600000D02*
X170300000Y-89750000D01*
X178600000Y-107600000D02*
X179750000Y-106450000D01*
X170300000Y-89750000D02*
X170300000Y-102700000D01*
%TO.N,Net-(RN3-R4.1)*%
X178700000Y-92850000D02*
X179850000Y-91700000D01*
X174150000Y-91700000D02*
X174150000Y-91850000D01*
X174150000Y-91850000D02*
X175150000Y-92850000D01*
X177000000Y-92850000D02*
X178700000Y-92850000D01*
X175150000Y-92850000D02*
X177000000Y-92850000D01*
X170250000Y-87800000D02*
X174150000Y-91700000D01*
X168500000Y-87800000D02*
X170250000Y-87800000D01*
%TD*%
%TA.AperFunction,Conductor*%
%TO.N,VSS*%
G36*
X198693039Y-85019685D02*
G01*
X198738794Y-85072489D01*
X198750000Y-85124000D01*
X198750000Y-118348028D01*
X198730315Y-118415067D01*
X198677511Y-118460822D01*
X198608353Y-118470766D01*
X198601119Y-118469506D01*
X178000000Y-114250000D01*
X177999998Y-114250000D01*
X146837680Y-145412318D01*
X146776357Y-145445803D01*
X146706665Y-145440819D01*
X146662318Y-145412318D01*
X138625000Y-137375000D01*
X142986548Y-137375000D01*
X143006343Y-137752710D01*
X143065510Y-138126273D01*
X143065510Y-138126275D01*
X143163405Y-138491625D01*
X143298948Y-138844726D01*
X143470661Y-139181730D01*
X143676650Y-139498926D01*
X143676654Y-139498931D01*
X143676656Y-139498934D01*
X143914682Y-139792871D01*
X144182129Y-140060318D01*
X144476066Y-140298344D01*
X144476070Y-140298346D01*
X144476073Y-140298349D01*
X144793269Y-140504338D01*
X144793274Y-140504341D01*
X145130277Y-140676053D01*
X145483382Y-140811597D01*
X145848721Y-140909489D01*
X146222291Y-140968657D01*
X146579109Y-140987357D01*
X146599999Y-140988452D01*
X146600000Y-140988452D01*
X146600001Y-140988452D01*
X146619796Y-140987414D01*
X146977709Y-140968657D01*
X147351279Y-140909489D01*
X147716618Y-140811597D01*
X148069723Y-140676053D01*
X148406726Y-140504341D01*
X148723934Y-140298344D01*
X149017871Y-140060318D01*
X149285318Y-139792871D01*
X149523344Y-139498934D01*
X149729341Y-139181726D01*
X149901053Y-138844723D01*
X150036597Y-138491618D01*
X150134489Y-138126279D01*
X150193657Y-137752709D01*
X150213452Y-137375000D01*
X150193657Y-136997291D01*
X150134489Y-136623721D01*
X150036597Y-136258382D01*
X149901053Y-135905277D01*
X149729341Y-135568274D01*
X149523344Y-135251066D01*
X149285318Y-134957129D01*
X149017871Y-134689682D01*
X148723934Y-134451656D01*
X148723931Y-134451654D01*
X148723926Y-134451650D01*
X148406730Y-134245661D01*
X148069726Y-134073948D01*
X147716625Y-133938405D01*
X147716618Y-133938403D01*
X147351279Y-133840511D01*
X147351275Y-133840510D01*
X147351274Y-133840510D01*
X146977710Y-133781343D01*
X146600001Y-133761548D01*
X146599999Y-133761548D01*
X146222289Y-133781343D01*
X145848726Y-133840510D01*
X145848724Y-133840510D01*
X145483374Y-133938405D01*
X145130273Y-134073948D01*
X144793269Y-134245661D01*
X144476073Y-134451650D01*
X144182133Y-134689678D01*
X144182125Y-134689685D01*
X143914685Y-134957125D01*
X143914678Y-134957133D01*
X143676650Y-135251073D01*
X143470661Y-135568269D01*
X143298948Y-135905273D01*
X143163405Y-136258374D01*
X143065510Y-136623724D01*
X143065510Y-136623726D01*
X143006343Y-136997289D01*
X142986548Y-137374999D01*
X142986548Y-137375000D01*
X138625000Y-137375000D01*
X127181911Y-125931911D01*
X127148426Y-125870588D01*
X127153410Y-125800896D01*
X127195282Y-125744963D01*
X127260746Y-125720546D01*
X127290001Y-125721921D01*
X127483069Y-125754138D01*
X127708207Y-125754138D01*
X127930273Y-125717082D01*
X128143212Y-125643980D01*
X128341214Y-125536827D01*
X128518878Y-125398544D01*
X128671360Y-125232906D01*
X128794498Y-125044429D01*
X128884934Y-124838254D01*
X128940202Y-124620006D01*
X128958794Y-124395638D01*
X128940202Y-124171270D01*
X128884934Y-123953022D01*
X128794498Y-123746847D01*
X128671360Y-123558370D01*
X128671357Y-123558367D01*
X128671353Y-123558361D01*
X128518881Y-123392735D01*
X128518876Y-123392730D01*
X128341215Y-123254450D01*
X128341210Y-123254446D01*
X128143218Y-123147299D01*
X128143215Y-123147297D01*
X128143212Y-123147296D01*
X128143209Y-123147295D01*
X128143207Y-123147294D01*
X127930275Y-123074194D01*
X127862090Y-123062816D01*
X127799205Y-123032365D01*
X127762765Y-122972750D01*
X127758500Y-122940507D01*
X127758500Y-119708634D01*
X127760239Y-119692887D01*
X127759968Y-119692862D01*
X127760701Y-119685095D01*
X127760702Y-119685092D01*
X127758499Y-119615028D01*
X127758500Y-119585144D01*
X127757614Y-119578139D01*
X127757157Y-119572323D01*
X127756993Y-119567115D01*
X127755674Y-119525111D01*
X127749974Y-119505492D01*
X127746031Y-119486446D01*
X127744462Y-119474028D01*
X127743474Y-119466203D01*
X127726081Y-119422274D01*
X127724204Y-119416792D01*
X127711019Y-119371407D01*
X127700620Y-119353824D01*
X127692066Y-119336363D01*
X127684552Y-119317383D01*
X127656793Y-119279176D01*
X127653586Y-119274294D01*
X127629544Y-119233641D01*
X127629543Y-119233640D01*
X127629542Y-119233638D01*
X127615108Y-119219204D01*
X127602471Y-119204409D01*
X127590472Y-119187893D01*
X127590471Y-119187892D01*
X127590468Y-119187888D01*
X127585129Y-119182202D01*
X127587257Y-119180203D01*
X127555849Y-119133694D01*
X127550000Y-119096061D01*
X127550000Y-118650000D01*
X128050000Y-118650000D01*
X128050000Y-119624999D01*
X128099972Y-119624999D01*
X128099986Y-119624998D01*
X128202697Y-119614505D01*
X128369119Y-119559358D01*
X128369124Y-119559356D01*
X128518345Y-119467315D01*
X128642315Y-119343345D01*
X128734356Y-119194124D01*
X128734358Y-119194119D01*
X128789505Y-119027697D01*
X128789506Y-119027690D01*
X128799999Y-118924986D01*
X128800000Y-118924973D01*
X128800000Y-118650000D01*
X128050000Y-118650000D01*
X127550000Y-118650000D01*
X127550000Y-118274000D01*
X127569685Y-118206961D01*
X127622489Y-118161206D01*
X127674000Y-118150000D01*
X128799999Y-118150000D01*
X128799999Y-117875028D01*
X128799998Y-117875013D01*
X128789505Y-117772302D01*
X128734358Y-117605880D01*
X128734356Y-117605875D01*
X128642315Y-117456654D01*
X128518345Y-117332684D01*
X128369124Y-117240643D01*
X128369119Y-117240641D01*
X128202697Y-117185494D01*
X128202689Y-117185493D01*
X128106367Y-117175652D01*
X128041675Y-117149255D01*
X128001524Y-117092074D01*
X127998661Y-117022263D01*
X128031287Y-116964615D01*
X128088815Y-116907087D01*
X128101180Y-116897183D01*
X128101006Y-116896973D01*
X128107012Y-116892003D01*
X128107018Y-116892000D01*
X128154999Y-116840904D01*
X128176134Y-116819770D01*
X128180463Y-116814187D01*
X128184242Y-116809763D01*
X128216586Y-116775321D01*
X128226423Y-116757424D01*
X128237097Y-116741174D01*
X128249613Y-116725041D01*
X128268372Y-116681689D01*
X128270933Y-116676462D01*
X128293695Y-116635060D01*
X128298774Y-116615274D01*
X128305072Y-116596882D01*
X128313181Y-116578145D01*
X128320569Y-116531497D01*
X128321751Y-116525786D01*
X128333500Y-116480030D01*
X128333500Y-116459614D01*
X128335027Y-116440214D01*
X128338220Y-116420057D01*
X128333772Y-116373011D01*
X128333500Y-116367216D01*
X128333500Y-116181552D01*
X128353185Y-116114513D01*
X128392401Y-116076015D01*
X128436152Y-116049030D01*
X128561530Y-115923652D01*
X128654615Y-115772738D01*
X128710387Y-115604426D01*
X128721000Y-115500545D01*
X128720999Y-114926264D01*
X128740683Y-114859226D01*
X128757313Y-114838589D01*
X128863815Y-114732087D01*
X128876180Y-114722183D01*
X128876006Y-114721973D01*
X128882012Y-114717003D01*
X128882018Y-114717000D01*
X128929999Y-114665904D01*
X128951135Y-114644769D01*
X128955458Y-114639195D01*
X128959257Y-114634747D01*
X128991585Y-114600322D01*
X128993148Y-114597480D01*
X129001420Y-114582430D01*
X129012098Y-114566174D01*
X129024614Y-114550040D01*
X129043374Y-114506686D01*
X129045935Y-114501458D01*
X129068695Y-114460060D01*
X129073774Y-114440274D01*
X129080072Y-114421882D01*
X129088181Y-114403145D01*
X129094431Y-114363679D01*
X129095569Y-114356497D01*
X129096751Y-114350786D01*
X129108500Y-114305030D01*
X129108499Y-114284617D01*
X129110027Y-114265213D01*
X129112437Y-114250000D01*
X129113220Y-114245057D01*
X129108775Y-114198032D01*
X129108500Y-114192195D01*
X129108500Y-114074000D01*
X129128185Y-114006961D01*
X129180989Y-113961206D01*
X129232500Y-113950000D01*
X140500000Y-113950000D01*
X140500000Y-93250000D01*
X129568488Y-93250000D01*
X129501449Y-93230315D01*
X129455694Y-93177511D01*
X129445750Y-93108353D01*
X129474775Y-93044797D01*
X129480807Y-93038319D01*
X130186865Y-92332262D01*
X131049307Y-91469819D01*
X131110631Y-91436334D01*
X131136989Y-91433500D01*
X141486234Y-91433500D01*
X141553273Y-91453185D01*
X141573915Y-91469819D01*
X144066151Y-93962056D01*
X144099636Y-94023379D01*
X144101690Y-94035851D01*
X144106783Y-94081047D01*
X144137145Y-94167816D01*
X144166957Y-94253016D01*
X144211616Y-94324090D01*
X144263889Y-94407281D01*
X144392719Y-94536111D01*
X144546985Y-94633043D01*
X144717798Y-94692813D01*
X144718953Y-94693217D01*
X144718958Y-94693218D01*
X144899996Y-94713616D01*
X144900000Y-94713616D01*
X144900004Y-94713616D01*
X145081041Y-94693218D01*
X145081044Y-94693217D01*
X145081047Y-94693217D01*
X145081048Y-94693216D01*
X145081051Y-94693216D01*
X145131308Y-94675630D01*
X145141544Y-94672047D01*
X145211323Y-94668485D01*
X145271951Y-94703214D01*
X145304178Y-94765207D01*
X145306500Y-94789089D01*
X145306500Y-94924269D01*
X145286815Y-94991308D01*
X145241520Y-95033323D01*
X145194422Y-95058811D01*
X145194422Y-95058812D01*
X145016761Y-95197092D01*
X144947092Y-95272773D01*
X144887205Y-95308763D01*
X144817367Y-95306662D01*
X144759751Y-95267137D01*
X144739681Y-95232122D01*
X144693354Y-95107913D01*
X144693350Y-95107906D01*
X144607190Y-94992812D01*
X144607187Y-94992809D01*
X144492093Y-94906649D01*
X144492086Y-94906645D01*
X144357379Y-94856403D01*
X144357372Y-94856401D01*
X144297844Y-94850000D01*
X143650000Y-94850000D01*
X143650000Y-95764498D01*
X143542315Y-95715320D01*
X143435763Y-95700000D01*
X143364237Y-95700000D01*
X143257685Y-95715320D01*
X143150000Y-95764498D01*
X143150000Y-94850000D01*
X142502155Y-94850000D01*
X142442627Y-94856401D01*
X142442620Y-94856403D01*
X142307913Y-94906645D01*
X142307906Y-94906649D01*
X142192812Y-94992809D01*
X142192809Y-94992812D01*
X142106649Y-95107906D01*
X142106645Y-95107913D01*
X142056403Y-95242620D01*
X142056401Y-95242627D01*
X142050000Y-95302155D01*
X142050000Y-95950000D01*
X142966314Y-95950000D01*
X142940507Y-95990156D01*
X142900000Y-96128111D01*
X142900000Y-96271889D01*
X142940507Y-96409844D01*
X142966314Y-96450000D01*
X142050000Y-96450000D01*
X142050000Y-97097844D01*
X142056401Y-97157372D01*
X142056403Y-97157379D01*
X142106645Y-97292086D01*
X142106649Y-97292093D01*
X142192809Y-97407187D01*
X142192812Y-97407190D01*
X142307906Y-97493350D01*
X142307913Y-97493354D01*
X142442620Y-97543596D01*
X142442627Y-97543598D01*
X142502155Y-97549999D01*
X142502172Y-97550000D01*
X143150000Y-97550000D01*
X143150000Y-96635501D01*
X143257685Y-96684680D01*
X143364237Y-96700000D01*
X143435763Y-96700000D01*
X143542315Y-96684680D01*
X143650000Y-96635501D01*
X143650000Y-97550000D01*
X144297828Y-97550000D01*
X144297844Y-97549999D01*
X144357372Y-97543598D01*
X144357379Y-97543596D01*
X144492086Y-97493354D01*
X144492093Y-97493350D01*
X144607187Y-97407190D01*
X144607190Y-97407187D01*
X144693350Y-97292093D01*
X144693354Y-97292086D01*
X144739681Y-97167877D01*
X144781552Y-97111943D01*
X144847016Y-97087526D01*
X144915289Y-97102377D01*
X144947089Y-97127223D01*
X145016760Y-97202906D01*
X145194424Y-97341189D01*
X145194425Y-97341189D01*
X145194427Y-97341191D01*
X145310110Y-97403795D01*
X145392426Y-97448342D01*
X145605365Y-97521444D01*
X145827431Y-97558500D01*
X146052569Y-97558500D01*
X146274635Y-97521444D01*
X146487574Y-97448342D01*
X146685576Y-97341189D01*
X146863240Y-97202906D01*
X146969456Y-97087526D01*
X147015715Y-97037276D01*
X147015715Y-97037275D01*
X147015722Y-97037268D01*
X147106193Y-96898790D01*
X147159338Y-96853437D01*
X147228569Y-96844013D01*
X147291905Y-96873515D01*
X147313804Y-96898787D01*
X147404278Y-97037268D01*
X147404283Y-97037273D01*
X147404284Y-97037276D01*
X147556756Y-97202902D01*
X147556761Y-97202907D01*
X147592756Y-97230923D01*
X147734424Y-97341189D01*
X147734425Y-97341189D01*
X147734427Y-97341191D01*
X147850110Y-97403795D01*
X147932426Y-97448342D01*
X148145365Y-97521444D01*
X148367431Y-97558500D01*
X148592569Y-97558500D01*
X148814635Y-97521444D01*
X149027574Y-97448342D01*
X149225576Y-97341189D01*
X149403240Y-97202906D01*
X149509456Y-97087526D01*
X149555715Y-97037276D01*
X149555715Y-97037275D01*
X149555722Y-97037268D01*
X149646193Y-96898790D01*
X149699338Y-96853437D01*
X149768569Y-96844013D01*
X149831905Y-96873515D01*
X149853804Y-96898787D01*
X149944278Y-97037268D01*
X149944283Y-97037273D01*
X149944284Y-97037276D01*
X150096756Y-97202902D01*
X150096761Y-97202907D01*
X150132756Y-97230923D01*
X150274424Y-97341189D01*
X150274425Y-97341189D01*
X150274427Y-97341191D01*
X150390110Y-97403795D01*
X150472426Y-97448342D01*
X150685365Y-97521444D01*
X150907431Y-97558500D01*
X151132569Y-97558500D01*
X151354635Y-97521444D01*
X151567574Y-97448342D01*
X151765576Y-97341189D01*
X151943240Y-97202906D01*
X152049456Y-97087526D01*
X152095715Y-97037276D01*
X152095717Y-97037273D01*
X152095722Y-97037268D01*
X152218860Y-96848791D01*
X152309296Y-96642616D01*
X152364564Y-96424368D01*
X152367160Y-96393039D01*
X152383156Y-96200005D01*
X152383156Y-96199994D01*
X152364565Y-95975640D01*
X152364563Y-95975628D01*
X152347542Y-95908414D01*
X152309296Y-95757384D01*
X152218860Y-95551209D01*
X152218069Y-95549999D01*
X152124412Y-95406645D01*
X152095722Y-95362732D01*
X152095719Y-95362729D01*
X152095715Y-95362723D01*
X151943243Y-95197097D01*
X151943238Y-95197092D01*
X151765577Y-95058812D01*
X151765572Y-95058808D01*
X151595102Y-94966555D01*
X151545511Y-94917336D01*
X151530403Y-94849119D01*
X151554573Y-94783563D01*
X151610349Y-94741482D01*
X151654119Y-94733500D01*
X164752840Y-94733500D01*
X164818812Y-94752507D01*
X164946977Y-94833039D01*
X164946980Y-94833041D01*
X164946984Y-94833042D01*
X164946985Y-94833043D01*
X165067312Y-94875147D01*
X165118953Y-94893217D01*
X165118958Y-94893218D01*
X165299996Y-94913616D01*
X165300000Y-94913616D01*
X165300004Y-94913616D01*
X165481041Y-94893218D01*
X165481044Y-94893217D01*
X165481047Y-94893217D01*
X165653015Y-94833043D01*
X165807281Y-94736111D01*
X165936111Y-94607281D01*
X166033043Y-94453015D01*
X166093217Y-94281047D01*
X166093218Y-94281041D01*
X166113616Y-94100003D01*
X166113616Y-94099996D01*
X166093218Y-93918958D01*
X166093217Y-93918953D01*
X166092537Y-93917009D01*
X166033043Y-93746985D01*
X165936111Y-93592719D01*
X165807281Y-93463889D01*
X165753635Y-93430181D01*
X165653017Y-93366958D01*
X165653016Y-93366957D01*
X165653015Y-93366957D01*
X165598693Y-93347949D01*
X165481046Y-93306782D01*
X165481041Y-93306781D01*
X165300004Y-93286384D01*
X165299996Y-93286384D01*
X165118958Y-93306781D01*
X165118953Y-93306782D01*
X164946980Y-93366958D01*
X164946977Y-93366960D01*
X164818812Y-93447493D01*
X164752840Y-93466500D01*
X147461254Y-93466500D01*
X147394215Y-93446815D01*
X147373573Y-93430181D01*
X147307281Y-93363889D01*
X147153017Y-93266958D01*
X147153016Y-93266957D01*
X147153015Y-93266957D01*
X147072587Y-93238814D01*
X146981046Y-93206782D01*
X146981041Y-93206781D01*
X146794804Y-93185798D01*
X146730390Y-93158732D01*
X146690834Y-93101137D01*
X146688697Y-93031300D01*
X146721004Y-92974899D01*
X148126086Y-91569816D01*
X148187407Y-91536333D01*
X148213755Y-91533499D01*
X148800544Y-91533499D01*
X148904426Y-91522887D01*
X149072738Y-91467115D01*
X149223652Y-91374030D01*
X149349030Y-91248652D01*
X149349449Y-91247971D01*
X149349859Y-91247602D01*
X149353511Y-91242985D01*
X149354299Y-91243608D01*
X149401389Y-91201244D01*
X149470350Y-91190014D01*
X149534436Y-91217850D01*
X149552261Y-91238420D01*
X149553202Y-91237677D01*
X149557683Y-91243344D01*
X149681654Y-91367315D01*
X149830875Y-91459356D01*
X149830880Y-91459358D01*
X149997302Y-91514505D01*
X149997309Y-91514506D01*
X150100019Y-91524999D01*
X150149999Y-91524998D01*
X150150000Y-91524998D01*
X150150000Y-90550000D01*
X150650000Y-90550000D01*
X150650000Y-91524999D01*
X150699972Y-91524999D01*
X150699986Y-91524998D01*
X150802697Y-91514505D01*
X150969119Y-91459358D01*
X150969124Y-91459356D01*
X151118345Y-91367315D01*
X151242315Y-91243345D01*
X151334356Y-91094124D01*
X151334358Y-91094119D01*
X151389505Y-90927697D01*
X151389506Y-90927690D01*
X151399999Y-90824986D01*
X151400000Y-90824973D01*
X151400000Y-90550000D01*
X150650000Y-90550000D01*
X150150000Y-90550000D01*
X150150000Y-90174000D01*
X150169685Y-90106961D01*
X150222489Y-90061206D01*
X150274000Y-90050000D01*
X151399999Y-90050000D01*
X151399999Y-90007500D01*
X151419684Y-89940461D01*
X151472488Y-89894706D01*
X151523999Y-89883500D01*
X165667500Y-89883500D01*
X165734539Y-89903185D01*
X165780294Y-89955989D01*
X165791500Y-90007500D01*
X165791500Y-90498654D01*
X165798011Y-90559202D01*
X165798011Y-90559204D01*
X165835641Y-90660091D01*
X165849111Y-90696204D01*
X165936739Y-90813261D01*
X166053796Y-90900889D01*
X166166659Y-90942985D01*
X166181849Y-90948651D01*
X166190799Y-90951989D01*
X166218050Y-90954918D01*
X166251345Y-90958499D01*
X166251362Y-90958500D01*
X166667500Y-90958500D01*
X166734539Y-90978185D01*
X166780294Y-91030989D01*
X166791500Y-91082500D01*
X166791500Y-101961233D01*
X166771815Y-102028272D01*
X166755181Y-102048914D01*
X153973914Y-114830181D01*
X153912591Y-114863666D01*
X153886233Y-114866500D01*
X133547160Y-114866500D01*
X133481188Y-114847493D01*
X133353022Y-114766960D01*
X133353019Y-114766958D01*
X133181046Y-114706782D01*
X133181041Y-114706781D01*
X133000004Y-114686384D01*
X132999996Y-114686384D01*
X132818958Y-114706781D01*
X132818953Y-114706782D01*
X132646982Y-114766958D01*
X132492718Y-114863889D01*
X132363889Y-114992718D01*
X132266958Y-115146982D01*
X132206782Y-115318953D01*
X132206781Y-115318958D01*
X132192459Y-115446078D01*
X132165393Y-115510492D01*
X132135213Y-115537188D01*
X132092717Y-115563890D01*
X131963889Y-115692718D01*
X131866958Y-115846982D01*
X131806782Y-116018953D01*
X131806781Y-116018957D01*
X131788707Y-116179371D01*
X131761640Y-116243785D01*
X131704045Y-116283340D01*
X131679371Y-116288707D01*
X131518957Y-116306781D01*
X131518953Y-116306782D01*
X131346982Y-116366958D01*
X131192718Y-116463889D01*
X131063889Y-116592718D01*
X130966958Y-116746982D01*
X130906782Y-116918953D01*
X130906781Y-116918958D01*
X130886384Y-117099996D01*
X130886384Y-117100003D01*
X130906781Y-117281041D01*
X130906782Y-117281046D01*
X130945865Y-117392736D01*
X130962315Y-117439750D01*
X130966958Y-117453017D01*
X131019480Y-117536605D01*
X131063889Y-117607281D01*
X131192719Y-117736111D01*
X131346985Y-117833043D01*
X131466972Y-117875028D01*
X131518953Y-117893217D01*
X131518958Y-117893218D01*
X131699996Y-117913616D01*
X131700000Y-117913616D01*
X131700004Y-117913616D01*
X131881041Y-117893218D01*
X131881044Y-117893217D01*
X131881047Y-117893217D01*
X132053015Y-117833043D01*
X132053017Y-117833041D01*
X132053019Y-117833041D01*
X132053022Y-117833039D01*
X132181188Y-117752507D01*
X132247160Y-117733500D01*
X133213791Y-117733500D01*
X133267119Y-117748088D01*
X133267800Y-117746515D01*
X133328340Y-117772713D01*
X133331865Y-117774372D01*
X133354720Y-117786017D01*
X133383704Y-117800785D01*
X133391930Y-117802623D01*
X133414126Y-117809836D01*
X133421855Y-117813181D01*
X133479311Y-117822280D01*
X133483127Y-117823008D01*
X133517408Y-117830672D01*
X133539904Y-117835701D01*
X133539904Y-117835700D01*
X133539909Y-117835702D01*
X133548338Y-117835436D01*
X133571632Y-117836902D01*
X133579943Y-117838219D01*
X133637858Y-117832744D01*
X133641713Y-117832501D01*
X133699889Y-117830673D01*
X133699891Y-117830672D01*
X133699893Y-117830672D01*
X133707969Y-117828325D01*
X133730902Y-117823949D01*
X133739292Y-117823157D01*
X133794038Y-117803446D01*
X133797732Y-117802247D01*
X133803503Y-117800570D01*
X133853593Y-117786018D01*
X133860838Y-117781732D01*
X133881955Y-117771795D01*
X133889889Y-117768939D01*
X133938026Y-117736224D01*
X133941270Y-117734165D01*
X133991362Y-117704542D01*
X133997321Y-117698582D01*
X134015303Y-117683706D01*
X134022270Y-117678972D01*
X134060743Y-117635331D01*
X134063380Y-117632522D01*
X134376086Y-117319816D01*
X134437408Y-117286334D01*
X134463766Y-117283500D01*
X170219970Y-117283500D01*
X173566366Y-117283500D01*
X173582113Y-117285238D01*
X173582139Y-117284968D01*
X173589905Y-117285701D01*
X173589909Y-117285702D01*
X173659958Y-117283500D01*
X173689856Y-117283500D01*
X173689857Y-117283500D01*
X173691222Y-117283327D01*
X173696862Y-117282614D01*
X173702685Y-117282156D01*
X173728708Y-117281338D01*
X173749890Y-117280673D01*
X173759681Y-117277827D01*
X173769481Y-117274980D01*
X173788538Y-117271032D01*
X173808797Y-117268474D01*
X173852721Y-117251082D01*
X173858221Y-117249199D01*
X173903593Y-117236018D01*
X173921165Y-117225625D01*
X173938632Y-117217068D01*
X173957617Y-117209552D01*
X173995826Y-117181790D01*
X174000704Y-117178585D01*
X174041362Y-117154542D01*
X174055802Y-117140100D01*
X174070592Y-117127470D01*
X174087107Y-117115472D01*
X174117222Y-117079067D01*
X174121126Y-117074776D01*
X175776134Y-115419770D01*
X175776133Y-115419769D01*
X175812444Y-115383459D01*
X175812453Y-115383449D01*
X179645903Y-111550000D01*
X191900000Y-111550000D01*
X191900000Y-112847844D01*
X191906401Y-112907372D01*
X191906403Y-112907379D01*
X191956645Y-113042086D01*
X191956649Y-113042093D01*
X192042809Y-113157187D01*
X192042812Y-113157190D01*
X192157906Y-113243350D01*
X192157913Y-113243354D01*
X192292620Y-113293596D01*
X192292627Y-113293598D01*
X192352155Y-113299999D01*
X192352172Y-113300000D01*
X192950000Y-113300000D01*
X192950000Y-111550000D01*
X193450000Y-111550000D01*
X193450000Y-113300000D01*
X194047828Y-113300000D01*
X194047844Y-113299999D01*
X194107372Y-113293598D01*
X194107379Y-113293596D01*
X194242086Y-113243354D01*
X194242093Y-113243350D01*
X194357187Y-113157190D01*
X194357190Y-113157187D01*
X194443350Y-113042093D01*
X194443354Y-113042086D01*
X194493596Y-112907379D01*
X194493598Y-112907372D01*
X194499999Y-112847844D01*
X194500000Y-112847827D01*
X194500000Y-111550000D01*
X193450000Y-111550000D01*
X192950000Y-111550000D01*
X191900000Y-111550000D01*
X179645903Y-111550000D01*
X180145903Y-111050000D01*
X191900000Y-111050000D01*
X192950000Y-111050000D01*
X192950000Y-109300000D01*
X193450000Y-109300000D01*
X193450000Y-111050000D01*
X194500000Y-111050000D01*
X194500000Y-109752172D01*
X194499999Y-109752155D01*
X194493598Y-109692627D01*
X194493596Y-109692620D01*
X194443354Y-109557913D01*
X194443350Y-109557906D01*
X194357190Y-109442812D01*
X194357187Y-109442809D01*
X194242093Y-109356649D01*
X194242086Y-109356645D01*
X194107379Y-109306403D01*
X194107372Y-109306401D01*
X194047844Y-109300000D01*
X193450000Y-109300000D01*
X192950000Y-109300000D01*
X192352155Y-109300000D01*
X192292627Y-109306401D01*
X192292620Y-109306403D01*
X192157913Y-109356645D01*
X192157906Y-109356649D01*
X192042812Y-109442809D01*
X192042809Y-109442812D01*
X191956649Y-109557906D01*
X191956645Y-109557913D01*
X191906403Y-109692620D01*
X191906401Y-109692627D01*
X191900000Y-109752155D01*
X191900000Y-111050000D01*
X180145903Y-111050000D01*
X187226085Y-103969819D01*
X187287408Y-103936334D01*
X187313766Y-103933500D01*
X191767500Y-103933500D01*
X191834539Y-103953185D01*
X191880294Y-104005989D01*
X191891500Y-104057500D01*
X191891500Y-104848654D01*
X191898011Y-104909202D01*
X191898011Y-104909204D01*
X191947914Y-105042996D01*
X191949111Y-105046204D01*
X192036739Y-105163261D01*
X192153796Y-105250889D01*
X192290799Y-105301989D01*
X192318050Y-105304918D01*
X192351345Y-105308499D01*
X192351362Y-105308500D01*
X194048638Y-105308500D01*
X194048654Y-105308499D01*
X194075692Y-105305591D01*
X194109201Y-105301989D01*
X194246204Y-105250889D01*
X194363261Y-105163261D01*
X194450889Y-105046204D01*
X194501989Y-104909201D01*
X194506505Y-104867195D01*
X194508499Y-104848654D01*
X194508500Y-104848637D01*
X194508500Y-101751362D01*
X194508499Y-101751345D01*
X194505157Y-101720270D01*
X194501989Y-101690799D01*
X194499022Y-101682845D01*
X194479522Y-101630564D01*
X194450889Y-101553796D01*
X194363261Y-101436739D01*
X194246204Y-101349111D01*
X194244040Y-101348304D01*
X194109203Y-101298011D01*
X194048654Y-101291500D01*
X194048638Y-101291500D01*
X192351362Y-101291500D01*
X192351345Y-101291500D01*
X192290797Y-101298011D01*
X192290795Y-101298011D01*
X192153795Y-101349111D01*
X192036739Y-101436739D01*
X191949111Y-101553795D01*
X191898011Y-101690795D01*
X191898011Y-101690797D01*
X191891500Y-101751345D01*
X191891500Y-102542500D01*
X191871815Y-102609539D01*
X191819011Y-102655294D01*
X191767500Y-102666500D01*
X187083632Y-102666500D01*
X187067880Y-102664760D01*
X187067855Y-102665032D01*
X187060093Y-102664298D01*
X187060092Y-102664298D01*
X186990029Y-102666500D01*
X186960144Y-102666500D01*
X186960141Y-102666500D01*
X186960129Y-102666501D01*
X186953137Y-102667384D01*
X186947320Y-102667841D01*
X186900111Y-102669325D01*
X186900109Y-102669326D01*
X186880496Y-102675023D01*
X186861459Y-102678965D01*
X186841208Y-102681524D01*
X186841202Y-102681526D01*
X186797299Y-102698907D01*
X186791775Y-102700798D01*
X186746406Y-102713981D01*
X186746401Y-102713983D01*
X186728827Y-102724376D01*
X186711362Y-102732932D01*
X186692387Y-102740445D01*
X186692385Y-102740446D01*
X186654176Y-102768206D01*
X186649294Y-102771412D01*
X186608635Y-102795458D01*
X186594200Y-102809894D01*
X186579412Y-102822525D01*
X186562894Y-102834526D01*
X186562888Y-102834532D01*
X186532780Y-102870925D01*
X186528849Y-102875246D01*
X182245181Y-107158914D01*
X182183858Y-107192399D01*
X182114166Y-107187415D01*
X182058233Y-107145543D01*
X182033816Y-107080079D01*
X182033500Y-107071233D01*
X182033500Y-104483626D01*
X182035238Y-104467881D01*
X182034967Y-104467856D01*
X182035701Y-104460093D01*
X182033925Y-104403598D01*
X182033500Y-104390059D01*
X182033500Y-104360144D01*
X182032642Y-104353354D01*
X182032615Y-104353140D01*
X182032156Y-104347311D01*
X182030673Y-104300109D01*
X182024979Y-104280514D01*
X182021032Y-104261457D01*
X182018474Y-104241203D01*
X182001084Y-104197284D01*
X181999193Y-104191757D01*
X181986018Y-104146408D01*
X181986018Y-104146407D01*
X181975624Y-104128832D01*
X181967064Y-104111356D01*
X181959554Y-104092388D01*
X181959554Y-104092387D01*
X181959553Y-104092385D01*
X181959552Y-104092383D01*
X181931789Y-104054171D01*
X181928587Y-104049297D01*
X181904542Y-104008637D01*
X181890106Y-103994201D01*
X181877469Y-103979406D01*
X181865471Y-103962892D01*
X181829084Y-103932790D01*
X181824762Y-103928857D01*
X181719766Y-103823861D01*
X181043596Y-103147690D01*
X181043559Y-103147655D01*
X180844819Y-102948914D01*
X180811334Y-102887591D01*
X180808500Y-102861233D01*
X180808500Y-102251362D01*
X180808499Y-102251345D01*
X180805157Y-102220270D01*
X180801989Y-102190799D01*
X180797961Y-102180000D01*
X180759737Y-102077518D01*
X180750889Y-102053796D01*
X180663261Y-101936739D01*
X180546204Y-101849111D01*
X180509940Y-101835585D01*
X180409203Y-101798011D01*
X180348654Y-101791500D01*
X180348638Y-101791500D01*
X179738767Y-101791500D01*
X179671728Y-101771815D01*
X179651086Y-101755181D01*
X179207088Y-101311183D01*
X179197187Y-101298823D01*
X179196977Y-101298998D01*
X179192002Y-101292986D01*
X179192000Y-101292982D01*
X179165658Y-101268245D01*
X179140922Y-101245016D01*
X179119768Y-101223863D01*
X179117792Y-101222331D01*
X179114183Y-101219531D01*
X179109750Y-101215744D01*
X179103524Y-101209898D01*
X179075321Y-101183414D01*
X179075319Y-101183412D01*
X179057431Y-101173578D01*
X179041170Y-101162897D01*
X179025039Y-101150384D01*
X178981693Y-101131627D01*
X178976445Y-101129056D01*
X178949024Y-101113982D01*
X178935060Y-101106305D01*
X178931660Y-101105432D01*
X178915287Y-101101228D01*
X178896881Y-101094926D01*
X178878144Y-101086818D01*
X178878146Y-101086818D01*
X178831496Y-101079430D01*
X178825781Y-101078246D01*
X178805612Y-101073068D01*
X178780032Y-101066500D01*
X178780030Y-101066500D01*
X178759616Y-101066500D01*
X178740217Y-101064973D01*
X178720058Y-101061780D01*
X178720057Y-101061780D01*
X178673034Y-101066225D01*
X178667196Y-101066500D01*
X177979020Y-101066500D01*
X177911981Y-101046815D01*
X177866226Y-100994011D01*
X177862839Y-100985834D01*
X177850889Y-100953796D01*
X177826293Y-100920940D01*
X177763261Y-100836739D01*
X177646204Y-100749111D01*
X177646203Y-100749110D01*
X177509203Y-100698011D01*
X177448654Y-100691500D01*
X177448638Y-100691500D01*
X176351362Y-100691500D01*
X176351345Y-100691500D01*
X176290797Y-100698011D01*
X176290795Y-100698011D01*
X176153795Y-100749111D01*
X176036739Y-100836739D01*
X175949110Y-100953796D01*
X175937161Y-100985834D01*
X175895290Y-101041768D01*
X175829825Y-101066184D01*
X175820980Y-101066500D01*
X175183634Y-101066500D01*
X175167886Y-101064761D01*
X175167861Y-101065032D01*
X175160094Y-101064298D01*
X175160091Y-101064298D01*
X175090042Y-101066500D01*
X175060137Y-101066500D01*
X175053143Y-101067384D01*
X175047320Y-101067842D01*
X175000111Y-101069326D01*
X175000108Y-101069327D01*
X174980505Y-101075022D01*
X174961459Y-101078966D01*
X174941203Y-101081526D01*
X174941201Y-101081526D01*
X174941199Y-101081527D01*
X174897282Y-101098914D01*
X174891756Y-101100806D01*
X174846406Y-101113982D01*
X174828833Y-101124374D01*
X174811370Y-101132929D01*
X174792385Y-101140446D01*
X174792383Y-101140447D01*
X174754179Y-101168204D01*
X174749296Y-101171412D01*
X174708637Y-101195458D01*
X174694196Y-101209898D01*
X174679408Y-101222527D01*
X174662897Y-101234523D01*
X174662892Y-101234528D01*
X174632790Y-101270914D01*
X174628858Y-101275235D01*
X174148914Y-101755181D01*
X174087591Y-101788666D01*
X174061233Y-101791500D01*
X173451345Y-101791500D01*
X173390797Y-101798011D01*
X173390795Y-101798011D01*
X173253795Y-101849111D01*
X173136739Y-101936739D01*
X173049111Y-102053795D01*
X172998011Y-102190795D01*
X172998011Y-102190797D01*
X172991500Y-102251345D01*
X172991500Y-103248654D01*
X172998011Y-103309202D01*
X172998011Y-103309204D01*
X173049110Y-103446204D01*
X173049111Y-103446204D01*
X173136739Y-103563261D01*
X173253796Y-103650889D01*
X173390799Y-103701989D01*
X173418050Y-103704918D01*
X173451345Y-103708499D01*
X173451362Y-103708500D01*
X173958915Y-103708500D01*
X174025954Y-103728185D01*
X174071709Y-103780989D01*
X174081653Y-103850147D01*
X174079807Y-103860090D01*
X174077446Y-103870433D01*
X174077444Y-103870443D01*
X174041500Y-104189463D01*
X174041500Y-104423885D01*
X174077594Y-104570325D01*
X174077594Y-104629675D01*
X174041500Y-104776114D01*
X174041500Y-105010536D01*
X174069764Y-105261395D01*
X174057709Y-105330217D01*
X174010360Y-105381596D01*
X173942750Y-105399220D01*
X173876344Y-105377493D01*
X173858863Y-105362959D01*
X172458797Y-103962893D01*
X170969819Y-102473914D01*
X170936334Y-102412591D01*
X170933500Y-102386233D01*
X170933500Y-89833632D01*
X170935239Y-89817880D01*
X170934968Y-89817855D01*
X170935700Y-89810099D01*
X170935702Y-89810092D01*
X170933500Y-89740028D01*
X170933500Y-89710144D01*
X170932617Y-89703158D01*
X170932157Y-89697328D01*
X170931636Y-89680735D01*
X170949202Y-89613115D01*
X171000540Y-89565722D01*
X171069352Y-89553608D01*
X171133789Y-89580619D01*
X171143255Y-89589159D01*
X173055181Y-91501085D01*
X173088666Y-91562408D01*
X173091500Y-91588766D01*
X173091499Y-92198637D01*
X173091500Y-92198654D01*
X173098011Y-92259202D01*
X173098011Y-92259204D01*
X173136705Y-92362943D01*
X173149111Y-92396204D01*
X173236739Y-92513261D01*
X173353796Y-92600889D01*
X173490799Y-92651989D01*
X173518050Y-92654918D01*
X173551345Y-92658499D01*
X173551362Y-92658500D01*
X174011234Y-92658500D01*
X174078273Y-92678185D01*
X174098915Y-92694819D01*
X174642910Y-93238814D01*
X174652816Y-93251178D01*
X174653026Y-93251005D01*
X174657997Y-93257014D01*
X174658000Y-93257018D01*
X174658002Y-93257020D01*
X174662972Y-93263027D01*
X174660423Y-93265135D01*
X174688163Y-93312336D01*
X174685378Y-93382150D01*
X174645290Y-93439376D01*
X174580628Y-93465844D01*
X174567888Y-93466500D01*
X173247160Y-93466500D01*
X173181188Y-93447493D01*
X173053022Y-93366960D01*
X173053019Y-93366958D01*
X172881046Y-93306782D01*
X172881041Y-93306781D01*
X172700004Y-93286384D01*
X172699996Y-93286384D01*
X172518958Y-93306781D01*
X172518953Y-93306782D01*
X172346982Y-93366958D01*
X172192718Y-93463889D01*
X172063889Y-93592718D01*
X171966958Y-93746982D01*
X171906782Y-93918953D01*
X171906781Y-93918958D01*
X171886384Y-94099996D01*
X171886384Y-94100003D01*
X171906781Y-94281041D01*
X171906782Y-94281046D01*
X171925612Y-94334857D01*
X171966957Y-94453015D01*
X172063889Y-94607281D01*
X172192719Y-94736111D01*
X172346985Y-94833043D01*
X172518953Y-94893216D01*
X172518953Y-94893217D01*
X172518958Y-94893218D01*
X172699996Y-94913616D01*
X172700000Y-94913616D01*
X172700004Y-94913616D01*
X172881041Y-94893218D01*
X172881044Y-94893217D01*
X172881047Y-94893217D01*
X173053015Y-94833043D01*
X173053017Y-94833041D01*
X173053019Y-94833041D01*
X173053022Y-94833039D01*
X173181188Y-94752507D01*
X173247160Y-94733500D01*
X190641366Y-94733500D01*
X190657113Y-94735238D01*
X190657139Y-94734968D01*
X190664905Y-94735701D01*
X190664909Y-94735702D01*
X190734958Y-94733500D01*
X190764856Y-94733500D01*
X190764857Y-94733500D01*
X190766222Y-94733327D01*
X190771862Y-94732614D01*
X190777685Y-94732156D01*
X190803708Y-94731338D01*
X190824890Y-94730673D01*
X190834681Y-94727827D01*
X190844481Y-94724980D01*
X190863538Y-94721032D01*
X190883797Y-94718474D01*
X190927721Y-94701082D01*
X190933221Y-94699199D01*
X190978593Y-94686018D01*
X190996165Y-94675625D01*
X191013632Y-94667068D01*
X191032617Y-94659552D01*
X191070826Y-94631790D01*
X191075704Y-94628585D01*
X191116362Y-94604542D01*
X191130802Y-94590100D01*
X191145592Y-94577470D01*
X191162107Y-94565472D01*
X191192222Y-94529067D01*
X191196126Y-94524776D01*
X191396814Y-94324088D01*
X191458135Y-94290605D01*
X191527827Y-94295589D01*
X191552630Y-94308170D01*
X191593200Y-94334853D01*
X191906374Y-94492135D01*
X192235690Y-94611996D01*
X192235696Y-94611997D01*
X192235698Y-94611998D01*
X192576678Y-94692813D01*
X192576685Y-94692814D01*
X192576694Y-94692816D01*
X192924775Y-94733500D01*
X192924782Y-94733500D01*
X193275218Y-94733500D01*
X193275225Y-94733500D01*
X193623306Y-94692816D01*
X193623315Y-94692813D01*
X193623321Y-94692813D01*
X193898371Y-94627623D01*
X193964310Y-94611996D01*
X194293626Y-94492135D01*
X194606800Y-94334853D01*
X194899597Y-94142278D01*
X195168057Y-93917012D01*
X195408551Y-93662104D01*
X195617825Y-93381000D01*
X195793050Y-93077501D01*
X195931857Y-92755712D01*
X196032367Y-92419984D01*
X196041534Y-92367999D01*
X196093220Y-92074868D01*
X196093219Y-92074868D01*
X196093222Y-92074857D01*
X196113599Y-91725000D01*
X196113176Y-91717744D01*
X196108170Y-91631782D01*
X196093222Y-91375143D01*
X196093026Y-91374030D01*
X196032369Y-91030024D01*
X196032367Y-91030017D01*
X196031909Y-91028486D01*
X195931857Y-90694288D01*
X195793050Y-90372499D01*
X195689439Y-90193039D01*
X195617824Y-90068998D01*
X195408554Y-89787899D01*
X195408549Y-89787893D01*
X195278557Y-89650111D01*
X195168057Y-89532988D01*
X195168050Y-89532982D01*
X195168048Y-89532980D01*
X195066299Y-89447602D01*
X195027597Y-89389431D01*
X195026489Y-89319570D01*
X195030242Y-89308173D01*
X195036597Y-89291618D01*
X195134489Y-88926279D01*
X195193657Y-88552709D01*
X195213452Y-88175000D01*
X195193657Y-87797291D01*
X195134489Y-87423721D01*
X195036597Y-87058382D01*
X194901053Y-86705277D01*
X194729341Y-86368274D01*
X194721569Y-86356306D01*
X194523349Y-86051073D01*
X194523346Y-86051070D01*
X194523344Y-86051066D01*
X194285318Y-85757129D01*
X194017871Y-85489682D01*
X193723934Y-85251656D01*
X193723932Y-85251655D01*
X193723930Y-85251653D01*
X193687499Y-85227995D01*
X193641997Y-85174974D01*
X193632383Y-85105769D01*
X193661710Y-85042352D01*
X193720667Y-85004858D01*
X193755035Y-85000000D01*
X198626000Y-85000000D01*
X198693039Y-85019685D01*
G37*
%TD.AperFunction*%
%TA.AperFunction,Conductor*%
G36*
X95587500Y-102880000D02*
G01*
X95788213Y-102880000D01*
X95939838Y-102864581D01*
X96133881Y-102803700D01*
X96133891Y-102803695D01*
X96282322Y-102721309D01*
X96350490Y-102705986D01*
X96416122Y-102729949D01*
X96458379Y-102785592D01*
X96466500Y-102829728D01*
X96466500Y-106400250D01*
X96464761Y-106415997D01*
X96465032Y-106416023D01*
X96464298Y-106423789D01*
X96466500Y-106493841D01*
X96466500Y-106523743D01*
X96467384Y-106530740D01*
X96467842Y-106536563D01*
X96469326Y-106583773D01*
X96469327Y-106583775D01*
X96475022Y-106603379D01*
X96478967Y-106622426D01*
X96481526Y-106642681D01*
X96481527Y-106642684D01*
X96481528Y-106642687D01*
X96498914Y-106686600D01*
X96500806Y-106692128D01*
X96513981Y-106737476D01*
X96524372Y-106755046D01*
X96532932Y-106772519D01*
X96540447Y-106791501D01*
X96568209Y-106829711D01*
X96571416Y-106834594D01*
X96595458Y-106875246D01*
X96595462Y-106875250D01*
X96609889Y-106889677D01*
X96622526Y-106904472D01*
X96634528Y-106920991D01*
X96670931Y-106951106D01*
X96675231Y-106955019D01*
X97727227Y-108007016D01*
X98059028Y-108338817D01*
X98068935Y-108351183D01*
X98069145Y-108351010D01*
X98074112Y-108357015D01*
X98125195Y-108404984D01*
X98146340Y-108426130D01*
X98151929Y-108430466D01*
X98156361Y-108434252D01*
X98163446Y-108440904D01*
X98190796Y-108466587D01*
X98208678Y-108476417D01*
X98224945Y-108487102D01*
X98241076Y-108499615D01*
X98258356Y-108507092D01*
X98284423Y-108518371D01*
X98289649Y-108520931D01*
X98331056Y-108543695D01*
X98350832Y-108548772D01*
X98369239Y-108555074D01*
X98387971Y-108563181D01*
X98407305Y-108566243D01*
X98430316Y-108569888D01*
X98493450Y-108599817D01*
X98530382Y-108659128D01*
X98529384Y-108728991D01*
X98509295Y-108767846D01*
X98484802Y-108799766D01*
X98484800Y-108799769D01*
X98426813Y-108939763D01*
X98426812Y-108939765D01*
X98407034Y-109089999D01*
X98407034Y-109090000D01*
X98426812Y-109240234D01*
X98426813Y-109240236D01*
X98484800Y-109380230D01*
X98484802Y-109380233D01*
X98530339Y-109439578D01*
X98555533Y-109504747D01*
X98541495Y-109573192D01*
X98492681Y-109623181D01*
X98492141Y-109623483D01*
X98363284Y-109695004D01*
X98363283Y-109695005D01*
X98208969Y-109827478D01*
X98208968Y-109827479D01*
X98084481Y-109988304D01*
X97994911Y-110170906D01*
X97969254Y-110270000D01*
X98771389Y-110270000D01*
X98731890Y-110294457D01*
X98664299Y-110383962D01*
X98633605Y-110491840D01*
X98643954Y-110603521D01*
X98693948Y-110703922D01*
X98766431Y-110770000D01*
X97964134Y-110770000D01*
X97964431Y-110771946D01*
X97964433Y-110771952D01*
X98035062Y-110962657D01*
X98035065Y-110962664D01*
X98142649Y-111135267D01*
X98282764Y-111282668D01*
X98282766Y-111282669D01*
X98449695Y-111398856D01*
X98636592Y-111479059D01*
X98835810Y-111520000D01*
X99237500Y-111520000D01*
X99237500Y-110820000D01*
X99737500Y-110820000D01*
X99737500Y-111520000D01*
X100088213Y-111520000D01*
X100239838Y-111504581D01*
X100433881Y-111443700D01*
X100433891Y-111443695D01*
X100611715Y-111344994D01*
X100611716Y-111344994D01*
X100766030Y-111212521D01*
X100766031Y-111212520D01*
X100890518Y-111051695D01*
X100980088Y-110869093D01*
X101005746Y-110770000D01*
X100203611Y-110770000D01*
X100243110Y-110745543D01*
X100310701Y-110656038D01*
X100341395Y-110548160D01*
X100331046Y-110436479D01*
X100281052Y-110336078D01*
X100208569Y-110270000D01*
X101010866Y-110270000D01*
X101010568Y-110268053D01*
X101008992Y-110261966D01*
X101010576Y-110261555D01*
X101006308Y-110199870D01*
X101039935Y-110138625D01*
X101084080Y-110110327D01*
X101129586Y-110093354D01*
X101129593Y-110093350D01*
X101244687Y-110007190D01*
X101244690Y-110007187D01*
X101330850Y-109892093D01*
X101330854Y-109892086D01*
X101381096Y-109757379D01*
X101381098Y-109757372D01*
X101387499Y-109697844D01*
X101387500Y-109697827D01*
X101387500Y-109650000D01*
X100186500Y-109650000D01*
X100119461Y-109630315D01*
X100073706Y-109577511D01*
X100062500Y-109526000D01*
X100062500Y-109482500D01*
X100082185Y-109415461D01*
X100134989Y-109369706D01*
X100186500Y-109358500D01*
X100936138Y-109358500D01*
X100936154Y-109358499D01*
X100963192Y-109355591D01*
X100996701Y-109351989D01*
X101133704Y-109300889D01*
X101250761Y-109213261D01*
X101260920Y-109199689D01*
X101316853Y-109157818D01*
X101360187Y-109150000D01*
X101387500Y-109150000D01*
X101387500Y-109102172D01*
X101387499Y-109102155D01*
X101381098Y-109042626D01*
X101380936Y-109041939D01*
X101380965Y-109041389D01*
X101380269Y-109034912D01*
X101381318Y-109034799D01*
X101384673Y-108972169D01*
X101385431Y-108970080D01*
X101389489Y-108959201D01*
X101392252Y-108933500D01*
X101395999Y-108898654D01*
X101396000Y-108898637D01*
X101396000Y-108301362D01*
X101395999Y-108301345D01*
X101388660Y-108233087D01*
X101389542Y-108232992D01*
X101389542Y-108192007D01*
X101388660Y-108191913D01*
X101395999Y-108123654D01*
X101396000Y-108123637D01*
X101396000Y-107776362D01*
X101395998Y-107776343D01*
X101389216Y-107713254D01*
X101389216Y-107686743D01*
X101395999Y-107623654D01*
X101396000Y-107623637D01*
X101396000Y-107276362D01*
X101395999Y-107276348D01*
X101393190Y-107250228D01*
X101389489Y-107215799D01*
X101389488Y-107215796D01*
X101389215Y-107213257D01*
X101389215Y-107186741D01*
X101389487Y-107184204D01*
X101389489Y-107184201D01*
X101391097Y-107169239D01*
X101417837Y-107104691D01*
X101475231Y-107064844D01*
X101514386Y-107058500D01*
X103067500Y-107058500D01*
X103134539Y-107078185D01*
X103180294Y-107130989D01*
X103191500Y-107182500D01*
X103191500Y-107298654D01*
X103198011Y-107359202D01*
X103198011Y-107359204D01*
X103252210Y-107504512D01*
X103249308Y-107505594D01*
X103260886Y-107558874D01*
X103250340Y-107594790D01*
X103252210Y-107595488D01*
X103198011Y-107740795D01*
X103198011Y-107740797D01*
X103191500Y-107801345D01*
X103191500Y-108798654D01*
X103198011Y-108859202D01*
X103198011Y-108859204D01*
X103249111Y-108996204D01*
X103251203Y-109000035D01*
X103252130Y-109004299D01*
X103252210Y-109004512D01*
X103252179Y-109004523D01*
X103266056Y-109068308D01*
X103258554Y-109102796D01*
X103206403Y-109242620D01*
X103206401Y-109242627D01*
X103200000Y-109302155D01*
X103200000Y-109550000D01*
X105700000Y-109550000D01*
X105700000Y-109302172D01*
X105699999Y-109302155D01*
X105693598Y-109242627D01*
X105693597Y-109242623D01*
X105641445Y-109102798D01*
X105636461Y-109033106D01*
X105648808Y-109000013D01*
X105649881Y-108998049D01*
X105699298Y-108948654D01*
X105758700Y-108933500D01*
X106152840Y-108933500D01*
X106218812Y-108952507D01*
X106346977Y-109033039D01*
X106346980Y-109033041D01*
X106346984Y-109033042D01*
X106346985Y-109033043D01*
X106474857Y-109077787D01*
X106531633Y-109118509D01*
X106557380Y-109183462D01*
X106543924Y-109252023D01*
X106521583Y-109282510D01*
X105790412Y-110013681D01*
X105729089Y-110047166D01*
X105702731Y-110050000D01*
X103200000Y-110050000D01*
X103200000Y-110297844D01*
X103206401Y-110357372D01*
X103206403Y-110357379D01*
X103256645Y-110492086D01*
X103256649Y-110492093D01*
X103342809Y-110607187D01*
X103342812Y-110607190D01*
X103457906Y-110693350D01*
X103457913Y-110693354D01*
X103592620Y-110743596D01*
X103592627Y-110743598D01*
X103652155Y-110749999D01*
X103652172Y-110750000D01*
X104140581Y-110750000D01*
X104207620Y-110769685D01*
X104253375Y-110822489D01*
X104263319Y-110891647D01*
X104256763Y-110917334D01*
X104248010Y-110940798D01*
X104241500Y-111001345D01*
X104241500Y-112598654D01*
X104248011Y-112659202D01*
X104248011Y-112659204D01*
X104299110Y-112796204D01*
X104299111Y-112796204D01*
X104386739Y-112913261D01*
X104503796Y-113000889D01*
X104613109Y-113041661D01*
X104640793Y-113051987D01*
X104640799Y-113051989D01*
X104668050Y-113054918D01*
X104701345Y-113058499D01*
X104701362Y-113058500D01*
X105698638Y-113058500D01*
X105698654Y-113058499D01*
X105725692Y-113055591D01*
X105759201Y-113051989D01*
X105759205Y-113051987D01*
X105759207Y-113051987D01*
X105904514Y-112997790D01*
X105905599Y-113000700D01*
X105958805Y-112989108D01*
X105994784Y-112999672D01*
X105995486Y-112997790D01*
X106140792Y-113051987D01*
X106140795Y-113051987D01*
X106140799Y-113051989D01*
X106170270Y-113055157D01*
X106201345Y-113058499D01*
X106201362Y-113058500D01*
X107198638Y-113058500D01*
X107198654Y-113058499D01*
X107225692Y-113055591D01*
X107259201Y-113051989D01*
X107259205Y-113051987D01*
X107259207Y-113051987D01*
X107404514Y-112997790D01*
X107405599Y-113000700D01*
X107458805Y-112989108D01*
X107494784Y-112999672D01*
X107495486Y-112997790D01*
X107640792Y-113051987D01*
X107640795Y-113051987D01*
X107640799Y-113051989D01*
X107670270Y-113055157D01*
X107701345Y-113058499D01*
X107701362Y-113058500D01*
X108698638Y-113058500D01*
X108698654Y-113058499D01*
X108725692Y-113055591D01*
X108759201Y-113051989D01*
X108759205Y-113051987D01*
X108759207Y-113051987D01*
X108904514Y-112997790D01*
X108905599Y-113000700D01*
X108958805Y-112989108D01*
X108994784Y-112999672D01*
X108995486Y-112997790D01*
X109140792Y-113051987D01*
X109140795Y-113051987D01*
X109140799Y-113051989D01*
X109170270Y-113055157D01*
X109201345Y-113058499D01*
X109201362Y-113058500D01*
X110198638Y-113058500D01*
X110198654Y-113058499D01*
X110225692Y-113055591D01*
X110259201Y-113051989D01*
X110259205Y-113051987D01*
X110259207Y-113051987D01*
X110404514Y-112997790D01*
X110405599Y-113000700D01*
X110458805Y-112989108D01*
X110494784Y-112999672D01*
X110495486Y-112997790D01*
X110640792Y-113051987D01*
X110640795Y-113051987D01*
X110640799Y-113051989D01*
X110670270Y-113055157D01*
X110701345Y-113058499D01*
X110701362Y-113058500D01*
X111698638Y-113058500D01*
X111698654Y-113058499D01*
X111725692Y-113055591D01*
X111759201Y-113051989D01*
X111759205Y-113051987D01*
X111759207Y-113051987D01*
X111904514Y-112997790D01*
X111905599Y-113000700D01*
X111958805Y-112989108D01*
X111994784Y-112999672D01*
X111995486Y-112997790D01*
X112140792Y-113051987D01*
X112140795Y-113051987D01*
X112140799Y-113051989D01*
X112170270Y-113055157D01*
X112201345Y-113058499D01*
X112201362Y-113058500D01*
X113198638Y-113058500D01*
X113198654Y-113058499D01*
X113225692Y-113055591D01*
X113259201Y-113051989D01*
X113259205Y-113051987D01*
X113259207Y-113051987D01*
X113404514Y-112997790D01*
X113405599Y-113000700D01*
X113458805Y-112989108D01*
X113494784Y-112999672D01*
X113495486Y-112997790D01*
X113640792Y-113051987D01*
X113640795Y-113051987D01*
X113640799Y-113051989D01*
X113670270Y-113055157D01*
X113701345Y-113058499D01*
X113701362Y-113058500D01*
X114698638Y-113058500D01*
X114698654Y-113058499D01*
X114725692Y-113055591D01*
X114759201Y-113051989D01*
X114759205Y-113051987D01*
X114759207Y-113051987D01*
X114904514Y-112997790D01*
X114905599Y-113000700D01*
X114958805Y-112989108D01*
X114994784Y-112999672D01*
X114995486Y-112997790D01*
X115140792Y-113051987D01*
X115140795Y-113051987D01*
X115140799Y-113051989D01*
X115170270Y-113055157D01*
X115201345Y-113058499D01*
X115201362Y-113058500D01*
X116198638Y-113058500D01*
X116198654Y-113058499D01*
X116225692Y-113055591D01*
X116259201Y-113051989D01*
X116259205Y-113051987D01*
X116259207Y-113051987D01*
X116404514Y-112997790D01*
X116405599Y-113000700D01*
X116458805Y-112989108D01*
X116494784Y-112999672D01*
X116495486Y-112997790D01*
X116640792Y-113051987D01*
X116640795Y-113051987D01*
X116640799Y-113051989D01*
X116670270Y-113055157D01*
X116701345Y-113058499D01*
X116701362Y-113058500D01*
X117698638Y-113058500D01*
X117698654Y-113058499D01*
X117725692Y-113055591D01*
X117759201Y-113051989D01*
X117759205Y-113051987D01*
X117759207Y-113051987D01*
X117904514Y-112997790D01*
X117905599Y-113000700D01*
X117958805Y-112989108D01*
X117994784Y-112999672D01*
X117995486Y-112997790D01*
X118140792Y-113051987D01*
X118140795Y-113051987D01*
X118140799Y-113051989D01*
X118170270Y-113055157D01*
X118201345Y-113058499D01*
X118201362Y-113058500D01*
X119198638Y-113058500D01*
X119198654Y-113058499D01*
X119225692Y-113055591D01*
X119259201Y-113051989D01*
X119259205Y-113051987D01*
X119259207Y-113051987D01*
X119404514Y-112997790D01*
X119405599Y-113000700D01*
X119458805Y-112989108D01*
X119494784Y-112999672D01*
X119495486Y-112997790D01*
X119640792Y-113051987D01*
X119640795Y-113051987D01*
X119640799Y-113051989D01*
X119670270Y-113055157D01*
X119701345Y-113058499D01*
X119701362Y-113058500D01*
X120211234Y-113058500D01*
X120278273Y-113078185D01*
X120298914Y-113094818D01*
X121537665Y-114333570D01*
X121571149Y-114394891D01*
X121573983Y-114421249D01*
X121573983Y-116153411D01*
X121554298Y-116220450D01*
X121501494Y-116266205D01*
X121432336Y-116276149D01*
X121368780Y-116247124D01*
X121362302Y-116241092D01*
X120736614Y-115615403D01*
X120736608Y-115615398D01*
X120736605Y-115615395D01*
X120689176Y-115577175D01*
X120680630Y-115573272D01*
X120556170Y-115516432D01*
X120556165Y-115516431D01*
X120411433Y-115495623D01*
X120266700Y-115516431D01*
X120266695Y-115516432D01*
X120133693Y-115577173D01*
X120133688Y-115577176D01*
X120086251Y-115615403D01*
X118815403Y-116886251D01*
X118777176Y-116933688D01*
X118777173Y-116933693D01*
X118716432Y-117066695D01*
X118716431Y-117066699D01*
X118701438Y-117170985D01*
X118672413Y-117234541D01*
X118613635Y-117272315D01*
X118543765Y-117272315D01*
X118491019Y-117241019D01*
X115500000Y-114250000D01*
X115499999Y-114250000D01*
X110297504Y-115146982D01*
X108250000Y-115500000D01*
X98750000Y-118000000D01*
X98749992Y-118000002D01*
X98749991Y-118000003D01*
X98749992Y-118000003D01*
X97973667Y-118274000D01*
X94665270Y-119441669D01*
X94595501Y-119445419D01*
X94534780Y-119410853D01*
X94502386Y-119348947D01*
X94500000Y-119324738D01*
X94500000Y-111603063D01*
X94519685Y-111536024D01*
X94572489Y-111490269D01*
X94641647Y-111480325D01*
X94648961Y-111481601D01*
X94835810Y-111520000D01*
X95087500Y-111520000D01*
X95087500Y-110820000D01*
X95587500Y-110820000D01*
X95587500Y-111520000D01*
X95788213Y-111520000D01*
X95939838Y-111504581D01*
X96133881Y-111443700D01*
X96133891Y-111443695D01*
X96311715Y-111344994D01*
X96311716Y-111344994D01*
X96466030Y-111212521D01*
X96466031Y-111212520D01*
X96590518Y-111051695D01*
X96680088Y-110869093D01*
X96705746Y-110770000D01*
X95903611Y-110770000D01*
X95943110Y-110745543D01*
X96010701Y-110656038D01*
X96041395Y-110548160D01*
X96031046Y-110436479D01*
X95981052Y-110336078D01*
X95908569Y-110270000D01*
X96710866Y-110270000D01*
X96710568Y-110268053D01*
X96710566Y-110268047D01*
X96639937Y-110077342D01*
X96639934Y-110077335D01*
X96532350Y-109904732D01*
X96392235Y-109757331D01*
X96392233Y-109757330D01*
X96225304Y-109641143D01*
X96038407Y-109560940D01*
X95839190Y-109520000D01*
X95587500Y-109520000D01*
X95587500Y-110220000D01*
X95087500Y-110220000D01*
X95087500Y-109520000D01*
X94886787Y-109520000D01*
X94735161Y-109535418D01*
X94661121Y-109558649D01*
X94591263Y-109559936D01*
X94531799Y-109523251D01*
X94501608Y-109460241D01*
X94500000Y-109440336D01*
X94500000Y-102963063D01*
X94519685Y-102896024D01*
X94572489Y-102850269D01*
X94641647Y-102840325D01*
X94648961Y-102841601D01*
X94835810Y-102880000D01*
X95087500Y-102880000D01*
X95087500Y-102180000D01*
X95587500Y-102180000D01*
X95587500Y-102880000D01*
G37*
%TD.AperFunction*%
%TA.AperFunction,Conductor*%
G36*
X123994784Y-112999672D02*
G01*
X123995486Y-112997790D01*
X124140792Y-113051987D01*
X124140795Y-113051987D01*
X124140799Y-113051989D01*
X124170270Y-113055157D01*
X124201345Y-113058499D01*
X124201362Y-113058500D01*
X125198638Y-113058500D01*
X125198654Y-113058499D01*
X125225692Y-113055591D01*
X125259201Y-113051989D01*
X125259207Y-113051987D01*
X125286891Y-113041661D01*
X125396204Y-113000889D01*
X125396205Y-113000887D01*
X125399165Y-112999784D01*
X125468857Y-112994798D01*
X125530180Y-113028283D01*
X125563666Y-113089606D01*
X125566500Y-113115965D01*
X125566500Y-113679058D01*
X125546815Y-113746097D01*
X125494011Y-113791852D01*
X125464512Y-113799863D01*
X125464691Y-113800696D01*
X125458076Y-113802111D01*
X125289764Y-113857884D01*
X125289759Y-113857886D01*
X125138846Y-113950971D01*
X125013471Y-114076346D01*
X124920386Y-114227259D01*
X124920384Y-114227264D01*
X124876510Y-114359669D01*
X124836737Y-114417114D01*
X124772222Y-114443937D01*
X124703446Y-114431622D01*
X124652246Y-114384079D01*
X124634865Y-114324558D01*
X124634208Y-114303644D01*
X124628514Y-114284049D01*
X124624567Y-114264992D01*
X124622009Y-114244738D01*
X124604623Y-114200826D01*
X124602731Y-114195299D01*
X124594676Y-114167575D01*
X124589553Y-114149941D01*
X124579160Y-114132368D01*
X124570598Y-114114890D01*
X124563087Y-114095918D01*
X124563085Y-114095915D01*
X124563084Y-114095913D01*
X124535329Y-114057712D01*
X124532121Y-114052828D01*
X124524168Y-114039382D01*
X124508077Y-114012172D01*
X124493643Y-113997738D01*
X124481004Y-113982941D01*
X124469006Y-113966427D01*
X124432619Y-113936325D01*
X124428297Y-113932392D01*
X123741731Y-113245826D01*
X123708246Y-113184503D01*
X123713230Y-113114811D01*
X123755102Y-113058878D01*
X123786073Y-113041965D01*
X123896204Y-113000889D01*
X123896204Y-113000888D01*
X123904515Y-112997789D01*
X123905600Y-113000699D01*
X123958805Y-112989108D01*
X123994784Y-112999672D01*
G37*
%TD.AperFunction*%
%TA.AperFunction,Conductor*%
G36*
X127784539Y-111569685D02*
G01*
X127830294Y-111622489D01*
X127841500Y-111674000D01*
X127841500Y-113667500D01*
X127821815Y-113734539D01*
X127769011Y-113780294D01*
X127717500Y-113791500D01*
X127386963Y-113791500D01*
X127386946Y-113791501D01*
X127283072Y-113802113D01*
X127114764Y-113857884D01*
X127114759Y-113857886D01*
X127022597Y-113914733D01*
X126955204Y-113933173D01*
X126888541Y-113912250D01*
X126843771Y-113858608D01*
X126833500Y-113809194D01*
X126833500Y-113108700D01*
X126853185Y-113041661D01*
X126898072Y-112999868D01*
X126900037Y-112998795D01*
X126968310Y-112983943D01*
X127002799Y-112991445D01*
X127142623Y-113043597D01*
X127142627Y-113043598D01*
X127202155Y-113049999D01*
X127202172Y-113050000D01*
X127450000Y-113050000D01*
X127450000Y-111674000D01*
X127469685Y-111606961D01*
X127522489Y-111561206D01*
X127574000Y-111550000D01*
X127717500Y-111550000D01*
X127784539Y-111569685D01*
G37*
%TD.AperFunction*%
%TA.AperFunction,Conductor*%
G36*
X125460813Y-98085091D02*
G01*
X125516747Y-98126962D01*
X125534520Y-98160315D01*
X125555283Y-98219654D01*
X125566957Y-98253016D01*
X125633678Y-98359201D01*
X125663889Y-98407281D01*
X125792719Y-98536111D01*
X125946985Y-98633043D01*
X126118953Y-98693216D01*
X126118953Y-98693217D01*
X126118958Y-98693218D01*
X126299996Y-98713616D01*
X126300000Y-98713616D01*
X126300004Y-98713616D01*
X126428617Y-98699125D01*
X126497439Y-98711180D01*
X126548818Y-98758529D01*
X126566500Y-98822345D01*
X126566500Y-109366366D01*
X126564761Y-109382113D01*
X126565032Y-109382139D01*
X126564298Y-109389905D01*
X126566500Y-109459957D01*
X126566500Y-109489859D01*
X126567384Y-109496856D01*
X126567842Y-109502679D01*
X126569326Y-109549889D01*
X126569327Y-109549891D01*
X126575022Y-109569495D01*
X126578967Y-109588542D01*
X126581526Y-109608797D01*
X126581527Y-109608800D01*
X126581528Y-109608803D01*
X126598914Y-109652716D01*
X126600806Y-109658244D01*
X126613981Y-109703592D01*
X126624372Y-109721162D01*
X126632932Y-109738635D01*
X126640447Y-109757617D01*
X126668209Y-109795827D01*
X126671416Y-109800710D01*
X126695458Y-109841362D01*
X126695462Y-109841366D01*
X126709889Y-109855793D01*
X126722527Y-109870589D01*
X126734528Y-109887107D01*
X126734530Y-109887109D01*
X126740555Y-109892093D01*
X126770931Y-109917222D01*
X126775231Y-109921135D01*
X126992721Y-110138625D01*
X127202073Y-110347977D01*
X127235558Y-110409300D01*
X127230574Y-110478992D01*
X127188702Y-110534925D01*
X127149694Y-110553161D01*
X127149892Y-110553691D01*
X127143316Y-110556143D01*
X127142909Y-110556334D01*
X127142627Y-110556400D01*
X127002796Y-110608554D01*
X126933104Y-110613538D01*
X126900035Y-110601203D01*
X126896204Y-110599111D01*
X126759203Y-110548011D01*
X126698654Y-110541500D01*
X126698638Y-110541500D01*
X125701362Y-110541500D01*
X125701345Y-110541500D01*
X125640797Y-110548011D01*
X125640795Y-110548011D01*
X125495488Y-110602210D01*
X125494405Y-110599308D01*
X125441126Y-110610886D01*
X125405212Y-110600337D01*
X125404514Y-110602210D01*
X125259207Y-110548012D01*
X125259202Y-110548011D01*
X125198654Y-110541500D01*
X125198638Y-110541500D01*
X124201362Y-110541500D01*
X124201345Y-110541500D01*
X124140797Y-110548011D01*
X124140795Y-110548011D01*
X123995488Y-110602210D01*
X123994405Y-110599308D01*
X123941126Y-110610886D01*
X123905209Y-110600340D01*
X123904512Y-110602210D01*
X123896204Y-110599111D01*
X123868642Y-110588830D01*
X123759203Y-110548011D01*
X123698654Y-110541500D01*
X123698638Y-110541500D01*
X122701362Y-110541500D01*
X122701345Y-110541500D01*
X122640797Y-110548011D01*
X122640795Y-110548011D01*
X122495488Y-110602210D01*
X122494405Y-110599308D01*
X122441126Y-110610886D01*
X122405209Y-110600340D01*
X122404512Y-110602210D01*
X122396204Y-110599111D01*
X122368642Y-110588830D01*
X122259203Y-110548011D01*
X122198654Y-110541500D01*
X122198638Y-110541500D01*
X121201362Y-110541500D01*
X121201345Y-110541500D01*
X121140797Y-110548011D01*
X121140795Y-110548011D01*
X120995488Y-110602210D01*
X120994405Y-110599308D01*
X120941126Y-110610886D01*
X120905209Y-110600340D01*
X120904512Y-110602210D01*
X120896204Y-110599111D01*
X120868642Y-110588830D01*
X120759203Y-110548011D01*
X120698654Y-110541500D01*
X120698638Y-110541500D01*
X119701362Y-110541500D01*
X119701345Y-110541500D01*
X119640797Y-110548011D01*
X119640795Y-110548011D01*
X119495488Y-110602210D01*
X119494405Y-110599308D01*
X119441126Y-110610886D01*
X119405212Y-110600337D01*
X119404514Y-110602210D01*
X119259207Y-110548012D01*
X119259202Y-110548011D01*
X119198654Y-110541500D01*
X119198638Y-110541500D01*
X118201362Y-110541500D01*
X118201345Y-110541500D01*
X118140797Y-110548011D01*
X118140795Y-110548011D01*
X117995488Y-110602210D01*
X117994405Y-110599308D01*
X117941126Y-110610886D01*
X117905209Y-110600340D01*
X117904512Y-110602210D01*
X117896204Y-110599111D01*
X117868642Y-110588830D01*
X117759203Y-110548011D01*
X117698654Y-110541500D01*
X117698638Y-110541500D01*
X116701362Y-110541500D01*
X116701345Y-110541500D01*
X116640797Y-110548011D01*
X116640795Y-110548011D01*
X116495488Y-110602210D01*
X116494405Y-110599308D01*
X116441126Y-110610886D01*
X116405209Y-110600340D01*
X116404512Y-110602210D01*
X116396204Y-110599111D01*
X116368642Y-110588830D01*
X116259203Y-110548011D01*
X116198654Y-110541500D01*
X116198638Y-110541500D01*
X115201362Y-110541500D01*
X115201345Y-110541500D01*
X115140797Y-110548011D01*
X115140795Y-110548011D01*
X114995488Y-110602210D01*
X114994405Y-110599308D01*
X114941126Y-110610886D01*
X114905209Y-110600340D01*
X114904512Y-110602210D01*
X114896204Y-110599111D01*
X114868642Y-110588830D01*
X114759203Y-110548011D01*
X114698654Y-110541500D01*
X114698638Y-110541500D01*
X114553766Y-110541500D01*
X114486727Y-110521815D01*
X114440972Y-110469011D01*
X114431028Y-110399853D01*
X114460053Y-110336297D01*
X114466085Y-110329819D01*
X115269905Y-109526000D01*
X116276135Y-108519770D01*
X116276135Y-108519769D01*
X116281499Y-108514406D01*
X116281514Y-108514388D01*
X116288815Y-108507087D01*
X116301180Y-108497183D01*
X116301006Y-108496973D01*
X116307012Y-108492003D01*
X116307018Y-108492000D01*
X116354999Y-108440904D01*
X116376134Y-108419770D01*
X116380463Y-108414187D01*
X116384242Y-108409763D01*
X116416586Y-108375321D01*
X116426423Y-108357424D01*
X116437097Y-108341174D01*
X116449613Y-108325041D01*
X116468372Y-108281689D01*
X116470933Y-108276462D01*
X116493695Y-108235060D01*
X116498774Y-108215274D01*
X116505072Y-108196882D01*
X116513181Y-108178145D01*
X116520568Y-108131501D01*
X116521748Y-108125794D01*
X116533500Y-108080030D01*
X116533500Y-108059609D01*
X116535027Y-108040209D01*
X116535519Y-108037107D01*
X116538219Y-108020057D01*
X116536986Y-108007016D01*
X116533775Y-107973040D01*
X116533500Y-107967203D01*
X116533500Y-105947160D01*
X116552507Y-105881188D01*
X116633039Y-105753022D01*
X116633041Y-105753019D01*
X116633041Y-105753017D01*
X116633043Y-105753015D01*
X116693217Y-105581047D01*
X116696375Y-105553019D01*
X116713616Y-105400003D01*
X116713616Y-105399996D01*
X116693218Y-105218958D01*
X116693217Y-105218953D01*
X116679241Y-105179013D01*
X116633043Y-105046985D01*
X116536111Y-104892719D01*
X116407281Y-104763889D01*
X116370527Y-104740795D01*
X116253017Y-104666958D01*
X116253016Y-104666957D01*
X116253015Y-104666957D01*
X116154937Y-104632638D01*
X116081046Y-104606782D01*
X116081041Y-104606781D01*
X115900004Y-104586384D01*
X115899996Y-104586384D01*
X115718958Y-104606781D01*
X115718953Y-104606782D01*
X115546982Y-104666958D01*
X115392718Y-104763889D01*
X115387681Y-104768927D01*
X115326358Y-104802412D01*
X115256666Y-104797428D01*
X115212319Y-104768927D01*
X115207281Y-104763889D01*
X115053017Y-104666958D01*
X115053016Y-104666957D01*
X115053015Y-104666957D01*
X114954937Y-104632638D01*
X114881046Y-104606782D01*
X114881041Y-104606781D01*
X114700004Y-104586384D01*
X114699996Y-104586384D01*
X114518958Y-104606781D01*
X114518953Y-104606782D01*
X114346982Y-104666958D01*
X114192719Y-104763889D01*
X114192712Y-104763894D01*
X114187671Y-104768935D01*
X114126345Y-104802414D01*
X114056654Y-104797422D01*
X114012318Y-104768926D01*
X114007281Y-104763889D01*
X113853017Y-104666958D01*
X113853016Y-104666957D01*
X113853015Y-104666957D01*
X113754937Y-104632638D01*
X113681046Y-104606782D01*
X113681041Y-104606781D01*
X113500004Y-104586384D01*
X113499996Y-104586384D01*
X113318958Y-104606781D01*
X113318953Y-104606782D01*
X113146982Y-104666958D01*
X113065972Y-104717860D01*
X112998735Y-104736860D01*
X112934028Y-104717860D01*
X112853017Y-104666958D01*
X112853016Y-104666957D01*
X112853015Y-104666957D01*
X112754937Y-104632638D01*
X112681046Y-104606782D01*
X112681041Y-104606781D01*
X112500004Y-104586384D01*
X112499996Y-104586384D01*
X112318958Y-104606781D01*
X112318953Y-104606782D01*
X112146984Y-104666957D01*
X112112944Y-104688346D01*
X112085389Y-104705659D01*
X112018154Y-104724659D01*
X111951319Y-104704291D01*
X111931738Y-104688346D01*
X111907281Y-104663889D01*
X111753017Y-104566958D01*
X111753016Y-104566957D01*
X111753015Y-104566957D01*
X111679371Y-104541188D01*
X111581046Y-104506782D01*
X111581041Y-104506781D01*
X111400004Y-104486384D01*
X111399996Y-104486384D01*
X111218958Y-104506781D01*
X111218953Y-104506782D01*
X111046984Y-104566957D01*
X111016067Y-104586384D01*
X110985389Y-104605659D01*
X110918154Y-104624659D01*
X110851319Y-104604291D01*
X110831738Y-104588346D01*
X110807281Y-104563889D01*
X110653017Y-104466958D01*
X110653016Y-104466957D01*
X110653015Y-104466957D01*
X110598693Y-104447949D01*
X110481046Y-104406782D01*
X110481041Y-104406781D01*
X110300004Y-104386384D01*
X110299996Y-104386384D01*
X110118958Y-104406781D01*
X110118953Y-104406782D01*
X109946982Y-104466958D01*
X109792718Y-104563889D01*
X109663889Y-104692718D01*
X109566958Y-104846982D01*
X109506782Y-105018953D01*
X109506781Y-105018958D01*
X109486384Y-105199996D01*
X109486384Y-105200003D01*
X109506781Y-105381041D01*
X109506782Y-105381046D01*
X109566958Y-105553019D01*
X109566960Y-105553022D01*
X109647493Y-105681188D01*
X109666500Y-105747160D01*
X109666500Y-106086231D01*
X109646815Y-106153270D01*
X109630181Y-106173912D01*
X107682510Y-108121583D01*
X107621187Y-108155068D01*
X107551495Y-108150084D01*
X107495562Y-108108212D01*
X107477787Y-108074857D01*
X107474503Y-108065472D01*
X107433043Y-107946985D01*
X107336111Y-107792719D01*
X107207281Y-107663889D01*
X107143222Y-107623638D01*
X107053017Y-107566958D01*
X107053016Y-107566957D01*
X107053015Y-107566957D01*
X106998693Y-107547949D01*
X106881046Y-107506782D01*
X106881041Y-107506781D01*
X106700004Y-107486384D01*
X106699996Y-107486384D01*
X106518958Y-107506781D01*
X106518953Y-107506782D01*
X106346980Y-107566958D01*
X106346977Y-107566960D01*
X106218812Y-107647493D01*
X106152840Y-107666500D01*
X105765966Y-107666500D01*
X105698927Y-107646815D01*
X105653172Y-107594011D01*
X105643228Y-107524853D01*
X105649784Y-107499166D01*
X105701989Y-107359201D01*
X105708499Y-107298654D01*
X105708500Y-107298637D01*
X105708500Y-106301362D01*
X105708499Y-106301345D01*
X105705157Y-106270270D01*
X105701989Y-106240799D01*
X105701987Y-106240795D01*
X105701987Y-106240792D01*
X105647790Y-106095486D01*
X105650700Y-106094400D01*
X105639108Y-106041195D01*
X105649672Y-106005215D01*
X105647790Y-106004514D01*
X105701987Y-105859207D01*
X105701987Y-105859205D01*
X105701989Y-105859201D01*
X105705591Y-105825692D01*
X105708499Y-105798654D01*
X105708500Y-105798637D01*
X105708500Y-104801362D01*
X105708499Y-104801345D01*
X105704471Y-104763889D01*
X105701989Y-104740799D01*
X105701987Y-104740795D01*
X105701987Y-104740792D01*
X105647790Y-104595486D01*
X105650700Y-104594400D01*
X105639108Y-104541195D01*
X105649672Y-104505215D01*
X105647790Y-104504514D01*
X105701987Y-104359207D01*
X105701988Y-104359204D01*
X105701989Y-104359201D01*
X105708342Y-104300110D01*
X105708499Y-104298654D01*
X105708500Y-104298637D01*
X105708500Y-103610000D01*
X117100000Y-103610000D01*
X117100000Y-103957844D01*
X117106401Y-104017372D01*
X117106403Y-104017379D01*
X117156645Y-104152086D01*
X117156649Y-104152093D01*
X117242809Y-104267187D01*
X117242812Y-104267190D01*
X117357906Y-104353350D01*
X117357913Y-104353354D01*
X117492620Y-104403596D01*
X117492627Y-104403598D01*
X117552155Y-104409999D01*
X117552172Y-104410000D01*
X117900000Y-104410000D01*
X117900000Y-103610000D01*
X118400000Y-103610000D01*
X118400000Y-104410000D01*
X118747828Y-104410000D01*
X118747844Y-104409999D01*
X118807377Y-104403597D01*
X118807378Y-104403597D01*
X118856665Y-104385214D01*
X118926356Y-104380228D01*
X118943335Y-104385214D01*
X118992621Y-104403597D01*
X119052155Y-104409999D01*
X119052172Y-104410000D01*
X119400000Y-104410000D01*
X119400000Y-103610000D01*
X119900000Y-103610000D01*
X119900000Y-104410000D01*
X120247828Y-104410000D01*
X120247844Y-104409999D01*
X120307377Y-104403597D01*
X120307378Y-104403597D01*
X120356665Y-104385214D01*
X120426356Y-104380228D01*
X120443335Y-104385214D01*
X120492621Y-104403597D01*
X120552155Y-104409999D01*
X120552172Y-104410000D01*
X120900000Y-104410000D01*
X120900000Y-104409999D01*
X121399999Y-104409999D01*
X121400000Y-104410000D01*
X121747828Y-104410000D01*
X121747844Y-104409999D01*
X121807372Y-104403598D01*
X121807379Y-104403596D01*
X121942086Y-104353354D01*
X121942093Y-104353350D01*
X122057187Y-104267190D01*
X122057190Y-104267187D01*
X122143350Y-104152093D01*
X122143354Y-104152086D01*
X122193596Y-104017379D01*
X122193598Y-104017372D01*
X122199999Y-103957844D01*
X122200000Y-103957827D01*
X122200000Y-103610000D01*
X121400000Y-103610000D01*
X121399999Y-104409999D01*
X120900000Y-104409999D01*
X120900000Y-103610000D01*
X119900000Y-103610000D01*
X119400000Y-103610000D01*
X118400000Y-103610000D01*
X117900000Y-103610000D01*
X117100000Y-103610000D01*
X105708500Y-103610000D01*
X105708500Y-103301362D01*
X105708499Y-103301345D01*
X105702833Y-103248654D01*
X105701989Y-103240799D01*
X105701987Y-103240795D01*
X105701987Y-103240792D01*
X105647790Y-103095486D01*
X105650700Y-103094400D01*
X105639108Y-103041195D01*
X105649672Y-103005215D01*
X105647790Y-103004514D01*
X105701987Y-102859207D01*
X105701988Y-102859204D01*
X105701989Y-102859201D01*
X105706548Y-102816793D01*
X105708499Y-102798654D01*
X105708500Y-102798637D01*
X105708500Y-102110000D01*
X117100000Y-102110000D01*
X117100000Y-102457844D01*
X117106401Y-102517372D01*
X117106403Y-102517379D01*
X117124786Y-102566666D01*
X117129770Y-102636357D01*
X117124786Y-102653331D01*
X117106403Y-102702616D01*
X117106401Y-102702627D01*
X117100000Y-102762155D01*
X117100000Y-103110000D01*
X117900000Y-103110000D01*
X117900000Y-102110000D01*
X118400000Y-102110000D01*
X118400000Y-103110000D01*
X119400000Y-103110000D01*
X119400000Y-102110000D01*
X119900000Y-102110000D01*
X119900000Y-103110000D01*
X120899999Y-103110000D01*
X120900000Y-102110000D01*
X121400000Y-102110000D01*
X121400000Y-103110000D01*
X122200000Y-103110000D01*
X122200000Y-102762172D01*
X122199999Y-102762155D01*
X122193597Y-102702622D01*
X122193597Y-102702621D01*
X122175214Y-102653335D01*
X122170228Y-102583644D01*
X122175214Y-102566665D01*
X122193597Y-102517378D01*
X122193597Y-102517377D01*
X122199999Y-102457844D01*
X122200000Y-102457827D01*
X122200000Y-102110000D01*
X121400000Y-102110000D01*
X120900000Y-102110000D01*
X119900000Y-102110000D01*
X119400000Y-102110000D01*
X118400000Y-102110000D01*
X117900000Y-102110000D01*
X117100000Y-102110000D01*
X105708500Y-102110000D01*
X105708500Y-101801362D01*
X105708499Y-101801345D01*
X105703535Y-101755181D01*
X105701989Y-101740799D01*
X105701987Y-101740795D01*
X105701987Y-101740792D01*
X105647790Y-101595486D01*
X105650700Y-101594400D01*
X105639108Y-101541195D01*
X105649672Y-101505215D01*
X105647790Y-101504514D01*
X105701987Y-101359207D01*
X105701988Y-101359204D01*
X105701989Y-101359201D01*
X105705591Y-101325692D01*
X105708499Y-101298654D01*
X105708500Y-101298637D01*
X105708500Y-100610000D01*
X117100000Y-100610000D01*
X117100000Y-100957844D01*
X117106401Y-101017372D01*
X117106403Y-101017380D01*
X117124786Y-101066667D01*
X117129770Y-101136359D01*
X117124786Y-101153333D01*
X117106403Y-101202619D01*
X117106401Y-101202627D01*
X117100000Y-101262155D01*
X117100000Y-101610000D01*
X117900000Y-101610000D01*
X117900000Y-100610000D01*
X118400000Y-100610000D01*
X118400000Y-101610000D01*
X119400000Y-101610000D01*
X119400000Y-100610000D01*
X119900000Y-100610000D01*
X119900000Y-101610000D01*
X120899999Y-101610000D01*
X120900000Y-100610000D01*
X121400000Y-100610000D01*
X121400000Y-101610000D01*
X122200000Y-101610000D01*
X122200000Y-101262172D01*
X122199999Y-101262155D01*
X122193597Y-101202622D01*
X122193597Y-101202621D01*
X122175214Y-101153335D01*
X122170228Y-101083644D01*
X122175214Y-101066665D01*
X122193597Y-101017378D01*
X122193597Y-101017377D01*
X122199999Y-100957844D01*
X122200000Y-100957827D01*
X122200000Y-100610000D01*
X121400000Y-100610000D01*
X120900000Y-100610000D01*
X119900000Y-100610000D01*
X119400000Y-100610000D01*
X118400000Y-100610000D01*
X117900000Y-100610000D01*
X117100000Y-100610000D01*
X105708500Y-100610000D01*
X105708500Y-100301362D01*
X105708499Y-100301345D01*
X105701989Y-100240798D01*
X105649784Y-100100834D01*
X105644800Y-100031143D01*
X105678284Y-99969819D01*
X105739607Y-99936334D01*
X105765966Y-99933500D01*
X116976000Y-99933500D01*
X117043039Y-99953185D01*
X117088794Y-100005989D01*
X117100000Y-100057500D01*
X117100000Y-100110000D01*
X122200000Y-100110000D01*
X122200000Y-100057500D01*
X122219685Y-99990461D01*
X122272489Y-99944706D01*
X122324000Y-99933500D01*
X123116366Y-99933500D01*
X123132113Y-99935238D01*
X123132139Y-99934968D01*
X123139905Y-99935701D01*
X123139909Y-99935702D01*
X123209958Y-99933500D01*
X123239856Y-99933500D01*
X123239857Y-99933500D01*
X123241222Y-99933327D01*
X123246862Y-99932614D01*
X123252685Y-99932156D01*
X123278708Y-99931338D01*
X123299890Y-99930673D01*
X123309681Y-99927827D01*
X123319481Y-99924980D01*
X123338538Y-99921032D01*
X123358797Y-99918474D01*
X123402721Y-99901082D01*
X123408221Y-99899199D01*
X123453593Y-99886018D01*
X123471165Y-99875625D01*
X123488632Y-99867068D01*
X123507617Y-99859552D01*
X123545826Y-99831790D01*
X123550704Y-99828585D01*
X123591362Y-99804542D01*
X123605802Y-99790100D01*
X123620592Y-99777470D01*
X123637107Y-99765472D01*
X123667222Y-99729067D01*
X123671126Y-99724776D01*
X125069629Y-98326273D01*
X125091335Y-98308964D01*
X125107769Y-98298638D01*
X125207281Y-98236111D01*
X125329802Y-98113589D01*
X125391121Y-98080107D01*
X125460813Y-98085091D01*
G37*
%TD.AperFunction*%
%TA.AperFunction,Conductor*%
G36*
X141271098Y-69019685D02*
G01*
X141316853Y-69072489D01*
X141326797Y-69141647D01*
X141297772Y-69205203D01*
X141276947Y-69224316D01*
X141262895Y-69234525D01*
X141262892Y-69234528D01*
X141232790Y-69270914D01*
X141228858Y-69275236D01*
X140021393Y-70482700D01*
X139960070Y-70516185D01*
X139893448Y-70512300D01*
X139871950Y-70504919D01*
X139641712Y-70466500D01*
X139408288Y-70466500D01*
X139389735Y-70469596D01*
X139178045Y-70504920D01*
X138957280Y-70580710D01*
X138957266Y-70580716D01*
X138751988Y-70691806D01*
X138751985Y-70691808D01*
X138567781Y-70835181D01*
X138567776Y-70835185D01*
X138409686Y-71006915D01*
X138282015Y-71202331D01*
X138188251Y-71416092D01*
X138130948Y-71642377D01*
X138111673Y-71874994D01*
X138111673Y-71875005D01*
X138130948Y-72107622D01*
X138188251Y-72333907D01*
X138282015Y-72547668D01*
X138409686Y-72743084D01*
X138567776Y-72914814D01*
X138567780Y-72914818D01*
X138751983Y-73058190D01*
X138751985Y-73058191D01*
X138751988Y-73058193D01*
X138854965Y-73113921D01*
X138957273Y-73169287D01*
X139071914Y-73208643D01*
X139178045Y-73245079D01*
X139178047Y-73245079D01*
X139178049Y-73245080D01*
X139408288Y-73283500D01*
X139408289Y-73283500D01*
X139641711Y-73283500D01*
X139641712Y-73283500D01*
X139871951Y-73245080D01*
X140092727Y-73169287D01*
X140298017Y-73058190D01*
X140482220Y-72914818D01*
X140640314Y-72743083D01*
X140767984Y-72547669D01*
X140861749Y-72333907D01*
X140919051Y-72107626D01*
X140938327Y-71875000D01*
X140932370Y-71803111D01*
X140919052Y-71642382D01*
X140919050Y-71642370D01*
X140882694Y-71498804D01*
X140885319Y-71428984D01*
X140915217Y-71380685D01*
X141926084Y-70369819D01*
X141987408Y-70336334D01*
X142013766Y-70333500D01*
X153060464Y-70333500D01*
X153127503Y-70353185D01*
X153173258Y-70405989D01*
X153183202Y-70475147D01*
X153154177Y-70538703D01*
X153100727Y-70574781D01*
X153060706Y-70588520D01*
X153060698Y-70588523D01*
X152856644Y-70698952D01*
X152826200Y-70722646D01*
X152826200Y-70722647D01*
X153492466Y-71388913D01*
X153482685Y-71390320D01*
X153351900Y-71450048D01*
X153243239Y-71544202D01*
X153165507Y-71665156D01*
X153141923Y-71745476D01*
X152473812Y-71077365D01*
X152389516Y-71206391D01*
X152389514Y-71206395D01*
X152296317Y-71418864D01*
X152239361Y-71643781D01*
X152220202Y-71874994D01*
X152220202Y-71875005D01*
X152239361Y-72106218D01*
X152296317Y-72331135D01*
X152389516Y-72543609D01*
X152473811Y-72672633D01*
X153141922Y-72004522D01*
X153165507Y-72084844D01*
X153243239Y-72205798D01*
X153351900Y-72299952D01*
X153482685Y-72359680D01*
X153492466Y-72361086D01*
X152826199Y-73027351D01*
X152856650Y-73051050D01*
X153060697Y-73161476D01*
X153060706Y-73161479D01*
X153280139Y-73236811D01*
X153508993Y-73275000D01*
X153741007Y-73275000D01*
X153969860Y-73236811D01*
X154189293Y-73161479D01*
X154189302Y-73161476D01*
X154393350Y-73051050D01*
X154423798Y-73027351D01*
X153757533Y-72361086D01*
X153767315Y-72359680D01*
X153898100Y-72299952D01*
X154006761Y-72205798D01*
X154084493Y-72084844D01*
X154108076Y-72004524D01*
X154776186Y-72672634D01*
X154860484Y-72543606D01*
X154953682Y-72331135D01*
X155010638Y-72106218D01*
X155029798Y-71875005D01*
X155029798Y-71874994D01*
X155010638Y-71643781D01*
X154953682Y-71418864D01*
X154860483Y-71206390D01*
X154776186Y-71077364D01*
X154108076Y-71745475D01*
X154084493Y-71665156D01*
X154006761Y-71544202D01*
X153898100Y-71450048D01*
X153767315Y-71390320D01*
X153757534Y-71388913D01*
X154423799Y-70722648D01*
X154423799Y-70722647D01*
X154393349Y-70698949D01*
X154189302Y-70588523D01*
X154189293Y-70588520D01*
X154149273Y-70574781D01*
X154092258Y-70534396D01*
X154066127Y-70469596D01*
X154079178Y-70400956D01*
X154127267Y-70350268D01*
X154189536Y-70333500D01*
X171881030Y-70333500D01*
X171948069Y-70353185D01*
X171968711Y-70369819D01*
X178599095Y-77000204D01*
X178632580Y-77061527D01*
X178627596Y-77131219D01*
X178616911Y-77153049D01*
X178614092Y-77157611D01*
X178553349Y-77290618D01*
X178553348Y-77290623D01*
X178536008Y-77411232D01*
X178532540Y-77435356D01*
X178533323Y-77440799D01*
X178553348Y-77580088D01*
X178553349Y-77580093D01*
X178610429Y-77705079D01*
X178614092Y-77713099D01*
X178652312Y-77760527D01*
X179357493Y-78465708D01*
X179404921Y-78503928D01*
X179404923Y-78503929D01*
X179404926Y-78503931D01*
X179540804Y-78565984D01*
X179593608Y-78611739D01*
X179613293Y-78678778D01*
X179593608Y-78745817D01*
X179576974Y-78766459D01*
X173613254Y-84730181D01*
X173551931Y-84763666D01*
X173525573Y-84766500D01*
X150083629Y-84766500D01*
X150067886Y-84764761D01*
X150067861Y-84765033D01*
X150060093Y-84764298D01*
X149990060Y-84766500D01*
X149960142Y-84766500D01*
X149953136Y-84767384D01*
X149947318Y-84767842D01*
X149900111Y-84769326D01*
X149900108Y-84769327D01*
X149880505Y-84775022D01*
X149861459Y-84778966D01*
X149841203Y-84781526D01*
X149841201Y-84781526D01*
X149841199Y-84781527D01*
X149797282Y-84798914D01*
X149791756Y-84800806D01*
X149746406Y-84813982D01*
X149728833Y-84824374D01*
X149711370Y-84832929D01*
X149692385Y-84840446D01*
X149692383Y-84840447D01*
X149654179Y-84868204D01*
X149649296Y-84871412D01*
X149608637Y-84895458D01*
X149594196Y-84909898D01*
X149579408Y-84922527D01*
X149562897Y-84934523D01*
X149562892Y-84934528D01*
X149532790Y-84970914D01*
X149528858Y-84975236D01*
X148873912Y-85630181D01*
X148812589Y-85663666D01*
X148786231Y-85666500D01*
X148199462Y-85666500D01*
X148196300Y-85666662D01*
X148196256Y-85665798D01*
X148131136Y-85653689D01*
X148125385Y-85650534D01*
X148081693Y-85631627D01*
X148076445Y-85629056D01*
X148049019Y-85613979D01*
X148035060Y-85606305D01*
X148031660Y-85605432D01*
X148015287Y-85601228D01*
X147996881Y-85594926D01*
X147978144Y-85586818D01*
X147978146Y-85586818D01*
X147931496Y-85579430D01*
X147925781Y-85578246D01*
X147905612Y-85573068D01*
X147880032Y-85566500D01*
X147880030Y-85566500D01*
X147859616Y-85566500D01*
X147840217Y-85564973D01*
X147820058Y-85561780D01*
X147820057Y-85561780D01*
X147773034Y-85566225D01*
X147767196Y-85566500D01*
X142283631Y-85566500D01*
X142267879Y-85564760D01*
X142267854Y-85565032D01*
X142260092Y-85564298D01*
X142260091Y-85564298D01*
X142190028Y-85566500D01*
X142160144Y-85566500D01*
X142160141Y-85566500D01*
X142160129Y-85566501D01*
X142153137Y-85567384D01*
X142147320Y-85567841D01*
X142100114Y-85569325D01*
X142100107Y-85569326D01*
X142080500Y-85575022D01*
X142061461Y-85578965D01*
X142041211Y-85581524D01*
X142041201Y-85581526D01*
X141997291Y-85598911D01*
X141991765Y-85600803D01*
X141946412Y-85613979D01*
X141946407Y-85613981D01*
X141928833Y-85624374D01*
X141911372Y-85632928D01*
X141892386Y-85640446D01*
X141892384Y-85640447D01*
X141854172Y-85668208D01*
X141849290Y-85671415D01*
X141808637Y-85695457D01*
X141794201Y-85709894D01*
X141779415Y-85722523D01*
X141762893Y-85734528D01*
X141762891Y-85734529D01*
X141762891Y-85734530D01*
X141762888Y-85734532D01*
X141732780Y-85770925D01*
X141728849Y-85775246D01*
X140798914Y-86705181D01*
X140737591Y-86738666D01*
X140711233Y-86741500D01*
X140016747Y-86741500D01*
X139949708Y-86721815D01*
X139903953Y-86669011D01*
X139894009Y-86599853D01*
X139923034Y-86536297D01*
X139953630Y-86510766D01*
X139959319Y-86507400D01*
X139964154Y-86504542D01*
X139978594Y-86490100D01*
X139993384Y-86477470D01*
X140009899Y-86465472D01*
X140040014Y-86429067D01*
X140043918Y-86424776D01*
X143698877Y-82769819D01*
X143760201Y-82736334D01*
X143786559Y-82733500D01*
X166816366Y-82733500D01*
X166832113Y-82735238D01*
X166832139Y-82734968D01*
X166839905Y-82735701D01*
X166839909Y-82735702D01*
X166909958Y-82733500D01*
X166939856Y-82733500D01*
X166939857Y-82733500D01*
X166941222Y-82733327D01*
X166946862Y-82732614D01*
X166952685Y-82732156D01*
X166978708Y-82731338D01*
X166999890Y-82730673D01*
X167009681Y-82727827D01*
X167019481Y-82724980D01*
X167038538Y-82721032D01*
X167058797Y-82718474D01*
X167102721Y-82701082D01*
X167108221Y-82699199D01*
X167153593Y-82686018D01*
X167171165Y-82675625D01*
X167188632Y-82667068D01*
X167207617Y-82659552D01*
X167245826Y-82631790D01*
X167250704Y-82628585D01*
X167291362Y-82604542D01*
X167305802Y-82590100D01*
X167320592Y-82577470D01*
X167337107Y-82565472D01*
X167367222Y-82529067D01*
X167371126Y-82524776D01*
X170701084Y-79194819D01*
X170762408Y-79161334D01*
X170788766Y-79158500D01*
X171298638Y-79158500D01*
X171298654Y-79158499D01*
X171325692Y-79155591D01*
X171359201Y-79151989D01*
X171496204Y-79100889D01*
X171613261Y-79013261D01*
X171700889Y-78896204D01*
X171749282Y-78766459D01*
X171751988Y-78759204D01*
X171751988Y-78759203D01*
X171751989Y-78759201D01*
X171755591Y-78725692D01*
X171758499Y-78698654D01*
X171758499Y-78698647D01*
X171758500Y-78698638D01*
X171758500Y-77501362D01*
X171758499Y-77501352D01*
X171758499Y-77501345D01*
X171751989Y-77440798D01*
X171715636Y-77343334D01*
X171710652Y-77273643D01*
X171715636Y-77256666D01*
X171733551Y-77208636D01*
X171751989Y-77159201D01*
X171752650Y-77153049D01*
X171758499Y-77098654D01*
X171758499Y-77098647D01*
X171758500Y-77098638D01*
X171758500Y-75901362D01*
X171758499Y-75901352D01*
X171758499Y-75901345D01*
X171753489Y-75854755D01*
X171751989Y-75840799D01*
X171738187Y-75803796D01*
X171725042Y-75768551D01*
X171700889Y-75703796D01*
X171613261Y-75586739D01*
X171496204Y-75499111D01*
X171473951Y-75490811D01*
X171359203Y-75448011D01*
X171298654Y-75441500D01*
X171298638Y-75441500D01*
X170501362Y-75441500D01*
X170501345Y-75441500D01*
X170440797Y-75448011D01*
X170440795Y-75448011D01*
X170303795Y-75499111D01*
X170186739Y-75586739D01*
X170099111Y-75703795D01*
X170048011Y-75840795D01*
X170048011Y-75840797D01*
X170041500Y-75901345D01*
X170041500Y-76411233D01*
X170021815Y-76478272D01*
X170005185Y-76498909D01*
X169918281Y-76585814D01*
X169836182Y-76667913D01*
X169823821Y-76677817D01*
X169823994Y-76678026D01*
X169817985Y-76682997D01*
X169817982Y-76682999D01*
X169817982Y-76683000D01*
X169779897Y-76723556D01*
X169770015Y-76734079D01*
X169748872Y-76755222D01*
X169748857Y-76755239D01*
X169744531Y-76760814D01*
X169740747Y-76765244D01*
X169708419Y-76799671D01*
X169708412Y-76799681D01*
X169698579Y-76817567D01*
X169687903Y-76833820D01*
X169675386Y-76849957D01*
X169675385Y-76849959D01*
X169656625Y-76893310D01*
X169654055Y-76898556D01*
X169631303Y-76939941D01*
X169631303Y-76939942D01*
X169626225Y-76959720D01*
X169619925Y-76978122D01*
X169611818Y-76996857D01*
X169604431Y-77043495D01*
X169603246Y-77049216D01*
X169591500Y-77094965D01*
X169591500Y-77115384D01*
X169589973Y-77134783D01*
X169586780Y-77154941D01*
X169586780Y-77154942D01*
X169591225Y-77201966D01*
X169591500Y-77207804D01*
X169591500Y-77411232D01*
X169571815Y-77478271D01*
X169555181Y-77498913D01*
X169370181Y-77683912D01*
X169308858Y-77717397D01*
X169239166Y-77712413D01*
X169183233Y-77670541D01*
X169158816Y-77605077D01*
X169158500Y-77596231D01*
X169158500Y-77501362D01*
X169158499Y-77501345D01*
X169151989Y-77440798D01*
X169115636Y-77343334D01*
X169110652Y-77273643D01*
X169115636Y-77256666D01*
X169133551Y-77208636D01*
X169151989Y-77159201D01*
X169152650Y-77153049D01*
X169158499Y-77098654D01*
X169158499Y-77098647D01*
X169158500Y-77098638D01*
X169158500Y-75901362D01*
X169158499Y-75901352D01*
X169158499Y-75901345D01*
X169153489Y-75854755D01*
X169151989Y-75840799D01*
X169138187Y-75803796D01*
X169125042Y-75768551D01*
X169100889Y-75703796D01*
X169013261Y-75586739D01*
X168896204Y-75499111D01*
X168873951Y-75490811D01*
X168759203Y-75448011D01*
X168698654Y-75441500D01*
X168698638Y-75441500D01*
X167901362Y-75441500D01*
X167901345Y-75441500D01*
X167840797Y-75448011D01*
X167840795Y-75448011D01*
X167703795Y-75499111D01*
X167586739Y-75586739D01*
X167499111Y-75703795D01*
X167468511Y-75785835D01*
X167426639Y-75841768D01*
X167361174Y-75866184D01*
X167352330Y-75866500D01*
X164683632Y-75866500D01*
X164667880Y-75864760D01*
X164667855Y-75865032D01*
X164660093Y-75864298D01*
X164660092Y-75864298D01*
X164590029Y-75866500D01*
X164560144Y-75866500D01*
X164560141Y-75866500D01*
X164560129Y-75866501D01*
X164553137Y-75867384D01*
X164547320Y-75867841D01*
X164500114Y-75869325D01*
X164500107Y-75869326D01*
X164480500Y-75875022D01*
X164461461Y-75878965D01*
X164441211Y-75881524D01*
X164441201Y-75881526D01*
X164397291Y-75898911D01*
X164391765Y-75900803D01*
X164346412Y-75913979D01*
X164346407Y-75913981D01*
X164328833Y-75924374D01*
X164311372Y-75932928D01*
X164292386Y-75940446D01*
X164292384Y-75940447D01*
X164254172Y-75968208D01*
X164249290Y-75971415D01*
X164208637Y-75995457D01*
X164194201Y-76009894D01*
X164179415Y-76022523D01*
X164162893Y-76034528D01*
X164162891Y-76034529D01*
X164162891Y-76034530D01*
X164162888Y-76034532D01*
X164132780Y-76070925D01*
X164128849Y-76075246D01*
X159673914Y-80530181D01*
X159612591Y-80563666D01*
X159586233Y-80566500D01*
X154428766Y-80566500D01*
X154361727Y-80546815D01*
X154315972Y-80494011D01*
X154306028Y-80424853D01*
X154335053Y-80361297D01*
X154341085Y-80354819D01*
X155401085Y-79294819D01*
X155462408Y-79261334D01*
X155488766Y-79258500D01*
X155998638Y-79258500D01*
X155998654Y-79258499D01*
X156025692Y-79255591D01*
X156059201Y-79251989D01*
X156196204Y-79200889D01*
X156313261Y-79113261D01*
X156400889Y-78996204D01*
X156448029Y-78869819D01*
X156451988Y-78859204D01*
X156451988Y-78859203D01*
X156451989Y-78859201D01*
X156455591Y-78825692D01*
X156458499Y-78798654D01*
X156458500Y-78798637D01*
X156458500Y-77601362D01*
X156458499Y-77601345D01*
X156451989Y-77540798D01*
X156415636Y-77443333D01*
X156410652Y-77373641D01*
X156415637Y-77356664D01*
X156451988Y-77259204D01*
X156451988Y-77259203D01*
X156451989Y-77259201D01*
X156456400Y-77218174D01*
X156458499Y-77198654D01*
X156458500Y-77198637D01*
X156458500Y-76001362D01*
X156458499Y-76001345D01*
X156454896Y-75967842D01*
X156451989Y-75940799D01*
X156451858Y-75940448D01*
X156415052Y-75841768D01*
X156400889Y-75803796D01*
X156313261Y-75686739D01*
X156196204Y-75599111D01*
X156163034Y-75586739D01*
X156059203Y-75548011D01*
X155998654Y-75541500D01*
X155998638Y-75541500D01*
X155201362Y-75541500D01*
X155201345Y-75541500D01*
X155140797Y-75548011D01*
X155140795Y-75548011D01*
X155003795Y-75599111D01*
X154886739Y-75686739D01*
X154799111Y-75803795D01*
X154748011Y-75940795D01*
X154748011Y-75940797D01*
X154741500Y-76001345D01*
X154741500Y-76511231D01*
X154721815Y-76578270D01*
X154705181Y-76598912D01*
X154511179Y-76792914D01*
X154498820Y-76802818D01*
X154498993Y-76803027D01*
X154492983Y-76807999D01*
X154445016Y-76859078D01*
X154423872Y-76880222D01*
X154423857Y-76880239D01*
X154419531Y-76885814D01*
X154415747Y-76890244D01*
X154383419Y-76924671D01*
X154383412Y-76924681D01*
X154373579Y-76942567D01*
X154362903Y-76958820D01*
X154350386Y-76974957D01*
X154350385Y-76974959D01*
X154331625Y-77018310D01*
X154329055Y-77023556D01*
X154306303Y-77064941D01*
X154306303Y-77064942D01*
X154301225Y-77084720D01*
X154294925Y-77103122D01*
X154286818Y-77121857D01*
X154279431Y-77168495D01*
X154278246Y-77174216D01*
X154266500Y-77219965D01*
X154266500Y-77240384D01*
X154264972Y-77259783D01*
X154261780Y-77279943D01*
X154262790Y-77290623D01*
X154266225Y-77326966D01*
X154266500Y-77332804D01*
X154266500Y-77536233D01*
X154246815Y-77603272D01*
X154230181Y-77623914D01*
X154070181Y-77783914D01*
X154008858Y-77817399D01*
X153939166Y-77812415D01*
X153883233Y-77770543D01*
X153858816Y-77705079D01*
X153858500Y-77696233D01*
X153858500Y-77601362D01*
X153858499Y-77601345D01*
X153851989Y-77540798D01*
X153815636Y-77443333D01*
X153810652Y-77373641D01*
X153815637Y-77356664D01*
X153851988Y-77259204D01*
X153851988Y-77259203D01*
X153851989Y-77259201D01*
X153856400Y-77218174D01*
X153858499Y-77198654D01*
X153858500Y-77198637D01*
X153858500Y-76001362D01*
X153858499Y-76001345D01*
X153854896Y-75967842D01*
X153851989Y-75940799D01*
X153851858Y-75940448D01*
X153815052Y-75841768D01*
X153800889Y-75803796D01*
X153713261Y-75686739D01*
X153596204Y-75599111D01*
X153563034Y-75586739D01*
X153459203Y-75548011D01*
X153398654Y-75541500D01*
X153398638Y-75541500D01*
X152601362Y-75541500D01*
X152601345Y-75541500D01*
X152540797Y-75548011D01*
X152540795Y-75548011D01*
X152403795Y-75599111D01*
X152286739Y-75686739D01*
X152199111Y-75803795D01*
X152168511Y-75885835D01*
X152126639Y-75941768D01*
X152061174Y-75966184D01*
X152052330Y-75966500D01*
X145783634Y-75966500D01*
X145767886Y-75964761D01*
X145767861Y-75965032D01*
X145760094Y-75964298D01*
X145760091Y-75964298D01*
X145690042Y-75966500D01*
X145660137Y-75966500D01*
X145653143Y-75967384D01*
X145647320Y-75967842D01*
X145600111Y-75969326D01*
X145600108Y-75969327D01*
X145580505Y-75975022D01*
X145561459Y-75978966D01*
X145541203Y-75981526D01*
X145541201Y-75981526D01*
X145541199Y-75981527D01*
X145497282Y-75998914D01*
X145491756Y-76000806D01*
X145446406Y-76013982D01*
X145428833Y-76024374D01*
X145411370Y-76032929D01*
X145392385Y-76040446D01*
X145392383Y-76040447D01*
X145354179Y-76068204D01*
X145349296Y-76071412D01*
X145308637Y-76095458D01*
X145294196Y-76109898D01*
X145279408Y-76122527D01*
X145262897Y-76134523D01*
X145262892Y-76134528D01*
X145232790Y-76170914D01*
X145228858Y-76175236D01*
X140099839Y-81304255D01*
X140038516Y-81337740D01*
X139968824Y-81332756D01*
X139912891Y-81290884D01*
X139888474Y-81225420D01*
X139893438Y-81188243D01*
X139891667Y-81187839D01*
X139893216Y-81181050D01*
X139893216Y-81181049D01*
X139893217Y-81181047D01*
X139898309Y-81135850D01*
X139925374Y-81071440D01*
X139933838Y-81062065D01*
X140588817Y-80407086D01*
X140601178Y-80397185D01*
X140601004Y-80396975D01*
X140607013Y-80392002D01*
X140607018Y-80392000D01*
X140654984Y-80340920D01*
X140676135Y-80319770D01*
X140680461Y-80314192D01*
X140684250Y-80309755D01*
X140716586Y-80275321D01*
X140726419Y-80257432D01*
X140737102Y-80241169D01*
X140749614Y-80225041D01*
X140768371Y-80181691D01*
X140770941Y-80176447D01*
X140793693Y-80135064D01*
X140793693Y-80135063D01*
X140793695Y-80135060D01*
X140798774Y-80115273D01*
X140805070Y-80096885D01*
X140813181Y-80078145D01*
X140820569Y-80031497D01*
X140821751Y-80025786D01*
X140833500Y-79980030D01*
X140833500Y-79959614D01*
X140835027Y-79940214D01*
X140836467Y-79931122D01*
X140838220Y-79920057D01*
X140833775Y-79873033D01*
X140833500Y-79867195D01*
X140833500Y-79235039D01*
X140853185Y-79168000D01*
X140883191Y-79135771D01*
X140883467Y-79135564D01*
X140913261Y-79113261D01*
X141000889Y-78996204D01*
X141048029Y-78869819D01*
X141051988Y-78859204D01*
X141051988Y-78859203D01*
X141051989Y-78859201D01*
X141055591Y-78825692D01*
X141058499Y-78798654D01*
X141058500Y-78798637D01*
X141058500Y-77601362D01*
X141058499Y-77601345D01*
X141051989Y-77540798D01*
X141015636Y-77443333D01*
X141010652Y-77373641D01*
X141015637Y-77356664D01*
X141051988Y-77259204D01*
X141051988Y-77259203D01*
X141051989Y-77259201D01*
X141056400Y-77218174D01*
X141058499Y-77198654D01*
X141058500Y-77198637D01*
X141058500Y-76001362D01*
X141058499Y-76001345D01*
X141054896Y-75967842D01*
X141051989Y-75940799D01*
X141051858Y-75940448D01*
X141015052Y-75841768D01*
X141000889Y-75803796D01*
X140913261Y-75686739D01*
X140796204Y-75599111D01*
X140763034Y-75586739D01*
X140659203Y-75548011D01*
X140598654Y-75541500D01*
X140598638Y-75541500D01*
X139801362Y-75541500D01*
X139801345Y-75541500D01*
X139740797Y-75548011D01*
X139740795Y-75548011D01*
X139603795Y-75599111D01*
X139486739Y-75686739D01*
X139399111Y-75803795D01*
X139348011Y-75940795D01*
X139348011Y-75940797D01*
X139341500Y-76001345D01*
X139341500Y-76511232D01*
X139321815Y-76578271D01*
X139305181Y-76598913D01*
X138987680Y-76916413D01*
X138926357Y-76949898D01*
X138856665Y-76944914D01*
X138812318Y-76916413D01*
X138494819Y-76598914D01*
X138461334Y-76537591D01*
X138458500Y-76511233D01*
X138458500Y-76001362D01*
X138458499Y-76001345D01*
X138454896Y-75967842D01*
X138451989Y-75940799D01*
X138451858Y-75940448D01*
X138415052Y-75841768D01*
X138400889Y-75803796D01*
X138313261Y-75686739D01*
X138196204Y-75599111D01*
X138163034Y-75586739D01*
X138059203Y-75548011D01*
X137998654Y-75541500D01*
X137998638Y-75541500D01*
X137201362Y-75541500D01*
X137201345Y-75541500D01*
X137140797Y-75548011D01*
X137140795Y-75548011D01*
X137003795Y-75599111D01*
X136886739Y-75686739D01*
X136799111Y-75803795D01*
X136748011Y-75940795D01*
X136748011Y-75940797D01*
X136741500Y-76001345D01*
X136741500Y-77198654D01*
X136748011Y-77259202D01*
X136748011Y-77259204D01*
X136784363Y-77356664D01*
X136789348Y-77426356D01*
X136784364Y-77443332D01*
X136768512Y-77485833D01*
X136726641Y-77541767D01*
X136661176Y-77566184D01*
X136652330Y-77566500D01*
X132683631Y-77566500D01*
X132667879Y-77564760D01*
X132667854Y-77565032D01*
X132660092Y-77564298D01*
X132660091Y-77564298D01*
X132590028Y-77566500D01*
X132560144Y-77566500D01*
X132560141Y-77566500D01*
X132560129Y-77566501D01*
X132553137Y-77567384D01*
X132547320Y-77567841D01*
X132500114Y-77569325D01*
X132500107Y-77569326D01*
X132480500Y-77575022D01*
X132461461Y-77578965D01*
X132441211Y-77581524D01*
X132441201Y-77581526D01*
X132397291Y-77598911D01*
X132391765Y-77600803D01*
X132346412Y-77613979D01*
X132346407Y-77613981D01*
X132328833Y-77624374D01*
X132311372Y-77632928D01*
X132292386Y-77640446D01*
X132292384Y-77640447D01*
X132254172Y-77668208D01*
X132249290Y-77671415D01*
X132208637Y-77695457D01*
X132194201Y-77709894D01*
X132179415Y-77722523D01*
X132162893Y-77734528D01*
X132162891Y-77734529D01*
X132162891Y-77734530D01*
X132162888Y-77734532D01*
X132132780Y-77770925D01*
X132128849Y-77775246D01*
X130011424Y-79892670D01*
X129950101Y-79926155D01*
X129880409Y-79921171D01*
X129836062Y-79892670D01*
X129707281Y-79763889D01*
X129553017Y-79666958D01*
X129553016Y-79666957D01*
X129553015Y-79666957D01*
X129459858Y-79634360D01*
X129381046Y-79606782D01*
X129381041Y-79606781D01*
X129200004Y-79586384D01*
X129199996Y-79586384D01*
X129018958Y-79606781D01*
X129018953Y-79606782D01*
X128846982Y-79666958D01*
X128692718Y-79763889D01*
X128563889Y-79892718D01*
X128466958Y-80046982D01*
X128406782Y-80218953D01*
X128406781Y-80218958D01*
X128386384Y-80399996D01*
X128386384Y-80400003D01*
X128406781Y-80581041D01*
X128406782Y-80581046D01*
X128466958Y-80753017D01*
X128499508Y-80804819D01*
X128563889Y-80907281D01*
X128692719Y-81036111D01*
X128805562Y-81107015D01*
X128809988Y-81109796D01*
X128856279Y-81162131D01*
X128866927Y-81231184D01*
X128860198Y-81258124D01*
X128848010Y-81290798D01*
X128841500Y-81351345D01*
X128841500Y-82248654D01*
X128848011Y-82309202D01*
X128848011Y-82309204D01*
X128880537Y-82396406D01*
X128899111Y-82446204D01*
X128963351Y-82532019D01*
X128986740Y-82563262D01*
X128989695Y-82565474D01*
X129036795Y-82600733D01*
X129078667Y-82656665D01*
X129083651Y-82726356D01*
X129050167Y-82787680D01*
X129036797Y-82799265D01*
X128986740Y-82836738D01*
X128986739Y-82836739D01*
X128964709Y-82866166D01*
X128899111Y-82953795D01*
X128848011Y-83090795D01*
X128848011Y-83090797D01*
X128841500Y-83151345D01*
X128841500Y-84048654D01*
X128848011Y-84109202D01*
X128848011Y-84109203D01*
X128867000Y-84160115D01*
X128871984Y-84229807D01*
X128867860Y-84244402D01*
X128806783Y-84418950D01*
X128806781Y-84418958D01*
X128799749Y-84481382D01*
X128772683Y-84545796D01*
X128715089Y-84585352D01*
X128676529Y-84591500D01*
X118358634Y-84591500D01*
X118342886Y-84589761D01*
X118342861Y-84590032D01*
X118335094Y-84589298D01*
X118335091Y-84589298D01*
X118265042Y-84591500D01*
X118235137Y-84591500D01*
X118228143Y-84592384D01*
X118222320Y-84592842D01*
X118175111Y-84594326D01*
X118175108Y-84594327D01*
X118155505Y-84600022D01*
X118136459Y-84603966D01*
X118116203Y-84606526D01*
X118116201Y-84606526D01*
X118116199Y-84606527D01*
X118072282Y-84623914D01*
X118066756Y-84625806D01*
X118021406Y-84638982D01*
X118003831Y-84649375D01*
X117986373Y-84657928D01*
X117967383Y-84665448D01*
X117929172Y-84693208D01*
X117924290Y-84696415D01*
X117883637Y-84720457D01*
X117869201Y-84734894D01*
X117854415Y-84747523D01*
X117837893Y-84759528D01*
X117837891Y-84759529D01*
X117837891Y-84759530D01*
X117837888Y-84759532D01*
X117807780Y-84795925D01*
X117803849Y-84800246D01*
X116511681Y-86092414D01*
X116450358Y-86125899D01*
X116380666Y-86120915D01*
X116324733Y-86079043D01*
X116322169Y-86072169D01*
X116300000Y-86050000D01*
X113500000Y-86050000D01*
X113500000Y-86397844D01*
X113506401Y-86457372D01*
X113506403Y-86457382D01*
X113521783Y-86498617D01*
X113526767Y-86568308D01*
X113493281Y-86629631D01*
X113431958Y-86663115D01*
X113409499Y-86665888D01*
X113397663Y-86666260D01*
X113390028Y-86666500D01*
X113360144Y-86666500D01*
X113360141Y-86666500D01*
X113360129Y-86666501D01*
X113353137Y-86667384D01*
X113347320Y-86667841D01*
X113300114Y-86669325D01*
X113300107Y-86669326D01*
X113280500Y-86675022D01*
X113261461Y-86678965D01*
X113241211Y-86681524D01*
X113241201Y-86681526D01*
X113197291Y-86698911D01*
X113191765Y-86700803D01*
X113146412Y-86713979D01*
X113146407Y-86713981D01*
X113128833Y-86724374D01*
X113111372Y-86732928D01*
X113092386Y-86740446D01*
X113092384Y-86740447D01*
X113054172Y-86768208D01*
X113049290Y-86771415D01*
X113008637Y-86795457D01*
X112994201Y-86809894D01*
X112979415Y-86822523D01*
X112962893Y-86834528D01*
X112962891Y-86834529D01*
X112962891Y-86834530D01*
X112962888Y-86834532D01*
X112932780Y-86870925D01*
X112928849Y-86875246D01*
X106798914Y-93005181D01*
X106737591Y-93038666D01*
X106711233Y-93041500D01*
X106201345Y-93041500D01*
X106140797Y-93048011D01*
X106140795Y-93048011D01*
X105995488Y-93102210D01*
X105994405Y-93099308D01*
X105941126Y-93110886D01*
X105905209Y-93100340D01*
X105904512Y-93102210D01*
X105896204Y-93099111D01*
X105839864Y-93078097D01*
X105759203Y-93048011D01*
X105698654Y-93041500D01*
X105698638Y-93041500D01*
X104701362Y-93041500D01*
X104701345Y-93041500D01*
X104640797Y-93048011D01*
X104640795Y-93048011D01*
X104503795Y-93099111D01*
X104386739Y-93186739D01*
X104299111Y-93303795D01*
X104248011Y-93440795D01*
X104248011Y-93440797D01*
X104241500Y-93501345D01*
X104241500Y-95098654D01*
X104248010Y-95159201D01*
X104253592Y-95174164D01*
X104258578Y-95243856D01*
X104225094Y-95305179D01*
X104163772Y-95338666D01*
X104137411Y-95341500D01*
X103651345Y-95341500D01*
X103590797Y-95348011D01*
X103590795Y-95348011D01*
X103453795Y-95399111D01*
X103336739Y-95486739D01*
X103249111Y-95603795D01*
X103198011Y-95740795D01*
X103198011Y-95740797D01*
X103191500Y-95801345D01*
X103191500Y-96798654D01*
X103198011Y-96859202D01*
X103198011Y-96859204D01*
X103230752Y-96946982D01*
X103248487Y-96994532D01*
X103252210Y-97004512D01*
X103249308Y-97005594D01*
X103260886Y-97058874D01*
X103250340Y-97094790D01*
X103252210Y-97095488D01*
X103198011Y-97240795D01*
X103198011Y-97240797D01*
X103191500Y-97301345D01*
X103191500Y-98298654D01*
X103198011Y-98359202D01*
X103198011Y-98359204D01*
X103252210Y-98504512D01*
X103249308Y-98505594D01*
X103260886Y-98558874D01*
X103250340Y-98594790D01*
X103252210Y-98595488D01*
X103198011Y-98740795D01*
X103198011Y-98740797D01*
X103191500Y-98801345D01*
X103191500Y-99798654D01*
X103198011Y-99859202D01*
X103198011Y-99859204D01*
X103252210Y-100004512D01*
X103249308Y-100005594D01*
X103260886Y-100058874D01*
X103250340Y-100094790D01*
X103252210Y-100095488D01*
X103198011Y-100240795D01*
X103198011Y-100240797D01*
X103191500Y-100301345D01*
X103191500Y-101298654D01*
X103198011Y-101359202D01*
X103198011Y-101359204D01*
X103252210Y-101504512D01*
X103249308Y-101505594D01*
X103260886Y-101558874D01*
X103250340Y-101594790D01*
X103252210Y-101595488D01*
X103198011Y-101740795D01*
X103198011Y-101740797D01*
X103191500Y-101801345D01*
X103191500Y-102798654D01*
X103198011Y-102859202D01*
X103198011Y-102859204D01*
X103252210Y-103004512D01*
X103249308Y-103005594D01*
X103260886Y-103058874D01*
X103250340Y-103094790D01*
X103252210Y-103095488D01*
X103198011Y-103240795D01*
X103198011Y-103240797D01*
X103191500Y-103301345D01*
X103191500Y-104298654D01*
X103198011Y-104359202D01*
X103198011Y-104359204D01*
X103252210Y-104504512D01*
X103249308Y-104505594D01*
X103260886Y-104558874D01*
X103250340Y-104594790D01*
X103252210Y-104595488D01*
X103249111Y-104603795D01*
X103249111Y-104603796D01*
X103248416Y-104605659D01*
X103198011Y-104740795D01*
X103198011Y-104740797D01*
X103191500Y-104801345D01*
X103191500Y-105217500D01*
X103171815Y-105284539D01*
X103119011Y-105330294D01*
X103067500Y-105341500D01*
X101902376Y-105341500D01*
X101835337Y-105321815D01*
X101789582Y-105269011D01*
X101779638Y-105199853D01*
X101793715Y-105157762D01*
X101806190Y-105135069D01*
X101806189Y-105135069D01*
X101806195Y-105135060D01*
X101811274Y-105115274D01*
X101817572Y-105096882D01*
X101825681Y-105078145D01*
X101833069Y-105031497D01*
X101834251Y-105025786D01*
X101846000Y-104980030D01*
X101846000Y-104959615D01*
X101847527Y-104940214D01*
X101850720Y-104920057D01*
X101846275Y-104873033D01*
X101846000Y-104867195D01*
X101846000Y-101971900D01*
X101847738Y-101956155D01*
X101847467Y-101956130D01*
X101848201Y-101948367D01*
X101846000Y-101878333D01*
X101846000Y-101848424D01*
X101846000Y-101848418D01*
X101845115Y-101841414D01*
X101844656Y-101835585D01*
X101843173Y-101788383D01*
X101837479Y-101768788D01*
X101833532Y-101749731D01*
X101830974Y-101729477D01*
X101813588Y-101685565D01*
X101811696Y-101680038D01*
X101805281Y-101657958D01*
X101798518Y-101634680D01*
X101788125Y-101617107D01*
X101779563Y-101599629D01*
X101778915Y-101597993D01*
X101772052Y-101580657D01*
X101772050Y-101580654D01*
X101772049Y-101580652D01*
X101744294Y-101542451D01*
X101741086Y-101537567D01*
X101733133Y-101524121D01*
X101717042Y-101496911D01*
X101702608Y-101482477D01*
X101689969Y-101467680D01*
X101677971Y-101451166D01*
X101641584Y-101421064D01*
X101637262Y-101417131D01*
X99390312Y-99170181D01*
X99356827Y-99108858D01*
X99361811Y-99039166D01*
X99403683Y-98983233D01*
X99469147Y-98958816D01*
X99477993Y-98958500D01*
X99798638Y-98958500D01*
X99798654Y-98958499D01*
X99825692Y-98955591D01*
X99859201Y-98951989D01*
X99996204Y-98900889D01*
X100113261Y-98813261D01*
X100200889Y-98696204D01*
X100251989Y-98559201D01*
X100255591Y-98525692D01*
X100258499Y-98498654D01*
X100258500Y-98498637D01*
X100258500Y-97601362D01*
X100258499Y-97601345D01*
X100255157Y-97570270D01*
X100251989Y-97540799D01*
X100200889Y-97403796D01*
X100113261Y-97286739D01*
X100113259Y-97286738D01*
X100113259Y-97286737D01*
X100063204Y-97249267D01*
X100021332Y-97193334D01*
X100016348Y-97123642D01*
X100049833Y-97062319D01*
X100063204Y-97050733D01*
X100113261Y-97013261D01*
X100200889Y-96896204D01*
X100251989Y-96759201D01*
X100258354Y-96700000D01*
X100258499Y-96698654D01*
X100258500Y-96698637D01*
X100258500Y-95801362D01*
X100258499Y-95801345D01*
X100253772Y-95757384D01*
X100251989Y-95740799D01*
X100246815Y-95726928D01*
X100229522Y-95680564D01*
X100200889Y-95603796D01*
X100113261Y-95486739D01*
X99996204Y-95399111D01*
X99996203Y-95399110D01*
X99859203Y-95348011D01*
X99798654Y-95341500D01*
X99798638Y-95341500D01*
X99201362Y-95341500D01*
X99201345Y-95341500D01*
X99140797Y-95348011D01*
X99140796Y-95348011D01*
X99118332Y-95356390D01*
X99048640Y-95361374D01*
X99031664Y-95356389D01*
X99009203Y-95348011D01*
X98948654Y-95341500D01*
X98948638Y-95341500D01*
X98451362Y-95341500D01*
X98451345Y-95341500D01*
X98390802Y-95348010D01*
X98390791Y-95348012D01*
X98331170Y-95370250D01*
X98261478Y-95375234D01*
X98244505Y-95370250D01*
X98207379Y-95356403D01*
X98207372Y-95356401D01*
X98147844Y-95350000D01*
X98100000Y-95350000D01*
X98100000Y-95494545D01*
X98080315Y-95561584D01*
X98075267Y-95568856D01*
X98049111Y-95603795D01*
X97998011Y-95740795D01*
X97998011Y-95740797D01*
X97991500Y-95801345D01*
X97991500Y-96326000D01*
X97971815Y-96393039D01*
X97919011Y-96438794D01*
X97896255Y-96443744D01*
X97876319Y-96463681D01*
X97814996Y-96497166D01*
X97788638Y-96500000D01*
X96350000Y-96500000D01*
X96350000Y-96697844D01*
X96356401Y-96757372D01*
X96356403Y-96757379D01*
X96406645Y-96892086D01*
X96406649Y-96892093D01*
X96492809Y-97007186D01*
X96543887Y-97045424D01*
X96585758Y-97101358D01*
X96590742Y-97171050D01*
X96557257Y-97232373D01*
X96543888Y-97243957D01*
X96486739Y-97286738D01*
X96399111Y-97403795D01*
X96348011Y-97540795D01*
X96348011Y-97540797D01*
X96341500Y-97601345D01*
X96341500Y-98498654D01*
X96348011Y-98559202D01*
X96348012Y-98559207D01*
X96399108Y-98696199D01*
X96399111Y-98696205D01*
X96424626Y-98730287D01*
X96441766Y-98753184D01*
X96466184Y-98818647D01*
X96466500Y-98827495D01*
X96466500Y-100931635D01*
X96446815Y-100998674D01*
X96394011Y-101044429D01*
X96324853Y-101054373D01*
X96271663Y-101033410D01*
X96225304Y-101001143D01*
X96038407Y-100920940D01*
X95839190Y-100880000D01*
X95587500Y-100880000D01*
X95587500Y-101580000D01*
X95087500Y-101580000D01*
X95087500Y-100880000D01*
X94886787Y-100880000D01*
X94735161Y-100895418D01*
X94661121Y-100918649D01*
X94591263Y-100919936D01*
X94531799Y-100883251D01*
X94501608Y-100820241D01*
X94500000Y-100800336D01*
X94500000Y-96000000D01*
X96350000Y-96000000D01*
X96850000Y-96000000D01*
X96850000Y-95350000D01*
X97350000Y-95350000D01*
X97350000Y-96000000D01*
X97700000Y-96000000D01*
X97700000Y-95350000D01*
X97652155Y-95350000D01*
X97592627Y-95356401D01*
X97592620Y-95356403D01*
X97568331Y-95365462D01*
X97498639Y-95370445D01*
X97481668Y-95365461D01*
X97457381Y-95356403D01*
X97457377Y-95356402D01*
X97397844Y-95350000D01*
X97350000Y-95350000D01*
X96850000Y-95350000D01*
X96802155Y-95350000D01*
X96742627Y-95356401D01*
X96742620Y-95356403D01*
X96607913Y-95406645D01*
X96607906Y-95406649D01*
X96492812Y-95492809D01*
X96492809Y-95492812D01*
X96406649Y-95607906D01*
X96406645Y-95607913D01*
X96356403Y-95742620D01*
X96356401Y-95742627D01*
X96350000Y-95802155D01*
X96350000Y-96000000D01*
X94500000Y-96000000D01*
X94500000Y-85124000D01*
X94519685Y-85056961D01*
X94572489Y-85011206D01*
X94624000Y-85000000D01*
X99483463Y-85000000D01*
X99550502Y-85019685D01*
X99596257Y-85072489D01*
X99606201Y-85141647D01*
X99577176Y-85205203D01*
X99550998Y-85227995D01*
X99476074Y-85276650D01*
X99182134Y-85514678D01*
X99182126Y-85514685D01*
X98914686Y-85782125D01*
X98914679Y-85782133D01*
X98676651Y-86076073D01*
X98470662Y-86393269D01*
X98298949Y-86730273D01*
X98163406Y-87083374D01*
X98065511Y-87448724D01*
X98065511Y-87448726D01*
X98006344Y-87822289D01*
X97986549Y-88199997D01*
X97986607Y-88201104D01*
X97986549Y-88201348D01*
X97986549Y-88203246D01*
X97986098Y-88203246D01*
X97970452Y-88269081D01*
X97920111Y-88317532D01*
X97905187Y-88324106D01*
X97606367Y-88432867D01*
X97606366Y-88432868D01*
X97293203Y-88590145D01*
X97000399Y-88782724D01*
X96731951Y-89007980D01*
X96731941Y-89007990D01*
X96491450Y-89262893D01*
X96491445Y-89262899D01*
X96282175Y-89543998D01*
X96106952Y-89847494D01*
X96106946Y-89847507D01*
X95968143Y-90169286D01*
X95867632Y-90505017D01*
X95867630Y-90505024D01*
X95806779Y-90850131D01*
X95806778Y-90850142D01*
X95786401Y-91199996D01*
X95786401Y-91200003D01*
X95806778Y-91549857D01*
X95806779Y-91549868D01*
X95867630Y-91894975D01*
X95867632Y-91894982D01*
X95968143Y-92230713D01*
X96106946Y-92552492D01*
X96106952Y-92552505D01*
X96282175Y-92856001D01*
X96491445Y-93137100D01*
X96491450Y-93137106D01*
X96602508Y-93254819D01*
X96731943Y-93392012D01*
X96731949Y-93392017D01*
X96731951Y-93392019D01*
X96971134Y-93592719D01*
X97000403Y-93617278D01*
X97293200Y-93809853D01*
X97606374Y-93967135D01*
X97935690Y-94086996D01*
X97935696Y-94086997D01*
X97935698Y-94086998D01*
X98276678Y-94167813D01*
X98276685Y-94167814D01*
X98276694Y-94167816D01*
X98624775Y-94208500D01*
X98624782Y-94208500D01*
X98975218Y-94208500D01*
X98975225Y-94208500D01*
X99323306Y-94167816D01*
X99323315Y-94167813D01*
X99323321Y-94167813D01*
X99598371Y-94102623D01*
X99664310Y-94086996D01*
X99993626Y-93967135D01*
X100306800Y-93809853D01*
X100599597Y-93617278D01*
X100868057Y-93392012D01*
X101108551Y-93137104D01*
X101150300Y-93081026D01*
X101298961Y-92881339D01*
X101317825Y-92856000D01*
X101338442Y-92820290D01*
X101389006Y-92772075D01*
X101457613Y-92758851D01*
X101522478Y-92784818D01*
X101562869Y-92841333D01*
X101566372Y-92851344D01*
X101566957Y-92853015D01*
X101663889Y-93007281D01*
X101792719Y-93136111D01*
X101946985Y-93233043D01*
X102118953Y-93293216D01*
X102118953Y-93293217D01*
X102118958Y-93293218D01*
X102299996Y-93313616D01*
X102300000Y-93313616D01*
X102300004Y-93313616D01*
X102481041Y-93293218D01*
X102481044Y-93293217D01*
X102481047Y-93293217D01*
X102653015Y-93233043D01*
X102807281Y-93136111D01*
X102936111Y-93007281D01*
X103033043Y-92853015D01*
X103093217Y-92681047D01*
X103093218Y-92681041D01*
X103113616Y-92500003D01*
X103113616Y-92499996D01*
X103093218Y-92318958D01*
X103093217Y-92318953D01*
X103066973Y-92243953D01*
X103033043Y-92146985D01*
X102936111Y-91992719D01*
X102807281Y-91863889D01*
X102780379Y-91846985D01*
X102758276Y-91833096D01*
X102711985Y-91780761D01*
X102701338Y-91711707D01*
X102729714Y-91647859D01*
X102779810Y-91612340D01*
X103069724Y-91501053D01*
X103406727Y-91329341D01*
X103723935Y-91123344D01*
X104017872Y-90885318D01*
X104285319Y-90617871D01*
X104523345Y-90323934D01*
X104729342Y-90006726D01*
X104901054Y-89669723D01*
X105036598Y-89316618D01*
X105134490Y-88951279D01*
X105193658Y-88577709D01*
X105213453Y-88200000D01*
X105193658Y-87822291D01*
X105134490Y-87448721D01*
X105036598Y-87083382D01*
X104901054Y-86730277D01*
X104729342Y-86393274D01*
X104727506Y-86390447D01*
X104523350Y-86076073D01*
X104523347Y-86076070D01*
X104523345Y-86076066D01*
X104502237Y-86050000D01*
X107300000Y-86050000D01*
X107300000Y-86397844D01*
X107306401Y-86457372D01*
X107306403Y-86457379D01*
X107356645Y-86592086D01*
X107356649Y-86592093D01*
X107442809Y-86707187D01*
X107442812Y-86707190D01*
X107557906Y-86793350D01*
X107557913Y-86793354D01*
X107692620Y-86843596D01*
X107692627Y-86843598D01*
X107752155Y-86849999D01*
X107752172Y-86850000D01*
X108450000Y-86850000D01*
X108450000Y-86050000D01*
X108950000Y-86050000D01*
X108950000Y-86850000D01*
X109647828Y-86850000D01*
X109647844Y-86849999D01*
X109707372Y-86843598D01*
X109707379Y-86843596D01*
X109842086Y-86793354D01*
X109842093Y-86793350D01*
X109957187Y-86707190D01*
X109957190Y-86707187D01*
X110043350Y-86592093D01*
X110043354Y-86592086D01*
X110093596Y-86457379D01*
X110093598Y-86457372D01*
X110099999Y-86397844D01*
X110100000Y-86397827D01*
X110100000Y-86050000D01*
X108950000Y-86050000D01*
X108450000Y-86050000D01*
X107300000Y-86050000D01*
X104502237Y-86050000D01*
X104285319Y-85782129D01*
X104017872Y-85514682D01*
X103723935Y-85276656D01*
X103723932Y-85276654D01*
X103723927Y-85276650D01*
X103406731Y-85070661D01*
X103069727Y-84898948D01*
X102716626Y-84763405D01*
X102702172Y-84759532D01*
X102351280Y-84665511D01*
X102351276Y-84665510D01*
X102351275Y-84665510D01*
X101977711Y-84606343D01*
X101700866Y-84591834D01*
X101634949Y-84568668D01*
X101592020Y-84513542D01*
X101585710Y-84443957D01*
X101618021Y-84382008D01*
X101619568Y-84380431D01*
X103301345Y-82698654D01*
X107291500Y-82698654D01*
X107298011Y-82759202D01*
X107298011Y-82759204D01*
X107346837Y-82890108D01*
X107349111Y-82896204D01*
X107436739Y-83013261D01*
X107553796Y-83100889D01*
X107630081Y-83129342D01*
X107690795Y-83151988D01*
X107698341Y-83153771D01*
X107697950Y-83155424D01*
X107753804Y-83178559D01*
X107793654Y-83235950D01*
X107800000Y-83275112D01*
X107800000Y-84633475D01*
X107780315Y-84700514D01*
X107727511Y-84746269D01*
X107699979Y-84753822D01*
X107700168Y-84754620D01*
X107692620Y-84756403D01*
X107557913Y-84806645D01*
X107557906Y-84806649D01*
X107442812Y-84892809D01*
X107442809Y-84892812D01*
X107356649Y-85007906D01*
X107356645Y-85007913D01*
X107306403Y-85142620D01*
X107306401Y-85142627D01*
X107300000Y-85202155D01*
X107300000Y-85550000D01*
X110100000Y-85550000D01*
X110100000Y-85374000D01*
X110119685Y-85306961D01*
X110172489Y-85261206D01*
X110224000Y-85250000D01*
X110800000Y-85250000D01*
X110800000Y-82857500D01*
X110819685Y-82790461D01*
X110872489Y-82744706D01*
X110924000Y-82733500D01*
X112676000Y-82733500D01*
X112743039Y-82753185D01*
X112788794Y-82805989D01*
X112800000Y-82857500D01*
X112800000Y-85250000D01*
X113376000Y-85250000D01*
X113443039Y-85269685D01*
X113488794Y-85322489D01*
X113500000Y-85374000D01*
X113499999Y-85550000D01*
X116300000Y-85550000D01*
X116300000Y-85202172D01*
X116299999Y-85202155D01*
X116293598Y-85142627D01*
X116293596Y-85142620D01*
X116243354Y-85007913D01*
X116243350Y-85007906D01*
X116157190Y-84892812D01*
X116157187Y-84892809D01*
X116042093Y-84806649D01*
X116042086Y-84806645D01*
X115907379Y-84756403D01*
X115899832Y-84754620D01*
X115900343Y-84752456D01*
X115846192Y-84730025D01*
X115806345Y-84672632D01*
X115800000Y-84633475D01*
X115800000Y-84358657D01*
X115799999Y-84042749D01*
X115819683Y-83975714D01*
X115872487Y-83929959D01*
X115941646Y-83920015D01*
X116005202Y-83949040D01*
X116011680Y-83955072D01*
X116092719Y-84036111D01*
X116246985Y-84133043D01*
X116418952Y-84193216D01*
X116418953Y-84193217D01*
X116418958Y-84193218D01*
X116599996Y-84213616D01*
X116600000Y-84213616D01*
X116600004Y-84213616D01*
X116781041Y-84193218D01*
X116781044Y-84193217D01*
X116781047Y-84193217D01*
X116953015Y-84133043D01*
X117107281Y-84036111D01*
X117236111Y-83907281D01*
X117333043Y-83753015D01*
X117393217Y-83581047D01*
X117413616Y-83400000D01*
X117395132Y-83235950D01*
X117393218Y-83218958D01*
X117393217Y-83218953D01*
X117384996Y-83195458D01*
X117333043Y-83046985D01*
X117252506Y-82918811D01*
X117233500Y-82852839D01*
X117233500Y-82733626D01*
X117235238Y-82717881D01*
X117234967Y-82717856D01*
X117235701Y-82710093D01*
X117235341Y-82698654D01*
X117233500Y-82640059D01*
X117233500Y-82610144D01*
X117232615Y-82603140D01*
X117232156Y-82597311D01*
X117230673Y-82550109D01*
X117228448Y-82542455D01*
X117224977Y-82530508D01*
X117221032Y-82511457D01*
X117218474Y-82491203D01*
X117201088Y-82447291D01*
X117199196Y-82441764D01*
X117193775Y-82423107D01*
X117186018Y-82396406D01*
X117175625Y-82378833D01*
X117167063Y-82361355D01*
X117159552Y-82342383D01*
X117159550Y-82342380D01*
X117159549Y-82342378D01*
X117131794Y-82304177D01*
X117128586Y-82299293D01*
X117120633Y-82285847D01*
X117104542Y-82258637D01*
X117090108Y-82244202D01*
X117077469Y-82229406D01*
X117065472Y-82212893D01*
X117029084Y-82182790D01*
X117024762Y-82178857D01*
X116557088Y-81711183D01*
X116547187Y-81698823D01*
X116546977Y-81698998D01*
X116542002Y-81692986D01*
X116542000Y-81692982D01*
X116515658Y-81668245D01*
X116490922Y-81645016D01*
X116469768Y-81623863D01*
X116467792Y-81622331D01*
X116464183Y-81619531D01*
X116459750Y-81615744D01*
X116425321Y-81583414D01*
X116425319Y-81583412D01*
X116407431Y-81573578D01*
X116391170Y-81562897D01*
X116375041Y-81550386D01*
X116375039Y-81550385D01*
X116375035Y-81550382D01*
X116368323Y-81546412D01*
X116369289Y-81544777D01*
X116323389Y-81506583D01*
X116303056Y-81450727D01*
X116301989Y-81440799D01*
X116299095Y-81433041D01*
X116268624Y-81351345D01*
X116250889Y-81303796D01*
X116163261Y-81186739D01*
X116046204Y-81099111D01*
X116018605Y-81088817D01*
X115909203Y-81048011D01*
X115848654Y-81041500D01*
X115848638Y-81041500D01*
X113951362Y-81041500D01*
X113951345Y-81041500D01*
X113890797Y-81048011D01*
X113890795Y-81048011D01*
X113753795Y-81099111D01*
X113636739Y-81186739D01*
X113549111Y-81303795D01*
X113518511Y-81385835D01*
X113476639Y-81441768D01*
X113411174Y-81466184D01*
X113402330Y-81466500D01*
X110197670Y-81466500D01*
X110130631Y-81446815D01*
X110084876Y-81394011D01*
X110081489Y-81385835D01*
X110061968Y-81333499D01*
X110050889Y-81303796D01*
X109963261Y-81186739D01*
X109846204Y-81099111D01*
X109818605Y-81088817D01*
X109709203Y-81048011D01*
X109648654Y-81041500D01*
X109648638Y-81041500D01*
X107751362Y-81041500D01*
X107751345Y-81041500D01*
X107690797Y-81048011D01*
X107690795Y-81048011D01*
X107553795Y-81099111D01*
X107436739Y-81186739D01*
X107349111Y-81303795D01*
X107298011Y-81440795D01*
X107298011Y-81440797D01*
X107291500Y-81501345D01*
X107291500Y-82698654D01*
X103301345Y-82698654D01*
X109020057Y-76979942D01*
X120361780Y-76979942D01*
X120366225Y-77026966D01*
X120366500Y-77032804D01*
X120366500Y-79516366D01*
X120364761Y-79532113D01*
X120365032Y-79532139D01*
X120364298Y-79539905D01*
X120366500Y-79609957D01*
X120366500Y-79639859D01*
X120367384Y-79646856D01*
X120367842Y-79652679D01*
X120369326Y-79699889D01*
X120369327Y-79699891D01*
X120375022Y-79719495D01*
X120378967Y-79738542D01*
X120381526Y-79758797D01*
X120381527Y-79758800D01*
X120381528Y-79758803D01*
X120398914Y-79802716D01*
X120400806Y-79808244D01*
X120413981Y-79853592D01*
X120424372Y-79871162D01*
X120432932Y-79888635D01*
X120440447Y-79907617D01*
X120468209Y-79945827D01*
X120471418Y-79950712D01*
X120488874Y-79980230D01*
X120495458Y-79991362D01*
X120495462Y-79991366D01*
X120509889Y-80005793D01*
X120522526Y-80020588D01*
X120534528Y-80037107D01*
X120570931Y-80067222D01*
X120575231Y-80071135D01*
X121370237Y-80866142D01*
X121592912Y-81088817D01*
X121602819Y-81101183D01*
X121603029Y-81101010D01*
X121607996Y-81107015D01*
X121659079Y-81154984D01*
X121680224Y-81176130D01*
X121685813Y-81180466D01*
X121690245Y-81184252D01*
X121703890Y-81197064D01*
X121724680Y-81216587D01*
X121742562Y-81226417D01*
X121758829Y-81237102D01*
X121774960Y-81249615D01*
X121791221Y-81256651D01*
X121818307Y-81268371D01*
X121823533Y-81270931D01*
X121864940Y-81293695D01*
X121884716Y-81298772D01*
X121903124Y-81305075D01*
X121921850Y-81313179D01*
X121921852Y-81313180D01*
X121921853Y-81313180D01*
X121921855Y-81313181D01*
X121962784Y-81319663D01*
X121968503Y-81320569D01*
X121974212Y-81321751D01*
X122019970Y-81333500D01*
X122040384Y-81333500D01*
X122059783Y-81335027D01*
X122079943Y-81338220D01*
X122126965Y-81333775D01*
X122132804Y-81333500D01*
X123377340Y-81333500D01*
X123443312Y-81352507D01*
X123571477Y-81433039D01*
X123571480Y-81433041D01*
X123571484Y-81433042D01*
X123571485Y-81433043D01*
X123622015Y-81450724D01*
X123743453Y-81493217D01*
X123743458Y-81493218D01*
X123924496Y-81513616D01*
X123924500Y-81513616D01*
X123924504Y-81513616D01*
X124105541Y-81493218D01*
X124105544Y-81493217D01*
X124105547Y-81493217D01*
X124277515Y-81433043D01*
X124431781Y-81336111D01*
X124560611Y-81207281D01*
X124657543Y-81053015D01*
X124717717Y-80881047D01*
X124718415Y-80874853D01*
X124738116Y-80700003D01*
X124738116Y-80699996D01*
X124717718Y-80518958D01*
X124717717Y-80518953D01*
X124678575Y-80407091D01*
X124657543Y-80346985D01*
X124657541Y-80346982D01*
X124657541Y-80346981D01*
X124585921Y-80232999D01*
X124579934Y-80223472D01*
X124560934Y-80156236D01*
X124581301Y-80089401D01*
X124634569Y-80044186D01*
X124684928Y-80033500D01*
X126152840Y-80033500D01*
X126218812Y-80052507D01*
X126346977Y-80133039D01*
X126346980Y-80133041D01*
X126346984Y-80133042D01*
X126346985Y-80133043D01*
X126352761Y-80135064D01*
X126518953Y-80193217D01*
X126518958Y-80193218D01*
X126699996Y-80213616D01*
X126700000Y-80213616D01*
X126700004Y-80213616D01*
X126881041Y-80193218D01*
X126881044Y-80193217D01*
X126881047Y-80193217D01*
X127053015Y-80133043D01*
X127207281Y-80036111D01*
X127336111Y-79907281D01*
X127433043Y-79753015D01*
X127493217Y-79581047D01*
X127494805Y-79566957D01*
X127513616Y-79400003D01*
X127513616Y-79399996D01*
X127493218Y-79218958D01*
X127493217Y-79218953D01*
X127481765Y-79186225D01*
X127433043Y-79046985D01*
X127336111Y-78892719D01*
X127207281Y-78763889D01*
X127178520Y-78745817D01*
X127053016Y-78666957D01*
X126895210Y-78611739D01*
X126881047Y-78606783D01*
X126881045Y-78606782D01*
X126881043Y-78606782D01*
X126875062Y-78606108D01*
X126810650Y-78579037D01*
X126771098Y-78521440D01*
X126768965Y-78451603D01*
X126771912Y-78441932D01*
X126788944Y-78393260D01*
X126793217Y-78381047D01*
X126793218Y-78381041D01*
X126813616Y-78200003D01*
X126813616Y-78199996D01*
X126793218Y-78018958D01*
X126793217Y-78018953D01*
X126759767Y-77923358D01*
X126733043Y-77846985D01*
X126733042Y-77846984D01*
X126733041Y-77846980D01*
X126733039Y-77846977D01*
X126654649Y-77722221D01*
X126635703Y-77660145D01*
X126635701Y-77660093D01*
X126635702Y-77660091D01*
X126633499Y-77590028D01*
X126633500Y-77560144D01*
X126632614Y-77553139D01*
X126632157Y-77547323D01*
X126630674Y-77500111D01*
X126624976Y-77480499D01*
X126621033Y-77461466D01*
X126618474Y-77441203D01*
X126601085Y-77397286D01*
X126599196Y-77391766D01*
X126586018Y-77346407D01*
X126575626Y-77328835D01*
X126567066Y-77311362D01*
X126559552Y-77292383D01*
X126531794Y-77254179D01*
X126528587Y-77249296D01*
X126518873Y-77232871D01*
X126504542Y-77208638D01*
X126490108Y-77194204D01*
X126477471Y-77179409D01*
X126465472Y-77162893D01*
X126465470Y-77162890D01*
X126429073Y-77132781D01*
X126424751Y-77128847D01*
X125794818Y-76498914D01*
X125761333Y-76437591D01*
X125758499Y-76411233D01*
X125758499Y-76254284D01*
X125758500Y-75901362D01*
X125758499Y-75901352D01*
X125758499Y-75901345D01*
X125753489Y-75854755D01*
X125751989Y-75840799D01*
X125738187Y-75803796D01*
X125725042Y-75768551D01*
X125700889Y-75703796D01*
X125613261Y-75586739D01*
X125496204Y-75499111D01*
X125473951Y-75490811D01*
X125359203Y-75448011D01*
X125298654Y-75441500D01*
X125298638Y-75441500D01*
X124501362Y-75441500D01*
X124501345Y-75441500D01*
X124440797Y-75448011D01*
X124440795Y-75448011D01*
X124303795Y-75499111D01*
X124186739Y-75586739D01*
X124099111Y-75703795D01*
X124048011Y-75840795D01*
X124048011Y-75840797D01*
X124041500Y-75901345D01*
X124041500Y-77098654D01*
X124048011Y-77159202D01*
X124048011Y-77159203D01*
X124084363Y-77256667D01*
X124089347Y-77326358D01*
X124084363Y-77343333D01*
X124048011Y-77440796D01*
X124048011Y-77440797D01*
X124042900Y-77488332D01*
X124016162Y-77552883D01*
X123958769Y-77592731D01*
X123905728Y-77598296D01*
X123800004Y-77586384D01*
X123799996Y-77586384D01*
X123618958Y-77606781D01*
X123618953Y-77606782D01*
X123446982Y-77666958D01*
X123348472Y-77728857D01*
X123281236Y-77747857D01*
X123214400Y-77727489D01*
X123169186Y-77674222D01*
X123158500Y-77623863D01*
X123158500Y-77501362D01*
X123158499Y-77501345D01*
X123151989Y-77440798D01*
X123115636Y-77343334D01*
X123110652Y-77273643D01*
X123115636Y-77256666D01*
X123133551Y-77208636D01*
X123151989Y-77159201D01*
X123152650Y-77153049D01*
X123158499Y-77098654D01*
X123158500Y-77098637D01*
X123158500Y-75901362D01*
X123158499Y-75901345D01*
X123153489Y-75854755D01*
X123151989Y-75840799D01*
X123138187Y-75803796D01*
X123125042Y-75768551D01*
X123100889Y-75703796D01*
X123013261Y-75586739D01*
X122896204Y-75499111D01*
X122873951Y-75490811D01*
X122759203Y-75448011D01*
X122698654Y-75441500D01*
X122698638Y-75441500D01*
X121901362Y-75441500D01*
X121901345Y-75441500D01*
X121840797Y-75448011D01*
X121840795Y-75448011D01*
X121703795Y-75499111D01*
X121586739Y-75586739D01*
X121499111Y-75703795D01*
X121463667Y-75798822D01*
X121421795Y-75854755D01*
X121382061Y-75874569D01*
X121380487Y-75875026D01*
X121361461Y-75878965D01*
X121341211Y-75881524D01*
X121341201Y-75881526D01*
X121297291Y-75898911D01*
X121291765Y-75900803D01*
X121246412Y-75913979D01*
X121246407Y-75913981D01*
X121228833Y-75924374D01*
X121211372Y-75932928D01*
X121192386Y-75940446D01*
X121192384Y-75940447D01*
X121154172Y-75968208D01*
X121149290Y-75971415D01*
X121108637Y-75995457D01*
X121094201Y-76009894D01*
X121079415Y-76022523D01*
X121062893Y-76034528D01*
X121062891Y-76034529D01*
X121062891Y-76034530D01*
X121062888Y-76034532D01*
X121032780Y-76070925D01*
X121028849Y-76075246D01*
X120611180Y-76492913D01*
X120598821Y-76502816D01*
X120598994Y-76503025D01*
X120592985Y-76507996D01*
X120545015Y-76559079D01*
X120523872Y-76580222D01*
X120523857Y-76580239D01*
X120519531Y-76585814D01*
X120515747Y-76590244D01*
X120483419Y-76624671D01*
X120483412Y-76624681D01*
X120473579Y-76642567D01*
X120462903Y-76658820D01*
X120450386Y-76674957D01*
X120450385Y-76674959D01*
X120431625Y-76718310D01*
X120429055Y-76723556D01*
X120406303Y-76764941D01*
X120406303Y-76764942D01*
X120401225Y-76784720D01*
X120394925Y-76803122D01*
X120386818Y-76821857D01*
X120379431Y-76868495D01*
X120378246Y-76874216D01*
X120366500Y-76919965D01*
X120366500Y-76940384D01*
X120364973Y-76959783D01*
X120361780Y-76979941D01*
X120361780Y-76979942D01*
X109020057Y-76979942D01*
X116963681Y-69036319D01*
X117025004Y-69002834D01*
X117051362Y-69000000D01*
X141204059Y-69000000D01*
X141271098Y-69019685D01*
G37*
%TD.AperFunction*%
%TA.AperFunction,Conductor*%
G36*
X128705202Y-89501553D02*
G01*
X128711680Y-89507585D01*
X129878024Y-90673929D01*
X129911509Y-90735252D01*
X129906525Y-90804944D01*
X129878024Y-90849291D01*
X128186179Y-92541136D01*
X128173820Y-92551040D01*
X128173993Y-92551249D01*
X128167982Y-92556221D01*
X128120015Y-92607301D01*
X128098871Y-92628444D01*
X128098863Y-92628453D01*
X128094531Y-92634036D01*
X128090746Y-92638467D01*
X128058416Y-92672897D01*
X128058412Y-92672903D01*
X128048579Y-92690789D01*
X128037903Y-92707042D01*
X128025386Y-92723179D01*
X128025385Y-92723181D01*
X128006625Y-92766532D01*
X128004055Y-92771778D01*
X127981303Y-92813163D01*
X127981303Y-92813164D01*
X127976225Y-92832942D01*
X127969925Y-92851344D01*
X127961818Y-92870079D01*
X127954431Y-92916717D01*
X127953246Y-92922438D01*
X127941500Y-92968187D01*
X127941500Y-92988606D01*
X127939972Y-93008005D01*
X127936780Y-93028165D01*
X127939362Y-93055484D01*
X127941225Y-93075188D01*
X127941500Y-93081026D01*
X127941500Y-94426000D01*
X127921815Y-94493039D01*
X127869011Y-94538794D01*
X127817500Y-94550000D01*
X127574000Y-94550000D01*
X127506961Y-94530315D01*
X127461206Y-94477511D01*
X127450000Y-94426000D01*
X127450000Y-93050000D01*
X127202155Y-93050000D01*
X127142627Y-93056401D01*
X127142617Y-93056403D01*
X127002796Y-93108553D01*
X126933105Y-93113537D01*
X126900055Y-93101213D01*
X126898091Y-93100141D01*
X126848678Y-93050744D01*
X126833500Y-92991299D01*
X126833500Y-91298809D01*
X126853185Y-91231770D01*
X126905989Y-91186015D01*
X126975147Y-91176071D01*
X126996505Y-91181103D01*
X127097305Y-91214505D01*
X127097309Y-91214506D01*
X127200019Y-91224999D01*
X127249999Y-91224998D01*
X127250000Y-91224998D01*
X127749999Y-91224998D01*
X127750000Y-91224999D01*
X127799972Y-91224999D01*
X127799986Y-91224998D01*
X127902697Y-91214505D01*
X128069119Y-91159358D01*
X128069124Y-91159356D01*
X128218345Y-91067315D01*
X128342315Y-90943345D01*
X128434356Y-90794124D01*
X128434358Y-90794119D01*
X128489505Y-90627697D01*
X128489506Y-90627690D01*
X128499999Y-90524986D01*
X128500000Y-90524973D01*
X128500000Y-90250000D01*
X127750000Y-90250000D01*
X127749999Y-91224998D01*
X127250000Y-91224998D01*
X127250000Y-89874000D01*
X127269685Y-89806961D01*
X127322489Y-89761206D01*
X127374000Y-89750000D01*
X128499999Y-89750000D01*
X128499999Y-89595266D01*
X128519684Y-89528227D01*
X128572488Y-89482472D01*
X128641646Y-89472528D01*
X128705202Y-89501553D01*
G37*
%TD.AperFunction*%
%TA.AperFunction,Conductor*%
G36*
X176515677Y-69019685D02*
G01*
X176536319Y-69036319D01*
X180482906Y-72982906D01*
X180516391Y-73044229D01*
X180511407Y-73113921D01*
X180482906Y-73158268D01*
X180031168Y-73610006D01*
X179992951Y-73657431D01*
X179992948Y-73657436D01*
X179932207Y-73790438D01*
X179932206Y-73790443D01*
X179911398Y-73935175D01*
X179932206Y-74079908D01*
X179932207Y-74079913D01*
X179982317Y-74189637D01*
X179992950Y-74212919D01*
X180031170Y-74260348D01*
X180031173Y-74260351D01*
X180031178Y-74260357D01*
X180665630Y-74894809D01*
X180665635Y-74894813D01*
X180665640Y-74894818D01*
X180713069Y-74933038D01*
X180754196Y-74951820D01*
X180846074Y-74993780D01*
X180846077Y-74993780D01*
X180846078Y-74993781D01*
X180990812Y-75014590D01*
X181135546Y-74993781D01*
X181135547Y-74993780D01*
X181135549Y-74993780D01*
X181176673Y-74974998D01*
X181268555Y-74933038D01*
X181315983Y-74894818D01*
X181767721Y-74443079D01*
X181829042Y-74409596D01*
X181898733Y-74414580D01*
X181943081Y-74443081D01*
X185856918Y-78356918D01*
X185890403Y-78418241D01*
X185885419Y-78487933D01*
X185856918Y-78532280D01*
X185405180Y-78984018D01*
X185366963Y-79031443D01*
X185366960Y-79031448D01*
X185306219Y-79164450D01*
X185306218Y-79164455D01*
X185285410Y-79309188D01*
X185306218Y-79453920D01*
X185306219Y-79453925D01*
X185357840Y-79566957D01*
X185366962Y-79586931D01*
X185405182Y-79634360D01*
X185405185Y-79634363D01*
X185405190Y-79634369D01*
X186039642Y-80268821D01*
X186039647Y-80268825D01*
X186039652Y-80268830D01*
X186087081Y-80307050D01*
X186114930Y-80319768D01*
X186220086Y-80367792D01*
X186220089Y-80367792D01*
X186220090Y-80367793D01*
X186364824Y-80388602D01*
X186509558Y-80367793D01*
X186509559Y-80367792D01*
X186509561Y-80367792D01*
X186555130Y-80346981D01*
X186642567Y-80307050D01*
X186689995Y-80268830D01*
X187141733Y-79817091D01*
X187203054Y-79783608D01*
X187272745Y-79788592D01*
X187317093Y-79817093D01*
X191858657Y-84358657D01*
X191892142Y-84419980D01*
X191887158Y-84489672D01*
X191845286Y-84545605D01*
X191779822Y-84570022D01*
X191764487Y-84570168D01*
X191600002Y-84561548D01*
X191599999Y-84561548D01*
X191222289Y-84581343D01*
X190848726Y-84640510D01*
X190848724Y-84640510D01*
X190483374Y-84738405D01*
X190130273Y-84873948D01*
X189793269Y-85045661D01*
X189476073Y-85251650D01*
X189182133Y-85489678D01*
X189182125Y-85489685D01*
X188914685Y-85757125D01*
X188914678Y-85757133D01*
X188676650Y-86051073D01*
X188470661Y-86368269D01*
X188298948Y-86705273D01*
X188163405Y-87058374D01*
X188065510Y-87423724D01*
X188065510Y-87423726D01*
X188006343Y-87797289D01*
X187986548Y-88174999D01*
X187986548Y-88175000D01*
X188006343Y-88552710D01*
X188052083Y-88841500D01*
X188065511Y-88926279D01*
X188153751Y-89255598D01*
X188163405Y-89291625D01*
X188298948Y-89644726D01*
X188470661Y-89981730D01*
X188676650Y-90298926D01*
X188676654Y-90298931D01*
X188676656Y-90298934D01*
X188914682Y-90592871D01*
X189182129Y-90860318D01*
X189476066Y-91098344D01*
X189476071Y-91098347D01*
X189476072Y-91098348D01*
X189782719Y-91297487D01*
X189793274Y-91304341D01*
X189994328Y-91406783D01*
X190029539Y-91424724D01*
X190080335Y-91472699D01*
X190097130Y-91540519D01*
X190097034Y-91542418D01*
X190086401Y-91724995D01*
X190086401Y-91725003D01*
X190106778Y-92074857D01*
X190106779Y-92074868D01*
X190167630Y-92419975D01*
X190167632Y-92419982D01*
X190268143Y-92755713D01*
X190406946Y-93077492D01*
X190406956Y-93077513D01*
X190522125Y-93276993D01*
X190538598Y-93344893D01*
X190515745Y-93410920D01*
X190502444Y-93426648D01*
X190498938Y-93430156D01*
X190437625Y-93463659D01*
X190411232Y-93466500D01*
X179278765Y-93466500D01*
X179211726Y-93446815D01*
X179165971Y-93394011D01*
X179156027Y-93324853D01*
X179185052Y-93261297D01*
X179191084Y-93254819D01*
X179751085Y-92694819D01*
X179812408Y-92661334D01*
X179838766Y-92658500D01*
X180448638Y-92658500D01*
X180448654Y-92658499D01*
X180475692Y-92655591D01*
X180509201Y-92651989D01*
X180646204Y-92600889D01*
X180763261Y-92513261D01*
X180850889Y-92396204D01*
X180901989Y-92259201D01*
X180905591Y-92225692D01*
X180908499Y-92198654D01*
X180908500Y-92198637D01*
X180908500Y-91201362D01*
X180908499Y-91201345D01*
X180903984Y-91159356D01*
X180901989Y-91140799D01*
X180895480Y-91123349D01*
X180877084Y-91074028D01*
X180850889Y-91003796D01*
X180763261Y-90886739D01*
X180646204Y-90799111D01*
X180642523Y-90797738D01*
X180509203Y-90748011D01*
X180448654Y-90741500D01*
X180448638Y-90741500D01*
X179941085Y-90741500D01*
X179874046Y-90721815D01*
X179828291Y-90669011D01*
X179818347Y-90599853D01*
X179820193Y-90589910D01*
X179822553Y-90579571D01*
X179828641Y-90525544D01*
X179858499Y-90260536D01*
X179858500Y-90260532D01*
X179858500Y-90026115D01*
X179846906Y-89979078D01*
X179823136Y-89882638D01*
X179823134Y-89882635D01*
X179822405Y-89879675D01*
X179822405Y-89820323D01*
X179823133Y-89817366D01*
X179823136Y-89817362D01*
X179858500Y-89673885D01*
X179858500Y-89600000D01*
X179858500Y-89439470D01*
X179844238Y-89312893D01*
X179822555Y-89120443D01*
X179822553Y-89120433D01*
X179822553Y-89120429D01*
X179820193Y-89110089D01*
X179824468Y-89040351D01*
X179865768Y-88983994D01*
X179930981Y-88958912D01*
X179941085Y-88958500D01*
X180448638Y-88958500D01*
X180448654Y-88958499D01*
X180475692Y-88955591D01*
X180509201Y-88951989D01*
X180511116Y-88951275D01*
X180527454Y-88945181D01*
X180646204Y-88900889D01*
X180763261Y-88813261D01*
X180850889Y-88696204D01*
X180901989Y-88559201D01*
X180906207Y-88519965D01*
X180908499Y-88498654D01*
X180908500Y-88498637D01*
X180908500Y-87501362D01*
X180908499Y-87501345D01*
X180902841Y-87448726D01*
X180901989Y-87440799D01*
X180896302Y-87425553D01*
X180866034Y-87344401D01*
X180850889Y-87303796D01*
X180763261Y-87186739D01*
X180646204Y-87099111D01*
X180646203Y-87099111D01*
X180509203Y-87048011D01*
X180448654Y-87041500D01*
X180448638Y-87041500D01*
X179838767Y-87041500D01*
X179771728Y-87021815D01*
X179751086Y-87005181D01*
X179307088Y-86561183D01*
X179297187Y-86548823D01*
X179296977Y-86548998D01*
X179292002Y-86542986D01*
X179292000Y-86542982D01*
X179257693Y-86510766D01*
X179240922Y-86495016D01*
X179219768Y-86473863D01*
X179217792Y-86472331D01*
X179214183Y-86469531D01*
X179209750Y-86465744D01*
X179209462Y-86465474D01*
X179175321Y-86433414D01*
X179175319Y-86433412D01*
X179157431Y-86423578D01*
X179141170Y-86412897D01*
X179125039Y-86400384D01*
X179081693Y-86381627D01*
X179076445Y-86379056D01*
X179049024Y-86363982D01*
X179035060Y-86356305D01*
X179031660Y-86355432D01*
X179015287Y-86351228D01*
X178996881Y-86344926D01*
X178978144Y-86336818D01*
X178978146Y-86336818D01*
X178931496Y-86329430D01*
X178925781Y-86328246D01*
X178905612Y-86323068D01*
X178880032Y-86316500D01*
X178880030Y-86316500D01*
X178859616Y-86316500D01*
X178840217Y-86314973D01*
X178820058Y-86311780D01*
X178820057Y-86311780D01*
X178773034Y-86316225D01*
X178767196Y-86316500D01*
X178079020Y-86316500D01*
X178011981Y-86296815D01*
X177966226Y-86244011D01*
X177962839Y-86235834D01*
X177950889Y-86203796D01*
X177945431Y-86196505D01*
X177863261Y-86086739D01*
X177746204Y-85999111D01*
X177711101Y-85986018D01*
X177609203Y-85948011D01*
X177548654Y-85941500D01*
X177548638Y-85941500D01*
X176451362Y-85941500D01*
X176451345Y-85941500D01*
X176390797Y-85948011D01*
X176390795Y-85948011D01*
X176253795Y-85999111D01*
X176136739Y-86086739D01*
X176049110Y-86203796D01*
X176037161Y-86235834D01*
X175995290Y-86291768D01*
X175929825Y-86316184D01*
X175920980Y-86316500D01*
X175283634Y-86316500D01*
X175267886Y-86314761D01*
X175267861Y-86315032D01*
X175260094Y-86314298D01*
X175260091Y-86314298D01*
X175190042Y-86316500D01*
X175160137Y-86316500D01*
X175153143Y-86317384D01*
X175147320Y-86317842D01*
X175100111Y-86319326D01*
X175100108Y-86319327D01*
X175080505Y-86325022D01*
X175061459Y-86328966D01*
X175041203Y-86331526D01*
X175041201Y-86331526D01*
X175041199Y-86331527D01*
X174997282Y-86348914D01*
X174991756Y-86350806D01*
X174946406Y-86363982D01*
X174928833Y-86374374D01*
X174911370Y-86382929D01*
X174892385Y-86390446D01*
X174892383Y-86390447D01*
X174854179Y-86418204D01*
X174849296Y-86421412D01*
X174808637Y-86445458D01*
X174794196Y-86459898D01*
X174779408Y-86472527D01*
X174762897Y-86484523D01*
X174762892Y-86484528D01*
X174732790Y-86520914D01*
X174728858Y-86525235D01*
X174248914Y-87005181D01*
X174187591Y-87038666D01*
X174161233Y-87041500D01*
X174138767Y-87041500D01*
X174071728Y-87021815D01*
X174051090Y-87005185D01*
X173882086Y-86836182D01*
X173872188Y-86823825D01*
X173871978Y-86824000D01*
X173867003Y-86817988D01*
X173867000Y-86817982D01*
X173834438Y-86787404D01*
X173815921Y-86770015D01*
X173794768Y-86748863D01*
X173792792Y-86747331D01*
X173789183Y-86744531D01*
X173784750Y-86740744D01*
X173783051Y-86739149D01*
X173750321Y-86708414D01*
X173750319Y-86708412D01*
X173732431Y-86698578D01*
X173716170Y-86687897D01*
X173700039Y-86675384D01*
X173656693Y-86656627D01*
X173651445Y-86654056D01*
X173624251Y-86639106D01*
X173610060Y-86631305D01*
X173596931Y-86627934D01*
X173590287Y-86626228D01*
X173571881Y-86619926D01*
X173553144Y-86611818D01*
X173553146Y-86611818D01*
X173506496Y-86604430D01*
X173500781Y-86603246D01*
X173479466Y-86597774D01*
X173455032Y-86591500D01*
X173455030Y-86591500D01*
X173434616Y-86591500D01*
X173415217Y-86589973D01*
X173395058Y-86586780D01*
X173395057Y-86586780D01*
X173348034Y-86591225D01*
X173342196Y-86591500D01*
X167496605Y-86591500D01*
X167473374Y-86589304D01*
X167465096Y-86587725D01*
X167465092Y-86587725D01*
X167456042Y-86588294D01*
X167407019Y-86591378D01*
X167403147Y-86591500D01*
X167385144Y-86591500D01*
X167381601Y-86591947D01*
X167367280Y-86593755D01*
X167363408Y-86594121D01*
X167305351Y-86597774D01*
X167305349Y-86597775D01*
X167297329Y-86600381D01*
X167274563Y-86605469D01*
X167272776Y-86605695D01*
X167266206Y-86606525D01*
X167266203Y-86606525D01*
X167266203Y-86606526D01*
X167252836Y-86611818D01*
X167212129Y-86627934D01*
X167208467Y-86629252D01*
X167153129Y-86647234D01*
X167153119Y-86647239D01*
X167146003Y-86651755D01*
X167125221Y-86662344D01*
X167117383Y-86665448D01*
X167117380Y-86665449D01*
X167117378Y-86665451D01*
X167070330Y-86699632D01*
X167067111Y-86701820D01*
X167017986Y-86732996D01*
X167017978Y-86733003D01*
X167012207Y-86739149D01*
X166994710Y-86754575D01*
X166987893Y-86759527D01*
X166987893Y-86759528D01*
X166950811Y-86804351D01*
X166948236Y-86807272D01*
X166908416Y-86849675D01*
X166908413Y-86849679D01*
X166904355Y-86857062D01*
X166891241Y-86876358D01*
X166885866Y-86882855D01*
X166861097Y-86935491D01*
X166859330Y-86938959D01*
X166838291Y-86977233D01*
X166788746Y-87026499D01*
X166729626Y-87041500D01*
X166251345Y-87041500D01*
X166190797Y-87048011D01*
X166190795Y-87048011D01*
X166053795Y-87099111D01*
X165936739Y-87186739D01*
X165849111Y-87303795D01*
X165798011Y-87440795D01*
X165798011Y-87440797D01*
X165791500Y-87501345D01*
X165791500Y-88098654D01*
X165798010Y-88159201D01*
X165806390Y-88181666D01*
X165811374Y-88251358D01*
X165806390Y-88268334D01*
X165798010Y-88290798D01*
X165791500Y-88351345D01*
X165791500Y-88492500D01*
X165771815Y-88559539D01*
X165719011Y-88605294D01*
X165667500Y-88616500D01*
X149633634Y-88616500D01*
X149617886Y-88614761D01*
X149617861Y-88615032D01*
X149610094Y-88614298D01*
X149610091Y-88614298D01*
X149540042Y-88616500D01*
X149510137Y-88616500D01*
X149503143Y-88617384D01*
X149497320Y-88617842D01*
X149450111Y-88619326D01*
X149450108Y-88619327D01*
X149430505Y-88625022D01*
X149411459Y-88628966D01*
X149391203Y-88631526D01*
X149391201Y-88631526D01*
X149391199Y-88631527D01*
X149347282Y-88648914D01*
X149341756Y-88650806D01*
X149296406Y-88663982D01*
X149278833Y-88674374D01*
X149261370Y-88682929D01*
X149242385Y-88690446D01*
X149242383Y-88690447D01*
X149204179Y-88718204D01*
X149199296Y-88721412D01*
X149158637Y-88745458D01*
X149144196Y-88759898D01*
X149129408Y-88772527D01*
X149112897Y-88784523D01*
X149112892Y-88784528D01*
X149082790Y-88820914D01*
X149078858Y-88825236D01*
X148873912Y-89030181D01*
X148812589Y-89063666D01*
X148786231Y-89066500D01*
X148199462Y-89066500D01*
X148199446Y-89066501D01*
X148095572Y-89077113D01*
X147927264Y-89132884D01*
X147927259Y-89132886D01*
X147776346Y-89225971D01*
X147650971Y-89351346D01*
X147557882Y-89502266D01*
X147531627Y-89581503D01*
X147491855Y-89638948D01*
X147427340Y-89665772D01*
X147413921Y-89666500D01*
X147013766Y-89666500D01*
X146946727Y-89646815D01*
X146926085Y-89630181D01*
X146373906Y-89078001D01*
X146340421Y-89016678D01*
X146342362Y-88960139D01*
X146341924Y-88960059D01*
X146342467Y-88957081D01*
X146342514Y-88955714D01*
X146343062Y-88953831D01*
X146345118Y-88927700D01*
X146346000Y-88916505D01*
X146346000Y-88483495D01*
X146343062Y-88446170D01*
X146343061Y-88446164D01*
X146296646Y-88286403D01*
X146296645Y-88286399D01*
X146230763Y-88174999D01*
X146211955Y-88143196D01*
X146211948Y-88143187D01*
X146094312Y-88025551D01*
X146094303Y-88025544D01*
X145951101Y-87940855D01*
X145951096Y-87940853D01*
X145791335Y-87894438D01*
X145791329Y-87894437D01*
X145754005Y-87891500D01*
X145754002Y-87891500D01*
X144445998Y-87891500D01*
X144445995Y-87891500D01*
X144408670Y-87894437D01*
X144408664Y-87894438D01*
X144248903Y-87940853D01*
X144248902Y-87940853D01*
X144248898Y-87940855D01*
X144248899Y-87940855D01*
X144178087Y-87982733D01*
X144114969Y-88000000D01*
X143475000Y-88000000D01*
X143475000Y-88550000D01*
X143730000Y-88550000D01*
X143797039Y-88569685D01*
X143842794Y-88622489D01*
X143854000Y-88674000D01*
X143854000Y-88717500D01*
X143834315Y-88784539D01*
X143781511Y-88830294D01*
X143730000Y-88841500D01*
X143363767Y-88841500D01*
X143296728Y-88821815D01*
X143276086Y-88805181D01*
X143011319Y-88540414D01*
X142977834Y-88479091D01*
X142975000Y-88452733D01*
X142975000Y-87624000D01*
X142994685Y-87556961D01*
X143047489Y-87511206D01*
X143099000Y-87500000D01*
X144459795Y-87500000D01*
X144459795Y-87499998D01*
X144459600Y-87497513D01*
X144413781Y-87339801D01*
X144330185Y-87198447D01*
X144330178Y-87198438D01*
X144214061Y-87082321D01*
X144214053Y-87082315D01*
X144183476Y-87064232D01*
X144135793Y-87013163D01*
X144123289Y-86944422D01*
X144149934Y-86879832D01*
X144207269Y-86839902D01*
X144246597Y-86833500D01*
X147367500Y-86833500D01*
X147434539Y-86853185D01*
X147480294Y-86905989D01*
X147491500Y-86957500D01*
X147491500Y-87425537D01*
X147491501Y-87425553D01*
X147502113Y-87529427D01*
X147557884Y-87697735D01*
X147557886Y-87697740D01*
X147590359Y-87750386D01*
X147650970Y-87848652D01*
X147776348Y-87974030D01*
X147927262Y-88067115D01*
X148095574Y-88122887D01*
X148199455Y-88133500D01*
X148800544Y-88133499D01*
X148904426Y-88122887D01*
X149072738Y-88067115D01*
X149223652Y-87974030D01*
X149349030Y-87848652D01*
X149349449Y-87847971D01*
X149349859Y-87847602D01*
X149353511Y-87842985D01*
X149354299Y-87843608D01*
X149401389Y-87801244D01*
X149470350Y-87790014D01*
X149534436Y-87817850D01*
X149552261Y-87838420D01*
X149553202Y-87837677D01*
X149557683Y-87843344D01*
X149681654Y-87967315D01*
X149830875Y-88059356D01*
X149830880Y-88059358D01*
X149997302Y-88114505D01*
X149997309Y-88114506D01*
X150100019Y-88124999D01*
X150149999Y-88124998D01*
X150150000Y-88124998D01*
X150150000Y-87150000D01*
X150650000Y-87150000D01*
X150650000Y-88124999D01*
X150699972Y-88124999D01*
X150699986Y-88124998D01*
X150802697Y-88114505D01*
X150969119Y-88059358D01*
X150969124Y-88059356D01*
X151118345Y-87967315D01*
X151242315Y-87843345D01*
X151334356Y-87694124D01*
X151334358Y-87694119D01*
X151389505Y-87527697D01*
X151389506Y-87527690D01*
X151399999Y-87424986D01*
X151400000Y-87424973D01*
X151400000Y-87150000D01*
X150650000Y-87150000D01*
X150150000Y-87150000D01*
X150150000Y-86774000D01*
X150169685Y-86706961D01*
X150222489Y-86661206D01*
X150274000Y-86650000D01*
X151399999Y-86650000D01*
X151399999Y-86375028D01*
X151399998Y-86375013D01*
X151389506Y-86272304D01*
X151364388Y-86196505D01*
X151361986Y-86126676D01*
X151397717Y-86066634D01*
X151460238Y-86035441D01*
X151482094Y-86033500D01*
X173755706Y-86033500D01*
X173771453Y-86035238D01*
X173771479Y-86034968D01*
X173779245Y-86035701D01*
X173779249Y-86035702D01*
X173849298Y-86033500D01*
X173879196Y-86033500D01*
X173879197Y-86033500D01*
X173880562Y-86033327D01*
X173886202Y-86032614D01*
X173892025Y-86032156D01*
X173918048Y-86031338D01*
X173939230Y-86030673D01*
X173949021Y-86027827D01*
X173958821Y-86024980D01*
X173977878Y-86021032D01*
X173998137Y-86018474D01*
X174042061Y-86001082D01*
X174047561Y-85999199D01*
X174092933Y-85986018D01*
X174110505Y-85975625D01*
X174127972Y-85967068D01*
X174146957Y-85959552D01*
X174185166Y-85931790D01*
X174190044Y-85928585D01*
X174230702Y-85904542D01*
X174245142Y-85890100D01*
X174259932Y-85877470D01*
X174276447Y-85865472D01*
X174306562Y-85829067D01*
X174310466Y-85824776D01*
X179517906Y-80617336D01*
X181714520Y-80617336D01*
X181735328Y-80762068D01*
X181735329Y-80762073D01*
X181796070Y-80895075D01*
X181796073Y-80895080D01*
X181829137Y-80936111D01*
X181834292Y-80942507D01*
X182539473Y-81647688D01*
X182586901Y-81685908D01*
X182615181Y-81698823D01*
X182719906Y-81746650D01*
X182719909Y-81746650D01*
X182719910Y-81746651D01*
X182864644Y-81767460D01*
X183009378Y-81746651D01*
X183009379Y-81746650D01*
X183009381Y-81746650D01*
X183087042Y-81711183D01*
X183142387Y-81685908D01*
X183189816Y-81647688D01*
X183591827Y-81245675D01*
X183653146Y-81212193D01*
X183722838Y-81217177D01*
X183776055Y-81255551D01*
X183785907Y-81267777D01*
X183785909Y-81267779D01*
X183785914Y-81267785D01*
X184420367Y-81902238D01*
X184420372Y-81902242D01*
X184420377Y-81902247D01*
X184467806Y-81940467D01*
X184505806Y-81957821D01*
X184600811Y-82001209D01*
X184600814Y-82001209D01*
X184600815Y-82001210D01*
X184745549Y-82022019D01*
X184890283Y-82001210D01*
X184890284Y-82001209D01*
X184890286Y-82001209D01*
X184964912Y-81967128D01*
X185023292Y-81940467D01*
X185070720Y-81902247D01*
X185775901Y-81197066D01*
X185814121Y-81149638D01*
X185865967Y-81036111D01*
X185874863Y-81016632D01*
X185874864Y-81016627D01*
X185895673Y-80871895D01*
X185874864Y-80727161D01*
X185874863Y-80727160D01*
X185874863Y-80727157D01*
X185824709Y-80617336D01*
X185814121Y-80594152D01*
X185775901Y-80546723D01*
X185775896Y-80546718D01*
X185775892Y-80546713D01*
X185141440Y-79912261D01*
X185141434Y-79912256D01*
X185141431Y-79912253D01*
X185094002Y-79874033D01*
X185093998Y-79874031D01*
X184960996Y-79813290D01*
X184960991Y-79813289D01*
X184816259Y-79792481D01*
X184671526Y-79813289D01*
X184671521Y-79813290D01*
X184538519Y-79874031D01*
X184538514Y-79874034D01*
X184491087Y-79912253D01*
X184336565Y-80066775D01*
X184275242Y-80100259D01*
X184205550Y-80095275D01*
X184152331Y-80056896D01*
X184142484Y-80044677D01*
X183437303Y-79339496D01*
X183420709Y-79326124D01*
X183389876Y-79301277D01*
X183389875Y-79301276D01*
X183389871Y-79301274D01*
X183256869Y-79240533D01*
X183256864Y-79240532D01*
X183112132Y-79219724D01*
X182967399Y-79240532D01*
X182967394Y-79240533D01*
X182834392Y-79301274D01*
X182834387Y-79301277D01*
X182786950Y-79339504D01*
X181834300Y-80292154D01*
X181796073Y-80339591D01*
X181796070Y-80339596D01*
X181735329Y-80472598D01*
X181735328Y-80472603D01*
X181714520Y-80617336D01*
X179517906Y-80617336D01*
X180478018Y-79657224D01*
X180539339Y-79623741D01*
X180589599Y-79625538D01*
X180589811Y-79624069D01*
X180613968Y-79627542D01*
X180743324Y-79646140D01*
X180888058Y-79625331D01*
X180888059Y-79625330D01*
X180888061Y-79625330D01*
X180959431Y-79592736D01*
X181021067Y-79564588D01*
X181068496Y-79526368D01*
X182021164Y-78573700D01*
X182043715Y-78545716D01*
X183260160Y-78545716D01*
X183276433Y-78611739D01*
X183300870Y-78710886D01*
X183379923Y-78861509D01*
X183379926Y-78861512D01*
X183492731Y-78988843D01*
X183554455Y-79031448D01*
X183632728Y-79085477D01*
X183632729Y-79085477D01*
X183632730Y-79085478D01*
X183673366Y-79100889D01*
X183777733Y-79140470D01*
X183791788Y-79145800D01*
X183867688Y-79155016D01*
X183918286Y-79161160D01*
X183918288Y-79161160D01*
X184003034Y-79161160D01*
X184045198Y-79156040D01*
X184129532Y-79145800D01*
X184288590Y-79085478D01*
X184428589Y-78988843D01*
X184541394Y-78861512D01*
X184542606Y-78859204D01*
X184595091Y-78759202D01*
X184620450Y-78710885D01*
X184661160Y-78545716D01*
X184661160Y-78375604D01*
X184620450Y-78210435D01*
X184593488Y-78159064D01*
X184541396Y-78059810D01*
X184505200Y-78018953D01*
X184428589Y-77932477D01*
X184370990Y-77892719D01*
X184288591Y-77835842D01*
X184129534Y-77775520D01*
X184129528Y-77775519D01*
X184003034Y-77760160D01*
X184003032Y-77760160D01*
X183918288Y-77760160D01*
X183918286Y-77760160D01*
X183791791Y-77775519D01*
X183791785Y-77775520D01*
X183632728Y-77835842D01*
X183492732Y-77932476D01*
X183379923Y-78059810D01*
X183300870Y-78210433D01*
X183300870Y-78210435D01*
X183260160Y-78375604D01*
X183260160Y-78545716D01*
X182043715Y-78545716D01*
X182059384Y-78526271D01*
X182120127Y-78393262D01*
X182140936Y-78248528D01*
X182120127Y-78103794D01*
X182120126Y-78103793D01*
X182120126Y-78103790D01*
X182059385Y-77970788D01*
X182059384Y-77970785D01*
X182021164Y-77923357D01*
X181315983Y-77218176D01*
X181311009Y-77214168D01*
X181268556Y-77179957D01*
X181268555Y-77179956D01*
X181246358Y-77169819D01*
X181135546Y-77119213D01*
X181135542Y-77119212D01*
X181127479Y-77115530D01*
X181128764Y-77112715D01*
X181082889Y-77083206D01*
X181064969Y-77050372D01*
X181063152Y-77051202D01*
X181023400Y-76964158D01*
X180998724Y-76910125D01*
X180969787Y-76874216D01*
X180960505Y-76862698D01*
X180522202Y-76424395D01*
X181138840Y-76424395D01*
X181179550Y-76589566D01*
X181258603Y-76740189D01*
X181280800Y-76765244D01*
X181371411Y-76867523D01*
X181433135Y-76910128D01*
X181511408Y-76964157D01*
X181511409Y-76964157D01*
X181511410Y-76964158D01*
X181597626Y-76996855D01*
X181668031Y-77023556D01*
X181670468Y-77024480D01*
X181739022Y-77032804D01*
X181796966Y-77039840D01*
X181796968Y-77039840D01*
X181881714Y-77039840D01*
X181923878Y-77034720D01*
X182008212Y-77024480D01*
X182167270Y-76964158D01*
X182307269Y-76867523D01*
X182420074Y-76740192D01*
X182423283Y-76734079D01*
X182471312Y-76642567D01*
X182499130Y-76589565D01*
X182539840Y-76424396D01*
X182539840Y-76254284D01*
X182499130Y-76089115D01*
X182491851Y-76075246D01*
X182420076Y-75938490D01*
X182385012Y-75898911D01*
X182307269Y-75811157D01*
X182245544Y-75768551D01*
X182167271Y-75714522D01*
X182008214Y-75654200D01*
X182008208Y-75654199D01*
X181881714Y-75638840D01*
X181881712Y-75638840D01*
X181796968Y-75638840D01*
X181796966Y-75638840D01*
X181670471Y-75654199D01*
X181670465Y-75654200D01*
X181511408Y-75714522D01*
X181371412Y-75811156D01*
X181258603Y-75938490D01*
X181179550Y-76089113D01*
X181138840Y-76254284D01*
X181138840Y-76424395D01*
X180522202Y-76424395D01*
X180255325Y-76157518D01*
X180255315Y-76157509D01*
X180250933Y-76153978D01*
X180211083Y-76096586D01*
X180208588Y-76026761D01*
X180241054Y-75969746D01*
X180394818Y-75815983D01*
X180433038Y-75768555D01*
X180485262Y-75654200D01*
X180493780Y-75635549D01*
X180493781Y-75635544D01*
X180500798Y-75586739D01*
X180514590Y-75490812D01*
X180493781Y-75346078D01*
X180493780Y-75346077D01*
X180493780Y-75346074D01*
X180433039Y-75213072D01*
X180433038Y-75213069D01*
X180394818Y-75165640D01*
X180394813Y-75165635D01*
X180394809Y-75165630D01*
X179760357Y-74531178D01*
X179760351Y-74531173D01*
X179760348Y-74531170D01*
X179712919Y-74492950D01*
X179712915Y-74492948D01*
X179579913Y-74432207D01*
X179579908Y-74432206D01*
X179435176Y-74411398D01*
X179290443Y-74432206D01*
X179290438Y-74432207D01*
X179157436Y-74492948D01*
X179157431Y-74492951D01*
X179110006Y-74531168D01*
X178603618Y-75037556D01*
X178542295Y-75071041D01*
X178472603Y-75066057D01*
X178428256Y-75037556D01*
X175596498Y-72205798D01*
X172701884Y-69311183D01*
X172691983Y-69298823D01*
X172691773Y-69298998D01*
X172686798Y-69292986D01*
X172686796Y-69292982D01*
X172660454Y-69268245D01*
X172635718Y-69245016D01*
X172614564Y-69223863D01*
X172612134Y-69221978D01*
X172571228Y-69165335D01*
X172567440Y-69095568D01*
X172601971Y-69034828D01*
X172663860Y-69002400D01*
X172688136Y-69000000D01*
X176448638Y-69000000D01*
X176515677Y-69019685D01*
G37*
%TD.AperFunction*%
%TA.AperFunction,Conductor*%
G36*
X124963419Y-88203185D02*
G01*
X125009174Y-88255989D01*
X125019118Y-88325147D01*
X125008345Y-88357362D01*
X125009175Y-88357691D01*
X125006303Y-88364942D01*
X125001225Y-88384720D01*
X124994925Y-88403122D01*
X124986818Y-88421857D01*
X124979431Y-88468495D01*
X124978246Y-88474216D01*
X124966500Y-88519965D01*
X124966500Y-88540384D01*
X124964973Y-88559783D01*
X124961780Y-88579941D01*
X124961780Y-88579942D01*
X124966225Y-88626966D01*
X124966500Y-88632804D01*
X124966500Y-88801156D01*
X124946815Y-88868195D01*
X124907599Y-88906693D01*
X124876350Y-88925967D01*
X124750971Y-89051346D01*
X124657882Y-89202266D01*
X124631627Y-89281503D01*
X124591855Y-89338948D01*
X124527340Y-89365772D01*
X124513921Y-89366500D01*
X124286079Y-89366500D01*
X124219040Y-89346815D01*
X124173285Y-89294011D01*
X124168373Y-89281503D01*
X124142117Y-89202266D01*
X124142115Y-89202262D01*
X124049030Y-89051348D01*
X123923652Y-88925970D01*
X123785316Y-88840643D01*
X123772740Y-88832886D01*
X123772735Y-88832884D01*
X123604427Y-88777113D01*
X123500546Y-88766500D01*
X122899462Y-88766500D01*
X122899446Y-88766501D01*
X122795572Y-88777113D01*
X122627264Y-88832884D01*
X122627259Y-88832886D01*
X122476346Y-88925971D01*
X122350970Y-89051347D01*
X122350968Y-89051350D01*
X122350541Y-89052043D01*
X122350123Y-89052418D01*
X122346489Y-89057015D01*
X122345703Y-89056393D01*
X122298591Y-89098764D01*
X122229627Y-89109983D01*
X122165547Y-89082136D01*
X122147739Y-89061578D01*
X122146798Y-89062323D01*
X122142316Y-89056655D01*
X122018345Y-88932684D01*
X121869124Y-88840643D01*
X121869119Y-88840641D01*
X121702697Y-88785494D01*
X121702690Y-88785493D01*
X121599986Y-88775000D01*
X121550000Y-88775000D01*
X121550000Y-90126000D01*
X121530315Y-90193039D01*
X121477511Y-90238794D01*
X121426000Y-90250000D01*
X120300001Y-90250000D01*
X120300001Y-90524986D01*
X120310494Y-90627697D01*
X120365641Y-90794119D01*
X120365643Y-90794124D01*
X120457684Y-90943345D01*
X120581654Y-91067315D01*
X120730875Y-91159356D01*
X120730880Y-91159358D01*
X120897302Y-91214505D01*
X120897309Y-91214506D01*
X121000019Y-91224999D01*
X121108645Y-91224999D01*
X121175685Y-91244683D01*
X121221440Y-91297487D01*
X121231384Y-91366645D01*
X121202360Y-91430201D01*
X121153121Y-91463652D01*
X121153258Y-91463936D01*
X121151357Y-91464851D01*
X121149612Y-91466037D01*
X121146987Y-91466955D01*
X121146984Y-91466956D01*
X120992718Y-91563889D01*
X120863889Y-91692718D01*
X120766958Y-91846982D01*
X120706782Y-92018953D01*
X120706781Y-92018958D01*
X120686384Y-92199996D01*
X120686384Y-92200003D01*
X120706781Y-92381041D01*
X120706782Y-92381046D01*
X120727489Y-92440222D01*
X120762800Y-92541136D01*
X120766958Y-92553017D01*
X120836142Y-92663122D01*
X120863889Y-92707281D01*
X120992719Y-92836111D01*
X121046365Y-92869819D01*
X121047046Y-92870247D01*
X121093337Y-92922582D01*
X121103985Y-92991636D01*
X121075610Y-93055484D01*
X121024411Y-93091421D01*
X120995490Y-93102209D01*
X120994407Y-93099308D01*
X120941126Y-93110886D01*
X120905209Y-93100340D01*
X120904512Y-93102210D01*
X120896204Y-93099111D01*
X120839864Y-93078097D01*
X120759203Y-93048011D01*
X120698654Y-93041500D01*
X120698638Y-93041500D01*
X120238766Y-93041500D01*
X120171727Y-93021815D01*
X120151085Y-93005181D01*
X119508848Y-92362943D01*
X119475363Y-92301620D01*
X119473309Y-92289144D01*
X119468218Y-92243958D01*
X119468217Y-92243953D01*
X119452366Y-92198654D01*
X119408043Y-92071985D01*
X119311111Y-91917719D01*
X119182281Y-91788889D01*
X119112456Y-91745015D01*
X119028017Y-91691958D01*
X119028016Y-91691957D01*
X119028015Y-91691957D01*
X118944966Y-91662897D01*
X118856046Y-91631782D01*
X118856041Y-91631781D01*
X118675004Y-91611384D01*
X118674996Y-91611384D01*
X118493958Y-91631781D01*
X118493953Y-91631782D01*
X118321982Y-91691958D01*
X118167718Y-91788889D01*
X118038889Y-91917718D01*
X117941958Y-92071982D01*
X117881782Y-92243953D01*
X117881781Y-92243958D01*
X117861384Y-92424996D01*
X117861384Y-92425003D01*
X117881781Y-92606041D01*
X117881782Y-92606046D01*
X117917206Y-92707281D01*
X117938876Y-92769211D01*
X117941958Y-92778017D01*
X118024586Y-92909518D01*
X118043586Y-92976754D01*
X118023218Y-93043590D01*
X117969951Y-93088804D01*
X117900694Y-93098042D01*
X117876257Y-93091671D01*
X117759203Y-93048011D01*
X117698654Y-93041500D01*
X117698638Y-93041500D01*
X116701362Y-93041500D01*
X116701345Y-93041500D01*
X116640797Y-93048011D01*
X116640795Y-93048011D01*
X116495488Y-93102210D01*
X116494405Y-93099308D01*
X116441126Y-93110886D01*
X116405209Y-93100340D01*
X116404512Y-93102210D01*
X116396204Y-93099111D01*
X116339864Y-93078097D01*
X116259203Y-93048011D01*
X116198654Y-93041500D01*
X116198638Y-93041500D01*
X115201362Y-93041500D01*
X115201345Y-93041500D01*
X115140798Y-93048010D01*
X115000834Y-93100216D01*
X114931143Y-93105200D01*
X114869819Y-93071716D01*
X114836334Y-93010393D01*
X114833500Y-92984034D01*
X114833500Y-90863765D01*
X114853185Y-90796726D01*
X114869819Y-90776084D01*
X115426085Y-90219819D01*
X115487408Y-90186334D01*
X115513766Y-90183500D01*
X117102762Y-90183500D01*
X117118509Y-90185238D01*
X117118535Y-90184968D01*
X117126301Y-90185701D01*
X117126305Y-90185702D01*
X117196354Y-90183500D01*
X117226252Y-90183500D01*
X117226253Y-90183500D01*
X117227618Y-90183327D01*
X117233258Y-90182614D01*
X117239081Y-90182156D01*
X117265104Y-90181338D01*
X117286286Y-90180673D01*
X117296077Y-90177827D01*
X117305877Y-90174980D01*
X117324934Y-90171032D01*
X117345193Y-90168474D01*
X117389117Y-90151082D01*
X117394617Y-90149199D01*
X117439989Y-90136018D01*
X117457561Y-90125625D01*
X117475028Y-90117068D01*
X117494013Y-90109552D01*
X117532222Y-90081790D01*
X117537100Y-90078585D01*
X117577758Y-90054542D01*
X117592198Y-90040100D01*
X117606988Y-90027470D01*
X117623503Y-90015472D01*
X117653618Y-89979067D01*
X117657522Y-89974776D01*
X117882298Y-89750000D01*
X120300000Y-89750000D01*
X121050000Y-89750000D01*
X121050000Y-88775000D01*
X121049999Y-88774999D01*
X121000029Y-88775000D01*
X121000011Y-88775001D01*
X120897302Y-88785494D01*
X120730880Y-88840641D01*
X120730875Y-88840643D01*
X120581654Y-88932684D01*
X120457684Y-89056654D01*
X120365643Y-89205875D01*
X120365641Y-89205880D01*
X120310494Y-89372302D01*
X120310493Y-89372309D01*
X120300000Y-89475013D01*
X120300000Y-89750000D01*
X117882298Y-89750000D01*
X119412481Y-88219819D01*
X119473805Y-88186334D01*
X119500163Y-88183500D01*
X124896380Y-88183500D01*
X124963419Y-88203185D01*
G37*
%TD.AperFunction*%
%TA.AperFunction,Conductor*%
G36*
X126748516Y-88753185D02*
G01*
X126794271Y-88805989D01*
X126804215Y-88875147D01*
X126775190Y-88938703D01*
X126769158Y-88945181D01*
X126657683Y-89056655D01*
X126653202Y-89062323D01*
X126651021Y-89060598D01*
X126608556Y-89098775D01*
X126539591Y-89109980D01*
X126475516Y-89082121D01*
X126453663Y-89056894D01*
X126453511Y-89057015D01*
X126450816Y-89053606D01*
X126449451Y-89052031D01*
X126449029Y-89051347D01*
X126342863Y-88945181D01*
X126309378Y-88883858D01*
X126314362Y-88814166D01*
X126356234Y-88758233D01*
X126421698Y-88733816D01*
X126430544Y-88733500D01*
X126681477Y-88733500D01*
X126748516Y-88753185D01*
G37*
%TD.AperFunction*%
%TD*%
M02*
