%TF.GenerationSoftware,KiCad,Pcbnew,7.0.6*%
%TF.CreationDate,2023-08-09T23:01:59-05:00*%
%TF.ProjectId,BlueTeamCon_Main,426c7565-5465-4616-9d43-6f6e5f4d6169,rev?*%
%TF.SameCoordinates,Original*%
%TF.FileFunction,Paste,Top*%
%TF.FilePolarity,Positive*%
%FSLAX46Y46*%
G04 Gerber Fmt 4.6, Leading zero omitted, Abs format (unit mm)*
G04 Created by KiCad (PCBNEW 7.0.6) date 2023-08-09 23:01:59*
%MOMM*%
%LPD*%
G01*
G04 APERTURE LIST*
G04 Aperture macros list*
%AMRoundRect*
0 Rectangle with rounded corners*
0 $1 Rounding radius*
0 $2 $3 $4 $5 $6 $7 $8 $9 X,Y pos of 4 corners*
0 Add a 4 corners polygon primitive as box body*
4,1,4,$2,$3,$4,$5,$6,$7,$8,$9,$2,$3,0*
0 Add four circle primitives for the rounded corners*
1,1,$1+$1,$2,$3*
1,1,$1+$1,$4,$5*
1,1,$1+$1,$6,$7*
1,1,$1+$1,$8,$9*
0 Add four rect primitives between the rounded corners*
20,1,$1+$1,$2,$3,$4,$5,0*
20,1,$1+$1,$4,$5,$6,$7,0*
20,1,$1+$1,$6,$7,$8,$9,0*
20,1,$1+$1,$8,$9,$2,$3,0*%
%AMRotRect*
0 Rectangle, with rotation*
0 The origin of the aperture is its center*
0 $1 length*
0 $2 width*
0 $3 Rotation angle, in degrees counterclockwise*
0 Add horizontal line*
21,1,$1,$2,0,0,$3*%
G04 Aperture macros list end*
%ADD10C,1.000000*%
%ADD11RotRect,0.900000X1.250000X315.000000*%
%ADD12RotRect,0.800000X0.900000X315.000000*%
%ADD13R,0.500000X0.800000*%
%ADD14R,0.400000X0.800000*%
%ADD15RoundRect,0.250000X-0.250000X-0.475000X0.250000X-0.475000X0.250000X0.475000X-0.250000X0.475000X0*%
%ADD16RoundRect,0.250000X-0.262500X-0.450000X0.262500X-0.450000X0.262500X0.450000X-0.262500X0.450000X0*%
%ADD17R,0.700000X1.100000*%
%ADD18RoundRect,0.218750X-0.218750X-0.381250X0.218750X-0.381250X0.218750X0.381250X-0.218750X0.381250X0*%
%ADD19R,1.100000X0.900000*%
%ADD20RoundRect,0.150000X-0.587500X-0.150000X0.587500X-0.150000X0.587500X0.150000X-0.587500X0.150000X0*%
%ADD21R,0.800000X0.500000*%
%ADD22R,0.800000X0.400000*%
%ADD23R,1.800000X1.100000*%
%ADD24R,1.400000X0.250000*%
%ADD25O,2.100000X1.000000*%
%ADD26O,1.800000X1.000000*%
%ADD27R,1.600000X3.000000*%
%ADD28R,0.900000X1.500000*%
%ADD29R,1.500000X0.900000*%
%ADD30R,1.100000X1.100000*%
%ADD31RoundRect,0.250000X0.250000X0.475000X-0.250000X0.475000X-0.250000X-0.475000X0.250000X-0.475000X0*%
G04 APERTURE END LIST*
D10*
%TO.C,J2*%
X100950001Y-85700000D02*
G75*
G03*
X99016883Y-88200000I650002J-2500001D01*
G01*
X104196151Y-88200000D02*
G75*
G03*
X102300001Y-85700001I-2596150J0D01*
G01*
X99600003Y-89799999D02*
G75*
G03*
X103599999Y-89799999I1999998J1599999D01*
G01*
%TO.C,J1*%
X190950000Y-85675000D02*
G75*
G03*
X189016882Y-88175000I650002J-2500001D01*
G01*
X194196150Y-88175000D02*
G75*
G03*
X192300000Y-85675001I-2596150J0D01*
G01*
X189600002Y-89774999D02*
G75*
G03*
X193599998Y-89774999I1999998J1599999D01*
G01*
%TO.C,J3*%
X145950000Y-134875000D02*
G75*
G03*
X144016882Y-137375000I650002J-2500001D01*
G01*
X149196150Y-137375000D02*
G75*
G03*
X147300000Y-134875001I-2596150J0D01*
G01*
X144600002Y-138974999D02*
G75*
G03*
X148599998Y-138974999I1999998J1599999D01*
G01*
%TD*%
D11*
%TO.C,SW2*%
X179806408Y-77311612D03*
X180867068Y-78372272D03*
X182988388Y-80493592D03*
D12*
X181026167Y-73899821D03*
X179399821Y-75526167D03*
X186400179Y-79273833D03*
X184780904Y-80907250D03*
%TD*%
D13*
%TO.C,RN2*%
X132000000Y-81800000D03*
D14*
X131200000Y-81800000D03*
X130400000Y-81800000D03*
D13*
X129600000Y-81800000D03*
X129600000Y-83600000D03*
D14*
X130400000Y-83600000D03*
X131200000Y-83600000D03*
D13*
X132000000Y-83600000D03*
%TD*%
D15*
%TO.C,C7*%
X125900000Y-118400000D03*
X127800000Y-118400000D03*
%TD*%
D13*
%TO.C,RN1*%
X99500000Y-96250000D03*
D14*
X98700000Y-96250000D03*
X97900000Y-96250000D03*
D13*
X97100000Y-96250000D03*
X97100000Y-98050000D03*
D14*
X97900000Y-98050000D03*
X98700000Y-98050000D03*
D13*
X99500000Y-98050000D03*
%TD*%
D16*
%TO.C,R1*%
X125875000Y-115000000D03*
X127700000Y-115000000D03*
%TD*%
D17*
%TO.C,D1*%
X122300000Y-76500000D03*
X124900000Y-76500000D03*
X122300000Y-78100000D03*
X124900000Y-78100000D03*
%TD*%
%TO.C,D2*%
X137600000Y-76600000D03*
X140200000Y-76600000D03*
X137600000Y-78200000D03*
X140200000Y-78200000D03*
%TD*%
D18*
%TO.C,L1*%
X137637500Y-88300000D03*
X139762500Y-88300000D03*
%TD*%
D17*
%TO.C,D3*%
X153000000Y-76600000D03*
X155600000Y-76600000D03*
X153000000Y-78200000D03*
X155600000Y-78200000D03*
%TD*%
D19*
%TO.C,SW3*%
X174150000Y-88000000D03*
X179850000Y-88000000D03*
X174150000Y-91700000D03*
X179850000Y-91700000D03*
%TD*%
D15*
%TO.C,C5*%
X125600000Y-90000000D03*
X127500000Y-90000000D03*
%TD*%
D20*
%TO.C,U1*%
X143225000Y-87750000D03*
X143225000Y-89650000D03*
X145100000Y-88700000D03*
%TD*%
D17*
%TO.C,D4*%
X168300000Y-76500000D03*
X170900000Y-76500000D03*
X168300000Y-78100000D03*
X170900000Y-78100000D03*
%TD*%
D21*
%TO.C,RN3*%
X168500000Y-90200000D03*
D22*
X168500000Y-89400000D03*
X168500000Y-88600000D03*
D21*
X168500000Y-87800000D03*
X166700000Y-87800000D03*
D22*
X166700000Y-88600000D03*
X166700000Y-89400000D03*
D21*
X166700000Y-90200000D03*
%TD*%
D15*
%TO.C,C4*%
X148500000Y-90300000D03*
X150400000Y-90300000D03*
%TD*%
%TO.C,C3*%
X148500000Y-86900000D03*
X150400000Y-86900000D03*
%TD*%
D23*
%TO.C,SW1*%
X108700000Y-82100000D03*
X114900000Y-82100000D03*
X108700000Y-85800000D03*
X114900000Y-85800000D03*
%TD*%
D24*
%TO.C,J6*%
X100187500Y-102875000D03*
X100187500Y-103675000D03*
X100187500Y-104950000D03*
X100187500Y-105950000D03*
X100187500Y-106450000D03*
X100187500Y-104450000D03*
X100187500Y-108725000D03*
X100187500Y-109525000D03*
X100187500Y-109275000D03*
X100187500Y-108475000D03*
X100187500Y-107950000D03*
X100187500Y-106950000D03*
X100187500Y-105450000D03*
X100187500Y-107450000D03*
X100187500Y-103925000D03*
X100187500Y-103125000D03*
D25*
X99487500Y-101880000D03*
D26*
X95337500Y-101880000D03*
D25*
X99487500Y-110520000D03*
D26*
X95337500Y-110520000D03*
%TD*%
D19*
%TO.C,SW4*%
X174050000Y-102750000D03*
X179750000Y-102750000D03*
X174050000Y-106450000D03*
X179750000Y-106450000D03*
%TD*%
D27*
%TO.C,BZ1*%
X193200000Y-103300000D03*
X193200000Y-111300000D03*
%TD*%
D28*
%TO.C,IC1*%
X127700000Y-94300000D03*
X126200000Y-94300000D03*
X124700000Y-94300000D03*
X123200000Y-94300000D03*
X121700000Y-94300000D03*
X120200000Y-94300000D03*
X118700000Y-94300000D03*
X117200000Y-94300000D03*
X115700000Y-94300000D03*
X114200000Y-94300000D03*
X112700000Y-94300000D03*
X111200000Y-94300000D03*
X109700000Y-94300000D03*
X108200000Y-94300000D03*
X106700000Y-94300000D03*
X105200000Y-94300000D03*
D29*
X104450000Y-96300000D03*
X104450000Y-97800000D03*
X104450000Y-99300000D03*
X104450000Y-100800000D03*
X104450000Y-102300000D03*
X104450000Y-103800000D03*
X104450000Y-105300000D03*
X104450000Y-106800000D03*
X104450000Y-108300000D03*
X104450000Y-109800000D03*
D28*
X105200000Y-111800000D03*
X106700000Y-111800000D03*
X108200000Y-111800000D03*
X109700000Y-111800000D03*
X111200000Y-111800000D03*
X112700000Y-111800000D03*
X114200000Y-111800000D03*
X115700000Y-111800000D03*
X117200000Y-111800000D03*
X118700000Y-111800000D03*
X120200000Y-111800000D03*
X121700000Y-111800000D03*
X123200000Y-111800000D03*
X124700000Y-111800000D03*
X126200000Y-111800000D03*
X127700000Y-111800000D03*
D30*
X119650000Y-101860000D03*
X119650000Y-100360000D03*
X118150000Y-100360000D03*
X118150000Y-101860000D03*
X118150000Y-103360000D03*
X119650000Y-103360000D03*
X121150000Y-103360000D03*
X121150000Y-101860000D03*
X121150000Y-100360000D03*
%TD*%
D31*
%TO.C,C6*%
X123200000Y-90000000D03*
X121300000Y-90000000D03*
%TD*%
M02*
