%TF.GenerationSoftware,KiCad,Pcbnew,7.0.6*%
%TF.CreationDate,2023-08-09T23:01:59-05:00*%
%TF.ProjectId,BlueTeamCon_Main,426c7565-5465-4616-9d43-6f6e5f4d6169,rev?*%
%TF.SameCoordinates,Original*%
%TF.FileFunction,Copper,L2,Bot*%
%TF.FilePolarity,Positive*%
%FSLAX46Y46*%
G04 Gerber Fmt 4.6, Leading zero omitted, Abs format (unit mm)*
G04 Created by KiCad (PCBNEW 7.0.6) date 2023-08-09 23:01:59*
%MOMM*%
%LPD*%
G01*
G04 APERTURE LIST*
G04 Aperture macros list*
%AMHorizOval*
0 Thick line with rounded ends*
0 $1 width*
0 $2 $3 position (X,Y) of the first rounded end (center of the circle)*
0 $4 $5 position (X,Y) of the second rounded end (center of the circle)*
0 Add line between two ends*
20,1,$1,$2,$3,$4,$5,0*
0 Add two circle primitives to create the rounded ends*
1,1,$1,$2,$3*
1,1,$1,$4,$5*%
%AMRotRect*
0 Rectangle, with rotation*
0 The origin of the aperture is its center*
0 $1 length*
0 $2 width*
0 $3 Rotation angle, in degrees counterclockwise*
0 Add horizontal line*
21,1,$1,$2,0,0,$3*%
G04 Aperture macros list end*
%TA.AperFunction,ComponentPad*%
%ADD10C,6.200000*%
%TD*%
%TA.AperFunction,ComponentPad*%
%ADD11R,1.700000X1.700000*%
%TD*%
%TA.AperFunction,ComponentPad*%
%ADD12O,1.700000X1.700000*%
%TD*%
%TA.AperFunction,ComponentPad*%
%ADD13RotRect,1.700000X1.700000X45.000000*%
%TD*%
%TA.AperFunction,ComponentPad*%
%ADD14HorizOval,1.700000X0.000000X0.000000X0.000000X0.000000X0*%
%TD*%
%TA.AperFunction,ComponentPad*%
%ADD15O,2.100000X1.000000*%
%TD*%
%TA.AperFunction,ComponentPad*%
%ADD16O,1.800000X1.000000*%
%TD*%
%TA.AperFunction,ComponentPad*%
%ADD17C,1.800000*%
%TD*%
%TA.AperFunction,ViaPad*%
%ADD18C,0.600000*%
%TD*%
%TA.AperFunction,Conductor*%
%ADD19C,0.250000*%
%TD*%
%TA.AperFunction,Conductor*%
%ADD20C,0.200000*%
%TD*%
G04 APERTURE END LIST*
D10*
%TO.P,J2,1,Pin_1*%
%TO.N,unconnected-(J2-Pin_1-Pad1)*%
X101600001Y-88200000D03*
%TD*%
%TO.P,J1,1,Pin_1*%
%TO.N,unconnected-(J1-Pin_1-Pad1)*%
X191600000Y-88175000D03*
%TD*%
%TO.P,J3,1,Pin_1*%
%TO.N,unconnected-(J3-Pin_1-Pad1)*%
X146600000Y-137375000D03*
%TD*%
D11*
%TO.P,J4,1,Pin_1*%
%TO.N,VSS*%
X143400000Y-96200000D03*
D12*
%TO.P,J4,2,Pin_2*%
%TO.N,VCC*%
X145940000Y-96200000D03*
%TO.P,J4,3,Pin_3*%
%TO.N,SCK*%
X148480000Y-96200000D03*
%TO.P,J4,4,Pin_4*%
%TO.N,SDA*%
X151020000Y-96200000D03*
%TD*%
D13*
%TO.P,J5,1,Pin_1*%
%TO.N,VCC*%
X120411433Y-117211433D03*
D14*
%TO.P,J5,2,Pin_2*%
%TO.N,TX*%
X122207484Y-119007484D03*
%TO.P,J5,3,Pin_3*%
%TO.N,RX*%
X124003535Y-120803535D03*
%TO.P,J5,4,Pin_4*%
%TO.N,VSS*%
X125799587Y-122599587D03*
%TO.P,J5,5,Pin_5*%
%TO.N,Reset*%
X127595638Y-124395638D03*
%TD*%
D15*
%TO.P,J6,S1,SHIELD*%
%TO.N,VSS*%
X99487500Y-101880000D03*
D16*
X95337500Y-101880000D03*
D15*
X99487500Y-110520000D03*
D16*
X95337500Y-110520000D03*
%TD*%
D17*
%TO.P,BT1,1,+*%
%TO.N,VDD*%
X139525000Y-71875000D03*
%TO.P,BT1,2,-*%
%TO.N,VSS*%
X153625000Y-71875000D03*
%TD*%
D18*
%TO.N,VSS*%
X124000000Y-102750000D03*
X120000000Y-88500000D03*
X130000000Y-119500000D03*
X107750000Y-88500000D03*
X126750000Y-88750000D03*
X153250000Y-91250000D03*
X124750000Y-109000000D03*
X119250000Y-83000000D03*
X118250000Y-114500000D03*
X117000000Y-90750000D03*
X111000000Y-100750000D03*
X126500000Y-83000000D03*
X118500000Y-106000000D03*
X130000000Y-114500000D03*
X153000000Y-87250000D03*
X146000000Y-84500000D03*
X127750000Y-121000000D03*
X146250000Y-87500000D03*
X124500000Y-114000000D03*
X120750000Y-108750000D03*
%TO.N,Buzzer*%
X131700000Y-117100000D03*
X106700000Y-108300000D03*
%TO.N,/D+*%
X98750000Y-107250000D03*
X98750000Y-105750000D03*
%TO.N,VCC*%
X128600000Y-88500000D03*
X129600000Y-84600000D03*
X126800000Y-117300000D03*
%TO.N,R1*%
X123924500Y-80700000D03*
X111400000Y-105300000D03*
%TO.N,G1*%
X126000000Y-78200000D03*
X112500000Y-105400000D03*
%TO.N,Net-(D1-A)*%
X129200000Y-80400000D03*
X126700000Y-79400000D03*
%TO.N,B1*%
X110300000Y-105200000D03*
X123800000Y-78400000D03*
%TO.N,R2*%
X137787442Y-82395736D03*
X115900000Y-105400000D03*
%TO.N,G2*%
X137700000Y-81000000D03*
X113500000Y-105400000D03*
%TO.N,B2*%
X139100000Y-81000000D03*
X114700000Y-105400000D03*
%TO.N,Net-(D3-A)*%
X150300000Y-79500000D03*
X131500000Y-80300000D03*
%TO.N,Net-(D4-A)*%
X166100000Y-80300000D03*
X132700000Y-80400000D03*
%TO.N,Boot*%
X116600000Y-83400000D03*
X121500000Y-92200000D03*
%TO.N,Net-(IC1-IO3)*%
X102300000Y-92500000D03*
X118675000Y-92425000D03*
%TO.N,Net-(IC1-IO4)*%
X146800000Y-94000000D03*
X144900000Y-93900000D03*
X172700000Y-94100000D03*
X128100000Y-96100000D03*
X165300000Y-94100000D03*
X126300000Y-97900000D03*
%TO.N,A_Btn*%
X133000000Y-115500000D03*
X107200000Y-97300000D03*
%TO.N,B*%
X106300000Y-97100000D03*
X132600000Y-116200000D03*
%TO.N,SDA*%
X124050000Y-97050000D03*
%TO.N,SCK*%
X124700000Y-97600000D03*
%TD*%
D19*
%TO.N,Buzzer*%
X131700000Y-117100000D02*
X131275000Y-116675000D01*
X115300000Y-108300000D02*
X106700000Y-108300000D01*
X123675000Y-116675000D02*
X119100000Y-112100000D01*
X119100000Y-112100000D02*
X115300000Y-108300000D01*
X131275000Y-116675000D02*
X123675000Y-116675000D01*
D20*
%TO.N,/D+*%
X98750000Y-105750000D02*
X98750000Y-107250000D01*
D19*
%TO.N,VCC*%
X126800000Y-117300000D02*
X126711433Y-117211433D01*
X126711433Y-117211433D02*
X120411433Y-117211433D01*
X128600000Y-88500000D02*
X128600000Y-85600000D01*
X128600000Y-85600000D02*
X129600000Y-84600000D01*
%TO.N,R1*%
X123900000Y-80724500D02*
X123924500Y-80700000D01*
X111400000Y-105300000D02*
X123900000Y-92800000D01*
X123900000Y-91200000D02*
X123900000Y-80724500D01*
X123900000Y-92800000D02*
X123900000Y-91200000D01*
%TO.N,G1*%
X124500000Y-81100000D02*
X124500000Y-92200000D01*
X124900000Y-80700000D02*
X124500000Y-81100000D01*
X124500000Y-93200000D02*
X123600000Y-94100000D01*
X124500000Y-92200000D02*
X124500000Y-93200000D01*
X126000000Y-79600000D02*
X124900000Y-80700000D01*
X126000000Y-78200000D02*
X126000000Y-79600000D01*
X123600000Y-94100000D02*
X112500000Y-105200000D01*
X112500000Y-105200000D02*
X112500000Y-105400000D01*
%TO.N,Net-(D1-A)*%
X128200000Y-79400000D02*
X129200000Y-80400000D01*
X126700000Y-79400000D02*
X128200000Y-79400000D01*
%TO.N,B1*%
X110300000Y-105200000D02*
X123300000Y-92200000D01*
X123300000Y-80700000D02*
X123300000Y-78900000D01*
X123300000Y-78900000D02*
X123800000Y-78400000D01*
X123300000Y-92200000D02*
X123300000Y-80700000D01*
%TO.N,R2*%
X115900000Y-104100000D02*
X115900000Y-105400000D01*
X137787442Y-82395736D02*
X137604264Y-82395736D01*
X137604264Y-82395736D02*
X115900000Y-104100000D01*
%TO.N,G2*%
X137400000Y-81000000D02*
X113500000Y-104900000D01*
X113500000Y-104900000D02*
X113500000Y-105400000D01*
X137700000Y-81000000D02*
X137400000Y-81000000D01*
%TO.N,B2*%
X138325000Y-81258884D02*
X137958884Y-81625000D01*
X137958884Y-81625000D02*
X137675000Y-81625000D01*
X137675000Y-81625000D02*
X114700000Y-104600000D01*
X138325000Y-81000000D02*
X138325000Y-81258884D01*
X114700000Y-104600000D02*
X114700000Y-105400000D01*
X139100000Y-81000000D02*
X138325000Y-81000000D01*
%TO.N,Net-(D3-A)*%
X132300000Y-79500000D02*
X131500000Y-80300000D01*
X150300000Y-79500000D02*
X132300000Y-79500000D01*
%TO.N,Net-(D4-A)*%
X132800000Y-80300000D02*
X132700000Y-80400000D01*
X166100000Y-80300000D02*
X132800000Y-80300000D01*
%TO.N,Boot*%
X121500000Y-92200000D02*
X116600000Y-87300000D01*
X116600000Y-87300000D02*
X116600000Y-83400000D01*
%TO.N,Net-(IC1-IO3)*%
X118600000Y-92500000D02*
X102300000Y-92500000D01*
X118675000Y-92425000D02*
X118600000Y-92500000D01*
%TO.N,Net-(IC1-IO4)*%
X146800000Y-94000000D02*
X145000000Y-94000000D01*
X126300000Y-97900000D02*
X128100000Y-96100000D01*
X145000000Y-94000000D02*
X144900000Y-93900000D01*
X172700000Y-94100000D02*
X165300000Y-94100000D01*
%TO.N,A_Btn*%
X110241116Y-106025000D02*
X114325000Y-106025000D01*
X107200000Y-97300000D02*
X106600000Y-97900000D01*
X114325000Y-106025000D02*
X123800000Y-115500000D01*
X123800000Y-115500000D02*
X133000000Y-115500000D01*
X106600000Y-97900000D02*
X106600000Y-102383884D01*
X106600000Y-102383884D02*
X110241116Y-106025000D01*
%TO.N,B*%
X114138604Y-106475000D02*
X109975000Y-106475000D01*
X123613604Y-115950000D02*
X114138604Y-106475000D01*
X132600000Y-116200000D02*
X132350000Y-115950000D01*
X132350000Y-115950000D02*
X123613604Y-115950000D01*
X106100000Y-102600000D02*
X106100000Y-97300000D01*
X109975000Y-106475000D02*
X106100000Y-102600000D01*
X106100000Y-97300000D02*
X106300000Y-97100000D01*
%TO.N,SDA*%
X147500000Y-90600000D02*
X151020000Y-94120000D01*
X130500000Y-90600000D02*
X147500000Y-90600000D01*
X124050000Y-97050000D02*
X130500000Y-90600000D01*
X151020000Y-94120000D02*
X151020000Y-96200000D01*
%TO.N,SCK*%
X146000000Y-91900000D02*
X148480000Y-94380000D01*
X129850000Y-91900000D02*
X146000000Y-91900000D01*
X124700000Y-97050000D02*
X129850000Y-91900000D01*
X148480000Y-94380000D02*
X148480000Y-96200000D01*
X124700000Y-97600000D02*
X124700000Y-97050000D01*
%TD*%
%TA.AperFunction,Conductor*%
%TO.N,VSS*%
G36*
X176515677Y-69019685D02*
G01*
X176536319Y-69036319D01*
X191858657Y-84358657D01*
X191892142Y-84419980D01*
X191887158Y-84489672D01*
X191845286Y-84545605D01*
X191779822Y-84570022D01*
X191764487Y-84570168D01*
X191600002Y-84561548D01*
X191599999Y-84561548D01*
X191222289Y-84581343D01*
X190848726Y-84640510D01*
X190848724Y-84640510D01*
X190483374Y-84738405D01*
X190130273Y-84873948D01*
X189793269Y-85045661D01*
X189476073Y-85251650D01*
X189182133Y-85489678D01*
X189182125Y-85489685D01*
X188914685Y-85757125D01*
X188914678Y-85757133D01*
X188676650Y-86051073D01*
X188470661Y-86368269D01*
X188298948Y-86705273D01*
X188163405Y-87058374D01*
X188065510Y-87423724D01*
X188065510Y-87423726D01*
X188006343Y-87797289D01*
X187986548Y-88174999D01*
X187986548Y-88175000D01*
X188006343Y-88552710D01*
X188010303Y-88577710D01*
X188065511Y-88926279D01*
X188149379Y-89239281D01*
X188163405Y-89291625D01*
X188298948Y-89644726D01*
X188470661Y-89981730D01*
X188676650Y-90298926D01*
X188676654Y-90298931D01*
X188676656Y-90298934D01*
X188914682Y-90592871D01*
X189182129Y-90860318D01*
X189476066Y-91098344D01*
X189476070Y-91098346D01*
X189476073Y-91098349D01*
X189766292Y-91286819D01*
X189793274Y-91304341D01*
X190130277Y-91476053D01*
X190483382Y-91611597D01*
X190848721Y-91709489D01*
X191222291Y-91768657D01*
X191579109Y-91787357D01*
X191599999Y-91788452D01*
X191600000Y-91788452D01*
X191600001Y-91788452D01*
X191619795Y-91787414D01*
X191977709Y-91768657D01*
X192351279Y-91709489D01*
X192716618Y-91611597D01*
X193069723Y-91476053D01*
X193406726Y-91304341D01*
X193723934Y-91098344D01*
X194017871Y-90860318D01*
X194285318Y-90592871D01*
X194523344Y-90298934D01*
X194729341Y-89981726D01*
X194901053Y-89644723D01*
X195036597Y-89291618D01*
X195134489Y-88926279D01*
X195193657Y-88552709D01*
X195213452Y-88175000D01*
X195193657Y-87797291D01*
X195134489Y-87423721D01*
X195036597Y-87058382D01*
X194901053Y-86705277D01*
X194729341Y-86368274D01*
X194539584Y-86076073D01*
X194523349Y-86051073D01*
X194523346Y-86051070D01*
X194523344Y-86051066D01*
X194285318Y-85757129D01*
X194017871Y-85489682D01*
X193723934Y-85251656D01*
X193723932Y-85251655D01*
X193723930Y-85251653D01*
X193687499Y-85227995D01*
X193641997Y-85174974D01*
X193632383Y-85105769D01*
X193661710Y-85042352D01*
X193720667Y-85004858D01*
X193755035Y-85000000D01*
X198626000Y-85000000D01*
X198693039Y-85019685D01*
X198738794Y-85072489D01*
X198750000Y-85124000D01*
X198750000Y-118348028D01*
X198730315Y-118415067D01*
X198677511Y-118460822D01*
X198608353Y-118470766D01*
X198601119Y-118469506D01*
X178000000Y-114250000D01*
X177999998Y-114250000D01*
X146837680Y-145412318D01*
X146776357Y-145445803D01*
X146706665Y-145440819D01*
X146662318Y-145412318D01*
X138625000Y-137375000D01*
X142986548Y-137375000D01*
X143006343Y-137752710D01*
X143065510Y-138126273D01*
X143065510Y-138126275D01*
X143163405Y-138491625D01*
X143298948Y-138844726D01*
X143470661Y-139181730D01*
X143676650Y-139498926D01*
X143676654Y-139498931D01*
X143676656Y-139498934D01*
X143914682Y-139792871D01*
X144182129Y-140060318D01*
X144476066Y-140298344D01*
X144476070Y-140298346D01*
X144476073Y-140298349D01*
X144793269Y-140504338D01*
X144793274Y-140504341D01*
X145130277Y-140676053D01*
X145483382Y-140811597D01*
X145848721Y-140909489D01*
X146222291Y-140968657D01*
X146579109Y-140987357D01*
X146599999Y-140988452D01*
X146600000Y-140988452D01*
X146600001Y-140988452D01*
X146619796Y-140987414D01*
X146977709Y-140968657D01*
X147351279Y-140909489D01*
X147716618Y-140811597D01*
X148069723Y-140676053D01*
X148406726Y-140504341D01*
X148723934Y-140298344D01*
X149017871Y-140060318D01*
X149285318Y-139792871D01*
X149523344Y-139498934D01*
X149729341Y-139181726D01*
X149901053Y-138844723D01*
X150036597Y-138491618D01*
X150134489Y-138126279D01*
X150193657Y-137752709D01*
X150213452Y-137375000D01*
X150193657Y-136997291D01*
X150134489Y-136623721D01*
X150036597Y-136258382D01*
X149901053Y-135905277D01*
X149729341Y-135568274D01*
X149523344Y-135251066D01*
X149285318Y-134957129D01*
X149017871Y-134689682D01*
X148723934Y-134451656D01*
X148723931Y-134451654D01*
X148723926Y-134451650D01*
X148406730Y-134245661D01*
X148069726Y-134073948D01*
X147716625Y-133938405D01*
X147716618Y-133938403D01*
X147351279Y-133840511D01*
X147351275Y-133840510D01*
X147351274Y-133840510D01*
X146977710Y-133781343D01*
X146600001Y-133761548D01*
X146599999Y-133761548D01*
X146222289Y-133781343D01*
X145848726Y-133840510D01*
X145848724Y-133840510D01*
X145483374Y-133938405D01*
X145130273Y-134073948D01*
X144793269Y-134245661D01*
X144476073Y-134451650D01*
X144182133Y-134689678D01*
X144182125Y-134689685D01*
X143914685Y-134957125D01*
X143914678Y-134957133D01*
X143676650Y-135251073D01*
X143470661Y-135568269D01*
X143298948Y-135905273D01*
X143163405Y-136258374D01*
X143065510Y-136623724D01*
X143065510Y-136623726D01*
X143006343Y-136997289D01*
X142986548Y-137374999D01*
X142986548Y-137375000D01*
X138625000Y-137375000D01*
X127181911Y-125931911D01*
X127148426Y-125870588D01*
X127153410Y-125800896D01*
X127195282Y-125744963D01*
X127260746Y-125720546D01*
X127290001Y-125721921D01*
X127483069Y-125754138D01*
X127708207Y-125754138D01*
X127930273Y-125717082D01*
X128143212Y-125643980D01*
X128341214Y-125536827D01*
X128518878Y-125398544D01*
X128671360Y-125232906D01*
X128794498Y-125044429D01*
X128884934Y-124838254D01*
X128940202Y-124620006D01*
X128958794Y-124395638D01*
X128940202Y-124171270D01*
X128884934Y-123953022D01*
X128794498Y-123746847D01*
X128671360Y-123558370D01*
X128671357Y-123558367D01*
X128671353Y-123558361D01*
X128518881Y-123392735D01*
X128518876Y-123392730D01*
X128341215Y-123254450D01*
X128341210Y-123254446D01*
X128143218Y-123147299D01*
X128143215Y-123147297D01*
X128143212Y-123147296D01*
X128143209Y-123147295D01*
X128143207Y-123147294D01*
X127930275Y-123074194D01*
X127708207Y-123037138D01*
X127483069Y-123037138D01*
X127255944Y-123075038D01*
X127255768Y-123073983D01*
X127191220Y-123071543D01*
X127133912Y-123031575D01*
X127107309Y-122966968D01*
X127110852Y-122921876D01*
X127134153Y-122834917D01*
X127134156Y-122834902D01*
X127154744Y-122599588D01*
X127154744Y-122599585D01*
X127134156Y-122364271D01*
X127134154Y-122364260D01*
X127073020Y-122136103D01*
X127073016Y-122136094D01*
X126973187Y-121922010D01*
X126973186Y-121922008D01*
X126914512Y-121838213D01*
X126914512Y-121838212D01*
X126282663Y-122470061D01*
X126259080Y-122389743D01*
X126181348Y-122268789D01*
X126072687Y-122174635D01*
X125941902Y-122114907D01*
X125932120Y-122113500D01*
X126560960Y-121484660D01*
X126560960Y-121484659D01*
X126477170Y-121425989D01*
X126477166Y-121425987D01*
X126263079Y-121326157D01*
X126263070Y-121326153D01*
X126034913Y-121265019D01*
X126034902Y-121265017D01*
X125799589Y-121244430D01*
X125799585Y-121244430D01*
X125564271Y-121265017D01*
X125564257Y-121265020D01*
X125472139Y-121289702D01*
X125402289Y-121288039D01*
X125344427Y-121248875D01*
X125316924Y-121184647D01*
X125319842Y-121139486D01*
X125329428Y-121101634D01*
X125348099Y-121027903D01*
X125366691Y-120803535D01*
X125348099Y-120579167D01*
X125292831Y-120360919D01*
X125202395Y-120154744D01*
X125079257Y-119966267D01*
X125079254Y-119966264D01*
X125079250Y-119966258D01*
X124926778Y-119800632D01*
X124926773Y-119800627D01*
X124749112Y-119662347D01*
X124749107Y-119662343D01*
X124551115Y-119555196D01*
X124551112Y-119555194D01*
X124551109Y-119555193D01*
X124551106Y-119555192D01*
X124551104Y-119555191D01*
X124338172Y-119482091D01*
X124116104Y-119445035D01*
X123890966Y-119445035D01*
X123667934Y-119482251D01*
X123598569Y-119473869D01*
X123544747Y-119429316D01*
X123523557Y-119362737D01*
X123527320Y-119329501D01*
X123552045Y-119231864D01*
X123552047Y-119231855D01*
X123552048Y-119231852D01*
X123560335Y-119131846D01*
X123570640Y-119007489D01*
X123570640Y-119007478D01*
X123552049Y-118783124D01*
X123552047Y-118783112D01*
X123496780Y-118564869D01*
X123457531Y-118475390D01*
X123406344Y-118358693D01*
X123283206Y-118170216D01*
X123175222Y-118052915D01*
X123144300Y-117990262D01*
X123152160Y-117920836D01*
X123196307Y-117866680D01*
X123262724Y-117844989D01*
X123266452Y-117844933D01*
X126150179Y-117844933D01*
X126217218Y-117864618D01*
X126237860Y-117881252D01*
X126292719Y-117936111D01*
X126446985Y-118033043D01*
X126618953Y-118093216D01*
X126618953Y-118093217D01*
X126618958Y-118093218D01*
X126799996Y-118113616D01*
X126800000Y-118113616D01*
X126800004Y-118113616D01*
X126981041Y-118093218D01*
X126981044Y-118093217D01*
X126981047Y-118093217D01*
X127153015Y-118033043D01*
X127307281Y-117936111D01*
X127436111Y-117807281D01*
X127533043Y-117653015D01*
X127593217Y-117481047D01*
X127596376Y-117453015D01*
X127600251Y-117418618D01*
X127627317Y-117354204D01*
X127684911Y-117314648D01*
X127723471Y-117308500D01*
X130828406Y-117308500D01*
X130895445Y-117328185D01*
X130941200Y-117380989D01*
X130945448Y-117391546D01*
X130966956Y-117453014D01*
X131019480Y-117536605D01*
X131063889Y-117607281D01*
X131192719Y-117736111D01*
X131346985Y-117833043D01*
X131484759Y-117881252D01*
X131518953Y-117893217D01*
X131518958Y-117893218D01*
X131699996Y-117913616D01*
X131700000Y-117913616D01*
X131700004Y-117913616D01*
X131881041Y-117893218D01*
X131881044Y-117893217D01*
X131881047Y-117893217D01*
X132053015Y-117833043D01*
X132207281Y-117736111D01*
X132336111Y-117607281D01*
X132433043Y-117453015D01*
X132493217Y-117281047D01*
X132498262Y-117236277D01*
X132511292Y-117120629D01*
X132538358Y-117056215D01*
X132595953Y-117016660D01*
X132620629Y-117011292D01*
X132781041Y-116993218D01*
X132781044Y-116993217D01*
X132781047Y-116993217D01*
X132953015Y-116933043D01*
X133107281Y-116836111D01*
X133236111Y-116707281D01*
X133333043Y-116553015D01*
X133393217Y-116381047D01*
X133407460Y-116254641D01*
X133407541Y-116253920D01*
X133434607Y-116189506D01*
X133464787Y-116162811D01*
X133507281Y-116136111D01*
X133636111Y-116007281D01*
X133733043Y-115853015D01*
X133793217Y-115681047D01*
X133793218Y-115681041D01*
X133813616Y-115500003D01*
X133813616Y-115499996D01*
X133793218Y-115318958D01*
X133793217Y-115318953D01*
X133793216Y-115318952D01*
X133733043Y-115146985D01*
X133636111Y-114992719D01*
X133507281Y-114863889D01*
X133353015Y-114766957D01*
X133298693Y-114747949D01*
X133181046Y-114706782D01*
X133181041Y-114706781D01*
X133000004Y-114686384D01*
X132999996Y-114686384D01*
X132818958Y-114706781D01*
X132818953Y-114706782D01*
X132646980Y-114766958D01*
X132646977Y-114766960D01*
X132518812Y-114847493D01*
X132452840Y-114866500D01*
X124113766Y-114866500D01*
X124046727Y-114846815D01*
X124026085Y-114830181D01*
X115595743Y-106399838D01*
X115562258Y-106338515D01*
X115567242Y-106268823D01*
X115609114Y-106212890D01*
X115674578Y-106188473D01*
X115711756Y-106193441D01*
X115712161Y-106191667D01*
X115718951Y-106193216D01*
X115718953Y-106193217D01*
X115718954Y-106193217D01*
X115718958Y-106193218D01*
X115899996Y-106213616D01*
X115900000Y-106213616D01*
X115900004Y-106213616D01*
X116081041Y-106193218D01*
X116081044Y-106193217D01*
X116081047Y-106193217D01*
X116253015Y-106133043D01*
X116407281Y-106036111D01*
X116536111Y-105907281D01*
X116633043Y-105753015D01*
X116693217Y-105581047D01*
X116713616Y-105400000D01*
X116713276Y-105396985D01*
X116693218Y-105218958D01*
X116693217Y-105218953D01*
X116693216Y-105218952D01*
X116633043Y-105046985D01*
X116552506Y-104918811D01*
X116533500Y-104852839D01*
X116533500Y-104413765D01*
X116553185Y-104346726D01*
X116569819Y-104326084D01*
X119894760Y-101001143D01*
X123288576Y-97607326D01*
X123349897Y-97573843D01*
X123419589Y-97578827D01*
X123463936Y-97607328D01*
X123542719Y-97686111D01*
X123696985Y-97783043D01*
X123868953Y-97843217D01*
X123875526Y-97845517D01*
X123874922Y-97847241D01*
X123927859Y-97876841D01*
X123956343Y-97922682D01*
X123966957Y-97953016D01*
X123966958Y-97953017D01*
X123991915Y-97992736D01*
X124063889Y-98107281D01*
X124192719Y-98236111D01*
X124346985Y-98333043D01*
X124518953Y-98393216D01*
X124518953Y-98393217D01*
X124518958Y-98393218D01*
X124699996Y-98413616D01*
X124700000Y-98413616D01*
X124700004Y-98413616D01*
X124881041Y-98393218D01*
X124881044Y-98393217D01*
X124881047Y-98393217D01*
X125053015Y-98333043D01*
X125207281Y-98236111D01*
X125329801Y-98113590D01*
X125391120Y-98080108D01*
X125460812Y-98085092D01*
X125516746Y-98126963D01*
X125534520Y-98160319D01*
X125566955Y-98253011D01*
X125566956Y-98253015D01*
X125617242Y-98333043D01*
X125663889Y-98407281D01*
X125792719Y-98536111D01*
X125946985Y-98633043D01*
X126118953Y-98693216D01*
X126118953Y-98693217D01*
X126118958Y-98693218D01*
X126299996Y-98713616D01*
X126300000Y-98713616D01*
X126300004Y-98713616D01*
X126481041Y-98693218D01*
X126481044Y-98693217D01*
X126481047Y-98693217D01*
X126653015Y-98633043D01*
X126807281Y-98536111D01*
X126936111Y-98407281D01*
X127033043Y-98253015D01*
X127093217Y-98081047D01*
X127098309Y-98035851D01*
X127125374Y-97971439D01*
X127133838Y-97962064D01*
X128162056Y-96933846D01*
X128223377Y-96900363D01*
X128235836Y-96898310D01*
X128281047Y-96893217D01*
X128453015Y-96833043D01*
X128510026Y-96797220D01*
X128577264Y-96778219D01*
X128644099Y-96798586D01*
X128689314Y-96851854D01*
X128700000Y-96902213D01*
X128699999Y-113950000D01*
X128700000Y-113950000D01*
X140500000Y-113950000D01*
X140500000Y-93250000D01*
X129695267Y-93250000D01*
X129628228Y-93230315D01*
X129582473Y-93177511D01*
X129572529Y-93108353D01*
X129601554Y-93044797D01*
X129607586Y-93038319D01*
X130076086Y-92569819D01*
X130137409Y-92536334D01*
X130163767Y-92533500D01*
X145686234Y-92533500D01*
X145753273Y-92553185D01*
X145773915Y-92569819D01*
X146351817Y-93147721D01*
X146385302Y-93209044D01*
X146380318Y-93278736D01*
X146338446Y-93334669D01*
X146330116Y-93340390D01*
X146318812Y-93347493D01*
X146252840Y-93366500D01*
X145561254Y-93366500D01*
X145494215Y-93346815D01*
X145473573Y-93330181D01*
X145407281Y-93263889D01*
X145253017Y-93166958D01*
X145253016Y-93166957D01*
X145253015Y-93166957D01*
X145164862Y-93136111D01*
X145081046Y-93106782D01*
X145081041Y-93106781D01*
X144900004Y-93086384D01*
X144899996Y-93086384D01*
X144718958Y-93106781D01*
X144718953Y-93106782D01*
X144546982Y-93166958D01*
X144392718Y-93263889D01*
X144263889Y-93392718D01*
X144166958Y-93546982D01*
X144106782Y-93718953D01*
X144106781Y-93718958D01*
X144086384Y-93899996D01*
X144086384Y-93900003D01*
X144106781Y-94081041D01*
X144106782Y-94081046D01*
X144166958Y-94253017D01*
X144183984Y-94280113D01*
X144263889Y-94407281D01*
X144392719Y-94536111D01*
X144546985Y-94633043D01*
X144718947Y-94693215D01*
X144718953Y-94693217D01*
X144718958Y-94693218D01*
X144899996Y-94713616D01*
X144900000Y-94713616D01*
X144900004Y-94713616D01*
X145081041Y-94693218D01*
X145081043Y-94693217D01*
X145081047Y-94693217D01*
X145081050Y-94693215D01*
X145081054Y-94693215D01*
X145231823Y-94640459D01*
X145272778Y-94633500D01*
X145578282Y-94633500D01*
X145645321Y-94653185D01*
X145691076Y-94705989D01*
X145701020Y-94775147D01*
X145671995Y-94838703D01*
X145613217Y-94876477D01*
X145608720Y-94877706D01*
X145605363Y-94878555D01*
X145392430Y-94951656D01*
X145392419Y-94951661D01*
X145194427Y-95058808D01*
X145194422Y-95058812D01*
X145016761Y-95197092D01*
X144947092Y-95272773D01*
X144887205Y-95308763D01*
X144817367Y-95306662D01*
X144759751Y-95267137D01*
X144739681Y-95232122D01*
X144693354Y-95107913D01*
X144693350Y-95107906D01*
X144607190Y-94992812D01*
X144607187Y-94992809D01*
X144492093Y-94906649D01*
X144492086Y-94906645D01*
X144357379Y-94856403D01*
X144357372Y-94856401D01*
X144297844Y-94850000D01*
X143650000Y-94850000D01*
X143650000Y-95764498D01*
X143542315Y-95715320D01*
X143435763Y-95700000D01*
X143364237Y-95700000D01*
X143257685Y-95715320D01*
X143150000Y-95764498D01*
X143150000Y-94850000D01*
X142502155Y-94850000D01*
X142442627Y-94856401D01*
X142442620Y-94856403D01*
X142307913Y-94906645D01*
X142307906Y-94906649D01*
X142192812Y-94992809D01*
X142192809Y-94992812D01*
X142106649Y-95107906D01*
X142106645Y-95107913D01*
X142056403Y-95242620D01*
X142056401Y-95242627D01*
X142050000Y-95302155D01*
X142050000Y-95950000D01*
X142966314Y-95950000D01*
X142940507Y-95990156D01*
X142900000Y-96128111D01*
X142900000Y-96271889D01*
X142940507Y-96409844D01*
X142966314Y-96450000D01*
X142050000Y-96450000D01*
X142050000Y-97097844D01*
X142056401Y-97157372D01*
X142056403Y-97157379D01*
X142106645Y-97292086D01*
X142106649Y-97292093D01*
X142192809Y-97407187D01*
X142192812Y-97407190D01*
X142307906Y-97493350D01*
X142307913Y-97493354D01*
X142442620Y-97543596D01*
X142442627Y-97543598D01*
X142502155Y-97549999D01*
X142502172Y-97550000D01*
X143150000Y-97550000D01*
X143150000Y-96635501D01*
X143257685Y-96684680D01*
X143364237Y-96700000D01*
X143435763Y-96700000D01*
X143542315Y-96684680D01*
X143650000Y-96635501D01*
X143650000Y-97550000D01*
X144297828Y-97550000D01*
X144297844Y-97549999D01*
X144357372Y-97543598D01*
X144357379Y-97543596D01*
X144492086Y-97493354D01*
X144492093Y-97493350D01*
X144607187Y-97407190D01*
X144607190Y-97407187D01*
X144693350Y-97292093D01*
X144693354Y-97292086D01*
X144739681Y-97167877D01*
X144781552Y-97111943D01*
X144847016Y-97087526D01*
X144915289Y-97102377D01*
X144947089Y-97127223D01*
X145016760Y-97202906D01*
X145194424Y-97341189D01*
X145194425Y-97341189D01*
X145194427Y-97341191D01*
X145253270Y-97373035D01*
X145392426Y-97448342D01*
X145605365Y-97521444D01*
X145827431Y-97558500D01*
X146052569Y-97558500D01*
X146274635Y-97521444D01*
X146487574Y-97448342D01*
X146685576Y-97341189D01*
X146863240Y-97202906D01*
X147015722Y-97037268D01*
X147106193Y-96898790D01*
X147159338Y-96853437D01*
X147228569Y-96844013D01*
X147291905Y-96873515D01*
X147313804Y-96898787D01*
X147404278Y-97037268D01*
X147404283Y-97037273D01*
X147404284Y-97037276D01*
X147556756Y-97202902D01*
X147556761Y-97202907D01*
X147585747Y-97225468D01*
X147734424Y-97341189D01*
X147734425Y-97341189D01*
X147734427Y-97341191D01*
X147793270Y-97373035D01*
X147932426Y-97448342D01*
X148145365Y-97521444D01*
X148367431Y-97558500D01*
X148592569Y-97558500D01*
X148814635Y-97521444D01*
X149027574Y-97448342D01*
X149225576Y-97341189D01*
X149403240Y-97202906D01*
X149555722Y-97037268D01*
X149646193Y-96898790D01*
X149699338Y-96853437D01*
X149768569Y-96844013D01*
X149831905Y-96873515D01*
X149853804Y-96898787D01*
X149944278Y-97037268D01*
X149944283Y-97037273D01*
X149944284Y-97037276D01*
X150096756Y-97202902D01*
X150096761Y-97202907D01*
X150125747Y-97225468D01*
X150274424Y-97341189D01*
X150274425Y-97341189D01*
X150274427Y-97341191D01*
X150333270Y-97373035D01*
X150472426Y-97448342D01*
X150685365Y-97521444D01*
X150907431Y-97558500D01*
X151132569Y-97558500D01*
X151354635Y-97521444D01*
X151567574Y-97448342D01*
X151765576Y-97341189D01*
X151943240Y-97202906D01*
X152095722Y-97037268D01*
X152218860Y-96848791D01*
X152309296Y-96642616D01*
X152364564Y-96424368D01*
X152365768Y-96409844D01*
X152383156Y-96200005D01*
X152383156Y-96199994D01*
X152364565Y-95975640D01*
X152364563Y-95975628D01*
X152309296Y-95757385D01*
X152304734Y-95746985D01*
X152218860Y-95551209D01*
X152202706Y-95526484D01*
X152133479Y-95420524D01*
X152095722Y-95362732D01*
X152095719Y-95362729D01*
X152095715Y-95362723D01*
X151943243Y-95197097D01*
X151943238Y-95197092D01*
X151765577Y-95058812D01*
X151765577Y-95058811D01*
X151718480Y-95033323D01*
X151668891Y-94984102D01*
X151653500Y-94924269D01*
X151653500Y-94203632D01*
X151655239Y-94187880D01*
X151654968Y-94187855D01*
X151655700Y-94180099D01*
X151655702Y-94180092D01*
X151653500Y-94110028D01*
X151653500Y-94100003D01*
X164486384Y-94100003D01*
X164506781Y-94281041D01*
X164506782Y-94281046D01*
X164537919Y-94370028D01*
X164565151Y-94447855D01*
X164566958Y-94453017D01*
X164663888Y-94607281D01*
X164663889Y-94607281D01*
X164792719Y-94736111D01*
X164946985Y-94833043D01*
X165118953Y-94893216D01*
X165118953Y-94893217D01*
X165118958Y-94893218D01*
X165299996Y-94913616D01*
X165300000Y-94913616D01*
X165300004Y-94913616D01*
X165481041Y-94893218D01*
X165481044Y-94893217D01*
X165481047Y-94893217D01*
X165653015Y-94833043D01*
X165653017Y-94833041D01*
X165653019Y-94833041D01*
X165653022Y-94833039D01*
X165781188Y-94752507D01*
X165847160Y-94733500D01*
X172152840Y-94733500D01*
X172218812Y-94752507D01*
X172346977Y-94833039D01*
X172346980Y-94833041D01*
X172346984Y-94833042D01*
X172346985Y-94833043D01*
X172471113Y-94876477D01*
X172518953Y-94893217D01*
X172518958Y-94893218D01*
X172699996Y-94913616D01*
X172700000Y-94913616D01*
X172700004Y-94913616D01*
X172881041Y-94893218D01*
X172881044Y-94893217D01*
X172881047Y-94893217D01*
X173053015Y-94833043D01*
X173207281Y-94736111D01*
X173336111Y-94607281D01*
X173433043Y-94453015D01*
X173493217Y-94281047D01*
X173493218Y-94281041D01*
X173513616Y-94100003D01*
X173513616Y-94099996D01*
X173493218Y-93918958D01*
X173493217Y-93918953D01*
X173474830Y-93866407D01*
X173433043Y-93746985D01*
X173336111Y-93592719D01*
X173207281Y-93463889D01*
X173094015Y-93392719D01*
X173053017Y-93366958D01*
X173053016Y-93366957D01*
X173053015Y-93366957D01*
X172960741Y-93334669D01*
X172881046Y-93306782D01*
X172881041Y-93306781D01*
X172700004Y-93286384D01*
X172699996Y-93286384D01*
X172518958Y-93306781D01*
X172518953Y-93306782D01*
X172346980Y-93366958D01*
X172346977Y-93366960D01*
X172218812Y-93447493D01*
X172152840Y-93466500D01*
X165847160Y-93466500D01*
X165781188Y-93447493D01*
X165653022Y-93366960D01*
X165653019Y-93366958D01*
X165481046Y-93306782D01*
X165481041Y-93306781D01*
X165300004Y-93286384D01*
X165299996Y-93286384D01*
X165118958Y-93306781D01*
X165118953Y-93306782D01*
X164946982Y-93366958D01*
X164792718Y-93463889D01*
X164663889Y-93592718D01*
X164566958Y-93746982D01*
X164506782Y-93918953D01*
X164506781Y-93918958D01*
X164486384Y-94099996D01*
X164486384Y-94100003D01*
X151653500Y-94100003D01*
X151653500Y-94080144D01*
X151652614Y-94073141D01*
X151652157Y-94067322D01*
X151650674Y-94020111D01*
X151644976Y-94000499D01*
X151641033Y-93981466D01*
X151638474Y-93961203D01*
X151621085Y-93917286D01*
X151619196Y-93911766D01*
X151606018Y-93866407D01*
X151595626Y-93848835D01*
X151587066Y-93831362D01*
X151579552Y-93812383D01*
X151551794Y-93774179D01*
X151548587Y-93769296D01*
X151535390Y-93746982D01*
X151524542Y-93728638D01*
X151510108Y-93714204D01*
X151497471Y-93699409D01*
X151485472Y-93682893D01*
X151485470Y-93682890D01*
X151449073Y-93652781D01*
X151444751Y-93648847D01*
X148007088Y-90211183D01*
X147997187Y-90198823D01*
X147996977Y-90198998D01*
X147992002Y-90192986D01*
X147992000Y-90192982D01*
X147965658Y-90168245D01*
X147940922Y-90145016D01*
X147919768Y-90123863D01*
X147917792Y-90122331D01*
X147914183Y-90119531D01*
X147909750Y-90115744D01*
X147875321Y-90083414D01*
X147875319Y-90083412D01*
X147857431Y-90073578D01*
X147841170Y-90062897D01*
X147825039Y-90050384D01*
X147781693Y-90031627D01*
X147776445Y-90029056D01*
X147749251Y-90014106D01*
X147735060Y-90006305D01*
X147731660Y-90005432D01*
X147715287Y-90001228D01*
X147696881Y-89994926D01*
X147678144Y-89986818D01*
X147678146Y-89986818D01*
X147631496Y-89979430D01*
X147625781Y-89978246D01*
X147605612Y-89973068D01*
X147580032Y-89966500D01*
X147580030Y-89966500D01*
X147559616Y-89966500D01*
X147540217Y-89964973D01*
X147520058Y-89961780D01*
X147520057Y-89961780D01*
X147473034Y-89966225D01*
X147467196Y-89966500D01*
X131228766Y-89966500D01*
X131161727Y-89946815D01*
X131115972Y-89894011D01*
X131106028Y-89824853D01*
X131135053Y-89761297D01*
X131141085Y-89754819D01*
X132748922Y-88146982D01*
X137654544Y-83241358D01*
X137715865Y-83207875D01*
X137756106Y-83205821D01*
X137787442Y-83209352D01*
X137787445Y-83209352D01*
X137968483Y-83188954D01*
X137968486Y-83188953D01*
X137968489Y-83188953D01*
X138140457Y-83128779D01*
X138294723Y-83031847D01*
X138423553Y-82903017D01*
X138520485Y-82748751D01*
X138580659Y-82576783D01*
X138601058Y-82395736D01*
X138580659Y-82214689D01*
X138580658Y-82214686D01*
X138524595Y-82054465D01*
X138521034Y-81984686D01*
X138553954Y-81925832D01*
X138691714Y-81788072D01*
X138753035Y-81754589D01*
X138820346Y-81758712D01*
X138918953Y-81793217D01*
X138918959Y-81793217D01*
X138918961Y-81793218D01*
X139099996Y-81813616D01*
X139100000Y-81813616D01*
X139100004Y-81813616D01*
X139281041Y-81793218D01*
X139281044Y-81793217D01*
X139281047Y-81793217D01*
X139453015Y-81733043D01*
X139607281Y-81636111D01*
X139736111Y-81507281D01*
X139833043Y-81353015D01*
X139893217Y-81181047D01*
X139898626Y-81133041D01*
X139908702Y-81043617D01*
X139935768Y-80979203D01*
X139993363Y-80939647D01*
X140031922Y-80933500D01*
X165552840Y-80933500D01*
X165618812Y-80952507D01*
X165746977Y-81033039D01*
X165746980Y-81033041D01*
X165746984Y-81033042D01*
X165746985Y-81033043D01*
X165777204Y-81043617D01*
X165918953Y-81093217D01*
X165918958Y-81093218D01*
X166099996Y-81113616D01*
X166100000Y-81113616D01*
X166100004Y-81113616D01*
X166281041Y-81093218D01*
X166281044Y-81093217D01*
X166281047Y-81093217D01*
X166453015Y-81033043D01*
X166607281Y-80936111D01*
X166736111Y-80807281D01*
X166833043Y-80653015D01*
X166893217Y-80481047D01*
X166895357Y-80462055D01*
X166913616Y-80300003D01*
X166913616Y-80299996D01*
X166893218Y-80118958D01*
X166893217Y-80118953D01*
X166873949Y-80063889D01*
X166833043Y-79946985D01*
X166736111Y-79792719D01*
X166607281Y-79663889D01*
X166453015Y-79566957D01*
X166398693Y-79547949D01*
X166281046Y-79506782D01*
X166281041Y-79506781D01*
X166100004Y-79486384D01*
X166099996Y-79486384D01*
X165918958Y-79506781D01*
X165918953Y-79506782D01*
X165746980Y-79566958D01*
X165746977Y-79566960D01*
X165618812Y-79647493D01*
X165552840Y-79666500D01*
X151233612Y-79666500D01*
X151166573Y-79646815D01*
X151120818Y-79594011D01*
X151110392Y-79528616D01*
X151113616Y-79500002D01*
X151113616Y-79499996D01*
X151093218Y-79318958D01*
X151093217Y-79318953D01*
X151062370Y-79230798D01*
X151033043Y-79146985D01*
X150936111Y-78992719D01*
X150807281Y-78863889D01*
X150769873Y-78840384D01*
X150653017Y-78766958D01*
X150653016Y-78766957D01*
X150653015Y-78766957D01*
X150596438Y-78747160D01*
X150481046Y-78706782D01*
X150481041Y-78706781D01*
X150300004Y-78686384D01*
X150299996Y-78686384D01*
X150118958Y-78706781D01*
X150118953Y-78706782D01*
X149946980Y-78766958D01*
X149946977Y-78766960D01*
X149818812Y-78847493D01*
X149752840Y-78866500D01*
X132383631Y-78866500D01*
X132367879Y-78864760D01*
X132367854Y-78865032D01*
X132360092Y-78864298D01*
X132360091Y-78864298D01*
X132290028Y-78866500D01*
X132260144Y-78866500D01*
X132260141Y-78866500D01*
X132260129Y-78866501D01*
X132253137Y-78867384D01*
X132247320Y-78867841D01*
X132200114Y-78869325D01*
X132200107Y-78869326D01*
X132180500Y-78875022D01*
X132161461Y-78878965D01*
X132141211Y-78881524D01*
X132141201Y-78881526D01*
X132097291Y-78898911D01*
X132091765Y-78900803D01*
X132046412Y-78913979D01*
X132046407Y-78913981D01*
X132028833Y-78924374D01*
X132011372Y-78932928D01*
X131992386Y-78940446D01*
X131992384Y-78940447D01*
X131954172Y-78968208D01*
X131949290Y-78971415D01*
X131908637Y-78995457D01*
X131894201Y-79009894D01*
X131879415Y-79022523D01*
X131862893Y-79034528D01*
X131862891Y-79034529D01*
X131862891Y-79034530D01*
X131862888Y-79034532D01*
X131832780Y-79070925D01*
X131828849Y-79075246D01*
X131437942Y-79466151D01*
X131376619Y-79499636D01*
X131364148Y-79501690D01*
X131318953Y-79506783D01*
X131146983Y-79566957D01*
X130992718Y-79663889D01*
X130863889Y-79792718D01*
X130766958Y-79946982D01*
X130706782Y-80118953D01*
X130706781Y-80118958D01*
X130686384Y-80299996D01*
X130686384Y-80300003D01*
X130706781Y-80481041D01*
X130706782Y-80481046D01*
X130766958Y-80653017D01*
X130863888Y-80807281D01*
X130863889Y-80807281D01*
X130992719Y-80936111D01*
X131146985Y-81033043D01*
X131318953Y-81093216D01*
X131318953Y-81093217D01*
X131318958Y-81093218D01*
X131499996Y-81113616D01*
X131500000Y-81113616D01*
X131500004Y-81113616D01*
X131681041Y-81093218D01*
X131681044Y-81093217D01*
X131681047Y-81093217D01*
X131853015Y-81033043D01*
X131976019Y-80955753D01*
X132043256Y-80936753D01*
X132110091Y-80957120D01*
X132129673Y-80973065D01*
X132192719Y-81036111D01*
X132346985Y-81133043D01*
X132518953Y-81193216D01*
X132518953Y-81193217D01*
X132518958Y-81193218D01*
X132699996Y-81213616D01*
X132700000Y-81213616D01*
X132700004Y-81213616D01*
X132881041Y-81193218D01*
X132881044Y-81193217D01*
X132881047Y-81193217D01*
X133053015Y-81133043D01*
X133207281Y-81036111D01*
X133273572Y-80969818D01*
X133334896Y-80936334D01*
X133361254Y-80933500D01*
X136271234Y-80933500D01*
X136338273Y-80953185D01*
X136384028Y-81005989D01*
X136393972Y-81075147D01*
X136364947Y-81138703D01*
X136358915Y-81145181D01*
X129452278Y-88051816D01*
X129390955Y-88085301D01*
X129321263Y-88080317D01*
X129265330Y-88038445D01*
X129259600Y-88030102D01*
X129252503Y-88018806D01*
X129233500Y-87952839D01*
X129233500Y-85913764D01*
X129253185Y-85846725D01*
X129269814Y-85826088D01*
X129662056Y-85433846D01*
X129723377Y-85400363D01*
X129735836Y-85398310D01*
X129781047Y-85393217D01*
X129953015Y-85333043D01*
X130107281Y-85236111D01*
X130236111Y-85107281D01*
X130333043Y-84953015D01*
X130393217Y-84781047D01*
X130406235Y-84665510D01*
X130413616Y-84600003D01*
X130413616Y-84599996D01*
X130393218Y-84418958D01*
X130393217Y-84418953D01*
X130380289Y-84382008D01*
X130333043Y-84246985D01*
X130236111Y-84092719D01*
X130107281Y-83963889D01*
X130017190Y-83907281D01*
X129953017Y-83866958D01*
X129953016Y-83866957D01*
X129953015Y-83866957D01*
X129898693Y-83847949D01*
X129781046Y-83806782D01*
X129781041Y-83806781D01*
X129600004Y-83786384D01*
X129599996Y-83786384D01*
X129418958Y-83806781D01*
X129418953Y-83806782D01*
X129246982Y-83866958D01*
X129092718Y-83963889D01*
X128963889Y-84092718D01*
X128866957Y-84246983D01*
X128806783Y-84418953D01*
X128801690Y-84464148D01*
X128774621Y-84528561D01*
X128766151Y-84537942D01*
X128211182Y-85092912D01*
X128198820Y-85102816D01*
X128198994Y-85103026D01*
X128192985Y-85107997D01*
X128145015Y-85159079D01*
X128123872Y-85180222D01*
X128123857Y-85180239D01*
X128119531Y-85185814D01*
X128115747Y-85190244D01*
X128083419Y-85224671D01*
X128083412Y-85224681D01*
X128073579Y-85242567D01*
X128062903Y-85258820D01*
X128050386Y-85274957D01*
X128050385Y-85274959D01*
X128031625Y-85318310D01*
X128029055Y-85323556D01*
X128006303Y-85364941D01*
X128006303Y-85364942D01*
X128001225Y-85384720D01*
X127994925Y-85403122D01*
X127986818Y-85421857D01*
X127979431Y-85468495D01*
X127978246Y-85474216D01*
X127966500Y-85519965D01*
X127966500Y-85540384D01*
X127964973Y-85559783D01*
X127961780Y-85579941D01*
X127961779Y-85579944D01*
X127966224Y-85626968D01*
X127966499Y-85632804D01*
X127966500Y-87952839D01*
X127947494Y-88018811D01*
X127866958Y-88146982D01*
X127806782Y-88318953D01*
X127806781Y-88318958D01*
X127786384Y-88499996D01*
X127786384Y-88500003D01*
X127806781Y-88681041D01*
X127806782Y-88681046D01*
X127866958Y-88853017D01*
X127963889Y-89007280D01*
X127963889Y-89007281D01*
X128092719Y-89136111D01*
X128130107Y-89159604D01*
X128176398Y-89211937D01*
X128187047Y-89280991D01*
X128158672Y-89344839D01*
X128151816Y-89352278D01*
X125345181Y-92158914D01*
X125283858Y-92192399D01*
X125214166Y-92187415D01*
X125158233Y-92145543D01*
X125133816Y-92080079D01*
X125133500Y-92071233D01*
X125133500Y-81413766D01*
X125153185Y-81346727D01*
X125169819Y-81326085D01*
X125434693Y-81061211D01*
X125434705Y-81061197D01*
X126303654Y-80192249D01*
X126364975Y-80158766D01*
X126432286Y-80162890D01*
X126518953Y-80193217D01*
X126518959Y-80193217D01*
X126518961Y-80193218D01*
X126699996Y-80213616D01*
X126700000Y-80213616D01*
X126700004Y-80213616D01*
X126881041Y-80193218D01*
X126881044Y-80193217D01*
X126881047Y-80193217D01*
X127053015Y-80133043D01*
X127053017Y-80133041D01*
X127053019Y-80133041D01*
X127053022Y-80133039D01*
X127181188Y-80052507D01*
X127247160Y-80033500D01*
X127886234Y-80033500D01*
X127953273Y-80053185D01*
X127973915Y-80069819D01*
X128366151Y-80462055D01*
X128399636Y-80523378D01*
X128401690Y-80535850D01*
X128406783Y-80581047D01*
X128420403Y-80619970D01*
X128466957Y-80753016D01*
X128553169Y-80890221D01*
X128563889Y-80907281D01*
X128692719Y-81036111D01*
X128846985Y-81133043D01*
X129018953Y-81193216D01*
X129018953Y-81193217D01*
X129018958Y-81193218D01*
X129199996Y-81213616D01*
X129200000Y-81213616D01*
X129200004Y-81213616D01*
X129381041Y-81193218D01*
X129381044Y-81193217D01*
X129381047Y-81193217D01*
X129553015Y-81133043D01*
X129707281Y-81036111D01*
X129836111Y-80907281D01*
X129933043Y-80753015D01*
X129993217Y-80581047D01*
X129993218Y-80581041D01*
X130013616Y-80400003D01*
X130013616Y-80399996D01*
X129993218Y-80218958D01*
X129993217Y-80218953D01*
X129993216Y-80218952D01*
X129933043Y-80046985D01*
X129836111Y-79892719D01*
X129707281Y-79763889D01*
X129553016Y-79666957D01*
X129495452Y-79646815D01*
X129381047Y-79606783D01*
X129356954Y-79604068D01*
X129335851Y-79601690D01*
X129271437Y-79574622D01*
X129262056Y-79566151D01*
X128707091Y-79011187D01*
X128697188Y-78998825D01*
X128696978Y-78999000D01*
X128692003Y-78992988D01*
X128692000Y-78992982D01*
X128665618Y-78968208D01*
X128640921Y-78945015D01*
X128619768Y-78923863D01*
X128617792Y-78922331D01*
X128614183Y-78919531D01*
X128609750Y-78915744D01*
X128607870Y-78913979D01*
X128575321Y-78883414D01*
X128575319Y-78883412D01*
X128557431Y-78873578D01*
X128541170Y-78862897D01*
X128525039Y-78850384D01*
X128481693Y-78831627D01*
X128476445Y-78829056D01*
X128449251Y-78814106D01*
X128435060Y-78806305D01*
X128431660Y-78805432D01*
X128415287Y-78801228D01*
X128396881Y-78794926D01*
X128378144Y-78786818D01*
X128378146Y-78786818D01*
X128331496Y-78779430D01*
X128325781Y-78778246D01*
X128299072Y-78771389D01*
X128280032Y-78766500D01*
X128280030Y-78766500D01*
X128259616Y-78766500D01*
X128240217Y-78764973D01*
X128220058Y-78761780D01*
X128220057Y-78761780D01*
X128173034Y-78766225D01*
X128167196Y-78766500D01*
X127247160Y-78766500D01*
X127181188Y-78747493D01*
X127053022Y-78666960D01*
X127053016Y-78666957D01*
X126972735Y-78638866D01*
X126881047Y-78606783D01*
X126881045Y-78606782D01*
X126881043Y-78606782D01*
X126875062Y-78606108D01*
X126810650Y-78579037D01*
X126787768Y-78545716D01*
X183260160Y-78545716D01*
X183278053Y-78618310D01*
X183300870Y-78710886D01*
X183379923Y-78861509D01*
X183396253Y-78879942D01*
X183492731Y-78988843D01*
X183561209Y-79036110D01*
X183632728Y-79085477D01*
X183632729Y-79085477D01*
X183632730Y-79085478D01*
X183734018Y-79123890D01*
X183758147Y-79133042D01*
X183791788Y-79145800D01*
X183867688Y-79155016D01*
X183918286Y-79161160D01*
X183918288Y-79161160D01*
X184003034Y-79161160D01*
X184045198Y-79156040D01*
X184129532Y-79145800D01*
X184288590Y-79085478D01*
X184428589Y-78988843D01*
X184541394Y-78861512D01*
X184542302Y-78859783D01*
X184588695Y-78771389D01*
X184620450Y-78710885D01*
X184661160Y-78545716D01*
X184661160Y-78375604D01*
X184620450Y-78210435D01*
X184614971Y-78199996D01*
X184541396Y-78059810D01*
X184505200Y-78018953D01*
X184428589Y-77932477D01*
X184370989Y-77892718D01*
X184288591Y-77835842D01*
X184129534Y-77775520D01*
X184129528Y-77775519D01*
X184003034Y-77760160D01*
X184003032Y-77760160D01*
X183918288Y-77760160D01*
X183918286Y-77760160D01*
X183791791Y-77775519D01*
X183791785Y-77775520D01*
X183632728Y-77835842D01*
X183492732Y-77932476D01*
X183379923Y-78059810D01*
X183300870Y-78210433D01*
X183271755Y-78328561D01*
X183260160Y-78375604D01*
X183260160Y-78545716D01*
X126787768Y-78545716D01*
X126771098Y-78521440D01*
X126768965Y-78451603D01*
X126771912Y-78441932D01*
X126785527Y-78403025D01*
X126793217Y-78381047D01*
X126793218Y-78381041D01*
X126813616Y-78200003D01*
X126813616Y-78199996D01*
X126793218Y-78018958D01*
X126793217Y-78018953D01*
X126793216Y-78018952D01*
X126733043Y-77846985D01*
X126636111Y-77692719D01*
X126507281Y-77563889D01*
X126353015Y-77466957D01*
X126298693Y-77447949D01*
X126181046Y-77406782D01*
X126181041Y-77406781D01*
X126000004Y-77386384D01*
X125999996Y-77386384D01*
X125818958Y-77406781D01*
X125818953Y-77406782D01*
X125646982Y-77466958D01*
X125492718Y-77563889D01*
X125363889Y-77692718D01*
X125266958Y-77846982D01*
X125206782Y-78018953D01*
X125206781Y-78018958D01*
X125186384Y-78199996D01*
X125186384Y-78200003D01*
X125206781Y-78381041D01*
X125206782Y-78381046D01*
X125266958Y-78553019D01*
X125266960Y-78553022D01*
X125347493Y-78681188D01*
X125366500Y-78747160D01*
X125366500Y-79286232D01*
X125346815Y-79353271D01*
X125330181Y-79373913D01*
X124623674Y-80080420D01*
X124562351Y-80113905D01*
X124492659Y-80108921D01*
X124448312Y-80080420D01*
X124431781Y-80063889D01*
X124277517Y-79966958D01*
X124277516Y-79966957D01*
X124277515Y-79966957D01*
X124220430Y-79946982D01*
X124105546Y-79906782D01*
X124105542Y-79906781D01*
X124043616Y-79899804D01*
X123979202Y-79872737D01*
X123939647Y-79815142D01*
X123933500Y-79776584D01*
X123933500Y-79297837D01*
X123953185Y-79230798D01*
X124005989Y-79185043D01*
X124016538Y-79180798D01*
X124153015Y-79133043D01*
X124307281Y-79036111D01*
X124436111Y-78907281D01*
X124533043Y-78753015D01*
X124593217Y-78581047D01*
X124593218Y-78581041D01*
X124613616Y-78400003D01*
X124613616Y-78399996D01*
X124593218Y-78218958D01*
X124593217Y-78218953D01*
X124586584Y-78199996D01*
X124533043Y-78046985D01*
X124436111Y-77892719D01*
X124307281Y-77763889D01*
X124194015Y-77692719D01*
X124153017Y-77666958D01*
X124153016Y-77666957D01*
X124153015Y-77666957D01*
X124098693Y-77647949D01*
X123981046Y-77606782D01*
X123981041Y-77606781D01*
X123800004Y-77586384D01*
X123799996Y-77586384D01*
X123618958Y-77606781D01*
X123618953Y-77606782D01*
X123446982Y-77666958D01*
X123292718Y-77763889D01*
X123163889Y-77892718D01*
X123066957Y-78046983D01*
X123006783Y-78218953D01*
X123001690Y-78264148D01*
X122974621Y-78328561D01*
X122966151Y-78337942D01*
X122911180Y-78392913D01*
X122898821Y-78402816D01*
X122898994Y-78403025D01*
X122892985Y-78407996D01*
X122845015Y-78459079D01*
X122823872Y-78480222D01*
X122823857Y-78480239D01*
X122819531Y-78485814D01*
X122815747Y-78490244D01*
X122783419Y-78524671D01*
X122783412Y-78524681D01*
X122773579Y-78542567D01*
X122762903Y-78558820D01*
X122750386Y-78574957D01*
X122750385Y-78574959D01*
X122731625Y-78618310D01*
X122729055Y-78623556D01*
X122706303Y-78664941D01*
X122706303Y-78664942D01*
X122701225Y-78684720D01*
X122694925Y-78703122D01*
X122686818Y-78721857D01*
X122679431Y-78768495D01*
X122678246Y-78774216D01*
X122666500Y-78819965D01*
X122666500Y-78840384D01*
X122664973Y-78859783D01*
X122663462Y-78869326D01*
X122661780Y-78879943D01*
X122661930Y-78881526D01*
X122666225Y-78926966D01*
X122666500Y-78932804D01*
X122666500Y-91886232D01*
X122646815Y-91953271D01*
X122630181Y-91973913D01*
X122504850Y-92099244D01*
X122443527Y-92132729D01*
X122373835Y-92127745D01*
X122317902Y-92085873D01*
X122293948Y-92025444D01*
X122293217Y-92018953D01*
X122233043Y-91846985D01*
X122136111Y-91692719D01*
X122007281Y-91563889D01*
X121923400Y-91511183D01*
X121853017Y-91466958D01*
X121853016Y-91466957D01*
X121853015Y-91466957D01*
X121790311Y-91445016D01*
X121681046Y-91406782D01*
X121681042Y-91406781D01*
X121635853Y-91401690D01*
X121571439Y-91374623D01*
X121562056Y-91366151D01*
X117269819Y-87073914D01*
X117236334Y-87012591D01*
X117233500Y-86986233D01*
X117233500Y-83947160D01*
X117252507Y-83881188D01*
X117333039Y-83753022D01*
X117333041Y-83753019D01*
X117333041Y-83753017D01*
X117333043Y-83753015D01*
X117393217Y-83581047D01*
X117413616Y-83400000D01*
X117393217Y-83218953D01*
X117333043Y-83046985D01*
X117236111Y-82892719D01*
X117107281Y-82763889D01*
X116953015Y-82666957D01*
X116898693Y-82647949D01*
X116781046Y-82606782D01*
X116781041Y-82606781D01*
X116600004Y-82586384D01*
X116599996Y-82586384D01*
X116418958Y-82606781D01*
X116418953Y-82606782D01*
X116246982Y-82666958D01*
X116092718Y-82763889D01*
X115963889Y-82892718D01*
X115866958Y-83046982D01*
X115806782Y-83218953D01*
X115806781Y-83218958D01*
X115786384Y-83399996D01*
X115786384Y-83400003D01*
X115806781Y-83581041D01*
X115806782Y-83581046D01*
X115866958Y-83753019D01*
X115866960Y-83753022D01*
X115947493Y-83881188D01*
X115966500Y-83947160D01*
X115966500Y-87216366D01*
X115964761Y-87232113D01*
X115965032Y-87232139D01*
X115964298Y-87239905D01*
X115966500Y-87309957D01*
X115966500Y-87339859D01*
X115967384Y-87346856D01*
X115967842Y-87352679D01*
X115969326Y-87399889D01*
X115969327Y-87399891D01*
X115975022Y-87419495D01*
X115978967Y-87438542D01*
X115981526Y-87458797D01*
X115981527Y-87458800D01*
X115981528Y-87458803D01*
X115998914Y-87502716D01*
X116000806Y-87508244D01*
X116013981Y-87553592D01*
X116024372Y-87571162D01*
X116032932Y-87588635D01*
X116040447Y-87607617D01*
X116068209Y-87645827D01*
X116071416Y-87650710D01*
X116095458Y-87691362D01*
X116095462Y-87691366D01*
X116109889Y-87705793D01*
X116122526Y-87720588D01*
X116134528Y-87737107D01*
X116170931Y-87767222D01*
X116175231Y-87771135D01*
X118433152Y-90029056D01*
X120666151Y-92262055D01*
X120699636Y-92323378D01*
X120701690Y-92335850D01*
X120706783Y-92381047D01*
X120722163Y-92425000D01*
X120766957Y-92553016D01*
X120800279Y-92606047D01*
X120863889Y-92707281D01*
X120992719Y-92836111D01*
X121146985Y-92933043D01*
X121318953Y-92993216D01*
X121318953Y-92993217D01*
X121318958Y-92993218D01*
X121325444Y-92993949D01*
X121389858Y-93021015D01*
X121429414Y-93078609D01*
X121431553Y-93148446D01*
X121399243Y-93204850D01*
X110237942Y-104366151D01*
X110176619Y-104399636D01*
X110164146Y-104401690D01*
X110118955Y-104406782D01*
X109946982Y-104466958D01*
X109804713Y-104556352D01*
X109737476Y-104575352D01*
X109670641Y-104554984D01*
X109651060Y-104539039D01*
X107269819Y-102157798D01*
X107236334Y-102096475D01*
X107233500Y-102070117D01*
X107233500Y-98220654D01*
X107253185Y-98153615D01*
X107305989Y-98107860D01*
X107343612Y-98097434D01*
X107381047Y-98093217D01*
X107553015Y-98033043D01*
X107707281Y-97936111D01*
X107836111Y-97807281D01*
X107933043Y-97653015D01*
X107993217Y-97481047D01*
X107996902Y-97448342D01*
X108013616Y-97300003D01*
X108013616Y-97299996D01*
X107993218Y-97118958D01*
X107993217Y-97118953D01*
X107989021Y-97106961D01*
X107933043Y-96946985D01*
X107836111Y-96792719D01*
X107707281Y-96663889D01*
X107594015Y-96592719D01*
X107553017Y-96566958D01*
X107553016Y-96566957D01*
X107553015Y-96566957D01*
X107498693Y-96547949D01*
X107381046Y-96506782D01*
X107381041Y-96506781D01*
X107200004Y-96486384D01*
X107199996Y-96486384D01*
X107018955Y-96506782D01*
X106967465Y-96524799D01*
X106897686Y-96528360D01*
X106838830Y-96495438D01*
X106807281Y-96463889D01*
X106653017Y-96366958D01*
X106653016Y-96366957D01*
X106653015Y-96366957D01*
X106598693Y-96347949D01*
X106481046Y-96306782D01*
X106481041Y-96306781D01*
X106300004Y-96286384D01*
X106299996Y-96286384D01*
X106118958Y-96306781D01*
X106118953Y-96306782D01*
X105946982Y-96366958D01*
X105792718Y-96463889D01*
X105663889Y-96592718D01*
X105566958Y-96746982D01*
X105506782Y-96918953D01*
X105506781Y-96918958D01*
X105486384Y-97099995D01*
X105486384Y-97106961D01*
X105485916Y-97106961D01*
X105485375Y-97130963D01*
X105479431Y-97168494D01*
X105478246Y-97174217D01*
X105466500Y-97219967D01*
X105466500Y-97240384D01*
X105464973Y-97259783D01*
X105461780Y-97279941D01*
X105461780Y-97279942D01*
X105466225Y-97326966D01*
X105466500Y-97332804D01*
X105466500Y-102516366D01*
X105464761Y-102532113D01*
X105465032Y-102532139D01*
X105464298Y-102539905D01*
X105466500Y-102609957D01*
X105466500Y-102639859D01*
X105467384Y-102646856D01*
X105467842Y-102652679D01*
X105469326Y-102699889D01*
X105469327Y-102699891D01*
X105475022Y-102719495D01*
X105478967Y-102738542D01*
X105481526Y-102758797D01*
X105481527Y-102758800D01*
X105481528Y-102758803D01*
X105498914Y-102802716D01*
X105500806Y-102808244D01*
X105513981Y-102853592D01*
X105524372Y-102871162D01*
X105532932Y-102888635D01*
X105540447Y-102907617D01*
X105568209Y-102945827D01*
X105571416Y-102950710D01*
X105595458Y-102991362D01*
X105595462Y-102991366D01*
X105609889Y-103005793D01*
X105622526Y-103020588D01*
X105634528Y-103037107D01*
X105670931Y-103067222D01*
X105675231Y-103071135D01*
X107621053Y-105016957D01*
X109467910Y-106863814D01*
X109477816Y-106876178D01*
X109478026Y-106876005D01*
X109483001Y-106882019D01*
X109534095Y-106930000D01*
X109555224Y-106951129D01*
X109555228Y-106951132D01*
X109555231Y-106951135D01*
X109560805Y-106955458D01*
X109565247Y-106959252D01*
X109599679Y-106991586D01*
X109599683Y-106991589D01*
X109617563Y-107001418D01*
X109633827Y-107012101D01*
X109649960Y-107024614D01*
X109693301Y-107043369D01*
X109698550Y-107045941D01*
X109718627Y-107056978D01*
X109739940Y-107068695D01*
X109759718Y-107073773D01*
X109778119Y-107080073D01*
X109796855Y-107088181D01*
X109841362Y-107095229D01*
X109843503Y-107095569D01*
X109849212Y-107096751D01*
X109894970Y-107108500D01*
X109915384Y-107108500D01*
X109934783Y-107110027D01*
X109954943Y-107113220D01*
X110001965Y-107108775D01*
X110007804Y-107108500D01*
X113824838Y-107108500D01*
X113891877Y-107128185D01*
X113912519Y-107144819D01*
X114222519Y-107454819D01*
X114256004Y-107516142D01*
X114251020Y-107585834D01*
X114209148Y-107641767D01*
X114143684Y-107666184D01*
X114134838Y-107666500D01*
X107247160Y-107666500D01*
X107181188Y-107647493D01*
X107053022Y-107566960D01*
X107053019Y-107566958D01*
X106881046Y-107506782D01*
X106881041Y-107506781D01*
X106700004Y-107486384D01*
X106699996Y-107486384D01*
X106518958Y-107506781D01*
X106518953Y-107506782D01*
X106346982Y-107566958D01*
X106192718Y-107663889D01*
X106063889Y-107792718D01*
X105966958Y-107946982D01*
X105906782Y-108118953D01*
X105906781Y-108118958D01*
X105886384Y-108299996D01*
X105886384Y-108300003D01*
X105906781Y-108481041D01*
X105906782Y-108481046D01*
X105923672Y-108529313D01*
X105966957Y-108653015D01*
X106063889Y-108807281D01*
X106192719Y-108936111D01*
X106346985Y-109033043D01*
X106509759Y-109090000D01*
X106518953Y-109093217D01*
X106518958Y-109093218D01*
X106699996Y-109113616D01*
X106700000Y-109113616D01*
X106700004Y-109113616D01*
X106881041Y-109093218D01*
X106881044Y-109093217D01*
X106881047Y-109093217D01*
X107053015Y-109033043D01*
X107053017Y-109033041D01*
X107053019Y-109033041D01*
X107053022Y-109033039D01*
X107181188Y-108952507D01*
X107247160Y-108933500D01*
X114986234Y-108933500D01*
X115053273Y-108953185D01*
X115073915Y-108969819D01*
X118595458Y-112491362D01*
X122470347Y-116366252D01*
X122503832Y-116427575D01*
X122498848Y-116497267D01*
X122456976Y-116553200D01*
X122391512Y-116577617D01*
X122382666Y-116577933D01*
X121750505Y-116577933D01*
X121683466Y-116558248D01*
X121662824Y-116541614D01*
X120736614Y-115615403D01*
X120736608Y-115615398D01*
X120736605Y-115615395D01*
X120689176Y-115577175D01*
X120689172Y-115577173D01*
X120556170Y-115516432D01*
X120556165Y-115516431D01*
X120411433Y-115495623D01*
X120266700Y-115516431D01*
X120266695Y-115516432D01*
X120133693Y-115577173D01*
X120133688Y-115577176D01*
X120086251Y-115615403D01*
X118815403Y-116886251D01*
X118777176Y-116933688D01*
X118777173Y-116933693D01*
X118716432Y-117066695D01*
X118716431Y-117066699D01*
X118701438Y-117170985D01*
X118672413Y-117234541D01*
X118613635Y-117272315D01*
X118543765Y-117272315D01*
X118491019Y-117241019D01*
X115500000Y-114250000D01*
X115499999Y-114250000D01*
X110297504Y-115146982D01*
X108250000Y-115500000D01*
X98750000Y-118000000D01*
X98749992Y-118000002D01*
X98749991Y-118000003D01*
X98749992Y-118000003D01*
X98428088Y-118113616D01*
X94665270Y-119441669D01*
X94595501Y-119445419D01*
X94534780Y-119410853D01*
X94502386Y-119348947D01*
X94500000Y-119324738D01*
X94500000Y-111603063D01*
X94519685Y-111536024D01*
X94572489Y-111490269D01*
X94641647Y-111480325D01*
X94648961Y-111481601D01*
X94835810Y-111520000D01*
X95087500Y-111520000D01*
X95087500Y-110820000D01*
X95587500Y-110820000D01*
X95587500Y-111520000D01*
X95788213Y-111520000D01*
X95939838Y-111504581D01*
X96133881Y-111443700D01*
X96133891Y-111443695D01*
X96311715Y-111344994D01*
X96311716Y-111344994D01*
X96466030Y-111212521D01*
X96466031Y-111212520D01*
X96590518Y-111051695D01*
X96680088Y-110869093D01*
X96705746Y-110770000D01*
X97964134Y-110770000D01*
X97964431Y-110771946D01*
X97964433Y-110771952D01*
X98035062Y-110962657D01*
X98035065Y-110962664D01*
X98142649Y-111135267D01*
X98282764Y-111282668D01*
X98282766Y-111282669D01*
X98449695Y-111398856D01*
X98636592Y-111479059D01*
X98835810Y-111520000D01*
X99237500Y-111520000D01*
X99237500Y-110820000D01*
X99737500Y-110820000D01*
X99737500Y-111520000D01*
X100088213Y-111520000D01*
X100239838Y-111504581D01*
X100433881Y-111443700D01*
X100433891Y-111443695D01*
X100611715Y-111344994D01*
X100611716Y-111344994D01*
X100766030Y-111212521D01*
X100766031Y-111212520D01*
X100890518Y-111051695D01*
X100980088Y-110869093D01*
X101005746Y-110770000D01*
X100203611Y-110770000D01*
X100243110Y-110745543D01*
X100310701Y-110656038D01*
X100341395Y-110548160D01*
X100331046Y-110436479D01*
X100281052Y-110336078D01*
X100208569Y-110270000D01*
X101010866Y-110270000D01*
X101010568Y-110268053D01*
X101010566Y-110268047D01*
X100939937Y-110077342D01*
X100939934Y-110077335D01*
X100832350Y-109904732D01*
X100692235Y-109757331D01*
X100692233Y-109757330D01*
X100525304Y-109641143D01*
X100338407Y-109560940D01*
X100139190Y-109520000D01*
X99617884Y-109520000D01*
X99550845Y-109500315D01*
X99505090Y-109447511D01*
X99495146Y-109378353D01*
X99503323Y-109348547D01*
X99509216Y-109334319D01*
X99548187Y-109240236D01*
X99567966Y-109090000D01*
X99548187Y-108939764D01*
X99490198Y-108799767D01*
X99397951Y-108679549D01*
X99277733Y-108587302D01*
X99277729Y-108587300D01*
X99214301Y-108561027D01*
X99137736Y-108529313D01*
X99123671Y-108527461D01*
X99025227Y-108514500D01*
X99025220Y-108514500D01*
X98949780Y-108514500D01*
X98949772Y-108514500D01*
X98837264Y-108529313D01*
X98837263Y-108529313D01*
X98697270Y-108587300D01*
X98577049Y-108679549D01*
X98484800Y-108799770D01*
X98426813Y-108939763D01*
X98426812Y-108939765D01*
X98407034Y-109089999D01*
X98407034Y-109090000D01*
X98426812Y-109240234D01*
X98426813Y-109240236D01*
X98484800Y-109380230D01*
X98484802Y-109380233D01*
X98530339Y-109439578D01*
X98555533Y-109504747D01*
X98541495Y-109573192D01*
X98492681Y-109623181D01*
X98492141Y-109623483D01*
X98363284Y-109695004D01*
X98363283Y-109695005D01*
X98208969Y-109827478D01*
X98208968Y-109827479D01*
X98084481Y-109988304D01*
X97994911Y-110170906D01*
X97969254Y-110270000D01*
X98771389Y-110270000D01*
X98731890Y-110294457D01*
X98664299Y-110383962D01*
X98633605Y-110491840D01*
X98643954Y-110603521D01*
X98693948Y-110703922D01*
X98766431Y-110770000D01*
X97964134Y-110770000D01*
X96705746Y-110770000D01*
X95903611Y-110770000D01*
X95943110Y-110745543D01*
X96010701Y-110656038D01*
X96041395Y-110548160D01*
X96031046Y-110436479D01*
X95981052Y-110336078D01*
X95908569Y-110270000D01*
X96710866Y-110270000D01*
X96710568Y-110268053D01*
X96710566Y-110268047D01*
X96639937Y-110077342D01*
X96639934Y-110077335D01*
X96532350Y-109904732D01*
X96392235Y-109757331D01*
X96392233Y-109757330D01*
X96225304Y-109641143D01*
X96038407Y-109560940D01*
X95839190Y-109520000D01*
X95587500Y-109520000D01*
X95587500Y-110220000D01*
X95087500Y-110220000D01*
X95087500Y-109520000D01*
X94886787Y-109520000D01*
X94735161Y-109535418D01*
X94661121Y-109558649D01*
X94591263Y-109559936D01*
X94531799Y-109523251D01*
X94501608Y-109460241D01*
X94500000Y-109440336D01*
X94500000Y-107250003D01*
X97936384Y-107250003D01*
X97956781Y-107431041D01*
X97956782Y-107431046D01*
X98016958Y-107603017D01*
X98044904Y-107647493D01*
X98113889Y-107757281D01*
X98242719Y-107886111D01*
X98396985Y-107983043D01*
X98568953Y-108043216D01*
X98568953Y-108043217D01*
X98568958Y-108043218D01*
X98749996Y-108063616D01*
X98750000Y-108063616D01*
X98750004Y-108063616D01*
X98931041Y-108043218D01*
X98931044Y-108043217D01*
X98931047Y-108043217D01*
X99103015Y-107983043D01*
X99257281Y-107886111D01*
X99386111Y-107757281D01*
X99483043Y-107603015D01*
X99543217Y-107431047D01*
X99563616Y-107250000D01*
X99546349Y-107096754D01*
X99543218Y-107068958D01*
X99543217Y-107068953D01*
X99527702Y-107024614D01*
X99483043Y-106896985D01*
X99386111Y-106742719D01*
X99386110Y-106742718D01*
X99386109Y-106742716D01*
X99385549Y-106742014D01*
X99385328Y-106741474D01*
X99382406Y-106736823D01*
X99383221Y-106736310D01*
X99359144Y-106677326D01*
X99358500Y-106664706D01*
X99358500Y-106335293D01*
X99378185Y-106268254D01*
X99385562Y-106257969D01*
X99386105Y-106257286D01*
X99386111Y-106257281D01*
X99483043Y-106103015D01*
X99543217Y-105931047D01*
X99563276Y-105753017D01*
X99563616Y-105750003D01*
X99563616Y-105749996D01*
X99543218Y-105568958D01*
X99543217Y-105568953D01*
X99543217Y-105568952D01*
X99483043Y-105396985D01*
X99386111Y-105242719D01*
X99257281Y-105113889D01*
X99150804Y-105046985D01*
X99103017Y-105016958D01*
X99103016Y-105016957D01*
X99103015Y-105016957D01*
X99048693Y-104997949D01*
X98931046Y-104956782D01*
X98931041Y-104956781D01*
X98750004Y-104936384D01*
X98749996Y-104936384D01*
X98568958Y-104956781D01*
X98568953Y-104956782D01*
X98396982Y-105016958D01*
X98242718Y-105113889D01*
X98113889Y-105242718D01*
X98016958Y-105396982D01*
X97956782Y-105568953D01*
X97956781Y-105568958D01*
X97936384Y-105749996D01*
X97936384Y-105750003D01*
X97956781Y-105931041D01*
X97956782Y-105931046D01*
X98016958Y-106103017D01*
X98113886Y-106257277D01*
X98114445Y-106257977D01*
X98114664Y-106258515D01*
X98117594Y-106263177D01*
X98116777Y-106263690D01*
X98140855Y-106322663D01*
X98141500Y-106335293D01*
X98141500Y-106664706D01*
X98121815Y-106731745D01*
X98114451Y-106742014D01*
X98113890Y-106742716D01*
X98016958Y-106896982D01*
X97956782Y-107068953D01*
X97956781Y-107068958D01*
X97936384Y-107249996D01*
X97936384Y-107250003D01*
X94500000Y-107250003D01*
X94500000Y-102963063D01*
X94519685Y-102896024D01*
X94572489Y-102850269D01*
X94641647Y-102840325D01*
X94648961Y-102841601D01*
X94835810Y-102880000D01*
X95087500Y-102880000D01*
X95087500Y-102180000D01*
X95587500Y-102180000D01*
X95587500Y-102880000D01*
X95788213Y-102880000D01*
X95939838Y-102864581D01*
X96133881Y-102803700D01*
X96133891Y-102803695D01*
X96311715Y-102704994D01*
X96311716Y-102704994D01*
X96466030Y-102572521D01*
X96466031Y-102572520D01*
X96590518Y-102411695D01*
X96680088Y-102229093D01*
X96705746Y-102130000D01*
X97964134Y-102130000D01*
X97964431Y-102131946D01*
X97964433Y-102131952D01*
X98035062Y-102322657D01*
X98035065Y-102322664D01*
X98142649Y-102495267D01*
X98282764Y-102642668D01*
X98282766Y-102642669D01*
X98449695Y-102758856D01*
X98480143Y-102771922D01*
X98533986Y-102816448D01*
X98555210Y-102883017D01*
X98537075Y-102950492D01*
X98529620Y-102961358D01*
X98484801Y-103019767D01*
X98484800Y-103019769D01*
X98426813Y-103159763D01*
X98426812Y-103159765D01*
X98407034Y-103309999D01*
X98407034Y-103310000D01*
X98426812Y-103460234D01*
X98426813Y-103460236D01*
X98484802Y-103600233D01*
X98577049Y-103720451D01*
X98697267Y-103812698D01*
X98837264Y-103870687D01*
X98949780Y-103885500D01*
X98949787Y-103885500D01*
X99025213Y-103885500D01*
X99025220Y-103885500D01*
X99137736Y-103870687D01*
X99277733Y-103812698D01*
X99397951Y-103720451D01*
X99490198Y-103600233D01*
X99548187Y-103460236D01*
X99567966Y-103310000D01*
X99548187Y-103159764D01*
X99510623Y-103069076D01*
X99503323Y-103051453D01*
X99495854Y-102981983D01*
X99527129Y-102919504D01*
X99587218Y-102883852D01*
X99617884Y-102880000D01*
X100088213Y-102880000D01*
X100239838Y-102864581D01*
X100433881Y-102803700D01*
X100433891Y-102803695D01*
X100611715Y-102704994D01*
X100611716Y-102704994D01*
X100766030Y-102572521D01*
X100766031Y-102572520D01*
X100890518Y-102411695D01*
X100980088Y-102229093D01*
X101005746Y-102130000D01*
X100203611Y-102130000D01*
X100243110Y-102105543D01*
X100310701Y-102016038D01*
X100341395Y-101908160D01*
X100331046Y-101796479D01*
X100281052Y-101696078D01*
X100208569Y-101630000D01*
X101010866Y-101630000D01*
X101010568Y-101628053D01*
X101010566Y-101628047D01*
X100939937Y-101437342D01*
X100939934Y-101437335D01*
X100832350Y-101264732D01*
X100692235Y-101117331D01*
X100692233Y-101117330D01*
X100525304Y-101001143D01*
X100338407Y-100920940D01*
X100139190Y-100880000D01*
X99737500Y-100880000D01*
X99737500Y-101580000D01*
X99237500Y-101580000D01*
X99237500Y-100880000D01*
X98886787Y-100880000D01*
X98735161Y-100895418D01*
X98541118Y-100956299D01*
X98541108Y-100956304D01*
X98363284Y-101055005D01*
X98363283Y-101055005D01*
X98208969Y-101187478D01*
X98208968Y-101187479D01*
X98084481Y-101348304D01*
X97994911Y-101530906D01*
X97969254Y-101630000D01*
X98771389Y-101630000D01*
X98731890Y-101654457D01*
X98664299Y-101743962D01*
X98633605Y-101851840D01*
X98643954Y-101963521D01*
X98693948Y-102063922D01*
X98766431Y-102130000D01*
X97964134Y-102130000D01*
X96705746Y-102130000D01*
X95903611Y-102130000D01*
X95943110Y-102105543D01*
X96010701Y-102016038D01*
X96041395Y-101908160D01*
X96031046Y-101796479D01*
X95981052Y-101696078D01*
X95908569Y-101630000D01*
X96710866Y-101630000D01*
X96710568Y-101628053D01*
X96710566Y-101628047D01*
X96639937Y-101437342D01*
X96639934Y-101437335D01*
X96532350Y-101264732D01*
X96392235Y-101117331D01*
X96392233Y-101117330D01*
X96225304Y-101001143D01*
X96038407Y-100920940D01*
X95839190Y-100880000D01*
X95587500Y-100880000D01*
X95587500Y-101580000D01*
X95087500Y-101580000D01*
X95087500Y-100880000D01*
X94886787Y-100880000D01*
X94735161Y-100895418D01*
X94661121Y-100918649D01*
X94591263Y-100919936D01*
X94531799Y-100883251D01*
X94501608Y-100820241D01*
X94500000Y-100800336D01*
X94500000Y-85124000D01*
X94519685Y-85056961D01*
X94572489Y-85011206D01*
X94624000Y-85000000D01*
X99483463Y-85000000D01*
X99550502Y-85019685D01*
X99596257Y-85072489D01*
X99606201Y-85141647D01*
X99577176Y-85205203D01*
X99550998Y-85227995D01*
X99476074Y-85276650D01*
X99182134Y-85514678D01*
X99182126Y-85514685D01*
X98914686Y-85782125D01*
X98914679Y-85782133D01*
X98676651Y-86076073D01*
X98470662Y-86393269D01*
X98298949Y-86730273D01*
X98163406Y-87083374D01*
X98065511Y-87448724D01*
X98065511Y-87448726D01*
X98010304Y-87797291D01*
X98006344Y-87822291D01*
X97986549Y-88200000D01*
X98006344Y-88577709D01*
X98065512Y-88951279D01*
X98115037Y-89136111D01*
X98163406Y-89316625D01*
X98298949Y-89669726D01*
X98470662Y-90006730D01*
X98676651Y-90323926D01*
X98676655Y-90323931D01*
X98676657Y-90323934D01*
X98914683Y-90617871D01*
X99182130Y-90885318D01*
X99476067Y-91123344D01*
X99476071Y-91123346D01*
X99476074Y-91123349D01*
X99775560Y-91317837D01*
X99793275Y-91329341D01*
X100130278Y-91501053D01*
X100483383Y-91636597D01*
X100848722Y-91734489D01*
X101222292Y-91793657D01*
X101560081Y-91811359D01*
X101625997Y-91834525D01*
X101668926Y-91889651D01*
X101675236Y-91959235D01*
X101658584Y-92001161D01*
X101566958Y-92146982D01*
X101506782Y-92318953D01*
X101506781Y-92318958D01*
X101486384Y-92499996D01*
X101486384Y-92500003D01*
X101506781Y-92681041D01*
X101506782Y-92681046D01*
X101540713Y-92778015D01*
X101566957Y-92853015D01*
X101663889Y-93007281D01*
X101792719Y-93136111D01*
X101946985Y-93233043D01*
X102118953Y-93293216D01*
X102118953Y-93293217D01*
X102118958Y-93293218D01*
X102299996Y-93313616D01*
X102300000Y-93313616D01*
X102300004Y-93313616D01*
X102481041Y-93293218D01*
X102481044Y-93293217D01*
X102481047Y-93293217D01*
X102653015Y-93233043D01*
X102653017Y-93233041D01*
X102653019Y-93233041D01*
X102653022Y-93233039D01*
X102781188Y-93152507D01*
X102847160Y-93133500D01*
X118247201Y-93133500D01*
X118313174Y-93152506D01*
X118321985Y-93158043D01*
X118467738Y-93209044D01*
X118493953Y-93218217D01*
X118493958Y-93218218D01*
X118674996Y-93238616D01*
X118675000Y-93238616D01*
X118675004Y-93238616D01*
X118856041Y-93218218D01*
X118856044Y-93218217D01*
X118856047Y-93218217D01*
X119028015Y-93158043D01*
X119182281Y-93061111D01*
X119311111Y-92932281D01*
X119408043Y-92778015D01*
X119468217Y-92606047D01*
X119474192Y-92553016D01*
X119488616Y-92425003D01*
X119488616Y-92424996D01*
X119468218Y-92243958D01*
X119468217Y-92243953D01*
X119452837Y-92200000D01*
X119408043Y-92071985D01*
X119311111Y-91917719D01*
X119182281Y-91788889D01*
X119150082Y-91768657D01*
X119028017Y-91691958D01*
X119028016Y-91691957D01*
X119028015Y-91691957D01*
X118973693Y-91672949D01*
X118856046Y-91631782D01*
X118856041Y-91631781D01*
X118675004Y-91611384D01*
X118674996Y-91611384D01*
X118493958Y-91631781D01*
X118493953Y-91631782D01*
X118321982Y-91691958D01*
X118167718Y-91788889D01*
X118126427Y-91830181D01*
X118065104Y-91863666D01*
X118038746Y-91866500D01*
X102847160Y-91866500D01*
X102781185Y-91847492D01*
X102780378Y-91846985D01*
X102775712Y-91844053D01*
X102758274Y-91833095D01*
X102711984Y-91780759D01*
X102701338Y-91711705D01*
X102729715Y-91647857D01*
X102779810Y-91612340D01*
X103069724Y-91501053D01*
X103406727Y-91329341D01*
X103723935Y-91123344D01*
X104017872Y-90885318D01*
X104285319Y-90617871D01*
X104523345Y-90323934D01*
X104729342Y-90006726D01*
X104901054Y-89669723D01*
X105036598Y-89316618D01*
X105134490Y-88951279D01*
X105193658Y-88577709D01*
X105213453Y-88200000D01*
X105193658Y-87822291D01*
X105134490Y-87448721D01*
X105036598Y-87083382D01*
X104901054Y-86730277D01*
X104729342Y-86393274D01*
X104523345Y-86076066D01*
X104285319Y-85782129D01*
X104017872Y-85514682D01*
X103723935Y-85276656D01*
X103723932Y-85276654D01*
X103723927Y-85276650D01*
X103406731Y-85070661D01*
X103069727Y-84898948D01*
X102716626Y-84763405D01*
X102716619Y-84763403D01*
X102351280Y-84665511D01*
X102351276Y-84665510D01*
X102351275Y-84665510D01*
X101977711Y-84606343D01*
X101700866Y-84591834D01*
X101634949Y-84568668D01*
X101592020Y-84513542D01*
X101585710Y-84443957D01*
X101618021Y-84382008D01*
X101619568Y-84380431D01*
X109575605Y-76424395D01*
X181138840Y-76424395D01*
X181179550Y-76589566D01*
X181258603Y-76740189D01*
X181258606Y-76740192D01*
X181371411Y-76867523D01*
X181461658Y-76929816D01*
X181511408Y-76964157D01*
X181511409Y-76964157D01*
X181511410Y-76964158D01*
X181670468Y-77024480D01*
X181746368Y-77033696D01*
X181796966Y-77039840D01*
X181796968Y-77039840D01*
X181881714Y-77039840D01*
X181923878Y-77034720D01*
X182008212Y-77024480D01*
X182167270Y-76964158D01*
X182307269Y-76867523D01*
X182420074Y-76740192D01*
X182499130Y-76589565D01*
X182539840Y-76424396D01*
X182539840Y-76254284D01*
X182499130Y-76089115D01*
X182499129Y-76089113D01*
X182420076Y-75938490D01*
X182400900Y-75916845D01*
X182307269Y-75811157D01*
X182257517Y-75776815D01*
X182167271Y-75714522D01*
X182008214Y-75654200D01*
X182008208Y-75654199D01*
X181881714Y-75638840D01*
X181881712Y-75638840D01*
X181796968Y-75638840D01*
X181796966Y-75638840D01*
X181670471Y-75654199D01*
X181670465Y-75654200D01*
X181511408Y-75714522D01*
X181371412Y-75811156D01*
X181258603Y-75938490D01*
X181179550Y-76089113D01*
X181138840Y-76254284D01*
X181138840Y-76424395D01*
X109575605Y-76424395D01*
X114124995Y-71875005D01*
X138111673Y-71875005D01*
X138130948Y-72107622D01*
X138188251Y-72333907D01*
X138282015Y-72547668D01*
X138409686Y-72743084D01*
X138567776Y-72914814D01*
X138567780Y-72914818D01*
X138751983Y-73058190D01*
X138751985Y-73058191D01*
X138751988Y-73058193D01*
X138871331Y-73122777D01*
X138957273Y-73169287D01*
X139071914Y-73208643D01*
X139178045Y-73245079D01*
X139178047Y-73245079D01*
X139178049Y-73245080D01*
X139408288Y-73283500D01*
X139408289Y-73283500D01*
X139641711Y-73283500D01*
X139641712Y-73283500D01*
X139871951Y-73245080D01*
X140092727Y-73169287D01*
X140298017Y-73058190D01*
X140482220Y-72914818D01*
X140640314Y-72743083D01*
X140767984Y-72547669D01*
X140861749Y-72333907D01*
X140919051Y-72107626D01*
X140938327Y-71875005D01*
X152220202Y-71875005D01*
X152239361Y-72106218D01*
X152296317Y-72331135D01*
X152389516Y-72543609D01*
X152473811Y-72672633D01*
X153141922Y-72004522D01*
X153165507Y-72084844D01*
X153243239Y-72205798D01*
X153351900Y-72299952D01*
X153482685Y-72359680D01*
X153492466Y-72361086D01*
X152826199Y-73027351D01*
X152856650Y-73051050D01*
X153060697Y-73161476D01*
X153060706Y-73161479D01*
X153280139Y-73236811D01*
X153508993Y-73275000D01*
X153741007Y-73275000D01*
X153969860Y-73236811D01*
X154189293Y-73161479D01*
X154189302Y-73161476D01*
X154393350Y-73051050D01*
X154423798Y-73027351D01*
X153757533Y-72361086D01*
X153767315Y-72359680D01*
X153898100Y-72299952D01*
X154006761Y-72205798D01*
X154084493Y-72084844D01*
X154108076Y-72004524D01*
X154776186Y-72672634D01*
X154860484Y-72543606D01*
X154953682Y-72331135D01*
X155010638Y-72106218D01*
X155029798Y-71875005D01*
X155029798Y-71874994D01*
X155010638Y-71643781D01*
X154953682Y-71418864D01*
X154860483Y-71206390D01*
X154776186Y-71077364D01*
X154108076Y-71745475D01*
X154084493Y-71665156D01*
X154006761Y-71544202D01*
X153898100Y-71450048D01*
X153767315Y-71390320D01*
X153757534Y-71388913D01*
X154423799Y-70722648D01*
X154423799Y-70722647D01*
X154393349Y-70698949D01*
X154189302Y-70588523D01*
X154189293Y-70588520D01*
X153969860Y-70513188D01*
X153741007Y-70475000D01*
X153508993Y-70475000D01*
X153280139Y-70513188D01*
X153060706Y-70588520D01*
X153060698Y-70588523D01*
X152856644Y-70698952D01*
X152826200Y-70722646D01*
X152826200Y-70722647D01*
X153492466Y-71388913D01*
X153482685Y-71390320D01*
X153351900Y-71450048D01*
X153243239Y-71544202D01*
X153165507Y-71665156D01*
X153141923Y-71745476D01*
X152473812Y-71077365D01*
X152389516Y-71206391D01*
X152389514Y-71206395D01*
X152296317Y-71418864D01*
X152239361Y-71643781D01*
X152220202Y-71874994D01*
X152220202Y-71875005D01*
X140938327Y-71875005D01*
X140938327Y-71875000D01*
X140919051Y-71642374D01*
X140861749Y-71416093D01*
X140767984Y-71202331D01*
X140640314Y-71006917D01*
X140640313Y-71006915D01*
X140482223Y-70835185D01*
X140482222Y-70835184D01*
X140482220Y-70835182D01*
X140298017Y-70691810D01*
X140298015Y-70691809D01*
X140298014Y-70691808D01*
X140298011Y-70691806D01*
X140092733Y-70580716D01*
X140092730Y-70580715D01*
X140092727Y-70580713D01*
X140092721Y-70580711D01*
X140092719Y-70580710D01*
X139871954Y-70504920D01*
X139692650Y-70475000D01*
X139641712Y-70466500D01*
X139408288Y-70466500D01*
X139362240Y-70474184D01*
X139178045Y-70504920D01*
X138957280Y-70580710D01*
X138957266Y-70580716D01*
X138751988Y-70691806D01*
X138751985Y-70691808D01*
X138567781Y-70835181D01*
X138567776Y-70835185D01*
X138409686Y-71006915D01*
X138282015Y-71202331D01*
X138188251Y-71416092D01*
X138130948Y-71642377D01*
X138111673Y-71874994D01*
X138111673Y-71875005D01*
X114124995Y-71875005D01*
X116963681Y-69036319D01*
X117025004Y-69002834D01*
X117051362Y-69000000D01*
X176448638Y-69000000D01*
X176515677Y-69019685D01*
G37*
%TD.AperFunction*%
%TD*%
M02*
