%TF.GenerationSoftware,KiCad,Pcbnew,7.0.1*%
%TF.CreationDate,2023-05-21T16:14:24-05:00*%
%TF.ProjectId,panel,70616e65-6c2e-46b6-9963-61645f706362,rev?*%
%TF.SameCoordinates,Original*%
%TF.FileFunction,Profile,NP*%
%FSLAX46Y46*%
G04 Gerber Fmt 4.6, Leading zero omitted, Abs format (unit mm)*
G04 Created by KiCad (PCBNEW 7.0.1) date 2023-05-21 16:14:24*
%MOMM*%
%LPD*%
G01*
G04 APERTURE LIST*
%TA.AperFunction,Profile*%
%ADD10C,0.100000*%
%TD*%
G04 APERTURE END LIST*
D10*
X120089950Y-30519200D02*
X119925650Y-30641900D01*
X119636450Y-30931100D02*
X119513750Y-31095400D01*
X208406350Y-27211700D02*
X207981350Y-27148600D01*
X209296350Y-197434300D02*
X209335350Y-197590800D01*
X155205350Y-122350600D02*
X155834350Y-121965600D01*
X81640550Y-122798600D02*
X81771350Y-122985600D01*
X209173350Y-95281600D02*
X209090350Y-95420000D01*
X179067350Y-137821600D02*
X178824350Y-137956400D01*
X83120650Y-39818400D02*
X82838950Y-39910300D01*
X209296350Y-94024700D02*
X209335350Y-94181200D01*
X124514216Y-30155400D02*
X121285750Y-30155400D01*
X194211350Y-133565500D02*
X193469350Y-133849700D01*
X177196350Y-138528000D02*
X176330350Y-138737800D01*
X84589250Y-142934400D02*
X83998050Y-143041900D01*
X209575350Y-154469800D02*
X209702350Y-154564800D01*
X209819350Y-154671300D02*
X209925350Y-154788400D01*
X101630550Y-139323300D02*
X98995650Y-139429800D01*
X89624550Y-187478200D02*
X89479050Y-187547000D01*
X214665350Y-158437100D02*
X215957350Y-144554800D01*
X118977750Y-34112700D02*
X118881350Y-34198200D01*
X87205650Y-82449900D02*
X87229650Y-82289600D01*
X153231350Y-226793200D02*
X153905350Y-226473200D01*
X90123950Y-81567300D02*
X90220350Y-81697600D01*
X207284350Y-51505900D02*
X207379350Y-51378800D01*
X96595250Y-139584300D02*
X95490450Y-139681400D01*
X206940350Y-196458600D02*
X207086350Y-196389800D01*
X85165450Y-39377000D02*
X84880150Y-39458700D01*
X172485783Y-118797879D02*
X175731350Y-115223600D01*
X181364350Y-135208800D02*
X180972350Y-135839800D01*
X89327450Y-184444000D02*
X89479050Y-184498200D01*
X114364550Y-34464200D02*
X113928450Y-34501100D01*
X161918350Y-34899600D02*
X161051350Y-34876700D01*
X211529350Y-217559200D02*
X211846350Y-217498200D01*
X87571250Y-81567300D02*
X87680850Y-81446300D01*
X153249350Y-34414900D02*
X153206350Y-34239600D01*
X153139350Y-135481800D02*
X153106350Y-135269300D01*
X169485783Y-120597231D02*
X169485783Y-129909600D01*
X209567350Y-157210800D02*
X209429350Y-157293600D01*
X209283350Y-157362400D02*
X209132350Y-157416700D01*
X207606350Y-157114300D02*
X207485350Y-157004700D01*
X178824350Y-137956400D02*
X178563350Y-138081500D01*
X122323350Y-124009600D02*
X122873350Y-124166600D01*
X185267350Y-134023300D02*
X182665350Y-134289500D01*
X119149950Y-135700800D02*
X119166050Y-136312600D01*
X147007350Y-228148200D02*
X147884350Y-228124200D01*
X149544350Y-227934200D02*
X150330350Y-227777200D01*
X153206350Y-34239600D02*
X153176350Y-34039400D01*
X207036350Y-52095900D02*
X207076350Y-51937700D01*
X153148350Y-33562400D02*
X153150350Y-32291200D01*
X89010650Y-84255000D02*
X88847650Y-84263000D01*
X153139350Y-32072200D02*
X153106350Y-31859700D01*
X215071350Y-31986000D02*
X214852350Y-31590200D01*
X198767350Y-28692400D02*
X197217350Y-29150800D01*
X81527450Y-226012200D02*
X81640550Y-226208200D01*
X81771350Y-226395200D02*
X81922250Y-226569200D01*
X208652350Y-154187500D02*
X208821350Y-154196500D01*
X88684550Y-84255000D02*
X88524250Y-84231000D01*
X119050950Y-137419700D02*
X118977750Y-137522300D01*
X179505350Y-137528600D02*
X179294350Y-137678900D01*
X213897350Y-216148200D02*
X214082350Y-215852200D01*
X208494350Y-95960200D02*
X208349350Y-96029000D01*
X127587350Y-227938200D02*
X127712350Y-230730200D01*
X213869350Y-133707900D02*
X213414350Y-133236600D01*
X197217350Y-132560400D02*
X195703350Y-133041500D01*
X172485783Y-222207479D02*
X172485783Y-222207479D01*
X208349350Y-199438600D02*
X208197350Y-199492900D01*
X81067359Y-183114400D02*
X81042650Y-224714200D01*
X215858350Y-139728200D02*
X215804350Y-139222800D01*
X209173350Y-93727600D02*
X209242350Y-93873200D01*
X151445350Y-133608200D02*
X151233350Y-133576000D01*
X214525350Y-111355600D02*
X214632350Y-110922600D01*
X215923350Y-40493500D02*
X215908350Y-39787100D01*
X181735350Y-134697700D02*
X181548350Y-134933900D01*
X185502350Y-134889400D02*
X185267350Y-134023300D01*
X109353550Y-139172800D02*
X108913550Y-139219900D01*
X151233350Y-133576000D02*
X151014350Y-133565000D01*
X178283350Y-138196200D02*
X177985350Y-138300100D01*
X210228350Y-51937700D02*
X210269350Y-52095900D01*
X210270350Y-156161400D02*
X210231350Y-156317900D01*
X209294350Y-50908100D02*
X209439350Y-50977500D01*
X152210350Y-133928800D02*
X152033350Y-133822000D01*
X169485783Y-36155091D02*
X168467350Y-36165800D01*
X85165450Y-142786600D02*
X84880150Y-142868300D01*
X153176350Y-137449000D02*
X153148350Y-136972000D01*
X214582350Y-134587900D02*
X214257350Y-134158000D01*
X121285750Y-30155400D02*
X121066750Y-30166400D01*
X119513750Y-134505000D02*
X119406950Y-134681100D01*
X210172350Y-51786100D02*
X210228350Y-51937700D01*
X111134250Y-34827500D02*
X110967150Y-34954600D01*
X153054350Y-31654700D02*
X152982350Y-31458300D01*
X164113350Y-34932800D02*
X162679350Y-34923600D01*
X90220350Y-83528500D02*
X90123950Y-83658700D01*
X113928450Y-137910700D02*
X113476250Y-137913500D01*
X176505350Y-218118200D02*
X176809350Y-218012200D01*
X207132350Y-155195700D02*
X207201350Y-155051500D01*
X206802350Y-196541400D02*
X206940350Y-196458600D01*
X207737350Y-157210800D02*
X207606350Y-157114300D01*
X206067350Y-94504600D02*
X206075350Y-94341500D01*
X182266350Y-30914500D02*
X182149350Y-30960500D01*
X206344350Y-196998800D02*
X206441350Y-196868500D01*
X172485783Y-139365728D02*
X172485783Y-129909600D01*
X83408950Y-39745500D02*
X83120650Y-39818400D01*
X153150350Y-135700800D02*
X153139350Y-135481800D01*
X110190950Y-35513600D02*
X109987050Y-35600200D01*
X210763350Y-27937200D02*
X210386350Y-27768200D01*
X206441350Y-93458900D02*
X206551350Y-93337900D01*
X110967150Y-138364200D02*
X110779150Y-138539600D01*
X109987050Y-35600200D02*
X109779550Y-35669400D01*
X81340350Y-225594200D02*
X81527450Y-226012200D01*
X117656050Y-137889500D02*
X114364550Y-137873800D01*
X130690350Y-230777200D02*
X130741350Y-232363200D01*
X154376350Y-34967900D02*
X154136350Y-34977500D01*
X208197350Y-96083300D02*
X208041350Y-96122600D01*
X81640550Y-226208200D02*
X81771350Y-226395200D01*
X120452850Y-133732300D02*
X120266050Y-133822000D01*
X90303250Y-185245700D02*
X90372050Y-185391200D01*
X89479050Y-187547000D02*
X89327450Y-187601300D01*
X119160950Y-135481800D02*
X119149950Y-135700800D01*
X146095350Y-228125200D02*
X147007350Y-228148200D01*
X206940350Y-199369800D02*
X206802350Y-199287000D01*
X208489350Y-54070300D02*
X208329350Y-54046400D01*
X112120250Y-137922800D02*
X111906950Y-137951400D01*
X87268950Y-82133200D02*
X87323250Y-81981600D01*
X89010650Y-80971100D02*
X89171050Y-80995000D01*
X215381350Y-32737400D02*
X215246350Y-32367900D01*
X197217350Y-29150800D02*
X195703350Y-29631900D01*
X153930350Y-138375100D02*
X153754350Y-138340900D01*
X153054350Y-135064300D02*
X152982350Y-134867900D01*
X123383350Y-124292600D02*
X123860350Y-124390600D01*
X210005350Y-131029500D02*
X209618350Y-130901300D01*
X214082350Y-215852200D02*
X214249350Y-215523200D01*
X210103350Y-51641900D02*
X210172350Y-51786100D01*
X164836350Y-34957600D02*
X164113350Y-34932800D01*
X88847650Y-187672600D02*
X88684550Y-187664600D01*
X90220350Y-81697600D02*
X90303250Y-81836100D01*
X207237350Y-92925900D02*
X207394350Y-92886600D01*
X130741350Y-128953600D02*
X133183350Y-128989600D01*
X90220350Y-185107200D02*
X90303250Y-185245700D01*
X110390950Y-35407600D02*
X110190950Y-35513600D01*
X113598850Y-224255200D02*
X116680850Y-224221200D01*
X153905350Y-123063600D02*
X154562350Y-122717600D01*
X113598850Y-120845600D02*
X116680850Y-120811600D01*
X213476350Y-216646200D02*
X213695350Y-216412200D01*
X108460450Y-139235600D02*
X107517050Y-139233900D01*
X176330350Y-138737800D02*
X175391350Y-138929500D01*
X212989350Y-113621600D02*
X213240350Y-113442600D01*
X156453350Y-224974200D02*
X157665350Y-224137200D01*
X151847350Y-133732300D02*
X151650350Y-133660700D01*
X88847650Y-184372700D02*
X89010650Y-184380700D01*
X74042650Y-20000000D02*
X74042650Y-239819200D01*
X168467350Y-36165800D02*
X167885350Y-36118500D01*
X167885350Y-139528100D02*
X167630350Y-139488900D01*
X88052050Y-141971200D02*
X88012850Y-142047200D01*
X82096850Y-123319600D02*
X82297350Y-123463600D01*
X117004350Y-121137600D02*
X117378450Y-121459600D01*
X210172350Y-155195700D02*
X210228350Y-155347300D01*
X87205650Y-82776100D02*
X87197650Y-82613000D01*
X89763050Y-184649800D02*
X89893350Y-184746300D01*
X200370350Y-28236600D02*
X198767350Y-28692400D01*
X156453350Y-121564600D02*
X157665350Y-120727600D01*
X87474850Y-186938100D02*
X87391950Y-186799600D01*
X89893350Y-83889400D02*
X89763050Y-83985800D01*
X200370350Y-131646200D02*
X198767350Y-132102000D01*
X168467350Y-139575400D02*
X167885350Y-139528100D01*
X89624550Y-184567000D02*
X89763050Y-184649800D01*
X133195350Y-129352600D02*
X140506350Y-129409600D01*
X213240350Y-216852200D02*
X213476350Y-216646200D01*
X79042650Y-79704800D02*
X81067359Y-79704800D01*
X214852350Y-31590200D02*
X214582350Y-31178300D01*
X152663350Y-134340700D02*
X152525350Y-134189200D01*
X121093450Y-226998200D02*
X121731650Y-227227200D01*
X182523350Y-134283300D02*
X182390350Y-134295200D01*
X153106350Y-31859700D02*
X153054350Y-31654700D01*
X90014350Y-83779800D02*
X89893350Y-83889400D01*
X177825350Y-114425600D02*
X178187350Y-114401600D01*
X215888350Y-140329700D02*
X215858350Y-139728200D01*
X120452850Y-30322700D02*
X120266050Y-30412400D01*
X209429350Y-157293600D02*
X209283350Y-157362400D01*
X117656050Y-34479900D02*
X114364550Y-34464200D01*
X88459350Y-141649300D02*
X88363150Y-141793400D01*
X119193150Y-135269300D02*
X119160950Y-135481800D01*
X206028350Y-27003900D02*
X205578350Y-27000000D01*
X89080450Y-141123700D02*
X88890250Y-141247700D01*
X88258250Y-38406000D02*
X88172550Y-38443800D01*
X205578350Y-130409600D02*
X205170350Y-130423600D01*
X162679350Y-138333200D02*
X161918350Y-138309200D01*
X212639350Y-132556500D02*
X212260350Y-132261500D01*
X209618350Y-130901300D02*
X209223350Y-130791800D01*
X207088350Y-130468800D02*
X206028350Y-130413500D01*
X207379350Y-154788400D02*
X207485350Y-154671300D01*
X91025050Y-36975100D02*
X90363050Y-37163700D01*
X121066750Y-133576000D02*
X120854250Y-133608200D01*
X82838950Y-39910300D02*
X82566150Y-40026600D01*
X206139350Y-197434300D02*
X206193350Y-197282800D01*
X151847350Y-30322700D02*
X151650350Y-30251100D01*
X207201350Y-155051500D02*
X207284350Y-154915500D01*
X206802350Y-95877400D02*
X206672350Y-95780900D01*
X176222350Y-114844600D02*
X176505350Y-114708600D01*
X207011350Y-155669300D02*
X207036350Y-155505500D01*
X207606350Y-53704700D02*
X207485350Y-53595100D01*
X89624550Y-84068600D02*
X89479050Y-84137400D01*
X152525350Y-30779600D02*
X152374350Y-30641900D01*
X90014350Y-184855900D02*
X90123950Y-184976900D01*
X166473350Y-35438900D02*
X166301350Y-35306000D01*
X210020350Y-154915500D02*
X210103350Y-155051500D01*
X98995650Y-36020200D02*
X97764650Y-36091500D01*
X174381350Y-139104700D02*
X173303350Y-139263300D01*
X207379350Y-51378800D02*
X207485350Y-51261700D01*
X120266050Y-30412400D02*
X120089950Y-30519200D01*
X206193350Y-198545600D02*
X206139350Y-198394100D01*
X165586350Y-35000600D02*
X165246350Y-34957500D01*
X207073350Y-156317900D02*
X207034350Y-156161400D01*
X83087050Y-227193200D02*
X83422950Y-227256200D01*
X167630350Y-36079300D02*
X167402350Y-36028900D01*
X87474850Y-81697600D02*
X87571250Y-81567300D01*
X177825350Y-217835200D02*
X178187350Y-217811200D01*
X87229650Y-185699200D02*
X87268950Y-185542800D01*
X191981350Y-134474500D02*
X191232350Y-134820200D01*
X208815350Y-157479900D02*
X208652350Y-157487900D01*
X111134250Y-138237100D02*
X110967150Y-138364200D01*
X173303350Y-139263300D02*
X172485783Y-139365728D01*
X207196350Y-156615000D02*
X207128350Y-156469400D01*
X214525350Y-214765200D02*
X214632350Y-214332200D01*
X213897350Y-112738600D02*
X214082350Y-112442600D01*
X169485783Y-224006831D02*
X169485783Y-234819200D01*
X104478450Y-139259200D02*
X101630550Y-139323300D01*
X208010350Y-154317700D02*
X208161350Y-154262200D01*
X119774150Y-134189200D02*
X119636450Y-134340700D01*
X206139350Y-94984500D02*
X206099350Y-94828000D01*
X89763050Y-81240200D02*
X89893350Y-81336700D01*
X209698350Y-53704700D02*
X209567350Y-53801200D01*
X89479050Y-84137400D02*
X89327450Y-84191700D01*
X90426250Y-185542800D02*
X90465650Y-185699200D01*
X209439350Y-50977500D02*
X209575350Y-51060200D01*
X214249350Y-112113600D02*
X214397350Y-111752600D01*
X213414350Y-133236600D02*
X213024350Y-132881600D01*
X87205650Y-185859500D02*
X87229650Y-185699200D01*
X119103950Y-137297500D02*
X119050950Y-137419700D01*
X168527350Y-224208200D02*
X169216350Y-224077200D01*
X88070650Y-187478200D02*
X87932150Y-187395400D01*
X206075350Y-198077300D02*
X206067350Y-197914200D01*
X119281750Y-122708600D02*
X120404650Y-123318600D01*
X151233350Y-30166400D02*
X151014350Y-30155400D01*
X164113350Y-138342400D02*
X162679350Y-138333200D01*
X169485783Y-129909600D02*
X169485783Y-139564691D01*
X206802350Y-93131800D02*
X206940350Y-93049000D01*
X88723350Y-141376900D02*
X88579150Y-141510800D01*
X153148350Y-136972000D02*
X153150350Y-135700800D01*
X209242350Y-93873200D02*
X209296350Y-94024700D01*
X209359350Y-94667700D02*
X209335350Y-94828000D01*
X209090350Y-196998800D02*
X209173350Y-197137200D01*
X177472350Y-217875200D02*
X177825350Y-217835200D01*
X152539350Y-227086200D02*
X153231350Y-226793200D01*
X207880350Y-199556100D02*
X207717350Y-199564100D01*
X120854250Y-133608200D02*
X120649250Y-133660700D01*
X120404650Y-226728200D02*
X121093450Y-226998200D01*
X117378450Y-224869200D02*
X117798550Y-225186200D01*
X81340350Y-122184600D02*
X81527450Y-122602600D01*
X207011350Y-52259700D02*
X207036350Y-52095900D01*
X207875350Y-53884000D02*
X207737350Y-53801200D01*
X211885350Y-28584700D02*
X211511350Y-28343900D01*
X207002350Y-155838000D02*
X207011350Y-155669300D01*
X153176350Y-34039400D02*
X153148350Y-33562400D01*
X118206950Y-34414500D02*
X117656050Y-34479900D01*
X207554350Y-196272300D02*
X207717350Y-196264300D01*
X207737350Y-53801200D02*
X207606350Y-53704700D01*
X88524250Y-184404600D02*
X88684550Y-184380700D01*
X208652350Y-157487900D02*
X208489350Y-157479900D01*
X215804350Y-139222800D02*
X215727350Y-138543300D01*
X215613350Y-137199700D02*
X215559350Y-136856000D01*
X109353550Y-35763200D02*
X108913550Y-35810300D01*
X123860350Y-227800200D02*
X124305350Y-227873200D01*
X93483850Y-36506900D02*
X92588250Y-36647500D01*
X204117350Y-130576000D02*
X203795350Y-130666900D01*
X214736994Y-183114400D02*
X217957350Y-183114400D01*
X206262350Y-93727600D02*
X206344350Y-93589200D01*
X97764650Y-139501100D02*
X96595250Y-139584300D01*
X215246350Y-32367900D02*
X215071350Y-31986000D01*
X214397350Y-111752600D02*
X214525350Y-111355600D01*
X90489550Y-185859500D02*
X90497650Y-186022600D01*
X87474850Y-83528500D02*
X87391950Y-83390000D01*
X207554350Y-96146500D02*
X207394350Y-96122600D01*
X120404650Y-123318600D02*
X121093450Y-123588600D01*
X208821350Y-50786900D02*
X208985350Y-50811900D01*
X207485350Y-53595100D02*
X207376350Y-53474100D01*
X166103350Y-138592700D02*
X165868350Y-138488200D01*
X160040350Y-138296700D02*
X157998350Y-138362700D01*
X178824350Y-34546800D02*
X178563350Y-34671900D01*
X210108350Y-53205400D02*
X210025350Y-53343800D01*
X178187350Y-217811200D02*
X210861350Y-217622200D01*
X209090350Y-93589200D02*
X209173350Y-93727600D01*
X206672350Y-95780900D02*
X206551350Y-95671300D01*
X214082350Y-112442600D02*
X214249350Y-112113600D01*
X207237350Y-96083300D02*
X207086350Y-96029000D01*
X208172350Y-157416700D02*
X208021350Y-157362400D01*
X165586350Y-138410200D02*
X165246350Y-138367100D01*
X212444350Y-113902600D02*
X212724350Y-113774600D01*
X167202350Y-139376200D02*
X167031350Y-139301300D01*
X207394350Y-96122600D02*
X207237350Y-96083300D01*
X177472350Y-114465600D02*
X177825350Y-114425600D01*
X209335350Y-198237600D02*
X209296350Y-198394100D01*
X108913550Y-139219900D02*
X108460450Y-139235600D01*
X193469350Y-30440100D02*
X192726350Y-30741900D01*
X208010350Y-50908100D02*
X208161350Y-50852600D01*
X181735350Y-31288100D02*
X181548350Y-31524300D01*
X215484350Y-136505700D02*
X215381350Y-136147000D01*
X175963350Y-115014600D02*
X176222350Y-114844600D01*
X119245650Y-31654700D02*
X119193150Y-31859700D01*
X88070650Y-84068600D02*
X87932150Y-83985800D01*
X89171050Y-184404600D02*
X89327450Y-184444000D01*
X89293350Y-37594700D02*
X89080450Y-37714100D01*
X191981350Y-31064900D02*
X191232350Y-31410600D01*
X157665350Y-224137200D02*
X168527350Y-224208200D01*
X206075350Y-94667700D02*
X206067350Y-94504600D01*
X82789350Y-123697600D02*
X83087050Y-123783600D01*
X81042650Y-224714200D02*
X81186850Y-225157200D01*
X206344350Y-93589200D02*
X206441350Y-93458900D01*
X88847650Y-80963100D02*
X89010650Y-80971100D01*
X81239550Y-41560400D02*
X81089750Y-42009400D01*
X121731650Y-227227200D02*
X122323350Y-227419200D01*
X88172550Y-38443800D02*
X88104850Y-38496500D01*
X211846350Y-217498200D02*
X212152350Y-217416200D01*
X89327450Y-187601300D02*
X89171050Y-187640600D01*
X88012850Y-142047200D02*
X87966350Y-142225400D01*
X107517050Y-139233900D02*
X104478450Y-139259200D01*
X207237350Y-196335500D02*
X207394350Y-196296200D01*
X83799650Y-227294200D02*
X103398450Y-227293200D01*
X82056550Y-40355300D02*
X81824050Y-40579600D01*
X182523350Y-30873700D02*
X182390350Y-30885600D01*
X208172350Y-54007100D02*
X208021350Y-53952800D01*
X212444350Y-217312200D02*
X212724350Y-217184200D01*
X84589250Y-39524800D02*
X83998050Y-39632300D01*
X193469350Y-133849700D02*
X192726350Y-134151500D01*
X152033350Y-30412400D02*
X151847350Y-30322700D01*
X206193350Y-197282800D02*
X206262350Y-197137200D01*
X203795350Y-27257300D02*
X202041350Y-27765300D01*
X208197350Y-199492900D02*
X208041350Y-199532200D01*
X151014350Y-133565000D02*
X127514216Y-133565000D01*
X213024350Y-132881600D02*
X212639350Y-132556500D01*
X209132350Y-54007100D02*
X208975350Y-54046400D01*
X81069141Y-76704800D02*
X79042650Y-76704800D01*
X209296350Y-198394100D02*
X209242350Y-198545600D01*
X207394350Y-92886600D02*
X207554350Y-92862700D01*
X117798550Y-121776600D02*
X118259050Y-122090600D01*
X151014350Y-30155400D02*
X127514216Y-30155400D01*
X90372050Y-185391200D02*
X90426250Y-185542800D01*
X151090350Y-227583200D02*
X151826350Y-227351200D01*
X152893350Y-31271500D02*
X152786350Y-31095400D01*
X191232350Y-134820200D02*
X185502350Y-134889400D01*
X127514216Y-124530621D02*
X127514216Y-124530621D01*
X140471350Y-232529200D02*
X143031350Y-232472200D01*
X122873350Y-227576200D02*
X123383350Y-227702200D01*
X127514216Y-30155400D02*
X127514216Y-25000000D01*
X110390950Y-138817200D02*
X110190950Y-138923200D01*
X210270350Y-52751800D02*
X210231350Y-52908300D01*
X152663350Y-30931100D02*
X152525350Y-30779600D01*
X81186850Y-225157200D02*
X81340350Y-225594200D01*
X146082350Y-230562200D02*
X146095350Y-228125200D01*
X207086350Y-196389800D02*
X207237350Y-196335500D01*
X204117350Y-27166400D02*
X203795350Y-27257300D01*
X204796350Y-27045500D02*
X204448350Y-27096100D01*
X166301350Y-35306000D02*
X166103350Y-35183100D01*
X90014350Y-187189400D02*
X89893350Y-187299000D01*
X217957350Y-234819200D02*
X172485783Y-234819200D01*
X104478450Y-35849600D02*
X101630550Y-35913700D01*
X153386350Y-34692300D02*
X153308350Y-34565600D01*
X215727350Y-35133700D02*
X215679350Y-34464400D01*
X112562550Y-34489500D02*
X112120250Y-34513200D01*
X210386350Y-27768200D02*
X210005350Y-27619900D01*
X118758950Y-137678400D02*
X118607650Y-137736400D01*
X208021350Y-157362400D02*
X207875350Y-157293600D01*
X208633350Y-93131800D02*
X208763350Y-93228300D01*
X202041350Y-27765300D02*
X200370350Y-28236600D01*
X81089750Y-145419000D02*
X81069141Y-180114400D01*
X185267350Y-30613700D02*
X182665350Y-30879900D01*
X81067359Y-183114400D02*
X81067359Y-183114400D01*
X207603350Y-51155200D02*
X207730350Y-51060200D01*
X209575350Y-51060200D02*
X209702350Y-51155200D01*
X182038350Y-134431100D02*
X181933350Y-134507000D01*
X209283350Y-53952800D02*
X209132350Y-54007100D01*
X97764650Y-36091500D02*
X96595250Y-36174700D01*
X194211350Y-30155900D02*
X193469350Y-30440100D01*
X208820350Y-130698800D02*
X208406350Y-130621300D01*
X209819350Y-51261700D02*
X209925350Y-51378800D01*
X90489550Y-186185700D02*
X90465650Y-186346000D01*
X127514216Y-133565000D02*
X127514216Y-129909600D01*
X181933350Y-134507000D02*
X181735350Y-134697700D01*
X207554350Y-92862700D02*
X207717350Y-92854700D01*
X124514216Y-25000000D02*
X124514216Y-30155400D01*
X209429350Y-53884000D02*
X209283350Y-53952800D01*
X167031350Y-35891700D02*
X166891350Y-35803600D01*
X208494350Y-93049000D02*
X208633350Y-93131800D01*
X210176350Y-53059800D02*
X210108350Y-53205400D01*
X110587050Y-138690000D02*
X110390950Y-138817200D01*
X133183350Y-128989600D02*
X133195350Y-129352600D01*
X87680850Y-184855900D02*
X87801950Y-184746300D01*
X208041350Y-96122600D02*
X207880350Y-96146500D01*
X210231350Y-156317900D02*
X210176350Y-156469400D01*
X109987050Y-139009800D02*
X109779550Y-139079000D01*
X143041350Y-230644200D02*
X146082350Y-230562200D01*
X166784350Y-35701600D02*
X166473350Y-35438900D01*
X207086350Y-96029000D02*
X206940350Y-95960200D01*
X91025050Y-140384700D02*
X90363050Y-140573300D01*
X206075350Y-94341500D02*
X206099350Y-94181200D01*
X89893350Y-187299000D02*
X89763050Y-187395400D01*
X118206950Y-137824100D02*
X117656050Y-137889500D01*
X212152350Y-114006600D02*
X212444350Y-113902600D01*
X119281750Y-226118200D02*
X120404650Y-226728200D01*
X120649250Y-133660700D02*
X120452850Y-133732300D01*
X207866350Y-154387100D02*
X208010350Y-154317700D01*
X89327450Y-81034400D02*
X89479050Y-81088600D01*
X147884350Y-124714600D02*
X148729350Y-124641600D01*
X152786350Y-134505000D02*
X152663350Y-134340700D01*
X90014350Y-81446300D02*
X90123950Y-81567300D01*
X176505350Y-114708600D02*
X176809350Y-114602600D01*
X118977750Y-137522300D02*
X118881350Y-137607800D01*
X89893350Y-184746300D02*
X90014350Y-184855900D01*
X87801950Y-81336700D02*
X87932150Y-81240200D01*
X164836350Y-138367200D02*
X164113350Y-138342400D01*
X215381350Y-136147000D02*
X215246350Y-135777500D01*
X207875350Y-157293600D02*
X207737350Y-157210800D01*
X87801950Y-187299000D02*
X87680850Y-187189400D01*
X88684550Y-80971100D02*
X88847650Y-80963100D01*
X90372050Y-83244500D02*
X90303250Y-83390000D01*
X88052050Y-38561600D02*
X88012850Y-38637600D01*
X181364350Y-31799200D02*
X180972350Y-32430200D01*
X185502350Y-31479800D02*
X185267350Y-30613700D01*
X81922250Y-226569200D02*
X82096850Y-226729200D01*
X208320350Y-154221500D02*
X208483350Y-154196500D01*
X79042650Y-234819200D02*
X79042650Y-183114400D01*
X79042650Y-180114400D02*
X79042650Y-79704800D01*
X123860350Y-124390600D02*
X124305350Y-124463600D01*
X157998350Y-34953100D02*
X154376350Y-34967900D01*
X87966350Y-142225400D02*
X85165450Y-142786600D01*
X84880150Y-39458700D02*
X84589250Y-39524800D01*
X215904350Y-38311800D02*
X215888350Y-36920100D01*
X87268950Y-186502500D02*
X87229650Y-186346000D01*
X209618350Y-27491700D02*
X209223350Y-27382200D01*
X181548350Y-134933900D02*
X181364350Y-135208800D01*
X90123950Y-83658700D02*
X90014350Y-83779800D01*
X208021350Y-53952800D02*
X207875350Y-53884000D01*
X203795350Y-130666900D02*
X202041350Y-131174900D01*
X179885350Y-33800100D02*
X179505350Y-34119000D01*
X178563350Y-34671900D02*
X178283350Y-34786600D01*
X123383350Y-227702200D02*
X123860350Y-227800200D01*
X111700450Y-137994600D02*
X111502050Y-138054900D01*
X206672350Y-93228300D02*
X206802350Y-93131800D01*
X212260350Y-132261500D02*
X211885350Y-131994300D01*
X178563350Y-138081500D02*
X178283350Y-138196200D01*
X207128350Y-53059800D02*
X207073350Y-52908300D01*
X81771350Y-122985600D02*
X81922250Y-123159600D01*
X211511350Y-28343900D02*
X211138350Y-28128400D01*
X81186850Y-121747600D02*
X81340350Y-122184600D01*
X207880350Y-92862700D02*
X208041350Y-92886600D01*
X214582350Y-31178300D02*
X214257350Y-30748400D01*
X79042650Y-183114400D02*
X81067359Y-183114400D01*
X208884350Y-93337900D02*
X208994350Y-93458900D01*
X82789350Y-227107200D02*
X83087050Y-227193200D01*
X118758950Y-34268800D02*
X118607650Y-34326800D01*
X207981350Y-130558200D02*
X207088350Y-130468800D01*
X208483350Y-154196500D02*
X208652350Y-154187500D01*
X83799650Y-123884600D02*
X103398450Y-123883600D01*
X151090350Y-124173600D02*
X151826350Y-123941600D01*
X209335350Y-94828000D02*
X209296350Y-94984500D01*
X89763050Y-187395400D02*
X89624550Y-187478200D01*
X89171050Y-187640600D02*
X89010650Y-187664600D01*
X120649250Y-30251100D02*
X120452850Y-30322700D01*
X182038350Y-31021500D02*
X181933350Y-31097400D01*
X101630550Y-35913700D02*
X98995650Y-36020200D01*
X161051350Y-34876700D02*
X160040350Y-34887100D01*
X214728284Y-180114400D02*
X214665350Y-158437100D01*
X209928350Y-53474100D02*
X209819350Y-53595100D01*
X88070650Y-84068600D02*
X88070650Y-84068600D01*
X87391950Y-185245700D02*
X87474850Y-185107200D01*
X215484350Y-33096100D02*
X215381350Y-32737400D01*
X208489350Y-157479900D02*
X208329350Y-157456000D01*
X121066750Y-30166400D02*
X120854250Y-30198600D01*
X119925650Y-134051500D02*
X119774150Y-134189200D01*
X87801950Y-184746300D02*
X87932150Y-184649800D01*
X154562350Y-122717600D02*
X155205350Y-122350600D01*
X95490450Y-139681400D02*
X94452250Y-139792000D01*
X214632350Y-214332200D02*
X214755350Y-189436800D01*
X206139350Y-198394100D02*
X206099350Y-198237600D01*
X83998050Y-143041900D02*
X83408950Y-143155100D01*
X88172550Y-141853400D02*
X88104850Y-141906100D01*
X74042650Y-239819200D02*
X222957350Y-239819200D01*
X217957350Y-180114400D02*
X214728284Y-180114400D01*
X166784350Y-139111200D02*
X166473350Y-138848500D01*
X214257350Y-30748400D02*
X213869350Y-30298300D01*
X154136350Y-138387100D02*
X153930350Y-138375100D01*
X207730350Y-51060200D02*
X207866350Y-50977500D01*
X208633350Y-196541400D02*
X208763350Y-196637900D01*
X207034350Y-156161400D02*
X207010350Y-156001100D01*
X119406950Y-134681100D02*
X119317250Y-134867900D01*
X130741350Y-232363200D02*
X133183350Y-232399200D01*
X169485783Y-139564691D02*
X168467350Y-139575400D01*
X215679350Y-34464400D02*
X215613350Y-33790100D01*
X214728284Y-76704800D02*
X214728284Y-76704800D01*
X207485350Y-154671300D02*
X207603350Y-154564800D01*
X207279350Y-53343800D02*
X207196350Y-53205400D01*
X118881350Y-34198200D02*
X118758950Y-34268800D01*
X118259050Y-122090600D02*
X118755150Y-122400600D01*
X209335350Y-197590800D02*
X209359350Y-197751100D01*
X90363050Y-37163700D02*
X89785350Y-37370500D01*
X207603350Y-154564800D02*
X207730350Y-154469800D01*
X94452250Y-139792000D02*
X93483850Y-139916500D01*
X206672350Y-196637900D02*
X206802350Y-196541400D01*
X111502050Y-34645300D02*
X111312850Y-34725300D01*
X124514216Y-234819200D02*
X79042650Y-234819200D01*
X167402350Y-36028900D02*
X167202350Y-35966600D01*
X208329350Y-54046400D02*
X208172350Y-54007100D01*
X140506350Y-232819200D02*
X140471350Y-232529200D01*
X206075350Y-197751100D02*
X206099350Y-197590800D01*
X120266050Y-133822000D02*
X120089950Y-133928800D01*
X209090350Y-95420000D02*
X208994350Y-95550300D01*
X88216150Y-81088600D02*
X88367750Y-81034400D01*
X87966350Y-38815800D02*
X85165450Y-39377000D01*
X87932150Y-83985800D02*
X87801950Y-83889400D01*
X152539350Y-123676600D02*
X153231350Y-123383600D01*
X207717350Y-199564100D02*
X207554350Y-199556100D01*
X89080450Y-37714100D02*
X88890250Y-37838100D01*
X207034350Y-52751800D02*
X207010350Y-52591500D01*
X207076350Y-155347300D02*
X207132350Y-155195700D01*
X214755350Y-189436800D02*
X214736994Y-183114400D01*
X209090350Y-198829600D02*
X208994350Y-198959900D01*
X92588250Y-140057100D02*
X91767650Y-140212600D01*
X95490450Y-36271800D02*
X94452250Y-36382400D01*
X213240350Y-113442600D02*
X213476350Y-113236600D01*
X152893350Y-134681100D02*
X152786350Y-134505000D01*
X192726350Y-30741900D02*
X191981350Y-31064900D01*
X87391950Y-186799600D02*
X87323250Y-186654100D01*
X178283350Y-34786600D02*
X177985350Y-34890500D01*
X157998350Y-138362700D02*
X154376350Y-138377500D01*
X215071350Y-135395600D02*
X214852350Y-134999800D01*
X87268950Y-83092900D02*
X87229650Y-82936400D01*
X207485350Y-157004700D02*
X207376350Y-156883700D01*
X87680850Y-83779800D02*
X87571250Y-83658700D01*
X153206350Y-137649200D02*
X153176350Y-137449000D01*
X217957350Y-79704800D02*
X217957350Y-180114400D01*
X172485783Y-25000000D02*
X217957350Y-25000000D01*
X152525350Y-134189200D02*
X152374350Y-134051500D01*
X82527350Y-227000200D02*
X82789350Y-227107200D01*
X210108350Y-156615000D02*
X210025350Y-156753400D01*
X180972350Y-135839800D02*
X180750350Y-136180800D01*
X87205650Y-186185700D02*
X87197650Y-186022600D01*
X90465650Y-185699200D02*
X90489550Y-185859500D01*
X116680850Y-224221200D02*
X117004350Y-224547200D01*
X222957350Y-239819200D02*
X222957350Y-20000000D01*
X213869350Y-30298300D02*
X213414350Y-29827000D01*
X195703350Y-29631900D02*
X194211350Y-30155900D01*
X113928450Y-34501100D02*
X113476250Y-34503900D01*
X207036350Y-155505500D02*
X207076350Y-155347300D01*
X209819350Y-53595100D02*
X209698350Y-53704700D01*
X207880350Y-196272300D02*
X208041350Y-196296200D01*
X116680850Y-120811600D02*
X117004350Y-121137600D01*
X172485783Y-222207479D02*
X175731350Y-218633200D01*
X207073350Y-52908300D02*
X207034350Y-52751800D01*
X206441350Y-198959900D02*
X206344350Y-198829600D01*
X119636450Y-134340700D02*
X119513750Y-134505000D01*
X155205350Y-225760200D02*
X155834350Y-225375200D01*
X110967150Y-34954600D02*
X110779150Y-35130000D01*
X87197650Y-186022600D02*
X87205650Y-185859500D01*
X119166050Y-32903000D02*
X119170250Y-33381100D01*
X215957350Y-144554800D02*
X215923350Y-143903100D01*
X211200350Y-114190600D02*
X211529350Y-114149600D01*
X206551350Y-196747500D02*
X206672350Y-196637900D01*
X87323250Y-83244500D02*
X87268950Y-83092900D01*
X90363050Y-140573300D02*
X89785350Y-140780100D01*
X87932150Y-187395400D02*
X87801950Y-187299000D01*
X215858350Y-36318600D02*
X215804350Y-35813200D01*
X127514216Y-234819200D02*
X127514216Y-227940221D01*
X112562550Y-137899100D02*
X112120250Y-137922800D01*
X208494350Y-196458600D02*
X208633350Y-196541400D01*
X210020350Y-51505900D02*
X210103350Y-51641900D01*
X151826350Y-227351200D02*
X152539350Y-227086200D01*
X213695350Y-113002600D02*
X213897350Y-112738600D01*
X98995650Y-139429800D02*
X97764650Y-139501100D01*
X215559350Y-136856000D02*
X215484350Y-136505700D01*
X88524250Y-84231000D02*
X88367750Y-84191700D01*
X153106350Y-135269300D02*
X153054350Y-135064300D01*
X208349350Y-196389800D02*
X208494350Y-196458600D01*
X176222350Y-218254200D02*
X176505350Y-218118200D01*
X208763350Y-199190500D02*
X208633350Y-199287000D01*
X207010350Y-156001100D02*
X207002350Y-155838000D01*
X208161350Y-50852600D02*
X208320350Y-50811900D01*
X118424650Y-34374600D02*
X118206950Y-34414500D01*
X90303250Y-81836100D02*
X90372050Y-81981600D01*
X206672350Y-199190500D02*
X206551350Y-199080900D01*
X202041350Y-131174900D02*
X200370350Y-131646200D01*
X177985350Y-34890500D02*
X177196350Y-35118400D01*
X90426250Y-82133200D02*
X90465650Y-82289600D01*
X177133350Y-217931200D02*
X177472350Y-217875200D01*
X214736994Y-79704800D02*
X217957350Y-79704800D01*
X210025350Y-53343800D02*
X209928350Y-53474100D01*
X207717350Y-196264300D02*
X207880350Y-196272300D01*
X210269350Y-52095900D02*
X210294350Y-52259700D01*
X215613350Y-33790100D02*
X215559350Y-33446400D01*
X153930350Y-34965500D02*
X153754350Y-34931300D01*
X208994350Y-93458900D02*
X209090350Y-93589200D01*
X208884350Y-196747500D02*
X208994350Y-196868500D01*
X113476250Y-34503900D02*
X112562550Y-34489500D01*
X82096850Y-226729200D02*
X82297350Y-226873200D01*
X88684550Y-187664600D02*
X88524250Y-187640600D01*
X209143350Y-154262200D02*
X209294350Y-154317700D01*
X81413250Y-144586000D02*
X81239550Y-144970000D01*
X191232350Y-31410600D02*
X185502350Y-31479800D01*
X88459350Y-38239700D02*
X88363150Y-38383800D01*
X87323250Y-81981600D02*
X87391950Y-81836100D01*
X210294350Y-52259700D02*
X210302350Y-52428400D01*
X210025350Y-156753400D02*
X209928350Y-156883700D01*
X212152350Y-217416200D02*
X212444350Y-217312200D01*
X90489550Y-82776100D02*
X90465650Y-82936400D01*
X210294350Y-156001100D02*
X210270350Y-156161400D01*
X87474850Y-185107200D02*
X87571250Y-184976900D01*
X210103350Y-155051500D02*
X210172350Y-155195700D01*
X204796350Y-130455100D02*
X204448350Y-130505700D01*
X215923350Y-143903100D02*
X215908350Y-143196700D01*
X206551350Y-199080900D02*
X206441350Y-198959900D01*
X119139550Y-33743900D02*
X119103950Y-33887900D01*
X211138350Y-28128400D02*
X210763350Y-27937200D01*
X121285750Y-30155400D02*
X121285750Y-30155400D01*
X153308350Y-137975200D02*
X153249350Y-137824500D01*
X110587050Y-35280400D02*
X110390950Y-35407600D01*
X206099350Y-197590800D02*
X206139350Y-197434300D01*
X152374350Y-134051500D02*
X152210350Y-133928800D01*
X209294350Y-154317700D02*
X209439350Y-154387100D01*
X212724350Y-217184200D02*
X212989350Y-217031200D01*
X114364550Y-137873800D02*
X113928450Y-137910700D01*
X209702350Y-154564800D02*
X209819350Y-154671300D01*
X82566150Y-143436200D02*
X82304650Y-143582500D01*
X206262350Y-197137200D02*
X206344350Y-196998800D01*
X207237350Y-199492900D02*
X207086350Y-199438600D01*
X209359350Y-94341500D02*
X209367350Y-94504600D01*
X90497650Y-186022600D02*
X90489550Y-186185700D01*
X81824050Y-40579600D02*
X81608550Y-40851400D01*
X88070650Y-187478200D02*
X88070650Y-187478200D01*
X90489550Y-82449900D02*
X90497650Y-82613000D01*
X167031350Y-139301300D02*
X166891350Y-139213200D01*
X208197350Y-196335500D02*
X208349350Y-196389800D01*
X90372050Y-81981600D02*
X90426250Y-82133200D01*
X206940350Y-95960200D02*
X206802350Y-95877400D01*
X174381350Y-35695100D02*
X173303350Y-35853700D01*
X182266350Y-134324100D02*
X182149350Y-134370100D01*
X208994350Y-196868500D02*
X209090350Y-196998800D01*
X81413250Y-41176400D02*
X81239550Y-41560400D01*
X214852350Y-134999800D02*
X214582350Y-134587900D01*
X81069141Y-180114400D02*
X79042650Y-180114400D01*
X175391350Y-138929500D02*
X174381350Y-139104700D01*
X147884350Y-228124200D02*
X148729350Y-228051200D01*
X151650350Y-30251100D02*
X151445350Y-30198600D01*
X119406950Y-31271500D02*
X119317250Y-31458300D01*
X90303250Y-83390000D02*
X90220350Y-83528500D01*
X210302350Y-155838000D02*
X210294350Y-156001100D01*
X90465650Y-186346000D02*
X90426250Y-186502500D01*
X209359350Y-94341500D02*
X209359350Y-94341500D01*
X207376350Y-156883700D02*
X207279350Y-156753400D01*
X153606350Y-138284300D02*
X153484350Y-138204700D01*
X207376350Y-53474100D02*
X207279350Y-53343800D01*
X90303250Y-186799600D02*
X90220350Y-186938100D01*
X182390350Y-134295200D02*
X182266350Y-134324100D01*
X90497650Y-82613000D02*
X90489550Y-82776100D01*
X207086350Y-92980200D02*
X207237350Y-92925900D01*
X213024350Y-29472000D02*
X212639350Y-29146900D01*
X208994350Y-198959900D02*
X208884350Y-199080900D01*
X207717350Y-96154500D02*
X207554350Y-96146500D01*
X103398450Y-123883600D02*
X113598850Y-120845600D01*
X181933350Y-31097400D02*
X181735350Y-31288100D01*
X88104850Y-141906100D02*
X88052050Y-141971200D01*
X182665350Y-30879900D02*
X182523350Y-30873700D01*
X118755150Y-225810200D02*
X119281750Y-226118200D01*
X205170350Y-130423600D02*
X204796350Y-130455100D01*
X208820350Y-27289200D02*
X208406350Y-27211700D01*
X89785350Y-37370500D02*
X89293350Y-37594700D01*
X176809350Y-218012200D02*
X177133350Y-217931200D01*
X214257350Y-134158000D02*
X213869350Y-133707900D01*
X88723350Y-37967300D02*
X88579150Y-38101200D01*
X206139350Y-94024700D02*
X206193350Y-93873200D01*
X165246350Y-138367100D02*
X164836350Y-138367200D01*
X180750350Y-32771200D02*
X180500350Y-33118500D01*
X176330350Y-35328200D02*
X175391350Y-35519900D01*
X140471350Y-129119600D02*
X143031350Y-129062600D01*
X207002350Y-52428400D02*
X207011350Y-52259700D01*
X209143350Y-50852600D02*
X209294350Y-50908100D01*
X90220350Y-186938100D02*
X90123950Y-187068300D01*
X88367750Y-187601300D02*
X88216150Y-187547000D01*
X82056550Y-143764900D02*
X81824050Y-143989200D01*
X152982350Y-134867900D02*
X152893350Y-134681100D01*
X152033350Y-133822000D02*
X151847350Y-133732300D01*
X208633350Y-95877400D02*
X208494350Y-95960200D01*
X87391950Y-81836100D02*
X87474850Y-81697600D01*
X207201350Y-51641900D02*
X207284350Y-51505900D01*
X212260350Y-28851900D02*
X211885350Y-28584700D01*
X169216350Y-120667600D02*
X169485783Y-120597231D01*
X195703350Y-133041500D02*
X194211350Y-133565500D01*
X205578350Y-27000000D02*
X205170350Y-27014000D01*
X215957350Y-41145200D02*
X215923350Y-40493500D01*
X87571250Y-184976900D02*
X87680850Y-184855900D01*
X152374350Y-30641900D02*
X152210350Y-30519200D01*
X117004350Y-224547200D02*
X117378450Y-224869200D01*
X96595250Y-36174700D02*
X95490450Y-36271800D01*
X206940350Y-93049000D02*
X207086350Y-92980200D01*
X127514216Y-227940221D02*
X127514216Y-227940221D01*
X110779150Y-35130000D02*
X110587050Y-35280400D01*
X88524250Y-187640600D02*
X88367750Y-187601300D01*
X88363150Y-38383800D02*
X88258250Y-38406000D01*
X122873350Y-124166600D02*
X123383350Y-124292600D01*
X207284350Y-154915500D02*
X207379350Y-154788400D01*
X155834350Y-225375200D02*
X156453350Y-224974200D01*
X79042650Y-25000000D02*
X124514216Y-25000000D01*
X180500350Y-33118500D02*
X180214350Y-33464200D01*
X87932150Y-81240200D02*
X88070650Y-81157400D01*
X109779550Y-35669400D02*
X109353550Y-35763200D01*
X150330350Y-124367600D02*
X151090350Y-124173600D01*
X88258250Y-141815600D02*
X88172550Y-141853400D01*
X88524250Y-80995000D02*
X88684550Y-80971100D01*
X180214350Y-136873800D02*
X179885350Y-137209700D01*
X214755350Y-86027200D02*
X214736994Y-79704800D01*
X169216350Y-224077200D02*
X169485783Y-224006831D01*
X180500350Y-136528100D02*
X180214350Y-136873800D01*
X206067350Y-197914200D02*
X206075350Y-197751100D01*
X208161350Y-154262200D02*
X208320350Y-154221500D01*
X210176350Y-156469400D02*
X210108350Y-156615000D01*
X83408950Y-143155100D02*
X83120650Y-143228000D01*
X82297350Y-226873200D02*
X82527350Y-227000200D01*
X210228350Y-155347300D02*
X210269350Y-155505500D01*
X88579150Y-38101200D02*
X88459350Y-38239700D01*
X209335350Y-94181200D02*
X209359350Y-94341500D01*
X172485783Y-35956128D02*
X172485783Y-25000000D01*
X207394350Y-196296200D02*
X207554350Y-196272300D01*
X213476350Y-113236600D02*
X213695350Y-113002600D01*
X161051350Y-138286300D02*
X160040350Y-138296700D01*
X153150350Y-32291200D02*
X153139350Y-32072200D01*
X153484350Y-138204700D02*
X153386350Y-138101900D01*
X119170250Y-136790700D02*
X119139550Y-137153500D01*
X206262350Y-95281600D02*
X206193350Y-95136000D01*
X82527350Y-123590600D02*
X82789350Y-123697600D01*
X120089950Y-133928800D02*
X119925650Y-134051500D01*
X215804350Y-35813200D02*
X215727350Y-35133700D01*
X210861350Y-217622200D02*
X211200350Y-217600200D01*
X154376350Y-138377500D02*
X154136350Y-138387100D01*
X84880150Y-142868300D02*
X84589250Y-142934400D01*
X165246350Y-34957500D02*
X164836350Y-34957600D01*
X82297350Y-123463600D02*
X82527350Y-123590600D01*
X208763350Y-93228300D02*
X208884350Y-93337900D01*
X207132350Y-51786100D02*
X207201350Y-51641900D01*
X207196350Y-53205400D02*
X207128350Y-53059800D01*
X89010650Y-187664600D02*
X88847650Y-187672600D01*
X208763350Y-95780900D02*
X208633350Y-95877400D01*
X74042650Y-239819200D02*
X74042650Y-239819200D01*
X117798550Y-225186200D02*
X118259050Y-225500200D01*
X205170350Y-27014000D02*
X204796350Y-27045500D01*
X172485783Y-129909600D02*
X172485783Y-118797879D01*
X111700450Y-34585000D02*
X111502050Y-34645300D01*
X119166050Y-136312600D02*
X119170250Y-136790700D01*
X87197650Y-82613000D02*
X87205650Y-82449900D01*
X207076350Y-51937700D02*
X207132350Y-51786100D01*
X212989350Y-217031200D02*
X213240350Y-216852200D01*
X89327450Y-84191700D02*
X89171050Y-84231000D01*
X162679350Y-34923600D02*
X161918350Y-34899600D01*
X210302350Y-52428400D02*
X210294350Y-52591500D01*
X212724350Y-113774600D02*
X212989350Y-113621600D01*
X89763050Y-83985800D02*
X89624550Y-84068600D01*
X90465650Y-82289600D02*
X90489550Y-82449900D01*
X83422950Y-123846600D02*
X83799650Y-123884600D01*
X206344350Y-95420000D02*
X206262350Y-95281600D01*
X153249350Y-137824500D02*
X153206350Y-137649200D01*
X209925350Y-154788400D02*
X210020350Y-154915500D01*
X140506350Y-129409600D02*
X140471350Y-129119600D01*
X166301350Y-138715600D02*
X166103350Y-138592700D01*
X179067350Y-34412000D02*
X178824350Y-34546800D01*
X153308350Y-34565600D02*
X153249350Y-34414900D01*
X81824050Y-143989200D02*
X81608550Y-144261000D01*
X210005350Y-27619900D02*
X209618350Y-27491700D01*
X111312850Y-138134900D02*
X111134250Y-138237100D01*
X89893350Y-81336700D02*
X90014350Y-81446300D01*
X119050950Y-34010100D02*
X118977750Y-34112700D01*
X209367350Y-94504600D02*
X209359350Y-94667700D01*
X210763350Y-131346800D02*
X210386350Y-131177800D01*
X209359350Y-197751100D02*
X209359350Y-197751100D01*
X208041350Y-92886600D02*
X208197350Y-92925900D01*
X88367750Y-184444000D02*
X88524250Y-184404600D01*
X81067359Y-79704800D02*
X81042650Y-121304600D01*
X124514216Y-227899121D02*
X124514216Y-234819200D01*
X208985350Y-50811900D02*
X209143350Y-50852600D01*
X161918350Y-138309200D02*
X161051350Y-138286300D01*
X81608550Y-144261000D02*
X81413250Y-144586000D01*
X192726350Y-134151500D02*
X191981350Y-134474500D01*
X90123950Y-184976900D02*
X90220350Y-185107200D01*
X87391950Y-83390000D02*
X87323250Y-83244500D01*
X210294350Y-155669300D02*
X210302350Y-155838000D01*
X165868350Y-35078600D02*
X165586350Y-35000600D01*
X172485783Y-234819200D02*
X172485783Y-222207479D01*
X210294350Y-52591500D02*
X210270350Y-52751800D01*
X215559350Y-33446400D02*
X215484350Y-33096100D01*
X169485783Y-234819200D02*
X127514216Y-234819200D01*
X83998050Y-39632300D02*
X83408950Y-39745500D01*
X206028350Y-130413500D02*
X205578350Y-130409600D01*
X167402350Y-139438500D02*
X167202350Y-139376200D01*
X83087050Y-123783600D02*
X83422950Y-123846600D01*
X127514216Y-227940221D02*
X127587350Y-227938200D01*
X178187350Y-114401600D02*
X210861350Y-114212600D01*
X119317250Y-134867900D02*
X119245650Y-135064300D01*
X209439350Y-154387100D02*
X209575350Y-154469800D01*
X180214350Y-33464200D02*
X179885350Y-33800100D01*
X119139550Y-137153500D02*
X119103950Y-137297500D01*
X177985350Y-138300100D02*
X177196350Y-138528000D01*
X211529350Y-114149600D02*
X211846350Y-114088600D01*
X179294350Y-34269300D02*
X179067350Y-34412000D01*
X82304650Y-143582500D02*
X82056550Y-143764900D01*
X118607650Y-34326800D02*
X118424650Y-34374600D01*
X133195350Y-232762200D02*
X140506350Y-232819200D01*
X111502050Y-138054900D02*
X111312850Y-138134900D01*
X79042650Y-76704800D02*
X79042650Y-25000000D01*
X119245650Y-135064300D02*
X119193150Y-135269300D01*
X110779150Y-138539600D02*
X110587050Y-138690000D01*
X88216150Y-84137400D02*
X88070650Y-84068600D01*
X124305350Y-124463600D02*
X124514216Y-124489521D01*
X208483350Y-50786900D02*
X208652350Y-50777900D01*
X153386350Y-138101900D02*
X153308350Y-137975200D01*
X179885350Y-137209700D02*
X179505350Y-137528600D01*
X121093450Y-123588600D02*
X121731650Y-123817600D01*
X215727350Y-138543300D02*
X215679350Y-137874000D01*
X166891350Y-139213200D02*
X166784350Y-139111200D01*
X209359350Y-198077300D02*
X209335350Y-198237600D01*
X153231350Y-123383600D02*
X153905350Y-123063600D01*
X209928350Y-156883700D02*
X209819350Y-157004700D01*
X89479050Y-81088600D02*
X89624550Y-81157400D01*
X88579150Y-141510800D02*
X88459350Y-141649300D01*
X181548350Y-31524300D02*
X181364350Y-31799200D01*
X209575350Y-154469800D02*
X209575350Y-154469800D01*
X179294350Y-137678900D02*
X179067350Y-137821600D01*
X209567350Y-53801200D02*
X209429350Y-53884000D01*
X82304650Y-40172900D02*
X82056550Y-40355300D01*
X209575350Y-51060200D02*
X209575350Y-51060200D01*
X143031350Y-129062600D02*
X143041350Y-127234600D01*
X121731650Y-123817600D02*
X122323350Y-124009600D01*
X119193150Y-31859700D02*
X119160950Y-32072200D01*
X208985350Y-154221500D02*
X209143350Y-154262200D01*
X93483850Y-139916500D02*
X92588250Y-140057100D01*
X206193350Y-95136000D02*
X206139350Y-94984500D01*
X149544350Y-124524600D02*
X150330350Y-124367600D01*
X208975350Y-157456000D02*
X208815350Y-157479900D01*
X207730350Y-154469800D02*
X207866350Y-154387100D01*
X166103350Y-35183100D02*
X165868350Y-35078600D01*
X167630350Y-139488900D02*
X167402350Y-139438500D01*
X214728284Y-180114400D02*
X214728284Y-180114400D01*
X207880350Y-96146500D02*
X207717350Y-96154500D01*
X207086350Y-199438600D02*
X206940350Y-199369800D01*
X87801950Y-83889400D02*
X87680850Y-83779800D01*
X215888350Y-36920100D02*
X215858350Y-36318600D01*
X179505350Y-34119000D02*
X179294350Y-34269300D01*
X120854250Y-30198600D02*
X120649250Y-30251100D01*
X208197350Y-92925900D02*
X208349350Y-92980200D01*
X160040350Y-34887100D02*
X157998350Y-34953100D01*
X165868350Y-138488200D02*
X165586350Y-138410200D01*
X87268950Y-185542800D02*
X87323250Y-185391200D01*
X208349350Y-96029000D02*
X208197350Y-96083300D01*
X146082350Y-127152600D02*
X146095350Y-124715600D01*
X168527350Y-120798600D02*
X169216350Y-120667600D01*
X90123950Y-187068300D02*
X90014350Y-187189400D01*
X208994350Y-95550300D02*
X208884350Y-95671300D01*
X87229650Y-186346000D02*
X87205650Y-186185700D01*
X88363150Y-141793400D02*
X88258250Y-141815600D01*
X153754350Y-138340900D02*
X153606350Y-138284300D01*
X206551350Y-93337900D02*
X206672350Y-93228300D01*
X118755150Y-122400600D02*
X119281750Y-122708600D01*
X124514216Y-129909600D02*
X124514216Y-133565000D01*
X208652350Y-50777900D02*
X208821350Y-50786900D01*
X215679350Y-137874000D02*
X215613350Y-137199700D01*
X88890250Y-37838100D02*
X88723350Y-37967300D01*
X198767350Y-132102000D02*
X197217350Y-132560400D01*
X119925650Y-30641900D02*
X119774150Y-30779600D01*
X175963350Y-218424200D02*
X176222350Y-218254200D01*
X209359350Y-197751100D02*
X209367350Y-197914200D01*
X91767650Y-140212600D02*
X91025050Y-140384700D01*
X211846350Y-114088600D02*
X212152350Y-114006600D01*
X215908350Y-143196700D02*
X215904350Y-141721400D01*
X207717350Y-92854700D02*
X207880350Y-92862700D01*
X107517050Y-35824300D02*
X104478450Y-35849600D01*
X153606350Y-34874700D02*
X153484350Y-34795100D01*
X208821350Y-154196500D02*
X208985350Y-154221500D01*
X81527450Y-122602600D02*
X81640550Y-122798600D01*
X206551350Y-95671300D02*
X206441350Y-95550300D01*
X207394350Y-199532200D02*
X207237350Y-199492900D01*
X209242350Y-95136000D02*
X209173350Y-95281600D01*
X208815350Y-54070300D02*
X208652350Y-54078300D01*
X90426250Y-83092900D02*
X90372050Y-83244500D01*
X127712350Y-127320600D02*
X130690350Y-127367600D01*
X89624550Y-81157400D02*
X89763050Y-81240200D01*
X206802350Y-199287000D02*
X206672350Y-199190500D01*
X113476250Y-137913500D02*
X112562550Y-137899100D01*
X207866350Y-50977500D02*
X208010350Y-50908100D01*
X209242350Y-197282800D02*
X209296350Y-197434300D01*
X151826350Y-123941600D02*
X152539350Y-123676600D01*
X211138350Y-131538000D02*
X210763350Y-131346800D01*
X208041350Y-196296200D02*
X208197350Y-196335500D01*
X148729350Y-124641600D02*
X149544350Y-124524600D01*
X154562350Y-226127200D02*
X155205350Y-225760200D01*
X82566150Y-40026600D02*
X82304650Y-40172900D01*
X119317250Y-31458300D02*
X119245650Y-31654700D01*
X209173350Y-198691200D02*
X209090350Y-198829600D01*
X217957350Y-25000000D02*
X217957350Y-76704800D01*
X87680850Y-81446300D02*
X87801950Y-81336700D01*
X108460450Y-35826000D02*
X107517050Y-35824300D01*
X209702350Y-51155200D02*
X209819350Y-51261700D01*
X88104850Y-38496500D02*
X88052050Y-38561600D01*
X206441350Y-95550300D02*
X206344350Y-95420000D01*
X209925350Y-51378800D02*
X210020350Y-51505900D01*
X208320350Y-50811900D02*
X208483350Y-50786900D01*
X176809350Y-114602600D02*
X177133350Y-114521600D01*
X175731350Y-115223600D02*
X175963350Y-115014600D01*
X209698350Y-157114300D02*
X209567350Y-157210800D01*
X119513750Y-31095400D02*
X119406950Y-31271500D01*
X213414350Y-29827000D02*
X213024350Y-29472000D01*
X119170250Y-33381100D02*
X119139550Y-33743900D01*
X91767650Y-36803000D02*
X91025050Y-36975100D01*
X90426250Y-186502500D02*
X90372050Y-186654100D01*
X108913550Y-35810300D02*
X108460450Y-35826000D01*
X88890250Y-141247700D02*
X88723350Y-141376900D01*
X166473350Y-138848500D02*
X166301350Y-138715600D01*
X217957350Y-183114400D02*
X217957350Y-234819200D01*
X208652350Y-54078300D02*
X208489350Y-54070300D01*
X208633350Y-199287000D02*
X208494350Y-199369800D01*
X83120650Y-143228000D02*
X82838950Y-143319900D01*
X206099350Y-198237600D02*
X206075350Y-198077300D01*
X166891350Y-35803600D02*
X166784350Y-35701600D01*
X127587350Y-124528600D02*
X127712350Y-127320600D01*
X119160950Y-32072200D02*
X119149950Y-32291200D01*
X119149950Y-32291200D02*
X119166050Y-32903000D01*
X82838950Y-143319900D02*
X82566150Y-143436200D01*
X208494350Y-199369800D02*
X208349350Y-199438600D01*
X211200350Y-217600200D02*
X211529350Y-217559200D01*
X209367350Y-197914200D02*
X209359350Y-198077300D01*
X209819350Y-157004700D02*
X209698350Y-157114300D01*
X118259050Y-225500200D02*
X118755150Y-225810200D01*
X208329350Y-157456000D02*
X208172350Y-157416700D01*
X112120250Y-34513200D02*
X111906950Y-34541800D01*
X87229650Y-82289600D02*
X87268950Y-82133200D01*
X88367750Y-84191700D02*
X88216150Y-84137400D01*
X206441350Y-196868500D02*
X206551350Y-196747500D01*
X210231350Y-52908300D02*
X210176350Y-53059800D01*
X208041350Y-199532200D02*
X207880350Y-199556100D01*
X153484350Y-34795100D02*
X153386350Y-34692300D01*
X206099350Y-94828000D02*
X206075350Y-94667700D01*
X147007350Y-124738600D02*
X147884350Y-124714600D01*
X153905350Y-226473200D02*
X154562350Y-226127200D01*
X118424650Y-137784200D02*
X118206950Y-137824100D01*
X124514216Y-133565000D02*
X121285750Y-133565000D01*
X182149350Y-30960500D02*
X182038350Y-31021500D01*
X204448350Y-27096100D02*
X204117350Y-27166400D01*
X127514216Y-129909600D02*
X127514216Y-124530621D01*
X214249350Y-215523200D02*
X214397350Y-215162200D01*
X209242350Y-198545600D02*
X209173350Y-198691200D01*
X210269350Y-155505500D02*
X210294350Y-155669300D01*
X217957350Y-76704800D02*
X214728284Y-76704800D01*
X175731350Y-218633200D02*
X175963350Y-218424200D01*
X175391350Y-35519900D02*
X174381350Y-35695100D01*
X207485350Y-51261700D02*
X207603350Y-51155200D01*
X214632350Y-110922600D02*
X214755350Y-86027200D01*
X87571250Y-83658700D02*
X87474850Y-83528500D01*
X155834350Y-121965600D02*
X156453350Y-121564600D01*
X87680850Y-187189400D02*
X87571250Y-187068300D01*
X209223350Y-130791800D02*
X208820350Y-130698800D01*
X151445350Y-30198600D02*
X151233350Y-30166400D01*
X121285750Y-133565000D02*
X121066750Y-133576000D01*
X209173350Y-197137200D02*
X209242350Y-197282800D01*
X213695350Y-216412200D02*
X213897350Y-216148200D01*
X118607650Y-137736400D02*
X118424650Y-137784200D01*
X222957350Y-20000000D02*
X74042650Y-20000000D01*
X143031350Y-232472200D02*
X143041350Y-230644200D01*
X152210350Y-30519200D02*
X152033350Y-30412400D01*
X127514216Y-25000000D02*
X169485783Y-25000000D01*
X212639350Y-29146900D02*
X212260350Y-28851900D01*
X182149350Y-134370100D02*
X182038350Y-134431100D01*
X88367750Y-81034400D02*
X88524250Y-80995000D01*
X88216150Y-187547000D02*
X88070650Y-187478200D01*
X215904350Y-141721400D02*
X215888350Y-140329700D01*
X206262350Y-198691200D02*
X206193350Y-198545600D01*
X180750350Y-136180800D02*
X180500350Y-136528100D01*
X81239550Y-144970000D02*
X81089750Y-145419000D01*
X122323350Y-227419200D02*
X122873350Y-227576200D01*
X94452250Y-36382400D02*
X93483850Y-36506900D01*
X204448350Y-130505700D02*
X204117350Y-130576000D01*
X110190950Y-138923200D02*
X109987050Y-139009800D01*
X210386350Y-131177800D02*
X210005350Y-131029500D01*
X211511350Y-131753500D02*
X211138350Y-131538000D01*
X214728284Y-76704800D02*
X214665350Y-55027500D01*
X81067359Y-79704800D02*
X81067359Y-79704800D01*
X169485783Y-25000000D02*
X169485783Y-36155091D01*
X207279350Y-156753400D02*
X207196350Y-156615000D01*
X150330350Y-227777200D02*
X151090350Y-227583200D01*
X152982350Y-31458300D02*
X152893350Y-31271500D01*
X153754350Y-34931300D02*
X153606350Y-34874700D01*
X89293350Y-141004300D02*
X89080450Y-141123700D01*
X119774150Y-30779600D02*
X119636450Y-30931100D01*
X151650350Y-133660700D02*
X151445350Y-133608200D01*
X146095350Y-124715600D02*
X147007350Y-124738600D01*
X88216150Y-184498200D02*
X88367750Y-184444000D01*
X209132350Y-157416700D02*
X208975350Y-157456000D01*
X111906950Y-137951400D02*
X111700450Y-137994600D01*
X81042650Y-121304600D02*
X81186850Y-121747600D01*
X157665350Y-120727600D02*
X168527350Y-120798600D01*
X90372050Y-186654100D02*
X90303250Y-186799600D01*
X87571250Y-187068300D02*
X87474850Y-186938100D01*
X143041350Y-127234600D02*
X146082350Y-127152600D01*
X89171050Y-84231000D02*
X89010650Y-84255000D01*
X208406350Y-130621300D02*
X207981350Y-130558200D01*
X111906950Y-34541800D02*
X111700450Y-34585000D01*
X208349350Y-92980200D02*
X208494350Y-93049000D01*
X87323250Y-186654100D02*
X87268950Y-186502500D01*
X88070650Y-81157400D02*
X88216150Y-81088600D01*
X103398450Y-227293200D02*
X113598850Y-224255200D01*
X207128350Y-156469400D02*
X207073350Y-156317900D01*
X182390350Y-30885600D02*
X182266350Y-30914500D01*
X87932150Y-184649800D02*
X88070650Y-184567000D01*
X88012850Y-38637600D02*
X87966350Y-38815800D01*
X89010650Y-184380700D02*
X89171050Y-184404600D01*
X214665350Y-55027500D02*
X215957350Y-41145200D01*
X207088350Y-27059200D02*
X206028350Y-27003900D01*
X152786350Y-31095400D02*
X152663350Y-30931100D01*
X208884350Y-95671300D02*
X208763350Y-95780900D01*
X206193350Y-93873200D02*
X206262350Y-93727600D01*
X133183350Y-232399200D02*
X133195350Y-232762200D01*
X169485783Y-36155091D02*
X169485783Y-36155091D01*
X89785350Y-140780100D02*
X89293350Y-141004300D01*
X182665350Y-134289500D02*
X182523350Y-134283300D01*
X124514216Y-124489521D02*
X124514216Y-129909600D01*
X215246350Y-135777500D02*
X215071350Y-135395600D01*
X173303350Y-35853700D02*
X172485783Y-35956128D01*
X207981350Y-27148600D02*
X207088350Y-27059200D01*
X118881350Y-137607800D02*
X118758950Y-137678400D01*
X130690350Y-127367600D02*
X130741350Y-128953600D01*
X177133350Y-114521600D02*
X177472350Y-114465600D01*
X215908350Y-39787100D02*
X215904350Y-38311800D01*
X207010350Y-52591500D02*
X207002350Y-52428400D01*
X207554350Y-199556100D02*
X207394350Y-199532200D01*
X167885350Y-36118500D02*
X167630350Y-36079300D01*
X88847650Y-84263000D02*
X88684550Y-84255000D01*
X210861350Y-114212600D02*
X211200350Y-114190600D01*
X206344350Y-198829600D02*
X206262350Y-198691200D01*
X208884350Y-199080900D02*
X208763350Y-199190500D01*
X148729350Y-228051200D02*
X149544350Y-227934200D01*
X81089750Y-42009400D02*
X81069141Y-76704800D01*
X90465650Y-82936400D02*
X90426250Y-83092900D01*
X88684550Y-184380700D02*
X88847650Y-184372700D01*
X211885350Y-131994300D02*
X211511350Y-131753500D01*
X88070650Y-184567000D02*
X88216150Y-184498200D01*
X92588250Y-36647500D02*
X91767650Y-36803000D01*
X89479050Y-184498200D02*
X89624550Y-184567000D01*
X119103950Y-33887900D02*
X119050950Y-34010100D01*
X127712350Y-230730200D02*
X130690350Y-230777200D01*
X180972350Y-32430200D02*
X180750350Y-32771200D01*
X117378450Y-121459600D02*
X117798550Y-121776600D01*
X89171050Y-80995000D02*
X89327450Y-81034400D01*
X177196350Y-35118400D02*
X176330350Y-35328200D01*
X111312850Y-34725300D02*
X111134250Y-34827500D01*
X81922250Y-123159600D02*
X82096850Y-123319600D01*
X81608550Y-40851400D02*
X81413250Y-41176400D01*
X109779550Y-139079000D02*
X109353550Y-139172800D01*
X124305350Y-227873200D02*
X124514216Y-227899121D01*
X127514216Y-124530621D02*
X127587350Y-124528600D01*
X83422950Y-227256200D02*
X83799650Y-227294200D01*
X208975350Y-54046400D02*
X208815350Y-54070300D01*
X87323250Y-185391200D02*
X87391950Y-185245700D01*
X214397350Y-215162200D02*
X214525350Y-214765200D01*
X87229650Y-82936400D02*
X87205650Y-82776100D01*
X206099350Y-94181200D02*
X206139350Y-94024700D01*
X208763350Y-196637900D02*
X208884350Y-196747500D01*
X167202350Y-35966600D02*
X167031350Y-35891700D01*
X209223350Y-27382200D02*
X208820350Y-27289200D01*
X154136350Y-34977500D02*
X153930350Y-34965500D01*
X209296350Y-94984500D02*
X209242350Y-95136000D01*
M02*
