%TF.GenerationSoftware,KiCad,Pcbnew,7.0.1*%
%TF.CreationDate,2023-05-21T16:14:24-05:00*%
%TF.ProjectId,panel,70616e65-6c2e-46b6-9963-61645f706362,rev?*%
%TF.SameCoordinates,Original*%
%TF.FileFunction,Paste,Top*%
%TF.FilePolarity,Positive*%
%FSLAX46Y46*%
G04 Gerber Fmt 4.6, Leading zero omitted, Abs format (unit mm)*
G04 Created by KiCad (PCBNEW 7.0.1) date 2023-05-21 16:14:24*
%MOMM*%
%LPD*%
G01*
G04 APERTURE LIST*
G04 Aperture macros list*
%AMRoundRect*
0 Rectangle with rounded corners*
0 $1 Rounding radius*
0 $2 $3 $4 $5 $6 $7 $8 $9 X,Y pos of 4 corners*
0 Add a 4 corners polygon primitive as box body*
4,1,4,$2,$3,$4,$5,$6,$7,$8,$9,$2,$3,0*
0 Add four circle primitives for the rounded corners*
1,1,$1+$1,$2,$3*
1,1,$1+$1,$4,$5*
1,1,$1+$1,$6,$7*
1,1,$1+$1,$8,$9*
0 Add four rect primitives between the rounded corners*
20,1,$1+$1,$2,$3,$4,$5,0*
20,1,$1+$1,$4,$5,$6,$7,0*
20,1,$1+$1,$6,$7,$8,$9,0*
20,1,$1+$1,$8,$9,$2,$3,0*%
%AMRotRect*
0 Rectangle, with rotation*
0 The origin of the aperture is its center*
0 $1 length*
0 $2 width*
0 $3 Rotation angle, in degrees counterclockwise*
0 Add horizontal line*
21,1,$1,$2,0,0,$3*%
G04 Aperture macros list end*
%ADD10C,1.000000*%
%ADD11RoundRect,0.250000X0.250000X0.475000X-0.250000X0.475000X-0.250000X-0.475000X0.250000X-0.475000X0*%
%ADD12RoundRect,0.250000X-0.250000X-0.475000X0.250000X-0.475000X0.250000X0.475000X-0.250000X0.475000X0*%
%ADD13R,1.100000X0.700000*%
%ADD14R,1.600000X3.000000*%
%ADD15R,2.000000X1.000000*%
%ADD16R,0.900000X1.250000*%
%ADD17R,0.800000X0.900000*%
%ADD18RoundRect,0.250000X-0.262500X-0.450000X0.262500X-0.450000X0.262500X0.450000X-0.262500X0.450000X0*%
%ADD19R,1.100000X0.900000*%
%ADD20R,1.800000X1.100000*%
%ADD21R,0.800000X0.500000*%
%ADD22R,0.800000X0.400000*%
%ADD23R,0.250000X1.400000*%
%ADD24O,1.000000X2.100000*%
%ADD25O,1.000000X1.800000*%
%ADD26RoundRect,0.250000X0.262500X0.450000X-0.262500X0.450000X-0.262500X-0.450000X0.262500X-0.450000X0*%
%ADD27RoundRect,0.218750X-0.218750X-0.381250X0.218750X-0.381250X0.218750X0.381250X-0.218750X0.381250X0*%
%ADD28RotRect,1.200000X1.300000X315.000000*%
%ADD29R,0.850000X1.200000*%
%ADD30R,1.200000X0.850000*%
%ADD31RotRect,1.300000X1.200000X315.000000*%
%ADD32R,1.000000X0.550000*%
%ADD33R,0.550000X1.200000*%
%ADD34R,0.700000X1.200000*%
%ADD35R,0.450000X1.200000*%
%ADD36RotRect,1.000000X0.550000X315.000000*%
%ADD37RotRect,0.550000X1.200000X315.000000*%
%ADD38RotRect,0.700000X1.200000X315.000000*%
%ADD39RotRect,0.450000X1.200000X315.000000*%
%ADD40R,0.900000X1.500000*%
%ADD41R,1.500000X0.900000*%
%ADD42R,1.100000X1.100000*%
%ADD43RoundRect,0.150000X-0.587500X-0.150000X0.587500X-0.150000X0.587500X0.150000X-0.587500X0.150000X0*%
%ADD44R,0.700000X1.100000*%
%ADD45R,1.600000X2.000000*%
%ADD46R,1.100000X0.250000*%
%ADD47RotRect,1.000000X0.550000X135.000000*%
%ADD48RotRect,0.550000X1.200000X135.000000*%
%ADD49RotRect,0.700000X1.200000X135.000000*%
%ADD50RotRect,0.450000X1.200000X135.000000*%
G04 APERTURE END LIST*
D10*
%TO.C,J11*%
X88182351Y-80122600D02*
G75*
G03*
X86249233Y-82622600I650002J-2500001D01*
G01*
X91428501Y-82622600D02*
G75*
G03*
X89532351Y-80122601I-2596150J0D01*
G01*
X86832353Y-84222599D02*
G75*
G03*
X90832349Y-84222599I1999998J1599999D01*
G01*
X88182351Y-183532200D02*
G75*
G03*
X86249233Y-186032200I650002J-2500001D01*
G01*
X91428501Y-186032200D02*
G75*
G03*
X89532351Y-183532201I-2596150J0D01*
G01*
X86832353Y-187632199D02*
G75*
G03*
X90832349Y-187632199I1999998J1599999D01*
G01*
%TO.C,J9*%
X206982351Y-92022600D02*
G75*
G03*
X205049233Y-94522600I650002J-2500001D01*
G01*
X210228501Y-94522600D02*
G75*
G03*
X208332351Y-92022601I-2596150J0D01*
G01*
X205632353Y-96122599D02*
G75*
G03*
X209632349Y-96122599I1999998J1599999D01*
G01*
X206982351Y-195432200D02*
G75*
G03*
X205049233Y-197932200I650002J-2500001D01*
G01*
X210228501Y-197932200D02*
G75*
G03*
X208332351Y-195432201I-2596150J0D01*
G01*
X205632353Y-199532199D02*
G75*
G03*
X209632349Y-199532199I1999998J1599999D01*
G01*
%TO.C,J10*%
X207982351Y-49922600D02*
G75*
G03*
X206049233Y-52422600I650002J-2500001D01*
G01*
X211228501Y-52422600D02*
G75*
G03*
X209332351Y-49922601I-2596150J0D01*
G01*
X206632353Y-54022599D02*
G75*
G03*
X210632349Y-54022599I1999998J1599999D01*
G01*
X207982351Y-153332200D02*
G75*
G03*
X206049233Y-155832200I650002J-2500001D01*
G01*
X211228501Y-155832200D02*
G75*
G03*
X209332351Y-153332201I-2596150J0D01*
G01*
X206632353Y-157432199D02*
G75*
G03*
X210632349Y-157432199I1999998J1599999D01*
G01*
%TD*%
D11*
%TO.C,C9*%
X121332350Y-96522600D03*
X119432350Y-96522600D03*
%TD*%
%TO.C,C9*%
X121332350Y-199932200D03*
X119432350Y-199932200D03*
%TD*%
D12*
%TO.C,C2*%
X181932350Y-40572600D03*
X183832350Y-40572600D03*
%TD*%
%TO.C,C2*%
X181932350Y-143982200D03*
X183832350Y-143982200D03*
%TD*%
%TO.C,C12*%
X199132350Y-110522600D03*
X201032350Y-110522600D03*
%TD*%
%TO.C,C12*%
X199132350Y-213932200D03*
X201032350Y-213932200D03*
%TD*%
D13*
%TO.C,D1*%
X183582350Y-67672600D03*
X183582350Y-70272600D03*
X181982350Y-67672600D03*
X181982350Y-70272600D03*
%TD*%
%TO.C,D1*%
X183582350Y-171082200D03*
X183582350Y-173682200D03*
X181982350Y-171082200D03*
X181982350Y-173682200D03*
%TD*%
D12*
%TO.C,C10*%
X91932350Y-121122600D03*
X93832350Y-121122600D03*
%TD*%
%TO.C,C10*%
X91932350Y-224532200D03*
X93832350Y-224532200D03*
%TD*%
D14*
%TO.C,BZ1*%
X207932350Y-69422600D03*
X207932350Y-77422600D03*
%TD*%
%TO.C,BZ1*%
X207932350Y-172832200D03*
X207932350Y-180832200D03*
%TD*%
D15*
%TO.C,SW7*%
X131332350Y-196232200D03*
X131332350Y-200632200D03*
X143232350Y-200632200D03*
X143232350Y-196232200D03*
%TD*%
%TO.C,SW7*%
X131332350Y-92822600D03*
X131332350Y-97222600D03*
X143232350Y-97222600D03*
X143232350Y-92822600D03*
%TD*%
D16*
%TO.C,SW11*%
X186282350Y-34747600D03*
X187782350Y-34747600D03*
X190782350Y-34747600D03*
D17*
X184732350Y-31472600D03*
X184732350Y-33772600D03*
X192332350Y-31472600D03*
X192342350Y-33772600D03*
%TD*%
D16*
%TO.C,SW11*%
X186282350Y-138157200D03*
X187782350Y-138157200D03*
X190782350Y-138157200D03*
D17*
X184732350Y-134882200D03*
X184732350Y-137182200D03*
X192332350Y-134882200D03*
X192342350Y-137182200D03*
%TD*%
D18*
%TO.C,R11*%
X164007350Y-93722600D03*
X165832350Y-93722600D03*
%TD*%
%TO.C,R11*%
X164007350Y-197132200D03*
X165832350Y-197132200D03*
%TD*%
D19*
%TO.C,SW5*%
X104882350Y-102072600D03*
X110582350Y-102072600D03*
X104882350Y-105772600D03*
X110582350Y-105772600D03*
%TD*%
%TO.C,SW5*%
X104882350Y-205482200D03*
X110582350Y-205482200D03*
X104882350Y-209182200D03*
X110582350Y-209182200D03*
%TD*%
D20*
%TO.C,SW10*%
X134132350Y-124522600D03*
X140332350Y-124522600D03*
X134132350Y-128222600D03*
X140332350Y-128222600D03*
%TD*%
%TO.C,SW10*%
X134132350Y-227932200D03*
X140332350Y-227932200D03*
X134132350Y-231632200D03*
X140332350Y-231632200D03*
%TD*%
D21*
%TO.C,RN1*%
X172032350Y-111522600D03*
D22*
X172032350Y-110722600D03*
X172032350Y-109922600D03*
D21*
X172032350Y-109122600D03*
X170232350Y-109122600D03*
D22*
X170232350Y-109922600D03*
X170232350Y-110722600D03*
D21*
X170232350Y-111522600D03*
%TD*%
%TO.C,RN1*%
X172032350Y-214932200D03*
D22*
X172032350Y-214132200D03*
X172032350Y-213332200D03*
D21*
X172032350Y-212532200D03*
X170232350Y-212532200D03*
D22*
X170232350Y-213332200D03*
X170232350Y-214132200D03*
D21*
X170232350Y-214932200D03*
%TD*%
D11*
%TO.C,C5*%
X157832350Y-104722600D03*
X155932350Y-104722600D03*
%TD*%
%TO.C,C5*%
X157832350Y-208132200D03*
X155932350Y-208132200D03*
%TD*%
%TO.C,C7*%
X124982350Y-122722600D03*
X123082350Y-122722600D03*
%TD*%
%TO.C,C7*%
X124982350Y-226132200D03*
X123082350Y-226132200D03*
%TD*%
D19*
%TO.C,SW6*%
X189982350Y-99872600D03*
X195682350Y-99872600D03*
X189982350Y-103572600D03*
X195682350Y-103572600D03*
%TD*%
%TO.C,SW6*%
X189982350Y-203282200D03*
X195682350Y-203282200D03*
X189982350Y-206982200D03*
X195682350Y-206982200D03*
%TD*%
D23*
%TO.C,J2*%
X159607350Y-113635100D03*
X160407350Y-113635100D03*
X161682350Y-113635100D03*
X162682350Y-113635100D03*
X163182350Y-113635100D03*
X161182350Y-113635100D03*
X165457350Y-113635100D03*
X166257350Y-113635100D03*
X166007350Y-113635100D03*
X165207350Y-113635100D03*
X164682350Y-113635100D03*
X163682350Y-113635100D03*
X162182350Y-113635100D03*
X164182350Y-113635100D03*
X160657350Y-113635100D03*
X159857350Y-113635100D03*
D24*
X158612350Y-114335100D03*
D25*
X158612350Y-118485100D03*
D24*
X167252350Y-114335100D03*
D25*
X167252350Y-118485100D03*
%TD*%
D23*
%TO.C,J2*%
X159607350Y-217044700D03*
X160407350Y-217044700D03*
X161682350Y-217044700D03*
X162682350Y-217044700D03*
X163182350Y-217044700D03*
X161182350Y-217044700D03*
X165457350Y-217044700D03*
X166257350Y-217044700D03*
X166007350Y-217044700D03*
X165207350Y-217044700D03*
X164682350Y-217044700D03*
X163682350Y-217044700D03*
X162182350Y-217044700D03*
X164182350Y-217044700D03*
X160657350Y-217044700D03*
X159857350Y-217044700D03*
D24*
X158612350Y-217744700D03*
D25*
X158612350Y-221894700D03*
D24*
X167252350Y-217744700D03*
D25*
X167252350Y-221894700D03*
%TD*%
D19*
%TO.C,SW4*%
X175682350Y-104272600D03*
X181382350Y-104272600D03*
X175682350Y-107972600D03*
X181382350Y-107972600D03*
%TD*%
%TO.C,SW4*%
X175682350Y-207682200D03*
X181382350Y-207682200D03*
X175682350Y-211382200D03*
X181382350Y-211382200D03*
%TD*%
%TO.C,SW3*%
X88882350Y-101972600D03*
X94582350Y-101972600D03*
X88882350Y-105672600D03*
X94582350Y-105672600D03*
%TD*%
%TO.C,SW3*%
X88882350Y-205382200D03*
X94582350Y-205382200D03*
X88882350Y-209082200D03*
X94582350Y-209082200D03*
%TD*%
D26*
%TO.C,R10*%
X121257350Y-93122600D03*
X119432350Y-93122600D03*
%TD*%
%TO.C,R10*%
X121257350Y-196532200D03*
X119432350Y-196532200D03*
%TD*%
D19*
%TO.C,SW1*%
X96782350Y-93972600D03*
X102482350Y-93972600D03*
X96782350Y-97672600D03*
X102482350Y-97672600D03*
%TD*%
%TO.C,SW1*%
X96782350Y-197382200D03*
X102482350Y-197382200D03*
X96782350Y-201082200D03*
X102482350Y-201082200D03*
%TD*%
D11*
%TO.C,C6*%
X157832350Y-108822600D03*
X155932350Y-108822600D03*
%TD*%
%TO.C,C6*%
X157832350Y-212232200D03*
X155932350Y-212232200D03*
%TD*%
D27*
%TO.C,L1*%
X181857350Y-44072600D03*
X183982350Y-44072600D03*
%TD*%
%TO.C,L1*%
X181857350Y-147482200D03*
X183982350Y-147482200D03*
%TD*%
D28*
%TO.C,SW9*%
X205560036Y-29558161D03*
X202660898Y-32457299D03*
D29*
X210297651Y-29057299D03*
D30*
X213697651Y-32457299D03*
D28*
X213196789Y-37194914D03*
X210297651Y-40094052D03*
D31*
X202024502Y-35073594D03*
X207681356Y-40730448D03*
X205895911Y-38945004D03*
X203809946Y-36859039D03*
%TD*%
D28*
%TO.C,SW9*%
X205560036Y-132967761D03*
X202660898Y-135866899D03*
D29*
X210297651Y-132466899D03*
D30*
X213697651Y-135866899D03*
D28*
X213196789Y-140604514D03*
X210297651Y-143503652D03*
D31*
X202024502Y-138483194D03*
X207681356Y-144140048D03*
X205895911Y-142354604D03*
X203809946Y-140268639D03*
%TD*%
D12*
%TO.C,C4*%
X104532350Y-86722600D03*
X106432350Y-86722600D03*
%TD*%
%TO.C,C4*%
X104532350Y-190132200D03*
X106432350Y-190132200D03*
%TD*%
%TO.C,C1*%
X93482350Y-62722600D03*
X95382350Y-62722600D03*
%TD*%
%TO.C,C1*%
X93482350Y-166132200D03*
X95382350Y-166132200D03*
%TD*%
D18*
%TO.C,R8*%
X88607350Y-57922600D03*
X90432350Y-57922600D03*
%TD*%
%TO.C,R8*%
X88607350Y-161332200D03*
X90432350Y-161332200D03*
%TD*%
D32*
%TO.C,U4*%
X175882350Y-95447600D03*
D33*
X176107350Y-95522600D03*
D34*
X177232350Y-95522600D03*
D35*
X178257350Y-95522600D03*
D33*
X179257350Y-95522600D03*
D32*
X179482350Y-95447600D03*
%TD*%
%TO.C,U4*%
X175882350Y-198857200D03*
D33*
X176107350Y-198932200D03*
D34*
X177232350Y-198932200D03*
D35*
X178257350Y-198932200D03*
D33*
X179257350Y-198932200D03*
D32*
X179482350Y-198857200D03*
%TD*%
D12*
%TO.C,C3*%
X181882350Y-47322600D03*
X183782350Y-47322600D03*
%TD*%
%TO.C,C3*%
X181882350Y-150732200D03*
X183782350Y-150732200D03*
%TD*%
D36*
%TO.C,U2*%
X108930789Y-89714973D03*
D37*
X109036855Y-89927105D03*
D38*
X109832350Y-90722600D03*
D39*
X110557134Y-91447385D03*
D37*
X111264241Y-92154491D03*
D36*
X111476373Y-92260557D03*
%TD*%
%TO.C,U2*%
X108930789Y-193124573D03*
D37*
X109036855Y-193336705D03*
D38*
X109832350Y-194132200D03*
D39*
X110557134Y-194856985D03*
D37*
X111264241Y-195564091D03*
D36*
X111476373Y-195670157D03*
%TD*%
D18*
%TO.C,R7*%
X88607350Y-54522600D03*
X90432350Y-54522600D03*
%TD*%
%TO.C,R7*%
X88607350Y-157932200D03*
X90432350Y-157932200D03*
%TD*%
D32*
%TO.C,U5*%
X196257350Y-112597600D03*
D33*
X196032350Y-112522600D03*
D34*
X194907350Y-112522600D03*
D35*
X193882350Y-112522600D03*
D33*
X192882350Y-112522600D03*
D32*
X192657350Y-112597600D03*
%TD*%
%TO.C,U5*%
X196257350Y-216007200D03*
D33*
X196032350Y-215932200D03*
D34*
X194907350Y-215932200D03*
D35*
X193882350Y-215932200D03*
D33*
X192882350Y-215932200D03*
D32*
X192657350Y-216007200D03*
%TD*%
D40*
%TO.C,IC1*%
X120732350Y-118522600D03*
X122232350Y-118522600D03*
X123732350Y-118522600D03*
X125232350Y-118522600D03*
X126732350Y-118522600D03*
X128232350Y-118522600D03*
X129732350Y-118522600D03*
X131232350Y-118522600D03*
X132732350Y-118522600D03*
X134232350Y-118522600D03*
X135732350Y-118522600D03*
X137232350Y-118522600D03*
X138732350Y-118522600D03*
X140232350Y-118522600D03*
X141732350Y-118522600D03*
X143232350Y-118522600D03*
D41*
X143982350Y-116522600D03*
X143982350Y-115022600D03*
X143982350Y-113522600D03*
X143982350Y-112022600D03*
X143982350Y-110522600D03*
X143982350Y-109022600D03*
X143982350Y-107522600D03*
X143982350Y-106022600D03*
X143982350Y-104522600D03*
X143982350Y-103022600D03*
D40*
X143232350Y-101022600D03*
X141732350Y-101022600D03*
X140232350Y-101022600D03*
X138732350Y-101022600D03*
X137232350Y-101022600D03*
X135732350Y-101022600D03*
X134232350Y-101022600D03*
X132732350Y-101022600D03*
X131232350Y-101022600D03*
X129732350Y-101022600D03*
X128232350Y-101022600D03*
X126732350Y-101022600D03*
X125232350Y-101022600D03*
X123732350Y-101022600D03*
X122232350Y-101022600D03*
X120732350Y-101022600D03*
D42*
X128782350Y-110962600D03*
X128782350Y-112462600D03*
X130282350Y-112462600D03*
X130282350Y-110962600D03*
X130282350Y-109462600D03*
X128782350Y-109462600D03*
X127282350Y-109462600D03*
X127282350Y-110962600D03*
X127282350Y-112462600D03*
%TD*%
D40*
%TO.C,IC1*%
X120732350Y-221932200D03*
X122232350Y-221932200D03*
X123732350Y-221932200D03*
X125232350Y-221932200D03*
X126732350Y-221932200D03*
X128232350Y-221932200D03*
X129732350Y-221932200D03*
X131232350Y-221932200D03*
X132732350Y-221932200D03*
X134232350Y-221932200D03*
X135732350Y-221932200D03*
X137232350Y-221932200D03*
X138732350Y-221932200D03*
X140232350Y-221932200D03*
X141732350Y-221932200D03*
X143232350Y-221932200D03*
D41*
X143982350Y-219932200D03*
X143982350Y-218432200D03*
X143982350Y-216932200D03*
X143982350Y-215432200D03*
X143982350Y-213932200D03*
X143982350Y-212432200D03*
X143982350Y-210932200D03*
X143982350Y-209432200D03*
X143982350Y-207932200D03*
X143982350Y-206432200D03*
D40*
X143232350Y-204432200D03*
X141732350Y-204432200D03*
X140232350Y-204432200D03*
X138732350Y-204432200D03*
X137232350Y-204432200D03*
X135732350Y-204432200D03*
X134232350Y-204432200D03*
X132732350Y-204432200D03*
X131232350Y-204432200D03*
X129732350Y-204432200D03*
X128232350Y-204432200D03*
X126732350Y-204432200D03*
X125232350Y-204432200D03*
X123732350Y-204432200D03*
X122232350Y-204432200D03*
X120732350Y-204432200D03*
D42*
X128782350Y-214372200D03*
X128782350Y-215872200D03*
X130282350Y-215872200D03*
X130282350Y-214372200D03*
X130282350Y-212872200D03*
X128782350Y-212872200D03*
X127282350Y-212872200D03*
X127282350Y-214372200D03*
X127282350Y-215872200D03*
%TD*%
D43*
%TO.C,Q2*%
X93582350Y-57322600D03*
X93582350Y-59222600D03*
X95457350Y-58272600D03*
%TD*%
%TO.C,Q2*%
X93582350Y-160732200D03*
X93582350Y-162632200D03*
X95457350Y-161682200D03*
%TD*%
D19*
%TO.C,SW2*%
X96782350Y-109972600D03*
X102482350Y-109972600D03*
X96782350Y-113672600D03*
X102482350Y-113672600D03*
%TD*%
%TO.C,SW2*%
X96782350Y-213382200D03*
X102482350Y-213382200D03*
X96782350Y-217082200D03*
X102482350Y-217082200D03*
%TD*%
D12*
%TO.C,C8*%
X127332350Y-122722600D03*
X129232350Y-122722600D03*
%TD*%
%TO.C,C8*%
X127332350Y-226132200D03*
X129232350Y-226132200D03*
%TD*%
%TO.C,C11*%
X176732350Y-90922600D03*
X178632350Y-90922600D03*
%TD*%
%TO.C,C11*%
X176732350Y-194332200D03*
X178632350Y-194332200D03*
%TD*%
D44*
%TO.C,D2*%
X163332350Y-99072600D03*
X165932350Y-99072600D03*
X163332350Y-100672600D03*
X165932350Y-100672600D03*
%TD*%
%TO.C,D2*%
X163332350Y-202482200D03*
X165932350Y-202482200D03*
X163332350Y-204082200D03*
X165932350Y-204082200D03*
%TD*%
D43*
%TO.C,U1*%
X187132350Y-42222600D03*
X187132350Y-44122600D03*
X189007350Y-43172600D03*
%TD*%
%TO.C,U1*%
X187132350Y-145632200D03*
X187132350Y-147532200D03*
X189007350Y-146582200D03*
%TD*%
D18*
%TO.C,R9*%
X88607350Y-61522600D03*
X90432350Y-61522600D03*
%TD*%
%TO.C,R9*%
X88607350Y-164932200D03*
X90432350Y-164932200D03*
%TD*%
D45*
%TO.C,J1*%
X128052350Y-49422600D03*
X128052350Y-72572600D03*
D46*
X130832350Y-51247600D03*
X130832350Y-51747600D03*
X130832350Y-52247600D03*
X130832350Y-52747600D03*
X130832350Y-53247600D03*
X130832350Y-53747600D03*
X130832350Y-54247600D03*
X130832350Y-54747600D03*
X130832350Y-55247600D03*
X130832350Y-55747600D03*
X130832350Y-56247600D03*
X130832350Y-56747600D03*
X130832350Y-57247600D03*
X130832350Y-57747600D03*
X130832350Y-58247600D03*
X130832350Y-58747600D03*
X130832350Y-59247600D03*
X130832350Y-59747600D03*
X130832350Y-60247600D03*
X130832350Y-60747600D03*
X130832350Y-61247600D03*
X130832350Y-61747600D03*
X130832350Y-62247600D03*
X130832350Y-62747600D03*
X130832350Y-63247600D03*
X130832350Y-63747600D03*
X130832350Y-64247600D03*
X130832350Y-64747600D03*
X130832350Y-65247600D03*
X130832350Y-65747600D03*
X130832350Y-66247600D03*
X130832350Y-66747600D03*
X130832350Y-67247600D03*
X130832350Y-67747600D03*
X130832350Y-68247600D03*
X130832350Y-68747600D03*
X130832350Y-69247600D03*
X130832350Y-69747600D03*
X130832350Y-70247600D03*
X130832350Y-70747600D03*
%TD*%
D45*
%TO.C,J1*%
X128052350Y-152832200D03*
X128052350Y-175982200D03*
D46*
X130832350Y-154657200D03*
X130832350Y-155157200D03*
X130832350Y-155657200D03*
X130832350Y-156157200D03*
X130832350Y-156657200D03*
X130832350Y-157157200D03*
X130832350Y-157657200D03*
X130832350Y-158157200D03*
X130832350Y-158657200D03*
X130832350Y-159157200D03*
X130832350Y-159657200D03*
X130832350Y-160157200D03*
X130832350Y-160657200D03*
X130832350Y-161157200D03*
X130832350Y-161657200D03*
X130832350Y-162157200D03*
X130832350Y-162657200D03*
X130832350Y-163157200D03*
X130832350Y-163657200D03*
X130832350Y-164157200D03*
X130832350Y-164657200D03*
X130832350Y-165157200D03*
X130832350Y-165657200D03*
X130832350Y-166157200D03*
X130832350Y-166657200D03*
X130832350Y-167157200D03*
X130832350Y-167657200D03*
X130832350Y-168157200D03*
X130832350Y-168657200D03*
X130832350Y-169157200D03*
X130832350Y-169657200D03*
X130832350Y-170157200D03*
X130832350Y-170657200D03*
X130832350Y-171157200D03*
X130832350Y-171657200D03*
X130832350Y-172157200D03*
X130832350Y-172657200D03*
X130832350Y-173157200D03*
X130832350Y-173657200D03*
X130832350Y-174157200D03*
%TD*%
D47*
%TO.C,U3*%
X90257655Y-118460558D03*
D48*
X90151589Y-118248426D03*
D49*
X89356094Y-117452931D03*
D50*
X88631310Y-116728146D03*
D48*
X87924203Y-116021040D03*
D47*
X87712071Y-115914974D03*
%TD*%
%TO.C,U3*%
X90257655Y-221870158D03*
D48*
X90151589Y-221658026D03*
D49*
X89356094Y-220862531D03*
D50*
X88631310Y-220137746D03*
D48*
X87924203Y-219430640D03*
D47*
X87712071Y-219324574D03*
%TD*%
D18*
%TO.C,R12*%
X181807350Y-64522600D03*
X183632350Y-64522600D03*
%TD*%
%TO.C,R12*%
X181807350Y-167932200D03*
X183632350Y-167932200D03*
%TD*%
M02*
