M48
; DRILL file {KiCad 7.0.1} date Sun 21 May 2023 04:14:19 PM CDT
; FORMAT={-:-/ absolute / inch / decimal}
; #@! TF.CreationDate,2023-05-21T16:14:19-05:00
; #@! TF.GenerationSoftware,Kicad,Pcbnew,7.0.1
; #@! TF.FileFunction,Plated,1,2,PTH
FMAT,2
INCH
; #@! TA.AperFunction,Plated,PTH,ViaDrill
T1C0.0157
; #@! TA.AperFunction,Plated,PTH,ComponentDrill
T2C0.0236
; #@! TA.AperFunction,Plated,PTH,ComponentDrill
T3C0.0394
; #@! TA.AperFunction,Plated,PTH,ComponentDrill
T4C0.1661
%
G90
G05
T1
X3.4383Y-2.2706
X3.4383Y-6.3418
X3.5367Y-4.2883
X3.5367Y-8.3595
X3.5603Y-4.5796
X3.5603Y-8.6509
X3.6076Y-2.1544
X3.6076Y-2.2332
X3.6076Y-6.2257
X3.6076Y-6.3044
X3.6863Y-2.4064
X3.6863Y-6.4776
X3.7099Y-4.6426
X3.7099Y-8.7139
X3.7631Y-4.0914
X3.7631Y-8.1627
X3.7926Y-4.5442
X3.7926Y-8.6154
X3.8418Y-3.9832
X3.8418Y-8.0544
X3.8832Y-4.2096
X3.8832Y-8.2808
X3.9796Y-4.5344
X3.9796Y-8.6056
X4.0091Y-4.2489
X4.0091Y-8.3202
X4.1174Y-4.4261
X4.1174Y-8.4973
X4.1371Y-3.6977
X4.1371Y-7.769
X4.2158Y-3.5501
X4.2158Y-7.6213
X4.2454Y-3.4221
X4.2454Y-7.4934
X4.3005Y-3.6584
X4.3005Y-4.43
X4.3005Y-7.7296
X4.3005Y-8.5013
X4.3241Y-4.2981
X4.3241Y-8.3694
X4.3556Y-3.5235
X4.3556Y-7.5948
X4.4225Y-3.5895
X4.4225Y-7.6607
X4.4717Y-3.6682
X4.4717Y-7.7395
X4.5013Y-3.7568
X4.5013Y-7.828
X4.5052Y-3.5875
X4.5052Y-7.6587
X4.6154Y-3.7292
X4.6154Y-7.8005
X4.6391Y-3.8159
X4.6391Y-7.8871
X4.6686Y-3.5698
X4.6686Y-7.641
X4.7375Y-4.7804
X4.7375Y-8.8517
X4.7572Y-4.554
X4.7572Y-8.6253
X4.767Y-4.2194
X4.767Y-8.2906
X4.8202Y-3.6033
X4.8202Y-7.6745
X4.828Y-3.8159
X4.828Y-7.8871
X4.8359Y-3.7371
X4.8359Y-7.8084
X4.8438Y-4.0363
X4.8438Y-8.1076
X4.8517Y-3.6033
X4.8517Y-7.6745
X4.8989Y-4.5255
X4.8989Y-8.5967
X4.9304Y-4.6033
X4.9304Y-8.6745
X4.9698Y-4.5875
X4.9698Y-8.6587
X5.0525Y-3.8355
X5.0525Y-7.9068
X5.0879Y-3.6426
X5.0879Y-7.7139
X5.0918Y-2.0639
X5.0918Y-2.1525
X5.0918Y-2.6249
X5.0918Y-2.684
X5.0918Y-6.1351
X5.0918Y-6.2237
X5.0918Y-6.6961
X5.0918Y-6.7552
X5.1036Y-2.808
X5.1036Y-6.8792
X5.1125Y-3.8946
X5.1125Y-7.9658
X5.1666Y-3.8946
X5.1666Y-7.9658
X5.2217Y-2.8001
X5.2217Y-3.8946
X5.2217Y-4.2017
X5.2217Y-6.8713
X5.2217Y-7.9658
X5.2217Y-8.2729
X5.2296Y-2.054
X5.2296Y-6.1253
X5.2375Y-4.5678
X5.2375Y-8.6391
X5.2493Y-2.2214
X5.2493Y-6.2926
X5.2532Y-2.8001
X5.2532Y-6.8713
X5.2591Y-2.182
X5.2591Y-6.2532
X5.269Y-4.7214
X5.269Y-8.7926
X5.2769Y-2.6111
X5.2769Y-2.6426
X5.2769Y-6.6824
X5.2769Y-6.7139
X5.2788Y-4.8099
X5.2788Y-8.8812
X5.2847Y-2.8001
X5.2847Y-3.8946
X5.2847Y-6.8713
X5.2847Y-7.9658
X5.3182Y-4.0816
X5.3182Y-8.1528
X5.332Y-4.745
X5.332Y-8.8162
X5.3431Y-2.6393
X5.3431Y-6.7106
X5.4265Y-2.7056
X5.4265Y-6.7769
X5.4816Y-4.2017
X5.4816Y-8.2729
X5.5131Y-4.1938
X5.5131Y-8.265
X5.521Y-4.6111
X5.521Y-8.6824
X5.5367Y-3.6426
X5.5367Y-7.7139
X5.5446Y-4.5009
X5.5446Y-8.5721
X5.5603Y-4.6111
X5.5603Y-8.6824
X5.5761Y-2.6662
X5.5761Y-6.7375
X5.584Y-4.5324
X5.584Y-4.5639
X5.584Y-8.6036
X5.584Y-8.6351
X5.6076Y-4.6121
X5.6076Y-8.6833
X5.6784Y-3.3434
X5.6784Y-7.4147
X5.7257Y-3.2253
X5.7257Y-7.2965
X5.7493Y-4.4458
X5.7493Y-8.517
X5.7513Y-4.5737
X5.7513Y-8.645
X5.7906Y-4.0225
X5.7906Y-8.0938
X5.8103Y-3.8257
X5.8103Y-7.8969
X5.82Y-4.5047
X5.82Y-8.5759
X6.0269Y-4.1111
X6.0269Y-8.1824
X6.0341Y-4.0691
X6.0341Y-8.1404
X6.0662Y-4.2883
X6.0662Y-8.3595
X6.0761Y-4.121
X6.0761Y-8.1922
X6.1253Y-4.5147
X6.1253Y-8.5859
X6.2926Y-4.121
X6.2926Y-8.1922
X6.3025Y-4.2883
X6.3025Y-8.3595
X6.3399Y-4.5718
X6.3399Y-8.643
X6.3556Y-4.4064
X6.3556Y-8.4776
X6.4658Y-3.4812
X6.4658Y-7.5524
X6.4698Y-4.4143
X6.4698Y-8.4855
X6.4816Y-3.7529
X6.4816Y-3.9418
X6.4816Y-7.8241
X6.4816Y-8.0131
X6.4855Y-4.5403
X6.4855Y-8.6115
X6.5131Y-3.2804
X6.5131Y-7.3517
X6.5367Y-4.4143
X6.5367Y-8.4855
X6.5761Y-3.4655
X6.5761Y-7.5367
X6.6469Y-4.4655
X6.6469Y-8.5367
X6.7257Y-4.6033
X6.7257Y-8.6745
X6.7729Y-3.5403
X6.7729Y-7.6115
X6.9147Y-3.6899
X6.9147Y-7.7611
X7.0091Y-3.9812
X7.0091Y-8.0524
X7.1095Y-3.7962
X7.1095Y-7.8674
X7.1489Y-3.6092
X7.1489Y-7.6804
X7.1588Y-1.7922
X7.1588Y-5.8635
X7.1883Y-4.0127
X7.1883Y-8.0839
X7.3064Y-4.3572
X7.3064Y-8.4284
X7.3162Y-3.934
X7.3162Y-8.0052
X7.3359Y-3.9733
X7.3359Y-8.0446
X7.4777Y-2.4851
X7.4777Y-6.5564
X7.8379Y-4.1603
X7.8379Y-8.2316
X7.9068Y-1.4615
X7.9068Y-5.5328
X8.0013Y-1.9103
X8.0013Y-5.9816
X8.0721Y-3.5088
X8.0721Y-7.58
X8.1509Y-1.682
X8.1509Y-5.7532
T3
X3.2847Y-4.33
X3.2847Y-4.43
X3.2847Y-4.53
X3.2847Y-4.63
X3.2847Y-4.73
X3.2847Y-8.4013
X3.2847Y-8.5013
X3.2847Y-8.6013
X3.2847Y-8.7013
X3.2847Y-8.8013
X3.4973Y-1.8025
X3.4973Y-1.9025
X3.4973Y-5.8737
X3.4973Y-5.9737
X3.5973Y-1.8025
X3.5973Y-1.9025
X3.5973Y-5.8737
X3.5973Y-5.9737
X3.6973Y-1.8025
X3.6973Y-1.9025
X3.6973Y-5.8737
X3.6973Y-5.9737
X5.08Y-1.3188
X5.08Y-5.39
X5.6351Y-1.3188
X5.6351Y-5.39
X6.0879Y-2.2912
X6.0879Y-2.3912
X6.0879Y-2.4912
X6.0879Y-6.3625
X6.0879Y-6.4625
X6.0879Y-6.5625
X7.4501Y-1.8995
X7.4501Y-1.9995
X7.4501Y-5.9708
X7.4501Y-6.0708
T4
X3.4973Y-3.2529
X3.4973Y-7.3241
X8.1745Y-3.7214
X8.1745Y-7.7926
X8.2139Y-2.0639
X8.2139Y-6.1351
T2
G00X6.2446Y-4.4797
M15
G01X6.2446Y-4.523
M16
G05
G00X6.2446Y-4.649
M15
G01X6.2446Y-4.6805
M16
G05
G00X6.2446Y-8.551
M15
G01X6.2446Y-8.5943
M16
G05
G00X6.2446Y-8.7203
M15
G01X6.2446Y-8.7518
M16
G05
G00X6.5847Y-4.4797
M15
G01X6.5847Y-4.523
M16
G05
G00X6.5847Y-4.649
M15
G01X6.5847Y-4.6805
M16
G05
G00X6.5847Y-8.551
M15
G01X6.5847Y-8.5943
M16
G05
G00X6.5847Y-8.7203
M15
G01X6.5847Y-8.7518
M16
G05
T0
M30
