M48
; DRILL file {KiCad 7.0.1} date Sun 21 May 2023 04:14:19 PM CDT
; FORMAT={-:-/ absolute / inch / decimal}
; #@! TF.CreationDate,2023-05-21T16:14:19-05:00
; #@! TF.GenerationSoftware,Kicad,Pcbnew,7.0.1
; #@! TF.FileFunction,NonPlated,1,2,NPTH
FMAT,2
INCH
; #@! TA.AperFunction,NonPlated,NPTH,ComponentDrill
T1C0.0197
; #@! TA.AperFunction,NonPlated,NPTH,ComponentDrill
T2C0.0256
; #@! TA.AperFunction,NonPlated,NPTH,ComponentDrill
T3C0.0354
; #@! TA.AperFunction,NonPlated,NPTH,ComponentDrill
T4C0.0630
%
G90
G05
T1
X2.9347Y-1.063
X2.9347Y-9.1661
X2.9741Y-1.063
X2.9741Y-9.1661
X3.0135Y-1.063
X3.0135Y-9.1661
X3.0529Y-1.063
X3.0529Y-9.1661
X3.0922Y-1.063
X3.0922Y-9.1661
X3.1907Y-0.8071
X3.1907Y-0.8465
X3.1907Y-0.8858
X3.1907Y-0.9252
X3.1907Y-0.9646
X3.1907Y-9.2645
X3.1907Y-9.3039
X3.1907Y-9.3433
X3.1907Y-9.3826
X3.1907Y-9.422
X3.1995Y-3.1577
X3.1995Y-7.2289
X3.1995Y-3.1183
X3.1995Y-7.1895
X3.1995Y-3.0789
X3.1995Y-7.1502
X3.1996Y-3.0396
X3.1996Y-7.1108
X3.1996Y-3.0002
X3.1996Y-7.0714
X4.8824Y-1.1951
X4.8824Y-5.2663
X4.8836Y-4.8909
X4.8836Y-8.9622
X4.9218Y-1.1951
X4.9218Y-5.2663
X4.9354Y-4.896
X4.9354Y-8.9673
X4.9612Y-1.1951
X4.9612Y-5.2663
X4.9876Y-4.8958
X4.9876Y-8.9671
X5.0006Y-1.1951
X5.0006Y-5.2663
X5.0397Y-4.8944
X5.0397Y-8.9656
X5.0399Y-1.1951
X5.0399Y-5.2663
X6.6516Y-4.7453
X6.6516Y-8.8165
X6.6531Y-1.4315
X6.6531Y-5.5028
X6.6928Y-1.431
X6.6928Y-5.5022
X6.6944Y-4.7337
X6.6944Y-8.805
X6.7324Y-1.4299
X6.7324Y-5.5012
X6.7362Y-4.7192
X6.7362Y-8.7904
X6.7684Y-4.69
X6.7684Y-8.7612
X6.7719Y-1.4258
X6.7719Y-5.497
X6.7982Y-4.6572
X6.7982Y-8.7285
X6.8113Y-1.421
X6.8113Y-5.4922
X8.4459Y-3.0002
X8.4459Y-7.0715
X8.4461Y-3.0396
X8.4461Y-7.1108
X8.4462Y-3.079
X8.4462Y-7.1502
X8.4463Y-3.1183
X8.4463Y-7.1896
X8.4464Y-3.1577
X8.4464Y-7.2289
X8.5023Y-0.8071
X8.5023Y-0.8465
X8.5023Y-0.8858
X8.5023Y-0.9252
X8.5023Y-0.9646
X8.5023Y-9.2645
X8.5023Y-9.3039
X8.5023Y-9.3433
X8.5023Y-9.3826
X8.5023Y-9.422
X8.6007Y-1.063
X8.6007Y-9.1661
X8.6401Y-1.063
X8.6401Y-9.1661
X8.6794Y-1.063
X8.6794Y-9.1661
X8.7188Y-1.063
X8.7188Y-9.1661
X8.7582Y-1.063
X8.7582Y-9.1661
T2
X6.3009Y-4.5211
X6.3009Y-8.5923
X6.5284Y-4.5211
X6.5284Y-8.5923
T3
X7.3635Y-1.2844
X7.3635Y-5.3556
X7.4816Y-1.2844
X7.4816Y-5.3556
T4
X8.0706Y-1.3196
X8.0706Y-5.3908
X8.2377Y-1.4866
X8.2377Y-5.5579
T0
M30
