<?xml version="1.0"?>
<!DOCTYPE svg PUBLIC "-//W3C//DTD SVG 1.1//EN" "http://www.w3.org/Graphics/SVG/1.1/DTD/svg11.dtd">
<svg width="16.290252206320062mm" height="15.319416709927857mm" viewBox="0 0 16.290252206320062 15.319416709927857" xmlns="http://www.w3.org/2000/svg" version="1.1">
<g id="Body004" transform="translate(4.130544,0.159708) scale(1,-1)">
<path id="Body004_f0000"  d="M 5.0 -15.000000000000014 L 5.0 -15.000000000000007 L 4.5 -15.000000000000007 L 4.5 -15.000000000000007 L 5.0 -15.000000000000007 L 5.0 -15.000000000000004 L 3.0 -15.0 L 2.9999999999999982 -15.000000000000007 L 12.0 -15.0 L 12.0 -15.000000000000014 L 7.000000000000018 -15.000000000000014 M 7.000000000000018 -15.000000000000007 L 5.000000000000002 -15.000000000000007 Z M 9.25 -15.000000000000014 M 9.25 -15.0 L 9.25 -15.0 Z " stroke="#191919" stroke-width="0.35 px" style="stroke-width:0.35;stroke-miterlimit:4;stroke-dasharray:none;stroke-linecap:square;fill:#cccccc;fill-opacity:1.0;fill-rule: evenodd"/>
<path id="Body004_f0001"  d="M 5.0 -3.552713678800501e-15 L 0.0 -3.552713678800501e-15 L 0.0 -3.5 A 4 4 0 0 0 4 -7.5A 4 4 0 0 0 2.44929e-16 -11.5L 0.0 -12.000000000000007 L 2.999999999999999 -15.000000000000004 L 5.0 -15.000000000000004 L 5.0 0.0 Z " stroke="#191919" stroke-width="0.35 px" style="stroke-width:0.35;stroke-miterlimit:4;stroke-dasharray:none;stroke-linecap:square;fill:#cccccc;fill-opacity:1.0;fill-rule: evenodd"/>
<path id="Body004_f0002"  d="M -2.220446049250313e-16 -12.000000000000004 L 2.999999999999999 -15.000000000000004 L 2.9999999999999982 -15.000000000000007 L -1.7763568394002505e-15 -12.000000000000007 L 0.0 -12.000000000000004 Z " stroke="#191919" stroke-width="0.35 px" style="stroke-width:0.35;stroke-miterlimit:4;stroke-dasharray:none;stroke-linecap:square;fill:#cccccc;fill-opacity:1.0;fill-rule: evenodd"/>
<path id="Body004_f0003"  d="M 5.0 4.440892098500634e-15 L 5.0 0.0 L 5.0 -15.000000000000007 L 5.0 -15.000000000000004 L 5.0 0.0 Z " stroke="#191919" stroke-width="0.35 px" style="stroke-width:0.35;stroke-miterlimit:4;stroke-dasharray:none;stroke-linecap:square;fill:#cccccc;fill-opacity:1.0;fill-rule: evenodd"/>
<path id="Body004_f0004"  d="M 4.0 -7.5 A 4 4 0 0 0 3.22194e-14 -11.5L -1.7763568394002505e-15 -12.000000000000007 L 2.9999999999999982 -15.0 L 12.0 -15.0 L 12.0 0.0 L 0.0 0.0 L 3.2540976998969306e-14 -3.5 A 4 4 0 0 0 4 -7.5Z " stroke="#191919" stroke-width="0.35 px" style="stroke-width:0.35;stroke-miterlimit:4;stroke-dasharray:none;stroke-linecap:square;fill:#cccccc;fill-opacity:1.0;fill-rule: evenodd"/>
<path id="Body004_f0005"  d="M -4.440892098500626e-16 -11.5 L 4.5 -11.5 L 4.5 -15.00000000000001 L 5.0 -15.000000000000007 L 5.0 0.0 L 4.500000000000001 0.0 L 4.5 -2.4999999999999956 L 0.0 -2.5 L 0.0 -11.5 Z " stroke="#191919" stroke-width="0.35 px" style="stroke-width:0.35;stroke-miterlimit:4;stroke-dasharray:none;stroke-linecap:square;fill:#cccccc;fill-opacity:1.0;fill-rule: evenodd"/>
<path id="Body004_f0006"  d="M 12.0 -15.000000000000014 L 12.0 -9.000000000000014 L 12.0 -9.000000000000012 L 12.0 -6.000000000000011 L 12.0 -6.000000000000014 L 12.0 -1.4210854715202004e-14 L 12.0 0.0 L 12.0 -15.0 L 12.0 -15.000000000000014 Z " stroke="#191919" stroke-width="0.35 px" style="stroke-width:0.35;stroke-miterlimit:4;stroke-dasharray:none;stroke-linecap:square;fill:#cccccc;fill-opacity:1.0;fill-rule: evenodd"/>
<path id="Body004_f0007"  d="M 4.5 -15.000000000000007 L 4.5 -11.5 L 4.5 -11.5 L 4.5 -15.000000000000007 L 4.5 -15.000000000000007 Z " stroke="#191919" stroke-width="0.35 px" style="stroke-width:0.35;stroke-miterlimit:4;stroke-dasharray:none;stroke-linecap:square;fill:#cccccc;fill-opacity:1.0;fill-rule: evenodd"/>
<path id="Body004_f0008"  d="M 7.000000000000018 -15.000000000000014 L 7.000000000000018 -9.000000000000014 L 12.0 -9.000000000000014 L 12.0 -15.000000000000014 L 7.000000000000018 -15.000000000000014 Z " stroke="#191919" stroke-width="0.35 px" style="stroke-width:0.35;stroke-miterlimit:4;stroke-dasharray:none;stroke-linecap:square;fill:#cccccc;fill-opacity:1.0;fill-rule: evenodd"/>
<path id="Body004_f0009"  d="M 4.5 -15.000000000000012 L 4.5 -11.500000000000005 L 0.0 -11.500000000000004 L 0.0 -2.4999999999999902 L 4.5 -2.5 L 4.5 -3.774758283725532e-15 L 5.0 0.0 L 5.0 -15.000000000000007 L 4.5 -15.000000000000007 Z " stroke="#191919" stroke-width="0.35 px" style="stroke-width:0.35;stroke-miterlimit:4;stroke-dasharray:none;stroke-linecap:square;fill:#cccccc;fill-opacity:1.0;fill-rule: evenodd"/>
<path id="Body004_f0010"  d="M 5.0 -15.000000000000014 L 5.0 -9.000000000000014 M 5.000000000000002 -9.000000000000012 L 7.000000000000018 -9.000000000000014 L 7.000000000000018 -15.000000000000014 M 7.000000000000018 -15.000000000000007 L 5.000000000000002 -15.000000000000007 Z " stroke="#191919" stroke-width="0.35 px" style="stroke-width:0.35;stroke-miterlimit:4;stroke-dasharray:none;stroke-linecap:square;fill:#cccccc;fill-opacity:1.0;fill-rule: evenodd"/>
<path id="Body004_f0011"  d="M 5.0 -6.000000000000011 L 5.0 -9.00000000000001 L 5.0 -9.000000000000012 L 5.0 -15.000000000000014 L 5.0 -15.000000000000007 L 5.0 0.0 L 5.0 -1.4210854715202004e-14 L 5.0 -6.000000000000012 L 4.999999999999996 -6.000000000000011 Z " stroke="#191919" stroke-width="0.35 px" style="stroke-width:0.35;stroke-miterlimit:4;stroke-dasharray:none;stroke-linecap:square;fill:#cccccc;fill-opacity:1.0;fill-rule: evenodd"/>
<path id="Body004_f0012"  d="M 9.25 -9.000000000000014 M 9.25 -9.000000000000012 L 9.25 -9.000000000000012 L 9.25 -15.000000000000014 M 9.25 -15.0 L 9.25 -15.0 Z " stroke="#191919" stroke-width="0.35 px" style="stroke-width:0.35;stroke-miterlimit:4;stroke-dasharray:none;stroke-linecap:square;fill:#cccccc;fill-opacity:1.0;fill-rule: evenodd"/>
<path id="Body004_f0013"  d="M 0.0 -3.5 L 0.0 0.0 L 0.0 0.0 L 0.0 -3.5 L 3.2540976998969306e-14 -3.5 Z " stroke="#191919" stroke-width="0.35 px" style="stroke-width:0.35;stroke-miterlimit:4;stroke-dasharray:none;stroke-linecap:square;fill:#cccccc;fill-opacity:1.0;fill-rule: evenodd"/>
<path id="Body004_f0014"  d="M 0.0 -3.5 A 4 4 0 0 0 4 -7.5L 4.0 -7.500000000000001 A 4 4 0 0 1 3.22194e-14 -3.5L 0.0 -3.5 Z " stroke="#191919" stroke-width="0.35 px" style="stroke-width:0.35;stroke-miterlimit:4;stroke-dasharray:none;stroke-linecap:square;fill:#cccccc;fill-opacity:1.0;fill-rule: evenodd"/>
<path id="Body004_f0015"  d="M 0.0 -11.5 L 3.3383385908860553e-14 -11.5 A 4 4 0 0 1 4 -7.5L 4.0 -7.5 A 4 4 0 0 0 2.44929e-16 -11.5Z " stroke="#191919" stroke-width="0.35 px" style="stroke-width:0.35;stroke-miterlimit:4;stroke-dasharray:none;stroke-linecap:square;fill:#cccccc;fill-opacity:1.0;fill-rule: evenodd"/>
<path id="Body004_f0016"  d="M 0.0 -12.000000000000005 L 0.0 -11.5 L 0.0 -11.5 L 0.0 -12.000000000000007 L -1.7763568394002505e-15 -12.000000000000007 Z " stroke="#191919" stroke-width="0.35 px" style="stroke-width:0.35;stroke-miterlimit:4;stroke-dasharray:none;stroke-linecap:square;fill:#cccccc;fill-opacity:1.0;fill-rule: evenodd"/>
<path id="Body004_f0017"  d="M 5.0 -3.552713678800501e-15 L 0.0 -3.552713678800501e-15 L 0.0 0.0 L 12.0 0.0 L 12.0 -1.4210854715202004e-14 L 7.000000000000018 -1.4210854715202004e-14 M 7.000000000000018 -1.4210854715202004e-14 L 5.000000000000002 -1.4210854715202004e-14 L 5.0 -1.0658141036401503e-14 L 4.5 -1.0658141036401503e-14 L 4.5 -7.105427357601002e-15 L 5.0 -7.105427357601002e-15 L 5.0 -3.552713678800501e-15 Z M 9.25 -1.4210854715202004e-14 M 9.25 -1.4210854715202004e-14 L 9.25 -1.4210854715202004e-14 Z " stroke="#191919" stroke-width="0.35 px" style="stroke-width:0.35;stroke-miterlimit:4;stroke-dasharray:none;stroke-linecap:square;fill:#cccccc;fill-opacity:1.0;fill-rule: evenodd"/>
<path id="Body004_f0018"  d="M 4.5 -1.0658141036401503e-14 L 4.5 -2.5 L 4.5 -2.5 L 4.5 -7.105427357601002e-15 L 4.5 0.0 Z " stroke="#191919" stroke-width="0.35 px" style="stroke-width:0.35;stroke-miterlimit:4;stroke-dasharray:none;stroke-linecap:square;fill:#cccccc;fill-opacity:1.0;fill-rule: evenodd"/>
<path id="Body004_f0019"  d="M 0.0 -11.5 L 4.5 -11.5 L 4.5 -11.5 L 0.0 -11.5 M -4.440892098500626e-16 -11.5 L -8.881784197001252e-16 -11.500000000000004 Z M 2.5 -11.5 M 2.5 -11.5 L 2.5 -11.5 Z " stroke="#191919" stroke-width="0.35 px" style="stroke-width:0.35;stroke-miterlimit:4;stroke-dasharray:none;stroke-linecap:square;fill:#cccccc;fill-opacity:1.0;fill-rule: evenodd"/>
<path id="Body004_f0020"  d="M 2.449293598294708e-16 -11.500000000000002 M 2.449293598294708e-16 -11.500000000000002 L -7.347880794884124e-16 -11.499999999999998 L 0.0 -2.499999999999992 M -4.440892098500626e-16 -2.5 L -8.881784197001252e-16 -2.5 L 0.0 -11.5 Z " stroke="#191919" stroke-width="0.35 px" style="stroke-width:0.35;stroke-miterlimit:4;stroke-dasharray:none;stroke-linecap:square;fill:#cccccc;fill-opacity:1.0;fill-rule: evenodd"/>
<path id="Body004_f0021"  d="M 2.449293598294708e-16 -2.500000000000001 M 2.449293598294708e-16 -2.500000000000001 L -7.347880794884124e-16 -2.499999999999999 L 4.5 -2.5 L 4.5 -2.5 L 0.0 -2.5 Z M 2.5 -2.5 M 2.5 -2.5 L 2.5 -2.5 Z " stroke="#191919" stroke-width="0.35 px" style="stroke-width:0.35;stroke-miterlimit:4;stroke-dasharray:none;stroke-linecap:square;fill:#cccccc;fill-opacity:1.0;fill-rule: evenodd"/>
<path id="Body004_f0022"  d="M 7.000000000000018 -6.000000000000014 L 7.000000000000018 -1.4210854715202004e-14 L 12.0 -1.4210854715202004e-14 L 12.0 -6.000000000000014 L 7.000000000000018 -6.000000000000014 Z " stroke="#191919" stroke-width="0.35 px" style="stroke-width:0.35;stroke-miterlimit:4;stroke-dasharray:none;stroke-linecap:square;fill:#cccccc;fill-opacity:1.0;fill-rule: evenodd"/>
<path id="Body004_f0023"  d="M 5.0 -6.000000000000012 L 4.999999999999996 -6.000000000000011 M 4.999999999999996 -6.000000000000011 L 12.0 -6.0000000000000115 L 12.0 -6.000000000000014 L 7.000000000000018 -6.000000000000014 M 7.000000000000018 -6.000000000000013 L 5.000000000000002 -6.000000000000012 Z M 9.25 -6.000000000000012 M 9.25 -6.000000000000012 L 9.25 -6.000000000000012 Z " stroke="#191919" stroke-width="0.35 px" style="stroke-width:0.35;stroke-miterlimit:4;stroke-dasharray:none;stroke-linecap:square;fill:#cccccc;fill-opacity:1.0;fill-rule: evenodd"/>
<path id="Body004_f0024"  d="M 12.0 -9.00000000000001 M 12.0 -9.00000000000001 L 4.9999999999999964 -9.00000000000001 L 4.999999999999996 -6.000000000000011 M 4.999999999999996 -6.000000000000011 L 12.0 -6.0000000000000115 L 12.0 -9.00000000000001 Z " stroke="#191919" stroke-width="0.35 px" style="stroke-width:0.35;stroke-miterlimit:4;stroke-dasharray:none;stroke-linecap:square;fill:#cccccc;fill-opacity:1.0;fill-rule: evenodd"/>
<path id="Body004_f0025"  d="M 12.0 -9.000000000000014 L 7.000000000000018 -9.000000000000014 M 7.000000000000018 -9.000000000000012 L 5.000000000000002 -9.000000000000012 L 4.999999999999996 -9.00000000000001 M 4.999999999999996 -9.00000000000001 L 12.0 -9.00000000000001 L 12.0 -9.000000000000014 Z M 9.25 -9.000000000000014 M 9.25 -9.000000000000012 L 9.25 -9.000000000000012 Z " stroke="#191919" stroke-width="0.35 px" style="stroke-width:0.35;stroke-miterlimit:4;stroke-dasharray:none;stroke-linecap:square;fill:#cccccc;fill-opacity:1.0;fill-rule: evenodd"/>
<path id="Body004_f0026"  d="M 5.0 -6.000000000000014 L 5.0 -1.4210854715202004e-14 M 5.000000000000002 -1.4210854715202004e-14 L 7.000000000000018 -1.465494392505207e-14 L 7.000000000000018 -6.000000000000014 M 7.000000000000018 -6.000000000000013 L 5.000000000000002 -6.000000000000012 Z " stroke="#191919" stroke-width="0.35 px" style="stroke-width:0.35;stroke-miterlimit:4;stroke-dasharray:none;stroke-linecap:square;fill:#cccccc;fill-opacity:1.0;fill-rule: evenodd"/>
<path id="Body004_f0027"  d="M 9.25 -1.4210854715202004e-14 M 9.25 -1.4210854715202004e-14 L 9.25 -1.4210854715202004e-14 L 9.25 -6.000000000000012 M 9.25 -6.000000000000012 L 9.25 -6.000000000000012 Z " stroke="#191919" stroke-width="0.35 px" style="stroke-width:0.35;stroke-miterlimit:4;stroke-dasharray:none;stroke-linecap:square;fill:#cccccc;fill-opacity:1.0;fill-rule: evenodd"/>
<path id="Body004_f0028"  d="M 2.5 -2.5 M 2.5 -2.5 L 2.5 -2.5 L 2.5 -11.5 M 2.5 -11.5 L 2.5 -11.5 Z " stroke="#191919" stroke-width="0.35 px" style="stroke-width:0.35;stroke-miterlimit:4;stroke-dasharray:none;stroke-linecap:square;fill:#cccccc;fill-opacity:1.0;fill-rule: evenodd"/>
<title>b'RightPall'</title>
</g>
</svg>