<?xml version="1.0"?>
<!DOCTYPE svg PUBLIC "-//W3C//DTD SVG 1.1//EN" "http://www.w3.org/Graphics/SVG/1.1/DTD/svg11.dtd">
<svg width="16.29025220632007mm" height="15.319416709927875mm" viewBox="0 0 16.29025220632007 15.319416709927875" xmlns="http://www.w3.org/2000/svg" version="1.1">
<g id="Body003" transform="translate(12.159708,0.159708) scale(1,-1)">
<path id="Body003_f0000"  d="M -3.552713678800501e-15 -15.000000000000021 L -5.000000000000001 -15.000000000000021 L -5.000000000000001 -15.000000000000016 L -3.0000000000000027 -15.000000000000014 L -3.0000000000000004 -15.000000000000009 L -12.0 -15.0 L -11.999999999999998 -15.00000000000003 L -7.000000000000001 -15.00000000000003 M -7.000000000000001 -15.00000000000003 L -5.000000000000001 -15.00000000000003 L -5.000000000000001 -15.000000000000025 L -1.7763568394002505e-15 -15.000000000000007 M -4.731590968138977e-15 -15.000000000000025 L -1.076208304028342e-16 -15.000000000000021 Z M 2.5 -15.000000000000014 M 2.4999999999999987 -15.000000000000023 L 2.4999999999999987 -15.000000000000023 Z M -6.75 -15.000000000000014 M -6.750000000000001 -15.000000000000028 L -6.750000000000001 -15.000000000000028 Z " stroke="#191919" stroke-width="0.35 px" style="stroke-width:0.35;stroke-miterlimit:4;stroke-dasharray:none;stroke-linecap:square;fill:#cccccc;fill-opacity:1.0;fill-rule: evenodd"/>
<path id="Body003_f0001"  d="M -12.0 0.0 L -1.7763568394002505e-15 0.0 L 3.197442310920451e-14 -3.5 A 4 4 0 1 1 3.07955e-14 -11.5L 1.3805065841367707e-30 -12.000000000000009 L -3.0 -15.000000000000007 L -12.0 -15.0 L -12.0 -7.105427357601002e-15 Z " stroke="#191919" stroke-width="0.35 px" style="stroke-width:0.35;stroke-miterlimit:4;stroke-dasharray:none;stroke-linecap:square;fill:#cccccc;fill-opacity:1.0;fill-rule: evenodd"/>
<path id="Body003_f0002"  d="M -1.887379141862766e-15 -12.000000000000009 L -3.0 -15.000000000000007 L -3.0000000000000018 -15.000000000000007 L -1.7763568394002505e-15 -12.000000000000007 L 0.0 -12.00000000000001 Z " stroke="#191919" stroke-width="0.35 px" style="stroke-width:0.35;stroke-miterlimit:4;stroke-dasharray:none;stroke-linecap:square;fill:#cccccc;fill-opacity:1.0;fill-rule: evenodd"/>
<path id="Body003_f0003"  d="M -12.000000000000002 -6.0000000000000115 L -12.000000000000002 -9.00000000000001 L -12.0 -9.000000000000012 L -12.0 -15.000000000000014 L -12.0 -15.0 L -12.0 -7.105427357601002e-15 L -12.0 -2.3092638912203256e-14 L -12.0 -6.000000000000014 L -12.000000000000007 -6.000000000000007 Z " stroke="#191919" stroke-width="0.35 px" style="stroke-width:0.35;stroke-miterlimit:4;stroke-dasharray:none;stroke-linecap:square;fill:#cccccc;fill-opacity:1.0;fill-rule: evenodd"/>
<path id="Body003_f0004"  d="M -1.8318679906315083e-15 -11.500000000000002 L -1.7763568394002493e-15 -12.00000000000001 L -3.000000000000002 -15.00000000000001 L -5.0 -15.0 L -5.000000000000002 -5.329070518200751e-15 L -3.1086244689504383e-15 -5.329070518200751e-15 L 0.0 -3.499999999999993 A 4 4 0 0 1 -1.17888e-15 -11.5Z " stroke="#191919" stroke-width="0.35 px" style="stroke-width:0.35;stroke-miterlimit:4;stroke-dasharray:none;stroke-linecap:square;fill:#cccccc;fill-opacity:1.0;fill-rule: evenodd"/>
<path id="Body003_f0005"  d="M -11.999999999999998 -15.000000000000023 L -11.999999999999998 -9.000000000000016 L -7.0 -9.000000000000014 L -7.0 -15.000000000000014 L -12.0 -15.000000000000014 Z " stroke="#191919" stroke-width="0.35 px" style="stroke-width:0.35;stroke-miterlimit:4;stroke-dasharray:none;stroke-linecap:square;fill:#cccccc;fill-opacity:1.0;fill-rule: evenodd"/>
<path id="Body003_f0006"  d="M -5.000000000000002 -1.199040866595169e-14 L -5.000000000000002 -5.329070518200751e-15 L -5.0 -15.0 L -5.0 -15.000000000000007 L -5.000000000000002 -1.5987211554602254e-14 Z " stroke="#191919" stroke-width="0.35 px" style="stroke-width:0.35;stroke-miterlimit:4;stroke-dasharray:none;stroke-linecap:square;fill:#cccccc;fill-opacity:1.0;fill-rule: evenodd"/>
<path id="Body003_f0007"  d="M -7.0 -15.000000000000018 L -7.000000000000001 -9.00000000000001 M -7.000000000000001 -9.000000000000012 L -5.000000000000001 -9.000000000000012 L -5.0 -15.000000000000014 M -5.000000000000001 -15.00000000000003 L -7.000000000000001 -15.00000000000003 Z " stroke="#191919" stroke-width="0.35 px" style="stroke-width:0.35;stroke-miterlimit:4;stroke-dasharray:none;stroke-linecap:square;fill:#cccccc;fill-opacity:1.0;fill-rule: evenodd"/>
<path id="Body003_f0008"  d="M -1.4432899320127027e-15 -15.000000000000009 L -1.7652546091540005e-15 -12.099999999999989 L -3.000000000000009 -12.099999999999987 L -3.000000000000007 -2.099999999999987 L -1.7763568394002505e-15 -2.09999999999999 L -3.1086244689504383e-15 -8.881784197001252e-15 L -5.000000000000002 -1.5987211554602254e-14 L -5.0 -15.000000000000007 L -1.7763568394002505e-15 -15.000000000000007 Z " stroke="#191919" stroke-width="0.35 px" style="stroke-width:0.35;stroke-miterlimit:4;stroke-dasharray:none;stroke-linecap:square;fill:#cccccc;fill-opacity:1.0;fill-rule: evenodd"/>
<path id="Body003_f0009"  d="M -5.0 -15.000000000000018 L -5.000000000000001 -9.00000000000001 L -5.000000000000001 -9.00000000000001 L -5.0000000000000036 -6.000000000000007 L -5.0 -6.000000000000014 L -5.000000000000002 -1.7763568394002505e-14 L -5.000000000000002 -2.1316282072803006e-14 L -5.0 -15.000000000000007 L -5.0 -15.000000000000014 Z " stroke="#191919" stroke-width="0.35 px" style="stroke-width:0.35;stroke-miterlimit:4;stroke-dasharray:none;stroke-linecap:square;fill:#cccccc;fill-opacity:1.0;fill-rule: evenodd"/>
<path id="Body003_f0010"  d="M -3.219646771412953e-15 -15.000000000000021 L -3.5416114485542516e-15 -12.099999999999998 M -5.329070518200751e-15 -12.099999999999989 L -4.440892098500626e-16 -12.099999999999987 L -1.7763568394002505e-15 -15.000000000000007 M -1.7763568394002505e-15 -15.000000000000021 L -3.1086244689504383e-15 -15.000000000000025 Z " stroke="#191919" stroke-width="0.35 px" style="stroke-width:0.35;stroke-miterlimit:4;stroke-dasharray:none;stroke-linecap:square;fill:#cccccc;fill-opacity:1.0;fill-rule: evenodd"/>
<path id="Body003_f0011"  d="M -3.552713678800501e-15 -2.09999999999998 L -3.000000000000009 -2.09999999999998 L -3.000000000000011 -12.099999999999989 L -1.7763568394002505e-15 -12.099999999999985 L -1.7763568394002505e-15 -15.000000000000007 L -5.000000000000001 -15.000000000000025 L -5.000000000000002 -2.1316282072803006e-14 L -3.552713678800501e-15 -7.105427357601002e-15 L -3.552713678800501e-15 -2.09999999999998 Z " stroke="#191919" stroke-width="0.35 px" style="stroke-width:0.35;stroke-miterlimit:4;stroke-dasharray:none;stroke-linecap:square;fill:#cccccc;fill-opacity:1.0;fill-rule: evenodd"/>
<path id="Body003_f0012"  d="M 2.5 -12.099999999999987 M 2.4999999999999987 -12.099999999999989 L 2.4999999999999987 -12.099999999999989 L 2.5 -15.000000000000014 M 2.4999999999999987 -15.000000000000023 L 2.4999999999999987 -15.000000000000023 Z " stroke="#191919" stroke-width="0.35 px" style="stroke-width:0.35;stroke-miterlimit:4;stroke-dasharray:none;stroke-linecap:square;fill:#cccccc;fill-opacity:1.0;fill-rule: evenodd"/>
<path id="Body003_f0013"  d="M -6.75 -9.000000000000014 M -6.749999999999999 -9.000000000000012 L -6.749999999999999 -9.000000000000012 L -6.75 -15.000000000000014 M -6.750000000000001 -15.000000000000028 L -6.750000000000001 -15.000000000000028 Z " stroke="#191919" stroke-width="0.35 px" style="stroke-width:0.35;stroke-miterlimit:4;stroke-dasharray:none;stroke-linecap:square;fill:#cccccc;fill-opacity:1.0;fill-rule: evenodd"/>
<path id="Body003_f0014"  d="M 0.0 -12.000000000000007 L 3.375077994860476e-14 -11.5 L 4.4408920985006114e-16 -11.500000000000005 L -1.7763568394002493e-15 -12.00000000000001 L 0.0 -12.00000000000001 Z " stroke="#191919" stroke-width="0.35 px" style="stroke-width:0.35;stroke-miterlimit:4;stroke-dasharray:none;stroke-linecap:square;fill:#cccccc;fill-opacity:1.0;fill-rule: evenodd"/>
<path id="Body003_f0015"  d="M 0.0 -11.499999999999993 A 4 4 0 0 0 -1.17888e-15 -3.5L 3.197442310920451e-14 -3.5 A 4 4 0 1 1 3.07955e-14 -11.5L 4.4408920985006114e-16 -11.500000000000005 Z " stroke="#191919" stroke-width="0.35 px" style="stroke-width:0.35;stroke-miterlimit:4;stroke-dasharray:none;stroke-linecap:square;fill:#cccccc;fill-opacity:1.0;fill-rule: evenodd"/>
<path id="Body003_f0016"  d="M -2.7200464103316335e-15 -3.500000000000002 L -3.1086244689504383e-15 -5.329070518200751e-15 L -1.3322676295501878e-15 -1.7763568394002505e-15 L 3.197442310920451e-14 -3.5 L -1.3322676295501892e-15 -3.5000000000000036 Z " stroke="#191919" stroke-width="0.35 px" style="stroke-width:0.35;stroke-miterlimit:4;stroke-dasharray:none;stroke-linecap:square;fill:#cccccc;fill-opacity:1.0;fill-rule: evenodd"/>
<path id="Body003_f0017"  d="M -5.0 -7.105427357601002e-15 L -3.552713678800501e-15 -7.105427357601002e-15 M -6.95203701738929e-15 -1.554312234475219e-14 L -2.328066879653147e-15 -1.2878587085651816e-14 L -5.000000000000002 -1.5987211554602254e-14 L -5.000000000000002 -5.329070518200751e-15 L -3.1086244689504383e-15 -5.329070518200751e-15 L -1.3322676295501878e-15 -1.7763568394002505e-15 L -12.0 -7.105427357601002e-15 L -12.0 -2.3092638912203256e-14 L -7.000000000000002 -1.7763568394002505e-14 M -7.0000000000000036 -1.84297022087776e-14 L -5.0000000000000036 -1.7763568394002508e-14 L -5.000000000000002 -2.1316282072803006e-14 Z M 2.4999999999999982 -1.4210854715202004e-14 M 2.499999999999997 -1.5987211554602254e-14 L 2.499999999999997 -1.5987211554602254e-14 Z M -6.750000000000002 -1.4210854715202004e-14 M -6.750000000000002 -1.7763568394002505e-14 L -6.750000000000002 -1.7763568394002505e-14 Z " stroke="#191919" stroke-width="0.35 px" style="stroke-width:0.35;stroke-miterlimit:4;stroke-dasharray:none;stroke-linecap:square;fill:#cccccc;fill-opacity:1.0;fill-rule: evenodd"/>
<path id="Body003_f0018"  d="M -5.000000000000001 -9.000000000000012 M -5.000000000000001 -9.000000000000012 L -7.000000000000001 -9.000000000000012 L -12.0 -9.000000000000014 L -12.000000000000007 -9.000000000000007 M -12.000000000000007 -9.00000000000001 L -5.0000000000000036 -9.00000000000001 L -5.0 -9.000000000000014 Z M -6.75 -9.000000000000014 M -6.749999999999999 -9.000000000000012 L -6.749999999999999 -9.000000000000012 Z " stroke="#191919" stroke-width="0.35 px" style="stroke-width:0.35;stroke-miterlimit:4;stroke-dasharray:none;stroke-linecap:square;fill:#cccccc;fill-opacity:1.0;fill-rule: evenodd"/>
<path id="Body003_f0019"  d="M -5.000000000000002 -9.00000000000001 M -5.000000000000002 -9.00000000000001 L -12.000000000000005 -9.00000000000001 L -12.000000000000007 -6.000000000000007 M -12.000000000000007 -6.0000000000000115 L -5.0000000000000036 -6.000000000000011 L -5.000000000000001 -9.00000000000001 Z " stroke="#191919" stroke-width="0.35 px" style="stroke-width:0.35;stroke-miterlimit:4;stroke-dasharray:none;stroke-linecap:square;fill:#cccccc;fill-opacity:1.0;fill-rule: evenodd"/>
<path id="Body003_f0020"  d="M -12.0 -6.000000000000014 L -12.000000000000007 -6.000000000000007 M -12.000000000000007 -6.0000000000000115 L -5.0000000000000036 -6.000000000000011 L -5.0 -6.000000000000014 M -5.000000000000002 -6.000000000000012 L -7.000000000000002 -6.000000000000012 L -12.0 -6.000000000000014 Z M -6.75 -6.000000000000014 M -6.75 -6.000000000000012 L -6.75 -6.000000000000012 Z " stroke="#191919" stroke-width="0.35 px" style="stroke-width:0.35;stroke-miterlimit:4;stroke-dasharray:none;stroke-linecap:square;fill:#cccccc;fill-opacity:1.0;fill-rule: evenodd"/>
<path id="Body003_f0021"  d="M -12.0 -6.000000000000016 L -12.0 -2.3092638912203256e-14 L -7.000000000000002 -1.7763568394002505e-14 L -7.0 -6.000000000000014 L -12.0 -6.000000000000014 Z " stroke="#191919" stroke-width="0.35 px" style="stroke-width:0.35;stroke-miterlimit:4;stroke-dasharray:none;stroke-linecap:square;fill:#cccccc;fill-opacity:1.0;fill-rule: evenodd"/>
<path id="Body003_f0022"  d="M -4.651834473179408e-15 -2.099999999999998 L -4.884981308350689e-15 -2.1316282072803006e-14 M -6.95203701738929e-15 -1.554312234475219e-14 L -2.328066879653147e-15 -1.2878587085651816e-14 L -1.7763568394002505e-15 -2.099999999999987 M -2.0670557090386003e-15 -2.0999999999999863 L -2.7721560895032117e-15 -2.099999999999988 Z " stroke="#191919" stroke-width="0.35 px" style="stroke-width:0.35;stroke-miterlimit:4;stroke-dasharray:none;stroke-linecap:square;fill:#cccccc;fill-opacity:1.0;fill-rule: evenodd"/>
<path id="Body003_f0023"  d="M -3.552713678800501e-15 -2.09999999999998 M -4.884981308350689e-15 -2.099999999999989 L 0.0 -2.099999999999987 L -3.000000000000007 -2.099999999999987 L -3.000000000000009 -2.09999999999998 L -1.7763568394002505e-15 -2.099999999999988 Z M 2.4999999999999982 -2.099999999999987 M 2.4999999999999987 -2.099999999999989 L 2.4999999999999987 -2.099999999999989 Z " stroke="#191919" stroke-width="0.35 px" style="stroke-width:0.35;stroke-miterlimit:4;stroke-dasharray:none;stroke-linecap:square;fill:#cccccc;fill-opacity:1.0;fill-rule: evenodd"/>
<path id="Body003_f0024"  d="M -3.0000000000000098 -2.099999999999987 L -3.000000000000008 -2.099999999999989 L -3.0000000000000093 -12.099999999999989 L -3.0000000000000107 -12.09999999999998 L -3.000000000000009 -2.09999999999998 Z " stroke="#191919" stroke-width="0.35 px" style="stroke-width:0.35;stroke-miterlimit:4;stroke-dasharray:none;stroke-linecap:square;fill:#cccccc;fill-opacity:1.0;fill-rule: evenodd"/>
<path id="Body003_f0025"  d="M -1.7763568394002505e-15 -12.099999999999987 L -3.000000000000009 -12.099999999999987 L -3.0000000000000107 -12.09999999999998 L -1.7763568394002505e-15 -12.099999999999985 M -5.329070518200751e-15 -12.099999999999989 L -4.440892098500626e-16 -12.099999999999987 Z M 2.5 -12.099999999999987 M 2.4999999999999987 -12.099999999999989 L 2.4999999999999987 -12.099999999999989 Z " stroke="#191919" stroke-width="0.35 px" style="stroke-width:0.35;stroke-miterlimit:4;stroke-dasharray:none;stroke-linecap:square;fill:#cccccc;fill-opacity:1.0;fill-rule: evenodd"/>
<path id="Body003_f0026"  d="M -7.000000000000001 -6.000000000000011 L -7.000000000000002 -1.7763568394002505e-14 M -7.0000000000000036 -1.84297022087776e-14 L -5.0000000000000036 -1.7763568394002508e-14 L -5.0 -6.000000000000014 M -5.000000000000002 -6.000000000000012 L -7.000000000000002 -6.000000000000012 Z " stroke="#191919" stroke-width="0.35 px" style="stroke-width:0.35;stroke-miterlimit:4;stroke-dasharray:none;stroke-linecap:square;fill:#cccccc;fill-opacity:1.0;fill-rule: evenodd"/>
<path id="Body003_f0027"  d="M 2.4999999999999982 -1.4210854715202004e-14 M 2.499999999999997 -1.5987211554602254e-14 L 2.499999999999997 -1.5987211554602254e-14 L 2.4999999999999982 -2.099999999999987 M 2.4999999999999987 -2.099999999999989 L 2.4999999999999987 -2.099999999999989 Z " stroke="#191919" stroke-width="0.35 px" style="stroke-width:0.35;stroke-miterlimit:4;stroke-dasharray:none;stroke-linecap:square;fill:#cccccc;fill-opacity:1.0;fill-rule: evenodd"/>
<path id="Body003_f0028"  d="M -6.750000000000002 -1.4210854715202004e-14 M -6.750000000000002 -1.7763568394002505e-14 L -6.750000000000002 -1.7763568394002505e-14 L -6.75 -6.000000000000014 M -6.75 -6.000000000000012 L -6.75 -6.000000000000012 Z " stroke="#191919" stroke-width="0.35 px" style="stroke-width:0.35;stroke-miterlimit:4;stroke-dasharray:none;stroke-linecap:square;fill:#cccccc;fill-opacity:1.0;fill-rule: evenodd"/>
<title>b'LeftPall'</title>
</g>
</svg>