%TF.GenerationSoftware,KiCad,Pcbnew,9.0.3*%
%TF.CreationDate,2025-07-23T15:55:15-05:00*%
%TF.ProjectId,NeoSword_Toplight,4e656f53-776f-4726-945f-546f706c6967,rev?*%
%TF.SameCoordinates,Original*%
%TF.FileFunction,Copper,L2,Bot*%
%TF.FilePolarity,Positive*%
%FSLAX46Y46*%
G04 Gerber Fmt 4.6, Leading zero omitted, Abs format (unit mm)*
G04 Created by KiCad (PCBNEW 9.0.3) date 2025-07-23 15:55:15*
%MOMM*%
%LPD*%
G01*
G04 APERTURE LIST*
G04 Aperture macros list*
%AMRoundRect*
0 Rectangle with rounded corners*
0 $1 Rounding radius*
0 $2 $3 $4 $5 $6 $7 $8 $9 X,Y pos of 4 corners*
0 Add a 4 corners polygon primitive as box body*
4,1,4,$2,$3,$4,$5,$6,$7,$8,$9,$2,$3,0*
0 Add four circle primitives for the rounded corners*
1,1,$1+$1,$2,$3*
1,1,$1+$1,$4,$5*
1,1,$1+$1,$6,$7*
1,1,$1+$1,$8,$9*
0 Add four rect primitives between the rounded corners*
20,1,$1+$1,$2,$3,$4,$5,0*
20,1,$1+$1,$4,$5,$6,$7,0*
20,1,$1+$1,$6,$7,$8,$9,0*
20,1,$1+$1,$8,$9,$2,$3,0*%
%AMRotRect*
0 Rectangle, with rotation*
0 The origin of the aperture is its center*
0 $1 length*
0 $2 width*
0 $3 Rotation angle, in degrees counterclockwise*
0 Add horizontal line*
21,1,$1,$2,0,0,$3*%
G04 Aperture macros list end*
%TA.AperFunction,SMDPad,CuDef*%
%ADD10RotRect,1.000000X0.550000X47.000000*%
%TD*%
%TA.AperFunction,SMDPad,CuDef*%
%ADD11RotRect,0.550000X1.200000X47.000000*%
%TD*%
%TA.AperFunction,SMDPad,CuDef*%
%ADD12RotRect,0.450000X1.200000X47.000000*%
%TD*%
%TA.AperFunction,SMDPad,CuDef*%
%ADD13RotRect,0.700000X1.200000X47.000000*%
%TD*%
%TA.AperFunction,SMDPad,CuDef*%
%ADD14R,1.000000X2.510000*%
%TD*%
%TA.AperFunction,SMDPad,CuDef*%
%ADD15RotRect,1.000000X0.550000X313.000000*%
%TD*%
%TA.AperFunction,SMDPad,CuDef*%
%ADD16RotRect,0.550000X1.200000X313.000000*%
%TD*%
%TA.AperFunction,SMDPad,CuDef*%
%ADD17RotRect,0.700000X1.200000X313.000000*%
%TD*%
%TA.AperFunction,SMDPad,CuDef*%
%ADD18RotRect,0.450000X1.200000X313.000000*%
%TD*%
%TA.AperFunction,SMDPad,CuDef*%
%ADD19R,1.000000X0.550000*%
%TD*%
%TA.AperFunction,SMDPad,CuDef*%
%ADD20R,0.550000X1.200000*%
%TD*%
%TA.AperFunction,SMDPad,CuDef*%
%ADD21R,0.700000X1.200000*%
%TD*%
%TA.AperFunction,SMDPad,CuDef*%
%ADD22R,0.450000X1.200000*%
%TD*%
%TA.AperFunction,SMDPad,CuDef*%
%ADD23RoundRect,0.250000X-0.250000X-0.475000X0.250000X-0.475000X0.250000X0.475000X-0.250000X0.475000X0*%
%TD*%
%TA.AperFunction,SMDPad,CuDef*%
%ADD24RoundRect,0.250000X0.250000X0.475000X-0.250000X0.475000X-0.250000X-0.475000X0.250000X-0.475000X0*%
%TD*%
%TA.AperFunction,Conductor*%
%ADD25C,0.200000*%
%TD*%
G04 APERTURE END LIST*
D10*
%TO.P,D1,4,VSS*%
%TO.N,VSS*%
X146110649Y-75406578D03*
D11*
X145909661Y-75526802D03*
D12*
%TO.P,D1,3,Dout*%
%TO.N,Net-(D1-3)*%
X145227662Y-76258156D03*
D13*
%TO.P,D1,2,VDD*%
%TO.N,3v3*%
X144528614Y-77007793D03*
D11*
%TO.P,D1,1,Din*%
%TO.N,LEDout*%
X143761366Y-77830567D03*
D10*
X143662768Y-78046272D03*
%TD*%
D14*
%TO.P,J9,1,Pin_1*%
%TO.N,LEDout*%
X151300000Y-85350000D03*
%TO.P,J9,2,Pin_2*%
%TO.N,3v3*%
X148760000Y-82040000D03*
%TO.P,J9,3,Pin_3*%
%TO.N,VSS*%
X146220000Y-85350000D03*
%TD*%
D15*
%TO.P,D3,1,Din*%
%TO.N,Net-(D2-3)*%
X151676099Y-75457033D03*
D16*
X151884400Y-75570437D03*
D17*
%TO.P,D3,2,VDD*%
%TO.N,3v3*%
X152651649Y-76393210D03*
D18*
%TO.P,D3,3,Dout*%
%TO.N,unconnected-(D3-Dout-Pad3)*%
X153350697Y-77142848D03*
D16*
%TO.P,D3,4,VSS*%
%TO.N,VSS*%
X154032695Y-77874202D03*
D15*
X154138606Y-78083086D03*
%TD*%
D19*
%TO.P,D2,1,Din*%
%TO.N,Net-(D1-3)*%
X147110000Y-74430000D03*
D20*
X147335000Y-74355000D03*
D21*
%TO.P,D2,2,VDD*%
%TO.N,3v3*%
X148460000Y-74355000D03*
D22*
%TO.P,D2,3,Dout*%
%TO.N,Net-(D2-3)*%
X149485000Y-74355000D03*
D20*
%TO.P,D2,4,VSS*%
%TO.N,VSS*%
X150485000Y-74355000D03*
D19*
X150710000Y-74420000D03*
%TD*%
D23*
%TO.P,C3,1*%
%TO.N,VSS*%
X149960000Y-78945000D03*
%TO.P,C3,2*%
%TO.N,3v3*%
X151860000Y-78945000D03*
%TD*%
D24*
%TO.P,C2,1*%
%TO.N,VSS*%
X149760000Y-76695000D03*
%TO.P,C2,2*%
%TO.N,3v3*%
X147860000Y-76695000D03*
%TD*%
%TO.P,C1,1*%
%TO.N,VSS*%
X147410000Y-78995000D03*
%TO.P,C1,2*%
%TO.N,3v3*%
X145510000Y-78995000D03*
%TD*%
D25*
%TO.N,VSS*%
X146305222Y-77890222D02*
X147410000Y-78995000D01*
X146305222Y-75601151D02*
X146305222Y-77890222D01*
X146110649Y-75406578D02*
X146305222Y-75601151D01*
X150710000Y-75745000D02*
X149760000Y-76695000D01*
X150710000Y-74420000D02*
X150710000Y-75745000D01*
%TO.N,3v3*%
X148460000Y-76095000D02*
X148460000Y-74355000D01*
X147860000Y-76695000D02*
X148460000Y-76095000D01*
X151860000Y-77184859D02*
X152651649Y-76393210D01*
X151860000Y-78945000D02*
X151860000Y-77184859D01*
X146627015Y-72956500D02*
X149456500Y-72956500D01*
X144104091Y-75479424D02*
X146627015Y-72956500D01*
X144104091Y-76583270D02*
X144104091Y-75479424D01*
X144528614Y-77007793D02*
X144104091Y-76583270D01*
X149456500Y-72956500D02*
X149513000Y-72900000D01*
%TO.N,Net-(D1-3)*%
X144982299Y-75753090D02*
X145292301Y-76063092D01*
X147335000Y-74055000D02*
X146094201Y-74055000D01*
X146094201Y-74055000D02*
X144982299Y-75166901D01*
X144982299Y-75166901D02*
X144982299Y-75753090D01*
%TO.N,3v3*%
X153076172Y-75968687D02*
X152651649Y-76393210D01*
X153076172Y-74876172D02*
X153076172Y-75968687D01*
X151100000Y-72900000D02*
X153076172Y-74876172D01*
X149513000Y-72900000D02*
X151100000Y-72900000D01*
X148460000Y-73953000D02*
X149456500Y-72956500D01*
X148460000Y-74355000D02*
X148460000Y-73953000D01*
%TO.N,Net-(D2-3)*%
X149485000Y-73729000D02*
X149485000Y-74055000D01*
X151734400Y-74119400D02*
X151010000Y-73395000D01*
X151734400Y-75320437D02*
X151734400Y-74119400D01*
X149819000Y-73395000D02*
X149485000Y-73729000D01*
X151010000Y-73395000D02*
X149819000Y-73395000D01*
%TO.N,3v3*%
X145510000Y-77729476D02*
X144593253Y-76812729D01*
X145510000Y-78995000D02*
X145510000Y-77729476D01*
%TO.N,LEDout*%
X149865000Y-85350000D02*
X151300000Y-85350000D01*
X143727407Y-79212407D02*
X149865000Y-85350000D01*
X143727407Y-77851208D02*
X143727407Y-79212407D01*
%TO.N,Net-(D1-3)*%
X147110000Y-74130000D02*
X147110000Y-74276802D01*
%TO.N,3v3*%
X148555000Y-82040000D02*
X145510000Y-78995000D01*
X148760000Y-82040000D02*
X148555000Y-82040000D01*
%TD*%
%TA.AperFunction,Conductor*%
%TO.N,VSS*%
G36*
X153881875Y-75475837D02*
G01*
X153891809Y-75485467D01*
X154975325Y-76659981D01*
X155006313Y-76722602D01*
X155008184Y-76744060D01*
X155008184Y-77252457D01*
X154988499Y-77319496D01*
X154968752Y-77343145D01*
X154338494Y-77930869D01*
X154974872Y-78613301D01*
X155006196Y-78675756D01*
X155008184Y-78697869D01*
X155008184Y-91790226D01*
X154988499Y-91857265D01*
X154935695Y-91903020D01*
X154884184Y-91914226D01*
X142824500Y-91914226D01*
X142757461Y-91894541D01*
X142711706Y-91841737D01*
X142700500Y-91790226D01*
X142700500Y-86652844D01*
X145220000Y-86652844D01*
X145226401Y-86712372D01*
X145226403Y-86712379D01*
X145276645Y-86847086D01*
X145276649Y-86847093D01*
X145362809Y-86962187D01*
X145362812Y-86962190D01*
X145477906Y-87048350D01*
X145477913Y-87048354D01*
X145612620Y-87098596D01*
X145612627Y-87098598D01*
X145672155Y-87104999D01*
X145672172Y-87105000D01*
X145970000Y-87105000D01*
X146470000Y-87105000D01*
X146767828Y-87105000D01*
X146767844Y-87104999D01*
X146827372Y-87098598D01*
X146827379Y-87098596D01*
X146962086Y-87048354D01*
X146962093Y-87048350D01*
X147077187Y-86962190D01*
X147077190Y-86962187D01*
X147163350Y-86847093D01*
X147163354Y-86847086D01*
X147213596Y-86712379D01*
X147213598Y-86712372D01*
X147219999Y-86652844D01*
X147220000Y-86652827D01*
X147220000Y-85600000D01*
X146470000Y-85600000D01*
X146470000Y-87105000D01*
X145970000Y-87105000D01*
X145970000Y-85600000D01*
X145220000Y-85600000D01*
X145220000Y-86652844D01*
X142700500Y-86652844D01*
X142700500Y-84047155D01*
X145220000Y-84047155D01*
X145220000Y-85100000D01*
X145970000Y-85100000D01*
X145970000Y-83595000D01*
X145672155Y-83595000D01*
X145612627Y-83601401D01*
X145612620Y-83601403D01*
X145477913Y-83651645D01*
X145477906Y-83651649D01*
X145362812Y-83737809D01*
X145362809Y-83737812D01*
X145276649Y-83852906D01*
X145276645Y-83852913D01*
X145226403Y-83987620D01*
X145226401Y-83987627D01*
X145220000Y-84047155D01*
X142700500Y-84047155D01*
X142700500Y-78802133D01*
X142706145Y-78782905D01*
X142706877Y-78762881D01*
X142715788Y-78750067D01*
X142720185Y-78735094D01*
X142735327Y-78721973D01*
X142746770Y-78705520D01*
X142761195Y-78699558D01*
X142772989Y-78689339D01*
X142792821Y-78686487D01*
X142811342Y-78678833D01*
X142826698Y-78681616D01*
X142842147Y-78679395D01*
X142860375Y-78687719D01*
X142880092Y-78691293D01*
X142902833Y-78707109D01*
X142905703Y-78708420D01*
X142909058Y-78711437D01*
X143006318Y-78802133D01*
X143087474Y-78877811D01*
X143123079Y-78937928D01*
X143126907Y-78968499D01*
X143126907Y-79125737D01*
X143126906Y-79125755D01*
X143126906Y-79291461D01*
X143126905Y-79291461D01*
X143167830Y-79444192D01*
X143196765Y-79494307D01*
X143196766Y-79494311D01*
X143196767Y-79494311D01*
X143246886Y-79581121D01*
X143246888Y-79581124D01*
X143365756Y-79699992D01*
X143365762Y-79699997D01*
X147149471Y-83483706D01*
X147182956Y-83545029D01*
X147177972Y-83614721D01*
X147136100Y-83670654D01*
X147070636Y-83695071D01*
X147002363Y-83680219D01*
X146987479Y-83670654D01*
X146962088Y-83651647D01*
X146962086Y-83651645D01*
X146827379Y-83601403D01*
X146827372Y-83601401D01*
X146767844Y-83595000D01*
X146470000Y-83595000D01*
X146470000Y-85100000D01*
X147220000Y-85100000D01*
X147220000Y-84047172D01*
X147219999Y-84047155D01*
X147213598Y-83987627D01*
X147213596Y-83987620D01*
X147163354Y-83852913D01*
X147163350Y-83852906D01*
X147144346Y-83827520D01*
X147119928Y-83762056D01*
X147134779Y-83693783D01*
X147184184Y-83644377D01*
X147252457Y-83629525D01*
X147317921Y-83653941D01*
X147331293Y-83665528D01*
X149380139Y-85714374D01*
X149380149Y-85714385D01*
X149384479Y-85718715D01*
X149384480Y-85718716D01*
X149496284Y-85830520D01*
X149583095Y-85880639D01*
X149583097Y-85880641D01*
X149633213Y-85909576D01*
X149633215Y-85909577D01*
X149785942Y-85950500D01*
X149785943Y-85950500D01*
X150175501Y-85950500D01*
X150242540Y-85970185D01*
X150288295Y-86022989D01*
X150299501Y-86074500D01*
X150299501Y-86652876D01*
X150305908Y-86712483D01*
X150356202Y-86847328D01*
X150356206Y-86847335D01*
X150442452Y-86962544D01*
X150442455Y-86962547D01*
X150557664Y-87048793D01*
X150557671Y-87048797D01*
X150692517Y-87099091D01*
X150692516Y-87099091D01*
X150699444Y-87099835D01*
X150752127Y-87105500D01*
X151847872Y-87105499D01*
X151907483Y-87099091D01*
X152042331Y-87048796D01*
X152157546Y-86962546D01*
X152243796Y-86847331D01*
X152294091Y-86712483D01*
X152300500Y-86652873D01*
X152300499Y-84047128D01*
X152294091Y-83987517D01*
X152292668Y-83983703D01*
X152243797Y-83852671D01*
X152243793Y-83852664D01*
X152157547Y-83737455D01*
X152157544Y-83737452D01*
X152042335Y-83651206D01*
X152042328Y-83651202D01*
X151907482Y-83600908D01*
X151907483Y-83600908D01*
X151847883Y-83594501D01*
X151847881Y-83594500D01*
X151847873Y-83594500D01*
X151847864Y-83594500D01*
X150752129Y-83594500D01*
X150752123Y-83594501D01*
X150692516Y-83600908D01*
X150557671Y-83651202D01*
X150557664Y-83651206D01*
X150442455Y-83737452D01*
X150442452Y-83737455D01*
X150356206Y-83852664D01*
X150356202Y-83852671D01*
X150305908Y-83987517D01*
X150299501Y-84047116D01*
X150299501Y-84047123D01*
X150299500Y-84047135D01*
X150299500Y-84625500D01*
X150296949Y-84634185D01*
X150298238Y-84643147D01*
X150287259Y-84667187D01*
X150279815Y-84692539D01*
X150272974Y-84698466D01*
X150269213Y-84706703D01*
X150246978Y-84720992D01*
X150227011Y-84738294D01*
X150216496Y-84740581D01*
X150210435Y-84744477D01*
X150175500Y-84749500D01*
X150165097Y-84749500D01*
X150098058Y-84729815D01*
X150077416Y-84713181D01*
X149347938Y-83983703D01*
X149314453Y-83922380D01*
X149319437Y-83852688D01*
X149361309Y-83796755D01*
X149392286Y-83779840D01*
X149502331Y-83738796D01*
X149617546Y-83652546D01*
X149703796Y-83537331D01*
X149754091Y-83402483D01*
X149760500Y-83342873D01*
X149760499Y-80737128D01*
X149754091Y-80677517D01*
X149703796Y-80542669D01*
X149703795Y-80542668D01*
X149703793Y-80542664D01*
X149617547Y-80427455D01*
X149617544Y-80427452D01*
X149570690Y-80392377D01*
X149528819Y-80336443D01*
X149523835Y-80266752D01*
X149557321Y-80205429D01*
X149618644Y-80171945D01*
X149657608Y-80169753D01*
X149660024Y-80169999D01*
X149709999Y-80169998D01*
X149710000Y-80169998D01*
X149710000Y-79195000D01*
X148960001Y-79195000D01*
X148960001Y-79469986D01*
X148970494Y-79572697D01*
X149025641Y-79739119D01*
X149025643Y-79739124D01*
X149117684Y-79888345D01*
X149241655Y-80012316D01*
X149241659Y-80012319D01*
X149310793Y-80054962D01*
X149357518Y-80106910D01*
X149368739Y-80175872D01*
X149340896Y-80239954D01*
X149282827Y-80278810D01*
X149245696Y-80284500D01*
X148212123Y-80284500D01*
X148210363Y-80284595D01*
X148209965Y-80284500D01*
X148208807Y-80284501D01*
X148208807Y-80284226D01*
X148142370Y-80268513D01*
X148093864Y-80218224D01*
X148080247Y-80149694D01*
X148105841Y-80084681D01*
X148126850Y-80063497D01*
X148128349Y-80062311D01*
X148252315Y-79938345D01*
X148344356Y-79789124D01*
X148344358Y-79789119D01*
X148399505Y-79622697D01*
X148399506Y-79622690D01*
X148409999Y-79519986D01*
X148410000Y-79519973D01*
X148410000Y-79245000D01*
X147534000Y-79245000D01*
X147466961Y-79225315D01*
X147421206Y-79172511D01*
X147410000Y-79121000D01*
X147410000Y-78869000D01*
X147429685Y-78801961D01*
X147482489Y-78756206D01*
X147534000Y-78745000D01*
X148409999Y-78745000D01*
X148409999Y-78470028D01*
X148409998Y-78470013D01*
X148399505Y-78367302D01*
X148344358Y-78200880D01*
X148344353Y-78200869D01*
X148263876Y-78070396D01*
X148245435Y-78003004D01*
X148266357Y-77936340D01*
X148319999Y-77891570D01*
X148330393Y-77887599D01*
X148429334Y-77854814D01*
X148578656Y-77762712D01*
X148702712Y-77638656D01*
X148704752Y-77635347D01*
X148706745Y-77633555D01*
X148707193Y-77632989D01*
X148707289Y-77633065D01*
X148756694Y-77588623D01*
X148825656Y-77577395D01*
X148889740Y-77605234D01*
X148915829Y-77635339D01*
X148917681Y-77638341D01*
X148917683Y-77638344D01*
X149041655Y-77762316D01*
X149041659Y-77762319D01*
X149103235Y-77800300D01*
X149149960Y-77852248D01*
X149161181Y-77921210D01*
X149133338Y-77985292D01*
X149125823Y-77993516D01*
X149117683Y-78001656D01*
X149025643Y-78150875D01*
X149025641Y-78150880D01*
X148970494Y-78317302D01*
X148970493Y-78317309D01*
X148960000Y-78420013D01*
X148960000Y-78695000D01*
X149710000Y-78695000D01*
X149710000Y-78050000D01*
X149634000Y-78050000D01*
X149566961Y-78030315D01*
X149521206Y-77977511D01*
X149510000Y-77926000D01*
X149510000Y-76819000D01*
X149529685Y-76751961D01*
X149582489Y-76706206D01*
X149634000Y-76695000D01*
X149760000Y-76695000D01*
X149760000Y-76569000D01*
X149779685Y-76501961D01*
X149832489Y-76456206D01*
X149884000Y-76445000D01*
X150759999Y-76445000D01*
X150759999Y-76293097D01*
X150779684Y-76226058D01*
X150832488Y-76180303D01*
X150901646Y-76170359D01*
X150965202Y-76199384D01*
X150974681Y-76208524D01*
X151299744Y-76557109D01*
X151345085Y-76596336D01*
X151360641Y-76604107D01*
X151411816Y-76651675D01*
X151429150Y-76719361D01*
X151407138Y-76785673D01*
X151405131Y-76788484D01*
X151399556Y-76796066D01*
X151379480Y-76816143D01*
X151363459Y-76843893D01*
X151360037Y-76849819D01*
X151360037Y-76849820D01*
X151305085Y-76945000D01*
X151300423Y-76953074D01*
X151259499Y-77105802D01*
X151259499Y-77105804D01*
X151259499Y-77273905D01*
X151259500Y-77273918D01*
X151259500Y-77735201D01*
X151239815Y-77802240D01*
X151200598Y-77840739D01*
X151141344Y-77877287D01*
X151017288Y-78001343D01*
X151017283Y-78001349D01*
X151015241Y-78004661D01*
X151013247Y-78006453D01*
X151012807Y-78007011D01*
X151012711Y-78006935D01*
X150963291Y-78051383D01*
X150894328Y-78062602D01*
X150830247Y-78034755D01*
X150804168Y-78004656D01*
X150802319Y-78001659D01*
X150802316Y-78001655D01*
X150678343Y-77877682D01*
X150616763Y-77839699D01*
X150570039Y-77787751D01*
X150558818Y-77718788D01*
X150586661Y-77654706D01*
X150594183Y-77646476D01*
X150602317Y-77638341D01*
X150694356Y-77489124D01*
X150694358Y-77489119D01*
X150749505Y-77322697D01*
X150749506Y-77322690D01*
X150759999Y-77219986D01*
X150760000Y-77219973D01*
X150760000Y-76945000D01*
X150010000Y-76945000D01*
X150010000Y-77590000D01*
X150086000Y-77590000D01*
X150153039Y-77609685D01*
X150198794Y-77662489D01*
X150210000Y-77714000D01*
X150210000Y-80169999D01*
X150259972Y-80169999D01*
X150259986Y-80169998D01*
X150362697Y-80159505D01*
X150529119Y-80104358D01*
X150529124Y-80104356D01*
X150678345Y-80012315D01*
X150802318Y-79888342D01*
X150804165Y-79885348D01*
X150805969Y-79883724D01*
X150806798Y-79882677D01*
X150806976Y-79882818D01*
X150856110Y-79838621D01*
X150925073Y-79827396D01*
X150989156Y-79855236D01*
X151015243Y-79885341D01*
X151017288Y-79888656D01*
X151141344Y-80012712D01*
X151290666Y-80104814D01*
X151457203Y-80159999D01*
X151559991Y-80170500D01*
X152160008Y-80170499D01*
X152160016Y-80170498D01*
X152160019Y-80170498D01*
X152216302Y-80164748D01*
X152262797Y-80159999D01*
X152429334Y-80104814D01*
X152578656Y-80012712D01*
X152702712Y-79888656D01*
X152794814Y-79739334D01*
X152849999Y-79572797D01*
X152860500Y-79470009D01*
X152860499Y-78807237D01*
X153398705Y-78807237D01*
X153448375Y-78860502D01*
X153493668Y-78899685D01*
X153622293Y-78963943D01*
X153763801Y-78989356D01*
X153848035Y-78980233D01*
X153916804Y-78992584D01*
X153942418Y-79010691D01*
X153942914Y-79010118D01*
X153990718Y-79051474D01*
X154119342Y-79115732D01*
X154260852Y-79141145D01*
X154403795Y-79125665D01*
X154403797Y-79125664D01*
X154536587Y-79070536D01*
X154536589Y-79070534D01*
X154584501Y-79034609D01*
X154637765Y-78984938D01*
X153972817Y-78271869D01*
X153398705Y-78807237D01*
X152860499Y-78807237D01*
X152860499Y-78544873D01*
X152880184Y-78477835D01*
X152932988Y-78432080D01*
X153002146Y-78422136D01*
X153043603Y-78441069D01*
X153057705Y-78441561D01*
X153862195Y-77691364D01*
X154666684Y-76941164D01*
X154617020Y-76887906D01*
X154617018Y-76887905D01*
X154571721Y-76848718D01*
X154477603Y-76801699D01*
X154426428Y-76754129D01*
X154418505Y-76738333D01*
X154377617Y-76639842D01*
X154341651Y-76591875D01*
X153969453Y-76192744D01*
X153942479Y-76169407D01*
X153924114Y-76153518D01*
X153924112Y-76153517D01*
X153853282Y-76118132D01*
X153802810Y-76071729D01*
X153797840Y-76063573D01*
X153763819Y-75981624D01*
X153727852Y-75933657D01*
X153701364Y-75905252D01*
X153694783Y-75894452D01*
X153688883Y-75872424D01*
X153678659Y-75852038D01*
X153676672Y-75829927D01*
X153676672Y-75569550D01*
X153696357Y-75502511D01*
X153749161Y-75456756D01*
X153818319Y-75446812D01*
X153881875Y-75475837D01*
G37*
%TD.AperFunction*%
%TA.AperFunction,Conductor*%
G36*
X145936049Y-75292353D02*
G01*
X145968778Y-75292330D01*
X145971685Y-75293655D01*
X145973182Y-75293710D01*
X145977710Y-75296401D01*
X146000893Y-75306969D01*
X146118402Y-75382366D01*
X146136007Y-75396042D01*
X146823709Y-76037334D01*
X146859314Y-76097451D01*
X146862499Y-76140620D01*
X146859501Y-76169972D01*
X146859500Y-76169997D01*
X146859500Y-77220001D01*
X146859501Y-77220019D01*
X146870000Y-77322796D01*
X146870001Y-77322799D01*
X146925185Y-77489331D01*
X146925189Y-77489340D01*
X147005905Y-77620202D01*
X147024345Y-77687594D01*
X147003422Y-77754258D01*
X146949780Y-77799027D01*
X146939371Y-77803003D01*
X146840886Y-77835638D01*
X146840875Y-77835643D01*
X146691654Y-77927684D01*
X146567683Y-78051655D01*
X146567679Y-78051660D01*
X146565826Y-78054665D01*
X146564018Y-78056290D01*
X146563202Y-78057323D01*
X146563025Y-78057183D01*
X146513874Y-78101385D01*
X146444911Y-78112601D01*
X146380831Y-78084752D01*
X146354753Y-78054653D01*
X146354737Y-78054628D01*
X146352712Y-78051344D01*
X146228656Y-77927288D01*
X146228652Y-77927285D01*
X146169404Y-77890740D01*
X146122679Y-77838792D01*
X146110501Y-77785202D01*
X146110501Y-77650421D01*
X146110501Y-77650419D01*
X146069577Y-77497691D01*
X146040639Y-77447571D01*
X145990520Y-77360760D01*
X145921018Y-77291258D01*
X145915879Y-77284474D01*
X145906380Y-77259446D01*
X145893554Y-77235956D01*
X145894174Y-77227282D01*
X145891088Y-77219150D01*
X145896628Y-77192961D01*
X145898538Y-77166264D01*
X145904222Y-77157070D01*
X145905550Y-77150794D01*
X145912364Y-77143901D01*
X145924030Y-77125032D01*
X146218614Y-76809129D01*
X146254582Y-76761162D01*
X146295463Y-76662688D01*
X146339347Y-76608321D01*
X146354569Y-76599305D01*
X146448687Y-76552285D01*
X146493981Y-76513102D01*
X146543649Y-76459837D01*
X145962351Y-75917768D01*
X145956517Y-75916274D01*
X145926321Y-75910802D01*
X145921177Y-75907224D01*
X145918554Y-75906553D01*
X145897346Y-75890650D01*
X145883004Y-75877276D01*
X145855981Y-75838323D01*
X145855942Y-75838346D01*
X145855667Y-75837871D01*
X145853008Y-75834037D01*
X145851879Y-75831313D01*
X145851878Y-75831307D01*
X145772820Y-75694376D01*
X145690692Y-75612248D01*
X145657207Y-75550925D01*
X145662191Y-75481233D01*
X145704063Y-75425300D01*
X145769527Y-75400883D01*
X145774047Y-75400642D01*
X145774360Y-75400631D01*
X145843242Y-75326765D01*
X145871401Y-75310086D01*
X145898908Y-75292381D01*
X145901300Y-75292379D01*
X145903359Y-75291160D01*
X145936049Y-75292353D01*
G37*
%TD.AperFunction*%
%TA.AperFunction,Conductor*%
G36*
X150398078Y-74113644D02*
G01*
X150428065Y-74120168D01*
X150433080Y-74123922D01*
X150435677Y-74124685D01*
X150456319Y-74141319D01*
X150485000Y-74170000D01*
X150586000Y-74170000D01*
X150653039Y-74189685D01*
X150698794Y-74242489D01*
X150710000Y-74294000D01*
X150710000Y-74546000D01*
X150690315Y-74613039D01*
X150637511Y-74658794D01*
X150586000Y-74670000D01*
X150334500Y-74670000D01*
X150267461Y-74650315D01*
X150221706Y-74597511D01*
X150210500Y-74546000D01*
X150210499Y-74229000D01*
X150230183Y-74161961D01*
X150282987Y-74116206D01*
X150334499Y-74105000D01*
X150368638Y-74105000D01*
X150398078Y-74113644D01*
G37*
%TD.AperFunction*%
%TD*%
M02*
