G04 #@! TF.GenerationSoftware,KiCad,Pcbnew,(5.99.0-9526-g5c17ff0595)*
G04 #@! TF.CreationDate,2021-07-11T20:16:44-05:00*
G04 #@! TF.ProjectId,dumpsterFire,64756d70-7374-4657-9246-6972652e6b69,rev?*
G04 #@! TF.SameCoordinates,Original*
G04 #@! TF.FileFunction,Paste,Bot*
G04 #@! TF.FilePolarity,Positive*
%FSLAX46Y46*%
G04 Gerber Fmt 4.6, Leading zero omitted, Abs format (unit mm)*
G04 Created by KiCad (PCBNEW (5.99.0-9526-g5c17ff0595)) date 2021-07-11 20:16:44*
%MOMM*%
%LPD*%
G01*
G04 APERTURE LIST*
G04 Aperture macros list*
%AMRoundRect*
0 Rectangle with rounded corners*
0 $1 Rounding radius*
0 $2 $3 $4 $5 $6 $7 $8 $9 X,Y pos of 4 corners*
0 Add a 4 corners polygon primitive as box body*
4,1,4,$2,$3,$4,$5,$6,$7,$8,$9,$2,$3,0*
0 Add four circle primitives for the rounded corners*
1,1,$1+$1,$2,$3*
1,1,$1+$1,$4,$5*
1,1,$1+$1,$6,$7*
1,1,$1+$1,$8,$9*
0 Add four rect primitives between the rounded corners*
20,1,$1+$1,$2,$3,$4,$5,0*
20,1,$1+$1,$4,$5,$6,$7,0*
20,1,$1+$1,$6,$7,$8,$9,0*
20,1,$1+$1,$8,$9,$2,$3,0*%
%AMRotRect*
0 Rectangle, with rotation*
0 The origin of the aperture is its center*
0 $1 length*
0 $2 width*
0 $3 Rotation angle, in degrees counterclockwise*
0 Add horizontal line*
21,1,$1,$2,0,0,$3*%
G04 Aperture macros list end*
%ADD10RoundRect,0.218750X-0.256250X0.218750X-0.256250X-0.218750X0.256250X-0.218750X0.256250X0.218750X0*%
%ADD11RoundRect,0.218750X0.335876X0.026517X0.026517X0.335876X-0.335876X-0.026517X-0.026517X-0.335876X0*%
%ADD12RoundRect,0.218750X0.205039X0.267347X-0.231861X0.244450X-0.205039X-0.267347X0.231861X-0.244450X0*%
%ADD13RoundRect,0.218750X0.209674X0.263728X-0.227560X0.248460X-0.209674X-0.263728X0.227560X-0.248460X0*%
%ADD14R,1.000000X3.150000*%
%ADD15R,0.800000X0.500000*%
%ADD16R,0.800000X0.400000*%
%ADD17RotRect,0.800000X0.900000X346.000000*%
%ADD18RotRect,0.900000X1.250000X346.000000*%
%ADD19RoundRect,0.243750X-0.243750X-0.456250X0.243750X-0.456250X0.243750X0.456250X-0.243750X0.456250X0*%
%ADD20RoundRect,0.243750X0.456250X-0.243750X0.456250X0.243750X-0.456250X0.243750X-0.456250X-0.243750X0*%
%ADD21RoundRect,0.150000X-0.675000X-0.150000X0.675000X-0.150000X0.675000X0.150000X-0.675000X0.150000X0*%
G04 APERTURE END LIST*
D10*
X138200000Y-95970000D03*
X138200000Y-97545000D03*
D11*
X142496306Y-102216306D03*
X143610000Y-103330000D03*
D12*
X152498921Y-106358785D03*
X150926079Y-106441215D03*
D13*
X159212980Y-105917483D03*
X160787020Y-105862517D03*
D14*
X144510000Y-111870000D03*
X144510000Y-116920000D03*
X147050000Y-111870000D03*
X147050000Y-116920000D03*
X149590000Y-111870000D03*
X149590000Y-116920000D03*
D15*
X136950000Y-104740000D03*
D16*
X136950000Y-106340000D03*
X136950000Y-105540000D03*
D15*
X136950000Y-107140000D03*
D16*
X135150000Y-105540000D03*
D15*
X135150000Y-104740000D03*
D16*
X135150000Y-106340000D03*
D15*
X135150000Y-107140000D03*
D17*
X129381790Y-117302210D03*
X136756038Y-119140816D03*
X137322161Y-116911555D03*
X129938210Y-115070530D03*
D18*
X131678043Y-114499470D03*
X133133486Y-114862353D03*
X136044373Y-115588119D03*
D19*
X156200000Y-117000000D03*
X158075000Y-117000000D03*
D20*
X162550000Y-114875000D03*
X162550000Y-113000000D03*
D21*
X154425000Y-114655000D03*
X154425000Y-113385000D03*
X154425000Y-112115000D03*
X154425000Y-110845000D03*
X159675000Y-110845000D03*
X159675000Y-112115000D03*
X159675000Y-113385000D03*
X159675000Y-114655000D03*
M02*
