G04 #@! TF.GenerationSoftware,KiCad,Pcbnew,5.1.5*
G04 #@! TF.CreationDate,2020-02-27T23:00:44-06:00*
G04 #@! TF.ProjectId,dumpsterFire,64756d70-7374-4657-9246-6972652e6b69,rev?*
G04 #@! TF.SameCoordinates,Original*
G04 #@! TF.FileFunction,Legend,Bot*
G04 #@! TF.FilePolarity,Positive*
%FSLAX46Y46*%
G04 Gerber Fmt 4.6, Leading zero omitted, Abs format (unit mm)*
G04 Created by KiCad (PCBNEW 5.1.5) date 2020-02-27 23:00:44*
%MOMM*%
%LPD*%
G04 APERTURE LIST*
%ADD10C,0.150000*%
%ADD11C,0.100000*%
%ADD12C,0.010000*%
%ADD13C,0.120000*%
G04 APERTURE END LIST*
D10*
X162483213Y-105758090D02*
X161721772Y-105784680D01*
X164459523Y-108826190D02*
X164507142Y-108778571D01*
X164602380Y-108730952D01*
X164697619Y-108730952D01*
X164792857Y-108778571D01*
X164840476Y-108826190D01*
X164888095Y-108921428D01*
X164888095Y-109016666D01*
X164840476Y-109111904D01*
X164792857Y-109159523D01*
X164697619Y-109207142D01*
X164602380Y-109207142D01*
X164507142Y-109159523D01*
X164459523Y-109111904D01*
X164459523Y-108730952D02*
X164459523Y-109111904D01*
X164411904Y-109159523D01*
X164364285Y-109159523D01*
X164269047Y-109111904D01*
X164221428Y-109016666D01*
X164221428Y-108778571D01*
X164316666Y-108635714D01*
X164459523Y-108540476D01*
X164650000Y-108492857D01*
X164840476Y-108540476D01*
X164983333Y-108635714D01*
X165078571Y-108778571D01*
X165126190Y-108969047D01*
X165078571Y-109159523D01*
X164983333Y-109302380D01*
X164840476Y-109397619D01*
X164650000Y-109445238D01*
X164459523Y-109397619D01*
X164316666Y-109302380D01*
X163221428Y-109302380D02*
X163554761Y-108826190D01*
X163792857Y-109302380D02*
X163792857Y-108302380D01*
X163411904Y-108302380D01*
X163316666Y-108350000D01*
X163269047Y-108397619D01*
X163221428Y-108492857D01*
X163221428Y-108635714D01*
X163269047Y-108730952D01*
X163316666Y-108778571D01*
X163411904Y-108826190D01*
X163792857Y-108826190D01*
X162792857Y-109302380D02*
X162792857Y-108302380D01*
X162459523Y-109016666D01*
X162126190Y-108302380D01*
X162126190Y-109302380D01*
X161697619Y-109016666D02*
X161221428Y-109016666D01*
X161792857Y-109302380D02*
X161459523Y-108302380D01*
X161126190Y-109302380D01*
X161030952Y-109397619D02*
X160269047Y-109397619D01*
X160030952Y-108778571D02*
X159697619Y-108778571D01*
X159554761Y-109302380D02*
X160030952Y-109302380D01*
X160030952Y-108302380D01*
X159554761Y-108302380D01*
X158983333Y-109302380D02*
X159078571Y-109254761D01*
X159126190Y-109159523D01*
X159126190Y-108302380D01*
X158221428Y-109254761D02*
X158316666Y-109302380D01*
X158507142Y-109302380D01*
X158602380Y-109254761D01*
X158650000Y-109159523D01*
X158650000Y-108778571D01*
X158602380Y-108683333D01*
X158507142Y-108635714D01*
X158316666Y-108635714D01*
X158221428Y-108683333D01*
X158173809Y-108778571D01*
X158173809Y-108873809D01*
X158650000Y-108969047D01*
X157316666Y-109254761D02*
X157411904Y-109302380D01*
X157602380Y-109302380D01*
X157697619Y-109254761D01*
X157745238Y-109207142D01*
X157792857Y-109111904D01*
X157792857Y-108826190D01*
X157745238Y-108730952D01*
X157697619Y-108683333D01*
X157602380Y-108635714D01*
X157411904Y-108635714D01*
X157316666Y-108683333D01*
X157030952Y-108635714D02*
X156650000Y-108635714D01*
X156888095Y-108302380D02*
X156888095Y-109159523D01*
X156840476Y-109254761D01*
X156745238Y-109302380D01*
X156650000Y-109302380D01*
X156316666Y-109302380D02*
X156316666Y-108635714D01*
X156316666Y-108826190D02*
X156269047Y-108730952D01*
X156221428Y-108683333D01*
X156126190Y-108635714D01*
X156030952Y-108635714D01*
X155554761Y-109302380D02*
X155650000Y-109254761D01*
X155697619Y-109207142D01*
X155745238Y-109111904D01*
X155745238Y-108826190D01*
X155697619Y-108730952D01*
X155650000Y-108683333D01*
X155554761Y-108635714D01*
X155411904Y-108635714D01*
X155316666Y-108683333D01*
X155269047Y-108730952D01*
X155221428Y-108826190D01*
X155221428Y-109111904D01*
X155269047Y-109207142D01*
X155316666Y-109254761D01*
X155411904Y-109302380D01*
X155554761Y-109302380D01*
X154792857Y-108635714D02*
X154792857Y-109302380D01*
X154792857Y-108730952D02*
X154745238Y-108683333D01*
X154650000Y-108635714D01*
X154507142Y-108635714D01*
X154411904Y-108683333D01*
X154364285Y-108778571D01*
X154364285Y-109302380D01*
X153888095Y-109302380D02*
X153888095Y-108635714D01*
X153888095Y-108302380D02*
X153935714Y-108350000D01*
X153888095Y-108397619D01*
X153840476Y-108350000D01*
X153888095Y-108302380D01*
X153888095Y-108397619D01*
X152983333Y-109254761D02*
X153078571Y-109302380D01*
X153269047Y-109302380D01*
X153364285Y-109254761D01*
X153411904Y-109207142D01*
X153459523Y-109111904D01*
X153459523Y-108826190D01*
X153411904Y-108730952D01*
X153364285Y-108683333D01*
X153269047Y-108635714D01*
X153078571Y-108635714D01*
X152983333Y-108683333D01*
X152602380Y-109254761D02*
X152507142Y-109302380D01*
X152316666Y-109302380D01*
X152221428Y-109254761D01*
X152173809Y-109159523D01*
X152173809Y-109111904D01*
X152221428Y-109016666D01*
X152316666Y-108969047D01*
X152459523Y-108969047D01*
X152554761Y-108921428D01*
X152602380Y-108826190D01*
X152602380Y-108778571D01*
X152554761Y-108683333D01*
X152459523Y-108635714D01*
X152316666Y-108635714D01*
X152221428Y-108683333D01*
X136933140Y-112718408D02*
X136748322Y-112672328D01*
X136644392Y-112695492D01*
X136528943Y-112764861D01*
X136436658Y-112938159D01*
X136356018Y-113261591D01*
X136356142Y-113457930D01*
X136425511Y-113573379D01*
X136506400Y-113642624D01*
X136691218Y-113688704D01*
X136795147Y-113665540D01*
X136910596Y-113596171D01*
X137002881Y-113422873D01*
X137083522Y-113099441D01*
X137083398Y-112903102D01*
X137014029Y-112787653D01*
X136933140Y-112718408D01*
X135859536Y-113481342D02*
X136101458Y-112511047D01*
X135305081Y-113343101D01*
X135547003Y-112372806D01*
D11*
X158830952Y-107911904D02*
X158830952Y-107111904D01*
X158564285Y-107378571D02*
X158259523Y-107378571D01*
X158450000Y-107111904D02*
X158450000Y-107797619D01*
X158411904Y-107873809D01*
X158335714Y-107911904D01*
X158259523Y-107911904D01*
X157459523Y-107378571D02*
X157307142Y-107911904D01*
X157154761Y-107530952D01*
X157002380Y-107911904D01*
X156850000Y-107378571D01*
X156430952Y-107911904D02*
X156507142Y-107873809D01*
X156545238Y-107835714D01*
X156583333Y-107759523D01*
X156583333Y-107530952D01*
X156545238Y-107454761D01*
X156507142Y-107416666D01*
X156430952Y-107378571D01*
X156316666Y-107378571D01*
X156240476Y-107416666D01*
X156202380Y-107454761D01*
X156164285Y-107530952D01*
X156164285Y-107759523D01*
X156202380Y-107835714D01*
X156240476Y-107873809D01*
X156316666Y-107911904D01*
X156430952Y-107911904D01*
X155821428Y-107911904D02*
X155821428Y-107378571D01*
X155821428Y-107530952D02*
X155783333Y-107454761D01*
X155745238Y-107416666D01*
X155669047Y-107378571D01*
X155592857Y-107378571D01*
X155326190Y-107911904D02*
X155326190Y-107111904D01*
X155250000Y-107607142D02*
X155021428Y-107911904D01*
X155021428Y-107378571D02*
X155326190Y-107683333D01*
X154716666Y-107873809D02*
X154640476Y-107911904D01*
X154488095Y-107911904D01*
X154411904Y-107873809D01*
X154373809Y-107797619D01*
X154373809Y-107759523D01*
X154411904Y-107683333D01*
X154488095Y-107645238D01*
X154602380Y-107645238D01*
X154678571Y-107607142D01*
X154716666Y-107530952D01*
X154716666Y-107492857D01*
X154678571Y-107416666D01*
X154602380Y-107378571D01*
X154488095Y-107378571D01*
X154411904Y-107416666D01*
X153535714Y-107378571D02*
X153230952Y-107378571D01*
X153421428Y-107911904D02*
X153421428Y-107226190D01*
X153383333Y-107150000D01*
X153307142Y-107111904D01*
X153230952Y-107111904D01*
X152964285Y-107911904D02*
X152964285Y-107378571D01*
X152964285Y-107111904D02*
X153002380Y-107150000D01*
X152964285Y-107188095D01*
X152926190Y-107150000D01*
X152964285Y-107111904D01*
X152964285Y-107188095D01*
X152583333Y-107378571D02*
X152583333Y-107911904D01*
X152583333Y-107454761D02*
X152545238Y-107416666D01*
X152469047Y-107378571D01*
X152354761Y-107378571D01*
X152278571Y-107416666D01*
X152240476Y-107492857D01*
X152240476Y-107911904D01*
X151554761Y-107873809D02*
X151630952Y-107911904D01*
X151783333Y-107911904D01*
X151859523Y-107873809D01*
X151897619Y-107797619D01*
X151897619Y-107492857D01*
X151859523Y-107416666D01*
X151783333Y-107378571D01*
X151630952Y-107378571D01*
X151554761Y-107416666D01*
X151516666Y-107492857D01*
X151516666Y-107569047D01*
X151897619Y-107645238D01*
X150450000Y-107911904D02*
X150526190Y-107873809D01*
X150564285Y-107835714D01*
X150602380Y-107759523D01*
X150602380Y-107530952D01*
X150564285Y-107454761D01*
X150526190Y-107416666D01*
X150450000Y-107378571D01*
X150335714Y-107378571D01*
X150259523Y-107416666D01*
X150221428Y-107454761D01*
X150183333Y-107530952D01*
X150183333Y-107759523D01*
X150221428Y-107835714D01*
X150259523Y-107873809D01*
X150335714Y-107911904D01*
X150450000Y-107911904D01*
X149840476Y-107378571D02*
X149840476Y-107911904D01*
X149840476Y-107454761D02*
X149802380Y-107416666D01*
X149726190Y-107378571D01*
X149611904Y-107378571D01*
X149535714Y-107416666D01*
X149497619Y-107492857D01*
X149497619Y-107911904D01*
X148507142Y-107911904D02*
X148507142Y-107378571D01*
X148507142Y-107454761D02*
X148469047Y-107416666D01*
X148392857Y-107378571D01*
X148278571Y-107378571D01*
X148202380Y-107416666D01*
X148164285Y-107492857D01*
X148164285Y-107911904D01*
X148164285Y-107492857D02*
X148126190Y-107416666D01*
X148050000Y-107378571D01*
X147935714Y-107378571D01*
X147859523Y-107416666D01*
X147821428Y-107492857D01*
X147821428Y-107911904D01*
X147516666Y-107378571D02*
X147326190Y-107911904D01*
X147135714Y-107378571D02*
X147326190Y-107911904D01*
X147402380Y-108102380D01*
X147440476Y-108140476D01*
X147516666Y-108178571D01*
X146221428Y-107911904D02*
X146221428Y-107378571D01*
X146221428Y-107454761D02*
X146183333Y-107416666D01*
X146107142Y-107378571D01*
X145992857Y-107378571D01*
X145916666Y-107416666D01*
X145878571Y-107492857D01*
X145878571Y-107911904D01*
X145878571Y-107492857D02*
X145840476Y-107416666D01*
X145764285Y-107378571D01*
X145650000Y-107378571D01*
X145573809Y-107416666D01*
X145535714Y-107492857D01*
X145535714Y-107911904D01*
X144811904Y-107911904D02*
X144811904Y-107492857D01*
X144850000Y-107416666D01*
X144926190Y-107378571D01*
X145078571Y-107378571D01*
X145154761Y-107416666D01*
X144811904Y-107873809D02*
X144888095Y-107911904D01*
X145078571Y-107911904D01*
X145154761Y-107873809D01*
X145192857Y-107797619D01*
X145192857Y-107721428D01*
X145154761Y-107645238D01*
X145078571Y-107607142D01*
X144888095Y-107607142D01*
X144811904Y-107569047D01*
X144088095Y-107873809D02*
X144164285Y-107911904D01*
X144316666Y-107911904D01*
X144392857Y-107873809D01*
X144430952Y-107835714D01*
X144469047Y-107759523D01*
X144469047Y-107530952D01*
X144430952Y-107454761D01*
X144392857Y-107416666D01*
X144316666Y-107378571D01*
X144164285Y-107378571D01*
X144088095Y-107416666D01*
X143745238Y-107911904D02*
X143745238Y-107111904D01*
X143402380Y-107911904D02*
X143402380Y-107492857D01*
X143440476Y-107416666D01*
X143516666Y-107378571D01*
X143630952Y-107378571D01*
X143707142Y-107416666D01*
X143745238Y-107454761D01*
X143021428Y-107911904D02*
X143021428Y-107378571D01*
X143021428Y-107111904D02*
X143059523Y-107150000D01*
X143021428Y-107188095D01*
X142983333Y-107150000D01*
X143021428Y-107111904D01*
X143021428Y-107188095D01*
X142640476Y-107378571D02*
X142640476Y-107911904D01*
X142640476Y-107454761D02*
X142602380Y-107416666D01*
X142526190Y-107378571D01*
X142411904Y-107378571D01*
X142335714Y-107416666D01*
X142297619Y-107492857D01*
X142297619Y-107911904D01*
X141611904Y-107873809D02*
X141688095Y-107911904D01*
X141840476Y-107911904D01*
X141916666Y-107873809D01*
X141954761Y-107797619D01*
X141954761Y-107492857D01*
X141916666Y-107416666D01*
X141840476Y-107378571D01*
X141688095Y-107378571D01*
X141611904Y-107416666D01*
X141573809Y-107492857D01*
X141573809Y-107569047D01*
X141954761Y-107645238D01*
X141230952Y-107835714D02*
X141192857Y-107873809D01*
X141230952Y-107911904D01*
X141269047Y-107873809D01*
X141230952Y-107835714D01*
X141230952Y-107911904D01*
X140850000Y-107835714D02*
X140811904Y-107873809D01*
X140850000Y-107911904D01*
X140888095Y-107873809D01*
X140850000Y-107835714D01*
X140850000Y-107911904D01*
X140469047Y-107835714D02*
X140430952Y-107873809D01*
X140469047Y-107911904D01*
X140507142Y-107873809D01*
X140469047Y-107835714D01*
X140469047Y-107911904D01*
D10*
X141509523Y-110552380D02*
X141176190Y-111552380D01*
X140842857Y-110552380D01*
X140557142Y-110647619D02*
X140509523Y-110600000D01*
X140414285Y-110552380D01*
X140176190Y-110552380D01*
X140080952Y-110600000D01*
X140033333Y-110647619D01*
X139985714Y-110742857D01*
X139985714Y-110838095D01*
X140033333Y-110980952D01*
X140604761Y-111552380D01*
X139985714Y-111552380D01*
D11*
X150223333Y-113996666D02*
X150223333Y-114496666D01*
X150256666Y-114596666D01*
X150323333Y-114663333D01*
X150423333Y-114696666D01*
X150490000Y-114696666D01*
X149556666Y-114696666D02*
X149890000Y-114696666D01*
X149890000Y-113996666D01*
X148923333Y-114630000D02*
X148956666Y-114663333D01*
X149056666Y-114696666D01*
X149123333Y-114696666D01*
X149223333Y-114663333D01*
X149290000Y-114596666D01*
X149323333Y-114530000D01*
X149356666Y-114396666D01*
X149356666Y-114296666D01*
X149323333Y-114163333D01*
X149290000Y-114096666D01*
X149223333Y-114030000D01*
X149123333Y-113996666D01*
X149056666Y-113996666D01*
X148956666Y-114030000D01*
X148923333Y-114063333D01*
X148423333Y-113996666D02*
X148423333Y-114496666D01*
X148456666Y-114596666D01*
X148523333Y-114663333D01*
X148623333Y-114696666D01*
X148690000Y-114696666D01*
X147756666Y-114696666D02*
X148090000Y-114696666D01*
X148090000Y-113996666D01*
X147123333Y-114630000D02*
X147156666Y-114663333D01*
X147256666Y-114696666D01*
X147323333Y-114696666D01*
X147423333Y-114663333D01*
X147490000Y-114596666D01*
X147523333Y-114530000D01*
X147556666Y-114396666D01*
X147556666Y-114296666D01*
X147523333Y-114163333D01*
X147490000Y-114096666D01*
X147423333Y-114030000D01*
X147323333Y-113996666D01*
X147256666Y-113996666D01*
X147156666Y-114030000D01*
X147123333Y-114063333D01*
X146623333Y-113996666D02*
X146623333Y-114496666D01*
X146656666Y-114596666D01*
X146723333Y-114663333D01*
X146823333Y-114696666D01*
X146890000Y-114696666D01*
X145956666Y-114696666D02*
X146290000Y-114696666D01*
X146290000Y-113996666D01*
X145323333Y-114630000D02*
X145356666Y-114663333D01*
X145456666Y-114696666D01*
X145523333Y-114696666D01*
X145623333Y-114663333D01*
X145690000Y-114596666D01*
X145723333Y-114530000D01*
X145756666Y-114396666D01*
X145756666Y-114296666D01*
X145723333Y-114163333D01*
X145690000Y-114096666D01*
X145623333Y-114030000D01*
X145523333Y-113996666D01*
X145456666Y-113996666D01*
X145356666Y-114030000D01*
X145323333Y-114063333D01*
X144823333Y-113996666D02*
X144823333Y-114496666D01*
X144856666Y-114596666D01*
X144923333Y-114663333D01*
X145023333Y-114696666D01*
X145090000Y-114696666D01*
X144156666Y-114696666D02*
X144490000Y-114696666D01*
X144490000Y-113996666D01*
X143523333Y-114630000D02*
X143556666Y-114663333D01*
X143656666Y-114696666D01*
X143723333Y-114696666D01*
X143823333Y-114663333D01*
X143890000Y-114596666D01*
X143923333Y-114530000D01*
X143956666Y-114396666D01*
X143956666Y-114296666D01*
X143923333Y-114163333D01*
X143890000Y-114096666D01*
X143823333Y-114030000D01*
X143723333Y-113996666D01*
X143656666Y-113996666D01*
X143556666Y-114030000D01*
X143523333Y-114063333D01*
D12*
G36*
X153755491Y-79457080D02*
G01*
X153763901Y-79486860D01*
X153757625Y-79506391D01*
X153742330Y-79575790D01*
X153721975Y-79708729D01*
X153699501Y-79884459D01*
X153682593Y-80035958D01*
X153659328Y-80341853D01*
X153656295Y-80642270D01*
X153675487Y-80948678D01*
X153718895Y-81272548D01*
X153788514Y-81625350D01*
X153886335Y-82018553D01*
X154014353Y-82463629D01*
X154174559Y-82972048D01*
X154213267Y-83090334D01*
X154371216Y-83584068D01*
X154494738Y-84000632D01*
X154583876Y-84340187D01*
X154638672Y-84602897D01*
X154659169Y-84788923D01*
X154659334Y-84803049D01*
X154661900Y-84871759D01*
X154681002Y-84901116D01*
X154733738Y-84891500D01*
X154837212Y-84843295D01*
X154905966Y-84808567D01*
X155063276Y-84737426D01*
X155232785Y-84674321D01*
X155394308Y-84625082D01*
X155527661Y-84595540D01*
X155612657Y-84591525D01*
X155629680Y-84599516D01*
X155655892Y-84653739D01*
X155699977Y-84768079D01*
X155754186Y-84921956D01*
X155778738Y-84995334D01*
X155904811Y-85349238D01*
X156053255Y-85709970D01*
X156227706Y-86083634D01*
X156431802Y-86476330D01*
X156669178Y-86894162D01*
X156943473Y-87343232D01*
X157258323Y-87829643D01*
X157617366Y-88359496D01*
X158024237Y-88938895D01*
X158482575Y-89573941D01*
X158617161Y-89757834D01*
X158811845Y-90023785D01*
X159002832Y-90285884D01*
X159180494Y-90530828D01*
X159335202Y-90745311D01*
X159457325Y-90916030D01*
X159527246Y-91015249D01*
X159628707Y-91154109D01*
X159714674Y-91258682D01*
X159772938Y-91314761D01*
X159788864Y-91319719D01*
X159824445Y-91272391D01*
X159881068Y-91171677D01*
X159933140Y-91067054D01*
X160037496Y-90890519D01*
X160163939Y-90777349D01*
X160338082Y-90706317D01*
X160382037Y-90695024D01*
X160422984Y-90683542D01*
X160454249Y-90678436D01*
X160479772Y-90689871D01*
X160503493Y-90728014D01*
X160529350Y-90803030D01*
X160561284Y-90925086D01*
X160603234Y-91104349D01*
X160659139Y-91350984D01*
X160691455Y-91493500D01*
X160806814Y-91983997D01*
X160917050Y-92411387D01*
X161029169Y-92796356D01*
X161150179Y-93159592D01*
X161287088Y-93521780D01*
X161446905Y-93903606D01*
X161636636Y-94325758D01*
X161689841Y-94440615D01*
X161964286Y-95067884D01*
X162181990Y-95655517D01*
X162347030Y-96222780D01*
X162463485Y-96788938D01*
X162535433Y-97373257D01*
X162566953Y-97995002D01*
X162564843Y-98573973D01*
X162529754Y-99273947D01*
X162457643Y-99923423D01*
X162344730Y-100549769D01*
X162222423Y-101052803D01*
X162121880Y-101425773D01*
X162628310Y-101932203D01*
X162602287Y-102427852D01*
X162590975Y-102635309D01*
X162580078Y-102821204D01*
X162570924Y-102963638D01*
X162565382Y-103035500D01*
X162568542Y-103071131D01*
X162588654Y-103114762D01*
X162631867Y-103172326D01*
X162704334Y-103249756D01*
X162812203Y-103352983D01*
X162961626Y-103487939D01*
X163158753Y-103660558D01*
X163409736Y-103876770D01*
X163655167Y-104086596D01*
X163975017Y-104359057D01*
X164236462Y-104581578D01*
X164444882Y-104759895D01*
X164605657Y-104899748D01*
X164724165Y-105006874D01*
X164805786Y-105087010D01*
X164855899Y-105145894D01*
X164879885Y-105189265D01*
X164883121Y-105222860D01*
X164870988Y-105252416D01*
X164848865Y-105283672D01*
X164822132Y-105322365D01*
X164818852Y-105327809D01*
X164757854Y-105420422D01*
X164693434Y-105477960D01*
X164599844Y-105515074D01*
X164451333Y-105546411D01*
X164426937Y-105550774D01*
X164267374Y-105579061D01*
X164289093Y-105775281D01*
X164301021Y-105893919D01*
X164317556Y-106072917D01*
X164336534Y-106288238D01*
X164355791Y-106515847D01*
X164356249Y-106521389D01*
X164401686Y-107071278D01*
X164674010Y-107353356D01*
X164793562Y-107483099D01*
X164886231Y-107594922D01*
X164938665Y-107672152D01*
X164945623Y-107692467D01*
X164943288Y-107748222D01*
X164937053Y-107877140D01*
X164927494Y-108067836D01*
X164915188Y-108308927D01*
X164900712Y-108589027D01*
X164884644Y-108896752D01*
X164882645Y-108934834D01*
X164866326Y-109249642D01*
X164851567Y-109542308D01*
X164838956Y-109800543D01*
X164829080Y-110012057D01*
X164822526Y-110164563D01*
X164819881Y-110245771D01*
X164819856Y-110248750D01*
X164805122Y-110324570D01*
X164756391Y-110421879D01*
X164666032Y-110552735D01*
X164526412Y-110729194D01*
X164480658Y-110784561D01*
X164141983Y-111191790D01*
X164093843Y-112062650D01*
X164045703Y-112933511D01*
X164138476Y-113008634D01*
X164231248Y-113083756D01*
X164183157Y-114544128D01*
X164171078Y-114887670D01*
X164158484Y-115204102D01*
X164145880Y-115483523D01*
X164133775Y-115716035D01*
X164122677Y-115891739D01*
X164113092Y-116000736D01*
X164106783Y-116033332D01*
X164062319Y-116050230D01*
X163941427Y-116090359D01*
X163748681Y-116152317D01*
X163488657Y-116234701D01*
X163165929Y-116336110D01*
X162785075Y-116455141D01*
X162350668Y-116590392D01*
X161867284Y-116740462D01*
X161339499Y-116903947D01*
X160771888Y-117079447D01*
X160169025Y-117265558D01*
X159535487Y-117460879D01*
X158875849Y-117664008D01*
X158194686Y-117873542D01*
X157496573Y-118088080D01*
X156786086Y-118306220D01*
X156067799Y-118526558D01*
X155346289Y-118747694D01*
X154626131Y-118968226D01*
X153911900Y-119186750D01*
X153208171Y-119401866D01*
X152519519Y-119612170D01*
X151850521Y-119816261D01*
X151205751Y-120012737D01*
X150589784Y-120200196D01*
X150007197Y-120377235D01*
X149462563Y-120542453D01*
X148960459Y-120694447D01*
X148505460Y-120831815D01*
X148102141Y-120953156D01*
X147755078Y-121057067D01*
X147468845Y-121142146D01*
X147248019Y-121206991D01*
X147097174Y-121250200D01*
X147020886Y-121270370D01*
X147012718Y-121271730D01*
X146954503Y-121260983D01*
X146820295Y-121230715D01*
X146616121Y-121182415D01*
X146348006Y-121117575D01*
X146021977Y-121037684D01*
X145644059Y-120944233D01*
X145220278Y-120838711D01*
X144756660Y-120722609D01*
X144259231Y-120597416D01*
X143734017Y-120464624D01*
X143187043Y-120325722D01*
X143179713Y-120323857D01*
X142634589Y-120185060D01*
X142112734Y-120052077D01*
X141620003Y-119926407D01*
X141162254Y-119809547D01*
X140745344Y-119702998D01*
X140375128Y-119608257D01*
X140057465Y-119526824D01*
X139798209Y-119460198D01*
X139603219Y-119409876D01*
X139478350Y-119377359D01*
X139429459Y-119364145D01*
X139429179Y-119364043D01*
X139430336Y-119321009D01*
X139445968Y-119201268D01*
X139474962Y-119011336D01*
X139516205Y-118757726D01*
X139568585Y-118446951D01*
X139630991Y-118085526D01*
X139702310Y-117679965D01*
X139781429Y-117236781D01*
X139867236Y-116762488D01*
X139958308Y-116265287D01*
X140049895Y-115766121D01*
X140136240Y-115291343D01*
X140216199Y-114847498D01*
X140288631Y-114441129D01*
X140352392Y-114078781D01*
X140406340Y-113766996D01*
X140449332Y-113512319D01*
X140480226Y-113321293D01*
X140497879Y-113200463D01*
X140501180Y-113156402D01*
X140457541Y-113144159D01*
X140336159Y-113114464D01*
X140141898Y-113068433D01*
X139879622Y-113007180D01*
X139554193Y-112931820D01*
X139170476Y-112843468D01*
X138733334Y-112743237D01*
X138247630Y-112632242D01*
X137718228Y-112511599D01*
X137149991Y-112382421D01*
X136547784Y-112245823D01*
X135916469Y-112102920D01*
X135260909Y-111954826D01*
X135069485Y-111911637D01*
X134407552Y-111762300D01*
X133768230Y-111617994D01*
X133156402Y-111479827D01*
X132576952Y-111348902D01*
X132034764Y-111226328D01*
X131534723Y-111113208D01*
X131081711Y-111010649D01*
X130680613Y-110919757D01*
X130336313Y-110841638D01*
X130053694Y-110777397D01*
X129837641Y-110728140D01*
X129693036Y-110694973D01*
X129624765Y-110679002D01*
X129619981Y-110677758D01*
X129592425Y-110630350D01*
X129577634Y-110530548D01*
X129576834Y-110498735D01*
X129576834Y-110334163D01*
X128095198Y-109984525D01*
X128065872Y-109819513D01*
X128058559Y-109736814D01*
X128051829Y-109581281D01*
X128045925Y-109364747D01*
X128041087Y-109099044D01*
X128037558Y-108796005D01*
X128035578Y-108467462D01*
X128035264Y-108321000D01*
X128034059Y-107067330D01*
X128116334Y-107067330D01*
X128121617Y-107725915D01*
X128125204Y-108008100D01*
X128131509Y-108340488D01*
X128139764Y-108688687D01*
X128149197Y-109018303D01*
X128153367Y-109144112D01*
X128179834Y-109903723D01*
X129661500Y-110247167D01*
X129674378Y-110424224D01*
X129689255Y-110538562D01*
X129725235Y-110596214D01*
X129802509Y-110625153D01*
X129822545Y-110629510D01*
X129943621Y-110655490D01*
X130135332Y-110697572D01*
X130391779Y-110754420D01*
X130707065Y-110824699D01*
X131075292Y-110907074D01*
X131490563Y-111000209D01*
X131946980Y-111102770D01*
X132438645Y-111213422D01*
X132959661Y-111330828D01*
X133504130Y-111453654D01*
X134066153Y-111580565D01*
X134639835Y-111710225D01*
X135219276Y-111841299D01*
X135798579Y-111972453D01*
X136371847Y-112102350D01*
X136933182Y-112229655D01*
X137476686Y-112353034D01*
X137996462Y-112471151D01*
X138486611Y-112582671D01*
X138941237Y-112686259D01*
X139354441Y-112780579D01*
X139720326Y-112864296D01*
X140032994Y-112936076D01*
X140286547Y-112994582D01*
X140475089Y-113038480D01*
X140592720Y-113066435D01*
X140633524Y-113077079D01*
X140628035Y-113119654D01*
X140608277Y-113238969D01*
X140575418Y-113428518D01*
X140530629Y-113681795D01*
X140475078Y-113992292D01*
X140409934Y-114353502D01*
X140336367Y-114758920D01*
X140255545Y-115202039D01*
X140168638Y-115676351D01*
X140076846Y-116175179D01*
X139985068Y-116674283D01*
X139898310Y-117148793D01*
X139817734Y-117592193D01*
X139744500Y-117997964D01*
X139679770Y-118359589D01*
X139624703Y-118670551D01*
X139580461Y-118924331D01*
X139548206Y-119114412D01*
X139529097Y-119234276D01*
X139524291Y-119277403D01*
X139570590Y-119293564D01*
X139692042Y-119328138D01*
X139881576Y-119379354D01*
X140132118Y-119445440D01*
X140436596Y-119524624D01*
X140787939Y-119615134D01*
X141179074Y-119715201D01*
X141602929Y-119823052D01*
X142052431Y-119936915D01*
X142520509Y-120055020D01*
X143000090Y-120175594D01*
X143484101Y-120296867D01*
X143965471Y-120417067D01*
X144437128Y-120534422D01*
X144891998Y-120647162D01*
X145323011Y-120753514D01*
X145723093Y-120851707D01*
X146085172Y-120939970D01*
X146402176Y-121016532D01*
X146667033Y-121079620D01*
X146872671Y-121127464D01*
X147012017Y-121158292D01*
X147078000Y-121170333D01*
X147081667Y-121170349D01*
X147131929Y-121156350D01*
X147259280Y-121118585D01*
X147459900Y-121058222D01*
X147729966Y-120976432D01*
X148065658Y-120874383D01*
X148463152Y-120753246D01*
X148918628Y-120614190D01*
X149428264Y-120458384D01*
X149988239Y-120286998D01*
X150594731Y-120101201D01*
X151243917Y-119902163D01*
X151931978Y-119691053D01*
X152655090Y-119469041D01*
X153409434Y-119237296D01*
X154191185Y-118996988D01*
X154996525Y-118749285D01*
X155589983Y-118566663D01*
X156408866Y-118314516D01*
X157206242Y-118068788D01*
X157978333Y-117830652D01*
X158721363Y-117601280D01*
X159431556Y-117381844D01*
X160105136Y-117173515D01*
X160738327Y-116977466D01*
X161327351Y-116794869D01*
X161868433Y-116626897D01*
X162357797Y-116474720D01*
X162791666Y-116339512D01*
X163166263Y-116222444D01*
X163477814Y-116124688D01*
X163722540Y-116047417D01*
X163896667Y-115991802D01*
X163996417Y-115959016D01*
X164020119Y-115950151D01*
X164027827Y-115902008D01*
X164036941Y-115779368D01*
X164047004Y-115592382D01*
X164057557Y-115351199D01*
X164068142Y-115065970D01*
X164078301Y-114746844D01*
X164084544Y-114522834D01*
X164094458Y-114142499D01*
X164101812Y-113837781D01*
X164106278Y-113599657D01*
X164107528Y-113419108D01*
X164105235Y-113287112D01*
X164099071Y-113194648D01*
X164088708Y-113132695D01*
X164073819Y-113092232D01*
X164054076Y-113064237D01*
X164030731Y-113041167D01*
X164000788Y-113011135D01*
X163978978Y-112977154D01*
X163964824Y-112927580D01*
X163957847Y-112850773D01*
X163957569Y-112735090D01*
X163963511Y-112568888D01*
X163975196Y-112340526D01*
X163990632Y-112065066D01*
X164011535Y-111729171D01*
X164032069Y-111470922D01*
X164053035Y-111283308D01*
X164075232Y-111159316D01*
X164099462Y-111091933D01*
X164102142Y-111087877D01*
X164155138Y-111019329D01*
X164247756Y-110905104D01*
X164364682Y-110763950D01*
X164438334Y-110676266D01*
X164713500Y-110350409D01*
X164777000Y-109018457D01*
X164840500Y-107686504D01*
X164569218Y-107386386D01*
X164297935Y-107086268D01*
X164243225Y-106444217D01*
X164216982Y-106138104D01*
X164198303Y-105905871D01*
X164188666Y-105736951D01*
X164189548Y-105620774D01*
X164202426Y-105546774D01*
X164228778Y-105504384D01*
X164270082Y-105483034D01*
X164327815Y-105472159D01*
X164380149Y-105464916D01*
X164516508Y-105425813D01*
X164643490Y-105359002D01*
X164737439Y-105280321D01*
X164774698Y-105205609D01*
X164774565Y-105200841D01*
X164742853Y-105166643D01*
X164653664Y-105084124D01*
X164514198Y-104959604D01*
X164331655Y-104799402D01*
X164113235Y-104609835D01*
X163866138Y-104397223D01*
X163597563Y-104167884D01*
X163596326Y-104166831D01*
X162420524Y-103166496D01*
X162475248Y-102854498D01*
X162504195Y-102650358D01*
X162524663Y-102431896D01*
X162531653Y-102271329D01*
X162510257Y-102048121D01*
X162435379Y-101868531D01*
X162295667Y-101712560D01*
X162155030Y-101607926D01*
X161995243Y-101502184D01*
X162075066Y-101218009D01*
X162147678Y-100933229D01*
X162222648Y-100593611D01*
X162294948Y-100226228D01*
X162359548Y-99858154D01*
X162411418Y-99516465D01*
X162445530Y-99228233D01*
X162446350Y-99219334D01*
X162488822Y-98342052D01*
X162453109Y-97495487D01*
X162338786Y-96676860D01*
X162145429Y-95883393D01*
X161872612Y-95112307D01*
X161787400Y-94912404D01*
X161611933Y-94514412D01*
X161467013Y-94183760D01*
X161348568Y-93910520D01*
X161252527Y-93684765D01*
X161174819Y-93496569D01*
X161111373Y-93336005D01*
X161058117Y-93193146D01*
X161010980Y-93058065D01*
X160965891Y-92920835D01*
X160949483Y-92869334D01*
X160887241Y-92661269D01*
X160813413Y-92396322D01*
X160734875Y-92100243D01*
X160658505Y-91798777D01*
X160610255Y-91599334D01*
X160545442Y-91327206D01*
X160495667Y-91126875D01*
X160457008Y-90987620D01*
X160425543Y-90898722D01*
X160397348Y-90849460D01*
X160368502Y-90829115D01*
X160335082Y-90826966D01*
X160327923Y-90827727D01*
X160199190Y-90876302D01*
X160086965Y-90994050D01*
X159984699Y-91186690D01*
X159907097Y-91331250D01*
X159825289Y-91425567D01*
X159750858Y-91460170D01*
X159695390Y-91425587D01*
X159694470Y-91423975D01*
X159654506Y-91363307D01*
X159565673Y-91236431D01*
X159429362Y-91045278D01*
X159246965Y-90791775D01*
X159019871Y-90477850D01*
X158749472Y-90105433D01*
X158437158Y-89676452D01*
X158181476Y-89325913D01*
X157712707Y-88673131D01*
X157299111Y-88073911D01*
X156936642Y-87521302D01*
X156621256Y-87008355D01*
X156348908Y-86528120D01*
X156115551Y-86073645D01*
X155917143Y-85637981D01*
X155749636Y-85214178D01*
X155689835Y-85044826D01*
X155569500Y-84692151D01*
X155421334Y-84714877D01*
X155314949Y-84744933D01*
X155162584Y-84804835D01*
X154992243Y-84883263D01*
X154941647Y-84908801D01*
X154791747Y-84985241D01*
X154672785Y-85044082D01*
X154602884Y-85076440D01*
X154592397Y-85080000D01*
X154580519Y-85042811D01*
X154574767Y-84951753D01*
X154574667Y-84936510D01*
X154559868Y-84739980D01*
X154514795Y-84484427D01*
X154438431Y-84165817D01*
X154329761Y-83780113D01*
X154187770Y-83323280D01*
X154104703Y-83069167D01*
X153965695Y-82643902D01*
X153853472Y-82284465D01*
X153765239Y-81977353D01*
X153698200Y-81709063D01*
X153649560Y-81466091D01*
X153616525Y-81234935D01*
X153596298Y-81002091D01*
X153586086Y-80754056D01*
X153583319Y-80550334D01*
X153584125Y-80307617D01*
X153588687Y-80080841D01*
X153596331Y-79889999D01*
X153606382Y-79755085D01*
X153611356Y-79718801D01*
X153642879Y-79543436D01*
X153471866Y-79581860D01*
X153373440Y-79616868D01*
X153213925Y-79688966D01*
X153004967Y-79791905D01*
X152758210Y-79919434D01*
X152485299Y-80065305D01*
X152197879Y-80223268D01*
X151907595Y-80387073D01*
X151626090Y-80550471D01*
X151365011Y-80707212D01*
X151297931Y-80748573D01*
X150473793Y-81303497D01*
X149714043Y-81904409D01*
X149021112Y-82548586D01*
X148397433Y-83233307D01*
X147845441Y-83955847D01*
X147367566Y-84713485D01*
X146966242Y-85503498D01*
X146886818Y-85685256D01*
X146842324Y-85792322D01*
X146804202Y-85870790D01*
X146761239Y-85920174D01*
X146702223Y-85939986D01*
X146615943Y-85929742D01*
X146491186Y-85888953D01*
X146316741Y-85817134D01*
X146081395Y-85713799D01*
X145922037Y-85643400D01*
X145685424Y-85539919D01*
X145509928Y-85466513D01*
X145379414Y-85418605D01*
X145277748Y-85391616D01*
X145188796Y-85380971D01*
X145096424Y-85382091D01*
X145020083Y-85387505D01*
X144876521Y-85402145D01*
X144769624Y-85418858D01*
X144725156Y-85432733D01*
X144727197Y-85480274D01*
X144750801Y-85590968D01*
X144791809Y-85747304D01*
X144835409Y-85896957D01*
X145019178Y-86603222D01*
X145132347Y-87275907D01*
X145174583Y-87911639D01*
X145145552Y-88507051D01*
X145115527Y-88723468D01*
X145082357Y-88908978D01*
X145050160Y-89063159D01*
X145023205Y-89166902D01*
X145009123Y-89199980D01*
X144960908Y-89195197D01*
X144853068Y-89157154D01*
X144700912Y-89092003D01*
X144519751Y-89005892D01*
X144494153Y-88993121D01*
X144109784Y-88808166D01*
X143789247Y-88671375D01*
X143528014Y-88580959D01*
X143340632Y-88537877D01*
X143176765Y-88512662D01*
X143203633Y-88680690D01*
X143256163Y-89180856D01*
X143251519Y-89653299D01*
X143233229Y-89831252D01*
X143193215Y-90086155D01*
X143141497Y-90314266D01*
X143071300Y-90531746D01*
X142975847Y-90754753D01*
X142848365Y-90999446D01*
X142682076Y-91281984D01*
X142509608Y-91557000D01*
X142380579Y-91761478D01*
X142216252Y-92025710D01*
X142024596Y-92336674D01*
X141813578Y-92681348D01*
X141591167Y-93046709D01*
X141365332Y-93419735D01*
X141144040Y-93787404D01*
X141105417Y-93851822D01*
X140879480Y-94228541D01*
X140692567Y-94538834D01*
X140540376Y-94789019D01*
X140418609Y-94985414D01*
X140322965Y-95134335D01*
X140249144Y-95242101D01*
X140192845Y-95315028D01*
X140149768Y-95359435D01*
X140115613Y-95381638D01*
X140086079Y-95387954D01*
X140061402Y-95385552D01*
X140000938Y-95377181D01*
X139863629Y-95359698D01*
X139656706Y-95333983D01*
X139387399Y-95300916D01*
X139062939Y-95261377D01*
X138690556Y-95216247D01*
X138277481Y-95166403D01*
X137830944Y-95112727D01*
X137358175Y-95056098D01*
X137119618Y-95027596D01*
X136558674Y-94960773D01*
X136075230Y-94903595D01*
X135662739Y-94855456D01*
X135314659Y-94815751D01*
X135024445Y-94783871D01*
X134785550Y-94759213D01*
X134591433Y-94741167D01*
X134435546Y-94729130D01*
X134311347Y-94722493D01*
X134212290Y-94720651D01*
X134131831Y-94722997D01*
X134063425Y-94728925D01*
X134000528Y-94737828D01*
X133997534Y-94738320D01*
X133852944Y-94768331D01*
X133748369Y-94801737D01*
X133705028Y-94831641D01*
X133704836Y-94833454D01*
X133715872Y-94899228D01*
X133743692Y-95018838D01*
X133781324Y-95164853D01*
X133821797Y-95309843D01*
X133846874Y-95392265D01*
X133844754Y-95417504D01*
X133824225Y-95459117D01*
X133781676Y-95521122D01*
X133713497Y-95607538D01*
X133616077Y-95722382D01*
X133485805Y-95869674D01*
X133319069Y-96053430D01*
X133112259Y-96277670D01*
X132861765Y-96546411D01*
X132563974Y-96863672D01*
X132215277Y-97233470D01*
X131812061Y-97659824D01*
X131754518Y-97720598D01*
X129633780Y-99960167D01*
X129660309Y-103029334D01*
X129664944Y-103534129D01*
X129669892Y-104016031D01*
X129675050Y-104468062D01*
X129680315Y-104883246D01*
X129685581Y-105254606D01*
X129690745Y-105575167D01*
X129695702Y-105837950D01*
X129700348Y-106035980D01*
X129704579Y-106162279D01*
X129707785Y-106208099D01*
X129711515Y-106246084D01*
X129700572Y-106280942D01*
X129665540Y-106318481D01*
X129597006Y-106364510D01*
X129485555Y-106424835D01*
X129321772Y-106505264D01*
X129096244Y-106611605D01*
X128922533Y-106692514D01*
X128116334Y-107067330D01*
X128034059Y-107067330D01*
X128033982Y-106987500D01*
X129606542Y-106267834D01*
X129580764Y-104214667D01*
X129574736Y-103755986D01*
X129568017Y-103282218D01*
X129560855Y-102808489D01*
X129553496Y-102349926D01*
X129546189Y-101921655D01*
X129539179Y-101538804D01*
X129532714Y-101216500D01*
X129529233Y-101059863D01*
X129503479Y-99958225D01*
X131482038Y-97863696D01*
X131820259Y-97505675D01*
X132144579Y-97162415D01*
X132449799Y-96839417D01*
X132730716Y-96542182D01*
X132982132Y-96276211D01*
X133198846Y-96047006D01*
X133375656Y-95860069D01*
X133507363Y-95720899D01*
X133588765Y-95635000D01*
X133609126Y-95613589D01*
X133757654Y-95458012D01*
X133667494Y-95123873D01*
X133625517Y-94963305D01*
X133593955Y-94833049D01*
X133578186Y-94755616D01*
X133577334Y-94746522D01*
X133616113Y-94720996D01*
X133719625Y-94689971D01*
X133868629Y-94658759D01*
X133935689Y-94647563D01*
X134007249Y-94636906D01*
X134076453Y-94628639D01*
X134149896Y-94623353D01*
X134234175Y-94621636D01*
X134335886Y-94624076D01*
X134461625Y-94631262D01*
X134617989Y-94643782D01*
X134811574Y-94662226D01*
X135048977Y-94687182D01*
X135336794Y-94719238D01*
X135681620Y-94758983D01*
X136090053Y-94807006D01*
X136568688Y-94863895D01*
X137124122Y-94930239D01*
X137184773Y-94937491D01*
X137670256Y-94995490D01*
X138130990Y-95050425D01*
X138560097Y-95101482D01*
X138950701Y-95147849D01*
X139295923Y-95188711D01*
X139588887Y-95223257D01*
X139822716Y-95250673D01*
X139990530Y-95270145D01*
X140085455Y-95280861D01*
X140104711Y-95282750D01*
X140132680Y-95247620D01*
X140198245Y-95148230D01*
X140296021Y-94993269D01*
X140420624Y-94791422D01*
X140566668Y-94551376D01*
X140728768Y-94281819D01*
X140820069Y-94128750D01*
X141035398Y-93768886D01*
X141279845Y-93363984D01*
X141538364Y-92938727D01*
X141795914Y-92517796D01*
X142037451Y-92125875D01*
X142205735Y-91855109D01*
X142433332Y-91489078D01*
X142619481Y-91183300D01*
X142768368Y-90926715D01*
X142884184Y-90708263D01*
X142971116Y-90516883D01*
X143033352Y-90341516D01*
X143075081Y-90171100D01*
X143100492Y-89994576D01*
X143113772Y-89800882D01*
X143119111Y-89578960D01*
X143120182Y-89440334D01*
X143119059Y-89197130D01*
X143113737Y-88969393D01*
X143104990Y-88777275D01*
X143093593Y-88640929D01*
X143088029Y-88604250D01*
X143052558Y-88424334D01*
X143199987Y-88424334D01*
X143392943Y-88448627D01*
X143645241Y-88519354D01*
X143947652Y-88633279D01*
X144290948Y-88787169D01*
X144429685Y-88855195D01*
X144616123Y-88946868D01*
X144773785Y-89021013D01*
X144888233Y-89071091D01*
X144945027Y-89090565D01*
X144948386Y-89090058D01*
X144974504Y-89025323D01*
X145000976Y-88893715D01*
X145026111Y-88713003D01*
X145048218Y-88500955D01*
X145065604Y-88275342D01*
X145076578Y-88053930D01*
X145079447Y-87854491D01*
X145076271Y-87747000D01*
X145060877Y-87509119D01*
X145040153Y-87290269D01*
X145011275Y-87076955D01*
X144971422Y-86855682D01*
X144917773Y-86612954D01*
X144847506Y-86335276D01*
X144757799Y-86009153D01*
X144645831Y-85621089D01*
X144597217Y-85455790D01*
X144617190Y-85392410D01*
X144709992Y-85341720D01*
X144864272Y-85307338D01*
X145068680Y-85292882D01*
X145108901Y-85292672D01*
X145202288Y-85294341D01*
X145285740Y-85301425D01*
X145372119Y-85318237D01*
X145474288Y-85349088D01*
X145605108Y-85398293D01*
X145777443Y-85470164D01*
X146004155Y-85569012D01*
X146226534Y-85667404D01*
X146397080Y-85740877D01*
X146541223Y-85798981D01*
X146639951Y-85834271D01*
X146671034Y-85841448D01*
X146709441Y-85804734D01*
X146767884Y-85707325D01*
X146835897Y-85567507D01*
X146861133Y-85509305D01*
X147183044Y-84838251D01*
X147581817Y-84169158D01*
X148049984Y-83511504D01*
X148580073Y-82874769D01*
X149164615Y-82268431D01*
X149796141Y-81701971D01*
X149978506Y-81553287D01*
X150261147Y-81337161D01*
X150579823Y-81109781D01*
X150924795Y-80876802D01*
X151286324Y-80643881D01*
X151654671Y-80416673D01*
X152020098Y-80200833D01*
X152372864Y-80002018D01*
X152703233Y-79825882D01*
X153001463Y-79678082D01*
X153257817Y-79564274D01*
X153462555Y-79490112D01*
X153576361Y-79463913D01*
X153698812Y-79450798D01*
X153755491Y-79457080D01*
G37*
X153755491Y-79457080D02*
X153763901Y-79486860D01*
X153757625Y-79506391D01*
X153742330Y-79575790D01*
X153721975Y-79708729D01*
X153699501Y-79884459D01*
X153682593Y-80035958D01*
X153659328Y-80341853D01*
X153656295Y-80642270D01*
X153675487Y-80948678D01*
X153718895Y-81272548D01*
X153788514Y-81625350D01*
X153886335Y-82018553D01*
X154014353Y-82463629D01*
X154174559Y-82972048D01*
X154213267Y-83090334D01*
X154371216Y-83584068D01*
X154494738Y-84000632D01*
X154583876Y-84340187D01*
X154638672Y-84602897D01*
X154659169Y-84788923D01*
X154659334Y-84803049D01*
X154661900Y-84871759D01*
X154681002Y-84901116D01*
X154733738Y-84891500D01*
X154837212Y-84843295D01*
X154905966Y-84808567D01*
X155063276Y-84737426D01*
X155232785Y-84674321D01*
X155394308Y-84625082D01*
X155527661Y-84595540D01*
X155612657Y-84591525D01*
X155629680Y-84599516D01*
X155655892Y-84653739D01*
X155699977Y-84768079D01*
X155754186Y-84921956D01*
X155778738Y-84995334D01*
X155904811Y-85349238D01*
X156053255Y-85709970D01*
X156227706Y-86083634D01*
X156431802Y-86476330D01*
X156669178Y-86894162D01*
X156943473Y-87343232D01*
X157258323Y-87829643D01*
X157617366Y-88359496D01*
X158024237Y-88938895D01*
X158482575Y-89573941D01*
X158617161Y-89757834D01*
X158811845Y-90023785D01*
X159002832Y-90285884D01*
X159180494Y-90530828D01*
X159335202Y-90745311D01*
X159457325Y-90916030D01*
X159527246Y-91015249D01*
X159628707Y-91154109D01*
X159714674Y-91258682D01*
X159772938Y-91314761D01*
X159788864Y-91319719D01*
X159824445Y-91272391D01*
X159881068Y-91171677D01*
X159933140Y-91067054D01*
X160037496Y-90890519D01*
X160163939Y-90777349D01*
X160338082Y-90706317D01*
X160382037Y-90695024D01*
X160422984Y-90683542D01*
X160454249Y-90678436D01*
X160479772Y-90689871D01*
X160503493Y-90728014D01*
X160529350Y-90803030D01*
X160561284Y-90925086D01*
X160603234Y-91104349D01*
X160659139Y-91350984D01*
X160691455Y-91493500D01*
X160806814Y-91983997D01*
X160917050Y-92411387D01*
X161029169Y-92796356D01*
X161150179Y-93159592D01*
X161287088Y-93521780D01*
X161446905Y-93903606D01*
X161636636Y-94325758D01*
X161689841Y-94440615D01*
X161964286Y-95067884D01*
X162181990Y-95655517D01*
X162347030Y-96222780D01*
X162463485Y-96788938D01*
X162535433Y-97373257D01*
X162566953Y-97995002D01*
X162564843Y-98573973D01*
X162529754Y-99273947D01*
X162457643Y-99923423D01*
X162344730Y-100549769D01*
X162222423Y-101052803D01*
X162121880Y-101425773D01*
X162628310Y-101932203D01*
X162602287Y-102427852D01*
X162590975Y-102635309D01*
X162580078Y-102821204D01*
X162570924Y-102963638D01*
X162565382Y-103035500D01*
X162568542Y-103071131D01*
X162588654Y-103114762D01*
X162631867Y-103172326D01*
X162704334Y-103249756D01*
X162812203Y-103352983D01*
X162961626Y-103487939D01*
X163158753Y-103660558D01*
X163409736Y-103876770D01*
X163655167Y-104086596D01*
X163975017Y-104359057D01*
X164236462Y-104581578D01*
X164444882Y-104759895D01*
X164605657Y-104899748D01*
X164724165Y-105006874D01*
X164805786Y-105087010D01*
X164855899Y-105145894D01*
X164879885Y-105189265D01*
X164883121Y-105222860D01*
X164870988Y-105252416D01*
X164848865Y-105283672D01*
X164822132Y-105322365D01*
X164818852Y-105327809D01*
X164757854Y-105420422D01*
X164693434Y-105477960D01*
X164599844Y-105515074D01*
X164451333Y-105546411D01*
X164426937Y-105550774D01*
X164267374Y-105579061D01*
X164289093Y-105775281D01*
X164301021Y-105893919D01*
X164317556Y-106072917D01*
X164336534Y-106288238D01*
X164355791Y-106515847D01*
X164356249Y-106521389D01*
X164401686Y-107071278D01*
X164674010Y-107353356D01*
X164793562Y-107483099D01*
X164886231Y-107594922D01*
X164938665Y-107672152D01*
X164945623Y-107692467D01*
X164943288Y-107748222D01*
X164937053Y-107877140D01*
X164927494Y-108067836D01*
X164915188Y-108308927D01*
X164900712Y-108589027D01*
X164884644Y-108896752D01*
X164882645Y-108934834D01*
X164866326Y-109249642D01*
X164851567Y-109542308D01*
X164838956Y-109800543D01*
X164829080Y-110012057D01*
X164822526Y-110164563D01*
X164819881Y-110245771D01*
X164819856Y-110248750D01*
X164805122Y-110324570D01*
X164756391Y-110421879D01*
X164666032Y-110552735D01*
X164526412Y-110729194D01*
X164480658Y-110784561D01*
X164141983Y-111191790D01*
X164093843Y-112062650D01*
X164045703Y-112933511D01*
X164138476Y-113008634D01*
X164231248Y-113083756D01*
X164183157Y-114544128D01*
X164171078Y-114887670D01*
X164158484Y-115204102D01*
X164145880Y-115483523D01*
X164133775Y-115716035D01*
X164122677Y-115891739D01*
X164113092Y-116000736D01*
X164106783Y-116033332D01*
X164062319Y-116050230D01*
X163941427Y-116090359D01*
X163748681Y-116152317D01*
X163488657Y-116234701D01*
X163165929Y-116336110D01*
X162785075Y-116455141D01*
X162350668Y-116590392D01*
X161867284Y-116740462D01*
X161339499Y-116903947D01*
X160771888Y-117079447D01*
X160169025Y-117265558D01*
X159535487Y-117460879D01*
X158875849Y-117664008D01*
X158194686Y-117873542D01*
X157496573Y-118088080D01*
X156786086Y-118306220D01*
X156067799Y-118526558D01*
X155346289Y-118747694D01*
X154626131Y-118968226D01*
X153911900Y-119186750D01*
X153208171Y-119401866D01*
X152519519Y-119612170D01*
X151850521Y-119816261D01*
X151205751Y-120012737D01*
X150589784Y-120200196D01*
X150007197Y-120377235D01*
X149462563Y-120542453D01*
X148960459Y-120694447D01*
X148505460Y-120831815D01*
X148102141Y-120953156D01*
X147755078Y-121057067D01*
X147468845Y-121142146D01*
X147248019Y-121206991D01*
X147097174Y-121250200D01*
X147020886Y-121270370D01*
X147012718Y-121271730D01*
X146954503Y-121260983D01*
X146820295Y-121230715D01*
X146616121Y-121182415D01*
X146348006Y-121117575D01*
X146021977Y-121037684D01*
X145644059Y-120944233D01*
X145220278Y-120838711D01*
X144756660Y-120722609D01*
X144259231Y-120597416D01*
X143734017Y-120464624D01*
X143187043Y-120325722D01*
X143179713Y-120323857D01*
X142634589Y-120185060D01*
X142112734Y-120052077D01*
X141620003Y-119926407D01*
X141162254Y-119809547D01*
X140745344Y-119702998D01*
X140375128Y-119608257D01*
X140057465Y-119526824D01*
X139798209Y-119460198D01*
X139603219Y-119409876D01*
X139478350Y-119377359D01*
X139429459Y-119364145D01*
X139429179Y-119364043D01*
X139430336Y-119321009D01*
X139445968Y-119201268D01*
X139474962Y-119011336D01*
X139516205Y-118757726D01*
X139568585Y-118446951D01*
X139630991Y-118085526D01*
X139702310Y-117679965D01*
X139781429Y-117236781D01*
X139867236Y-116762488D01*
X139958308Y-116265287D01*
X140049895Y-115766121D01*
X140136240Y-115291343D01*
X140216199Y-114847498D01*
X140288631Y-114441129D01*
X140352392Y-114078781D01*
X140406340Y-113766996D01*
X140449332Y-113512319D01*
X140480226Y-113321293D01*
X140497879Y-113200463D01*
X140501180Y-113156402D01*
X140457541Y-113144159D01*
X140336159Y-113114464D01*
X140141898Y-113068433D01*
X139879622Y-113007180D01*
X139554193Y-112931820D01*
X139170476Y-112843468D01*
X138733334Y-112743237D01*
X138247630Y-112632242D01*
X137718228Y-112511599D01*
X137149991Y-112382421D01*
X136547784Y-112245823D01*
X135916469Y-112102920D01*
X135260909Y-111954826D01*
X135069485Y-111911637D01*
X134407552Y-111762300D01*
X133768230Y-111617994D01*
X133156402Y-111479827D01*
X132576952Y-111348902D01*
X132034764Y-111226328D01*
X131534723Y-111113208D01*
X131081711Y-111010649D01*
X130680613Y-110919757D01*
X130336313Y-110841638D01*
X130053694Y-110777397D01*
X129837641Y-110728140D01*
X129693036Y-110694973D01*
X129624765Y-110679002D01*
X129619981Y-110677758D01*
X129592425Y-110630350D01*
X129577634Y-110530548D01*
X129576834Y-110498735D01*
X129576834Y-110334163D01*
X128095198Y-109984525D01*
X128065872Y-109819513D01*
X128058559Y-109736814D01*
X128051829Y-109581281D01*
X128045925Y-109364747D01*
X128041087Y-109099044D01*
X128037558Y-108796005D01*
X128035578Y-108467462D01*
X128035264Y-108321000D01*
X128034059Y-107067330D01*
X128116334Y-107067330D01*
X128121617Y-107725915D01*
X128125204Y-108008100D01*
X128131509Y-108340488D01*
X128139764Y-108688687D01*
X128149197Y-109018303D01*
X128153367Y-109144112D01*
X128179834Y-109903723D01*
X129661500Y-110247167D01*
X129674378Y-110424224D01*
X129689255Y-110538562D01*
X129725235Y-110596214D01*
X129802509Y-110625153D01*
X129822545Y-110629510D01*
X129943621Y-110655490D01*
X130135332Y-110697572D01*
X130391779Y-110754420D01*
X130707065Y-110824699D01*
X131075292Y-110907074D01*
X131490563Y-111000209D01*
X131946980Y-111102770D01*
X132438645Y-111213422D01*
X132959661Y-111330828D01*
X133504130Y-111453654D01*
X134066153Y-111580565D01*
X134639835Y-111710225D01*
X135219276Y-111841299D01*
X135798579Y-111972453D01*
X136371847Y-112102350D01*
X136933182Y-112229655D01*
X137476686Y-112353034D01*
X137996462Y-112471151D01*
X138486611Y-112582671D01*
X138941237Y-112686259D01*
X139354441Y-112780579D01*
X139720326Y-112864296D01*
X140032994Y-112936076D01*
X140286547Y-112994582D01*
X140475089Y-113038480D01*
X140592720Y-113066435D01*
X140633524Y-113077079D01*
X140628035Y-113119654D01*
X140608277Y-113238969D01*
X140575418Y-113428518D01*
X140530629Y-113681795D01*
X140475078Y-113992292D01*
X140409934Y-114353502D01*
X140336367Y-114758920D01*
X140255545Y-115202039D01*
X140168638Y-115676351D01*
X140076846Y-116175179D01*
X139985068Y-116674283D01*
X139898310Y-117148793D01*
X139817734Y-117592193D01*
X139744500Y-117997964D01*
X139679770Y-118359589D01*
X139624703Y-118670551D01*
X139580461Y-118924331D01*
X139548206Y-119114412D01*
X139529097Y-119234276D01*
X139524291Y-119277403D01*
X139570590Y-119293564D01*
X139692042Y-119328138D01*
X139881576Y-119379354D01*
X140132118Y-119445440D01*
X140436596Y-119524624D01*
X140787939Y-119615134D01*
X141179074Y-119715201D01*
X141602929Y-119823052D01*
X142052431Y-119936915D01*
X142520509Y-120055020D01*
X143000090Y-120175594D01*
X143484101Y-120296867D01*
X143965471Y-120417067D01*
X144437128Y-120534422D01*
X144891998Y-120647162D01*
X145323011Y-120753514D01*
X145723093Y-120851707D01*
X146085172Y-120939970D01*
X146402176Y-121016532D01*
X146667033Y-121079620D01*
X146872671Y-121127464D01*
X147012017Y-121158292D01*
X147078000Y-121170333D01*
X147081667Y-121170349D01*
X147131929Y-121156350D01*
X147259280Y-121118585D01*
X147459900Y-121058222D01*
X147729966Y-120976432D01*
X148065658Y-120874383D01*
X148463152Y-120753246D01*
X148918628Y-120614190D01*
X149428264Y-120458384D01*
X149988239Y-120286998D01*
X150594731Y-120101201D01*
X151243917Y-119902163D01*
X151931978Y-119691053D01*
X152655090Y-119469041D01*
X153409434Y-119237296D01*
X154191185Y-118996988D01*
X154996525Y-118749285D01*
X155589983Y-118566663D01*
X156408866Y-118314516D01*
X157206242Y-118068788D01*
X157978333Y-117830652D01*
X158721363Y-117601280D01*
X159431556Y-117381844D01*
X160105136Y-117173515D01*
X160738327Y-116977466D01*
X161327351Y-116794869D01*
X161868433Y-116626897D01*
X162357797Y-116474720D01*
X162791666Y-116339512D01*
X163166263Y-116222444D01*
X163477814Y-116124688D01*
X163722540Y-116047417D01*
X163896667Y-115991802D01*
X163996417Y-115959016D01*
X164020119Y-115950151D01*
X164027827Y-115902008D01*
X164036941Y-115779368D01*
X164047004Y-115592382D01*
X164057557Y-115351199D01*
X164068142Y-115065970D01*
X164078301Y-114746844D01*
X164084544Y-114522834D01*
X164094458Y-114142499D01*
X164101812Y-113837781D01*
X164106278Y-113599657D01*
X164107528Y-113419108D01*
X164105235Y-113287112D01*
X164099071Y-113194648D01*
X164088708Y-113132695D01*
X164073819Y-113092232D01*
X164054076Y-113064237D01*
X164030731Y-113041167D01*
X164000788Y-113011135D01*
X163978978Y-112977154D01*
X163964824Y-112927580D01*
X163957847Y-112850773D01*
X163957569Y-112735090D01*
X163963511Y-112568888D01*
X163975196Y-112340526D01*
X163990632Y-112065066D01*
X164011535Y-111729171D01*
X164032069Y-111470922D01*
X164053035Y-111283308D01*
X164075232Y-111159316D01*
X164099462Y-111091933D01*
X164102142Y-111087877D01*
X164155138Y-111019329D01*
X164247756Y-110905104D01*
X164364682Y-110763950D01*
X164438334Y-110676266D01*
X164713500Y-110350409D01*
X164777000Y-109018457D01*
X164840500Y-107686504D01*
X164569218Y-107386386D01*
X164297935Y-107086268D01*
X164243225Y-106444217D01*
X164216982Y-106138104D01*
X164198303Y-105905871D01*
X164188666Y-105736951D01*
X164189548Y-105620774D01*
X164202426Y-105546774D01*
X164228778Y-105504384D01*
X164270082Y-105483034D01*
X164327815Y-105472159D01*
X164380149Y-105464916D01*
X164516508Y-105425813D01*
X164643490Y-105359002D01*
X164737439Y-105280321D01*
X164774698Y-105205609D01*
X164774565Y-105200841D01*
X164742853Y-105166643D01*
X164653664Y-105084124D01*
X164514198Y-104959604D01*
X164331655Y-104799402D01*
X164113235Y-104609835D01*
X163866138Y-104397223D01*
X163597563Y-104167884D01*
X163596326Y-104166831D01*
X162420524Y-103166496D01*
X162475248Y-102854498D01*
X162504195Y-102650358D01*
X162524663Y-102431896D01*
X162531653Y-102271329D01*
X162510257Y-102048121D01*
X162435379Y-101868531D01*
X162295667Y-101712560D01*
X162155030Y-101607926D01*
X161995243Y-101502184D01*
X162075066Y-101218009D01*
X162147678Y-100933229D01*
X162222648Y-100593611D01*
X162294948Y-100226228D01*
X162359548Y-99858154D01*
X162411418Y-99516465D01*
X162445530Y-99228233D01*
X162446350Y-99219334D01*
X162488822Y-98342052D01*
X162453109Y-97495487D01*
X162338786Y-96676860D01*
X162145429Y-95883393D01*
X161872612Y-95112307D01*
X161787400Y-94912404D01*
X161611933Y-94514412D01*
X161467013Y-94183760D01*
X161348568Y-93910520D01*
X161252527Y-93684765D01*
X161174819Y-93496569D01*
X161111373Y-93336005D01*
X161058117Y-93193146D01*
X161010980Y-93058065D01*
X160965891Y-92920835D01*
X160949483Y-92869334D01*
X160887241Y-92661269D01*
X160813413Y-92396322D01*
X160734875Y-92100243D01*
X160658505Y-91798777D01*
X160610255Y-91599334D01*
X160545442Y-91327206D01*
X160495667Y-91126875D01*
X160457008Y-90987620D01*
X160425543Y-90898722D01*
X160397348Y-90849460D01*
X160368502Y-90829115D01*
X160335082Y-90826966D01*
X160327923Y-90827727D01*
X160199190Y-90876302D01*
X160086965Y-90994050D01*
X159984699Y-91186690D01*
X159907097Y-91331250D01*
X159825289Y-91425567D01*
X159750858Y-91460170D01*
X159695390Y-91425587D01*
X159694470Y-91423975D01*
X159654506Y-91363307D01*
X159565673Y-91236431D01*
X159429362Y-91045278D01*
X159246965Y-90791775D01*
X159019871Y-90477850D01*
X158749472Y-90105433D01*
X158437158Y-89676452D01*
X158181476Y-89325913D01*
X157712707Y-88673131D01*
X157299111Y-88073911D01*
X156936642Y-87521302D01*
X156621256Y-87008355D01*
X156348908Y-86528120D01*
X156115551Y-86073645D01*
X155917143Y-85637981D01*
X155749636Y-85214178D01*
X155689835Y-85044826D01*
X155569500Y-84692151D01*
X155421334Y-84714877D01*
X155314949Y-84744933D01*
X155162584Y-84804835D01*
X154992243Y-84883263D01*
X154941647Y-84908801D01*
X154791747Y-84985241D01*
X154672785Y-85044082D01*
X154602884Y-85076440D01*
X154592397Y-85080000D01*
X154580519Y-85042811D01*
X154574767Y-84951753D01*
X154574667Y-84936510D01*
X154559868Y-84739980D01*
X154514795Y-84484427D01*
X154438431Y-84165817D01*
X154329761Y-83780113D01*
X154187770Y-83323280D01*
X154104703Y-83069167D01*
X153965695Y-82643902D01*
X153853472Y-82284465D01*
X153765239Y-81977353D01*
X153698200Y-81709063D01*
X153649560Y-81466091D01*
X153616525Y-81234935D01*
X153596298Y-81002091D01*
X153586086Y-80754056D01*
X153583319Y-80550334D01*
X153584125Y-80307617D01*
X153588687Y-80080841D01*
X153596331Y-79889999D01*
X153606382Y-79755085D01*
X153611356Y-79718801D01*
X153642879Y-79543436D01*
X153471866Y-79581860D01*
X153373440Y-79616868D01*
X153213925Y-79688966D01*
X153004967Y-79791905D01*
X152758210Y-79919434D01*
X152485299Y-80065305D01*
X152197879Y-80223268D01*
X151907595Y-80387073D01*
X151626090Y-80550471D01*
X151365011Y-80707212D01*
X151297931Y-80748573D01*
X150473793Y-81303497D01*
X149714043Y-81904409D01*
X149021112Y-82548586D01*
X148397433Y-83233307D01*
X147845441Y-83955847D01*
X147367566Y-84713485D01*
X146966242Y-85503498D01*
X146886818Y-85685256D01*
X146842324Y-85792322D01*
X146804202Y-85870790D01*
X146761239Y-85920174D01*
X146702223Y-85939986D01*
X146615943Y-85929742D01*
X146491186Y-85888953D01*
X146316741Y-85817134D01*
X146081395Y-85713799D01*
X145922037Y-85643400D01*
X145685424Y-85539919D01*
X145509928Y-85466513D01*
X145379414Y-85418605D01*
X145277748Y-85391616D01*
X145188796Y-85380971D01*
X145096424Y-85382091D01*
X145020083Y-85387505D01*
X144876521Y-85402145D01*
X144769624Y-85418858D01*
X144725156Y-85432733D01*
X144727197Y-85480274D01*
X144750801Y-85590968D01*
X144791809Y-85747304D01*
X144835409Y-85896957D01*
X145019178Y-86603222D01*
X145132347Y-87275907D01*
X145174583Y-87911639D01*
X145145552Y-88507051D01*
X145115527Y-88723468D01*
X145082357Y-88908978D01*
X145050160Y-89063159D01*
X145023205Y-89166902D01*
X145009123Y-89199980D01*
X144960908Y-89195197D01*
X144853068Y-89157154D01*
X144700912Y-89092003D01*
X144519751Y-89005892D01*
X144494153Y-88993121D01*
X144109784Y-88808166D01*
X143789247Y-88671375D01*
X143528014Y-88580959D01*
X143340632Y-88537877D01*
X143176765Y-88512662D01*
X143203633Y-88680690D01*
X143256163Y-89180856D01*
X143251519Y-89653299D01*
X143233229Y-89831252D01*
X143193215Y-90086155D01*
X143141497Y-90314266D01*
X143071300Y-90531746D01*
X142975847Y-90754753D01*
X142848365Y-90999446D01*
X142682076Y-91281984D01*
X142509608Y-91557000D01*
X142380579Y-91761478D01*
X142216252Y-92025710D01*
X142024596Y-92336674D01*
X141813578Y-92681348D01*
X141591167Y-93046709D01*
X141365332Y-93419735D01*
X141144040Y-93787404D01*
X141105417Y-93851822D01*
X140879480Y-94228541D01*
X140692567Y-94538834D01*
X140540376Y-94789019D01*
X140418609Y-94985414D01*
X140322965Y-95134335D01*
X140249144Y-95242101D01*
X140192845Y-95315028D01*
X140149768Y-95359435D01*
X140115613Y-95381638D01*
X140086079Y-95387954D01*
X140061402Y-95385552D01*
X140000938Y-95377181D01*
X139863629Y-95359698D01*
X139656706Y-95333983D01*
X139387399Y-95300916D01*
X139062939Y-95261377D01*
X138690556Y-95216247D01*
X138277481Y-95166403D01*
X137830944Y-95112727D01*
X137358175Y-95056098D01*
X137119618Y-95027596D01*
X136558674Y-94960773D01*
X136075230Y-94903595D01*
X135662739Y-94855456D01*
X135314659Y-94815751D01*
X135024445Y-94783871D01*
X134785550Y-94759213D01*
X134591433Y-94741167D01*
X134435546Y-94729130D01*
X134311347Y-94722493D01*
X134212290Y-94720651D01*
X134131831Y-94722997D01*
X134063425Y-94728925D01*
X134000528Y-94737828D01*
X133997534Y-94738320D01*
X133852944Y-94768331D01*
X133748369Y-94801737D01*
X133705028Y-94831641D01*
X133704836Y-94833454D01*
X133715872Y-94899228D01*
X133743692Y-95018838D01*
X133781324Y-95164853D01*
X133821797Y-95309843D01*
X133846874Y-95392265D01*
X133844754Y-95417504D01*
X133824225Y-95459117D01*
X133781676Y-95521122D01*
X133713497Y-95607538D01*
X133616077Y-95722382D01*
X133485805Y-95869674D01*
X133319069Y-96053430D01*
X133112259Y-96277670D01*
X132861765Y-96546411D01*
X132563974Y-96863672D01*
X132215277Y-97233470D01*
X131812061Y-97659824D01*
X131754518Y-97720598D01*
X129633780Y-99960167D01*
X129660309Y-103029334D01*
X129664944Y-103534129D01*
X129669892Y-104016031D01*
X129675050Y-104468062D01*
X129680315Y-104883246D01*
X129685581Y-105254606D01*
X129690745Y-105575167D01*
X129695702Y-105837950D01*
X129700348Y-106035980D01*
X129704579Y-106162279D01*
X129707785Y-106208099D01*
X129711515Y-106246084D01*
X129700572Y-106280942D01*
X129665540Y-106318481D01*
X129597006Y-106364510D01*
X129485555Y-106424835D01*
X129321772Y-106505264D01*
X129096244Y-106611605D01*
X128922533Y-106692514D01*
X128116334Y-107067330D01*
X128034059Y-107067330D01*
X128033982Y-106987500D01*
X129606542Y-106267834D01*
X129580764Y-104214667D01*
X129574736Y-103755986D01*
X129568017Y-103282218D01*
X129560855Y-102808489D01*
X129553496Y-102349926D01*
X129546189Y-101921655D01*
X129539179Y-101538804D01*
X129532714Y-101216500D01*
X129529233Y-101059863D01*
X129503479Y-99958225D01*
X131482038Y-97863696D01*
X131820259Y-97505675D01*
X132144579Y-97162415D01*
X132449799Y-96839417D01*
X132730716Y-96542182D01*
X132982132Y-96276211D01*
X133198846Y-96047006D01*
X133375656Y-95860069D01*
X133507363Y-95720899D01*
X133588765Y-95635000D01*
X133609126Y-95613589D01*
X133757654Y-95458012D01*
X133667494Y-95123873D01*
X133625517Y-94963305D01*
X133593955Y-94833049D01*
X133578186Y-94755616D01*
X133577334Y-94746522D01*
X133616113Y-94720996D01*
X133719625Y-94689971D01*
X133868629Y-94658759D01*
X133935689Y-94647563D01*
X134007249Y-94636906D01*
X134076453Y-94628639D01*
X134149896Y-94623353D01*
X134234175Y-94621636D01*
X134335886Y-94624076D01*
X134461625Y-94631262D01*
X134617989Y-94643782D01*
X134811574Y-94662226D01*
X135048977Y-94687182D01*
X135336794Y-94719238D01*
X135681620Y-94758983D01*
X136090053Y-94807006D01*
X136568688Y-94863895D01*
X137124122Y-94930239D01*
X137184773Y-94937491D01*
X137670256Y-94995490D01*
X138130990Y-95050425D01*
X138560097Y-95101482D01*
X138950701Y-95147849D01*
X139295923Y-95188711D01*
X139588887Y-95223257D01*
X139822716Y-95250673D01*
X139990530Y-95270145D01*
X140085455Y-95280861D01*
X140104711Y-95282750D01*
X140132680Y-95247620D01*
X140198245Y-95148230D01*
X140296021Y-94993269D01*
X140420624Y-94791422D01*
X140566668Y-94551376D01*
X140728768Y-94281819D01*
X140820069Y-94128750D01*
X141035398Y-93768886D01*
X141279845Y-93363984D01*
X141538364Y-92938727D01*
X141795914Y-92517796D01*
X142037451Y-92125875D01*
X142205735Y-91855109D01*
X142433332Y-91489078D01*
X142619481Y-91183300D01*
X142768368Y-90926715D01*
X142884184Y-90708263D01*
X142971116Y-90516883D01*
X143033352Y-90341516D01*
X143075081Y-90171100D01*
X143100492Y-89994576D01*
X143113772Y-89800882D01*
X143119111Y-89578960D01*
X143120182Y-89440334D01*
X143119059Y-89197130D01*
X143113737Y-88969393D01*
X143104990Y-88777275D01*
X143093593Y-88640929D01*
X143088029Y-88604250D01*
X143052558Y-88424334D01*
X143199987Y-88424334D01*
X143392943Y-88448627D01*
X143645241Y-88519354D01*
X143947652Y-88633279D01*
X144290948Y-88787169D01*
X144429685Y-88855195D01*
X144616123Y-88946868D01*
X144773785Y-89021013D01*
X144888233Y-89071091D01*
X144945027Y-89090565D01*
X144948386Y-89090058D01*
X144974504Y-89025323D01*
X145000976Y-88893715D01*
X145026111Y-88713003D01*
X145048218Y-88500955D01*
X145065604Y-88275342D01*
X145076578Y-88053930D01*
X145079447Y-87854491D01*
X145076271Y-87747000D01*
X145060877Y-87509119D01*
X145040153Y-87290269D01*
X145011275Y-87076955D01*
X144971422Y-86855682D01*
X144917773Y-86612954D01*
X144847506Y-86335276D01*
X144757799Y-86009153D01*
X144645831Y-85621089D01*
X144597217Y-85455790D01*
X144617190Y-85392410D01*
X144709992Y-85341720D01*
X144864272Y-85307338D01*
X145068680Y-85292882D01*
X145108901Y-85292672D01*
X145202288Y-85294341D01*
X145285740Y-85301425D01*
X145372119Y-85318237D01*
X145474288Y-85349088D01*
X145605108Y-85398293D01*
X145777443Y-85470164D01*
X146004155Y-85569012D01*
X146226534Y-85667404D01*
X146397080Y-85740877D01*
X146541223Y-85798981D01*
X146639951Y-85834271D01*
X146671034Y-85841448D01*
X146709441Y-85804734D01*
X146767884Y-85707325D01*
X146835897Y-85567507D01*
X146861133Y-85509305D01*
X147183044Y-84838251D01*
X147581817Y-84169158D01*
X148049984Y-83511504D01*
X148580073Y-82874769D01*
X149164615Y-82268431D01*
X149796141Y-81701971D01*
X149978506Y-81553287D01*
X150261147Y-81337161D01*
X150579823Y-81109781D01*
X150924795Y-80876802D01*
X151286324Y-80643881D01*
X151654671Y-80416673D01*
X152020098Y-80200833D01*
X152372864Y-80002018D01*
X152703233Y-79825882D01*
X153001463Y-79678082D01*
X153257817Y-79564274D01*
X153462555Y-79490112D01*
X153576361Y-79463913D01*
X153698812Y-79450798D01*
X153755491Y-79457080D01*
G36*
X154904860Y-78104297D02*
G01*
X155044718Y-78128525D01*
X155108201Y-78167143D01*
X155108141Y-78195814D01*
X154869512Y-78771576D01*
X154697885Y-79313843D01*
X154590454Y-79837035D01*
X154544415Y-80355567D01*
X154556963Y-80883858D01*
X154565579Y-80984836D01*
X154589644Y-81188097D01*
X154628125Y-81451944D01*
X154677388Y-81754245D01*
X154733800Y-82072867D01*
X154793728Y-82385676D01*
X154803494Y-82434167D01*
X154860410Y-82718160D01*
X154912992Y-82987061D01*
X154958306Y-83225339D01*
X154993414Y-83417460D01*
X155015381Y-83547892D01*
X155019559Y-83577167D01*
X155042523Y-83742571D01*
X155065585Y-83834778D01*
X155098964Y-83864650D01*
X155152879Y-83843049D01*
X155222193Y-83792554D01*
X155408873Y-83675395D01*
X155629966Y-83573245D01*
X155841348Y-83505962D01*
X155873869Y-83499286D01*
X155949975Y-83489253D01*
X155997289Y-83505947D01*
X156032146Y-83566661D01*
X156070882Y-83688686D01*
X156078897Y-83716318D01*
X156268979Y-84279470D01*
X156524887Y-84886015D01*
X156843536Y-85530155D01*
X157221843Y-86206089D01*
X157656725Y-86908018D01*
X158145097Y-87630142D01*
X158204663Y-87714379D01*
X158537231Y-88181647D01*
X158837846Y-88602110D01*
X159104351Y-88972810D01*
X159334585Y-89290788D01*
X159526390Y-89553085D01*
X159677606Y-89756743D01*
X159786076Y-89898804D01*
X159849638Y-89976308D01*
X159865814Y-89990667D01*
X159909556Y-89964640D01*
X159998845Y-89895644D01*
X160116255Y-89797309D01*
X160145396Y-89771983D01*
X160416784Y-89566405D01*
X160679158Y-89435491D01*
X160868735Y-89383713D01*
X161003303Y-89358990D01*
X161071938Y-89664245D01*
X161266944Y-90434489D01*
X161514062Y-91249099D01*
X161807196Y-92090960D01*
X162140246Y-92942959D01*
X162507115Y-93787981D01*
X162652857Y-94101031D01*
X162945102Y-94760705D01*
X163176855Y-95386244D01*
X163353259Y-95996993D01*
X163479459Y-96612298D01*
X163560601Y-97251504D01*
X163587652Y-97616189D01*
X163600985Y-98488550D01*
X163539896Y-99368158D01*
X163403373Y-100265416D01*
X163270808Y-100874994D01*
X163120928Y-101493488D01*
X163373815Y-101746375D01*
X163529721Y-101920798D01*
X163624901Y-102083018D01*
X163666400Y-102257311D01*
X163661262Y-102467952D01*
X163634598Y-102645038D01*
X163614490Y-102787787D01*
X163609935Y-102896087D01*
X163620540Y-102943723D01*
X163659691Y-102976870D01*
X163756414Y-103058380D01*
X163903459Y-103182152D01*
X164093574Y-103342086D01*
X164319507Y-103532081D01*
X164574006Y-103746039D01*
X164849821Y-103977857D01*
X164904000Y-104023388D01*
X165183253Y-104258121D01*
X165442730Y-104476353D01*
X165675150Y-104671951D01*
X165873229Y-104838779D01*
X166029685Y-104970703D01*
X166137235Y-105061590D01*
X166188596Y-105105304D01*
X166191375Y-105107747D01*
X166190554Y-105157945D01*
X166156240Y-105259335D01*
X166098550Y-105390536D01*
X166027603Y-105530168D01*
X165953517Y-105656851D01*
X165889436Y-105745744D01*
X165813000Y-105792995D01*
X165688484Y-105832452D01*
X165620279Y-105844966D01*
X165486827Y-105871754D01*
X165423301Y-105909095D01*
X165412559Y-105943723D01*
X165416211Y-106007779D01*
X165425963Y-106140598D01*
X165440597Y-106326590D01*
X165458896Y-106550167D01*
X165473775Y-106727068D01*
X165534432Y-107440302D01*
X165826195Y-107764234D01*
X166117958Y-108088167D01*
X166046286Y-109534305D01*
X165974615Y-110980443D01*
X165257819Y-111824475D01*
X165210077Y-112743632D01*
X165162334Y-113662789D01*
X165260089Y-113754145D01*
X165357844Y-113845500D01*
X165309523Y-115379283D01*
X165296848Y-115747606D01*
X165283229Y-116082611D01*
X165269168Y-116375499D01*
X165255164Y-116617470D01*
X165241719Y-116799726D01*
X165229333Y-116913468D01*
X165220184Y-116949565D01*
X165175803Y-116965791D01*
X165054760Y-117005374D01*
X164861376Y-117066977D01*
X164599976Y-117149263D01*
X164274882Y-117250894D01*
X163890415Y-117370532D01*
X163450900Y-117506839D01*
X162960658Y-117658479D01*
X162424013Y-117824113D01*
X161845287Y-118002404D01*
X161228802Y-118192015D01*
X160578882Y-118391607D01*
X159899849Y-118599843D01*
X159196026Y-118815386D01*
X158702167Y-118966457D01*
X157934669Y-119201131D01*
X157158937Y-119438331D01*
X156381813Y-119675967D01*
X155610135Y-119911946D01*
X154850743Y-120144176D01*
X154110477Y-120370565D01*
X153396176Y-120589023D01*
X152714681Y-120797456D01*
X152072830Y-120993773D01*
X151477464Y-121175882D01*
X150935422Y-121341692D01*
X150453544Y-121489110D01*
X150038669Y-121616044D01*
X149697638Y-121720403D01*
X149685167Y-121724220D01*
X149236460Y-121860994D01*
X148809711Y-121990005D01*
X148412139Y-122109140D01*
X148050960Y-122216288D01*
X147733392Y-122309336D01*
X147466652Y-122386172D01*
X147257958Y-122444685D01*
X147114526Y-122482761D01*
X147043575Y-122498288D01*
X147039334Y-122498537D01*
X146984965Y-122487993D01*
X146853843Y-122458058D01*
X146651311Y-122410047D01*
X146382713Y-122345274D01*
X146053390Y-122265055D01*
X145668686Y-122170704D01*
X145233944Y-122063537D01*
X144754506Y-121944868D01*
X144235716Y-121816011D01*
X143682916Y-121678283D01*
X143101449Y-121532997D01*
X142496659Y-121381469D01*
X142319167Y-121336921D01*
X141707025Y-121183186D01*
X141115650Y-121034591D01*
X140550487Y-120892508D01*
X140016984Y-120758309D01*
X139520586Y-120633367D01*
X139066740Y-120519054D01*
X138660890Y-120416743D01*
X138308483Y-120327807D01*
X138014965Y-120253616D01*
X137785783Y-120195545D01*
X137626382Y-120154966D01*
X137542208Y-120133250D01*
X137533176Y-120130824D01*
X137361519Y-120083288D01*
X137928002Y-117225164D01*
X138022747Y-116746012D01*
X138112133Y-116291769D01*
X138194864Y-115869163D01*
X138269643Y-115484925D01*
X138335173Y-115145785D01*
X138390156Y-114858472D01*
X138433298Y-114629716D01*
X138463299Y-114466246D01*
X138478865Y-114374792D01*
X138480659Y-114357169D01*
X138438646Y-114345809D01*
X138319530Y-114315126D01*
X138128333Y-114266387D01*
X137870076Y-114200859D01*
X137549781Y-114119809D01*
X137172471Y-114024504D01*
X136743166Y-113916210D01*
X136266888Y-113796195D01*
X135748660Y-113665726D01*
X135193504Y-113526069D01*
X134606440Y-113378492D01*
X133992490Y-113224261D01*
X133509104Y-113102900D01*
X128551375Y-111858503D01*
X128527068Y-111397743D01*
X128515999Y-111209955D01*
X128504747Y-111056326D01*
X128494761Y-110954721D01*
X128488522Y-110922744D01*
X128444769Y-110909266D01*
X128331370Y-110880182D01*
X128161244Y-110838641D01*
X127947306Y-110787793D01*
X127702474Y-110730788D01*
X127681705Y-110726002D01*
X126889128Y-110543500D01*
X126889110Y-110458834D01*
X126971122Y-110458834D01*
X127702478Y-110624723D01*
X128001129Y-110691231D01*
X128227964Y-110742418D01*
X128392740Y-110785644D01*
X128505211Y-110828272D01*
X128575133Y-110877666D01*
X128612262Y-110941186D01*
X128626353Y-111026197D01*
X128627162Y-111140059D01*
X128624444Y-111290136D01*
X128624334Y-111320437D01*
X128624334Y-111781970D01*
X133597905Y-113025071D01*
X134230221Y-113183428D01*
X134839491Y-113336629D01*
X135420696Y-113483381D01*
X135968815Y-113622390D01*
X136478830Y-113752362D01*
X136945721Y-113872004D01*
X137364468Y-113980020D01*
X137730051Y-114075119D01*
X138037451Y-114156005D01*
X138281648Y-114221385D01*
X138457623Y-114269966D01*
X138560355Y-114300453D01*
X138586411Y-114310836D01*
X138580880Y-114358563D01*
X138560000Y-114482418D01*
X138525084Y-114675515D01*
X138477446Y-114930970D01*
X138418397Y-115241900D01*
X138349250Y-115601420D01*
X138271318Y-116002646D01*
X138185913Y-116438693D01*
X138094347Y-116902677D01*
X138041560Y-117168667D01*
X137947294Y-117644436D01*
X137858575Y-118095537D01*
X137776700Y-118515156D01*
X137702969Y-118896476D01*
X137638678Y-119232685D01*
X137585127Y-119516965D01*
X137543615Y-119742503D01*
X137515438Y-119902482D01*
X137501897Y-119990089D01*
X137501194Y-120005000D01*
X137547062Y-120021052D01*
X137668936Y-120055575D01*
X137860555Y-120107016D01*
X138115660Y-120173824D01*
X138427989Y-120254448D01*
X138791285Y-120347334D01*
X139199285Y-120450932D01*
X139645731Y-120563689D01*
X140124363Y-120684054D01*
X140628920Y-120810475D01*
X141153142Y-120941400D01*
X141690771Y-121075277D01*
X142235545Y-121210554D01*
X142781205Y-121345680D01*
X143321491Y-121479102D01*
X143850143Y-121609269D01*
X144360901Y-121734628D01*
X144847505Y-121853629D01*
X145303695Y-121964719D01*
X145723211Y-122066346D01*
X146099794Y-122156959D01*
X146427182Y-122235005D01*
X146699117Y-122298933D01*
X146909339Y-122347191D01*
X147051587Y-122378227D01*
X147119601Y-122390489D01*
X147124000Y-122390510D01*
X147173992Y-122376252D01*
X147301236Y-122338339D01*
X147502025Y-122277900D01*
X147772654Y-122196062D01*
X148109416Y-122093956D01*
X148508605Y-121972710D01*
X148966517Y-121833454D01*
X149479443Y-121677317D01*
X150043679Y-121505427D01*
X150655517Y-121318915D01*
X151311254Y-121118909D01*
X152007181Y-120906537D01*
X152739593Y-120682930D01*
X153504784Y-120449217D01*
X154299049Y-120206526D01*
X155118680Y-119955986D01*
X155959972Y-119698727D01*
X156162167Y-119636884D01*
X157007043Y-119378370D01*
X157830535Y-119126228D01*
X158628977Y-118881588D01*
X159398701Y-118645579D01*
X160136040Y-118419331D01*
X160837328Y-118203973D01*
X161498898Y-118000635D01*
X162117083Y-117810446D01*
X162688216Y-117634537D01*
X163208630Y-117474036D01*
X163674658Y-117330074D01*
X164082633Y-117203779D01*
X164428888Y-117096282D01*
X164709757Y-117008712D01*
X164921572Y-116942199D01*
X165060666Y-116897872D01*
X165123374Y-116876860D01*
X165126688Y-116875380D01*
X165135485Y-116827660D01*
X165146083Y-116705110D01*
X165157968Y-116517534D01*
X165170621Y-116274736D01*
X165183528Y-115986519D01*
X165196171Y-115662690D01*
X165206629Y-115357308D01*
X165254382Y-113868558D01*
X165157070Y-113789759D01*
X165059758Y-113710961D01*
X165112931Y-112743819D01*
X165166105Y-111776678D01*
X165516026Y-111366279D01*
X165865947Y-110955879D01*
X165892088Y-110580356D01*
X165901624Y-110429194D01*
X165914050Y-110210982D01*
X165928436Y-109943250D01*
X165943850Y-109643528D01*
X165959364Y-109329346D01*
X165967492Y-109159078D01*
X166016756Y-108113322D01*
X165721953Y-107797651D01*
X165427151Y-107481979D01*
X165367423Y-106684406D01*
X165348635Y-106431980D01*
X165332190Y-106208082D01*
X165319090Y-106026611D01*
X165310338Y-105901465D01*
X165306938Y-105846544D01*
X165306931Y-105846234D01*
X165344428Y-105817010D01*
X165442475Y-105782586D01*
X165551043Y-105756580D01*
X165684322Y-105727807D01*
X165779049Y-105703455D01*
X165810407Y-105691346D01*
X165842185Y-105642314D01*
X165897528Y-105546241D01*
X165963173Y-105427484D01*
X166025855Y-105310398D01*
X166072311Y-105219342D01*
X166089334Y-105179152D01*
X166058062Y-105147654D01*
X165968787Y-105067550D01*
X165828317Y-104944713D01*
X165643461Y-104785012D01*
X165421028Y-104594321D01*
X165167826Y-104378512D01*
X164890665Y-104143454D01*
X164773553Y-104044459D01*
X164443092Y-103764794D01*
X164172307Y-103534024D01*
X163955692Y-103347007D01*
X163787742Y-103198604D01*
X163662950Y-103083673D01*
X163575812Y-102997074D01*
X163520822Y-102933666D01*
X163492474Y-102888309D01*
X163485262Y-102855861D01*
X163487572Y-102843718D01*
X163504200Y-102759746D01*
X163521141Y-102618858D01*
X163535184Y-102448733D01*
X163537282Y-102415014D01*
X163557192Y-102075861D01*
X163373346Y-101883841D01*
X163258403Y-101770334D01*
X163151046Y-101675142D01*
X163090990Y-101630026D01*
X162992479Y-101568231D01*
X163123738Y-101062701D01*
X163307123Y-100257297D01*
X163428654Y-99483190D01*
X163491038Y-98716899D01*
X163496980Y-97934945D01*
X163494335Y-97847854D01*
X163456741Y-97222964D01*
X163385030Y-96639793D01*
X163274443Y-96079651D01*
X163120222Y-95523850D01*
X162917610Y-94953698D01*
X162661848Y-94350506D01*
X162534114Y-94075834D01*
X162038328Y-92957646D01*
X161604623Y-91820129D01*
X161240157Y-90682772D01*
X161097817Y-90165363D01*
X161038966Y-89942821D01*
X160986385Y-89750429D01*
X160944136Y-89602552D01*
X160916281Y-89513554D01*
X160908078Y-89494300D01*
X160845393Y-89486223D01*
X160733604Y-89519651D01*
X160591386Y-89585352D01*
X160437414Y-89674093D01*
X160290363Y-89776641D01*
X160221041Y-89833946D01*
X160060196Y-89977799D01*
X159949410Y-90070209D01*
X159872388Y-90112325D01*
X159812837Y-90105294D01*
X159754461Y-90050264D01*
X159680967Y-89948383D01*
X159630163Y-89875569D01*
X159552628Y-89766600D01*
X159434029Y-89600689D01*
X159282793Y-89389586D01*
X159107345Y-89145043D01*
X158916114Y-88878813D01*
X158717526Y-88602648D01*
X158680602Y-88551334D01*
X158361629Y-88106259D01*
X158087552Y-87719505D01*
X157852160Y-87381891D01*
X157649242Y-87084235D01*
X157472585Y-86817358D01*
X157315980Y-86572078D01*
X157173214Y-86339214D01*
X157096207Y-86209470D01*
X156908164Y-85873471D01*
X156715301Y-85501051D01*
X156528036Y-85114350D01*
X156356789Y-84735512D01*
X156211979Y-84386680D01*
X156116510Y-84127500D01*
X156051510Y-83940284D01*
X155993652Y-83782381D01*
X155949553Y-83671298D01*
X155926829Y-83625514D01*
X155861318Y-83611086D01*
X155741595Y-83639785D01*
X155582630Y-83705931D01*
X155399396Y-83803846D01*
X155306866Y-83860688D01*
X155174728Y-83939320D01*
X155068658Y-83991262D01*
X155009208Y-84006632D01*
X155005917Y-84005393D01*
X154981878Y-83953849D01*
X154957409Y-83843149D01*
X154939995Y-83715940D01*
X154921787Y-83583584D01*
X154889270Y-83389175D01*
X154846172Y-83153381D01*
X154796223Y-82896873D01*
X154762198Y-82730500D01*
X154683731Y-82353492D01*
X154620900Y-82046029D01*
X154571974Y-81794791D01*
X154535225Y-81586457D01*
X154508920Y-81407708D01*
X154491330Y-81245221D01*
X154480724Y-81085677D01*
X154475373Y-80915754D01*
X154473545Y-80722132D01*
X154473492Y-80508000D01*
X154474810Y-80220519D01*
X154479214Y-79998976D01*
X154488464Y-79824656D01*
X154504322Y-79678841D01*
X154528549Y-79542813D01*
X154562905Y-79397856D01*
X154586253Y-79309409D01*
X154653696Y-79081732D01*
X154735810Y-78837366D01*
X154818098Y-78618675D01*
X154843552Y-78557664D01*
X154988958Y-78221344D01*
X154884283Y-78195072D01*
X154728892Y-78182224D01*
X154521957Y-78201973D01*
X154288319Y-78250401D01*
X154052822Y-78323588D01*
X154040432Y-78328208D01*
X153839828Y-78411411D01*
X153579576Y-78531150D01*
X153272717Y-78680550D01*
X152932295Y-78852736D01*
X152571354Y-79040835D01*
X152202934Y-79237972D01*
X151840081Y-79437272D01*
X151495836Y-79631862D01*
X151183242Y-79814868D01*
X150955167Y-79954296D01*
X150100363Y-80530884D01*
X149323815Y-81139307D01*
X148625580Y-81779499D01*
X148005718Y-82451399D01*
X147464287Y-83154941D01*
X147001346Y-83890062D01*
X146616954Y-84656699D01*
X146612158Y-84667590D01*
X146532381Y-84837501D01*
X146472113Y-84936261D01*
X146424907Y-84973308D01*
X146404334Y-84971694D01*
X146244087Y-84920239D01*
X146025017Y-84863272D01*
X145772262Y-84806196D01*
X145510960Y-84754416D01*
X145266248Y-84713334D01*
X145104823Y-84692378D01*
X144671036Y-84672629D01*
X144217952Y-84698313D01*
X143784171Y-84766378D01*
X143601328Y-84811195D01*
X143359489Y-84878605D01*
X143423043Y-85032219D01*
X143467646Y-85126357D01*
X143544505Y-85274739D01*
X143643494Y-85458315D01*
X143754487Y-85658034D01*
X143774735Y-85693834D01*
X143893453Y-85909498D01*
X144007354Y-86127658D01*
X144103960Y-86323711D01*
X144170790Y-86473057D01*
X144173791Y-86480522D01*
X144304104Y-86913692D01*
X144356277Y-87354694D01*
X144329331Y-87790075D01*
X144284868Y-88005384D01*
X144245409Y-88157935D01*
X143829973Y-88018783D01*
X143521431Y-87926250D01*
X143197856Y-87847984D01*
X142884631Y-87788998D01*
X142607138Y-87754300D01*
X142453897Y-87747135D01*
X142331858Y-87751311D01*
X142276209Y-87768957D01*
X142268894Y-87807434D01*
X142272476Y-87821084D01*
X142339068Y-88077767D01*
X142401035Y-88384033D01*
X142452423Y-88704804D01*
X142487278Y-89005006D01*
X142497023Y-89144000D01*
X142505157Y-89323684D01*
X142508221Y-89479707D01*
X142502493Y-89620372D01*
X142484247Y-89753982D01*
X142449762Y-89888838D01*
X142395313Y-90033245D01*
X142317177Y-90195504D01*
X142211630Y-90383919D01*
X142074949Y-90606793D01*
X141903410Y-90872427D01*
X141693290Y-91189125D01*
X141440865Y-91565189D01*
X141351889Y-91697428D01*
X141120063Y-92043215D01*
X140890445Y-92388057D01*
X140670143Y-92721111D01*
X140466267Y-93031539D01*
X140285926Y-93308500D01*
X140136229Y-93541154D01*
X140024284Y-93718660D01*
X139993415Y-93768917D01*
X139857569Y-93988281D01*
X139754931Y-94142586D01*
X139678260Y-94241153D01*
X139620312Y-94293301D01*
X139574225Y-94308354D01*
X139517998Y-94303760D01*
X139384504Y-94290574D01*
X139180631Y-94269534D01*
X138913264Y-94241375D01*
X138589287Y-94206836D01*
X138215588Y-94166653D01*
X137799051Y-94121564D01*
X137346562Y-94072304D01*
X136865007Y-94019612D01*
X136434834Y-93972329D01*
X133386834Y-93636616D01*
X132456798Y-94561840D01*
X132766230Y-94873351D01*
X133075662Y-95184863D01*
X130807954Y-97570623D01*
X128540245Y-99956383D01*
X128529373Y-102854681D01*
X128518500Y-105752978D01*
X127783641Y-106060876D01*
X127552781Y-106158035D01*
X127350501Y-106243988D01*
X127189105Y-106313440D01*
X127080894Y-106361096D01*
X127038171Y-106381660D01*
X127038029Y-106381803D01*
X127035313Y-106425431D01*
X127031683Y-106545469D01*
X127027294Y-106733668D01*
X127022303Y-106981777D01*
X127016867Y-107281548D01*
X127011142Y-107624731D01*
X127005286Y-108003076D01*
X126999454Y-108408334D01*
X126999198Y-108426834D01*
X126971122Y-110458834D01*
X126889110Y-110458834D01*
X126888898Y-109502617D01*
X126890144Y-109135187D01*
X126893757Y-108714818D01*
X126899325Y-108273193D01*
X126906435Y-107841996D01*
X126914678Y-107452908D01*
X126916409Y-107383579D01*
X126944152Y-106305425D01*
X128433834Y-105673871D01*
X128455000Y-102774465D01*
X128476167Y-99875059D01*
X130688083Y-97550159D01*
X131041927Y-97177801D01*
X131378281Y-96822993D01*
X131692647Y-96490532D01*
X131980526Y-96185216D01*
X132237420Y-95911843D01*
X132458830Y-95675210D01*
X132640258Y-95480115D01*
X132777206Y-95331357D01*
X132865174Y-95233733D01*
X132899664Y-95192041D01*
X132900000Y-95191090D01*
X132872678Y-95147518D01*
X132799191Y-95058126D01*
X132692255Y-94937930D01*
X132617162Y-94857098D01*
X132334324Y-94557274D01*
X132845432Y-94046167D01*
X133356540Y-93535059D01*
X134366520Y-93645600D01*
X134628924Y-93674265D01*
X134960556Y-93710402D01*
X135346466Y-93752389D01*
X135771705Y-93798601D01*
X136221325Y-93847414D01*
X136680377Y-93897203D01*
X137133910Y-93946345D01*
X137345000Y-93969199D01*
X137749426Y-94013098D01*
X138132183Y-94054889D01*
X138484184Y-94093562D01*
X138796343Y-94128108D01*
X139059571Y-94157517D01*
X139264781Y-94180779D01*
X139402886Y-94196885D01*
X139461667Y-94204334D01*
X139554129Y-94211617D01*
X139615178Y-94187054D01*
X139671856Y-94113413D01*
X139711218Y-94045289D01*
X139813857Y-93870143D01*
X139959396Y-93633893D01*
X140142378Y-93344933D01*
X140357350Y-93011660D01*
X140598856Y-92642470D01*
X140861441Y-92245757D01*
X141139649Y-91829918D01*
X141424042Y-91409210D01*
X141620093Y-91118069D01*
X141803936Y-90840080D01*
X141969200Y-90585257D01*
X142109516Y-90363612D01*
X142218513Y-90185159D01*
X142289822Y-90059912D01*
X142312773Y-90012210D01*
X142379350Y-89754672D01*
X142404744Y-89428378D01*
X142389239Y-89038391D01*
X142333122Y-88589771D01*
X142236680Y-88087578D01*
X142193327Y-87899577D01*
X142133434Y-87649986D01*
X142607300Y-87675491D01*
X142802841Y-87687077D01*
X142960364Y-87700724D01*
X143101233Y-87720555D01*
X143246813Y-87750694D01*
X143418471Y-87795262D01*
X143637572Y-87858385D01*
X143790543Y-87903850D01*
X143956537Y-87949473D01*
X144091115Y-87979111D01*
X144174550Y-87988766D01*
X144190825Y-87984953D01*
X144205353Y-87932287D01*
X144220040Y-87815172D01*
X144232687Y-87653796D01*
X144238041Y-87551985D01*
X144244389Y-87375672D01*
X144244448Y-87221437D01*
X144234753Y-87079264D01*
X144211843Y-86939137D01*
X144172255Y-86791041D01*
X144112528Y-86624960D01*
X144029197Y-86430879D01*
X143918803Y-86198781D01*
X143777881Y-85918653D01*
X143602970Y-85580478D01*
X143465572Y-85317455D01*
X143375854Y-85138289D01*
X143307049Y-84985775D01*
X143265636Y-84875451D01*
X143258096Y-84822852D01*
X143258880Y-84821854D01*
X143334995Y-84782190D01*
X143478140Y-84738986D01*
X143670949Y-84695490D01*
X143896057Y-84654947D01*
X144136098Y-84620602D01*
X144373707Y-84595702D01*
X144520500Y-84586031D01*
X145082548Y-84592316D01*
X145636341Y-84667286D01*
X146122639Y-84788265D01*
X146265552Y-84828629D01*
X146371764Y-84854694D01*
X146420236Y-84861349D01*
X146421098Y-84860750D01*
X146440709Y-84818605D01*
X146486274Y-84716562D01*
X146549915Y-84572338D01*
X146590699Y-84479330D01*
X146837653Y-83978848D01*
X147146796Y-83456824D01*
X147505475Y-82931303D01*
X147901037Y-82420329D01*
X148320830Y-81941949D01*
X148499834Y-81756587D01*
X148926227Y-81349878D01*
X149383981Y-80956599D01*
X149880499Y-80571747D01*
X150423183Y-80190321D01*
X151019436Y-79807317D01*
X151676661Y-79417732D01*
X152402260Y-79016566D01*
X153077636Y-78663075D01*
X153499387Y-78456173D01*
X153861509Y-78298568D01*
X154171299Y-78187699D01*
X154436053Y-78121002D01*
X154663068Y-78095914D01*
X154693269Y-78095578D01*
X154904860Y-78104297D01*
G37*
X154904860Y-78104297D02*
X155044718Y-78128525D01*
X155108201Y-78167143D01*
X155108141Y-78195814D01*
X154869512Y-78771576D01*
X154697885Y-79313843D01*
X154590454Y-79837035D01*
X154544415Y-80355567D01*
X154556963Y-80883858D01*
X154565579Y-80984836D01*
X154589644Y-81188097D01*
X154628125Y-81451944D01*
X154677388Y-81754245D01*
X154733800Y-82072867D01*
X154793728Y-82385676D01*
X154803494Y-82434167D01*
X154860410Y-82718160D01*
X154912992Y-82987061D01*
X154958306Y-83225339D01*
X154993414Y-83417460D01*
X155015381Y-83547892D01*
X155019559Y-83577167D01*
X155042523Y-83742571D01*
X155065585Y-83834778D01*
X155098964Y-83864650D01*
X155152879Y-83843049D01*
X155222193Y-83792554D01*
X155408873Y-83675395D01*
X155629966Y-83573245D01*
X155841348Y-83505962D01*
X155873869Y-83499286D01*
X155949975Y-83489253D01*
X155997289Y-83505947D01*
X156032146Y-83566661D01*
X156070882Y-83688686D01*
X156078897Y-83716318D01*
X156268979Y-84279470D01*
X156524887Y-84886015D01*
X156843536Y-85530155D01*
X157221843Y-86206089D01*
X157656725Y-86908018D01*
X158145097Y-87630142D01*
X158204663Y-87714379D01*
X158537231Y-88181647D01*
X158837846Y-88602110D01*
X159104351Y-88972810D01*
X159334585Y-89290788D01*
X159526390Y-89553085D01*
X159677606Y-89756743D01*
X159786076Y-89898804D01*
X159849638Y-89976308D01*
X159865814Y-89990667D01*
X159909556Y-89964640D01*
X159998845Y-89895644D01*
X160116255Y-89797309D01*
X160145396Y-89771983D01*
X160416784Y-89566405D01*
X160679158Y-89435491D01*
X160868735Y-89383713D01*
X161003303Y-89358990D01*
X161071938Y-89664245D01*
X161266944Y-90434489D01*
X161514062Y-91249099D01*
X161807196Y-92090960D01*
X162140246Y-92942959D01*
X162507115Y-93787981D01*
X162652857Y-94101031D01*
X162945102Y-94760705D01*
X163176855Y-95386244D01*
X163353259Y-95996993D01*
X163479459Y-96612298D01*
X163560601Y-97251504D01*
X163587652Y-97616189D01*
X163600985Y-98488550D01*
X163539896Y-99368158D01*
X163403373Y-100265416D01*
X163270808Y-100874994D01*
X163120928Y-101493488D01*
X163373815Y-101746375D01*
X163529721Y-101920798D01*
X163624901Y-102083018D01*
X163666400Y-102257311D01*
X163661262Y-102467952D01*
X163634598Y-102645038D01*
X163614490Y-102787787D01*
X163609935Y-102896087D01*
X163620540Y-102943723D01*
X163659691Y-102976870D01*
X163756414Y-103058380D01*
X163903459Y-103182152D01*
X164093574Y-103342086D01*
X164319507Y-103532081D01*
X164574006Y-103746039D01*
X164849821Y-103977857D01*
X164904000Y-104023388D01*
X165183253Y-104258121D01*
X165442730Y-104476353D01*
X165675150Y-104671951D01*
X165873229Y-104838779D01*
X166029685Y-104970703D01*
X166137235Y-105061590D01*
X166188596Y-105105304D01*
X166191375Y-105107747D01*
X166190554Y-105157945D01*
X166156240Y-105259335D01*
X166098550Y-105390536D01*
X166027603Y-105530168D01*
X165953517Y-105656851D01*
X165889436Y-105745744D01*
X165813000Y-105792995D01*
X165688484Y-105832452D01*
X165620279Y-105844966D01*
X165486827Y-105871754D01*
X165423301Y-105909095D01*
X165412559Y-105943723D01*
X165416211Y-106007779D01*
X165425963Y-106140598D01*
X165440597Y-106326590D01*
X165458896Y-106550167D01*
X165473775Y-106727068D01*
X165534432Y-107440302D01*
X165826195Y-107764234D01*
X166117958Y-108088167D01*
X166046286Y-109534305D01*
X165974615Y-110980443D01*
X165257819Y-111824475D01*
X165210077Y-112743632D01*
X165162334Y-113662789D01*
X165260089Y-113754145D01*
X165357844Y-113845500D01*
X165309523Y-115379283D01*
X165296848Y-115747606D01*
X165283229Y-116082611D01*
X165269168Y-116375499D01*
X165255164Y-116617470D01*
X165241719Y-116799726D01*
X165229333Y-116913468D01*
X165220184Y-116949565D01*
X165175803Y-116965791D01*
X165054760Y-117005374D01*
X164861376Y-117066977D01*
X164599976Y-117149263D01*
X164274882Y-117250894D01*
X163890415Y-117370532D01*
X163450900Y-117506839D01*
X162960658Y-117658479D01*
X162424013Y-117824113D01*
X161845287Y-118002404D01*
X161228802Y-118192015D01*
X160578882Y-118391607D01*
X159899849Y-118599843D01*
X159196026Y-118815386D01*
X158702167Y-118966457D01*
X157934669Y-119201131D01*
X157158937Y-119438331D01*
X156381813Y-119675967D01*
X155610135Y-119911946D01*
X154850743Y-120144176D01*
X154110477Y-120370565D01*
X153396176Y-120589023D01*
X152714681Y-120797456D01*
X152072830Y-120993773D01*
X151477464Y-121175882D01*
X150935422Y-121341692D01*
X150453544Y-121489110D01*
X150038669Y-121616044D01*
X149697638Y-121720403D01*
X149685167Y-121724220D01*
X149236460Y-121860994D01*
X148809711Y-121990005D01*
X148412139Y-122109140D01*
X148050960Y-122216288D01*
X147733392Y-122309336D01*
X147466652Y-122386172D01*
X147257958Y-122444685D01*
X147114526Y-122482761D01*
X147043575Y-122498288D01*
X147039334Y-122498537D01*
X146984965Y-122487993D01*
X146853843Y-122458058D01*
X146651311Y-122410047D01*
X146382713Y-122345274D01*
X146053390Y-122265055D01*
X145668686Y-122170704D01*
X145233944Y-122063537D01*
X144754506Y-121944868D01*
X144235716Y-121816011D01*
X143682916Y-121678283D01*
X143101449Y-121532997D01*
X142496659Y-121381469D01*
X142319167Y-121336921D01*
X141707025Y-121183186D01*
X141115650Y-121034591D01*
X140550487Y-120892508D01*
X140016984Y-120758309D01*
X139520586Y-120633367D01*
X139066740Y-120519054D01*
X138660890Y-120416743D01*
X138308483Y-120327807D01*
X138014965Y-120253616D01*
X137785783Y-120195545D01*
X137626382Y-120154966D01*
X137542208Y-120133250D01*
X137533176Y-120130824D01*
X137361519Y-120083288D01*
X137928002Y-117225164D01*
X138022747Y-116746012D01*
X138112133Y-116291769D01*
X138194864Y-115869163D01*
X138269643Y-115484925D01*
X138335173Y-115145785D01*
X138390156Y-114858472D01*
X138433298Y-114629716D01*
X138463299Y-114466246D01*
X138478865Y-114374792D01*
X138480659Y-114357169D01*
X138438646Y-114345809D01*
X138319530Y-114315126D01*
X138128333Y-114266387D01*
X137870076Y-114200859D01*
X137549781Y-114119809D01*
X137172471Y-114024504D01*
X136743166Y-113916210D01*
X136266888Y-113796195D01*
X135748660Y-113665726D01*
X135193504Y-113526069D01*
X134606440Y-113378492D01*
X133992490Y-113224261D01*
X133509104Y-113102900D01*
X128551375Y-111858503D01*
X128527068Y-111397743D01*
X128515999Y-111209955D01*
X128504747Y-111056326D01*
X128494761Y-110954721D01*
X128488522Y-110922744D01*
X128444769Y-110909266D01*
X128331370Y-110880182D01*
X128161244Y-110838641D01*
X127947306Y-110787793D01*
X127702474Y-110730788D01*
X127681705Y-110726002D01*
X126889128Y-110543500D01*
X126889110Y-110458834D01*
X126971122Y-110458834D01*
X127702478Y-110624723D01*
X128001129Y-110691231D01*
X128227964Y-110742418D01*
X128392740Y-110785644D01*
X128505211Y-110828272D01*
X128575133Y-110877666D01*
X128612262Y-110941186D01*
X128626353Y-111026197D01*
X128627162Y-111140059D01*
X128624444Y-111290136D01*
X128624334Y-111320437D01*
X128624334Y-111781970D01*
X133597905Y-113025071D01*
X134230221Y-113183428D01*
X134839491Y-113336629D01*
X135420696Y-113483381D01*
X135968815Y-113622390D01*
X136478830Y-113752362D01*
X136945721Y-113872004D01*
X137364468Y-113980020D01*
X137730051Y-114075119D01*
X138037451Y-114156005D01*
X138281648Y-114221385D01*
X138457623Y-114269966D01*
X138560355Y-114300453D01*
X138586411Y-114310836D01*
X138580880Y-114358563D01*
X138560000Y-114482418D01*
X138525084Y-114675515D01*
X138477446Y-114930970D01*
X138418397Y-115241900D01*
X138349250Y-115601420D01*
X138271318Y-116002646D01*
X138185913Y-116438693D01*
X138094347Y-116902677D01*
X138041560Y-117168667D01*
X137947294Y-117644436D01*
X137858575Y-118095537D01*
X137776700Y-118515156D01*
X137702969Y-118896476D01*
X137638678Y-119232685D01*
X137585127Y-119516965D01*
X137543615Y-119742503D01*
X137515438Y-119902482D01*
X137501897Y-119990089D01*
X137501194Y-120005000D01*
X137547062Y-120021052D01*
X137668936Y-120055575D01*
X137860555Y-120107016D01*
X138115660Y-120173824D01*
X138427989Y-120254448D01*
X138791285Y-120347334D01*
X139199285Y-120450932D01*
X139645731Y-120563689D01*
X140124363Y-120684054D01*
X140628920Y-120810475D01*
X141153142Y-120941400D01*
X141690771Y-121075277D01*
X142235545Y-121210554D01*
X142781205Y-121345680D01*
X143321491Y-121479102D01*
X143850143Y-121609269D01*
X144360901Y-121734628D01*
X144847505Y-121853629D01*
X145303695Y-121964719D01*
X145723211Y-122066346D01*
X146099794Y-122156959D01*
X146427182Y-122235005D01*
X146699117Y-122298933D01*
X146909339Y-122347191D01*
X147051587Y-122378227D01*
X147119601Y-122390489D01*
X147124000Y-122390510D01*
X147173992Y-122376252D01*
X147301236Y-122338339D01*
X147502025Y-122277900D01*
X147772654Y-122196062D01*
X148109416Y-122093956D01*
X148508605Y-121972710D01*
X148966517Y-121833454D01*
X149479443Y-121677317D01*
X150043679Y-121505427D01*
X150655517Y-121318915D01*
X151311254Y-121118909D01*
X152007181Y-120906537D01*
X152739593Y-120682930D01*
X153504784Y-120449217D01*
X154299049Y-120206526D01*
X155118680Y-119955986D01*
X155959972Y-119698727D01*
X156162167Y-119636884D01*
X157007043Y-119378370D01*
X157830535Y-119126228D01*
X158628977Y-118881588D01*
X159398701Y-118645579D01*
X160136040Y-118419331D01*
X160837328Y-118203973D01*
X161498898Y-118000635D01*
X162117083Y-117810446D01*
X162688216Y-117634537D01*
X163208630Y-117474036D01*
X163674658Y-117330074D01*
X164082633Y-117203779D01*
X164428888Y-117096282D01*
X164709757Y-117008712D01*
X164921572Y-116942199D01*
X165060666Y-116897872D01*
X165123374Y-116876860D01*
X165126688Y-116875380D01*
X165135485Y-116827660D01*
X165146083Y-116705110D01*
X165157968Y-116517534D01*
X165170621Y-116274736D01*
X165183528Y-115986519D01*
X165196171Y-115662690D01*
X165206629Y-115357308D01*
X165254382Y-113868558D01*
X165157070Y-113789759D01*
X165059758Y-113710961D01*
X165112931Y-112743819D01*
X165166105Y-111776678D01*
X165516026Y-111366279D01*
X165865947Y-110955879D01*
X165892088Y-110580356D01*
X165901624Y-110429194D01*
X165914050Y-110210982D01*
X165928436Y-109943250D01*
X165943850Y-109643528D01*
X165959364Y-109329346D01*
X165967492Y-109159078D01*
X166016756Y-108113322D01*
X165721953Y-107797651D01*
X165427151Y-107481979D01*
X165367423Y-106684406D01*
X165348635Y-106431980D01*
X165332190Y-106208082D01*
X165319090Y-106026611D01*
X165310338Y-105901465D01*
X165306938Y-105846544D01*
X165306931Y-105846234D01*
X165344428Y-105817010D01*
X165442475Y-105782586D01*
X165551043Y-105756580D01*
X165684322Y-105727807D01*
X165779049Y-105703455D01*
X165810407Y-105691346D01*
X165842185Y-105642314D01*
X165897528Y-105546241D01*
X165963173Y-105427484D01*
X166025855Y-105310398D01*
X166072311Y-105219342D01*
X166089334Y-105179152D01*
X166058062Y-105147654D01*
X165968787Y-105067550D01*
X165828317Y-104944713D01*
X165643461Y-104785012D01*
X165421028Y-104594321D01*
X165167826Y-104378512D01*
X164890665Y-104143454D01*
X164773553Y-104044459D01*
X164443092Y-103764794D01*
X164172307Y-103534024D01*
X163955692Y-103347007D01*
X163787742Y-103198604D01*
X163662950Y-103083673D01*
X163575812Y-102997074D01*
X163520822Y-102933666D01*
X163492474Y-102888309D01*
X163485262Y-102855861D01*
X163487572Y-102843718D01*
X163504200Y-102759746D01*
X163521141Y-102618858D01*
X163535184Y-102448733D01*
X163537282Y-102415014D01*
X163557192Y-102075861D01*
X163373346Y-101883841D01*
X163258403Y-101770334D01*
X163151046Y-101675142D01*
X163090990Y-101630026D01*
X162992479Y-101568231D01*
X163123738Y-101062701D01*
X163307123Y-100257297D01*
X163428654Y-99483190D01*
X163491038Y-98716899D01*
X163496980Y-97934945D01*
X163494335Y-97847854D01*
X163456741Y-97222964D01*
X163385030Y-96639793D01*
X163274443Y-96079651D01*
X163120222Y-95523850D01*
X162917610Y-94953698D01*
X162661848Y-94350506D01*
X162534114Y-94075834D01*
X162038328Y-92957646D01*
X161604623Y-91820129D01*
X161240157Y-90682772D01*
X161097817Y-90165363D01*
X161038966Y-89942821D01*
X160986385Y-89750429D01*
X160944136Y-89602552D01*
X160916281Y-89513554D01*
X160908078Y-89494300D01*
X160845393Y-89486223D01*
X160733604Y-89519651D01*
X160591386Y-89585352D01*
X160437414Y-89674093D01*
X160290363Y-89776641D01*
X160221041Y-89833946D01*
X160060196Y-89977799D01*
X159949410Y-90070209D01*
X159872388Y-90112325D01*
X159812837Y-90105294D01*
X159754461Y-90050264D01*
X159680967Y-89948383D01*
X159630163Y-89875569D01*
X159552628Y-89766600D01*
X159434029Y-89600689D01*
X159282793Y-89389586D01*
X159107345Y-89145043D01*
X158916114Y-88878813D01*
X158717526Y-88602648D01*
X158680602Y-88551334D01*
X158361629Y-88106259D01*
X158087552Y-87719505D01*
X157852160Y-87381891D01*
X157649242Y-87084235D01*
X157472585Y-86817358D01*
X157315980Y-86572078D01*
X157173214Y-86339214D01*
X157096207Y-86209470D01*
X156908164Y-85873471D01*
X156715301Y-85501051D01*
X156528036Y-85114350D01*
X156356789Y-84735512D01*
X156211979Y-84386680D01*
X156116510Y-84127500D01*
X156051510Y-83940284D01*
X155993652Y-83782381D01*
X155949553Y-83671298D01*
X155926829Y-83625514D01*
X155861318Y-83611086D01*
X155741595Y-83639785D01*
X155582630Y-83705931D01*
X155399396Y-83803846D01*
X155306866Y-83860688D01*
X155174728Y-83939320D01*
X155068658Y-83991262D01*
X155009208Y-84006632D01*
X155005917Y-84005393D01*
X154981878Y-83953849D01*
X154957409Y-83843149D01*
X154939995Y-83715940D01*
X154921787Y-83583584D01*
X154889270Y-83389175D01*
X154846172Y-83153381D01*
X154796223Y-82896873D01*
X154762198Y-82730500D01*
X154683731Y-82353492D01*
X154620900Y-82046029D01*
X154571974Y-81794791D01*
X154535225Y-81586457D01*
X154508920Y-81407708D01*
X154491330Y-81245221D01*
X154480724Y-81085677D01*
X154475373Y-80915754D01*
X154473545Y-80722132D01*
X154473492Y-80508000D01*
X154474810Y-80220519D01*
X154479214Y-79998976D01*
X154488464Y-79824656D01*
X154504322Y-79678841D01*
X154528549Y-79542813D01*
X154562905Y-79397856D01*
X154586253Y-79309409D01*
X154653696Y-79081732D01*
X154735810Y-78837366D01*
X154818098Y-78618675D01*
X154843552Y-78557664D01*
X154988958Y-78221344D01*
X154884283Y-78195072D01*
X154728892Y-78182224D01*
X154521957Y-78201973D01*
X154288319Y-78250401D01*
X154052822Y-78323588D01*
X154040432Y-78328208D01*
X153839828Y-78411411D01*
X153579576Y-78531150D01*
X153272717Y-78680550D01*
X152932295Y-78852736D01*
X152571354Y-79040835D01*
X152202934Y-79237972D01*
X151840081Y-79437272D01*
X151495836Y-79631862D01*
X151183242Y-79814868D01*
X150955167Y-79954296D01*
X150100363Y-80530884D01*
X149323815Y-81139307D01*
X148625580Y-81779499D01*
X148005718Y-82451399D01*
X147464287Y-83154941D01*
X147001346Y-83890062D01*
X146616954Y-84656699D01*
X146612158Y-84667590D01*
X146532381Y-84837501D01*
X146472113Y-84936261D01*
X146424907Y-84973308D01*
X146404334Y-84971694D01*
X146244087Y-84920239D01*
X146025017Y-84863272D01*
X145772262Y-84806196D01*
X145510960Y-84754416D01*
X145266248Y-84713334D01*
X145104823Y-84692378D01*
X144671036Y-84672629D01*
X144217952Y-84698313D01*
X143784171Y-84766378D01*
X143601328Y-84811195D01*
X143359489Y-84878605D01*
X143423043Y-85032219D01*
X143467646Y-85126357D01*
X143544505Y-85274739D01*
X143643494Y-85458315D01*
X143754487Y-85658034D01*
X143774735Y-85693834D01*
X143893453Y-85909498D01*
X144007354Y-86127658D01*
X144103960Y-86323711D01*
X144170790Y-86473057D01*
X144173791Y-86480522D01*
X144304104Y-86913692D01*
X144356277Y-87354694D01*
X144329331Y-87790075D01*
X144284868Y-88005384D01*
X144245409Y-88157935D01*
X143829973Y-88018783D01*
X143521431Y-87926250D01*
X143197856Y-87847984D01*
X142884631Y-87788998D01*
X142607138Y-87754300D01*
X142453897Y-87747135D01*
X142331858Y-87751311D01*
X142276209Y-87768957D01*
X142268894Y-87807434D01*
X142272476Y-87821084D01*
X142339068Y-88077767D01*
X142401035Y-88384033D01*
X142452423Y-88704804D01*
X142487278Y-89005006D01*
X142497023Y-89144000D01*
X142505157Y-89323684D01*
X142508221Y-89479707D01*
X142502493Y-89620372D01*
X142484247Y-89753982D01*
X142449762Y-89888838D01*
X142395313Y-90033245D01*
X142317177Y-90195504D01*
X142211630Y-90383919D01*
X142074949Y-90606793D01*
X141903410Y-90872427D01*
X141693290Y-91189125D01*
X141440865Y-91565189D01*
X141351889Y-91697428D01*
X141120063Y-92043215D01*
X140890445Y-92388057D01*
X140670143Y-92721111D01*
X140466267Y-93031539D01*
X140285926Y-93308500D01*
X140136229Y-93541154D01*
X140024284Y-93718660D01*
X139993415Y-93768917D01*
X139857569Y-93988281D01*
X139754931Y-94142586D01*
X139678260Y-94241153D01*
X139620312Y-94293301D01*
X139574225Y-94308354D01*
X139517998Y-94303760D01*
X139384504Y-94290574D01*
X139180631Y-94269534D01*
X138913264Y-94241375D01*
X138589287Y-94206836D01*
X138215588Y-94166653D01*
X137799051Y-94121564D01*
X137346562Y-94072304D01*
X136865007Y-94019612D01*
X136434834Y-93972329D01*
X133386834Y-93636616D01*
X132456798Y-94561840D01*
X132766230Y-94873351D01*
X133075662Y-95184863D01*
X130807954Y-97570623D01*
X128540245Y-99956383D01*
X128529373Y-102854681D01*
X128518500Y-105752978D01*
X127783641Y-106060876D01*
X127552781Y-106158035D01*
X127350501Y-106243988D01*
X127189105Y-106313440D01*
X127080894Y-106361096D01*
X127038171Y-106381660D01*
X127038029Y-106381803D01*
X127035313Y-106425431D01*
X127031683Y-106545469D01*
X127027294Y-106733668D01*
X127022303Y-106981777D01*
X127016867Y-107281548D01*
X127011142Y-107624731D01*
X127005286Y-108003076D01*
X126999454Y-108408334D01*
X126999198Y-108426834D01*
X126971122Y-110458834D01*
X126889110Y-110458834D01*
X126888898Y-109502617D01*
X126890144Y-109135187D01*
X126893757Y-108714818D01*
X126899325Y-108273193D01*
X126906435Y-107841996D01*
X126914678Y-107452908D01*
X126916409Y-107383579D01*
X126944152Y-106305425D01*
X128433834Y-105673871D01*
X128455000Y-102774465D01*
X128476167Y-99875059D01*
X130688083Y-97550159D01*
X131041927Y-97177801D01*
X131378281Y-96822993D01*
X131692647Y-96490532D01*
X131980526Y-96185216D01*
X132237420Y-95911843D01*
X132458830Y-95675210D01*
X132640258Y-95480115D01*
X132777206Y-95331357D01*
X132865174Y-95233733D01*
X132899664Y-95192041D01*
X132900000Y-95191090D01*
X132872678Y-95147518D01*
X132799191Y-95058126D01*
X132692255Y-94937930D01*
X132617162Y-94857098D01*
X132334324Y-94557274D01*
X132845432Y-94046167D01*
X133356540Y-93535059D01*
X134366520Y-93645600D01*
X134628924Y-93674265D01*
X134960556Y-93710402D01*
X135346466Y-93752389D01*
X135771705Y-93798601D01*
X136221325Y-93847414D01*
X136680377Y-93897203D01*
X137133910Y-93946345D01*
X137345000Y-93969199D01*
X137749426Y-94013098D01*
X138132183Y-94054889D01*
X138484184Y-94093562D01*
X138796343Y-94128108D01*
X139059571Y-94157517D01*
X139264781Y-94180779D01*
X139402886Y-94196885D01*
X139461667Y-94204334D01*
X139554129Y-94211617D01*
X139615178Y-94187054D01*
X139671856Y-94113413D01*
X139711218Y-94045289D01*
X139813857Y-93870143D01*
X139959396Y-93633893D01*
X140142378Y-93344933D01*
X140357350Y-93011660D01*
X140598856Y-92642470D01*
X140861441Y-92245757D01*
X141139649Y-91829918D01*
X141424042Y-91409210D01*
X141620093Y-91118069D01*
X141803936Y-90840080D01*
X141969200Y-90585257D01*
X142109516Y-90363612D01*
X142218513Y-90185159D01*
X142289822Y-90059912D01*
X142312773Y-90012210D01*
X142379350Y-89754672D01*
X142404744Y-89428378D01*
X142389239Y-89038391D01*
X142333122Y-88589771D01*
X142236680Y-88087578D01*
X142193327Y-87899577D01*
X142133434Y-87649986D01*
X142607300Y-87675491D01*
X142802841Y-87687077D01*
X142960364Y-87700724D01*
X143101233Y-87720555D01*
X143246813Y-87750694D01*
X143418471Y-87795262D01*
X143637572Y-87858385D01*
X143790543Y-87903850D01*
X143956537Y-87949473D01*
X144091115Y-87979111D01*
X144174550Y-87988766D01*
X144190825Y-87984953D01*
X144205353Y-87932287D01*
X144220040Y-87815172D01*
X144232687Y-87653796D01*
X144238041Y-87551985D01*
X144244389Y-87375672D01*
X144244448Y-87221437D01*
X144234753Y-87079264D01*
X144211843Y-86939137D01*
X144172255Y-86791041D01*
X144112528Y-86624960D01*
X144029197Y-86430879D01*
X143918803Y-86198781D01*
X143777881Y-85918653D01*
X143602970Y-85580478D01*
X143465572Y-85317455D01*
X143375854Y-85138289D01*
X143307049Y-84985775D01*
X143265636Y-84875451D01*
X143258096Y-84822852D01*
X143258880Y-84821854D01*
X143334995Y-84782190D01*
X143478140Y-84738986D01*
X143670949Y-84695490D01*
X143896057Y-84654947D01*
X144136098Y-84620602D01*
X144373707Y-84595702D01*
X144520500Y-84586031D01*
X145082548Y-84592316D01*
X145636341Y-84667286D01*
X146122639Y-84788265D01*
X146265552Y-84828629D01*
X146371764Y-84854694D01*
X146420236Y-84861349D01*
X146421098Y-84860750D01*
X146440709Y-84818605D01*
X146486274Y-84716562D01*
X146549915Y-84572338D01*
X146590699Y-84479330D01*
X146837653Y-83978848D01*
X147146796Y-83456824D01*
X147505475Y-82931303D01*
X147901037Y-82420329D01*
X148320830Y-81941949D01*
X148499834Y-81756587D01*
X148926227Y-81349878D01*
X149383981Y-80956599D01*
X149880499Y-80571747D01*
X150423183Y-80190321D01*
X151019436Y-79807317D01*
X151676661Y-79417732D01*
X152402260Y-79016566D01*
X153077636Y-78663075D01*
X153499387Y-78456173D01*
X153861509Y-78298568D01*
X154171299Y-78187699D01*
X154436053Y-78121002D01*
X154663068Y-78095914D01*
X154693269Y-78095578D01*
X154904860Y-78104297D01*
D13*
X137465000Y-97557500D02*
X137465000Y-95272500D01*
X137465000Y-95272500D02*
X138935000Y-95272500D01*
X138935000Y-95272500D02*
X138935000Y-97557500D01*
X143583483Y-104342930D02*
X141967744Y-102727191D01*
X144622930Y-103303483D02*
X143583483Y-104342930D01*
X143007191Y-101687744D02*
X144622930Y-103303483D01*
X150875129Y-105707876D02*
X153156998Y-105588288D01*
X153156998Y-105588288D02*
X153233932Y-107056274D01*
X153233932Y-107056274D02*
X150952063Y-107175861D01*
X161509747Y-106572727D02*
X159226138Y-106652472D01*
X161458444Y-105103622D02*
X161509747Y-106572727D01*
X159174836Y-105183367D02*
X161458444Y-105103622D01*
X143180000Y-111795000D02*
X143180000Y-116995000D01*
X150920000Y-111795000D02*
X150920000Y-116995000D01*
X143750000Y-110355000D02*
X143750000Y-111795000D01*
X143180000Y-111795000D02*
X143750000Y-111795000D01*
X143180000Y-116995000D02*
X143750000Y-116995000D01*
X150350000Y-111795000D02*
X150920000Y-111795000D01*
X150350000Y-116995000D02*
X150920000Y-116995000D01*
X145270000Y-111795000D02*
X146290000Y-111795000D01*
X145270000Y-116995000D02*
X146290000Y-116995000D01*
X147810000Y-111795000D02*
X148830000Y-111795000D01*
X147810000Y-116995000D02*
X148830000Y-116995000D01*
X135550000Y-107620000D02*
X136550000Y-107620000D01*
X135550000Y-104260000D02*
X136550000Y-104260000D01*
X156878922Y-117710000D02*
X157396078Y-117710000D01*
X156878922Y-116290000D02*
X157396078Y-116290000D01*
X163260000Y-114196078D02*
X163260000Y-113678922D01*
X161840000Y-114196078D02*
X161840000Y-113678922D01*
X157050000Y-110190000D02*
X159000000Y-110190000D01*
X157050000Y-110190000D02*
X155100000Y-110190000D01*
X157050000Y-115310000D02*
X159000000Y-115310000D01*
X157050000Y-115310000D02*
X153600000Y-115310000D01*
D10*
X137222380Y-96019404D02*
X136222380Y-96019404D01*
X136222380Y-96257500D01*
X136270000Y-96400357D01*
X136365238Y-96495595D01*
X136460476Y-96543214D01*
X136650952Y-96590833D01*
X136793809Y-96590833D01*
X136984285Y-96543214D01*
X137079523Y-96495595D01*
X137174761Y-96400357D01*
X137222380Y-96257500D01*
X137222380Y-96019404D01*
X137222380Y-97543214D02*
X137222380Y-96971785D01*
X137222380Y-97257500D02*
X136222380Y-97257500D01*
X136365238Y-97162261D01*
X136460476Y-97067023D01*
X136508095Y-96971785D01*
X144266346Y-102603783D02*
X144973453Y-101896677D01*
X144805094Y-101728318D01*
X144670407Y-101660974D01*
X144535720Y-101660974D01*
X144434705Y-101694646D01*
X144266346Y-101795661D01*
X144165331Y-101896677D01*
X144064316Y-102065035D01*
X144030644Y-102166051D01*
X144030644Y-102300738D01*
X144097987Y-102435425D01*
X144266346Y-102603783D01*
X144232674Y-101290585D02*
X144232674Y-101223241D01*
X144199003Y-101122226D01*
X144030644Y-100953867D01*
X143929628Y-100920196D01*
X143862285Y-100920196D01*
X143761270Y-100953867D01*
X143693926Y-101021211D01*
X143626583Y-101155898D01*
X143626583Y-101964020D01*
X143188850Y-101526287D01*
X152398419Y-105385092D02*
X152346083Y-104386462D01*
X152108314Y-104398923D01*
X151968145Y-104453953D01*
X151878022Y-104554045D01*
X151835452Y-104651645D01*
X151797867Y-104844352D01*
X151805344Y-104987014D01*
X151862866Y-105174737D01*
X151915405Y-105267352D01*
X152015497Y-105357475D01*
X152160650Y-105397553D01*
X152398419Y-105385092D01*
X151442561Y-104433814D02*
X150824362Y-104466212D01*
X151177176Y-104829197D01*
X151034514Y-104836674D01*
X150941899Y-104889212D01*
X150896838Y-104939258D01*
X150854268Y-105036858D01*
X150866729Y-105274626D01*
X150919267Y-105367242D01*
X150969313Y-105412303D01*
X151066913Y-105454873D01*
X151352236Y-105439920D01*
X151444851Y-105387382D01*
X151489913Y-105337336D01*
X160703527Y-104887217D02*
X160668627Y-103887826D01*
X160430677Y-103896135D01*
X160289569Y-103948711D01*
X160197713Y-104047215D01*
X160153446Y-104144057D01*
X160112504Y-104336079D01*
X160117490Y-104478849D01*
X160171727Y-104667547D01*
X160222641Y-104761065D01*
X160321145Y-104852922D01*
X160465577Y-104895526D01*
X160703527Y-104887217D01*
X159252559Y-104270813D02*
X159275826Y-104937073D01*
X159477215Y-103881783D02*
X159740093Y-104587324D01*
X159121423Y-104608929D01*
X141632380Y-114061666D02*
X142346666Y-114061666D01*
X142489523Y-114014047D01*
X142584761Y-113918809D01*
X142632380Y-113775952D01*
X142632380Y-113680714D01*
X142632380Y-115061666D02*
X142632380Y-114490238D01*
X142632380Y-114775952D02*
X141632380Y-114775952D01*
X141775238Y-114680714D01*
X141870476Y-114585476D01*
X141918095Y-114490238D01*
X136740476Y-103592380D02*
X137073809Y-103116190D01*
X137311904Y-103592380D02*
X137311904Y-102592380D01*
X136930952Y-102592380D01*
X136835714Y-102640000D01*
X136788095Y-102687619D01*
X136740476Y-102782857D01*
X136740476Y-102925714D01*
X136788095Y-103020952D01*
X136835714Y-103068571D01*
X136930952Y-103116190D01*
X137311904Y-103116190D01*
X136311904Y-103592380D02*
X136311904Y-102592380D01*
X135740476Y-103592380D01*
X135740476Y-102592380D01*
X134740476Y-103592380D02*
X135311904Y-103592380D01*
X135026190Y-103592380D02*
X135026190Y-102592380D01*
X135121428Y-102735238D01*
X135216666Y-102830476D01*
X135311904Y-102878095D01*
X133120806Y-112640301D02*
X132970673Y-112651945D01*
X132739650Y-112594345D01*
X132658761Y-112525100D01*
X132624076Y-112467375D01*
X132600912Y-112363446D01*
X132623952Y-112271037D01*
X132693197Y-112190148D01*
X132750922Y-112155463D01*
X132854851Y-112132299D01*
X133051189Y-112132175D01*
X133155118Y-112109010D01*
X133212843Y-112074326D01*
X133282088Y-111993437D01*
X133305128Y-111901028D01*
X133281963Y-111797099D01*
X133247279Y-111739374D01*
X133166390Y-111670129D01*
X132935367Y-111612529D01*
X132785233Y-111624173D01*
X132473322Y-111497328D02*
X132000377Y-112410023D01*
X131988360Y-111670874D01*
X131630740Y-112317862D01*
X131641640Y-111289966D01*
X130521831Y-112041380D02*
X131076286Y-112179621D01*
X130799058Y-112110501D02*
X131040980Y-111140205D01*
X131098829Y-111301859D01*
X131168198Y-111417308D01*
X131249087Y-111486553D01*
X157304166Y-119007142D02*
X157351785Y-119054761D01*
X157494642Y-119102380D01*
X157589880Y-119102380D01*
X157732738Y-119054761D01*
X157827976Y-118959523D01*
X157875595Y-118864285D01*
X157923214Y-118673809D01*
X157923214Y-118530952D01*
X157875595Y-118340476D01*
X157827976Y-118245238D01*
X157732738Y-118150000D01*
X157589880Y-118102380D01*
X157494642Y-118102380D01*
X157351785Y-118150000D01*
X157304166Y-118197619D01*
X156351785Y-119102380D02*
X156923214Y-119102380D01*
X156637500Y-119102380D02*
X156637500Y-118102380D01*
X156732738Y-118245238D01*
X156827976Y-118340476D01*
X156923214Y-118388095D01*
X164652380Y-113770833D02*
X164176190Y-113437500D01*
X164652380Y-113199404D02*
X163652380Y-113199404D01*
X163652380Y-113580357D01*
X163700000Y-113675595D01*
X163747619Y-113723214D01*
X163842857Y-113770833D01*
X163985714Y-113770833D01*
X164080952Y-113723214D01*
X164128571Y-113675595D01*
X164176190Y-113580357D01*
X164176190Y-113199404D01*
X164652380Y-114723214D02*
X164652380Y-114151785D01*
X164652380Y-114437500D02*
X163652380Y-114437500D01*
X163795238Y-114342261D01*
X163890476Y-114247023D01*
X163938095Y-114151785D01*
X157811904Y-115602380D02*
X157811904Y-116411904D01*
X157764285Y-116507142D01*
X157716666Y-116554761D01*
X157621428Y-116602380D01*
X157430952Y-116602380D01*
X157335714Y-116554761D01*
X157288095Y-116507142D01*
X157240476Y-116411904D01*
X157240476Y-115602380D01*
X156240476Y-116602380D02*
X156811904Y-116602380D01*
X156526190Y-116602380D02*
X156526190Y-115602380D01*
X156621428Y-115745238D01*
X156716666Y-115840476D01*
X156811904Y-115888095D01*
M02*
