G04 #@! TF.GenerationSoftware,KiCad,Pcbnew,(5.99.0-9526-g5c17ff0595)*
G04 #@! TF.CreationDate,2021-07-11T20:16:44-05:00*
G04 #@! TF.ProjectId,dumpsterFire,64756d70-7374-4657-9246-6972652e6b69,rev?*
G04 #@! TF.SameCoordinates,Original*
G04 #@! TF.FileFunction,Copper,L2,Bot*
G04 #@! TF.FilePolarity,Positive*
%FSLAX46Y46*%
G04 Gerber Fmt 4.6, Leading zero omitted, Abs format (unit mm)*
G04 Created by KiCad (PCBNEW (5.99.0-9526-g5c17ff0595)) date 2021-07-11 20:16:44*
%MOMM*%
%LPD*%
G01*
G04 APERTURE LIST*
G04 Aperture macros list*
%AMRoundRect*
0 Rectangle with rounded corners*
0 $1 Rounding radius*
0 $2 $3 $4 $5 $6 $7 $8 $9 X,Y pos of 4 corners*
0 Add a 4 corners polygon primitive as box body*
4,1,4,$2,$3,$4,$5,$6,$7,$8,$9,$2,$3,0*
0 Add four circle primitives for the rounded corners*
1,1,$1+$1,$2,$3*
1,1,$1+$1,$4,$5*
1,1,$1+$1,$6,$7*
1,1,$1+$1,$8,$9*
0 Add four rect primitives between the rounded corners*
20,1,$1+$1,$2,$3,$4,$5,0*
20,1,$1+$1,$4,$5,$6,$7,0*
20,1,$1+$1,$6,$7,$8,$9,0*
20,1,$1+$1,$8,$9,$2,$3,0*%
%AMRotRect*
0 Rectangle, with rotation*
0 The origin of the aperture is its center*
0 $1 length*
0 $2 width*
0 $3 Rotation angle, in degrees counterclockwise*
0 Add horizontal line*
21,1,$1,$2,0,0,$3*%
G04 Aperture macros list end*
G04 #@! TA.AperFunction,EtchedComponent*
%ADD10C,0.010000*%
G04 #@! TD*
G04 #@! TA.AperFunction,SMDPad,CuDef*
%ADD11RoundRect,0.218750X-0.256250X0.218750X-0.256250X-0.218750X0.256250X-0.218750X0.256250X0.218750X0*%
G04 #@! TD*
G04 #@! TA.AperFunction,SMDPad,CuDef*
%ADD12RoundRect,0.218750X0.335876X0.026517X0.026517X0.335876X-0.335876X-0.026517X-0.026517X-0.335876X0*%
G04 #@! TD*
G04 #@! TA.AperFunction,SMDPad,CuDef*
%ADD13RoundRect,0.218750X0.205039X0.267347X-0.231861X0.244450X-0.205039X-0.267347X0.231861X-0.244450X0*%
G04 #@! TD*
G04 #@! TA.AperFunction,SMDPad,CuDef*
%ADD14RoundRect,0.218750X0.209674X0.263728X-0.227560X0.248460X-0.209674X-0.263728X0.227560X-0.248460X0*%
G04 #@! TD*
G04 #@! TA.AperFunction,SMDPad,CuDef*
%ADD15R,1.000000X3.150000*%
G04 #@! TD*
G04 #@! TA.AperFunction,SMDPad,CuDef*
%ADD16R,0.800000X0.500000*%
G04 #@! TD*
G04 #@! TA.AperFunction,SMDPad,CuDef*
%ADD17R,0.800000X0.400000*%
G04 #@! TD*
G04 #@! TA.AperFunction,SMDPad,CuDef*
%ADD18RotRect,0.800000X0.900000X346.000000*%
G04 #@! TD*
G04 #@! TA.AperFunction,SMDPad,CuDef*
%ADD19RotRect,0.900000X1.250000X346.000000*%
G04 #@! TD*
G04 #@! TA.AperFunction,SMDPad,CuDef*
%ADD20RoundRect,0.243750X-0.243750X-0.456250X0.243750X-0.456250X0.243750X0.456250X-0.243750X0.456250X0*%
G04 #@! TD*
G04 #@! TA.AperFunction,SMDPad,CuDef*
%ADD21RoundRect,0.243750X0.456250X-0.243750X0.456250X0.243750X-0.456250X0.243750X-0.456250X-0.243750X0*%
G04 #@! TD*
G04 #@! TA.AperFunction,SMDPad,CuDef*
%ADD22RoundRect,0.150000X-0.675000X-0.150000X0.675000X-0.150000X0.675000X0.150000X-0.675000X0.150000X0*%
G04 #@! TD*
G04 #@! TA.AperFunction,ViaPad*
%ADD23C,0.600000*%
G04 #@! TD*
G04 #@! TA.AperFunction,Conductor*
%ADD24C,0.250000*%
G04 #@! TD*
G04 APERTURE END LIST*
D10*
X132580587Y-107229101D02*
X132397524Y-107321441D01*
X132397524Y-107321441D02*
X132261592Y-107455243D01*
X132261592Y-107455243D02*
X132254211Y-107466445D01*
X132254211Y-107466445D02*
X132215704Y-107536560D01*
X132215704Y-107536560D02*
X132194213Y-107611161D01*
X132194213Y-107611161D02*
X132187740Y-107711906D01*
X132187740Y-107711906D02*
X132194287Y-107860454D01*
X132194287Y-107860454D02*
X132205088Y-107999000D01*
X132205088Y-107999000D02*
X132218682Y-108207176D01*
X132218682Y-108207176D02*
X132229873Y-108465106D01*
X132229873Y-108465106D02*
X132237394Y-108737886D01*
X132237394Y-108737886D02*
X132239962Y-108959064D01*
X132239962Y-108959064D02*
X132239221Y-109191042D01*
X132239221Y-109191042D02*
X132234387Y-109355025D01*
X132234387Y-109355025D02*
X132223305Y-109467664D01*
X132223305Y-109467664D02*
X132203820Y-109545610D01*
X132203820Y-109545610D02*
X132173775Y-109605512D01*
X132173775Y-109605512D02*
X132152268Y-109636397D01*
X132152268Y-109636397D02*
X132066398Y-109721274D01*
X132066398Y-109721274D02*
X131952822Y-109761004D01*
X131952822Y-109761004D02*
X131879984Y-109769227D01*
X131879984Y-109769227D02*
X131632110Y-109750096D01*
X131632110Y-109750096D02*
X131404281Y-109652890D01*
X131404281Y-109652890D02*
X131190656Y-109474818D01*
X131190656Y-109474818D02*
X131135776Y-109413825D01*
X131135776Y-109413825D02*
X131031108Y-109300241D01*
X131031108Y-109300241D02*
X130940934Y-109218178D01*
X130940934Y-109218178D02*
X130883859Y-109184453D01*
X130883859Y-109184453D02*
X130881888Y-109184334D01*
X130881888Y-109184334D02*
X130826245Y-109217452D01*
X130826245Y-109217452D02*
X130752818Y-109301096D01*
X130752818Y-109301096D02*
X130720495Y-109348393D01*
X130720495Y-109348393D02*
X130573131Y-109539127D01*
X130573131Y-109539127D02*
X130423087Y-109653226D01*
X130423087Y-109653226D02*
X130275716Y-109689020D01*
X130275716Y-109689020D02*
X130136369Y-109644837D01*
X130136369Y-109644837D02*
X130042029Y-109560223D01*
X130042029Y-109560223D02*
X129961347Y-109451415D01*
X129961347Y-109451415D02*
X129891066Y-109323458D01*
X129891066Y-109323458D02*
X129823918Y-109159221D01*
X129823918Y-109159221D02*
X129752636Y-108941574D01*
X129752636Y-108941574D02*
X129694015Y-108739834D01*
X129694015Y-108739834D02*
X129634550Y-108529010D01*
X129634550Y-108529010D02*
X129572317Y-108309557D01*
X129572317Y-108309557D02*
X129518667Y-108121471D01*
X129518667Y-108121471D02*
X129507754Y-108083442D01*
X129507754Y-108083442D02*
X129428584Y-107808050D01*
X129428584Y-107808050D02*
X129000435Y-107644582D01*
X129000435Y-107644582D02*
X128782433Y-107565972D01*
X128782433Y-107565972D02*
X128634002Y-107523703D01*
X128634002Y-107523703D02*
X128548999Y-107516227D01*
X128548999Y-107516227D02*
X128527855Y-107525545D01*
X128527855Y-107525545D02*
X128497323Y-107584474D01*
X128497323Y-107584474D02*
X128530260Y-107644145D01*
X128530260Y-107644145D02*
X128632714Y-107709634D01*
X128632714Y-107709634D02*
X128810730Y-107786021D01*
X128810730Y-107786021D02*
X128860113Y-107804600D01*
X128860113Y-107804600D02*
X129019737Y-107866840D01*
X129019737Y-107866840D02*
X129150704Y-107923866D01*
X129150704Y-107923866D02*
X129230730Y-107965783D01*
X129230730Y-107965783D02*
X129241473Y-107973933D01*
X129241473Y-107973933D02*
X129269685Y-108030037D01*
X129269685Y-108030037D02*
X129313474Y-108151746D01*
X129313474Y-108151746D02*
X129367447Y-108322637D01*
X129367447Y-108322637D02*
X129426210Y-108526288D01*
X129426210Y-108526288D02*
X129442749Y-108586804D01*
X129442749Y-108586804D02*
X129553263Y-108968610D01*
X129553263Y-108968610D02*
X129659349Y-109273568D01*
X129659349Y-109273568D02*
X129765154Y-109509062D01*
X129765154Y-109509062D02*
X129874827Y-109682475D01*
X129874827Y-109682475D02*
X129992515Y-109801190D01*
X129992515Y-109801190D02*
X130122365Y-109872591D01*
X130122365Y-109872591D02*
X130173931Y-109888398D01*
X130173931Y-109888398D02*
X130347621Y-109891191D01*
X130347621Y-109891191D02*
X130531426Y-109824646D01*
X130531426Y-109824646D02*
X130703741Y-109697924D01*
X130703741Y-109697924D02*
X130757431Y-109640944D01*
X130757431Y-109640944D02*
X130908489Y-109464467D01*
X130908489Y-109464467D02*
X131078458Y-109641355D01*
X131078458Y-109641355D02*
X131262966Y-109807866D01*
X131262966Y-109807866D02*
X131446288Y-109910737D01*
X131446288Y-109910737D02*
X131659082Y-109964778D01*
X131659082Y-109964778D02*
X131773587Y-109977186D01*
X131773587Y-109977186D02*
X131931029Y-109983485D01*
X131931029Y-109983485D02*
X132040094Y-109967957D01*
X132040094Y-109967957D02*
X132135756Y-109923620D01*
X132135756Y-109923620D02*
X132177666Y-109896552D01*
X132177666Y-109896552D02*
X132305913Y-109768677D01*
X132305913Y-109768677D02*
X132397302Y-109581493D01*
X132397302Y-109581493D02*
X132452345Y-109331317D01*
X132452345Y-109331317D02*
X132471551Y-109014461D01*
X132471551Y-109014461D02*
X132455431Y-108627242D01*
X132455431Y-108627242D02*
X132410818Y-108213076D01*
X132410818Y-108213076D02*
X132382055Y-107961873D01*
X132382055Y-107961873D02*
X132374811Y-107778459D01*
X132374811Y-107778459D02*
X132392863Y-107647833D01*
X132392863Y-107647833D02*
X132439991Y-107554997D01*
X132439991Y-107554997D02*
X132519973Y-107484951D01*
X132519973Y-107484951D02*
X132606298Y-107437122D01*
X132606298Y-107437122D02*
X132751342Y-107392101D01*
X132751342Y-107392101D02*
X132889703Y-107410585D01*
X132889703Y-107410585D02*
X133037459Y-107497350D01*
X133037459Y-107497350D02*
X133153421Y-107599650D01*
X133153421Y-107599650D02*
X133248884Y-107685110D01*
X133248884Y-107685110D02*
X133311491Y-107715811D01*
X133311491Y-107715811D02*
X133363708Y-107701090D01*
X133363708Y-107701090D02*
X133376473Y-107692361D01*
X133376473Y-107692361D02*
X133423927Y-107647661D01*
X133423927Y-107647661D02*
X133417648Y-107598669D01*
X133417648Y-107598669D02*
X133379475Y-107539482D01*
X133379475Y-107539482D02*
X133270040Y-107426072D01*
X133270040Y-107426072D02*
X133117499Y-107319287D01*
X133117499Y-107319287D02*
X132952595Y-107236782D01*
X132952595Y-107236782D02*
X132806072Y-107196212D01*
X132806072Y-107196212D02*
X132779026Y-107194667D01*
X132779026Y-107194667D02*
X132580587Y-107229101D01*
X132580587Y-107229101D02*
X132580587Y-107229101D01*
G36*
X132806072Y-107196212D02*
G01*
X132952595Y-107236782D01*
X133117499Y-107319287D01*
X133270040Y-107426072D01*
X133379475Y-107539482D01*
X133417648Y-107598669D01*
X133423927Y-107647661D01*
X133376473Y-107692361D01*
X133363708Y-107701090D01*
X133311491Y-107715811D01*
X133248884Y-107685110D01*
X133153421Y-107599650D01*
X133037459Y-107497350D01*
X132889703Y-107410585D01*
X132751342Y-107392101D01*
X132606298Y-107437122D01*
X132519973Y-107484951D01*
X132439991Y-107554997D01*
X132392863Y-107647833D01*
X132374811Y-107778459D01*
X132382055Y-107961873D01*
X132410818Y-108213076D01*
X132455431Y-108627242D01*
X132471551Y-109014461D01*
X132452345Y-109331317D01*
X132397302Y-109581493D01*
X132305913Y-109768677D01*
X132177666Y-109896552D01*
X132135756Y-109923620D01*
X132040094Y-109967957D01*
X131931029Y-109983485D01*
X131773587Y-109977186D01*
X131659082Y-109964778D01*
X131446288Y-109910737D01*
X131262966Y-109807866D01*
X131078458Y-109641355D01*
X130908489Y-109464467D01*
X130757431Y-109640944D01*
X130703741Y-109697924D01*
X130531426Y-109824646D01*
X130347621Y-109891191D01*
X130173931Y-109888398D01*
X130122365Y-109872591D01*
X129992515Y-109801190D01*
X129874827Y-109682475D01*
X129765154Y-109509062D01*
X129659349Y-109273568D01*
X129553263Y-108968610D01*
X129442749Y-108586804D01*
X129426210Y-108526288D01*
X129367447Y-108322637D01*
X129313474Y-108151746D01*
X129269685Y-108030037D01*
X129241473Y-107973933D01*
X129230730Y-107965783D01*
X129150704Y-107923866D01*
X129019737Y-107866840D01*
X128860113Y-107804600D01*
X128810730Y-107786021D01*
X128632714Y-107709634D01*
X128530260Y-107644145D01*
X128497323Y-107584474D01*
X128527855Y-107525545D01*
X128548999Y-107516227D01*
X128634002Y-107523703D01*
X128782433Y-107565972D01*
X129000435Y-107644582D01*
X129428584Y-107808050D01*
X129507754Y-108083442D01*
X129518667Y-108121471D01*
X129572317Y-108309557D01*
X129634550Y-108529010D01*
X129694015Y-108739834D01*
X129752636Y-108941574D01*
X129823918Y-109159221D01*
X129891066Y-109323458D01*
X129961347Y-109451415D01*
X130042029Y-109560223D01*
X130136369Y-109644837D01*
X130275716Y-109689020D01*
X130423087Y-109653226D01*
X130573131Y-109539127D01*
X130720495Y-109348393D01*
X130752818Y-109301096D01*
X130826245Y-109217452D01*
X130881888Y-109184334D01*
X130883859Y-109184453D01*
X130940934Y-109218178D01*
X131031108Y-109300241D01*
X131135776Y-109413825D01*
X131190656Y-109474818D01*
X131404281Y-109652890D01*
X131632110Y-109750096D01*
X131879984Y-109769227D01*
X131952822Y-109761004D01*
X132066398Y-109721274D01*
X132152268Y-109636397D01*
X132173775Y-109605512D01*
X132203820Y-109545610D01*
X132223305Y-109467664D01*
X132234387Y-109355025D01*
X132239221Y-109191042D01*
X132239962Y-108959064D01*
X132237394Y-108737886D01*
X132229873Y-108465106D01*
X132218682Y-108207176D01*
X132205088Y-107999000D01*
X132194287Y-107860454D01*
X132187740Y-107711906D01*
X132194213Y-107611161D01*
X132215704Y-107536560D01*
X132254211Y-107466445D01*
X132261592Y-107455243D01*
X132397524Y-107321441D01*
X132580587Y-107229101D01*
X132779026Y-107194667D01*
X132806072Y-107196212D01*
G37*
X132806072Y-107196212D02*
X132952595Y-107236782D01*
X133117499Y-107319287D01*
X133270040Y-107426072D01*
X133379475Y-107539482D01*
X133417648Y-107598669D01*
X133423927Y-107647661D01*
X133376473Y-107692361D01*
X133363708Y-107701090D01*
X133311491Y-107715811D01*
X133248884Y-107685110D01*
X133153421Y-107599650D01*
X133037459Y-107497350D01*
X132889703Y-107410585D01*
X132751342Y-107392101D01*
X132606298Y-107437122D01*
X132519973Y-107484951D01*
X132439991Y-107554997D01*
X132392863Y-107647833D01*
X132374811Y-107778459D01*
X132382055Y-107961873D01*
X132410818Y-108213076D01*
X132455431Y-108627242D01*
X132471551Y-109014461D01*
X132452345Y-109331317D01*
X132397302Y-109581493D01*
X132305913Y-109768677D01*
X132177666Y-109896552D01*
X132135756Y-109923620D01*
X132040094Y-109967957D01*
X131931029Y-109983485D01*
X131773587Y-109977186D01*
X131659082Y-109964778D01*
X131446288Y-109910737D01*
X131262966Y-109807866D01*
X131078458Y-109641355D01*
X130908489Y-109464467D01*
X130757431Y-109640944D01*
X130703741Y-109697924D01*
X130531426Y-109824646D01*
X130347621Y-109891191D01*
X130173931Y-109888398D01*
X130122365Y-109872591D01*
X129992515Y-109801190D01*
X129874827Y-109682475D01*
X129765154Y-109509062D01*
X129659349Y-109273568D01*
X129553263Y-108968610D01*
X129442749Y-108586804D01*
X129426210Y-108526288D01*
X129367447Y-108322637D01*
X129313474Y-108151746D01*
X129269685Y-108030037D01*
X129241473Y-107973933D01*
X129230730Y-107965783D01*
X129150704Y-107923866D01*
X129019737Y-107866840D01*
X128860113Y-107804600D01*
X128810730Y-107786021D01*
X128632714Y-107709634D01*
X128530260Y-107644145D01*
X128497323Y-107584474D01*
X128527855Y-107525545D01*
X128548999Y-107516227D01*
X128634002Y-107523703D01*
X128782433Y-107565972D01*
X129000435Y-107644582D01*
X129428584Y-107808050D01*
X129507754Y-108083442D01*
X129518667Y-108121471D01*
X129572317Y-108309557D01*
X129634550Y-108529010D01*
X129694015Y-108739834D01*
X129752636Y-108941574D01*
X129823918Y-109159221D01*
X129891066Y-109323458D01*
X129961347Y-109451415D01*
X130042029Y-109560223D01*
X130136369Y-109644837D01*
X130275716Y-109689020D01*
X130423087Y-109653226D01*
X130573131Y-109539127D01*
X130720495Y-109348393D01*
X130752818Y-109301096D01*
X130826245Y-109217452D01*
X130881888Y-109184334D01*
X130883859Y-109184453D01*
X130940934Y-109218178D01*
X131031108Y-109300241D01*
X131135776Y-109413825D01*
X131190656Y-109474818D01*
X131404281Y-109652890D01*
X131632110Y-109750096D01*
X131879984Y-109769227D01*
X131952822Y-109761004D01*
X132066398Y-109721274D01*
X132152268Y-109636397D01*
X132173775Y-109605512D01*
X132203820Y-109545610D01*
X132223305Y-109467664D01*
X132234387Y-109355025D01*
X132239221Y-109191042D01*
X132239962Y-108959064D01*
X132237394Y-108737886D01*
X132229873Y-108465106D01*
X132218682Y-108207176D01*
X132205088Y-107999000D01*
X132194287Y-107860454D01*
X132187740Y-107711906D01*
X132194213Y-107611161D01*
X132215704Y-107536560D01*
X132254211Y-107466445D01*
X132261592Y-107455243D01*
X132397524Y-107321441D01*
X132580587Y-107229101D01*
X132779026Y-107194667D01*
X132806072Y-107196212D01*
D11*
X138200000Y-95970000D03*
X138200000Y-97545000D03*
D12*
X142496306Y-102216306D03*
X143610000Y-103330000D03*
D13*
X152498921Y-106358785D03*
X150926079Y-106441215D03*
D14*
X159212980Y-105917483D03*
X160787020Y-105862517D03*
D15*
X144510000Y-111870000D03*
X144510000Y-116920000D03*
X147050000Y-111870000D03*
X147050000Y-116920000D03*
X149590000Y-111870000D03*
X149590000Y-116920000D03*
D16*
X136950000Y-104740000D03*
D17*
X136950000Y-106340000D03*
X136950000Y-105540000D03*
D16*
X136950000Y-107140000D03*
D17*
X135150000Y-105540000D03*
D16*
X135150000Y-104740000D03*
D17*
X135150000Y-106340000D03*
D16*
X135150000Y-107140000D03*
D18*
X129381790Y-117302210D03*
X136756038Y-119140816D03*
X137322161Y-116911555D03*
X129938210Y-115070530D03*
D19*
X131678043Y-114499470D03*
X133133486Y-114862353D03*
X136044373Y-115588119D03*
D20*
X156200000Y-117000000D03*
X158075000Y-117000000D03*
D21*
X162550000Y-114875000D03*
X162550000Y-113000000D03*
D22*
X154425000Y-114655000D03*
X154425000Y-113385000D03*
X154425000Y-112115000D03*
X154425000Y-110845000D03*
X159675000Y-110845000D03*
X159675000Y-112115000D03*
X159675000Y-113385000D03*
X159675000Y-114655000D03*
D23*
X154300000Y-115650000D03*
X164050000Y-115000000D03*
X136310000Y-95500000D03*
X149570000Y-107290000D03*
X157780000Y-106812696D03*
X137510000Y-96830000D03*
X148300000Y-109775000D03*
D24*
X136950000Y-97195004D02*
X136950000Y-104240000D01*
X136884998Y-96529998D02*
X136884998Y-97130002D01*
X137444996Y-95970000D02*
X136884998Y-96529998D01*
X138200000Y-95970000D02*
X137444996Y-95970000D01*
X136950000Y-104240000D02*
X136950000Y-104740000D01*
X136884998Y-97130002D02*
X136950000Y-97195004D01*
X150926079Y-106441215D02*
X150418785Y-106441215D01*
X150418785Y-106441215D02*
X149570000Y-107290000D01*
X158675213Y-105917483D02*
X157780000Y-106812696D01*
X159212980Y-105917483D02*
X158675213Y-105917483D01*
X157780000Y-106812696D02*
X157780000Y-106812696D01*
X142496306Y-102216306D02*
X138150000Y-97870000D01*
X138150000Y-97870000D02*
X138150000Y-97430000D01*
X138200000Y-97545000D02*
X138200000Y-97520000D01*
X138200000Y-97520000D02*
X137510000Y-96830000D01*
X136090000Y-115265000D02*
X136090000Y-115440000D01*
X134225000Y-113400000D02*
X136090000Y-115265000D01*
X134200000Y-112525000D02*
X134200000Y-113400000D01*
X136310000Y-95500000D02*
X134200000Y-97610000D01*
X134200000Y-110575000D02*
X134200000Y-110500000D01*
X134200000Y-97610000D02*
X134200000Y-110575000D01*
X134200000Y-110575000D02*
X134200000Y-112550000D01*
X134200000Y-110500000D02*
X134925000Y-109775000D01*
X134925000Y-109775000D02*
X148300000Y-109775000D01*
X154425000Y-113385000D02*
X154425000Y-114655000D01*
X154300000Y-114780000D02*
X154425000Y-114655000D01*
X154300000Y-115650000D02*
X154300000Y-114780000D01*
X162675000Y-115000000D02*
X162550000Y-114875000D01*
X164050000Y-115000000D02*
X162675000Y-115000000D01*
X159895000Y-114875000D02*
X159675000Y-114655000D01*
X162550000Y-114875000D02*
X159895000Y-114875000D01*
X159675000Y-115400000D02*
X159675000Y-114655000D01*
X158075000Y-117000000D02*
X159675000Y-115400000D01*
X136950000Y-105540000D02*
X141450000Y-105540000D01*
X141450000Y-105540000D02*
X143600000Y-103390000D01*
X137600000Y-106340000D02*
X139310000Y-108050000D01*
X136950000Y-106340000D02*
X137600000Y-106340000D01*
X139310000Y-108050000D02*
X151880000Y-108050000D01*
X151880000Y-108050000D02*
X152590000Y-107340000D01*
X152590000Y-107340000D02*
X152590000Y-106480000D01*
X137100000Y-107140000D02*
X138650000Y-108690000D01*
X136950000Y-107140000D02*
X137100000Y-107140000D01*
X138650000Y-108690000D02*
X159610000Y-108690000D01*
X159610000Y-108690000D02*
X160820000Y-107480000D01*
X160820000Y-107480000D02*
X160820000Y-105750000D01*
X136250981Y-117769967D02*
X133381014Y-114900000D01*
X137860033Y-117769967D02*
X136250981Y-117769967D01*
X144510000Y-111870000D02*
X143760000Y-111870000D01*
X143760000Y-111870000D02*
X137860033Y-117769967D01*
X133381014Y-114900000D02*
X132880000Y-114900000D01*
X144600000Y-109150000D02*
X136470000Y-109170000D01*
X151425000Y-110175000D02*
X150400000Y-109150000D01*
X144510000Y-115095000D02*
X145405000Y-114200000D01*
X135060000Y-107760000D02*
X135060000Y-104810000D01*
X136470000Y-109170000D02*
X135060000Y-107760000D01*
X145405000Y-114200000D02*
X150400000Y-114200000D01*
X144510000Y-116920000D02*
X144510000Y-115095000D01*
X150400000Y-109150000D02*
X144600000Y-109150000D01*
X150400000Y-114200000D02*
X151425000Y-113175000D01*
X154425000Y-112115000D02*
X154425000Y-110845000D01*
X151495000Y-111145000D02*
X151400000Y-111050000D01*
X154425000Y-110845000D02*
X154125000Y-111145000D01*
X151425000Y-113175000D02*
X151400000Y-111050000D01*
X154125000Y-111145000D02*
X151495000Y-111145000D01*
X151400000Y-111050000D02*
X151425000Y-110175000D01*
X144510000Y-118510000D02*
X144510000Y-116920000D01*
X145300000Y-119300000D02*
X144510000Y-118510000D01*
X153412500Y-119300000D02*
X145300000Y-119300000D01*
X156200000Y-117000000D02*
X155712500Y-117000000D01*
X155712500Y-117000000D02*
X153412500Y-119300000D01*
X164873674Y-111473675D02*
X164245000Y-110845000D01*
X164802229Y-111537902D02*
X164873674Y-111473675D01*
X164685179Y-113738470D02*
X164802229Y-111537902D01*
X164877728Y-113952655D02*
X164685179Y-113738470D01*
X145290012Y-113749990D02*
X145270001Y-113770001D01*
X146995010Y-113749990D02*
X145290012Y-113749990D01*
X147050000Y-113695000D02*
X146995010Y-113749990D01*
X145270001Y-113770001D02*
X144999997Y-113770001D01*
X144999997Y-113770001D02*
X143684999Y-115084999D01*
X143684999Y-115084999D02*
X143684999Y-118755001D01*
X143684999Y-118755001D02*
X144729998Y-119800000D01*
X144729998Y-119800000D02*
X154174604Y-119800000D01*
X154174604Y-119800000D02*
X164798740Y-116548091D01*
X164798740Y-116548091D02*
X164877728Y-113952655D01*
X164245000Y-110845000D02*
X159675000Y-110845000D01*
X147050000Y-111870000D02*
X147050000Y-113695000D01*
X159375000Y-112415000D02*
X159675000Y-112115000D01*
X159049990Y-112740010D02*
X159375000Y-112415000D01*
X153573222Y-112740010D02*
X159049990Y-112740010D01*
X151663222Y-114650010D02*
X153573222Y-112740010D01*
X147494990Y-114650010D02*
X151663222Y-114650010D01*
X147050000Y-115095000D02*
X147494990Y-114650010D01*
X147050000Y-116920000D02*
X147050000Y-115095000D01*
X160060000Y-113000000D02*
X159675000Y-113385000D01*
X162550000Y-113000000D02*
X160060000Y-113000000D01*
M02*
