G04 #@! TF.GenerationSoftware,KiCad,Pcbnew,(5.99.0-9526-g5c17ff0595)*
G04 #@! TF.CreationDate,2021-07-11T20:16:45-05:00*
G04 #@! TF.ProjectId,dumpsterFire,64756d70-7374-4657-9246-6972652e6b69,rev?*
G04 #@! TF.SameCoordinates,Original*
G04 #@! TF.FileFunction,Soldermask,Top*
G04 #@! TF.FilePolarity,Negative*
%FSLAX46Y46*%
G04 Gerber Fmt 4.6, Leading zero omitted, Abs format (unit mm)*
G04 Created by KiCad (PCBNEW (5.99.0-9526-g5c17ff0595)) date 2021-07-11 20:16:45*
%MOMM*%
%LPD*%
G01*
G04 APERTURE LIST*
%ADD10C,0.010000*%
%ADD11C,1.300000*%
G04 APERTURE END LIST*
D10*
X151674917Y-92658494D02*
X151744241Y-92751247D01*
X151744241Y-92751247D02*
X151819545Y-92897196D01*
X151819545Y-92897196D02*
X151944009Y-93137217D01*
X151944009Y-93137217D02*
X152087745Y-93358135D01*
X152087745Y-93358135D02*
X152267423Y-93582995D01*
X152267423Y-93582995D02*
X152491969Y-93826832D01*
X152491969Y-93826832D02*
X152851975Y-94157661D01*
X152851975Y-94157661D02*
X153212088Y-94404148D01*
X153212088Y-94404148D02*
X153572860Y-94566618D01*
X153572860Y-94566618D02*
X153867855Y-94637129D01*
X153867855Y-94637129D02*
X154064877Y-94665637D01*
X154064877Y-94665637D02*
X154134759Y-94455243D01*
X154134759Y-94455243D02*
X154206121Y-94281157D01*
X154206121Y-94281157D02*
X154279254Y-94187614D01*
X154279254Y-94187614D02*
X154357681Y-94170508D01*
X154357681Y-94170508D02*
X154374551Y-94175995D01*
X154374551Y-94175995D02*
X154416414Y-94216309D01*
X154416414Y-94216309D02*
X154500593Y-94315997D01*
X154500593Y-94315997D02*
X154620030Y-94465657D01*
X154620030Y-94465657D02*
X154767667Y-94655884D01*
X154767667Y-94655884D02*
X154936448Y-94877273D01*
X154936448Y-94877273D02*
X155119312Y-95120421D01*
X155119312Y-95120421D02*
X155309204Y-95375924D01*
X155309204Y-95375924D02*
X155499064Y-95634377D01*
X155499064Y-95634377D02*
X155681834Y-95886377D01*
X155681834Y-95886377D02*
X155850458Y-96122518D01*
X155850458Y-96122518D02*
X155997876Y-96333397D01*
X155997876Y-96333397D02*
X156041619Y-96397238D01*
X156041619Y-96397238D02*
X156196477Y-96627627D01*
X156196477Y-96627627D02*
X156314323Y-96814504D01*
X156314323Y-96814504D02*
X156404545Y-96979050D01*
X156404545Y-96979050D02*
X156476530Y-97142447D01*
X156476530Y-97142447D02*
X156539669Y-97325879D01*
X156539669Y-97325879D02*
X156603349Y-97550528D01*
X156603349Y-97550528D02*
X156672966Y-97821684D01*
X156672966Y-97821684D02*
X156877045Y-98774894D01*
X156877045Y-98774894D02*
X157007600Y-99725776D01*
X157007600Y-99725776D02*
X157036495Y-100059167D01*
X157036495Y-100059167D02*
X157080422Y-100651834D01*
X157080422Y-100651834D02*
X156909435Y-101159834D01*
X156909435Y-101159834D02*
X156781539Y-101575685D01*
X156781539Y-101575685D02*
X156701313Y-101921695D01*
X156701313Y-101921695D02*
X156668736Y-102197979D01*
X156668736Y-102197979D02*
X156678012Y-102375280D01*
X156678012Y-102375280D02*
X156703496Y-102480215D01*
X156703496Y-102480215D02*
X156751528Y-102532367D01*
X156751528Y-102532367D02*
X156850649Y-102559010D01*
X156850649Y-102559010D02*
X156874365Y-102562921D01*
X156874365Y-102562921D02*
X156986903Y-102593821D01*
X156986903Y-102593821D02*
X157058425Y-102637385D01*
X157058425Y-102637385D02*
X157066724Y-102650273D01*
X157066724Y-102650273D02*
X157064493Y-102732860D01*
X157064493Y-102732860D02*
X157024711Y-102870313D01*
X157024711Y-102870313D02*
X156954752Y-103045734D01*
X156954752Y-103045734D02*
X156861992Y-103242225D01*
X156861992Y-103242225D02*
X156753808Y-103442890D01*
X156753808Y-103442890D02*
X156640930Y-103625802D01*
X156640930Y-103625802D02*
X156353217Y-104031824D01*
X156353217Y-104031824D02*
X156033232Y-104431490D01*
X156033232Y-104431490D02*
X155664382Y-104844996D01*
X155664382Y-104844996D02*
X155478983Y-105039992D01*
X155478983Y-105039992D02*
X155309829Y-105214138D01*
X155309829Y-105214138D02*
X155185806Y-105337067D01*
X155185806Y-105337067D02*
X155093200Y-105418436D01*
X155093200Y-105418436D02*
X155018294Y-105467904D01*
X155018294Y-105467904D02*
X154947376Y-105495128D01*
X154947376Y-105495128D02*
X154866732Y-105509765D01*
X154866732Y-105509765D02*
X154801257Y-105517250D01*
X154801257Y-105517250D02*
X154721344Y-105524246D01*
X154721344Y-105524246D02*
X154563941Y-105536502D01*
X154563941Y-105536502D02*
X154336029Y-105553519D01*
X154336029Y-105553519D02*
X154044587Y-105574799D01*
X154044587Y-105574799D02*
X153696596Y-105599843D01*
X153696596Y-105599843D02*
X153299037Y-105628152D01*
X153299037Y-105628152D02*
X152858890Y-105659227D01*
X152858890Y-105659227D02*
X152383135Y-105692569D01*
X152383135Y-105692569D02*
X151878754Y-105727679D01*
X151878754Y-105727679D02*
X151352726Y-105764059D01*
X151352726Y-105764059D02*
X151215500Y-105773511D01*
X151215500Y-105773511D02*
X150686117Y-105809980D01*
X150686117Y-105809980D02*
X150177367Y-105845099D01*
X150177367Y-105845099D02*
X149696139Y-105878386D01*
X149696139Y-105878386D02*
X149249320Y-105909364D01*
X149249320Y-105909364D02*
X148843797Y-105937552D01*
X148843797Y-105937552D02*
X148486458Y-105962470D01*
X148486458Y-105962470D02*
X148184191Y-105983638D01*
X148184191Y-105983638D02*
X147943882Y-106000578D01*
X147943882Y-106000578D02*
X147772420Y-106012810D01*
X147772420Y-106012810D02*
X147676691Y-106019853D01*
X147676691Y-106019853D02*
X147664783Y-106020798D01*
X147664783Y-106020798D02*
X147458400Y-106037924D01*
X147458400Y-106037924D02*
X145845528Y-104593161D01*
X145845528Y-104593161D02*
X145483862Y-104268908D01*
X145483862Y-104268908D02*
X145180293Y-103995828D01*
X145180293Y-103995828D02*
X144929642Y-103768831D01*
X144929642Y-103768831D02*
X144726734Y-103582830D01*
X144726734Y-103582830D02*
X144566394Y-103432738D01*
X144566394Y-103432738D02*
X144443444Y-103313465D01*
X144443444Y-103313465D02*
X144352710Y-103219924D01*
X144352710Y-103219924D02*
X144289014Y-103147027D01*
X144289014Y-103147027D02*
X144247181Y-103089687D01*
X144247181Y-103089687D02*
X144222034Y-103042814D01*
X144222034Y-103042814D02*
X144208398Y-103001322D01*
X144208398Y-103001322D02*
X144204042Y-102979616D01*
X144204042Y-102979616D02*
X144189213Y-102877878D01*
X144189213Y-102877878D02*
X144167706Y-102711770D01*
X144167706Y-102711770D02*
X144141974Y-102501094D01*
X144141974Y-102501094D02*
X144114472Y-102265652D01*
X144114472Y-102265652D02*
X144102878Y-102163211D01*
X144102878Y-102163211D02*
X144075591Y-101914195D01*
X144075591Y-101914195D02*
X144058338Y-101725965D01*
X144058338Y-101725965D02*
X144051512Y-101575192D01*
X144051512Y-101575192D02*
X144055508Y-101438548D01*
X144055508Y-101438548D02*
X144070720Y-101292701D01*
X144070720Y-101292701D02*
X144097542Y-101114323D01*
X144097542Y-101114323D02*
X144123221Y-100958902D01*
X144123221Y-100958902D02*
X144269942Y-100242448D01*
X144269942Y-100242448D02*
X144462730Y-99567899D01*
X144462730Y-99567899D02*
X144698216Y-98943954D01*
X144698216Y-98943954D02*
X144973029Y-98379314D01*
X144973029Y-98379314D02*
X145283803Y-97882679D01*
X145283803Y-97882679D02*
X145348866Y-97793754D01*
X145348866Y-97793754D02*
X145465951Y-97642565D01*
X145465951Y-97642565D02*
X145552163Y-97557988D01*
X145552163Y-97557988D02*
X145625820Y-97540020D01*
X145625820Y-97540020D02*
X145705241Y-97588659D01*
X145705241Y-97588659D02*
X145808743Y-97703902D01*
X145808743Y-97703902D02*
X145880977Y-97793677D01*
X145880977Y-97793677D02*
X146069037Y-98004812D01*
X146069037Y-98004812D02*
X146248856Y-98148697D01*
X146248856Y-98148697D02*
X146439931Y-98238078D01*
X146439931Y-98238078D02*
X146626005Y-98280756D01*
X146626005Y-98280756D02*
X146705880Y-98290871D01*
X146705880Y-98290871D02*
X146772367Y-98288678D01*
X146772367Y-98288678D02*
X146840751Y-98266606D01*
X146840751Y-98266606D02*
X146926316Y-98217083D01*
X146926316Y-98217083D02*
X147044347Y-98132540D01*
X147044347Y-98132540D02*
X147210128Y-98005405D01*
X147210128Y-98005405D02*
X147260011Y-97966710D01*
X147260011Y-97966710D02*
X147757900Y-97564989D01*
X147757900Y-97564989D02*
X148182642Y-97188028D01*
X148182642Y-97188028D02*
X148539849Y-96829513D01*
X148539849Y-96829513D02*
X148835134Y-96483129D01*
X148835134Y-96483129D02*
X149074106Y-96142560D01*
X149074106Y-96142560D02*
X149262379Y-95801491D01*
X149262379Y-95801491D02*
X149340916Y-95624750D01*
X149340916Y-95624750D02*
X149406973Y-95474832D01*
X149406973Y-95474832D02*
X149466017Y-95360881D01*
X149466017Y-95360881D02*
X149508178Y-95301283D01*
X149508178Y-95301283D02*
X149517043Y-95296667D01*
X149517043Y-95296667D02*
X149565527Y-95319420D01*
X149565527Y-95319420D02*
X149669451Y-95381804D01*
X149669451Y-95381804D02*
X149814815Y-95475010D01*
X149814815Y-95475010D02*
X149987620Y-95590225D01*
X149987620Y-95590225D02*
X150038316Y-95624750D01*
X150038316Y-95624750D02*
X150376209Y-95851685D01*
X150376209Y-95851685D02*
X150658526Y-96031264D01*
X150658526Y-96031264D02*
X150895610Y-96169261D01*
X150895610Y-96169261D02*
X151097806Y-96271452D01*
X151097806Y-96271452D02*
X151275456Y-96343612D01*
X151275456Y-96343612D02*
X151389083Y-96378899D01*
X151389083Y-96378899D02*
X151529732Y-96413372D01*
X151529732Y-96413372D02*
X151635043Y-96432451D01*
X151635043Y-96432451D02*
X151681646Y-96432132D01*
X151681646Y-96432132D02*
X151686188Y-96383480D01*
X151686188Y-96383480D02*
X151680064Y-96272496D01*
X151680064Y-96272496D02*
X151664631Y-96120659D01*
X151664631Y-96120659D02*
X151659171Y-96076434D01*
X151659171Y-96076434D02*
X151645221Y-95933864D01*
X151645221Y-95933864D02*
X151630024Y-95720753D01*
X151630024Y-95720753D02*
X151614171Y-95451209D01*
X151614171Y-95451209D02*
X151598252Y-95139336D01*
X151598252Y-95139336D02*
X151582857Y-94799242D01*
X151582857Y-94799242D02*
X151568577Y-94445033D01*
X151568577Y-94445033D02*
X151556002Y-94090815D01*
X151556002Y-94090815D02*
X151545723Y-93750694D01*
X151545723Y-93750694D02*
X151538329Y-93438778D01*
X151538329Y-93438778D02*
X151534412Y-93169171D01*
X151534412Y-93169171D02*
X151533965Y-93084750D01*
X151533965Y-93084750D02*
X151534664Y-92883376D01*
X151534664Y-92883376D02*
X151539504Y-92751928D01*
X151539504Y-92751928D02*
X151551064Y-92675680D01*
X151551064Y-92675680D02*
X151571923Y-92639906D01*
X151571923Y-92639906D02*
X151604662Y-92629880D01*
X151604662Y-92629880D02*
X151613677Y-92629667D01*
X151613677Y-92629667D02*
X151674917Y-92658494D01*
X151674917Y-92658494D02*
X151674917Y-92658494D01*
G36*
X151674917Y-92658494D02*
G01*
X151744241Y-92751247D01*
X151819545Y-92897196D01*
X151944009Y-93137217D01*
X152087745Y-93358135D01*
X152267423Y-93582995D01*
X152491969Y-93826832D01*
X152851975Y-94157661D01*
X153212088Y-94404148D01*
X153572860Y-94566618D01*
X153867855Y-94637129D01*
X154064877Y-94665637D01*
X154134759Y-94455243D01*
X154206121Y-94281157D01*
X154279254Y-94187614D01*
X154357681Y-94170508D01*
X154374551Y-94175995D01*
X154416414Y-94216309D01*
X154500593Y-94315997D01*
X154620030Y-94465657D01*
X154767667Y-94655884D01*
X154936448Y-94877273D01*
X155119312Y-95120421D01*
X155309204Y-95375924D01*
X155499064Y-95634377D01*
X155681834Y-95886377D01*
X155850458Y-96122518D01*
X155997876Y-96333397D01*
X156041619Y-96397238D01*
X156196477Y-96627627D01*
X156314323Y-96814504D01*
X156404545Y-96979050D01*
X156476530Y-97142447D01*
X156539669Y-97325879D01*
X156603349Y-97550528D01*
X156672966Y-97821684D01*
X156877045Y-98774894D01*
X157007600Y-99725776D01*
X157036495Y-100059167D01*
X157080422Y-100651834D01*
X156909435Y-101159834D01*
X156781539Y-101575685D01*
X156701313Y-101921695D01*
X156668736Y-102197979D01*
X156678012Y-102375280D01*
X156703496Y-102480215D01*
X156751528Y-102532367D01*
X156850649Y-102559010D01*
X156874365Y-102562921D01*
X156986903Y-102593821D01*
X157058425Y-102637385D01*
X157066724Y-102650273D01*
X157064493Y-102732860D01*
X157024711Y-102870313D01*
X156954752Y-103045734D01*
X156861992Y-103242225D01*
X156753808Y-103442890D01*
X156640930Y-103625802D01*
X156353217Y-104031824D01*
X156033232Y-104431490D01*
X155664382Y-104844996D01*
X155478983Y-105039992D01*
X155309829Y-105214138D01*
X155185806Y-105337067D01*
X155093200Y-105418436D01*
X155018294Y-105467904D01*
X154947376Y-105495128D01*
X154866732Y-105509765D01*
X154801257Y-105517250D01*
X154721344Y-105524246D01*
X154563941Y-105536502D01*
X154336029Y-105553519D01*
X154044587Y-105574799D01*
X153696596Y-105599843D01*
X153299037Y-105628152D01*
X152858890Y-105659227D01*
X152383135Y-105692569D01*
X151878754Y-105727679D01*
X151352726Y-105764059D01*
X151215500Y-105773511D01*
X150686117Y-105809980D01*
X150177367Y-105845099D01*
X149696139Y-105878386D01*
X149249320Y-105909364D01*
X148843797Y-105937552D01*
X148486458Y-105962470D01*
X148184191Y-105983638D01*
X147943882Y-106000578D01*
X147772420Y-106012810D01*
X147676691Y-106019853D01*
X147664783Y-106020798D01*
X147458400Y-106037924D01*
X145845528Y-104593161D01*
X145483862Y-104268908D01*
X145180293Y-103995828D01*
X144929642Y-103768831D01*
X144726734Y-103582830D01*
X144566394Y-103432738D01*
X144443444Y-103313465D01*
X144352710Y-103219924D01*
X144289014Y-103147027D01*
X144247181Y-103089687D01*
X144222034Y-103042814D01*
X144208398Y-103001322D01*
X144204042Y-102979616D01*
X144189213Y-102877878D01*
X144167706Y-102711770D01*
X144141974Y-102501094D01*
X144114472Y-102265652D01*
X144102878Y-102163211D01*
X144075591Y-101914195D01*
X144058338Y-101725965D01*
X144051512Y-101575192D01*
X144055508Y-101438548D01*
X144070720Y-101292701D01*
X144097542Y-101114323D01*
X144123221Y-100958902D01*
X144269942Y-100242448D01*
X144462730Y-99567899D01*
X144698216Y-98943954D01*
X144973029Y-98379314D01*
X145283803Y-97882679D01*
X145348866Y-97793754D01*
X145465951Y-97642565D01*
X145552163Y-97557988D01*
X145625820Y-97540020D01*
X145705241Y-97588659D01*
X145808743Y-97703902D01*
X145880977Y-97793677D01*
X146069037Y-98004812D01*
X146248856Y-98148697D01*
X146439931Y-98238078D01*
X146626005Y-98280756D01*
X146705880Y-98290871D01*
X146772367Y-98288678D01*
X146840751Y-98266606D01*
X146926316Y-98217083D01*
X147044347Y-98132540D01*
X147210128Y-98005405D01*
X147260011Y-97966710D01*
X147757900Y-97564989D01*
X148182642Y-97188028D01*
X148539849Y-96829513D01*
X148835134Y-96483129D01*
X149074106Y-96142560D01*
X149262379Y-95801491D01*
X149340916Y-95624750D01*
X149406973Y-95474832D01*
X149466017Y-95360881D01*
X149508178Y-95301283D01*
X149517043Y-95296667D01*
X149565527Y-95319420D01*
X149669451Y-95381804D01*
X149814815Y-95475010D01*
X149987620Y-95590225D01*
X150038316Y-95624750D01*
X150376209Y-95851685D01*
X150658526Y-96031264D01*
X150895610Y-96169261D01*
X151097806Y-96271452D01*
X151275456Y-96343612D01*
X151389083Y-96378899D01*
X151529732Y-96413372D01*
X151635043Y-96432451D01*
X151681646Y-96432132D01*
X151686188Y-96383480D01*
X151680064Y-96272496D01*
X151664631Y-96120659D01*
X151659171Y-96076434D01*
X151645221Y-95933864D01*
X151630024Y-95720753D01*
X151614171Y-95451209D01*
X151598252Y-95139336D01*
X151582857Y-94799242D01*
X151568577Y-94445033D01*
X151556002Y-94090815D01*
X151545723Y-93750694D01*
X151538329Y-93438778D01*
X151534412Y-93169171D01*
X151533965Y-93084750D01*
X151534664Y-92883376D01*
X151539504Y-92751928D01*
X151551064Y-92675680D01*
X151571923Y-92639906D01*
X151604662Y-92629880D01*
X151613677Y-92629667D01*
X151674917Y-92658494D01*
G37*
X151674917Y-92658494D02*
X151744241Y-92751247D01*
X151819545Y-92897196D01*
X151944009Y-93137217D01*
X152087745Y-93358135D01*
X152267423Y-93582995D01*
X152491969Y-93826832D01*
X152851975Y-94157661D01*
X153212088Y-94404148D01*
X153572860Y-94566618D01*
X153867855Y-94637129D01*
X154064877Y-94665637D01*
X154134759Y-94455243D01*
X154206121Y-94281157D01*
X154279254Y-94187614D01*
X154357681Y-94170508D01*
X154374551Y-94175995D01*
X154416414Y-94216309D01*
X154500593Y-94315997D01*
X154620030Y-94465657D01*
X154767667Y-94655884D01*
X154936448Y-94877273D01*
X155119312Y-95120421D01*
X155309204Y-95375924D01*
X155499064Y-95634377D01*
X155681834Y-95886377D01*
X155850458Y-96122518D01*
X155997876Y-96333397D01*
X156041619Y-96397238D01*
X156196477Y-96627627D01*
X156314323Y-96814504D01*
X156404545Y-96979050D01*
X156476530Y-97142447D01*
X156539669Y-97325879D01*
X156603349Y-97550528D01*
X156672966Y-97821684D01*
X156877045Y-98774894D01*
X157007600Y-99725776D01*
X157036495Y-100059167D01*
X157080422Y-100651834D01*
X156909435Y-101159834D01*
X156781539Y-101575685D01*
X156701313Y-101921695D01*
X156668736Y-102197979D01*
X156678012Y-102375280D01*
X156703496Y-102480215D01*
X156751528Y-102532367D01*
X156850649Y-102559010D01*
X156874365Y-102562921D01*
X156986903Y-102593821D01*
X157058425Y-102637385D01*
X157066724Y-102650273D01*
X157064493Y-102732860D01*
X157024711Y-102870313D01*
X156954752Y-103045734D01*
X156861992Y-103242225D01*
X156753808Y-103442890D01*
X156640930Y-103625802D01*
X156353217Y-104031824D01*
X156033232Y-104431490D01*
X155664382Y-104844996D01*
X155478983Y-105039992D01*
X155309829Y-105214138D01*
X155185806Y-105337067D01*
X155093200Y-105418436D01*
X155018294Y-105467904D01*
X154947376Y-105495128D01*
X154866732Y-105509765D01*
X154801257Y-105517250D01*
X154721344Y-105524246D01*
X154563941Y-105536502D01*
X154336029Y-105553519D01*
X154044587Y-105574799D01*
X153696596Y-105599843D01*
X153299037Y-105628152D01*
X152858890Y-105659227D01*
X152383135Y-105692569D01*
X151878754Y-105727679D01*
X151352726Y-105764059D01*
X151215500Y-105773511D01*
X150686117Y-105809980D01*
X150177367Y-105845099D01*
X149696139Y-105878386D01*
X149249320Y-105909364D01*
X148843797Y-105937552D01*
X148486458Y-105962470D01*
X148184191Y-105983638D01*
X147943882Y-106000578D01*
X147772420Y-106012810D01*
X147676691Y-106019853D01*
X147664783Y-106020798D01*
X147458400Y-106037924D01*
X145845528Y-104593161D01*
X145483862Y-104268908D01*
X145180293Y-103995828D01*
X144929642Y-103768831D01*
X144726734Y-103582830D01*
X144566394Y-103432738D01*
X144443444Y-103313465D01*
X144352710Y-103219924D01*
X144289014Y-103147027D01*
X144247181Y-103089687D01*
X144222034Y-103042814D01*
X144208398Y-103001322D01*
X144204042Y-102979616D01*
X144189213Y-102877878D01*
X144167706Y-102711770D01*
X144141974Y-102501094D01*
X144114472Y-102265652D01*
X144102878Y-102163211D01*
X144075591Y-101914195D01*
X144058338Y-101725965D01*
X144051512Y-101575192D01*
X144055508Y-101438548D01*
X144070720Y-101292701D01*
X144097542Y-101114323D01*
X144123221Y-100958902D01*
X144269942Y-100242448D01*
X144462730Y-99567899D01*
X144698216Y-98943954D01*
X144973029Y-98379314D01*
X145283803Y-97882679D01*
X145348866Y-97793754D01*
X145465951Y-97642565D01*
X145552163Y-97557988D01*
X145625820Y-97540020D01*
X145705241Y-97588659D01*
X145808743Y-97703902D01*
X145880977Y-97793677D01*
X146069037Y-98004812D01*
X146248856Y-98148697D01*
X146439931Y-98238078D01*
X146626005Y-98280756D01*
X146705880Y-98290871D01*
X146772367Y-98288678D01*
X146840751Y-98266606D01*
X146926316Y-98217083D01*
X147044347Y-98132540D01*
X147210128Y-98005405D01*
X147260011Y-97966710D01*
X147757900Y-97564989D01*
X148182642Y-97188028D01*
X148539849Y-96829513D01*
X148835134Y-96483129D01*
X149074106Y-96142560D01*
X149262379Y-95801491D01*
X149340916Y-95624750D01*
X149406973Y-95474832D01*
X149466017Y-95360881D01*
X149508178Y-95301283D01*
X149517043Y-95296667D01*
X149565527Y-95319420D01*
X149669451Y-95381804D01*
X149814815Y-95475010D01*
X149987620Y-95590225D01*
X150038316Y-95624750D01*
X150376209Y-95851685D01*
X150658526Y-96031264D01*
X150895610Y-96169261D01*
X151097806Y-96271452D01*
X151275456Y-96343612D01*
X151389083Y-96378899D01*
X151529732Y-96413372D01*
X151635043Y-96432451D01*
X151681646Y-96432132D01*
X151686188Y-96383480D01*
X151680064Y-96272496D01*
X151664631Y-96120659D01*
X151659171Y-96076434D01*
X151645221Y-95933864D01*
X151630024Y-95720753D01*
X151614171Y-95451209D01*
X151598252Y-95139336D01*
X151582857Y-94799242D01*
X151568577Y-94445033D01*
X151556002Y-94090815D01*
X151545723Y-93750694D01*
X151538329Y-93438778D01*
X151534412Y-93169171D01*
X151533965Y-93084750D01*
X151534664Y-92883376D01*
X151539504Y-92751928D01*
X151551064Y-92675680D01*
X151571923Y-92639906D01*
X151604662Y-92629880D01*
X151613677Y-92629667D01*
X151674917Y-92658494D01*
X151631256Y-82258730D02*
X151650437Y-82362214D01*
X151650437Y-82362214D02*
X151664136Y-82535386D01*
X151664136Y-82535386D02*
X151677274Y-82766000D01*
X151677274Y-82766000D02*
X151727711Y-83299399D01*
X151727711Y-83299399D02*
X151820827Y-83834198D01*
X151820827Y-83834198D02*
X151960156Y-84382997D01*
X151960156Y-84382997D02*
X152149232Y-84958398D01*
X152149232Y-84958398D02*
X152391588Y-85573001D01*
X152391588Y-85573001D02*
X152591334Y-86025667D01*
X152591334Y-86025667D02*
X152830411Y-86572190D01*
X152830411Y-86572190D02*
X153022348Y-87066879D01*
X153022348Y-87066879D02*
X153172523Y-87524311D01*
X153172523Y-87524311D02*
X153253212Y-87820243D01*
X153253212Y-87820243D02*
X153362124Y-88256821D01*
X153362124Y-88256821D02*
X153572625Y-88305411D01*
X153572625Y-88305411D02*
X153752147Y-88341144D01*
X153752147Y-88341144D02*
X153887898Y-88347031D01*
X153887898Y-88347031D02*
X154015413Y-88318775D01*
X154015413Y-88318775D02*
X154170227Y-88252081D01*
X154170227Y-88252081D02*
X154221167Y-88227000D01*
X154221167Y-88227000D02*
X154405253Y-88141560D01*
X154405253Y-88141560D02*
X154534677Y-88104295D01*
X154534677Y-88104295D02*
X154626763Y-88118814D01*
X154626763Y-88118814D02*
X154698837Y-88188727D01*
X154698837Y-88188727D02*
X154768226Y-88317643D01*
X154768226Y-88317643D02*
X154779980Y-88343417D01*
X154779980Y-88343417D02*
X154941492Y-88694767D01*
X154941492Y-88694767D02*
X155096117Y-89017266D01*
X155096117Y-89017266D02*
X155238868Y-89301302D01*
X155238868Y-89301302D02*
X155364760Y-89537263D01*
X155364760Y-89537263D02*
X155468807Y-89715535D01*
X155468807Y-89715535D02*
X155546023Y-89826506D01*
X155546023Y-89826506D02*
X155553992Y-89835667D01*
X155553992Y-89835667D02*
X156205344Y-90598787D01*
X156205344Y-90598787D02*
X156778936Y-91367842D01*
X156778936Y-91367842D02*
X157281549Y-92153415D01*
X157281549Y-92153415D02*
X157719960Y-92966091D01*
X157719960Y-92966091D02*
X158096054Y-93804417D01*
X158096054Y-93804417D02*
X158238322Y-94153667D01*
X158238322Y-94153667D02*
X158441771Y-94153667D01*
X158441771Y-94153667D02*
X158568040Y-94146933D01*
X158568040Y-94146933D02*
X158657018Y-94115510D01*
X158657018Y-94115510D02*
X158743809Y-94042568D01*
X158743809Y-94042568D02*
X158800679Y-93981593D01*
X158800679Y-93981593D02*
X158927460Y-93858069D01*
X158927460Y-93858069D02*
X159052326Y-93764640D01*
X159052326Y-93764640D02*
X159158302Y-93711639D01*
X159158302Y-93711639D02*
X159228409Y-93709397D01*
X159228409Y-93709397D02*
X159236812Y-93716148D01*
X159236812Y-93716148D02*
X159260529Y-93773452D01*
X159260529Y-93773452D02*
X159291421Y-93888586D01*
X159291421Y-93888586D02*
X159320810Y-94026667D01*
X159320810Y-94026667D02*
X159359310Y-94187052D01*
X159359310Y-94187052D02*
X159420129Y-94393432D01*
X159420129Y-94393432D02*
X159493370Y-94613506D01*
X159493370Y-94613506D02*
X159538079Y-94735844D01*
X159538079Y-94735844D02*
X159783628Y-95438309D01*
X159783628Y-95438309D02*
X159984384Y-96132686D01*
X159984384Y-96132686D02*
X160137681Y-96806531D01*
X160137681Y-96806531D02*
X160240851Y-97447396D01*
X160240851Y-97447396D02*
X160291226Y-98042836D01*
X160291226Y-98042836D02*
X160296000Y-98272146D01*
X160296000Y-98272146D02*
X160274065Y-98879861D01*
X160274065Y-98879861D02*
X160206083Y-99475981D01*
X160206083Y-99475981D02*
X160088786Y-100074354D01*
X160088786Y-100074354D02*
X159918910Y-100688830D01*
X159918910Y-100688830D02*
X159693188Y-101333255D01*
X159693188Y-101333255D02*
X159415568Y-102005114D01*
X159415568Y-102005114D02*
X159309131Y-102244585D01*
X159309131Y-102244585D02*
X159224717Y-102424043D01*
X159224717Y-102424043D02*
X159150961Y-102561285D01*
X159150961Y-102561285D02*
X159076500Y-102674105D01*
X159076500Y-102674105D02*
X158989968Y-102780297D01*
X158989968Y-102780297D02*
X158880003Y-102897656D01*
X158880003Y-102897656D02*
X158782395Y-102996587D01*
X158782395Y-102996587D02*
X158607637Y-103175337D01*
X158607637Y-103175337D02*
X158422276Y-103369784D01*
X158422276Y-103369784D02*
X158253310Y-103551402D01*
X158253310Y-103551402D02*
X158167402Y-103646427D01*
X158167402Y-103646427D02*
X157905441Y-103941179D01*
X157905441Y-103941179D02*
X158003442Y-104020535D01*
X158003442Y-104020535D02*
X158140116Y-104101225D01*
X158140116Y-104101225D02*
X158322618Y-104153734D01*
X158322618Y-104153734D02*
X158564345Y-104180925D01*
X158564345Y-104180925D02*
X158780085Y-104186431D01*
X158780085Y-104186431D02*
X158947787Y-104190065D01*
X158947787Y-104190065D02*
X159080507Y-104199566D01*
X159080507Y-104199566D02*
X159157591Y-104213177D01*
X159157591Y-104213177D02*
X159168266Y-104219452D01*
X159168266Y-104219452D02*
X159160124Y-104280489D01*
X159160124Y-104280489D02*
X159098364Y-104380260D01*
X159098364Y-104380260D02*
X158995527Y-104504671D01*
X158995527Y-104504671D02*
X158864154Y-104639622D01*
X158864154Y-104639622D02*
X158716788Y-104771019D01*
X158716788Y-104771019D02*
X158592876Y-104866177D01*
X158592876Y-104866177D02*
X158391431Y-105006245D01*
X158391431Y-105006245D02*
X158223577Y-105113979D01*
X158223577Y-105113979D02*
X158072694Y-105194469D01*
X158072694Y-105194469D02*
X157922163Y-105252806D01*
X157922163Y-105252806D02*
X157755363Y-105294077D01*
X157755363Y-105294077D02*
X157555674Y-105323375D01*
X157555674Y-105323375D02*
X157306477Y-105345787D01*
X157306477Y-105345787D02*
X156991151Y-105366404D01*
X156991151Y-105366404D02*
X156951667Y-105368784D01*
X156951667Y-105368784D02*
X156684530Y-105385712D01*
X156684530Y-105385712D02*
X156442425Y-105402719D01*
X156442425Y-105402719D02*
X156239493Y-105418678D01*
X156239493Y-105418678D02*
X156089874Y-105432462D01*
X156089874Y-105432462D02*
X156007709Y-105442945D01*
X156007709Y-105442945D02*
X156000397Y-105444607D01*
X156000397Y-105444607D02*
X155987979Y-105428141D01*
X155987979Y-105428141D02*
X156031444Y-105359393D01*
X156031444Y-105359393D02*
X156125975Y-105245107D01*
X156125975Y-105245107D02*
X156206969Y-105155572D01*
X156206969Y-105155572D02*
X156449013Y-104872067D01*
X156449013Y-104872067D02*
X156702677Y-104535005D01*
X156702677Y-104535005D02*
X156957537Y-104161559D01*
X156957537Y-104161559D02*
X157203167Y-103768905D01*
X157203167Y-103768905D02*
X157429143Y-103374215D01*
X157429143Y-103374215D02*
X157625041Y-102994665D01*
X157625041Y-102994665D02*
X157780437Y-102647429D01*
X157780437Y-102647429D02*
X157859389Y-102433226D01*
X157859389Y-102433226D02*
X157930246Y-102196213D01*
X157930246Y-102196213D02*
X157963038Y-102023674D01*
X157963038Y-102023674D02*
X157955737Y-101903467D01*
X157955737Y-101903467D02*
X157906316Y-101823450D01*
X157906316Y-101823450D02*
X157812746Y-101771481D01*
X157812746Y-101771481D02*
X157745505Y-101751396D01*
X157745505Y-101751396D02*
X157662383Y-101714838D01*
X157662383Y-101714838D02*
X157645547Y-101651462D01*
X157645547Y-101651462D02*
X157648943Y-101631576D01*
X157648943Y-101631576D02*
X157684653Y-101429902D01*
X157684653Y-101429902D02*
X157719884Y-101171326D01*
X157719884Y-101171326D02*
X157751383Y-100883568D01*
X157751383Y-100883568D02*
X157775899Y-100594349D01*
X157775899Y-100594349D02*
X157782527Y-100492881D01*
X157782527Y-100492881D02*
X157784964Y-99916951D01*
X157784964Y-99916951D02*
X157729810Y-99307964D01*
X157729810Y-99307964D02*
X157621775Y-98683188D01*
X157621775Y-98683188D02*
X157465569Y-98059892D01*
X157465569Y-98059892D02*
X157265902Y-97455345D01*
X157265902Y-97455345D02*
X157027484Y-96886814D01*
X157027484Y-96886814D02*
X156755024Y-96371569D01*
X156755024Y-96371569D02*
X156586930Y-96109260D01*
X156586930Y-96109260D02*
X156248360Y-95628932D01*
X156248360Y-95628932D02*
X155921456Y-95184715D01*
X155921456Y-95184715D02*
X155609987Y-94780867D01*
X155609987Y-94780867D02*
X155317724Y-94421648D01*
X155317724Y-94421648D02*
X155048436Y-94111318D01*
X155048436Y-94111318D02*
X154805892Y-93854136D01*
X154805892Y-93854136D02*
X154593864Y-93654361D01*
X154593864Y-93654361D02*
X154416121Y-93516253D01*
X154416121Y-93516253D02*
X154276432Y-93444071D01*
X154276432Y-93444071D02*
X154219112Y-93434000D01*
X154219112Y-93434000D02*
X154159172Y-93462777D01*
X154159172Y-93462777D02*
X154059184Y-93539771D01*
X154059184Y-93539771D02*
X153936517Y-93650976D01*
X153936517Y-93650976D02*
X153877842Y-93709167D01*
X153877842Y-93709167D02*
X153719936Y-93860185D01*
X153719936Y-93860185D02*
X153595201Y-93949490D01*
X153595201Y-93949490D02*
X153486131Y-93983197D01*
X153486131Y-93983197D02*
X153375222Y-93967420D01*
X153375222Y-93967420D02*
X153269937Y-93921490D01*
X153269937Y-93921490D02*
X153156364Y-93841934D01*
X153156364Y-93841934D02*
X153034930Y-93713563D01*
X153034930Y-93713563D02*
X152900273Y-93528951D01*
X152900273Y-93528951D02*
X152747033Y-93280675D01*
X152747033Y-93280675D02*
X152569848Y-92961311D01*
X152569848Y-92961311D02*
X152551043Y-92926000D01*
X152551043Y-92926000D02*
X152374657Y-92609760D01*
X152374657Y-92609760D02*
X152219240Y-92367405D01*
X152219240Y-92367405D02*
X152079377Y-92192369D01*
X152079377Y-92192369D02*
X151949657Y-92078086D01*
X151949657Y-92078086D02*
X151824666Y-92017989D01*
X151824666Y-92017989D02*
X151797084Y-92011351D01*
X151797084Y-92011351D02*
X151703766Y-92002808D01*
X151703766Y-92002808D02*
X151628506Y-92031275D01*
X151628506Y-92031275D02*
X151539810Y-92110552D01*
X151539810Y-92110552D02*
X151517574Y-92133840D01*
X151517574Y-92133840D02*
X151382465Y-92321369D01*
X151382465Y-92321369D02*
X151262607Y-92582146D01*
X151262607Y-92582146D02*
X151157639Y-92917867D01*
X151157639Y-92917867D02*
X151067194Y-93330230D01*
X151067194Y-93330230D02*
X150990910Y-93820932D01*
X150990910Y-93820932D02*
X150928423Y-94391671D01*
X150928423Y-94391671D02*
X150879369Y-95044145D01*
X150879369Y-95044145D02*
X150873797Y-95137888D01*
X150873797Y-95137888D02*
X150847523Y-95592943D01*
X150847523Y-95592943D02*
X150671678Y-95485071D01*
X150671678Y-95485071D02*
X150233874Y-95241466D01*
X150233874Y-95241466D02*
X149814523Y-95062012D01*
X149814523Y-95062012D02*
X149390697Y-94936999D01*
X149390697Y-94936999D02*
X149362183Y-94930466D01*
X149362183Y-94930466D02*
X149170933Y-94890194D01*
X149170933Y-94890194D02*
X149007631Y-94861025D01*
X149007631Y-94861025D02*
X148891339Y-94846038D01*
X148891339Y-94846038D02*
X148843663Y-94846758D01*
X148843663Y-94846758D02*
X148798279Y-94898980D01*
X148798279Y-94898980D02*
X148760931Y-94998023D01*
X148760931Y-94998023D02*
X148758612Y-95008056D01*
X148758612Y-95008056D02*
X148710440Y-95170019D01*
X148710440Y-95170019D02*
X148629313Y-95382536D01*
X148629313Y-95382536D02*
X148525517Y-95623372D01*
X148525517Y-95623372D02*
X148409341Y-95870290D01*
X148409341Y-95870290D02*
X148291071Y-96101056D01*
X148291071Y-96101056D02*
X148180996Y-96293433D01*
X148180996Y-96293433D02*
X148123572Y-96380612D01*
X148123572Y-96380612D02*
X147775214Y-96801771D01*
X147775214Y-96801771D02*
X147350461Y-97197673D01*
X147350461Y-97197673D02*
X147025308Y-97446476D01*
X147025308Y-97446476D02*
X146649921Y-97712451D01*
X146649921Y-97712451D02*
X146484920Y-97552309D01*
X146484920Y-97552309D02*
X146377454Y-97440926D01*
X146377454Y-97440926D02*
X146243424Y-97292110D01*
X146243424Y-97292110D02*
X146108797Y-97134832D01*
X146108797Y-97134832D02*
X146086125Y-97107396D01*
X146086125Y-97107396D02*
X145893144Y-96892351D01*
X145893144Y-96892351D02*
X145723675Y-96749042D01*
X145723675Y-96749042D02*
X145568661Y-96671055D01*
X145568661Y-96671055D02*
X145442307Y-96651334D01*
X145442307Y-96651334D02*
X145366413Y-96659074D01*
X145366413Y-96659074D02*
X145297891Y-96689454D01*
X145297891Y-96689454D02*
X145226647Y-96753214D01*
X145226647Y-96753214D02*
X145142589Y-96861093D01*
X145142589Y-96861093D02*
X145035624Y-97023831D01*
X145035624Y-97023831D02*
X144928209Y-97198376D01*
X144928209Y-97198376D02*
X144422543Y-98100597D01*
X144422543Y-98100597D02*
X143991381Y-99020677D01*
X143991381Y-99020677D02*
X143624649Y-99980331D01*
X143624649Y-99980331D02*
X143589901Y-100082985D01*
X143589901Y-100082985D02*
X143385409Y-100694167D01*
X143385409Y-100694167D02*
X143384621Y-101530261D01*
X143384621Y-101530261D02*
X143383087Y-101785047D01*
X143383087Y-101785047D02*
X143379267Y-102007463D01*
X143379267Y-102007463D02*
X143373583Y-102184972D01*
X143373583Y-102184972D02*
X143366458Y-102305034D01*
X143366458Y-102305034D02*
X143358313Y-102355113D01*
X143358313Y-102355113D02*
X143356849Y-102355761D01*
X143356849Y-102355761D02*
X143320165Y-102326001D01*
X143320165Y-102326001D02*
X143227804Y-102246051D01*
X143227804Y-102246051D02*
X143087035Y-102122347D01*
X143087035Y-102122347D02*
X142905127Y-101961321D01*
X142905127Y-101961321D02*
X142689351Y-101769407D01*
X142689351Y-101769407D02*
X142446976Y-101553040D01*
X142446976Y-101553040D02*
X142203265Y-101334793D01*
X142203265Y-101334793D02*
X141076667Y-100324418D01*
X141076667Y-100324418D02*
X141076667Y-99851368D01*
X141076667Y-99851368D02*
X141088837Y-99474165D01*
X141088837Y-99474165D02*
X141122808Y-99064726D01*
X141122808Y-99064726D02*
X141174768Y-98655116D01*
X141174768Y-98655116D02*
X141240908Y-98277400D01*
X141240908Y-98277400D02*
X141288462Y-98068997D01*
X141288462Y-98068997D02*
X141350576Y-97859396D01*
X141350576Y-97859396D02*
X141446196Y-97582186D01*
X141446196Y-97582186D02*
X141571926Y-97245960D01*
X141571926Y-97245960D02*
X141724372Y-96859313D01*
X141724372Y-96859313D02*
X141900136Y-96430836D01*
X141900136Y-96430836D02*
X142095825Y-95969124D01*
X142095825Y-95969124D02*
X142308042Y-95482768D01*
X142308042Y-95482768D02*
X142329951Y-95433314D01*
X142329951Y-95433314D02*
X142545320Y-94952976D01*
X142545320Y-94952976D02*
X142736941Y-94537802D01*
X142736941Y-94537802D02*
X142911792Y-94174061D01*
X142911792Y-94174061D02*
X143076849Y-93848023D01*
X143076849Y-93848023D02*
X143239090Y-93545956D01*
X143239090Y-93545956D02*
X143405494Y-93254132D01*
X143405494Y-93254132D02*
X143583037Y-92958818D01*
X143583037Y-92958818D02*
X143608133Y-92918105D01*
X143608133Y-92918105D02*
X143745477Y-92694615D01*
X143745477Y-92694615D02*
X143878514Y-92475853D01*
X143878514Y-92475853D02*
X143995854Y-92280707D01*
X143995854Y-92280707D02*
X144086109Y-92128067D01*
X144086109Y-92128067D02*
X144120262Y-92068750D01*
X144120262Y-92068750D02*
X144222901Y-91910664D01*
X144222901Y-91910664D02*
X144306414Y-91833752D01*
X144306414Y-91833752D02*
X144338634Y-91825334D01*
X144338634Y-91825334D02*
X144384240Y-91833914D01*
X144384240Y-91833914D02*
X144416981Y-91869052D01*
X144416981Y-91869052D02*
X144441128Y-91944842D01*
X144441128Y-91944842D02*
X144460950Y-92075380D01*
X144460950Y-92075380D02*
X144480718Y-92274760D01*
X144480718Y-92274760D02*
X144483147Y-92302352D01*
X144483147Y-92302352D02*
X144502966Y-92465951D01*
X144502966Y-92465951D02*
X144529840Y-92608634D01*
X144529840Y-92608634D02*
X144555007Y-92691639D01*
X144555007Y-92691639D02*
X144639914Y-92786680D01*
X144639914Y-92786680D02*
X144796684Y-92871010D01*
X144796684Y-92871010D02*
X145012612Y-92938031D01*
X145012612Y-92938031D02*
X145042056Y-92944632D01*
X145042056Y-92944632D02*
X145115641Y-92955169D01*
X145115641Y-92955169D02*
X145172218Y-92939564D01*
X145172218Y-92939564D02*
X145230641Y-92884177D01*
X145230641Y-92884177D02*
X145309767Y-92775372D01*
X145309767Y-92775372D02*
X145342204Y-92727542D01*
X145342204Y-92727542D02*
X145824777Y-91959284D01*
X145824777Y-91959284D02*
X146229933Y-91201113D01*
X146229933Y-91201113D02*
X146556609Y-90455549D01*
X146556609Y-90455549D02*
X146803744Y-89725109D01*
X146803744Y-89725109D02*
X146970275Y-89012312D01*
X146970275Y-89012312D02*
X147007749Y-88778654D01*
X147007749Y-88778654D02*
X147036260Y-88610068D01*
X147036260Y-88610068D02*
X147067190Y-88479765D01*
X147067190Y-88479765D02*
X147095742Y-88406143D01*
X147095742Y-88406143D02*
X147107450Y-88396334D01*
X147107450Y-88396334D02*
X147151740Y-88422410D01*
X147151740Y-88422410D02*
X147250844Y-88495503D01*
X147250844Y-88495503D02*
X147394969Y-88607906D01*
X147394969Y-88607906D02*
X147574323Y-88751913D01*
X147574323Y-88751913D02*
X147779113Y-88919818D01*
X147779113Y-88919818D02*
X147893103Y-89014597D01*
X147893103Y-89014597D02*
X148170281Y-89244330D01*
X148170281Y-89244330D02*
X148393772Y-89424430D01*
X148393772Y-89424430D02*
X148573320Y-89561346D01*
X148573320Y-89561346D02*
X148718669Y-89661528D01*
X148718669Y-89661528D02*
X148839561Y-89731425D01*
X148839561Y-89731425D02*
X148945740Y-89777486D01*
X148945740Y-89777486D02*
X149046949Y-89806159D01*
X149046949Y-89806159D02*
X149105532Y-89817097D01*
X149105532Y-89817097D02*
X149268167Y-89843103D01*
X149268167Y-89843103D02*
X149268167Y-88452968D01*
X149268167Y-88452968D02*
X149270101Y-87978796D01*
X149270101Y-87978796D02*
X149276941Y-87574968D01*
X149276941Y-87574968D02*
X149290244Y-87227230D01*
X149290244Y-87227230D02*
X149311565Y-86921325D01*
X149311565Y-86921325D02*
X149342462Y-86642997D01*
X149342462Y-86642997D02*
X149384491Y-86377992D01*
X149384491Y-86377992D02*
X149439208Y-86112054D01*
X149439208Y-86112054D02*
X149508171Y-85830926D01*
X149508171Y-85830926D02*
X149585467Y-85546859D01*
X149585467Y-85546859D02*
X149779468Y-84959446D01*
X149779468Y-84959446D02*
X150027251Y-84375324D01*
X150027251Y-84375324D02*
X150319646Y-83810644D01*
X150319646Y-83810644D02*
X150647479Y-83281560D01*
X150647479Y-83281560D02*
X151001578Y-82804222D01*
X151001578Y-82804222D02*
X151372770Y-82394784D01*
X151372770Y-82394784D02*
X151378771Y-82388900D01*
X151378771Y-82388900D02*
X151480350Y-82290019D01*
X151480350Y-82290019D02*
X151552259Y-82230271D01*
X151552259Y-82230271D02*
X151600545Y-82217296D01*
X151600545Y-82217296D02*
X151631256Y-82258730D01*
X151631256Y-82258730D02*
X151631256Y-82258730D01*
G36*
X151631256Y-82258730D02*
G01*
X151650437Y-82362214D01*
X151664136Y-82535386D01*
X151677274Y-82766000D01*
X151727711Y-83299399D01*
X151820827Y-83834198D01*
X151960156Y-84382997D01*
X152149232Y-84958398D01*
X152391588Y-85573001D01*
X152591334Y-86025667D01*
X152830411Y-86572190D01*
X153022348Y-87066879D01*
X153172523Y-87524311D01*
X153253212Y-87820243D01*
X153362124Y-88256821D01*
X153572625Y-88305411D01*
X153752147Y-88341144D01*
X153887898Y-88347031D01*
X154015413Y-88318775D01*
X154170227Y-88252081D01*
X154221167Y-88227000D01*
X154405253Y-88141560D01*
X154534677Y-88104295D01*
X154626763Y-88118814D01*
X154698837Y-88188727D01*
X154768226Y-88317643D01*
X154779980Y-88343417D01*
X154941492Y-88694767D01*
X155096117Y-89017266D01*
X155238868Y-89301302D01*
X155364760Y-89537263D01*
X155468807Y-89715535D01*
X155546023Y-89826506D01*
X155553992Y-89835667D01*
X156205344Y-90598787D01*
X156778936Y-91367842D01*
X157281549Y-92153415D01*
X157719960Y-92966091D01*
X158096054Y-93804417D01*
X158238322Y-94153667D01*
X158441771Y-94153667D01*
X158568040Y-94146933D01*
X158657018Y-94115510D01*
X158743809Y-94042568D01*
X158800679Y-93981593D01*
X158927460Y-93858069D01*
X159052326Y-93764640D01*
X159158302Y-93711639D01*
X159228409Y-93709397D01*
X159236812Y-93716148D01*
X159260529Y-93773452D01*
X159291421Y-93888586D01*
X159320810Y-94026667D01*
X159359310Y-94187052D01*
X159420129Y-94393432D01*
X159493370Y-94613506D01*
X159538079Y-94735844D01*
X159783628Y-95438309D01*
X159984384Y-96132686D01*
X160137681Y-96806531D01*
X160240851Y-97447396D01*
X160291226Y-98042836D01*
X160296000Y-98272146D01*
X160274065Y-98879861D01*
X160206083Y-99475981D01*
X160088786Y-100074354D01*
X159918910Y-100688830D01*
X159693188Y-101333255D01*
X159415568Y-102005114D01*
X159309131Y-102244585D01*
X159224717Y-102424043D01*
X159150961Y-102561285D01*
X159076500Y-102674105D01*
X158989968Y-102780297D01*
X158880003Y-102897656D01*
X158782395Y-102996587D01*
X158607637Y-103175337D01*
X158422276Y-103369784D01*
X158253310Y-103551402D01*
X158167402Y-103646427D01*
X157905441Y-103941179D01*
X158003442Y-104020535D01*
X158140116Y-104101225D01*
X158322618Y-104153734D01*
X158564345Y-104180925D01*
X158780085Y-104186431D01*
X158947787Y-104190065D01*
X159080507Y-104199566D01*
X159157591Y-104213177D01*
X159168266Y-104219452D01*
X159160124Y-104280489D01*
X159098364Y-104380260D01*
X158995527Y-104504671D01*
X158864154Y-104639622D01*
X158716788Y-104771019D01*
X158592876Y-104866177D01*
X158391431Y-105006245D01*
X158223577Y-105113979D01*
X158072694Y-105194469D01*
X157922163Y-105252806D01*
X157755363Y-105294077D01*
X157555674Y-105323375D01*
X157306477Y-105345787D01*
X156991151Y-105366404D01*
X156951667Y-105368784D01*
X156684530Y-105385712D01*
X156442425Y-105402719D01*
X156239493Y-105418678D01*
X156089874Y-105432462D01*
X156007709Y-105442945D01*
X156000397Y-105444607D01*
X155987979Y-105428141D01*
X156031444Y-105359393D01*
X156125975Y-105245107D01*
X156206969Y-105155572D01*
X156449013Y-104872067D01*
X156702677Y-104535005D01*
X156957537Y-104161559D01*
X157203167Y-103768905D01*
X157429143Y-103374215D01*
X157625041Y-102994665D01*
X157780437Y-102647429D01*
X157859389Y-102433226D01*
X157930246Y-102196213D01*
X157963038Y-102023674D01*
X157955737Y-101903467D01*
X157906316Y-101823450D01*
X157812746Y-101771481D01*
X157745505Y-101751396D01*
X157662383Y-101714838D01*
X157645547Y-101651462D01*
X157648943Y-101631576D01*
X157684653Y-101429902D01*
X157719884Y-101171326D01*
X157751383Y-100883568D01*
X157775899Y-100594349D01*
X157782527Y-100492881D01*
X157784964Y-99916951D01*
X157729810Y-99307964D01*
X157621775Y-98683188D01*
X157465569Y-98059892D01*
X157265902Y-97455345D01*
X157027484Y-96886814D01*
X156755024Y-96371569D01*
X156586930Y-96109260D01*
X156248360Y-95628932D01*
X155921456Y-95184715D01*
X155609987Y-94780867D01*
X155317724Y-94421648D01*
X155048436Y-94111318D01*
X154805892Y-93854136D01*
X154593864Y-93654361D01*
X154416121Y-93516253D01*
X154276432Y-93444071D01*
X154219112Y-93434000D01*
X154159172Y-93462777D01*
X154059184Y-93539771D01*
X153936517Y-93650976D01*
X153877842Y-93709167D01*
X153719936Y-93860185D01*
X153595201Y-93949490D01*
X153486131Y-93983197D01*
X153375222Y-93967420D01*
X153269937Y-93921490D01*
X153156364Y-93841934D01*
X153034930Y-93713563D01*
X152900273Y-93528951D01*
X152747033Y-93280675D01*
X152569848Y-92961311D01*
X152551043Y-92926000D01*
X152374657Y-92609760D01*
X152219240Y-92367405D01*
X152079377Y-92192369D01*
X151949657Y-92078086D01*
X151824666Y-92017989D01*
X151797084Y-92011351D01*
X151703766Y-92002808D01*
X151628506Y-92031275D01*
X151539810Y-92110552D01*
X151517574Y-92133840D01*
X151382465Y-92321369D01*
X151262607Y-92582146D01*
X151157639Y-92917867D01*
X151067194Y-93330230D01*
X150990910Y-93820932D01*
X150928423Y-94391671D01*
X150879369Y-95044145D01*
X150873797Y-95137888D01*
X150847523Y-95592943D01*
X150671678Y-95485071D01*
X150233874Y-95241466D01*
X149814523Y-95062012D01*
X149390697Y-94936999D01*
X149362183Y-94930466D01*
X149170933Y-94890194D01*
X149007631Y-94861025D01*
X148891339Y-94846038D01*
X148843663Y-94846758D01*
X148798279Y-94898980D01*
X148760931Y-94998023D01*
X148758612Y-95008056D01*
X148710440Y-95170019D01*
X148629313Y-95382536D01*
X148525517Y-95623372D01*
X148409341Y-95870290D01*
X148291071Y-96101056D01*
X148180996Y-96293433D01*
X148123572Y-96380612D01*
X147775214Y-96801771D01*
X147350461Y-97197673D01*
X147025308Y-97446476D01*
X146649921Y-97712451D01*
X146484920Y-97552309D01*
X146377454Y-97440926D01*
X146243424Y-97292110D01*
X146108797Y-97134832D01*
X146086125Y-97107396D01*
X145893144Y-96892351D01*
X145723675Y-96749042D01*
X145568661Y-96671055D01*
X145442307Y-96651334D01*
X145366413Y-96659074D01*
X145297891Y-96689454D01*
X145226647Y-96753214D01*
X145142589Y-96861093D01*
X145035624Y-97023831D01*
X144928209Y-97198376D01*
X144422543Y-98100597D01*
X143991381Y-99020677D01*
X143624649Y-99980331D01*
X143589901Y-100082985D01*
X143385409Y-100694167D01*
X143384621Y-101530261D01*
X143383087Y-101785047D01*
X143379267Y-102007463D01*
X143373583Y-102184972D01*
X143366458Y-102305034D01*
X143358313Y-102355113D01*
X143356849Y-102355761D01*
X143320165Y-102326001D01*
X143227804Y-102246051D01*
X143087035Y-102122347D01*
X142905127Y-101961321D01*
X142689351Y-101769407D01*
X142446976Y-101553040D01*
X142203265Y-101334793D01*
X141076667Y-100324418D01*
X141076667Y-99851368D01*
X141088837Y-99474165D01*
X141122808Y-99064726D01*
X141174768Y-98655116D01*
X141240908Y-98277400D01*
X141288462Y-98068997D01*
X141350576Y-97859396D01*
X141446196Y-97582186D01*
X141571926Y-97245960D01*
X141724372Y-96859313D01*
X141900136Y-96430836D01*
X142095825Y-95969124D01*
X142308042Y-95482768D01*
X142329951Y-95433314D01*
X142545320Y-94952976D01*
X142736941Y-94537802D01*
X142911792Y-94174061D01*
X143076849Y-93848023D01*
X143239090Y-93545956D01*
X143405494Y-93254132D01*
X143583037Y-92958818D01*
X143608133Y-92918105D01*
X143745477Y-92694615D01*
X143878514Y-92475853D01*
X143995854Y-92280707D01*
X144086109Y-92128067D01*
X144120262Y-92068750D01*
X144222901Y-91910664D01*
X144306414Y-91833752D01*
X144338634Y-91825334D01*
X144384240Y-91833914D01*
X144416981Y-91869052D01*
X144441128Y-91944842D01*
X144460950Y-92075380D01*
X144480718Y-92274760D01*
X144483147Y-92302352D01*
X144502966Y-92465951D01*
X144529840Y-92608634D01*
X144555007Y-92691639D01*
X144639914Y-92786680D01*
X144796684Y-92871010D01*
X145012612Y-92938031D01*
X145042056Y-92944632D01*
X145115641Y-92955169D01*
X145172218Y-92939564D01*
X145230641Y-92884177D01*
X145309767Y-92775372D01*
X145342204Y-92727542D01*
X145824777Y-91959284D01*
X146229933Y-91201113D01*
X146556609Y-90455549D01*
X146803744Y-89725109D01*
X146970275Y-89012312D01*
X147007749Y-88778654D01*
X147036260Y-88610068D01*
X147067190Y-88479765D01*
X147095742Y-88406143D01*
X147107450Y-88396334D01*
X147151740Y-88422410D01*
X147250844Y-88495503D01*
X147394969Y-88607906D01*
X147574323Y-88751913D01*
X147779113Y-88919818D01*
X147893103Y-89014597D01*
X148170281Y-89244330D01*
X148393772Y-89424430D01*
X148573320Y-89561346D01*
X148718669Y-89661528D01*
X148839561Y-89731425D01*
X148945740Y-89777486D01*
X149046949Y-89806159D01*
X149105532Y-89817097D01*
X149268167Y-89843103D01*
X149268167Y-88452968D01*
X149270101Y-87978796D01*
X149276941Y-87574968D01*
X149290244Y-87227230D01*
X149311565Y-86921325D01*
X149342462Y-86642997D01*
X149384491Y-86377992D01*
X149439208Y-86112054D01*
X149508171Y-85830926D01*
X149585467Y-85546859D01*
X149779468Y-84959446D01*
X150027251Y-84375324D01*
X150319646Y-83810644D01*
X150647479Y-83281560D01*
X151001578Y-82804222D01*
X151372770Y-82394784D01*
X151378771Y-82388900D01*
X151480350Y-82290019D01*
X151552259Y-82230271D01*
X151600545Y-82217296D01*
X151631256Y-82258730D01*
G37*
X151631256Y-82258730D02*
X151650437Y-82362214D01*
X151664136Y-82535386D01*
X151677274Y-82766000D01*
X151727711Y-83299399D01*
X151820827Y-83834198D01*
X151960156Y-84382997D01*
X152149232Y-84958398D01*
X152391588Y-85573001D01*
X152591334Y-86025667D01*
X152830411Y-86572190D01*
X153022348Y-87066879D01*
X153172523Y-87524311D01*
X153253212Y-87820243D01*
X153362124Y-88256821D01*
X153572625Y-88305411D01*
X153752147Y-88341144D01*
X153887898Y-88347031D01*
X154015413Y-88318775D01*
X154170227Y-88252081D01*
X154221167Y-88227000D01*
X154405253Y-88141560D01*
X154534677Y-88104295D01*
X154626763Y-88118814D01*
X154698837Y-88188727D01*
X154768226Y-88317643D01*
X154779980Y-88343417D01*
X154941492Y-88694767D01*
X155096117Y-89017266D01*
X155238868Y-89301302D01*
X155364760Y-89537263D01*
X155468807Y-89715535D01*
X155546023Y-89826506D01*
X155553992Y-89835667D01*
X156205344Y-90598787D01*
X156778936Y-91367842D01*
X157281549Y-92153415D01*
X157719960Y-92966091D01*
X158096054Y-93804417D01*
X158238322Y-94153667D01*
X158441771Y-94153667D01*
X158568040Y-94146933D01*
X158657018Y-94115510D01*
X158743809Y-94042568D01*
X158800679Y-93981593D01*
X158927460Y-93858069D01*
X159052326Y-93764640D01*
X159158302Y-93711639D01*
X159228409Y-93709397D01*
X159236812Y-93716148D01*
X159260529Y-93773452D01*
X159291421Y-93888586D01*
X159320810Y-94026667D01*
X159359310Y-94187052D01*
X159420129Y-94393432D01*
X159493370Y-94613506D01*
X159538079Y-94735844D01*
X159783628Y-95438309D01*
X159984384Y-96132686D01*
X160137681Y-96806531D01*
X160240851Y-97447396D01*
X160291226Y-98042836D01*
X160296000Y-98272146D01*
X160274065Y-98879861D01*
X160206083Y-99475981D01*
X160088786Y-100074354D01*
X159918910Y-100688830D01*
X159693188Y-101333255D01*
X159415568Y-102005114D01*
X159309131Y-102244585D01*
X159224717Y-102424043D01*
X159150961Y-102561285D01*
X159076500Y-102674105D01*
X158989968Y-102780297D01*
X158880003Y-102897656D01*
X158782395Y-102996587D01*
X158607637Y-103175337D01*
X158422276Y-103369784D01*
X158253310Y-103551402D01*
X158167402Y-103646427D01*
X157905441Y-103941179D01*
X158003442Y-104020535D01*
X158140116Y-104101225D01*
X158322618Y-104153734D01*
X158564345Y-104180925D01*
X158780085Y-104186431D01*
X158947787Y-104190065D01*
X159080507Y-104199566D01*
X159157591Y-104213177D01*
X159168266Y-104219452D01*
X159160124Y-104280489D01*
X159098364Y-104380260D01*
X158995527Y-104504671D01*
X158864154Y-104639622D01*
X158716788Y-104771019D01*
X158592876Y-104866177D01*
X158391431Y-105006245D01*
X158223577Y-105113979D01*
X158072694Y-105194469D01*
X157922163Y-105252806D01*
X157755363Y-105294077D01*
X157555674Y-105323375D01*
X157306477Y-105345787D01*
X156991151Y-105366404D01*
X156951667Y-105368784D01*
X156684530Y-105385712D01*
X156442425Y-105402719D01*
X156239493Y-105418678D01*
X156089874Y-105432462D01*
X156007709Y-105442945D01*
X156000397Y-105444607D01*
X155987979Y-105428141D01*
X156031444Y-105359393D01*
X156125975Y-105245107D01*
X156206969Y-105155572D01*
X156449013Y-104872067D01*
X156702677Y-104535005D01*
X156957537Y-104161559D01*
X157203167Y-103768905D01*
X157429143Y-103374215D01*
X157625041Y-102994665D01*
X157780437Y-102647429D01*
X157859389Y-102433226D01*
X157930246Y-102196213D01*
X157963038Y-102023674D01*
X157955737Y-101903467D01*
X157906316Y-101823450D01*
X157812746Y-101771481D01*
X157745505Y-101751396D01*
X157662383Y-101714838D01*
X157645547Y-101651462D01*
X157648943Y-101631576D01*
X157684653Y-101429902D01*
X157719884Y-101171326D01*
X157751383Y-100883568D01*
X157775899Y-100594349D01*
X157782527Y-100492881D01*
X157784964Y-99916951D01*
X157729810Y-99307964D01*
X157621775Y-98683188D01*
X157465569Y-98059892D01*
X157265902Y-97455345D01*
X157027484Y-96886814D01*
X156755024Y-96371569D01*
X156586930Y-96109260D01*
X156248360Y-95628932D01*
X155921456Y-95184715D01*
X155609987Y-94780867D01*
X155317724Y-94421648D01*
X155048436Y-94111318D01*
X154805892Y-93854136D01*
X154593864Y-93654361D01*
X154416121Y-93516253D01*
X154276432Y-93444071D01*
X154219112Y-93434000D01*
X154159172Y-93462777D01*
X154059184Y-93539771D01*
X153936517Y-93650976D01*
X153877842Y-93709167D01*
X153719936Y-93860185D01*
X153595201Y-93949490D01*
X153486131Y-93983197D01*
X153375222Y-93967420D01*
X153269937Y-93921490D01*
X153156364Y-93841934D01*
X153034930Y-93713563D01*
X152900273Y-93528951D01*
X152747033Y-93280675D01*
X152569848Y-92961311D01*
X152551043Y-92926000D01*
X152374657Y-92609760D01*
X152219240Y-92367405D01*
X152079377Y-92192369D01*
X151949657Y-92078086D01*
X151824666Y-92017989D01*
X151797084Y-92011351D01*
X151703766Y-92002808D01*
X151628506Y-92031275D01*
X151539810Y-92110552D01*
X151517574Y-92133840D01*
X151382465Y-92321369D01*
X151262607Y-92582146D01*
X151157639Y-92917867D01*
X151067194Y-93330230D01*
X150990910Y-93820932D01*
X150928423Y-94391671D01*
X150879369Y-95044145D01*
X150873797Y-95137888D01*
X150847523Y-95592943D01*
X150671678Y-95485071D01*
X150233874Y-95241466D01*
X149814523Y-95062012D01*
X149390697Y-94936999D01*
X149362183Y-94930466D01*
X149170933Y-94890194D01*
X149007631Y-94861025D01*
X148891339Y-94846038D01*
X148843663Y-94846758D01*
X148798279Y-94898980D01*
X148760931Y-94998023D01*
X148758612Y-95008056D01*
X148710440Y-95170019D01*
X148629313Y-95382536D01*
X148525517Y-95623372D01*
X148409341Y-95870290D01*
X148291071Y-96101056D01*
X148180996Y-96293433D01*
X148123572Y-96380612D01*
X147775214Y-96801771D01*
X147350461Y-97197673D01*
X147025308Y-97446476D01*
X146649921Y-97712451D01*
X146484920Y-97552309D01*
X146377454Y-97440926D01*
X146243424Y-97292110D01*
X146108797Y-97134832D01*
X146086125Y-97107396D01*
X145893144Y-96892351D01*
X145723675Y-96749042D01*
X145568661Y-96671055D01*
X145442307Y-96651334D01*
X145366413Y-96659074D01*
X145297891Y-96689454D01*
X145226647Y-96753214D01*
X145142589Y-96861093D01*
X145035624Y-97023831D01*
X144928209Y-97198376D01*
X144422543Y-98100597D01*
X143991381Y-99020677D01*
X143624649Y-99980331D01*
X143589901Y-100082985D01*
X143385409Y-100694167D01*
X143384621Y-101530261D01*
X143383087Y-101785047D01*
X143379267Y-102007463D01*
X143373583Y-102184972D01*
X143366458Y-102305034D01*
X143358313Y-102355113D01*
X143356849Y-102355761D01*
X143320165Y-102326001D01*
X143227804Y-102246051D01*
X143087035Y-102122347D01*
X142905127Y-101961321D01*
X142689351Y-101769407D01*
X142446976Y-101553040D01*
X142203265Y-101334793D01*
X141076667Y-100324418D01*
X141076667Y-99851368D01*
X141088837Y-99474165D01*
X141122808Y-99064726D01*
X141174768Y-98655116D01*
X141240908Y-98277400D01*
X141288462Y-98068997D01*
X141350576Y-97859396D01*
X141446196Y-97582186D01*
X141571926Y-97245960D01*
X141724372Y-96859313D01*
X141900136Y-96430836D01*
X142095825Y-95969124D01*
X142308042Y-95482768D01*
X142329951Y-95433314D01*
X142545320Y-94952976D01*
X142736941Y-94537802D01*
X142911792Y-94174061D01*
X143076849Y-93848023D01*
X143239090Y-93545956D01*
X143405494Y-93254132D01*
X143583037Y-92958818D01*
X143608133Y-92918105D01*
X143745477Y-92694615D01*
X143878514Y-92475853D01*
X143995854Y-92280707D01*
X144086109Y-92128067D01*
X144120262Y-92068750D01*
X144222901Y-91910664D01*
X144306414Y-91833752D01*
X144338634Y-91825334D01*
X144384240Y-91833914D01*
X144416981Y-91869052D01*
X144441128Y-91944842D01*
X144460950Y-92075380D01*
X144480718Y-92274760D01*
X144483147Y-92302352D01*
X144502966Y-92465951D01*
X144529840Y-92608634D01*
X144555007Y-92691639D01*
X144639914Y-92786680D01*
X144796684Y-92871010D01*
X145012612Y-92938031D01*
X145042056Y-92944632D01*
X145115641Y-92955169D01*
X145172218Y-92939564D01*
X145230641Y-92884177D01*
X145309767Y-92775372D01*
X145342204Y-92727542D01*
X145824777Y-91959284D01*
X146229933Y-91201113D01*
X146556609Y-90455549D01*
X146803744Y-89725109D01*
X146970275Y-89012312D01*
X147007749Y-88778654D01*
X147036260Y-88610068D01*
X147067190Y-88479765D01*
X147095742Y-88406143D01*
X147107450Y-88396334D01*
X147151740Y-88422410D01*
X147250844Y-88495503D01*
X147394969Y-88607906D01*
X147574323Y-88751913D01*
X147779113Y-88919818D01*
X147893103Y-89014597D01*
X148170281Y-89244330D01*
X148393772Y-89424430D01*
X148573320Y-89561346D01*
X148718669Y-89661528D01*
X148839561Y-89731425D01*
X148945740Y-89777486D01*
X149046949Y-89806159D01*
X149105532Y-89817097D01*
X149268167Y-89843103D01*
X149268167Y-88452968D01*
X149270101Y-87978796D01*
X149276941Y-87574968D01*
X149290244Y-87227230D01*
X149311565Y-86921325D01*
X149342462Y-86642997D01*
X149384491Y-86377992D01*
X149439208Y-86112054D01*
X149508171Y-85830926D01*
X149585467Y-85546859D01*
X149779468Y-84959446D01*
X150027251Y-84375324D01*
X150319646Y-83810644D01*
X150647479Y-83281560D01*
X151001578Y-82804222D01*
X151372770Y-82394784D01*
X151378771Y-82388900D01*
X151480350Y-82290019D01*
X151552259Y-82230271D01*
X151600545Y-82217296D01*
X151631256Y-82258730D01*
X161744020Y-103331754D02*
X161758319Y-103396166D01*
X161758319Y-103396166D02*
X161740606Y-103474299D01*
X161740606Y-103474299D02*
X161683737Y-103581206D01*
X161683737Y-103581206D02*
X161580101Y-103735862D01*
X161580101Y-103735862D02*
X161440794Y-103924208D01*
X161440794Y-103924208D02*
X161276913Y-104132183D01*
X161276913Y-104132183D02*
X161099554Y-104345729D01*
X161099554Y-104345729D02*
X160919813Y-104550787D01*
X160919813Y-104550787D02*
X160748786Y-104733296D01*
X160748786Y-104733296D02*
X160739501Y-104742757D01*
X160739501Y-104742757D02*
X160591558Y-104892394D01*
X160591558Y-104892394D02*
X160476490Y-104999627D01*
X160476490Y-104999627D02*
X160375131Y-105072518D01*
X160375131Y-105072518D02*
X160268313Y-105119127D01*
X160268313Y-105119127D02*
X160136870Y-105147517D01*
X160136870Y-105147517D02*
X159961635Y-105165748D01*
X159961635Y-105165748D02*
X159723442Y-105181881D01*
X159723442Y-105181881D02*
X159690334Y-105184019D01*
X159690334Y-105184019D02*
X159275169Y-105210931D01*
X159275169Y-105210931D02*
X159493781Y-104921049D01*
X159493781Y-104921049D02*
X159625877Y-104740298D01*
X159625877Y-104740298D02*
X159765695Y-104540206D01*
X159765695Y-104540206D02*
X159883899Y-104362796D01*
X159883899Y-104362796D02*
X159888252Y-104356000D01*
X159888252Y-104356000D02*
X160038563Y-104152577D01*
X160038563Y-104152577D02*
X160178317Y-104028131D01*
X160178317Y-104028131D02*
X160211806Y-104009489D01*
X160211806Y-104009489D02*
X160618817Y-103813816D01*
X160618817Y-103813816D02*
X160954966Y-103654375D01*
X160954966Y-103654375D02*
X161224907Y-103529107D01*
X161224907Y-103529107D02*
X161433292Y-103435953D01*
X161433292Y-103435953D02*
X161584774Y-103372857D01*
X161584774Y-103372857D02*
X161684005Y-103337759D01*
X161684005Y-103337759D02*
X161735639Y-103328601D01*
X161735639Y-103328601D02*
X161744020Y-103331754D01*
X161744020Y-103331754D02*
X161744020Y-103331754D01*
G36*
X161744020Y-103331754D02*
G01*
X161758319Y-103396166D01*
X161740606Y-103474299D01*
X161683737Y-103581206D01*
X161580101Y-103735862D01*
X161440794Y-103924208D01*
X161276913Y-104132183D01*
X161099554Y-104345729D01*
X160919813Y-104550787D01*
X160748786Y-104733296D01*
X160739501Y-104742757D01*
X160591558Y-104892394D01*
X160476490Y-104999627D01*
X160375131Y-105072518D01*
X160268313Y-105119127D01*
X160136870Y-105147517D01*
X159961635Y-105165748D01*
X159723442Y-105181881D01*
X159690334Y-105184019D01*
X159275169Y-105210931D01*
X159493781Y-104921049D01*
X159625877Y-104740298D01*
X159765695Y-104540206D01*
X159883899Y-104362796D01*
X159888252Y-104356000D01*
X160038563Y-104152577D01*
X160178317Y-104028131D01*
X160211806Y-104009489D01*
X160618817Y-103813816D01*
X160954966Y-103654375D01*
X161224907Y-103529107D01*
X161433292Y-103435953D01*
X161584774Y-103372857D01*
X161684005Y-103337759D01*
X161735639Y-103328601D01*
X161744020Y-103331754D01*
G37*
X161744020Y-103331754D02*
X161758319Y-103396166D01*
X161740606Y-103474299D01*
X161683737Y-103581206D01*
X161580101Y-103735862D01*
X161440794Y-103924208D01*
X161276913Y-104132183D01*
X161099554Y-104345729D01*
X160919813Y-104550787D01*
X160748786Y-104733296D01*
X160739501Y-104742757D01*
X160591558Y-104892394D01*
X160476490Y-104999627D01*
X160375131Y-105072518D01*
X160268313Y-105119127D01*
X160136870Y-105147517D01*
X159961635Y-105165748D01*
X159723442Y-105181881D01*
X159690334Y-105184019D01*
X159275169Y-105210931D01*
X159493781Y-104921049D01*
X159625877Y-104740298D01*
X159765695Y-104540206D01*
X159883899Y-104362796D01*
X159888252Y-104356000D01*
X160038563Y-104152577D01*
X160178317Y-104028131D01*
X160211806Y-104009489D01*
X160618817Y-103813816D01*
X160954966Y-103654375D01*
X161224907Y-103529107D01*
X161433292Y-103435953D01*
X161584774Y-103372857D01*
X161684005Y-103337759D01*
X161735639Y-103328601D01*
X161744020Y-103331754D01*
X153479156Y-79523878D02*
X153492024Y-79581573D01*
X153492024Y-79581573D02*
X153501672Y-79687013D01*
X153501672Y-79687013D02*
X153508436Y-79847792D01*
X153508436Y-79847792D02*
X153512653Y-80071502D01*
X153512653Y-80071502D02*
X153514662Y-80365738D01*
X153514662Y-80365738D02*
X153514879Y-80681084D01*
X153514879Y-80681084D02*
X153518431Y-81221634D01*
X153518431Y-81221634D02*
X153531379Y-81693979D01*
X153531379Y-81693979D02*
X153555131Y-82114202D01*
X153555131Y-82114202D02*
X153591095Y-82498384D01*
X153591095Y-82498384D02*
X153640678Y-82862610D01*
X153640678Y-82862610D02*
X153705288Y-83222962D01*
X153705288Y-83222962D02*
X153759842Y-83479873D01*
X153759842Y-83479873D02*
X153797185Y-83637942D01*
X153797185Y-83637942D02*
X153836653Y-83781205D01*
X153836653Y-83781205D02*
X153883743Y-83923069D01*
X153883743Y-83923069D02*
X153943956Y-84076935D01*
X153943956Y-84076935D02*
X154022791Y-84256207D01*
X154022791Y-84256207D02*
X154125744Y-84474289D01*
X154125744Y-84474289D02*
X154258317Y-84744584D01*
X154258317Y-84744584D02*
X154373490Y-84975642D01*
X154373490Y-84975642D02*
X154534993Y-85295660D01*
X154534993Y-85295660D02*
X154664576Y-85545642D01*
X154664576Y-85545642D02*
X154766112Y-85732282D01*
X154766112Y-85732282D02*
X154843473Y-85862272D01*
X154843473Y-85862272D02*
X154900532Y-85942307D01*
X154900532Y-85942307D02*
X154941161Y-85979079D01*
X154941161Y-85979079D02*
X154956461Y-85983334D01*
X154956461Y-85983334D02*
X155071829Y-85946240D01*
X155071829Y-85946240D02*
X155194625Y-85846564D01*
X155194625Y-85846564D02*
X155304523Y-85701713D01*
X155304523Y-85701713D02*
X155322765Y-85669600D01*
X155322765Y-85669600D02*
X155378975Y-85574602D01*
X155378975Y-85574602D02*
X155420123Y-85521627D01*
X155420123Y-85521627D02*
X155427432Y-85517667D01*
X155427432Y-85517667D02*
X155452708Y-85553469D01*
X155452708Y-85553469D02*
X155511667Y-85654112D01*
X155511667Y-85654112D02*
X155598682Y-85809447D01*
X155598682Y-85809447D02*
X155708123Y-86009329D01*
X155708123Y-86009329D02*
X155834363Y-86243610D01*
X155834363Y-86243610D02*
X155936389Y-86435239D01*
X155936389Y-86435239D02*
X156079359Y-86701223D01*
X156079359Y-86701223D02*
X156217785Y-86951613D01*
X156217785Y-86951613D02*
X156344230Y-87173501D01*
X156344230Y-87173501D02*
X156451258Y-87353978D01*
X156451258Y-87353978D02*
X156531434Y-87480135D01*
X156531434Y-87480135D02*
X156564323Y-87525322D01*
X156564323Y-87525322D02*
X156667339Y-87649217D01*
X156667339Y-87649217D02*
X156789374Y-87793909D01*
X156789374Y-87793909D02*
X156914625Y-87940912D01*
X156914625Y-87940912D02*
X157027291Y-88071736D01*
X157027291Y-88071736D02*
X157111568Y-88167895D01*
X157111568Y-88167895D02*
X157143280Y-88202675D01*
X157143280Y-88202675D02*
X157215079Y-88283008D01*
X157215079Y-88283008D02*
X157328054Y-88415435D01*
X157328054Y-88415435D02*
X157470621Y-88585831D01*
X157470621Y-88585831D02*
X157631196Y-88780072D01*
X157631196Y-88780072D02*
X157798196Y-88984033D01*
X157798196Y-88984033D02*
X157960036Y-89183591D01*
X157960036Y-89183591D02*
X158105132Y-89364620D01*
X158105132Y-89364620D02*
X158221901Y-89512997D01*
X158221901Y-89512997D02*
X158276549Y-89584475D01*
X158276549Y-89584475D02*
X158378289Y-89726811D01*
X158378289Y-89726811D02*
X158461236Y-89862054D01*
X158461236Y-89862054D02*
X158535135Y-90010523D01*
X158535135Y-90010523D02*
X158609731Y-90192540D01*
X158609731Y-90192540D02*
X158694769Y-90428423D01*
X158694769Y-90428423D02*
X158728857Y-90527627D01*
X158728857Y-90527627D02*
X158846463Y-90862601D01*
X158846463Y-90862601D02*
X158948464Y-91128508D01*
X158948464Y-91128508D02*
X159040842Y-91338151D01*
X159040842Y-91338151D02*
X159129583Y-91504329D01*
X159129583Y-91504329D02*
X159220672Y-91639844D01*
X159220672Y-91639844D02*
X159286497Y-91720431D01*
X159286497Y-91720431D02*
X159408030Y-91834581D01*
X159408030Y-91834581D02*
X159553048Y-91936485D01*
X159553048Y-91936485D02*
X159694364Y-92009503D01*
X159694364Y-92009503D02*
X159803654Y-92037000D01*
X159803654Y-92037000D02*
X159850514Y-92002122D01*
X159850514Y-92002122D02*
X159922802Y-91909044D01*
X159922802Y-91909044D02*
X160007693Y-91775101D01*
X160007693Y-91775101D02*
X160041381Y-91715651D01*
X160041381Y-91715651D02*
X160121980Y-91573581D01*
X160121980Y-91573581D02*
X160187187Y-91467563D01*
X160187187Y-91467563D02*
X160226954Y-91413551D01*
X160226954Y-91413551D02*
X160233698Y-91410254D01*
X160233698Y-91410254D02*
X160253774Y-91454585D01*
X160253774Y-91454585D02*
X160294588Y-91560550D01*
X160294588Y-91560550D02*
X160349187Y-91709768D01*
X160349187Y-91709768D02*
X160383302Y-91805686D01*
X160383302Y-91805686D02*
X160472066Y-92043911D01*
X160472066Y-92043911D02*
X160586046Y-92325123D01*
X160586046Y-92325123D02*
X160727852Y-92655211D01*
X160727852Y-92655211D02*
X160900094Y-93040069D01*
X160900094Y-93040069D02*
X161105383Y-93485589D01*
X161105383Y-93485589D02*
X161346327Y-93997663D01*
X161346327Y-93997663D02*
X161460317Y-94237209D01*
X161460317Y-94237209D02*
X161651129Y-94645886D01*
X161651129Y-94645886D02*
X161801217Y-94987440D01*
X161801217Y-94987440D02*
X161912953Y-95267622D01*
X161912953Y-95267622D02*
X161988709Y-95492188D01*
X161988709Y-95492188D02*
X162010219Y-95570709D01*
X162010219Y-95570709D02*
X162108244Y-96048566D01*
X162108244Y-96048566D02*
X162181206Y-96590297D01*
X162181206Y-96590297D02*
X162228800Y-97178806D01*
X162228800Y-97178806D02*
X162250722Y-97797003D01*
X162250722Y-97797003D02*
X162246666Y-98427793D01*
X162246666Y-98427793D02*
X162216327Y-99054082D01*
X162216327Y-99054082D02*
X162159400Y-99658779D01*
X162159400Y-99658779D02*
X162091653Y-100132541D01*
X162091653Y-100132541D02*
X162026521Y-100429852D01*
X162026521Y-100429852D02*
X161925447Y-100779440D01*
X161925447Y-100779440D02*
X161796142Y-101161035D01*
X161796142Y-101161035D02*
X161646320Y-101554369D01*
X161646320Y-101554369D02*
X161483692Y-101939174D01*
X161483692Y-101939174D02*
X161315972Y-102295182D01*
X161315972Y-102295182D02*
X161153880Y-102596972D01*
X161153880Y-102596972D02*
X161054957Y-102749579D01*
X161054957Y-102749579D02*
X160928973Y-102919190D01*
X160928973Y-102919190D02*
X160788041Y-103092257D01*
X160788041Y-103092257D02*
X160644270Y-103255232D01*
X160644270Y-103255232D02*
X160509772Y-103394570D01*
X160509772Y-103394570D02*
X160396656Y-103496721D01*
X160396656Y-103496721D02*
X160317033Y-103548140D01*
X160317033Y-103548140D02*
X160300433Y-103551667D01*
X160300433Y-103551667D02*
X160265966Y-103528255D01*
X160265966Y-103528255D02*
X160264471Y-103447578D01*
X160264471Y-103447578D02*
X160273012Y-103392917D01*
X160273012Y-103392917D02*
X160298580Y-103260053D01*
X160298580Y-103260053D02*
X160322595Y-103147601D01*
X160322595Y-103147601D02*
X160324646Y-103138917D01*
X160324646Y-103138917D02*
X160334368Y-103084418D01*
X160334368Y-103084418D02*
X160322526Y-103055998D01*
X160322526Y-103055998D02*
X160276025Y-103054615D01*
X160276025Y-103054615D02*
X160181766Y-103081226D01*
X160181766Y-103081226D02*
X160026652Y-103136789D01*
X160026652Y-103136789D02*
X159946750Y-103166544D01*
X159946750Y-103166544D02*
X159796957Y-103220315D01*
X159796957Y-103220315D02*
X159683048Y-103257034D01*
X159683048Y-103257034D02*
X159623356Y-103270954D01*
X159623356Y-103270954D02*
X159618667Y-103269382D01*
X159618667Y-103269382D02*
X159634822Y-103226028D01*
X159634822Y-103226028D02*
X159679593Y-103118230D01*
X159679593Y-103118230D02*
X159747439Y-102959016D01*
X159747439Y-102959016D02*
X159832819Y-102761414D01*
X159832819Y-102761414D02*
X159909456Y-102585742D01*
X159909456Y-102585742D02*
X160135168Y-102062643D01*
X160135168Y-102062643D02*
X160326134Y-101602099D01*
X160326134Y-101602099D02*
X160486973Y-101191709D01*
X160486973Y-101191709D02*
X160622302Y-100819070D01*
X160622302Y-100819070D02*
X160736742Y-100471777D01*
X160736742Y-100471777D02*
X160834911Y-100137430D01*
X160834911Y-100137430D02*
X160870541Y-100004981D01*
X160870541Y-100004981D02*
X160908096Y-99855291D01*
X160908096Y-99855291D02*
X160935782Y-99722382D01*
X160935782Y-99722382D02*
X160955056Y-99589049D01*
X160955056Y-99589049D02*
X160967369Y-99438085D01*
X160967369Y-99438085D02*
X160974177Y-99252283D01*
X160974177Y-99252283D02*
X160976933Y-99014436D01*
X160976933Y-99014436D02*
X160977153Y-98743233D01*
X160977153Y-98743233D02*
X160967965Y-98108471D01*
X160967965Y-98108471D02*
X160941964Y-97548593D01*
X160941964Y-97548593D02*
X160898329Y-97055339D01*
X160898329Y-97055339D02*
X160836240Y-96620450D01*
X160836240Y-96620450D02*
X160754878Y-96235668D01*
X160754878Y-96235668D02*
X160712681Y-96079834D01*
X160712681Y-96079834D02*
X160650732Y-95872791D01*
X160650732Y-95872791D02*
X160572847Y-95622102D01*
X160572847Y-95622102D02*
X160482476Y-95338033D01*
X160482476Y-95338033D02*
X160383069Y-95030846D01*
X160383069Y-95030846D02*
X160278076Y-94710804D01*
X160278076Y-94710804D02*
X160170949Y-94388173D01*
X160170949Y-94388173D02*
X160065138Y-94073216D01*
X160065138Y-94073216D02*
X159964092Y-93776195D01*
X159964092Y-93776195D02*
X159871262Y-93507377D01*
X159871262Y-93507377D02*
X159790099Y-93277023D01*
X159790099Y-93277023D02*
X159724054Y-93095398D01*
X159724054Y-93095398D02*
X159676576Y-92972765D01*
X159676576Y-92972765D02*
X159651115Y-92919389D01*
X159651115Y-92919389D02*
X159649829Y-92918200D01*
X159649829Y-92918200D02*
X159578687Y-92898402D01*
X159578687Y-92898402D02*
X159458087Y-92886158D01*
X159458087Y-92886158D02*
X159391772Y-92884315D01*
X159391772Y-92884315D02*
X159287608Y-92887569D01*
X159287608Y-92887569D02*
X159208295Y-92906372D01*
X159208295Y-92906372D02*
X159131951Y-92953112D01*
X159131951Y-92953112D02*
X159036691Y-93040178D01*
X159036691Y-93040178D02*
X158937810Y-93141325D01*
X158937810Y-93141325D02*
X158689575Y-93398982D01*
X158689575Y-93398982D02*
X158617214Y-93215408D01*
X158617214Y-93215408D02*
X158480495Y-92902275D01*
X158480495Y-92902275D02*
X158309401Y-92572492D01*
X158309401Y-92572492D02*
X158099281Y-92218964D01*
X158099281Y-92218964D02*
X157845485Y-91834601D01*
X157845485Y-91834601D02*
X157543363Y-91412308D01*
X157543363Y-91412308D02*
X157188264Y-90944993D01*
X157188264Y-90944993D02*
X156842619Y-90508714D01*
X156842619Y-90508714D02*
X156634867Y-90248210D01*
X156634867Y-90248210D02*
X156439105Y-89998368D01*
X156439105Y-89998368D02*
X156263288Y-89769681D01*
X156263288Y-89769681D02*
X156115372Y-89572639D01*
X156115372Y-89572639D02*
X156003315Y-89417736D01*
X156003315Y-89417736D02*
X155935072Y-89315464D01*
X155935072Y-89315464D02*
X155926405Y-89300480D01*
X155926405Y-89300480D02*
X155830037Y-89109309D01*
X155830037Y-89109309D02*
X155715984Y-88858987D01*
X155715984Y-88858987D02*
X155593098Y-88570764D01*
X155593098Y-88570764D02*
X155470232Y-88265891D01*
X155470232Y-88265891D02*
X155356237Y-87965615D01*
X155356237Y-87965615D02*
X155276418Y-87740167D01*
X155276418Y-87740167D02*
X155132603Y-87316834D01*
X155132603Y-87316834D02*
X154948228Y-87323108D01*
X154948228Y-87323108D02*
X154723439Y-87366259D01*
X154723439Y-87366259D02*
X154502889Y-87469439D01*
X154502889Y-87469439D02*
X154333402Y-87605643D01*
X154333402Y-87605643D02*
X154242140Y-87683645D01*
X154242140Y-87683645D02*
X154133575Y-87750454D01*
X154133575Y-87750454D02*
X154033923Y-87792752D01*
X154033923Y-87792752D02*
X153969404Y-87797220D01*
X153969404Y-87797220D02*
X153963901Y-87793345D01*
X153963901Y-87793345D02*
X153944564Y-87744667D01*
X153944564Y-87744667D02*
X153912453Y-87634614D01*
X153912453Y-87634614D02*
X153873619Y-87484359D01*
X153873619Y-87484359D02*
X153862467Y-87438397D01*
X153862467Y-87438397D02*
X153813087Y-87245625D01*
X153813087Y-87245625D02*
X153755873Y-87052112D01*
X153755873Y-87052112D02*
X153686183Y-86845538D01*
X153686183Y-86845538D02*
X153599379Y-86613583D01*
X153599379Y-86613583D02*
X153490820Y-86343925D01*
X153490820Y-86343925D02*
X153355866Y-86024244D01*
X153355866Y-86024244D02*
X153189876Y-85642219D01*
X153189876Y-85642219D02*
X153162746Y-85580441D01*
X153162746Y-85580441D02*
X152972030Y-85144151D01*
X152972030Y-85144151D02*
X152813981Y-84774660D01*
X152813981Y-84774660D02*
X152685833Y-84461870D01*
X152685833Y-84461870D02*
X152584819Y-84195684D01*
X152584819Y-84195684D02*
X152508172Y-83966006D01*
X152508172Y-83966006D02*
X152453126Y-83762739D01*
X152453126Y-83762739D02*
X152416915Y-83575785D01*
X152416915Y-83575785D02*
X152396771Y-83395047D01*
X152396771Y-83395047D02*
X152389928Y-83210429D01*
X152389928Y-83210429D02*
X152393621Y-83011834D01*
X152393621Y-83011834D02*
X152403798Y-82810553D01*
X152403798Y-82810553D02*
X152416920Y-82555392D01*
X152416920Y-82555392D02*
X152427393Y-82283893D01*
X152427393Y-82283893D02*
X152435076Y-82009622D01*
X152435076Y-82009622D02*
X152439828Y-81746146D01*
X152439828Y-81746146D02*
X152441510Y-81507032D01*
X152441510Y-81507032D02*
X152439981Y-81305847D01*
X152439981Y-81305847D02*
X152435101Y-81156156D01*
X152435101Y-81156156D02*
X152426729Y-81071528D01*
X152426729Y-81071528D02*
X152421913Y-81058408D01*
X152421913Y-81058408D02*
X152368715Y-81033078D01*
X152368715Y-81033078D02*
X152293450Y-81010307D01*
X152293450Y-81010307D02*
X152243152Y-81006904D01*
X152243152Y-81006904D02*
X152182550Y-81026223D01*
X152182550Y-81026223D02*
X152100361Y-81075738D01*
X152100361Y-81075738D02*
X151985302Y-81162920D01*
X151985302Y-81162920D02*
X151826088Y-81295240D01*
X151826088Y-81295240D02*
X151700870Y-81402691D01*
X151700870Y-81402691D02*
X151168031Y-81883078D01*
X151168031Y-81883078D02*
X150706572Y-82345568D01*
X150706572Y-82345568D02*
X150308698Y-82802269D01*
X150308698Y-82802269D02*
X149966618Y-83265289D01*
X149966618Y-83265289D02*
X149672539Y-83746738D01*
X149672539Y-83746738D02*
X149418669Y-84258724D01*
X149418669Y-84258724D02*
X149197215Y-84813356D01*
X149197215Y-84813356D02*
X149000385Y-85422743D01*
X149000385Y-85422743D02*
X148913519Y-85733931D01*
X148913519Y-85733931D02*
X148769023Y-86317888D01*
X148769023Y-86317888D02*
X148662785Y-86850352D01*
X148662785Y-86850352D02*
X148591117Y-87353375D01*
X148591117Y-87353375D02*
X148550333Y-87849010D01*
X148550333Y-87849010D02*
X148546358Y-87930667D01*
X148546358Y-87930667D02*
X148534445Y-88171652D01*
X148534445Y-88171652D02*
X148521089Y-88395100D01*
X148521089Y-88395100D02*
X148507620Y-88581573D01*
X148507620Y-88581573D02*
X148495367Y-88711632D01*
X148495367Y-88711632D02*
X148490598Y-88746600D01*
X148490598Y-88746600D02*
X148463834Y-88906367D01*
X148463834Y-88906367D02*
X148180373Y-88630999D01*
X148180373Y-88630999D02*
X148031517Y-88494888D01*
X148031517Y-88494888D02*
X147885198Y-88383373D01*
X147885198Y-88383373D02*
X147717047Y-88280491D01*
X147717047Y-88280491D02*
X147502698Y-88170281D01*
X147502698Y-88170281D02*
X147407790Y-88124917D01*
X147407790Y-88124917D02*
X147189050Y-88016724D01*
X147189050Y-88016724D02*
X147030503Y-87927495D01*
X147030503Y-87927495D02*
X146939065Y-87861395D01*
X146939065Y-87861395D02*
X146918667Y-87830267D01*
X146918667Y-87830267D02*
X146912729Y-87783748D01*
X146912729Y-87783748D02*
X146883984Y-87752679D01*
X146883984Y-87752679D02*
X146816033Y-87731175D01*
X146816033Y-87731175D02*
X146692479Y-87713352D01*
X146692479Y-87713352D02*
X146552082Y-87698725D01*
X146552082Y-87698725D02*
X146248997Y-87668844D01*
X146248997Y-87668844D02*
X146270529Y-88254839D01*
X146270529Y-88254839D02*
X146265971Y-88854221D01*
X146265971Y-88854221D02*
X146204744Y-89404724D01*
X146204744Y-89404724D02*
X146084857Y-89922109D01*
X146084857Y-89922109D02*
X146043402Y-90054455D01*
X146043402Y-90054455D02*
X145977428Y-90230679D01*
X145977428Y-90230679D02*
X145880263Y-90460407D01*
X145880263Y-90460407D02*
X145761692Y-90723055D01*
X145761692Y-90723055D02*
X145631501Y-90998037D01*
X145631501Y-90998037D02*
X145499476Y-91264767D01*
X145499476Y-91264767D02*
X145375404Y-91502661D01*
X145375404Y-91502661D02*
X145269069Y-91691134D01*
X145269069Y-91691134D02*
X145252145Y-91718905D01*
X145252145Y-91718905D02*
X145147633Y-91887643D01*
X145147633Y-91887643D02*
X144994509Y-91551634D01*
X144994509Y-91551634D02*
X144853247Y-91270124D01*
X144853247Y-91270124D02*
X144716787Y-91063697D01*
X144716787Y-91063697D02*
X144576078Y-90923913D01*
X144576078Y-90923913D02*
X144422068Y-90842330D01*
X144422068Y-90842330D02*
X144245705Y-90810505D01*
X144245705Y-90810505D02*
X144198613Y-90809334D01*
X144198613Y-90809334D02*
X144123932Y-90814913D01*
X144123932Y-90814913D02*
X144068403Y-90842464D01*
X144068403Y-90842464D02*
X144016100Y-90908210D01*
X144016100Y-90908210D02*
X143951098Y-91028370D01*
X143951098Y-91028370D02*
X143918083Y-91095084D01*
X143918083Y-91095084D02*
X143800632Y-91325803D01*
X143800632Y-91325803D02*
X143648653Y-91610845D01*
X143648653Y-91610845D02*
X143472030Y-91932450D01*
X143472030Y-91932450D02*
X143280647Y-92272856D01*
X143280647Y-92272856D02*
X143084387Y-92614304D01*
X143084387Y-92614304D02*
X142893135Y-92939033D01*
X142893135Y-92939033D02*
X142875605Y-92968334D01*
X142875605Y-92968334D02*
X142729994Y-93218052D01*
X142729994Y-93218052D02*
X142567118Y-93508116D01*
X142567118Y-93508116D02*
X142406757Y-93802736D01*
X142406757Y-93802736D02*
X142268693Y-94066127D01*
X142268693Y-94066127D02*
X142267228Y-94069000D01*
X142267228Y-94069000D02*
X142161234Y-94281167D01*
X142161234Y-94281167D02*
X142034693Y-94541337D01*
X142034693Y-94541337D02*
X141893315Y-94837139D01*
X141893315Y-94837139D02*
X141742809Y-95156205D01*
X141742809Y-95156205D02*
X141588883Y-95486164D01*
X141588883Y-95486164D02*
X141437245Y-95814648D01*
X141437245Y-95814648D02*
X141293605Y-96129287D01*
X141293605Y-96129287D02*
X141163670Y-96417711D01*
X141163670Y-96417711D02*
X141053151Y-96667552D01*
X141053151Y-96667552D02*
X140967756Y-96866439D01*
X140967756Y-96866439D02*
X140913193Y-97002003D01*
X140913193Y-97002003D02*
X140911547Y-97006435D01*
X140911547Y-97006435D02*
X140834805Y-97235314D01*
X140834805Y-97235314D02*
X140753432Y-97514577D01*
X140753432Y-97514577D02*
X140671034Y-97827904D01*
X140671034Y-97827904D02*
X140591217Y-98158973D01*
X140591217Y-98158973D02*
X140517586Y-98491464D01*
X140517586Y-98491464D02*
X140453747Y-98809055D01*
X140453747Y-98809055D02*
X140403305Y-99095427D01*
X140403305Y-99095427D02*
X140369866Y-99334257D01*
X140369866Y-99334257D02*
X140357036Y-99509225D01*
X140357036Y-99509225D02*
X140357000Y-99516598D01*
X140357000Y-99516598D02*
X140357000Y-99664115D01*
X140357000Y-99664115D02*
X140198250Y-99535347D01*
X140198250Y-99535347D02*
X140098513Y-99450667D01*
X140098513Y-99450667D02*
X139959144Y-99327450D01*
X139959144Y-99327450D02*
X139802095Y-99185259D01*
X139802095Y-99185259D02*
X139707325Y-99097873D01*
X139707325Y-99097873D02*
X139375151Y-98789167D01*
X139375151Y-98789167D02*
X139489136Y-98281167D01*
X139489136Y-98281167D02*
X139721715Y-97383376D01*
X139721715Y-97383376D02*
X140020049Y-96472776D01*
X140020049Y-96472776D02*
X140385964Y-95545354D01*
X140385964Y-95545354D02*
X140821285Y-94597098D01*
X140821285Y-94597098D02*
X141327837Y-93623994D01*
X141327837Y-93623994D02*
X141907446Y-92622031D01*
X141907446Y-92622031D02*
X142470660Y-91726631D01*
X142470660Y-91726631D02*
X142816731Y-91175646D01*
X142816731Y-91175646D02*
X143107159Y-90671293D01*
X143107159Y-90671293D02*
X143340624Y-90216217D01*
X143340624Y-90216217D02*
X143515805Y-89813063D01*
X143515805Y-89813063D02*
X143631383Y-89464475D01*
X143631383Y-89464475D02*
X143660240Y-89342809D01*
X143660240Y-89342809D02*
X143698623Y-89164888D01*
X143698623Y-89164888D02*
X143733794Y-89017141D01*
X143733794Y-89017141D02*
X143760695Y-88920100D01*
X143760695Y-88920100D02*
X143770481Y-88895195D01*
X143770481Y-88895195D02*
X143810141Y-88901795D01*
X143810141Y-88901795D02*
X143889938Y-88961902D01*
X143889938Y-88961902D02*
X143995372Y-89064346D01*
X143995372Y-89064346D02*
X144008957Y-89078846D01*
X144008957Y-89078846D02*
X144150027Y-89230827D01*
X144150027Y-89230827D02*
X144301294Y-89393764D01*
X144301294Y-89393764D02*
X144406982Y-89507584D01*
X144406982Y-89507584D02*
X144523099Y-89623162D01*
X144523099Y-89623162D02*
X144613833Y-89684854D01*
X144613833Y-89684854D02*
X144703468Y-89707341D01*
X144703468Y-89707341D02*
X144739596Y-89708667D01*
X144739596Y-89708667D02*
X144842822Y-89695739D01*
X144842822Y-89695739D02*
X144919850Y-89643406D01*
X144919850Y-89643406D02*
X144991179Y-89548923D01*
X144991179Y-89548923D02*
X145081271Y-89389317D01*
X145081271Y-89389317D02*
X145152167Y-89206263D01*
X145152167Y-89206263D02*
X145205720Y-88988684D01*
X145205720Y-88988684D02*
X145243786Y-88725500D01*
X145243786Y-88725500D02*
X145268220Y-88405631D01*
X145268220Y-88405631D02*
X145280875Y-88017998D01*
X145280875Y-88017998D02*
X145283316Y-87803667D01*
X145283316Y-87803667D02*
X145284775Y-87501734D01*
X145284775Y-87501734D02*
X145283927Y-87266741D01*
X145283927Y-87266741D02*
X145279135Y-87080966D01*
X145279135Y-87080966D02*
X145268766Y-86926684D01*
X145268766Y-86926684D02*
X145251186Y-86786172D01*
X145251186Y-86786172D02*
X145224760Y-86641707D01*
X145224760Y-86641707D02*
X145187854Y-86475565D01*
X145187854Y-86475565D02*
X145143797Y-86290648D01*
X145143797Y-86290648D02*
X145094005Y-86076560D01*
X145094005Y-86076560D02*
X145054552Y-85892968D01*
X145054552Y-85892968D02*
X145028417Y-85754907D01*
X145028417Y-85754907D02*
X145018579Y-85677413D01*
X145018579Y-85677413D02*
X145020134Y-85666422D01*
X145020134Y-85666422D02*
X145072148Y-85664463D01*
X145072148Y-85664463D02*
X145185660Y-85685445D01*
X145185660Y-85685445D02*
X145342289Y-85724239D01*
X145342289Y-85724239D02*
X145523654Y-85775719D01*
X145523654Y-85775719D02*
X145711375Y-85834757D01*
X145711375Y-85834757D02*
X145887071Y-85896226D01*
X145887071Y-85896226D02*
X145992103Y-85937553D01*
X145992103Y-85937553D02*
X146268566Y-86075648D01*
X146268566Y-86075648D02*
X146568588Y-86263184D01*
X146568588Y-86263184D02*
X146865277Y-86481611D01*
X146865277Y-86481611D02*
X147131739Y-86712378D01*
X147131739Y-86712378D02*
X147172042Y-86751448D01*
X147172042Y-86751448D02*
X147315770Y-86885181D01*
X147315770Y-86885181D02*
X147423353Y-86963202D01*
X147423353Y-86963202D02*
X147511097Y-86996261D01*
X147511097Y-86996261D02*
X147548045Y-86999333D01*
X147548045Y-86999333D02*
X147673066Y-86999333D01*
X147673066Y-86999333D02*
X147697640Y-86628917D01*
X147697640Y-86628917D02*
X147733206Y-86146457D01*
X147733206Y-86146457D02*
X147772484Y-85735281D01*
X147772484Y-85735281D02*
X147818349Y-85382013D01*
X147818349Y-85382013D02*
X147873678Y-85073274D01*
X147873678Y-85073274D02*
X147941344Y-84795688D01*
X147941344Y-84795688D02*
X148024223Y-84535875D01*
X148024223Y-84535875D02*
X148125189Y-84280458D01*
X148125189Y-84280458D02*
X148247118Y-84016061D01*
X148247118Y-84016061D02*
X148268531Y-83972500D01*
X148268531Y-83972500D02*
X148624336Y-83331926D01*
X148624336Y-83331926D02*
X149037907Y-82735379D01*
X149037907Y-82735379D02*
X149519975Y-82168144D01*
X149519975Y-82168144D02*
X149776167Y-81904609D01*
X149776167Y-81904609D02*
X150156730Y-81542307D01*
X150156730Y-81542307D02*
X150521248Y-81227001D01*
X150521248Y-81227001D02*
X150896468Y-80937540D01*
X150896468Y-80937540D02*
X151309135Y-80652775D01*
X151309135Y-80652775D02*
X151575334Y-80481961D01*
X151575334Y-80481961D02*
X151744907Y-80379722D01*
X151744907Y-80379722D02*
X151952406Y-80261165D01*
X151952406Y-80261165D02*
X152185236Y-80132803D01*
X152185236Y-80132803D02*
X152430800Y-80001146D01*
X152430800Y-80001146D02*
X152676499Y-79872707D01*
X152676499Y-79872707D02*
X152909738Y-79753997D01*
X152909738Y-79753997D02*
X153117919Y-79651528D01*
X153117919Y-79651528D02*
X153288446Y-79571810D01*
X153288446Y-79571810D02*
X153408722Y-79521357D01*
X153408722Y-79521357D02*
X153462730Y-79506334D01*
X153462730Y-79506334D02*
X153479156Y-79523878D01*
X153479156Y-79523878D02*
X153479156Y-79523878D01*
G36*
X153479156Y-79523878D02*
G01*
X153492024Y-79581573D01*
X153501672Y-79687013D01*
X153508436Y-79847792D01*
X153512653Y-80071502D01*
X153514662Y-80365738D01*
X153514879Y-80681084D01*
X153518431Y-81221634D01*
X153531379Y-81693979D01*
X153555131Y-82114202D01*
X153591095Y-82498384D01*
X153640678Y-82862610D01*
X153705288Y-83222962D01*
X153759842Y-83479873D01*
X153797185Y-83637942D01*
X153836653Y-83781205D01*
X153883743Y-83923069D01*
X153943956Y-84076935D01*
X154022791Y-84256207D01*
X154125744Y-84474289D01*
X154258317Y-84744584D01*
X154373490Y-84975642D01*
X154534993Y-85295660D01*
X154664576Y-85545642D01*
X154766112Y-85732282D01*
X154843473Y-85862272D01*
X154900532Y-85942307D01*
X154941161Y-85979079D01*
X154956461Y-85983334D01*
X155071829Y-85946240D01*
X155194625Y-85846564D01*
X155304523Y-85701713D01*
X155322765Y-85669600D01*
X155378975Y-85574602D01*
X155420123Y-85521627D01*
X155427432Y-85517667D01*
X155452708Y-85553469D01*
X155511667Y-85654112D01*
X155598682Y-85809447D01*
X155708123Y-86009329D01*
X155834363Y-86243610D01*
X155936389Y-86435239D01*
X156079359Y-86701223D01*
X156217785Y-86951613D01*
X156344230Y-87173501D01*
X156451258Y-87353978D01*
X156531434Y-87480135D01*
X156564323Y-87525322D01*
X156667339Y-87649217D01*
X156789374Y-87793909D01*
X156914625Y-87940912D01*
X157027291Y-88071736D01*
X157111568Y-88167895D01*
X157143280Y-88202675D01*
X157215079Y-88283008D01*
X157328054Y-88415435D01*
X157470621Y-88585831D01*
X157631196Y-88780072D01*
X157798196Y-88984033D01*
X157960036Y-89183591D01*
X158105132Y-89364620D01*
X158221901Y-89512997D01*
X158276549Y-89584475D01*
X158378289Y-89726811D01*
X158461236Y-89862054D01*
X158535135Y-90010523D01*
X158609731Y-90192540D01*
X158694769Y-90428423D01*
X158728857Y-90527627D01*
X158846463Y-90862601D01*
X158948464Y-91128508D01*
X159040842Y-91338151D01*
X159129583Y-91504329D01*
X159220672Y-91639844D01*
X159286497Y-91720431D01*
X159408030Y-91834581D01*
X159553048Y-91936485D01*
X159694364Y-92009503D01*
X159803654Y-92037000D01*
X159850514Y-92002122D01*
X159922802Y-91909044D01*
X160007693Y-91775101D01*
X160041381Y-91715651D01*
X160121980Y-91573581D01*
X160187187Y-91467563D01*
X160226954Y-91413551D01*
X160233698Y-91410254D01*
X160253774Y-91454585D01*
X160294588Y-91560550D01*
X160349187Y-91709768D01*
X160383302Y-91805686D01*
X160472066Y-92043911D01*
X160586046Y-92325123D01*
X160727852Y-92655211D01*
X160900094Y-93040069D01*
X161105383Y-93485589D01*
X161346327Y-93997663D01*
X161460317Y-94237209D01*
X161651129Y-94645886D01*
X161801217Y-94987440D01*
X161912953Y-95267622D01*
X161988709Y-95492188D01*
X162010219Y-95570709D01*
X162108244Y-96048566D01*
X162181206Y-96590297D01*
X162228800Y-97178806D01*
X162250722Y-97797003D01*
X162246666Y-98427793D01*
X162216327Y-99054082D01*
X162159400Y-99658779D01*
X162091653Y-100132541D01*
X162026521Y-100429852D01*
X161925447Y-100779440D01*
X161796142Y-101161035D01*
X161646320Y-101554369D01*
X161483692Y-101939174D01*
X161315972Y-102295182D01*
X161153880Y-102596972D01*
X161054957Y-102749579D01*
X160928973Y-102919190D01*
X160788041Y-103092257D01*
X160644270Y-103255232D01*
X160509772Y-103394570D01*
X160396656Y-103496721D01*
X160317033Y-103548140D01*
X160300433Y-103551667D01*
X160265966Y-103528255D01*
X160264471Y-103447578D01*
X160273012Y-103392917D01*
X160298580Y-103260053D01*
X160322595Y-103147601D01*
X160324646Y-103138917D01*
X160334368Y-103084418D01*
X160322526Y-103055998D01*
X160276025Y-103054615D01*
X160181766Y-103081226D01*
X160026652Y-103136789D01*
X159946750Y-103166544D01*
X159796957Y-103220315D01*
X159683048Y-103257034D01*
X159623356Y-103270954D01*
X159618667Y-103269382D01*
X159634822Y-103226028D01*
X159679593Y-103118230D01*
X159747439Y-102959016D01*
X159832819Y-102761414D01*
X159909456Y-102585742D01*
X160135168Y-102062643D01*
X160326134Y-101602099D01*
X160486973Y-101191709D01*
X160622302Y-100819070D01*
X160736742Y-100471777D01*
X160834911Y-100137430D01*
X160870541Y-100004981D01*
X160908096Y-99855291D01*
X160935782Y-99722382D01*
X160955056Y-99589049D01*
X160967369Y-99438085D01*
X160974177Y-99252283D01*
X160976933Y-99014436D01*
X160977153Y-98743233D01*
X160967965Y-98108471D01*
X160941964Y-97548593D01*
X160898329Y-97055339D01*
X160836240Y-96620450D01*
X160754878Y-96235668D01*
X160712681Y-96079834D01*
X160650732Y-95872791D01*
X160572847Y-95622102D01*
X160482476Y-95338033D01*
X160383069Y-95030846D01*
X160278076Y-94710804D01*
X160170949Y-94388173D01*
X160065138Y-94073216D01*
X159964092Y-93776195D01*
X159871262Y-93507377D01*
X159790099Y-93277023D01*
X159724054Y-93095398D01*
X159676576Y-92972765D01*
X159651115Y-92919389D01*
X159649829Y-92918200D01*
X159578687Y-92898402D01*
X159458087Y-92886158D01*
X159391772Y-92884315D01*
X159287608Y-92887569D01*
X159208295Y-92906372D01*
X159131951Y-92953112D01*
X159036691Y-93040178D01*
X158937810Y-93141325D01*
X158689575Y-93398982D01*
X158617214Y-93215408D01*
X158480495Y-92902275D01*
X158309401Y-92572492D01*
X158099281Y-92218964D01*
X157845485Y-91834601D01*
X157543363Y-91412308D01*
X157188264Y-90944993D01*
X156842619Y-90508714D01*
X156634867Y-90248210D01*
X156439105Y-89998368D01*
X156263288Y-89769681D01*
X156115372Y-89572639D01*
X156003315Y-89417736D01*
X155935072Y-89315464D01*
X155926405Y-89300480D01*
X155830037Y-89109309D01*
X155715984Y-88858987D01*
X155593098Y-88570764D01*
X155470232Y-88265891D01*
X155356237Y-87965615D01*
X155276418Y-87740167D01*
X155132603Y-87316834D01*
X154948228Y-87323108D01*
X154723439Y-87366259D01*
X154502889Y-87469439D01*
X154333402Y-87605643D01*
X154242140Y-87683645D01*
X154133575Y-87750454D01*
X154033923Y-87792752D01*
X153969404Y-87797220D01*
X153963901Y-87793345D01*
X153944564Y-87744667D01*
X153912453Y-87634614D01*
X153873619Y-87484359D01*
X153862467Y-87438397D01*
X153813087Y-87245625D01*
X153755873Y-87052112D01*
X153686183Y-86845538D01*
X153599379Y-86613583D01*
X153490820Y-86343925D01*
X153355866Y-86024244D01*
X153189876Y-85642219D01*
X153162746Y-85580441D01*
X152972030Y-85144151D01*
X152813981Y-84774660D01*
X152685833Y-84461870D01*
X152584819Y-84195684D01*
X152508172Y-83966006D01*
X152453126Y-83762739D01*
X152416915Y-83575785D01*
X152396771Y-83395047D01*
X152389928Y-83210429D01*
X152393621Y-83011834D01*
X152403798Y-82810553D01*
X152416920Y-82555392D01*
X152427393Y-82283893D01*
X152435076Y-82009622D01*
X152439828Y-81746146D01*
X152441510Y-81507032D01*
X152439981Y-81305847D01*
X152435101Y-81156156D01*
X152426729Y-81071528D01*
X152421913Y-81058408D01*
X152368715Y-81033078D01*
X152293450Y-81010307D01*
X152243152Y-81006904D01*
X152182550Y-81026223D01*
X152100361Y-81075738D01*
X151985302Y-81162920D01*
X151826088Y-81295240D01*
X151700870Y-81402691D01*
X151168031Y-81883078D01*
X150706572Y-82345568D01*
X150308698Y-82802269D01*
X149966618Y-83265289D01*
X149672539Y-83746738D01*
X149418669Y-84258724D01*
X149197215Y-84813356D01*
X149000385Y-85422743D01*
X148913519Y-85733931D01*
X148769023Y-86317888D01*
X148662785Y-86850352D01*
X148591117Y-87353375D01*
X148550333Y-87849010D01*
X148546358Y-87930667D01*
X148534445Y-88171652D01*
X148521089Y-88395100D01*
X148507620Y-88581573D01*
X148495367Y-88711632D01*
X148490598Y-88746600D01*
X148463834Y-88906367D01*
X148180373Y-88630999D01*
X148031517Y-88494888D01*
X147885198Y-88383373D01*
X147717047Y-88280491D01*
X147502698Y-88170281D01*
X147407790Y-88124917D01*
X147189050Y-88016724D01*
X147030503Y-87927495D01*
X146939065Y-87861395D01*
X146918667Y-87830267D01*
X146912729Y-87783748D01*
X146883984Y-87752679D01*
X146816033Y-87731175D01*
X146692479Y-87713352D01*
X146552082Y-87698725D01*
X146248997Y-87668844D01*
X146270529Y-88254839D01*
X146265971Y-88854221D01*
X146204744Y-89404724D01*
X146084857Y-89922109D01*
X146043402Y-90054455D01*
X145977428Y-90230679D01*
X145880263Y-90460407D01*
X145761692Y-90723055D01*
X145631501Y-90998037D01*
X145499476Y-91264767D01*
X145375404Y-91502661D01*
X145269069Y-91691134D01*
X145252145Y-91718905D01*
X145147633Y-91887643D01*
X144994509Y-91551634D01*
X144853247Y-91270124D01*
X144716787Y-91063697D01*
X144576078Y-90923913D01*
X144422068Y-90842330D01*
X144245705Y-90810505D01*
X144198613Y-90809334D01*
X144123932Y-90814913D01*
X144068403Y-90842464D01*
X144016100Y-90908210D01*
X143951098Y-91028370D01*
X143918083Y-91095084D01*
X143800632Y-91325803D01*
X143648653Y-91610845D01*
X143472030Y-91932450D01*
X143280647Y-92272856D01*
X143084387Y-92614304D01*
X142893135Y-92939033D01*
X142875605Y-92968334D01*
X142729994Y-93218052D01*
X142567118Y-93508116D01*
X142406757Y-93802736D01*
X142268693Y-94066127D01*
X142267228Y-94069000D01*
X142161234Y-94281167D01*
X142034693Y-94541337D01*
X141893315Y-94837139D01*
X141742809Y-95156205D01*
X141588883Y-95486164D01*
X141437245Y-95814648D01*
X141293605Y-96129287D01*
X141163670Y-96417711D01*
X141053151Y-96667552D01*
X140967756Y-96866439D01*
X140913193Y-97002003D01*
X140911547Y-97006435D01*
X140834805Y-97235314D01*
X140753432Y-97514577D01*
X140671034Y-97827904D01*
X140591217Y-98158973D01*
X140517586Y-98491464D01*
X140453747Y-98809055D01*
X140403305Y-99095427D01*
X140369866Y-99334257D01*
X140357036Y-99509225D01*
X140357000Y-99516598D01*
X140357000Y-99664115D01*
X140198250Y-99535347D01*
X140098513Y-99450667D01*
X139959144Y-99327450D01*
X139802095Y-99185259D01*
X139707325Y-99097873D01*
X139375151Y-98789167D01*
X139489136Y-98281167D01*
X139721715Y-97383376D01*
X140020049Y-96472776D01*
X140385964Y-95545354D01*
X140821285Y-94597098D01*
X141327837Y-93623994D01*
X141907446Y-92622031D01*
X142470660Y-91726631D01*
X142816731Y-91175646D01*
X143107159Y-90671293D01*
X143340624Y-90216217D01*
X143515805Y-89813063D01*
X143631383Y-89464475D01*
X143660240Y-89342809D01*
X143698623Y-89164888D01*
X143733794Y-89017141D01*
X143760695Y-88920100D01*
X143770481Y-88895195D01*
X143810141Y-88901795D01*
X143889938Y-88961902D01*
X143995372Y-89064346D01*
X144008957Y-89078846D01*
X144150027Y-89230827D01*
X144301294Y-89393764D01*
X144406982Y-89507584D01*
X144523099Y-89623162D01*
X144613833Y-89684854D01*
X144703468Y-89707341D01*
X144739596Y-89708667D01*
X144842822Y-89695739D01*
X144919850Y-89643406D01*
X144991179Y-89548923D01*
X145081271Y-89389317D01*
X145152167Y-89206263D01*
X145205720Y-88988684D01*
X145243786Y-88725500D01*
X145268220Y-88405631D01*
X145280875Y-88017998D01*
X145283316Y-87803667D01*
X145284775Y-87501734D01*
X145283927Y-87266741D01*
X145279135Y-87080966D01*
X145268766Y-86926684D01*
X145251186Y-86786172D01*
X145224760Y-86641707D01*
X145187854Y-86475565D01*
X145143797Y-86290648D01*
X145094005Y-86076560D01*
X145054552Y-85892968D01*
X145028417Y-85754907D01*
X145018579Y-85677413D01*
X145020134Y-85666422D01*
X145072148Y-85664463D01*
X145185660Y-85685445D01*
X145342289Y-85724239D01*
X145523654Y-85775719D01*
X145711375Y-85834757D01*
X145887071Y-85896226D01*
X145992103Y-85937553D01*
X146268566Y-86075648D01*
X146568588Y-86263184D01*
X146865277Y-86481611D01*
X147131739Y-86712378D01*
X147172042Y-86751448D01*
X147315770Y-86885181D01*
X147423353Y-86963202D01*
X147511097Y-86996261D01*
X147548045Y-86999333D01*
X147673066Y-86999333D01*
X147697640Y-86628917D01*
X147733206Y-86146457D01*
X147772484Y-85735281D01*
X147818349Y-85382013D01*
X147873678Y-85073274D01*
X147941344Y-84795688D01*
X148024223Y-84535875D01*
X148125189Y-84280458D01*
X148247118Y-84016061D01*
X148268531Y-83972500D01*
X148624336Y-83331926D01*
X149037907Y-82735379D01*
X149519975Y-82168144D01*
X149776167Y-81904609D01*
X150156730Y-81542307D01*
X150521248Y-81227001D01*
X150896468Y-80937540D01*
X151309135Y-80652775D01*
X151575334Y-80481961D01*
X151744907Y-80379722D01*
X151952406Y-80261165D01*
X152185236Y-80132803D01*
X152430800Y-80001146D01*
X152676499Y-79872707D01*
X152909738Y-79753997D01*
X153117919Y-79651528D01*
X153288446Y-79571810D01*
X153408722Y-79521357D01*
X153462730Y-79506334D01*
X153479156Y-79523878D01*
G37*
X153479156Y-79523878D02*
X153492024Y-79581573D01*
X153501672Y-79687013D01*
X153508436Y-79847792D01*
X153512653Y-80071502D01*
X153514662Y-80365738D01*
X153514879Y-80681084D01*
X153518431Y-81221634D01*
X153531379Y-81693979D01*
X153555131Y-82114202D01*
X153591095Y-82498384D01*
X153640678Y-82862610D01*
X153705288Y-83222962D01*
X153759842Y-83479873D01*
X153797185Y-83637942D01*
X153836653Y-83781205D01*
X153883743Y-83923069D01*
X153943956Y-84076935D01*
X154022791Y-84256207D01*
X154125744Y-84474289D01*
X154258317Y-84744584D01*
X154373490Y-84975642D01*
X154534993Y-85295660D01*
X154664576Y-85545642D01*
X154766112Y-85732282D01*
X154843473Y-85862272D01*
X154900532Y-85942307D01*
X154941161Y-85979079D01*
X154956461Y-85983334D01*
X155071829Y-85946240D01*
X155194625Y-85846564D01*
X155304523Y-85701713D01*
X155322765Y-85669600D01*
X155378975Y-85574602D01*
X155420123Y-85521627D01*
X155427432Y-85517667D01*
X155452708Y-85553469D01*
X155511667Y-85654112D01*
X155598682Y-85809447D01*
X155708123Y-86009329D01*
X155834363Y-86243610D01*
X155936389Y-86435239D01*
X156079359Y-86701223D01*
X156217785Y-86951613D01*
X156344230Y-87173501D01*
X156451258Y-87353978D01*
X156531434Y-87480135D01*
X156564323Y-87525322D01*
X156667339Y-87649217D01*
X156789374Y-87793909D01*
X156914625Y-87940912D01*
X157027291Y-88071736D01*
X157111568Y-88167895D01*
X157143280Y-88202675D01*
X157215079Y-88283008D01*
X157328054Y-88415435D01*
X157470621Y-88585831D01*
X157631196Y-88780072D01*
X157798196Y-88984033D01*
X157960036Y-89183591D01*
X158105132Y-89364620D01*
X158221901Y-89512997D01*
X158276549Y-89584475D01*
X158378289Y-89726811D01*
X158461236Y-89862054D01*
X158535135Y-90010523D01*
X158609731Y-90192540D01*
X158694769Y-90428423D01*
X158728857Y-90527627D01*
X158846463Y-90862601D01*
X158948464Y-91128508D01*
X159040842Y-91338151D01*
X159129583Y-91504329D01*
X159220672Y-91639844D01*
X159286497Y-91720431D01*
X159408030Y-91834581D01*
X159553048Y-91936485D01*
X159694364Y-92009503D01*
X159803654Y-92037000D01*
X159850514Y-92002122D01*
X159922802Y-91909044D01*
X160007693Y-91775101D01*
X160041381Y-91715651D01*
X160121980Y-91573581D01*
X160187187Y-91467563D01*
X160226954Y-91413551D01*
X160233698Y-91410254D01*
X160253774Y-91454585D01*
X160294588Y-91560550D01*
X160349187Y-91709768D01*
X160383302Y-91805686D01*
X160472066Y-92043911D01*
X160586046Y-92325123D01*
X160727852Y-92655211D01*
X160900094Y-93040069D01*
X161105383Y-93485589D01*
X161346327Y-93997663D01*
X161460317Y-94237209D01*
X161651129Y-94645886D01*
X161801217Y-94987440D01*
X161912953Y-95267622D01*
X161988709Y-95492188D01*
X162010219Y-95570709D01*
X162108244Y-96048566D01*
X162181206Y-96590297D01*
X162228800Y-97178806D01*
X162250722Y-97797003D01*
X162246666Y-98427793D01*
X162216327Y-99054082D01*
X162159400Y-99658779D01*
X162091653Y-100132541D01*
X162026521Y-100429852D01*
X161925447Y-100779440D01*
X161796142Y-101161035D01*
X161646320Y-101554369D01*
X161483692Y-101939174D01*
X161315972Y-102295182D01*
X161153880Y-102596972D01*
X161054957Y-102749579D01*
X160928973Y-102919190D01*
X160788041Y-103092257D01*
X160644270Y-103255232D01*
X160509772Y-103394570D01*
X160396656Y-103496721D01*
X160317033Y-103548140D01*
X160300433Y-103551667D01*
X160265966Y-103528255D01*
X160264471Y-103447578D01*
X160273012Y-103392917D01*
X160298580Y-103260053D01*
X160322595Y-103147601D01*
X160324646Y-103138917D01*
X160334368Y-103084418D01*
X160322526Y-103055998D01*
X160276025Y-103054615D01*
X160181766Y-103081226D01*
X160026652Y-103136789D01*
X159946750Y-103166544D01*
X159796957Y-103220315D01*
X159683048Y-103257034D01*
X159623356Y-103270954D01*
X159618667Y-103269382D01*
X159634822Y-103226028D01*
X159679593Y-103118230D01*
X159747439Y-102959016D01*
X159832819Y-102761414D01*
X159909456Y-102585742D01*
X160135168Y-102062643D01*
X160326134Y-101602099D01*
X160486973Y-101191709D01*
X160622302Y-100819070D01*
X160736742Y-100471777D01*
X160834911Y-100137430D01*
X160870541Y-100004981D01*
X160908096Y-99855291D01*
X160935782Y-99722382D01*
X160955056Y-99589049D01*
X160967369Y-99438085D01*
X160974177Y-99252283D01*
X160976933Y-99014436D01*
X160977153Y-98743233D01*
X160967965Y-98108471D01*
X160941964Y-97548593D01*
X160898329Y-97055339D01*
X160836240Y-96620450D01*
X160754878Y-96235668D01*
X160712681Y-96079834D01*
X160650732Y-95872791D01*
X160572847Y-95622102D01*
X160482476Y-95338033D01*
X160383069Y-95030846D01*
X160278076Y-94710804D01*
X160170949Y-94388173D01*
X160065138Y-94073216D01*
X159964092Y-93776195D01*
X159871262Y-93507377D01*
X159790099Y-93277023D01*
X159724054Y-93095398D01*
X159676576Y-92972765D01*
X159651115Y-92919389D01*
X159649829Y-92918200D01*
X159578687Y-92898402D01*
X159458087Y-92886158D01*
X159391772Y-92884315D01*
X159287608Y-92887569D01*
X159208295Y-92906372D01*
X159131951Y-92953112D01*
X159036691Y-93040178D01*
X158937810Y-93141325D01*
X158689575Y-93398982D01*
X158617214Y-93215408D01*
X158480495Y-92902275D01*
X158309401Y-92572492D01*
X158099281Y-92218964D01*
X157845485Y-91834601D01*
X157543363Y-91412308D01*
X157188264Y-90944993D01*
X156842619Y-90508714D01*
X156634867Y-90248210D01*
X156439105Y-89998368D01*
X156263288Y-89769681D01*
X156115372Y-89572639D01*
X156003315Y-89417736D01*
X155935072Y-89315464D01*
X155926405Y-89300480D01*
X155830037Y-89109309D01*
X155715984Y-88858987D01*
X155593098Y-88570764D01*
X155470232Y-88265891D01*
X155356237Y-87965615D01*
X155276418Y-87740167D01*
X155132603Y-87316834D01*
X154948228Y-87323108D01*
X154723439Y-87366259D01*
X154502889Y-87469439D01*
X154333402Y-87605643D01*
X154242140Y-87683645D01*
X154133575Y-87750454D01*
X154033923Y-87792752D01*
X153969404Y-87797220D01*
X153963901Y-87793345D01*
X153944564Y-87744667D01*
X153912453Y-87634614D01*
X153873619Y-87484359D01*
X153862467Y-87438397D01*
X153813087Y-87245625D01*
X153755873Y-87052112D01*
X153686183Y-86845538D01*
X153599379Y-86613583D01*
X153490820Y-86343925D01*
X153355866Y-86024244D01*
X153189876Y-85642219D01*
X153162746Y-85580441D01*
X152972030Y-85144151D01*
X152813981Y-84774660D01*
X152685833Y-84461870D01*
X152584819Y-84195684D01*
X152508172Y-83966006D01*
X152453126Y-83762739D01*
X152416915Y-83575785D01*
X152396771Y-83395047D01*
X152389928Y-83210429D01*
X152393621Y-83011834D01*
X152403798Y-82810553D01*
X152416920Y-82555392D01*
X152427393Y-82283893D01*
X152435076Y-82009622D01*
X152439828Y-81746146D01*
X152441510Y-81507032D01*
X152439981Y-81305847D01*
X152435101Y-81156156D01*
X152426729Y-81071528D01*
X152421913Y-81058408D01*
X152368715Y-81033078D01*
X152293450Y-81010307D01*
X152243152Y-81006904D01*
X152182550Y-81026223D01*
X152100361Y-81075738D01*
X151985302Y-81162920D01*
X151826088Y-81295240D01*
X151700870Y-81402691D01*
X151168031Y-81883078D01*
X150706572Y-82345568D01*
X150308698Y-82802269D01*
X149966618Y-83265289D01*
X149672539Y-83746738D01*
X149418669Y-84258724D01*
X149197215Y-84813356D01*
X149000385Y-85422743D01*
X148913519Y-85733931D01*
X148769023Y-86317888D01*
X148662785Y-86850352D01*
X148591117Y-87353375D01*
X148550333Y-87849010D01*
X148546358Y-87930667D01*
X148534445Y-88171652D01*
X148521089Y-88395100D01*
X148507620Y-88581573D01*
X148495367Y-88711632D01*
X148490598Y-88746600D01*
X148463834Y-88906367D01*
X148180373Y-88630999D01*
X148031517Y-88494888D01*
X147885198Y-88383373D01*
X147717047Y-88280491D01*
X147502698Y-88170281D01*
X147407790Y-88124917D01*
X147189050Y-88016724D01*
X147030503Y-87927495D01*
X146939065Y-87861395D01*
X146918667Y-87830267D01*
X146912729Y-87783748D01*
X146883984Y-87752679D01*
X146816033Y-87731175D01*
X146692479Y-87713352D01*
X146552082Y-87698725D01*
X146248997Y-87668844D01*
X146270529Y-88254839D01*
X146265971Y-88854221D01*
X146204744Y-89404724D01*
X146084857Y-89922109D01*
X146043402Y-90054455D01*
X145977428Y-90230679D01*
X145880263Y-90460407D01*
X145761692Y-90723055D01*
X145631501Y-90998037D01*
X145499476Y-91264767D01*
X145375404Y-91502661D01*
X145269069Y-91691134D01*
X145252145Y-91718905D01*
X145147633Y-91887643D01*
X144994509Y-91551634D01*
X144853247Y-91270124D01*
X144716787Y-91063697D01*
X144576078Y-90923913D01*
X144422068Y-90842330D01*
X144245705Y-90810505D01*
X144198613Y-90809334D01*
X144123932Y-90814913D01*
X144068403Y-90842464D01*
X144016100Y-90908210D01*
X143951098Y-91028370D01*
X143918083Y-91095084D01*
X143800632Y-91325803D01*
X143648653Y-91610845D01*
X143472030Y-91932450D01*
X143280647Y-92272856D01*
X143084387Y-92614304D01*
X142893135Y-92939033D01*
X142875605Y-92968334D01*
X142729994Y-93218052D01*
X142567118Y-93508116D01*
X142406757Y-93802736D01*
X142268693Y-94066127D01*
X142267228Y-94069000D01*
X142161234Y-94281167D01*
X142034693Y-94541337D01*
X141893315Y-94837139D01*
X141742809Y-95156205D01*
X141588883Y-95486164D01*
X141437245Y-95814648D01*
X141293605Y-96129287D01*
X141163670Y-96417711D01*
X141053151Y-96667552D01*
X140967756Y-96866439D01*
X140913193Y-97002003D01*
X140911547Y-97006435D01*
X140834805Y-97235314D01*
X140753432Y-97514577D01*
X140671034Y-97827904D01*
X140591217Y-98158973D01*
X140517586Y-98491464D01*
X140453747Y-98809055D01*
X140403305Y-99095427D01*
X140369866Y-99334257D01*
X140357036Y-99509225D01*
X140357000Y-99516598D01*
X140357000Y-99664115D01*
X140198250Y-99535347D01*
X140098513Y-99450667D01*
X139959144Y-99327450D01*
X139802095Y-99185259D01*
X139707325Y-99097873D01*
X139375151Y-98789167D01*
X139489136Y-98281167D01*
X139721715Y-97383376D01*
X140020049Y-96472776D01*
X140385964Y-95545354D01*
X140821285Y-94597098D01*
X141327837Y-93623994D01*
X141907446Y-92622031D01*
X142470660Y-91726631D01*
X142816731Y-91175646D01*
X143107159Y-90671293D01*
X143340624Y-90216217D01*
X143515805Y-89813063D01*
X143631383Y-89464475D01*
X143660240Y-89342809D01*
X143698623Y-89164888D01*
X143733794Y-89017141D01*
X143760695Y-88920100D01*
X143770481Y-88895195D01*
X143810141Y-88901795D01*
X143889938Y-88961902D01*
X143995372Y-89064346D01*
X144008957Y-89078846D01*
X144150027Y-89230827D01*
X144301294Y-89393764D01*
X144406982Y-89507584D01*
X144523099Y-89623162D01*
X144613833Y-89684854D01*
X144703468Y-89707341D01*
X144739596Y-89708667D01*
X144842822Y-89695739D01*
X144919850Y-89643406D01*
X144991179Y-89548923D01*
X145081271Y-89389317D01*
X145152167Y-89206263D01*
X145205720Y-88988684D01*
X145243786Y-88725500D01*
X145268220Y-88405631D01*
X145280875Y-88017998D01*
X145283316Y-87803667D01*
X145284775Y-87501734D01*
X145283927Y-87266741D01*
X145279135Y-87080966D01*
X145268766Y-86926684D01*
X145251186Y-86786172D01*
X145224760Y-86641707D01*
X145187854Y-86475565D01*
X145143797Y-86290648D01*
X145094005Y-86076560D01*
X145054552Y-85892968D01*
X145028417Y-85754907D01*
X145018579Y-85677413D01*
X145020134Y-85666422D01*
X145072148Y-85664463D01*
X145185660Y-85685445D01*
X145342289Y-85724239D01*
X145523654Y-85775719D01*
X145711375Y-85834757D01*
X145887071Y-85896226D01*
X145992103Y-85937553D01*
X146268566Y-86075648D01*
X146568588Y-86263184D01*
X146865277Y-86481611D01*
X147131739Y-86712378D01*
X147172042Y-86751448D01*
X147315770Y-86885181D01*
X147423353Y-86963202D01*
X147511097Y-86996261D01*
X147548045Y-86999333D01*
X147673066Y-86999333D01*
X147697640Y-86628917D01*
X147733206Y-86146457D01*
X147772484Y-85735281D01*
X147818349Y-85382013D01*
X147873678Y-85073274D01*
X147941344Y-84795688D01*
X148024223Y-84535875D01*
X148125189Y-84280458D01*
X148247118Y-84016061D01*
X148268531Y-83972500D01*
X148624336Y-83331926D01*
X149037907Y-82735379D01*
X149519975Y-82168144D01*
X149776167Y-81904609D01*
X150156730Y-81542307D01*
X150521248Y-81227001D01*
X150896468Y-80937540D01*
X151309135Y-80652775D01*
X151575334Y-80481961D01*
X151744907Y-80379722D01*
X151952406Y-80261165D01*
X152185236Y-80132803D01*
X152430800Y-80001146D01*
X152676499Y-79872707D01*
X152909738Y-79753997D01*
X153117919Y-79651528D01*
X153288446Y-79571810D01*
X153408722Y-79521357D01*
X153462730Y-79506334D01*
X153479156Y-79523878D01*
X163132334Y-101075167D02*
X163111167Y-101096334D01*
X163111167Y-101096334D02*
X163090000Y-101075167D01*
X163090000Y-101075167D02*
X163111167Y-101054000D01*
X163111167Y-101054000D02*
X163132334Y-101075167D01*
X163132334Y-101075167D02*
X163132334Y-101075167D01*
G36*
X163132334Y-101075167D02*
G01*
X163111167Y-101096334D01*
X163090000Y-101075167D01*
X163111167Y-101054000D01*
X163132334Y-101075167D01*
G37*
X163132334Y-101075167D02*
X163111167Y-101096334D01*
X163090000Y-101075167D01*
X163111167Y-101054000D01*
X163132334Y-101075167D01*
X163424301Y-99635834D02*
X163417615Y-99708580D01*
X163417615Y-99708580D02*
X163396492Y-99841266D01*
X163396492Y-99841266D02*
X163364584Y-100016207D01*
X163364584Y-100016207D02*
X163325542Y-100215720D01*
X163325542Y-100215720D02*
X163283019Y-100422121D01*
X163283019Y-100422121D02*
X163240667Y-100617726D01*
X163240667Y-100617726D02*
X163202138Y-100784851D01*
X163202138Y-100784851D02*
X163171084Y-100905812D01*
X163171084Y-100905812D02*
X163151157Y-100962925D01*
X163151157Y-100962925D02*
X163149916Y-100964445D01*
X163149916Y-100964445D02*
X163139868Y-100946238D01*
X163139868Y-100946238D02*
X163149428Y-100868412D01*
X163149428Y-100868412D02*
X163154766Y-100842334D01*
X163154766Y-100842334D02*
X163175223Y-100745883D01*
X163175223Y-100745883D02*
X163208274Y-100587059D01*
X163208274Y-100587059D02*
X163249656Y-100386460D01*
X163249656Y-100386460D02*
X163295108Y-100164685D01*
X163295108Y-100164685D02*
X163303685Y-100122667D01*
X163303685Y-100122667D02*
X163345567Y-99924293D01*
X163345567Y-99924293D02*
X163381353Y-99767878D01*
X163381353Y-99767878D02*
X163408028Y-99665592D01*
X163408028Y-99665592D02*
X163422578Y-99629601D01*
X163422578Y-99629601D02*
X163424301Y-99635834D01*
X163424301Y-99635834D02*
X163424301Y-99635834D01*
G36*
X163424301Y-99635834D02*
G01*
X163417615Y-99708580D01*
X163396492Y-99841266D01*
X163364584Y-100016207D01*
X163325542Y-100215720D01*
X163283019Y-100422121D01*
X163240667Y-100617726D01*
X163202138Y-100784851D01*
X163171084Y-100905812D01*
X163151157Y-100962925D01*
X163149916Y-100964445D01*
X163139868Y-100946238D01*
X163149428Y-100868412D01*
X163154766Y-100842334D01*
X163175223Y-100745883D01*
X163208274Y-100587059D01*
X163249656Y-100386460D01*
X163295108Y-100164685D01*
X163303685Y-100122667D01*
X163345567Y-99924293D01*
X163381353Y-99767878D01*
X163408028Y-99665592D01*
X163422578Y-99629601D01*
X163424301Y-99635834D01*
G37*
X163424301Y-99635834D02*
X163417615Y-99708580D01*
X163396492Y-99841266D01*
X163364584Y-100016207D01*
X163325542Y-100215720D01*
X163283019Y-100422121D01*
X163240667Y-100617726D01*
X163202138Y-100784851D01*
X163171084Y-100905812D01*
X163151157Y-100962925D01*
X163149916Y-100964445D01*
X163139868Y-100946238D01*
X163149428Y-100868412D01*
X163154766Y-100842334D01*
X163175223Y-100745883D01*
X163208274Y-100587059D01*
X163249656Y-100386460D01*
X163295108Y-100164685D01*
X163303685Y-100122667D01*
X163345567Y-99924293D01*
X163381353Y-99767878D01*
X163408028Y-99665592D01*
X163422578Y-99629601D01*
X163424301Y-99635834D01*
X163471000Y-99466500D02*
X163449834Y-99487667D01*
X163449834Y-99487667D02*
X163428667Y-99466500D01*
X163428667Y-99466500D02*
X163449834Y-99445334D01*
X163449834Y-99445334D02*
X163471000Y-99466500D01*
X163471000Y-99466500D02*
X163471000Y-99466500D01*
G36*
X163471000Y-99466500D02*
G01*
X163449834Y-99487667D01*
X163428667Y-99466500D01*
X163449834Y-99445334D01*
X163471000Y-99466500D01*
G37*
X163471000Y-99466500D02*
X163449834Y-99487667D01*
X163428667Y-99466500D01*
X163449834Y-99445334D01*
X163471000Y-99466500D01*
X163330585Y-96135396D02*
X163335632Y-96201558D01*
X163335632Y-96201558D02*
X163327243Y-96216535D01*
X163327243Y-96216535D02*
X163308002Y-96203909D01*
X163308002Y-96203909D02*
X163305009Y-96160972D01*
X163305009Y-96160972D02*
X163315348Y-96115801D01*
X163315348Y-96115801D02*
X163330585Y-96135396D01*
X163330585Y-96135396D02*
X163330585Y-96135396D01*
G36*
X163330585Y-96135396D02*
G01*
X163335632Y-96201558D01*
X163327243Y-96216535D01*
X163308002Y-96203909D01*
X163305009Y-96160972D01*
X163315348Y-96115801D01*
X163330585Y-96135396D01*
G37*
X163330585Y-96135396D02*
X163335632Y-96201558D01*
X163327243Y-96216535D01*
X163308002Y-96203909D01*
X163305009Y-96160972D01*
X163315348Y-96115801D01*
X163330585Y-96135396D01*
X162702005Y-94334347D02*
X162730001Y-94382929D01*
X162730001Y-94382929D02*
X162743737Y-94407667D01*
X162743737Y-94407667D02*
X162805668Y-94534847D01*
X162805668Y-94534847D02*
X162878809Y-94709078D01*
X162878809Y-94709078D02*
X162958274Y-94915739D01*
X162958274Y-94915739D02*
X163039178Y-95140212D01*
X163039178Y-95140212D02*
X163116635Y-95367876D01*
X163116635Y-95367876D02*
X163185761Y-95584113D01*
X163185761Y-95584113D02*
X163241670Y-95774303D01*
X163241670Y-95774303D02*
X163279475Y-95923826D01*
X163279475Y-95923826D02*
X163294294Y-96018063D01*
X163294294Y-96018063D02*
X163289936Y-96042175D01*
X163289936Y-96042175D02*
X163270149Y-96014855D01*
X163270149Y-96014855D02*
X163236497Y-95925131D01*
X163236497Y-95925131D02*
X163197078Y-95795237D01*
X163197078Y-95795237D02*
X163153667Y-95652660D01*
X163153667Y-95652660D02*
X163088797Y-95455884D01*
X163088797Y-95455884D02*
X163010927Y-95229914D01*
X163010927Y-95229914D02*
X162928517Y-94999756D01*
X162928517Y-94999756D02*
X162920975Y-94979167D01*
X162920975Y-94979167D02*
X162825937Y-94719996D01*
X162825937Y-94719996D02*
X162757643Y-94532235D01*
X162757643Y-94532235D02*
X162713599Y-94407837D01*
X162713599Y-94407837D02*
X162691309Y-94338754D01*
X162691309Y-94338754D02*
X162688276Y-94316940D01*
X162688276Y-94316940D02*
X162702005Y-94334347D01*
X162702005Y-94334347D02*
X162702005Y-94334347D01*
G36*
X162702005Y-94334347D02*
G01*
X162730001Y-94382929D01*
X162743737Y-94407667D01*
X162805668Y-94534847D01*
X162878809Y-94709078D01*
X162958274Y-94915739D01*
X163039178Y-95140212D01*
X163116635Y-95367876D01*
X163185761Y-95584113D01*
X163241670Y-95774303D01*
X163279475Y-95923826D01*
X163294294Y-96018063D01*
X163289936Y-96042175D01*
X163270149Y-96014855D01*
X163236497Y-95925131D01*
X163197078Y-95795237D01*
X163153667Y-95652660D01*
X163088797Y-95455884D01*
X163010927Y-95229914D01*
X162928517Y-94999756D01*
X162920975Y-94979167D01*
X162825937Y-94719996D01*
X162757643Y-94532235D01*
X162713599Y-94407837D01*
X162691309Y-94338754D01*
X162688276Y-94316940D01*
X162702005Y-94334347D01*
G37*
X162702005Y-94334347D02*
X162730001Y-94382929D01*
X162743737Y-94407667D01*
X162805668Y-94534847D01*
X162878809Y-94709078D01*
X162958274Y-94915739D01*
X163039178Y-95140212D01*
X163116635Y-95367876D01*
X163185761Y-95584113D01*
X163241670Y-95774303D01*
X163279475Y-95923826D01*
X163294294Y-96018063D01*
X163289936Y-96042175D01*
X163270149Y-96014855D01*
X163236497Y-95925131D01*
X163197078Y-95795237D01*
X163153667Y-95652660D01*
X163088797Y-95455884D01*
X163010927Y-95229914D01*
X162928517Y-94999756D01*
X162920975Y-94979167D01*
X162825937Y-94719996D01*
X162757643Y-94532235D01*
X162713599Y-94407837D01*
X162691309Y-94338754D01*
X162688276Y-94316940D01*
X162702005Y-94334347D01*
X162666667Y-94217167D02*
X162645500Y-94238334D01*
X162645500Y-94238334D02*
X162624334Y-94217167D01*
X162624334Y-94217167D02*
X162645500Y-94196000D01*
X162645500Y-94196000D02*
X162666667Y-94217167D01*
X162666667Y-94217167D02*
X162666667Y-94217167D01*
G36*
X162666667Y-94217167D02*
G01*
X162645500Y-94238334D01*
X162624334Y-94217167D01*
X162645500Y-94196000D01*
X162666667Y-94217167D01*
G37*
X162666667Y-94217167D02*
X162645500Y-94238334D01*
X162624334Y-94217167D01*
X162645500Y-94196000D01*
X162666667Y-94217167D01*
X162624334Y-94132500D02*
X162603167Y-94153667D01*
X162603167Y-94153667D02*
X162582000Y-94132500D01*
X162582000Y-94132500D02*
X162603167Y-94111334D01*
X162603167Y-94111334D02*
X162624334Y-94132500D01*
X162624334Y-94132500D02*
X162624334Y-94132500D01*
G36*
X162624334Y-94132500D02*
G01*
X162603167Y-94153667D01*
X162582000Y-94132500D01*
X162603167Y-94111334D01*
X162624334Y-94132500D01*
G37*
X162624334Y-94132500D02*
X162603167Y-94153667D01*
X162582000Y-94132500D01*
X162603167Y-94111334D01*
X162624334Y-94132500D01*
X144292699Y-87566641D02*
X144295237Y-87635058D01*
X144295237Y-87635058D02*
X144288395Y-87729855D01*
X144288395Y-87729855D02*
X144274299Y-87822440D01*
X144274299Y-87822440D02*
X144255072Y-87884221D01*
X144255072Y-87884221D02*
X144253922Y-87886133D01*
X144253922Y-87886133D02*
X144233338Y-87893387D01*
X144233338Y-87893387D02*
X144232506Y-87821185D01*
X144232506Y-87821185D02*
X144239229Y-87759133D01*
X144239229Y-87759133D02*
X144256888Y-87641934D01*
X144256888Y-87641934D02*
X144273353Y-87565830D01*
X144273353Y-87565830D02*
X144278658Y-87553195D01*
X144278658Y-87553195D02*
X144292699Y-87566641D01*
X144292699Y-87566641D02*
X144292699Y-87566641D01*
G36*
X144292699Y-87566641D02*
G01*
X144295237Y-87635058D01*
X144288395Y-87729855D01*
X144274299Y-87822440D01*
X144255072Y-87884221D01*
X144253922Y-87886133D01*
X144233338Y-87893387D01*
X144232506Y-87821185D01*
X144239229Y-87759133D01*
X144256888Y-87641934D01*
X144273353Y-87565830D01*
X144278658Y-87553195D01*
X144292699Y-87566641D01*
G37*
X144292699Y-87566641D02*
X144295237Y-87635058D01*
X144288395Y-87729855D01*
X144274299Y-87822440D01*
X144255072Y-87884221D01*
X144253922Y-87886133D01*
X144233338Y-87893387D01*
X144232506Y-87821185D01*
X144239229Y-87759133D01*
X144256888Y-87641934D01*
X144273353Y-87565830D01*
X144278658Y-87553195D01*
X144292699Y-87566641D01*
X143536570Y-85297024D02*
X143591085Y-85381173D01*
X143591085Y-85381173D02*
X143656169Y-85492230D01*
X143656169Y-85492230D02*
X143718383Y-85606313D01*
X143718383Y-85606313D02*
X143764287Y-85699538D01*
X143764287Y-85699538D02*
X143780439Y-85748021D01*
X143780439Y-85748021D02*
X143779645Y-85749800D01*
X143779645Y-85749800D02*
X143753267Y-85723807D01*
X143753267Y-85723807D02*
X143698709Y-85640847D01*
X143698709Y-85640847D02*
X143627613Y-85518669D01*
X143627613Y-85518669D02*
X143625275Y-85514455D01*
X143625275Y-85514455D02*
X143558653Y-85389420D01*
X143558653Y-85389420D02*
X143515816Y-85299559D01*
X143515816Y-85299559D02*
X143505717Y-85263712D01*
X143505717Y-85263712D02*
X143506067Y-85263667D01*
X143506067Y-85263667D02*
X143536570Y-85297024D01*
X143536570Y-85297024D02*
X143536570Y-85297024D01*
G36*
X143536570Y-85297024D02*
G01*
X143591085Y-85381173D01*
X143656169Y-85492230D01*
X143718383Y-85606313D01*
X143764287Y-85699538D01*
X143780439Y-85748021D01*
X143779645Y-85749800D01*
X143753267Y-85723807D01*
X143698709Y-85640847D01*
X143627613Y-85518669D01*
X143625275Y-85514455D01*
X143558653Y-85389420D01*
X143515816Y-85299559D01*
X143505717Y-85263712D01*
X143506067Y-85263667D01*
X143536570Y-85297024D01*
G37*
X143536570Y-85297024D02*
X143591085Y-85381173D01*
X143656169Y-85492230D01*
X143718383Y-85606313D01*
X143764287Y-85699538D01*
X143780439Y-85748021D01*
X143779645Y-85749800D01*
X143753267Y-85723807D01*
X143698709Y-85640847D01*
X143627613Y-85518669D01*
X143625275Y-85514455D01*
X143558653Y-85389420D01*
X143515816Y-85299559D01*
X143505717Y-85263712D01*
X143506067Y-85263667D01*
X143536570Y-85297024D01*
X146495334Y-84776834D02*
X146474167Y-84798000D01*
X146474167Y-84798000D02*
X146453000Y-84776834D01*
X146453000Y-84776834D02*
X146474167Y-84755667D01*
X146474167Y-84755667D02*
X146495334Y-84776834D01*
X146495334Y-84776834D02*
X146495334Y-84776834D01*
G36*
X146495334Y-84776834D02*
G01*
X146474167Y-84798000D01*
X146453000Y-84776834D01*
X146474167Y-84755667D01*
X146495334Y-84776834D01*
G37*
X146495334Y-84776834D02*
X146474167Y-84798000D01*
X146453000Y-84776834D01*
X146474167Y-84755667D01*
X146495334Y-84776834D01*
X143644889Y-84685111D02*
X143639078Y-84710278D01*
X143639078Y-84710278D02*
X143616667Y-84713334D01*
X143616667Y-84713334D02*
X143581822Y-84697844D01*
X143581822Y-84697844D02*
X143588445Y-84685111D01*
X143588445Y-84685111D02*
X143638684Y-84680045D01*
X143638684Y-84680045D02*
X143644889Y-84685111D01*
X143644889Y-84685111D02*
X143644889Y-84685111D01*
G36*
X143644889Y-84685111D02*
G01*
X143639078Y-84710278D01*
X143616667Y-84713334D01*
X143581822Y-84697844D01*
X143588445Y-84685111D01*
X143638684Y-84680045D01*
X143644889Y-84685111D01*
G37*
X143644889Y-84685111D02*
X143639078Y-84710278D01*
X143616667Y-84713334D01*
X143581822Y-84697844D01*
X143588445Y-84685111D01*
X143638684Y-84680045D01*
X143644889Y-84685111D01*
X146523556Y-84642778D02*
X146528622Y-84693018D01*
X146528622Y-84693018D02*
X146523556Y-84699222D01*
X146523556Y-84699222D02*
X146498389Y-84693411D01*
X146498389Y-84693411D02*
X146495334Y-84671000D01*
X146495334Y-84671000D02*
X146510823Y-84636155D01*
X146510823Y-84636155D02*
X146523556Y-84642778D01*
X146523556Y-84642778D02*
X146523556Y-84642778D01*
G36*
X146523556Y-84642778D02*
G01*
X146528622Y-84693018D01*
X146523556Y-84699222D01*
X146498389Y-84693411D01*
X146495334Y-84671000D01*
X146510823Y-84636155D01*
X146523556Y-84642778D01*
G37*
X146523556Y-84642778D02*
X146528622Y-84693018D01*
X146523556Y-84699222D01*
X146498389Y-84693411D01*
X146495334Y-84671000D01*
X146510823Y-84636155D01*
X146523556Y-84642778D01*
X143859202Y-84645424D02*
X143846576Y-84664665D01*
X143846576Y-84664665D02*
X143803639Y-84667658D01*
X143803639Y-84667658D02*
X143758468Y-84657319D01*
X143758468Y-84657319D02*
X143778063Y-84642082D01*
X143778063Y-84642082D02*
X143844225Y-84637035D01*
X143844225Y-84637035D02*
X143859202Y-84645424D01*
X143859202Y-84645424D02*
X143859202Y-84645424D01*
G36*
X143859202Y-84645424D02*
G01*
X143846576Y-84664665D01*
X143803639Y-84667658D01*
X143758468Y-84657319D01*
X143778063Y-84642082D01*
X143844225Y-84637035D01*
X143859202Y-84645424D01*
G37*
X143859202Y-84645424D02*
X143846576Y-84664665D01*
X143803639Y-84667658D01*
X143758468Y-84657319D01*
X143778063Y-84642082D01*
X143844225Y-84637035D01*
X143859202Y-84645424D01*
X144092917Y-84600630D02*
X144098235Y-84616082D01*
X144098235Y-84616082D02*
X144040000Y-84621983D01*
X144040000Y-84621983D02*
X143979902Y-84615330D01*
X143979902Y-84615330D02*
X143987084Y-84600630D01*
X143987084Y-84600630D02*
X144073755Y-84595039D01*
X144073755Y-84595039D02*
X144092917Y-84600630D01*
X144092917Y-84600630D02*
X144092917Y-84600630D01*
G36*
X144092917Y-84600630D02*
G01*
X144098235Y-84616082D01*
X144040000Y-84621983D01*
X143979902Y-84615330D01*
X143987084Y-84600630D01*
X144073755Y-84595039D01*
X144092917Y-84600630D01*
G37*
X144092917Y-84600630D02*
X144098235Y-84616082D01*
X144040000Y-84621983D01*
X143979902Y-84615330D01*
X143987084Y-84600630D01*
X144073755Y-84595039D01*
X144092917Y-84600630D01*
X146580000Y-84565167D02*
X146558834Y-84586334D01*
X146558834Y-84586334D02*
X146537667Y-84565167D01*
X146537667Y-84565167D02*
X146558834Y-84544000D01*
X146558834Y-84544000D02*
X146580000Y-84565167D01*
X146580000Y-84565167D02*
X146580000Y-84565167D01*
G36*
X146580000Y-84565167D02*
G01*
X146558834Y-84586334D01*
X146537667Y-84565167D01*
X146558834Y-84544000D01*
X146580000Y-84565167D01*
G37*
X146580000Y-84565167D02*
X146558834Y-84586334D01*
X146537667Y-84565167D01*
X146558834Y-84544000D01*
X146580000Y-84565167D01*
X146622334Y-84480500D02*
X146601167Y-84501667D01*
X146601167Y-84501667D02*
X146580000Y-84480500D01*
X146580000Y-84480500D02*
X146601167Y-84459334D01*
X146601167Y-84459334D02*
X146622334Y-84480500D01*
X146622334Y-84480500D02*
X146622334Y-84480500D01*
G36*
X146622334Y-84480500D02*
G01*
X146601167Y-84501667D01*
X146580000Y-84480500D01*
X146601167Y-84459334D01*
X146622334Y-84480500D01*
G37*
X146622334Y-84480500D02*
X146601167Y-84501667D01*
X146580000Y-84480500D01*
X146601167Y-84459334D01*
X146622334Y-84480500D01*
X146664667Y-84395834D02*
X146643500Y-84417000D01*
X146643500Y-84417000D02*
X146622334Y-84395834D01*
X146622334Y-84395834D02*
X146643500Y-84374667D01*
X146643500Y-84374667D02*
X146664667Y-84395834D01*
X146664667Y-84395834D02*
X146664667Y-84395834D01*
G36*
X146664667Y-84395834D02*
G01*
X146643500Y-84417000D01*
X146622334Y-84395834D01*
X146643500Y-84374667D01*
X146664667Y-84395834D01*
G37*
X146664667Y-84395834D02*
X146643500Y-84417000D01*
X146622334Y-84395834D01*
X146643500Y-84374667D01*
X146664667Y-84395834D01*
X146774345Y-84143862D02*
X146745935Y-84205334D01*
X146745935Y-84205334D02*
X146695416Y-84304202D01*
X146695416Y-84304202D02*
X146670366Y-84331728D01*
X146670366Y-84331728D02*
X146664667Y-84305147D01*
X146664667Y-84305147D02*
X146688867Y-84243010D01*
X146688867Y-84243010D02*
X146730502Y-84181675D01*
X146730502Y-84181675D02*
X146774269Y-84129632D01*
X146774269Y-84129632D02*
X146774345Y-84143862D01*
X146774345Y-84143862D02*
X146774345Y-84143862D01*
G36*
X146774345Y-84143862D02*
G01*
X146745935Y-84205334D01*
X146695416Y-84304202D01*
X146670366Y-84331728D01*
X146664667Y-84305147D01*
X146688867Y-84243010D01*
X146730502Y-84181675D01*
X146774269Y-84129632D01*
X146774345Y-84143862D01*
G37*
X146774345Y-84143862D02*
X146745935Y-84205334D01*
X146695416Y-84304202D01*
X146670366Y-84331728D01*
X146664667Y-84305147D01*
X146688867Y-84243010D01*
X146730502Y-84181675D01*
X146774269Y-84129632D01*
X146774345Y-84143862D01*
X155216000Y-83803167D02*
X155194834Y-83824334D01*
X155194834Y-83824334D02*
X155173667Y-83803167D01*
X155173667Y-83803167D02*
X155194834Y-83782000D01*
X155194834Y-83782000D02*
X155216000Y-83803167D01*
X155216000Y-83803167D02*
X155216000Y-83803167D01*
G36*
X155216000Y-83803167D02*
G01*
X155194834Y-83824334D01*
X155173667Y-83803167D01*
X155194834Y-83782000D01*
X155216000Y-83803167D01*
G37*
X155216000Y-83803167D02*
X155194834Y-83824334D01*
X155173667Y-83803167D01*
X155194834Y-83782000D01*
X155216000Y-83803167D01*
X154731200Y-82447420D02*
X154756166Y-82532212D01*
X154756166Y-82532212D02*
X154790329Y-82675369D01*
X154790329Y-82675369D02*
X154830600Y-82864443D01*
X154830600Y-82864443D02*
X154851659Y-82970239D01*
X154851659Y-82970239D02*
X154891814Y-83186338D01*
X154891814Y-83186338D02*
X154922627Y-83371970D01*
X154922627Y-83371970D02*
X154941838Y-83511811D01*
X154941838Y-83511811D02*
X154947190Y-83590533D01*
X154947190Y-83590533D02*
X154944733Y-83601711D01*
X154944733Y-83601711D02*
X154920570Y-83597027D01*
X154920570Y-83597027D02*
X154919667Y-83587495D01*
X154919667Y-83587495D02*
X154911506Y-83533099D01*
X154911506Y-83533099D02*
X154889231Y-83413067D01*
X154889231Y-83413067D02*
X154856154Y-83244621D01*
X154856154Y-83244621D02*
X154815588Y-83044979D01*
X154815588Y-83044979D02*
X154811592Y-83025629D01*
X154811592Y-83025629D02*
X154771432Y-82820593D01*
X154771432Y-82820593D02*
X154740537Y-82641601D01*
X154740537Y-82641601D02*
X154721806Y-82507113D01*
X154721806Y-82507113D02*
X154718140Y-82435586D01*
X154718140Y-82435586D02*
X154718517Y-82433439D01*
X154718517Y-82433439D02*
X154731200Y-82447420D01*
X154731200Y-82447420D02*
X154731200Y-82447420D01*
G36*
X154731200Y-82447420D02*
G01*
X154756166Y-82532212D01*
X154790329Y-82675369D01*
X154830600Y-82864443D01*
X154851659Y-82970239D01*
X154891814Y-83186338D01*
X154922627Y-83371970D01*
X154941838Y-83511811D01*
X154947190Y-83590533D01*
X154944733Y-83601711D01*
X154920570Y-83597027D01*
X154919667Y-83587495D01*
X154911506Y-83533099D01*
X154889231Y-83413067D01*
X154856154Y-83244621D01*
X154815588Y-83044979D01*
X154811592Y-83025629D01*
X154771432Y-82820593D01*
X154740537Y-82641601D01*
X154721806Y-82507113D01*
X154718140Y-82435586D01*
X154718517Y-82433439D01*
X154731200Y-82447420D01*
G37*
X154731200Y-82447420D02*
X154756166Y-82532212D01*
X154790329Y-82675369D01*
X154830600Y-82864443D01*
X154851659Y-82970239D01*
X154891814Y-83186338D01*
X154922627Y-83371970D01*
X154941838Y-83511811D01*
X154947190Y-83590533D01*
X154944733Y-83601711D01*
X154920570Y-83597027D01*
X154919667Y-83587495D01*
X154911506Y-83533099D01*
X154889231Y-83413067D01*
X154856154Y-83244621D01*
X154815588Y-83044979D01*
X154811592Y-83025629D01*
X154771432Y-82820593D01*
X154740537Y-82641601D01*
X154721806Y-82507113D01*
X154718140Y-82435586D01*
X154718517Y-82433439D01*
X154731200Y-82447420D01*
X154693703Y-82205084D02*
X154699295Y-82291755D01*
X154699295Y-82291755D02*
X154693703Y-82310917D01*
X154693703Y-82310917D02*
X154678252Y-82316235D01*
X154678252Y-82316235D02*
X154672351Y-82258000D01*
X154672351Y-82258000D02*
X154679004Y-82197902D01*
X154679004Y-82197902D02*
X154693703Y-82205084D01*
X154693703Y-82205084D02*
X154693703Y-82205084D01*
G36*
X154693703Y-82205084D02*
G01*
X154699295Y-82291755D01*
X154693703Y-82310917D01*
X154678252Y-82316235D01*
X154672351Y-82258000D01*
X154679004Y-82197902D01*
X154693703Y-82205084D01*
G37*
X154693703Y-82205084D02*
X154699295Y-82291755D01*
X154693703Y-82310917D01*
X154678252Y-82316235D01*
X154672351Y-82258000D01*
X154679004Y-82197902D01*
X154693703Y-82205084D01*
X155046667Y-78130500D02*
X155025500Y-78151667D01*
X155025500Y-78151667D02*
X155004334Y-78130500D01*
X155004334Y-78130500D02*
X155025500Y-78109334D01*
X155025500Y-78109334D02*
X155046667Y-78130500D01*
X155046667Y-78130500D02*
X155046667Y-78130500D01*
G36*
X155046667Y-78130500D02*
G01*
X155025500Y-78151667D01*
X155004334Y-78130500D01*
X155025500Y-78109334D01*
X155046667Y-78130500D01*
G37*
X155046667Y-78130500D02*
X155025500Y-78151667D01*
X155004334Y-78130500D01*
X155025500Y-78109334D01*
X155046667Y-78130500D01*
D11*
X134802568Y-117468556D03*
X131891680Y-116742790D03*
M02*
