G04 #@! TF.GenerationSoftware,KiCad,Pcbnew,(5.99.0-9526-g5c17ff0595)*
G04 #@! TF.CreationDate,2021-07-11T20:16:44-05:00*
G04 #@! TF.ProjectId,dumpsterFire,64756d70-7374-4657-9246-6972652e6b69,rev?*
G04 #@! TF.SameCoordinates,Original*
G04 #@! TF.FileFunction,Copper,L1,Top*
G04 #@! TF.FilePolarity,Positive*
%FSLAX46Y46*%
G04 Gerber Fmt 4.6, Leading zero omitted, Abs format (unit mm)*
G04 Created by KiCad (PCBNEW (5.99.0-9526-g5c17ff0595)) date 2021-07-11 20:16:44*
%MOMM*%
%LPD*%
G01*
G04 APERTURE LIST*
G04 #@! TA.AperFunction,EtchedComponent*
%ADD10C,0.010000*%
G04 #@! TD*
G04 #@! TA.AperFunction,ViaPad*
%ADD11C,0.600000*%
G04 #@! TD*
G04 #@! TA.AperFunction,Conductor*
%ADD12C,0.250000*%
G04 #@! TD*
G04 APERTURE END LIST*
D10*
X165271254Y-105550342D02*
X165272075Y-105674373D01*
X165272075Y-105674373D02*
X165270973Y-105870962D01*
X165270973Y-105870962D02*
X165268084Y-106134071D01*
X165268084Y-106134071D02*
X165263543Y-106457664D01*
X165263543Y-106457664D02*
X165257487Y-106835704D01*
X165257487Y-106835704D02*
X165250052Y-107262156D01*
X165250052Y-107262156D02*
X165241372Y-107730982D01*
X165241372Y-107730982D02*
X165231586Y-108236146D01*
X165231586Y-108236146D02*
X165220828Y-108771611D01*
X165220828Y-108771611D02*
X165209234Y-109331342D01*
X165209234Y-109331342D02*
X165196941Y-109909301D01*
X165196941Y-109909301D02*
X165184085Y-110499453D01*
X165184085Y-110499453D02*
X165170801Y-111095760D01*
X165170801Y-111095760D02*
X165157226Y-111692186D01*
X165157226Y-111692186D02*
X165143495Y-112282695D01*
X165143495Y-112282695D02*
X165129744Y-112861251D01*
X165129744Y-112861251D02*
X165116111Y-113421816D01*
X165116111Y-113421816D02*
X165102729Y-113958355D01*
X165102729Y-113958355D02*
X165089737Y-114464831D01*
X165089737Y-114464831D02*
X165077269Y-114935207D01*
X165077269Y-114935207D02*
X165065461Y-115363447D01*
X165065461Y-115363447D02*
X165054450Y-115743514D01*
X165054450Y-115743514D02*
X165044371Y-116069373D01*
X165044371Y-116069373D02*
X165035361Y-116334986D01*
X165035361Y-116334986D02*
X165027555Y-116534317D01*
X165027555Y-116534317D02*
X165021090Y-116661330D01*
X165021090Y-116661330D02*
X165016102Y-116709988D01*
X165016102Y-116709988D02*
X165015922Y-116710231D01*
X165015922Y-116710231D02*
X164973588Y-116724635D01*
X164973588Y-116724635D02*
X164854707Y-116762189D01*
X164854707Y-116762189D02*
X164663773Y-116821531D01*
X164663773Y-116821531D02*
X164405278Y-116901294D01*
X164405278Y-116901294D02*
X164083716Y-117000115D01*
X164083716Y-117000115D02*
X163703579Y-117116630D01*
X163703579Y-117116630D02*
X163269362Y-117249474D01*
X163269362Y-117249474D02*
X162785557Y-117397284D01*
X162785557Y-117397284D02*
X162256657Y-117558694D01*
X162256657Y-117558694D02*
X161687156Y-117732340D01*
X161687156Y-117732340D02*
X161081546Y-117916859D01*
X161081546Y-117916859D02*
X160444321Y-118110885D01*
X160444321Y-118110885D02*
X159779974Y-118313055D01*
X159779974Y-118313055D02*
X159092997Y-118522005D01*
X159092997Y-118522005D02*
X158387885Y-118736369D01*
X158387885Y-118736369D02*
X157669130Y-118954784D01*
X157669130Y-118954784D02*
X156941226Y-119175885D01*
X156941226Y-119175885D02*
X156208665Y-119398309D01*
X156208665Y-119398309D02*
X155475941Y-119620690D01*
X155475941Y-119620690D02*
X154747547Y-119841664D01*
X154747547Y-119841664D02*
X154027975Y-120059868D01*
X154027975Y-120059868D02*
X153321720Y-120273937D01*
X153321720Y-120273937D02*
X152633274Y-120482506D01*
X152633274Y-120482506D02*
X151967130Y-120684212D01*
X151967130Y-120684212D02*
X151327782Y-120877689D01*
X151327782Y-120877689D02*
X150719723Y-121061574D01*
X150719723Y-121061574D02*
X150147445Y-121234503D01*
X150147445Y-121234503D02*
X149615443Y-121395110D01*
X149615443Y-121395110D02*
X149128208Y-121542033D01*
X149128208Y-121542033D02*
X148690235Y-121673906D01*
X148690235Y-121673906D02*
X148306016Y-121789365D01*
X148306016Y-121789365D02*
X147980045Y-121887046D01*
X147980045Y-121887046D02*
X147716814Y-121965585D01*
X147716814Y-121965585D02*
X147520817Y-122023617D01*
X147520817Y-122023617D02*
X147420687Y-122052850D01*
X147420687Y-122052850D02*
X147308873Y-122085116D01*
X147308873Y-122085116D02*
X147283799Y-121105142D01*
X147283799Y-121105142D02*
X147280807Y-120949380D01*
X147280807Y-120949380D02*
X147277701Y-120714499D01*
X147277701Y-120714499D02*
X147274513Y-120406045D01*
X147274513Y-120406045D02*
X147271274Y-120029565D01*
X147271274Y-120029565D02*
X147268014Y-119590605D01*
X147268014Y-119590605D02*
X147264763Y-119094712D01*
X147264763Y-119094712D02*
X147261553Y-118547433D01*
X147261553Y-118547433D02*
X147258414Y-117954315D01*
X147258414Y-117954315D02*
X147255376Y-117320904D01*
X147255376Y-117320904D02*
X147252471Y-116652747D01*
X147252471Y-116652747D02*
X147249729Y-115955391D01*
X147249729Y-115955391D02*
X147247181Y-115234383D01*
X147247181Y-115234383D02*
X147244857Y-114495270D01*
X147244857Y-114495270D02*
X147242788Y-113743597D01*
X147242788Y-113743597D02*
X147242520Y-113637584D01*
X147242520Y-113637584D02*
X147240399Y-112767887D01*
X147240399Y-112767887D02*
X147238608Y-111978963D01*
X147238608Y-111978963D02*
X147237180Y-111266917D01*
X147237180Y-111266917D02*
X147236146Y-110627855D01*
X147236146Y-110627855D02*
X147235536Y-110057882D01*
X147235536Y-110057882D02*
X147235383Y-109553105D01*
X147235383Y-109553105D02*
X147235717Y-109109630D01*
X147235717Y-109109630D02*
X147236571Y-108723562D01*
X147236571Y-108723562D02*
X147237975Y-108391007D01*
X147237975Y-108391007D02*
X147239960Y-108108072D01*
X147239960Y-108108072D02*
X147242559Y-107870862D01*
X147242559Y-107870862D02*
X147245802Y-107675483D01*
X147245802Y-107675483D02*
X147249721Y-107518041D01*
X147249721Y-107518041D02*
X147254347Y-107394642D01*
X147254347Y-107394642D02*
X147259711Y-107301391D01*
X147259711Y-107301391D02*
X147265846Y-107234396D01*
X147265846Y-107234396D02*
X147272781Y-107189761D01*
X147272781Y-107189761D02*
X147280549Y-107163592D01*
X147280549Y-107163592D02*
X147289181Y-107151996D01*
X147289181Y-107151996D02*
X147294741Y-107150413D01*
X147294741Y-107150413D02*
X147342916Y-107146592D01*
X147342916Y-107146592D02*
X147471481Y-107135290D01*
X147471481Y-107135290D02*
X147676521Y-107116867D01*
X147676521Y-107116867D02*
X147954124Y-107091683D01*
X147954124Y-107091683D02*
X148300375Y-107060099D01*
X148300375Y-107060099D02*
X148711363Y-107022475D01*
X148711363Y-107022475D02*
X149183172Y-106979172D01*
X149183172Y-106979172D02*
X149711891Y-106930550D01*
X149711891Y-106930550D02*
X150293604Y-106876970D01*
X150293604Y-106876970D02*
X150924400Y-106818792D01*
X150924400Y-106818792D02*
X151600364Y-106756376D01*
X151600364Y-106756376D02*
X152317584Y-106690083D01*
X152317584Y-106690083D02*
X153072145Y-106620273D01*
X153072145Y-106620273D02*
X153860134Y-106547307D01*
X153860134Y-106547307D02*
X154677638Y-106471545D01*
X154677638Y-106471545D02*
X155520743Y-106393347D01*
X155520743Y-106393347D02*
X156308459Y-106320232D01*
X156308459Y-106320232D02*
X157170666Y-106240251D01*
X157170666Y-106240251D02*
X158010389Y-106162508D01*
X158010389Y-106162508D02*
X158823746Y-106087354D01*
X158823746Y-106087354D02*
X159606853Y-106015145D01*
X159606853Y-106015145D02*
X160355829Y-105946232D01*
X160355829Y-105946232D02*
X161066793Y-105880970D01*
X161066793Y-105880970D02*
X161735861Y-105819712D01*
X161735861Y-105819712D02*
X162359151Y-105762810D01*
X162359151Y-105762810D02*
X162932783Y-105710618D01*
X162932783Y-105710618D02*
X163452872Y-105663490D01*
X163452872Y-105663490D02*
X163915538Y-105621779D01*
X163915538Y-105621779D02*
X164316898Y-105585837D01*
X164316898Y-105585837D02*
X164653069Y-105556018D01*
X164653069Y-105556018D02*
X164920171Y-105532676D01*
X164920171Y-105532676D02*
X165114320Y-105516163D01*
X165114320Y-105516163D02*
X165231635Y-105506834D01*
X165231635Y-105506834D02*
X165268373Y-105504903D01*
X165268373Y-105504903D02*
X165271254Y-105550342D01*
X165271254Y-105550342D02*
X165271254Y-105550342D01*
G36*
X165271254Y-105550342D02*
G01*
X165272075Y-105674373D01*
X165270973Y-105870962D01*
X165268084Y-106134071D01*
X165263543Y-106457664D01*
X165257487Y-106835704D01*
X165250052Y-107262156D01*
X165241372Y-107730982D01*
X165231586Y-108236146D01*
X165220828Y-108771611D01*
X165209234Y-109331342D01*
X165196941Y-109909301D01*
X165184085Y-110499453D01*
X165170801Y-111095760D01*
X165157226Y-111692186D01*
X165143495Y-112282695D01*
X165129744Y-112861251D01*
X165116111Y-113421816D01*
X165102729Y-113958355D01*
X165089737Y-114464831D01*
X165077269Y-114935207D01*
X165065461Y-115363447D01*
X165054450Y-115743514D01*
X165044371Y-116069373D01*
X165035361Y-116334986D01*
X165027555Y-116534317D01*
X165021090Y-116661330D01*
X165016102Y-116709988D01*
X165015922Y-116710231D01*
X164973588Y-116724635D01*
X164854707Y-116762189D01*
X164663773Y-116821531D01*
X164405278Y-116901294D01*
X164083716Y-117000115D01*
X163703579Y-117116630D01*
X163269362Y-117249474D01*
X162785557Y-117397284D01*
X162256657Y-117558694D01*
X161687156Y-117732340D01*
X161081546Y-117916859D01*
X160444321Y-118110885D01*
X159779974Y-118313055D01*
X159092997Y-118522005D01*
X158387885Y-118736369D01*
X157669130Y-118954784D01*
X156941226Y-119175885D01*
X156208665Y-119398309D01*
X155475941Y-119620690D01*
X154747547Y-119841664D01*
X154027975Y-120059868D01*
X153321720Y-120273937D01*
X152633274Y-120482506D01*
X151967130Y-120684212D01*
X151327782Y-120877689D01*
X150719723Y-121061574D01*
X150147445Y-121234503D01*
X149615443Y-121395110D01*
X149128208Y-121542033D01*
X148690235Y-121673906D01*
X148306016Y-121789365D01*
X147980045Y-121887046D01*
X147716814Y-121965585D01*
X147520817Y-122023617D01*
X147420687Y-122052850D01*
X147308873Y-122085116D01*
X147283799Y-121105142D01*
X147280807Y-120949380D01*
X147277701Y-120714499D01*
X147274513Y-120406045D01*
X147271274Y-120029565D01*
X147268014Y-119590605D01*
X147264763Y-119094712D01*
X147261553Y-118547433D01*
X147258414Y-117954315D01*
X147255376Y-117320904D01*
X147252471Y-116652747D01*
X147249729Y-115955391D01*
X147247181Y-115234383D01*
X147244857Y-114495270D01*
X147242788Y-113743597D01*
X147242520Y-113637584D01*
X147240399Y-112767887D01*
X147238608Y-111978963D01*
X147237180Y-111266917D01*
X147236146Y-110627855D01*
X147235536Y-110057882D01*
X147235383Y-109553105D01*
X147235717Y-109109630D01*
X147236571Y-108723562D01*
X147237975Y-108391007D01*
X147239960Y-108108072D01*
X147242559Y-107870862D01*
X147245802Y-107675483D01*
X147249721Y-107518041D01*
X147254347Y-107394642D01*
X147259711Y-107301391D01*
X147265846Y-107234396D01*
X147272781Y-107189761D01*
X147280549Y-107163592D01*
X147289181Y-107151996D01*
X147294741Y-107150413D01*
X147342916Y-107146592D01*
X147471481Y-107135290D01*
X147676521Y-107116867D01*
X147954124Y-107091683D01*
X148300375Y-107060099D01*
X148711363Y-107022475D01*
X149183172Y-106979172D01*
X149711891Y-106930550D01*
X150293604Y-106876970D01*
X150924400Y-106818792D01*
X151600364Y-106756376D01*
X152317584Y-106690083D01*
X153072145Y-106620273D01*
X153860134Y-106547307D01*
X154677638Y-106471545D01*
X155520743Y-106393347D01*
X156308459Y-106320232D01*
X157170666Y-106240251D01*
X158010389Y-106162508D01*
X158823746Y-106087354D01*
X159606853Y-106015145D01*
X160355829Y-105946232D01*
X161066793Y-105880970D01*
X161735861Y-105819712D01*
X162359151Y-105762810D01*
X162932783Y-105710618D01*
X163452872Y-105663490D01*
X163915538Y-105621779D01*
X164316898Y-105585837D01*
X164653069Y-105556018D01*
X164920171Y-105532676D01*
X165114320Y-105516163D01*
X165231635Y-105506834D01*
X165268373Y-105504903D01*
X165271254Y-105550342D01*
G37*
X165271254Y-105550342D02*
X165272075Y-105674373D01*
X165270973Y-105870962D01*
X165268084Y-106134071D01*
X165263543Y-106457664D01*
X165257487Y-106835704D01*
X165250052Y-107262156D01*
X165241372Y-107730982D01*
X165231586Y-108236146D01*
X165220828Y-108771611D01*
X165209234Y-109331342D01*
X165196941Y-109909301D01*
X165184085Y-110499453D01*
X165170801Y-111095760D01*
X165157226Y-111692186D01*
X165143495Y-112282695D01*
X165129744Y-112861251D01*
X165116111Y-113421816D01*
X165102729Y-113958355D01*
X165089737Y-114464831D01*
X165077269Y-114935207D01*
X165065461Y-115363447D01*
X165054450Y-115743514D01*
X165044371Y-116069373D01*
X165035361Y-116334986D01*
X165027555Y-116534317D01*
X165021090Y-116661330D01*
X165016102Y-116709988D01*
X165015922Y-116710231D01*
X164973588Y-116724635D01*
X164854707Y-116762189D01*
X164663773Y-116821531D01*
X164405278Y-116901294D01*
X164083716Y-117000115D01*
X163703579Y-117116630D01*
X163269362Y-117249474D01*
X162785557Y-117397284D01*
X162256657Y-117558694D01*
X161687156Y-117732340D01*
X161081546Y-117916859D01*
X160444321Y-118110885D01*
X159779974Y-118313055D01*
X159092997Y-118522005D01*
X158387885Y-118736369D01*
X157669130Y-118954784D01*
X156941226Y-119175885D01*
X156208665Y-119398309D01*
X155475941Y-119620690D01*
X154747547Y-119841664D01*
X154027975Y-120059868D01*
X153321720Y-120273937D01*
X152633274Y-120482506D01*
X151967130Y-120684212D01*
X151327782Y-120877689D01*
X150719723Y-121061574D01*
X150147445Y-121234503D01*
X149615443Y-121395110D01*
X149128208Y-121542033D01*
X148690235Y-121673906D01*
X148306016Y-121789365D01*
X147980045Y-121887046D01*
X147716814Y-121965585D01*
X147520817Y-122023617D01*
X147420687Y-122052850D01*
X147308873Y-122085116D01*
X147283799Y-121105142D01*
X147280807Y-120949380D01*
X147277701Y-120714499D01*
X147274513Y-120406045D01*
X147271274Y-120029565D01*
X147268014Y-119590605D01*
X147264763Y-119094712D01*
X147261553Y-118547433D01*
X147258414Y-117954315D01*
X147255376Y-117320904D01*
X147252471Y-116652747D01*
X147249729Y-115955391D01*
X147247181Y-115234383D01*
X147244857Y-114495270D01*
X147242788Y-113743597D01*
X147242520Y-113637584D01*
X147240399Y-112767887D01*
X147238608Y-111978963D01*
X147237180Y-111266917D01*
X147236146Y-110627855D01*
X147235536Y-110057882D01*
X147235383Y-109553105D01*
X147235717Y-109109630D01*
X147236571Y-108723562D01*
X147237975Y-108391007D01*
X147239960Y-108108072D01*
X147242559Y-107870862D01*
X147245802Y-107675483D01*
X147249721Y-107518041D01*
X147254347Y-107394642D01*
X147259711Y-107301391D01*
X147265846Y-107234396D01*
X147272781Y-107189761D01*
X147280549Y-107163592D01*
X147289181Y-107151996D01*
X147294741Y-107150413D01*
X147342916Y-107146592D01*
X147471481Y-107135290D01*
X147676521Y-107116867D01*
X147954124Y-107091683D01*
X148300375Y-107060099D01*
X148711363Y-107022475D01*
X149183172Y-106979172D01*
X149711891Y-106930550D01*
X150293604Y-106876970D01*
X150924400Y-106818792D01*
X151600364Y-106756376D01*
X152317584Y-106690083D01*
X153072145Y-106620273D01*
X153860134Y-106547307D01*
X154677638Y-106471545D01*
X155520743Y-106393347D01*
X156308459Y-106320232D01*
X157170666Y-106240251D01*
X158010389Y-106162508D01*
X158823746Y-106087354D01*
X159606853Y-106015145D01*
X160355829Y-105946232D01*
X161066793Y-105880970D01*
X161735861Y-105819712D01*
X162359151Y-105762810D01*
X162932783Y-105710618D01*
X163452872Y-105663490D01*
X163915538Y-105621779D01*
X164316898Y-105585837D01*
X164653069Y-105556018D01*
X164920171Y-105532676D01*
X165114320Y-105516163D01*
X165231635Y-105506834D01*
X165268373Y-105504903D01*
X165271254Y-105550342D01*
X130786568Y-106136157D02*
X131268989Y-106208097D01*
X131268989Y-106208097D02*
X131770044Y-106282787D01*
X131770044Y-106282787D02*
X132275092Y-106358046D01*
X132275092Y-106358046D02*
X132769490Y-106431693D01*
X132769490Y-106431693D02*
X133238599Y-106501548D01*
X133238599Y-106501548D02*
X133667776Y-106565431D01*
X133667776Y-106565431D02*
X134042381Y-106621159D01*
X134042381Y-106621159D02*
X134345667Y-106666241D01*
X134345667Y-106666241D02*
X135427693Y-106827038D01*
X135427693Y-106827038D02*
X136471478Y-106982264D01*
X136471478Y-106982264D02*
X137474405Y-107131529D01*
X137474405Y-107131529D02*
X138433860Y-107274439D01*
X138433860Y-107274439D02*
X139347227Y-107410604D01*
X139347227Y-107410604D02*
X140211892Y-107539630D01*
X140211892Y-107539630D02*
X141025238Y-107661126D01*
X141025238Y-107661126D02*
X141784651Y-107774700D01*
X141784651Y-107774700D02*
X142487516Y-107879960D01*
X142487516Y-107879960D02*
X143131218Y-107976513D01*
X143131218Y-107976513D02*
X143713141Y-108063967D01*
X143713141Y-108063967D02*
X144230670Y-108141931D01*
X144230670Y-108141931D02*
X144681190Y-108210013D01*
X144681190Y-108210013D02*
X145062086Y-108267819D01*
X145062086Y-108267819D02*
X145370742Y-108314959D01*
X145370742Y-108314959D02*
X145604544Y-108351040D01*
X145604544Y-108351040D02*
X145760876Y-108375670D01*
X145760876Y-108375670D02*
X145837123Y-108388457D01*
X145837123Y-108388457D02*
X145844619Y-108390174D01*
X145844619Y-108390174D02*
X145813479Y-108409695D01*
X145813479Y-108409695D02*
X145714376Y-108451384D01*
X145714376Y-108451384D02*
X145559758Y-108510907D01*
X145559758Y-108510907D02*
X145362074Y-108583926D01*
X145362074Y-108583926D02*
X145133771Y-108666105D01*
X145133771Y-108666105D02*
X144887298Y-108753110D01*
X144887298Y-108753110D02*
X144635103Y-108840603D01*
X144635103Y-108840603D02*
X144389634Y-108924248D01*
X144389634Y-108924248D02*
X144163340Y-108999710D01*
X144163340Y-108999710D02*
X143968667Y-109062651D01*
X143968667Y-109062651D02*
X143818066Y-109108737D01*
X143818066Y-109108737D02*
X143723983Y-109133631D01*
X143723983Y-109133631D02*
X143701334Y-109136752D01*
X143701334Y-109136752D02*
X143649452Y-109129528D01*
X143649452Y-109129528D02*
X143518066Y-109109423D01*
X143518066Y-109109423D02*
X143311249Y-109077091D01*
X143311249Y-109077091D02*
X143033074Y-109033183D01*
X143033074Y-109033183D02*
X142687614Y-108978352D01*
X142687614Y-108978352D02*
X142278942Y-108913250D01*
X142278942Y-108913250D02*
X141811133Y-108838531D01*
X141811133Y-108838531D02*
X141288259Y-108754847D01*
X141288259Y-108754847D02*
X140714394Y-108662850D01*
X140714394Y-108662850D02*
X140093612Y-108563194D01*
X140093612Y-108563194D02*
X139429984Y-108456530D01*
X139429984Y-108456530D02*
X138727586Y-108343511D01*
X138727586Y-108343511D02*
X137990490Y-108224791D01*
X137990490Y-108224791D02*
X137222769Y-108101021D01*
X137222769Y-108101021D02*
X136428497Y-107972854D01*
X136428497Y-107972854D02*
X135611748Y-107840942D01*
X135611748Y-107840942D02*
X135435813Y-107812512D01*
X135435813Y-107812512D02*
X134616456Y-107679979D01*
X134616456Y-107679979D02*
X133819679Y-107550868D01*
X133819679Y-107550868D02*
X133049487Y-107425837D01*
X133049487Y-107425837D02*
X132309884Y-107305545D01*
X132309884Y-107305545D02*
X131604875Y-107190651D01*
X131604875Y-107190651D02*
X130938465Y-107081813D01*
X130938465Y-107081813D02*
X130314659Y-106979690D01*
X130314659Y-106979690D02*
X129737461Y-106884940D01*
X129737461Y-106884940D02*
X129210877Y-106798223D01*
X129210877Y-106798223D02*
X128738910Y-106720196D01*
X128738910Y-106720196D02*
X128325566Y-106651519D01*
X128325566Y-106651519D02*
X127974850Y-106592851D01*
X127974850Y-106592851D02*
X127690766Y-106544849D01*
X127690766Y-106544849D02*
X127477319Y-106508172D01*
X127477319Y-106508172D02*
X127338514Y-106483480D01*
X127338514Y-106483480D02*
X127278355Y-106471431D01*
X127278355Y-106471431D02*
X127276063Y-106470506D01*
X127276063Y-106470506D02*
X127311622Y-106444152D01*
X127311622Y-106444152D02*
X127410072Y-106386032D01*
X127410072Y-106386032D02*
X127559007Y-106303095D01*
X127559007Y-106303095D02*
X127746022Y-106202289D01*
X127746022Y-106202289D02*
X127897318Y-106122530D01*
X127897318Y-106122530D02*
X128518635Y-105797881D01*
X128518635Y-105797881D02*
X130786568Y-106136157D01*
X130786568Y-106136157D02*
X130786568Y-106136157D01*
G36*
X130786568Y-106136157D02*
G01*
X131268989Y-106208097D01*
X131770044Y-106282787D01*
X132275092Y-106358046D01*
X132769490Y-106431693D01*
X133238599Y-106501548D01*
X133667776Y-106565431D01*
X134042381Y-106621159D01*
X134345667Y-106666241D01*
X135427693Y-106827038D01*
X136471478Y-106982264D01*
X137474405Y-107131529D01*
X138433860Y-107274439D01*
X139347227Y-107410604D01*
X140211892Y-107539630D01*
X141025238Y-107661126D01*
X141784651Y-107774700D01*
X142487516Y-107879960D01*
X143131218Y-107976513D01*
X143713141Y-108063967D01*
X144230670Y-108141931D01*
X144681190Y-108210013D01*
X145062086Y-108267819D01*
X145370742Y-108314959D01*
X145604544Y-108351040D01*
X145760876Y-108375670D01*
X145837123Y-108388457D01*
X145844619Y-108390174D01*
X145813479Y-108409695D01*
X145714376Y-108451384D01*
X145559758Y-108510907D01*
X145362074Y-108583926D01*
X145133771Y-108666105D01*
X144887298Y-108753110D01*
X144635103Y-108840603D01*
X144389634Y-108924248D01*
X144163340Y-108999710D01*
X143968667Y-109062651D01*
X143818066Y-109108737D01*
X143723983Y-109133631D01*
X143701334Y-109136752D01*
X143649452Y-109129528D01*
X143518066Y-109109423D01*
X143311249Y-109077091D01*
X143033074Y-109033183D01*
X142687614Y-108978352D01*
X142278942Y-108913250D01*
X141811133Y-108838531D01*
X141288259Y-108754847D01*
X140714394Y-108662850D01*
X140093612Y-108563194D01*
X139429984Y-108456530D01*
X138727586Y-108343511D01*
X137990490Y-108224791D01*
X137222769Y-108101021D01*
X136428497Y-107972854D01*
X135611748Y-107840942D01*
X135435813Y-107812512D01*
X134616456Y-107679979D01*
X133819679Y-107550868D01*
X133049487Y-107425837D01*
X132309884Y-107305545D01*
X131604875Y-107190651D01*
X130938465Y-107081813D01*
X130314659Y-106979690D01*
X129737461Y-106884940D01*
X129210877Y-106798223D01*
X128738910Y-106720196D01*
X128325566Y-106651519D01*
X127974850Y-106592851D01*
X127690766Y-106544849D01*
X127477319Y-106508172D01*
X127338514Y-106483480D01*
X127278355Y-106471431D01*
X127276063Y-106470506D01*
X127311622Y-106444152D01*
X127410072Y-106386032D01*
X127559007Y-106303095D01*
X127746022Y-106202289D01*
X127897318Y-106122530D01*
X128518635Y-105797881D01*
X130786568Y-106136157D01*
G37*
X130786568Y-106136157D02*
X131268989Y-106208097D01*
X131770044Y-106282787D01*
X132275092Y-106358046D01*
X132769490Y-106431693D01*
X133238599Y-106501548D01*
X133667776Y-106565431D01*
X134042381Y-106621159D01*
X134345667Y-106666241D01*
X135427693Y-106827038D01*
X136471478Y-106982264D01*
X137474405Y-107131529D01*
X138433860Y-107274439D01*
X139347227Y-107410604D01*
X140211892Y-107539630D01*
X141025238Y-107661126D01*
X141784651Y-107774700D01*
X142487516Y-107879960D01*
X143131218Y-107976513D01*
X143713141Y-108063967D01*
X144230670Y-108141931D01*
X144681190Y-108210013D01*
X145062086Y-108267819D01*
X145370742Y-108314959D01*
X145604544Y-108351040D01*
X145760876Y-108375670D01*
X145837123Y-108388457D01*
X145844619Y-108390174D01*
X145813479Y-108409695D01*
X145714376Y-108451384D01*
X145559758Y-108510907D01*
X145362074Y-108583926D01*
X145133771Y-108666105D01*
X144887298Y-108753110D01*
X144635103Y-108840603D01*
X144389634Y-108924248D01*
X144163340Y-108999710D01*
X143968667Y-109062651D01*
X143818066Y-109108737D01*
X143723983Y-109133631D01*
X143701334Y-109136752D01*
X143649452Y-109129528D01*
X143518066Y-109109423D01*
X143311249Y-109077091D01*
X143033074Y-109033183D01*
X142687614Y-108978352D01*
X142278942Y-108913250D01*
X141811133Y-108838531D01*
X141288259Y-108754847D01*
X140714394Y-108662850D01*
X140093612Y-108563194D01*
X139429984Y-108456530D01*
X138727586Y-108343511D01*
X137990490Y-108224791D01*
X137222769Y-108101021D01*
X136428497Y-107972854D01*
X135611748Y-107840942D01*
X135435813Y-107812512D01*
X134616456Y-107679979D01*
X133819679Y-107550868D01*
X133049487Y-107425837D01*
X132309884Y-107305545D01*
X131604875Y-107190651D01*
X130938465Y-107081813D01*
X130314659Y-106979690D01*
X129737461Y-106884940D01*
X129210877Y-106798223D01*
X128738910Y-106720196D01*
X128325566Y-106651519D01*
X127974850Y-106592851D01*
X127690766Y-106544849D01*
X127477319Y-106508172D01*
X127338514Y-106483480D01*
X127278355Y-106471431D01*
X127276063Y-106470506D01*
X127311622Y-106444152D01*
X127410072Y-106386032D01*
X127559007Y-106303095D01*
X127746022Y-106202289D01*
X127897318Y-106122530D01*
X128518635Y-105797881D01*
X130786568Y-106136157D01*
X134139781Y-93995439D02*
X134270230Y-94005994D01*
X134270230Y-94005994D02*
X134470007Y-94024169D01*
X134470007Y-94024169D02*
X134731689Y-94049229D01*
X134731689Y-94049229D02*
X135047852Y-94080442D01*
X135047852Y-94080442D02*
X135411071Y-94117072D01*
X135411071Y-94117072D02*
X135813922Y-94158386D01*
X135813922Y-94158386D02*
X136248980Y-94203650D01*
X136248980Y-94203650D02*
X136708823Y-94252130D01*
X136708823Y-94252130D02*
X136762420Y-94257821D01*
X136762420Y-94257821D02*
X137223175Y-94306732D01*
X137223175Y-94306732D02*
X137658841Y-94352886D01*
X137658841Y-94352886D02*
X138062150Y-94395519D01*
X138062150Y-94395519D02*
X138425830Y-94433867D01*
X138425830Y-94433867D02*
X138742612Y-94467166D01*
X138742612Y-94467166D02*
X139005226Y-94494652D01*
X139005226Y-94494652D02*
X139206401Y-94515561D01*
X139206401Y-94515561D02*
X139338869Y-94529129D01*
X139338869Y-94529129D02*
X139395357Y-94534592D01*
X139395357Y-94534592D02*
X139396739Y-94534667D01*
X139396739Y-94534667D02*
X139425167Y-94566861D01*
X139425167Y-94566861D02*
X139425667Y-94574167D01*
X139425667Y-94574167D02*
X139409210Y-94621162D01*
X139409210Y-94621162D02*
X139362525Y-94736124D01*
X139362525Y-94736124D02*
X139289644Y-94909594D01*
X139289644Y-94909594D02*
X139194595Y-95132112D01*
X139194595Y-95132112D02*
X139081409Y-95394218D01*
X139081409Y-95394218D02*
X138954117Y-95686455D01*
X138954117Y-95686455D02*
X138871067Y-95875917D01*
X138871067Y-95875917D02*
X138711204Y-96240401D01*
X138711204Y-96240401D02*
X138582048Y-96537020D01*
X138582048Y-96537020D02*
X138479911Y-96775276D01*
X138479911Y-96775276D02*
X138401107Y-96964671D01*
X138401107Y-96964671D02*
X138341948Y-97114705D01*
X138341948Y-97114705D02*
X138298749Y-97234880D01*
X138298749Y-97234880D02*
X138267822Y-97334698D01*
X138267822Y-97334698D02*
X138245480Y-97423661D01*
X138245480Y-97423661D02*
X138228036Y-97511269D01*
X138228036Y-97511269D02*
X138221119Y-97550917D01*
X138221119Y-97550917D02*
X138196913Y-97651720D01*
X138196913Y-97651720D02*
X138170423Y-97704058D01*
X138170423Y-97704058D02*
X138164332Y-97706250D01*
X138164332Y-97706250D02*
X138128507Y-97678112D01*
X138128507Y-97678112D02*
X138035060Y-97598038D01*
X138035060Y-97598038D02*
X137889299Y-97470730D01*
X137889299Y-97470730D02*
X137696531Y-97300895D01*
X137696531Y-97300895D02*
X137462064Y-97093236D01*
X137462064Y-97093236D02*
X137191205Y-96852458D01*
X137191205Y-96852458D02*
X136889262Y-96583265D01*
X136889262Y-96583265D02*
X136561544Y-96290363D01*
X136561544Y-96290363D02*
X136213357Y-95978456D01*
X136213357Y-95978456D02*
X136074822Y-95854166D01*
X136074822Y-95854166D02*
X135634149Y-95457503D01*
X135634149Y-95457503D02*
X135245043Y-95104892D01*
X135245043Y-95104892D02*
X134909150Y-94797874D01*
X134909150Y-94797874D02*
X134628120Y-94537993D01*
X134628120Y-94537993D02*
X134403600Y-94326790D01*
X134403600Y-94326790D02*
X134237238Y-94165807D01*
X134237238Y-94165807D02*
X134130681Y-94056585D01*
X134130681Y-94056585D02*
X134085578Y-94000668D01*
X134085578Y-94000668D02*
X134086087Y-93993237D01*
X134086087Y-93993237D02*
X134139781Y-93995439D01*
X134139781Y-93995439D02*
X134139781Y-93995439D01*
G36*
X134139781Y-93995439D02*
G01*
X134270230Y-94005994D01*
X134470007Y-94024169D01*
X134731689Y-94049229D01*
X135047852Y-94080442D01*
X135411071Y-94117072D01*
X135813922Y-94158386D01*
X136248980Y-94203650D01*
X136708823Y-94252130D01*
X136762420Y-94257821D01*
X137223175Y-94306732D01*
X137658841Y-94352886D01*
X138062150Y-94395519D01*
X138425830Y-94433867D01*
X138742612Y-94467166D01*
X139005226Y-94494652D01*
X139206401Y-94515561D01*
X139338869Y-94529129D01*
X139395357Y-94534592D01*
X139396739Y-94534667D01*
X139425167Y-94566861D01*
X139425667Y-94574167D01*
X139409210Y-94621162D01*
X139362525Y-94736124D01*
X139289644Y-94909594D01*
X139194595Y-95132112D01*
X139081409Y-95394218D01*
X138954117Y-95686455D01*
X138871067Y-95875917D01*
X138711204Y-96240401D01*
X138582048Y-96537020D01*
X138479911Y-96775276D01*
X138401107Y-96964671D01*
X138341948Y-97114705D01*
X138298749Y-97234880D01*
X138267822Y-97334698D01*
X138245480Y-97423661D01*
X138228036Y-97511269D01*
X138221119Y-97550917D01*
X138196913Y-97651720D01*
X138170423Y-97704058D01*
X138164332Y-97706250D01*
X138128507Y-97678112D01*
X138035060Y-97598038D01*
X137889299Y-97470730D01*
X137696531Y-97300895D01*
X137462064Y-97093236D01*
X137191205Y-96852458D01*
X136889262Y-96583265D01*
X136561544Y-96290363D01*
X136213357Y-95978456D01*
X136074822Y-95854166D01*
X135634149Y-95457503D01*
X135245043Y-95104892D01*
X134909150Y-94797874D01*
X134628120Y-94537993D01*
X134403600Y-94326790D01*
X134237238Y-94165807D01*
X134130681Y-94056585D01*
X134085578Y-94000668D01*
X134086087Y-93993237D01*
X134139781Y-93995439D01*
G37*
X134139781Y-93995439D02*
X134270230Y-94005994D01*
X134470007Y-94024169D01*
X134731689Y-94049229D01*
X135047852Y-94080442D01*
X135411071Y-94117072D01*
X135813922Y-94158386D01*
X136248980Y-94203650D01*
X136708823Y-94252130D01*
X136762420Y-94257821D01*
X137223175Y-94306732D01*
X137658841Y-94352886D01*
X138062150Y-94395519D01*
X138425830Y-94433867D01*
X138742612Y-94467166D01*
X139005226Y-94494652D01*
X139206401Y-94515561D01*
X139338869Y-94529129D01*
X139395357Y-94534592D01*
X139396739Y-94534667D01*
X139425167Y-94566861D01*
X139425667Y-94574167D01*
X139409210Y-94621162D01*
X139362525Y-94736124D01*
X139289644Y-94909594D01*
X139194595Y-95132112D01*
X139081409Y-95394218D01*
X138954117Y-95686455D01*
X138871067Y-95875917D01*
X138711204Y-96240401D01*
X138582048Y-96537020D01*
X138479911Y-96775276D01*
X138401107Y-96964671D01*
X138341948Y-97114705D01*
X138298749Y-97234880D01*
X138267822Y-97334698D01*
X138245480Y-97423661D01*
X138228036Y-97511269D01*
X138221119Y-97550917D01*
X138196913Y-97651720D01*
X138170423Y-97704058D01*
X138164332Y-97706250D01*
X138128507Y-97678112D01*
X138035060Y-97598038D01*
X137889299Y-97470730D01*
X137696531Y-97300895D01*
X137462064Y-97093236D01*
X137191205Y-96852458D01*
X136889262Y-96583265D01*
X136561544Y-96290363D01*
X136213357Y-95978456D01*
X136074822Y-95854166D01*
X135634149Y-95457503D01*
X135245043Y-95104892D01*
X134909150Y-94797874D01*
X134628120Y-94537993D01*
X134403600Y-94326790D01*
X134237238Y-94165807D01*
X134130681Y-94056585D01*
X134085578Y-94000668D01*
X134086087Y-93993237D01*
X134139781Y-93995439D01*
D11*
X154300000Y-115650000D03*
X164050000Y-115000000D03*
X136310000Y-95500000D03*
X149570000Y-107290000D03*
X157780000Y-106812696D03*
X137510000Y-96830000D03*
X148300000Y-109775000D03*
D12*
X149710000Y-107150000D02*
X149890000Y-107150000D01*
X149570000Y-107290000D02*
X149710000Y-107150000D01*
X136310000Y-95630000D02*
X137510000Y-96830000D01*
X136310000Y-95500000D02*
X136310000Y-95630000D01*
X157302696Y-107290000D02*
X149570000Y-107290000D01*
X157780000Y-106812696D02*
X157302696Y-107290000D01*
X148300000Y-108560000D02*
X149570000Y-107290000D01*
X148300000Y-109775000D02*
X148300000Y-108560000D01*
X157780000Y-112170000D02*
X154300000Y-115650000D01*
X157780000Y-106812696D02*
X157780000Y-112170000D01*
X163400000Y-115650000D02*
X164050000Y-115000000D01*
X154300000Y-115650000D02*
X163400000Y-115650000D01*
M02*
